<?xml version="1.0" encoding="UTF-8"?><svg id="Layer_1" xmlns="http://www.w3.org/2000/svg" width="1.4in" height="1.4in" viewBox="0 0 100.8 100.66"><g id="Toothbrush"><path d="M96.17,16.05c-1.14-1.14-2.98-1.14-4.12,0l-.44.44-7.97-7.97c-.71-.71-1.86-.71-2.57,0-.34.34-.53.8-.53,1.29s.19.95.53,1.29l7.97,7.97-1.12,1.12-7.97-7.97c-.71-.71-1.86-.71-2.57,0-.71.71-.71,1.86,0,2.57l7.97,7.97-1.12,1.12-7.97-7.97c-.71-.71-1.86-.71-2.57,0-.34.34-.53.8-.53,1.29s.19.95.53,1.29l7.97,7.97-1.12,1.12-7.97-7.97c-.71-.71-1.86-.71-2.57,0-.34.34-.53.8-.53,1.29s.19.95.53,1.29l7.97,7.97-1.12,1.12-7.97-7.97c-.71-.71-1.86-.71-2.57,0-.34.34-.53.8-.53,1.29s.19.95.53,1.29l7.97,7.97-1.12,1.12-7.97-7.97c-.71-.71-1.86-.71-2.57,0-.34.34-.53.8-.53,1.29s.19.95.53,1.29l7.97,7.97-.78.78c-.92.92-2.07,1.64-3.3,2.06l-6.75,2.31c-2.07.71-3.99,1.9-5.54,3.45l-7.13,6.06c-1.65-.72-3.28-.79-4.36.28,0,0-34.55,34.55-38.1,38.1-1.78,1.78-.44,5.08,1.83,7.44,2.36,2.27,5.67,3.6,7.44,1.83,3.55-3.55,38.1-38.1,38.1-38.1,1.08-1.08,1.01-2.71.28-4.36l6.06-7.13c.92-.92,2.07-1.64,3.3-2.06l6.75-2.31c2.07-.71,3.99-1.9,5.54-3.45l22.27-22.26c.55-.55.85-1.29.85-2.06s-.31-1.51-.85-2.06Z" fill="#fff" stroke-width="0"/><path d="M57.39,22.74c.43.31.96.42,1.47.31l.13-.03c.99-.21,1.69-1.1,1.68-2.11-.06-3.09,1.93-4.93,6.45-5.9,8-1.7,9.71-7.62,9.02-13.37-.06-.52-.34-.99-.77-1.29-.43-.3-.96-.42-1.47-.31l-.08.02c-1.02.22-1.74,1.12-1.73,2.16.04,3.08-1.98,4.9-6.45,5.86-7.97,1.7-9.7,7.62-9.02,13.37.06.52.34.99.77,1.3Z" fill="#fff" stroke-width="0"/></g></svg>