<?xml version="1.0" encoding="UTF-8"?><svg id="Layer_1" xmlns="http://www.w3.org/2000/svg" width="1.4in" height="1.4in" viewBox="0 0 100.8 100.66"><g id="Toothpaste"><path d="M99.03,18.68l-4.05-4.25c-.89-.94-2.29-1.07-3.33-.32l-10.03,7.29-2.12-2.23c-2.12-2.23-5-3.48-8-3.48s-5.88,1.25-8,3.48l-21.19,22.26-7.43-7.81h0c-7.46-7.84-19.6-7.84-27.06,0-4.36,4.58-6.77,10.68-6.77,17.16s2.4,12.57,6.77,17.16l16.12,16.93.05-.05s0,0,0,0c5.47,5.75,12.66,8.62,19.84,8.62s14.37-2.87,19.84-8.62l31.15-32.72c4.43-4.65,4.43-12.19,0-16.84l-2.44-2.56,6.94-10.53c.72-1.09.59-2.56-.3-3.49ZM12.44,63.09c-6.46-6.79-6.46-17.82,0-24.61,4.91-5.16,12.9-5.16,17.82,0h0l5.91,6.21c-4.44.33-8.8,2.26-12.19,5.82-4.62,4.85-6.86,11.25-6.75,17.62l-4.8-5.04ZM90.22,47.23l-31.18,32.75c-8.39,8.82-22.05,8.82-30.44,0-6.46-6.79-6.46-17.82,0-24.61,2.46-2.58,5.68-3.87,8.91-3.87,2.83,0,5.65.99,7.96,2.97l1.65,1.74c1.33,1.75,2.05,3.89,2.05,6.16,0,2.64-.98,5.13-2.76,7-5.82,6.12-12.92-.43-10.58-5.5.48-1.05.28-2.3-.5-3.13l-.03-.03c-.49-.52-1.18-.77-1.87-.71-.69.06-1.32.45-1.72,1.05-7.82,11.77,9.31,23.71,19.33,13.19,3.01-3.17,4.68-7.38,4.68-11.85,0-4.48-1.66-8.69-4.68-11.86-.37-.39-.75-.75-1.14-1.1l-2.97-3.12,21.2-22.27c.89-.94,2.11-1.47,3.37-1.47s2.48.53,3.37,1.47l15.35,16.12c1.86,1.96,1.86,5.13,0,7.08Z" fill="#fff" stroke-width="0"/><path d="M79.24,41.82l-2.29-1.23s-.01,0-.02-.01c-.01,1.44-.22,2.49-.39,3.09-.04.13-.15.21-.27.21-.13,0-.23-.09-.27-.22-.95-3.82-1.57-5.81-2.63-8-1.03-2.12-3.19-3.36-5.45-3.13-2.26.23-4.15,1.88-4.78,4.17l-1.25,4.59c-.32,1.15-.82,2.25-1.48,3.23l-2.82,4.17c-1,1.33.29,3.21,1.81,2.63l5.03-1.69c.43-.14.9-.03,1.21.31s.43.82.29,1.27l-1.61,5.28c-.55,1.59,1.24,2.96,2.5,1.9l3.97-2.96c.93-.7,1.97-1.22,3.07-1.55l4.37-1.32c2.18-.66,3.75-2.65,3.97-5.02.22-2.37-.97-4.64-2.98-5.72Z" fill="#fff" stroke-width="0"/></g></svg>