<?xml version="1.0" encoding="UTF-8"?><svg id="Layer_1" xmlns="http://www.w3.org/2000/svg" width="1.4in" height="1.4in" viewBox="0 0 100.8 100.8"><g id="Dental_Tools"><path d="M64.69,11.4c-.08-1-.92-1.76-1.92-1.76-.97,0-1.79.75-1.87,1.72l-.8,9.58c0,.52-.42.94-.94.94h-3.97c-2.51,0-4.88.98-6.66,2.76l-8.14,8.14c-1.73-.96-3.55-1.2-4.68-.07,0,0-30.19,30.19-33.47,33.47-1.64,1.64-.41,4.68,1.69,6.87,2.18,2.09,5.23,3.32,6.86,1.68,3.28-3.28,33.47-33.47,33.47-33.47,1.14-1.14.89-2.95-.06-4.68l8.14-8.14c.76-.76,1.78-1.18,2.86-1.18h3.97c1.69,0,3.27-.66,4.46-1.85,1.19-1.19,1.85-2.78,1.85-4.46l-.8-9.54Z" fill="#fff" stroke-width="0"/><path d="M100.48,39.51c-.45-2.38-.55-3.13-.72-3.64-.18-.55-.44-1.07-.8-1.54-2.78-3.7-9.94-3.48-15.8-1.62-2.2.7-4.24,1.62-6,2.68-.9.54-1.93.83-2.98.83h-1.18c-3.16,0-6.13,1.23-8.37,3.46l-8.79,8.79c-1.73-.96-3.55-1.2-4.68-.07,0,0-30.06,30.06-33.34,33.34-1.64,1.64-.41,4.68,1.69,6.86,2.18,2.09,5.23,3.32,6.86,1.69,3.28-3.28,33.34-33.34,33.34-33.34,1.14-1.14.89-2.95-.07-4.68l8.79-8.79c.82-.82,1.83-1.39,2.92-1.67-.24.9-.23,1.68-.13,2.31.06.4.65,3.6.8,4.08.9,2.85,4.07,4.48,8.69,4.48,2.46,0,5.19-.45,7.91-1.31,3.45-1.09,6.54-2.74,8.7-4.63,3.48-3.04,3.51-5.74,3.13-7.23ZM87.1,46.5c-2.66.84-6.54,1.44-9,1.05-.49-.08-.89-.42-1.04-.9-.15-.47-.03-.99.33-1.34,1.35-1.33,3.95-3.11,7.96-4.38,2.62-.83,6.53-1.45,9-1.05.49.08.89.42,1.04.9.15.47.03.99-.33,1.34-1.35,1.33-3.95,3.11-7.96,4.38Z" fill="#fff" stroke-width="0"/></g></svg>