<?xml version="1.0" encoding="UTF-8"?><svg id="Layer_1" xmlns="http://www.w3.org/2000/svg" width=".67in" height="1.38in" viewBox="0 0 48.33 99.54"><path d="M20.38,15.68c1.56,2.03,2.82,4.26,3.79,6.65.97-2.39,2.23-4.62,3.79-6.65.25-.32.51-.64.77-.96-.55-4.38-1.87-9.4-4.55-14.72-2.52,5.55-3.89,10.5-4.56,14.73.26.31.52.63.76.95Z" fill="#066d5f" stroke-width="0"/><path d="M19.52,30.21c.6,1,1.17,1.97,1.69,2.92.47-2.25,1.06-4.69,1.78-7.3C18.88,11.53,5.57,7.74,5.57,7.74c4.46,4.96,7.35,10.94,9.23,16.81,1.84,1.61,3.43,3.5,4.72,5.66Z" fill="#066d5f" stroke-width="0"/><path d="M24.16,38.88c1.19-2.54,2.71-5.47,4.64-8.67,1.3-2.15,2.88-4.05,4.72-5.66,1.88-5.88,4.77-11.86,9.23-16.81,0,0-13.4,3.82-17.47,18.23-1.07,3.8-1.84,7.26-2.4,10.29.46.91.89,1.79,1.28,2.62Z" fill="#066d5f" stroke-width="0"/><path d="M11.01,32.29c3.28,1.36,5.98,3.54,8.04,6.48,1.2,1.72,2.23,3.33,3.1,4.81.24-.61.5-1.26.79-1.96-1.24-2.85-2.98-6.35-5.34-10.26C11.32,20.95,0,20.84,0,20.84c4.65,2.99,8.26,7.16,11.01,11.45Z" fill="#066d5f" stroke-width="0"/><path d="M24.16,45.03c.4,0,.79.01,1.18.03,1.03-1.86,2.32-3.98,3.94-6.28,2.06-2.94,4.76-5.11,8.04-6.48,2.75-4.29,6.36-8.46,11.01-11.45,0,0-11.32.11-17.6,10.53-3.42,5.66-5.52,10.46-6.73,13.66.06,0,.11,0,.17,0Z" fill="#066d5f" stroke-width="0"/><path d="M15.7,46.51c1.49-.59,3.11-1,4.83-1.24-.91-1.58-2-3.33-3.32-5.21-5.26-7.52-13.79-7.03-13.79-7.03,5.8,3.19,9.77,8.76,12.27,13.48Z" fill="#066d5f" stroke-width="0"/><path d="M32.63,46.51c2.51-4.72,6.47-10.28,12.27-13.48,0,0-8.52-.49-13.79,7.03-1.32,1.88-2.41,3.64-3.32,5.21,1.73.24,3.34.65,4.83,1.24Z" fill="#066d5f" stroke-width="0"/><path d="M41.02,79.97c.55.48,1.09.96,1.65,1.43.23.2.47.4.7.59.26-1.81.41-3.66.47-5.48-.93,1.17-1.87,2.33-2.82,3.46Z" fill="#fab131" stroke-width="0"/><path d="M18.28,72.59c1.93,2.22,3.89,4.38,5.89,6.46,2-2.08,3.96-4.24,5.89-6.46-2-2.07-3.96-4.21-5.89-6.42-1.93,2.21-3.89,4.35-5.89,6.42Z" fill="#fab131" stroke-width="0"/><path d="M16.58,70.6c.08.09.16.18.23.27,1.99-2.07,3.95-4.22,5.88-6.43-.22-.25-.43-.51-.65-.76-1.65-1.96-3.28-3.99-4.89-6.07-1.92,2.2-3.87,4.34-5.85,6.41,1.74,2.27,3.5,4.46,5.28,6.58Z" fill="#fab131" stroke-width="0"/><path d="M24.16,94.45c2.13-1.96,4.23-4,6.3-6.12-2.13-1.94-4.23-3.95-6.3-6.05-2.07,2.1-4.17,4.11-6.3,6.05,2.07,2.12,4.17,4.17,6.3,6.12Z" fill="#fab131" stroke-width="0"/><path d="M25.67,47.32c1.74,2.26,3.49,4.46,5.27,6.57.05.05.09.11.14.16,1.05-1.4,2.09-2.82,3.12-4.28-2.23-1.35-5.02-2.25-8.52-2.45Z" fill="#fab131" stroke-width="0"/><path d="M19.11,55.33c-.15.18-.31.36-.46.55,1.68,2.19,3.39,4.32,5.11,6.37.14.16.27.32.41.48.14-.16.27-.32.41-.48,1.72-2.05,3.43-4.18,5.11-6.37-.15-.18-.31-.36-.46-.55-1.7-2.03-3.39-4.13-5.06-6.29-1.66,2.16-3.35,4.26-5.05,6.29Z" fill="#fab131" stroke-width="0"/><path d="M14.13,49.77c1.03,1.45,2.07,2.88,3.12,4.28.04-.05.09-.11.14-.16,1.78-2.11,3.53-4.31,5.27-6.57-3.5.2-6.29,1.1-8.52,2.45Z" fill="#fab131" stroke-width="0"/><path d="M37.89,80.19c-2.12-1.92-4.21-3.91-6.26-5.99-1.93,2.22-3.9,4.38-5.9,6.47,2.07,2.1,4.17,4.11,6.29,6.04,1.99-2.1,3.95-4.28,5.87-6.52Z" fill="#fab131" stroke-width="0"/><path d="M8.76,81.68c-.55.48-1.09.95-1.64,1.42-.57.49-1.14.97-1.72,1.44.67,3.28,1.72,6.3,3.25,8.65,1.42-1.12,2.82-2.27,4.2-3.44.6-.51,1.19-1.03,1.79-1.55-1.99-2.1-3.95-4.28-5.87-6.52Z" fill="#fab131" stroke-width="0"/><path d="M43.71,70.59c-1.72-1.59-3.42-3.24-5.1-4.94-1.69,2.2-3.41,4.34-5.14,6.4-.13.15-.25.3-.38.45,2.05,2.07,4.14,4.07,6.25,5.98,1.51-1.81,3.01-3.69,4.49-5.61-.02-.78-.07-1.54-.12-2.28Z" fill="#fab131" stroke-width="0"/><path d="M39.98,63.84c1.11,1.12,2.22,2.23,3.35,3.3-.27-1.82-.64-3.94-1.28-6.11-.69.94-1.37,1.88-2.07,2.8Z" fill="#fab131" stroke-width="0"/><path d="M31.75,70.6c1.78-2.12,3.54-4.32,5.28-6.58-1.99-2.07-3.94-4.2-5.85-6.41-1.61,2.09-3.24,4.11-4.89,6.07-.21.26-.43.51-.65.76,1.92,2.21,3.88,4.36,5.88,6.43.08-.09.16-.18.23-.27Z" fill="#fab131" stroke-width="0"/><path d="M41.2,83.11c-.55-.47-1.09-.94-1.64-1.42-1.92,2.24-3.88,4.42-5.87,6.52.59.52,1.19,1.04,1.79,1.55,1.38,1.18,2.78,2.32,4.2,3.44,1.53-2.35,2.58-5.38,3.25-8.65-.58-.48-1.15-.96-1.72-1.44Z" fill="#fab131" stroke-width="0"/><path d="M22.6,80.67c-2-2.08-3.97-4.24-5.9-6.47-2.06,2.08-4.15,4.07-6.26,5.99,1.92,2.24,3.88,4.42,5.87,6.52,2.13-1.93,4.23-3.95,6.29-6.04Z" fill="#fab131" stroke-width="0"/><path d="M22.5,95.96c-2.13-1.96-4.24-4.01-6.31-6.14-.63.55-1.26,1.1-1.89,1.64-1.41,1.2-2.83,2.37-4.28,3.51,1.98,2.08,5.22,3.44,8.86,4.1.38-.32.76-.64,1.14-.96.83-.7,1.65-1.42,2.47-2.15Z" fill="#fab131" stroke-width="0"/><path d="M32.57,55.79c1.91,2.21,3.85,4.35,5.83,6.42.93-1.24,1.84-2.49,2.75-3.77-1.09-2.72-2.7-5.35-5.13-7.37-1.14,1.61-2.29,3.18-3.45,4.72Z" fill="#fab131" stroke-width="0"/><path d="M21.91,99.46c1.49.11,3.01.11,4.51,0-.75-.65-1.5-1.31-2.25-1.98-.75.67-1.5,1.33-2.25,1.98Z" fill="#fab131" stroke-width="0"/><path d="M38.3,94.97c-1.44-1.14-2.87-2.31-4.28-3.51-.63-.54-1.26-1.09-1.89-1.64-2.07,2.13-4.17,4.18-6.3,6.14.82.73,1.64,1.45,2.47,2.15.38.32.76.64,1.14.96,3.64-.66,6.88-2.03,8.86-4.1Z" fill="#fab131" stroke-width="0"/><path d="M5.67,81.4c.55-.47,1.1-.95,1.65-1.43-.94-1.13-1.88-2.28-2.82-3.46.06,1.82.21,3.67.47,5.48.24-.2.47-.39.7-.59Z" fill="#fab131" stroke-width="0"/><path d="M8.35,63.84c-.69-.92-1.38-1.86-2.07-2.8-.64,2.17-1.01,4.29-1.28,6.11,1.12-1.07,2.24-2.19,3.35-3.3Z" fill="#fab131" stroke-width="0"/><path d="M14.86,72.05c-1.73-2.06-3.45-4.2-5.14-6.4-1.68,1.7-3.38,3.35-5.1,4.94l-.12,2.28c1.48,1.92,2.98,3.79,4.49,5.61,2.11-1.91,4.2-3.91,6.25-5.98-.13-.15-.25-.3-.38-.45Z" fill="#fab131" stroke-width="0"/><path d="M15.76,55.79c-1.16-1.54-2.32-3.12-3.46-4.72-2.43,2.02-4.04,4.65-5.13,7.37.91,1.28,1.83,2.53,2.75,3.77,1.98-2.07,3.93-4.21,5.83-6.42Z" fill="#fab131" stroke-width="0"/></svg>