<?xml version="1.0" encoding="UTF-8"?><svg id="Layer_1" xmlns="http://www.w3.org/2000/svg" width="1.4in" height="1.4in" viewBox="0 0 100.8 100.66"><g id="Group_2486"><g id="Group_2485"><path id="Path_17142" d="M86.9,28.65c-5.23-6.36-13.82-8.87-21.66-6.34l-8.87,2.87s-.05.02-.08.02c2.56,2.54,4.77,5.42,6.56,8.56.27.49.09,1.1-.4,1.37-.31.17-.69.16-.99-.01-11.79-6.9-18.24-10.19-26.31-12.81-10.54-3.41-21.85,2.37-25.26,12.91-1.71,5.28-1.15,11.03,1.54,15.89l8,14.43c2.01,3.64,3.39,7.59,4.09,11.69l2.95,17.43c.38,3.2,3.29,5.48,6.49,5.1,2-.24,3.74-1.49,4.59-3.32l8.78-17.05c1.1-2.13,3.72-2.97,5.86-1.88.81.41,1.46,1.07,1.88,1.88l8.79,17.05c1.37,2.92,4.85,4.17,7.77,2.8,1.82-.85,3.07-2.59,3.31-4.58l2.95-17.45c.7-4.1,2.08-8.05,4.1-11.69l8-14.43c3.99-7.2,3.17-16.11-2.06-22.47" fill="#fff" stroke-width="0"/><rect id="Rectangle_4748" x="47.56" y=".74" width="5.27" height="9.3" rx="1.57" ry="1.57" fill="#fff" stroke-width="0"/><path id="Rectangle_4749" d="M19.34,7.66l1.95-.88c.79-.36,1.72,0,2.07.78h0l2.55,5.61c.36.79,0,1.72-.78,2.08h0s-1.95.88-1.95.88c-.79.36-1.72,0-2.07-.78l-2.55-5.61c-.36-.79,0-1.72.78-2.08Z" fill="#fff" stroke-width="0"/><path id="Path_17143" d="M81.63,7.92c.46.21.67.75.46,1.22,0,0,0,0,0,.01l-3.08,6.78c-.21.46-.76.67-1.22.46,0,0,0,0,0,0l-3.11-1.43c-.46-.21-.66-.75-.46-1.21l3.08-6.78c.21-.47.76-.67,1.23-.46h0s3.12,1.41,3.12,1.41Z" fill="#fff" stroke-width="0"/></g></g></svg>