<?xml version="1.0" encoding="UTF-8"?>
<svg id="Layer_1" xmlns="http://www.w3.org/2000/svg" version="1.1" viewBox="0 0 420.3 73.2">
  <!-- Generator: Adobe Illustrator 29.4.0, SVG Export Plug-In . SVG Version: 2.1.0 Build 152)  -->
  <defs>
    <style>
      .st0 {
        fill: #a3b243;
      }

      .st1 {
        fill: #05314c;
      }
    </style>
  </defs>
  <g>
    <path class="st0" d="M18.9,41.7H.6c2.5,13.2,18.4,29.1,44.8,30.5-14.4-6-24.6-17.2-26.5-30.5"/>
    <path class="st0" d="M18.9,32.1H.6C3.1,19.2,19,3.5,45.4,2.2c-14.4,5.8-24.6,16.9-26.5,29.9"/>
    <path class="st0" d="M41.6,32.1c2.6-11.2,14.1-19.6,27.9-19.6s25.2,8.4,27.9,19.6h15.3c-3.1-16.9-21.2-29.9-43.2-29.9S29.4,15.2,26.3,32.1h15.3Z"/>
    <path class="st0" d="M97.4,41.7c-2.6,11.3-14.1,19.8-27.9,19.8s-25.3-8.5-27.9-19.8h-15.4c2.7,17.2,21.1,30.5,43.3,30.5s40.5-13.3,43.3-30.5h-15.3Z"/>
    <rect class="st1" x="128.5" y="3.5" width="7.8" height="39.8"/>
    <path class="st1" d="M150.8,13.4l.6,4.1c2.3-3.4,5.8-4.8,9.1-4.8s6,1.5,7.8,3.9c2.3,3,2.6,6.9,2.6,11.2v15.5h-7.9v-15.1c0-2.2,0-4.7-.9-6.4-.7-1.5-2.2-2.1-3.9-2.1s-4.9,1.4-6.3,3.8v19.9h-7.9V13.4h6.8Z"/>
    <path class="st1" d="M194.1,7.9c-1.3-.7-2.5-1-4-1s-2,.3-2.4.9c-.6.9-.8,2.2-.8,3.6v1.9h7.2v6.7h-7.2v23.2h-7.8v-23.2h-3.1v-6.7h3.1v-2.4c0-3.4.6-6.1,2.1-8,1.6-2,4.2-3.1,8.1-3.1s4.9.6,7.2,1.7l-2.4,6.2Z"/>
    <path class="st1" d="M226.1,28.4c0,8.8-6.3,15.6-15.1,15.6s-15.1-6.8-15.1-15.6,6.3-15.6,15.1-15.6,15.1,6.8,15.1,15.6M211.1,19.7c-4.3,0-7.2,3.8-7.2,8.7s2.9,8.7,7.2,8.7,7.1-3.8,7.1-8.7-2.9-8.7-7.1-8.7"/>
    <path class="st1" d="M239.1,17.4c1.6-2.8,3.9-4.7,6.7-4.7s2.7.3,3.7.7l-1.9,7.1c-.8-.5-1.8-.7-2.7-.7-2.2,0-4.3,1.3-5.4,3.3v20.3h-7.8V13.4h6.7l.6,4Z"/>
    <path class="st1" d="M289.4,43.4v-15.1c0-2.2,0-4.7-.9-6.4-.7-1.5-2.2-2.1-4-2.1s-4.4,1.3-5.9,3.4c.2,1.5.3,3.1.3,4.7v15.5h-8.1v-15.1c0-2.2,0-4.8-.9-6.5-.7-1.4-2.1-2-3.8-2s-4.3,1.3-5.8,3v20.7h-8.1V13.4h7l.6,3.6c2.4-3,5.7-4.3,8.7-4.3s7,2,8.5,5c2.8-4,6.7-5,10-5s6,1.5,7.9,3.9c2.3,3,2.7,6.9,2.7,11.2v15.5h-8.1Z"/>
    <path class="st1" d="M321,43.4l-.6-2.6c-1.9,2.4-4.9,3.2-8,3.2-5.5,0-10.6-3.4-10.6-9.5s6.7-9.7,12.8-9.7,3.5.2,5.3.6v-.5c0-3.8-1.5-6-5.8-6s-6.3,1.3-8.9,2.6l-2.1-5.8c3.8-1.9,8.3-3.1,12.7-3.1,8.2,0,12.1,4.8,12.1,12.6v18h-6.9ZM319.9,30.3c-1.5-.3-2.8-.5-4-.5-2.9,0-6.3,1.1-6.3,4.6s2.1,4,4.5,4,4.2-1,5.9-2.6v-5.5Z"/>
    <path class="st1" d="M342.8,20.1v11.6c0,.9,0,1.7.1,2.6.2,1.8.9,2.8,2.5,2.8s2.1-.3,3.1-.9l2.4,6c-1.9,1.1-4.6,1.8-6.9,1.8-4.5,0-7.5-2.6-8.6-6.4-.4-1.5-.5-3.2-.5-5v-12.5h-3.5v-6.7h3.5l1.2-6.6h6.6v6.6h7.3v6.7h-7.3Z"/>
    <path class="st1" d="M355.4,2.4h7.8v6.9h-7.8V2.4ZM355.4,13.4h7.8v29.9h-7.8V13.4Z"/>
    <path class="st1" d="M393.8,40.3c-2.9,2.6-6.4,3.7-10.6,3.7-8.7,0-14.9-6.4-14.9-15.6s6.2-15.6,15.2-15.6,7.4,1.3,10.4,3.7l-4.1,5.6c-1.6-1.5-3.4-2.4-5.7-2.4-4.5,0-7.6,3.9-7.6,8.7s3.3,8.7,7.5,8.7,4-.6,5.7-2.3l4.3,5.5Z"/>
    <path class="st1" d="M414.4,21.6c-1.5-1.4-3.6-2.5-5.8-2.5s-2.9.9-2.9,2.3,2.2,2.8,4.7,3.9c3.8,1.6,8.6,3.5,8.6,9.2s-5.6,9.6-11.3,9.6-8.6-1.8-11.9-5.1l4.5-4.8c2.2,2.2,4.1,3.5,7,3.5s3.8-.8,3.8-2.6-2.7-3-5.6-4.3c-3.5-1.5-7.4-3.6-7.4-8.8s5.2-9.2,10.5-9.2,7.5,1.3,10.2,3.9l-4.4,4.9Z"/>
  </g>
  <g>
    <path class="st1" d="M128.6,69.2v-15.6h2.9c.2.5,1,2.3,2.4,5.4,1.4,3.1,2.4,5.4,3.1,7.1.7-1.5,2.5-5.7,5.5-12.5h2.9v15.6h-2.3v-11.6c-.7,1.5-1.7,3.7-3,6.7-1.3,2.9-2,4.6-2.2,4.9h-1.8c-.4-.9-1.2-2.7-2.4-5.4-1.2-2.7-2.1-4.7-2.8-6.2v11.5h-2.4Z"/>
    <path class="st1" d="M153.9,69.2l6.2-15.6h2.5l6.3,15.6h-2.8l-1.6-4h-6.4l-1.5,4h-2.7ZM158.9,63h4.8c-.7-1.9-1.5-4.1-2.4-6.7-1.1,3-1.9,5.2-2.4,6.7Z"/>
    <path class="st1" d="M177.3,69.2v-15.6h5.3c.7,0,1.2,0,1.7.1.5,0,1,.2,1.5.4.5.2.9.4,1.2.7s.6.7.8,1.2c.2.5.3,1.1.3,1.8s-.3,1.7-.8,2.4c-.5.7-1.3,1.1-2.3,1.4.5.2.9.5,1.3,1s.7,1,1,1.8l2,4.9h-2.7l-1.8-4.7c-.3-.8-.6-1.4-1-1.7-.3-.3-.9-.4-1.7-.4h-2.3v6.8h-2.5ZM179.8,60.3h2.7c.4,0,.7,0,1,0s.6-.1.8-.2c.3-.1.5-.3.7-.4.2-.2.3-.4.4-.7.1-.3.2-.6.2-1,0-.9-.2-1.5-.6-1.8-.4-.3-1.2-.5-2.2-.5h-2.9v4.7Z"/>
    <path class="st1" d="M198.2,69.2v-15.6h2.5v6.9l6.3-6.9h3.1l-6.9,7.6,7.5,8.1h-3.2l-6.7-7.2v7.2h-2.5Z"/>
    <path class="st1" d="M218.7,69.2v-15.6h9.7v2.1h-7.2v4.4h6.8v2.1h-6.8v4.9h7.5v2.1h-10Z"/>
    <path class="st1" d="M240.9,69.2v-13.5h-4.9v-2.1h12.3v2.1h-4.9v13.5h-2.5Z"/>
    <path class="st1" d="M256.6,69.2v-15.6h2.5v15.6h-2.5Z"/>
    <path class="st1" d="M269.2,69.2v-15.6h2.6c.6.9,1.5,2.2,2.6,3.8,1.1,1.6,2.1,3.1,3,4.4.9,1.4,1.8,2.6,2.6,3.8v-12.1h2.3v15.6h-2.6c-.6-.9-1.5-2.2-2.6-3.8-1.1-1.6-2.1-3.1-3.1-4.4s-1.8-2.6-2.6-3.8v12.1h-2.3Z"/>
    <path class="st1" d="M299.8,69.4c-2.6,0-4.5-.7-5.9-2.1s-2.1-3.3-2.1-5.7.2-2.2.6-3.3c.4-1,.9-1.9,1.6-2.7s1.6-1.3,2.6-1.8c1-.4,2.2-.7,3.4-.7s2.3.1,3.1.4c.8.3,1.5.7,2.1,1.1l-1,1.7c-1.1-.8-2.5-1.2-4.2-1.2s-1.7.2-2.4.5c-.7.3-1.3.8-1.8,1.3-.5.6-.8,1.2-1.1,2-.3.7-.4,1.5-.4,2.3,0,1.8.5,3.2,1.4,4.2.9,1,2.3,1.6,4.1,1.6s2-.2,3-.5v-4h-3.8v-2.1h6.3v7.5c-1.7.8-3.6,1.2-5.6,1.2Z"/>
    <path class="st1" d="M331.4,68.3v-4.3h-4.1v-2h4.1v-4.3h2.2v4.3h4.1v2h-4.1v4.3h-2.2Z"/>
    <path class="st1" d="M362.5,69.2l-4.4-15.6h2.6c.2.9.6,2.2,1,4,.5,1.7.9,3.3,1.2,4.7.4,1.4.7,2.7,1,4,.4-1.3.7-2.6,1.2-4,.4-1.4.9-3,1.4-4.7s1-3.1,1.2-4h2.4l3,9.6.9,3.1c.3-1.3.6-2.6,1-4,.4-1.4.7-3,1.2-4.7.4-1.7.8-3,1-4h2.6l-4.3,15.6h-2.9l-3.7-12.3-3.7,12.3h-2.8Z"/>
    <path class="st1" d="M388.2,69.2v-15.6h9.7v2.1h-7.2v4.4h6.8v2.1h-6.8v4.9h7.5v2.1h-10Z"/>
    <path class="st1" d="M407.5,69.2v-15.6h4.2c.5,0,.9,0,1.2,0,.4,0,.8,0,1.2.1.5,0,.9.1,1.2.3s.7.3,1.1.5c.4.2.7.4.9.7s.4.6.6,1c.1.4.2.9.2,1.4,0,.8-.2,1.4-.6,2-.4.6-1,1-1.7,1.3,1,.2,1.7.7,2.2,1.4.5.7.8,1.5.8,2.5s-.1,1.2-.4,1.7-.6,1-1,1.4c-.5.4-1.1.8-1.8,1s-1.6.4-2.5.4h-5.6ZM410,60h2.4c.4,0,.8,0,1.2-.1.3,0,.7-.2,1-.3.3-.2.5-.4.7-.7s.3-.7.3-1.1c0-.8-.3-1.4-.9-1.7s-1.5-.4-2.7-.4h-2v4.4ZM410,67.1h2.7c1.1,0,2-.2,2.6-.6.6-.4.9-1,.9-1.8s-.3-1.6-.8-2c-.5-.4-1.5-.5-2.8-.5h-2.5v5Z"/>
  </g>
</svg>