<svg xmlns="http://www.w3.org/2000/svg" xmlns:xlink="http://www.w3.org/1999/xlink" width="168.832" height="182.849" viewBox="0 0 168.832 182.849">
  <defs>
    <clipPath id="clip-path">
      <rect width="168.832" height="182.849" fill="none"/>
    </clipPath>
  </defs>
  <g id="Repeat_Grid_2" data-name="Repeat Grid 2" clip-path="url(#clip-path)" style="mix-blend-mode: multiply;isolation: isolate">
    <g transform="translate(-140 -740)">
      <path id="Union_1" data-name="Union 1" d="M6.75,15V8.625H0V6.75H6.75V0H8.625V6.75H15V8.625H8.625V15Z" transform="translate(140 740)" fill="#e5e5e5"/>
    </g>
    <g transform="translate(-105 -740)">
      <path id="Union_1-2" data-name="Union 1" d="M6.75,15V8.625H0V6.75H6.75V0H8.625V6.75H15V8.625H8.625V15Z" transform="translate(140 740)" fill="#e5e5e5"/>
    </g>
    <g transform="translate(-70 -740)">
      <path id="Union_1-3" data-name="Union 1" d="M6.75,15V8.625H0V6.75H6.75V0H8.625V6.75H15V8.625H8.625V15Z" transform="translate(140 740)" fill="#e5e5e5"/>
    </g>
    <g transform="translate(-35 -740)">
      <path id="Union_1-4" data-name="Union 1" d="M6.75,15V8.625H0V6.75H6.75V0H8.625V6.75H15V8.625H8.625V15Z" transform="translate(140 740)" fill="#e5e5e5"/>
    </g>
    <g transform="translate(0 -740)">
      <path id="Union_1-5" data-name="Union 1" d="M6.75,15V8.625H0V6.75H6.75V0H8.625V6.75H15V8.625H8.625V15Z" transform="translate(140 740)" fill="#e5e5e5"/>
    </g>
    <g transform="translate(35 -740)">
      <path id="Union_1-6" data-name="Union 1" d="M6.75,15V8.625H0V6.75H6.75V0H8.625V6.75H15V8.625H8.625V15Z" transform="translate(140 740)" fill="#e5e5e5"/>
    </g>
    <g transform="translate(-140 -700)">
      <path id="Union_1-7" data-name="Union 1" d="M6.75,15V8.625H0V6.75H6.75V0H8.625V6.75H15V8.625H8.625V15Z" transform="translate(140 740)" fill="#e5e5e5"/>
    </g>
    <g transform="translate(-105 -700)">
      <path id="Union_1-8" data-name="Union 1" d="M6.75,15V8.625H0V6.75H6.75V0H8.625V6.75H15V8.625H8.625V15Z" transform="translate(140 740)" fill="#e5e5e5"/>
    </g>
    <g transform="translate(-70 -700)">
      <path id="Union_1-9" data-name="Union 1" d="M6.75,15V8.625H0V6.75H6.75V0H8.625V6.75H15V8.625H8.625V15Z" transform="translate(140 740)" fill="#e5e5e5"/>
    </g>
    <g transform="translate(-35 -700)">
      <path id="Union_1-10" data-name="Union 1" d="M6.75,15V8.625H0V6.75H6.75V0H8.625V6.75H15V8.625H8.625V15Z" transform="translate(140 740)" fill="#e5e5e5"/>
    </g>
    <g transform="translate(0 -700)">
      <path id="Union_1-11" data-name="Union 1" d="M6.75,15V8.625H0V6.75H6.75V0H8.625V6.75H15V8.625H8.625V15Z" transform="translate(140 740)" fill="#e5e5e5"/>
    </g>
    <g transform="translate(35 -700)">
      <path id="Union_1-12" data-name="Union 1" d="M6.75,15V8.625H0V6.75H6.75V0H8.625V6.75H15V8.625H8.625V15Z" transform="translate(140 740)" fill="#e5e5e5"/>
    </g>
    <g transform="translate(-140 -660)">
      <path id="Union_1-13" data-name="Union 1" d="M6.75,15V8.625H0V6.75H6.75V0H8.625V6.75H15V8.625H8.625V15Z" transform="translate(140 740)" fill="#e5e5e5"/>
    </g>
    <g transform="translate(-105 -660)">
      <path id="Union_1-14" data-name="Union 1" d="M6.75,15V8.625H0V6.75H6.75V0H8.625V6.75H15V8.625H8.625V15Z" transform="translate(140 740)" fill="#e5e5e5"/>
    </g>
    <g transform="translate(-70 -660)">
      <path id="Union_1-15" data-name="Union 1" d="M6.75,15V8.625H0V6.75H6.75V0H8.625V6.75H15V8.625H8.625V15Z" transform="translate(140 740)" fill="#e5e5e5"/>
    </g>
    <g transform="translate(-35 -660)">
      <path id="Union_1-16" data-name="Union 1" d="M6.75,15V8.625H0V6.75H6.75V0H8.625V6.75H15V8.625H8.625V15Z" transform="translate(140 740)" fill="#e5e5e5"/>
    </g>
    <g transform="translate(0 -660)">
      <path id="Union_1-17" data-name="Union 1" d="M6.75,15V8.625H0V6.75H6.75V0H8.625V6.75H15V8.625H8.625V15Z" transform="translate(140 740)" fill="#e5e5e5"/>
    </g>
    <g transform="translate(35 -660)">
      <path id="Union_1-18" data-name="Union 1" d="M6.75,15V8.625H0V6.75H6.75V0H8.625V6.75H15V8.625H8.625V15Z" transform="translate(140 740)" fill="#e5e5e5"/>
    </g>
    <g transform="translate(-140 -620)">
      <path id="Union_1-19" data-name="Union 1" d="M6.75,15V8.625H0V6.75H6.75V0H8.625V6.75H15V8.625H8.625V15Z" transform="translate(140 740)" fill="#e5e5e5"/>
    </g>
    <g transform="translate(-105 -620)">
      <path id="Union_1-20" data-name="Union 1" d="M6.75,15V8.625H0V6.75H6.75V0H8.625V6.75H15V8.625H8.625V15Z" transform="translate(140 740)" fill="#e5e5e5"/>
    </g>
    <g transform="translate(-70 -620)">
      <path id="Union_1-21" data-name="Union 1" d="M6.75,15V8.625H0V6.75H6.75V0H8.625V6.75H15V8.625H8.625V15Z" transform="translate(140 740)" fill="#e5e5e5"/>
    </g>
    <g transform="translate(-35 -620)">
      <path id="Union_1-22" data-name="Union 1" d="M6.75,15V8.625H0V6.75H6.75V0H8.625V6.75H15V8.625H8.625V15Z" transform="translate(140 740)" fill="#e5e5e5"/>
    </g>
    <g transform="translate(0 -620)">
      <path id="Union_1-23" data-name="Union 1" d="M6.75,15V8.625H0V6.75H6.75V0H8.625V6.75H15V8.625H8.625V15Z" transform="translate(140 740)" fill="#e5e5e5"/>
    </g>
    <g transform="translate(35 -620)">
      <path id="Union_1-24" data-name="Union 1" d="M6.75,15V8.625H0V6.75H6.75V0H8.625V6.75H15V8.625H8.625V15Z" transform="translate(140 740)" fill="#e5e5e5"/>
    </g>
    <g transform="translate(-140 -580)">
      <path id="Union_1-25" data-name="Union 1" d="M6.75,15V8.625H0V6.75H6.75V0H8.625V6.75H15V8.625H8.625V15Z" transform="translate(140 740)" fill="#e5e5e5"/>
    </g>
    <g transform="translate(-105 -580)">
      <path id="Union_1-26" data-name="Union 1" d="M6.75,15V8.625H0V6.75H6.75V0H8.625V6.75H15V8.625H8.625V15Z" transform="translate(140 740)" fill="#e5e5e5"/>
    </g>
    <g transform="translate(-70 -580)">
      <path id="Union_1-27" data-name="Union 1" d="M6.75,15V8.625H0V6.75H6.75V0H8.625V6.75H15V8.625H8.625V15Z" transform="translate(140 740)" fill="#e5e5e5"/>
    </g>
    <g transform="translate(-35 -580)">
      <path id="Union_1-28" data-name="Union 1" d="M6.75,15V8.625H0V6.75H6.75V0H8.625V6.75H15V8.625H8.625V15Z" transform="translate(140 740)" fill="#e5e5e5"/>
    </g>
    <g transform="translate(0 -580)">
      <path id="Union_1-29" data-name="Union 1" d="M6.75,15V8.625H0V6.75H6.75V0H8.625V6.75H15V8.625H8.625V15Z" transform="translate(140 740)" fill="#e5e5e5"/>
    </g>
    <g transform="translate(35 -580)">
      <path id="Union_1-30" data-name="Union 1" d="M6.75,15V8.625H0V6.75H6.75V0H8.625V6.75H15V8.625H8.625V15Z" transform="translate(140 740)" fill="#e5e5e5"/>
    </g>
    <g transform="translate(-140 -540)">
      <path id="Union_1-31" data-name="Union 1" d="M6.75,15V8.625H0V6.75H6.75V0H8.625V6.75H15V8.625H8.625V15Z" transform="translate(140 740)" fill="#e5e5e5"/>
    </g>
    <g transform="translate(-105 -540)">
      <path id="Union_1-32" data-name="Union 1" d="M6.75,15V8.625H0V6.75H6.75V0H8.625V6.75H15V8.625H8.625V15Z" transform="translate(140 740)" fill="#e5e5e5"/>
    </g>
    <g transform="translate(-70 -540)">
      <path id="Union_1-33" data-name="Union 1" d="M6.75,15V8.625H0V6.75H6.75V0H8.625V6.75H15V8.625H8.625V15Z" transform="translate(140 740)" fill="#e5e5e5"/>
    </g>
    <g transform="translate(-35 -540)">
      <path id="Union_1-34" data-name="Union 1" d="M6.75,15V8.625H0V6.75H6.75V0H8.625V6.75H15V8.625H8.625V15Z" transform="translate(140 740)" fill="#e5e5e5"/>
    </g>
    <g transform="translate(0 -540)">
      <path id="Union_1-35" data-name="Union 1" d="M6.75,15V8.625H0V6.75H6.75V0H8.625V6.75H15V8.625H8.625V15Z" transform="translate(140 740)" fill="#e5e5e5"/>
    </g>
    <g transform="translate(35 -540)">
      <path id="Union_1-36" data-name="Union 1" d="M6.75,15V8.625H0V6.75H6.75V0H8.625V6.75H15V8.625H8.625V15Z" transform="translate(140 740)" fill="#e5e5e5"/>
    </g>
  </g>
</svg>
