<svg xmlns="http://www.w3.org/2000/svg" xmlns:xlink="http://www.w3.org/1999/xlink" width="114.13" height="12.426" viewBox="0 0 114.13 12.426">
  <defs>
    <clipPath id="clip-path">
      <rect id="Rectangle_36" data-name="Rectangle 36" width="114.13" height="12.426" fill="none"/>
    </clipPath>
  </defs>
  <g id="Swoop" clip-path="url(#clip-path)">
    <path id="Path_22" data-name="Path 22" d="M14.275,7.9C20.193,6.347,28.927.665,39.08.771c10.128.1.211,10.469,18.677,7.076,16.967-3.1,41.272-8.6,53.32-7.76,4.577.158,3.446,3.341.29,3.051C96.819.9,67.726,10.24,51.206,11.161c-13.126.71-3.709-9.838-15.677-7.26-9.364.658-22.753,11.232-34.249,7.865C-1.587,9.609.57,8.978,5.673,9.425c3.657.316,2.709,0,8.6-1.526" transform="translate(0 0)" fill="#960026" fill-rule="evenodd"/>
  </g>
</svg>
