<?xml version="1.0" encoding="UTF-8"?>
<svg id="Layer_1" xmlns="http://www.w3.org/2000/svg" width="6.1in" height="1in" version="1.1" viewBox="0 0 436.9 73">
  <!-- Generator: Adobe Illustrator 29.2.1, SVG Export Plug-In . SVG Version: 2.1.0 Build 116)  -->
  <defs>
    <style>
      .st0 {
        isolation: isolate;
      }

      .st1 {
        fill: none;
        stroke: #fdf8f2;
        stroke-width: 1px;
      }

      .st2 {
        fill: #fec771;
      }

      .st3 {
        fill: #fdf8f2;
      }
    </style>
  </defs>
  <g id="Logo">
    <g id="Iowa_Academy_of" class="st0">
      <g class="st0">
        <path class="st3" d="M68.7,17.9V.5h2v17.3h-2Z"/>
        <path class="st3" d="M81.1,9.2c0-5.7,2.7-8.9,7.4-8.9s7.4,3.2,7.4,8.9-2.8,8.9-7.4,8.9-7.4-3.2-7.4-8.9ZM93.9,9.2c0-4.6-2-7.1-5.4-7.1s-5.3,2.5-5.3,7.1,2,7.1,5.3,7.1,5.4-2.5,5.4-7.1Z"/>
        <path class="st3" d="M108.6,17.9L104.1.5h2s3.7,14.9,3.7,14.9l3.5-14.9h1.9s3.5,14.9,3.5,14.9l3.8-14.9h2s-4.5,17.3-4.5,17.3h-2.4s-3.4-14.1-3.4-14.1l-3.3,14.1h-2.4Z"/>
        <path class="st3" d="M131.2,17.9l5.5-17.3h3s5.5,17.3,5.5,17.3h-2.1s-1.5-4.7-1.5-4.7h-6.8s-1.5,4.7-1.5,4.7h-2.1ZM135.3,11.4h5.7s-2.8-9-2.8-9l-2.8,9Z"/>
        <path class="st3" d="M164.7,17.9l5.5-17.3h3s5.5,17.3,5.5,17.3h-2.1s-1.5-4.7-1.5-4.7h-6.8s-1.5,4.7-1.5,4.7h-2.1ZM168.9,11.4h5.7s-2.8-9-2.8-9l-2.8,9Z"/>
        <path class="st3" d="M186.7,9.2c0-5.7,2.7-8.9,7.3-8.9s4.5,1.3,5.6,2.8l-1.7,1.1c-.7-1-1.8-2-3.9-2-3.3,0-5.2,2.5-5.2,7.1s2,7.1,5.2,7.1,3.5-1.1,4.2-2.4l1.7.9c-1.1,1.9-2.9,3.3-6,3.3-4.6,0-7.3-3.2-7.3-8.9Z"/>
        <path class="st3" d="M207.4,17.9l5.5-17.3h3s5.5,17.3,5.5,17.3h-2.1s-1.5-4.7-1.5-4.7h-6.8s-1.5,4.7-1.5,4.7h-2.1ZM211.5,11.4h5.7s-2.8-9-2.8-9l-2.8,9Z"/>
        <path class="st3" d="M230.7,17.9V.5s4.9,0,4.9,0c5.1,0,7.9,2.8,7.9,8.7s-2.8,8.7-7.9,8.7h-4.9ZM232.7,2.4v13.7s2.8,0,2.8,0c3.7,0,5.9-2.2,5.9-6.8s-2.1-6.8-5.9-6.8h-2.8Z"/>
        <path class="st3" d="M255.9,9.9v6.1s8.1,0,8.1,0v1.8h-10.1s0-17.3,0-17.3h10.1s-.1,1.8-.1,1.8h-7.9s0,5.8,0,5.8h6.2v1.8h-6.2Z"/>
        <path class="st3" d="M274.2,17.9V.5h2.6s5.3,11.2,5.3,11.2l5.3-11.2h2.6v17.3h-2V3.4s-5.1,10.8-5.1,10.8h-1.6s-5.1-10.8-5.1-10.8v14.4h-2Z"/>
        <path class="st3" d="M304.7,17.9v-5.2s-5.3-12.1-5.3-12.1h2.2s4.1,9.8,4.1,9.8l4.1-9.8h2.2s-5.3,12.1-5.3,12.1v5.2h-2Z"/>
        <path class="st3" d="M332.6,9.2c0-5.7,2.7-8.9,7.4-8.9s7.4,3.2,7.4,8.9-2.8,8.9-7.4,8.9-7.4-3.2-7.4-8.9ZM345.3,9.2c0-4.6-2-7.1-5.4-7.1s-5.3,2.5-5.3,7.1,2,7.1,5.3,7.1,5.4-2.5,5.4-7.1Z"/>
        <path class="st3" d="M357.8,17.9V.5s9.4,0,9.4,0v1.8c-.1,0-7.3,0-7.3,0v6.1s6,0,6,0v1.8h-6s0,7.6,0,7.6h-2Z"/>
      </g>
    </g>
    <g id="Trust_Estate_Council" class="st0">
      <g class="st0">
        <path class="st2" d="M29,47.1c-.6-1.9-.9-3.3-2.2-4.7-.8-.9-1.4-1.2-4-1.2h-4.1s0,24.7,0,24.7c0,4.3.5,4.7,4.4,5.3v.8h-14.7v-.8c3.6-.8,4.2-.9,4.2-5.3v-24.7s-4.5,0-4.5,0c-2.1,0-2.7.5-3.4,1.3-.8.9-1.6,2.8-2.2,4.7h-.8c.2-2.7.5-6,.6-8.5h.7c.8,1.1,1.6,1.1,3,1.1h19.9c1.3,0,2-.1,3-1.1h.6c0,2.2,0,5.8.3,8.3h-.8Z"/>
        <path class="st2" d="M38.8,72h-11.5v-.8c2.5-.4,2.7-.6,2.7-4.3v-10.6c0-2.6-.4-2.9-2.2-3.5v-.6c2.6-.3,5.5-.9,8-1.9,0,.8-.1,3.4-.1,5.2,1.2-2.3,3.3-5.1,5.7-5.1s2.8,1,2.8,2.5-1.3,3.3-2.5,3.7c-.6.2-.9.1-1.2-.2-.9-.8-1.4-1.5-2.3-1.5s-1.7.4-2.5,2.1v9.8c0,3.6.4,3.7,3.2,4.3v.8Z"/>
        <path class="st2" d="M69.7,70.8c-3.7.4-5.9,1.1-8.6,1.9,0-1.1,0-2.4,0-3.5-2.1,1.9-4.2,3.4-6.5,3.4-3.9,0-6-2.6-6-6.6v-10.4c0-2.4-.2-2.8-1.5-3.1l-.9-.2v-.7c2.3,0,6-.4,8.2-.8,0,1.7-.1,4-.1,7.3v7.1c0,3.4,1.6,4.4,3.4,4.4s2.4-.3,3.4-1.3v-12.5c0-2.4-.4-2.8-1.7-3.2l-1.2-.3v-.7c2.8,0,6.7-.4,8.6-.8v15.8c0,2.6.1,3,1.7,3.4l1.1.2v.7Z"/>
        <path class="st2" d="M85,56.4c-1-2.8-2.5-5-5.3-5s-2.8,1-2.8,3,1.5,3.1,3.5,4.2c3.5,1.9,6.1,3.5,6.1,7s-4.5,6.9-8.2,6.9-4.5-.7-5.6-1c0-1-.4-3.8-.7-5.8h.6c1.1,3.1,3.3,5.8,6.3,5.8s2.8-1.2,2.8-2.9-.5-2.9-3.7-4.8c-2-1.1-5.7-3.1-5.7-6.9s3-6.5,7.8-6.6c2,0,3.8.5,4.8.5,0,1.7.4,4.5.6,5.4h-.7Z"/>
        <path class="st2" d="M98.8,72c-.7.3-1.5.5-1.9.5-3.4,0-5.4-1.7-5.4-5.9v-14.2s-2.9,0-2.9,0v-.3c0,0,.7-1.2.7-1.2h2.2s0-4.1,0-4.1c1.7-.9,3.8-2.4,5.3-3.7h.5c0,1.5-.2,5-.1,7.7h4.4c.2.3,0,1.2-.2,1.5h-4.2s0,13.2,0,13.2c0,3.7,1.4,4.4,2.6,4.4s1.3-.1,1.9-.4l.2.7-3.1,1.6Z"/>
        <path class="st2" d="M146.1,52.2c-2.7.4-3.7.9-5.7,3.6-1.2,1.8-2.6,3.8-4.1,6,3.3,3.3,6.4,6.7,8.7,10.4l-.2.3c-4.9-.1-7.9-1.2-8.5-1.9-.6-.6-1.9-2.2-3.7-4-3.1,4.3-6.4,6-9.5,6-6.3,0-9.9-4.9-9.9-9s2.2-5.8,7.3-8.8c-2.1-2-3.7-4.4-3.7-7.3,0-4.8,3.9-8.2,8.5-8.2s8.1,3,8.1,6.9-.7,3.1-2,4.1c-.9.7-2,1.4-4.3,2.6,1.6,1.4,4.5,4.4,8.4,8,.8-1.3,1.8-2.8,2.7-4.8,1.1-2.5.6-3.1-2.8-3.8v-.7h10.7v.7ZM126,68.7c2.1,0,4.5-1.4,5.8-2.9-4.1-4.3-6.3-6.5-10.4-10.2-1.3,1.5-2.4,3.4-2.4,5.5,0,5.5,3.3,7.6,7,7.6ZM125.1,40.3c-1.9,0-3.2,1.7-3.2,4.7s1.2,4.4,4.5,7.1c1.1-1,2.3-2.7,2.3-6.3s-1.2-5.5-3.6-5.5Z"/>
        <path class="st2" d="M182.1,64.2c-.2,1.7-1.1,6.6-1.4,7.8h-24.2v-.8c4.3-.6,4.6-.8,4.6-5.3v-20.1c0-4.5-.2-4.9-3.8-5.3v-.8h15c4.9,0,6.8,0,7.2,0,0,1.9.2,5.1.5,7.2h-.8c-.4-1.1-1-2.9-2.1-4.2-.9-1.1-2-1.4-4.9-1.4h-3.7c-1,0-1.2.2-1.2,1.2v11.9s4.8,0,4.8,0c3.9,0,4.1-1.1,4.8-4.2h.8v9.8h-.8c-.7-2.9-.8-4.2-4.8-4.2h-4.8s0,10.6,0,10.6c0,3.5.7,4.1,3.8,4.2h2.9c2.9,0,3.6-.4,4.9-1.7.9-1,1.7-2.7,2.5-4.7h.7Z"/>
        <path class="st2" d="M198.1,56.4c-1-2.8-2.5-5-5.3-5s-2.8,1-2.8,3,1.5,3.1,3.5,4.2c3.5,1.9,6.1,3.5,6.1,7s-4.5,6.9-8.2,6.9-4.5-.7-5.6-1c0-1-.4-3.8-.7-5.8h.6c1.1,3.1,3.3,5.8,6.3,5.8s2.8-1.2,2.8-2.9-.5-2.9-3.7-4.8c-2-1.1-5.7-3.1-5.7-6.9s3-6.5,7.8-6.6c2,0,3.8.5,4.8.5,0,1.7.4,4.5.6,5.4h-.7Z"/>
        <path class="st2" d="M211.8,72c-.7.3-1.5.5-1.9.5-3.4,0-5.4-1.7-5.4-5.9v-14.2s-2.9,0-2.9,0v-.3c0,0,.7-1.2.7-1.2h2.2s0-4.1,0-4.1c1.7-.9,3.8-2.4,5.3-3.7h.5c0,1.5-.2,5-.1,7.7h4.4c.2.3,0,1.2-.2,1.5h-4.2s0,13.2,0,13.2c0,3.7,1.4,4.4,2.6,4.4s1.3-.1,1.9-.4l.2.7-3.1,1.6Z"/>
        <path class="st2" d="M231.6,72.6c-1.2,0-2.1-.3-2.8-1-.5-.5-.9-1.3-1.1-2.2-1.6,1.2-4.1,3.2-5,3.2-3.5,0-5.9-3-5.9-5.9s1.1-3.5,3.3-4.3c2.7-1,6.3-1.9,7.5-2.8v-2.9c0-3.1-1.9-4.5-3.3-4.5s-1.5.4-2,1.1c-.3.5-.7,1.4-1.1,3.3-.2,1-.6,1.3-1.3,1.3-1.6,0-2.6-1.3-2.6-2.3s.4-1.1,1.4-1.8c2.5-1.6,5.6-3,7.5-3.4,2.1,0,3.3.6,4.4,1.4,2,1.6,2.5,3.6,2.5,6.5v8.5c0,2,.7,2.7,1.6,2.7s.8,0,1.1-.2l.2.8-4.5,2.5ZM227.6,60.6c-.7.4-1.5.6-2.6,1.2-1.8,1-2.7,1.9-2.7,3.6,0,2.7,1.5,3.9,2.9,3.9s1.4,0,2.3-.8c0-2.9,0-5,0-7.9Z"/>
        <path class="st2" d="M247.4,72c-.7.3-1.5.5-1.9.5-3.4,0-5.4-1.7-5.4-5.9v-14.2s-2.9,0-2.9,0v-.3c0,0,.7-1.2.7-1.2h2.2s0-4.1,0-4.1c1.7-.9,3.8-2.4,5.3-3.7h.5c0,1.5-.2,5-.1,7.7h4.4c.2.3,0,1.2-.2,1.5h-4.2s0,13.2,0,13.2c0,3.7,1.4,4.4,2.6,4.4s1.3-.1,1.9-.4l.2.7-3.1,1.6Z"/>
        <path class="st2" d="M270.4,67.1c-3,4.2-6.7,5.5-8.5,5.5-6.2,0-9.9-4.9-9.9-10.3s1.4-6.6,3.5-8.7c2.2-2.3,4.7-3.1,7-3.1,4.7,0,7.7,3.4,7.8,7.3,0,.8,0,1.1-.2,1.1-1.6.3-7.9.7-12.6.9,0,6.1,3.5,8.9,6.9,8.9s3.6-.4,5.5-2.3l.4.6ZM261.2,51.7c-1.8,0-3.3,2-3.5,6.7,2,0,3.9,0,5.9-.1.7,0,1.2,0,1.2-.7,0-3-1.4-5.9-3.6-5.9Z"/>
        <path class="st2" d="M311.2,64c-.5,2.1-1.7,6.1-2.4,7.5-1.2.2-5.1,1.1-8.4,1.1-12.9,0-18.3-8-18.3-16.7,0-9.8,7.2-17,18.9-17s7.6.9,8.8,1c0,2.5.4,5.6.7,7.6l-.9.2c-1-3.5-2.2-5.4-5-6.7-1.3-.6-2.8-.9-4.8-.9-7.4,0-10.6,6.7-10.6,14.8s4.5,16.4,11.8,16.4,7.3-2.8,9.5-7.7l.8.3Z"/>
        <path class="st2" d="M325.9,50.4c6.5,0,10.7,5.1,10.7,10.8,0,7.6-5.4,11.4-10.5,11.4-8,0-11.3-5.9-11.3-10.9s5.6-11.3,11.1-11.3ZM325.2,51.5c-2.5,0-3.9,2.8-3.9,8.6s1.9,11.4,4.9,11.4,3.9-1.3,3.9-9.1-2-10.9-4.9-10.9Z"/>
        <path class="st2" d="M362.9,70.8c-3.7.4-5.9,1.1-8.6,1.9,0-1.1,0-2.4,0-3.5-2.1,1.9-4.2,3.4-6.5,3.4-3.9,0-6-2.6-6-6.6v-10.4c0-2.4-.2-2.8-1.5-3.1l-.9-.2v-.7c2.3,0,6-.4,8.2-.8,0,1.7-.1,4-.1,7.3v7.1c0,3.4,1.6,4.4,3.4,4.4s2.4-.3,3.4-1.3v-12.5c0-2.4-.4-2.8-1.7-3.2l-1.2-.3v-.7c2.8,0,6.7-.4,8.6-.8v15.8c0,2.6.1,3,1.7,3.4l1.1.2v.7Z"/>
        <path class="st2" d="M377.7,72v-.8c2.4-.3,2.5-.8,2.5-5v-8c0-3.6-1.6-4.6-3.3-4.6s-2.5.3-3.8,1.4v12.1c0,3.5.2,3.5,2.6,4.1v.8h-11.1v-.8c2.6-.6,2.9-.8,2.9-4.6v-10.3c0-2.5-.3-2.8-2.3-3.5v-.6c2.8-.3,5.9-1.1,8-1.9,0,1.2,0,2.4,0,3.6,1.2-.8,2-1.4,2.9-2,1.5-1,2.4-1.5,3.8-1.5,4.2,0,6.1,3.1,6.1,7.6v9.1c0,3.5.2,3.7,2.4,4.1v.8h-10.5Z"/>
        <path class="st2" d="M409.4,67.3c-2.1,2.9-5.2,5.3-8.2,5.3-6.5,0-9.9-5.1-9.9-10.2s1.7-6.7,4.8-9c3.1-2.3,6.1-3,7.9-3s3,.4,3.9,1.1c.6.5.9.8.9,1.4,0,1.1-1.2,2.5-2.1,2.5s-.4,0-.9-.5c-1.9-1.8-3.8-2.4-5.4-2.4s-3.8,1.2-3.8,6.9,4,9.3,6.9,9.3,3.6-.4,5.4-2l.4.6Z"/>
        <path class="st2" d="M411.3,72v-.8c2.6-.4,2.7-.7,2.7-4.5v-10c0-2.9-.1-3.1-2.2-3.8v-.7c2.9-.3,5.6-.9,7.9-1.8,0,1,0,3.9,0,5.8v10.5c0,3.7.2,4,2.9,4.5v.8h-11.3ZM416.4,46.1c-1.6,0-3-1.3-3-3.1s1.3-3.1,3-3.1,3.1,1.3,3.1,3.1-1.3,3.1-3.2,3.1Z"/>
        <path class="st2" d="M424.2,72v-.8c2.6-.4,2.8-.7,2.8-4.5v-23.7c0-3.1-.1-3.4-2.6-4v-.7c2.5-.2,5.7-.8,8.5-1.7,0,.8-.2,2.6-.2,6.8v23.2c0,3.8,0,4,2.6,4.5v.8h-11.1Z"/>
      </g>
    </g>
    <line id="Line_1" class="st1" x1="9.4" y1="8.9" x2="49.1" y2="8.9"/>
    <line id="Line_2" class="st1" x1="386.6" y1="8.9" x2="426.3" y2="8.9"/>
  </g>
</svg>