<?xml version="1.0" encoding="UTF-8"?>
<svg id="Layer_1" xmlns="http://www.w3.org/2000/svg" width="6.1in" height="1in" version="1.1" viewBox="0 0 436.9 73">
  <!-- Generator: Adobe Illustrator 29.2.1, SVG Export Plug-In . SVG Version: 2.1.0 Build 116)  -->
  <defs>
    <style>
      .st0 {
        fill: none;
        stroke: #121313;
        stroke-width: 1px;
      }

      .st1 {
        isolation: isolate;
      }

      .st2 {
        fill: #121313;
      }
    </style>
  </defs>
  <g id="Logo">
    <g id="Iowa_Academy_of" class="st1">
      <g class="st1">
        <path class="st2" d="M68.7,18.4V1.2h2.1v17.2h-2.1Z"/>
        <path class="st2" d="M81.2,9.8c0-5.6,2.7-8.8,7.4-8.8s7.4,3.2,7.4,8.8-2.8,8.8-7.4,8.8-7.4-3.2-7.4-8.8ZM93.9,9.8c0-4.5-2-7-5.4-7s-5.4,2.5-5.4,7,2,7,5.4,7,5.4-2.5,5.4-7Z"/>
        <path class="st2" d="M108.7,18.4l-4.5-17.2h2.1l3.8,14.8,3.6-14.8h1.9l3.5,14.7,3.8-14.7h2l-4.5,17.2h-2.4l-3.4-14-3.3,14h-2.4Z"/>
        <path class="st2" d="M131.3,18.4l5.5-17.2h3l5.5,17.2h-2.2l-1.5-4.6h-6.8l-1.5,4.6h-2.1ZM135.5,12h5.7l-2.8-8.9-2.8,8.9Z"/>
        <path class="st2" d="M165,18.4l5.5-17.2h3l5.5,17.2h-2.2l-1.5-4.6h-6.8l-1.5,4.6h-2.1ZM169.2,12h5.7l-2.8-8.9-2.8,8.9Z"/>
        <path class="st2" d="M187,9.8c0-5.6,2.7-8.8,7.3-8.8s4.5,1.3,5.6,2.7l-1.7,1.1c-.7-1-1.8-2-3.9-2-3.3,0-5.3,2.5-5.3,7s2,7,5.3,7,3.5-1.1,4.3-2.3l1.7.8c-1.1,1.8-2.9,3.3-6,3.3-4.6,0-7.3-3.2-7.3-8.8Z"/>
        <path class="st2" d="M207.7,18.4l5.5-17.2h3l5.5,17.2h-2.2l-1.5-4.6h-6.8l-1.5,4.6h-2.1ZM211.9,12h5.7l-2.8-8.9-2.8,8.9Z"/>
        <path class="st2" d="M231.1,18.4V1.2h4.9c5.1,0,7.9,2.8,7.9,8.6s-2.8,8.6-7.9,8.6h-4.9ZM233.2,3v13.5h2.8c3.8,0,5.9-2.2,5.9-6.8s-2.2-6.8-5.9-6.8h-2.8Z"/>
        <path class="st2" d="M256.4,10.5v6h8.1v1.8h-10.1V1.2h10.1v1.8h-8.1v5.7h6.3v1.8h-6.3Z"/>
        <path class="st2" d="M274.8,18.4V1.2h2.7l5.3,11.1,5.3-11.1h2.7v17.2h-2V4.1l-5.1,10.7h-1.6l-5.1-10.7v14.3h-2Z"/>
        <path class="st2" d="M305.3,18.4v-5.2l-5.3-12h2.2l4.2,9.7,4.2-9.7h2.2l-5.4,12v5.2h-2.1Z"/>
        <path class="st2" d="M333.3,9.8c0-5.6,2.7-8.8,7.4-8.8s7.4,3.2,7.4,8.8-2.8,8.8-7.4,8.8-7.4-3.2-7.4-8.8ZM346.1,9.8c0-4.5-2-7-5.4-7s-5.4,2.5-5.4,7,2,7,5.4,7,5.4-2.5,5.4-7Z"/>
        <path class="st2" d="M358.6,18.4V1.2h9.4v1.8h-7.4v6.1h6v1.8h-6v7.5h-2.1Z"/>
      </g>
    </g>
    <g id="Trust_Estate_Council" class="st1">
      <g class="st1">
        <path class="st2" d="M28.9,47.2c-.6-1.9-.9-3.3-2.2-4.7-.8-.9-1.4-1.2-4-1.2h-4.1v24.5c0,4.2.5,4.6,4.4,5.3v.8h-14.7v-.8c3.6-.8,4.2-.9,4.2-5.3v-24.5h-4.5c-2.1,0-2.7.5-3.4,1.3-.8.9-1.6,2.8-2.2,4.7h-.8c.2-2.7.5-5.9.6-8.4h.7c.8,1.1,1.6,1.1,3,1.1h20c1.3,0,2-.1,3-1.1h.6c0,2.2,0,5.7.3,8.2h-.8Z"/>
        <path class="st2" d="M38.7,71.9h-11.5v-.8c2.5-.4,2.7-.6,2.7-4.2v-10.5c0-2.6-.4-2.8-2.2-3.4v-.6c2.6-.3,5.5-.9,8.1-1.9,0,.8-.1,3.4-.1,5.2,1.2-2.3,3.3-5.1,5.7-5.1s2.8,1,2.8,2.5-1.3,3.3-2.5,3.7c-.6.2-.9.1-1.2-.2-.9-.8-1.4-1.5-2.3-1.5s-1.7.4-2.5,2.1v9.7c0,3.6.4,3.7,3.2,4.2v.8Z"/>
        <path class="st2" d="M69.7,70.7c-3.7.4-5.9,1.1-8.7,1.9,0-1.1,0-2.4,0-3.5-2.1,1.9-4.2,3.4-6.5,3.4-3.9,0-6-2.6-6-6.5v-10.3c0-2.4-.2-2.7-1.5-3.1l-.9-.2v-.7c2.3,0,6-.4,8.3-.8,0,1.7-.1,4-.1,7.3v7c0,3.3,1.6,4.3,3.4,4.3s2.4-.3,3.4-1.3v-12.3c0-2.4-.4-2.8-1.7-3.1l-1.2-.3v-.7c2.8,0,6.7-.4,8.6-.8v15.6c0,2.6.1,3,1.7,3.3l1.1.2v.7Z"/>
        <path class="st2" d="M85,56.5c-1-2.8-2.5-5-5.3-5s-2.8,1-2.8,2.9,1.5,3,3.5,4.2c3.5,1.9,6.1,3.4,6.1,6.9s-4.5,6.9-8.2,6.9-4.5-.7-5.6-1c0-1-.4-3.8-.7-5.7h.6c1.1,3,3.3,5.7,6.3,5.7s2.8-1.2,2.8-2.9-.5-2.8-3.7-4.7c-2-1.1-5.7-3-5.7-6.8s3-6.4,7.8-6.5c2,0,3.8.5,4.8.5,0,1.7.4,4.4.6,5.3h-.7Z"/>
        <path class="st2" d="M98.9,71.9c-.7.3-1.5.5-1.9.5-3.4,0-5.4-1.7-5.4-5.8v-14h-2.9v-.3c0,0,.7-1.2.7-1.2h2.2v-4c1.7-.9,3.8-2.4,5.3-3.6h.5c0,1.5-.2,4.9-.1,7.7h4.4c.2.3,0,1.2-.2,1.5h-4.2v13c0,3.6,1.4,4.4,2.6,4.4s1.3-.1,1.9-.4l.2.7-3.1,1.6Z"/>
        <path class="st2" d="M146.3,52.4c-2.7.4-3.7.9-5.7,3.5-1.2,1.8-2.6,3.8-4.1,5.9,3.3,3.3,6.4,6.7,8.8,10.3l-.2.3c-4.9-.1-8-1.2-8.6-1.9-.6-.6-1.9-2.2-3.7-4-3.1,4.2-6.4,5.9-9.5,5.9-6.3,0-9.9-4.9-9.9-8.9s2.2-5.7,7.3-8.7c-2.1-2-3.7-4.4-3.7-7.2,0-4.7,3.9-8.2,8.5-8.2s8.1,3,8.1,6.8-.7,3-2,4.1c-.9.7-2,1.4-4.3,2.6,1.6,1.4,4.5,4.3,8.4,8,.8-1.3,1.8-2.8,2.7-4.8,1.1-2.5.6-3.1-2.8-3.8v-.7h10.7v.7ZM126.2,68.7c2.1,0,4.5-1.4,5.8-2.9-4.1-4.3-6.3-6.4-10.5-10.1-1.3,1.5-2.4,3.3-2.4,5.5,0,5.5,3.3,7.6,7.1,7.6ZM125.2,40.6c-1.9,0-3.2,1.7-3.2,4.6s1.2,4.3,4.5,7c1.1-1,2.3-2.7,2.3-6.2s-1.2-5.5-3.6-5.5Z"/>
        <path class="st2" d="M182.4,64.2c-.2,1.7-1.1,6.5-1.4,7.7h-24.3v-.8c4.3-.6,4.6-.8,4.6-5.2v-19.9c0-4.4-.2-4.8-3.8-5.2v-.8h15.1c4.9,0,6.8,0,7.2,0,0,1.9.2,5,.5,7.1h-.8c-.4-1.1-1-2.9-2.1-4.2-.9-1.1-2-1.4-4.9-1.4h-3.7c-1,0-1.2.2-1.2,1.2v11.7h4.8c3.9,0,4.1-1.1,4.8-4.1h.8v9.7h-.8c-.7-2.9-.8-4.1-4.8-4.1h-4.8v10.5c0,3.4.7,4.1,3.8,4.1h2.9c2.9,0,3.6-.4,4.9-1.7.9-1,1.7-2.7,2.5-4.7h.7Z"/>
        <path class="st2" d="M198.4,56.5c-1-2.8-2.5-5-5.3-5s-2.8,1-2.8,2.9,1.5,3,3.5,4.2c3.5,1.9,6.1,3.4,6.1,6.9s-4.5,6.9-8.2,6.9-4.5-.7-5.6-1c0-1-.4-3.8-.7-5.7h.6c1.1,3,3.3,5.7,6.3,5.7s2.8-1.2,2.8-2.9-.5-2.8-3.7-4.7c-2-1.1-5.7-3-5.7-6.8s3-6.4,7.8-6.5c2,0,3.8.5,4.8.5,0,1.7.4,4.4.6,5.3h-.7Z"/>
        <path class="st2" d="M212.2,71.9c-.7.3-1.5.5-1.9.5-3.4,0-5.4-1.7-5.4-5.8v-14h-2.9v-.3c0,0,.7-1.2.7-1.2h2.2v-4c1.7-.9,3.8-2.4,5.3-3.6h.5c0,1.5-.2,4.9-.1,7.7h4.4c.2.3,0,1.2-.2,1.5h-4.2v13c0,3.6,1.4,4.4,2.6,4.4s1.3-.1,1.9-.4l.2.7-3.1,1.6Z"/>
        <path class="st2" d="M232.1,72.5c-1.2,0-2.1-.3-2.8-1-.5-.5-.9-1.3-1.1-2.2-1.6,1.2-4.1,3.1-5,3.1-3.5,0-5.9-2.9-5.9-5.8s1.1-3.5,3.3-4.3c2.7-1,6.3-1.9,7.5-2.8v-2.9c0-3-1.9-4.5-3.3-4.5s-1.5.4-2,1.1c-.3.5-.7,1.4-1.1,3.2-.2,1-.6,1.3-1.3,1.3-1.6,0-2.6-1.3-2.6-2.3s.4-1.1,1.4-1.8c2.5-1.6,5.6-3,7.5-3.3,2.1,0,3.3.6,4.4,1.4,2,1.6,2.5,3.5,2.5,6.4v8.4c0,2,.7,2.7,1.6,2.7s.8,0,1.1-.2l.2.8-4.5,2.5ZM228.1,60.7c-.7.4-1.5.6-2.6,1.2-1.8,1-2.7,1.9-2.7,3.6,0,2.7,1.5,3.8,2.9,3.8s1.4,0,2.3-.8c0-2.8,0-5,0-7.8Z"/>
        <path class="st2" d="M247.9,71.9c-.7.3-1.5.5-1.9.5-3.4,0-5.4-1.7-5.4-5.8v-14h-2.9v-.3c0,0,.7-1.2.7-1.2h2.2v-4c1.7-.9,3.8-2.4,5.3-3.6h.5c0,1.5-.2,4.9-.1,7.7h4.4c.2.3,0,1.2-.2,1.5h-4.2v13c0,3.6,1.4,4.4,2.6,4.4s1.3-.1,1.9-.4l.2.7-3.1,1.6Z"/>
        <path class="st2" d="M271,67c-3,4.2-6.8,5.5-8.6,5.5-6.2,0-9.9-4.9-9.9-10.2s1.4-6.5,3.5-8.6c2.2-2.3,4.7-3.1,7.1-3.1,4.7,0,7.8,3.4,7.8,7.3,0,.8,0,1.1-.2,1.1-1.6.3-7.9.7-12.6.9,0,6,3.5,8.8,7,8.8s3.6-.4,5.5-2.3l.4.6ZM261.7,51.8c-1.8,0-3.3,2-3.5,6.6,2,0,3.9,0,5.9-.1.7,0,1.2,0,1.2-.7,0-2.9-1.4-5.8-3.6-5.8Z"/>
        <path class="st2" d="M311.9,64c-.5,2.1-1.7,6-2.4,7.5-1.2.2-5.1,1.1-8.5,1.1-12.9,0-18.4-7.9-18.4-16.5s7.3-16.8,19-16.8,7.6.9,8.8,1c0,2.5.4,5.5.7,7.5l-.9.2c-1-3.5-2.2-5.4-5-6.6-1.3-.6-2.8-.9-4.8-.9-7.5,0-10.7,6.6-10.7,14.7s4.5,16.3,11.8,16.3,7.3-2.7,9.5-7.7l.8.3Z"/>
        <path class="st2" d="M326.6,50.5c6.5,0,10.7,5.1,10.7,10.7s-5.4,11.3-10.6,11.3c-8.1,0-11.3-5.8-11.3-10.8s5.6-11.1,11.1-11.1ZM325.9,51.7c-2.5,0-3.9,2.8-3.9,8.5s1.9,11.2,4.9,11.2,3.9-1.3,3.9-9-2-10.8-4.9-10.8Z"/>
        <path class="st2" d="M363.7,70.7c-3.7.4-5.9,1.1-8.7,1.9,0-1.1,0-2.4,0-3.5-2.1,1.9-4.2,3.4-6.5,3.4-3.9,0-6-2.6-6-6.5v-10.3c0-2.4-.2-2.7-1.5-3.1l-.9-.2v-.7c2.3,0,6-.4,8.3-.8,0,1.7-.1,4-.1,7.3v7c0,3.3,1.6,4.3,3.4,4.3s2.4-.3,3.4-1.3v-12.3c0-2.4-.4-2.8-1.7-3.1l-1.2-.3v-.7c2.8,0,6.7-.4,8.6-.8v15.6c0,2.6.1,3,1.7,3.3l1.1.2v.7Z"/>
        <path class="st2" d="M378.6,71.9v-.8c2.4-.3,2.5-.8,2.5-4.9v-7.9c0-3.5-1.6-4.6-3.3-4.6s-2.5.3-3.8,1.4v12c0,3.4.2,3.5,2.6,4v.8h-11.1v-.8c2.6-.6,2.9-.8,2.9-4.5v-10.2c0-2.5-.3-2.7-2.3-3.4v-.6c2.8-.3,5.9-1.1,8.1-1.9,0,1.2-.1,2.4-.1,3.6,1.2-.8,2-1.4,2.9-2,1.5-1,2.4-1.5,3.8-1.5,4.2,0,6.1,3,6.1,7.5v9c0,3.4.2,3.6,2.4,4.1v.8h-10.6Z"/>
        <path class="st2" d="M410.3,67.2c-2.1,2.9-5.2,5.3-8.2,5.3-6.5,0-10-5-10-10.1s1.7-6.6,4.8-8.9c3.1-2.3,6.1-3,8-3s3,.4,3.9,1.1c.6.5.9.8.9,1.4,0,1.1-1.2,2.5-2.1,2.5s-.4,0-.9-.5c-1.9-1.8-3.8-2.4-5.4-2.4s-3.8,1.2-3.8,6.9,4,9.2,6.9,9.2,3.6-.4,5.4-2l.4.6Z"/>
        <path class="st2" d="M412.3,71.9v-.8c2.6-.4,2.7-.7,2.7-4.5v-9.9c0-2.8-.1-3-2.2-3.7v-.7c2.9-.3,5.6-.9,8-1.8,0,1,0,3.8,0,5.7v10.4c0,3.6.2,3.9,2.9,4.5v.8h-11.3ZM417.4,46.3c-1.6,0-3-1.3-3-3.1s1.3-3.1,3-3.1,3.1,1.3,3.1,3.1-1.3,3.1-3.2,3.1Z"/>
        <path class="st2" d="M425.2,71.9v-.8c2.6-.4,2.8-.7,2.8-4.5v-23.4c0-3-.1-3.3-2.6-3.9v-.7c2.5-.2,5.7-.8,8.5-1.7,0,.8-.2,2.6-.2,6.7v23c0,3.8,0,4,2.6,4.5v.8h-11.1Z"/>
      </g>
    </g>
    <line id="Line_1" class="st0" x1="9.3" y1="9.5" x2="49.1" y2="9.5"/>
    <line id="Line_2" class="st0" x1="387.5" y1="9.5" x2="427.3" y2="9.5"/>
  </g>
</svg>