<?xml version="1.0" encoding="utf-8"?>
<!-- Generator: Adobe Illustrator 27.0.1, SVG Export Plug-In . SVG Version: 6.00 Build 0)  -->
<svg version="1.1" id="Layer_1" xmlns="http://www.w3.org/2000/svg" xmlns:xlink="http://www.w3.org/1999/xlink" x="0px" y="0px"
	 viewBox="0 0 36 36" style="enable-background:new 0 0 36 36;" xml:space="preserve">
<style type="text/css">
	.st0{fill:#10744E;}
	.st1{fill:#FFFFFF;}
</style>
<g id="Icon_awesome-check-circle" transform="translate(4.438 4.438)">
	<path class="st0" d="M13.5,29.3c-2.1,0-4.2-0.4-6.1-1.2c-1.9-0.8-3.6-1.9-5-3.4s-2.6-3.1-3.4-5c-0.8-1.9-1.2-4-1.2-6.1
		S-1.8,9.3-1,7.4c0.8-1.9,1.9-3.6,3.4-5s3.1-2.6,5-3.4c1.9-0.8,4-1.2,6.1-1.2s4.2,0.4,6.1,1.2c1.9,0.8,3.6,1.9,5,3.4
		c1.4,1.4,2.6,3.1,3.4,5c0.8,1.9,1.2,4,1.2,6.1s-0.4,4.2-1.2,6.1c-0.8,1.9-1.9,3.6-3.4,5c-1.4,1.4-3.1,2.6-5,3.4
		C17.7,28.9,15.7,29.3,13.5,29.3z"/>
	<path class="st1" d="M13.5-0.3C5.9-0.3-0.3,5.9-0.3,13.5s6.2,13.8,13.8,13.8s13.8-6.2,13.8-13.8S21.1-0.3,13.5-0.3 M11.3,21.1
		c-0.2,0-0.5-0.1-0.6-0.3L4.9,15c-0.3-0.3-0.3-0.9,0-1.3l1.3-1.3c0.3-0.3,0.9-0.3,1.3,0l3.9,3.9l8.3-8.3c0.3-0.3,0.9-0.3,1.3,0
		l1.3,1.3c0.3,0.3,0.3,0.9,0,1.3L11.9,20.8C11.8,21,11.5,21.1,11.3,21.1 M13.5-4.2c2.4,0,4.7,0.5,6.9,1.4c2.1,0.9,4,2.2,5.6,3.8
		c1.6,1.6,2.9,3.5,3.8,5.6c0.9,2.2,1.4,4.5,1.4,6.9s-0.5,4.7-1.4,6.9c-0.9,2.1-2.2,4-3.8,5.6c-1.6,1.6-3.5,2.9-5.6,3.8
		c-2.2,0.9-4.5,1.4-6.9,1.4s-4.7-0.5-6.9-1.4c-2.1-0.9-4-2.2-5.6-3.8c-1.6-1.6-2.9-3.5-3.8-5.6c-0.9-2.2-1.4-4.5-1.4-6.9
		s0.5-4.7,1.4-6.9C-1.9,4.5-0.7,2.6,1,1c1.6-1.6,3.5-2.9,5.6-3.8C8.8-3.8,11.1-4.2,13.5-4.2z"/>
</g>
</svg>
