<?xml version="1.0" encoding="utf-8"?>
<!-- Generator: Adobe Illustrator 27.0.1, SVG Export Plug-In . SVG Version: 6.00 Build 0)  -->
<svg version="1.1" id="Layer_1" xmlns="http://www.w3.org/2000/svg" xmlns:xlink="http://www.w3.org/1999/xlink" x="0px" y="0px"
	 viewBox="0 0 36 36" style="enable-background:new 0 0 36 36;" xml:space="preserve">
<style type="text/css">
	.st0{fill:#FFFFFF;}
	.st1{fill:#F9A139;}
	.st2{fill:#F89822;}
</style>
<g id="Ellipse_18" transform="translate(0 0.406)">
	<circle class="st0" cx="18" cy="17.6" r="18"/>
	<path class="st1" d="M18,35.6c-9.9,0-18-8.1-18-18s8.1-18,18-18s18,8.1,18,18S27.9,35.6,18,35.6z M18,1.1C8.9,1.1,1.5,8.5,1.5,17.6
		S8.9,34.1,18,34.1s16.5-7.4,16.5-16.5S27.1,1.1,18,1.1z"/>
</g>
<circle id="Ellipse_11" class="st2" cx="18" cy="18" r="15.2"/>
<path class="st0" d="M18.3,10.6c-0.4,0.2-0.2-2.4-0.4-2.6c-0.3-0.1-2.2-0.2-2.4,0.1c0,3.1-0.4,3.4,1.1,5.3s1.5,3.8,1.2,5.5
	s-2,3.1-4,1.7S9,19.2,7.5,21.3c-0.4,0.5,1.4,2.2,1.7,2s2-1.2,2-0.9c0.1,0.4,3.7,5,9.5,2.9C28.8,22.6,29.4,5.2,18.3,10.6z M19.3,22
	c1.9-0.2,4.7-3.3,4.8-4.7C24.3,21.7,20.5,23.2,19.3,22z"/>
</svg>
