<?xml version="1.0" encoding="utf-8"?>
<!-- Generator: Adobe Illustrator 27.0.1, SVG Export Plug-In . SVG Version: 6.00 Build 0)  -->
<svg version="1.1" id="Layer_1" xmlns="http://www.w3.org/2000/svg" xmlns:xlink="http://www.w3.org/1999/xlink" x="0px" y="0px"
	 viewBox="0 0 36 36" style="enable-background:new 0 0 36 36;" xml:space="preserve">
<style type="text/css">
	.st0{fill:#F9A139;}
</style>
<g id="Group_21" transform="translate(-26.754 -26.754)">
	<path id="Icon_material-grain" class="st0" d="M40.5,45c-2.4,0-4.3,1.8-4.3,4.3c0,2.4,1.8,4.3,4.3,4.3c2.4,0,4.3-1.8,4.3-4.3l0,0
		C45.1,46.9,43,45,40.5,45z M32,36.2c-2.4,0-4.3,1.8-4.3,4.3c0,2.4,1.8,4.3,4.3,4.3c2.4,0,4.3-1.8,4.3-4.3
		C36.3,38.3,34.4,36.2,32,36.2z M32,53.6c-2.4,0-4.3,1.8-4.3,4.3c0,2.4,1.8,4.3,4.3,4.3c2.4,0,4.3-1.8,4.3-4.3l0,0
		C36.3,55.7,34.4,53.6,32,53.6z M57.9,36.2c2.4,0,4.3-1.8,4.3-4.3c0-2.4-1.8-4.3-4.3-4.3c-2.4,0-4.3,1.8-4.3,4.3l0,0
		C53.6,34.4,55.8,36.2,57.9,36.2z M49.4,53.6c-2.4,0-4.3,1.8-4.3,4.3c0,2.4,1.8,4.3,4.3,4.3c2.4,0,4.3-1.8,4.3-4.3l0,0
		C53.6,55.7,51.8,53.6,49.4,53.6z M57.9,45c-2.4,0-4.3,1.8-4.3,4.3c0,2.4,1.8,4.3,4.3,4.3c2.4,0,4.3-1.8,4.3-4.3
		C62.5,46.9,60.3,45,57.9,45z M49.4,36.2c-2.4,0-4.3,1.8-4.3,4.3c0,2.4,1.8,4.3,4.3,4.3c2.4,0,4.3-1.8,4.3-4.3l0,0
		C53.6,38.3,51.8,36.2,49.4,36.2L49.4,36.2z M40.5,27.7c-2.4,0-4.3,1.8-4.3,4.3c0,2.4,1.8,4.3,4.3,4.3c2.4,0,4.3-1.8,4.3-4.3l0,0
		C45.1,29.5,43,27.7,40.5,27.7z"/>
</g>
</svg>
