<?xml version="1.0" encoding="utf-8"?>
<!-- Generator: Adobe Illustrator 27.0.1, SVG Export Plug-In . SVG Version: 6.00 Build 0)  -->
<svg version="1.1" id="Layer_1" xmlns="http://www.w3.org/2000/svg" xmlns:xlink="http://www.w3.org/1999/xlink" x="0px" y="0px"
	 viewBox="0 0 30.8 36" style="enable-background:new 0 0 30.8 36;" xml:space="preserve">
<style type="text/css">
	.st0{fill:#FFFFFF;}
</style>
<path class="st0" d="M30.2,6.5c-2-2-3.3-1.8-3.3-1.8C26-0.4,14.8-2.2,14.1,7.9C7,10.1,1.8,14.8,0.7,16.6c-0.9,1.6,1.6,6,2.5,6.9
	c0,3,1.5,4.4,4.8,4.3c0.7,1.7,1.4,3.7,1.5,4c-1.8,1.1-2.4,2-2.5,2.4c1.6-1.1,2.9-0.7,2.9-0.7c0.2,0.2,0.4,0.2,0.5,0.4
	c0.4,0.2,0.7,0.5,1.1,0.7c0.5,0.4,0.9,0.5,1.4,0.7s1.1,0.5,1.6,0.5h0.2c0,0,0,0,0.2,0s0-0.2,0-0.2s-0.2,0-0.2-0.2
	c-0.2,0-0.4-0.2-0.4-0.2c-0.2-0.2-0.5-0.4-0.7-0.5S13.2,34.3,13,34c2-0.2,4,0.2,4.5,0.2c0,0,0,0,0-0.2c-2.4-1.4-5.4-1.8-5.6-1.8
	l-2.3-4.5c1.3-0.2,2.9-0.5,4.7-0.9c0.3-0.1,0.7-0.2,1-0.3c0.5,1.5,1.1,2.9,1.2,3.2c-1.8,1.1-2.4,2-2.5,2.4c1.6-1.1,2.9-0.7,2.9-0.7
	c0.4,0.4,0.9,0.7,1.4,0.9c0.4,0.2,0.9,0.5,1.4,0.7c0.4,0.2,0.7,0.4,0.9,0.5c0.2,0,0.9,0.2,0.5-0.2c-0.2-0.2-0.7-0.5-0.9-0.7
	c-0.2-0.2-0.4-0.4-0.5-0.5c2-0.2,4,0.2,4.5,0.2c0,0,0,0,0-0.2c-2.4-1.4-5.4-1.8-5.6-1.8l-2-4.1c6.5-2.1,10.8-5.7,9.8-15.4
	C26.2,8.8,30.2,6.5,30.2,6.5z M22.1,6.3c-0.5,0-0.9-0.4-0.9-0.9s0.4-0.9,0.9-0.9c0.5,0,0.9,0.4,0.9,0.9C23,5.7,22.6,6.3,22.1,6.3z"
	/>
</svg>
