<?xml version="1.0" encoding="utf-8"?>
<!-- Generator: Adobe Illustrator 27.0.1, SVG Export Plug-In . SVG Version: 6.00 Build 0)  -->
<svg version="1.1" id="Layer_1" xmlns="http://www.w3.org/2000/svg" xmlns:xlink="http://www.w3.org/1999/xlink" x="0px" y="0px"
	 viewBox="0 0 36 36" style="enable-background:new 0 0 36 36;" xml:space="preserve">
<style type="text/css">
	.st0{fill:#FFFFFF;}
</style>
<g>
	<path class="st0" d="M33.1,21.2l-8.9-8.9c-2.6,4.5-6.7,8.5-12.2,11.1l9.5,9.5c3.2,3.2,8.5,3.2,11.7,0
		C36.5,29.7,36.5,24.5,33.1,21.2z"/>
	<path class="st0" d="M15,2.8c-3.2-3.2-8.5-3.2-11.7,0c-3.2,3.2-3.2,8.5,0,11.7l8.5,8.5c5.3-2.6,9.7-6.5,12.2-11.1L15,2.8z M13.4,18
		c-0.1,0.1-0.3,0.2-0.4,0.2s-0.3-0.1-0.4-0.2l-6.7-6.7c-0.2-0.2-0.2-0.6,0-0.9s0.6-0.2,0.9,0l6.7,6.7C13.7,17.4,13.7,17.8,13.4,18z"
		/>
</g>
</svg>
