<?xml version="1.0" encoding="utf-8"?>
<!-- Generator: Adobe Illustrator 27.0.1, SVG Export Plug-In . SVG Version: 6.00 Build 0)  -->
<svg version="1.1" id="Layer_1" xmlns="http://www.w3.org/2000/svg" xmlns:xlink="http://www.w3.org/1999/xlink" x="0px" y="0px"
	 viewBox="0 0 36 33.6" style="enable-background:new 0 0 36 33.6;" xml:space="preserve">
<style type="text/css">
	.st0{fill:#FFFFFF;}
</style>
<path class="st0" d="M20.3,5.4c-0.7,0.4-0.4-4.4-0.7-4.7c-0.5-0.2-4-0.4-4.4,0.2c0,5.7-0.7,6.2,2,9.7s2.7,6.9,2.2,10
	s-3.7,5.7-7.3,3.1S3.3,21.1,0.6,25c-0.7,0.9,2.6,4,3.1,3.7s3.7-2.2,3.7-1.6c0.2,0.7,6.8,9.1,17.3,5.3C39.5,27.3,40.6-4.5,20.3,5.4z
	 M22.1,26.2c3.5-0.4,8.6-6,8.8-8.6C31.3,25.7,24.3,28.4,22.1,26.2z"/>
</svg>
