<?xml version="1.0" encoding="utf-8"?>
<!-- Generator: Adobe Illustrator 27.0.1, SVG Export Plug-In . SVG Version: 6.00 Build 0)  -->
<svg version="1.1" id="Layer_1" xmlns="http://www.w3.org/2000/svg" xmlns:xlink="http://www.w3.org/1999/xlink" x="0px" y="0px"
	 viewBox="0 0 36 36" style="enable-background:new 0 0 36 36;" xml:space="preserve">
<style type="text/css">
	.st0{fill:#FFFFFF;}
	.st1{fill:#F9A139;}
	.st2{fill:#EEEEEE;}
</style>
<g id="Group_20" transform="translate(0 -0.406)">
	<g id="Ellipse_18" transform="translate(0 0.406)">
		<circle class="st0" cx="18" cy="18" r="18"/>
		<path class="st1" d="M18,36C8.1,36,0,27.9,0,18C0,8.1,8.1,0,18,0s18,8.1,18,18C36,27.9,27.9,36,18,36z M18,1.5
			C8.9,1.5,1.5,8.9,1.5,18c0,9.1,7.4,16.5,16.5,16.5c9.1,0,16.5-7.4,16.5-16.5C34.5,8.9,27.1,1.5,18,1.5z"/>
	</g>
	<circle id="Ellipse_11" class="st2" cx="18" cy="18.4" r="14.4"/>
	<g id="Group_21" transform="translate(-26.754 -26.754)">
		<path id="Icon_material-grain" class="st1" d="M43.5,45.6c-0.8,0-1.4,0.6-1.4,1.4s0.6,1.4,1.4,1.4c0.8,0,1.4-0.6,1.4-1.4l0,0
			C45,46.2,44.3,45.6,43.5,45.6z M40.7,42.7c-0.8,0-1.4,0.6-1.4,1.4c0,0.8,0.6,1.4,1.4,1.4c0.8,0,1.4-0.6,1.4-1.4
			C42.1,43.4,41.5,42.7,40.7,42.7z M40.7,48.4c-0.8,0-1.4,0.6-1.4,1.4s0.6,1.4,1.4,1.4c0.8,0,1.4-0.6,1.4-1.4l0,0
			C42.1,49.1,41.5,48.4,40.7,48.4z M49.2,42.7c0.8,0,1.4-0.6,1.4-1.4c0-0.8-0.6-1.4-1.4-1.4c-0.8,0-1.4,0.6-1.4,1.4l0,0
			C47.8,42.1,48.5,42.7,49.2,42.7z M46.4,48.4c-0.8,0-1.4,0.6-1.4,1.4s0.6,1.4,1.4,1.4s1.4-0.6,1.4-1.4l0,0
			C47.8,49.1,47.2,48.4,46.4,48.4z M49.2,45.6c-0.8,0-1.4,0.6-1.4,1.4c0,0.8,0.6,1.4,1.4,1.4c0.8,0,1.4-0.6,1.4-1.4
			C50.7,46.2,50,45.6,49.2,45.6z M46.4,42.7c-0.8,0-1.4,0.6-1.4,1.4s0.6,1.4,1.4,1.4s1.4-0.6,1.4-1.4c0,0,0,0,0,0
			C47.8,43.4,47.2,42.7,46.4,42.7L46.4,42.7z M43.5,39.9c-0.8,0-1.4,0.6-1.4,1.4c0,0.8,0.6,1.4,1.4,1.4c0.8,0,1.4-0.6,1.4-1.4
			c0,0,0,0,0,0C45,40.5,44.3,39.9,43.5,39.9z"/>
	</g>
</g>
</svg>
