<?xml version="1.0" encoding="utf-8"?>
<!-- Generator: Adobe Illustrator 27.0.1, SVG Export Plug-In . SVG Version: 6.00 Build 0)  -->
<svg version="1.1" id="Layer_1" xmlns="http://www.w3.org/2000/svg" xmlns:xlink="http://www.w3.org/1999/xlink" x="0px" y="0px"
	 viewBox="0 0 36 31.3" style="enable-background:new 0 0 36 31.3;" xml:space="preserve">
<style type="text/css">
	.st0{fill:#FFFFFF;}
</style>
<path class="st0" d="M29.1,7c-3.5,0-6.3,2.6-6.6,6.1h-5c-0.4-1.7-1.8-3.1-3.9-3.1c-0.7,0-1.5,0.2-2,0.6L9.2,8.3
	c0.6-0.7,0.9-1.7,0.9-2.8c0-2.8-2.2-4.8-4.8-4.8S0.5,2.9,0.5,5.5c0,2.8,2.2,4.8,4.8,4.8c1.1,0,2.2-0.4,3-0.9l2.4,2.4
	c-0.4,0.6-0.7,1.5-0.7,2.2c0,1.1,0.6,2.2,1.5,3l-1.8,3.5c-0.7-0.4-1.5-0.4-2.2-0.4c-3,0-5.4,2.4-5.4,5.4s2.4,5.4,5.4,5.4
	s5.4-2.4,5.4-5.4c0-1.7-0.7-3.1-2-4.2l1.8-3.5c0.4,0.2,0.7,0.2,1.1,0.2c1.8,0,3.5-1.5,3.9-3.1h5c0.4,3.3,3.1,6.1,6.6,6.1
	c3.7,0,6.8-3,6.8-6.8S32.8,7,29.1,7z"/>
</svg>
