<?xml version="1.0" encoding="utf-8"?>
<!-- Generator: Adobe Illustrator 27.0.1, SVG Export Plug-In . SVG Version: 6.00 Build 0)  -->
<svg version="1.1" id="Layer_1" xmlns="http://www.w3.org/2000/svg" xmlns:xlink="http://www.w3.org/1999/xlink" x="0px" y="0px"
	 viewBox="0 0 36 32" style="enable-background:new 0 0 36 32;" xml:space="preserve">
<style type="text/css">
	.st0{fill:#F9A139;}
</style>
<path id="Icon_awesome-hand-holding-heart" class="st0" d="M17.3,15.5c0.5,0.5,1.2,0.5,1.4,0l0,0l6.7-7c1.9-2.1,1.9-5.3-0.2-7.2
	c0,0,0,0-0.2,0c-1.9-1.6-4.6-1.4-6.5,0.5L18,2.5l-0.7-0.7c-1.6-1.9-4.4-2.1-6.5-0.5c-2.1,1.9-2.3,5.1-0.5,7.2l0,0L17.3,15.5z
	 M35,20.4c-0.7-0.7-1.9-0.7-2.6,0l-5.6,4.4c-0.7,0.7-1.6,0.9-2.6,0.9h-7.2c-0.5,0-0.9-0.5-0.9-0.9c0-0.5,0.5-0.9,0.9-0.9l0,0h4.9
	c0.9,0,1.9-0.7,2.1-1.6c0.2-1.2-0.5-2.1-1.6-2.3h-0.2h-9.8c-1.6,0-3.3,0.5-4.6,1.6L5,23.9H1.5c-0.5,0-0.9,0.5-0.9,0.9v5.8
	c0,0.5,0.5,0.9,0.9,0.9h21.9c0.9,0,1.9-0.2,2.6-0.9l9.3-7.4c0.9-0.7,0.9-1.9,0.2-2.8C35.2,20.6,35.2,20.4,35,20.4L35,20.4z"/>
</svg>
