<?xml version="1.0" encoding="utf-8"?>
<!-- Generator: Adobe Illustrator 27.0.1, SVG Export Plug-In . SVG Version: 6.00 Build 0)  -->
<svg version="1.1" id="Layer_1" xmlns="http://www.w3.org/2000/svg" xmlns:xlink="http://www.w3.org/1999/xlink" x="0px" y="0px"
	 viewBox="0 0 36 36" style="enable-background:new 0 0 36 36;" xml:space="preserve">
<style type="text/css">
	.st0{fill:#FFFFFF;}
	.st1{fill:#F9A139;}
	.st2{fill:#F89822;}
</style>
<g id="Ellipse_18" transform="translate(0 0.406)">
	<circle class="st0" cx="18" cy="17.6" r="18"/>
	<path class="st1" d="M18,35.6c-9.9,0-18-8.1-18-18s8.1-18,18-18s18,8.1,18,18S27.9,35.6,18,35.6z M18,1.1C8.9,1.1,1.5,8.5,1.5,17.6
		S8.9,34.1,18,34.1s16.5-7.4,16.5-16.5S27.1,1.1,18,1.1z"/>
</g>
<circle id="Ellipse_11" class="st2" cx="18" cy="18" r="15.2"/>
<g>
	<path class="st0" d="M26,11.7c-1.1-1.1-1.8-1-1.8-1c-0.5-2.8-6.7-3.8-7.1,1.8c-3.9,1.2-6.8,3.8-7.4,4.8c-0.5,0.9,0.9,3.3,1.4,3.8
		c0,2.5,1.8,2.9,6.1,1.8s7.3-2.9,6.7-8.9C23.8,13,26,11.7,26,11.7z M21.5,11.6c-0.3,0-0.5-0.2-0.5-0.5s0.2-0.5,0.5-0.5
		s0.5,0.2,0.5,0.5C22,11.3,21.8,11.6,21.5,11.6z"/>
	<path class="st0" d="M13.5,22.8c0.4,1,1,2.7,1.1,2.9l0,0c-1,0.6-1.3,1.1-1.4,1.3l0,0c0.9-0.6,1.6-0.4,1.6-0.4
		c0.1,0.1,0.2,0.1,0.3,0.2c0.2,0.1,0.4,0.3,0.6,0.4c0.3,0.2,0.5,0.3,0.8,0.4c0.3,0.1,0.6,0.3,0.9,0.3h0.1c0,0,0,0,0.1,0s0-0.1,0-0.1
		s-0.1,0-0.1-0.1c-0.1,0-0.2-0.1-0.2-0.1c-0.1-0.1-0.3-0.2-0.4-0.3c-0.1-0.1-0.3-0.2-0.4-0.4l0,0c1.1-0.1,2.2,0.1,2.5,0.1
		c0,0,0,0,0-0.1c-1.3-0.8-3-1-3.1-1l0,0l-1.7-3.3l0,0L13.5,22.8L13.5,22.8z"/>
	<path class="st0" d="M17.3,21.6c0.4,1,1,2.7,1.1,2.9l0,0c-1,0.6-1.3,1.1-1.4,1.3l0,0c0.9-0.6,1.6-0.4,1.6-0.4
		c0.2,0.2,0.5,0.4,0.8,0.5c0.2,0.1,0.5,0.3,0.8,0.4c0.2,0.1,0.4,0.2,0.5,0.3c0.1,0,0.5,0.1,0.3-0.1c-0.1-0.1-0.4-0.3-0.5-0.4
		s-0.2-0.2-0.3-0.3l0,0c1.1-0.1,2.2,0.1,2.5,0.1c0,0,0,0,0-0.1c-1.3-0.8-3-1-3.1-1l0,0L18,21.5l0,0L17.3,21.6L17.3,21.6z"/>
</g>
</svg>
