<?xml version="1.0" encoding="utf-8"?>
<!-- Generator: Adobe Illustrator 27.0.1, SVG Export Plug-In . SVG Version: 6.00 Build 0)  -->
<svg version="1.1" id="Layer_1" xmlns="http://www.w3.org/2000/svg" xmlns:xlink="http://www.w3.org/1999/xlink" x="0px" y="0px"
	 viewBox="0 0 36 36" style="enable-background:new 0 0 36 36;" xml:space="preserve">
<style type="text/css">
	.st0{fill:#FFFFFF;}
	.st1{fill:#F9A139;}
	.st2{fill:#EEEEEE;}
</style>
<g id="Group_20" transform="translate(0 -0.406)">
	<g id="Ellipse_18" transform="translate(0 0.406)">
		<circle class="st0" cx="18" cy="18" r="18"/>
		<path class="st1" d="M18,36C8.1,36,0,27.9,0,18C0,8.1,8.1,0,18,0s18,8.1,18,18C36,27.9,27.9,36,18,36z M18,1.5
			C8.9,1.5,1.5,8.9,1.5,18c0,9.1,7.4,16.5,16.5,16.5c9.1,0,16.5-7.4,16.5-16.5C34.5,8.9,27.1,1.5,18,1.5z"/>
	</g>
	<circle id="Ellipse_11" class="st2" cx="18" cy="18.4" r="14.4"/>
	<path id="Icon_awesome-hand-holding-heart" class="st1" d="M18,17.6c0.2,0.2,0.5,0.2,0.6,0c0,0,0,0,0,0l2.9-3
		c0.8-0.9,0.8-2.3-0.1-3.1c0,0,0,0-0.1,0c-0.8-0.7-2-0.6-2.8,0.2L18.3,12L18,11.7c-0.7-0.8-1.9-0.9-2.8-0.2c-0.9,0.8-1,2.2-0.2,3.1
		c0,0,0,0,0,0L18,17.6z M25.6,19.7c-0.3-0.3-0.8-0.3-1.1,0l-2.4,1.9C21.8,21.9,21.4,22,21,22h-3.1c-0.2,0-0.4-0.2-0.4-0.4
		c0-0.2,0.2-0.4,0.4-0.4c0,0,0,0,0,0H20c0.4,0,0.8-0.3,0.9-0.7c0.1-0.5-0.2-0.9-0.7-1c0,0-0.1,0-0.1,0h-4.2c-0.7,0-1.4,0.2-2,0.7
		l-1.2,1h-1.5c-0.2,0-0.4,0.2-0.4,0.4v2.5c0,0.2,0.2,0.4,0.4,0.4h9.4c0.4,0,0.8-0.1,1.1-0.4l4-3.2c0.4-0.3,0.4-0.8,0.1-1.2
		C25.7,19.8,25.7,19.7,25.6,19.7L25.6,19.7z"/>
</g>
</svg>
