<?xml version="1.0" encoding="utf-8"?>
<!-- Generator: Adobe Illustrator 27.0.1, SVG Export Plug-In . SVG Version: 6.00 Build 0)  -->
<svg version="1.1" id="Layer_1" xmlns="http://www.w3.org/2000/svg" xmlns:xlink="http://www.w3.org/1999/xlink" x="0px" y="0px"
	 viewBox="0 0 36 36" style="enable-background:new 0 0 36 36;" xml:space="preserve">
<style type="text/css">
	.st0{fill:#FFFFFF;}
	.st1{fill:#F9A139;}
	.st2{fill:#EEEEEE;}
</style>
<g id="Group_20" transform="translate(0 -0.406)">
	<g id="Ellipse_18" transform="translate(0 0.406)">
		<circle class="st0" cx="18" cy="18" r="18"/>
		<path class="st1" d="M18,36C8.1,36,0,27.9,0,18C0,8.1,8.1,0,18,0s18,8.1,18,18C36,27.9,27.9,36,18,36z M18,1.5
			C8.9,1.5,1.5,8.9,1.5,18c0,9.1,7.4,16.5,16.5,16.5c9.1,0,16.5-7.4,16.5-16.5C34.5,8.9,27.1,1.5,18,1.5z"/>
	</g>
	<circle id="Ellipse_11" class="st2" cx="18" cy="18.4" r="14.4"/>
	<path id="Icon_awesome-seedling" class="st1" d="M13.2,14.2h-1.6c0,3.1,2.6,5.7,5.7,5.7v3.7c0,0.2,0.2,0.4,0.4,0.4h0.8
		c0.2,0,0.4-0.2,0.4-0.4v-3.7C18.9,16.8,16.4,14.2,13.2,14.2z M23,12.6c-2.1,0-4,1.1-5,2.9c0.7,0.8,1.2,1.7,1.5,2.7
		c2.9-0.3,5.1-2.8,5.1-5.7H23z"/>
</g>
</svg>
