<?xml version="1.0" encoding="utf-8"?>
<!-- Generator: Adobe Illustrator 27.0.1, SVG Export Plug-In . SVG Version: 6.00 Build 0)  -->
<svg version="1.1" id="Layer_1" xmlns="http://www.w3.org/2000/svg" xmlns:xlink="http://www.w3.org/1999/xlink" x="0px" y="0px"
	 viewBox="0 0 36 36" style="enable-background:new 0 0 36 36;" xml:space="preserve">
<style type="text/css">
	.st0{fill:#FFFFFF;}
	.st1{fill:#F9A139;}
	.st2{fill:#F89822;}
</style>
<g id="Ellipse_18" transform="translate(0 0.406)">
	<circle class="st0" cx="18" cy="17.6" r="18"/>
	<path class="st1" d="M18,35.6c-9.9,0-18-8.1-18-18s8.1-18,18-18s18,8.1,18,18S27.9,35.6,18,35.6z M18,1.1C8.9,1.1,1.5,8.5,1.5,17.6
		S8.9,34.1,18,34.1s16.5-7.4,16.5-16.5S27.1,1.1,18,1.1z"/>
</g>
<circle id="Ellipse_11" class="st2" cx="18" cy="18" r="15.2"/>
<path class="st0" d="M24.8,13.4c-1.9,0-3.4,1.4-3.6,3.3h-2.7c-0.2-0.9-1-1.7-2.1-1.7c-0.4,0-0.8,0.1-1.1,0.3L14,14.1
	c0.3-0.4,0.5-0.9,0.5-1.5c0-1.5-1.2-2.6-2.6-2.6s-2.6,1.2-2.6,2.6c0,1.5,1.2,2.6,2.6,2.6c0.6,0,1.2-0.2,1.6-0.5l1.3,1.3
	c-0.2,0.3-0.4,0.8-0.4,1.2c0,0.6,0.3,1.2,0.8,1.6l-1,1.9c-0.4-0.2-0.8-0.2-1.2-0.2c-1.6,0-2.9,1.3-2.9,2.9s1.3,2.9,2.9,2.9
	s2.9-1.3,2.9-2.9c0-0.9-0.4-1.7-1.1-2.3l1-1.9c0.2,0.1,0.4,0.1,0.6,0.1c1,0,1.9-0.8,2.1-1.7h2.7c0.2,1.8,1.7,3.3,3.6,3.3
	c2,0,3.7-1.6,3.7-3.7C28.5,15.1,26.8,13.4,24.8,13.4z"/>
</svg>
