<?xml version="1.0" encoding="utf-8"?>
<!-- Generator: Adobe Illustrator 27.0.1, SVG Export Plug-In . SVG Version: 6.00 Build 0)  -->
<svg version="1.1" id="Layer_1" xmlns="http://www.w3.org/2000/svg" xmlns:xlink="http://www.w3.org/1999/xlink" x="0px" y="0px"
	 viewBox="0 0 36 36" style="enable-background:new 0 0 36 36;" xml:space="preserve">
<style type="text/css">
	.st0{fill:#FFFFFF;}
	.st1{fill:#F9A139;}
	.st2{fill:#EEEEEE;}
</style>
<g id="Ellipse_18" transform="translate(0 0.406)">
	<circle class="st0" cx="18" cy="17.6" r="18"/>
	<path class="st1" d="M18,35.6c-9.9,0-18-8.1-18-18c0-9.9,8.1-18,18-18s18,8.1,18,18C36,27.5,27.9,35.6,18,35.6z M18,1.1
		C8.9,1.1,1.5,8.5,1.5,17.6c0,9.1,7.4,16.5,16.5,16.5c9.1,0,16.5-7.4,16.5-16.5C34.5,8.5,27.1,1.1,18,1.1z"/>
</g>
<circle id="Ellipse_11" class="st2" cx="18" cy="18" r="14.4"/>
<path id="Icon_awesome-balance-scale" class="st1" d="M16.2,19.9L16.2,19.9c0-0.4,0-0.2-2.3-5c-0.3-0.6-1.1-0.9-1.8-0.6
	c-0.3,0.1-0.5,0.3-0.6,0.6c-2.4,4.8-2.3,4.5-2.3,5l0,0c0,1.2,1.6,2.2,3.5,2.2S16.2,21.1,16.2,19.9z M12.7,15.5l2,3.9h-3.9L12.7,15.5
	z M26.7,19.9c0-0.4,0-0.2-2.3-5c-0.3-0.6-1.1-0.9-1.8-0.6c-0.3,0.1-0.5,0.3-0.6,0.6c-2.4,4.8-2.3,4.5-2.3,5l0,0
	c0,1.2,1.6,2.2,3.5,2.2S26.8,21.1,26.7,19.9L26.7,19.9z M21.3,19.5l2-3.9l2,3.9H21.3z M23.7,23h-4.8v-8.1c0.7-0.3,1.1-0.9,1.3-1.6
	h3.5c0.2,0,0.4-0.2,0.4-0.4V12c0-0.2-0.2-0.4-0.4-0.4h-4c-0.7-1-2.1-1.2-3-0.4c-0.2,0.1-0.3,0.3-0.4,0.4h-4c-0.2,0-0.4,0.2-0.4,0.4
	v0.9c0,0.2,0.2,0.4,0.4,0.4h3.5c0.1,0.7,0.6,1.3,1.3,1.6V23h-4.8c-0.2,0-0.4,0.2-0.4,0.4v0.9c0,0.2,0.2,0.4,0.4,0.4h11.4
	c0.2,0,0.4-0.2,0.4-0.4v-0.9C24.1,23.2,23.9,23,23.7,23L23.7,23z"/>
</svg>
