<?xml version="1.0" encoding="utf-8"?>
<!-- Generator: Adobe Illustrator 27.0.1, SVG Export Plug-In . SVG Version: 6.00 Build 0)  -->
<svg version="1.1" id="Layer_1" xmlns="http://www.w3.org/2000/svg" xmlns:xlink="http://www.w3.org/1999/xlink" x="0px" y="0px"
	 viewBox="0 0 36 28.7" style="enable-background:new 0 0 36 28.7;" xml:space="preserve">
<style type="text/css">
	.st0{fill:#F9A139;}
</style>
<path id="Icon_awesome-balance-scale" class="st0" d="M14.6,18.7L14.6,18.7c0-0.8,0-0.4-4.6-10C9.4,7.5,7.8,6.9,6.4,7.5
	c-0.6,0.2-1,0.6-1.2,1.2c-4.8,9.6-4.6,9-4.6,10l0,0c0,2.4,3.2,4.4,7,4.4S14.6,21.1,14.6,18.7z M7.6,9.9l4,7.8H3.8L7.6,9.9z
	 M35.6,18.7c0-0.8,0-0.4-4.6-10c-0.6-1.2-2.2-1.8-3.6-1.2c-0.6,0.2-1,0.6-1.2,1.2c-4.8,9.6-4.6,9-4.6,10l0,0c0,2.4,3.2,4.4,7,4.4
	S35.8,21.1,35.6,18.7L35.6,18.7z M24.8,17.9l4-7.8l4,7.8H24.8z M29.6,24.9H20V8.7c1.4-0.6,2.2-1.8,2.6-3.2h7c0.4,0,0.8-0.4,0.8-0.8
	V2.9c0-0.4-0.4-0.8-0.8-0.8h-8c-1.4-2-4.2-2.4-6-0.8c-0.4,0.2-0.6,0.6-0.8,0.8h-8C6.4,2.1,6,2.5,6,2.9v1.8c0,0.4,0.4,0.8,0.8,0.8h7
	C14,6.9,15,8.1,16.4,8.7v16.2H6.8c-0.4,0-0.8,0.4-0.8,0.8v1.8c0,0.4,0.4,0.8,0.8,0.8h22.8c0.4,0,0.8-0.4,0.8-0.8v-1.8
	C30.4,25.3,30,24.9,29.6,24.9L29.6,24.9z"/>
</svg>
