<?xml version="1.0" encoding="utf-8"?>
<!-- Generator: Adobe Illustrator 27.0.1, SVG Export Plug-In . SVG Version: 6.00 Build 0)  -->
<svg version="1.1" id="Layer_1" xmlns="http://www.w3.org/2000/svg" xmlns:xlink="http://www.w3.org/1999/xlink" x="0px" y="0px"
	 viewBox="0 0 36 36" style="enable-background:new 0 0 36 36;" xml:space="preserve">
<style type="text/css">
	.st0{fill:#FFFFFF;}
	.st1{fill:#F9A139;}
	.st2{fill:#F89822;}
	.st3{fill:none;stroke:#F89822;stroke-width:0.62;stroke-linecap:round;stroke-linejoin:round;stroke-miterlimit:10;}
</style>
<g id="Ellipse_18" transform="translate(0 0.406)">
	<circle class="st0" cx="18" cy="17.6" r="18"/>
	<path class="st1" d="M18,35.6c-9.9,0-18-8.1-18-18s8.1-18,18-18s18,8.1,18,18S27.9,35.6,18,35.6z M18,1.1C8.9,1.1,1.5,8.5,1.5,17.6
		S8.9,34.1,18,34.1s16.5-7.4,16.5-16.5S27.1,1.1,18,1.1z"/>
</g>
<circle id="Ellipse_11" class="st2" cx="18" cy="18" r="15.2"/>
<g>
	<g>
		<path class="st0" d="M21.2,14.8l-4.6-4.6c-1.6-1.6-4.3-1.6-5.9,0l0,0c-1.6,1.6-1.6,4.3,0,5.9l4.3,4.3
			C17.7,19.1,19.9,17.1,21.2,14.8z"/>
		<path class="st0" d="M25.8,19.5L21.3,15c-1.3,2.3-3.4,4.3-6.2,5.6l4.8,4.8c1.6,1.6,4.3,1.6,5.9,0C27.5,23.8,27.5,21.2,25.8,19.5z"
			/>
	</g>
	<line class="st3" x1="12.2" y1="14.3" x2="15.6" y2="17.7"/>
</g>
</svg>
