<?xml version="1.0" encoding="utf-8"?>
<!-- Generator: Adobe Illustrator 27.7.0, SVG Export Plug-In . SVG Version: 6.00 Build 0)  -->
<svg version="1.1" id="Layer_1" xmlns="http://www.w3.org/2000/svg" xmlns:xlink="http://www.w3.org/1999/xlink" x="0px" y="0px"
	 viewBox="0 0 36 31.9" style="enable-background:new 0 0 36 31.9;" xml:space="preserve">
<style type="text/css">
	.st0{fill:#DF1F28;}
</style>
<path id="Icon_awesome-quote-left" class="st0" d="M32.6,16.1H27v-4.5c0-2.5,2-4.5,4.5-4.5h0.6c0.9,0,1.7-0.7,1.7-1.7c0,0,0,0,0,0V2
	c0-0.9-0.7-1.7-1.7-1.7c0,0,0,0,0,0h-0.6c-6.2,0-11.2,5-11.2,11.2c0,0,0,0,0,0v16.9c0,1.9,1.5,3.4,3.4,3.4h9c1.9,0,3.4-1.5,3.4-3.4
	v-9C36,17.6,34.5,16.1,32.6,16.1z M12.4,16.1H6.8v-4.5c0-2.5,2-4.5,4.5-4.5h0.6c0.9,0,1.7-0.7,1.7-1.7c0,0,0,0,0,0V2
	c0-0.9-0.7-1.7-1.7-1.7c0,0,0,0,0,0h-0.6C5,0.3,0,5.3,0,11.6c0,0,0,0,0,0v16.9c0,1.9,1.5,3.4,3.4,3.4h9c1.9,0,3.4-1.5,3.4-3.4v-9
	C15.7,17.6,14.2,16.1,12.4,16.1z"/>
</svg>
