<?xml version="1.0" encoding="utf-8"?>
<!-- Generator: Adobe Illustrator 28.2.0, SVG Export Plug-In . SVG Version: 6.00 Build 0)  -->
<svg version="1.1" id="a" xmlns="http://www.w3.org/2000/svg" xmlns:xlink="http://www.w3.org/1999/xlink" x="0px" y="0px"
	 viewBox="0 0 100 100" style="enable-background:new 0 0 100 100;" xml:space="preserve">
<style type="text/css">
	.st0{fill:#115448;}
</style>
<path class="st0" d="M81.8,58.6c-2.2-2-5.3-2.8-9.5-2.5c-4.9-7.6-13.4-12.4-22.9-12.4s-18,4.8-22.9,12.4c-4.2-0.3-7.4,0.5-9.6,2.5
	c-2,1.8-3,4.6-3,8c0,8.1,1.2,13.1,7.4,13.1c0.8,0,1.5-0.1,2.2-0.2c0.4,1.2,0.9,2.4,1.5,3.6l2.3-1.2c-0.5-1-1-2.1-1.3-3.2
	c0.8-0.4,1.4-0.8,2-1.4c1.5-1.6,2.3-3.9,2.3-6.9c0-4.5-1.4-7.3-4.1-8.4c3.6-9.6,12.7-16,23.1-16s19.4,6.3,23,15.9
	c-2.8,1-4.2,3.8-4.2,8.4c0,3,0.8,5.3,2.3,6.9c0.6,0.6,1.3,1.1,2.1,1.4C69.4,88.7,60,95.5,49.5,95.5c-3.8,0-7.4-0.8-10.8-2.5
	l-1.1,2.3c3.7,1.8,7.8,2.8,12,2.8c11.7,0,22.1-7.6,25.8-18.5c0.7,0.1,1.4,0.2,2.1,0.2c6.2,0,7.4-5,7.4-13.1
	C84.9,63.2,83.8,60.4,81.8,58.6L81.8,58.6z M27.9,70.6c0,2.3-0.5,4-1.6,5c-1,1.1-2.6,1.6-4.9,1.6s-4.8,0-4.8-10.6
	c0-2.7,0.7-4.7,2.2-6.1c1.4-1.3,3.6-2,6.4-1.9c-0.5,1-0.9,2-1.3,3.1c-0.2,0-0.3,0-0.5,0h-3.1v2.6h3.1C25.6,64.3,27.9,64.8,27.9,70.6
	L27.9,70.6z M77.4,77.1c-2.3,0-3.9-0.5-4.9-1.6c-1.1-1.1-1.6-2.7-1.6-5c0-5.8,2.3-6.3,4.5-6.3h3.1v-2.6h-3.1c-0.1,0-0.2,0-0.3,0
	c-0.4-1.1-0.8-2.1-1.3-3.1c2.8,0,4.9,0.6,6.3,1.9c1.4,1.3,2.2,3.4,2.2,6.1C82.3,77.1,79.7,77.1,77.4,77.1L77.4,77.1z"/>
<path class="st0" d="M49.4,31.5c8.5,0,15.3-6.9,15.3-15.4S57.9,0.8,49.4,0.8S34.1,7.7,34.1,16.2S41,31.5,49.4,31.5z M49.4,3.4
	c7,0,12.8,5.7,12.8,12.8s-5.7,12.8-12.8,12.8s-12.8-5.7-12.8-12.8S42.4,3.4,49.4,3.4z"/>
<path class="st0" d="M38.3,84c3,2.6,6.9,4.2,11.2,4.2c9.5,0,17.3-7.8,17.3-17.3S59,53.6,49.5,53.6s-17.3,7.8-17.3,17.3
	c0,4.3,1.6,8.3,4.2,11.3l-2.2,2.2l-6.1-1.1l-7.9,7.9l6,1.2L25,93.7l1.8,1.8l1.2-1.2l1.2,6.1l7.9-7.9l-1.1-6.2L38.3,84L38.3,84z
	 M34.8,70.9c0-8.1,6.6-14.7,14.7-14.7s14.7,6.6,14.7,14.7s-6.6,14.7-14.7,14.7c-3.6,0-6.8-1.3-9.4-3.4l4.9-4.9
	c1.3,0.9,2.8,1.4,4.5,1.4c4.3,0,7.8-3.5,7.8-7.8s-3.5-7.8-7.8-7.8s-7.8,3.5-7.8,7.8c0,1.7,0.6,3.3,1.5,4.6l-4.9,4.9
	C36.1,77.8,34.8,74.5,34.8,70.9L34.8,70.9z M48.5,70.1L45,73.6c-0.5-0.8-0.8-1.7-0.8-2.7c0-2.9,2.3-5.2,5.2-5.2s5.2,2.3,5.2,5.2
	s-2.3,5.2-5.2,5.2c-1,0-1.8-0.3-2.6-0.7l3.4-3.4C50.3,72,48.5,70.1,48.5,70.1z M28.4,90.2l-3-0.6l3.5-3.5l3,0.6L28.4,90.2L28.4,90.2
	z M30.9,95.1l-0.6-3l3.6-3.6l0.6,3.1L30.9,95.1L30.9,95.1z"/>
<path class="st0" d="M26.2,51.3c0-10.2,9-13.8,14.7-15.1l8.5,5.7l8.5-5.7c5.7,1.3,14.6,4.9,14.6,15.1v2.5h2.6v-2.5
	c0-9-6.3-15.5-17.2-17.7l-0.5-0.1l-8,5.3l-8-5.3l-0.5,0.1c-11,2.2-17.2,8.7-17.2,17.7v2.3h2.6L26.2,51.3L26.2,51.3z"/>
</svg>
