<?xml version="1.0" encoding="utf-8"?>
<!-- Generator: Adobe Illustrator 28.2.0, SVG Export Plug-In . SVG Version: 6.00 Build 0)  -->
<svg version="1.1" id="a" xmlns="http://www.w3.org/2000/svg" xmlns:xlink="http://www.w3.org/1999/xlink" x="0px" y="0px"
	 viewBox="0 0 100 100" style="enable-background:new 0 0 100 100;" xml:space="preserve">
<style type="text/css">
	.st0{fill:#115448;}
</style>
<path class="st0" d="M19.8,29.6c5.1,0,8.5-3.9,8.5-9.7s-3.4-9.7-8.5-9.7s-8.5,3.9-8.5,9.7S14.8,29.6,19.8,29.6z M19.8,12.7
	c4.5,0,6.1,3.9,6.1,7.3s-1.6,7.3-6,7.3s-6.1-3.9-6.1-7.3S15.4,12.7,19.8,12.7z"/>
<path class="st0" d="M19.8,68.3c-0.7,0-1.2,0.5-1.2,1.2v19.4c0,0.7,0.5,1.2,1.2,1.2s1.2-0.5,1.2-1.2V69.5
	C21,68.9,20.5,68.3,19.8,68.3z"/>
<path class="st0" d="M30.7,68c-0.7,0-1.2,0.5-1.2,1.2v19.7c0,0.7,0.5,1.2,1.2,1.2s1.2-0.5,1.2-1.2V69.2C31.9,68.6,31.4,68,30.7,68z"
	/>
<path class="st0" d="M80.4,29.6c5.1,0,8.5-3.9,8.5-9.7s-3.4-9.7-8.5-9.7s-8.5,3.9-8.5,9.7S75.3,29.6,80.4,29.6z M80.4,12.7
	c4.5,0,6.1,3.9,6.1,7.3s-1.6,7.3-6.1,7.3s-6.1-3.9-6.1-7.3S75.9,12.7,80.4,12.7z"/>
<path class="st0" d="M80.4,68.3c-0.7,0-1.2,0.5-1.2,1.2v19.4c0,0.7,0.5,1.2,1.2,1.2s1.2-0.5,1.2-1.2V69.5
	C81.6,68.9,81.1,68.3,80.4,68.3z"/>
<path class="st0" d="M86.4,32H65.1c0,0-0.1,0-0.1,0h-0.2c-0.1,0-0.1,0-0.2,0H50.2c0,0,0,0,0,0c0,0,0,0,0,0H13.9
	C6.5,32,0.5,38,0.5,45.3v13.3c0,2.7,2.2,4.8,4.8,4.8h2.3v25.4c0,0.7,0.5,1.2,1.2,1.2s1.2-0.5,1.2-1.2V63.5h9.1
	c2.3,0,4.2-1.9,4.2-4.2c0-0.7-0.2-1.3-0.5-1.9c0.5-0.1,1.1-0.3,1.6-0.6v8.9c0,0.7,0.5,1.2,1.2,1.2h10.8c0.3,0,0.6-0.1,0.9-0.4
	c0.2-0.2,0.3-0.6,0.3-0.9v-0.3c0-0.3-0.1-0.6-0.3-0.8c-0.5-0.5-1.1-1.4-1.1-2.2c0-0.4,0.2-0.8,0.5-1.2c0.4-0.4,1-0.7,1.7-0.7h0.1
	c1.3,0,2.3,0.9,2.3,1.9c0,0.9-0.6,1.7-1.1,2.2c-0.2,0.2-0.3,0.5-0.3,0.8v0.3c0,0.3,0.1,0.6,0.3,0.9c0.2,0.2,0.5,0.4,0.9,0.4h10.6
	c0.1,0,0.2,0,0.2,0h8.8c-0.4,0.8-0.7,1.7-0.7,2.5c0,2.3,2,4.2,4.6,4.3h0.2c2.5-0.1,4.5-2.1,4.5-4.4c0-0.8-0.2-1.6-0.6-2.4h8.9
	c0.7,0,1.2-0.5,1.2-1.2v-2.9c0.6,0.4,1.4,0.6,2.2,0.6h9.2v25.4c0,0.7,0.5,1.2,1.2,1.2s1.2-0.5,1.2-1.2V63.5h2.3
	c2.7,0,4.8-2.2,4.8-4.8V45.3C99.7,38,93.7,32,86.4,32L86.4,32z M51.4,34.4h9.2c-0.3,0.5-0.5,1.1-0.5,1.8c0,0.9,0.2,1.7,0.6,2.6h-8.9
	c0,0,0,0,0,0c0,0-0.1,0-0.1,0h-0.3C51.4,38.8,51.4,34.4,51.4,34.4z M19.3,61.1H5.4C4.1,61.1,3,60,3,58.7V45.3
	c0-6,4.9-10.9,10.9-10.9h35v4.4l-8,0c-0.3,0-0.6,0.1-0.9,0.4c-0.2,0.2-0.3,0.5-0.3,0.9l0,0.4c0,0.3,0.1,0.6,0.3,0.8
	c0.5,0.5,1.1,1.4,1.1,2.2c0,1-1,1.8-2.2,1.9h-0.1c-1.3,0-2.3-0.9-2.3-1.9c0-0.9,0.6-1.7,1.1-2.2c0.2-0.2,0.3-0.5,0.3-0.8v-0.5
	c0-0.3-0.1-0.6-0.3-0.9c-0.2-0.2-0.5-0.4-0.9-0.4l-10.7,0l0,0c-0.3,0-0.6,0.1-0.9,0.3c-0.2,0.2-0.4,0.5-0.4,0.9v8.8
	c-0.8-0.4-1.7-0.7-2.5-0.7c-2.3,0-4.2,2-4.3,4.6V53c0,0.8,0.2,1.4,0.6,2.1h-8.2v-8.5c0-0.7-0.5-1.2-1.2-1.2s-1.2,0.5-1.2,1.2v9.7
	c0,0.7,0.5,1.2,1.2,1.2h10.3c1,0,1.8,0.8,1.8,1.8S20.3,61.1,19.3,61.1L19.3,61.1z M51.7,53.7c-0.3,0-0.7,0.1-0.9,0.3
	c-0.2,0.2-0.4,0.5-0.4,0.9v9.6H43c0.3-0.7,0.5-1.4,0.5-2.1c0-2.3-2-4.2-4.7-4.3h-0.2c-1.3,0-2.5,0.5-3.4,1.4
	c-0.8,0.8-1.2,1.8-1.2,2.9c0,0.7,0.2,1.4,0.5,2.1h-7.5v-9.6c0-0.3-0.1-0.6-0.4-0.9c-0.2-0.2-0.6-0.3-0.9-0.3h-0.5
	c-0.3,0-0.6,0.1-0.8,0.3c-0.5,0.5-1.4,1.1-2.3,1.1l0,0c-1,0-1.9-1-2-2.2v-0.1c0-1.2,0.9-2.2,1.9-2.2l0,0c0.9,0,1.8,0.6,2.3,1.1
	c0.2,0.2,0.5,0.3,0.8,0.3h0.6c0.4,0,0.6-0.1,0.9-0.3c0.2-0.2,0.4-0.5,0.4-0.9v-9.5l7.5,0C34.2,42,34,42.8,34,43.5
	c0,2.3,2,4.2,4.7,4.3h0.2c2.6-0.1,4.6-2,4.6-4.3c0-0.8-0.2-1.5-0.6-2.3l7.6,0v9.5c0,0.7,0.5,1.2,1.2,1.2h0.6l0,0
	c0.3,0,0.5-0.1,0.8-0.3c0.6-0.5,1.4-1,2.3-1c1,0,1.8,1,1.9,2.3v0.1c-0.1,1.2-0.9,2.1-2,2.1c-0.9,0-1.7-0.6-2.3-1.1
	c-0.2-0.2-0.5-0.3-0.8-0.3L51.7,53.7L51.7,53.7z M76.3,64.6h-9.6c-0.3,0-0.6,0.1-0.9,0.4c-0.2,0.2-0.3,0.6-0.3,0.9v0.6
	c0,0.3,0.1,0.6,0.3,0.8c0.7,0.8,1.1,1.6,1.1,2.3c0,1-1,1.9-2.2,1.9h-0.1c-1.2,0-2.2-0.9-2.2-1.9c0-0.9,0.6-1.8,1.1-2.3
	c0.2-0.2,0.3-0.5,0.3-0.8v-0.6c0-0.3-0.1-0.6-0.3-0.9s-0.5-0.4-0.9-0.4h-9.7V57c0.8,0.4,1.5,0.6,2.3,0.7c2.3,0.1,4.3-1.8,4.5-4.4V53
	c0,0,0,0,0,0c0-2.5-1.9-4.6-4.2-4.7c-0.8,0-1.7,0.2-2.6,0.6v-7.7h9.7c0.7,0,1.2-0.5,1.2-1.2v-0.6c0-0.3-0.1-0.5-0.3-0.8
	c-0.5-0.6-1-1.4-1-2.3c0-1,0.9-1.7,2-1.8H65c1.2,0.1,2.1,1,2,2c0,0.9-0.6,1.7-1.1,2.3c-0.2,0.2-0.3,0.5-0.3,0.8l0,0.5
	c0,0.3,0.1,0.7,0.3,0.9s0.5,0.4,0.9,0.4h9.6v7.4c-0.7-0.3-1.4-0.5-2.1-0.5h0c-2.3,0-4.2,2-4.3,4.7V53c0,1.3,0.5,2.5,1.4,3.4
	c0.8,0.8,1.8,1.2,2.9,1.2h0c0.7,0,1.4-0.2,2.1-0.5V64.6L76.3,64.6z M97.3,58.7c0,1.3-1.1,2.4-2.4,2.4H80.9c-1,0-1.8-0.8-1.8-1.8
	s0.8-1.8,1.8-1.8h10.3c0.7,0,1.2-0.5,1.2-1.2v-9.7c0-0.7-0.5-1.2-1.2-1.2S90,45.9,90,46.5V55h-9.1c-0.8,0-1.5,0.2-2.2,0.6V55
	c0-0.3-0.1-0.6-0.4-0.9c-0.2-0.2-0.6-0.4-0.9-0.3h-0.3c-0.3,0-0.6,0.1-0.8,0.3c-0.5,0.5-1.4,1.1-2.2,1.1l0,0c-0.4,0-0.8-0.2-1.2-0.5
	c-0.4-0.4-0.7-1-0.7-1.7v-0.1c0.1-1.3,0.9-2.3,1.9-2.3l0,0c0.9,0,1.7,0.6,2.2,1.1c0.2,0.2,0.5,0.3,0.8,0.3h0.3
	c0.3,0,0.6-0.1,0.9-0.3c0.2-0.2,0.4-0.5,0.4-0.9V40c0-0.7-0.5-1.2-1.2-1.2h-8.8c0.4-0.8,0.7-1.5,0.7-2.3c0-0.7-0.2-1.4-0.5-2h17.5
	c6,0,10.9,4.9,10.9,10.9V58.7L97.3,58.7z"/>
<path class="st0" d="M69.5,73.2c-0.7,0-1.2,0.5-1.2,1.2v14.5c0,0.7,0.5,1.2,1.2,1.2s1.2-0.5,1.2-1.2V74.4
	C70.7,73.7,70.2,73.2,69.5,73.2z"/>
</svg>
