<?xml version="1.0" encoding="UTF-8"?><svg id="a" xmlns="http://www.w3.org/2000/svg" viewBox="0 0 100 100"><path d="M85.15,36.71c0-19.64-15.98-35.63-35.63-35.63S13.9,17.07,13.9,36.71c0,12.74,6.76,24.42,17.73,30.8v13.99c0,9.53,7.75,17.27,17.28,17.27s17.27-7.75,17.27-17.27v-1.87c.15-.29.23-.62.23-.97s-.09-.67-.23-.97v-9.53c11.57-6.14,18.97-18.34,18.97-31.46ZM18.28,36.71c0-17.23,14.02-31.25,31.25-31.25s31.24,14.02,31.24,31.25c0,12.09-6.79,22.87-17.73,28.14-.76.36-1.24,1.13-1.24,1.97v9.65h-10.51v-19.69s12.37-12.37,12.37-12.37c.86-.86.86-2.24,0-3.1-.85-.85-2.24-.85-3.1,0l-11.36,11.36-12.27-12.27c-.85-.85-2.24-.85-3.1,0-.85.86-.85,2.24,0,3.1l13.07,13.07v19.9h-10.9v-10.25c0-.81-.45-1.55-1.16-1.93-10.22-5.45-16.57-16.02-16.57-27.58ZM48.91,94.39c-7.11,0-12.9-5.79-12.9-12.9v-.65h25.79v.65c0,7.11-5.78,12.9-12.89,12.9Z" fill="#394553" stroke-width="0"/></svg>