<?xml version="1.0" encoding="UTF-8"?><svg id="a" xmlns="http://www.w3.org/2000/svg" viewBox="0 0 100 100"><path d="M49.91,1.15C22.88,1.15.9,23.13.9,50.16s21.98,49.01,49.01,49.01,49.01-21.98,49.01-49.01S76.93,1.15,49.91,1.15ZM49.91,94.78c-24.61,0-44.63-20.02-44.63-44.63S25.3,5.53,49.91,5.53s44.63,20.02,44.63,44.63-20.02,44.63-44.63,44.63Z" fill="#394553" stroke-width="0"/><path d="M81.81,75.63c-.9-3.5-4.54-6.7-11.13-9.77-3.39-1.58-6.63-2.67-8.11-3.14-.43-.87-.96-2.42-1.05-3.74,0-.08-.03-.16-.04-.24,3.14-4.78,7.37-13.67,6.4-24.14-1-10.88-7.81-17.37-18.2-17.37s-17.17,6.49-18.17,17.37c-.95,10.26,3.09,19,6.21,23.84,0,.02,0,.04,0,.05-.04,1.4-.63,3.16-1.08,4.27-1.54.49-4.67,1.56-7.96,3.09-6.59,3.07-10.23,6.26-11.13,9.77-.3,1.17.4,2.36,1.58,2.66.18.05.37.07.55.07.98,0,1.87-.66,2.12-1.65.98-3.8,10.57-8.16,17.07-10.05.18-.05.33-.13.49-.21.04-.02.08-.05.12-.08.12-.08.23-.17.33-.27.03-.03.06-.06.09-.09.12-.14.22-.29.31-.45,0-.01.02-.02.02-.04.1-.21.62-1.31,1.09-2.77,2.42,1.64,6.43,1.86,8.2,1.86.02,0,.15,0,.18,0l.02-2.19v2.19s.12,0,.12,0c0,0,.12,0,.12,0,1.7,0,5.56-.21,7.99-1.75.42,1.25.96,2.34,1.44,3,.01.02.03.03.04.04.08.1.17.2.27.29.02.02.04.04.06.06.12.1.25.18.39.25.05.03.1.04.16.06.08.03.15.07.23.09,6.5,1.89,16.09,6.25,17.07,10.05.25.99,1.14,1.65,2.12,1.65.18,0,.36-.02.55-.07,1.17-.3,1.88-1.49,1.58-2.66ZM49.91,60.25l-.06,2.19-.08-2.19s-.08,0-.09,0h-.09s-.02,2.19-.02,2.19l-.11-2.19c-3.23-.01-5.38-.72-5.88-1.22-1.81-1.81-8.86-11.78-7.73-24.01,1.08-11.65,9.12-13.4,13.81-13.4,8.01,0,13.06,4.88,13.85,13.4,1.13,12.24-5.92,22.2-7.73,24.01-.5.5-2.65,1.21-5.87,1.22Z" fill="#394553" stroke-width="0"/></svg>