<?xml version="1.0" encoding="utf-8"?>
<!-- Generator: Adobe Illustrator 28.2.0, SVG Export Plug-In . SVG Version: 6.00 Build 0)  -->
<svg version="1.1" id="a" xmlns="http://www.w3.org/2000/svg" xmlns:xlink="http://www.w3.org/1999/xlink" x="0px" y="0px"
	 viewBox="0 0 100 100" style="enable-background:new 0 0 100 100;" xml:space="preserve">
<style type="text/css">
	.st0{fill:#115448;}
</style>
<rect x="81.3" y="31.2" transform="matrix(0.2867 -0.958 0.958 0.2867 24.0874 105.158)" class="st0" width="2.7" height="10.5"/>
<rect x="74.8" y="15.2" transform="matrix(0.8298 -0.558 0.558 0.8298 4.4348 47.5762)" class="st0" width="10.8" height="2.7"/>
<path class="st0" d="M69.8,30.6l-5.1,1.2l0.6,2.6l5-1.2c0.9-0.2,1.7-0.7,2.3-1.5c0.9-1.2,1.2-3,0.9-4.8c-0.3-1.8-1.2-3.4-2.4-4.3
	c-0.8-0.6-1.7-0.8-2.5-0.7l-5.2,0.5l0.3,2.7l5.3-0.5c0.2,0,0.5,0.1,0.6,0.2c0.6,0.5,1.2,1.5,1.3,2.6c0.2,1.3-0.1,2.4-0.4,2.9
	C70.3,30.4,70.1,30.6,69.8,30.6L69.8,30.6z"/>
<rect x="78.1" y="24.8" transform="matrix(0.9863 -0.165 0.165 0.9863 -3.1664 14.1673)" class="st0" width="11" height="2.7"/>
<path class="st0" d="M55.1,50.2c0.7-1.1,1.3-2.2,1.8-3.4l-2.4-1.1c-0.5,1-1,2.1-1.7,3.1c-3.7,5.8-9.6,10-17.5,12.7l-1.1,0.4
	l4.5,22.1l2.6-0.5l-4.1-19.8C45.3,60.7,51.3,56.2,55.1,50.2L55.1,50.2z"/>
<rect x="15.3" y="72.2" transform="matrix(0.958 -0.2867 0.2867 0.958 -21.6673 8.0574)" class="st0" width="2.7" height="11.7"/>
<path class="st0" d="M17.4,48.8c7.4,0,13.4-6,13.4-13.4s-6-13.4-13.4-13.4S3.9,28,3.9,35.4S10,48.8,17.4,48.8z M17.4,24.6
	c5.9,0,10.8,4.8,10.8,10.8s-4.8,10.8-10.8,10.8S6.6,41.3,6.6,35.4S11.4,24.6,17.4,24.6z"/>
<path class="st0" d="M38.9,39.4c1.4,1.7,4.5,3.7,7.5,3.5c7.5-0.6,16.6,0.3,18.6,0.5c2,1.8,4.2,2.7,6.4,2.7c0.4,0,0.8,0,1.2-0.1
	c2.7-0.4,5-2.2,6.6-5.1l-2.3-1.3c-0.9,1.5-2.4,3.4-4.7,3.8c-2.3,0.4-4.7-0.8-6.9-3.4c-2.3-2.8-4-6.7-4.7-11c-0.7-4.4-0.3-8.6,1-11.9
	c1.2-3.1,3.2-5,5.5-5.4c2.2-0.4,4.6,0.8,6.7,3.2l2-1.8c-2.7-3.1-6-4.5-9.1-4c-1.8,0.3-3.3,1.2-4.7,2.5c-0.4,0.2-0.8,0.5-1.2,0.8
	c-3.2,2-8.1,5-16.2,6.9c-2.9,0.6-5.4,2.6-6.9,5.2c-2.3,1.3-4.7,4.2-4.2,8.6C34,36.1,36.8,38.7,38.9,39.4L38.9,39.4z M39.3,26.6
	l0.4-0.2l0.2-0.4c1.6-3.2,4.4-4,5.3-4.2c6.2-1.4,10.6-3.5,13.8-5.3c-1.4,3.7-1.8,8.3-1,12.9c0.7,4.2,2.2,8.1,4.3,11.1
	c-3.9-0.3-10.5-0.7-16.2-0.2c-2.3,0.2-4.7-1.8-5.4-2.8L40.4,37l-0.5-0.1c-1.1-0.2-3.5-2.1-3.7-4.2C35.7,28.5,38.7,26.9,39.3,26.6
	L39.3,26.6z"/>
<path class="st0" d="M40.3,44.2c-2,1.5-6.1,3.2-11.8,4.7L28,49l-4.9,6.5l-9.4-3.7l-0.4,0.1c-4.7,0.8-8.1,2.7-10.2,5.8
	C1,60.8,0.4,64.8,1.4,69.6c0.7,3.6,3.1,13.9,3.2,14.3l2.6-0.6c0-0.1-2.5-10.7-3.2-14.2c-0.8-4.1-0.3-7.4,1.4-9.8
	c1.6-2.3,4.4-3.9,8.1-4.6l10.6,4.2l5.5-7.4c5.9-1.6,10-3.3,12.3-5L40.3,44.2L40.3,44.2z"/>
<path class="st0" d="M53,61.1c0,4.8,3.9,8.6,8.6,8.6s8.6-3.9,8.6-8.6s-3.9-8.6-8.6-8.6S53,56.3,53,61.1z M67.6,61.1
	c0,3.3-2.7,5.9-5.9,5.9s-5.9-2.7-5.9-5.9s2.7-5.9,5.9-5.9C64.9,55.1,67.6,57.8,67.6,61.1z"/>
<path class="st0" d="M77,61.1c0,4.8,3.9,8.6,8.6,8.6s8.6-3.9,8.6-8.6s-3.9-8.6-8.6-8.6S77,56.3,77,61.1z M91.6,61.1
	c0,3.3-2.7,5.9-5.9,5.9s-5.9-2.7-5.9-5.9s2.7-5.9,5.9-5.9S91.6,57.8,91.6,61.1z"/>
<path class="st0" d="M89.9,70.9l-0.6-0.1l-3.7,2.9L82,70.8l-0.6,0.1c-3.5,0.7-6.2,2.5-7.7,5c-1.5-2.4-4.2-4.2-7.7-5l-0.6-0.1
	l-3.7,2.9L58,70.8l-0.6,0.1c-5.5,1.1-9,4.9-9,9.7v3.6H51v-3.6c0-3.3,2.4-5.9,6.3-6.9l4.3,3.4l4.3-3.4c3.9,1,6.3,3.6,6.3,6.9H75
	c0-3.3,2.4-5.9,6.3-6.9l4.3,3.4l4.3-3.4c3.9,1,6.3,3.6,6.3,6.9v3.6h2.7v-3.6C98.9,75.8,95.4,72,89.9,70.9z"/>
</svg>
