<?xml version="1.0" encoding="UTF-8"?><svg id="Layer_1" xmlns="http://www.w3.org/2000/svg" width="1.4in" height="1.4in" viewBox="0 0 100.8 100.66"><path id="Floss" d="M98,30.55c-1.23-1.24-3.22-1.24-4.44,0l-4.49,4.55c-1.2,1.22-2.8,1.89-4.49,1.89s-3.29-.67-4.49-1.89c-4.93-4.99-12.95-4.99-17.87,0l-7.98,8.08h-3.32c-2.48,0-4.49,2.04-4.49,4.55h-30.05c0-.58-.11-1.13-.31-1.63l49.07-19.96-8.39-21.15c-.81-2.04-3.09-3.02-5.11-2.21L5.85,21.41c-2.01.82-2.99,3.13-2.18,5.17l6.78,17.09c-1.59.65-2.71,2.22-2.71,4.05,0,2.41,1.93,4.37,4.32,4.37v43.86c0,2.2,1.76,3.98,3.93,3.98h49.34c2.17,0,3.93-1.78,3.93-3.98v-48.23c0-2.51-2.01-4.55-4.49-4.55h-1.65l3.53-3.58c2.48-2.51,6.51-2.51,8.99,0,2.39,2.42,5.56,3.75,8.94,3.75s6.55-1.33,8.94-3.75l4.49-4.55c.59-.6.92-1.41.92-2.25,0-.84-.33-1.65-.92-2.25ZM50.91,71.29l-2.11,3.87c-.53.97-.9,2.03-1.08,3.13l-.78,4.67c-.18,1.56-2.28,1.9-2.93.48l-2.32-4.57c-.2-.39-.59-.63-1.02-.63s-.82.24-1.02.63l-2.32,4.57c-.66,1.43-2.75,1.08-2.93-.48l-.78-4.67c-.18-1.1-.55-2.16-1.08-3.13l-2.11-3.87c-1.06-1.93-.84-4.32.55-6.02,1.39-1.7,3.66-2.37,5.73-1.7,2.13.7,3.84,1.58,6.96,3.43.1.06.23.05.32-.04.09-.08.11-.22.05-.32-.27-.51-.81-1.35-1.73-2.29,0,0,.01,0,.02,0l2.35-.77c2.07-.68,4.34,0,5.73,1.7,1.38,1.7,1.6,4.09.55,6.02Z" fill="#fff" stroke-width="0"/></svg>