<?xml version="1.0" encoding="UTF-8"?><svg id="Layer_1" xmlns="http://www.w3.org/2000/svg" width="1.4in" height="1.4in" viewBox="0 0 100.8 100.66"><g id="Checkup"><path d="M58.81,56.26c0-12.2,9.93-22.13,22.13-22.13,2.91,0,5.68.57,8.23,1.59,1.2-6.11-.33-12.58-4.43-17.56-5.53-6.72-14.61-9.37-22.9-6.7l-9.38,3.04s-.05.01-.08.02c3.68,3.74,5.84,7.05,6.93,9.05.23.42.15.94-.19,1.28-.34.33-.87.4-1.28.16-12.47-7.29-19.28-10.77-27.81-13.54-8.28-2.68-17.36-.03-22.89,6.69-5.53,6.72-6.4,16.13-2.18,23.75l8.46,15.25c2.13,3.85,3.59,8.03,4.32,12.36l3.12,18.43c.72,6.14,9.09,7.51,11.71,1.88l9.29-18.03c.79-1.53,2.37-2.49,4.09-2.49s3.3.96,4.08,2.49l9.29,18.03c2.61,5.61,10.99,4.29,11.71-1.88l1.88-11.09c-8.24-3.23-14.08-11.24-14.08-20.61Z" fill="#fff" stroke-width="0"/><path d="M80.94,38.04c-10.04,0-18.22,8.17-18.22,18.22s8.17,18.22,18.22,18.22c10.04,0,18.22-8.17,18.22-18.22s-8.17-18.22-18.22-18.22ZM78.43,65.77c-.06.08-.15.14-.23.18-.03.01-.07.01-.1.02-.06.02-.12.04-.18.04,0,0,0,0,0,0-.07,0-.13-.02-.19-.04-.03,0-.07,0-.1-.02-.09-.04-.17-.1-.23-.18-.24-.31-6.61-8.59-6.61-8.59l2.91-2.91,4.21,5.47,9.71-12.62,2.91,2.92s-11.85,15.4-12.11,15.74Z" fill="#fff" stroke-width="0"/></g></svg>