<?xml version="1.0" encoding="UTF-8"?><svg id="Layer_1" xmlns="http://www.w3.org/2000/svg" width="1.4in" height="1.4in" viewBox="0 0 100.8 100.66"><path d="M85.64,9.5h-5.75v12.47c0,4.6-3.74,8.34-8.34,8.34s-8.34-3.74-8.34-8.34v-12.47h-24.13v12.47c0,4.6-3.74,8.34-8.34,8.34s-8.34-3.74-8.34-8.34v-12.47h-6.7c-5.85,0-10.6,4.75-10.6,10.6v70.3c0,5.85,4.75,10.6,10.6,10.6h69.95c5.85,0,10.6-4.75,10.6-10.6V20.1c0-5.85-4.75-10.6-10.6-10.6ZM86.02,86.69c0,2.88-2.33,5.21-5.21,5.21H20.52c-2.88,0-5.21-2.33-5.21-5.21v-40.39c0-2.88,2.33-5.21,5.21-5.21h60.3c2.88,0,5.21,2.33,5.21,5.21v40.39Z" fill="#fff" stroke-width="0"/><path d="M30.74,27.31c2.95,0,5.34-2.39,5.34-5.34V6.33c0-2.95-2.39-5.34-5.34-5.34s-5.34,2.39-5.34,5.34v15.64c0,2.95,2.39,5.34,5.34,5.34Z" fill="#fff" stroke-width="0"/><path d="M71.55,27.31c2.95,0,5.34-2.39,5.34-5.34V6.33c0-2.95-2.39-5.34-5.34-5.34-1.84,0-3.47.93-4.43,2.35-.58.85-.91,1.88-.91,2.99v3.17h0v12.47c0,1.11.34,2.13.91,2.99.96,1.42,2.58,2.35,4.43,2.35Z" fill="#fff" stroke-width="0"/><rect x="21.37" y="49.51" width="16.39" height="15.1" rx="2.56" ry="2.56" fill="#fff" stroke-width="0"/><rect x="42.45" y="49.51" width="16.39" height="15.1" rx="2.56" ry="2.56" fill="#fff" stroke-width="0"/><rect x="63.53" y="49.51" width="16.39" height="15.1" rx="2.56" ry="2.56" fill="#fff" stroke-width="0"/><rect x="21.37" y="70.28" width="16.39" height="15.1" rx="2.56" ry="2.56" fill="#fff" stroke-width="0"/><rect x="42.45" y="70.28" width="16.39" height="15.1" rx="2.56" ry="2.56" fill="#fff" stroke-width="0"/><rect x="63.53" y="70.28" width="16.39" height="15.1" rx="2.56" ry="2.56" fill="#fff" stroke-width="0"/></svg>