<?xml version="1.0" encoding="UTF-8"?><svg id="Layer_1" xmlns="http://www.w3.org/2000/svg" width="1.4in" height="1.4in" viewBox="0 0 100.8 100.8"><path d="M29.28,56.56c.73,1.96,1.4,3.87,2,5.64,1.06,3.09,5.42,3.09,6.48,0,.6-1.77,1.27-3.67,2-5.63,2.08-5.62,4.86-11,8.67-15.62,2.56-3.11,4.1-7.08,4.1-11.43,0-10.24-8.54-18.48-18.88-17.99-9.3.44-16.88,8.18-17.13,17.49-.12,4.45,1.38,8.55,3.95,11.75,3.8,4.73,6.71,10.11,8.81,15.8ZM34.52,20.12c5.19,0,9.39,4.21,9.39,9.39s-4.21,9.39-9.39,9.39-9.39-4.21-9.39-9.39,4.21-9.39,9.39-9.39Z" fill="#77229b" stroke-width="0"/><path d="M85.91,60.07c-.8-1.89-2.66-3.13-4.72-3.13h-14.42l-4.42,10.88,30.1,7.68-6.54-15.44Z" fill="#00a1a6" stroke-width="0"/><path d="M59.86,56.95h-13.36c-.26.6-.49,1.22-.73,1.84-.64,1.75-1.3,3.59-1.94,5.47-1.37,4-5.11,6.67-9.32,6.67s-7.93-2.67-9.3-6.67c-.64-1.88-1.3-3.72-1.94-5.47-.24-.62-.47-1.24-.73-1.84h-4.66c-2.05,0-3.91,1.22-4.72,3.12l-8.57,20.22h45.78l9.49-23.34Z" fill="#00a1a6" stroke-width="0"/><path d="M1.88,86.71l-2.36,5.58c-1.43,3.38,1.05,7.12,4.72,7.12h55.31l-8.7-12.7H1.88Z" fill="#00a1a6" stroke-width="0"/><path d="M99.56,92.29l-3.97-9.36-35.67-9.11-3.77,9.29,11.16,16.3h27.53c3.67,0,6.15-3.74,4.72-7.12Z" fill="#00a1a6" stroke-width="0"/></svg>