<?xml version="1.0" encoding="UTF-8"?><svg id="Layer_1" xmlns="http://www.w3.org/2000/svg" width="1.4in" height="1.4in" viewBox="0 0 100.8 100.66"><g id="Clean_Teeth"><path d="M78.35,77.65c1.63,1.86,2.57,4.9,2.57,4.9,0,0,.79-3.19,2.57-4.9,1.78-1.7,4.69-2.68,4.69-2.68,0,0-2.93-.82-4.69-2.68-1.76-1.86-2.57-4.9-2.57-4.9,0,0-.52,2.65-2.57,4.9-2.04,2.26-4.69,2.68-4.69,2.68,0,0,3.06.82,4.69,2.68Z" fill="#fff" stroke-width="0"/><path d="M8.08,43.65s.63-2.53,2.04-3.89c1.41-1.35,3.72-2.12,3.72-2.12,0,0-2.32-.65-3.72-2.13-1.4-1.47-2.04-3.88-2.04-3.88,0,0-.42,2.1-2.04,3.88-1.62,1.79-3.72,2.13-3.72,2.13,0,0,2.42.65,3.72,2.12,1.29,1.48,2.04,3.89,2.04,3.89Z" fill="#fff" stroke-width="0"/><path d="M96.02,49.26c.95-1.2,1.65-2.61,2.02-4.12.32-1.3-.42-2.62-1.67-2.96l-16.9-4.57c-15.65-4.23-32.2-4.23-47.85,0l-16.9,4.57c-1.24.34-1.99,1.66-1.67,2.96h0c.38,1.52,1.06,2.91,2.02,4.11,1.5,1.89,2.34,4.29,2.33,6.78,0,1.89-.01,3.6-.01,3.6,0,2.67,2.08,4.84,4.64,4.84h11.35c.31,2.65,2.48,4.71,5.1,4.71h34.11c2.62,0,4.79-2.06,5.1-4.71h11.35c2.56,0,4.64-2.17,4.64-4.84,0,0,0-1.71-.01-3.6,0-2.5.83-4.89,2.33-6.78ZM33.36,54.43v4.83h-10.94v-7.23c0-2.4.9-4.66,2.52-6.36.79-.82,1.83-1.27,2.95-1.27s2.16.45,2.95,1.27c1.63,1.7,2.52,3.96,2.52,6.36v2.4ZM53.05,54.43v9.4h0c0,.08-.06.14-.13.14h-14.42c-.07,0-.13-.06-.13-.13v-9.4c0-3.13,1.17-6.07,3.29-8.28,1.08-1.13,2.52-1.75,4.05-1.75s2.97.62,4.05,1.75c2.12,2.21,3.28,5.14,3.29,8.27,0,0,0,.01,0,.02ZM72.74,59.65v4.19c0,.07-.06.13-.13.13h-14.42c-.07,0-.13-.06-.13-.13h0v-9.41s0-.01,0-.02c0-3.12,1.17-6.06,3.29-8.27,1.08-1.13,2.52-1.75,4.05-1.75s2.97.62,4.05,1.75c2.12,2.21,3.29,5.15,3.29,8.28v5.21ZM88.69,59.26h-10.94v-7.23c0-2.4.9-4.66,2.52-6.36.79-.82,1.83-1.27,2.95-1.27s2.16.45,2.95,1.27c1.63,1.7,2.52,3.96,2.52,6.36v7.23Z" fill="#fff" stroke-width="0"/></g></svg>