<?xml version="1.0" encoding="utf-8"?>
<!-- Generator: Adobe Illustrator 28.2.0, SVG Export Plug-In . SVG Version: 6.00 Build 0)  -->
<svg version="1.1" id="Layer_1" xmlns="http://www.w3.org/2000/svg" xmlns:xlink="http://www.w3.org/1999/xlink" x="0px" y="0px"
	 viewBox="0 0 87.4 100.8" style="enable-background:new 0 0 87.4 100.8;" xml:space="preserve">
<style type="text/css">
	.st0{fill:#00A1A6;}
	.st1{fill:#77229B;}
</style>
<path class="st0" d="M77,16.3h-5.3v11.5c0,4.3-3.5,7.7-7.7,7.7s-7.7-3.5-7.7-7.7V16.3H33.9v11.5c0,4.3-3.5,7.7-7.7,7.7
	s-7.7-3.5-7.7-7.7V16.3h-6.2c-5.4,0-9.8,4.4-9.8,9.8v65.1c0,5.4,4.4,9.8,9.8,9.8H77c5.4,0,9.8-4.4,9.8-9.8V26.2
	C86.8,20.7,82.4,16.3,77,16.3L77,16.3z M77.4,87.8c0,2.7-2.2,4.8-4.8,4.8H16.7c-2.7,0-4.8-2.2-4.8-4.8V50.4c0-2.7,2.2-4.8,4.8-4.8
	h55.8c2.7,0,4.8,2.2,4.8,4.8L77.4,87.8L77.4,87.8z"/>
<path class="st0" d="M26.2,32.8c2.7,0,4.9-2.2,4.9-4.9V13.4c0-2.7-2.2-4.9-4.9-4.9s-4.9,2.2-4.9,4.9v14.5
	C21.2,30.6,23.4,32.8,26.2,32.8z"/>
<path class="st0" d="M64,32.8c2.7,0,4.9-2.2,4.9-4.9V13.4c0-2.7-2.2-4.9-4.9-4.9c-1.7,0-3.2,0.9-4.1,2.2c-0.5,0.8-0.8,1.7-0.8,2.8
	v2.9l0,0v11.5c0,1,0.3,2,0.8,2.8C60.7,32,62.2,32.8,64,32.8z"/>
<path class="st1" d="M19.9,53.4h10.4c1.3,0,2.4,1.1,2.4,2.4V65c0,1.3-1.1,2.4-2.4,2.4H19.9c-1.3,0-2.4-1.1-2.4-2.4v-9.2
	C17.5,54.4,18.5,53.4,19.9,53.4z"/>
<path class="st1" d="M39.4,53.4h10.4c1.3,0,2.4,1.1,2.4,2.4V65c0,1.3-1.1,2.4-2.4,2.4H39.4c-1.3,0-2.4-1.1-2.4-2.4v-9.2
	C37,54.4,38.1,53.4,39.4,53.4z"/>
<path class="st1" d="M58.9,53.4h10.4c1.3,0,2.4,1.1,2.4,2.4V65c0,1.3-1.1,2.4-2.4,2.4H58.9c-1.3,0-2.4-1.1-2.4-2.4v-9.2
	C56.5,54.4,57.6,53.4,58.9,53.4z"/>
<path class="st1" d="M19.9,72.6h10.4c1.3,0,2.4,1.1,2.4,2.4v9.2c0,1.3-1.1,2.4-2.4,2.4H19.9c-1.3,0-2.4-1.1-2.4-2.4V75
	C17.5,73.7,18.5,72.6,19.9,72.6z"/>
<path class="st1" d="M39.4,72.6h10.4c1.3,0,2.4,1.1,2.4,2.4v9.2c0,1.3-1.1,2.4-2.4,2.4H39.4c-1.3,0-2.4-1.1-2.4-2.4V75
	C37,73.7,38.1,72.6,39.4,72.6z"/>
<path class="st1" d="M58.9,72.6h10.4c1.3,0,2.4,1.1,2.4,2.4v9.2c0,1.3-1.1,2.4-2.4,2.4H58.9c-1.3,0-2.4-1.1-2.4-2.4V75
	C56.5,73.7,57.6,72.6,58.9,72.6z"/>
</svg>
