<?xml version="1.0" encoding="UTF-8"?><svg id="Layer_1" xmlns="http://www.w3.org/2000/svg" width=".87in" height="1.4in" viewBox="0 0 62.95 100.8"><path d="M31.47,19.91c2.24,0,4.05-1.81,4.05-4.05V5.57c0-2.24-1.81-4.05-4.05-4.05s-4.05,1.81-4.05,4.05v10.28c0,2.24,1.81,4.05,4.05,4.05Z" fill="#77229b" stroke-width="0"/><path d="M13.2,25.2c.79.79,1.83,1.19,2.86,1.19s2.07-.4,2.87-1.19c1.58-1.58,1.58-4.15,0-5.73l-7.27-7.27c-1.59-1.59-4.15-1.59-5.73,0-1.58,1.58-1.58,4.15,0,5.73l7.27,7.27Z" fill="#77229b" stroke-width="0"/><path d="M46.95,26.22c1.04,0,2.07-.4,2.87-1.19l7.27-7.28c1.58-1.58,1.58-4.15,0-5.73-1.59-1.59-4.15-1.59-5.73,0l-7.27,7.28c-1.58,1.58-1.58,4.15,0,5.73.79.79,1.83,1.19,2.86,1.19Z" fill="#77229b" stroke-width="0"/><path d="M41.47,33.2c-2.14.14-4.23.67-6.19,1.52-2.41,1.05-5.13,1.05-7.53,0-1.96-.85-4.05-1.38-6.2-1.52-11.19-.74-19.73,8.78-19.73,20.58,0,6.47,3.6,10.81,6.58,18.66,1.8,4.74,2.27,7.52,4.4,16.5,1.18,4.97,3.69,10.77,8.85,10.77s4.76-13.69,5.93-19.62c.54-2.74,1.45-4,2.34-5.1.82-1.01,2.36-1.01,3.18,0,.89,1.1,1.81,2.36,2.35,5.1,1.17,5.93.78,19.62,5.93,19.62,5.15,0,7.66-5.8,8.85-10.77,2.14-8.98,2.61-11.76,4.4-16.5,2.98-7.85,6.58-12.19,6.58-18.66,0-11.8-8.54-21.32-19.73-20.58Z" fill="#00a1a6" stroke-width="0"/></svg>