<?xml version="1.0" encoding="utf-8"?>
<!-- Generator: Adobe Illustrator 28.2.0, SVG Export Plug-In . SVG Version: 6.00 Build 0)  -->
<svg version="1.1" id="Layer_1" xmlns="http://www.w3.org/2000/svg" xmlns:xlink="http://www.w3.org/1999/xlink" x="0px" y="0px"
	 viewBox="0 0 174.6 40.2" style="enable-background:new 0 0 174.6 40.2;" xml:space="preserve">
<style type="text/css">
	.st0{fill:#CACACA;}
</style>
<g id="layer">
	<g id="Group_2083" transform="translate(0 0)">
		<g>
			<g id="Group_2082" transform="translate(0 0)">
				<path id="Path_18067" class="st0" d="M4.8,37.7c0-1.4-1-2.5-2.4-2.5c-1.3,0-2.4,1.2-2.4,2.5c0,1.4,1.1,2.5,2.4,2.5
					C3.8,40.2,4.8,39.1,4.8,37.7"/>
				<path id="Path_18068" class="st0" d="M4.8,20.1c0-1.4-1-2.5-2.4-2.5S0,18.8,0,20.2c0,1.3,1.1,2.4,2.4,2.4
					C3.8,22.6,4.8,21.4,4.8,20.1"/>
				<path id="Path_18069" class="st0" d="M4.8,2.5c0-1.4-1-2.5-2.4-2.5S0,1.2,0,2.6C0,3.9,1.1,5,2.4,5C3.8,4.9,4.8,3.8,4.8,2.5"/>
				<path id="Path_18070" class="st0" d="M21.8,37.7c0-1.4-1-2.5-2.4-2.5S17,36.4,17,37.7c0,1.4,1,2.5,2.4,2.5
					C20.7,40.2,21.8,39.1,21.8,37.7"/>
				<path id="Path_18071" class="st0" d="M21.8,20.1c0-1.4-1-2.5-2.4-2.5s-2.5,1.2-2.4,2.6c0,1.3,1.1,2.4,2.4,2.4
					C20.7,22.6,21.8,21.4,21.8,20.1"/>
				<path id="Path_18072" class="st0" d="M21.8,2.5c0-1.4-1-2.5-2.4-2.5C18,0,16.9,1.2,17,2.6C17,3.9,18.1,5,19.4,5
					C20.7,4.9,21.8,3.8,21.8,2.5"/>
				<path id="Path_18073" class="st0" d="M38.8,37.7c0-1.3-1.1-2.4-2.4-2.4c-1.3,0-2.4,1.1-2.4,2.4l0,0c0,1.3,1.1,2.4,2.4,2.4
					S38.8,39,38.8,37.7"/>
				<path id="Path_18074" class="st0" d="M38.8,20.1c-0.1-1.3-1.2-2.4-2.5-2.3S33.9,19,34,20.3c0,1.3,1.1,2.3,2.4,2.3
					C37.7,22.6,38.8,21.4,38.8,20.1"/>
				<path id="Path_18075" class="st0" d="M38.8,2.5c-0.1-1.3-1.2-2.4-2.5-2.3c-1.3,0-2.4,1.1-2.3,2.5C34,4,35.1,5,36.4,5
					C37.7,4.9,38.8,3.8,38.8,2.5"/>
				<path id="Path_18076" class="st0" d="M55.8,37.7c0-1.3-1.1-2.4-2.4-2.4c-1.4,0-2.4,1.1-2.4,2.4l0,0c0,1.3,1.1,2.4,2.4,2.4
					S55.8,39,55.8,37.7L55.8,37.7"/>
				<path id="Path_18077" class="st0" d="M55.8,20.1c-0.1-1.3-1.2-2.4-2.5-2.3S50.9,19,51,20.3c0,1.3,1.1,2.3,2.4,2.3
					C54.7,22.6,55.8,21.4,55.8,20.1"/>
				<path id="Path_18078" class="st0" d="M55.8,2.5c-0.1-1.3-1.2-2.4-2.5-2.3C52,0.3,50.9,1.4,51,2.7C51,4,52.1,5,53.4,5
					C54.7,4.9,55.8,3.8,55.8,2.5"/>
				<path id="Path_18079" class="st0" d="M72.7,37.7c0-1.3-1.1-2.4-2.4-2.4c-1.3,0-2.4,1.1-2.4,2.4c0,1.3,1.1,2.4,2.4,2.4
					C71.7,40.1,72.7,39,72.7,37.7L72.7,37.7"/>
				<path id="Path_18080" class="st0" d="M72.7,20.1c-0.1-1.3-1.2-2.4-2.5-2.3s-2.4,1.2-2.3,2.5c0,1.3,1.1,2.3,2.4,2.3
					C71.7,22.6,72.8,21.4,72.7,20.1"/>
				<path id="Path_18081" class="st0" d="M72.7,2.5c-0.1-1.3-1.2-2.4-2.5-2.3c-1.3,0.1-2.4,1.2-2.3,2.5C67.9,4,69,5,70.3,5
					C71.7,4.9,72.8,3.8,72.7,2.5"/>
				<path id="Path_18082" class="st0" d="M89.7,37.7c0-1.3-1.1-2.4-2.4-2.4s-2.4,1.1-2.4,2.4l0,0c0,1.3,1.1,2.4,2.4,2.4
					C88.7,40.1,89.7,39,89.7,37.7L89.7,37.7"/>
				<path id="Path_18083" class="st0" d="M89.7,20.1c-0.1-1.3-1.2-2.4-2.5-2.3c-1.3,0.1-2.4,1.2-2.3,2.5c0,1.3,1.1,2.3,2.4,2.3
					C88.7,22.6,89.8,21.4,89.7,20.1"/>
				<path id="Path_18084" class="st0" d="M89.7,2.5c-0.1-1.3-1.2-2.4-2.5-2.3c-1.3,0.1-2.4,1.2-2.3,2.5C84.9,4,86,5,87.3,5
					C88.7,4.9,89.8,3.8,89.7,2.5"/>
				<path id="Path_18085" class="st0" d="M106.7,37.7c0-1.3-1.1-2.4-2.4-2.4c-1.3,0-2.4,1.1-2.4,2.4l0,0c0,1.3,1.1,2.4,2.4,2.4
					C105.6,40.1,106.7,39,106.7,37.7L106.7,37.7"/>
				<path id="Path_18086" class="st0" d="M106.7,20.1c-0.1-1.3-1.2-2.4-2.5-2.3c-1.3,0.1-2.4,1.2-2.3,2.5c0,1.3,1.1,2.3,2.4,2.3
					C105.7,22.6,106.7,21.4,106.7,20.1"/>
				<path id="Path_18087" class="st0" d="M106.7,2.5c-0.1-1.3-1.2-2.4-2.5-2.3c-1.3,0.1-2.4,1.2-2.3,2.5c0,1.3,1.1,2.3,2.4,2.3
					C105.7,4.9,106.7,3.8,106.7,2.5"/>
				<path id="Path_18088" class="st0" d="M123.7,37.7c0-1.3-1.1-2.4-2.4-2.4s-2.4,1.1-2.4,2.4l0,0c0,1.3,1.1,2.4,2.4,2.4
					S123.7,39,123.7,37.7L123.7,37.7"/>
				<path id="Path_18089" class="st0" d="M123.7,20.1c-0.1-1.3-1.2-2.4-2.5-2.3c-1.3,0.1-2.4,1.2-2.3,2.5c0,1.3,1.1,2.3,2.4,2.3
					S123.7,21.4,123.7,20.1"/>
				<path id="Path_18090" class="st0" d="M123.7,2.5c-0.1-1.3-1.2-2.4-2.5-2.3c-1.3,0.1-2.4,1.2-2.3,2.5c0,1.3,1.1,2.3,2.4,2.3
					C122.6,4.9,123.7,3.8,123.7,2.5"/>
				<path id="Path_18091" class="st0" d="M140.7,37.7c0-1.3-1.1-2.4-2.4-2.4c-1.3,0-2.4,1.1-2.4,2.4l0,0c0,1.3,1.1,2.4,2.4,2.4
					C139.6,40.1,140.7,39,140.7,37.7L140.7,37.7"/>
				<path id="Path_18092" class="st0" d="M140.7,20.1c-0.1-1.3-1.2-2.4-2.5-2.3s-2.4,1.2-2.3,2.5c0,1.3,1.1,2.3,2.4,2.3
					C139.6,22.6,140.7,21.4,140.7,20.1"/>
				<path id="Path_18093" class="st0" d="M140.7,2.5c-0.1-1.3-1.2-2.4-2.5-2.3c-1.3,0.1-2.4,1.2-2.3,2.5c0,1.3,1.1,2.3,2.4,2.3
					C139.6,4.9,140.7,3.8,140.7,2.5"/>
				<path id="Path_18094" class="st0" d="M157.7,37.7c0-1.3-1.1-2.4-2.4-2.4s-2.4,1.1-2.4,2.4l0,0c0,1.3,1.1,2.4,2.4,2.4
					C156.6,40.1,157.7,39,157.7,37.7L157.7,37.7"/>
				<path id="Path_18095" class="st0" d="M157.7,20.1c-0.1-1.3-1.2-2.4-2.5-2.3s-2.4,1.2-2.3,2.5c0,1.3,1.1,2.3,2.4,2.3
					C156.6,22.6,157.7,21.4,157.7,20.1"/>
				<path id="Path_18096" class="st0" d="M157.7,2.5c-0.1-1.3-1.2-2.4-2.5-2.3c-1.3,0.1-2.4,1.2-2.3,2.5c0,1.3,1.1,2.3,2.4,2.3
					C156.6,4.9,157.7,3.8,157.7,2.5"/>
				<path id="Path_18097" class="st0" d="M174.6,37.7c0-1.3-1.1-2.4-2.4-2.4s-2.4,1.1-2.4,2.4c0,1.3,1.1,2.4,2.4,2.4
					S174.6,39,174.6,37.7"/>
				<path id="Path_18098" class="st0" d="M174.6,20.1c-0.1-1.3-1.2-2.4-2.5-2.3s-2.4,1.2-2.3,2.5c0,1.3,1.1,2.3,2.4,2.3
					C173.6,22.6,174.7,21.4,174.6,20.1"/>
				<path id="Path_18099" class="st0" d="M174.6,2.5c-0.1-1.3-1.2-2.4-2.5-2.3c-1.3,0.1-2.4,1.2-2.3,2.5c0,1.3,1.1,2.3,2.4,2.3
					C173.6,4.9,174.7,3.8,174.6,2.5"/>
			</g>
		</g>
	</g>
</g>
<g id="Layer_4">
</g>
<g id="Layer_3">
</g>
<g id="Layer_2_00000063612145443609094680000008573683138495028114_">
</g>
</svg>
