<?xml version="1.0" encoding="utf-8"?>
<!-- Generator: Adobe Illustrator 28.2.0, SVG Export Plug-In . SVG Version: 6.00 Build 0)  -->
<svg version="1.1" xmlns="http://www.w3.org/2000/svg" xmlns:xlink="http://www.w3.org/1999/xlink" x="0px" y="0px"
	 viewBox="0 0 146.3 141" style="enable-background:new 0 0 146.3 141;" xml:space="preserve">
<style type="text/css">
	.st0{opacity:0.1;}
	.st1{fill:#FFFFFF;}
	.st2{clip-path:url(#SVGID_00000052104337238019928760000014020674683518773171_);}
	.st3{fill:#8C8D8D;}
	.st4{clip-path:url(#SVGID_00000027584674472605539770000016726986745882871436_);}
	.st5{fill:#55575A;}
	.st6{fill:#AA8802;}
	.st7{fill:#AFE5FF;}
	.st8{fill:#F7B96D;}
	.st9{fill:#CE3F6A;}
	.st10{fill:#63BDD4;}
	.st11{fill:#CACACA;}
	.st12{clip-path:url(#Path_13399_00000062160475222438206500000007686620456139495304_);}
	.st13{fill:#BEBEBE;}
	.st14{clip-path:url(#Path_13400_00000141437356713377203530000012373766444097147794_);}
	.st15{fill:#D85A35;}
	.st16{clip-path:url(#SVGID_00000031918753441775032060000011649819697295941510_);}
	.st17{fill:#1D94D9;}
	.st18{enable-background:new    ;}
	.st19{fill:#9A9DA4;}
	.st20{clip-path:url(#SVGID_00000043450460878933167580000003093042964074922934_);}
	.st21{fill:#2A6393;}
	.st22{fill:#D85D39;}
	.st23{fill:#747474;}
	.st24{fill:none;stroke:#302C27;stroke-width:1.8532;stroke-linecap:round;stroke-linejoin:round;stroke-miterlimit:10;}
	.st25{fill:#E5E5E5;}
	.st26{fill:#302C27;}
	.st27{fill:#B2B3B4;}
	.st28{fill:none;stroke:#000000;stroke-width:1.3199;stroke-linecap:round;stroke-linejoin:round;stroke-miterlimit:10;}
	.st29{fill:none;stroke:#FFFFFF;stroke-width:4.2452;stroke-linecap:round;stroke-linejoin:round;stroke-miterlimit:10;}
	.st30{fill:none;stroke:#FFFFFF;stroke-width:5.2795;stroke-linecap:round;stroke-linejoin:round;stroke-miterlimit:10;}
	.st31{fill:#FFFFFF;stroke:#FFFFFF;stroke-width:3.9596;stroke-linecap:round;stroke-linejoin:round;stroke-miterlimit:10;}
	.st32{fill:none;stroke:#000000;stroke-width:1.3199;stroke-miterlimit:10;}
	.st33{fill:none;stroke:#000000;stroke-width:1.3199;stroke-linecap:round;stroke-miterlimit:10;}
	.st34{fill:none;stroke:#FFFFFF;stroke-width:1.3199;stroke-linecap:round;stroke-linejoin:round;stroke-miterlimit:10;}
	.st35{fill:none;stroke:#000000;stroke-width:1.3199;stroke-linejoin:round;stroke-miterlimit:10;}
	.st36{fill:#FFFFFF;stroke:#FFFFFF;stroke-width:5.2795;stroke-linecap:round;stroke-linejoin:round;stroke-miterlimit:10;}
	.st37{fill:#FFFFFF;stroke:#000000;stroke-width:1.3199;stroke-linecap:round;stroke-linejoin:round;stroke-miterlimit:10;}
	.st38{fill:none;stroke:#FFFFFF;stroke-width:3.9596;stroke-linecap:square;stroke-miterlimit:10;}
	.st39{fill:#FFFFFF;stroke:#FFFFFF;stroke-width:3.9596;stroke-linecap:square;stroke-miterlimit:10;}
	.st40{fill:#FFFFFF;stroke:#FFFFFF;stroke-width:4.2452;stroke-linecap:round;stroke-linejoin:round;stroke-miterlimit:10;}
	.st41{fill:#FFFFFF;stroke:#000000;stroke-width:1.3199;stroke-linejoin:round;stroke-miterlimit:10;}
	.st42{fill:none;stroke:#FFFFFF;stroke-width:3.9596;stroke-linecap:round;stroke-linejoin:round;stroke-miterlimit:10;}
	.st43{clip-path:url(#SVGID_00000030450962538726354950000015238195950778507153_);}
	.st44{fill:none;}
	.st45{fill:#FFFFFF;stroke:#000000;stroke-width:1.3199;stroke-linecap:round;stroke-miterlimit:10;}
	.st46{fill:#FFFFFF;stroke:#000000;stroke-width:1.3199;stroke-linecap:square;stroke-miterlimit:10;}
	.st47{fill:#FFFFFF;stroke:#FFFFFF;stroke-width:4.2459;stroke-linecap:round;stroke-linejoin:round;stroke-miterlimit:10;}
	.st48{fill:none;stroke:#FFFFFF;stroke-width:3.9596;stroke-linecap:square;stroke-linejoin:round;stroke-miterlimit:10;}
	.st49{fill:none;stroke:#000000;stroke-width:1.3199;stroke-linecap:square;stroke-linejoin:round;stroke-miterlimit:10;}
	.st50{fill:none;stroke:#FFFFFF;stroke-width:4.7515;stroke-linecap:round;stroke-linejoin:round;stroke-miterlimit:10;}
	.st51{fill:#FFFFFF;stroke:#FFFFFF;stroke-width:3.9596;stroke-miterlimit:10;}
	.st52{fill:none;stroke:#302C27;stroke-width:2.4348;stroke-linecap:round;stroke-linejoin:round;stroke-miterlimit:10;}
	.st53{fill:none;stroke:#302C27;stroke-width:2.6782;stroke-linecap:round;stroke-linejoin:round;stroke-miterlimit:10;}
	.st54{fill:none;stroke:#000000;stroke-width:2.1148;stroke-miterlimit:10;}
	.st55{fill:#FFFFFF;stroke:#000000;stroke-width:2.1148;stroke-linecap:round;stroke-linejoin:round;stroke-miterlimit:10;}
	.st56{fill:#FFFFFF;stroke:#FFFFFF;stroke-width:6.3443;stroke-linecap:round;stroke-linejoin:round;stroke-miterlimit:10;}
	.st57{clip-path:url(#SVGID_00000016797312673466958820000013759323944401735358_);}
	.st58{clip-path:url(#SVGID_00000008138465578055165710000010883312863588552341_);}
</style>
<g id="layer">
	<g id="Group_1956" transform="translate(0 0)">
		<g>
			<g id="Group_1955" transform="translate(0 0)">
				<path id="Path_13487" class="st11" d="M2,3.9c1.1,0,2-0.8,2-1.9C4,0.8,3.1,0,2,0C0.9,0,0,0.8,0,1.9C0,3,0.9,3.9,2,3.9"/>
				<path id="Path_13488" class="st11" d="M16.2,3.9c1.1,0,2-0.8,2-1.9c0-1.1-1-2-2.1-1.9c-1.1,0-1.9,0.9-1.9,1.9
					C14.2,3,15.1,3.9,16.2,3.9"/>
				<path id="Path_13489" class="st11" d="M30.5,3.9c1.1,0,2-0.8,2-1.9c0-1.1-1-2-2.1-1.9c-1.1,0-1.9,0.9-1.9,1.9
					C28.5,3,29.4,3.9,30.5,3.9"/>
				<path id="Path_13490" class="st11" d="M44.7,3.9c1.1,0,2-0.8,2-1.9c0-1.1-1-2-2.1-1.9c-1.1,0-1.9,0.9-1.9,1.9
					C42.7,3,43.6,3.9,44.7,3.9"/>
				<path id="Path_13491" class="st11" d="M58.9,3.9c1.1,0,2-0.8,2-1.9c0-1.1-1-2-2.1-1.9c-1.1,0-1.9,0.9-1.9,1.9
					C56.9,3,57.8,3.9,58.9,3.9"/>
				<path id="Path_13492" class="st11" d="M73.1,3.9c1.1,0,2-0.8,2-1.9c0-1.1-1-2-2.1-1.9c-1.1,0-1.9,0.9-1.9,1.9
					C71.1,3,72,3.9,73.1,3.9C73.1,3.9,73.1,3.9,73.1,3.9"/>
				<path id="Path_13493" class="st11" d="M87.4,3.9c1.1,0,2-0.8,2-1.9c0-1.1-1-2-2.1-1.9c-1.1,0-1.9,0.9-1.9,1.9
					C85.4,3,86.3,3.9,87.4,3.9"/>
				<path id="Path_13494" class="st11" d="M101.6,3.9c1.1,0,2-0.8,2-1.9c0-1.1-1-2-2.1-1.9c-1.1,0-1.9,0.9-1.9,1.9
					C99.6,3,100.5,3.9,101.6,3.9"/>
				<path id="Path_13495" class="st11" d="M115.8,3.9c1.1,0,2-0.8,2-1.9c0-1.1-1-2-2.1-1.9c-1.1,0-1.9,0.9-1.9,1.9
					C113.8,3,114.7,3.9,115.8,3.9"/>
				<path id="Path_13496" class="st11" d="M130,3.9c1.1,0,2-0.8,2-1.9c0-1.1-1-2-2.1-1.9c-1.1,0-1.9,0.9-1.9,1.9
					C128,3,128.9,3.9,130,3.9"/>
				<path id="Path_13497" class="st11" d="M144.3,3.9c1.1,0,2-0.8,2-1.9c0,0,0,0,0,0c0-1.1-1-2-2.1-1.9c-1,0-1.9,0.9-1.9,1.9
					C142.3,3,143.2,3.9,144.3,3.9"/>
				<path id="Path_13498" class="st11" d="M2,17.6c1.1,0,2-0.8,2-1.9c0-1.1-0.8-2-1.9-2c-0.1,0-0.1,0-0.2,0c-1.1,0-2,0.8-2,1.9
					c0,1.1,0.8,2,1.9,2C1.9,17.6,2,17.6,2,17.6"/>
				<path id="Path_13499" class="st11" d="M16.2,17.6c1.1,0,1.9-0.9,1.9-2c0-1.1-0.9-1.9-2-1.9c-1,0-1.9,0.9-1.9,1.9
					C14.2,16.7,15.1,17.6,16.2,17.6"/>
				<path id="Path_13500" class="st11" d="M30.5,17.6c1.1,0,1.9-0.9,1.9-2c0-1.1-0.9-1.9-2-1.9c-1,0-1.9,0.9-1.9,1.9
					C28.5,16.7,29.4,17.6,30.5,17.6"/>
				<path id="Path_13501" class="st11" d="M44.7,17.6c1.1,0,1.9-0.9,1.9-2c0-1.1-0.9-1.9-2-1.9c-1,0-1.9,0.9-1.9,1.9
					C42.7,16.7,43.6,17.6,44.7,17.6"/>
				<path id="Path_13502" class="st11" d="M58.9,17.6c1.1,0,1.9-0.9,1.9-2c0-1.1-0.9-1.9-2-1.9c-1,0-1.9,0.9-1.9,1.9
					C56.9,16.7,57.8,17.6,58.9,17.6"/>
				<path id="Path_13503" class="st11" d="M73.1,17.6c1.1,0,1.9-0.9,1.9-2s-0.9-1.9-2-1.9c-1,0-1.9,0.9-1.9,1.9
					C71.1,16.7,72,17.6,73.1,17.6"/>
				<path id="Path_13504" class="st11" d="M87.4,17.6c1.1,0,1.9-0.9,1.9-2s-0.9-1.9-2-1.9c-1,0-1.9,0.9-1.9,1.9
					C85.4,16.7,86.3,17.6,87.4,17.6"/>
				<path id="Path_13505" class="st11" d="M101.6,17.6c1.1,0,1.9-0.9,1.9-2s-0.9-1.9-2-1.9c-1,0-1.9,0.9-1.9,1.9
					C99.6,16.7,100.5,17.6,101.6,17.6"/>
				<path id="Path_13506" class="st11" d="M115.8,17.6c1.1,0,1.9-0.9,1.9-2c0-1.1-0.9-1.9-2-1.9c-1,0-1.9,0.9-1.9,1.9
					C113.8,16.7,114.7,17.6,115.8,17.6"/>
				<path id="Path_13507" class="st11" d="M130,17.6c1.1,0,1.9-0.9,1.9-2c0-1.1-0.9-1.9-2-1.9c-1,0-1.9,0.9-1.9,1.9
					C128,16.7,128.9,17.6,130,17.6"/>
				<path id="Path_13508" class="st11" d="M144.3,17.6c1.1,0,1.9-0.9,1.9-2s-0.9-1.9-2-1.9c-1,0-1.9,0.9-1.9,1.9
					C142.3,16.7,143.2,17.6,144.3,17.6"/>
				<path id="Path_13509" class="st11" d="M2,31.3c1.1,0,2-0.8,2-1.9c0-1.1-0.8-2-1.9-2c-0.1,0-0.1,0-0.2,0c-1.1,0-2,0.8-2,1.9
					s0.8,2,1.9,2C1.9,31.3,2,31.3,2,31.3"/>
				<path id="Path_13510" class="st11" d="M16.2,31.3c1.1,0,1.9-0.9,1.9-2c0-1.1-0.9-1.9-2-1.9c-1,0-1.9,0.9-1.9,1.9
					C14.2,30.5,15.1,31.3,16.2,31.3"/>
				<path id="Path_13511" class="st11" d="M30.5,31.3c1.1,0,1.9-0.9,1.9-2c0-1.1-0.9-1.9-2-1.9c-1,0-1.9,0.9-1.9,1.9
					C28.5,30.5,29.4,31.3,30.5,31.3"/>
				<path id="Path_13512" class="st11" d="M44.7,31.3c1.1,0,1.9-0.9,1.9-2c0-1.1-0.9-1.9-2-1.9c-1,0-1.9,0.9-1.9,1.9
					C42.7,30.5,43.6,31.3,44.7,31.3"/>
				<path id="Path_13513" class="st11" d="M58.9,31.3c1.1,0,1.9-0.9,1.9-2c0-1.1-0.9-1.9-2-1.9c-1,0-1.9,0.9-1.9,1.9
					C56.9,30.5,57.8,31.3,58.9,31.3"/>
				<path id="Path_13514" class="st11" d="M73.1,31.3c1.1,0,1.9-0.9,1.9-2s-0.9-1.9-2-1.9c-1,0-1.9,0.9-1.9,1.9
					C71.1,30.5,72,31.3,73.1,31.3"/>
				<path id="Path_13515" class="st11" d="M87.4,31.3c1.1,0,1.9-0.9,1.9-2s-0.9-1.9-2-1.9c-1,0-1.9,0.9-1.9,1.9
					C85.4,30.5,86.3,31.3,87.4,31.3"/>
				<path id="Path_13516" class="st11" d="M101.6,31.3c1.1,0,1.9-0.9,1.9-2s-0.9-1.9-2-1.9c-1,0-1.9,0.9-1.9,1.9
					C99.6,30.5,100.5,31.3,101.6,31.3"/>
				<path id="Path_13517" class="st11" d="M115.8,31.3c1.1,0,1.9-0.9,1.9-2s-0.9-1.9-2-1.9c-1,0-1.9,0.9-1.9,1.9
					C113.8,30.5,114.7,31.3,115.8,31.3"/>
				<path id="Path_13518" class="st11" d="M130,31.3c1.1,0,1.9-0.9,1.9-2c0-1.1-0.9-1.9-2-1.9c-1,0-1.9,0.9-1.9,1.9
					C128,30.5,128.9,31.3,130,31.3"/>
				<path id="Path_13519" class="st11" d="M144.3,31.3c1.1,0,1.9-0.9,1.9-2s-0.9-1.9-2-1.9c-1,0-1.9,0.9-1.9,1.9
					C142.3,30.5,143.2,31.3,144.3,31.3"/>
				<path id="Path_13520" class="st11" d="M2,45c1.1,0,2-0.8,2-1.9c0-1.1-0.8-2-1.9-2c-0.1,0-0.1,0-0.2,0c-1.1,0-2,0.8-2,1.9
					s0.8,2,1.9,2C1.9,45,2,45,2,45"/>
				<path id="Path_13521" class="st11" d="M16.2,45c1.1,0,1.9-0.9,1.9-2c0-1.1-0.9-1.9-2-1.9c-1,0-1.9,0.9-1.9,1.9
					C14.2,44.2,15.1,45,16.2,45"/>
				<path id="Path_13522" class="st11" d="M30.5,45c1.1,0,1.9-0.9,1.9-2c0-1.1-0.9-1.9-2-1.9c-1,0-1.9,0.9-1.9,1.9
					C28.5,44.2,29.4,45,30.5,45"/>
				<path id="Path_13523" class="st11" d="M44.7,45c1.1,0,1.9-0.9,1.9-2c0-1.1-0.9-1.9-2-1.9c-1,0-1.9,0.9-1.9,1.9
					C42.7,44.2,43.6,45,44.7,45"/>
				<path id="Path_13524" class="st11" d="M58.9,45c1.1,0,1.9-0.9,1.9-2c0-1.1-0.9-1.9-2-1.9c-1,0-1.9,0.9-1.9,1.9
					C56.9,44.2,57.8,45,58.9,45"/>
				<path id="Path_13525" class="st11" d="M73.1,45c1.1,0,1.9-0.9,1.9-2s-0.9-1.9-2-1.9c-1,0-1.9,0.9-1.9,1.9
					C71.1,44.2,72,45,73.1,45"/>
				<path id="Path_13526" class="st11" d="M87.4,45c1.1,0,1.9-0.9,1.9-2s-0.9-1.9-2-1.9c-1,0-1.9,0.9-1.9,1.9
					C85.4,44.2,86.3,45,87.4,45"/>
				<path id="Path_13527" class="st11" d="M101.6,45c1.1,0,1.9-0.9,1.9-2s-0.9-1.9-2-1.9c-1,0-1.9,0.9-1.9,1.9
					C99.6,44.2,100.5,45,101.6,45"/>
				<path id="Path_13528" class="st11" d="M115.8,45c1.1,0,1.9-0.9,1.9-2c0-1.1-0.9-1.9-2-1.9c-1,0-1.9,0.9-1.9,1.9
					C113.8,44.2,114.7,45,115.8,45"/>
				<path id="Path_13529" class="st11" d="M130,45c1.1,0,1.9-0.9,1.9-2c0-1.1-0.9-1.9-2-1.9c-1,0-1.9,0.9-1.9,1.9
					C128,44.2,128.9,45,130,45"/>
				<path id="Path_13530" class="st11" d="M144.3,45c1.1,0,1.9-0.9,1.9-2s-0.9-1.9-2-1.9c-1,0-1.9,0.9-1.9,1.9
					C142.3,44.2,143.2,45,144.3,45"/>
				<path id="Path_13531" class="st11" d="M2,58.7c1.1,0,2-0.8,2-1.9c0-1.1-0.8-2-1.9-2c-0.1,0-0.1,0-0.2,0c-1.1,0-2,0.8-2,1.9
					s0.8,2,1.9,2C1.9,58.7,2,58.7,2,58.7"/>
				<path id="Path_13532" class="st11" d="M16.2,58.7c1.1,0,1.9-0.9,1.9-2c0-1.1-0.9-1.9-2-1.9c-1,0-1.9,0.9-1.9,1.9
					C14.2,57.9,15.1,58.7,16.2,58.7"/>
				<path id="Path_13533" class="st11" d="M30.5,58.7c1.1,0,1.9-0.9,1.9-2c0-1.1-0.9-1.9-2-1.9c-1,0-1.9,0.9-1.9,1.9
					C28.5,57.9,29.4,58.7,30.5,58.7"/>
				<path id="Path_13534" class="st11" d="M44.7,58.7c1.1,0,1.9-0.9,1.9-2c0-1.1-0.9-1.9-2-1.9c-1,0-1.9,0.9-1.9,1.9
					C42.7,57.9,43.6,58.7,44.7,58.7"/>
				<path id="Path_13535" class="st11" d="M58.9,58.7c1.1,0,1.9-0.9,1.9-2c0-1.1-0.9-1.9-2-1.9c-1,0-1.9,0.9-1.9,1.9
					C56.9,57.9,57.8,58.7,58.9,58.7"/>
				<path id="Path_13536" class="st11" d="M73.1,58.7c1.1,0,1.9-0.9,1.9-2s-0.9-1.9-2-1.9c-1,0-1.9,0.9-1.9,1.9
					C71.1,57.9,72,58.7,73.1,58.7"/>
				<path id="Path_13537" class="st11" d="M87.4,58.7c1.1,0,1.9-0.9,1.9-2s-0.9-1.9-2-1.9c-1,0-1.9,0.9-1.9,1.9
					C85.4,57.9,86.3,58.7,87.4,58.7"/>
				<path id="Path_13538" class="st11" d="M101.6,58.7c1.1,0,1.9-0.9,1.9-2s-0.9-1.9-2-1.9c-1,0-1.9,0.9-1.9,1.9
					C99.6,57.9,100.5,58.7,101.6,58.7"/>
				<path id="Path_13539" class="st11" d="M115.8,58.7c1.1,0,1.9-0.9,1.9-2c0-1.1-0.9-1.9-2-1.9c-1,0-1.9,0.9-1.9,1.9
					C113.8,57.9,114.7,58.7,115.8,58.7"/>
				<path id="Path_13540" class="st11" d="M130,58.7c1.1,0,1.9-0.9,1.9-2c0-1.1-0.9-1.9-2-1.9c-1,0-1.9,0.9-1.9,1.9
					C128,57.9,128.9,58.7,130,58.7"/>
				<path id="Path_13541" class="st11" d="M144.3,58.7c1.1,0,1.9-0.9,1.9-2s-0.9-1.9-2-1.9c-1,0-1.9,0.9-1.9,1.9
					C142.3,57.9,143.2,58.7,144.3,58.7"/>
				<path id="Path_13542" class="st11" d="M2,72.4c1.1,0,2-0.8,2-1.9c0-1.1-0.8-2-1.9-2c-0.1,0-0.1,0-0.2,0c-1.1,0-2,0.8-2,1.9
					s0.8,2,1.9,2C1.9,72.4,2,72.4,2,72.4"/>
				<path id="Path_13543" class="st11" d="M16.2,72.4c1.1,0,1.9-0.9,1.9-2c0-1.1-0.9-1.9-2-1.9c-1,0-1.9,0.9-1.9,1.9
					C14.2,71.6,15.1,72.5,16.2,72.4"/>
				<path id="Path_13544" class="st11" d="M30.5,72.4c1.1,0,1.9-0.9,1.9-2s-0.9-1.9-2-1.9c-1,0-1.9,0.9-1.9,1.9
					C28.5,71.6,29.4,72.5,30.5,72.4"/>
				<path id="Path_13545" class="st11" d="M44.7,72.4c1.1,0,1.9-0.9,1.9-2c0-1.1-0.9-1.9-2-1.9c-1,0-1.9,0.9-1.9,1.9
					C42.7,71.6,43.6,72.5,44.7,72.4"/>
				<path id="Path_13546" class="st11" d="M58.9,72.4c1.1,0,1.9-0.9,1.9-2c0-1.1-0.9-1.9-2-1.9c-1,0-1.9,0.9-1.9,1.9
					C56.9,71.6,57.8,72.5,58.9,72.4"/>
				<path id="Path_13547" class="st11" d="M73.1,72.4c1.1,0,1.9-0.9,1.9-2c0-1.1-0.9-1.9-2-1.9c-1,0-1.9,0.9-1.9,1.9
					C71.1,71.6,72,72.5,73.1,72.4"/>
				<path id="Path_13548" class="st11" d="M87.4,72.4c1.1,0,1.9-0.9,1.9-2c0-1.1-0.9-1.9-2-1.9c-1,0-1.9,0.9-1.9,1.9
					C85.4,71.6,86.3,72.5,87.4,72.4"/>
				<path id="Path_13549" class="st11" d="M101.6,72.4c1.1,0,1.9-0.9,1.9-2c0-1.1-0.9-1.9-2-1.9c-1,0-1.9,0.9-1.9,1.9
					C99.6,71.6,100.5,72.5,101.6,72.4"/>
				<path id="Path_13550" class="st11" d="M115.8,72.4c1.1,0,1.9-0.9,1.9-2c0-1.1-0.9-1.9-2-1.9c-1,0-1.9,0.9-1.9,1.9
					C113.8,71.6,114.7,72.5,115.8,72.4"/>
				<path id="Path_13551" class="st11" d="M130,72.4c1.1,0,1.9-0.9,1.9-2c0-1.1-0.9-1.9-2-1.9c-1,0-1.9,0.9-1.9,1.9
					C128,71.6,128.9,72.5,130,72.4"/>
				<path id="Path_13552" class="st11" d="M144.3,72.4c1.1,0,1.9-0.9,1.9-2s-0.9-1.9-2-1.9c-1,0-1.9,0.9-1.9,1.9
					C142.3,71.6,143.2,72.5,144.3,72.4"/>
				<path id="Path_13553" class="st11" d="M2,86.1c1.1,0,2-0.8,2-1.9c0-1.1-0.8-2-1.9-2c-0.1,0-0.1,0-0.2,0c-1.1,0-2,0.8-2,1.9
					s0.8,2,1.9,2C1.9,86.1,2,86.1,2,86.1"/>
				<path id="Path_13554" class="st11" d="M16.2,86.1c1.1,0,1.9-0.9,1.9-2c0-1.1-0.9-1.9-2-1.9c-1,0-1.9,0.9-1.9,1.9
					C14.2,85.3,15.1,86.2,16.2,86.1"/>
				<path id="Path_13555" class="st11" d="M30.5,86.1c1.1,0,1.9-0.9,1.9-2c0-1.1-0.9-1.9-2-1.9c-1,0-1.9,0.9-1.9,1.9
					C28.5,85.3,29.4,86.2,30.5,86.1"/>
				<path id="Path_13556" class="st11" d="M44.7,86.1c1.1,0,1.9-0.9,1.9-2c0-1.1-0.9-1.9-2-1.9c-1,0-1.9,0.9-1.9,1.9
					C42.7,85.3,43.6,86.2,44.7,86.1"/>
				<path id="Path_13557" class="st11" d="M58.9,86.1c1.1,0,1.9-0.9,1.9-2c0-1.1-0.9-1.9-2-1.9c-1,0-1.9,0.9-1.9,1.9
					C56.9,85.3,57.8,86.2,58.9,86.1"/>
				<path id="Path_13558" class="st11" d="M73.1,86.1c1.1,0,1.9-0.9,1.9-2s-0.9-1.9-2-1.9c-1,0-1.9,0.9-1.9,1.9
					C71.1,85.3,72,86.2,73.1,86.1C73.1,86.1,73.1,86.1,73.1,86.1"/>
				<path id="Path_13559" class="st11" d="M87.4,86.1c1.1,0,1.9-0.9,1.9-2s-0.9-1.9-2-1.9c-1,0-1.9,0.9-1.9,1.9
					C85.4,85.3,86.3,86.2,87.4,86.1"/>
				<path id="Path_13560" class="st11" d="M101.6,86.1c1.1,0,1.9-0.9,1.9-2c0-1.1-0.9-1.9-2-1.9c-1,0-1.9,0.9-1.9,1.9
					C99.6,85.3,100.5,86.2,101.6,86.1"/>
				<path id="Path_13561" class="st11" d="M115.8,86.1c1.1,0,1.9-0.9,1.9-2c0-1.1-0.9-1.9-2-1.9c-1,0-1.9,0.9-1.9,1.9
					C113.8,85.3,114.7,86.2,115.8,86.1"/>
				<path id="Path_13562" class="st11" d="M130,86.1c1.1,0,1.9-0.9,1.9-2c0-1.1-0.9-1.9-2-1.9c-1,0-1.9,0.9-1.9,1.9
					C128,85.3,128.9,86.2,130,86.1"/>
				<path id="Path_13563" class="st11" d="M144.3,86.1c1.1,0,1.9-0.9,1.9-2s-0.9-1.9-2-1.9c-1,0-1.9,0.9-1.9,1.9
					C142.3,85.3,143.2,86.2,144.3,86.1"/>
				<path id="Path_13564" class="st11" d="M2,99.9c1.1,0,2-0.8,2-1.9c0-1.1-0.8-2-1.9-2c-0.1,0-0.1,0-0.2,0c-1.1,0-2,0.8-2,1.9
					c0,1.1,0.8,2,1.9,2C1.9,99.9,2,99.9,2,99.9"/>
				<path id="Path_13565" class="st11" d="M16.2,99.9c1.1,0,1.9-0.9,1.9-2s-0.9-1.9-2-1.9c-1,0-1.9,0.9-1.9,1.9
					C14.2,99,15.1,99.9,16.2,99.9"/>
				<path id="Path_13566" class="st11" d="M30.5,99.9c1.1,0,1.9-0.9,1.9-2c0-1.1-0.9-1.9-2-1.9c-1,0-1.9,0.9-1.9,1.9
					C28.5,99,29.4,99.9,30.5,99.9"/>
				<path id="Path_13567" class="st11" d="M44.7,99.9c1.1,0,1.9-0.9,1.9-2c0-1.1-0.9-1.9-2-1.9c-1,0-1.9,0.9-1.9,1.9
					C42.7,99,43.6,99.9,44.7,99.9"/>
				<path id="Path_13568" class="st11" d="M58.9,99.9c1.1,0,1.9-0.9,1.9-2c0-1.1-0.9-1.9-2-1.9c-1,0-1.9,0.9-1.9,1.9
					C56.9,99,57.8,99.9,58.9,99.9"/>
				<path id="Path_13569" class="st11" d="M73.1,99.9c1.1,0,1.9-0.9,1.9-2c0-1.1-0.9-1.9-2-1.9c-1,0-1.9,0.9-1.9,1.9
					C71.1,99,72,99.9,73.1,99.9"/>
				<path id="Path_13570" class="st11" d="M87.4,99.9c1.1,0,1.9-0.9,1.9-2c0-1.1-0.9-1.9-2-1.9c-1,0-1.9,0.9-1.9,1.9
					C85.4,99,86.3,99.9,87.4,99.9"/>
				<path id="Path_13571" class="st11" d="M101.6,99.9c1.1,0,1.9-0.9,1.9-2s-0.9-1.9-2-1.9c-1,0-1.9,0.9-1.9,1.9
					C99.6,99,100.5,99.9,101.6,99.9"/>
				<path id="Path_13572" class="st11" d="M115.8,99.9c1.1,0,1.9-0.9,1.9-2c0-1.1-0.9-1.9-2-1.9c-1,0-1.9,0.9-1.9,1.9
					C113.8,99,114.7,99.9,115.8,99.9"/>
				<path id="Path_13573" class="st11" d="M130,99.9c1.1,0,1.9-0.9,1.9-2c0-1.1-0.9-1.9-2-1.9c-1,0-1.9,0.9-1.9,1.9
					C128,99,128.9,99.9,130,99.9"/>
				<path id="Path_13574" class="st11" d="M144.3,99.9c1.1,0,1.9-0.9,1.9-2c0-1.1-0.9-1.9-2-1.9c-1,0-1.9,0.9-1.9,1.9
					C142.3,99,143.2,99.9,144.3,99.9"/>
				<path id="Path_13575" class="st11" d="M2,113.6c1.1,0,2-0.8,2-1.9c0-1.1-0.8-2-1.9-2c-0.1,0-0.1,0-0.2,0c-1.1,0-2,0.8-2,1.9
					c0,1.1,0.8,2,1.9,2C1.9,113.6,2,113.6,2,113.6"/>
				<path id="Path_13576" class="st11" d="M16.2,113.6c1.1,0,1.9-0.9,1.9-2c0-1.1-0.9-1.9-2-1.9c-1,0-1.9,0.9-1.9,1.9
					C14.2,112.7,15.1,113.6,16.2,113.6"/>
				<path id="Path_13577" class="st11" d="M30.5,113.6c1.1,0,1.9-0.9,1.9-2c0-1.1-0.9-1.9-2-1.9c-1,0-1.9,0.9-1.9,1.9
					C28.5,112.7,29.4,113.6,30.5,113.6"/>
				<path id="Path_13578" class="st11" d="M44.7,113.6c1.1,0,1.9-0.9,1.9-2c0-1.1-0.9-1.9-2-1.9c-1,0-1.9,0.9-1.9,1.9
					C42.7,112.7,43.6,113.6,44.7,113.6"/>
				<path id="Path_13579" class="st11" d="M58.9,113.6c1.1,0,1.9-0.9,1.9-2c0-1.1-0.9-1.9-2-1.9c-1,0-1.9,0.9-1.9,1.9
					C56.9,112.7,57.8,113.6,58.9,113.6"/>
				<path id="Path_13580" class="st11" d="M73.1,113.6c1.1,0,1.9-0.9,1.9-2s-0.9-1.9-2-1.9c-1,0-1.9,0.9-1.9,1.9
					C71.1,112.7,72,113.6,73.1,113.6"/>
				<path id="Path_13581" class="st11" d="M87.4,113.6c1.1,0,1.9-0.9,1.9-2s-0.9-1.9-2-1.9c-1,0-1.9,0.9-1.9,1.9
					C85.4,112.7,86.3,113.6,87.4,113.6"/>
				<path id="Path_13582" class="st11" d="M101.6,113.6c1.1,0,1.9-0.9,1.9-2s-0.9-1.9-2-1.9c-1,0-1.9,0.9-1.9,1.9
					C99.6,112.7,100.5,113.6,101.6,113.6"/>
				<path id="Path_13583" class="st11" d="M115.8,113.6c1.1,0,1.9-0.9,1.9-2s-0.9-1.9-2-1.9c-1,0-1.9,0.9-1.9,1.9
					C113.8,112.7,114.7,113.6,115.8,113.6"/>
				<path id="Path_13584" class="st11" d="M130,113.6c1.1,0,1.9-0.9,1.9-2c0-1.1-0.9-1.9-2-1.9c-1,0-1.9,0.9-1.9,1.9
					C128,112.7,128.9,113.6,130,113.6"/>
				<path id="Path_13585" class="st11" d="M144.3,113.6c1.1,0,1.9-0.9,1.9-2c0-1.1-0.9-1.9-2-1.9c-1,0-1.9,0.9-1.9,1.9
					C142.3,112.7,143.2,113.6,144.3,113.6"/>
				<path id="Path_13586" class="st11" d="M2,127.3c1.1,0,2-0.8,2-1.9c0-1.1-0.8-2-1.9-2c-0.1,0-0.1,0-0.2,0c-1.1,0-2,0.8-2,1.9
					s0.8,2,1.9,2C1.9,127.3,2,127.3,2,127.3"/>
				<path id="Path_13587" class="st11" d="M16.2,127.3c1.1,0,1.9-0.9,1.9-2c0-1.1-0.9-1.9-2-1.9c-1,0-1.9,0.9-1.9,1.9
					C14.2,126.4,15.1,127.3,16.2,127.3"/>
				<path id="Path_13588" class="st11" d="M30.5,127.3c1.1,0,1.9-0.9,1.9-2c0-1.1-0.9-1.9-2-1.9c-1,0-1.9,0.9-1.9,1.9
					C28.5,126.4,29.4,127.3,30.5,127.3"/>
				<path id="Path_13589" class="st11" d="M44.7,127.3c1.1,0,1.9-0.9,1.9-2c0-1.1-0.9-1.9-2-1.9c-1,0-1.9,0.9-1.9,1.9
					C42.7,126.4,43.6,127.3,44.7,127.3"/>
				<path id="Path_13590" class="st11" d="M58.9,127.3c1.1,0,1.9-0.9,1.9-2c0-1.1-0.9-1.9-2-1.9c-1,0-1.9,0.9-1.9,1.9
					C56.9,126.4,57.8,127.3,58.9,127.3"/>
				<path id="Path_13591" class="st11" d="M73.1,127.3c1.1,0,1.9-0.9,1.9-2c0-1.1-0.9-1.9-2-1.9c-1,0-1.9,0.9-1.9,1.9
					C71.1,126.4,72,127.3,73.1,127.3"/>
				<path id="Path_13592" class="st11" d="M87.4,127.3c1.1,0,1.9-0.9,1.9-2c0-1.1-0.9-1.9-2-1.9c-1,0-1.9,0.9-1.9,1.9
					C85.4,126.4,86.3,127.3,87.4,127.3"/>
				<path id="Path_13593" class="st11" d="M101.6,127.3c1.1,0,1.9-0.9,1.9-2c0-1.1-0.9-1.9-2-1.9c-1,0-1.9,0.9-1.9,1.9
					C99.6,126.4,100.5,127.3,101.6,127.3"/>
				<path id="Path_13594" class="st11" d="M115.8,127.3c1.1,0,1.9-0.9,1.9-2c0-1.1-0.9-1.9-2-1.9c-1,0-1.9,0.9-1.9,1.9
					C113.8,126.4,114.7,127.3,115.8,127.3"/>
				<path id="Path_13595" class="st11" d="M130,127.3c1.1,0,1.9-0.9,1.9-2c0-1.1-0.9-1.9-2-1.9c-1,0-1.9,0.9-1.9,1.9
					C128,126.4,128.9,127.3,130,127.3"/>
				<path id="Path_13596" class="st11" d="M144.3,127.3c1.1,0,1.9-0.9,1.9-2c0-1.1-0.9-1.9-2-1.9c-1,0-1.9,0.9-1.9,1.9
					C142.3,126.4,143.2,127.3,144.3,127.3"/>
				<path id="Path_13597" class="st11" d="M2,141c1.1,0,2-0.8,2-1.9c0-1.1-0.8-2-1.9-2c-0.1,0-0.1,0-0.2,0c-1.1,0-2,0.8-2,1.9
					c0,1.1,0.8,2,1.9,2C1.9,141,2,141,2,141"/>
				<path id="Path_13598" class="st11" d="M16.2,141c1.1,0,1.9-0.9,1.9-2c0-1.1-0.9-1.9-2-1.9c-1,0-1.9,0.9-1.9,1.9
					C14.2,140.1,15.1,141,16.2,141"/>
				<path id="Path_13599" class="st11" d="M30.5,141c1.1,0,1.9-0.9,1.9-2c0-1.1-0.9-1.9-2-1.9c-1,0-1.9,0.9-1.9,1.9
					C28.5,140.1,29.4,141,30.5,141"/>
				<path id="Path_13600" class="st11" d="M44.7,141c1.1,0,1.9-0.9,1.9-2c0-1.1-0.9-1.9-2-1.9c-1,0-1.9,0.9-1.9,1.9
					C42.7,140.1,43.6,141,44.7,141"/>
				<path id="Path_13601" class="st11" d="M58.9,141c1.1,0,1.9-0.9,1.9-2c0-1.1-0.9-1.9-2-1.9c-1,0-1.9,0.9-1.9,1.9
					C56.9,140.1,57.8,141,58.9,141"/>
				<path id="Path_13602" class="st11" d="M73.1,141c1.1,0,1.9-0.9,1.9-2c0-1.1-0.9-1.9-2-1.9c-1,0-1.9,0.9-1.9,1.9
					C71.1,140.1,72,141,73.1,141"/>
				<path id="Path_13603" class="st11" d="M87.4,141c1.1,0,1.9-0.9,1.9-2c0-1.1-0.9-1.9-2-1.9c-1,0-1.9,0.9-1.9,1.9
					C85.4,140.1,86.3,141,87.4,141"/>
				<path id="Path_13604" class="st11" d="M101.6,141c1.1,0,1.9-0.9,1.9-2c0-1.1-0.9-1.9-2-1.9c-1,0-1.9,0.9-1.9,1.9
					C99.6,140.1,100.5,141,101.6,141"/>
				<path id="Path_13605" class="st11" d="M115.8,141c1.1,0,1.9-0.9,1.9-2c0-1.1-0.9-1.9-2-1.9c-1,0-1.9,0.9-1.9,1.9
					C113.8,140.1,114.7,141,115.8,141"/>
				<path id="Path_13606" class="st11" d="M130,141c1.1,0,1.9-0.9,1.9-2c0-1.1-0.9-1.9-2-1.9c-1,0-1.9,0.9-1.9,1.9
					C128,140.1,128.9,141,130,141"/>
				<path id="Path_13607" class="st11" d="M144.3,141c1.1,0,1.9-0.9,1.9-2s-0.9-1.9-2-1.9c-1,0-1.9,0.9-1.9,1.9
					C142.3,140.1,143.2,141,144.3,141"/>
			</g>
		</g>
	</g>
</g>
<g id="Layer_3">
</g>
<g id="Layer_2">
</g>
<g id="Layer_4">
</g>
</svg>
