<?xml version="1.0" encoding="utf-8"?>
<!-- Generator: Adobe Illustrator 28.2.0, SVG Export Plug-In . SVG Version: 6.00 Build 0)  -->
<svg version="1.1" xmlns="http://www.w3.org/2000/svg" xmlns:xlink="http://www.w3.org/1999/xlink" x="0px" y="0px"
	 viewBox="0 0 40.2 174.6" style="enable-background:new 0 0 40.2 174.6;" xml:space="preserve">
<style type="text/css">
	.st0{opacity:0.1;}
	.st1{fill:#FFFFFF;}
	.st2{clip-path:url(#SVGID_00000114032627973890163490000005186727293981834372_);}
	.st3{fill:#8C8D8D;}
	.st4{clip-path:url(#SVGID_00000054239445162217861230000012100074837111507636_);}
	.st5{fill:#55575A;}
	.st6{fill:#AA8802;}
	.st7{fill:#AFE5FF;}
	.st8{fill:#F7B96D;}
	.st9{fill:#CE3F6A;}
	.st10{fill:#63BDD4;}
	.st11{fill:#CACACA;}
	.st12{clip-path:url(#Path_13399_00000177451014244054023090000009205718900369013910_);}
	.st13{fill:#BEBEBE;}
	.st14{clip-path:url(#Path_13400_00000072271291012199907020000004811791539562300055_);}
	.st15{fill:#D85A35;}
	.st16{clip-path:url(#SVGID_00000138545751532303459510000012501381947170515847_);}
	.st17{fill:#1D94D9;}
	.st18{enable-background:new    ;}
	.st19{fill:#9A9DA4;}
	.st20{clip-path:url(#SVGID_00000000918865565835987180000005130390835998825133_);}
	.st21{fill:#2A6393;}
	.st22{fill:#D85D39;}
	.st23{fill:#747474;}
	.st24{fill:none;stroke:#302C27;stroke-width:1.8532;stroke-linecap:round;stroke-linejoin:round;stroke-miterlimit:10;}
	.st25{fill:#E5E5E5;}
	.st26{fill:#302C27;}
	.st27{fill:#B2B3B4;}
	.st28{fill:none;stroke:#000000;stroke-width:1.3199;stroke-linecap:round;stroke-linejoin:round;stroke-miterlimit:10;}
	.st29{fill:none;stroke:#FFFFFF;stroke-width:4.2452;stroke-linecap:round;stroke-linejoin:round;stroke-miterlimit:10;}
	.st30{fill:none;stroke:#FFFFFF;stroke-width:5.2795;stroke-linecap:round;stroke-linejoin:round;stroke-miterlimit:10;}
	.st31{fill:#FFFFFF;stroke:#FFFFFF;stroke-width:3.9596;stroke-linecap:round;stroke-linejoin:round;stroke-miterlimit:10;}
	.st32{fill:none;stroke:#000000;stroke-width:1.3199;stroke-miterlimit:10;}
	.st33{fill:none;stroke:#000000;stroke-width:1.3199;stroke-linecap:round;stroke-miterlimit:10;}
	.st34{fill:none;stroke:#FFFFFF;stroke-width:1.3199;stroke-linecap:round;stroke-linejoin:round;stroke-miterlimit:10;}
	.st35{fill:none;stroke:#000000;stroke-width:1.3199;stroke-linejoin:round;stroke-miterlimit:10;}
	.st36{fill:#FFFFFF;stroke:#FFFFFF;stroke-width:5.2795;stroke-linecap:round;stroke-linejoin:round;stroke-miterlimit:10;}
	.st37{fill:#FFFFFF;stroke:#000000;stroke-width:1.3199;stroke-linecap:round;stroke-linejoin:round;stroke-miterlimit:10;}
	.st38{fill:none;stroke:#FFFFFF;stroke-width:3.9596;stroke-linecap:square;stroke-miterlimit:10;}
	.st39{fill:#FFFFFF;stroke:#FFFFFF;stroke-width:3.9596;stroke-linecap:square;stroke-miterlimit:10;}
	.st40{fill:#FFFFFF;stroke:#FFFFFF;stroke-width:4.2452;stroke-linecap:round;stroke-linejoin:round;stroke-miterlimit:10;}
	.st41{fill:#FFFFFF;stroke:#000000;stroke-width:1.3199;stroke-linejoin:round;stroke-miterlimit:10;}
	.st42{fill:none;stroke:#FFFFFF;stroke-width:3.9596;stroke-linecap:round;stroke-linejoin:round;stroke-miterlimit:10;}
	.st43{clip-path:url(#SVGID_00000024001335695173258550000018068418560576953014_);}
	.st44{fill:none;}
	.st45{fill:#FFFFFF;stroke:#000000;stroke-width:1.3199;stroke-linecap:round;stroke-miterlimit:10;}
	.st46{fill:#FFFFFF;stroke:#000000;stroke-width:1.3199;stroke-linecap:square;stroke-miterlimit:10;}
	.st47{fill:#FFFFFF;stroke:#FFFFFF;stroke-width:4.2459;stroke-linecap:round;stroke-linejoin:round;stroke-miterlimit:10;}
	.st48{fill:none;stroke:#FFFFFF;stroke-width:3.9596;stroke-linecap:square;stroke-linejoin:round;stroke-miterlimit:10;}
	.st49{fill:none;stroke:#000000;stroke-width:1.3199;stroke-linecap:square;stroke-linejoin:round;stroke-miterlimit:10;}
	.st50{fill:none;stroke:#FFFFFF;stroke-width:4.7515;stroke-linecap:round;stroke-linejoin:round;stroke-miterlimit:10;}
	.st51{fill:#FFFFFF;stroke:#FFFFFF;stroke-width:3.9596;stroke-miterlimit:10;}
	.st52{fill:none;stroke:#302C27;stroke-width:2.4348;stroke-linecap:round;stroke-linejoin:round;stroke-miterlimit:10;}
	.st53{fill:none;stroke:#302C27;stroke-width:2.6782;stroke-linecap:round;stroke-linejoin:round;stroke-miterlimit:10;}
	.st54{fill:none;stroke:#000000;stroke-width:2.1148;stroke-miterlimit:10;}
	.st55{fill:#FFFFFF;stroke:#000000;stroke-width:2.1148;stroke-linecap:round;stroke-linejoin:round;stroke-miterlimit:10;}
	.st56{fill:#FFFFFF;stroke:#FFFFFF;stroke-width:6.3443;stroke-linecap:round;stroke-linejoin:round;stroke-miterlimit:10;}
	.st57{clip-path:url(#SVGID_00000145027606836584102430000009929862110139877509_);}
	.st58{clip-path:url(#SVGID_00000016034124666066248650000009952467205044629903_);}
</style>
<g id="layer">
	<g id="Group_2083" transform="translate(0 0)">
		<g>
			<g id="Group_2082" transform="translate(0 0)">
				<path id="Path_18067" class="st11" d="M2.5,4.8c1.4,0,2.5-1,2.5-2.4C5,1.1,3.8,0,2.5,0C1.1,0,0,1.1,0,2.4C0,3.8,1.1,4.8,2.5,4.8
					"/>
				<path id="Path_18068" class="st11" d="M20.1,4.8c1.4,0,2.5-1,2.5-2.4C22.6,1,21.4,0,20,0c-1.3,0-2.4,1.1-2.4,2.4
					C17.6,3.8,18.8,4.8,20.1,4.8"/>
				<path id="Path_18069" class="st11" d="M37.7,4.8c1.4,0,2.5-1,2.5-2.4C40.2,1,39,0,37.6,0c-1.3,0-2.4,1.1-2.4,2.4
					C35.3,3.8,36.4,4.8,37.7,4.8"/>
				<path id="Path_18070" class="st11" d="M2.5,21.8c1.4,0,2.5-1,2.5-2.4C5,18,3.8,17,2.5,17C1.1,17,0,18,0,19.4
					C0,20.7,1.1,21.8,2.5,21.8"/>
				<path id="Path_18071" class="st11" d="M20.1,21.8c1.4,0,2.5-1,2.5-2.4c0-1.4-1.2-2.5-2.6-2.4c-1.3,0-2.4,1.1-2.4,2.4
					C17.6,20.7,18.8,21.8,20.1,21.8"/>
				<path id="Path_18072" class="st11" d="M37.7,21.8c1.4,0,2.5-1,2.5-2.4c0-1.4-1.2-2.5-2.6-2.4c-1.3,0-2.4,1.1-2.4,2.4
					C35.3,20.7,36.4,21.8,37.7,21.8"/>
				<path id="Path_18073" class="st11" d="M2.5,38.8c1.3,0,2.4-1.1,2.4-2.4c0-1.3-1.1-2.4-2.4-2.4l0,0c-1.3,0-2.4,1.1-2.4,2.4
					C0.1,37.7,1.2,38.8,2.5,38.8"/>
				<path id="Path_18074" class="st11" d="M20.1,38.8c1.3-0.1,2.4-1.2,2.3-2.5c-0.1-1.3-1.2-2.4-2.5-2.3c-1.3,0-2.3,1.1-2.3,2.4
					C17.6,37.7,18.8,38.8,20.1,38.8"/>
				<path id="Path_18075" class="st11" d="M37.7,38.8c1.3-0.1,2.4-1.2,2.3-2.5C40,35,38.9,33.9,37.5,34c-1.3,0-2.3,1.1-2.3,2.4
					C35.3,37.7,36.4,38.8,37.7,38.8"/>
				<path id="Path_18076" class="st11" d="M2.5,55.8c1.3,0,2.4-1.1,2.4-2.4C4.9,52,3.8,51,2.5,51c0,0,0,0,0,0
					c-1.3,0-2.4,1.1-2.4,2.4S1.2,55.8,2.5,55.8C2.5,55.8,2.5,55.8,2.5,55.8"/>
				<path id="Path_18077" class="st11" d="M20.1,55.8c1.3-0.1,2.4-1.2,2.3-2.5c-0.1-1.3-1.2-2.4-2.5-2.3c-1.3,0-2.3,1.1-2.3,2.4
					C17.6,54.7,18.8,55.8,20.1,55.8"/>
				<path id="Path_18078" class="st11" d="M37.7,55.8c1.3-0.1,2.4-1.2,2.3-2.5c-0.1-1.3-1.2-2.4-2.5-2.3c-1.3,0-2.3,1.1-2.3,2.4
					C35.3,54.7,36.4,55.8,37.7,55.8"/>
				<path id="Path_18079" class="st11" d="M2.5,72.7c1.3,0,2.4-1.1,2.4-2.4c0-1.3-1.1-2.4-2.4-2.4c-1.3,0-2.4,1.1-2.4,2.4
					C0.1,71.7,1.2,72.7,2.5,72.7C2.5,72.7,2.5,72.7,2.5,72.7"/>
				<path id="Path_18080" class="st11" d="M20.1,72.7c1.3-0.1,2.4-1.2,2.3-2.5c-0.1-1.3-1.2-2.4-2.5-2.3c-1.3,0-2.3,1.1-2.3,2.4
					C17.6,71.7,18.8,72.8,20.1,72.7"/>
				<path id="Path_18081" class="st11" d="M37.7,72.7c1.3-0.1,2.4-1.2,2.3-2.5c-0.1-1.3-1.2-2.4-2.5-2.3c-1.3,0-2.3,1.1-2.3,2.4
					C35.3,71.7,36.4,72.8,37.7,72.7"/>
				<path id="Path_18082" class="st11" d="M2.5,89.7c1.3,0,2.4-1.1,2.4-2.4c0-1.3-1.1-2.4-2.4-2.4c0,0,0,0,0,0
					c-1.3,0-2.4,1.1-2.4,2.4C0.1,88.7,1.2,89.7,2.5,89.7C2.5,89.7,2.5,89.7,2.5,89.7"/>
				<path id="Path_18083" class="st11" d="M20.1,89.7c1.3-0.1,2.4-1.2,2.3-2.5c-0.1-1.3-1.2-2.4-2.5-2.3c-1.3,0-2.3,1.1-2.3,2.4
					C17.6,88.7,18.8,89.8,20.1,89.7"/>
				<path id="Path_18084" class="st11" d="M37.7,89.7c1.3-0.1,2.4-1.2,2.3-2.5c-0.1-1.3-1.2-2.4-2.5-2.3c-1.3,0-2.3,1.1-2.3,2.4
					C35.3,88.7,36.4,89.8,37.7,89.7"/>
				<path id="Path_18085" class="st11" d="M2.5,106.7c1.3,0,2.4-1.1,2.4-2.4c0-1.3-1.1-2.4-2.4-2.4c0,0,0,0,0,0
					c-1.3,0-2.4,1.1-2.4,2.4C0.1,105.6,1.2,106.7,2.5,106.7C2.5,106.7,2.5,106.7,2.5,106.7"/>
				<path id="Path_18086" class="st11" d="M20.1,106.7c1.3-0.1,2.4-1.2,2.3-2.5c-0.1-1.3-1.2-2.4-2.5-2.3c-1.3,0-2.3,1.1-2.3,2.4
					C17.6,105.7,18.8,106.7,20.1,106.7"/>
				<path id="Path_18087" class="st11" d="M37.7,106.7c1.3-0.1,2.4-1.2,2.3-2.5c-0.1-1.3-1.2-2.4-2.5-2.3c-1.3,0-2.3,1.1-2.3,2.4
					C35.3,105.7,36.4,106.7,37.7,106.7"/>
				<path id="Path_18088" class="st11" d="M2.5,123.7c1.3,0,2.4-1.1,2.4-2.4c0-1.3-1.1-2.4-2.4-2.4c0,0,0,0,0,0
					c-1.3,0-2.4,1.1-2.4,2.4C0.1,122.6,1.2,123.7,2.5,123.7C2.5,123.7,2.5,123.7,2.5,123.7"/>
				<path id="Path_18089" class="st11" d="M20.1,123.7c1.3-0.1,2.4-1.2,2.3-2.5c-0.1-1.3-1.2-2.4-2.5-2.3c-1.3,0-2.3,1.1-2.3,2.4
					C17.6,122.6,18.8,123.7,20.1,123.7"/>
				<path id="Path_18090" class="st11" d="M37.7,123.7c1.3-0.1,2.4-1.2,2.3-2.5c-0.1-1.3-1.2-2.4-2.5-2.3c-1.3,0-2.3,1.1-2.3,2.4
					C35.3,122.6,36.4,123.7,37.7,123.7"/>
				<path id="Path_18091" class="st11" d="M2.5,140.7c1.3,0,2.4-1.1,2.4-2.4c0-1.3-1.1-2.4-2.4-2.4c0,0,0,0,0,0
					c-1.3,0-2.4,1.1-2.4,2.4C0.1,139.6,1.2,140.7,2.5,140.7C2.5,140.7,2.5,140.7,2.5,140.7"/>
				<path id="Path_18092" class="st11" d="M20.1,140.7c1.3-0.1,2.4-1.2,2.3-2.5c-0.1-1.3-1.2-2.4-2.5-2.3c-1.3,0-2.3,1.1-2.3,2.4
					C17.6,139.6,18.8,140.7,20.1,140.7"/>
				<path id="Path_18093" class="st11" d="M37.7,140.7c1.3-0.1,2.4-1.2,2.3-2.5c-0.1-1.3-1.2-2.4-2.5-2.3c-1.3,0-2.3,1.1-2.3,2.4
					C35.3,139.6,36.4,140.7,37.7,140.7"/>
				<path id="Path_18094" class="st11" d="M2.5,157.7c1.3,0,2.4-1.1,2.4-2.4s-1.1-2.4-2.4-2.4c0,0,0,0,0,0c-1.3,0-2.4,1.1-2.4,2.4
					S1.2,157.7,2.5,157.7C2.5,157.7,2.5,157.7,2.5,157.7"/>
				<path id="Path_18095" class="st11" d="M20.1,157.7c1.3-0.1,2.4-1.2,2.3-2.5c-0.1-1.3-1.2-2.4-2.5-2.3c-1.3,0-2.3,1.1-2.3,2.4
					C17.6,156.6,18.8,157.7,20.1,157.7"/>
				<path id="Path_18096" class="st11" d="M37.7,157.7c1.3-0.1,2.4-1.2,2.3-2.5c-0.1-1.3-1.2-2.4-2.5-2.3c-1.3,0-2.3,1.1-2.3,2.4
					C35.3,156.6,36.4,157.7,37.7,157.7"/>
				<path id="Path_18097" class="st11" d="M2.5,174.6c1.3,0,2.4-1.1,2.4-2.4s-1.1-2.4-2.4-2.4s-2.4,1.1-2.4,2.4S1.2,174.6,2.5,174.6
					"/>
				<path id="Path_18098" class="st11" d="M20.1,174.6c1.3-0.1,2.4-1.2,2.3-2.5c-0.1-1.3-1.2-2.4-2.5-2.3c-1.3,0-2.3,1.1-2.3,2.4
					C17.6,173.6,18.8,174.7,20.1,174.6"/>
				<path id="Path_18099" class="st11" d="M37.7,174.6c1.3-0.1,2.4-1.2,2.3-2.5c-0.1-1.3-1.2-2.4-2.5-2.3c-1.3,0-2.3,1.1-2.3,2.4
					C35.3,173.6,36.4,174.7,37.7,174.6"/>
			</g>
		</g>
	</g>
</g>
<g id="Layer_3">
</g>
<g id="Layer_2">
</g>
<g id="Layer_4">
</g>
</svg>
