<?xml version="1.0" encoding="utf-8"?>
<!-- Generator: Adobe Illustrator 28.2.0, SVG Export Plug-In . SVG Version: 6.00 Build 0)  -->
<svg version="1.1" xmlns="http://www.w3.org/2000/svg" xmlns:xlink="http://www.w3.org/1999/xlink" x="0px" y="0px"
	 viewBox="0 0 454.7 243.6" style="enable-background:new 0 0 454.7 243.6;" xml:space="preserve">
<style type="text/css">
	.st0{opacity:0.1;}
	.st1{fill:#FFFFFF;}
	.st2{clip-path:url(#SVGID_00000160180911285735284710000017618716322636798128_);}
	.st3{fill:#8C8D8D;}
	.st4{clip-path:url(#SVGID_00000129199120026024718560000017832541974741046967_);}
	.st5{fill:#55575A;}
	.st6{fill:#AA8802;}
	.st7{fill:#AFE5FF;}
	.st8{fill:#F7B96D;}
	.st9{fill:#CE3F6A;}
	.st10{fill:#63BDD4;}
	.st11{fill:#CACACA;}
	.st12{clip-path:url(#Path_13399_00000160190185091633877380000017350502000834049460_);}
	.st13{fill:#BEBEBE;}
	.st14{clip-path:url(#Path_13400_00000115474190725277365150000016380276245474608801_);}
	.st15{fill:#D85A35;}
	.st16{clip-path:url(#SVGID_00000066508124823681958630000017456674316742166420_);}
	.st17{fill:#1D94D9;}
	.st18{enable-background:new    ;}
	.st19{fill:#9A9DA4;}
	.st20{clip-path:url(#SVGID_00000180347373103242003920000000726966511901969827_);}
	.st21{fill:#2A6393;}
	.st22{fill:#D85D39;}
	.st23{fill:#747474;}
	.st24{fill:none;stroke:#302C27;stroke-width:1.8532;stroke-linecap:round;stroke-linejoin:round;stroke-miterlimit:10;}
	.st25{fill:#E5E5E5;}
	.st26{fill:#302C27;}
	.st27{fill:#B2B3B4;}
	.st28{fill:none;stroke:#000000;stroke-width:1.3199;stroke-linecap:round;stroke-linejoin:round;stroke-miterlimit:10;}
	.st29{fill:none;stroke:#FFFFFF;stroke-width:4.2452;stroke-linecap:round;stroke-linejoin:round;stroke-miterlimit:10;}
	.st30{fill:none;stroke:#FFFFFF;stroke-width:5.2795;stroke-linecap:round;stroke-linejoin:round;stroke-miterlimit:10;}
	.st31{fill:#FFFFFF;stroke:#FFFFFF;stroke-width:3.9596;stroke-linecap:round;stroke-linejoin:round;stroke-miterlimit:10;}
	.st32{fill:none;stroke:#000000;stroke-width:1.3199;stroke-miterlimit:10;}
	.st33{fill:none;stroke:#000000;stroke-width:1.3199;stroke-linecap:round;stroke-miterlimit:10;}
	.st34{fill:none;stroke:#FFFFFF;stroke-width:1.3199;stroke-linecap:round;stroke-linejoin:round;stroke-miterlimit:10;}
	.st35{fill:none;stroke:#000000;stroke-width:1.3199;stroke-linejoin:round;stroke-miterlimit:10;}
	.st36{fill:#FFFFFF;stroke:#FFFFFF;stroke-width:5.2795;stroke-linecap:round;stroke-linejoin:round;stroke-miterlimit:10;}
	.st37{fill:#FFFFFF;stroke:#000000;stroke-width:1.3199;stroke-linecap:round;stroke-linejoin:round;stroke-miterlimit:10;}
	.st38{fill:none;stroke:#FFFFFF;stroke-width:3.9596;stroke-linecap:square;stroke-miterlimit:10;}
	.st39{fill:#FFFFFF;stroke:#FFFFFF;stroke-width:3.9596;stroke-linecap:square;stroke-miterlimit:10;}
	.st40{fill:#FFFFFF;stroke:#FFFFFF;stroke-width:4.2452;stroke-linecap:round;stroke-linejoin:round;stroke-miterlimit:10;}
	.st41{fill:#FFFFFF;stroke:#000000;stroke-width:1.3199;stroke-linejoin:round;stroke-miterlimit:10;}
	.st42{fill:none;stroke:#FFFFFF;stroke-width:3.9596;stroke-linecap:round;stroke-linejoin:round;stroke-miterlimit:10;}
	.st43{clip-path:url(#SVGID_00000003064226054160194400000002993699999456400547_);}
	.st44{fill:none;}
	.st45{fill:#FFFFFF;stroke:#000000;stroke-width:1.3199;stroke-linecap:round;stroke-miterlimit:10;}
	.st46{fill:#FFFFFF;stroke:#000000;stroke-width:1.3199;stroke-linecap:square;stroke-miterlimit:10;}
	.st47{fill:#FFFFFF;stroke:#FFFFFF;stroke-width:4.2459;stroke-linecap:round;stroke-linejoin:round;stroke-miterlimit:10;}
	.st48{fill:none;stroke:#FFFFFF;stroke-width:3.9596;stroke-linecap:square;stroke-linejoin:round;stroke-miterlimit:10;}
	.st49{fill:none;stroke:#000000;stroke-width:1.3199;stroke-linecap:square;stroke-linejoin:round;stroke-miterlimit:10;}
	.st50{fill:none;stroke:#FFFFFF;stroke-width:4.7515;stroke-linecap:round;stroke-linejoin:round;stroke-miterlimit:10;}
	.st51{fill:#FFFFFF;stroke:#FFFFFF;stroke-width:3.9596;stroke-miterlimit:10;}
	.st52{fill:none;stroke:#302C27;stroke-width:2.4348;stroke-linecap:round;stroke-linejoin:round;stroke-miterlimit:10;}
	.st53{fill:none;stroke:#302C27;stroke-width:2.6782;stroke-linecap:round;stroke-linejoin:round;stroke-miterlimit:10;}
	.st54{fill:none;stroke:#000000;stroke-width:2.1148;stroke-miterlimit:10;}
	.st55{fill:#FFFFFF;stroke:#000000;stroke-width:2.1148;stroke-linecap:round;stroke-linejoin:round;stroke-miterlimit:10;}
	.st56{fill:#FFFFFF;stroke:#FFFFFF;stroke-width:6.3443;stroke-linecap:round;stroke-linejoin:round;stroke-miterlimit:10;}
	.st57{clip-path:url(#SVGID_00000123407479308040137810000004339272858766926988_);}
	.st58{clip-path:url(#SVGID_00000142878964855961809660000000150800166470691466_);}
</style>
<g id="layer">
	<g>
		<path class="st1" d="M437.1,129.4v8.8h-2.4v-8.8h-3.4v-2h9.1l0.3,2H437.1z M452.2,138.2l-0.5-7.2l-2.6,7.2H447l-2.6-7.2l-0.6,7.2
			h-2.2l0.8-10.9h3.1l2.7,7.7l2.7-7.7h2.9l0.9,10.9H452.2z"/>
		<polygon class="st1" points="103.2,123 113.7,120.2 113.7,118.2 78.8,118.2 78.8,120.2 89.9,123 89.9,172.8 78.8,175.6 
			78.8,177.6 113.7,177.6 113.7,175.6 103.2,172.8 		"/>
		<g>
			<path class="st1" d="M83.7,160.6c-4.6,2.1-10,3.5-15.9,3.5c-21.6,0-37.3-15.6-37.3-47.4c0-32.4,15.3-45.9,30.5-45.9
				c13.9,0,24.9,8.1,35.4,28.7l2.5-0.3l-1.1-33.4h-1.7l-6.9,5.3c-6-3.1-14.7-4.9-22.8-4.9c-31.1,0-54,24.2-54,53
				c0,30.1,20.6,51,49.2,51c8.4,0,15.6-2.1,22-5.4L83.7,160.6L83.7,160.6z"/>
		</g>
		<g>
			<rect x="149.2" y="0" class="st1" width="2.1" height="243.6"/>
			<g>
				<path class="st1" d="M194.4,199.5c-1.9,0-3.5-0.4-4.9-1.1l0.4-2.4c1.2,0.7,2.8,1.5,4.6,1.5c1.8,0,3.1-1,3.1-2.6
					c0-1.5-0.7-2.2-3.3-3.4c-3.2-1.5-4.5-2.5-4.5-5c0-2.7,2.1-4.5,5.3-4.5c1.7,0,2.9,0.4,4,1l-0.4,2.4c-1-0.7-2.3-1.3-3.6-1.3
					c-2,0-2.9,1-2.9,2.3c0,1.3,0.7,1.9,3.3,3.1c3.4,1.5,4.5,2.7,4.5,5.2C199.8,197.6,197.6,199.5,194.4,199.5"/>
				<path class="st1" d="M210.4,199.3l0-8c0-1.2-0.5-2.1-1.8-2.1c-1.2,0-2.4,0.7-3.5,1.9v8.2h-2.2l0-17.5l2.2-0.4v7.7
					c1-0.9,2.4-1.8,4.1-1.8c2.3,0,3.5,1.3,3.5,3.5v8.6L210.4,199.3L210.4,199.3z"/>
				<path class="st1" d="M223.3,199.3l-0.2-1.6c-1,1-2.3,1.8-4.2,1.8c-2.1,0-3.5-1.3-3.5-3.3c0-2.9,2.6-4.1,7.6-4.6V191
					c0-1.5-0.9-2-2.3-2c-1.5,0-2.9,0.4-4.1,1l-0.3-1.9c1.4-0.6,2.8-1,4.6-1c2.9,0,4.3,1.2,4.3,3.8v8.3H223.3z M222.9,193.2
					c-4.4,0.4-5.4,1.6-5.4,2.8c0,1,0.7,1.6,1.8,1.6c1.3,0,2.6-0.7,3.5-1.7L222.9,193.2L222.9,193.2z"/>
				<path class="st1" d="M230.9,192.3v7l-2.2,0l0-11.9h1.8l0.4,2.4c0.9-1.3,2.2-2.6,4.2-2.7l0.4,2.1
					C233.3,189.4,231.6,190.7,230.9,192.3"/>
				<path class="st1" d="M246.9,193.6l-8.2,0c0.1,2.7,1.4,4.1,3.5,4.1c1.8,0,3-0.7,4.3-1.7l0.3,2c-1.3,1-2.8,1.6-4.8,1.6
					c-3.1,0-5.5-1.8-5.5-6.2c0-3.8,2.3-6.1,5.3-6.1c3.5,0,5.1,2.7,5.1,5.9L246.9,193.6L246.9,193.6z M241.7,188.9
					c-1.4,0-2.6,1-2.9,3h5.8C244.3,190,243.5,188.9,241.7,188.9"/>
				<path class="st1" d="M257.9,199.3l-0.3-1.7c-0.9,1-2.1,2-3.9,2c-2.6,0-4.7-1.8-4.7-5.8c0-4.3,2.5-6.4,5.5-6.4
					c1.2,0,2.3,0.2,3,0.5v-6.1l2.2-0.4v17.9L257.9,199.3L257.9,199.3z M257.5,189.8c-1-0.4-1.6-0.7-2.9-0.7c-1.9,0-3.2,1.5-3.2,4.4
					c0,2.6,1.2,4,2.8,4c1.4,0,2.4-0.8,3.4-2.1V189.8z"/>
				<path class="st1" d="M270,185c-0.8,0-1.4-0.6-1.4-1.4c0-0.7,0.7-1.4,1.4-1.4c0.8,0,1.4,0.7,1.4,1.4
					C271.5,184.4,270.8,185,270,185 M268.9,187.4h2.2v11.9h-2.2V187.4z"/>
				<path class="st1" d="M282.4,199.3v-8c0-1.2-0.5-2.1-1.8-2.1c-1.2,0-2.4,0.7-3.5,1.9v8.2h-2.2v-11.9h1.8l0.3,1.7
					c1.1-1,2.5-2,4.3-2c2.3,0,3.5,1.3,3.5,3.5v8.6L282.4,199.3L282.4,199.3z"/>
				<path class="st1" d="M292.2,199.5c-2.1,0-3.5-0.7-3.5-3.1v-7.1h-1.8v-1.8h1.8v-4l2.2-0.3l0,4.3h2.6l0.3,1.8h-2.9v6.6
					c0,1,0.4,1.5,1.6,1.5c0.4,0,0.7,0,1-0.1l0.3,1.9C293.4,199.4,292.9,199.5,292.2,199.5"/>
				<path class="st1" d="M306.1,193.6h-8.2c0.1,2.7,1.4,4.1,3.5,4.1c1.8,0,3-0.7,4.3-1.7l0.3,2c-1.3,1-2.8,1.6-4.8,1.6
					c-3.1,0-5.5-1.8-5.5-6.2c0-3.8,2.3-6.1,5.3-6.1c3.5,0,5.1,2.7,5.1,5.9L306.1,193.6L306.1,193.6z M301,188.9c-1.4,0-2.6,1-2.9,3
					h5.8C303.6,190,302.7,188.9,301,188.9"/>
			</g>
			<polygon class="st1" points="309.1,181.7 309.1,199.3 311.4,199.3 311.4,181.4 			"/>
			<polygon class="st1" points="315.3,181.7 315.3,199.3 317.6,199.3 317.6,181.4 			"/>
			<g>
				<path class="st1" d="M322.5,185c-0.8,0-1.4-0.6-1.4-1.4c0-0.7,0.7-1.4,1.4-1.4c0.8,0,1.4,0.7,1.4,1.4
					C324,184.4,323.3,185,322.5,185 M321.4,187.4h2.2v11.9l-2.2,0V187.4z"/>
				<path class="st1" d="M337.5,187.2l0.3,2l-2.3,0.2c0.3,0.5,0.4,1.2,0.4,1.8c0,2.5-2.1,4.1-4.6,4.1c-0.3,0-0.6,0-0.9-0.1
					c-0.4,0.2-0.6,0.5-0.6,0.7c0,0.4,0.4,0.5,2.5,0.9l0.9,0.1c2.5,0.4,4.1,1.3,4.1,3.1c0,2.5-2.7,3.6-5.8,3.6s-5.6-1-5.6-3
					c0-1.2,0.9-2.1,2.5-3c-0.5-0.4-0.7-0.8-0.7-1.3c0-0.6,0.4-1.2,1.3-1.6c-1.3-0.7-2.2-1.9-2.2-3.5c0-2.6,2.1-4.1,4.6-4.1
					c1.2,0,2.3,0.4,3.1,1L337.5,187.2z M328.1,200.5c0,1,1.3,1.6,3.5,1.6c2.4,0,3.6-0.8,3.6-1.8c0-0.7-0.6-1.2-2.3-1.5l-1.4-0.2
					c-0.7-0.1-1-0.2-1.5-0.3C328.8,199,328.1,199.7,328.1,200.5 M331.4,188.8c-1.5,0-2.4,1.1-2.4,2.6c0,1.3,1,2.4,2.4,2.4
					c1.5,0,2.5-1.1,2.5-2.5C333.9,189.8,332.9,188.8,331.4,188.8"/>
				<path class="st1" d="M349.5,193.6h-8.2c0.1,2.7,1.4,4.1,3.5,4.1c1.8,0,3-0.7,4.3-1.7l0.3,2c-1.3,1-2.8,1.6-4.8,1.6
					c-3.1,0-5.5-1.8-5.5-6.2c0-3.8,2.3-6.1,5.3-6.1c3.5,0,5.1,2.7,5.1,5.9L349.5,193.6L349.5,193.6z M344.4,188.9
					c-1.4,0-2.6,1-2.9,3h5.8C347,190,346.1,188.9,344.4,188.9"/>
				<path class="st1" d="M359.9,199.3l0-8c0-1.2-0.5-2.1-1.8-2.1c-1.2,0-2.4,0.7-3.5,1.9v8.2h-2.2v-11.9h1.8l0.3,1.7
					c1.1-1,2.5-2,4.3-2c2.3,0,3.5,1.3,3.5,3.5v8.6L359.9,199.3L359.9,199.3z"/>
				<path class="st1" d="M370.5,199.5c-3.2,0-5.6-2.2-5.6-6.1c0-4.1,2.5-6.2,5.6-6.2c1.8,0,3,0.4,3.9,1.1l-0.3,2.1
					c-1.1-0.9-2.2-1.3-3.6-1.3c-2,0-3.3,1.5-3.3,4.2c0,2.9,1.5,4.3,3.6,4.3c1.2,0,2.3-0.3,3.5-1.3l0.3,2
					C373.4,199.2,372.1,199.5,370.5,199.5"/>
				<path class="st1" d="M386.8,193.6h-8.1c0.1,2.7,1.4,4.1,3.5,4.1c1.8,0,3-0.7,4.3-1.7l0.3,2c-1.3,1-2.8,1.6-4.8,1.6
					c-3.1,0-5.5-1.8-5.5-6.2c0-3.8,2.3-6.1,5.3-6.1c3.5,0,5.1,2.7,5.1,5.9L386.8,193.6L386.8,193.6z M381.7,188.9
					c-1.4,0-2.6,1-2.9,3h5.8C384.3,190,383.5,188.9,381.7,188.9"/>
			</g>
			<rect x="389.5" y="196.3" class="st1" width="2.5" height="2.9"/>
			<polygon class="st1" points="192.6,209.1 192.6,214.3 197.8,214.3 198.2,216.4 192.6,216.4 192.6,224.1 190.2,224.1 190.2,206.9 
				199.3,206.9 199.3,209.1 			"/>
			<g>
				<path class="st1" d="M205.8,224.3c-3.2,0-5.5-2.3-5.5-6.1c0-3.9,2.3-6.2,5.5-6.2c3.2,0,5.6,2.3,5.6,6.2
					C211.3,222,209,224.3,205.8,224.3 M205.8,213.9c-2.1,0-3.2,1.8-3.2,4.3c0,2.4,1.1,4.3,3.2,4.3c2.2,0,3.3-1.8,3.3-4.3
					C209.1,215.7,207.9,213.9,205.8,213.9"/>
				<path class="st1" d="M216.4,217.1v7h-2.2l0-11.9h1.8l0.4,2.4c0.9-1.3,2.2-2.6,4.2-2.7l0.4,2.1
					C218.9,214.2,217.2,215.5,216.4,217.1"/>
				<path class="st1" d="M232.8,224.3c-2.1,0-3.5-0.7-3.5-3.1v-7.1h-1.8v-1.8h1.8v-4l2.2-0.3v4.3h2.6l0.3,1.8h-2.9v6.6
					c0,1,0.4,1.5,1.6,1.5c0.4,0,0.7,0,1-0.1l0.3,1.9C234.1,224.2,233.6,224.3,232.8,224.3"/>
				<path class="st1" d="M244.7,224.1v-8c0-1.2-0.5-2.1-1.8-2.1c-1.2,0-2.4,0.7-3.5,1.9l0,8.2h-2.2v-17.5l2.2-0.4v7.7
					c1-0.9,2.4-1.8,4.1-1.8c2.3,0,3.5,1.3,3.5,3.5v8.6L244.7,224.1L244.7,224.1z"/>
				<path class="st1" d="M260.1,218.4h-8.2c0.1,2.7,1.4,4.1,3.5,4.1c1.8,0,3-0.7,4.3-1.7l0.3,2c-1.3,1-2.8,1.6-4.8,1.6
					c-3.1,0-5.5-1.8-5.5-6.2c0-3.8,2.3-6.1,5.3-6.1c3.5,0,5.1,2.7,5.1,5.9L260.1,218.4L260.1,218.4z M255,213.7c-1.4,0-2.6,1-2.9,3
					h5.8C257.6,214.8,256.7,213.7,255,213.7"/>
				<path class="st1" d="M278.7,212.1l0.3,2l-2.3,0.2c0.3,0.5,0.4,1.2,0.4,1.8c0,2.5-2.1,4.1-4.6,4.1c-0.3,0-0.6,0-0.9-0.1
					c-0.4,0.2-0.6,0.5-0.6,0.7c0,0.4,0.4,0.5,2.5,0.9l0.9,0.1c2.5,0.4,4.1,1.3,4.1,3.1c0,2.5-2.7,3.6-5.8,3.6c-3.1,0-5.6-1-5.6-3
					c0-1.2,0.9-2.1,2.5-3c-0.5-0.4-0.7-0.8-0.7-1.3c0-0.6,0.4-1.2,1.3-1.6c-1.3-0.7-2.2-1.9-2.2-3.5c0-2.6,2.1-4.1,4.6-4.1
					c1.2,0,2.3,0.4,3.1,1L278.7,212.1z M269.3,225.4c0,1,1.3,1.6,3.5,1.6c2.4,0,3.6-0.8,3.6-1.8c0-0.7-0.6-1.2-2.3-1.5l-1.4-0.2
					c-0.7-0.1-1-0.2-1.5-0.3C269.9,223.9,269.3,224.6,269.3,225.4 M272.6,213.6c-1.5,0-2.4,1.1-2.4,2.6c0,1.3,1,2.4,2.4,2.4
					c1.5,0,2.5-1.1,2.5-2.5C275.1,214.7,274.1,213.6,272.6,213.6"/>
				<path class="st1" d="M283.4,217.1v7h-2.2v-11.9h1.8l0.4,2.4c0.9-1.3,2.2-2.6,4.2-2.7l0.4,2.1
					C285.9,214.2,284.2,215.5,283.4,217.1"/>
				<path class="st1" d="M299.4,218.4h-8.1c0.1,2.7,1.4,4.1,3.5,4.1c1.8,0,3-0.7,4.3-1.7l0.3,2c-1.3,1-2.8,1.6-4.8,1.6
					c-3.1,0-5.5-1.8-5.5-6.2c0-3.8,2.3-6.1,5.3-6.1c3.5,0,5.1,2.7,5.1,5.9V218.4z M294.3,213.7c-1.4,0-2.6,1-2.9,3h5.8
					C296.9,214.8,296,213.7,294.3,213.7"/>
				<path class="st1" d="M309.5,224.1l-0.2-1.6c-1,1-2.3,1.8-4.2,1.8c-2.1,0-3.5-1.3-3.5-3.3c0-2.9,2.6-4.1,7.6-4.6v-0.5
					c0-1.5-0.9-2-2.3-2c-1.5,0-2.9,0.4-4.1,1l-0.3-1.9c1.4-0.6,2.8-1,4.6-1c2.9,0,4.3,1.2,4.3,3.8v8.3H309.5z M309.1,218.1
					c-4.4,0.4-5.4,1.6-5.4,2.8c0,1,0.7,1.6,1.8,1.6c1.3,0,2.6-0.7,3.5-1.7L309.1,218.1L309.1,218.1z"/>
				<path class="st1" d="M318.9,224.3c-2.1,0-3.5-0.7-3.5-3.1v-7.1h-1.8v-1.8h1.8v-4l2.2-0.3v4.3h2.6l0.3,1.8h-2.9v6.6
					c0,1,0.4,1.5,1.6,1.5c0.4,0,0.7,0,1-0.1l0.3,1.9C320.2,224.2,319.7,224.3,318.9,224.3"/>
				<path class="st1" d="M332.9,218.4h-8.2c0.1,2.7,1.4,4.1,3.5,4.1c1.8,0,3-0.7,4.3-1.7l0.3,2c-1.3,1-2.8,1.6-4.8,1.6
					c-3.1,0-5.5-1.8-5.5-6.2c0-3.8,2.3-6.1,5.3-6.1c3.5,0,5.1,2.7,5.1,5.9L332.9,218.4L332.9,218.4z M327.7,213.7
					c-1.4,0-2.6,1-2.9,3h5.8C330.3,214.8,329.5,213.7,327.7,213.7"/>
				<path class="st1" d="M338,217.1l0,7h-2.2v-11.9h1.8l0.4,2.4c0.9-1.3,2.2-2.6,4.2-2.7l0.4,2.1C340.5,214.2,338.8,215.5,338,217.1
					"/>
				<path class="st1" d="M360.5,212.1l0.3,2l-2.3,0.2c0.3,0.5,0.4,1.2,0.4,1.8c0,2.5-2.1,4.1-4.6,4.1c-0.3,0-0.6,0-0.9-0.1
					c-0.4,0.2-0.6,0.5-0.6,0.7c0,0.4,0.4,0.5,2.5,0.9l0.9,0.1c2.5,0.4,4.1,1.3,4.1,3.1c0,2.5-2.7,3.6-5.8,3.6c-3.1,0-5.6-1-5.6-3
					c0-1.2,0.9-2.1,2.5-3c-0.5-0.4-0.7-0.8-0.7-1.3c0-0.6,0.4-1.2,1.3-1.6c-1.3-0.7-2.2-1.9-2.2-3.5c0-2.6,2.1-4.1,4.6-4.1
					c1.2,0,2.3,0.4,3.1,1L360.5,212.1z M351,225.4c0,1,1.3,1.6,3.5,1.6c2.3,0,3.6-0.8,3.6-1.8c0-0.7-0.6-1.2-2.3-1.5l-1.4-0.2
					c-0.7-0.1-1-0.2-1.5-0.3C351.7,223.9,351,224.6,351,225.4 M354.3,213.6c-1.5,0-2.4,1.1-2.4,2.6c0,1.3,1,2.4,2.4,2.4
					c1.5,0,2.5-1.1,2.5-2.5C356.8,214.7,355.8,213.6,354.3,213.6"/>
				<path class="st1" d="M367.5,224.3c-3.2,0-5.5-2.3-5.5-6.1c0-3.9,2.3-6.2,5.5-6.2s5.6,2.3,5.6,6.2
					C373.1,222,370.8,224.3,367.5,224.3 M367.5,213.9c-2.1,0-3.2,1.8-3.2,4.3c0,2.4,1.1,4.3,3.2,4.3c2.2,0,3.3-1.8,3.3-4.3
					C370.9,215.7,369.7,213.9,367.5,213.9"/>
				<path class="st1" d="M380.8,224.3c-3.2,0-5.5-2.3-5.5-6.1c0-3.9,2.3-6.2,5.5-6.2s5.6,2.3,5.6,6.2
					C386.3,222,384,224.3,380.8,224.3 M380.8,213.9c-2.1,0-3.2,1.8-3.2,4.3c0,2.4,1.1,4.3,3.2,4.3c2.2,0,3.3-1.8,3.3-4.3
					C384.1,215.7,382.9,213.9,380.8,213.9"/>
				<path class="st1" d="M397.5,224l-0.3-1.7c-0.9,1-2.1,2-3.9,2c-2.6,0-4.7-1.8-4.7-5.8c0-4.3,2.5-6.4,5.5-6.4c1.2,0,2.3,0.2,3,0.5
					v-6.1l2.2-0.4l0,17.9L397.5,224L397.5,224z M396.9,214.6c-1-0.4-1.6-0.7-2.9-0.7c-1.9,0-3.2,1.5-3.2,4.4c0,2.6,1.2,4,2.8,4
					c1.4,0,2.4-0.8,3.4-2.1L396.9,214.6L396.9,214.6z"/>
			</g>
			<rect x="402.6" y="221.1" class="st1" width="2.5" height="2.9"/>
			<g>
				<path class="st1" d="M203.8,40.6l-3.3-4.4c-1.4-1.9-2.4-2.4-4.2-2.5l-0.4-0.1v20.3l3.3,0.9v0.6h-12.1v-0.6l3.3-0.9l0-20.3
					l-0.6,0.1c-1.8,0.1-2.7,0.6-4.1,2.5l-3.4,4.4l-0.7-0.1l1-8l21.1,0l1,8L203.8,40.6z"/>
			</g>
			<polygon class="st1" points="224.1,33.8 221.4,33 221.4,32.4 232.8,32.4 232.8,33 229.6,33.8 229.6,53.9 232.8,54.8 232.8,55.4 
				221.4,55.4 221.4,54.8 224.1,53.9 224.1,44.2 214.8,44.2 214.8,53.9 217.5,54.8 217.5,55.4 206.1,55.4 206.1,54.8 209.3,53.9 
				209.3,33.8 206.1,33 206.1,32.4 217.5,32.4 217.5,33 214.8,33.8 214.8,42.6 224.1,42.6 			"/>
			<g>
				<path class="st1" d="M254.8,40.2l-0.7,0.1l-2.9-4c-1.3-1.8-2.2-2.5-4.8-2.6l-3.3-0.1l0,9.6h1.3c2.1,0,2.9-0.7,3.8-2.9l0.4-1.2
					h0.7v9.7h-0.7l-0.4-1.1c-0.9-2.2-1.7-2.9-3.8-2.9h-1.3v9.4l4.5-0.2c2.1-0.1,3.2-0.9,4.4-2.4l2.9-3.8l0.7,0.1l-0.7,7.4l-20.6,0
					v-0.6l3.2-0.9l0-20.1l-3.2-0.9v-0.6l19.8,0L254.8,40.2z"/>
				<path class="st1" d="M220.5,80.8c-4.3-8.4-9-13-15-13c-6.3,0-12.4,5.5-12.4,19.5c0,14,7,20.1,15.7,20.1c2.1,0,4-0.5,5.6-1.2V93
					l-5.7-1.5v-1.1l18.7,0v1.1l-4.6,1.5l0,16.9l-0.9,0.3l-5.5-3.2c-3.2,2.1-6.9,3.6-11.6,3.6c-12.2,0-21.4-9.1-21.4-22.1
					c0-12.5,10-23,23.8-23c3.5,0,7.7,0.7,10.2,2.1l2.7-2.3h1.1l0.5,15.4L220.5,80.8z"/>
				<path class="st1" d="M229.6,81.1l0-0.7l11.3-2.7l0.3,0.2l0,29.2l4.3,1.4v1l-16.2,0v-1l4.5-1.4l0-23L229.6,81.1z M237.8,63.4
					c2.6,0,4.4,1.9,4.4,4.4c0,2.6-2.1,4.9-4.9,4.9c-2.5,0-4.4-1.8-4.4-4.4C232.9,65.8,235.1,63.4,237.8,63.4"/>
			</g>
			<polygon class="st1" points="265.8,101.1 266.1,101.1 269.5,92.4 273.1,82 269.1,79.9 269.1,79 281.1,79 281.1,79.9 276.5,82.1 
				264.5,110.3 262.4,110.3 250.2,81.5 246,79.9 246,79 262.8,79 262.8,79.9 258.3,81.5 			"/>
			<g>
				<path class="st1" d="M281.7,81.1v-0.7l11.3-2.7l0.3,0.2l0,29.2l4.3,1.4v1l-16.2,0v-1l4.5-1.4v-23L281.7,81.1z M289.8,63.4
					c2.6,0,4.4,1.9,4.4,4.4c0,2.6-2.1,4.9-4.9,4.9c-2.5,0-4.4-1.8-4.4-4.4C285,65.8,287.1,63.4,289.8,63.4"/>
				<path class="st1" d="M331.5,107.2l4.3,1.4v1l-15.5,0v-1l3.8-1.4v-17c0-4.4-1.4-7-5.6-7c-2.6,0-4.4,0.4-6.9,1.7v22.4l3.8,1.4v1
					H300v-1l4.3-1.4v-23l-4.3-3v-0.7l11-2.7l0.3,0.2l-0.1,5.5l0.3,0.1c4.1-3.8,8-5.7,11.7-5.7c6.2,0,8.4,4.6,8.4,9.4L331.5,107.2
					L331.5,107.2z"/>
				<path class="st1" d="M352.1,98.5c-2.1,0-4-0.4-5.5-1c-0.7,1-1.1,2.7-1.1,3.8c0,1.8,1.3,2.5,4.5,2.6l8.6,0.1
					c7.2,0.1,10.5,2.9,10.5,7.7c0,5.3-6.6,11.8-18.1,11.8c-9.1,0-14.2-3.5-14.2-7.4c0-2.6,2.5-5.2,7.4-6.6l-0.1-0.4
					c-2.8-0.7-4.2-2.3-4.2-4.3c0-2.1,1.5-4.6,5.4-7.7v-0.4c-3.7-1.7-6.2-4.6-6.2-8.6c0-6.2,5.9-10.3,13.4-10.3
					c3.5,0,6.6,0.8,8.8,2.4c3.2-2.2,5.7-3.7,8.1-3.7c2.6,0,3.9,1.6,3.9,3.5c0,1.9-1.5,3.6-3.5,3.6s-3.3-1.3-3.5-3.1l-3.6,0.5
					l-0.1,0.4c1.8,1.7,2.7,3.8,2.7,6.3C365.2,94.1,359.8,98.5,352.1,98.5 M356.5,110.1l-11-0.1c-1.4,1-2.3,2.9-2.3,4.9
					c0,3.8,3.3,6.6,10.3,6.6c6.2,0,9.7-2.9,9.7-6.4C363.3,112.3,361.4,110.3,356.5,110.1 M351.9,79.7c-3.4,0-5.3,2.2-5.3,8.5
					c0,6.6,2,8.6,5.8,8.6c3.3,0,5.2-3.6,5.2-8.6C357.6,83.2,355.7,79.7,351.9,79.7"/>
			</g>
			<polygon class="st1" points="205.1,162.5 205.1,163.7 183.5,163.7 183.5,162.5 189.9,161.1 189.9,123.1 183.5,121.7 183.5,120.5 
				205.1,120.5 205.1,121.7 198.6,123.1 198.6,161.1 			"/>
			<g>
				<path class="st1" d="M240.7,161.3l4.3,1.4v1h-15.5v-1l3.8-1.4v-17c0-4.4-1.4-7-5.6-7c-2.6,0-4.4,0.4-6.9,1.7l0,22.3l3.8,1.4v1
					h-15.5v-1l4.3-1.4l0-23l-4.3-3v-0.7l11-2.7l0.3,0.2l-0.1,5.5l0.3,0.1c4.1-3.8,8-5.7,11.7-5.7c6.2,0,8.4,4.6,8.4,9.4L240.7,161.3
					L240.7,161.3z"/>
				<path class="st1" d="M258,164.8c-3.8,0-7-0.6-10.2-1.8l-0.1-8.9l1.4-0.1c3.7,6.4,6.5,8.8,10.2,8.8c3.2,0,5.2-2.1,5.2-5.2
					c0-3.5-3.6-4.9-7.5-6.4c-4.3-1.8-8.9-3.8-8.9-9.5c0-5.3,4.8-9.6,11.8-9.6c2.7,0,6.4,0.5,8.3,1.2l0.2,8l-1.3,0.4
					c-3.4-5.5-5.5-7.6-8.7-7.6c-2.9,0-4.6,1.9-4.6,4.3c0,3.5,3.7,4.9,7.6,6.5c4.3,1.8,9,3.8,9,9.5
					C270.3,160.8,264.7,164.8,258,164.8"/>
				<path class="st1" d="M284.5,164.5c-5.4,0-7.2-2.7-7.2-7.5l0-20.3h-5.1v-1l6.3-4.9l5-6.4h1v8.8H295v3.5h-10.4l0,17.5
					c0,2.7,0.4,4.3,1.8,5.3c1.2,0.8,2.7,1.1,5,1.1c1.1,0,2.5-0.1,3.8-0.1l0.1,1C292.6,163.1,288.2,164.5,284.5,164.5"/>
				<path class="st1" d="M296.8,135.2v-0.7l11.3-2.7l0.3,0.2v29.2l4.3,1.4v1h-16.2v-1l4.5-1.4v-23L296.8,135.2z M304.9,117.5
					c2.6,0,4.4,1.9,4.4,4.4c0,2.6-2.1,4.9-4.9,4.9c-2.5,0-4.4-1.8-4.4-4.4C300,119.9,302.1,117.5,304.9,117.5"/>
				<path class="st1" d="M326.2,164.5c-5.4,0-7.2-2.7-7.2-7.5l0-20.3h-5.1v-1l6.3-4.9l5-6.4h1v8.8h10.4v3.5h-10.4l0,17.5
					c0,2.7,0.4,4.3,1.8,5.3c1.2,0.8,2.7,1.1,5,1.1c1.1,0,2.5-0.1,3.8-0.1l0.1,1C334.2,163.1,329.9,164.5,326.2,164.5"/>
				<path class="st1" d="M373.3,161.4v0.7l-11,2.7l-0.3-0.1l0.1-5.4l-0.3-0.2c-4.1,3.8-8,5.7-11.6,5.7c-6.3,0-8.5-4.6-8.5-9.4v-17.5
					l-4.2-2.5v-0.7l11.3-2.7l0.3,0.2v20.4c0,4.5,1.4,7,5.7,7c2.6,0,4.3-0.4,6.9-1.6l0-20.2l-4.2-2.5v-0.7l11.3-2.7l0.3,0.2l0,27.4
					L373.3,161.4z"/>
				<path class="st1" d="M386.3,164.5c-5.4,0-7.2-2.7-7.2-7.5v-20.3h-5.1v-1l6.3-4.9l5-6.4h1l0,8.8h10.5v3.5h-10.4l0,17.5
					c0,2.7,0.4,4.3,1.8,5.3c1.2,0.8,2.7,1.1,5,1.1c1.1,0,2.5-0.1,3.8-0.1l0.1,1C394.4,163.1,390,164.5,386.3,164.5"/>
				<path class="st1" d="M406.5,146c0,8.6,2.5,14.2,10.2,14.2c3.5,0,6.3-0.7,10.3-2.1l0.4,0.8c-4.2,3.6-8.8,5.8-13.3,5.8
					c-9.4,0-15.6-6.3-15.6-15.8c0-9.7,7.4-16.9,15.8-16.9c9.1,0,13.4,6,13.3,14L406.5,146L406.5,146z M420.2,143.8
					c-0.3-6.3-2.1-9.8-6.2-9.8c-4,0-7.1,4.1-7.4,10.4L420.2,143.8z"/>
			</g>
			<g>
				<path class="st1" d="M77.8,213.5L77.8,213.5c1.3-0.6,1.5-1.7,1.5-2.6c0-1.1-0.4-1.9-1.1-2.4c-0.7-0.5-1.9-0.6-2.6-0.6
					c-0.3,0-0.6,0-0.9,0c0,0.7-0.1,1.8-0.1,3c0,1.1,0,2.1,0,3.1C76.2,213.9,77.3,213.7,77.8,213.5z"/>
				<path class="st1" d="M78.8,215.1c-0.7-0.4-1.7-0.7-3-0.7c-0.3,0-0.7,0-1.1,0.1c0,1.7,0,3.7,0,4.6v0c0,2,1.5,2.4,2.6,2.4
					c1.6,0,3.2-1.2,3.2-3.6C80.5,216.7,79.9,215.8,78.8,215.1z"/>
				<path class="st1" d="M0,198.9l0,32.4l125.1,0l0-32.4L0,198.9z M31.1,207.8l-0.1,0c-2,0.3-2.3,0.7-2.4,3.3c0,1.4-0.1,2.2-0.1,3.5
					c0,1.5,0,3.8,0,4.5c0,2,0.7,2.2,2.4,2.4l0.2,0v0.5h-8.1v-0.5l0.3,0c1.3-0.2,2.3-0.3,2.3-2.4c0-0.6,0.1-2.6,0.1-4.4
					c0-0.5,0-1.2,0-1.9c0-1.2,0-2.5,0-3.5c-0.5,1-0.9,2-1.4,3.1c-1.2,2.5-2.5,5.3-4.4,9.6l0,0.1h-0.6l-5.7-12.6c0,0.5,0,1,0,1.6
					c0,1.3,0,2.9,0,3.6c0,0.8,0,1.6,0,2.2c0,0.5,0,1,0,1.3c0,2.3,0.6,3.2,2.4,3.3l0.2,0v0.5h-5.9l0-0.5l0.1,0
					c1.8-0.3,2.4-0.8,2.4-3.6c0-0.9,0-2.3,0-3.3c0-1.2,0-2.2,0-3.3l0-0.2c0-2.9-0.3-2.9-2.1-3.3l-0.1,0v-0.5h5.3l0,0.1
					c0.1,0.3,0.4,1.3,0.7,1.9l2.9,6.5c0.3,0.6,0.6,1.5,1.1,2.4c2.1-4.4,3.5-7.5,5-10.9l0-0.1h5.4V207.8z M46.1,222l-14.3,0v-0.5
					l0.1,0c1.7-0.2,2.7-0.6,2.8-2.9c0-0.3,0-0.6,0-0.9c0-0.9,0-1.9,0-3l0-4.1c0-2.4-0.6-2.4-2.2-2.7l-0.2,0v-0.5h12.8l0.2,3.7h-0.6
					l0-0.1c-0.6-2.3-2-3.1-5.3-3.1c-0.4,0-1.2,0-1.9,0c0,1.5,0,4.5,0,5.7l0,0.3c2.6,0,3.8-0.8,3.8-2.5l0-0.2H42l0,6h-0.6l0-0.1
					c-0.3-2.5-1.5-2.6-3.8-2.7c0,0.3,0,0.6,0,0.9c0,0.3,0,0.6,0,0.9c0,0.9,0,1.5,0.1,2.1c0.1,1,0.2,1.5,0.6,2.1
					c0.6,0.7,2.2,0.8,3.1,0.8c2.7,0,3.5-1.2,4.2-3.9l0-0.1h0.6L46.1,222z M68.2,207.8l-0.1,0c-2,0.3-2.3,0.7-2.4,3.3
					c0,1.4-0.1,2.2-0.1,3.5c0,1.5,0,3.8,0,4.5c0,2,0.7,2.2,2.4,2.4l0.2,0v0.5h-8.1v-0.5l0.3,0c1.3-0.2,2.3-0.3,2.3-2.4
					c0-0.6,0.1-2.6,0.1-4.4c0-0.5,0-1.2,0-1.9c0-1.2,0-2.5,0-3.5c-0.5,1-0.9,2-1.4,3.1c-1.2,2.5-2.5,5.3-4.4,9.6l0,0.1h-0.6l0-0.1
					l-5.7-12.5c0,0.5,0,1,0,1.6c0,1.3,0,2.9,0,3.6c0,0.8,0,1.6,0,2.2c0,0.5,0,1,0,1.3c0,2.3,0.6,3.2,2.4,3.3l0.2,0v0.5h-5.9v-0.5
					l0.1,0c1.8-0.3,2.4-0.8,2.4-3.6c0-0.9,0-2.3,0-3.3c0-1.2,0-2.2,0-3.3l0-0.2c0-2.9-0.3-2.9-2.1-3.3l-0.1,0v-0.5l5.3,0l0,0.1
					c0.1,0.3,0.4,1.3,0.7,1.9l2.9,6.5c0.3,0.6,0.6,1.5,1.1,2.4c2.1-4.4,3.5-7.5,5-10.9l0-0.1h5.4V207.8z M81.8,221.3
					c-1.3,0.7-3,0.8-4.4,0.8c-1.1,0-2.1,0-2.8-0.1c-0.6,0-1,0-1.4,0h-4v-0.5l0.1,0c1.9-0.3,2.4-0.6,2.5-2.8c0-0.9,0.1-2.8,0.1-4.1
					c0-1.3,0-2.6,0-3.7c-0.1-2.4-0.4-2.8-2.2-3.1l-0.1,0v-0.5h3.3c0.5,0,1.1,0,1.7,0c0.7,0,1.3,0,2.1,0c1.7,0,2.9,0.2,3.9,0.7
					c1.4,0.7,2,1.6,2,2.9c0,1.5-0.9,2.6-2.7,3.1c2.5,0.4,4,1.9,4,4.1C83.8,219.5,83.1,220.6,81.8,221.3z M98.8,222H84.6v-0.5l0.1,0
					c1.7-0.2,2.7-0.6,2.8-2.9c0-0.3,0-0.6,0-0.9c0-0.9,0-1.9,0-3l0-4.1c0-2.4-0.6-2.4-2.2-2.7l-0.2,0v-0.5h12.8l0.2,3.7h-0.6l0-0.1
					c-0.6-2.3-2-3.1-5.3-3.1c-0.4,0-1.2,0-1.9,0c0,1.5,0,4.5,0,5.7l0,0.3c2.6,0,3.8-0.8,3.8-2.5l0-0.2h0.6l0,6h-0.6l0-0.1
					c-0.3-2.5-1.5-2.6-3.8-2.7c0,0.3,0,0.6,0,0.9c0,0.3,0,0.6,0,0.9c0,0.9,0,1.5,0.1,2.1c0.1,1,0.2,1.5,0.6,2.1
					c0.6,0.7,2.2,0.8,3.1,0.8c2.7,0,3.5-1.2,4.2-3.9l0-0.1H99L98.8,222z M113.7,222.1h-1.5c-1.5-2.5-2.2-6.5-6.6-7.1l0,0.1
					c0,0.7,0,1.3,0,1.7c0,0.5,0,1.4,0,2.2c0,2.1,1.2,2.3,2.6,2.4l0.2,0v0.5h-8.5v-0.5l0.3-0.1c1.8-0.4,2.5-0.5,2.5-2.7
					c0.1-1.6,0.1-3,0.1-4.2c0-0.7,0-1.3,0-1.9c0-0.6,0-1.1,0-1.6c0-2.8-0.6-3.1-2.4-3.3l-0.1,0v-0.5l0.2,0c0.9,0,1.7,0,2.4,0
					c1.2,0,2.4,0,4.1,0c1.6,0,3.2,0,4.5,0.6c1.4,0.7,2.2,1.8,2.2,3.2c0,1.8-1.3,3.1-3.6,3.6c0,0,0.1,0,0.1,0c1.9,0,4.2,2.9,5.4,5.7
					c0.2,0.5,0.7,0.7,0.9,0.8c0.6,0.1,1.1,0.1,1.1,0.1l0,0.1l0,0v0.1l0,0.5H113.7z"/>
				<path class="st1" d="M109.2,208.5c-0.9-0.6-2.3-0.7-2.9-0.7c-0.3,0-0.5,0-0.7,0c0,0.7-0.1,1.9-0.1,3c0,1.1,0,2.5,0,3.6h0.5
					c1.4,0,2.4-0.1,3.3-0.8c0.7-0.5,1.1-1.4,1.1-2.5C110.5,209.9,110.1,209.1,109.2,208.5z"/>
			</g>
		</g>
	</g>
</g>
<g id="Layer_3">
</g>
<g id="Layer_2">
</g>
<g id="Layer_4">
</g>
</svg>
