<?xml version="1.0" encoding="utf-8"?>
<!-- Generator: Adobe Illustrator 28.2.0, SVG Export Plug-In . SVG Version: 6.00 Build 0)  -->
<svg version="1.1" id="Layer_1" xmlns="http://www.w3.org/2000/svg" xmlns:xlink="http://www.w3.org/1999/xlink" x="0px" y="0px"
	 viewBox="0 0 138.8 17.3" style="enable-background:new 0 0 138.8 17.3;" xml:space="preserve">
<style type="text/css">
	.st0{fill:#E46227;}
</style>
<g id="layer">
	<g id="Group_2038" transform="translate(-21.229 0)">
		<g>
			<g id="Group_1972" transform="translate(21.229 0)">
				<path id="Path_13612" class="st0" d="M138.3,4.1c0.1,0,0.2-0.1,0.3-0.1s0.2-0.1,0.3-0.1c-0.2,0-0.4,0-0.5,0s-0.2,0-0.4,0
					c-0.8-0.2-1.5-0.4-2.3-0.6c0.4-0.2,0.5-0.7,0.2-1c0-0.1,0-0.1,0-0.1c0.1-0.1,0.2-0.1,0.3-0.1c-0.8,0-1.6-0.1-2.3-0.3
					c0.3-0.4,0-0.7-0.7-1c-0.7-0.1-1.5-0.3-2.3-0.3c-0.1,0-0.1-0.1-0.1-0.1c-0.1-0.1-0.5-0.2-1-0.3c-1.1-0.1-2.1-0.1-3.2-0.1
					c-1.3,0.1-2.7,0.1-4,0.2c-0.9,0-1.7,0.1-2.6,0.1c-1.3,0.1-2.6,0.1-4,0.2c-1.7,0.1-3.4,0.1-5.1,0.3c-1.3,0.1-2.6,0.1-4,0.2
					c-1.7,0.1-3.5,0.2-5.2,0.3c-4.5,0.2-8.9,0.5-13.3,0.8l-8.7,0.6c-0.3,0-0.6,0.1-1,0.1C77,3,75.3,3.2,73.6,3.3
					c-1.6,0.1-3.3,0.2-4.9,0.4c-0.9,0-1.7,0.1-2.6,0.1C64.7,4,63.3,4.1,62,4.2c-1.5,0.1-2.9,0.2-4.4,0.4c-0.1,0-0.2,0-0.3,0
					c-1.1,0.1-2.1,0.2-3.2,0.3c-1.2,0.1-2.5,0.2-3.7,0.3c-2.2,0.2-4.3,0.4-6.5,0.6c-2,0.1-4,0.4-6.1,0.5c-0.4,0-0.7,0.1-1.1,0.1
					c0.2-0.1,0.6-0.1,0.6-0.1c-0.1,0-0.2,0-0.3,0c-1.3,0.1-2.6,0.2-3.9,0.4l-0.7,0.1l-2.2,0.2c-1.2,0.1-2.4,0.2-3.6,0.4
					c-1.2,0.1-2.4,0.2-3.6,0.4c-1.4,0.1-2.8,0.3-4.1,0.4c-0.8,0.1-1.6,0.1-2.4,0.2c-1.6,0.1-3.2,0.2-4.7,0.4c-0.2,0-0.3,0-0.5,0.1
					c-1,0.1-2.1,0.1-3.1,0.2c-0.5,0-1,0.1-1.5,0.1C5.5,9.1,4.1,9.3,2.8,9.7c-0.1,0-0.1,0.1-0.1,0.1c-0.3,0.2-0.6,0.4-0.9,0.5
					c-0.2,0.1-0.4,0.4-0.4,0.5c0,0.1,0,0.1,0,0.2c0,0.1-0.1,0.1-0.1,0.1c-0.7,0.3-0.6,0.5-0.9,0.8l0,0.1c0,0.1,0.1,0.2,0.2,0.3
					c0,0.1,0.1,0.1,0.2,0.1c0.2,0.1,0.3,0.1,0.2,0.2c0,0.1,0,0.1,0.1,0.1c0.3,0.1,0.6,0.2,0.9,0.3c0.3,0.1,0.5,0.1,0.6,0.3
					c0,0.1,0.2,0.1,0.6,0.1c0.1,0,0.2,0,0.3,0c0.3,0.1-0.2,0.1-0.2,0.3c0,0.1,0.5,0.1,0.7,0.1c-0.1,0.1-0.1,0.1-0.1,0.1
					c0.3,0.1,0.6,0.1,0.8,0.1c0.1,0,0.3,0,0.3,0.1c-0.1,0-0.1,0-0.2,0.1c-0.1,0-0.2,0.1-0.2,0.1c0.3,0,0.6,0,0.9,0.1
					c0.4,0.1,0.8,0.1,1.2,0.1l-0.1,0.1c0.5,0,1,0,1.4-0.1c0.1,0,0.3,0,0.4,0.1L7.3,15c0.1,0,0.1,0.1,0.1,0.1c0.4,0,0.8-0.1,1.4-0.1
					c-0.4,0.1-0.6,0.1-0.9,0.2c0.1,0,0.2,0.1,0.3,0.1c0.5-0.1,1-0.1,1.5-0.1c-0.2,0.1-0.5,0.2-0.7,0.2c-0.1,0-0.2,0.1-0.2,0.1
					c0.5,0,1.1,0,1.6-0.1c1-0.1,1.9-0.2,2.9-0.4c0.3,0,0.6-0.1,0.9-0.1c0.6-0.1,1.1-0.1,1.7-0.2c1.2-0.1,2.4-0.2,3.6-0.4
					c0.1,0,0.2,0,0.3,0c0.3,0,0.6,0,0.9-0.1c0.7-0.1,1.4-0.1,2.1-0.2c1.2-0.1,2.4-0.2,3.6-0.4c0.7-0.1,1.3-0.1,2-0.2
					c0.8-0.1,1.5-0.1,2.3-0.2c1.1-0.1,2.1-0.2,3.1-0.3c1-0.1,2-0.2,3.1-0.3c1.1-0.1,2.1-0.2,3.2-0.3c0.9-0.1,1.8-0.1,2.7-0.2
					c1.2-0.1,2.4-0.2,3.6-0.3c0.2,0,0.3,0,0.5-0.1c1.3-0.1,2.7-0.3,4-0.4c0.1,0,0.3,0,0.4,0c1.4-0.1,2.8-0.2,4.2-0.4
					c0.6-0.1,1.2-0.1,1.7-0.2c-0.7,0-1.4,0-2.2,0.1c-0.2,0-0.3,0-0.4,0C53.9,11,53.5,11,53,11c-0.9,0.1-1.8,0.1-2.7,0.3
					c-0.7,0.1-1.5,0.1-2.2,0.1c-0.5,0-1.1,0.1-1.6,0.1c-0.1,0-0.2,0-0.4,0c-0.4,0-0.8,0.1-1.2,0.1h-1.3c-0.3,0.1-0.7,0.1-1.1,0.1
					c-0.5,0-1,0.1-1.5,0.1c-0.1-0.1-0.2-0.1-0.3-0.1c-0.1,0-0.2,0-0.3,0C40.3,12,40.2,12,40.2,12c-0.6,0.1-1.3,0.2-1.9,0.2
					c-0.1,0-0.2,0-0.4,0c-0.3,0-0.6,0-0.8,0c-0.1,0-0.1,0-0.2,0c-0.5,0.1-1,0.1-1.5,0.1c-0.4,0-0.9,0.1-1.3,0.1
					c-1,0.1-2.1,0.2-3.2,0.3c-0.1,0-0.2,0-0.3,0c-0.7,0.1-1.5,0.1-2.3,0.2c-0.7,0.1-2,0.1-2.6,0.3c-0.5,0-1.1,0.1-1.6,0.1
					c-0.6,0.1-1.2,0.1-1.8,0.1c-0.8,0.1-1.5,0.1-2.3,0.2C19.6,14,19.1,14,18.7,14c0.3,0,0.5-0.1,0.6-0.1c0.5-0.1,1.1-0.1,1.6-0.1
					c0.6-0.1,1.2-0.1,1.8-0.2c0.7-0.1,1.4-0.1,2.1-0.1c0.5-0.1,1-0.1,1.6-0.1c0.1,0,0.3-0.1,0.4-0.1c0-0.1,0.1-0.1,0.1-0.1l1.3-0.1
					C28,13,27.9,13,27.8,13s-0.2,0.2-0.4,0.3c0.6,0,1.3-0.1,1.9-0.2l0-0.1c0.5,0,0.9,0,1.3,0c0.1,0,0.2-0.1,0.3-0.1
					c0.5,0,0.9-0.1,1.3-0.1l-0.4-0.2c0.3-0.1,0.5-0.1,0.8-0.1c-0.1,0-0.1,0-0.1,0c-0.5,0-1,0.1-1.5,0.1c-0.2,0-0.4,0.1-0.6,0.1
					c-0.1,0-0.1,0.1-0.2,0.1c-0.1-0.1-0.1-0.1-0.2-0.1h-0.8c0.8-0.1,1.3-0.1,1.9-0.2c0.8-0.1,1.5-0.1,2.3-0.1c0.1,0,0.1,0,0.2,0
					c-0.1,0.1-0.1,0.1-0.2,0.1l-0.7,0.1c-0.1,0.1-0.2,0.1-0.1,0.2c0.2-0.1,0.4-0.1,0.5-0.1c0.1,0.1,0.2,0.1,0.3,0.1
					c0.2,0,0.4-0.1,0.6-0.1c-0.1,0-0.2-0.1-0.4-0.1c0.3,0,0.4-0.1,0.6-0.1c0.5-0.1,1-0.1,1.6-0.1c0.2,0,0.3-0.1,0.2-0.1
					c-0.7,0.1-1.4,0.1-2.1,0.1c-0.1,0-0.1,0-0.2,0c0.2-0.1,0-0.1,0.4-0.1c0.1,0,0.2,0,0.3,0.1c0.7-0.1,1.4-0.1,2.1-0.2
					c0.2,0,0.3,0,0.5-0.1c0.4,0,0.7,0,1-0.1c0.4-0.1,0.8-0.1,1.2-0.1c0.9-0.1,1.8-0.2,2.7-0.2c0.1,0,0.1,0,0.2,0
					c0.5-0.1,1-0.1,1.4-0.1c0.2,0,0.3,0,0.5,0s0.3,0,0.7,0c-0.9,0.1-1.6,0.1-2.4,0.2c-0.6,0.1-1.3,0.1-1.9,0.1
					c-1,0.1-1.9,0.2-2.9,0.2c-0.3,0-0.7,0.1-1,0.1c0.4,0,0.9,0,1.3-0.1c0.3,0,0.5-0.1,0.8-0.1C39.3,12,40,12,40.7,12
					c0.2,0,0.4,0,0.6-0.1c1-0.1,2.1-0.1,3.1-0.2c1.1-0.1,2.2-0.2,3.3-0.3c1-0.1,2.1-0.1,3.1-0.2c0.1,0,0.2,0,0.3,0
					c0.4-0.1,0.9-0.1,1.3-0.1c0.2,0,0.4-0.1,0.6-0.1c0-0.1,0-0.1,0-0.1c-0.9,0.1-1.8,0.1-2.7,0.1c-0.6,0.1-1.2,0.1-1.7,0.1
					c-0.8,0-1.5,0-2.2,0.1c-0.1,0-0.2,0-0.3,0c0.4-0.1,0.8-0.1,1.3-0.1c1.5-0.1,3.1-0.2,4.6-0.4c1-0.1,2.1-0.1,3.1-0.2
					c1-0.1,2-0.1,3.1-0.2c0.6,0,1.2-0.1,1.7-0.1c0.4,0,0.8-0.1,1.2-0.1c0.7-0.1,1.4-0.1,2.1-0.1c0.5,0,1-0.1,1.4-0.1
					c0.3-0.1,0.7-0.1,1.1-0.1c0.8-0.1,1.6-0.1,2.4-0.1c0.2,0,0.3,0,0.5,0c0.8,0,1.6-0.1,2.4-0.1c0.1,0,0.2,0,0.4,0
					c0.3,0,0.6,0,0.9-0.1c1.3-0.1,2.6-0.2,3.8-0.2c0.4,0,0.7,0,1.1,0c0.1,0,0.1,0,0.2,0S77.6,9,77.7,9c0.4,0,0.7,0,1.1,0
					c0.5-0.1,0.9-0.1,1.4-0.1c1.2-0.1,2.5-0.1,3.8-0.2c1.8-0.1,3.7-0.2,5.5-0.4c0.1,0,0.2,0,0.4,0c-0.4,0-0.5,0.1-0.6,0.1
					c-1.8,0.1-3.7,0.2-5.5,0.4c-0.8,0.1-1.5,0.1-2.3,0.1c-0.9,0.1-1.8,0.1-2.8,0.2c-0.1,0-0.2,0-0.3,0c-0.1,0-0.1,0-0.2,0
					c-0.7,0.1-1.4,0.1-2.1,0.1c-0.6,0-1.1,0-1.7,0.1c-0.3,0-0.6,0.1-1,0.1c-0.2,0-0.4,0.1-0.7,0.1c-0.1,0-0.1,0-0.2-0.1l-0.8,0.1
					c-0.2,0-0.3,0.1-0.4,0.1c-0.2,0-0.5-0.1-0.6-0.1c-1.3,0.1-2.6,0.2-3.9,0.3c-0.2,0.1-0.3,0.1-0.2,0.1c0.1,0,0.2,0,0.3,0
					c0.4-0.1,0.9-0.1,1.3-0.1c0.5,0,1-0.1,1.5-0.2l0.4,0.1c0.7-0.1,1.5-0.1,2.3-0.1c0.6-0.1,1.3-0.1,1.9-0.1c0.2,0,0.4,0,0.5,0
					c0.6,0,1.1,0,1.7-0.1c0.4-0.1,0.8-0.1,1.2-0.1c0.3,0,0.6,0,0.9-0.1c0.9-0.1,1.8-0.1,2.7-0.1c0.9-0.1,1.9-0.1,2.8-0.1
					c0.2,0,0.5-0.1,0.8,0C84.2,8.9,83.5,9,82.7,9c1.3-0.1,2.7-0.1,4-0.2c0.5,0,1-0.1,1.6-0.1c1.4-0.1,2.8-0.2,4.3-0.2
					c1-0.1,1.9-0.1,2.9-0.2c0.2,0,0.5,0,0.7,0c0.3,0,0.5-0.1,0.9-0.1c0.5,0,1-0.1,1.5-0.1C99.2,8,99.9,8,100.5,8
					c0.7-0.1,1.4-0.1,2.1-0.1c0.5,0,1,0,1.5-0.1c0.4,0,0.7-0.1,1.1-0.1s0.8,0,1.2-0.1c0.3,0,0.7,0,1,0s0.7-0.1,1-0.1
					c0.6,0,1.1,0,1.7,0c0.5,0,1-0.1,1.6-0.1c1,0.1,2-0.1,2.9,0c0.2-0.1,0.4-0.1,0.5-0.1c0.2,0,0.4,0.1,0.6,0c0.3,0,0.6,0,0.9,0
					c0.9-0.1,1.8,0,2.7-0.1c0.1,0,0.2,0,0.4,0c0.3,0,0.5,0,0.9,0c0.2,0.1,0.4,0.1,0.6,0.1c0.3,0.1,0.7,0.2,1.1,0.2
					c0.2,0.1,0.3,0.2,0.4,0.3c-0.1,0-0.2,0.1-0.2,0.1c0.2,0.1,0.4,0.1,0.7,0.1c0.2-0.1,0.4-0.1,0.6-0.1c0.1,0.1,0.3,0.1,0.7,0.2
					c0.3-0.1,0.7-0.1,0.7-0.3c-0.1,0-0.1-0.1-0.2-0.1l0.5-0.4c0.1,0.1,0.3,0.1,0.4,0.1c0.8-0.1,1.5-0.1,2.2-0.4c0.4,0,0.8,0,1.1,0
					s0.7,0,1,0c0.8-0.1,1.7-0.1,2.5-0.1c0.6-0.1,1.2-0.1,1.8-0.1c0.2,0,0.4-0.1,0.6-0.1c-0.2,0-0.3,0-0.5,0c0.5-0.1,1-0.1,1.5-0.1
					c-0.8-0.1-1.8,0-2.7-0.1c0.8,0,1.6-0.1,2.3-0.1c0-0.1,0.1-0.1,0.2-0.1c-0.4,0-0.7,0-1.1-0.1l1.3-0.1c0.5-0.1,1-0.3,1.4-0.5
					c-0.1,0-0.1-0.1-0.2-0.1c0.2-0.1,0.3-0.1,0.5-0.3c0.2-0.1,0.4-0.1,0.6-0.3c0.1-0.1,0.2-0.1,0.2-0.2
					C138.9,4.6,138.7,4.3,138.3,4.1C138.3,4.2,138.3,4.2,138.3,4.1 M12.8,14.8L12.8,14.8c0.2,0,0.3-0.1,0.5-0.1l0,0
					C13.2,14.8,13,14.8,12.8,14.8 M16.2,13.9L16.2,13.9c-0.1,0-0.2,0.1-0.3,0.1l0,0C15.9,13.9,16.1,13.9,16.2,13.9 M14.3,14.6
					c-0.1,0-0.1,0-0.2,0C14.2,14.6,14.3,14.6,14.3,14.6c0-0.1,0.1,0,0.3-0.1C14.5,14.6,14.4,14.6,14.3,14.6 M15.3,14.5
					c0.6-0.1,1.1-0.1,1.7-0.1C16.5,14.4,15.9,14.5,15.3,14.5 M17.9,14.3L17.9,14.3l0.3-0.1l0,0C18.1,14.3,18,14.3,17.9,14.3
					 M20.2,13.5c-0.4,0-0.8,0.1-1.1,0.1c-0.4,0-0.7,0.1-1.1,0.1s-0.7,0.1-1.1,0.1l0,0c0.3-0.1,0.6-0.1,1-0.1
					c0.9-0.1,1.8-0.1,2.8-0.3c0.2-0.1,0.5-0.1,0.7,0C20.9,13.4,20.5,13.5,20.2,13.5 M22,13.4c0.2-0.1,0.2-0.1,0.8-0.1
					C22.5,13.3,22.3,13.4,22,13.4 M23.6,13.4L23.6,13.4c0.2,0,0.3-0.1,0.5-0.1l0,0C24,13.4,23.8,13.4,23.6,13.4 M23.9,13.1
					c0.2-0.1,0.3-0.1,0.5-0.1C24.1,13.1,24.1,13.1,23.9,13.1 M26.3,12.9c0.2-0.1,0.2-0.1,0.6-0.1C26.7,12.9,26.5,13,26.3,12.9
					 M28.1,12.8c0.2-0.1,0.4-0.1,0.6-0.1C28.5,12.8,28.3,12.8,28.1,12.8 M44.1,11.3c0.1-0.1,0.3-0.1,0.5-0.1
					C44.4,11.3,44.3,11.4,44.1,11.3 M46.2,11.4c-0.1,0-0.1,0.1-0.2,0.1c-0.2,0-0.5,0-0.8,0.1C45.5,11.4,45.8,11.3,46.2,11.4
					 M85.9,8.9c-0.1,0-0.1,0-0.2-0.1c0,0,0.1-0.1,0.2-0.1s0.2,0,0.2,0.1C86.1,8.9,86,8.9,85.9,8.9 M84.3,8.4c-0.1,0-0.2,0-0.3,0.1
					c-1,0.1-2.1,0.1-3.1,0.2c-0.3,0-0.6,0-1,0.1c-0.4,0.1-0.6,0-1,0.1C78,8.9,77,9,76.1,9c-0.4,0-0.9,0.1-1.3,0.1
					c-1.6,0.1-3.2,0.2-4.8,0.3c-0.6,0-1.1,0.1-1.7,0.1c-0.2-0.1,0-0.1,0.2-0.1s0.5-0.1,0.8-0.1c2-0.1,3.9-0.3,5.9-0.4
					c0.7-0.1,1.4-0.1,2-0.1c0.6-0.1,1.2-0.1,1.8-0.1c0.3,0,0.6,0,0.9-0.1c0.2,0,0.5,0,0.8,0s0.6,0,0.9,0c0.8-0.1,1.6-0.1,2.4-0.1
					C84,8.3,84.1,8.3,84.3,8.4L84.3,8.4 M90.4,8.3c0.2-0.1,0.2-0.1,0.7-0.1L90.4,8.3 M104.2,7.3c-1,0.1-1.9,0.1-2.9,0.1
					c-0.2,0-0.5,0-0.8,0c-1.5,0.1-3,0.1-4.5,0.2c-0.4,0-0.7,0.1-1.1,0.1c-0.2,0-0.3,0-0.5,0c-0.4,0-0.8,0-1.1,0.1
					C92.1,7.9,90.8,8,89.5,8c-0.3,0-0.6,0-0.9,0.1c-0.1,0-0.1,0-0.2,0c-1.2,0-2.4,0.1-3.6,0.1c0,0-0.1,0-0.2-0.1
					C85.8,8.1,86.9,8,88.1,8s2.3-0.1,3.4-0.2c0.9-0.1,1.9-0.1,2.8-0.1c1.1-0.1,2.1-0.1,3.2-0.2c0.6,0,1.2-0.1,1.7-0.1
					c0.1,0,0.2,0,0.3,0l4.5-0.2c0.1,0,0.3,0,0.5,0C104.4,7.3,104.3,7.3,104.2,7.3 M105.2,7.2C105.2,7.2,105.3,7.2,105.2,7.2
					c0.2-0.1,0.3-0.1,0.3,0C105.4,7.2,105.3,7.2,105.2,7.2"/>
				<path id="Path_13613" class="st0" d="M66.3,10C66.5,10,66.5,9.9,66.3,10c-0.3-0.1-0.7-0.1-1.2-0.1C64.7,10,64.3,10,63.8,10
					c-0.2,0-0.3,0-0.5,0S62.9,10,62.6,10c-0.7,0.1-1.4,0.1-2.1,0.1c-0.3,0.1-0.6,0-0.9,0.1c-0.3,0.1-0.6,0.1-0.9,0
					c-0.1,0-0.1,0-0.2,0c0,0.1-0.2,0.1-0.4,0.1h-0.4c-0.2,0.1-0.4,0.1-0.6,0.1l-0.3-0.1c-0.2,0.1-0.4,0.1-0.6,0.1
					c-0.1,0-0.2,0-0.3,0c-0.2,0-0.3,0.1-0.5,0.1c-0.4,0-0.7,0-1.1,0c-0.4,0-0.5,0.1-0.5,0.2c0.4,0,0.8,0,1.2-0.1
					c0.7-0.1,1.3-0.1,2-0.1c1.2-0.1,2.4-0.1,3.7-0.2c1.1-0.1,2.3-0.1,3.4-0.2c0.3,0,0.5-0.1,0.8,0C65.3,10,65.8,10,66.3,10"/>
				<path id="Path_13614" class="st0" d="M63.2,10.4c0.4,0,0.7,0,1.1-0.1C63.9,10.3,63.5,10.3,63.2,10.4"/>
				<path id="Path_13615" class="st0" d="M81.2,9.3c0.4,0,0.9-0.1,1.3-0.1c-0.4,0-0.7,0-1.1,0C81.3,9.2,81.1,9.2,81.2,9.3"/>
				<path id="Path_13616" class="st0" d="M31.5,12.9c0.3,0,0.5-0.1,0.7-0.1C31.6,12.8,31.5,12.8,31.5,12.9"/>
				<path id="Path_13617" class="st0" d="M61.3,10.6c0.4,0,0.9,0,1.3-0.1C62.1,10.4,61.7,10.5,61.3,10.6"/>
				<path id="Path_13618" class="st0" d="M71.1,9.8c0.4,0,0.8,0,1.3-0.1C71.9,9.7,71.5,9.7,71.1,9.8"/>
				<path id="Path_13619" class="st0" d="M41.8,12c0.3,0,0.6-0.1,0.9-0.1l0,0c-0.2,0-0.5,0-0.7,0.1C41.9,11.9,41.7,11.9,41.8,12"/>
				<path id="Path_13620" class="st0" d="M66.3,10.2c0.4,0,0.7-0.1,1.2-0.1C67.1,10.1,66.7,10.1,66.3,10.2"/>
				<path id="Path_13621" class="st0" d="M69.2,10c-0.2,0-0.3,0.1-0.7,0.1C68.9,10,69.1,10,69.2,10c0.2,0.1,0.3,0,0.3,0
					C69.4,9.9,69.3,9.9,69.2,10"/>
				<path id="Path_13622" class="st0" d="M53.3,10.7C53.2,10.7,53.1,10.8,53.3,10.7L53.3,10.7c0.2,0.1,0.2,0,0.2,0
					S53.5,10.7,53.3,10.7C53.4,10.7,53.4,10.7,53.3,10.7"/>
				<path id="Path_13623" class="st0" d="M31.5,16c0.1,0,0.3-0.1,0.4-0.1C31.6,16,31.5,16,31.5,16"/>
				<path id="Path_13624" class="st0" d="M137.5,2.1C137.5,2.1,137.6,2.1,137.5,2.1l-0.1-0.1l0,0C137.4,2.1,137.5,2.1,137.5,2.1"/>
				<path id="Path_13625" class="st0" d="M65.2,10.3c0.1,0,0.3,0,0.4,0l0,0C65.5,10.2,65.3,10.3,65.2,10.3L65.2,10.3"/>
				<path id="Path_13626" class="st0" d="M47.5,11.4c-0.2,0-0.3,0-0.4,0C47.2,11.5,47.3,11.5,47.5,11.4"/>
				<path id="Path_13627" class="st0" d="M60.4,10.6c0.1,0,0.3,0,0.4,0C60.6,10.6,60.5,10.6,60.4,10.6"/>
			</g>
		</g>
	</g>
</g>
<g id="Layer_3">
</g>
<g id="Layer_2_00000155837818045424179010000014003055659727017147_">
</g>
<g id="Layer_4">
</g>
</svg>
