<?xml version="1.0" encoding="utf-8"?>
<!-- Generator: Adobe Illustrator 28.2.0, SVG Export Plug-In . SVG Version: 6.00 Build 0)  -->
<svg version="1.1" xmlns="http://www.w3.org/2000/svg" xmlns:xlink="http://www.w3.org/1999/xlink" x="0px" y="0px"
	 viewBox="0 0 170.6 40.3" style="enable-background:new 0 0 170.6 40.3;" xml:space="preserve">
<style type="text/css">
	.st0{opacity:0.1;}
	.st1{fill:#FFFFFF;}
	.st2{clip-path:url(#SVGID_00000113316068594022047010000008993480671604690592_);}
	.st3{fill:#8C8D8D;}
	.st4{clip-path:url(#SVGID_00000139992149075662635170000006444631627552886971_);}
	.st5{fill:#55575A;}
	.st6{fill:#AA8802;}
	.st7{fill:#AFE5FF;}
	.st8{fill:#F7B96D;}
	.st9{fill:#CE3F6A;}
	.st10{fill:#63BDD4;}
	.st11{fill:#CACACA;}
	.st12{clip-path:url(#Path_13399_00000153676610375947320660000011580367456626336904_);}
	.st13{fill:#BEBEBE;}
	.st14{clip-path:url(#Path_13400_00000092425770801997652490000002352811328097954988_);}
	.st15{fill:#D85A35;}
	.st16{clip-path:url(#SVGID_00000072984394756704908360000014734171517074119051_);}
	.st17{fill:#1D94D9;}
	.st18{enable-background:new    ;}
	.st19{fill:#9A9DA4;}
	.st20{clip-path:url(#SVGID_00000122687874939237679280000008051223352077970563_);}
	.st21{fill:#2A6393;}
	.st22{fill:#D85D39;}
	.st23{fill:#747474;}
	.st24{fill:none;stroke:#302C27;stroke-width:1.8532;stroke-linecap:round;stroke-linejoin:round;stroke-miterlimit:10;}
	.st25{fill:#E5E5E5;}
	.st26{fill:#302C27;}
	.st27{fill:#B2B3B4;}
	.st28{fill:none;stroke:#000000;stroke-width:1.3199;stroke-linecap:round;stroke-linejoin:round;stroke-miterlimit:10;}
	.st29{fill:none;stroke:#FFFFFF;stroke-width:4.2452;stroke-linecap:round;stroke-linejoin:round;stroke-miterlimit:10;}
	.st30{fill:none;stroke:#FFFFFF;stroke-width:5.2795;stroke-linecap:round;stroke-linejoin:round;stroke-miterlimit:10;}
	.st31{fill:#FFFFFF;stroke:#FFFFFF;stroke-width:3.9596;stroke-linecap:round;stroke-linejoin:round;stroke-miterlimit:10;}
	.st32{fill:none;stroke:#000000;stroke-width:1.3199;stroke-miterlimit:10;}
	.st33{fill:none;stroke:#000000;stroke-width:1.3199;stroke-linecap:round;stroke-miterlimit:10;}
	.st34{fill:none;stroke:#FFFFFF;stroke-width:1.3199;stroke-linecap:round;stroke-linejoin:round;stroke-miterlimit:10;}
	.st35{fill:none;stroke:#000000;stroke-width:1.3199;stroke-linejoin:round;stroke-miterlimit:10;}
	.st36{fill:#FFFFFF;stroke:#FFFFFF;stroke-width:5.2795;stroke-linecap:round;stroke-linejoin:round;stroke-miterlimit:10;}
	.st37{fill:#FFFFFF;stroke:#000000;stroke-width:1.3199;stroke-linecap:round;stroke-linejoin:round;stroke-miterlimit:10;}
	.st38{fill:none;stroke:#FFFFFF;stroke-width:3.9596;stroke-linecap:square;stroke-miterlimit:10;}
	.st39{fill:#FFFFFF;stroke:#FFFFFF;stroke-width:3.9596;stroke-linecap:square;stroke-miterlimit:10;}
	.st40{fill:#FFFFFF;stroke:#FFFFFF;stroke-width:4.2452;stroke-linecap:round;stroke-linejoin:round;stroke-miterlimit:10;}
	.st41{fill:#FFFFFF;stroke:#000000;stroke-width:1.3199;stroke-linejoin:round;stroke-miterlimit:10;}
	.st42{fill:none;stroke:#FFFFFF;stroke-width:3.9596;stroke-linecap:round;stroke-linejoin:round;stroke-miterlimit:10;}
	.st43{clip-path:url(#SVGID_00000168812605485149945030000003289030134694805390_);}
	.st44{fill:none;}
	.st45{fill:#FFFFFF;stroke:#000000;stroke-width:1.3199;stroke-linecap:round;stroke-miterlimit:10;}
	.st46{fill:#FFFFFF;stroke:#000000;stroke-width:1.3199;stroke-linecap:square;stroke-miterlimit:10;}
	.st47{fill:#FFFFFF;stroke:#FFFFFF;stroke-width:4.2459;stroke-linecap:round;stroke-linejoin:round;stroke-miterlimit:10;}
	.st48{fill:none;stroke:#FFFFFF;stroke-width:3.9596;stroke-linecap:square;stroke-linejoin:round;stroke-miterlimit:10;}
	.st49{fill:none;stroke:#000000;stroke-width:1.3199;stroke-linecap:square;stroke-linejoin:round;stroke-miterlimit:10;}
	.st50{fill:none;stroke:#FFFFFF;stroke-width:4.7515;stroke-linecap:round;stroke-linejoin:round;stroke-miterlimit:10;}
	.st51{fill:#FFFFFF;stroke:#FFFFFF;stroke-width:3.9596;stroke-miterlimit:10;}
	.st52{fill:none;stroke:#302C27;stroke-width:2.4348;stroke-linecap:round;stroke-linejoin:round;stroke-miterlimit:10;}
	.st53{fill:none;stroke:#302C27;stroke-width:2.6782;stroke-linecap:round;stroke-linejoin:round;stroke-miterlimit:10;}
	.st54{fill:none;stroke:#000000;stroke-width:2.1148;stroke-miterlimit:10;}
	.st55{fill:#FFFFFF;stroke:#000000;stroke-width:2.1148;stroke-linecap:round;stroke-linejoin:round;stroke-miterlimit:10;}
	.st56{fill:#FFFFFF;stroke:#FFFFFF;stroke-width:6.3443;stroke-linecap:round;stroke-linejoin:round;stroke-miterlimit:10;}
	.st57{clip-path:url(#SVGID_00000147195844668905569080000000520140271700594865_);}
	.st58{clip-path:url(#SVGID_00000012456653547923238420000011740630035806920889_);}
</style>
<g id="layer">
	<g id="Group_1987" transform="translate(0 0)">
		<g>
			<g id="Group_1986" transform="translate(0 0)">
				<path id="Path_13629" class="st11" d="M153.5,10.3c-4.6,0-7.1-2.4-9.2-4.5c-2.1-2-4-4-7.9-4s-5.8,1.9-7.9,4
					c-2.1,2.1-4.5,4.5-9.2,4.5s-7-2.4-9.2-4.5c-2.1-2-4-4-7.9-4s-5.8,1.9-7.9,4c-2.1,2.1-4.5,4.5-9.2,4.5s-7-2.4-9.2-4.5
					c-2.1-2-4-4-7.9-4s-5.8,1.9-7.9,4c-2.1,2.1-4.5,4.5-9.2,4.5s-7-2.4-9.2-4.5c-2.1-2-4-4-7.9-4s-5.8,1.9-7.9,4
					c-2.1,2.1-4.5,4.5-9.2,4.5s-7-2.4-9.2-4.5c-2.1-2-4-4-7.9-4V0c4.6,0,7,2.4,9.2,4.5c2.1,2.1,4,4,7.9,4s5.8-1.9,7.9-4
					C27.1,2.4,29.5,0,34.1,0s7,2.4,9.2,4.5c2.1,2.1,4,4,7.9,4s5.8-1.9,7.9-4C61.2,2.4,63.6,0,68.2,0s7,2.4,9.2,4.5
					c2.1,2.1,4,4,7.9,4s5.8-1.9,7.9-4c2.1-2.1,4.5-4.5,9.2-4.5s7,2.4,9.2,4.5c2.1,2.1,4,4,7.9,4s5.8-1.9,7.9-4
					c2.1-2.1,4.5-4.5,9.2-4.5s7.1,2.4,9.2,4.5c2.1,2.1,4,4,7.9,4s5.8-1.9,7.9-4c2.1-2.1,4.5-4.5,9.2-4.5v1.8c-3.9,0-5.8,1.9-7.9,4
					C160.6,7.9,158.2,10.3,153.5,10.3"/>
				<path id="Path_13630" class="st11" d="M153.5,25.3c-4.6,0-7.1-2.4-9.2-4.5c-2.1-2-4-4-7.9-4s-5.8,1.9-7.9,4
					c-2.1,2.1-4.5,4.5-9.2,4.5s-7-2.4-9.2-4.5c-2.1-2-4-4-7.9-4s-5.8,1.9-7.9,4c-2.1,2.1-4.5,4.5-9.2,4.5s-7-2.4-9.2-4.5
					c-2.1-2-4-4-7.9-4s-5.8,1.9-7.9,4c-2.1,2.1-4.5,4.5-9.2,4.5s-7-2.4-9.2-4.5c-2.1-2-4-4-7.9-4s-5.8,1.9-7.9,4
					c-2.1,2.1-4.5,4.5-9.2,4.5s-7-2.4-9.2-4.5c-2.1-2-4-4-7.9-4V15c4.6,0,7,2.4,9.2,4.5c2.1,2,4,4,7.9,4s5.8-1.9,7.9-4
					c2.1-2.1,4.5-4.5,9.2-4.5s7,2.4,9.2,4.5c2.1,2,4,4,7.9,4s5.8-1.9,7.9-4c2.1-2.1,4.5-4.5,9.2-4.5s7,2.4,9.2,4.5c2.1,2,4,4,7.9,4
					s5.8-1.9,7.9-4c2.1-2.1,4.5-4.5,9.2-4.5s7,2.4,9.2,4.5c2.1,2,4,4,7.9,4s5.8-1.9,7.9-4c2.1-2.1,4.5-4.5,9.2-4.5s7.1,2.4,9.2,4.5
					c2.1,2,4,4,7.9,4s5.8-1.9,7.9-4c2.1-2.1,4.5-4.5,9.2-4.5v1.8c-3.9,0-5.8,1.9-7.9,4C160.6,22.9,158.2,25.3,153.5,25.3"/>
				<path id="Path_13631" class="st11" d="M153.5,40.3c-4.6,0-7.1-2.4-9.2-4.5c-2.1-2-4-4-7.9-4s-5.8,1.9-7.9,4
					c-2.1,2.1-4.5,4.5-9.2,4.5s-7-2.4-9.2-4.5c-2.1-2-4-4-7.9-4s-5.8,1.9-7.9,4c-2.1,2.1-4.5,4.5-9.2,4.5s-7-2.4-9.2-4.5
					c-2.1-2-4-4-7.9-4s-5.8,1.9-7.9,4c-2.1,2.1-4.5,4.5-9.2,4.5s-7-2.4-9.2-4.5c-2.1-2-4-4-7.9-4s-5.8,1.9-7.9,4
					c-2.1,2.1-4.5,4.5-9.2,4.5s-7-2.4-9.2-4.5c-2.1-2-4-4-7.9-4v-1.8c4.6,0,7,2.4,9.2,4.5c2.1,2,4,4,7.9,4s5.8-1.9,7.9-4
					c2.1-2.1,4.5-4.5,9.2-4.5s7,2.4,9.2,4.5c2.1,2,4,4,7.9,4s5.8-1.9,7.9-4c2.1-2.1,4.5-4.5,9.2-4.5s7,2.4,9.2,4.5c2.1,2,4,4,7.9,4
					s5.8-1.9,7.9-4c2.1-2.1,4.5-4.5,9.2-4.5s7,2.4,9.2,4.5c2.1,2,4,4,7.9,4s5.8-1.9,7.9-4c2.1-2.1,4.5-4.5,9.2-4.5s7.1,2.4,9.2,4.5
					c2.1,2,4,4,7.9,4s5.8-1.9,7.9-4c2.1-2.1,4.5-4.5,9.2-4.5v1.8c-3.9,0-5.8,1.9-7.9,4C160.6,37.9,158.2,40.3,153.5,40.3"/>
			</g>
		</g>
	</g>
</g>
<g id="Layer_3">
</g>
<g id="Layer_2">
</g>
<g id="Layer_4">
</g>
</svg>
