<?xml version="1.0" encoding="UTF-8"?><svg id="Layer_1" xmlns="http://www.w3.org/2000/svg" width=".18in" height=".18in" xmlns:xlink="http://www.w3.org/1999/xlink" viewBox="0 0 12.89 12.76"><defs><clipPath id="clippath"><rect width="12.89" height="12.76" fill="none" stroke-width="0"/></clipPath></defs><g clip-path="url(#clippath)"><g id="Group_1837"><path id="Path_151" d="M12.87,1.25c0-.18-.03-.35-.1-.52-.04-.07-.08-.14-.13-.2-.03-.06-.07-.11-.11-.17h0c-.23-.23-.54-.36-.86-.36H3.5c-.66,0-1.19.52-1.2,1.18,0,0,0,0,0,0,0,.66.54,1.19,1.2,1.18,0,0,0,0,0,0h5.31L.35,10.74c-.46.46-.47,1.2,0,1.67,0,0,0,0,0,0,.47.46,1.22.46,1.69,0L10.49,4.06v5.21c.05.66.62,1.16,1.28,1.11.6-.04,1.07-.52,1.11-1.11V1.33s-.02-.05-.02-.08" fill="#762399" stroke-width="0"/></g></g></svg>