<?xml version="1.0" encoding="UTF-8"?><svg id="Layer_1" xmlns="http://www.w3.org/2000/svg" width=".28in" height=".15in" xmlns:xlink="http://www.w3.org/1999/xlink" viewBox="0 0 19.91 10.67"><defs><clipPath id="clippath"><rect width="19.91" height="10.67" fill="none" stroke-width="0"/></clipPath></defs><g id="Group_2162"><g clip-path="url(#clippath)"><g id="Group_2161"><path id="Path_914" d="M19.91,5.33c0,.4-.17.78-.46,1.05l-4.27,3.91c-.58.53-1.48.49-2.01-.09-.53-.58-.49-1.48.09-2.01l1.57-1.44H1.42C.64,6.75,0,6.12,0,5.33s.64-1.42,1.42-1.42h13.41l-1.57-1.44c-.58-.53-.62-1.43-.09-2.01.53-.58,1.43-.62,2.01-.09l4.27,3.91c.29.27.46.65.46,1.05" fill="#00a3a8" stroke-width="0"/></g></g></g></svg>