<?xml version="1.0" encoding="UTF-8"?><svg id="Layer_1" xmlns="http://www.w3.org/2000/svg" width="1.06in" height=".38in" viewBox="0 0 76.55 27.42"><path d="M66.71.38c-.79.61-.94,1.75-.33,2.54l2.99,3.88c-4.52-2.14-9.95-3.35-15.42-3.4-6.44-.05-12.14,1.49-15.82,4.26-5.57-1.31-12.2-1.14-19.08.51C10.44,10.23,7.12,11.54.61,17.31c-.75.66-.82,1.81-.15,2.56.66.75,1.81.82,2.56.15,6.07-5.37,8.84-6.4,16.88-8.33,5.47-1.31,10.72-1.61,15.28-.91-1.89,2.96-2.05,6.56-.39,10.4,1.9,4.41,5.18,6.71,8.78,6.16,3.5-.54,6.44-3.77,6.83-7.53.23-2.2-.39-4.35-1.8-6.23-1.34-1.78-3.33-3.27-5.93-4.42,6.4-2.99,17.39-3.09,25.79,1.22l-5.56,1.28c-.98.23-1.58,1.2-1.36,2.17.23.98,1.2,1.58,2.17,1.36l11.43-2.64c.6-.14,1.09-.57,1.3-1.15h0c.21-.58.11-1.23-.27-1.72l-6.92-8.99c-.61-.79-1.75-.94-2.54-.33ZM40.16,12.05c4.53,1.7,6.95,4.4,6.64,7.39-.22,2.13-1.88,4.03-3.78,4.32-1.92.29-3.66-1.13-4.9-4.01-.93-2.16-1.09-4.09-.48-5.79.29-.82.77-1.58,1.42-2.28.37.12.74.25,1.1.38Z" fill="#fdebb9" stroke-width="0"/></svg>