<?xml version="1.0" encoding="UTF-8"?><svg id="Layer_1" xmlns="http://www.w3.org/2000/svg" width="3in" height=".82in" xmlns:xlink="http://www.w3.org/1999/xlink" viewBox="0 0 216.02 59.39"><defs><radialGradient id="radial-gradient" cx="45" cy="1.17" fx="45" fy="1.17" r="61.97" gradientTransform="translate(-7.27 -3.28) scale(.76)" gradientUnits="userSpaceOnUse"><stop offset=".3" stop-color="#44b0e3"/><stop offset="1" stop-color="#2c65aa"/></radialGradient><radialGradient id="radial-gradient-2" cx="45" cy="1.17" fx="45" fy="1.17" r="61.97" xlink:href="#radial-gradient"/><radialGradient id="radial-gradient-3" cx="45" cy="1.17" fx="45" fy="1.17" r="61.97" xlink:href="#radial-gradient"/><radialGradient id="radial-gradient-4" cx="45" cy="1.17" fx="45" fy="1.17" r="61.97" xlink:href="#radial-gradient"/><radialGradient id="Gold_Radial" cx="46.95" cy="15.98" fx="46.95" fy="15.98" r="51.1" gradientTransform="translate(-7.27 -3.28) scale(.76)" gradientUnits="userSpaceOnUse"><stop offset="0" stop-color="#f7f5ca"/><stop offset=".11" stop-color="#f3ecb8"/><stop offset=".32" stop-color="#ebd58c"/><stop offset=".37" stop-color="#e9d081"/><stop offset=".69" stop-color="#e2b523"/><stop offset="1" stop-color="#b98b2d"/></radialGradient><radialGradient id="Gold_Radial-2" cx="46.95" cy="15.98" fx="46.95" fy="15.98" r="51.1" xlink:href="#Gold_Radial"/><radialGradient id="Gold_Radial-3" cx="179.78" cy="-19.46" fx="179.78" fy="-19.46" r="79.03" gradientTransform="translate(-12.02 -5.2) scale(.8)" xlink:href="#Gold_Radial"/><radialGradient id="Gold_Radial-4" cx="179.78" cy="-19.46" fx="179.78" fy="-19.46" r="79.03" gradientTransform="translate(-12.02 -5.2) scale(.8)" xlink:href="#Gold_Radial"/><radialGradient id="Gold_Radial-5" cx="179.78" cy="-19.46" fx="179.78" fy="-19.46" r="79.03" gradientTransform="translate(-12.02 -5.2) scale(.8)" xlink:href="#Gold_Radial"/><radialGradient id="Gold_Radial-6" cx="179.78" cy="-19.46" fx="179.78" fy="-19.46" r="79.03" gradientTransform="translate(-12.02 -5.2) scale(.8)" xlink:href="#Gold_Radial"/><radialGradient id="Gold_Radial-7" cx="179.78" cy="-19.46" fx="179.78" fy="-19.46" r="79.03" gradientTransform="translate(-12.02 -5.2) scale(.8)" xlink:href="#Gold_Radial"/><radialGradient id="Gold_Radial-8" cx="179.78" cy="-19.46" fx="179.78" fy="-19.46" r="79.03" gradientTransform="translate(-12.02 -5.2) scale(.8)" xlink:href="#Gold_Radial"/><radialGradient id="Gold_Radial-9" cx="179.78" cy="-19.46" fx="179.78" fy="-19.46" r="79.03" gradientTransform="translate(-12.02 -5.2) scale(.8)" xlink:href="#Gold_Radial"/><radialGradient id="Gold_Radial-10" cx="179.78" cy="-19.46" fx="179.78" fy="-19.46" r="79.03" gradientTransform="translate(-12.02 -5.2) scale(.8)" xlink:href="#Gold_Radial"/><radialGradient id="Gold_Radial-11" cx="179.78" cy="-19.46" fx="179.78" fy="-19.46" r="79.03" gradientTransform="translate(-12.02 -5.2) scale(.8)" xlink:href="#Gold_Radial"/><radialGradient id="radial-gradient-5" cx="197.75" cy="45.32" fx="197.75" fy="45.32" r="46.99" gradientTransform="translate(-12.02 -5.2) scale(.8)" xlink:href="#radial-gradient"/><radialGradient id="radial-gradient-6" cx="197.75" cy="45.32" fx="197.75" fy="45.32" r="46.99" gradientTransform="translate(-12.02 -5.2) scale(.8)" xlink:href="#radial-gradient"/><radialGradient id="radial-gradient-7" cx="197.75" cy="45.32" fx="197.75" fy="45.32" r="46.99" gradientTransform="translate(-12.02 -5.2) scale(.8)" xlink:href="#radial-gradient"/><radialGradient id="radial-gradient-8" cx="197.75" cy="45.32" fx="197.75" fy="45.32" r="46.99" gradientTransform="translate(-12.02 -5.2) scale(.8)" xlink:href="#radial-gradient"/><radialGradient id="radial-gradient-9" cx="197.75" cy="45.32" fx="197.75" fy="45.32" r="46.99" gradientTransform="translate(-12.02 -5.2) scale(.8)" xlink:href="#radial-gradient"/><radialGradient id="radial-gradient-10" cx="197.75" cy="45.32" fx="197.75" fy="45.32" r="46.99" gradientTransform="translate(-12.02 -5.2) scale(.8)" xlink:href="#radial-gradient"/><radialGradient id="radial-gradient-11" cx="197.75" cy="45.32" fx="197.75" fy="45.32" r="46.99" gradientTransform="translate(-12.02 -5.2) scale(.8)" xlink:href="#radial-gradient"/><radialGradient id="radial-gradient-12" cx="197.75" cy="45.32" fx="197.75" fy="45.32" r="46.99" gradientTransform="translate(-12.02 -5.2) scale(.8)" xlink:href="#radial-gradient"/><radialGradient id="radial-gradient-13" cx="197.75" cy="45.32" fx="197.75" fy="45.32" r="46.99" gradientTransform="translate(-12.02 -5.2) scale(.8)" xlink:href="#radial-gradient"/><radialGradient id="radial-gradient-14" cx="197.75" cy="45.32" fx="197.75" fy="45.32" r="46.99" gradientTransform="translate(-12.02 -5.2) scale(.8)" xlink:href="#radial-gradient"/><radialGradient id="radial-gradient-15" cx="197.75" cy="45.32" fx="197.75" fy="45.32" r="46.99" gradientTransform="translate(-12.02 -5.2) scale(.8)" xlink:href="#radial-gradient"/><radialGradient id="radial-gradient-16" cx="107.71" cy="24.99" fx="107.71" fy="24.99" r="16.92" gradientTransform="translate(-7.27 20.28) scale(.76 1.13)" xlink:href="#radial-gradient"/></defs><path d="M36.82,21.57s-6,2.78-12.33-3.03c-8.43-7.74-15.46-6.42-15.46-6.42,0,0-9.03,0-9.03,12.78s9.03,23.9,15.28,31.54c0,0-9.59-17.37-9.59-31.26,0-5.84,2.78-7.09,5.42-7.09,5,0,12.23,7.09,18.62,7.09,4.86,0,7.09-3.61,7.09-3.61Z" fill="url(#radial-gradient)" stroke-width="0"/><circle cx="14.66" cy="5.29" r="5.29" fill="url(#radial-gradient-2)" stroke-width="0"/><circle cx="39.22" cy="10.98" r="3.91" fill="url(#radial-gradient-3)" stroke-width="0"/><path d="M29.96,18.61s17.38-7.87,20.37,5.97c2.99,13.85-17.79,34.35-17.79,34.35,0,0,12.63-16.16,12.63-29.46s-11.68-10.86-15.21-10.86Z" fill="url(#radial-gradient-4)" stroke-width="0"/><path d="M38.05,30.63s-4.49,9.95-7.16,11.89c0,0-4.73-5.83-8.62-5.83s-7.28,5.58-7.89,8.86c0,0,3.03-4.73,6.67-4.73,2.06,0,9.47,5.34,7.65,18.57,0,0,8.25-10.07,9.34-28.76Z" fill="url(#Gold_Radial)" stroke-width="0"/><circle cx="29.03" cy="32.34" r="3.82" fill="url(#Gold_Radial-2)" stroke-width="0"/><path d="M59.18,39.25c-2.48-2.18-3.14-5.02-3.14-7.47,0-1.72.53-4.71,2.96-6.94,1.82-1.67,4.23-2.69,8-2.69,1.57,0,2.51.1,3.67.25.96.13,1.77.35,2.53.43.28.03.38.15.38.3,0,.2-.08.51-.13,1.39-.05.84-.02,2.23-.08,2.74-.02.38-.08.58-.3.58-.2,0-.25-.2-.25-.56-.02-.79-.35-1.67-.99-2.33-.84-.89-2.81-1.57-5.14-1.57-2.2,0-3.65.56-4.76,1.57-1.85,1.7-2.33,4.1-2.33,6.56,0,6.03,4.58,9.02,7.98,9.02,2.25,0,3.62-.25,4.64-1.42.43-.48.76-1.22.86-1.67.08-.41.13-.51.33-.51.18,0,.23.18.23.38,0,.3-.3,2.51-.56,3.37-.13.43-.23.56-.66.73-1.01.41-2.94.58-4.56.58-3.47,0-6.38-.76-8.69-2.76Z" fill="url(#Gold_Radial-3)" stroke-width="0"/><path d="M80.83,35.19c-.13,0-.18.05-.23.2l-1.37,3.47c-.25.63-.38,1.24-.38,1.55,0,.46.23.79,1.01.79h.38c.3,0,.38.05.38.2,0,.2-.15.25-.43.25-.81,0-1.9-.08-2.68-.08-.28,0-1.67.08-2.99.08-.33,0-.48-.05-.48-.25,0-.15.1-.2.3-.2.23,0,.58-.03.79-.05,1.17-.15,1.65-1.01,2.15-2.28l6.36-15.7c.3-.73.46-1.01.71-1.01.23,0,.38.23.63.81.61,1.39,4.66,11.53,6.28,15.37.96,2.28,1.7,2.63,2.23,2.76.38.08.76.1,1.06.1.2,0,.33.03.33.2,0,.2-.23.25-1.17.25s-2.76,0-4.79-.05c-.46-.03-.76-.03-.76-.2,0-.15.1-.2.35-.23.18-.05.36-.28.23-.58l-2.03-5.22c-.05-.13-.13-.18-.25-.18h-5.65ZM86,33.93c.13,0,.15-.08.13-.15l-2.28-6.23c-.03-.1-.05-.23-.13-.23s-.13.13-.15.23l-2.33,6.21c-.03.1,0,.18.1.18h4.66Z" fill="url(#Gold_Radial-4)" stroke-width="0"/><path d="M100.72,34.31c0,3.24,0,4.99.53,5.45.43.38,1.09.56,3.07.56,1.34,0,2.33-.03,2.96-.71.3-.33.61-1.04.66-1.52.02-.23.08-.38.28-.38.18,0,.2.13.2.43,0,.28-.18,2.18-.38,2.91-.15.56-.28.68-1.6.68-1.82,0-3.14-.05-4.28-.08-1.14-.05-2.05-.08-3.09-.08-.28,0-.84,0-1.44.03-.58,0-1.24.05-1.75.05-.33,0-.51-.08-.51-.25,0-.13.1-.2.41-.2.38,0,.68-.05.91-.1.51-.1.63-.66.73-1.39.13-1.06.13-3.06.13-5.4v-4.46c0-3.85,0-4.56-.05-5.37-.05-.86-.25-1.27-1.09-1.44-.2-.05-.51-.08-.84-.08-.28,0-.43-.05-.43-.23s.18-.23.56-.23c1.19,0,2.79.08,3.47.08.61,0,2.46-.08,3.45-.08.35,0,.53.05.53.23s-.15.23-.46.23c-.28,0-.68.03-.99.08-.68.13-.89.56-.94,1.44-.05.81-.05,1.52-.05,5.37v4.46Z" fill="url(#Gold_Radial-5)" stroke-width="0"/><path d="M119.08,41.35c-.41-.18-.48-.3-.48-.86,0-1.39.1-2.91.13-3.32.02-.38.1-.66.3-.66.23,0,.25.23.25.43,0,.33.1.86.23,1.29.56,1.87,2.05,2.56,3.62,2.56,2.28,0,3.39-1.55,3.39-2.89,0-1.24-.38-2.41-2.48-4.05l-1.17-.91c-2.79-2.18-3.75-3.95-3.75-6,0-2.79,2.33-4.79,5.85-4.79,1.65,0,2.71.25,3.37.43.23.05.36.13.36.3,0,.33-.1,1.06-.1,3.04,0,.56-.08.76-.28.76-.18,0-.25-.15-.25-.46,0-.23-.13-1.01-.66-1.67-.38-.48-1.11-1.24-2.76-1.24-1.87,0-3.01,1.09-3.01,2.61,0,1.16.58,2.05,2.68,3.65l.71.53c3.06,2.31,4.15,4.05,4.15,6.46,0,1.47-.56,3.22-2.38,4.41-1.27.81-2.68,1.04-4.03,1.04-1.47,0-2.61-.18-3.7-.66Z" fill="url(#Gold_Radial-6)" stroke-width="0"/><path d="M135.22,29.85c0-3.85,0-4.56-.05-5.37-.05-.86-.25-1.27-1.09-1.44-.2-.05-.63-.08-.99-.08-.28,0-.43-.05-.43-.23s.18-.23.56-.23c.68,0,1.42.03,2.05.03.66.03,1.24.05,1.6.05.81,0,5.85,0,6.33-.03.48-.05.89-.1,1.09-.15.13-.03.28-.1.4-.1s.15.1.15.23c0,.18-.13.48-.2,1.65-.03.25-.08,1.37-.13,1.67-.03.13-.08.28-.25.28s-.23-.13-.23-.35c0-.18-.03-.61-.15-.91-.18-.46-.43-.76-1.7-.91-.43-.05-3.09-.1-3.6-.1-.13,0-.18.08-.18.25v6.41c0,.18.03.28.18.28.56,0,3.47,0,4.05-.05.61-.05.99-.13,1.22-.38.18-.2.28-.33.41-.33.1,0,.18.05.18.2s-.1.56-.2,1.85c-.02.51-.1,1.52-.1,1.7,0,.2,0,.48-.23.48-.18,0-.23-.1-.23-.23-.03-.25-.03-.58-.1-.91-.13-.51-.48-.89-1.42-.99-.48-.05-2.99-.08-3.6-.08-.13,0-.15.1-.15.25v2c0,.86-.03,3.19,0,3.93.05,1.75.46,2.13,3.04,2.13.66,0,1.72,0,2.38-.3.66-.3.96-.84,1.14-1.87.05-.28.1-.38.28-.38.2,0,.2.2.2.46,0,.58-.2,2.3-.33,2.81-.18.66-.41.66-1.37.66-1.9,0-3.29-.05-4.38-.08-1.09-.05-1.87-.08-2.63-.08-.28,0-.84,0-1.44.03-.58,0-1.24.05-1.75.05-.33,0-.51-.08-.51-.25,0-.13.1-.2.41-.2.38,0,.68-.05.91-.1.51-.1.63-.66.73-1.39.13-1.06.13-3.06.13-5.4v-4.46Z" fill="url(#Gold_Radial-7)" stroke-width="0"/><path d="M154.39,34.31c0,3.24,0,4.99.53,5.45.43.38,1.09.56,3.07.56,1.34,0,2.33-.03,2.96-.71.3-.33.61-1.04.66-1.52.02-.23.08-.38.28-.38.18,0,.2.13.2.43,0,.28-.18,2.18-.38,2.91-.15.56-.28.68-1.6.68-1.82,0-3.14-.05-4.28-.08-1.14-.05-2.05-.08-3.09-.08-.28,0-.84,0-1.44.03-.58,0-1.24.05-1.75.05-.33,0-.51-.08-.51-.25,0-.13.1-.2.41-.2.38,0,.68-.05.91-.1.51-.1.63-.66.73-1.39.13-1.06.13-3.06.13-5.4v-4.46c0-3.85,0-4.56-.05-5.37-.05-.86-.25-1.27-1.09-1.44-.2-.05-.51-.08-.84-.08-.28,0-.43-.05-.43-.23s.18-.23.56-.23c1.19,0,2.79.08,3.47.08.61,0,2.46-.08,3.45-.08.35,0,.53.05.53.23s-.15.23-.46.23c-.28,0-.68.03-.99.08-.68.13-.89.56-.94,1.44-.05.81-.05,1.52-.05,5.37v4.46Z" fill="url(#Gold_Radial-8)" stroke-width="0"/><path d="M166.55,29.85c0-3.85,0-4.56-.05-5.37-.05-.86-.25-1.27-1.09-1.44-.2-.05-.63-.08-.99-.08-.28,0-.43-.05-.43-.23s.18-.23.56-.23c.68,0,1.42.03,2.05.03.66.03,1.24.05,1.6.05.81,0,5.85,0,6.33-.03.48-.05.89-.1,1.09-.15.13-.03.28-.1.4-.1s.15.1.15.23c0,.18-.13.48-.2,1.65-.03.25-.08,1.37-.13,1.67-.03.13-.08.28-.25.28s-.23-.13-.23-.35c0-.18-.03-.61-.15-.91-.18-.46-.43-.76-1.7-.91-.43-.05-3.09-.1-3.6-.1-.13,0-.18.08-.18.25v6.41c0,.18.03.28.18.28.56,0,3.47,0,4.05-.05.61-.05.99-.13,1.22-.38.18-.2.28-.33.41-.33.1,0,.18.05.18.2s-.1.56-.2,1.85c-.02.51-.1,1.52-.1,1.7,0,.2,0,.48-.23.48-.18,0-.23-.1-.23-.23-.03-.25-.03-.58-.1-.91-.13-.51-.48-.89-1.42-.99-.48-.05-2.99-.08-3.6-.08-.13,0-.15.1-.15.25v2c0,.86-.03,3.19,0,3.93.05,1.75.46,2.13,3.04,2.13.66,0,1.72,0,2.38-.3.66-.3.96-.84,1.14-1.87.05-.28.1-.38.28-.38.2,0,.2.2.2.46,0,.58-.2,2.3-.33,2.81-.18.66-.41.66-1.37.66-1.9,0-3.29-.05-4.38-.08-1.09-.05-1.87-.08-2.63-.08-.28,0-.84,0-1.44.03-.58,0-1.24.05-1.75.05-.33,0-.51-.08-.51-.25,0-.13.1-.2.41-.2.38,0,.68-.05.91-.1.51-.1.63-.66.73-1.39.13-1.06.13-3.06.13-5.4v-4.46Z" fill="url(#Gold_Radial-9)" stroke-width="0"/><path d="M182.94,39.25c-2.48-2.18-3.14-5.02-3.14-7.47,0-1.72.53-4.71,2.96-6.94,1.82-1.67,4.23-2.69,8-2.69,1.57,0,2.51.1,3.67.25.96.13,1.77.35,2.53.43.28.03.38.15.38.3,0,.2-.08.51-.13,1.39-.05.84-.02,2.23-.08,2.74-.02.38-.08.58-.3.58-.2,0-.25-.2-.25-.56-.02-.79-.35-1.67-.99-2.33-.84-.89-2.81-1.57-5.14-1.57-2.2,0-3.65.56-4.76,1.57-1.85,1.7-2.33,4.1-2.33,6.56,0,6.03,4.58,9.02,7.98,9.02,2.25,0,3.62-.25,4.64-1.42.43-.48.76-1.22.86-1.67.08-.41.13-.51.33-.51.18,0,.23.18.23.38,0,.3-.3,2.51-.56,3.37-.13.43-.23.56-.66.73-1.01.41-2.94.58-4.56.58-3.47,0-6.38-.76-8.69-2.76Z" fill="url(#Gold_Radial-10)" stroke-width="0"/><path d="M206.06,23.92l-3.77.1c-1.47.05-2.08.18-2.46.73-.25.38-.38.68-.43.89s-.13.3-.28.3c-.18,0-.23-.13-.23-.41,0-.41.48-2.71.53-2.91.08-.33.15-.48.3-.48.2,0,.46.25,1.09.3.73.08,1.7.13,2.53.13h10.03c.81,0,1.37-.08,1.75-.13.38-.08.58-.13.68-.13.18,0,.2.15.2.53,0,.53-.08,2.28-.08,2.94-.03.25-.08.41-.23.41-.2,0-.25-.13-.28-.51l-.03-.28c-.05-.66-.73-1.37-2.99-1.42l-3.19-.08v10.39c0,2.33,0,4.33.13,5.42.08.71.23,1.27.99,1.37.35.05.91.1,1.29.1.28,0,.41.08.41.2,0,.18-.2.25-.48.25-1.67,0-3.27-.08-3.98-.08-.58,0-2.18.08-3.19.08-.33,0-.51-.08-.51-.25,0-.13.1-.2.41-.2.38,0,.68-.05.91-.1.51-.1.66-.66.73-1.39.13-1.06.13-3.06.13-5.4v-10.39Z" fill="url(#Gold_Radial-11)" stroke-width="0"/><path d="M97.41,47.84c0-1.35,0-1.59-.02-1.87-.02-.29-.09-.43-.37-.49-.07-.02-.22-.03-.29-.03-.03,0-.07-.02-.07-.05,0-.05.04-.07.14-.07.39,0,.94.03.98.03.1,0,.65-.03,1.17-.03.86,0,2.44-.08,3.47.99.43.45.84,1.17.84,2.2,0,1.09-.45,1.93-.94,2.44-.37.39-1.15,1-2.63,1-.37,0-.83-.03-1.2-.05-.38-.03-.68-.05-.72-.05-.02,0-.16,0-.35,0-.17,0-.37.02-.5.02-.1,0-.14-.02-.14-.07,0-.03.02-.05.07-.05.08,0,.18-.02.26-.03.17-.03.22-.23.25-.48.04-.36.04-1.05.04-1.88v-1.53ZM98.14,48.78c0,.92,0,1.72.02,1.88,0,.22.03.56.1.66.11.16.45.35,1.47.35.81,0,1.55-.29,2.06-.81.45-.44.69-1.27.69-2.07,0-1.1-.48-1.81-.83-2.18-.82-.86-1.8-.98-2.83-.98-.17,0-.49.03-.56.06-.08.03-.1.08-.1.17,0,.29,0,1.18,0,1.85v1.07Z" fill="url(#radial-gradient-5)" stroke-width="0"/><path d="M107.7,47.84c0-1.35,0-1.59-.02-1.87-.02-.29-.09-.43-.37-.49-.07-.02-.22-.03-.29-.03-.03,0-.07-.02-.07-.05,0-.05.04-.07.14-.07.2,0,.43,0,.62,0l.36.02c.06,0,1.79,0,1.99,0,.16,0,.3-.03.37-.04.04,0,.08-.04.12-.04.03,0,.03.03.03.08,0,.06-.04.16-.07.41,0,.09-.03.47-.04.57,0,.04-.03.1-.06.1-.05,0-.07-.04-.07-.11,0-.06,0-.21-.05-.31-.06-.14-.15-.24-.62-.29-.15-.02-1.09-.03-1.19-.03-.04,0-.05.03-.05.09v2.39c0,.06,0,.09.05.09.11,0,1.18,0,1.38-.02.21-.02.33-.03.41-.12.06-.07.1-.11.13-.11.03,0,.04.02.04.07s-.04.2-.07.49c-.02.17-.03.49-.03.55,0,.07,0,.16-.06.16-.04,0-.06-.03-.06-.08,0-.09,0-.17-.03-.29-.03-.12-.11-.27-.45-.3-.23-.03-1.09-.04-1.24-.04-.04,0-.06.03-.06.06v.76c0,.29,0,1.3,0,1.48.03.6.16.71,1.01.71.23,0,.61,0,.83-.1s.33-.27.39-.62c.02-.1.03-.13.08-.13.05,0,.05.07.05.13,0,.07-.07.66-.11.84-.06.23-.13.23-.47.23-.65,0-1.13-.02-1.46-.03-.34-.02-.55-.03-.68-.03-.02,0-.16,0-.35,0-.17,0-.37.02-.5.02-.1,0-.14-.02-.14-.07,0-.03.02-.05.07-.05.08,0,.18-.02.26-.03.17-.03.22-.23.25-.48.04-.36.04-1.05.04-1.88v-1.53Z" fill="url(#radial-gradient-6)" stroke-width="0"/><path d="M115.65,50.7c.02.71.1.94.34,1,.17.04.36.05.43.05.04,0,.07.02.07.05,0,.05-.05.07-.16.07-.49,0-.84-.03-.92-.03s-.44.03-.83.03c-.09,0-.14,0-.14-.07,0-.03.03-.05.07-.05.07,0,.23,0,.36-.05.22-.06.26-.31.26-1.1v-4.97c0-.34.03-.43.1-.43s.22.19.3.28c.13.15,1.42,1.54,2.76,2.97.86.92,1.8,1.98,2.08,2.26l-.1-4.4c0-.56-.07-.75-.34-.82-.16-.03-.36-.04-.42-.04-.06,0-.07-.03-.07-.06,0-.05.07-.06.17-.06.39,0,.81.03.9.03s.38-.03.74-.03c.1,0,.16,0,.16.06,0,.03-.03.06-.1.06-.04,0-.1,0-.21.03-.29.06-.32.25-.32.77l-.02,5.08c0,.57-.02.62-.08.62-.07,0-.17-.1-.63-.55-.1-.09-1.34-1.36-2.26-2.35-1.01-1.08-1.99-2.18-2.26-2.49l.11,4.15Z" fill="url(#radial-gradient-7)" stroke-width="0"/><path d="M127.9,49.37c0,.83,0,1.52.04,1.88.03.25.08.44.34.48.12.02.31.03.39.03.05,0,.07.03.07.05,0,.04-.04.07-.14.07-.48,0-1.02-.03-1.07-.03s-.59.03-.85.03c-.1,0-.14-.02-.14-.07,0-.03.02-.05.07-.05.08,0,.18-.02.26-.03.17-.03.22-.23.25-.48.04-.36.04-1.05.04-1.88v-3.67l-1.28.02c-.54,0-.75.07-.88.28-.1.15-.12.21-.15.27-.03.07-.05.09-.09.09-.03,0-.04-.03-.04-.08,0-.09.17-.83.19-.9.02-.05.05-.16.09-.16.06,0,.15.09.38.1.25.03.58.04.68.04h3.25c.28,0,.48-.02.61-.04.13-.02.21-.04.24-.04.04,0,.04.05.04.1,0,.26-.03.86-.03.95,0,.08-.03.11-.06.11-.04,0-.06-.03-.07-.15v-.1c-.04-.26-.24-.46-1.07-.48l-1.09-.02v3.67Z" fill="url(#radial-gradient-8)" stroke-width="0"/><path d="M135.33,45.54c.1-.29.14-.34.19-.34s.09.04.19.31c.13.33,1.49,3.91,2.02,5.23.31.77.56.91.75.96.13.04.26.05.35.05.05,0,.09,0,.09.05,0,.05-.08.07-.17.07-.13,0-.76,0-1.36-.02-.16,0-.26,0-.26-.06,0-.03.03-.05.06-.06.05-.02.1-.1.05-.23l-.81-2.13s-.03-.05-.08-.05h-1.86s-.07.03-.09.07l-.52,1.53c-.08.22-.12.42-.12.58,0,.17.18.25.33.25h.09c.06,0,.09.02.09.05,0,.05-.05.07-.13.07-.21,0-.58-.03-.68-.03s-.57.03-.98.03c-.11,0-.17-.02-.17-.07,0-.03.03-.05.08-.05.06,0,.18,0,.25-.02.4-.05.57-.38.73-.81l1.97-5.38ZM136.23,49.01s.04-.03.03-.06l-.82-2.34c-.04-.13-.09-.13-.13,0l-.76,2.34s0,.06.03.06h1.65Z" fill="url(#radial-gradient-9)" stroke-width="0"/><path d="M143.3,49.38c0,1.27.03,1.83.19,1.98.14.14.36.2,1.04.2.46,0,.84,0,1.05-.26.11-.14.2-.36.23-.52,0-.07.03-.11.08-.11.04,0,.05.03.05.13s-.06.62-.13.87c-.06.2-.09.23-.55.23-.62,0-1.07-.02-1.44-.03-.36-.02-.63-.03-.88-.03-.03,0-.18,0-.36,0-.17,0-.36.02-.49.02-.1,0-.14-.02-.14-.07,0-.03.02-.05.07-.05.08,0,.18-.02.26-.03.17-.03.22-.23.25-.48.04-.36.04-1.05.04-1.88v-1.53c0-1.35,0-1.59-.02-1.87-.02-.29-.09-.43-.37-.49-.07-.02-.22-.03-.29-.03-.03,0-.07-.02-.07-.05,0-.05.04-.07.14-.07.39,0,.94.03.98.03s.68-.03.94-.03c.1,0,.14.02.14.07,0,.03-.03.05-.07.05-.06,0-.18,0-.29.03-.25.04-.32.19-.34.49-.02.28-.02.52-.02,1.87v1.54Z" fill="url(#radial-gradient-10)" stroke-width="0"/><path d="M159.5,49.67c0-.7-.04-.8-.39-.89-.07-.02-.22-.03-.29-.03-.03,0-.07-.02-.07-.05,0-.05.04-.07.14-.07.39,0,.94.03.98.03s.59-.03.85-.03c.1,0,.14.02.14.07,0,.03-.03.05-.07.05-.06,0-.11,0-.22.03-.23.04-.3.19-.32.49-.02.28-.02.54-.02.9v.97c0,.39,0,.41-.11.47-.55.29-1.33.39-1.84.39-.66,0-1.89-.09-2.85-.93-.53-.46-1.03-1.39-1.03-2.47,0-1.39.68-2.37,1.45-2.85.78-.49,1.64-.55,2.31-.55.55,0,1.16.11,1.33.15.18.04.49.08.7.09.09,0,.1.04.1.08,0,.12-.06.36-.06,1.23,0,.14-.02.18-.08.18-.04,0-.05-.05-.06-.13,0-.12-.05-.36-.18-.57-.22-.33-.92-.7-2.04-.7-.55,0-1.2.05-1.85.57-.5.4-.86,1.19-.86,2.2,0,1.22.61,2.11.92,2.4.68.67,1.47.93,2.27.93.31,0,.76-.05.99-.18.11-.06.17-.16.17-.3v-1.47Z" fill="url(#radial-gradient-11)" stroke-width="0"/><path d="M165.28,47.84c0-1.35,0-1.59-.02-1.87-.02-.29-.09-.43-.37-.49-.07-.02-.22-.03-.29-.03-.03,0-.07-.02-.07-.05,0-.05.04-.07.14-.07.39,0,.94.03.98.03.1,0,.75-.03,1.02-.03.55,0,1.13.05,1.59.38.22.16.6.58.6,1.18,0,.64-.27,1.28-1.05,2,.71.91,1.3,1.68,1.8,2.22.47.49.84.59,1.06.62.16.03.29.03.34.03.04,0,.08.03.08.05,0,.05-.05.07-.21.07h-.62c-.48,0-.7-.04-.93-.16-.37-.2-.68-.62-1.17-1.27-.36-.48-.77-1.06-.94-1.28-.03-.03-.06-.05-.11-.05l-1.07-.02s-.06.03-.06.07v.21c0,.83,0,1.52.04,1.88.03.25.08.44.34.48.12.02.31.03.39.03.05,0,.07.03.07.05,0,.04-.04.07-.14.07-.48,0-1.02-.03-1.07-.03,0,0-.55.03-.81.03-.1,0-.14-.02-.14-.07,0-.03.02-.05.07-.05.08,0,.18-.02.26-.03.17-.03.22-.23.25-.48.04-.36.04-1.05.04-1.88v-1.53ZM165.97,48.59s.02.08.06.1c.13.08.53.14.91.14.21,0,.45-.03.65-.16.3-.21.53-.68.53-1.33,0-1.08-.57-1.73-1.5-1.73-.26,0-.49.03-.58.05-.04.02-.07.05-.07.1v2.83Z" fill="url(#radial-gradient-12)" stroke-width="0"/><path d="M176.8,45.21c1.95,0,3.41,1.23,3.41,3.25s-1.37,3.54-3.46,3.54c-2.37,0-3.36-1.85-3.36-3.41,0-1.4,1.02-3.39,3.41-3.39ZM176.98,51.67c.78,0,2.39-.45,2.39-2.97,0-2.08-1.27-3.2-2.63-3.2-1.45,0-2.53.95-2.53,2.85,0,2.02,1.21,3.32,2.77,3.32Z" fill="url(#radial-gradient-13)" stroke-width="0"/><path d="M184.23,47.84c0-1.35,0-1.59-.02-1.87-.02-.29-.09-.43-.37-.49-.07-.02-.22-.03-.29-.03-.03,0-.07-.02-.07-.05,0-.05.04-.07.14-.07.39,0,.92.03,1,.03s.6-.03.86-.03c.1,0,.14.02.14.07,0,.03-.04.05-.07.05-.06,0-.11,0-.22.03-.23.03-.3.19-.32.49-.02.28-.02.52-.02,1.87v1.21c0,1.25.28,1.79.65,2.14.42.4.82.48,1.31.48.53,0,1.05-.25,1.36-.62.4-.49.5-1.23.5-2.12v-1.08c0-1.35,0-1.59-.02-1.87-.02-.29-.09-.43-.37-.49-.07-.02-.22-.03-.29-.03-.03,0-.07-.02-.07-.05,0-.05.04-.07.14-.07.39,0,.87.03.92.03.06,0,.47-.03.73-.03.1,0,.14.02.14.07,0,.03-.03.05-.07.05-.06,0-.11,0-.22.03-.23.05-.3.19-.32.49-.02.28-.02.52-.02,1.87v.93c0,.94-.1,1.98-.8,2.59-.62.55-1.27.64-1.79.64-.29,0-1.17-.03-1.79-.62-.42-.41-.75-1.01-.75-2.28v-1.27Z" fill="url(#radial-gradient-14)" stroke-width="0"/><path d="M194.36,47.84c0-1.35,0-1.59-.02-1.87-.02-.29-.09-.43-.37-.49-.07-.02-.22-.03-.29-.03-.03,0-.07-.02-.07-.05,0-.05.04-.07.14-.07.39,0,.91.03.98.03.19,0,.69-.03,1.09-.03,1.08,0,1.47.36,1.61.49.19.18.43.57.43,1.03,0,1.23-.9,2.06-2.13,2.06-.04,0-.14,0-.18,0-.04,0-.1-.02-.1-.06,0-.07.05-.08.23-.08.84,0,1.5-.62,1.5-1.41,0-.29-.03-.87-.49-1.33s-.99-.43-1.19-.43c-.15,0-.29.02-.37.05-.05.02-.07.08-.07.16v3.56c0,.83,0,1.52.04,1.88.03.25.08.44.34.48.12.02.31.03.39.03.05,0,.07.03.07.05,0,.04-.04.07-.14.07-.48,0-1.02-.03-1.07-.03-.03,0-.57.03-.83.03-.1,0-.14-.02-.14-.07,0-.03.02-.05.07-.05.08,0,.18-.02.26-.03.17-.03.22-.23.25-.48.04-.36.04-1.05.04-1.88v-1.53Z" fill="url(#radial-gradient-15)" stroke-width="0"/><rect x="56.03" y="48.35" width="36.16" height=".51" fill="url(#radial-gradient-16)" stroke-width="0"/></svg>