<?xml version="1.0" encoding="utf-8"?>
<!-- Generator: Adobe Illustrator 28.2.0, SVG Export Plug-In . SVG Version: 6.00 Build 0)  -->
<svg version="1.1" id="Layer_1" xmlns="http://www.w3.org/2000/svg" xmlns:xlink="http://www.w3.org/1999/xlink" x="0px" y="0px"
	 viewBox="0 0 100.8 100.8" style="enable-background:new 0 0 100.8 100.8;" xml:space="preserve">
<style type="text/css">
	.st0{fill:#FFFFFF;}
</style>
<g>
	<path class="st0" d="M68.4,38c0,0-9.3,4.3-19.1-4.7c-13.1-12-23.9-9.9-23.9-9.9s-14,0-14,19.8s14,37,23.7,48.8
		c0,0-14.8-26.9-14.8-48.4c0-9,4.3-11,8.4-11c7.7,0,18.9,11,28.8,11C65,43.5,68.4,38,68.4,38z"/>
	<circle class="st0" cx="34.1" cy="12.7" r="8.2"/>
	<circle class="st0" cx="72.1" cy="21.6" r="6.1"/>
	<path class="st0" d="M57.8,33.4c0,0,26.9-12.2,31.5,9.2C94,64.1,61.8,95.8,61.8,95.8s19.6-25,19.6-45.6S63.3,33.4,57.8,33.4z"/>
	<path class="st0" d="M70.3,52c0,0-7,15.4-11.1,18.4c0,0-7.3-9-13.3-9S34.6,70,33.7,75.1c0,0,4.7-7.3,10.3-7.3
		c3.2,0,14.7,8.3,11.8,28.7C55.8,96.5,68.6,80.9,70.3,52L70.3,52z"/>
	<circle class="st0" cx="56.4" cy="54.6" r="5.9"/>
</g>
</svg>
