<?xml version="1.0" encoding="utf-8"?>
<!-- Generator: Adobe Illustrator 28.2.0, SVG Export Plug-In . SVG Version: 6.00 Build 0)  -->
<svg version="1.1" id="Layer_1" xmlns="http://www.w3.org/2000/svg" xmlns:xlink="http://www.w3.org/1999/xlink" x="0px" y="0px"
	 viewBox="0 0 99.4 62.6" style="enable-background:new 0 0 99.4 62.6;" xml:space="preserve">
<style type="text/css">
	.st0{clip-path:url(#SVGID_00000080188488377410084260000008379881917134049465_);}
	.st1{fill:#0C77C6;}
</style>
<g>
	<defs>
		<rect id="SVGID_1_" y="0" width="99.4" height="62.6"/>
	</defs>
	<clipPath id="SVGID_00000008845036961859809560000001019622433140248192_">
		<use xlink:href="#SVGID_1_"  style="overflow:visible;"/>
	</clipPath>
	<g style="clip-path:url(#SVGID_00000008845036961859809560000001019622433140248192_);">
		<g id="Group_2421">
			<path id="Path_13619" class="st1" d="M17.8,0.7C5.3,3.7-2.4,16.3,0.6,28.8c2.1,8.8,9.1,15.6,18,17.4c-2.1,6.3-5.8,11.9-10.7,16.4
				c21.5-0.3,38.8-17.7,38.8-39.2C46.7,10.5,36.2,0,23.3,0C21.5,0,19.6,0.2,17.8,0.7"/>
			<path id="Path_13620" class="st1" d="M70.5,0.7C58,3.7,50.3,16.3,53.3,28.8c2.1,8.8,9.1,15.6,18,17.4
				c-2.1,6.3-5.8,11.9-10.7,16.4c21.5-0.3,38.8-17.7,38.8-39.2C99.4,10.5,88.9,0,76,0C74.1,0,72.3,0.2,70.5,0.7"/>
		</g>
	</g>
</g>
</svg>
