<?xml version="1.0" encoding="utf-8"?>
<!-- Generator: Adobe Illustrator 28.2.0, SVG Export Plug-In . SVG Version: 6.00 Build 0)  -->
<svg version="1.1" id="Layer_1" xmlns="http://www.w3.org/2000/svg" xmlns:xlink="http://www.w3.org/1999/xlink" x="0px" y="0px"
	 viewBox="0 0 103.7 13.7" style="enable-background:new 0 0 103.7 13.7;" xml:space="preserve">
<style type="text/css">
	.st0{clip-path:url(#SVGID_00000031896073684725554840000018216105333422173070_);}
	.st1{fill:#E7B928;}
</style>
<g id="Group_2368">
	<g>
		<defs>
			
				<rect id="SVGID_1_" x="0.1" y="2.7" transform="matrix(0.9986 -5.233596e-02 5.233596e-02 0.9986 -0.2867 2.722)" width="103.4" height="8.2"/>
		</defs>
		<clipPath id="SVGID_00000172402170446406852680000006141096788099472787_">
			<use xlink:href="#SVGID_1_"  style="overflow:visible;"/>
		</clipPath>
		<g style="clip-path:url(#SVGID_00000172402170446406852680000006141096788099472787_);">
			<g id="Group_2367">
				<path id="Path_13547" class="st1" d="M5.4,12.7c14.3-5.5,31-7.3,47.2-7.6c12.8-0.2,25.5,0.5,38.2,2.1c2.4,0.3,4.9,0.6,7.2,1
					c1.2,0,2.5-0.1,3.7-0.5c0.2-0.1,2.4-0.8,1.8-0.9c-7.5-1.3-15.3-2-23-2.5C64,3,47.5,3.5,31.1,5.6C20.8,7,10.7,9.5,1,13.1
					c-0.9,0.3-0.8,0.6,0.2,0.5C2.7,13.5,4.1,13.2,5.4,12.7"/>
				<path id="Path_13548" class="st1" d="M5.7,12.6c14.5-6.2,31.9-8.7,48.9-9.4c12.8-0.5,25.6-0.2,38.3,1c2.4,0.2,4.9,0.5,7.3,0.8
					c0.6,0,1.2-0.1,1.8-0.3c0.1,0,1.2-0.4,0.9-0.4c-7.6-1.1-15.4-1.5-23.1-1.9C63.5,1.7,47.1,2.6,31,5.2C21.4,6.7,12.1,9.3,3.1,13
					c-0.5,0.2,0.5,0.1,0.6,0.1C4.4,13,5.1,12.9,5.7,12.6"/>
			</g>
		</g>
	</g>
</g>
</svg>
