<?xml version="1.0" encoding="UTF-8"?>
<svg id="Layer_1" data-name="Layer 1" xmlns="http://www.w3.org/2000/svg" version="1.1" viewBox="0 0 144 33.8">
  <defs>
    <style>
      .cls-1 {
        fill: #d6bd54;
        stroke-width: 0px;
      }
    </style>
  </defs>
  <path class="cls-1" d="M129.3,10c-3.9,0-5.9-1.6-7.7-2.9-1.7-1.3-3.4-2.7-6.6-2.7s-4.9,1.3-6.6,2.7c-1.8,1.3-3.8,2.9-7.7,2.9s-5.9-1.6-7.7-2.9c-1.7-1.3-3.4-2.7-6.6-2.7s-4.9,1.3-6.6,2.7c-1.8,1.3-3.8,2.9-7.7,2.9s-5.9-1.6-7.7-2.9c-1.7-1.3-3.4-2.7-6.6-2.7s-4.9,1.3-6.6,2.7c-1.8,1.3-3.8,2.9-7.7,2.9s-5.9-1.6-7.7-2.9c-1.7-1.3-3.4-2.7-6.6-2.7s-4.9,1.3-6.6,2.7c-1.8,1.3-3.8,2.9-7.7,2.9s-5.9-1.6-7.7-2.9c-1.8-1.3-3.4-2.7-6.7-2.7v-1.1c3.9,0,5.9,1.6,7.7,2.9,1.7,1.3,3.4,2.7,6.6,2.7s4.9-1.3,6.6-2.7c1.8-1.3,3.8-2.9,7.7-2.9s5.9,1.6,7.7,2.9c1.7,1.3,3.4,2.7,6.6,2.7s4.9-1.3,6.6-2.7c1.8-1.3,3.8-2.9,7.7-2.9s5.9,1.6,7.7,2.9c1.7,1.3,3.4,2.7,6.6,2.7s4.9-1.3,6.6-2.7c1.8-1.3,3.8-2.9,7.7-2.9s5.9,1.6,7.7,2.9c1.7,1.3,3.4,2.7,6.6,2.7s4.9-1.3,6.6-2.7c1.8-1.3,3.8-2.9,7.7-2.9s5.9,1.6,7.7,2.9c1.7,1.3,3.4,2.7,6.6,2.7s4.9-1.3,6.6-2.7c1.8-1.3,3.8-2.9,7.7-2.9v1.1c-3.3,0-4.9,1.3-6.6,2.7-1.8,1.3-3.8,2.9-7.7,2.9h0Z"/>
  <path class="cls-1" d="M129.3,19.6c-3.9,0-5.9-1.6-7.7-2.9-1.7-1.3-3.4-2.7-6.6-2.7s-4.9,1.3-6.6,2.7c-1.8,1.3-3.8,2.9-7.7,2.9s-5.9-1.6-7.7-2.9c-1.7-1.3-3.4-2.7-6.6-2.7s-4.9,1.3-6.6,2.7c-1.8,1.3-3.8,2.9-7.7,2.9s-5.9-1.6-7.7-2.9c-1.7-1.3-3.4-2.7-6.6-2.7s-4.9,1.3-6.6,2.7c-1.8,1.3-3.8,2.9-7.7,2.9s-5.9-1.6-7.7-2.9c-1.7-1.3-3.4-2.7-6.6-2.7s-4.9,1.3-6.6,2.7c-1.8,1.3-3.8,2.9-7.7,2.9s-5.9-1.6-7.7-2.9c-1.7-1.3-3.4-2.7-6.6-2.7v-1.1c3.9,0,5.9,1.6,7.7,2.9,1.7,1.3,3.4,2.7,6.6,2.7s4.9-1.3,6.6-2.7c1.8-1.3,3.8-2.9,7.7-2.9s5.9,1.6,7.7,2.9c1.7,1.3,3.4,2.7,6.6,2.7s4.9-1.3,6.6-2.7c1.8-1.3,3.8-2.9,7.7-2.9s5.9,1.6,7.7,2.9c1.7,1.3,3.4,2.7,6.6,2.7s4.9-1.3,6.6-2.7c1.8-1.3,3.8-2.9,7.7-2.9s5.9,1.6,7.7,2.9c1.7,1.3,3.4,2.7,6.6,2.7s4.9-1.3,6.6-2.7c1.8-1.3,3.8-2.9,7.7-2.9s5.9,1.6,7.7,2.9c1.7,1.3,3.4,2.7,6.6,2.7s4.9-1.3,6.6-2.7c1.8-1.3,3.8-2.9,7.7-2.9v1.1c-3.3,0-4.9,1.3-6.6,2.7-1.8,1.3-3.8,2.9-7.7,2.9Z"/>
  <path class="cls-1" d="M129.3,29.5c-3.9,0-5.9-1.6-7.7-2.9-1.7-1.3-3.4-2.7-6.6-2.7s-4.9,1.3-6.6,2.7c-1.8,1.3-3.8,2.9-7.7,2.9s-5.9-1.6-7.7-2.9c-1.7-1.3-3.4-2.7-6.6-2.7s-4.9,1.3-6.6,2.7c-1.8,1.3-3.8,2.9-7.7,2.9s-5.9-1.6-7.7-2.9c-1.7-1.3-3.4-2.7-6.6-2.7s-4.9,1.3-6.6,2.7c-1.8,1.3-3.8,2.9-7.7,2.9s-5.9-1.6-7.7-2.9c-1.7-1.3-3.4-2.7-6.6-2.7s-4.9,1.3-6.6,2.7c-1.8,1.3-3.8,2.9-7.7,2.9s-5.9-1.6-7.7-2.9c-1.7-1.3-3.4-2.7-6.6-2.7v-1.1c3.9,0,5.9,1.6,7.7,2.9,1.7,1.3,3.4,2.7,6.6,2.7s4.9-1.3,6.6-2.7c1.8-1.3,3.8-2.9,7.7-2.9s5.9,1.6,7.7,2.9c1.7,1.3,3.4,2.7,6.6,2.7s4.9-1.3,6.6-2.7c1.8-1.3,3.8-2.9,7.7-2.9s5.9,1.6,7.7,2.9c1.7,1.3,3.4,2.7,6.6,2.7s4.9-1.3,6.6-2.7c1.8-1.3,3.8-2.9,7.7-2.9s5.9,1.6,7.7,2.9c1.7,1.3,3.4,2.7,6.6,2.7s4.9-1.3,6.6-2.7c1.8-1.3,3.8-2.9,7.7-2.9s5.9,1.6,7.7,2.9c1.7,1.3,3.4,2.7,6.6,2.7s4.9-1.3,6.6-2.7c1.8-1.3,3.8-2.9,7.7-2.9v1.1c-3.3,0-4.9,1.3-6.6,2.7-1.8,1.3-3.8,2.9-7.7,2.9Z"/>
</svg>