<?xml version="1.0" encoding="UTF-8"?><svg id="Layer_1" xmlns="http://www.w3.org/2000/svg" width="22.39in" height="5.81in" viewBox="0 0 1612.14 418.21"><path d="M804.7,418.21c-26.18,0-52.59-6.98-79.68-20.97-41.72-21.54-79.26-56.22-119.01-92.92-40.21-37.13-81.78-75.53-126.54-97.54-48.18-23.68-93.53-25.19-142.73-4.72-15.8,6.57-31.7,13.31-47.08,19.83-63.51,26.93-123.5,52.36-176.24,66.23-29.48,7.75-54.39,11.27-76.15,10.79-26.06-.59-48.13-7.14-65.58-19.46-26.94-19.02-42.54-50.65-47.72-96.69C-81.16,137.06-76.05,77.28-60.41,0L-19.43,6.89C-46.54,140.87-40.94,222.46-2.79,249.4c20.64,14.58,54.88,15.3,104.66,2.2,49.64-13.06,108.21-37.89,170.22-64.18,15.44-6.55,31.42-13.32,47.35-19.95,61.21-25.46,120.02-23.54,179.8,5.85,50.26,24.71,94.06,65.16,136.42,104.29,37.65,34.77,73.21,67.62,109.89,86.56,38.19,19.72,71.24,21.22,107.14,4.85,46.91-21.38,94.69-70.01,145.29-121.49,90.26-91.85,192.57-195.95,337.21-200.08,109.55-3.12,225.67,51.73,354.89,167.73l-29.24,27.08c-63.39-56.9-124.21-98.81-180.75-124.55-50.59-23.03-97.58-33.58-143.6-32.28-56.1,1.6-110.74,21.51-167.05,60.85-51.08,35.69-96.5,81.91-140.43,126.61-53.32,54.25-103.68,105.5-157.69,130.12-22.21,10.13-44.34,15.2-66.64,15.2Z" fill="#fff" stroke-width="0"/></svg>