<?xml version="1.0" encoding="utf-8"?>
<!-- Generator: Adobe Illustrator 28.2.0, SVG Export Plug-In . SVG Version: 6.00 Build 0)  -->
<svg version="1.1" id="Layer_1" xmlns="http://www.w3.org/2000/svg" xmlns:xlink="http://www.w3.org/1999/xlink" x="0px" y="0px"
	 viewBox="0 0 71.1 71.1" style="enable-background:new 0 0 71.1 71.1;" xml:space="preserve">
<style type="text/css">
	.st0{fill:#D85A35;}
</style>
<g id="layer">
</g>
<g id="Layer_3">
</g>
<g id="Layer_2_00000022549888782244338190000012470146184974532789_">
</g>
<g id="Layer_4">
	<g>
		<path class="st0" d="M40,60.9c0-1.7-0.7-3.4-1.9-4.7c-1.4-1.5-3.4-2.1-5.3-1.8c0.2-1.9-0.4-4-1.8-5.4l0,0
			c-1.4-1.5-3.4-2.1-5.3-1.8c0.2-1.9-0.4-4-1.8-5.4c-1.4-1.5-3.4-2.1-5.3-1.8c0.2-1.9-0.4-4-1.8-5.4c-1.2-1.3-2.9-1.9-4.6-1.9
			s-3.3,0.7-4.6,1.9l-2.8,2.8c-1.2,1.3-1.9,2.9-1.9,4.7s0.7,3.4,1.9,4.7c1.2,1.3,2.9,1.9,4.6,1.9c0.3,0,0.5,0,0.8,0
			c0,0.3,0,0.5,0,0.8c0,1.7,0.7,3.4,1.9,4.7s2.9,1.9,4.6,1.9c0.3,0,0.5,0,0.8,0c0,0.3,0,0.5,0,0.8c0,1.7,0.7,3.4,1.9,4.7
			c1.2,1.3,2.9,1.9,4.6,1.9c0.3,0,0.5,0,0.8,0c-0.2,1.9,0.4,4,1.8,5.4c1.2,1.3,2.9,1.9,4.6,1.9s3.3-0.7,4.6-1.9l2.8-2.8
			C39.3,64.3,40,62.6,40,60.9z M6.8,44.4c-0.7-0.7-1-1.6-1-2.6c0-1,0.4-1.9,1-2.6l2.8-2.8c0.7-0.7,1.6-1.1,2.6-1.1
			c1,0,1.9,0.4,2.6,1.1l0,0c1.4,1.5,1.4,3.8,0,5.2l0,0l-2.8,2.8l0,0C10.5,45.9,8.2,45.9,6.8,44.4z M13.9,51.7c-0.7-0.7-1-1.6-1-2.6
			s0.4-1.9,1-2.6l0,0l2.8-2.8l0,0c0.7-0.7,1.6-1.1,2.6-1.1c1,0,1.9,0.4,2.6,1.1c1.4,1.5,1.4,3.8,0,5.2l0,0l-2.8,2.8l0,0
			C17.6,53.1,15.3,53.1,13.9,51.7z M21.1,59.1c-0.7-0.7-1-1.6-1-2.6s0.4-1.9,1-2.6l0,0l2.8-2.8l0,0c0.7-0.7,1.6-1.1,2.6-1.1
			c1,0,1.9,0.4,2.6,1.1c1.4,1.5,1.4,3.8,0,5.2l0,0l-2.8,2.8l0,0C24.9,60.4,22.5,60.4,21.1,59.1z M36.1,63.5l-2.8,2.8
			c-1.4,1.5-3.7,1.5-5.1,0c-1.4-1.5-1.4-3.8,0-5.2l0,0l2.8-2.8l0,0c0.7-0.7,1.6-1.1,2.6-1.1c1,0,1.9,0.4,2.6,1.1
			c0.7,0.7,1,1.6,1,2.6C37.1,61.9,36.7,62.8,36.1,63.5z"/>
		<path class="st0" d="M70.7,22.5c-0.6-0.6-1.4-0.6-2,0l-5.8,6c-0.6,0.6-0.6,1.5,0,2c0.3,0.3,0.7,0.4,1,0.4s0.8-0.1,1-0.4l5.8-6
			C71.1,24,71.1,23,70.7,22.5z"/>
		<path class="st0" d="M9,31.7c0.4,0,0.8-0.1,1-0.4c0.6-0.6,0.6-1.5,0-2l-6.7-6.8c-0.6-0.6-1.4-0.6-2,0s-0.6,1.5,0,2l6.7,6.8
			C8.2,31.5,8.6,31.7,9,31.7z"/>
		<path class="st0" d="M28.2,9.1c0.3,0.3,0.7,0.4,1,0.4c0.4,0,0.8-0.1,1-0.4c0.6-0.6,0.6-1.5,0-2L24.2,1c-0.6-0.6-1.4-0.6-2,0
			c-0.6,0.6-0.6,1.5,0,2L28.2,9.1z"/>
		<path class="st0" d="M24.3,17.1c-1.2,1.3-1.9,3.1-1.9,4.9c-0.1,0.3-0.1,0.7-0.1,1v9.2c0,3.7,2.9,6.6,6.5,6.6c3.5,0,6.5-3,6.5-6.6
			v-7.7l8.8-9c0.6-0.6,0.6-1.5,0-2c-0.6-0.6-1.4-0.6-2,0L32.8,23c-0.3,0.3-0.4,0.7-0.4,1v8.2c0,2-1.6,3.7-3.6,3.7s-3.7-1.6-3.7-3.7
			V23c0-0.2,0-0.4,0.1-0.7c0-0.1,0-0.2,0-0.3c-0.1-1.1,0.3-2.1,1-2.9L36.4,8.7l0,0c1.8-1.8,4.6-2.1,6.7-0.7c0.6,0.4,1.3,0.3,1.8-0.2
			l4.8-4.9c0.6-0.6,0.6-1.5,0-2s-1.4-0.6-2,0l-4.1,4.2c-2.7-1.4-5.9-1-8.3,0.8c-0.2,0.1-0.4,0.2-0.5,0.3L24.3,17.1z"/>
		<path class="st0" d="M47.2,16.7c-0.6-0.6-1.4-0.6-2,0c-0.6,0.6-0.6,1.5,0,2l20,20.4c1.4,1.5,1.4,3.8,0,5.2c-1.4,1.5-3.7,1.5-5.1,0
			l-6.7-6.8c-0.6-0.6-1.4-0.6-2,0c-0.6,0.6-0.6,1.5,0,2l6.7,6.8c0.7,0.7,1,1.6,1,2.6c0,1-0.4,1.9-1,2.6c-1.4,1.5-3.7,1.5-5.1,0
			l-6.7-6.8c-0.6-0.6-1.4-0.6-2,0s-0.6,1.5,0,2l6.7,6.8c0.7,0.7,1,1.6,1,2.6s-0.4,1.9-1,2.6c-1.4,1.5-3.7,1.5-5.1,0l-6.7-6.8
			c-0.6-0.6-1.4-0.6-2,0s-0.6,1.5,0,2l6.7,6.8c0.7,0.7,1,1.6,1,2.6c0,1-0.4,1.9-1,2.6c-1.1,1.2-2.9,1.5-4.3,0.7
			c-0.7-0.4-1.5-0.1-1.9,0.6c-0.4,0.7-0.1,1.6,0.6,1.9c1,0.6,2,0.8,3,0.8c1.7,0,3.3-0.7,4.6-1.9c1.4-1.5,2.1-3.5,1.8-5.4
			c0.3,0,0.5,0,0.8,0c1.6,0,3.3-0.7,4.6-1.9c1.2-1.3,1.9-2.9,1.9-4.7c0-0.3,0-0.5,0-0.8c0.3,0,0.5,0,0.8,0c1.7,0,3.3-0.7,4.6-1.9
			c1.2-1.3,1.9-2.9,1.9-4.7c0-0.3,0-0.5,0-0.8c1.9,0.2,3.8-0.4,5.3-1.8c1.2-1.3,1.9-2.9,1.9-4.7s-0.7-3.4-1.9-4.7L47.2,16.7z"/>
	</g>
</g>
</svg>
