<?xml version="1.0" encoding="utf-8"?>
<!-- Generator: Adobe Illustrator 28.2.0, SVG Export Plug-In . SVG Version: 6.00 Build 0)  -->
<svg version="1.1" xmlns="http://www.w3.org/2000/svg" xmlns:xlink="http://www.w3.org/1999/xlink" x="0px" y="0px"
	 viewBox="0 0 71 71.2" style="enable-background:new 0 0 71 71.2;" xml:space="preserve">
<style type="text/css">
	.st0{opacity:0.1;}
	.st1{fill:#FFFFFF;}
	.st2{clip-path:url(#SVGID_00000097489792921066748930000012203973736997005970_);}
	.st3{fill:#8C8D8D;}
	.st4{clip-path:url(#SVGID_00000042721624951575611460000000180955213267050634_);}
	.st5{fill:#55575A;}
	.st6{fill:#AA8802;}
	.st7{fill:#AFE5FF;}
	.st8{fill:#F7B96D;}
	.st9{fill:#CE3F6A;}
	.st10{fill:#63BDD4;}
	.st11{fill:#CACACA;}
	.st12{clip-path:url(#Path_13399_00000023987321767789685810000013625513495578685317_);}
	.st13{fill:#BEBEBE;}
	.st14{clip-path:url(#Path_13400_00000075861474562896113780000014648066084393139338_);}
	.st15{fill:#D85A35;}
	.st16{clip-path:url(#SVGID_00000002366005018304773520000015707757573653996450_);}
	.st17{fill:#1D94D9;}
	.st18{enable-background:new    ;}
	.st19{fill:#9A9DA4;}
	.st20{clip-path:url(#SVGID_00000055687036637188204460000018304229604074926252_);}
	.st21{fill:#2A6393;}
	.st22{fill:#D85D39;}
	.st23{fill:#747474;}
	.st24{fill:none;stroke:#302C27;stroke-width:1.8532;stroke-linecap:round;stroke-linejoin:round;stroke-miterlimit:10;}
	.st25{fill:#E5E5E5;}
	.st26{fill:#302C27;}
	.st27{fill:#B2B3B4;}
	.st28{fill:none;stroke:#000000;stroke-width:1.3199;stroke-linecap:round;stroke-linejoin:round;stroke-miterlimit:10;}
	.st29{fill:none;stroke:#FFFFFF;stroke-width:4.2452;stroke-linecap:round;stroke-linejoin:round;stroke-miterlimit:10;}
	.st30{fill:none;stroke:#FFFFFF;stroke-width:5.2795;stroke-linecap:round;stroke-linejoin:round;stroke-miterlimit:10;}
	.st31{fill:#FFFFFF;stroke:#FFFFFF;stroke-width:3.9596;stroke-linecap:round;stroke-linejoin:round;stroke-miterlimit:10;}
	.st32{fill:none;stroke:#000000;stroke-width:1.3199;stroke-miterlimit:10;}
	.st33{fill:none;stroke:#000000;stroke-width:1.3199;stroke-linecap:round;stroke-miterlimit:10;}
	.st34{fill:none;stroke:#FFFFFF;stroke-width:1.3199;stroke-linecap:round;stroke-linejoin:round;stroke-miterlimit:10;}
	.st35{fill:none;stroke:#000000;stroke-width:1.3199;stroke-linejoin:round;stroke-miterlimit:10;}
	.st36{fill:#FFFFFF;stroke:#FFFFFF;stroke-width:5.2795;stroke-linecap:round;stroke-linejoin:round;stroke-miterlimit:10;}
	.st37{fill:#FFFFFF;stroke:#000000;stroke-width:1.3199;stroke-linecap:round;stroke-linejoin:round;stroke-miterlimit:10;}
	.st38{fill:none;stroke:#FFFFFF;stroke-width:3.9596;stroke-linecap:square;stroke-miterlimit:10;}
	.st39{fill:#FFFFFF;stroke:#FFFFFF;stroke-width:3.9596;stroke-linecap:square;stroke-miterlimit:10;}
	.st40{fill:#FFFFFF;stroke:#FFFFFF;stroke-width:4.2452;stroke-linecap:round;stroke-linejoin:round;stroke-miterlimit:10;}
	.st41{fill:#FFFFFF;stroke:#000000;stroke-width:1.3199;stroke-linejoin:round;stroke-miterlimit:10;}
	.st42{fill:none;stroke:#FFFFFF;stroke-width:3.9596;stroke-linecap:round;stroke-linejoin:round;stroke-miterlimit:10;}
	.st43{clip-path:url(#SVGID_00000085220769400004965970000014573727239356752823_);}
	.st44{fill:none;}
	.st45{fill:#FFFFFF;stroke:#000000;stroke-width:1.3199;stroke-linecap:round;stroke-miterlimit:10;}
	.st46{fill:#FFFFFF;stroke:#000000;stroke-width:1.3199;stroke-linecap:square;stroke-miterlimit:10;}
	.st47{fill:#FFFFFF;stroke:#FFFFFF;stroke-width:4.2459;stroke-linecap:round;stroke-linejoin:round;stroke-miterlimit:10;}
	.st48{fill:none;stroke:#FFFFFF;stroke-width:3.9596;stroke-linecap:square;stroke-linejoin:round;stroke-miterlimit:10;}
	.st49{fill:none;stroke:#000000;stroke-width:1.3199;stroke-linecap:square;stroke-linejoin:round;stroke-miterlimit:10;}
	.st50{fill:none;stroke:#FFFFFF;stroke-width:4.7515;stroke-linecap:round;stroke-linejoin:round;stroke-miterlimit:10;}
	.st51{fill:#FFFFFF;stroke:#FFFFFF;stroke-width:3.9596;stroke-miterlimit:10;}
	.st52{fill:none;stroke:#302C27;stroke-width:2.4348;stroke-linecap:round;stroke-linejoin:round;stroke-miterlimit:10;}
	.st53{fill:none;stroke:#302C27;stroke-width:2.6782;stroke-linecap:round;stroke-linejoin:round;stroke-miterlimit:10;}
	.st54{fill:none;stroke:#000000;stroke-width:2.1148;stroke-miterlimit:10;}
	.st55{fill:#FFFFFF;stroke:#000000;stroke-width:2.1148;stroke-linecap:round;stroke-linejoin:round;stroke-miterlimit:10;}
	.st56{fill:#FFFFFF;stroke:#FFFFFF;stroke-width:6.3443;stroke-linecap:round;stroke-linejoin:round;stroke-miterlimit:10;}
	.st57{clip-path:url(#SVGID_00000048491439832957892240000003804902817043997871_);}
	.st58{clip-path:url(#SVGID_00000132076286555739533930000008348368348580610212_);}
</style>
<g id="layer">
</g>
<g id="Layer_3">
</g>
<g id="Layer_2">
</g>
<g id="Layer_4">
	<g>
		<path class="st15" d="M11.6,12.5c3.3,0,6-2.7,6-6.1s-2.7-6.1-6-6.1s-6,2.7-6,6.1S8.3,12.5,11.6,12.5z M11.6,3
			C13.5,3,15,4.5,15,6.4s-1.5,3.4-3.3,3.4S8.3,8.3,8.3,6.4S9.8,3,11.6,3z"/>
		<path class="st15" d="M16.5,14H5.3C2.4,14,0,16.4,0,19.3v15.6c0,0.7,0.6,1.3,1.3,1.3s1.3-0.6,1.3-1.3V19.3c0-1.4,1.2-2.6,2.6-2.6
			h8.6C14.7,15.8,15.6,14.9,16.5,14z"/>
		<path class="st15" d="M59.4,12.2c3.3,0,6-2.7,6-6.1c0-3.4-2.7-6.1-6-6.1s-6,2.7-6,6.1C53.4,9.5,56.1,12.2,59.4,12.2z M59.4,2.7
			c1.8,0,3.3,1.5,3.3,3.4c0,1.9-1.5,3.4-3.3,3.4c-1.8,0-3.3-1.5-3.3-3.4C56.1,4.2,57.5,2.7,59.4,2.7z"/>
		<path class="st15" d="M65.7,13.7H54.1c0.9,0.8,1.8,1.7,2.7,2.7h9c1.4,0,2.6,1.2,2.6,2.6v15.6c0,0.7,0.6,1.3,1.3,1.3
			s1.3-0.6,1.3-1.3V19C71,16.1,68.6,13.7,65.7,13.7z"/>
		<path class="st15" d="M59.2,50.3c-0.5,0.8-1,1.5-1.6,2.2l9.8,10c1.4,1.4,1.4,3.6,0,5c-0.6,0.7-1.5,1-2.4,1c0,0,0,0,0,0
			c-0.9,0-1.8-0.4-2.4-1l-9.9-10.2c-0.7,0.5-1.5,1.1-2.2,1.5l10.2,10.5c1.2,1.2,2.7,1.8,4.3,1.8c0,0,0,0,0,0c1.6,0,3.2-0.7,4.3-1.8
			c2.4-2.4,2.4-6.4,0-8.8L59.2,50.3z"/>
		<path class="st15" d="M56.3,51.1c0.6-0.7,1.1-1.5,1.6-2.2c2.6-4.1,4-8.9,4-14c0-7.2-2.9-13.7-7.6-18.5c-0.7-0.8-1.5-1.5-2.4-2.1
			c-4.5-3.6-10.2-5.8-16.4-5.8c-6.3,0-12.1,2.2-16.6,5.9c-0.9,0.7-1.7,1.5-2.5,2.3c-4.5,4.7-7.3,11.1-7.3,18.2
			c0,14.6,11.8,26.4,26.4,26.4c5,0,9.6-1.4,13.5-3.8c0.8-0.5,1.5-1,2.3-1.5C53.2,54.6,54.8,53,56.3,51.1z M49.1,54.3
			c-0.4,0.3-0.8,0.6-1.2,0.8c-3.6,2.2-7.8,3.5-12.3,3.5c-13.1,0-23.7-10.6-23.7-23.7s10.6-23.7,23.7-23.7s23.7,10.6,23.7,23.7
			c0,4.6-1.3,8.9-3.6,12.6c-0.3,0.5-0.7,1.1-1.1,1.6C53,51.1,51.2,52.8,49.1,54.3z"/>
		<path class="st15" d="M35.5,34.4c4.4,0,7.9-3.6,7.9-8.1s-3.5-8.1-7.9-8.1s-7.9,3.6-7.9,8.1S31.1,34.4,35.5,34.4z M35.5,21
			c2.9,0,5.2,2.4,5.2,5.4s-2.3,5.4-5.2,5.4s-5.2-2.4-5.2-5.4S32.6,21,35.5,21z"/>
		<path class="st15" d="M45.2,38.1H25.8c-3.4,0-6.1,2.7-6.1,6.1v4.3c0.8,1,1.7,1.8,2.7,2.6v-6.9c0-1.9,1.5-3.4,3.4-3.4h19.5
			c1.9,0,3.4,1.5,3.4,3.4v6.9c1-0.8,1.9-1.7,2.7-2.6v-4.3C51.4,40.8,48.6,38.1,45.2,38.1z"/>
	</g>
</g>
</svg>
