<?xml version="1.0" encoding="utf-8"?>
<!-- Generator: Adobe Illustrator 28.2.0, SVG Export Plug-In . SVG Version: 6.00 Build 0)  -->
<svg version="1.1" id="Layer_1" xmlns="http://www.w3.org/2000/svg" xmlns:xlink="http://www.w3.org/1999/xlink" x="0px" y="0px"
	 viewBox="0 0 71.1 71.6" style="enable-background:new 0 0 71.1 71.6;" xml:space="preserve">
<style type="text/css">
	.st0{fill:#D85A35;}
</style>
<g id="layer">
</g>
<g id="Layer_3">
</g>
<g id="Layer_2_00000085243131377759954630000001639060812497445307_">
</g>
<g id="Layer_4">
	<g>
		<path class="st0" d="M39.4,32c0-0.7-0.5-1.3-1.1-1.3H9.9c-0.6,0-1.1,0.6-1.1,1.3c0,0.7,0.5,1.3,1.1,1.3h28.4
			C38.9,33.3,39.4,32.7,39.4,32z"/>
		<path class="st0" d="M23.2,42.6c0-0.7-0.5-1.3-1.1-1.3H9.9c-0.6,0-1.1,0.6-1.1,1.3c0,0.7,0.5,1.3,1.1,1.3h12.3
			C22.7,43.9,23.2,43.4,23.2,42.6z"/>
		<path class="st0" d="M9.9,51.9c-0.6,0-1.1,0.6-1.1,1.3c0,0.7,0.5,1.3,1.1,1.3H15c0.6,0,1.1-0.6,1.1-1.3c0-0.7-0.5-1.3-1.1-1.3H9.9
			z"/>
		<path class="st0" d="M64.3,34.6L33.2,46.5c-0.6,0.2-0.9,1-0.7,1.7c0.2,0.6,0.6,0.9,1.1,0.9c0.1,0,0.2,0,0.3-0.1L65,37.1
			c0.6-0.2,0.9-1,0.7-1.7C65.5,34.7,64.9,34.4,64.3,34.6z"/>
		<path class="st0" d="M68,29.4c-1.1-2.4-3.4-3.6-5.4-2.8L30.7,38.8c-0.1,0-0.2,0.1-0.2,0.1l0,0c-0.1,0-0.1,0.1-0.2,0.1l0,0L19,51.5
			c-0.5,0.6-0.7,1.5-0.5,2.3c0.2,0.8,0.8,1.4,1.5,1.5l15.3,2.3c0.1,0,0.1,0,0.2,0l0,0c0.1,0,0.2,0,0.3-0.1l0,0l31.8-12.2
			c2.1-0.8,3.5-3.4,3.1-6C70.2,35.7,69.4,32.4,68,29.4z M21.1,52.7l1-1l0.3,1.2L21.1,52.7z M66.8,42.8L36,54.5l-0.4-1.6
			c-0.2-0.7-0.8-1.1-1.4-0.9s-0.9,1-0.7,1.7l0.2,0.9l-9-1.3l-0.9-3.6l6.7-7.3l0.2,0.9c0.2,0.6,0.6,0.9,1.1,0.9c0.1,0,0.2,0,0.3-0.1
			c0.6-0.2,0.9-1,0.7-1.7l-0.4-1.6l30.8-11.6c1.1-0.4,2.3,0.2,2.9,1.5c1.2,2.8,2,5.8,2.4,9C68.6,41,67.9,42.4,66.8,42.8z"/>
		<path class="st0" d="M47.6,54.9c-0.6,0-1.1,0.6-1.1,1.3v12.6H3.2V18.7h11.9c0.6,0,1.1-0.6,1.1-1.3V3.1h30.3v25
			c0,0.7,0.5,1.3,1.1,1.3s1.1-0.6,1.1-1.3V1.7c0-0.7-0.5-1.3-1.1-1.3H15.1c-0.2,0-0.3,0-0.4,0.1c-0.1,0-0.2,0.1-0.2,0.2l-0.1,0.1
			l-13,15.6l-0.1,0.1c-0.1,0.1-0.2,0.2-0.2,0.3C1,17,1,17.2,1,17.4v52.7c0,0.7,0.5,1.3,1.1,1.3h45.5c0.6,0,1.1-0.6,1.1-1.3V56.2
			C48.6,55.4,48.1,54.9,47.6,54.9z M13.9,5v11.1H4.8L13.9,5z"/>
	</g>
</g>
</svg>
