<?xml version="1.0" encoding="utf-8"?>
<!-- Generator: Adobe Illustrator 28.2.0, SVG Export Plug-In . SVG Version: 6.00 Build 0)  -->
<svg version="1.1" id="Layer_1" xmlns="http://www.w3.org/2000/svg" xmlns:xlink="http://www.w3.org/1999/xlink" x="0px" y="0px"
	 viewBox="0 0 71.1 71.1" style="enable-background:new 0 0 71.1 71.1;" xml:space="preserve">
<style type="text/css">
	.st0{fill:#D85A35;}
</style>
<g id="layer">
</g>
<g id="Layer_3">
</g>
<g id="Layer_2_00000025405864880660514550000009919324959582516115_">
</g>
<g id="Layer_4">
	<g>
		<path class="st0" d="M18.5,52.1V44c0-0.7-0.6-1.2-1.2-1.2s-1.2,0.6-1.2,1.2v8.5c0,0.4,0.1,0.7,0.4,0.8l5.6,5.6
			c0.3,0.3,0.6,0.4,0.8,0.4c0.3,0,0.7-0.1,0.8-0.4c0.5-0.5,0.5-1.3,0-1.8L18.5,52.1z"/>
		<path class="st0" d="M17.3,41.1c0.4,0,0.7-0.1,0.8-0.4c0.1-0.1,0.2-0.3,0.3-0.4s0.1-0.3,0.1-0.5c0-0.4-0.1-0.7-0.4-0.9
			c-0.3-0.3-0.8-0.5-1.1-0.4c-0.1,0-0.2,0-0.2,0.1c-0.1,0-0.2,0.1-0.2,0.1c-0.1,0-0.1,0.1-0.2,0.2c-0.2,0.2-0.4,0.6-0.4,0.9
			c0,0.4,0.1,0.7,0.4,0.8C16.6,41,16.9,41.1,17.3,41.1z"/>
		<path class="st0" d="M18.4,64.1c0-0.1-0.1-0.2-0.1-0.2c0-0.1-0.1-0.1-0.2-0.2s-0.1-0.1-0.2-0.2c-0.1,0-0.2-0.1-0.2-0.1
			c-0.1,0-0.2-0.1-0.2-0.1c-0.4-0.1-0.8,0.1-1.1,0.4c-0.2,0.2-0.4,0.6-0.4,0.8c0,0.2,0,0.3,0.1,0.5c0.1,0.2,0.2,0.3,0.3,0.4
			c0.1,0.1,0.3,0.2,0.4,0.3c0.2,0.1,0.3,0.1,0.5,0.1c0.2,0,0.4,0,0.5-0.1c0.2-0.1,0.3-0.2,0.4-0.3c0.2-0.2,0.4-0.6,0.4-0.9
			C18.5,64.4,18.5,64.3,18.4,64.1C18.5,64.3,18.4,64.2,18.4,64.1z"/>
		<path class="st0" d="M29.6,53.5c0.4,0,0.7-0.1,0.8-0.4c0.1-0.1,0.2-0.3,0.3-0.4c0.1-0.2,0.1-0.3,0.1-0.5c0-0.4-0.2-0.7-0.4-0.9
			c-0.5-0.5-1.3-0.5-1.8,0c-0.1,0.1-0.1,0.1-0.2,0.2c0,0.1-0.1,0.1-0.1,0.2c0,0.1-0.1,0.2-0.1,0.2c0,0.1,0,0.2,0,0.3
			c0,0.4,0.1,0.7,0.4,0.8C28.9,53.4,29.3,53.5,29.6,53.5z"/>
		<path class="st0" d="M6.1,51.8c0-0.1-0.1-0.1-0.1-0.2C6,51.5,6,51.5,5.9,51.5c-0.5-0.5-1.3-0.5-1.8,0c0,0-0.1,0.1-0.2,0.2
			c0,0.1-0.1,0.1-0.1,0.2c0,0.1-0.1,0.2-0.1,0.2c0,0.1,0,0.2,0,0.3c0,0.4,0.1,0.7,0.4,0.8c0.3,0.3,0.6,0.4,0.9,0.4
			c0.4,0,0.7-0.1,0.8-0.4C6,53,6,52.9,6.1,52.8c0.1-0.2,0.1-0.3,0.1-0.5c0-0.1,0-0.2,0-0.3C6.2,52,6.1,51.9,6.1,51.8z"/>
		<path class="st0" d="M17.3,35.3c-9.4,0-17,7.6-17,17s7.6,17,17,17s17-7.6,17-17S26.6,35.3,17.3,35.3z M17.3,66.7
			c-8,0-14.4-6.5-14.4-14.4s6.5-14.4,14.4-14.4s14.4,6.5,14.4,14.4S25.2,66.7,17.3,66.7z"/>
		<path class="st0" d="M69.6,5.7H58.7V3c0-0.7-0.6-1.2-1.2-1.2c-0.7,0-1.2,0.6-1.2,1.2v2.6H43.8V3c0-0.7-0.6-1.2-1.2-1.2
			c-0.7,0-1.2,0.6-1.2,1.2v2.6H28.7V3c0-0.7-0.6-1.2-1.2-1.2c-0.7,0-1.2,0.6-1.2,1.2v2.6H16c-0.7,0-1.2,0.6-1.2,1.2v23.6
			c0,0.7,0.6,1.2,1.2,1.2s1.2-0.6,1.2-1.2V15.9h51v35.2h-30c-0.7,0-1.2,0.6-1.2,1.2s0.6,1.2,1.2,1.2h31.3c0.7,0,1.2-0.6,1.2-1.2V6.9
			C70.8,6.2,70.2,5.7,69.6,5.7z M17.3,13.4V8.2h9v1.6c0,0.7,0.6,1.2,1.2,1.2c0.7,0,1.2-0.6,1.2-1.2V8.2h12.5v1.6
			c0,0.7,0.6,1.2,1.2,1.2s1.2-0.6,1.2-1.2V8.2h12.5v1.6c0,0.7,0.6,1.2,1.2,1.2c0.7,0,1.2-0.6,1.2-1.2V8.2h9.6v5.2H17.3z"/>
		<path class="st0" d="M52.9,41.3c0,0.7,0.6,1.2,1.2,1.2s1.2-0.6,1.2-1.2V38h5.3c0.7,0,1.2-0.6,1.2-1.2c0-0.7-0.6-1.2-1.2-1.2h-6.6
			c-0.7,0-1.2,0.6-1.2,1.2C52.9,36.8,52.9,41.3,52.9,41.3z"/>
		<path class="st0" d="M38.5,41.3c0,0.7,0.6,1.2,1.2,1.2c0.7,0,1.2-0.6,1.2-1.2V38h5.3c0.7,0,1.2-0.6,1.2-1.2c0-0.7-0.6-1.2-1.2-1.2
			h-6.6c-0.7,0-1.2,0.6-1.2,1.2V41.3z"/>
		<path class="st0" d="M31.5,35.5h-1.8c-0.7,0-1.2,0.6-1.2,1.2s0.6,1.2,1.2,1.2h1.8c0.7,0,1.2-0.6,1.2-1.2S32.1,35.5,31.5,35.5z"/>
		<path class="st0" d="M39.7,28.7c0.7,0,1.2-0.6,1.2-1.2v-3.3h5.3c0.7,0,1.2-0.6,1.2-1.2s-0.6-1.2-1.2-1.2h-6.6
			c-0.7,0-1.2,0.6-1.2,1.2v4.6C38.5,28.2,39.1,28.7,39.7,28.7z"/>
		<path class="st0" d="M54.1,28.7c0.7,0,1.2-0.6,1.2-1.2v-3.3h5.3c0.7,0,1.2-0.6,1.2-1.2s-0.6-1.2-1.2-1.2h-6.6
			c-0.7,0-1.2,0.6-1.2,1.2v4.6C52.9,28.2,53.4,28.7,54.1,28.7z"/>
		<path class="st0" d="M31.5,21.7h-6.6c-0.7,0-1.2,0.6-1.2,1.2v4.6c0,0.7,0.6,1.2,1.2,1.2s1.2-0.6,1.2-1.2v-3.3h5.3
			c0.7,0,1.2-0.6,1.2-1.2C32.7,22.4,32.1,21.7,31.5,21.7z"/>
	</g>
</g>
</svg>
