<?xml version="1.0" encoding="utf-8"?>
<!-- Generator: Adobe Illustrator 27.0.1, SVG Export Plug-In . SVG Version: 6.00 Build 0)  -->
<svg version="1.1" id="Layer_1" xmlns="http://www.w3.org/2000/svg" xmlns:xlink="http://www.w3.org/1999/xlink" x="0px" y="0px"
	 viewBox="0 0 35.3 39.8" style="enable-background:new 0 0 35.3 39.8;" xml:space="preserve">
<style type="text/css">
	.st0{clip-path:url(#SVGID_00000054958049685291535650000000123058415435997614_);}
	.st1{fill:#00AAE7;}
</style>
<g>
	<defs>
		<rect id="SVGID_1_" x="0.2" y="2.7" width="35" height="35"/>
	</defs>
	<clipPath id="SVGID_00000062892063640791969700000010339545054867752108_">
		<use xlink:href="#SVGID_1_"  style="overflow:visible;"/>
	</clipPath>
	
		<g id="Group_857-2" transform="translate(0 0)" style="clip-path:url(#SVGID_00000062892063640791969700000010339545054867752108_);">
		<path id="Path_2128" class="st1" d="M15.9,14.5h3.2c1.4,0,2.5,1.1,2.5,2.5h1.9c0-2.4-2-4.4-4.4-4.4h-0.7v-2.1h-1.9v2.1h-0.7
			c-2.4,0-4.4,2-4.4,4.4c0,2.4,2,4.4,4.4,4.4c0,0,0,0,0,0h3.2c1.4,0,2.5,1.1,2.5,2.5c0,1.4-1.1,2.5-2.5,2.5h-3.2
			c-1.4,0-2.5-1.1-2.5-2.5h-1.9c0,2.4,2,4.4,4.4,4.4h0.7v2.1h1.9v-2.1h0.7c2.4,0,4.4-2,4.4-4.4c0-2.4-2-4.4-4.4-4.4h-3.2
			c-1.4,0-2.5-1.1-2.5-2.5C13.4,15.6,14.5,14.5,15.9,14.5C15.9,14.5,15.9,14.5,15.9,14.5"/>
		<path id="Path_2129" class="st1" d="M17.6,2.7C8,2.7,0.2,10.5,0.2,20.2S8,37.7,17.6,37.7s17.5-7.8,17.5-17.5c0,0,0,0,0,0
			C35.1,10.5,27.3,2.7,17.6,2.7 M17.6,35.8c-8.6,0-15.6-7-15.6-15.6c0-8.6,7-15.6,15.6-15.6c8.6,0,15.6,7,15.6,15.6
			C33.2,28.8,26.3,35.8,17.6,35.8"/>
	</g>
</g>
</svg>
