<?xml version="1.0" encoding="utf-8"?>
<!-- Generator: Adobe Illustrator 27.0.1, SVG Export Plug-In . SVG Version: 6.00 Build 0)  -->
<svg version="1.1" id="Layer_1" xmlns="http://www.w3.org/2000/svg" xmlns:xlink="http://www.w3.org/1999/xlink" x="0px" y="0px"
	 viewBox="0 0 35.3 39.8" style="enable-background:new 0 0 35.3 39.8;" xml:space="preserve">
<style type="text/css">
	.st0{fill:none;stroke:#00AAE7;stroke-width:2.391;stroke-linecap:round;stroke-linejoin:round;}
</style>
<g id="Icon" transform="translate(1.195 1.246)">
	<path id="b410df2b-7878-4e45-94e1-527a9e23c593" class="st0" d="M32.5,26.1V11.8c0-1.3-0.7-2.5-1.8-3.1L18.2,1.5
		c-1.1-0.6-2.5-0.6-3.6,0L2.1,8.7C1,9.3,0.3,10.5,0.3,11.8v14.3c0,1.3,0.7,2.5,1.8,3.1l12.5,7.2c1.1,0.6,2.5,0.6,3.6,0l12.5-7.2
		C31.8,28.5,32.5,27.4,32.5,26.1z"/>
	<path id="b2c5385e-025b-4fbd-a4ef-893a1306ebe1" class="st0" d="M0.8,9.9l15.6,9l15.6-9"/>
	<line id="_1b87d001-f8b3-4c74-a476-03e54c6332d3" class="st0" x1="16.4" y1="37" x2="16.4" y2="18.9"/>
</g>
</svg>
