<?xml version="1.0" encoding="utf-8"?>
<!-- Generator: Adobe Illustrator 27.0.1, SVG Export Plug-In . SVG Version: 6.00 Build 0)  -->
<svg version="1.1" id="Layer_1" xmlns="http://www.w3.org/2000/svg" xmlns:xlink="http://www.w3.org/1999/xlink" x="0px" y="0px"
	 viewBox="0 0 35.8 35.8" style="enable-background:new 0 0 35.8 35.8;" xml:space="preserve">
<style type="text/css">
	.st0{clip-path:url(#SVGID_00000005236253007426297580000004857807272036548737_);}
	.st1{fill:#00AAE7;}
</style>
<g>
	<defs>
		<rect id="SVGID_1_" x="0.1" y="0.2" width="35.3" height="35.3"/>
	</defs>
	<clipPath id="SVGID_00000078765152370854753310000001613494146962179246_">
		<use xlink:href="#SVGID_1_"  style="overflow:visible;"/>
	</clipPath>
	<g id="Group_865" style="clip-path:url(#SVGID_00000078765152370854753310000001613494146962179246_);">
		<path id="Path_2133" class="st1" d="M14.3,10.8c-3.9,1.9-5.6,6.6-3.7,10.5s6.6,5.6,10.5,3.7c3.9-1.9,5.6-6.6,3.7-10.5
			C22.9,10.5,18.2,8.9,14.3,10.8 M20.3,23.2c-2.9,1.4-6.4,0.2-7.8-2.7c0,0,0,0,0,0c-1.4-2.9-0.2-6.4,2.7-7.8s6.4-0.2,7.8,2.7
			C24.4,18.2,23.2,21.7,20.3,23.2C20.3,23.2,20.3,23.2,20.3,23.2"/>
		<path id="Path_2134" class="st1" d="M34.8,19.5L32,18.3c0-0.9,0-1.7-0.1-2.6l2.6-1.5c0.5-0.3,0.6-0.8,0.4-1.3l-2.7-5.5
			C32,7,31.4,6.8,30.9,7l-2.8,1.1c-0.6-0.6-1.2-1.2-1.9-1.7L27,3.5c0.1-0.5-0.1-1.1-0.6-1.2l-5.8-2c-0.5-0.2-1.1,0.1-1.3,0.6
			l-1.2,2.8c-0.9,0-1.7,0-2.6,0.2l-1.5-2.6c-0.3-0.5-0.8-0.6-1.3-0.4L7.3,3.4C6.8,3.7,6.6,4.2,6.8,4.7l1.1,2.8
			C7.3,8.1,6.8,8.7,6.3,9.4L3.4,8.6C2.9,8.5,2.3,8.7,2.1,9.3l-2,5.8c-0.2,0.5,0.1,1.1,0.6,1.3l2.8,1.2c0,0.9,0,1.7,0.1,2.6L1,21.5
			c-0.5,0.3-0.6,0.8-0.4,1.3l2.7,5.5c0.2,0.5,0.8,0.7,1.3,0.5l2.8-1.1c0.6,0.6,1.2,1.2,1.9,1.7l-0.8,2.9c-0.1,0.5,0.1,1.1,0.6,1.2
			l5.8,2c0.5,0.2,1.1-0.1,1.3-0.6l1.2-2.8c0.9,0,1.7,0,2.6-0.2l1.5,2.6c0.3,0.5,0.8,0.6,1.3,0.4l5.5-2.7c0.5-0.2,0.7-0.8,0.5-1.3
			l-1.1-2.8c0.6-0.6,1.2-1.2,1.7-1.9l2.9,0.8c0.5,0.1,1.1-0.1,1.2-0.6l2-5.8C35.5,20.2,35.3,19.7,34.8,19.5 M31.7,25l-2.7-0.7
			c-0.4-0.1-0.9,0.1-1.1,0.4c-0.6,1-1.4,1.8-2.3,2.6c-0.3,0.3-0.4,0.8-0.3,1.2l1,2.5l-3.8,1.8l-1.4-2.4c-0.2-0.4-0.7-0.6-1.1-0.5
			c-1.1,0.2-2.3,0.3-3.5,0.2c-0.4,0-0.9,0.2-1,0.6l-1.1,2.5l-4-1.4l0.7-2.7c0.1-0.4-0.1-0.9-0.4-1.1c-1-0.6-1.8-1.4-2.6-2.3
			c-0.3-0.3-0.8-0.4-1.2-0.3l-2.5,1l-1.8-3.8l2.4-1.4c0.4-0.2,0.6-0.7,0.5-1.1c-0.2-1.1-0.3-2.3-0.2-3.5c0-0.4-0.2-0.9-0.6-1
			l-2.5-1.1l1.4-4l2.7,0.7c0.4,0.1,0.9-0.1,1.1-0.4c0.6-1,1.4-1.8,2.3-2.6c0.3-0.3,0.4-0.8,0.3-1.2l-1-2.5L12.9,3l1.4,2.4
			c0.2,0.4,0.7,0.6,1.1,0.5c1.1-0.2,2.3-0.3,3.5-0.2c0.4,0,0.9-0.2,1-0.6l1.1-2.5l4,1.4l-0.7,2.7C24,7,24.1,7.4,24.5,7.7
			c1,0.6,1.8,1.4,2.6,2.3c0.3,0.3,0.8,0.4,1.2,0.3l2.5-1l1.8,3.8l-2.4,1.4c-0.4,0.2-0.6,0.7-0.5,1.1c0.2,1.1,0.3,2.3,0.2,3.5
			c0,0.4,0.2,0.9,0.6,1l2.5,1.1L31.7,25z"/>
	</g>
</g>
</svg>
