<?xml version="1.0" encoding="utf-8"?>
<!-- Generator: Adobe Illustrator 27.0.1, SVG Export Plug-In . SVG Version: 6.00 Build 0)  -->
<svg version="1.1" id="Layer_1" xmlns="http://www.w3.org/2000/svg" xmlns:xlink="http://www.w3.org/1999/xlink" x="0px" y="0px"
	 viewBox="0 0 35.8 35.8" style="enable-background:new 0 0 35.8 35.8;" xml:space="preserve">
<style type="text/css">
	.st0{clip-path:url(#SVGID_00000101825102759329429570000017057566523592998054_);}
	.st1{fill:#00AAE7;}
</style>
<g id="Group_890" transform="translate(-0.212 0.041)">
	<g>
		<defs>
			<rect id="SVGID_1_" x="0.5" y="0.6" width="34.9" height="34.9"/>
		</defs>
		<clipPath id="SVGID_00000160160020543785455640000001803743572698969746_">
			<use xlink:href="#SVGID_1_"  style="overflow:visible;"/>
		</clipPath>
		
			<g id="Group_889" transform="translate(0 -0.252)" style="clip-path:url(#SVGID_00000160160020543785455640000001803743572698969746_);">
			<path id="Path_2138" class="st1" d="M17.8,17.7c-4.6,0-8.4-3.8-8.4-8.4s3.8-8.4,8.4-8.4c4.6,0,8.4,3.8,8.4,8.4l0,0
				C26.2,13.9,22.4,17.7,17.8,17.7 M17.8,2.6c-3.7,0-6.7,3-6.7,6.7c0,3.7,3,6.7,6.7,6.7c3.7,0,6.7-3,6.7-6.7
				C24.5,5.6,21.5,2.6,17.8,2.6"/>
			<path id="Path_2139" class="st1" d="M29.9,35.7H5.8c-3,0-5.4-2.4-5.4-5.4l0-3.2c0-3,1.9-5.6,4.7-6.5L10,19c0.3-0.1,0.7,0,0.9,0.2
				l6.9,6.9l6.9-6.9c0.2-0.2,0.6-0.3,0.9-0.2l4.9,1.6c2.8,0.9,4.7,3.6,4.7,6.5v3.2C35.2,33.3,32.8,35.7,29.9,35.7 M10,20.8l-4.4,1.5
				c-2.1,0.7-3.5,2.7-3.5,4.9l0,3.2c0,2,1.6,3.6,3.6,3.6h24.1c2,0,3.6-1.6,3.6-3.6l0-3.2c0-2.2-1.4-4.2-3.5-4.9l-4.4-1.5l-7.1,7.1
				c-0.3,0.3-0.9,0.3-1.2,0c0,0,0,0,0,0L10,20.8z"/>
			<path id="Path_2140" class="st1" d="M7.3,35.7c-0.5,0-0.9-0.4-0.9-0.9l0-6c0-0.5,0.4-0.9,0.9-0.9c0.5,0,0.9,0.4,0.9,0.9l0,6
				C8.1,35.3,7.8,35.7,7.3,35.7"/>
			<path id="Path_2141" class="st1" d="M28.4,35.7c-0.5,0-0.9-0.4-0.9-0.9l0-6c0-0.5,0.4-0.9,0.9-0.9c0.5,0,0.9,0.4,0.9,0.9l0,0l0,6
				C29.2,35.3,28.8,35.7,28.4,35.7"/>
		</g>
	</g>
</g>
</svg>
