<?xml version="1.0" encoding="utf-8"?>
<!-- Generator: Adobe Illustrator 27.0.1, SVG Export Plug-In . SVG Version: 6.00 Build 0)  -->
<svg version="1.1" id="Layer_1" xmlns="http://www.w3.org/2000/svg" xmlns:xlink="http://www.w3.org/1999/xlink" x="0px" y="0px"
	 viewBox="0 0 72 72" style="enable-background:new 0 0 72 72;" xml:space="preserve">
<style type="text/css">
	.st0{fill:#FFFFFF;}
</style>
<g>
	<path class="st0" d="M55.4,34.5H39.8c-1,0-1.9-0.8-1.9-1.9V16c0-8.4,6.8-15.2,15.2-15.2h16.6c1,0,1.9,0.8,1.9,1.9v15.7
		C71.5,27.3,64.3,34.5,55.4,34.5z"/>
	<path class="st0" d="M37.9,55.5l0-15.7c0-1,0.8-1.9,1.9-1.9l16.6,0c8.4,0,15.2,6.8,15.2,15.2l0,16.5c0,1-0.8,1.9-1.9,1.9l-15.7,0
		C45,71.5,37.9,64.4,37.9,55.5z"/>
	<path class="st0" d="M16.5,37.9l15.7,0c1,0,1.9,0.8,1.9,1.9l0,16.5c0,8.4-6.8,15.2-15.2,15.2l-16.6,0c-1,0-1.9-0.8-1.9-1.9l0-15.7
		C0.5,45.1,7.6,37.9,16.5,37.9z"/>
	<path class="st0" d="M34.1,16.9l0,15.7c0,1-0.8,1.9-1.9,1.9l-16.6,0c-8.4,0-15.2-6.8-15.2-15.2l0-16.5c0-1,0.8-1.9,1.9-1.9l15.7,0
		C26.9,0.9,34.1,8,34.1,16.9z"/>
</g>
</svg>
