<?xml version="1.0" encoding="utf-8"?>
<!-- Generator: Adobe Illustrator 27.0.1, SVG Export Plug-In . SVG Version: 6.00 Build 0)  -->
<svg version="1.1" id="Layer_1" xmlns="http://www.w3.org/2000/svg" xmlns:xlink="http://www.w3.org/1999/xlink" x="0px" y="0px"
	 viewBox="0 0 62.8 72" style="enable-background:new 0 0 62.8 72;" xml:space="preserve">
<style type="text/css">
	.st0{fill:#FFFFFF;}
</style>
<g>
	<path class="st0" d="M43.3,14.9c-0.7-0.3-1.6-0.6-2.7-1l-2.1,0.8l-0.4,1.1c-0.3,1-1.1,1.9-2.2,2.6c-0.5,0.3-1.2,0.8-2,1.3l2.2,8.1
		c0.3,1.4,1.6,2.2,3.1,1.8c1.5-0.3,2.3-1.5,1.9-2.9l-1.5-7l2.9-1C42.8,17.3,43.1,15.9,43.3,14.9z"/>
	<path class="st0" d="M36.7,2.7C36.8,2.7,36.6,2.7,36.7,2.7L36.7,2.7z"/>
	<path class="st0" d="M31.8,7l-0.7,6.7l-5.5,3.8c-1.4,1-1.4,2.1-0.5,3.1c0.8,0.9,1.9,0.7,3,0.1c0,0,4.7-2.8,6.4-4
		c0.8-0.5,1.2-1,1.3-1.5c0.4-1.1,1.4-4.2,1.4-4.2c5.5,0.8,8.5,2.7,8.5,2.7s-1.4,7-2,9.7c-0.4,2-0.2,3,0.5,3.7c0.9,0.9,2.1,1,2.7,0.8
		l12.6-2.7c1.5-0.3,2.3-1.5,1.9-2.9c-0.3-1.2-1.1-2.1-3.1-1.8l-7.8,1.2c4.8-9.2,3.5-10.9,2.1-12.7c-3.4-4.1-10.4-6.5-16.2-6.5
		C33.9,2.7,32.1,3.8,31.8,7z"/>
	<polygon class="st0" points="37.9,63 38.3,71.6 52.1,71.6 53.2,55.3 58.1,71.6 62.1,71.6 62.1,27.7 38.6,32.6 29.6,45.8 32.3,59.4 
		25.7,71.6 33.6,71.6 	"/>
	<path class="st0" d="M24.7,62.6c0,0,1.1,0.9,2.5-0.3c1.4-1.2,0.7-2.3,0.7-2.3l-7.5-8.6c-0.3-0.4-1-0.6-1.5-0.5l-2.6,0.2
		c0,0,0.9,1.7,1.6,3.1c0.5,0.9,0.9,1.9,0.7,2.6L24.7,62.6z"/>
	<path class="st0" d="M0.8,41.1c-0.4,0.3-0.6,0.8-0.4,1.3L3.5,50l1.2-6.1l2.9-1.2c-0.6,2.9-1.3,5.9-1.3,5.9
		c-0.4,1.6-0.4,2.1,0.5,3.5l3.4,5.5l-0.1,8.3c0,0.7,0.6,2,2.1,2.1c2.2,0.1,2.5-1.7,2.5-1.7l1.3-9.2c0.1-0.6,0.1-1.1-0.1-1.5
		l-2.4-4.2l3.1-9.8l4.6,1.8c0.4,0.2,1.1,0.1,1.6-0.2l8.3-4.9c0.9-0.6,0.9-1.6,0.4-2.3c-0.6-0.9-1.7-0.7-2.3-0.5l-7.7,2.9l-4.4-2.3
		c-3.3-1.9-5-1.6-6.7-0.7L0.8,41.1z"/>
	<path class="st0" d="M16.7,25.6c-2.6,0-4.7,2-4.7,4.4c0,2.4,2.1,4.4,4.7,4.4c2.6,0,4.7-2,4.7-4.4C21.4,27.6,19.3,25.6,16.7,25.6z"
		/>
	<path class="st0" d="M25.8,0.3c-2.8,0-5,2.1-5,4.7c0,2.6,2.2,4.7,5,4.7c2.8,0,5-2.1,5-4.7C30.8,2.4,28.6,0.3,25.8,0.3z"/>
</g>
</svg>
