<?xml version="1.0" encoding="utf-8"?>
<!-- Generator: Adobe Illustrator 27.0.1, SVG Export Plug-In . SVG Version: 6.00 Build 0)  -->
<svg version="1.1" id="Layer_1" xmlns="http://www.w3.org/2000/svg" xmlns:xlink="http://www.w3.org/1999/xlink" x="0px" y="0px"
	 viewBox="0 0 72 67" style="enable-background:new 0 0 72 67;" xml:space="preserve">
<style type="text/css">
	.st0{fill:#FFFFFF;}
</style>
<g>
	<path class="st0" d="M47.4,0.4c-4,0-7.3,3.3-7.3,7.3c0,4,3.3,7.3,7.3,7.3s7.3-3.3,7.3-7.3C54.7,3.6,51.4,0.4,47.4,0.4z"/>
	<path class="st0" d="M49.1,31.4c0.7-0.3,1.4-0.5,2.1-0.6c-1.7-1.8-2.8-4.2-2.8-6.9c0-2.6,1-5,2.7-6.8h-6.7c0.9,1.5,1.4,3.2,1.4,5.1
		c0,2.6-1,4.9-2.6,6.7c2,0.2,3.9,0.8,5.5,2.2L49.1,31.4z"/>
	<path class="st0" d="M24.2,0.4c-4,0-7.3,3.3-7.3,7.3c0,4,3.3,7.3,7.3,7.3c4,0,7.3-3.3,7.3-7.3C31.5,3.6,28.3,0.4,24.2,0.4z"/>
	<path class="st0" d="M21.1,17.1C21.1,17.1,21,17.1,21.1,17.1c1.6,1.8,2.6,4.2,2.6,6.8c0,2.7-1.1,5.1-2.8,6.9c0.7,0.1,1.4,0.3,2,0.6
		l0.3-0.3c1.6-1.4,3.5-1.9,5.5-2.2c-1.6-1.8-2.6-4.1-2.6-6.7c0-1.9,0.5-3.6,1.4-5.1H21.1z"/>
	<path class="st0" d="M69.3,31.7c-1-0.5-2-0.9-2.7-0.9c-1,0-1.4,0.6-1.8,1.9c-0.6,2-0.1,4.2,1.8,5.1c0.6,0.2,1.1,0.4,1.7,0.4
		c1.2,0,2.3-0.5,3-1.4c0.4-0.5,0.5-1,0.5-1.3C72.5,33.1,71.2,32.6,69.3,31.7z"/>
	<path class="st0" d="M0.4,35.3c0.1,0.3,0.2,0.8,0.5,1.3c0.7,0.9,1.8,1.4,3,1.4c0.6,0,1.1-0.1,1.7-0.4c1.9-0.8,2.4-3.1,1.8-5.1
		c-0.4-1.3-0.8-1.9-1.8-1.9c-0.8,0-1.8,0.4-2.7,0.9C1,32.6-0.3,33.1,0.4,35.3z"/>
	<path class="st0" d="M67,60.5c2.7,0,4.3-1.7,4.3-3.8c0,0,0-14.1,0-14.1c0-1.2-0.1-2.2-0.4-3.2c-0.8,0.4-1.7,0.6-2.6,0.6
		c-0.8,0-1.7-0.2-2.5-0.5c-2.4-1-3.6-3.7-3.1-6.4c-0.1,0-0.2,0-0.3,0l-4,4l-4-4c-2.2,0.1-4,0.4-5.3,1.4c-1.9,1.5-2.4,4.9-2.4,6.2
		c0,1.4,0,3.2,0,5.2c1.2-0.3,2.5-0.6,3.8-1.1l0,21.7H67V60.5z"/>
	<path class="st0" d="M6.6,23.9c0,4,3.3,7.3,7.3,7.3c4,0,7.3-3.3,7.3-7.3c0-4-3.3-7.3-7.3-7.3C9.8,16.6,6.6,19.9,6.6,23.9z"/>
	<path class="st0" d="M58.4,31.1c4,0,7.3-3.3,7.3-7.3c0-4-3.3-7.3-7.3-7.3c-4,0-7.3,3.3-7.3,7.3C51.1,27.9,54.3,31.1,58.4,31.1z"/>
	<path class="st0" d="M40.1,31.3l-4,4l-4-4c-3.1,0-5.4,0.3-7,1.7c0,0,2.7,2.9,2.7,7.6c0,5.4,0,16.8,0,25.9h16.5l0-25.9
		c0-3.9,1.7-6.2,2.7-7.6C45.5,31.6,43.1,31.3,40.1,31.3z"/>
	<path class="st0" d="M28.8,22.2c0,4,3.3,7.3,7.3,7.3c4,0,7.3-3.3,7.3-7.3c0-4-3.3-7.3-7.3-7.3C32,14.9,28.8,18.2,28.8,22.2z"/>
	<path class="st0" d="M21.8,66.5l0-21.7c1.3,0.4,2.6,0.8,3.8,1.1c0-2,0-3.8,0-5.2c0-1.3-0.4-4.7-2.4-6.2c-1.3-1-3.2-1.3-5.3-1.4
		l-4,4l-4-4c-0.1,0-0.2,0-0.3,0c0.5,2.8-0.7,5.4-3.1,6.4C5.6,39.8,4.8,40,3.9,40c-0.9,0-1.8-0.2-2.6-0.6c-0.3,1-0.4,2-0.4,3.2
		c0,0,0,14.1,0,14.1c0,2.1,1.6,3.8,4.3,3.8c0,0,0,2.7,0,6H21.8z"/>
</g>
</svg>
