<?xml version="1.0" encoding="utf-8"?>
<!-- Generator: Adobe Illustrator 27.0.1, SVG Export Plug-In . SVG Version: 6.00 Build 0)  -->
<svg version="1.1" id="Layer_1" xmlns="http://www.w3.org/2000/svg" xmlns:xlink="http://www.w3.org/1999/xlink" x="0px" y="0px"
	 viewBox="0 0 72 63" style="enable-background:new 0 0 72 63;" xml:space="preserve">
<style type="text/css">
	.st0{fill:#FFFFFF;}
</style>
<g>
	<g>
		<path class="st0" d="M11.7,37.5c-3.5,0-6.3,2.8-6.3,6.3c0,3.5,2.8,6.3,6.3,6.3c3.5,0,6.3-2.8,6.3-6.3C18,40.3,15.2,37.5,11.7,37.5
			z"/>
		<path class="st0" d="M21.9,57.7c-0.7-2.9-3.2-4.9-6.6-5.7l-3.7,3.3L8,52c-3.9,0.9-6.8,3.5-6.8,7.2v3.4h41.4v-3.4
			c0-3.8-2.8-6.3-6.8-7.3l-3.7,3.3L28.5,52C25.1,52.8,22.6,54.8,21.9,57.7z"/>
		<path class="st0" d="M38.5,43.8c0-3.5-2.8-6.3-6.3-6.3c-3.5,0-6.3,2.8-6.3,6.3c0,3.5,2.8,6.3,6.3,6.3
			C35.7,50.2,38.5,47.3,38.5,43.8z"/>
	</g>
	<path class="st0" d="M60.5,30.4L54.3,35l-4.5-5.5c-3.1-0.4-5.7-1-8-2.5c-0.8-0.5-1.5-1.1-2.2-1.8c1.2-0.5,2.2-1.3,2.9-2.4
		c1.4-0.3,3.5-2.1,3.8-4.3c0.4-3.3-1.5-5.2-3-5.9c-1.1-2.3-3.1-3.5-4.9-3.9C30.8,7,27.7,4.4,25.3,3c-0.5-0.8-2.3-2.4-4.7-2.4
		c-1.6,0-3.4,0.7-5.2,2.7l2.5,1.8c2.7-2.4,5.3-0.9,6.6,2.5c1.8,4.4,0.8,10.9-2.1,14.7c-2.2,2.9-5.2,3.3-7,0.4l-2.8,1.1
		c1.2,2.3,3.1,4.3,5.7,4.3c1.3,0,2.7-0.5,4.3-1.8c2.2-0.1,4-0.5,6.6-0.6c0.4,0.9,0.9,1.8,1.4,2.6c3.5,5.6,9.1,8.7,14.5,10.5
		l-4.6,24.1h16.2L61.1,44h1.6l-2.3,10.9h8.3l2.8-12.1C72.3,35.5,67.9,31.6,60.5,30.4z"/>
	<path class="st0" d="M57.8,28c5.3,0,9.6-4.3,9.6-9.6c0-5.3-4.3-9.6-9.6-9.6c-5.3,0-9.6,4.3-9.6,9.6C48.2,23.7,52.4,28,57.8,28z"/>
	<rect x="7.3" y="8.5" transform="matrix(0.1222 -0.9925 0.9925 0.1222 -5.1237 19.6036)" class="st0" width="2.5" height="8.3"/>
	<rect x="4.9" y="19.1" transform="matrix(0.9283 -0.3719 0.3719 0.9283 -6.914 4.7759)" class="st0" width="8.1" height="2.5"/>
	
		<rect x="9.5" y="1.4" transform="matrix(0.5856 -0.8106 0.8106 0.5856 7.401256e-02 10.9613)" class="st0" width="2.5" height="8.1"/>
	<path class="st0" d="M22.1,18.8c0.9-2.3,1.4-4.9,1.3-7.4L19.2,11c-1.2-0.2-2.5,1.2-2.8,3.1c-0.3,1.9,0.4,3.6,1.6,3.8L22.1,18.8z"/>
</g>
</svg>
