<?xml version="1.0" encoding="utf-8"?>
<!-- Generator: Adobe Illustrator 27.0.1, SVG Export Plug-In . SVG Version: 6.00 Build 0)  -->
<svg version="1.1" id="Layer_1" xmlns="http://www.w3.org/2000/svg" xmlns:xlink="http://www.w3.org/1999/xlink" x="0px" y="0px"
	 viewBox="0 0 72 52.8" style="enable-background:new 0 0 72 52.8;" xml:space="preserve">
<style type="text/css">
	.st0{fill:#FFFFFF;}
</style>
<g>
	<path class="st0" d="M38.7,23.7c-0.6-2.8-3.1-4.8-5.9-4.8c-0.4,0-0.8,0.1-1.3,0.1c-1.2,0.2-2.4,1-3,1.6c-0.4,0.4-0.7,0.6-1,0.7
		c-0.2,0.1-0.8,0.1-1-0.7L23.6,7.1L1.3,12c-0.7,0.2-1.2,0.9-1.1,1.6l1.5,7c0,0,0,0,0.1,0l5.6,26.7l0.1,0.1l0.4,1.9
		c0.2,1,1.2,1.2,1.6,1.1l22.3-4.9l-2.9-14c-0.1-0.5,0.4-1.2,0.9-1c0.2,0.1,0.6,0.1,1,0.2c0.5,0.2,1.1,0.4,1.9,0.4
		c0.4,0,0.9,0,1.5-0.2C37.4,30.2,39.4,26.9,38.7,23.7z"/>
	<path class="st0" d="M70.8,14.5l-7-1.7c-0.3-0.2-0.5-0.5-0.4-0.9c0.1-0.3,0.3-0.6,0.7-1c0.5-0.4,0.9-1,1.3-2
		c0.1-0.3,0.2-0.7,0.3-1.1c0.8-3.3-1.3-6.5-4.6-7.3c-3.3-0.8-6.6,1.2-7.4,4.5c-0.1,0.3-0.1,0.7-0.1,1c-0.1,1.3,0.3,2.4,0.3,2.4
		c0.2,0.5,0.2,0.9,0.2,1.2c-0.1,0.4-0.4,0.5-0.6,0.6l-8.5-2l-3.1,12.8c-0.2,1.1,0.6,1.6,1.8,1.1c0,0,0.9-0.3,2.1-0.3
		c0.4,0,0.9,0,1.3,0.1c3.3,0.8,5.3,4.1,4.5,7.4c-0.7,2.8-3.2,4.7-5.9,4.7c-0.5,0-0.9-0.1-1.4-0.2c-1.6-0.4-2.4-1.1-3-1.7
		c-1.1-1-1.9-1-2.1,0.1l-3.2,13.5l25.8,6.2c1.2,0.2,1.6-0.7,1.7-1l0.5-2.3c0,0,0,0,0,0l6-25.1c0,0,0,0,0,0l1.8-7.5
		C72,15.4,71.6,14.7,70.8,14.5z"/>
</g>
</svg>
