<?xml version="1.0" encoding="utf-8"?>
<!-- Generator: Adobe Illustrator 27.0.1, SVG Export Plug-In . SVG Version: 6.00 Build 0)  -->
<svg version="1.1" id="Layer_1" xmlns="http://www.w3.org/2000/svg" xmlns:xlink="http://www.w3.org/1999/xlink" x="0px" y="0px"
	 viewBox="0 0 72 40.2" style="enable-background:new 0 0 72 40.2;" xml:space="preserve">
<style type="text/css">
	.st0{fill:#FFFFFF;}
</style>
<g>
	<path class="st0" d="M67.1,9.3c0-4.7-3.8-8.5-8.5-8.5c-4.7,0-8.5,3.8-8.5,8.5c0,4.7,3.8,8.5,8.5,8.5C63.3,17.8,67.1,14,67.1,9.3z"
		/>
	<path class="st0" d="M40.7,7.9c3.5,6.2,8.1,9.8,12,10.3l3.4,4.6l6.9-3.4c4.4,1.1,9,3.8,8.1,10.3L70,39.6h-7.4l1.3-9.5l-1.3,0
		l-1.7,9.5H46.8l2-13.1c-5.5-3.1-9.1-6.6-11.6-10.3C38.3,14.2,40.2,10.2,40.7,7.9z"/>
	<path class="st0" d="M13,17.8c4.7,0,8.5-3.8,8.5-8.5c0-4.7-3.8-8.5-8.5-8.5c-4.7,0-8.5,3.8-8.5,8.5C4.5,14,8.3,17.8,13,17.8z"/>
	<path class="st0" d="M36.8,3c2,0.7,2.3,2.1,1.7,4.2c-2.3,7.8-6.4,14-15.7,19.3l2,13.1H10.8l-1.7-9.5l-1.3,0l1.3,9.5H1.6l-1.1-9.9
		c-1-6.5,3.7-9.2,8.1-10.3l6.9,3.4l3.4-4.6c4.4-0.6,9.8-5.3,13.4-13.1C33.4,2.8,35.3,2.4,36.8,3z"/>
</g>
</svg>
