<?xml version="1.0" encoding="utf-8"?>
<!-- Generator: Adobe Illustrator 27.0.1, SVG Export Plug-In . SVG Version: 6.00 Build 0)  -->
<svg version="1.1" id="Layer_1" xmlns="http://www.w3.org/2000/svg" xmlns:xlink="http://www.w3.org/1999/xlink" x="0px" y="0px"
	 viewBox="0 0 72 66.6" style="enable-background:new 0 0 72 66.6;" xml:space="preserve">
<style type="text/css">
	.st0{fill:#FFFFFF;}
</style>
<g>
	<path class="st0" d="M40.4,48.1c-0.7-0.7-2-0.9-2.8,0c-0.8,0.8-0.7,2.1,0,2.8l12,12.1c5.1,5.1,11.1,3.7,15.2-0.5
		c5.1-5.2,5.5-9.5,2.4-16.5C64.5,39.8,66,35.9,65,35.6c-2.4-0.8-5.3,2.3-4,6.4c0.3,0.9,0.4,1.7,0.5,2.4L51,33.9
		c-0.6-0.6-2.1-1-3.1,0c-0.9,0.9-0.8,2.3,0,3.1l8.4,8.4c-0.5,0.1-1,0.3-1.5,0.6l-9.7-9.7c-0.7-0.7-2.1-1-3.1,0
		c-0.8,0.8-0.9,2.2,0,3.1l9.1,9.1c0,0-0.5,0.5-1,1l-8.3-8.3c-0.7-0.7-2.1-1-3.1,0c-0.8,0.8-0.9,2.2,0,3.1l9.2,9.2
		c-0.2,0.5-0.3,1-0.4,1.6L40.4,48.1z"/>
	<path class="st0" d="M39,22c0.9,0.9,2.4,0.8,3.1,0l8.4-8.4c0.1,0.5,0.3,1,0.6,1.4l-9.7,9.7c-0.7,0.7-1,2.1,0,3.1
		c0.8,0.8,2.2,0.9,3.1,0l9.1-9.1c0,0,0.5,0.5,1,1l-8.3,8.3c-0.7,0.7-1,2.1,0,3.1c0.8,0.8,2.2,0.9,3.1,0l9.2-9.2
		c0.5,0.2,1,0.3,1.6,0.4l-7,7c-0.7,0.7-0.9,2,0,2.8c0.8,0.8,2.1,0.7,2.8,0l12.1-12c5.1-5.1,3.7-11.1-0.5-15.2
		C62.5,0,58.1-0.4,51.1,2.7C44.8,5.5,41,3.9,40.7,4.9c-0.8,2.4,2.3,5.3,6.4,4c0.9-0.3,1.7-0.4,2.4-0.5L39,18.9
		C38.3,19.6,37.9,21,39,22z"/>
	<path class="st0" d="M30.9,48.1c0.7-0.7,2-0.9,2.8,0c0.8,0.8,0.7,2.1,0,2.8l-12,12.1c-5.1,5.1-11.1,3.7-15.2-0.5
		C1.4,57.4,1,53.1,4.1,46c2.8-6.3,1.2-10.1,2.3-10.4c2.4-0.8,5.3,2.3,4,6.4c-0.3,0.9-0.4,1.7-0.5,2.4l10.5-10.5c0.6-0.6,2.1-1,3.1,0
		c0.9,0.9,0.8,2.3,0,3.1l-8.4,8.4c0.5,0.1,1,0.3,1.5,0.6l9.7-9.7c0.7-0.7,2.1-1,3.1,0c0.8,0.8,0.9,2.2,0,3.1l-9.1,9.1
		c0,0,0.5,0.5,1,1l8.3-8.3c0.7-0.7,2.1-1,3.1,0c0.8,0.8,0.9,2.2,0,3.1l-9.2,9.2c0.2,0.5,0.3,1,0.4,1.6L30.9,48.1z"/>
	<path class="st0" d="M32.4,22c-0.9,0.9-2.4,0.8-3.1,0l-8.4-8.4c-0.1,0.5-0.3,1-0.6,1.4l9.7,9.7c0.7,0.7,1,2.1,0,3.1
		c-0.8,0.8-2.2,0.9-3.1,0l-9.1-9.1c0,0-0.5,0.5-1,1l8.3,8.3c0.7,0.7,1,2.1,0,3.1c-0.8,0.8-2.2,0.9-3.1,0l-9.2-9.2
		c-0.5,0.2-1,0.3-1.6,0.4l7,7c0.7,0.7,0.9,2,0,2.8c-0.8,0.8-2.1,0.7-2.8,0l-12.1-12C-1.8,15.3-0.5,9.2,3.7,5.1
		C8.9,0,13.2-0.4,20.3,2.7c6.3,2.8,10.1,1.2,10.4,2.3c0.8,2.4-2.3,5.3-6.4,4c-0.9-0.3-1.7-0.4-2.4-0.5l10.5,10.5
		C33,19.6,33.4,21,32.4,22z"/>
</g>
</svg>
