<?xml version="1.0" encoding="utf-8"?>
<!-- Generator: Adobe Illustrator 27.0.1, SVG Export Plug-In . SVG Version: 6.00 Build 0)  -->
<svg version="1.1" id="Layer_1" xmlns="http://www.w3.org/2000/svg" xmlns:xlink="http://www.w3.org/1999/xlink" x="0px" y="0px"
	 viewBox="0 0 72 56.1" style="enable-background:new 0 0 72 56.1;" xml:space="preserve">
<style type="text/css">
	.st0{fill:#FFFFFF;}
</style>
<g>
	<path class="st0" d="M45.1,19.4c0-10.3-9.9-18.7-22-18.7C10.8,0.7,1,9.1,1,19.4c0,4.2,1.7,8,4.4,11.2c-1.7,3.5-4.2,6.1-4.2,6.1
		C1,36.9,0.9,37.3,1,37.6C1.2,37.8,1.5,38,1.8,38c4.1,0,7.5-1.2,10.1-2.5C15.2,37.1,19,38,23,38C35.2,38,45.1,29.7,45.1,19.4z"/>
	<path class="st0" d="M64.5,47.7c2.7-3.2,4.3-7.1,4.3-11.4c0-10.3-9.1-18.7-20.3-18.7h-0.1c0,0.6,0.1,1.1,0.1,1.7
		c0,10.5-8.4,19.2-19.7,21.5C30.9,49,38.8,55,48.5,55c3.6,0,6.9-0.8,9.8-2.3C60.9,54,64.2,55,68,55c0.3,0,0.6-0.2,0.7-0.5
		s0.1-0.7-0.2-0.9C68.6,53.6,66.3,51.1,64.5,47.7z"/>
</g>
</svg>
