<?xml version="1.0" encoding="utf-8"?>
<!-- Generator: Adobe Illustrator 27.0.1, SVG Export Plug-In . SVG Version: 6.00 Build 0)  -->
<svg version="1.1" id="Layer_1" xmlns="http://www.w3.org/2000/svg" xmlns:xlink="http://www.w3.org/1999/xlink" x="0px" y="0px"
	 viewBox="0 0 72 40.2" style="enable-background:new 0 0 72 40.2;" xml:space="preserve">
<style type="text/css">
	.st0{fill:#FFFFFF;}
</style>
<g>
	<path class="st0" d="M-235.6,205.7c-0.7-0.7-2-0.9-2.8,0c-0.8,0.8-0.7,2.1,0,2.8l12,12.1c5.1,5.1,11.1,3.7,15.2-0.5
		c5.1-5.2,5.5-9.5,2.4-16.5c-2.8-6.3-1.2-10.1-2.3-10.4c-2.4-0.8-5.3,2.3-4,6.4c0.3,0.9,0.4,1.7,0.5,2.4l-10.5-10.5
		c-0.6-0.6-2.1-1-3.1,0c-0.9,0.9-0.8,2.3,0,3.1l8.4,8.4c-0.5,0.1-1,0.3-1.5,0.6l-9.7-9.7c-0.7-0.7-2.1-1-3.1,0
		c-0.8,0.8-0.9,2.2,0,3.1l9.1,9.1c0,0-0.5,0.5-1,1l-8.3-8.3c-0.7-0.7-2.1-1-3.1,0c-0.8,0.8-0.9,2.2,0,3.1l9.2,9.2
		c-0.2,0.5-0.3,1-0.4,1.6L-235.6,205.7z"/>
	<path class="st0" d="M-237,179.6c0.9,0.9,2.4,0.8,3.1,0l8.4-8.4c0.1,0.5,0.3,1,0.6,1.4l-9.7,9.7c-0.7,0.7-1,2.1,0,3.1
		c0.8,0.8,2.2,0.9,3.1,0l9.1-9.1c0,0,0.5,0.5,1,1l-8.3,8.3c-0.7,0.7-1,2.1,0,3.1c0.8,0.8,2.2,0.9,3.1,0l9.2-9.2
		c0.5,0.2,1,0.3,1.6,0.4l-7,7c-0.7,0.7-0.9,2,0,2.8c0.8,0.8,2.1,0.7,2.8,0l12.1-12c5.1-5.1,3.7-11.1-0.5-15.2
		c-5.2-5.1-9.5-5.5-16.5-2.4c-6.3,2.8-10.1,1.2-10.4,2.3c-0.8,2.4,2.3,5.3,6.4,4c0.9-0.3,1.7-0.4,2.4-0.5l-10.5,10.5
		C-237.7,177.1-238.1,178.6-237,179.6z"/>
	<path class="st0" d="M-245.1,205.7c0.7-0.7,2-0.9,2.8,0c0.8,0.8,0.7,2.1,0,2.8l-12,12.1c-5.1,5.1-11.1,3.7-15.2-0.5
		c-5.1-5.2-5.5-9.5-2.4-16.5c2.8-6.3,1.2-10.1,2.3-10.4c2.4-0.8,5.3,2.3,4,6.4c-0.3,0.9-0.4,1.7-0.5,2.4l10.5-10.5
		c0.6-0.6,2.1-1,3.1,0c0.9,0.9,0.8,2.3,0,3.1l-8.4,8.4c0.5,0.1,1,0.3,1.5,0.6l9.7-9.7c0.7-0.7,2.1-1,3.1,0c0.8,0.8,0.9,2.2,0,3.1
		l-9.1,9.1c0,0,0.5,0.5,1,1l8.3-8.3c0.7-0.7,2.1-1,3.1,0c0.8,0.8,0.9,2.2,0,3.1l-9.2,9.2c0.2,0.5,0.3,1,0.4,1.6L-245.1,205.7z"/>
	<path class="st0" d="M-243.6,179.6c-0.9,0.9-2.4,0.8-3.1,0l-8.4-8.4c-0.1,0.5-0.3,1-0.6,1.4l9.7,9.7c0.7,0.7,1,2.1,0,3.1
		c-0.8,0.8-2.2,0.9-3.1,0l-9.1-9.1c0,0-0.5,0.5-1,1l8.3,8.3c0.7,0.7,1,2.1,0,3.1c-0.8,0.8-2.2,0.9-3.1,0l-9.2-9.2
		c-0.5,0.2-1,0.3-1.6,0.4l7,7c0.7,0.7,0.9,2,0,2.8c-0.8,0.8-2.1,0.7-2.8,0l-12.1-12c-5.1-5.1-3.7-11.1,0.5-15.2
		c5.2-5.1,9.5-5.5,16.5-2.4c6.3,2.8,10.1,1.2,10.4,2.3c0.8,2.4-2.3,5.3-6.4,4c-0.9-0.3-1.7-0.4-2.4-0.5l10.5,10.5
		C-243,177.1-242.6,178.6-243.6,179.6z"/>
</g>
<g>
	<path class="st0" d="M67.1,9.3c0-4.7-3.8-8.5-8.5-8.5c-4.7,0-8.5,3.8-8.5,8.5c0,4.7,3.8,8.5,8.5,8.5C63.3,17.8,67.1,14,67.1,9.3z"
		/>
	<path class="st0" d="M40.7,7.9c3.5,6.2,8.1,9.8,12,10.3l3.4,4.6l6.9-3.4c4.4,1.1,9,3.8,8.1,10.3L70,39.6h-7.4l1.3-9.5l-1.3,0
		l-1.7,9.5H46.8l2-13.1c-5.5-3.1-9.1-6.6-11.6-10.3C38.3,14.2,40.2,10.2,40.7,7.9z"/>
	<path class="st0" d="M13,17.8c4.7,0,8.5-3.8,8.5-8.5c0-4.7-3.8-8.5-8.5-8.5c-4.7,0-8.5,3.8-8.5,8.5C4.5,14,8.3,17.8,13,17.8z"/>
	<path class="st0" d="M36.8,3c2,0.7,2.3,2.1,1.7,4.2c-2.3,7.8-6.4,14-15.7,19.3l2,13.1H10.8l-1.7-9.5l-1.3,0l1.3,9.5H1.6l-1.1-9.9
		c-1-6.5,3.7-9.2,8.1-10.3l6.9,3.4l3.4-4.6c4.4-0.6,9.8-5.3,13.4-13.1C33.4,2.8,35.3,2.4,36.8,3z"/>
</g>
<g>
	<path class="st0" d="M-121.5,153.1h-25.4v9.3l4.8,1.2c1.3,0.3,1.9-0.1,3-0.9c1.3-0.9,3-2.2,6.3-2.1c4.9,0.2,8.8,4,9.1,8.8
		c0.2,2.7-0.7,5.2-2.5,7.2c-1.8,1.9-4.3,3-7,3c-3,0-4.6-1.2-5.9-2.1c-1.1-0.8-1.7-1.2-2.9-0.9l-4.8,1.2l0,9.3h10.2
		c0.5,0,0.9,0.3,1,0.8l1.4,5.6c0.6,2.2-0.4,3.5-1.3,4.7c-0.8,1.1-1.7,2.3-1.7,4.7c0,2.1,0.8,4,2.4,5.4c1.5,1.4,3.5,2.1,5.6,2
		c3.7-0.3,6.7-3.4,6.9-7.1c0.1-2.5-0.8-3.8-1.6-4.9c-0.9-1.2-1.8-2.5-1.3-4.8l1.4-5.6c0.1-0.5,0.5-0.8,1-0.8h10.2v-25.4
		C-112.7,157-116.7,153.1-121.5,153.1z"/>
	<path class="st0" d="M-172.6,182.4c0.3-1.2-0.1-1.8-0.9-2.9c-0.9-1.3-2.1-2.9-2.1-5.9c0-2.6,1.1-5.2,3-7c2-1.8,4.5-2.7,7.2-2.5
		c4.8,0.3,8.6,4.2,8.8,9.1c0.1,3.3-1.1,5-2.1,6.3c-0.8,1.1-1.3,1.7-0.9,3l1.2,4.8h9.3v-10.2c0-0.5,0.3-0.9,0.8-1l5.6-1.4
		c2.2-0.6,3.5,0.4,4.7,1.3c1.1,0.8,2.3,1.7,4.7,1.7c2.1,0,4-0.8,5.4-2.4c1.4-1.5,2.1-3.5,2-5.6c-0.3-3.7-3.4-6.7-7.1-6.9
		c-2.5-0.1-3.8,0.8-4.9,1.6c-1.2,0.9-2.5,1.8-4.8,1.3l-5.6-1.4c-0.5-0.1-0.8-0.5-0.8-1l0-10.2h-25.4c-4.8,0-8.7,3.9-8.7,8.7v25.4
		h9.3L-172.6,182.4z"/>
	<path class="st0" d="M-156.8,213.9c-1.3,0.9-2.9,2.1-5.9,2.1c-2.6,0-5.2-1.1-7-3c-1.8-2-2.7-4.5-2.5-7.2c0.3-4.8,4.2-8.6,9.1-8.8
		c3.3-0.1,5,1.1,6.3,2.1c1.1,0.8,1.7,1.3,3,0.9l4.8-1.2v-9.3h-10.2c-0.5,0-0.9-0.3-1-0.8l-1.4-5.6c-0.6-2.2,0.4-3.6,1.3-4.8
		c0.9-1.2,1.8-2.4,1.6-4.9c-0.2-3.7-3.2-6.8-6.9-7.1c-2.1-0.1-4.1,0.6-5.6,2c-1.5,1.4-2.4,3.3-2.4,5.4c0,2.4,0.9,3.5,1.7,4.7
		c0.8,1.2,1.8,2.5,1.3,4.7l-1.4,5.6c-0.1,0.5-0.5,0.8-1,0.8h-10.2v25.4c0,4.8,3.9,8.7,8.7,8.7h25.4v-9.3l-4.8-1.2
		C-155.1,212.7-155.7,213.1-156.8,213.9z"/>
	<path class="st0" d="M-123.3,194.2c-0.3,1.3,0.1,1.9,0.9,3c0.9,1.3,2.2,3,2.1,6.3c-0.2,4.9-4,8.8-8.8,9.1c-0.2,0-0.5,0-0.7,0
		c-2.4,0-4.7-0.9-6.5-2.6c-1.9-1.8-3-4.3-3-7c0-3,1.2-4.6,2.1-5.9c0.8-1.1,1.2-1.7,0.9-2.9l-1.2-4.8h-9.3v10.2c0,0.5-0.3,0.9-0.8,1
		l-5.6,1.4c-2.2,0.6-3.6-0.4-4.8-1.3c-1.2-0.9-2.4-1.8-4.9-1.6c-3.7,0.2-6.8,3.2-7.1,6.9c-0.1,2.1,0.6,4.1,2,5.6
		c1.4,1.5,3.3,2.4,5.4,2.4c2.4,0,3.5-0.9,4.7-1.7c1.2-0.8,2.5-1.8,4.7-1.3l5.6,1.4c0.5,0.1,0.8,0.5,0.8,1v10.2h25.4
		c4.8,0,8.7-3.9,8.7-8.7v-25.4h-9.3L-123.3,194.2z"/>
</g>
<g>
	<path class="st0" d="M-123.5-13.5l10.6-10.6l-5.4-0.7c-0.4,0-0.7-0.3-0.7-0.7l-0.7-5.4l-10.6,10.6l0.8,6L-123.5-13.5z"/>
	<path class="st0" d="M-137.5-7.9c-3.6-3.2-8.2-5-13.1-5c-5.2,0-10.2,2-13.9,5.7c-3.7,3.7-5.7,8.6-5.7,13.9c0,5.2,2,10.2,5.7,13.9
		c3.8,3.8,8.9,5.7,13.9,5.7c5,0,10.1-1.9,13.9-5.7c7.4-7.4,7.7-19.2,0.8-26.9l-0.2-0.2l-7.8,7.8l0.2,0.2c1.2,1.5,1.8,3.3,1.8,5.3
		c0,2.3-0.9,4.5-2.5,6.1c-1.6,1.6-3.8,2.5-6.1,2.5c-2.3,0-4.5-0.9-6.1-2.5c-1.6-1.6-2.5-3.8-2.5-6.1c0-2.3,0.9-4.5,2.5-6.1
		c1.6-1.6,3.8-2.5,6.1-2.5c1.9,0,3.8,0.6,5.3,1.8l0.2,0.2l7.8-7.8L-137.5-7.9z"/>
	<path class="st0" d="M-150.4,5.2l0.1,0l4-4l-0.3-0.2c-1.2-0.8-2.6-1.3-4-1.3c-1.9,0-3.6,0.7-4.9,2c-1.3,1.3-2,3.1-2,4.9
		c0,1.9,0.7,3.6,2,4.9c1.3,1.3,3.1,2,4.9,2c1.9,0,3.6-0.7,4.9-2c1.3-1.3,2-3.1,2-4.9c0-1.5-0.4-2.8-1.3-4l-0.2-0.3l-4,4l0,0.1
		c0.1,0.5-0.1,1.1-0.5,1.5c-0.3,0.3-0.7,0.5-1.2,0.5c-0.4,0-0.9-0.2-1.2-0.5c-0.3-0.3-0.5-0.7-0.5-1.2c0-0.4,0.2-0.9,0.5-1.2
		C-151.5,5.3-151,5.1-150.4,5.2z"/>
	<path class="st0" d="M-121.7,6h4l0-0.3c-0.2-6.3-2.2-12.3-5.7-17.5l-0.1-0.1l-6.4-0.8l-4.9,4.9l0.2,0.2c7.6,8.4,7.3,21.3-0.8,29.3
		c-4,4-9.4,6.2-15.1,6.2c-5.7,0-11-2.2-15.1-6.2c-8.3-8.3-8.3-21.8,0-30.1c8-8,20.9-8.4,29.3-0.8l0.2,0.2l4.9-4.9l-0.8-6.4l-0.1-0.1
		c-5.2-3.5-11.1-5.5-17.3-5.7l-0.3,0v4.2c0,0.5-0.4,0.8-0.8,0.8c-0.5,0-0.8-0.4-0.8-0.8v-4.2l-0.3,0c-8.3,0.3-16.1,3.7-22,9.6
		c-5.9,5.9-9.3,13.8-9.6,22.2l0,0.3h3.9c0.5,0,0.8,0.4,0.8,0.8c0,0.5-0.4,0.8-0.8,0.8h-3.9l0,0.3c0.3,8.3,3.7,16,9.6,21.9
		c5.9,5.9,13.7,9.3,22,9.6l0.3,0v-3.7c0-0.5,0.4-0.8,0.8-0.8c0.5,0,0.8,0.4,0.8,0.8v3.8l0.3,0c8.3-0.3,16.2-3.7,22-9.6
		c5.9-5.9,9.3-13.6,9.6-21.9l0-0.3h-4c-0.5,0-0.8-0.4-0.8-0.8C-122.6,6.4-122.2,6-121.7,6z"/>
</g>
<g>
	<path class="st0" d="M-36.6,2.6h-15.7c-1,0-1.9-0.8-1.9-1.9v-16.5c0-8.4,6.8-15.2,15.2-15.2h16.6c1,0,1.9,0.8,1.9,1.9v15.7
		C-20.5-4.6-27.7,2.6-36.6,2.6z"/>
	<path class="st0" d="M-54.1,23.7l0-15.7c0-1,0.8-1.9,1.9-1.9l16.6,0c8.4,0,15.2,6.8,15.2,15.2l0,16.5c0,1-0.8,1.9-1.9,1.9l-15.7,0
		C-47,39.7-54.1,32.5-54.1,23.7z"/>
	<path class="st0" d="M-75.5,6.1l15.7,0c1,0,1.9,0.8,1.9,1.9l0,16.5c0,8.4-6.8,15.2-15.2,15.2l-16.6,0c-1,0-1.9-0.8-1.9-1.9l0-15.7
		C-91.5,13.3-84.4,6.1-75.5,6.1z"/>
	<path class="st0" d="M-57.9-14.9l0,15.7c0,1-0.8,1.9-1.9,1.9l-16.6,0c-8.4,0-15.2-6.8-15.2-15.2l0-16.5c0-1,0.8-1.9,1.9-1.9l15.7,0
		C-65.1-31-57.9-23.8-57.9-14.9z"/>
</g>
<g>
	<g>
		<path class="st0" d="M-133.1,122.3c-1.1-0.3-1.9-1.4-1.6-2.6l1.9-7.7c-1,0-1.9,0-2.3,0.1l-3.2,4l-5-3.4c-1.2,0.2-2.3,0.5-3.3,1
			c1.9,2.2,2.9,5.3,3,9.2l0.1,9.4c0,0,0,0,0,0h15.1l0-8.8L-133.1,122.3z"/>
		<path class="st0" d="M-139.5,93.7c-4.6,0-8.4,3.7-8.4,8.3c0,4.6,3.8,8.3,8.4,8.3c4.6,0,8.4-3.7,8.4-8.3
			C-131.1,97.4-134.9,93.7-139.5,93.7z"/>
		<path class="st0" d="M-145.6,122.8c-0.1-6.4-2.8-9.8-8.2-10.8l-5.3,3.6l-2.4-2.4c-0.3,2.2-1.9,4.1-4.1,4.6c-0.2,0-0.4,0.1-0.6,0.1
			l1,5c0.2,1.2-0.5,2.3-1.6,2.5l-3.1,0.7l0,6.1h15l0.4-8.3h1.5l0.5,8.3h6.9L-145.6,122.8z"/>
		<path class="st0" d="M-182.9,110.3l-0.8-3.6c-0.1-0.4,0.2-0.8,0.6-0.9l11.6-2.6l1.5,7.1c0.1,0.4,0.4,0.4,0.5,0.3
			c0.1,0,0.3-0.1,0.5-0.4c0.3-0.3,0.9-0.7,1.6-0.8c0.2,0,0.4-0.1,0.7-0.1c1.5,0,2.8,1,3.1,2.5c0.4,1.7-0.7,3.4-2.4,3.8
			c-0.3,0.1-0.6,0.1-0.8,0.1c-0.4,0-0.7-0.1-1-0.2c-0.2-0.1-0.4-0.1-0.5-0.1c-0.3-0.1-0.5,0.3-0.5,0.5l1.5,7.4l-11.6,2.6
			c-0.2,0.1-0.7,0-0.9-0.6l-0.3-1.4c0.4-0.1,0.7-0.2,1.1-0.3c3.5-1,5.5-4.2,4.9-7.6c-0.6-3.2-3.3-5.9-6.3-6.1
			C-181,109.8-182.4,110-182.9,110.3z"/>
		<path class="st0" d="M-182.4,112.4c-2.4,0.8-2,2.4-1.5,5c0.3,1.7,0.6,3.2,1.4,4c0.4,0.4,0.9,0.5,1.3,0.5c0.5,0,1-0.2,1.6-0.3
			c2.2-0.7,3.8-2.6,3.4-5.2c-0.4-2.4-2.5-4.2-4.3-4.3C-181.4,112-182.2,112.3-182.4,112.4z"/>
		<path class="st0" d="M-167.9,100.8c0,4.8,3.9,8.6,8.8,8.6c4.8,0,8.8-3.9,8.8-8.6c0-4.8-3.9-8.6-8.8-8.6
			C-164,92.2-167.9,96-167.9,100.8z"/>
		<path class="st0" d="M-116.5,110.5c-1.8,0.2-3.7,1.8-4.1,4.2c-0.4,2.4,1.1,4.3,3.2,4.9c0.6,0.2,1.1,0.3,1.6,0.3
			c0.5,0,0.9-0.1,1.3-0.5c0.8-0.7,1.1-2.2,1.3-3.8c0.4-2.4,0.8-4-1.5-4.8C-115.8,110.5-116.4,110.5-116.5,110.5z"/>
	</g>
	<path class="st0" d="M-115.5,108.1c-2.9,0.3-5.5,2.8-6.1,5.9c-0.6,3.3,1.4,6.4,4.7,7.4c0,0,0,0,0,0l-0.3,1.2c0,0.2-0.3,0.6-0.9,0.5
		l-13.4-3.3l1.6-7.1c0.1-0.6,0.5-0.6,1.1-0.1c0.3,0.3,0.8,0.7,1.6,0.9c0.2,0.1,0.5,0.1,0.7,0.1c1.4,0,2.7-1,3.1-2.5
		c0.4-1.7-0.6-3.5-2.3-3.9c-0.2-0.1-0.5-0.1-0.7-0.1c-0.6,0-1.1,0.2-1.1,0.2c-0.6,0.3-1.1,0-1-0.6l1.6-6.7l4.4,1.1
		c0.2,0,0.3-0.1,0.3-0.3c0-0.1,0-0.3-0.1-0.6c0,0-0.2-0.6-0.1-1.3c0-0.2,0-0.4,0.1-0.5c0.4-1.7,2.1-2.8,3.8-2.4
		c1.7,0.4,2.8,2.1,2.4,3.8c-0.1,0.2-0.1,0.4-0.2,0.6c-0.2,0.5-0.4,0.8-0.7,1c-0.2,0.2-0.3,0.4-0.4,0.5c-0.1,0.2,0.1,0.4,0.2,0.5
		l3.7,0.9c0.4,0.1,0.6,0.5,0.5,0.9l-0.9,3.9C-114.1,108.2-114.5,108-115.5,108.1z"/>
</g>
<g>
	<path class="st0" d="M38.7,103.1c-0.6-2.8-3.1-4.8-5.9-4.8c-0.4,0-0.8,0.1-1.3,0.1c-1.2,0.2-2.4,1-3,1.6c-0.4,0.4-0.7,0.6-1,0.7
		c-0.2,0.1-0.8,0.1-1-0.7l-2.9-13.5L1.3,91.4c-0.7,0.2-1.2,0.9-1.1,1.6l1.5,7c0,0,0,0,0.1,0l5.6,26.7l0.1,0.1l0.4,1.9
		c0.2,1,1.2,1.2,1.6,1.1l22.3-4.9l-2.9-14c-0.1-0.5,0.4-1.2,0.9-1c0.2,0.1,0.6,0.1,1,0.2c0.5,0.2,1.1,0.4,1.9,0.4
		c0.4,0,0.9,0,1.5-0.2C37.4,109.6,39.4,106.3,38.7,103.1z"/>
	<path class="st0" d="M70.8,93.9l-7-1.7c-0.3-0.2-0.5-0.5-0.4-0.9c0.1-0.3,0.3-0.6,0.7-1c0.5-0.4,0.9-1,1.3-2
		c0.1-0.3,0.2-0.7,0.3-1.1c0.8-3.3-1.3-6.5-4.6-7.3c-3.3-0.8-6.6,1.2-7.4,4.5c-0.1,0.3-0.1,0.7-0.1,1c-0.1,1.3,0.3,2.4,0.3,2.4
		c0.2,0.5,0.2,0.9,0.2,1.2c-0.1,0.4-0.4,0.5-0.6,0.6l-8.5-2l-3.1,12.8c-0.2,1.1,0.6,1.6,1.8,1.1c0,0,0.9-0.3,2.1-0.3
		c0.4,0,0.9,0,1.3,0.1c3.3,0.8,5.3,4.1,4.5,7.4c-0.7,2.8-3.2,4.7-5.9,4.7c-0.5,0-0.9-0.1-1.4-0.2c-1.6-0.4-2.4-1.1-3-1.7
		c-1.1-1-1.9-1-2.1,0.1l-3.2,13.5l25.8,6.2c1.2,0.2,1.6-0.7,1.7-1l0.5-2.3c0,0,0,0,0,0l6-25.1c0,0,0,0,0,0l1.8-7.5
		C72,94.8,71.6,94.1,70.8,93.9z"/>
</g>
<g>
	<path class="st0" d="M-228.6-26.5c-4,0-7.3,3.3-7.3,7.3c0,4,3.3,7.3,7.3,7.3c4,0,7.3-3.3,7.3-7.3
		C-221.3-23.3-224.6-26.5-228.6-26.5z"/>
	<path class="st0" d="M-226.9,4.5c0.7-0.3,1.4-0.5,2.1-0.6c-1.7-1.8-2.8-4.2-2.8-6.9c0-2.6,1-5,2.7-6.8h-6.7
		c0.9,1.5,1.4,3.2,1.4,5.1c0,2.6-1,4.9-2.6,6.7c2,0.2,3.9,0.8,5.5,2.2L-226.9,4.5z"/>
	<path class="st0" d="M-251.8-26.5c-4,0-7.3,3.3-7.3,7.3c0,4,3.3,7.3,7.3,7.3c4,0,7.3-3.3,7.3-7.3
		C-244.5-23.3-247.7-26.5-251.8-26.5z"/>
	<path class="st0" d="M-254.9-9.8C-254.9-9.8-255-9.8-254.9-9.8c1.6,1.8,2.6,4.2,2.6,6.8c0,2.7-1.1,5.1-2.8,6.9
		c0.7,0.1,1.4,0.3,2,0.6l0.3-0.3c1.6-1.4,3.5-1.9,5.5-2.2c-1.6-1.8-2.6-4.1-2.6-6.7c0-1.9,0.5-3.6,1.4-5.1H-254.9z"/>
	<path class="st0" d="M-206.7,4.8c-1-0.5-2-0.9-2.7-0.9c-1,0-1.4,0.6-1.8,1.9c-0.6,2-0.1,4.2,1.8,5.1c0.6,0.2,1.1,0.4,1.7,0.4
		c1.2,0,2.3-0.5,3-1.4c0.4-0.5,0.5-1,0.5-1.3C-203.5,6.2-204.8,5.7-206.7,4.8z"/>
	<path class="st0" d="M-275.6,8.4c0.1,0.3,0.2,0.8,0.5,1.3c0.7,0.9,1.8,1.4,3,1.4c0.6,0,1.1-0.1,1.7-0.4c1.9-0.8,2.4-3.1,1.8-5.1
		c-0.4-1.3-0.8-1.9-1.8-1.9c-0.8,0-1.8,0.4-2.7,0.9C-275,5.7-276.3,6.2-275.6,8.4z"/>
	<path class="st0" d="M-209,33.6c2.7,0,4.3-1.7,4.3-3.8c0,0,0-14.1,0-14.1c0-1.2-0.1-2.2-0.4-3.2c-0.8,0.4-1.7,0.6-2.6,0.6
		c-0.8,0-1.7-0.2-2.5-0.5c-2.4-1-3.6-3.7-3.1-6.4c-0.1,0-0.2,0-0.3,0l-4,4l-4-4c-2.2,0.1-4,0.4-5.3,1.4c-1.9,1.5-2.4,4.9-2.4,6.2
		c0,1.4,0,3.2,0,5.2c1.2-0.3,2.5-0.6,3.8-1.1l0,21.7h16.5V33.6z"/>
	<path class="st0" d="M-269.4-3c0,4,3.3,7.3,7.3,7.3c4,0,7.3-3.3,7.3-7.3c0-4-3.3-7.3-7.3-7.3C-266.2-10.3-269.4-7-269.4-3z"/>
	<path class="st0" d="M-217.6,4.3c4,0,7.3-3.3,7.3-7.3c0-4-3.3-7.3-7.3-7.3c-4,0-7.3,3.3-7.3,7.3C-224.9,1-221.7,4.3-217.6,4.3z"/>
	<path class="st0" d="M-235.9,4.4l-4,4l-4-4c-3.1,0-5.4,0.3-7,1.7c0,0,2.7,2.9,2.7,7.6c0,5.4,0,16.8,0,25.9h16.5l0-25.9
		c0-3.9,1.7-6.2,2.7-7.6C-230.5,4.7-232.9,4.5-235.9,4.4z"/>
	<path class="st0" d="M-247.2-4.7c0,4,3.3,7.3,7.3,7.3c4,0,7.3-3.3,7.3-7.3c0-4-3.3-7.3-7.3-7.3C-244-12-247.2-8.7-247.2-4.7z"/>
	<path class="st0" d="M-254.2,39.6l0-21.7c1.3,0.4,2.6,0.8,3.8,1.1c0-2,0-3.8,0-5.2c0-1.3-0.4-4.7-2.4-6.2c-1.3-1-3.2-1.3-5.3-1.4
		l-4,4l-4-4c-0.1,0-0.2,0-0.3,0c0.5,2.8-0.7,5.4-3.1,6.4c-0.8,0.4-1.6,0.5-2.5,0.5c-0.9,0-1.8-0.2-2.6-0.6c-0.3,1-0.4,2-0.4,3.2
		c0,0,0,14.1,0,14.1c0,2.1,1.6,3.8,4.3,3.8c0,0,0,2.7,0,6H-254.2z"/>
</g>
<g>
	<path class="st0" d="M-232.7,75c-0.7-0.3-1.6-0.6-2.7-1l-2.1,0.8l-0.4,1.1c-0.3,1-1.1,1.9-2.2,2.6c-0.5,0.3-1.2,0.8-2,1.3l2.2,8.1
		c0.3,1.4,1.6,2.2,3.1,1.8c1.5-0.3,2.3-1.5,1.9-2.9l-1.5-7l2.9-1C-233.2,77.5-232.9,76-232.7,75z"/>
	<path class="st0" d="M-239.3,62.8C-239.2,62.8-239.4,62.8-239.3,62.8L-239.3,62.8z"/>
	<path class="st0" d="M-244.2,67.2l-0.7,6.7l-5.5,3.8c-1.4,1-1.4,2.1-0.5,3.1c0.8,0.9,1.9,0.7,3,0.1c0,0,4.7-2.8,6.4-4
		c0.8-0.5,1.2-1,1.3-1.5c0.4-1.1,1.4-4.2,1.4-4.2c5.5,0.8,8.5,2.7,8.5,2.7s-1.4,7-2,9.7c-0.4,2-0.2,3,0.5,3.7c0.9,0.9,2.1,1,2.7,0.8
		l12.6-2.7c1.5-0.3,2.3-1.5,1.9-2.9c-0.3-1.2-1.1-2.1-3.1-1.8l-7.8,1.2c4.8-9.2,3.5-10.9,2.1-12.7c-3.4-4.1-10.4-6.5-16.2-6.5
		C-242.1,62.8-243.9,64-244.2,67.2z"/>
	<polygon class="st0" points="-238.1,123.1 -237.7,131.8 -223.9,131.8 -222.8,115.5 -217.9,131.8 -213.9,131.8 -213.9,87.9 
		-237.4,92.8 -246.4,106 -243.7,119.5 -250.3,131.8 -242.4,131.8 	"/>
	<path class="st0" d="M-251.3,122.7c0,0,1.1,0.9,2.5-0.3c1.4-1.2,0.7-2.3,0.7-2.3l-7.5-8.6c-0.3-0.4-1-0.6-1.5-0.5l-2.6,0.2
		c0,0,0.9,1.7,1.6,3.1c0.5,0.9,0.9,1.9,0.7,2.6L-251.3,122.7z"/>
	<path class="st0" d="M-275.2,101.3c-0.4,0.3-0.6,0.8-0.4,1.3l3.1,7.6l1.2-6.1l2.9-1.2c-0.6,2.9-1.3,5.9-1.3,5.9
		c-0.4,1.6-0.4,2.1,0.5,3.5l3.4,5.5l-0.1,8.3c0,0.7,0.6,2,2.1,2.1c2.2,0.1,2.5-1.7,2.5-1.7l1.3-9.2c0.1-0.6,0.1-1.1-0.1-1.5
		l-2.4-4.2l3.1-9.8l4.6,1.8c0.4,0.2,1.1,0.1,1.6-0.2l8.3-4.9c0.9-0.6,0.9-1.6,0.4-2.3c-0.6-0.9-1.7-0.7-2.3-0.5l-7.7,2.9l-4.4-2.3
		c-3.3-1.9-5-1.6-6.7-0.7L-275.2,101.3z"/>
	<path class="st0" d="M-259.3,85.8c-2.6,0-4.7,2-4.7,4.4c0,2.4,2.1,4.4,4.7,4.4c2.6,0,4.7-2,4.7-4.4
		C-254.6,87.7-256.7,85.8-259.3,85.8z"/>
	<path class="st0" d="M-250.2,60.5c-2.8,0-5,2.1-5,4.7c0,2.6,2.2,4.7,5,4.7c2.8,0,5-2.1,5-4.7C-245.2,62.6-247.4,60.5-250.2,60.5z"
		/>
</g>
<g>
	<g>
		<path class="st0" d="M-80.3,106.7c-3.5,0-6.3,2.8-6.3,6.3c0,3.5,2.8,6.3,6.3,6.3c3.5,0,6.3-2.8,6.3-6.3
			C-74,109.5-76.8,106.7-80.3,106.7z"/>
		<path class="st0" d="M-70.1,126.9c-0.7-2.9-3.2-4.9-6.6-5.7l-3.7,3.3l-3.6-3.3c-3.9,0.9-6.8,3.5-6.8,7.2v3.4h41.4v-3.4
			c0-3.8-2.8-6.3-6.8-7.3l-3.7,3.3l-3.6-3.3C-66.9,122-69.4,123.9-70.1,126.9z"/>
		<path class="st0" d="M-53.5,113c0-3.5-2.8-6.3-6.3-6.3c-3.5,0-6.3,2.8-6.3,6.3c0,3.5,2.8,6.3,6.3,6.3
			C-56.3,119.3-53.5,116.5-53.5,113z"/>
	</g>
	<path class="st0" d="M-31.5,99.6l-6.1,4.6l-4.5-5.5c-3.1-0.4-5.7-1-8-2.5c-0.8-0.5-1.5-1.1-2.2-1.8c1.2-0.5,2.2-1.3,2.9-2.4
		c1.4-0.3,3.5-2.1,3.8-4.3c0.4-3.3-1.5-5.2-3-5.9c-1.1-2.3-3.1-3.5-4.9-3.9c-7.6-1.7-10.8-4.4-13.2-5.8c-0.5-0.8-2.3-2.4-4.7-2.4
		c-1.6,0-3.4,0.7-5.2,2.7l2.5,1.8c2.7-2.4,5.3-0.9,6.6,2.5c1.8,4.4,0.8,10.9-2.1,14.7c-2.2,2.9-5.2,3.3-7,0.4l-2.8,1.1
		c1.2,2.3,3.1,4.3,5.7,4.3c1.3,0,2.7-0.5,4.3-1.8c2.2-0.1,4-0.5,6.6-0.6c0.4,0.9,0.9,1.8,1.4,2.6c3.5,5.6,9.1,8.7,14.5,10.5
		l-4.6,24.1h16.2l4.5-18.7h1.6l-2.3,10.9h8.3l2.8-12.1C-19.7,104.7-24.1,100.8-31.5,99.6z"/>
	<path class="st0" d="M-34.2,97.1c5.3,0,9.6-4.3,9.6-9.6c0-5.3-4.3-9.6-9.6-9.6c-5.3,0-9.6,4.3-9.6,9.6
		C-43.8,92.9-39.6,97.1-34.2,97.1z"/>
	
		<rect x="-84.7" y="77.7" transform="matrix(0.1222 -0.9925 0.9925 0.1222 -154.5315 -10.9905)" class="st0" width="2.5" height="8.3"/>
	
		<rect x="-87.1" y="88.2" transform="matrix(0.9283 -0.3719 0.3719 0.9283 -39.2322 -24.4746)" class="st0" width="8.1" height="2.5"/>
	
		<rect x="-82.5" y="70.5" transform="matrix(0.5856 -0.8106 0.8106 0.5856 -94.1151 -34.9502)" class="st0" width="2.5" height="8.1"/>
	<path class="st0" d="M-69.9,88c0.9-2.3,1.4-4.9,1.3-7.4l-4.1-0.4c-1.2-0.2-2.5,1.2-2.8,3.1c-0.3,1.9,0.4,3.6,1.6,3.8L-69.9,88z"/>
</g>
</svg>
