<?xml version="1.0" encoding="utf-8"?>
<!-- Generator: Adobe Illustrator 27.0.1, SVG Export Plug-In . SVG Version: 6.00 Build 0)  -->
<svg version="1.1" id="Layer_1" xmlns="http://www.w3.org/2000/svg" xmlns:xlink="http://www.w3.org/1999/xlink" x="0px" y="0px"
	 viewBox="0 0 72 72" style="enable-background:new 0 0 72 72;" xml:space="preserve">
<style type="text/css">
	.st0{fill:#FFFFFF;}
</style>
<g>
	<path class="st0" d="M60.5,18.3L71.1,7.7L65.7,7C65.3,7,65,6.7,65,6.3l-0.7-5.4L53.7,11.5l0.8,6L60.5,18.3z"/>
	<path class="st0" d="M46.5,23.9c-3.6-3.2-8.2-5-13.1-5c-5.2,0-10.2,2-13.9,5.7c-3.7,3.7-5.7,8.6-5.7,13.9c0,5.2,2,10.2,5.7,13.9
		c3.8,3.8,8.9,5.7,13.9,5.7c5,0,10.1-1.9,13.9-5.7c7.4-7.4,7.7-19.2,0.8-26.9l-0.2-0.2l-7.8,7.8l0.2,0.2c1.2,1.5,1.8,3.3,1.8,5.3
		c0,2.3-0.9,4.5-2.5,6.1c-1.6,1.6-3.8,2.5-6.1,2.5c-2.3,0-4.5-0.9-6.1-2.5c-1.6-1.6-2.5-3.8-2.5-6.1c0-2.3,0.9-4.5,2.5-6.1
		c1.6-1.6,3.8-2.5,6.1-2.5c1.9,0,3.8,0.6,5.3,1.8l0.2,0.2l7.8-7.8L46.5,23.9z"/>
	<path class="st0" d="M33.6,37.1l0.1,0l4-4l-0.3-0.2c-1.2-0.8-2.6-1.3-4-1.3c-1.9,0-3.6,0.7-4.9,2c-1.3,1.3-2,3.1-2,4.9
		c0,1.9,0.7,3.6,2,4.9c1.3,1.3,3.1,2,4.9,2c1.9,0,3.6-0.7,4.9-2c1.3-1.3,2-3.1,2-4.9c0-1.5-0.4-2.8-1.3-4l-0.2-0.3l-4,4l0,0.1
		c0.1,0.5-0.1,1.1-0.5,1.5c-0.3,0.3-0.7,0.5-1.2,0.5c-0.4,0-0.9-0.2-1.2-0.5c-0.3-0.3-0.5-0.7-0.5-1.2c0-0.4,0.2-0.9,0.5-1.2
		C32.5,37.2,33,37,33.6,37.1z"/>
	<path class="st0" d="M62.3,37.9h4l0-0.3c-0.2-6.3-2.2-12.3-5.7-17.5L60.5,20l-6.4-0.8l-4.9,4.9l0.2,0.2c7.6,8.4,7.3,21.3-0.8,29.3
		c-4,4-9.4,6.2-15.1,6.2c-5.7,0-11-2.2-15.1-6.2c-8.3-8.3-8.3-21.8,0-30.1c8-8,20.9-8.4,29.3-0.8l0.2,0.2l4.9-4.9L52,11.6l-0.1-0.1
		C46.8,8,40.8,6,34.6,5.8l-0.3,0v4.2c0,0.5-0.4,0.8-0.8,0.8c-0.5,0-0.8-0.4-0.8-0.8V5.8l-0.3,0c-8.3,0.3-16.1,3.7-22,9.6
		C4.4,21.3,1,29.2,0.7,37.6l0,0.3h3.9c0.5,0,0.8,0.4,0.8,0.8c0,0.5-0.4,0.8-0.8,0.8H0.7l0,0.3c0.3,8.3,3.7,16,9.6,21.9
		c5.9,5.9,13.7,9.3,22,9.6l0.3,0v-3.7c0-0.5,0.4-0.8,0.8-0.8c0.5,0,0.8,0.4,0.8,0.8v3.8l0.3,0c8.3-0.3,16.2-3.7,22-9.6
		c5.9-5.9,9.3-13.6,9.6-21.9l0-0.3h-4c-0.5,0-0.8-0.4-0.8-0.8C61.4,38.3,61.8,37.9,62.3,37.9z"/>
</g>
</svg>
