<?xml version="1.0" encoding="utf-8"?>
<!-- Generator: Adobe Illustrator 27.0.1, SVG Export Plug-In . SVG Version: 6.00 Build 0)  -->
<svg version="1.1" id="Layer_1" xmlns="http://www.w3.org/2000/svg" xmlns:xlink="http://www.w3.org/1999/xlink" x="0px" y="0px"
	 viewBox="0 0 72 40.5" style="enable-background:new 0 0 72 40.5;" xml:space="preserve">
<style type="text/css">
	.st0{fill:#FFFFFF;}
</style>
<g>
	<g>
		<path class="st0" d="M50.9,30.6c-1.1-0.3-1.9-1.4-1.6-2.6l1.9-7.7c-1,0-1.9,0-2.3,0.1l-3.2,4l-5-3.4c-1.2,0.2-2.3,0.5-3.3,1
			c1.9,2.2,2.9,5.3,3,9.2l0.1,9.4c0,0,0,0,0,0h15.1l0-8.8L50.9,30.6z"/>
		<path class="st0" d="M44.5,2c-4.6,0-8.4,3.7-8.4,8.3c0,4.6,3.8,8.3,8.4,8.3c4.6,0,8.4-3.7,8.4-8.3C52.9,5.7,49.1,2,44.5,2z"/>
		<path class="st0" d="M38.4,31.1c-0.1-6.4-2.8-9.8-8.2-10.8l-5.3,3.6l-2.4-2.4c-0.3,2.2-1.9,4.1-4.1,4.6c-0.2,0-0.4,0.1-0.6,0.1
			l1,5c0.2,1.2-0.5,2.3-1.6,2.5l-3.1,0.7l0,6.1h15l0.4-8.3H31l0.5,8.3h6.9L38.4,31.1z"/>
		<path class="st0" d="M1.1,18.6l-0.8-3.6c-0.1-0.4,0.2-0.8,0.6-0.9l11.6-2.6l1.5,7.1c0.1,0.4,0.4,0.4,0.5,0.3
			c0.1,0,0.3-0.1,0.5-0.4c0.3-0.3,0.9-0.7,1.6-0.8c0.2,0,0.4-0.1,0.7-0.1c1.5,0,2.8,1,3.1,2.5c0.4,1.7-0.7,3.4-2.4,3.8
			C17.6,24,17.4,24,17.1,24c-0.4,0-0.7-0.1-1-0.2c-0.2-0.1-0.4-0.1-0.5-0.1c-0.3-0.1-0.5,0.3-0.5,0.5l1.5,7.4L5.1,34.2
			c-0.2,0.1-0.7,0-0.9-0.6l-0.3-1.4C4.3,32.1,4.7,32,5,31.9c3.5-1,5.5-4.2,4.9-7.6c-0.6-3.2-3.3-5.9-6.3-6.1
			C3,18.2,1.6,18.3,1.1,18.6z"/>
		<path class="st0" d="M1.6,20.7c-2.4,0.8-2,2.4-1.5,5c0.3,1.7,0.6,3.2,1.4,4c0.4,0.4,0.9,0.5,1.3,0.5c0.5,0,1-0.2,1.6-0.3
			c2.2-0.7,3.8-2.6,3.4-5.2c-0.4-2.4-2.5-4.2-4.3-4.3C2.6,20.3,1.8,20.6,1.6,20.7z"/>
		<path class="st0" d="M16.1,9.1c0,4.8,3.9,8.6,8.8,8.6c4.8,0,8.8-3.9,8.8-8.6c0-4.8-3.9-8.6-8.8-8.6C20,0.5,16.1,4.3,16.1,9.1z"/>
		<path class="st0" d="M67.5,18.8c-1.8,0.2-3.7,1.8-4.1,4.2c-0.4,2.4,1.1,4.3,3.2,4.9c0.6,0.2,1.1,0.3,1.6,0.3
			c0.5,0,0.9-0.1,1.3-0.5c0.8-0.7,1.1-2.2,1.3-3.8c0.4-2.4,0.8-4-1.5-4.8C68.2,18.8,67.6,18.8,67.5,18.8z"/>
	</g>
	<path class="st0" d="M68.5,16.4c-2.9,0.3-5.5,2.8-6.1,5.9c-0.6,3.3,1.4,6.4,4.7,7.4c0,0,0,0,0,0l-0.3,1.2c0,0.2-0.3,0.6-0.9,0.5
		l-13.4-3.3l1.6-7.1c0.1-0.6,0.5-0.6,1.1-0.1c0.3,0.3,0.8,0.7,1.6,0.9c0.2,0.1,0.5,0.1,0.7,0.1c1.4,0,2.7-1,3.1-2.5
		c0.4-1.7-0.6-3.5-2.3-3.9c-0.2-0.1-0.5-0.1-0.7-0.1c-0.6,0-1.1,0.2-1.1,0.2c-0.6,0.3-1.1,0-1-0.6l1.6-6.7l4.4,1.1
		c0.2,0,0.3-0.1,0.3-0.3c0-0.1,0-0.3-0.1-0.6c0,0-0.2-0.6-0.1-1.3c0-0.2,0-0.4,0.1-0.5c0.4-1.7,2.1-2.8,3.8-2.4
		c1.7,0.4,2.8,2.1,2.4,3.8c-0.1,0.2-0.1,0.4-0.2,0.6c-0.2,0.5-0.4,0.8-0.7,1c-0.2,0.2-0.3,0.4-0.4,0.5c-0.1,0.2,0.1,0.4,0.2,0.5
		l3.7,0.9c0.4,0.1,0.6,0.5,0.5,0.9l-0.9,3.9C69.9,16.5,69.5,16.3,68.5,16.4z"/>
</g>
</svg>
