<?xml version="1.0" encoding="utf-8"?>
<!-- Generator: Adobe Illustrator 26.0.2, SVG Export Plug-In . SVG Version: 6.00 Build 0)  -->
<svg version="1.1" id="Layer_1" xmlns="http://www.w3.org/2000/svg" xmlns:xlink="http://www.w3.org/1999/xlink" x="0px" y="0px"
	 viewBox="0 0 463.3 242.7" style="enable-background:new 0 0 463.3 242.7;" xml:space="preserve">
<style type="text/css">
	.st0{fill:#A2B243;}
	.st1{fill:#05314C;}
	.st2{display:none;}
	.st3{display:inline;fill:#444545;}
	.st4{display:none;fill:#B0BC57;}
	.st5{display:none;fill:#444545;}
	.st6{display:none;fill:#FFFFFF;}
</style>
<g>
	<path class="st0" d="M53.9,122.9H41.3C43,132,54,143.1,72.3,144C62.4,139.9,55.3,132.1,53.9,122.9z"/>
	<path class="st0" d="M53.9,116.2H41.3c1.7-8.9,12.7-19.8,31-20.7C62.4,99.6,55.3,107.2,53.9,116.2z"/>
	<g>
		<path class="st0" d="M69.7,116.2c1.8-7.7,9.8-13.6,19.3-13.6c9.5,0,17.5,5.8,19.3,13.6l10.6,0c-2.2-11.7-14.7-20.7-29.9-20.7
			c-15.2,0-27.7,9-29.9,20.7L69.7,116.2z"/>
		<path class="st0" d="M108.3,122.9c-1.8,7.8-9.7,13.7-19.3,13.7c-9.6,0-17.5-5.9-19.3-13.7H59c1.9,11.9,14.6,21.2,30,21.2
			c15.4,0,28.1-9.2,30-21.2H108.3z"/>
	</g>
</g>
<g>
	<path class="st1" d="M133.6,140.9v-39.6h7.8v39.6H133.6z"/>
	<path class="st1" d="M155.9,111.2l0.6,4.1c2.3-3.3,5.8-4.8,9-4.8c3.2,0,5.9,1.5,7.7,3.9c2.3,3,2.6,6.8,2.6,11.1v15.4H168v-15
		c0-2.2-0.1-4.7-0.9-6.4c-0.7-1.5-2.2-2.1-3.9-2.1c-2.3,0-4.9,1.4-6.3,3.8v19.7h-7.9v-29.8H155.9z"/>
	<path class="st1" d="M198.8,105.7c-1.3-0.7-2.5-1-4-1c-1.3,0-2,0.3-2.4,0.9c-0.6,0.8-0.8,2.1-0.8,3.6v1.9h7.1v6.7h-7.1v23.1h-7.7
		v-23.1h-3.1v-6.7h3.1v-2.4c0-3.4,0.6-6.1,2.1-7.9c1.6-2,4.1-3.1,8.1-3.1c2.5,0,4.9,0.6,7.1,1.7L198.8,105.7z"/>
	<path class="st1" d="M230.7,126.1c0,8.8-6.3,15.6-15,15.6c-8.8,0-15-6.8-15-15.6c0-8.8,6.3-15.6,15-15.6
		C224.5,110.5,230.7,117.3,230.7,126.1z M215.7,117.4c-4.3,0-7.1,3.8-7.1,8.7s2.9,8.7,7.1,8.7c4.3,0,7.1-3.8,7.1-8.7
		S220,117.4,215.7,117.4z"/>
	<path class="st1" d="M243.6,115.1c1.6-2.8,3.9-4.6,6.7-4.6c1.4,0,2.7,0.3,3.7,0.7l-1.9,7c-0.8-0.5-1.7-0.7-2.7-0.7
		c-2.2,0-4.3,1.3-5.4,3.3v20.1h-7.7v-29.8h6.7L243.6,115.1z"/>
	<path class="st1" d="M293.7,140.9v-15c0-2.2-0.1-4.7-0.9-6.4c-0.7-1.5-2.2-2.1-4-2.1c-2.1,0-4.4,1.2-5.8,3.4
		c0.2,1.5,0.3,3.1,0.3,4.7v15.4h-8.1v-15c0-2.2,0-4.8-0.9-6.4c-0.7-1.4-2.1-2-3.8-2c-2,0-4.3,1.2-5.7,2.9v20.6h-8.1v-29.8h7l0.6,3.6
		c2.4-3,5.7-4.3,8.6-4.3c3.4,0,6.9,2,8.4,5c2.8-4,6.7-5,9.9-5c3.2,0,6,1.5,7.8,3.8c2.3,3,2.7,6.8,2.7,11.1v15.4H293.7z"/>
	<path class="st1" d="M325.1,140.9l-0.6-2.5c-1.9,2.4-4.8,3.2-8,3.2c-5.5,0-10.5-3.3-10.5-9.4c0-7.3,6.7-9.6,12.7-9.6
		c1.6,0,3.5,0.2,5.3,0.6v-0.5c0-3.7-1.5-6-5.8-6c-3.3,0-6.3,1.2-8.8,2.6l-2.1-5.8c3.7-1.9,8.2-3.1,12.6-3.1
		c8.1,0,12.1,4.8,12.1,12.6v17.9H325.1z M324,128c-1.5-0.3-2.8-0.5-4-0.5c-2.9,0-6.3,1.1-6.3,4.6c0,2.6,2.1,4,4.5,4
		c2.3,0,4.2-1,5.8-2.5V128z"/>
	<path class="st1" d="M346.7,117.8v11.5c0,0.9,0,1.7,0.1,2.5c0.2,1.8,0.9,2.8,2.5,2.8c1.2,0,2.1-0.3,3.1-0.8l2.4,5.9
		c-1.9,1.1-4.6,1.8-6.8,1.8c-4.5,0-7.5-2.5-8.5-6.4c-0.4-1.5-0.5-3.2-0.5-5v-12.4h-3.4v-6.7h3.4l1.2-6.6h6.5v6.6h7.3v6.7H346.7z"/>
	<path class="st1" d="M359.2,107v-6.8h7.7v6.8H359.2z M359.2,140.9v-29.8h7.7v29.8H359.2z"/>
	<path class="st1" d="M397.4,137.9c-2.9,2.6-6.3,3.7-10.5,3.7c-8.6,0-14.9-6.3-14.9-15.6c0-8.7,6.2-15.6,15.1-15.6
		c4,0,7.4,1.2,10.3,3.7l-4.1,5.6c-1.6-1.5-3.4-2.4-5.7-2.4c-4.5,0-7.6,3.9-7.6,8.7c0,5,3.3,8.7,7.5,8.7c2.2,0,4-0.6,5.6-2.3
		L397.4,137.9z"/>
	<path class="st1" d="M417.9,119.3c-1.5-1.4-3.6-2.5-5.8-2.5c-1.5,0-2.8,0.8-2.8,2.3c0,1.9,2.2,2.8,4.6,3.8c3.8,1.6,8.6,3.5,8.6,9.2
		c0,6.6-5.6,9.6-11.3,9.6c-4.6,0-8.6-1.8-11.8-5.1l4.5-4.8c2.2,2.2,4.1,3.5,6.9,3.5c1.6,0,3.7-0.8,3.7-2.6c0-2.1-2.7-3-5.6-4.3
		c-3.5-1.5-7.4-3.6-7.4-8.8c0-6.1,5.1-9.1,10.5-9.1c3.9,0,7.4,1.3,10.1,3.9L417.9,119.3z"/>
</g>
<g class="st2">
	<path class="st3" d="M93.4,114.9c2.6-9.5,14.6-16.7,29-16.7c14.4,0,26.4,7.2,29,16.7h9.1c-2.8-12.5-18.8-22-38.1-22
		s-35.4,9.6-38.1,22H93.4z"/>
	<path class="st3" d="M151.5,122.6c-2.6,9.5-14.6,16.7-29,16.7c-14.4,0-26.4-7.2-29-16.7h-9.1c2.8,12.5,18.8,22,38.1,22
		s35.4-9.6,38.1-22H151.5z"/>
</g>
<g class="st2">
	<path class="st3" d="M93.4,114.9c2.6-9.5,14.6-16.7,29-16.7c14.4,0,26.4,7.2,29,16.7h9.1c-2.8-12.5-18.8-22-38.1-22
		s-35.4,9.6-38.1,22H93.4z"/>
	<path class="st3" d="M151.5,122.6c-2.6,9.5-14.6,16.7-29,16.7c-14.4,0-26.4-7.2-29-16.7h-9.1c2.8,12.5,18.8,22,38.1,22
		s35.4-9.6,38.1-22H151.5z"/>
</g>
<g class="st2">
	<path class="st3" d="M104.7,115.5c1.6-10.5,11.3-16.5,23.1-16.5s21.5,6,23.1,16.5h12.5c-1.9-13.8-17.1-24.5-35.6-24.5
		c-18.5,0-33.7,10.7-35.6,24.5H104.7z"/>
	<path class="st3" d="M150.9,121.5c-1.6,10.5-11.3,16.5-23.1,16.5s-21.5-6-23.1-16.5H92.2c1.9,13.8,17.1,24.5,35.6,24.5
		c18.5,0,33.7-10.7,35.6-24.5H150.9z"/>
</g>
<path class="st4" d="M86.1,115.2c1.6-10.6,10-19.6,21.9-24.3c-19.7,1-34.5,11.2-37,24.3H86.1z"/>
<path class="st5" d="M147.7,118.7c0,14.5-14,26.3-31.3,26.3C99,145,85,133.2,85,118.7c0-14.5,14-26.3,31.3-26.3
	C133.6,92.3,147.7,104.1,147.7,118.7z"/>
<path class="st6" d="M139.7,118.7c0,11-10.9,20-24.3,20c-13.4,0-24.3-9-24.3-20s10.9-20,24.3-20C128.8,98.7,139.7,107.6,139.7,118.7
	z"/>
<path class="st5" d="M164.8,114.7v7.7H65v-7.7H164.8z"/>
<path class="st5" d="M164.8,114.7v7.7H65v-7.7H164.8z"/>
<rect x="69.4" y="72.5" class="st4" width="118.2" height="18.5"/>
</svg>
