<svg xmlns="http://www.w3.org/2000/svg" width="330.155" height="321.954" viewBox="0 0 330.155 321.954">
  <g id="Intersection_1" data-name="Intersection 1" transform="translate(-2693.659 289.14)" fill="#fff">
    <path d="M 2836.76318359375 32.31356811523438 C 2833.7109375 32.31356811523438 2830.735595703125 31.73464965820312 2827.919921875 30.59285926818848 C 2825.005126953125 29.41085815429688 2822.3896484375 27.67398452758789 2820.146240234375 25.43056678771973 L 2694.15869140625 -100.5566864013672 L 2694.15869140625 -288.6403198242188 L 2898.64453125 -288.6403198242188 L 3016.430419921875 -170.8543548583984 C 3018.673828125 -168.6108856201172 3020.41064453125 -165.9954376220703 3021.592529296875 -163.0805511474609 C 3022.734375 -160.264892578125 3023.3134765625 -157.2895202636719 3023.3134765625 -154.237060546875 C 3023.3134765625 -151.1846008300781 3022.734375 -148.209228515625 3021.592529296875 -145.3935546875 C 3020.41064453125 -142.4786834716797 3018.673828125 -139.8632202148438 3016.430419921875 -137.6197662353516 L 2853.380126953125 25.43056678771973 C 2851.13671875 27.67398452758789 2848.521240234375 29.41085815429688 2845.6064453125 30.59285926818848 C 2842.790771484375 31.73464965820312 2839.8154296875 32.31356811523438 2836.76318359375 32.31356811523438 Z" stroke="none"/>
    <path d="M 2836.76318359375 31.81356811523438 C 2839.750732421875 31.81356811523438 2842.662841796875 31.24698448181152 2845.41845703125 30.12948417663574 C 2848.27099609375 28.97277641296387 2850.83056640625 27.27285957336426 2853.026611328125 25.07698440551758 L 3016.076904296875 -137.9733428955078 C 3018.272705078125 -140.169189453125 3019.97265625 -142.7289276123047 3021.12939453125 -145.5814361572266 C 3022.246826171875 -148.3371429443359 3022.8134765625 -151.2493133544922 3022.8134765625 -154.237060546875 C 3022.8134765625 -157.2248077392578 3022.246826171875 -160.1369781494141 3021.12939453125 -162.8926849365234 C 3019.97265625 -165.7451782226562 3018.272705078125 -168.304931640625 3016.076904296875 -170.5007629394531 L 2898.437255859375 -288.1403198242188 L 2694.65869140625 -288.1403198242188 L 2694.65869140625 -100.7638473510742 L 2820.499755859375 25.07698440551758 C 2822.695556640625 27.27285957336426 2825.25537109375 28.97277641296387 2828.10791015625 30.12948417663574 C 2830.863525390625 31.24698448181152 2833.775634765625 31.81356811523438 2836.76318359375 31.81356811523438 M 2836.76318359375 32.81356811523438 C 2830.62109375 32.81356811523438 2824.47900390625 30.47039985656738 2819.792724609375 25.78410911560059 L 2693.65869140625 -100.3496017456055 L 2693.65869140625 -289.1403198242188 L 2898.8515625 -289.1403198242188 L 3016.783935546875 -171.2078857421875 C 3026.156494140625 -161.8353118896484 3026.156494140625 -146.6388092041016 3016.783935546875 -137.2662200927734 L 2853.733642578125 25.78410911560059 C 2849.04736328125 30.47039985656738 2842.9052734375 32.81356811523438 2836.76318359375 32.81356811523438 Z" stroke="none" fill="#707070"/>
  </g>
</svg>
