<?xml version="1.0" encoding="utf-8"?>
<!-- Generator: Adobe Illustrator 28.2.0, SVG Export Plug-In . SVG Version: 6.00 Build 0)  -->
<svg version="1.1" id="a" xmlns="http://www.w3.org/2000/svg" xmlns:xlink="http://www.w3.org/1999/xlink" x="0px" y="0px"
	 viewBox="0 0 100 100" style="enable-background:new 0 0 100 100;" xml:space="preserve">
<style type="text/css">
	.st0{fill:#115448;}
</style>
<path class="st0" d="M17.8,76.3c3.9,0,7.2-2.7,8.1-6.4c1.3-0.7,3-1.1,5.2-1.1h6c2,0,3.6,0.3,4.8,0.9c0.8,3.7,4.2,6.5,8.2,6.5
	s7.2-2.7,8.1-6.3c1.3-0.7,3.1-1.1,5.2-1.1h6c1.9,0,3.6,0.3,4.8,0.9c0.8,3.8,4.2,6.6,8.2,6.6c4.6,0,8.4-3.8,8.4-8.4s-3.8-8.4-8.4-8.4
	c-4.2,0-7.8,3.2-8.3,7.3c-1.4-0.4-2.9-0.7-4.7-0.7h-6c-1.9,0-3.6,0.3-5,0.8c-0.5-4.2-4-7.4-8.3-7.4s-7.8,3.2-8.3,7.3
	c-1.4-0.4-2.9-0.7-4.7-0.7h-6c-1.9,0-3.5,0.3-5,0.8c-0.5-4.2-4-7.4-8.3-7.4c-4.6,0-8.4,3.8-8.4,8.4S13.2,76.3,17.8,76.3L17.8,76.3z
	 M82.3,62.3c3.1,0,5.7,2.5,5.7,5.7s-2.6,5.7-5.7,5.7s-5.7-2.6-5.7-5.7S79.2,62.3,82.3,62.3z M50,62.3c3.1,0,5.7,2.5,5.7,5.7
	s-2.5,5.7-5.7,5.7s-5.7-2.6-5.7-5.7S46.9,62.3,50,62.3z M17.8,62.3c3.1,0,5.7,2.5,5.7,5.7s-2.5,5.7-5.7,5.7s-5.7-2.6-5.7-5.7
	S14.6,62.3,17.8,62.3z"/>
<path class="st0" d="M31.4,87.3v-0.6c0-1.9-0.8-8.3-10.6-8.3h-6c-7.9,0-10.7,4.3-10.7,8.3v0.6c-1,0.8-1.7,2.1-1.7,3.5v6.3h2.7v-6.3
	c0-1.1,0.9-2,2-2h21.3c1.1,0,2,0.9,2,2v6.3h2.7v-6.3C33.1,89.4,32.4,88.1,31.4,87.3L31.4,87.3z M28.4,86.2H7.1c-0.1,0-0.2,0-0.3,0
	c0.3-3.2,3.2-5.1,8-5.1h6c4.9,0,7.7,1.8,7.9,5.1C28.6,86.2,28.5,86.2,28.4,86.2L28.4,86.2z"/>
<path class="st0" d="M63.7,87.3v-0.6c0-1.9-0.8-8.3-10.6-8.3h-6c-7.9,0-10.7,4.3-10.7,8.3v0.6c-1,0.8-1.7,2.1-1.7,3.5v6.3h2.7v-6.3
	c0-1.1,0.9-2,2-2h21.3c1.1,0,2,0.9,2,2v6.3h2.7v-6.3C65.3,89.4,64.7,88.1,63.7,87.3L63.7,87.3z M60.7,86.2H39.4c-0.1,0-0.2,0-0.3,0
	c0.3-3.2,3.2-5.1,8-5.1h6c4.9,0,7.7,1.8,7.9,5.1C60.9,86.2,60.8,86.2,60.7,86.2L60.7,86.2z"/>
<path class="st0" d="M95.9,87.3v-0.6c0-1.9-0.8-8.3-10.6-8.3h-6c-7.9,0-10.7,4.3-10.7,8.3v0.6c-1,0.8-1.7,2.1-1.7,3.5v6.3h2.7v-6.3
	c0-1.1,0.9-2,2-2h21.3c1.1,0,2,0.9,2,2v6.3h2.7v-6.3C97.6,89.4,96.9,88.1,95.9,87.3L95.9,87.3z M92.9,86.2H71.6c-0.1,0-0.2,0-0.3,0
	c0.3-3.2,3.2-5.1,8-5.1h6c4.9,0,7.7,1.8,7.9,5.1C93.1,86.2,93,86.2,92.9,86.2z"/>
<path class="st0" d="M34,64.2c4.6,0,8.4-3.8,8.4-8.4s-3.8-8.4-8.4-8.4s-8.4,3.8-8.4,8.4S29.4,64.2,34,64.2z M34,50.1
	c3.1,0,5.7,2.5,5.7,5.7s-2.5,5.7-5.7,5.7s-5.7-2.5-5.7-5.7S30.9,50.1,34,50.1z"/>
<path class="st0" d="M57.9,55.8c0,4.6,3.8,8.4,8.4,8.4s8.4-3.8,8.4-8.4s-3.8-8.4-8.4-8.4S57.9,51.2,57.9,55.8z M66.3,50.1
	c3.1,0,5.7,2.5,5.7,5.7s-2.6,5.7-5.7,5.7s-5.7-2.5-5.7-5.7S63.2,50.1,66.3,50.1z"/>
<path class="st0" d="M36.5,46.4c0.4,0.2,1.1,0.4,1.9,0.4c0.2,0,0.5,0,0.7,0v2h2.7v-3.1c1.4-0.8,4.5-2.7,6.9-4.1v1
	c0,0.7,0.6,1.3,1.3,1.3s1.3-0.6,1.3-1.3v-2.5c0.4-0.2,0.7-0.4,0.7-0.4c0,0,0.1-0.1,0.1-0.1c1.7-1.3,2.2-3.6,1-5.3
	c-0.1-0.2-0.2-0.3-0.4-0.5c0.4-0.6,0.7-1.3,0.7-2.1v-1.4c0-1.9-1.6-3.5-3.5-3.5s-3.5,1.6-3.5,3.5v1.4c0,0.7,0.2,1.3,0.5,1.9
	l-5.6,2.9l1.2,2.4l6.5-3.3c0.6-0.4,1.4-0.2,1.7,0.3c0.3,0.5,0.2,1.2-0.4,1.7c-0.9,0.5-8,4.6-10.3,6c-1.1,0.7-2,0.8-2.7,0.5
	c-0.5-0.3-0.8-0.8-0.8-1.3c-0.2-2,0.2-4.7,1-7.8c1.8-6.8,3.1-8.9,7.7-9.2h9c4.4,0.3,7.1,1.9,7.1,8.9V46h2.7V34.6
	c0-7.5-3-11.1-9.7-11.6h-9.2c-6.9,0.5-8.5,4.7-10.2,11.2c-0.9,3.5-1.3,6.4-1.1,8.7C34.3,44.4,35.2,45.8,36.5,46.4L36.5,46.4z
	 M50.9,31.7c0,0.5-0.4,0.8-0.8,0.8s-0.8-0.4-0.8-0.8v-1.4c0-0.5,0.4-0.8,0.8-0.8s0.8,0.4,0.8,0.8V31.7z"/>
<path class="st0" d="M50.1,21.4c4.7,0,8.5-3.8,8.5-8.5s-3.8-8.5-8.5-8.5s-8.5,3.8-8.5,8.5S45.4,21.4,50.1,21.4z M50.1,7.2
	c3.2,0,5.8,2.6,5.8,5.8s-2.6,5.8-5.8,5.8s-5.8-2.6-5.8-5.8S46.9,7.2,50.1,7.2z"/>
</svg>
