<?xml version="1.0" encoding="UTF-8"?><svg id="a" xmlns="http://www.w3.org/2000/svg" viewBox="0 0 100 100"><path d="M31.33,64.96l54.35-9.03c.68-.11,1.25-.59,1.49-1.24l11.51-31.32c.22-.6.14-1.26-.22-1.78-.36-.52-.95-.83-1.58-.83H18.83l-3.43-11.1c-.25-.81-.99-1.36-1.83-1.36H2.35c-1.06,0-1.92.87-1.92,1.94s.86,1.94,1.92,1.94h9.81l13.36,43.23c.26.83,1.01,1.36,1.83,1.36.19,0,.38-.03.57-.09,1.01-.32,1.58-1.41,1.26-2.43l-3.76-12.17h12.74l2.52,17.39-10.03,1.67s-.07.01-.1.02c-4.44.99-6.37,5.12-5.99,8.7.34,3.13,2.28,5.23,4.83,5.23h59.19c1.06,0,1.92-.87,1.92-1.94s-.86-1.94-1.92-1.94H29.4c-.54,0-.92-.91-1.02-1.77-.14-1.28.3-3.85,2.95-4.47ZM59.03,24.63h15.74l-1.9,13.57h-13.84v-13.57ZM55.19,38.2h-13.71l-1.97-13.57h15.67v13.57ZM72.32,42.08l-1.74,12.42-11.55,1.92v-14.34h13.29ZM83.96,52.28l-9.4,1.56,1.65-11.76h11.51l-3.75,10.2ZM89.13,38.2h-12.39l1.9-13.57h15.47l-4.99,13.57ZM24.23,38.2l-4.19-13.57h15.6l1.97,13.57h-13.37ZM42.04,42.08h13.15v14.98l-10.72,1.78-2.43-16.76Z" fill="#394553" stroke-width="0"/><path d="M35.02,79.55c-4.34,0-7.87,3.57-7.87,7.95s3.53,7.96,7.87,7.96,7.87-3.57,7.87-7.96-3.53-7.95-7.87-7.95ZM35.02,91.58c-2.22,0-4.03-1.83-4.03-4.07s1.81-4.07,4.03-4.07,4.03,1.83,4.03,4.07-1.81,4.07-4.03,4.07Z" fill="#394553" stroke-width="0"/><path d="M78.82,79.55c-4.34,0-7.87,3.57-7.87,7.95s3.53,7.96,7.87,7.96,7.87-3.57,7.87-7.96-3.53-7.95-7.87-7.95ZM78.82,91.58c-2.22,0-4.03-1.83-4.03-4.07s1.81-4.07,4.03-4.07,4.03,1.83,4.03,4.07-1.81,4.07-4.03,4.07Z" fill="#394553" stroke-width="0"/></svg>