<?xml version="1.0" encoding="utf-8"?>
<!-- Generator: Adobe Illustrator 28.2.0, SVG Export Plug-In . SVG Version: 6.00 Build 0)  -->
<svg version="1.1" id="a" xmlns="http://www.w3.org/2000/svg" xmlns:xlink="http://www.w3.org/1999/xlink" x="0px" y="0px"
	 viewBox="0 0 100 100" style="enable-background:new 0 0 100 100;" xml:space="preserve">
<style type="text/css">
	.st0{fill:#115448;}
</style>
<path class="st0" d="M82.6,13.8h-3.2v-2.4c0-3.9-3.2-7.1-7.1-7.1s-7.1,3.2-7.1,7.1v2.4H33.5v-2.4c0-3.9-3.2-7.1-7.1-7.1
	s-7.1,3.2-7.1,7.1v2.4c-0.1,0-0.3-0.1-0.4-0.1h-2.4c-8.4,0-15.3,6.9-15.3,15.3v50.5c0,8.4,6.9,15.3,15.3,15.3h66.1
	c8.4,0,15.3-6.9,15.3-15.3V29.1C98,20.7,91.1,13.8,82.6,13.8L82.6,13.8z M69.2,11.5c0-1.8,1.4-3.2,3.2-3.2s3.2,1.4,3.2,3.2v8.4
	c0,1.8-1.4,3.2-3.2,3.2s-3.2-1.4-3.2-3.2C69.2,19.9,69.2,11.5,69.2,11.5z M23.2,11.5c0-1.8,1.4-3.2,3.2-3.2s3.2,1.4,3.2,3.2v8.4
	c0,1.8-1.4,3.2-3.2,3.2s-3.2-1.4-3.2-3.2C23.2,19.9,23.2,11.5,23.2,11.5z M16.5,17.7h2.4c0.1,0,0.3,0,0.4,0v2.2
	c0,3.9,3.2,7.1,7.1,7.1s7.1-3.2,7.1-7.1v-2.1h31.8v2.1c0,3.9,3.2,7.1,7.1,7.1s7.1-3.2,7.1-7.1v-2.1h3.2c6.3,0,11.4,5.1,11.4,11.4
	v8.2H5.1v-8.2C5.1,22.8,10.2,17.7,16.5,17.7z M82.6,91H16.5c-6.3,0-11.4-5.1-11.4-11.4V41.3h88.9v38.3C94.1,85.9,88.9,91,82.6,91z"
	/>
<path class="st0" d="M34.1,50.3H23.6c-0.9,0-1.7,0.8-1.7,1.7v10.5c0,0.9,0.8,1.7,1.7,1.7h10.5c0.9,0,1.7-0.8,1.7-1.7V51.9
	C35.8,51,35.1,50.3,34.1,50.3z M32.5,60.8h-7.2v-7.2h7.2V60.8z"/>
<path class="st0" d="M55.6,50.3H45.1c-0.9,0-1.7,0.8-1.7,1.7v10.5c0,0.9,0.8,1.7,1.7,1.7h10.5c0.9,0,1.7-0.8,1.7-1.7V51.9
	C57.3,51,56.5,50.3,55.6,50.3z M53.9,60.8h-7.2v-7.2h7.2V60.8z"/>
<path class="st0" d="M77.1,50.3H66.6c-0.9,0-1.7,0.8-1.7,1.7v10.5c0,0.9,0.8,1.7,1.7,1.7h10.5c0.9,0,1.7-0.8,1.7-1.7V51.9
	C78.8,51,78,50.3,77.1,50.3z M75.4,60.8h-7.2v-7.2h7.2V60.8z"/>
<path class="st0" d="M34.1,70.1H23.6c-0.9,0-1.7,0.8-1.7,1.7v10.5c0,0.9,0.8,1.7,1.7,1.7h10.5c0.9,0,1.7-0.8,1.7-1.7V71.8
	C35.8,70.8,35.1,70.1,34.1,70.1z M32.5,80.6h-7.2v-7.2h7.2V80.6z"/>
<path class="st0" d="M55.6,70.1H45.1c-0.9,0-1.7,0.8-1.7,1.7v10.5c0,0.9,0.8,1.7,1.7,1.7h10.5c0.9,0,1.7-0.8,1.7-1.7V71.8
	C57.3,70.8,56.5,70.1,55.6,70.1z M53.9,80.6h-7.2v-7.2h7.2V80.6z"/>
<path class="st0" d="M74.7,71.7l-5.8,5.8L66,74.8c-0.7-0.7-1.7-0.7-2.4,0s-0.7,1.7,0,2.4l4,4c0.3,0.3,0.8,0.5,1.2,0.5
	s0.9-0.2,1.2-0.5l7-7c0.7-0.7,0.7-1.7,0-2.4C76.4,71.1,75.3,71.1,74.7,71.7z"/>
</svg>
