<?xml version="1.0" encoding="UTF-8"?>
<svg id="Layer_1" xmlns="http://www.w3.org/2000/svg" version="1.1" viewBox="0 0 420.86 300.58">
  <!-- Generator: Adobe Illustrator 29.1.0, SVG Export Plug-In . SVG Version: 2.1.0 Build 142)  -->
  <defs>
    <style>
      .st0 {
        fill: #231f20;
      }

      .st1 {
        fill: #fff;
      }
    </style>
  </defs>
  <g>
    <circle class="st1" cx="278.35" cy="150.29" r="137.15"/>
    <path class="st0" d="M278.35,292.78c-78.57,0-142.49-63.92-142.49-142.49S199.78,7.8,278.35,7.8c78.57,0,142.49,63.92,142.49,142.49,0,78.57-63.92,142.49-142.49,142.49ZM278.35,18.49c-72.68,0-131.8,59.13-131.8,131.8,0,72.68,59.13,131.8,131.8,131.8,72.68,0,131.8-59.13,131.8-131.8,0-72.68-59.13-131.8-131.8-131.8Z"/>
  </g>
  <g>
    <path class="st0" d="M318.78,155.48H16.34c-2.87,0-5.19-2.33-5.19-5.19s2.33-5.19,5.19-5.19h302.44c2.87,0,5.19,2.33,5.19,5.19s-2.33,5.19-5.19,5.19Z"/>
    <path class="st0" d="M264.19,216.98c-1.23,0-2.46-.43-3.45-1.31-2.15-1.9-2.34-5.19-.44-7.33l54.59-61.5c1.91-2.15,5.19-2.34,7.33-.44,2.15,1.9,2.34,5.19.44,7.33l-54.59,61.5c-1.03,1.16-2.45,1.75-3.89,1.75Z"/>
    <path class="st0" d="M318.78,155.48c-1.43,0-2.86-.59-3.89-1.75l-54.59-61.5c-1.9-2.15-1.71-5.43.44-7.33,2.15-1.9,5.43-1.71,7.33.44l54.59,61.5c1.9,2.15,1.71,5.43-.44,7.33-.99.88-2.22,1.31-3.45,1.31Z"/>
  </g>
</svg>