<?xml version="1.0" encoding="UTF-8"?>
<svg id="Layer_1" xmlns="http://www.w3.org/2000/svg" version="1.1" viewBox="0 0 140 138.47">
  <!-- Generator: Adobe Illustrator 29.0.0, SVG Export Plug-In . SVG Version: 2.1.0 Build 186)  -->
  <defs>
    <style>
      .st0 {
        fill: #eeeded;
      }
    </style>
  </defs>
  <polygon class="st0" points="12.33 .02 6.71 .02 6.71 6.49 .1 6.49 .1 11.77 6.71 11.77 6.71 18.93 12.33 18.93 12.33 11.77 18.91 11.77 18.91 6.49 12.33 6.49 12.33 .02"/>
  <polygon class="st0" points="36.87 18.93 42.49 18.93 42.49 11.77 49.07 11.77 49.07 6.49 42.49 6.49 42.49 .02 36.87 .02 36.87 6.49 30.26 6.49 30.26 11.77 36.87 11.77 36.87 18.93"/>
  <polygon class="st0" points="72.65 .02 67.03 .02 67.03 6.49 60.42 6.49 60.42 11.77 67.03 11.77 67.03 18.93 72.65 18.93 72.65 11.77 79.23 11.77 79.23 6.49 72.65 6.49 72.65 .02"/>
  <polygon class="st0" points="97.19 18.93 102.81 18.93 102.81 11.77 109.39 11.77 109.39 6.49 102.81 6.49 102.81 .02 97.19 .02 97.19 6.49 90.58 6.49 90.58 11.77 97.19 11.77 97.19 18.93"/>
  <polygon class="st0" points="132.97 6.49 132.97 .02 127.35 .02 127.35 6.49 120.74 6.49 120.74 11.77 127.35 11.77 127.35 18.93 132.97 18.93 132.97 11.77 139.55 11.77 139.55 6.49 132.97 6.49"/>
  <polygon class="st0" points="12.33 29.85 6.71 29.85 6.71 36.32 .1 36.32 .1 41.6 6.71 41.6 6.71 48.76 12.33 48.76 12.33 41.6 18.91 41.6 18.91 36.32 12.33 36.32 12.33 29.85"/>
  <polygon class="st0" points="42.49 29.84 36.87 29.84 36.87 36.32 30.26 36.32 30.26 41.6 36.87 41.6 36.87 48.76 42.49 48.76 42.49 41.6 49.07 41.6 49.07 36.32 42.49 36.32 42.49 29.84"/>
  <polygon class="st0" points="72.65 29.84 67.03 29.84 67.03 36.32 60.42 36.32 60.42 41.6 67.03 41.6 67.03 48.76 72.65 48.76 72.65 41.6 79.23 41.6 79.23 36.32 72.65 36.32 72.65 29.84"/>
  <polygon class="st0" points="102.81 29.84 97.19 29.84 97.19 36.32 90.58 36.32 90.58 41.6 97.19 41.6 97.19 48.76 102.81 48.76 102.81 41.6 109.39 41.6 109.39 36.32 102.81 36.32 102.81 29.84"/>
  <polygon class="st0" points="132.97 29.85 127.35 29.85 127.35 36.32 120.74 36.32 120.74 41.6 127.35 41.6 127.35 48.76 132.97 48.76 132.97 41.6 139.55 41.6 139.55 36.32 132.97 36.32 132.97 29.85"/>
  <polygon class="st0" points="12.33 59.67 6.71 59.67 6.71 66.15 .1 66.15 .1 71.42 6.71 71.42 6.71 78.58 12.33 78.58 12.33 71.42 18.91 71.42 18.91 66.15 12.33 66.15 12.33 59.67"/>
  <polygon class="st0" points="42.49 59.67 36.87 59.67 36.87 66.15 30.26 66.15 30.26 71.42 36.87 71.42 36.87 78.58 42.49 78.58 42.49 71.42 49.07 71.42 49.07 66.15 42.49 66.15 42.49 59.67"/>
  <polygon class="st0" points="72.65 59.67 67.03 59.67 67.03 66.15 60.42 66.15 60.42 71.42 67.03 71.42 67.03 78.58 72.65 78.58 72.65 71.42 79.23 71.42 79.23 66.15 72.65 66.15 72.65 59.67"/>
  <polygon class="st0" points="102.81 59.67 97.19 59.67 97.19 66.15 90.58 66.15 90.58 71.42 97.19 71.42 97.19 78.58 102.81 78.58 102.81 71.42 109.39 71.42 109.39 66.15 102.81 66.15 102.81 59.67"/>
  <polygon class="st0" points="132.97 59.67 127.35 59.67 127.35 66.15 120.74 66.15 120.74 71.42 127.35 71.42 127.35 78.58 132.97 78.58 132.97 71.42 139.55 71.42 139.55 66.15 132.97 66.15 132.97 59.67"/>
  <polygon class="st0" points="12.33 89.49 6.71 89.49 6.71 95.97 .1 95.97 .1 101.25 6.71 101.25 6.71 108.41 12.33 108.41 12.33 101.25 18.91 101.25 18.91 95.97 12.33 95.97 12.33 89.49"/>
  <polygon class="st0" points="42.49 89.5 36.87 89.5 36.87 95.97 30.26 95.97 30.26 101.25 36.87 101.25 36.87 108.41 42.49 108.41 42.49 101.25 49.07 101.25 49.07 95.97 42.49 95.97 42.49 89.5"/>
  <polygon class="st0" points="72.65 89.5 67.03 89.5 67.03 95.97 60.42 95.97 60.42 101.25 67.03 101.25 67.03 108.41 72.65 108.41 72.65 101.25 79.23 101.25 79.23 95.97 72.65 95.97 72.65 89.5"/>
  <polygon class="st0" points="102.81 89.5 97.19 89.5 97.19 95.97 90.58 95.97 90.58 101.25 97.19 101.25 97.19 108.41 102.81 108.41 102.81 101.25 109.39 101.25 109.39 95.97 102.81 95.97 102.81 89.5"/>
  <polygon class="st0" points="132.97 89.49 127.35 89.49 127.35 95.97 120.74 95.97 120.74 101.25 127.35 101.25 127.35 108.41 132.97 108.41 132.97 101.25 139.55 101.25 139.55 95.97 132.97 95.97 132.97 89.49"/>
  <polygon class="st0" points="12.33 119.32 6.71 119.32 6.71 125.8 .1 125.8 .1 131.07 6.71 131.07 6.71 138.23 12.33 138.23 12.33 131.07 18.91 131.07 18.91 125.8 12.33 125.8 12.33 119.32"/>
  <polygon class="st0" points="42.49 119.32 36.87 119.32 36.87 125.8 30.26 125.8 30.26 131.07 36.87 131.07 36.87 138.23 42.49 138.23 42.49 131.07 49.07 131.07 49.07 125.8 42.49 125.8 42.49 119.32"/>
  <polygon class="st0" points="72.65 119.32 67.03 119.32 67.03 125.8 60.42 125.8 60.42 131.07 67.03 131.07 67.03 138.23 72.65 138.23 72.65 131.07 79.23 131.07 79.23 125.8 72.65 125.8 72.65 119.32"/>
  <polygon class="st0" points="102.81 119.32 97.19 119.32 97.19 125.8 90.58 125.8 90.58 131.07 97.19 131.07 97.19 138.23 102.81 138.23 102.81 131.07 109.39 131.07 109.39 125.8 102.81 125.8 102.81 119.32"/>
  <polygon class="st0" points="132.97 119.32 127.35 119.32 127.35 125.8 120.74 125.8 120.74 131.07 127.35 131.07 127.35 138.23 132.97 138.23 132.97 131.07 139.55 131.07 139.55 125.8 132.97 125.8 132.97 119.32"/>
</svg>