<?xml version="1.0" encoding="UTF-8"?>
<svg id="Layer_1" xmlns="http://www.w3.org/2000/svg" version="1.1" viewBox="0 0 43.1 134.3">
  <!-- Generator: Adobe Illustrator 29.1.0, SVG Export Plug-In . SVG Version: 2.1.0 Build 142)  -->
  <defs>
    <style>
      .st0 {
        fill: #eeeded;
      }
    </style>
  </defs>
  <circle class="st0" cx="37.8" cy="130.9" r="2.8"/>
  <circle class="st0" cx="21.3" cy="130.9" r="2.8"/>
  <circle class="st0" cx="4.8" cy="130.9" r="2.8"/>
  <circle class="st0" cx="37.8" cy="112.8" r="2.8"/>
  <circle class="st0" cx="21.3" cy="112.8" r="2.8"/>
  <circle class="st0" cx="4.8" cy="112.8" r="2.8"/>
  <circle class="st0" cx="37.8" cy="94.7" r="2.8"/>
  <circle class="st0" cx="21.3" cy="94.7" r="2.8"/>
  <circle class="st0" cx="4.8" cy="94.7" r="2.8"/>
  <circle class="st0" cx="37.8" cy="76.7" r="2.8"/>
  <circle class="st0" cx="21.3" cy="76.7" r="2.8"/>
  <circle class="st0" cx="4.8" cy="76.7" r="2.8"/>
  <circle class="st0" cx="37.8" cy="58.6" r="2.8"/>
  <circle class="st0" cx="21.3" cy="58.6" r="2.8"/>
  <circle class="st0" cx="4.8" cy="58.6" r="2.8"/>
  <circle class="st0" cx="37.8" cy="40.5" r="2.8"/>
  <circle class="st0" cx="21.3" cy="40.5" r="2.8"/>
  <circle class="st0" cx="4.8" cy="40.5" r="2.8"/>
  <circle class="st0" cx="37.8" cy="22.5" r="2.8"/>
  <circle class="st0" cx="21.3" cy="22.5" r="2.8"/>
  <circle class="st0" cx="4.8" cy="22.5" r="2.8"/>
  <circle class="st0" cx="37.8" cy="4.4" r="2.8"/>
  <circle class="st0" cx="21.3" cy="4.4" r="2.8"/>
  <circle class="st0" cx="4.8" cy="4.4" r="2.8"/>
</svg>