<?xml version="1.0" encoding="UTF-8"?>
<svg id="Layer_1" xmlns="http://www.w3.org/2000/svg" version="1.1" viewBox="0 0 500 571.76">
  <!-- Generator: Adobe Illustrator 29.1.0, SVG Export Plug-In . SVG Version: 2.1.0 Build 142)  -->
  <defs>
    <style>
      .st0 {
        fill: #3a19f7;
      }
    </style>
  </defs>
  <path class="st0" d="M460.08,6.08c17.56,0,31.84,14.27,31.84,31.82v289.55c0,32.16-6.3,63.36-18.73,92.73-12.01,28.37-29.2,53.85-51.1,75.73-21.9,21.88-47.39,39.06-75.78,51.06-29.39,12.42-60.61,18.72-92.8,18.72H36.92c-17.56,0-31.84-14.27-31.84-31.82V37.9c0-17.54,14.28-31.82,31.84-31.82h423.15M460.08,1H36.92C16.53,1,0,17.52,0,37.9v495.97c0,20.38,16.53,36.9,36.92,36.9h216.58c134.48,0,243.5-108.94,243.5-243.32V37.9c0-20.38-16.53-36.9-36.92-36.9h0Z"/>
</svg>