<?xml version="1.0" encoding="UTF-8"?>
<svg id="Layer_1" xmlns="http://www.w3.org/2000/svg" version="1.1" viewBox="0 0 276.08 244.25">
  <!-- Generator: Adobe Illustrator 29.1.0, SVG Export Plug-In . SVG Version: 2.1.0 Build 142)  -->
  <defs>
    <style>
      .st0 {
        fill: #fff;
      }
    </style>
  </defs>
  <path class="st0" d="M310.19,303.51c.37,2.37.68,4.86.93,7.46l-2.26-.13c-1.97-20.65-7.75-33.57-19.32-43.18-12.34-10.26-32.17-17.39-64.3-23.14-35.94-6.43-67.26-25.46-83.8-50.9-15.39-23.68-17.52-51.1-6.16-79.29,8.83-21.92,10.23-36.9,8.65-47.01-1.6-10.25-6.27-15.51-9.36-17.94-6.77-5.32-15.52-5.31-20.07-2.22-3.41,2.31-15.76,9.97-31.62,11.45-17.13,1.6-32.44-4.25-45.52-17.4C6.88,10.56-14.68-7.02-56.89,7.26l-1.03-2.05C-14.4-9.51,7.69,8.48,38.89,39.85c31.52,31.69,67.28,10.13,74.13,5.48,5.13-3.48,14.88-3.8,22.84,2.46,8.17,6.42,19.23,23.73,1.57,67.56-11.11,27.56-9.06,54.3,5.91,77.33,16.13,24.82,46.79,43.4,82.01,49.71,32.6,5.83,52.82,13.15,65.54,23.73,10.67,8.87,16.64,20.29,19.32,37.39h-.02Z"/>
</svg>