<?xml version="1.0" encoding="UTF-8"?>
<svg id="Layer_1" xmlns="http://www.w3.org/2000/svg" version="1.1" viewBox="0 0 1400 660">
  <!-- Generator: Adobe Illustrator 29.1.0, SVG Export Plug-In . SVG Version: 2.1.0 Build 142)  -->
  <defs>
    <style>
      .st0 {
        fill: #f2fafe;
      }
    </style>
  </defs>
  <path class="st0" d="M1432.17,142.82c-18.44,1.52-35.75-10.11-45.19-30.35-10.99-23.54-24.07-36.11-38.87-37.35-11.36-.96-23.11,4.86-34.92,17.3-10.98,11.56-32.74,30.46-55.13,27.05-21.02-3.2-37.45-25.22-48.83-65.44-13.86-49.01-32.61-79.84-59.01-97.05-25.1-16.35-58.6-21.87-108.59-17.88v1.53c97.7-7.77,139.59,21.03,165.89,113.97,11.53,40.75,28.36,63.08,50,66.38,23.3,3.55,45.69-15.82,56.96-27.69,10.56-11.11,20.96-16.73,30.97-16.73.75,0,1.49.03,2.24.09,14,1.18,27.01,13.82,37.63,36.57,9.69,20.77,27.61,32.7,46.76,31.12,17.76-1.46,33.71-14.33,42.75-34.46l-1.59-.47c-8.87,19.81-23.82,31.98-41.08,33.4Z"/>
  <path class="st0" d="M309.61,718.76h.02c-2.68-16.52-8.57-27.79-19.05-36.5-12.65-10.52-32.79-17.81-65.31-23.62-35.36-6.33-66.14-25-82.34-49.93-15.07-23.18-17.13-50.08-5.95-77.79,17.54-43.53,6.64-60.65-1.42-66.98-7.78-6.12-17.27-5.82-22.25-2.44-6.9,4.69-42.95,26.44-74.77-5.54-30.94-31.1-52.86-48.99-95.75-34.7l.58,1.15c42.22-14.12,63.83,3.52,94.35,34.21,12.96,13.03,28.15,18.84,45.12,17.25,15.72-1.47,28-9.07,31.39-11.37,4.69-3.19,13.71-3.22,20.66,2.24,2.85,2.24,7.88,7.59,9.55,18.26,1.92,12.3-1,28.2-8.68,47.27-11.3,28.03-9.18,55.29,6.12,78.83,16.47,25.33,47.67,44.28,83.47,50.68,32.23,5.77,52.13,12.94,64.53,23.25,11.6,9.64,17.43,22.54,19.46,43.09l1.25.07c-.24-2.38-.53-4.68-.87-6.85l-.09-.58Z"/>
</svg>