<?xml version="1.0" encoding="UTF-8"?>
<svg id="Layer_1" xmlns="http://www.w3.org/2000/svg" version="1.1" viewBox="0 0 169.5 72">
  <!-- Generator: Adobe Illustrator 29.0.0, SVG Export Plug-In . SVG Version: 2.1.0 Build 186)  -->
  <defs>
    <style>
      .st0 {
        fill: none;
      }

      .st1 {
        fill: #231f20;
      }

      .st2 {
        fill: #8a8b8e;
      }

      .st3 {
        fill: #fff;
      }

      .st4 {
        fill: #d71313;
      }
    </style>
  </defs>
  <g>
    <path class="st4" d="M79.1,55.2h.3c.3-.3.4-.5.9-1.7l3.2-8.7h1.9l2.9,8.7c.4,1.2.5,1.4.9,1.6h.3v.4h-4.4v-.3h.6c.5-.2.6-.5.2-1.7l-.4-1.4h-3.4l-.4,1.3c-.4,1.1-.4,1.6.2,1.8h.5v.4h-3v-.3ZM85,51.2l-1-3.2c-.2-.5-.3-1.1-.4-1.5h0c0,.5-.3,1.1-.4,1.6l-1.1,3.2s2.9,0,2.9,0Z"/>
    <path class="st4" d="M89.2,55.2h.5c.5-.3.6-.4.7-3.1v-5.1c0-1.3,0-1.5-.6-1.6h-.6v-.4h3.6l2.2,6.5c.2.7.3,1.1.4,1.5h0c0-.4.2-.9.4-1.5l2.3-6.5h3.7v.3h-.6c-.6.2-.7.4-.7,1.7v6.5c.2,1.3.2,1.4.8,1.6h.4v.4h-4.6v-.3h.4c.6-.3.7-.4.7-1.7v-4.9c0-.4,0-1,0-1.3h0c0,.2-.2.8-.4,1.4l-2.5,6.8h-1.1l-2.4-6.7c-.2-.5-.3-.9-.4-1.3h0c0,.1,0,.5,0,1.4v2.4c0,3.4,0,3.6.7,3.8h.5v.5h-3.4v-.3h0Z"/>
    <path class="st4" d="M102,55.2h.4c.6-.3.7-.4.7-1.7v-6.5c0-1.3-.1-1.4-.7-1.6h-.4v-.4h5.2c1.6,0,3.4.3,3.4,2.3s-1.4,2.2-2.2,2.4h0c1.5,0,2.8,1,2.8,2.7s-.9,3.2-3.7,3.2h-5.4v-.3h0ZM106.2,49.5c1,0,1.9-.5,1.9-2s-.6-2-1.9-2h-.6v3.9s.6,0,.6,0ZM106.4,54.8c.9,0,2-.6,2-2.3s-1.1-2.3-2.3-2.3h-.6v3c0,1.5.2,1.6.8,1.6h0Z"/>
    <path class="st4" d="M112.4,51.2v-4.2c0-1.3-.1-1.4-.7-1.6h-.4v-.4h4.7v.3h-.4c-.6.3-.7.4-.7,1.7v4.8c0,1.5.6,2.8,2.2,2.8s2.2-1.4,2.2-3.1v-2.3c0-3.5-.2-3.7-.7-3.8h-.5v-.5h3.4v.3h-.4c-.5.3-.7.4-.7,3.1v2.1c0,2.8-.8,5.2-4,5.2s-3.9-1.9-3.9-4.5h0Z"/>
    <path class="st4" d="M121.6,55.2h.4c.6-.3.7-.4.7-1.7v-6.5c0-1.3-.1-1.4-.7-1.6h-.4v-.4h4.9v.3h-.7c-.6.3-.7.4-.7,1.7v6.2c0,1.5.2,1.6.8,1.6h.6c1.5,0,1.9-.2,2.2-.9l.4-1.1h.4c0,.1-.5,2.7-.5,2.7h-7.4v-.3s0,0,0,0Z"/>
    <path class="st4" d="M129.3,55.2h.3c.3-.3.4-.5.9-1.7l3.2-8.7h1.9l2.9,8.7c.4,1.2.5,1.4.9,1.6h.3v.4h-4.4v-.3h.6c.5-.2.6-.5.2-1.7l-.4-1.4h-3.4l-.4,1.3c-.4,1.1-.4,1.6.2,1.8h.5v.4h-3v-.3ZM135.1,51.2l-1-3.2c-.2-.5-.3-1.1-.4-1.5h0c0,.5-.3,1.1-.4,1.6l-1.1,3.2s2.9,0,2.9,0Z"/>
    <path class="st4" d="M141.9,48.4c-.2-.3-.4-.8-.5-1h0c0,.2,0,.8,0,1.2v2.6c0,3.3.2,3.7.8,3.8l.8.2v.3h-3.7v-.3h.4c.5-.3.7-.4.7-3.1v-5c0-1.3-.1-1.4-.7-1.6l-.7-.2v-.3h3.5l4.3,6.2c.2.4.6.9.6,1.3h0v-3.3c0-3.3-.2-3.7-.8-3.8l-.8-.2v-.3h3.7v.3h-.4c-.5.3-.7.4-.7,3.1v7.2h-1.4l-5.1-7.2h0Z"/>
    <path class="st4" d="M149.7,50.2c0-3.7,2.4-5.6,5.6-5.6s1.8.2,2.6.5v2.5h-.4l-.2-.9c-.1-.7-.9-1.4-2.1-1.4-2.3,0-2.8,2.7-2.8,4.6s.8,4.9,3.2,4.9,1.8-.5,2.2-1.2l.3-.8h.4c0,0-.4,2.4-.4,2.4-.8.3-1.8.5-2.8.5-3.1,0-5.5-1.8-5.5-5.5h0Z"/>
    <path class="st4" d="M158.7,55.2h.4c.6-.3.7-.4.7-1.7v-6.5c0-1.3-.1-1.4-.7-1.6h-.4v-.4h7.2v2.2h-.4l-.2-.7c-.1-.6-.5-.7-2.1-.7h-1v3.8h1.1c1.3,0,1.5,0,1.7-.6l.2-.6h.3v3.2h-.3l-.2-.7c-.1-.5-.3-.6-1.7-.6h-1.1v2.8c0,1.5.1,1.6.8,1.6h.6c1.5,0,1.9-.2,2.2-.9l.3-.8h.4c0,.1-.4,2.4-.4,2.4h-7.4v-.3h0Z"/>
  </g>
  <g>
    <path class="st3" d="M80.3,39.9l.7-.4c.9-.5,1.2-1.2,2.3-4.7l8.5-26h5l7.9,26c1.1,3.5,1.4,4.2,2.3,4.7l.7.4v.9h-11.9v-.9l1.5-.4c1.4-.3,1.6-1,.6-4.7l-1.2-4.3h-9.2l-1.1,3.8c-1,3.3-1,4.8.5,5.2l1.4.4v.9h-8v-.9h0ZM96,28.1l-2.6-9.5c-.4-1.6-.9-3.2-1-4.6h-.2c-.2,1.4-.7,3.3-1.2,4.6l-2.8,9.4h7.8Z"/>
    <path class="st3" d="M113.4,30.3h.6c2.3,0,3.8-1.6,3.8-4.7s-1.7-4.5-4-4.5h-.7v15.7c0,2.5.2,2.8,1.2,3.2l.8.2v.6h-8.4v-.6l.8-.2c1.1-.3,1.3-.6,1.3-3.2v-13c0-2.5-.2-2.8-1.3-3.1l-.8-.2v-.6h9.1c3.6,0,6.5,1.4,6.5,5.2s-2.2,4.8-4.2,5.2c.8,1.6,2.6,4.7,3.7,6.6,1.5,2.4,1.8,2.8,2.5,3.2l.6.2v.6h-6c-1.4-2.7-4.2-7.8-5.6-10.5,0,0,0,0,0,0Z"/>
    <path class="st3" d="M124.6,40.2l.8-.2c1.1-.3,1.2-.6,1.2-3.2v-13c0-2.5-.2-2.8-1.2-3.1l-.8-.2v-.6h13v4.4h-.6l-.3-1.4c-.3-1.1-.8-1.5-3.8-1.5h-1.9v7.6h2c2.4,0,2.8,0,3-1.2l.3-1.1h.5v6.4h-.5l-.3-1.3c-.3-1.1-.6-1.2-3-1.2h-2v5.6c0,2.9.3,3.2,1.4,3.2h1.1c2.7,0,3.5-.5,4-1.8l.6-1.5.6.2-.8,4.6h-13.3v-.6h0Z"/>
    <path class="st3" d="M138.7,39.9l.7-.4c.9-.5,1.2-1.2,2.3-4.7l8.5-26h5l7.9,26c1.1,3.5,1.4,4.2,2.3,4.7l.7.4v.9h-11.9v-.9l1.5-.4c1.4-.3,1.6-1,.6-4.7l-1.2-4.3h-9.2l-1.1,3.8c-1,3.3-1,4.8.5,5.2l1.4.4v.9h-8v-.9h0ZM154.4,28.1l-2.6-9.5c-.4-1.6-.9-3.2-1-4.6h-.2c-.2,1.4-.7,3.3-1.2,4.6l-2.9,9.4h7.8Z"/>
  </g>
  <path class="st3" d="M38.6,71.4c-19.3,0-35.1-15.7-35.1-35.1,0-19.3,15.7-35.1,35.1-35.1s35.1,15.7,35.1,35.1c0,19.3-15.7,35.1-35.1,35.1ZM38.6,5.8c-16.8,0-30.5,13.7-30.5,30.5,0,16.8,13.7,30.5,30.5,30.5s30.5-13.7,30.5-30.5c0-16.8-13.7-30.5-30.5-30.5Z"/>
  <rect class="st0" x="37.8" y="10" width="2.1" height="8.4"/>
  <g>
    <path class="st3" d="M38.6,7.7c-15.8,0-28.6,12.8-28.6,28.6s12.8,28.6,28.6,28.6,28.6-12.8,28.6-28.6S54.4,7.7,38.6,7.7ZM39.9,18.3h-2.3v-7.8h2.3v7.8ZM57.7,37.9v-2.3h7.8v2.3h-7.8Z"/>
    <rect class="st1" x="57.1" y="24.2" width="4.7" height="1.4" transform="translate(-4.4 33.8) rotate(-30.7)"/>
    <rect class="st1" x="48.5" y="15.5" width="4.7" height="1.4" transform="translate(11.5 52.2) rotate(-60.2)"/>
  </g>
  <g>
    <rect class="st1" x="49.9" y="55.1" width="1.4" height="4.7" transform="translate(-22.3 33.9) rotate(-30.8)"/>
    <rect class="st1" x="58.5" y="46.5" width="1.4" height="4.7" transform="translate(-12.6 76.1) rotate(-60.3)"/>
  </g>
  <g>
    <rect class="st2" x="38.4" y="35.3" width="3" height="5.8" transform="translate(-15.2 41.6) rotate(-47.3)"/>
    <rect class="st2" x="48.3" y="35.4" width=".9" height="21.8" transform="translate(-18.3 50.7) rotate(-47.3)"/>
  </g>
  <path class="st4" d="M50.9,51.2l-2.7-2.7c-3,3-5.8,5.6-9.4,8.2-5.6-4.6-10.9-9-14.9-15-3.2-4.6-6.1-12.5-.7-16.3,5-3.3,12-1.7,15.7,2.9v-5.1c-1.1-1.1-2.5-2.1-4-2.8-6.1-2.9-14.6-1.2-18,5-4,7.9,1.1,16.1,6.1,21.9,4.6,5.2,10.2,9.5,15.9,13.3h0c4.3-2.8,8.4-5.9,12.1-9.5h0s0,0,0,0Z"/>
  <g>
    <path class="st3" d="M1.4,63c-.4,0-.8.3-.8.8v.8c0,.4.3.8.8.8h18.8v-2.3H1.4Z"/>
    <path class="st3" d="M167.1,63H58.7v2.3h108.5c.4,0,.8-.3.8-.8v-.8c0-.4-.3-.8-.8-.8Z"/>
  </g>
  <path class="st4" d="M100.7,59h44.8c2.9,0,5.2,2.3,5.2,5.2h0c0,2.9-2.3,5.2-5.2,5.2h-44.8c-2.9,0-5.2-2.3-5.2-5.2h0c0-2.9,2.3-5.2,5.2-5.2Z"/>
  <g>
    <path class="st3" d="M103.3,65.7c0,.1.2.2.4.3.2,0,.3.1.5.2.2,0,.4,0,.6,0s.3,0,.5,0c.2,0,.3,0,.5,0,.2,0,.3-.1.4-.2s.2-.2.2-.3,0-.3-.2-.3c-.1,0-.3-.2-.5-.2-.2,0-.4-.1-.7-.2-.3,0-.5,0-.8-.2-.3,0-.6-.1-.8-.2s-.5-.2-.7-.3-.4-.3-.5-.4c-.1-.2-.2-.4-.2-.6s0-.5.2-.7.4-.4.6-.5.6-.2.9-.3c.3,0,.7,0,1,0s.8,0,1.1,0,.7.2.9.3.5.3.7.5c.2.2.2.5.2.8h-1.6c0-.2,0-.3-.1-.4s-.2-.2-.3-.2-.3,0-.4-.1c-.2,0-.4,0-.6,0s-.3,0-.4,0c-.1,0-.2,0-.4,0s-.2.1-.3.2c0,0,0,.2,0,.3s0,.2,0,.2c0,0,.2.1.3.2s.4.1.7.2.7.1,1.1.2c.1,0,.3,0,.6.1s.5.1.7.3c.2.1.4.3.6.5s.3.4.3.7,0,.5-.2.7-.3.4-.6.5-.6.3-1,.3-.8.1-1.3.1-.8,0-1.2-.1c-.4,0-.7-.2-1-.3-.3-.2-.5-.3-.7-.6s-.3-.5-.2-.8h1.6c0,.2,0,.3.1.4h0s0,0,0,0Z"/>
    <path class="st3" d="M114.1,61.7v1h-3.9v1.1h3.6v.9h-3.6v1.3h4v1h-5.6v-5.3h5.6,0Z"/>
    <path class="st3" d="M119.1,61.7c.3,0,.6,0,.9.1.3,0,.5.2.7.3.2.1.3.3.4.5,0,.2.2.4.2.6,0,.3,0,.6-.3.8-.2.2-.5.4-.9.5h0c.2,0,.4.1.5.2s.2.2.3.3.1.2.2.4c0,.1,0,.3,0,.4,0,0,0,.2,0,.3s0,.2,0,.3c0,.1,0,.2,0,.3,0,.1,0,.2.2.3h-1.6c0-.2-.2-.4-.2-.6,0-.2,0-.5,0-.7,0-.3-.2-.5-.3-.6s-.5-.2-.9-.2h-1.6v2.1h-1.6v-5.3h4,0ZM118.5,64.1c.4,0,.7,0,.8-.2.2-.1.3-.3.3-.6s0-.5-.3-.6c-.2-.1-.5-.2-.8-.2h-1.8v1.5h1.8Z"/>
    <path class="st3" d="M123.8,67l-2.4-5.3h1.7l1.7,3.7h0l1.7-3.7h1.7l-2.5,5.3h-1.9Z"/>
    <path class="st3" d="M130.2,61.7v5.3h-1.6v-5.3s1.6,0,1.6,0Z"/>
    <path class="st3" d="M136.2,63.1c-.1-.1-.2-.2-.4-.3-.1,0-.3-.2-.5-.2-.2,0-.4,0-.6,0-.4,0-.7,0-.9.2s-.5.2-.6.4c-.2.2-.3.4-.4.6,0,.2-.1.4-.1.7s0,.4.1.7.2.4.4.6.4.3.6.4c.3,0,.6.2.9.2s.9-.1,1.2-.3.4-.5.5-.9h1.6c0,.3-.1.6-.3.9-.2.3-.4.5-.7.7s-.6.3-1,.4-.8.2-1.3.2-1.1,0-1.5-.2-.8-.3-1.1-.6c-.3-.2-.6-.5-.7-.9-.2-.3-.2-.7-.2-1.1s0-.8.2-1.1.4-.6.7-.9.7-.5,1.1-.6c.4-.1,1-.2,1.5-.2s.8,0,1.2.1c.4,0,.7.2,1,.4s.5.4.7.6c.2.2.3.5.4.8h-1.6c0-.1,0-.3-.2-.4h0Z"/>
    <path class="st3" d="M144.5,61.7v1h-3.9v1.1h3.6v.9h-3.6v1.3h4v1h-5.6v-5.3h5.6,0Z"/>
  </g>
</svg>