<?xml version="1.0" encoding="UTF-8"?>
<svg id="Layer_1" xmlns="http://www.w3.org/2000/svg" version="1.1" viewBox="0 0 169.48 72">
  <!-- Generator: Adobe Illustrator 29.0.0, SVG Export Plug-In . SVG Version: 2.1.0 Build 186)  -->
  <defs>
    <style>
      .st0 {
        fill: none;
      }

      .st1 {
        fill: #231f20;
      }

      .st2 {
        fill: #8a8b8e;
      }

      .st3 {
        fill: #0d1282;
      }

      .st4 {
        fill: #0d1282;
      }

      .st5 {
        fill: #fff;
      }

      .st6 {
        fill: #d71313;
      }

      .st7 {
        fill: #d71313;
      }
    </style>
  </defs>
  <rect class="st4" x=".65" y="63" width="167.23" height="2.29" rx=".75" ry=".75"/>
  <rect class="st6" x="95.47" y="59.05" width="55.16" height="10.4" rx="5.2" ry="5.2"/>
  <g>
    <path class="st7" d="M79.13,55.16l.26-.12c.32-.16.44-.41.86-1.58l3.16-8.73h1.86l2.93,8.73c.39,1.19.54,1.42.86,1.58l.26.12v.31h-4.43v-.31l.57-.12c.51-.11.58-.33.2-1.58l-.44-1.44h-3.41l-.42,1.27c-.38,1.12-.38,1.61.19,1.75l.52.12v.31h-2.97v-.31ZM84.98,51.2l-.97-3.19c-.16-.55-.32-1.08-.36-1.53h-.06c-.06.45-.28,1.09-.44,1.56l-1.06,3.16h2.89Z"/>
    <path class="st7" d="M89.16,55.16l.46-.12c.54-.14.64-.25.68-3.02l.09-5.08c.01-1.27-.12-1.45-.7-1.58l-.57-.12v-.31h3.61l2.16,6.47c.23.67.32,1.09.38,1.53h.06c.07-.41.22-.92.42-1.5l2.35-6.5h3.69v.31l-.57.12c-.58.12-.73.31-.7,1.58l.12,6.52c.03,1.27.12,1.41.7,1.58l.42.12v.31h-4.61v-.31l.42-.12c.58-.17.71-.31.7-1.58l-.04-4.91c0-.38,0-.97.01-1.31h-.07c-.06.2-.22.8-.45,1.42l-2.47,6.81h-1.09l-2.41-6.73c-.17-.5-.32-.94-.39-1.3h-.07c.01.14.03.52.01,1.41l-.03,2.39c-.04,3.41.07,3.61.73,3.78l.52.14v.31h-3.37v-.31Z"/>
    <path class="st7" d="M102.01,55.16l.42-.12c.58-.17.7-.31.7-1.58v-6.52c0-1.27-.12-1.41-.7-1.58l-.42-.12v-.31h5.21c1.6,0,3.37.34,3.37,2.27,0,1.48-1.44,2.23-2.25,2.41v.06c1.47,0,2.76.92,2.76,2.62,0,1.39-.93,3.19-3.67,3.19h-5.41v-.31ZM106.19,49.48c.97,0,1.94-.5,1.94-1.97,0-1.38-.62-1.95-1.94-1.95h-.64v3.92h.64ZM106.4,54.8c.94,0,2.02-.56,2.02-2.31,0-1.89-1.06-2.31-2.26-2.31h-.61v3.02c0,1.47.16,1.61.78,1.61h.07Z"/>
    <path class="st7" d="M112.43,51.17v-4.23c0-1.27-.12-1.41-.7-1.58l-.42-.12v-.31h4.66v.31l-.42.12c-.58.17-.7.31-.7,1.58v4.83c0,1.52.62,2.8,2.19,2.8s2.23-1.42,2.23-3.11v-2.28c0-3.5-.2-3.66-.71-3.8l-.51-.14v-.31h3.42v.31l-.42.12c-.54.16-.7.25-.7,3.02v2.11c0,2.8-.8,5.23-4,5.23-2.66,0-3.93-1.86-3.93-4.55Z"/>
    <path class="st7" d="M121.59,55.16l.42-.12c.58-.17.7-.31.7-1.58v-6.52c0-1.27-.12-1.41-.7-1.58l-.42-.12v-.31h4.95v.31l-.71.14c-.59.12-.7.3-.7,1.56v6.16c0,1.47.15,1.61.8,1.61h.55c1.5,0,1.93-.23,2.18-.89l.41-1.08.41.11-.49,2.62h-7.39v-.31Z"/>
    <path class="st7" d="M129.27,55.16l.26-.12c.32-.16.44-.41.86-1.58l3.16-8.73h1.86l2.93,8.73c.39,1.19.54,1.42.86,1.58l.26.12v.31h-4.43v-.31l.57-.12c.51-.11.58-.33.2-1.58l-.44-1.44h-3.41l-.42,1.27c-.38,1.12-.38,1.61.19,1.75l.52.12v.31h-2.97v-.31ZM135.12,51.2l-.97-3.19c-.16-.55-.32-1.08-.36-1.53h-.06c-.06.45-.28,1.09-.44,1.56l-1.06,3.16h2.89Z"/>
    <path class="st7" d="M141.94,48.42c-.23-.34-.45-.75-.52-1h-.07c0,.22.03.77.03,1.17v2.62c0,3.28.16,3.66.8,3.78l.75.16v.31h-3.66v-.31l.42-.12c.54-.16.7-.25.7-3.02v-5.05c0-1.27-.12-1.44-.7-1.56l-.71-.16v-.33h3.47l4.29,6.25c.25.36.58.94.65,1.27h.06c0-.28-.01-.97-.01-1.34v-1.92c0-3.28-.16-3.66-.8-3.78l-.75-.16v-.31h3.66v.31l-.42.12c-.54.16-.7.25-.7,3.02v7.22h-1.41l-5.08-7.17Z"/>
    <path class="st7" d="M149.72,50.19c0-3.69,2.39-5.56,5.56-5.56.88,0,1.77.17,2.58.47v2.5h-.41l-.17-.86c-.15-.73-.86-1.39-2.12-1.39-2.28,0-2.82,2.66-2.82,4.62,0,2.34.84,4.92,3.19,4.92,1.1,0,1.84-.48,2.16-1.25l.33-.8.38.09-.44,2.28c-.77.31-1.77.47-2.77.47-3.15,0-5.49-1.81-5.49-5.5Z"/>
    <path class="st7" d="M158.74,55.16l.42-.12c.58-.17.7-.31.7-1.58v-6.52c0-1.27-.12-1.41-.7-1.58l-.42-.12v-.31h7.21v2.19h-.36l-.17-.69c-.15-.58-.46-.73-2.09-.73h-1.04v3.83h1.09c1.33,0,1.54-.05,1.68-.59l.16-.58h.29v3.2h-.29l-.17-.66c-.14-.55-.33-.59-1.67-.59h-1.09v2.8c0,1.47.15,1.61.8,1.61h.6c1.49,0,1.93-.23,2.21-.89l.32-.77.36.11-.44,2.31h-7.39v-.31Z"/>
  </g>
  <g>
    <path class="st5" d="M103.27,65.69c.09.12.21.23.36.3.15.08.32.13.53.17.2.04.41.06.62.06.15,0,.3,0,.47-.03.17-.02.32-.05.47-.1.15-.05.27-.12.36-.2s.15-.2.15-.33c0-.14-.06-.26-.19-.35-.13-.09-.3-.16-.5-.22-.21-.06-.44-.11-.71-.16-.26-.04-.53-.09-.8-.15-.28-.05-.55-.11-.81-.18s-.5-.17-.71-.28c-.21-.11-.38-.26-.5-.43-.13-.17-.19-.38-.19-.62,0-.27.08-.51.24-.71s.38-.37.64-.5c.26-.13.56-.23.9-.3.33-.06.67-.1,1-.1.39,0,.76.03,1.12.09.36.06.67.16.95.3.28.14.5.32.66.53.16.22.24.48.24.79h-1.58c-.01-.16-.06-.29-.14-.39-.08-.1-.19-.19-.32-.25s-.28-.1-.45-.13c-.17-.02-.36-.04-.56-.04-.13,0-.26,0-.4.03-.13.02-.25.05-.36.1-.11.05-.2.11-.27.19-.07.07-.1.17-.1.28,0,.1.03.19.08.25.06.07.16.12.33.18s.39.11.68.16.66.12,1.13.21c.14.02.33.06.58.11.25.05.49.13.73.25.24.11.45.27.63.46.18.19.27.44.27.73,0,.24-.07.47-.2.68s-.33.39-.59.54-.58.27-.97.35c-.39.08-.83.13-1.34.13-.41,0-.81-.04-1.19-.11-.39-.07-.73-.18-1.02-.34-.29-.15-.53-.35-.7-.59s-.26-.52-.25-.85h1.58c0,.18.04.33.14.45Z"/>
    <path class="st5" d="M114.13,61.69v.98h-3.92v1.14h3.6v.91h-3.6v1.3h4.01v.98h-5.64v-5.32h5.56Z"/>
    <path class="st5" d="M119.11,61.69c.33,0,.63.04.9.12.27.08.5.18.69.32.19.13.34.29.44.46.1.18.15.37.15.57,0,.31-.09.58-.28.81-.18.23-.48.4-.9.52h0c.2.05.37.12.5.2s.24.18.32.29c.08.11.14.23.18.37.04.13.06.27.08.4,0,.08.01.18.02.3s.02.23.04.35c.02.12.04.23.08.34.04.11.09.2.17.27h-1.63c-.09-.17-.15-.37-.17-.6-.02-.23-.05-.46-.09-.67-.06-.28-.17-.48-.35-.61s-.48-.19-.88-.19h-1.63v2.08h-1.63v-5.32h4.01ZM118.53,64.09c.38,0,.66-.06.84-.18.19-.12.28-.31.28-.58s-.09-.45-.28-.56c-.19-.12-.47-.17-.84-.17h-1.79v1.5h1.79Z"/>
    <path class="st5" d="M123.84,67l-2.4-5.32h1.68l1.66,3.74h.02l1.68-3.74h1.69l-2.47,5.32h-1.84Z"/>
    <path class="st5" d="M130.21,61.69v5.32h-1.63v-5.32h1.63Z"/>
    <path class="st5" d="M136.2,63.1c-.1-.11-.22-.21-.36-.29-.15-.08-.31-.15-.49-.2-.18-.05-.38-.07-.58-.07-.37,0-.68.05-.94.15s-.46.24-.62.41c-.16.17-.28.37-.35.58-.07.22-.11.44-.11.68s.04.44.11.65c.07.21.19.4.35.57.16.17.37.3.62.41.26.1.57.15.94.15.5,0,.89-.11,1.17-.33s.45-.51.52-.86h1.58c-.04.33-.15.63-.32.9-.17.27-.4.5-.69.69s-.62.33-1,.43c-.38.1-.8.15-1.26.15-.57,0-1.08-.07-1.54-.21s-.84-.34-1.15-.58c-.31-.25-.55-.54-.72-.88-.17-.33-.25-.7-.25-1.08s.08-.77.25-1.11c.17-.34.41-.64.72-.89.31-.25.7-.45,1.15-.6.45-.14.97-.22,1.54-.22.41,0,.8.04,1.16.13.36.08.69.21.98.37.29.16.53.36.71.6.19.24.3.51.35.82h-1.58c-.03-.13-.09-.26-.19-.37Z"/>
    <path class="st5" d="M144.5,61.69v.98h-3.92v1.14h3.6v.91h-3.6v1.3h4.01v.98h-5.64v-5.32h5.56Z"/>
  </g>
  <g>
    <path class="st4" d="M80.29,39.91l.7-.37c.86-.47,1.17-1.21,2.3-4.7l8.51-26h4.99l7.88,26c1.05,3.53,1.44,4.23,2.3,4.7l.7.37v.93h-11.9v-.93l1.52-.37c1.37-.33,1.56-.98.55-4.7l-1.17-4.28h-9.17l-1.13,3.77c-1.01,3.35-1.01,4.79.51,5.21l1.4.37v.93h-8v-.93ZM96.02,28.14l-2.61-9.49c-.43-1.63-.86-3.21-.98-4.56h-.16c-.16,1.35-.74,3.26-1.17,4.65l-2.85,9.4h7.76Z"/>
    <path class="st4" d="M113.43,30.34h.55c2.3,0,3.84-1.59,3.84-4.71,0-3.43-1.7-4.52-3.97-4.52h-.71v15.71c0,2.53.21,2.81,1.25,3.15l.76.25v.62h-8.4v-.62l.76-.25c1.05-.34,1.26-.62,1.26-3.15v-13c0-2.52-.21-2.81-1.26-3.15l-.76-.25v-.62h9.13c3.56,0,6.51,1.43,6.51,5.24,0,3.37-2.22,4.8-4.16,5.21.84,1.56,2.64,4.74,3.74,6.58,1.46,2.43,1.75,2.84,2.46,3.15l.55.25v.62h-5.96c-1.41-2.65-4.21-7.82-5.6-10.51Z"/>
    <path class="st4" d="M124.57,40.22l.76-.25c1.05-.34,1.25-.62,1.25-3.15v-13c0-2.52-.21-2.81-1.25-3.15l-.76-.25v-.62h13v4.36h-.65l-.31-1.37c-.26-1.15-.84-1.46-3.77-1.46h-1.88v7.64h1.96c2.41,0,2.77-.09,3.03-1.19l.29-1.15h.52v6.39h-.52l-.31-1.31c-.26-1.09-.6-1.18-3.01-1.18h-1.96v5.58c0,2.93.26,3.21,1.44,3.21h1.07c2.69,0,3.48-.47,3.97-1.78l.58-1.53.65.22-.78,4.61h-13.31v-.62Z"/>
    <path class="st4" d="M138.73,39.91l.7-.37c.86-.47,1.17-1.21,2.3-4.7l8.51-26h4.99l7.88,26c1.05,3.53,1.44,4.23,2.3,4.7l.7.37v.93h-11.9v-.93l1.52-.37c1.37-.33,1.56-.98.55-4.7l-1.17-4.28h-9.17l-1.13,3.77c-1.01,3.35-1.01,4.79.51,5.21l1.4.37v.93h-8v-.93ZM154.45,28.14l-2.61-9.49c-.43-1.63-.86-3.21-.98-4.56h-.16c-.16,1.35-.74,3.26-1.17,4.65l-2.85,9.4h7.76Z"/>
  </g>
  <g>
    <circle class="st5" cx="38.56" cy="36.36" r="33.03"/>
    <path class="st3" d="M38.56,71.68c-19.48,0-35.32-15.84-35.32-35.32S19.08,1.04,38.56,1.04s35.32,15.84,35.32,35.32-15.84,35.32-35.32,35.32ZM38.56,5.62c-16.95,0-30.75,13.79-30.75,30.75s13.79,30.75,30.75,30.75,30.75-13.79,30.75-30.75S55.51,5.62,38.56,5.62Z"/>
  </g>
  <rect class="st0" x="37.71" y="8.59" width="2.18" height="8.84"/>
  <g>
    <rect class="st4" x="61.63" y="32.61" width="2.42" height="8.22" transform="translate(99.57 -26.12) rotate(90)"/>
    <g>
      <rect class="st4" x="37.59" y="9.09" width="2.42" height="8.22"/>
      <rect class="st1" x="59.8" y="21.77" width="1.45" height="4.94" transform="translate(50.52 -40.19) rotate(59.35)"/>
      <rect class="st1" x="50.75" y="12.66" width="1.45" height="4.94" transform="translate(14.32 -23.58) rotate(29.8)"/>
    </g>
  </g>
  <g>
    <rect class="st1" x="50.49" y="56.13" width="1.45" height="4.94" transform="translate(125.19 82.76) rotate(149.24)"/>
    <rect class="st1" x="59.58" y="47.07" width="1.45" height="4.94" transform="translate(133.21 21.68) rotate(119.69)"/>
  </g>
  <g>
    <rect class="st2" x="38.43" y="35.26" width="3.15" height="6.1" transform="translate(-15.28 41.72) rotate(-47.29)"/>
    <rect class="st2" x="48.83" y="35.38" width=".96" height="22.93" transform="translate(-18.56 51.29) rotate(-47.28)"/>
  </g>
  <path class="st7" d="M51.55,51.96l-2.89-2.83c-3.15,3.11-6.07,5.89-9.88,8.69-5.89-4.86-11.5-9.45-15.74-15.78-3.39-4.83-6.42-13.17-.77-17.16,5.23-3.48,12.63-1.83,16.51,3.04v-5.39c-1.21-1.21-2.63-2.23-4.21-2.94-6.47-3.07-15.36-1.29-18.97,5.27-4.24,8.33,1.16,16.94,6.45,23.04,4.89,5.44,10.7,10.02,16.73,14h0c4.48-2.95,8.83-6.23,12.78-9.96Z"/>
</svg>