<?xml version="1.0" encoding="UTF-8"?>
<svg width="1266px" height="471px" viewBox="0 0 1266 471" version="1.1" xmlns="http://www.w3.org/2000/svg" xmlns:xlink="http://www.w3.org/1999/xlink">
    <title>tablet design / plus sign graphic 5050</title>
    <g id="tablet-design-/-plus-sign-graphic-5050" stroke="none" stroke-width="1" fill="none" fill-rule="evenodd">
        <g id="Group-3" fill="#F5F7FA">
            <polygon id="Fill-1" points="0 81 0 82.7646378 0 115 121 115 121 81"></polygon>
            <polygon id="Fill-2" points="153 0 153 206 187.465284 206 187.465284 114.92574 313 114.92574 313 113.130414 312.875792 80.2376515 187.465284 80.2376515 187.465284 0"></polygon>
        </g>
        <g id="Group-3" transform="translate(-1.456869, 356.000000)" fill="#F5F7FA">
            <polygon id="Fill-2" points="0 0 0 115 19.2697274 115 19.2697274 64.1575733 89.456869 64.1575733 89.456869 63.1553281 89.3874235 44.7928637 19.2697274 44.7928637 19.2697274 0"></polygon>
        </g>
        <g id="Group-3" transform="translate(476.000000, 107.000000)" fill="#F5F7FA">
            <polygon id="Fill-1" points="0 81 0 82.7646378 0 115 121 115 121 81"></polygon>
            <polygon id="Fill-2" points="153 0 153 206 187.465284 206 187.465284 114.92574 313 114.92574 313 113.130414 312.875792 80.2376515 187.465284 80.2376515 187.465284 0"></polygon>
        </g>
        <g id="Group-3" transform="translate(505.000000, 23.000000)" fill="#F5F7FA">
            <polygon id="Fill-1" points="0 45.2184466 0 46.20356 0 64.1990291 67.6517572 64.1990291 67.6517572 45.2184466"></polygon>
            <polygon id="Fill-2" points="85.543131 0 85.543131 115 104.812858 115 104.812858 64.1575733 175 64.1575733 175 63.1553281 174.930555 44.7928637 104.812858 44.7928637 104.812858 0"></polygon>
        </g>
        <g id="Group-3" transform="translate(747.000000, 129.000000)" fill="#F5F7FA">
            <polygon id="Fill-1" points="0 27.5242718 0 28.1239061 0 39.0776699 41.3642173 39.0776699 41.3642173 27.5242718"></polygon>
            <polygon id="Fill-2" points="52.3035144 0 52.3035144 70 64.0855763 70 64.0855763 39.0524359 107 39.0524359 107 38.4423736 106.957539 27.2652214 64.0855763 27.2652214 64.0855763 0"></polygon>
        </g>
        <g id="Group-3" transform="translate(60.500000, 334.500000) scale(1, -1) translate(-60.500000, -334.500000) translate(27.000000, 313.000000)" fill="#F5F7FA">
            <polygon id="Fill-1" points="0 16.907767 0 17.2761137 0 24.0048544 25.9009585 24.0048544 25.9009585 16.907767"></polygon>
            <polygon id="Fill-2" points="32.7507987 0 32.7507987 43 40.1283515 43 40.1283515 23.9893535 67 23.9893535 67 23.6146009 66.9734123 16.748636 40.1283515 16.748636 40.1283515 0"></polygon>
        </g>
        <g id="Group-3" transform="translate(1232.000000, 61.000000)" fill="#F5F7FA">
            <polygon id="Fill-1" points="0 8.65048544 0 8.83894191 0 12.2815534 13.14377 12.2815534 13.14377 8.65048544"></polygon>
            <polygon id="Fill-2" points="16.6198083 0 16.6198083 22 20.3636411 22 20.3636411 12.2736227 34 12.2736227 34 12.0818889 33.9865077 8.56906958 20.3636411 8.56906958 20.3636411 0"></polygon>
        </g>
        <g id="Group-3" transform="translate(1110.000000, 29.000000)" fill="#F5F7FA">
            <polygon id="Fill-1" points="0 16.907767 0 17.2761137 0 24.0048544 25.514377 24.0048544 25.514377 16.907767"></polygon>
            <polygon id="Fill-2" points="32.2619808 0 32.2619808 43 39.5294209 43 39.5294209 23.9893535 66 23.9893535 66 23.6146009 65.9738091 16.748636 39.5294209 16.748636 39.5294209 0"></polygon>
        </g>
        <g id="Group-3" transform="translate(394.000000, 103.000000)" fill="#F5F7FA">
            <polygon id="Fill-1" points="0 16.907767 0 17.2761137 0 24.0048544 25.514377 24.0048544 25.514377 16.907767"></polygon>
            <polygon id="Fill-2" points="32.2619808 0 32.2619808 43 39.5294209 43 39.5294209 23.9893535 66 23.9893535 66 23.6146009 65.9738091 16.748636 39.5294209 16.748636 39.5294209 0"></polygon>
        </g>
    </g>
</svg>