<?xml version="1.0" encoding="UTF-8"?>
<svg width="15px" height="15px" viewBox="0 0 11 11" version="1.1" xmlns="http://www.w3.org/2000/svg" xmlns:xlink="http://www.w3.org/1999/xlink">
    <title>Group</title>
    <g id="Symbols" stroke="none" stroke-width="1" fill="none" fill-rule="evenodd">
        <g id="desktop-design-/-search-overlay" transform="translate(-619.000000, -331.000000)" fill="#3D7CCA" fill-rule="nonzero">
            <g id="Group" transform="translate(619.000000, 331.000000)">
                <path d="M10.2401957,10.8485437 L10.8482649,10.2405998 C11.0502202,10.0386582 11.0502202,9.71212354 10.8504051,9.51020284 L8.70825162,7.36841684 C8.61156484,7.27174665 8.48050893,7.21804098 8.34299046,7.21804098 L7.99277366,7.21804098 C8.5857775,6.45972123 8.93815549,5.50590028 8.93815549,4.46831108 C8.93815549,2 6.93782187,0 4.46907774,0 C2.00033362,0 0,2 0,4.46831108 C0,6.93663171 2.00033362,8.93662217 4.46907774,8.93662217 C5.50684497,8.93662217 6.46082957,8.58430463 7.21927943,7.99140252 L7.21927943,8.34155924 C7.21927943,8.47905412 7.27299431,8.61008755 7.36968109,8.70675774 L9.51183457,10.8485437 C9.71378991,11.0504854 10.0403806,11.0504854 10.2401957,10.8485437 Z M4.32142857,7.07142857 C2.80247906,7.07142857 1.57142857,5.84251813 1.57142857,4.32142857 C1.57142857,2.80247906 2.80033902,1.57142857 4.32142857,1.57142857 C5.84037808,1.57142857 7.07142857,2.80033902 7.07142857,4.32142857 C7.07142857,5.84037808 5.84251813,7.07142857 4.32142857,7.07142857 Z" id="search"></path>
            </g>
        </g>
    </g>
</svg>