<?xml version="1.0" encoding="UTF-8"?>
<svg width="150px" height="150px" viewBox="0 0 150 150" version="1.1" xmlns="http://www.w3.org/2000/svg" xmlns:xlink="http://www.w3.org/1999/xlink">
    <title>Group 21</title>
    <g id="pages-" stroke="none" stroke-width="1" fill="none" fill-rule="evenodd">
        <g id="Desktop-Designs-/-Careers-v3" transform="translate(-374.000000, -4326.000000)">
            <g id="Group-21" transform="translate(374.000000, 4326.000000)">
                <circle id="Oval" fill="#F6F7FB" cx="75" cy="75" r="75"></circle>
                <g id="Group-18" transform="translate(25.000000, 34.000000)" fill="#C0CAD9">
                    <g id="Group-216">
                        <path d="M10.5450492,4.83897958 C8.15021525,3.92905466 7.07062321,2.84999872 6.16128536,0.45453963 C5.93070931,-0.15151321 5.06872694,-0.15151321 4.83871464,0.45453963 C3.92937679,2.84999872 2.84978475,3.92905466 0.4549508,4.83897958 C-0.151650267,5.06899777 -0.151650267,5.93100223 0.4549508,6.16102042 C2.84978475,7.07094534 3.92937679,8.15056505 4.83871464,10.5454604 C5.06872694,11.1515132 5.93070931,11.1515132 6.16128536,10.5454604 C7.07062321,8.15056505 8.15021525,7.07094534 10.5450492,6.16102042 C11.1516503,5.93100223 11.1516503,5.06899777 10.5450492,4.83897958" id="Fill-215"></path>
                    </g>
                    <path d="M100.545049,59.8389796 C98.1502153,58.9290547 97.0706232,57.8494349 96.1612854,55.4545396 C95.9312731,54.8484868 95.0692907,54.8484868 94.8387146,55.4545396 C93.9293768,57.8494349 92.8497847,58.9290547 90.4549508,59.8389796 C89.8483497,60.0689978 89.8483497,60.9310022 90.4549508,61.1610204 C92.8497847,62.0709453 93.9293768,63.1505651 94.8387146,65.5454604 C95.0692907,66.1515132 95.9312731,66.1515132 96.1612854,65.5454604 C97.0706232,63.1505651 98.1502153,62.0709453 100.545049,61.1610204 C101.15165,60.9310022 101.15165,60.0689978 100.545049,59.8389796" id="Fill-217"></path>
                    <path d="M45,3.47094445 L44.6566757,0 C42.3964578,0.30103645 40.1573211,0.865261442 38,1.67695353 L38.9290836,5 C40.8961709,4.2599278 42.9385487,3.7457785 45,3.47094445" id="Fill-218"></path>
                    <path d="M58,1.67695353 C55.8426789,0.865261442 53.6030403,0.30103645 51.3433243,0 L51,3.47094445 C53.0609494,3.7457785 55.1038291,4.2599278 57.0709164,5 L58,1.67695353" id="Fill-219"></path>
                    <path d="M80,43.3587983 L83.1964067,44 C83.7038247,41.7219516 83.9744113,39.3777679 84,37.0325509 L80.7333606,37 C80.7099496,39.1411278 80.4633184,41.2807056 80,43.3587983" id="Fill-220"></path>
                    <path d="M70,8.30822539 C68.2554533,6.66174408 66.3651558,5.21219371 64.3806657,4 L63,7.06946622 C64.8104816,8.17482056 66.5356941,9.4973187 68.1275496,11 L70,8.30822539" id="Fill-221"></path>
                    <path d="M79,18.4991441 C77.7242517,16.5459344 76.2220792,14.6955777 74.5345993,13 L72,14.9821683 C73.5399099,16.5294579 74.9114097,18.2175464 76.0745092,20 L79,18.4991441" id="Fill-222"></path>
                    <path d="M24,14.9821683 L21.4654007,13 C19.7779208,14.6955777 18.2757483,16.5459344 17,18.4991441 L19.9249276,20 C21.0885903,18.2175464 22.4595269,16.5294579 24,14.9821683" id="Fill-223"></path>
                    <path d="M16,43.3587983 C15.5366816,41.2807056 15.2900504,39.1411278 15.2666394,37 L12,37.0325509 C12.0255887,39.3777679 12.2961753,41.7219516 12.8035933,44 L16,43.3587983" id="Fill-224"></path>
                    <path d="M17,25.0407423 L13.8967991,24 C13.0264901,26.1098549 12.388521,28.3088026 12,30.5356229 L15.2715232,31 C15.6252759,28.9692833 16.2069536,26.9644482 17,25.0407423" id="Fill-225"></path>
                    <path d="M33,7.06946622 L31.6193343,4 C29.6348442,5.21219371 27.744051,6.66174408 26,8.30822539 L27.8724504,11 C29.4643059,9.4973187 31.1895184,8.17482056 33,7.06946622" id="Fill-226"></path>
                    <path d="M79.7284768,31 L83,30.5356229 C82.611479,28.3088026 81.9729581,26.1098549 81.1032009,24 L78,25.0407423 C78.7930464,26.9644482 79.3741722,28.9692833 79.7284768,31" id="Fill-227"></path>
                    <path d="M44.1860143,60.3991604 C44.3375361,57.6425428 45.4260296,54.1385588 48.267999,49.7723941 L48.267999,49.7643464 C48.2685344,49.7659559 48.2690699,49.7670289 48.2701407,49.7686385 C48.2712115,49.7670289 48.2717469,49.7659559 48.2722823,49.7648829 L48.2722823,49.7723941 C50.9643362,54.0516433 52.0099968,57.4864167 52.1674081,60.2044052 C54.3663471,58.5927121 57.694471,57.2170858 62.7375211,56.5936546 L62.743946,56.588826 C62.7434106,56.5904355 62.7428752,56.5915086 62.7423398,56.5931181 C62.743946,56.5931181 62.7455523,56.5925816 62.7466231,56.5925816 L62.7407336,56.5974102 C58.0601577,71.3542744 49.4732125,69.2972732 48.188758,68.8970325 C48.1528853,68.9201027 48.1266501,68.9372712 48.1229022,68.9410268 L48.1234377,68.9431728 L48.121296,68.9420998 C48.1207606,68.9420998 48.1186189,68.9431728 48.1186189,68.9431728 L48.1186189,68.9410268 C48.112194,68.9372712 48.0698964,68.9120549 48.0002928,68.8664511 C47.1473807,69.1567061 38.1760093,71.8049475 33.351943,56.5974102 L33.3460534,56.5925816 C33.3476597,56.5925816 33.3487305,56.5931181 33.3503367,56.5931181 C33.3498013,56.5915086 33.3492659,56.5904355 33.3492659,56.588826 L33.35462,56.5936546 C38.6005914,57.2423021 41.9924294,58.7037708 44.1860143,60.3991604 Z M42.9331492,43.4597504 C42.8405228,44.3680715 42.0770246,45.0591037 41.1652172,45.0591037 L34.4356178,45.0591037 C34.0784977,45.0591037 33.7224484,45.0714436 33.3680053,45.0950503 C25.0187832,45.6540996 18.5831253,53.069283 19.0210927,61.6240258 L20.3521281,87.5946044 C20.4265505,89.035149 21.0331728,90.3238597 21.9712154,91.2842228 L21.9610426,91.2842228 C22.9954595,92.3433048 24.442144,93 26.0301774,93 L46.2768,93 L46.1932757,84.3433193 L33.0558599,84.3433193 C32.2040186,84.3433193 31.5004866,83.6764303 31.4528349,82.8239068 L30.7353822,69.9877689 L33.9435737,69.8080361 L34.574825,81.1242251 L61.0970173,81.1242251 L61.728804,69.8080361 L64.9364601,69.9877689 L64.2200782,82.8239068 C64.1724265,83.6764303 63.4688945,84.3433193 62.6165179,84.3433193 L49.4057505,84.3433193 L49.4898103,93 L69.9688019,93 C71.5621895,93 73.0035198,92.3433048 74.0374013,91.2842228 L74.0282993,91.2842228 C74.966342,90.3238597 75.5740351,89.035149 75.6473866,87.5946044 L76.9789574,61.6240258 C77.4163894,53.069283 70.9807315,45.6540996 62.6293678,45.0945138 C62.276531,45.0714436 61.9215525,45.0591037 61.5644324,45.0591037 L54.8342976,45.0591037 C53.9230256,45.0591037 53.1595274,44.3680715 53.0663656,43.4597504 L52.9319771,42.1388488 C52.8645151,41.4789345 53.1761252,40.845846 53.7243875,40.4745771 C56.8833211,38.3376351 58.9965941,34.4951097 58.9965941,30.0972906 C58.9965941,23.375822 54.0729411,19 48.0002928,19 C41.9265737,19 37.0029206,23.375822 37.0029206,30.0972906 C37.0029206,34.4951097 39.1161936,38.3376351 42.2751272,40.4745771 C42.8244604,40.845846 43.1349997,41.4789345 43.0675377,42.1388488 L42.9331492,43.4597504 L42.9331492,43.4597504 Z" id="Fill-228"></path>
                    <path d="M78.6998865,108.727342 L76.4551983,105.848007 L19.5130956,105.848007 C19.1009156,105.848007 18.7037826,105.689095 18.4049924,105.404242 L14.5830574,101.766561 L16.7998012,99.4115282 L20.1542048,102.604904 L77.2392538,102.604904 C77.7347297,102.604904 78.2022611,102.834083 78.5080374,103.225958 L81.2369162,106.725806 L78.6998865,108.727342 Z M81.902208,91 L78.2382664,91 C76.7577502,94.0636513 73.6376497,96.1516691 70.0478682,96.1516691 L25.9467578,96.1516691 C22.356439,96.1516691 19.2363385,94.0636513 17.7558223,91 L14.0918807,91 C10.7170562,91.0399983 8,93.7955548 8,97.1954078 L8,109.804592 C8,113.227687 10.7621971,116 14.1655034,116 L81.8291226,116 C85.2324289,116 88,113.227687 88,109.804592 L88,97.1954078 C88,93.7955548 85.2775699,91.0399983 81.902208,91 L81.902208,91 Z" id="Fill-229"></path>
                </g>
            </g>
        </g>
    </g>
</svg>