<?xml version="1.0" encoding="UTF-8"?>
<svg width="150px" height="150px" viewBox="0 0 150 150" version="1.1" xmlns="http://www.w3.org/2000/svg" xmlns:xlink="http://www.w3.org/1999/xlink">
    <title>Group 23</title>
    <defs>
        <polygon id="path-1" points="0 0 103 0 103 108 0 108"></polygon>
        <polygon id="path-3" points="-3.93731402e-12 0 109 0 109 116 -3.93731402e-12 116"></polygon>
    </defs>
    <g id="pages-" stroke="none" stroke-width="1" fill="none" fill-rule="evenodd">
        <g id="Desktop-Designs-/-Careers-v3" transform="translate(-1395.000000, -4326.000000)">
            <g id="Group-23" transform="translate(1395.000000, 4326.000000)">
                <circle id="Oval" fill="#F6F7FB" cx="75" cy="75" r="75"></circle>
                <g id="Group-20" transform="translate(17.000000, 34.000000)">
                    <path d="M116.669419,55.5179194 C114.928133,54.8582303 114.14245,54.0716778 113.481035,52.3311132 C113.313652,51.8896289 112.687235,51.8896289 112.519346,52.3311132 C111.857931,54.0716778 111.072754,54.8582303 109.330961,55.5179194 C108.88968,55.685379 108.88968,56.314621 109.330961,56.4820806 C111.072754,57.1417697 111.857931,57.9283222 112.519346,59.6688868 C112.687235,60.1103711 113.313652,60.1103711 113.481035,59.6688868 C114.14245,57.9283222 114.928133,57.1417697 116.669419,56.4820806 C117.110194,56.314621 117.110194,55.685379 116.669419,55.5179194" id="Fill-58" fill="#C0CAD9"></path>
                    <g id="Group-64" transform="translate(2.000000, 8.000000)">
                        <mask id="mask-2" fill="white">
                            <use xlink:href="#path-1"></use>
                        </mask>
                        <g id="Clip-60"></g>
                        <path d="M55.1152826,4.79104984 C56.9443626,5.49621426 57.768354,6.33698723 58.4629144,8.19753644 C58.6392177,8.66945418 59.297026,8.66945418 59.4733293,8.19753644 C60.167357,6.33698723 60.9918811,5.49621426 62.8209611,4.79104984 C63.2843565,4.61204656 63.2843565,3.93942818 62.8209611,3.76042491 C60.9918811,3.05526048 60.167357,2.21448751 59.4733293,0.353938298 C59.297026,-0.117979433 58.6392177,-0.117979433 58.4629144,0.353938298 C57.768354,2.21448751 56.9443626,3.05526048 55.1152826,3.76042491 C54.6518872,3.93942818 54.6518872,4.61204656 55.1152826,4.79104984" id="Fill-59" fill="#C0CAD9" mask="url(#mask-2)"></path>
                        <path d="M27.7675008,92.9745734 L1.30602916,92.9745734 C0.584836873,92.9745734 0,93.571251 0,94.3089615 L0,106.698158 C0,107.430444 0.584836873,108.027122 1.30602916,108.027122 L27.7675008,108.027122 C28.4892257,108.027122 29.0735299,107.430444 29.0735299,106.698158 L29.0735299,94.3089615 C29.0735299,93.571251 28.4892257,92.9745734 27.7675008,92.9745734" id="Fill-61" fill="#C0CAD9" mask="url(#mask-2)"></path>
                        <path d="M101.693971,61.8442762 L75.2324992,61.8442762 C74.5113069,61.8442762 73.9259374,62.4355294 73.9259374,63.1732399 L73.9259374,106.698158 C73.9259374,107.430444 74.5113069,108.027122 75.2324992,108.027122 L101.693971,108.027122 C102.415696,108.027122 103,107.430444 103,106.698158 L103,63.1732399 C103,62.4355294 102.415696,61.8442762 101.693971,61.8442762" id="Fill-62" fill="#C0CAD9" mask="url(#mask-2)"></path>
                        <path d="M64.7310021,79.4571138 L38.2695305,79.4571138 C37.5478056,79.4571138 36.9635013,80.048367 36.9635013,80.7860775 L36.9635013,106.698158 C36.9635013,107.430444 37.5478056,108.027122 38.2695305,108.027122 L64.7310021,108.027122 C65.4521944,108.027122 66.0370313,107.430444 66.0370313,106.698158 L66.0370313,80.7860775 C66.0370313,80.048367 65.4521944,79.4571138 64.7310021,79.4571138" id="Fill-63" fill="#C0CAD9" mask="url(#mask-2)"></path>
                    </g>
                    <path d="M72.4229121,33.0808889 C72.2961547,32.6656853 72.0172884,32.3335224 71.6522272,32.1508328 C71.2922362,31.9626072 70.876472,31.9515351 70.5017772,32.1120805 L66.8607983,33.66771 L66.1357461,33.9777286 C65.9385116,34.0663054 65.7605443,34.1991706 65.619083,34.365252 C65.5166631,34.481509 65.4360454,34.6088381 65.3752018,34.7417033 C65.3752018,34.7417033 65.3701315,34.7417033 65.3701315,34.7472393 C65.2788662,34.9576091 65.223093,35.1845871 65.2185297,35.4226371 C65.2129524,35.5942546 65.2332336,35.7658721 65.2788662,35.9208815 C65.3194286,36.0592827 65.3701315,36.1921478 65.4411157,36.3139409 C65.5881542,36.5741351 65.8061769,36.7845049 66.0698323,36.911834 L66.0850432,36.9229061 L67.6923267,37.714561 C67.2613516,38.7165856 66.8100954,39.7075382 66.3486985,40.6929547 C65.9126531,41.6230108 65.4613969,42.5364587 65,43.4388345 L67.560499,45 C68.0624583,44.0201195 68.5492066,43.0236309 69.0258143,42.0105341 C69.4877182,41.0251176 69.9333971,40.034165 70.3643722,39.0376764 L71.8753202,39.7684347 C71.9209528,39.7905789 71.9716558,39.8127231 72.0172884,39.8293313 C72.1998191,39.912372 72.3975606,39.9455883 72.5851615,39.9345162 C72.9248713,39.9234441 73.2595107,39.7795068 73.5180958,39.5193126 C73.9541412,39.0875009 74.1118274,38.4176391 73.9186491,37.8142098 L72.4229121,33.0808889" id="Fill-65" fill="#C0CAD9"></path>
                    <path d="M25,83.7151411 L23.8416475,81 C21.2812603,82.1907613 18.6425993,83.2583405 16,84.182207 L16.9048244,87 C19.6330817,86.0453379 22.3569084,84.9418306 25,83.7151411" id="Fill-66" fill="#C0CAD9"></path>
                    <path d="M11,87.9449153 L10.2096472,85 C5.24674752,86.5148305 2.03175303,86.9544492 2,86.9597458 L2.35325248,90 C2.49117971,89.9841102 5.80093716,89.5338983 11,87.9449153" id="Fill-67" fill="#C0CAD9"></path>
                    <path d="M27,78.3180473 L28.2898631,81 C30.9326805,79.6434911 33.5264271,78.1420118 36,76.5421598 L34.463781,74 C32.0693224,75.5532544 29.5591966,77.0029586 27,78.3180473" id="Fill-68" fill="#C0CAD9"></path>
                    <path d="M59,54.1733181 L61.1809309,56 C62.8950996,53.6345496 64.5165848,51.1356899 66,48.5701254 L63.6513787,47 C62.2190827,49.4783352 60.6539722,51.8899658 59,54.1733181" id="Fill-69" fill="#C0CAD9"></path>
                    <path d="M48,69.0330033 L46.0421875,67 C43.8130208,68.6910891 41.44375,70.3036304 39,71.8006601 L40.7109375,74 C43.2401042,72.4521452 45.6921875,70.779538 48,69.0330033" id="Fill-70" fill="#C0CAD9"></path>
                    <path d="M57,59.8245614 L54.8271361,58 C53.0042071,60.076225 51.044175,62.0798548 49,63.9576528 L50.9610221,66 C53.0794407,64.0544465 55.1107468,61.9733817 57,59.8245614" id="Fill-71" fill="#C0CAD9"></path>
                    <g id="Group-75">
                        <mask id="mask-4" fill="white">
                            <use xlink:href="#path-3"></use>
                        </mask>
                        <g id="Clip-73"></g>
                        <path d="M93.6311121,34.1754795 L91.0347721,36.2104879 C90.8255729,36.3769398 90.5304237,36.3769398 90.3239274,36.2104879 L87.7989421,34.1754795 C87.6308259,34.0412441 87.5546061,33.8210981 87.6010948,33.6116909 L89.807146,23.774922 C89.9201243,23.2755663 89.8574186,22.7493636 89.6298402,22.2822245 L88.8027737,20.6015975 C88.6389821,20.2686937 88.8833181,19.8820958 89.2563089,19.8820958 L92.1786104,19.8820958 C92.5559257,19.8820958 92.8002617,20.2794326 92.6283616,20.6123363 L91.7726451,22.2714857 C91.5277686,22.7493636 91.4591167,23.297044 91.5791224,23.8178773 L93.833284,33.6063215 C93.8824755,33.8210981 93.8035528,34.0412441 93.6311121,34.1754795 Z M106.194955,24.913238 L106.133871,24.757525 C104.391085,20.3116491 100.371974,17.3155153 95.6906698,16.859115 C95.422549,16.8322679 94.7138665,16.8107903 94.2560068,16.794682 C94.025185,16.7893126 93.8440953,16.6013831 93.8440953,16.3704982 L93.8440953,15.5113917 C93.8440953,15.3556787 93.9278831,15.2214433 94.0597812,15.1462715 C96.2506966,13.8844589 97.656169,11.4252667 97.3626415,8.66538717 C97.03668,5.60482043 94.5473721,3.11878112 91.4688468,2.78050795 C87.4286541,2.34021589 84.0090316,5.46521563 84.0090316,9.39025825 C84.0090316,11.8494505 85.35342,13.9918472 87.3508126,15.1462715 C87.4827108,15.2214433 87.5664985,15.3556787 87.5664985,15.5113917 L87.5664985,16.316804 C87.5664985,16.5691666 87.350272,16.7732044 87.1010709,16.7409879 C84.1609307,16.4027147 81.6532435,14.4106616 80.7056307,11.5648715 L77.0459967,0.579047659 C76.8989627,0.1387556 76.4189398,-0.102868091 75.9745943,0.0421061236 L71.6343872,1.47037061 C71.1900417,1.61534482 70.9489491,2.09322279 71.0959832,2.53351485 L74.7561578,13.5247081 C75.7724225,16.574536 77.7800858,19.082053 80.3521004,20.7519411 C81.4932359,21.4929204 82.2170542,22.7225166 82.2159731,24.0809786 L82.1797551,67.0899956 L88.5162736,67.0899956 L88.9503483,47.5399543 C88.9692682,46.6647396 89.6876808,45.9667156 90.5671822,45.9667156 C91.4277638,45.9667156 92.1305,46.6486314 92.1521227,47.5023684 L92.6451192,67.0899956 L98.988665,67.0899956 L98.9178508,27.2489337 C98.9167697,26.4757379 99.9984429,26.2717001 100.283321,26.9912018 L100.293052,27.0180488 L100.354136,27.1737619 C101.868802,31.0397409 102.665057,35.1419743 102.703977,39.2925323 L102.733168,42.3745767 C102.736952,42.8417159 103.120213,43.2122055 103.588884,43.2068361 L108.160454,43.1692502 C108.628584,43.1638808 109.004818,42.7826523 109,42.3155132 L108.971303,39.2334688 C108.925355,34.3311925 107.984229,29.4826105 106.194955,24.913238 L106.194955,24.913238 Z" id="Fill-72" fill="#C0CAD9" mask="url(#mask-4)"></path>
                    </g>
                </g>
            </g>
        </g>
    </g>
</svg>