<?xml version="1.0" encoding="UTF-8"?>
<svg width="150px" height="150px" viewBox="0 0 150 150" version="1.1" xmlns="http://www.w3.org/2000/svg" xmlns:xlink="http://www.w3.org/1999/xlink">
    <title>Group 22</title>
    <g id="pages-" stroke="none" stroke-width="1" fill="none" fill-rule="evenodd">
        <g id="Desktop-Designs-/-Careers-v3" transform="translate(-886.000000, -4326.000000)">
            <g id="Group-22" transform="translate(886.000000, 4326.000000)">
                <circle id="Oval" fill="#F6F7FB" cx="75" cy="75" r="75"></circle>
                <g id="Group-19" transform="translate(24.000000, 24.000000)" fill="#C0CAD9">
                    <path d="M51,87 C54.3126492,87 57,84.3133901 57,81 C57,77.6861325 54.3126492,75 51,75 C47.6873508,75 45,77.6861325 45,81 C45,84.3133901 47.6873508,87 51,87" id="Fill-82"></path>
                    <path d="M50.5063268,89 C43.8220811,89 38.2441292,93.9449093 37.0216281,100.49689 C36.877531,101.277083 37.4725125,102 38.2394809,102 L62.7638762,102 C63.5308445,102 64.1258261,101.277083 63.9770807,100.497371 C62.7592279,93.9449093 57.1859242,89 50.5063268,89" id="Fill-83"></path>
                    <path d="M82,42 C82,45.3133901 84.6825776,48 88,48 C91.3126492,48 94,45.3133901 94,42 C94,38.6866099 91.3126492,36 88,36 C84.6825776,36 82,38.6866099 82,42" id="Fill-84"></path>
                    <path d="M101.978371,61.4973157 C100.755811,54.9446111 95.1868897,50 88.5069728,50 C81.8224074,50 76.2441887,54.9446111 75.0216291,61.4973157 C74.8775251,62.2770558 75.4725351,63 76.2395402,63 L100.76046,63 C101.527465,63 102.122475,62.2770558 101.978371,61.4973157" id="Fill-85"></path>
                    <path d="M51,12 C54.3126492,12 57,9.31386745 57,6 C57,2.68660991 54.3126492,0 51,0 C47.6873508,0 45,2.68660991 45,6 C45,9.31386745 47.6873508,12 51,12" id="Fill-86"></path>
                    <path d="M38.2394809,27 L62.7638762,27 C63.5308445,27 64.1258261,26.2771093 63.9770807,25.4969457 C62.7592279,18.9447262 57.1859242,14 50.5063268,14 C43.8220811,14 38.2441292,18.9447262 37.0216281,25.4969457 C36.877531,26.2771093 37.4725125,27 38.2394809,27" id="Fill-87"></path>
                    <path d="M14,48 C17.3126492,48 20,45.3133901 20,42 C20,38.6866099 17.3126492,36 14,36 C10.6873508,36 8,38.6866099 8,42 C8,45.3133901 10.6873508,48 14,48" id="Fill-88"></path>
                    <path d="M26.9783719,61.4973157 C25.7558708,54.9446111 20.1872155,50 13.5029698,50 C6.82337235,50 1.24542043,54.9446111 0.0229192987,61.4973157 C-0.125826086,62.2770558 0.469155452,63 1.23612384,63 L25.7605191,63 C26.5274875,63 27.122469,62.2770558 26.9783719,61.4973157" id="Fill-89"></path>
                    <path d="M69,57.9881335 L66.3084239,57 C65.4429348,59.5871132 63.9544837,61.9296884 62,63.7727071 L63.9069293,66 C66.2180707,63.8211157 67.9775815,61.0508484 69,57.9881335" id="Fill-90"></path>
                    <path d="M59.5192308,65 C57.2355769,66.3332394 54.6346154,67.0883817 52,67.1841833 L52.1057692,70 C55.2259615,69.886353 58.3028846,68.9940828 61,67.4185216 L59.5192308,65" id="Fill-91"></path>
                    <path d="M53.0124675,36.4009681 C53.7277922,36.5469594 54.4290909,36.7485417 55.107013,37 L56,34.0432867 C55.1958442,33.7461087 54.3636364,33.5076389 53.5220779,33.3356705 C51.3667532,32.8930207 49.1412987,32.8888644 47,33.3190452 L47.5002597,36.3869405 C49.3096104,36.0237806 51.1890909,36.0274174 53.0124675,36.4009681" id="Fill-92"></path>
                    <path d="M70,52.3963415 C70,50.2077861 69.5901235,48.0558161 68.7753086,46 L66,46.9910882 C66.691358,48.728424 67.037037,50.5469043 67.037037,52.3958724 C67.037037,53.1280488 66.982716,53.869606 66.8740741,54.5994371 L69.8074074,55 C69.9358025,54.1378987 70,53.2617261 70,52.3963415" id="Fill-93"></path>
                    <path d="M47.5597322,70 L48,67.2450783 C47.8702369,67.2246163 47.7451081,67.2027593 47.6199794,67.1809022 C45.1035015,66.715858 42.73069,65.6155635 40.7564367,64 L39,66.1615253 C41.3357364,68.0742521 44.1395469,69.3749806 47.1240989,69.926058 C47.2723996,69.9521004 47.4160659,69.9767478 47.5597322,70" id="Fill-94"></path>
                    <path d="M33,51.9932635 L35.3809524,52 C35.3849206,51.0530368 35.4563492,50.0978935 35.5992063,49.1605539 C35.8571429,47.4797904 36.3253968,45.8755346 37,44.3925364 L34.9126984,43 C34.1190476,44.7548653 33.5595238,46.6516788 33.2579365,48.6375107 C33.0912698,49.7442258 33.0039683,50.8735565 33,51.9932635" id="Fill-95"></path>
                    <path d="M60.4109264,36 L59,38.5177493 C61.2660333,39.8319247 63.1947743,41.7271191 64.5771971,44 L67,42.4776624 C65.3705463,39.7932866 63.0902613,37.553731 60.4109264,36" id="Fill-96"></path>
                    <path d="M35.7395349,55 L33,55.5600172 C33.5813953,58.6478631 34.9162791,61.566638 36.8511628,64 L39,62.1436107 C37.3581395,60.0827861 36.2325581,57.6130908 35.7395349,55" id="Fill-97"></path>
                    <path d="M46,37.5860404 L44.8964166,35 C41.837626,36.1031426 39.1114222,37.9051274 37,40.2119087 L39.3129899,42 C41.1019037,40.0465762 43.4148936,38.5201456 46,37.5860404" id="Fill-98"></path>
                    <path d="M56.9449102,51.198978 L54.8083832,52.7516768 C54.4586826,53.0060683 54.3149701,53.4573619 54.4443114,53.8698499 L55.2634731,56.3821463 C55.560479,57.3034174 54.5065868,58.0694666 53.7257485,57.5003194 L51.5844311,55.9476206 C51.2347305,55.6922708 50.760479,55.6922708 50.4107784,55.9476206 L48.2742515,57.5003194 C47.4886228,58.0694666 46.4347305,57.3034174 46.7365269,56.3821463 L47.5508982,53.8698499 C47.6850299,53.4573619 47.5365269,53.0060683 47.1868263,52.7516768 L45.0502994,51.198978 C44.2694611,50.6293516 44.6718563,49.3894922 45.639521,49.3894922 L48.2790419,49.3894922 C48.7149701,49.3894922 49.0982036,49.1106675 49.2323353,48.6986586 L50.0467066,46.1863622 C50.348503,45.2646119 51.651497,45.2646119 51.948503,46.1863622 L52.7676647,48.6986586 C52.9017964,49.1106675 53.2850299,49.3894922 53.7161677,49.3894922 L56.360479,49.3894922 C57.3281437,49.3894922 57.7305389,50.6293516 56.9449102,51.198978 Z M51,40 C44.3700599,40 39,45.372405 39,52 C39,58.627595 44.3700599,64 51,64 C57.6251497,64 63,58.627595 63,52 C63,45.372405 57.6251497,40 51,40 L51,40 Z" id="Fill-99"></path>
                    <path d="M86.5170604,31 L89,29.5738691 C84.2025372,21.725019 76.7777778,15.4837142 68.1019248,12 L67,14.5850372 C75.1032371,17.8388356 82.032371,23.6688103 86.5170604,31" id="Fill-100"></path>
                    <path d="M35,14.5850372 L33.8932633,12 C25.2174103,15.4837142 17.7974628,21.725019 13,29.5738691 L15.4829396,31 C19.967629,23.6688103 26.8967629,17.8388356 35,14.5850372" id="Fill-101"></path>
                    <path d="M67,87.4149628 L68.1019248,90 C76.7777778,86.5153531 84.2025372,80.274981 89,72.4265973 L86.5170604,71 C82.032371,78.3311897 75.1032371,84.1611644 67,87.4149628" id="Fill-102"></path>
                    <path d="M15.4829396,71 L13,72.427495 C17.7974628,80.2752197 25.2174103,86.5154386 33.8932633,90 L35,87.4150263 C26.8967629,84.1613077 19.967629,78.3314761 15.4829396,71" id="Fill-103"></path>
                </g>
            </g>
        </g>
    </g>
</svg>