<?xml version="1.0" encoding="UTF-8"?>
<svg width="295px" height="40px" viewBox="0 0 295 40" version="1.1" xmlns="http://www.w3.org/2000/svg" xmlns:xlink="http://www.w3.org/1999/xlink">
    <title>Group 50</title>
    <defs>
        <polygon id="path-1" points="0 0 28.9055756 0 28.9055756 22.4580636 0 22.4580636"></polygon>
        <polygon id="path-3" points="0 39.9997831 295 39.9997831 295 0 0 0"></polygon>
    </defs>
    <g id="Symbols" stroke="none" stroke-width="1" fill="none" fill-rule="evenodd">
        <g id="header---gradient-copy" transform="translate(-212.000000, -81.000000)">
            <g id="Group-49" transform="translate(212.000000, 81.000000)">
                <polygon id="Fill-1" fill="#FEFEFE" points="218.287781 0.15223968 218.287781 22.609219 239.540556 22.609219 239.540556 18.8281665 222.103383 18.8281665 222.103383 3.96256899 239.540556 3.96256899 239.540556 0.15223968"></polygon>
                <polygon id="Fill-2" fill="#FEFEFE" points="226.189691 12.732995 226.189691 9.178025 226.189691 8.98338809 239.352217 8.98338809 239.352217 12.732995"></polygon>
                <polygon id="Fill-3" fill="#3A73B9" points="48.9971205 0.150775837 48.9971205 8.89859363 32.5219875 8.89859363 32.5219875 0.150775837 28.7579326 0.150775837 28.7579326 0.347039242 28.7579326 22.6088394 32.5219875 22.6088394 32.5219875 12.6796461 48.9971205 12.6796461 48.9971205 22.6088394 52.7883057 22.6088394 52.7883057 0.150775837"></polygon>
                <polygon id="Fill-4" fill="#3A73B9" points="57.9982959 0.150775837 57.9982959 0.347039242 57.9982959 22.6088394 61.8138982 22.6088394 61.8138982 0.150775837"></polygon>
                <polygon id="Fill-5" fill="#3A73B9" points="87.682836 0.150775837 77.7064899 18.7009206 67.7545611 0.150775837 63.4706901 0.150775837 63.6253327 0.440291467 75.6424183 22.7601032 79.5871608 22.7601032 91.7583465 0.150775837"></polygon>
                <polygon id="Fill-6" fill="#3A73B9" points="93.2831767 0.150775837 93.2831767 22.6088394 114.537037 22.6088394 114.537037 18.827787 97.0993217 18.827787 97.0993217 3.96218948 114.537037 3.96218948 114.537037 0.150775837"></polygon>
                <path d="M138.094692,0.150775837 L138.094692,0.346497078 L138.094692,22.6088394 L141.884249,22.6088394 L141.884249,0.150775837 L138.094692,0.150775837 Z M117.854962,0.150775837 L117.854962,22.6088394 L121.619016,22.6088394 L121.619016,12.6796461 L135.328489,12.6796461 L135.328489,12.484467 L135.315466,8.89859363 L121.619016,8.89859363 L121.619016,0.150775837 L117.854962,0.150775837 Z" id="Fill-7" fill="#FEFEFE"></path>
                <path d="M156.101438,0 L143.929167,22.6087852 L148.004677,22.6087852 L148.060566,22.5052319 L150.392142,18.1587023 L165.54603,18.1587023 L167.933495,22.6087852 L172.218451,22.6087852 L160.044553,0 L156.101438,0 Z M157.957149,4.05701398 L163.545986,14.4692756 L152.366684,14.4692756 L157.957149,4.05701398 Z" id="Fill-8" fill="#FEFEFE"></path>
                <polygon id="Fill-9" fill="#FEFEFE" points="166.427005 0.150775837 166.398247 3.96273164 177.35074 3.96273164 177.35074 22.6088394 181.166343 22.6088394 181.166343 3.96273164 200.959509 3.96273164 200.959509 22.6088394 204.774569 22.6088394 204.774569 3.96273164 215.725434 3.96273164 215.725434 0.151318001 192.116123 0.151318001 192.116123 0.150775837"></polygon>
                <g id="Group-48" transform="translate(0.000000, 0.000217)">
                    <path d="M258.75449,11.1999718 C258.793558,11.1999718 258.834796,11.1983453 258.876577,11.1983453 C260.316652,11.2021405 261.3221,11.0660573 261.933616,10.5764831 C262.545133,10.09721 262.864185,9.21998851 262.86527,7.58102643 C262.864185,5.90302853 262.542962,5.01225291 261.909199,4.52701604 C261.276521,4.03147805 260.225494,3.89919001 258.7024,3.90133255 L247.116143,3.90133255 L247.116143,11.1999718 L258.75449,11.1999718 L258.75449,11.1999718 Z M268.311402,22.2753001 L268.644562,22.608731 L263.653676,22.608731 L255.818994,14.7679538 L247.117229,14.7679538 L247.117229,22.608731 L243.352631,22.608731 L243.352631,0.150667404 L258.935721,0.150667404 C261.561932,0.151751732 263.502289,0.605000922 264.797489,1.76794292 C266.09106,2.93359574 266.681415,4.77153205 266.68033,7.42867831 C266.709088,11.854906 264.627653,14.0712729 260.53695,14.4892814 L268.311402,22.2753001 Z" id="Fill-10" fill="#FEFEFE"></path>
                    <g id="Group-14" transform="translate(266.094424, 0.150451)">
                        <mask id="mask-2" fill="white">
                            <use xlink:href="#path-1"></use>
                        </mask>
                        <g id="Clip-13"></g>
                        <polygon id="Fill-12" fill="#FEFEFE" mask="url(#mask-2)" points="0.296805249 0.327467118 0 0 4.86120333 0 14.5043896 10.7099097 24.1757913 0 28.9056841 0 16.3345982 13.8631361 16.3345982 22.4580636 12.5710859 22.4580636 12.5700007 13.8631361"></polygon>
                    </g>
                    <polygon id="Fill-15" fill="#3A73B9" points="101.184816 12.7327782 101.184816 9.17726597 101.184816 8.98262906 114.347885 8.98262906 114.347885 12.7327782"></polygon>
                    <path d="M0.473423363,22.6378452 L0.46148604,19.1164894 L0.460400829,18.8454073 L17.2350521,18.8454073 C17.3940356,18.844323 17.5454225,18.8454073 17.6875852,18.8454073 C18.6333467,18.844323 19.2584283,18.8117932 19.9784659,18.3748089 C20.9622098,17.7372239 21.4966763,16.8052438 21.4993893,15.7138675 L21.4993893,15.679169 L21.4993893,15.6287477 C21.4966763,14.5384557 20.9410482,13.621114 19.9464522,13.0426249 C19.290442,12.6479295 18.6170685,12.5964239 17.8378869,12.5964239 C17.6599123,12.5964239 17.4775968,12.5980504 17.2887701,12.600219 L6.93585574,12.600219 C4.97704962,12.5980504 3.3682241,12.0651031 2.0638003,11.0024614 C0.668761369,9.83735077 0.00895299196,8.06718498 0.000271302786,6.17557442 C0.00298433065,4.30944558 0.684496931,2.83530139 2.06922635,1.68537133 C3.3682241,0.627609165 4.97704962,0.0924931958 6.93585574,0.0924931958 L24.0865327,0.0924931958 L24.0865327,3.6778244 L6.92120539,3.6778244 L6.90709765,3.6778244 C6.08233718,3.67999306 5.43446612,3.82204006 4.86093203,4.2774579 C4.27166238,4.73396008 3.95043988,5.4116652 3.94826946,6.17557442 C3.94826946,6.17936957 3.94935467,6.18858636 3.94826946,6.2287065 C3.94935467,6.2287065 3.94826946,6.23304382 3.94935467,6.2498509 C3.94826946,7.03273587 4.27817364,7.7738742 4.86961372,8.20381033 C5.46051119,8.64730056 6.11760654,8.86362404 6.92500363,8.8657927 L6.93585574,8.8657927 L17.8286626,8.8657927 C20.0039684,8.86796135 21.7923963,9.43235418 23.2340994,10.6744521 C24.6654929,11.9203453 25.4056069,13.5143077 25.4680065,15.5062186 L25.4750604,15.5062186 L25.4739752,15.7773007 C25.4690917,17.8949937 24.7289777,19.5616061 23.2308437,20.8454507 C21.813558,22.0295371 20.2731007,22.6031467 17.8275774,22.6378452 L0.473423363,22.6378452 Z" id="Fill-17" fill="#3A73B9"></path>
                    <path d="M4.01604089,33.190961 L2.61611851,36.4650901 L5.38340694,36.4650901 L4.01604089,33.190961 Z M2.24714672,37.3114082 L1.25960458,39.6313284 L0.261210323,39.6313284 L4.03774512,31.0656778 L7.7166109,39.6313284 L6.70736454,39.6313284 L5.74152662,37.3114082 L2.24714672,37.3114082 Z" id="Fill-19" fill="#FEFEFE"></path>
                    <path d="M15.1611594,35.2399618 L15.4433143,35.2399618 C16.4742649,35.2399618 17.5160676,35.0453249 17.5160676,33.7766609 C17.5160676,32.4315518 16.5285254,32.3014324 15.4324622,32.3014324 L15.1611594,32.3014324 L15.1611594,35.2399618 Z M15.1611594,39.6314911 L14.249582,39.6314911 L14.249582,31.4556564 L15.4324622,31.4556564 C16.9843141,31.4556564 18.4276449,31.867159 18.4276449,33.7110591 C18.4276449,34.9688798 17.6354408,35.8585711 16.3765959,35.9664617 L18.9811026,39.6314911 L17.8633351,39.6314911 L15.3890537,36.0423647 L15.1611594,36.0423647 L15.1611594,39.6314911 Z" id="Fill-21" fill="#FEFEFE"></path>
                    <path d="M32.0142714,33.2449606 C31.3631448,32.5726771 30.4624195,32.1606324 29.5182858,32.1606324 C27.6951311,32.1606324 26.2192439,33.7437516 26.2192439,35.5437364 C26.2192439,37.3442634 27.7059832,38.9268404 29.53999,38.9268404 C30.4624195,38.9268404 31.3631448,38.4931091 32.0142714,37.8425122 L32.0142714,38.9707557 C31.3088842,39.4798478 30.4407153,39.7720742 29.5725464,39.7720742 C27.2610466,39.7720742 25.3076666,37.8967286 25.3076666,35.5757241 C25.3076666,33.2341173 27.2284903,31.3143142 29.5725464,31.3143142 C30.4841237,31.3143142 31.28718,31.5750951 32.0142714,32.1172593 L32.0142714,33.2449606 Z" id="Fill-23" fill="#FEFEFE"></path>
                    <polygon id="Fill-25" fill="#FEFEFE" points="44.3421073 34.7740802 44.3421073 31.4554937 45.2536847 31.4554937 45.2536847 39.6313284 44.3421073 39.6313284 44.3421073 35.6187719 40.1531923 35.6187719 40.1531923 39.6313284 39.2416149 39.6313284 39.2416149 31.4554937 40.1531923 31.4554937 40.1531923 34.7740802"></polygon>
                    <mask id="mask-4" fill="white">
                        <use xlink:href="#path-3"></use>
                    </mask>
                    <g id="Clip-28"></g>
                    <polygon id="Fill-27" fill="#FEFEFE" mask="url(#mask-4)" points="52.611579 39.6311115 53.5231564 39.6311115 53.5231564 31.4552769 52.611579 31.4552769"></polygon>
                    <polygon id="Fill-29" fill="#FEFEFE" mask="url(#mask-4)" points="62.9968327 39.6312742 62.0852553 39.6312742 62.0852553 32.3012155 60.110171 32.3012155 60.110171 31.4554395 64.9936212 31.4554395 64.9936212 32.3012155 62.9968327 32.3012155"></polygon>
                    <polygon id="Fill-30" fill="#FEFEFE" mask="url(#mask-4)" points="71.5698922 31.4554395 75.8130678 31.4554395 75.8130678 32.3017577 72.4814696 32.3017577 72.4814696 34.7306529 75.7153988 34.7306529 75.7153988 35.5758867 72.4814696 35.5758867 72.4814696 38.7860404 75.8130678 38.7860404 75.8130678 39.6312742 71.5698922 39.6312742"></polygon>
                    <path d="M89.248036,33.2449606 C88.5969094,32.5726771 87.6961841,32.1606324 86.7515078,32.1606324 C84.9288957,32.1606324 83.4530085,33.7437516 83.4530085,35.5437364 C83.4530085,37.3442634 84.9392052,38.9268404 86.7737546,38.9268404 C87.6961841,38.9268404 88.5969094,38.4931091 89.248036,37.8425122 L89.248036,38.9707557 C88.5426488,39.4798478 87.6744799,39.7720742 86.806311,39.7720742 C84.4942686,39.7720742 82.5414312,37.8967286 82.5414312,35.5757241 C82.5414312,33.2341173 84.4627975,31.3143142 86.806311,31.3143142 C87.7184309,31.3143142 88.5209446,31.5750951 89.248036,32.1172593 L89.248036,33.2449606 Z" id="Fill-31" fill="#FEFEFE" mask="url(#mask-4)"></path>
                    <polygon id="Fill-32" fill="#FEFEFE" mask="url(#mask-4)" points="98.602122 39.6312742 97.6905447 39.6312742 97.6905447 32.3012155 95.716003 32.3012155 95.716003 31.4554395 100.599453 31.4554395 100.599453 32.3012155 98.602122 32.3012155"></polygon>
                    <path d="M108.06538,36.32429 C108.06538,36.9309717 108.043676,37.6254839 108.4235,38.1454193 C108.78162,38.6442102 109.476155,38.9272199 110.073021,38.9272199 C110.659035,38.9272199 111.29931,38.6561378 111.679133,38.20072 C112.113218,37.6797003 112.080662,36.9640437 112.080662,36.32429 L112.080662,31.4556564 L112.992239,31.4556564 L112.992239,36.5742277 C112.992239,37.4628347 112.927126,38.167648 112.276,38.8404736 C111.71169,39.4471553 110.897781,39.7719116 110.073021,39.7719116 C109.302521,39.7719116 108.510317,39.4796851 107.956859,38.937521 C107.240077,38.2549364 107.15326,37.5062078 107.15326,36.5742277 L107.15326,31.4556564 L108.06538,31.4556564 L108.06538,36.32429 Z" id="Fill-33" fill="#FEFEFE" mask="url(#mask-4)"></path>
                    <path d="M121.163716,35.2399618 L121.445871,35.2399618 C122.476822,35.2399618 123.518624,35.0453249 123.518624,33.7766609 C123.518624,32.4315518 122.531082,32.3014324 121.435019,32.3014324 L121.163716,32.3014324 L121.163716,35.2399618 Z M121.163716,39.6314911 L120.251596,39.6314911 L120.251596,31.4556564 L121.435019,31.4556564 C122.986328,31.4556564 124.430202,31.867159 124.430202,33.7110591 C124.430202,34.9688798 123.637997,35.8585711 122.379153,35.9664617 L124.983659,39.6314911 L123.865892,39.6314911 L121.39161,36.0423647 L121.163716,36.0423647 L121.163716,39.6314911 Z" id="Fill-34" fill="#FEFEFE" mask="url(#mask-4)"></path>
                    <polygon id="Fill-35" fill="#FEFEFE" mask="url(#mask-4)" points="131.777352 31.4554395 136.020528 31.4554395 136.020528 32.3017577 132.68893 32.3017577 132.68893 34.7306529 135.923402 34.7306529 135.923402 35.5758867 132.68893 35.5758867 132.68893 38.7860404 136.020528 38.7860404 136.020528 39.6312742 131.777352 39.6312742"></polygon>
                    <polygon id="Fill-36" fill="#FEFEFE" mask="url(#mask-4)" points="146.1564 33.1465036 146.1564 35.3471477 148.359921 35.3471477 148.359921 36.1929237 146.1564 36.1929237 146.1564 38.3946521 145.309935 38.3946521 145.309935 36.1929237 143.107499 36.1929237 143.107499 35.3471477 145.309935 35.3471477 145.309935 33.1465036"></polygon>
                    <polygon id="Fill-37" fill="#FEFEFE" mask="url(#mask-4)" points="155.54288 31.4554395 159.786055 31.4554395 159.786055 32.3017577 156.455542 32.3017577 156.455542 34.7306529 159.688929 34.7306529 159.688929 35.5758867 156.455542 35.5758867 156.455542 38.7860404 159.786055 38.7860404 159.786055 39.6312742 155.54288 39.6312742"></polygon>
                    <polygon id="Fill-38" fill="#FEFEFE" mask="url(#mask-4)" points="167.036134 31.1091593 173.417175 37.7875367 173.417175 31.4556022 174.328753 31.4556022 174.328753 39.9995663 167.947711 33.3320321 167.947711 39.6314368 167.036134 39.6314368"></polygon>
                    <path d="M189.282962,35.5216703 C189.304124,36.6282272 189.185293,37.5390629 188.436498,38.4059833 C187.687159,39.2734459 186.547688,39.7722369 185.408216,39.7722369 C183.107568,39.7722369 181.198139,37.8638192 181.198139,35.5650434 C181.198139,33.2228945 183.107568,31.3144769 185.462477,31.3144769 C186.895498,31.3144769 188.056674,31.9542305 188.924843,33.0819318 L188.262321,33.7005411 C187.578638,32.735489 186.656751,32.160795 185.452167,32.160795 C183.585604,32.160795 182.109174,33.7330709 182.109174,35.5758867 C182.109174,36.4438914 182.456984,37.2679809 183.06416,37.8860479 C183.661026,38.4824285 184.529738,38.927003 185.387054,38.927003 C186.808681,38.927003 188.30573,37.8860479 188.30573,36.3679885 L185.874857,36.3679885 L185.874857,35.5216703 L189.282962,35.5216703 Z" id="Fill-39" fill="#FEFEFE" mask="url(#mask-4)"></path>
                    <polygon id="Fill-40" fill="#FEFEFE" mask="url(#mask-4)" points="196.238189 39.6311115 197.150852 39.6311115 197.150852 31.4552769 196.238189 31.4552769"></polygon>
                    <polygon id="Fill-41" fill="#FEFEFE" mask="url(#mask-4)" points="204.507715 31.1091593 210.888757 37.7875367 210.888757 31.4556022 211.800334 31.4556022 211.800334 39.9995663 205.419292 33.3320321 205.419292 39.6314368 204.507715 39.6314368"></polygon>
                    <polygon id="Fill-42" fill="#FEFEFE" mask="url(#mask-4)" points="219.147485 31.4554395 223.39066 31.4554395 223.39066 32.3017577 220.059062 32.3017577 220.059062 34.7306529 223.293534 34.7306529 223.293534 35.5758867 220.059062 35.5758867 220.059062 38.7860404 223.39066 38.7860404 223.39066 39.6312742 219.147485 39.6312742"></polygon>
                    <polygon id="Fill-43" fill="#FEFEFE" mask="url(#mask-4)" points="230.585665 31.4554395 234.82884 31.4554395 234.82884 32.3017577 231.497242 32.3017577 231.497242 34.7306529 234.731714 34.7306529 234.731714 35.5758867 231.497242 35.5758867 231.497242 38.7860404 234.82884 38.7860404 234.82884 39.6312742 230.585665 39.6312742"></polygon>
                    <path d="M242.935205,35.2399618 L243.21736,35.2399618 C244.24831,35.2399618 245.290113,35.0453249 245.290113,33.7766609 C245.290113,32.4315518 244.302571,32.3014324 243.206507,32.3014324 L242.935205,32.3014324 L242.935205,35.2399618 Z M242.935205,39.6314911 L242.023627,39.6314911 L242.023627,31.4556564 L243.206507,31.4556564 C244.757817,31.4556564 246.20169,31.867159 246.20169,33.7110591 C246.20169,34.9688798 245.410029,35.8585711 244.150641,35.9664617 L246.75569,39.6314911 L245.63738,39.6314911 L243.163099,36.0423647 L242.935205,36.0423647 L242.935205,39.6314911 Z" id="Fill-44" fill="#FEFEFE" mask="url(#mask-4)"></path>
                    <polygon id="Fill-45" fill="#FEFEFE" mask="url(#mask-4)" points="253.569894 39.6311115 254.481471 39.6311115 254.481471 31.4552769 253.569894 31.4552769"></polygon>
                    <polygon id="Fill-46" fill="#FEFEFE" mask="url(#mask-4)" points="261.839529 31.1091593 268.22057 37.7875367 268.22057 31.4556022 269.131605 31.4556022 269.131605 39.9995663 262.751106 33.3320321 262.751106 39.6314368 261.839529 39.6314368"></polygon>
                    <path d="M284.086357,35.5216703 C284.107519,36.6282272 283.988688,37.5390629 283.23935,38.4059833 C282.490554,39.2734459 281.351082,39.7722369 280.211611,39.7722369 C277.910963,39.7722369 276.001534,37.8638192 276.001534,35.5650434 C276.001534,33.2228945 277.910963,31.3144769 280.265871,31.3144769 C281.698893,31.3144769 282.860068,31.9542305 283.728237,33.0819318 L283.065716,33.7005411 C282.382033,32.735489 281.460146,32.160795 280.255019,32.160795 C278.388999,32.160795 276.912569,33.7330709 276.912569,35.5758867 C276.912569,36.4438914 277.260379,37.2679809 277.867555,37.8860479 C278.464421,38.4824285 279.333132,38.927003 280.190449,38.927003 C281.611533,38.927003 283.109124,37.8860479 283.109124,36.3679885 L280.678251,36.3679885 L280.678251,35.5216703 L284.086357,35.5216703 Z" id="Fill-47" fill="#FEFEFE" mask="url(#mask-4)"></path>
                </g>
            </g>
        </g>
    </g>
</svg>