<?xml version="1.0" encoding="utf-8"?>
<!-- Generator: Adobe Illustrator 27.0.1, SVG Export Plug-In . SVG Version: 6.00 Build 0)  -->
<svg version="1.1" id="Layer_1" xmlns="http://www.w3.org/2000/svg" xmlns:xlink="http://www.w3.org/1999/xlink" x="0px" y="0px"
	 viewBox="0 0 295 40" style="enable-background:new 0 0 295 40;" xml:space="preserve">
<style type="text/css">
	.st0{fill-rule:evenodd;clip-rule:evenodd;fill:#808080;}
	.st1{fill-rule:evenodd;clip-rule:evenodd;fill:#3A73B9;}
	.st2{filter:url(#Adobe_OpacityMaskFilter);}
	.st3{fill-rule:evenodd;clip-rule:evenodd;fill:#FFFFFF;}
	.st4{mask:url(#mask-2_00000010277982492043236800000015308528534087369354_);fill-rule:evenodd;clip-rule:evenodd;fill:#808080;}
	.st5{filter:url(#Adobe_OpacityMaskFilter_00000075152638838992177590000016485741411274291370_);}
	.st6{mask:url(#mask-4_00000142895517770186341980000014895718046363926158_);fill-rule:evenodd;clip-rule:evenodd;fill:#808080;}
	.st7{filter:url(#Adobe_OpacityMaskFilter_00000034775509838216735230000005479247964804139664_);}
	.st8{mask:url(#mask-4_00000075857203305912119730000008701872928928987034_);fill-rule:evenodd;clip-rule:evenodd;fill:#808080;}
	.st9{filter:url(#Adobe_OpacityMaskFilter_00000001627417045658019750000014396275873146679997_);}
	.st10{mask:url(#mask-4_00000137832071456771219740000014469938498827599754_);fill-rule:evenodd;clip-rule:evenodd;fill:#808080;}
	.st11{filter:url(#Adobe_OpacityMaskFilter_00000067214218486567773440000003296659004233785519_);}
	.st12{mask:url(#mask-4_00000088109942106180716240000013364559105264153789_);fill-rule:evenodd;clip-rule:evenodd;fill:#808080;}
	.st13{filter:url(#Adobe_OpacityMaskFilter_00000094619257550379922560000003282726189192731052_);}
	.st14{mask:url(#mask-4_00000147913561045064838570000005349668284837939115_);fill-rule:evenodd;clip-rule:evenodd;fill:#808080;}
	.st15{filter:url(#Adobe_OpacityMaskFilter_00000009566201498505664750000012711539607396925875_);}
	.st16{mask:url(#mask-4_00000080900386867953232220000005476357903362489777_);fill-rule:evenodd;clip-rule:evenodd;fill:#808080;}
	.st17{filter:url(#Adobe_OpacityMaskFilter_00000142860121398887161420000003407959720794627503_);}
	.st18{mask:url(#mask-4_00000010294772078933795040000010910830791495903634_);fill-rule:evenodd;clip-rule:evenodd;fill:#808080;}
	.st19{filter:url(#Adobe_OpacityMaskFilter_00000101790166422997487900000013099768555844376991_);}
	.st20{mask:url(#mask-4_00000141415374103815973620000008663608707621406392_);fill-rule:evenodd;clip-rule:evenodd;fill:#808080;}
	.st21{filter:url(#Adobe_OpacityMaskFilter_00000148631440455687972120000017560372129609361294_);}
	.st22{mask:url(#mask-4_00000071519827185694778060000005567323879878638011_);fill-rule:evenodd;clip-rule:evenodd;fill:#808080;}
	.st23{filter:url(#Adobe_OpacityMaskFilter_00000104703488020045059480000016061594229029729932_);}
	.st24{mask:url(#mask-4_00000080190189922852376780000014842850372361117855_);fill-rule:evenodd;clip-rule:evenodd;fill:#808080;}
	.st25{filter:url(#Adobe_OpacityMaskFilter_00000111906059565659836170000001889135019992490636_);}
	.st26{mask:url(#mask-4_00000125590180390369351510000003621686378148170132_);fill-rule:evenodd;clip-rule:evenodd;fill:#808080;}
	.st27{filter:url(#Adobe_OpacityMaskFilter_00000088817610874961427800000008722977650673663886_);}
	.st28{mask:url(#mask-4_00000161619457819577267830000013533491277205591464_);fill-rule:evenodd;clip-rule:evenodd;fill:#808080;}
	.st29{filter:url(#Adobe_OpacityMaskFilter_00000075842333117419590650000016193590529230686853_);}
	.st30{mask:url(#mask-4_00000086693542501534445190000016555342125666743981_);fill-rule:evenodd;clip-rule:evenodd;fill:#808080;}
	.st31{filter:url(#Adobe_OpacityMaskFilter_00000097480847720418631400000016362810175384130198_);}
	.st32{mask:url(#mask-4_00000160152666776811329750000003423220809482104471_);fill-rule:evenodd;clip-rule:evenodd;fill:#808080;}
	.st33{filter:url(#Adobe_OpacityMaskFilter_00000119085380169691838880000018338131190206937745_);}
	.st34{mask:url(#mask-4_00000135666019002697091420000011150241239865115839_);fill-rule:evenodd;clip-rule:evenodd;fill:#808080;}
	.st35{filter:url(#Adobe_OpacityMaskFilter_00000026161541829113616240000002261599958162289332_);}
	.st36{mask:url(#mask-4_00000156551584782890949570000016839408926799260594_);fill-rule:evenodd;clip-rule:evenodd;fill:#808080;}
	.st37{filter:url(#Adobe_OpacityMaskFilter_00000173872554795605994880000015482514734656288171_);}
	.st38{mask:url(#mask-4_00000169528807238827746730000006565369587969202079_);fill-rule:evenodd;clip-rule:evenodd;fill:#808080;}
	.st39{filter:url(#Adobe_OpacityMaskFilter_00000132783455606019430140000016106916348275728550_);}
	.st40{mask:url(#mask-4_00000065771920072553243050000003969193386658475693_);fill-rule:evenodd;clip-rule:evenodd;fill:#808080;}
	.st41{filter:url(#Adobe_OpacityMaskFilter_00000111168082513745576600000013022815583367621809_);}
	.st42{mask:url(#mask-4_00000089559132323256092800000003387086489693066638_);fill-rule:evenodd;clip-rule:evenodd;fill:#808080;}
	.st43{filter:url(#Adobe_OpacityMaskFilter_00000026163966593690186590000007977797435579754159_);}
	.st44{mask:url(#mask-4_00000120551749033981242850000011886085818989068206_);fill-rule:evenodd;clip-rule:evenodd;fill:#808080;}
</style>
<g id="Symbols">
	<g id="header---gradient-copy" transform="translate(-212.000000, -81.000000)">
		<g id="Group-49" transform="translate(212.000000, 81.000000)">
			<polygon id="Fill-1" class="st0" points="218.3,0.2 218.3,22.6 239.5,22.6 239.5,18.8 222.1,18.8 222.1,4 239.5,4 239.5,0.2 			
				"/>
			<polygon id="Fill-2" class="st0" points="226.2,12.7 226.2,9.2 226.2,9 239.4,9 239.4,12.7 			"/>
			<polygon id="Fill-3" class="st1" points="49,0.2 49,8.9 32.5,8.9 32.5,0.2 28.8,0.2 28.8,0.3 28.8,22.6 32.5,22.6 32.5,12.7 
				49,12.7 49,22.6 52.8,22.6 52.8,0.2 			"/>
			<polygon id="Fill-4" class="st1" points="58,0.2 58,0.3 58,22.6 61.8,22.6 61.8,0.2 			"/>
			<polygon id="Fill-5" class="st1" points="87.7,0.2 77.7,18.7 67.8,0.2 63.5,0.2 63.6,0.4 75.6,22.8 79.6,22.8 91.8,0.2 			"/>
			<polygon id="Fill-6" class="st1" points="93.3,0.2 93.3,22.6 114.5,22.6 114.5,18.8 97.1,18.8 97.1,4 114.5,4 114.5,0.2 			"/>
			<path id="Fill-7" class="st0" d="M138.1,0.2v0.2v22.3h3.8V0.2H138.1z M117.9,0.2v22.5h3.8v-9.9h13.7v-0.2l0-3.6h-13.7V0.2H117.9z
				"/>
			<path id="Fill-8" class="st0" d="M156.1,0l-12.2,22.6h4.1l0.1-0.1l2.3-4.3h15.2l2.4,4.5h4.3L160,0H156.1z M158,4.1l5.6,10.4
				h-11.2L158,4.1z"/>
			<polygon id="Fill-9" class="st0" points="166.4,0.2 166.4,4 177.4,4 177.4,22.6 181.2,22.6 181.2,4 201,4 201,22.6 204.8,22.6 
				204.8,4 215.7,4 215.7,0.2 192.1,0.2 192.1,0.2 			"/>
			<g id="Group-48" transform="translate(0.000000, 0.000217)">
				<path id="Fill-10" class="st0" d="M258.8,11.2c0,0,0.1,0,0.1,0c1.4,0,2.4-0.1,3.1-0.6c0.6-0.5,0.9-1.4,0.9-3
					c0-1.7-0.3-2.6-1-3.1c-0.6-0.5-1.7-0.6-3.2-0.6h-11.6v7.3H258.8L258.8,11.2z M268.3,22.3l0.3,0.3h-5l-7.8-7.8h-8.7v7.8h-3.8V0.2
					h15.6c2.6,0,4.6,0.5,5.9,1.6c1.3,1.2,1.9,3,1.9,5.7c0,4.4-2.1,6.6-6.1,7.1L268.3,22.3z"/>
				<g id="Group-14" transform="translate(266.094424, 0.150451)">
					<g id="Clip-13">
					</g>
					<defs>
						<filter id="Adobe_OpacityMaskFilter" filterUnits="userSpaceOnUse" x="0" y="0" width="28.9" height="22.5">
							<feColorMatrix  type="matrix" values="1 0 0 0 0  0 1 0 0 0  0 0 1 0 0  0 0 0 1 0"/>
						</filter>
					</defs>
					
						<mask maskUnits="userSpaceOnUse" x="0" y="0" width="28.9" height="22.5" id="mask-2_00000010277982492043236800000015308528534087369354_">
						<g class="st2">
							<polygon id="path-1_00000030458283641468575320000007052791030511597229_" class="st3" points="0,0 28.9,0 28.9,22.5 0,22.5 
															"/>
						</g>
					</mask>
					<polygon id="Fill-12" class="st4" points="0.3,0.3 0,0 4.9,0 14.5,10.7 24.2,0 28.9,0 16.3,13.9 16.3,22.5 12.6,22.5 
						12.6,13.9 					"/>
				</g>
				<polygon id="Fill-15" class="st1" points="101.2,12.7 101.2,9.2 101.2,9 114.3,9 114.3,12.7 				"/>
				<path id="Fill-17" class="st1" d="M0.5,22.6l0-3.5l0-0.3h16.8c0.2,0,0.3,0,0.5,0c0.9,0,1.6,0,2.3-0.5c1-0.6,1.5-1.6,1.5-2.7v0
					v-0.1c0-1.1-0.6-2-1.6-2.6c-0.7-0.4-1.3-0.4-2.1-0.4c-0.2,0-0.4,0-0.5,0H6.9c-2,0-3.6-0.5-4.9-1.6C0.7,9.8,0,8.1,0,6.2
					c0-1.9,0.7-3.3,2.1-4.5C3.4,0.6,5,0.1,6.9,0.1h17.2v3.6H6.9h0c-0.8,0-1.5,0.1-2,0.6C4.3,4.7,4,5.4,3.9,6.2c0,0,0,0,0,0.1
					c0,0,0,0,0,0c0,0.8,0.3,1.5,0.9,2c0.6,0.4,1.2,0.7,2.1,0.7h0h10.9c2.2,0,4,0.6,5.4,1.8c1.4,1.2,2.2,2.8,2.2,4.8h0l0,0.3
					c0,2.1-0.7,3.8-2.2,5.1c-1.4,1.2-3,1.8-5.4,1.8H0.5z"/>
				<path id="Fill-19" class="st0" d="M4,33.2l-1.4,3.3h2.8L4,33.2z M2.2,37.3l-1,2.3h-1L4,31.1l3.7,8.6h-1l-1-2.3H2.2z"/>
				<path id="Fill-21" class="st0" d="M15.2,35.2h0.3c1,0,2.1-0.2,2.1-1.5c0-1.3-1-1.5-2.1-1.5h-0.3V35.2z M15.2,39.6h-0.9v-8.2h1.2
					c1.6,0,3,0.4,3,2.3c0,1.3-0.8,2.1-2.1,2.3l2.6,3.7h-1.1L15.4,36h-0.2V39.6z"/>
				<path id="Fill-23" class="st0" d="M32,33.2c-0.7-0.7-1.6-1.1-2.5-1.1c-1.8,0-3.3,1.6-3.3,3.4c0,1.8,1.5,3.4,3.3,3.4
					c0.9,0,1.8-0.4,2.5-1.1V39c-0.7,0.5-1.6,0.8-2.4,0.8c-2.3,0-4.3-1.9-4.3-4.2c0-2.3,1.9-4.3,4.3-4.3c0.9,0,1.7,0.3,2.4,0.8V33.2z
					"/>
				<polygon id="Fill-25" class="st0" points="44.3,34.8 44.3,31.5 45.3,31.5 45.3,39.6 44.3,39.6 44.3,35.6 40.2,35.6 40.2,39.6 
					39.2,39.6 39.2,31.5 40.2,31.5 40.2,34.8 				"/>
				<g id="Clip-28">
				</g>
				<defs>
					
						<filter id="Adobe_OpacityMaskFilter_00000039822531471623463870000002927259993347430036_" filterUnits="userSpaceOnUse" x="52.6" y="31.5" width="0.9" height="8.2">
						<feColorMatrix  type="matrix" values="1 0 0 0 0  0 1 0 0 0  0 0 1 0 0  0 0 0 1 0"/>
					</filter>
				</defs>
				
					<mask maskUnits="userSpaceOnUse" x="52.6" y="31.5" width="0.9" height="8.2" id="mask-4_00000142895517770186341980000014895718046363926158_">
					<g style="filter:url(#Adobe_OpacityMaskFilter_00000039822531471623463870000002927259993347430036_);">
						<polygon id="path-3_00000023279482832554792510000001183794620869409419_" class="st3" points="0,40 295,40 295,0 0,0 						
							"/>
					</g>
				</mask>
				<polygon id="Fill-27" class="st6" points="52.6,39.6 53.5,39.6 53.5,31.5 52.6,31.5 				"/>
				<defs>
					
						<filter id="Adobe_OpacityMaskFilter_00000018929287998740631290000012189334790943007124_" filterUnits="userSpaceOnUse" x="60.1" y="31.5" width="4.9" height="8.2">
						<feColorMatrix  type="matrix" values="1 0 0 0 0  0 1 0 0 0  0 0 1 0 0  0 0 0 1 0"/>
					</filter>
				</defs>
				
					<mask maskUnits="userSpaceOnUse" x="60.1" y="31.5" width="4.9" height="8.2" id="mask-4_00000075857203305912119730000008701872928928987034_">
					<g style="filter:url(#Adobe_OpacityMaskFilter_00000018929287998740631290000012189334790943007124_);">
						<polygon id="path-3_00000076591101060250230960000014003662871407313546_" class="st3" points="0,40 295,40 295,0 0,0 						
							"/>
					</g>
				</mask>
				<polygon id="Fill-29" class="st8" points="63,39.6 62.1,39.6 62.1,32.3 60.1,32.3 60.1,31.5 65,31.5 65,32.3 63,32.3 				"/>
				<defs>
					
						<filter id="Adobe_OpacityMaskFilter_00000066509215046239844460000003197929537381908113_" filterUnits="userSpaceOnUse" x="71.6" y="31.5" width="4.2" height="8.2">
						<feColorMatrix  type="matrix" values="1 0 0 0 0  0 1 0 0 0  0 0 1 0 0  0 0 0 1 0"/>
					</filter>
				</defs>
				
					<mask maskUnits="userSpaceOnUse" x="71.6" y="31.5" width="4.2" height="8.2" id="mask-4_00000137832071456771219740000014469938498827599754_">
					<g style="filter:url(#Adobe_OpacityMaskFilter_00000066509215046239844460000003197929537381908113_);">
						<polygon id="path-3_00000008120460556036807270000008491137695251493031_" class="st3" points="0,40 295,40 295,0 0,0 						
							"/>
					</g>
				</mask>
				<polygon id="Fill-30" class="st10" points="71.6,31.5 75.8,31.5 75.8,32.3 72.5,32.3 72.5,34.7 75.7,34.7 75.7,35.6 72.5,35.6 
					72.5,38.8 75.8,38.8 75.8,39.6 71.6,39.6 				"/>
				<defs>
					
						<filter id="Adobe_OpacityMaskFilter_00000070802752959084213950000014285862977708597155_" filterUnits="userSpaceOnUse" x="82.5" y="31.3" width="6.7" height="8.5">
						<feColorMatrix  type="matrix" values="1 0 0 0 0  0 1 0 0 0  0 0 1 0 0  0 0 0 1 0"/>
					</filter>
				</defs>
				
					<mask maskUnits="userSpaceOnUse" x="82.5" y="31.3" width="6.7" height="8.5" id="mask-4_00000088109942106180716240000013364559105264153789_">
					<g style="filter:url(#Adobe_OpacityMaskFilter_00000070802752959084213950000014285862977708597155_);">
						<polygon id="path-3_00000102503464832544948170000011255416560004036765_" class="st3" points="0,40 295,40 295,0 0,0 						
							"/>
					</g>
				</mask>
				<path id="Fill-31" class="st12" d="M89.2,33.2c-0.7-0.7-1.6-1.1-2.5-1.1c-1.8,0-3.3,1.6-3.3,3.4c0,1.8,1.5,3.4,3.3,3.4
					c0.9,0,1.8-0.4,2.5-1.1V39c-0.7,0.5-1.6,0.8-2.4,0.8c-2.3,0-4.3-1.9-4.3-4.2c0-2.3,1.9-4.3,4.3-4.3c0.9,0,1.7,0.3,2.4,0.8V33.2z
					"/>
				<defs>
					
						<filter id="Adobe_OpacityMaskFilter_00000008122631770288071330000002359490259436235441_" filterUnits="userSpaceOnUse" x="95.7" y="31.5" width="4.9" height="8.2">
						<feColorMatrix  type="matrix" values="1 0 0 0 0  0 1 0 0 0  0 0 1 0 0  0 0 0 1 0"/>
					</filter>
				</defs>
				
					<mask maskUnits="userSpaceOnUse" x="95.7" y="31.5" width="4.9" height="8.2" id="mask-4_00000147913561045064838570000005349668284837939115_">
					<g style="filter:url(#Adobe_OpacityMaskFilter_00000008122631770288071330000002359490259436235441_);">
						<polygon id="path-3_00000072250967656298545810000004425079107976181633_" class="st3" points="0,40 295,40 295,0 0,0 						
							"/>
					</g>
				</mask>
				<polygon id="Fill-32" class="st14" points="98.6,39.6 97.7,39.6 97.7,32.3 95.7,32.3 95.7,31.5 100.6,31.5 100.6,32.3 
					98.6,32.3 				"/>
				<defs>
					
						<filter id="Adobe_OpacityMaskFilter_00000100383730186507556260000006365866332108079551_" filterUnits="userSpaceOnUse" x="107.2" y="31.5" width="5.8" height="8.3">
						<feColorMatrix  type="matrix" values="1 0 0 0 0  0 1 0 0 0  0 0 1 0 0  0 0 0 1 0"/>
					</filter>
				</defs>
				
					<mask maskUnits="userSpaceOnUse" x="107.2" y="31.5" width="5.8" height="8.3" id="mask-4_00000080900386867953232220000005476357903362489777_">
					<g style="filter:url(#Adobe_OpacityMaskFilter_00000100383730186507556260000006365866332108079551_);">
						<polygon id="path-3_00000169552617818688471040000005124632189825824133_" class="st3" points="0,40 295,40 295,0 0,0 						
							"/>
					</g>
				</mask>
				<path id="Fill-33" class="st16" d="M108.1,36.3c0,0.6,0,1.3,0.4,1.8c0.4,0.5,1.1,0.8,1.6,0.8c0.6,0,1.2-0.3,1.6-0.7
					c0.4-0.5,0.4-1.2,0.4-1.9v-4.9h0.9v5.1c0,0.9-0.1,1.6-0.7,2.3c-0.6,0.6-1.4,0.9-2.2,0.9c-0.8,0-1.6-0.3-2.1-0.8
					c-0.7-0.7-0.8-1.4-0.8-2.4v-5.1h0.9V36.3z"/>
				<defs>
					
						<filter id="Adobe_OpacityMaskFilter_00000134972413778845210380000010516366416900312757_" filterUnits="userSpaceOnUse" x="120.3" y="31.5" width="4.7" height="8.2">
						<feColorMatrix  type="matrix" values="1 0 0 0 0  0 1 0 0 0  0 0 1 0 0  0 0 0 1 0"/>
					</filter>
				</defs>
				
					<mask maskUnits="userSpaceOnUse" x="120.3" y="31.5" width="4.7" height="8.2" id="mask-4_00000010294772078933795040000010910830791495903634_">
					<g style="filter:url(#Adobe_OpacityMaskFilter_00000134972413778845210380000010516366416900312757_);">
						<polygon id="path-3_00000079455558198799354600000004215807940290600378_" class="st3" points="0,40 295,40 295,0 0,0 						
							"/>
					</g>
				</mask>
				<path id="Fill-34" class="st18" d="M121.2,35.2h0.3c1,0,2.1-0.2,2.1-1.5c0-1.3-1-1.5-2.1-1.5h-0.3V35.2z M121.2,39.6h-0.9v-8.2
					h1.2c1.6,0,3,0.4,3,2.3c0,1.3-0.8,2.1-2.1,2.3l2.6,3.7h-1.1l-2.5-3.6h-0.2V39.6z"/>
				<defs>
					
						<filter id="Adobe_OpacityMaskFilter_00000168115001533990382830000010023499196932193465_" filterUnits="userSpaceOnUse" x="131.8" y="31.5" width="4.2" height="8.2">
						<feColorMatrix  type="matrix" values="1 0 0 0 0  0 1 0 0 0  0 0 1 0 0  0 0 0 1 0"/>
					</filter>
				</defs>
				
					<mask maskUnits="userSpaceOnUse" x="131.8" y="31.5" width="4.2" height="8.2" id="mask-4_00000141415374103815973620000008663608707621406392_">
					<g style="filter:url(#Adobe_OpacityMaskFilter_00000168115001533990382830000010023499196932193465_);">
						<polygon id="path-3_00000116232499330303819520000007961197594604436376_" class="st3" points="0,40 295,40 295,0 0,0 						
							"/>
					</g>
				</mask>
				<polygon id="Fill-35" class="st20" points="131.8,31.5 136,31.5 136,32.3 132.7,32.3 132.7,34.7 135.9,34.7 135.9,35.6 
					132.7,35.6 132.7,38.8 136,38.8 136,39.6 131.8,39.6 				"/>
				<defs>
					
						<filter id="Adobe_OpacityMaskFilter_00000003817608708130015900000008543861751951229596_" filterUnits="userSpaceOnUse" x="143.1" y="33.1" width="5.3" height="5.2">
						<feColorMatrix  type="matrix" values="1 0 0 0 0  0 1 0 0 0  0 0 1 0 0  0 0 0 1 0"/>
					</filter>
				</defs>
				
					<mask maskUnits="userSpaceOnUse" x="143.1" y="33.1" width="5.3" height="5.2" id="mask-4_00000071519827185694778060000005567323879878638011_">
					<g style="filter:url(#Adobe_OpacityMaskFilter_00000003817608708130015900000008543861751951229596_);">
						<polygon id="path-3_00000059283172345661495230000014897693348061321873_" class="st3" points="0,40 295,40 295,0 0,0 						
							"/>
					</g>
				</mask>
				<polygon id="Fill-36" class="st22" points="146.2,33.1 146.2,35.3 148.4,35.3 148.4,36.2 146.2,36.2 146.2,38.4 145.3,38.4 
					145.3,36.2 143.1,36.2 143.1,35.3 145.3,35.3 145.3,33.1 				"/>
				<defs>
					
						<filter id="Adobe_OpacityMaskFilter_00000012457690577399203160000008851753565464058018_" filterUnits="userSpaceOnUse" x="155.5" y="31.5" width="4.2" height="8.2">
						<feColorMatrix  type="matrix" values="1 0 0 0 0  0 1 0 0 0  0 0 1 0 0  0 0 0 1 0"/>
					</filter>
				</defs>
				
					<mask maskUnits="userSpaceOnUse" x="155.5" y="31.5" width="4.2" height="8.2" id="mask-4_00000080190189922852376780000014842850372361117855_">
					<g style="filter:url(#Adobe_OpacityMaskFilter_00000012457690577399203160000008851753565464058018_);">
						<polygon id="path-3_00000073719062553495274500000010840724204023093430_" class="st3" points="0,40 295,40 295,0 0,0 						
							"/>
					</g>
				</mask>
				<polygon id="Fill-37" class="st24" points="155.5,31.5 159.8,31.5 159.8,32.3 156.5,32.3 156.5,34.7 159.7,34.7 159.7,35.6 
					156.5,35.6 156.5,38.8 159.8,38.8 159.8,39.6 155.5,39.6 				"/>
				<defs>
					
						<filter id="Adobe_OpacityMaskFilter_00000057147421951748636100000006459664040767646849_" filterUnits="userSpaceOnUse" x="167" y="31.1" width="7.3" height="8.9">
						<feColorMatrix  type="matrix" values="1 0 0 0 0  0 1 0 0 0  0 0 1 0 0  0 0 0 1 0"/>
					</filter>
				</defs>
				
					<mask maskUnits="userSpaceOnUse" x="167" y="31.1" width="7.3" height="8.9" id="mask-4_00000125590180390369351510000003621686378148170132_">
					<g style="filter:url(#Adobe_OpacityMaskFilter_00000057147421951748636100000006459664040767646849_);">
						<polygon id="path-3_00000147907492524940515440000014132834114548657551_" class="st3" points="0,40 295,40 295,0 0,0 						
							"/>
					</g>
				</mask>
				<polygon id="Fill-38" class="st26" points="167,31.1 173.4,37.8 173.4,31.5 174.3,31.5 174.3,40 167.9,33.3 167.9,39.6 
					167,39.6 				"/>
				<defs>
					
						<filter id="Adobe_OpacityMaskFilter_00000047759524959309630650000018431784637769184418_" filterUnits="userSpaceOnUse" x="181.2" y="31.3" width="8.1" height="8.5">
						<feColorMatrix  type="matrix" values="1 0 0 0 0  0 1 0 0 0  0 0 1 0 0  0 0 0 1 0"/>
					</filter>
				</defs>
				
					<mask maskUnits="userSpaceOnUse" x="181.2" y="31.3" width="8.1" height="8.5" id="mask-4_00000161619457819577267830000013533491277205591464_">
					<g style="filter:url(#Adobe_OpacityMaskFilter_00000047759524959309630650000018431784637769184418_);">
						<polygon id="path-3_00000081628988195101148570000000905032292013020605_" class="st3" points="0,40 295,40 295,0 0,0 						
							"/>
					</g>
				</mask>
				<path id="Fill-39" class="st28" d="M189.3,35.5c0,1.1-0.1,2-0.8,2.9c-0.7,0.9-1.9,1.4-3,1.4c-2.3,0-4.2-1.9-4.2-4.2
					c0-2.3,1.9-4.3,4.3-4.3c1.4,0,2.6,0.6,3.5,1.8l-0.7,0.6c-0.7-1-1.6-1.5-2.8-1.5c-1.9,0-3.3,1.6-3.3,3.4c0,0.9,0.3,1.7,1,2.3
					c0.6,0.6,1.5,1,2.3,1c1.4,0,2.9-1,2.9-2.6h-2.4v-0.8H189.3z"/>
				<defs>
					
						<filter id="Adobe_OpacityMaskFilter_00000144326139485416972360000005763725193977626535_" filterUnits="userSpaceOnUse" x="196.2" y="31.5" width="0.9" height="8.2">
						<feColorMatrix  type="matrix" values="1 0 0 0 0  0 1 0 0 0  0 0 1 0 0  0 0 0 1 0"/>
					</filter>
				</defs>
				
					<mask maskUnits="userSpaceOnUse" x="196.2" y="31.5" width="0.9" height="8.2" id="mask-4_00000086693542501534445190000016555342125666743981_">
					<g style="filter:url(#Adobe_OpacityMaskFilter_00000144326139485416972360000005763725193977626535_);">
						<polygon id="path-3_00000078015901013597949010000011957029113724101564_" class="st3" points="0,40 295,40 295,0 0,0 						
							"/>
					</g>
				</mask>
				<polygon id="Fill-40" class="st30" points="196.2,39.6 197.2,39.6 197.2,31.5 196.2,31.5 				"/>
				<defs>
					
						<filter id="Adobe_OpacityMaskFilter_00000176012629671671968820000014230453215112962460_" filterUnits="userSpaceOnUse" x="204.5" y="31.1" width="7.3" height="8.9">
						<feColorMatrix  type="matrix" values="1 0 0 0 0  0 1 0 0 0  0 0 1 0 0  0 0 0 1 0"/>
					</filter>
				</defs>
				
					<mask maskUnits="userSpaceOnUse" x="204.5" y="31.1" width="7.3" height="8.9" id="mask-4_00000160152666776811329750000003423220809482104471_">
					<g style="filter:url(#Adobe_OpacityMaskFilter_00000176012629671671968820000014230453215112962460_);">
						<polygon id="path-3_00000090975389195037342850000017947321203044117176_" class="st3" points="0,40 295,40 295,0 0,0 						
							"/>
					</g>
				</mask>
				<polygon id="Fill-41" class="st32" points="204.5,31.1 210.9,37.8 210.9,31.5 211.8,31.5 211.8,40 205.4,33.3 205.4,39.6 
					204.5,39.6 				"/>
				<defs>
					
						<filter id="Adobe_OpacityMaskFilter_00000074433782811567591220000010985676331791329420_" filterUnits="userSpaceOnUse" x="219.1" y="31.5" width="4.2" height="8.2">
						<feColorMatrix  type="matrix" values="1 0 0 0 0  0 1 0 0 0  0 0 1 0 0  0 0 0 1 0"/>
					</filter>
				</defs>
				
					<mask maskUnits="userSpaceOnUse" x="219.1" y="31.5" width="4.2" height="8.2" id="mask-4_00000135666019002697091420000011150241239865115839_">
					<g style="filter:url(#Adobe_OpacityMaskFilter_00000074433782811567591220000010985676331791329420_);">
						<polygon id="path-3_00000086668132995569998940000001545506090036349078_" class="st3" points="0,40 295,40 295,0 0,0 						
							"/>
					</g>
				</mask>
				<polygon id="Fill-42" class="st34" points="219.1,31.5 223.4,31.5 223.4,32.3 220.1,32.3 220.1,34.7 223.3,34.7 223.3,35.6 
					220.1,35.6 220.1,38.8 223.4,38.8 223.4,39.6 219.1,39.6 				"/>
				<defs>
					
						<filter id="Adobe_OpacityMaskFilter_00000008868616684743939040000014603826265390649220_" filterUnits="userSpaceOnUse" x="230.6" y="31.5" width="4.2" height="8.2">
						<feColorMatrix  type="matrix" values="1 0 0 0 0  0 1 0 0 0  0 0 1 0 0  0 0 0 1 0"/>
					</filter>
				</defs>
				
					<mask maskUnits="userSpaceOnUse" x="230.6" y="31.5" width="4.2" height="8.2" id="mask-4_00000156551584782890949570000016839408926799260594_">
					<g style="filter:url(#Adobe_OpacityMaskFilter_00000008868616684743939040000014603826265390649220_);">
						<polygon id="path-3_00000095296583952691059900000001551580818779649425_" class="st3" points="0,40 295,40 295,0 0,0 						
							"/>
					</g>
				</mask>
				<polygon id="Fill-43" class="st36" points="230.6,31.5 234.8,31.5 234.8,32.3 231.5,32.3 231.5,34.7 234.7,34.7 234.7,35.6 
					231.5,35.6 231.5,38.8 234.8,38.8 234.8,39.6 230.6,39.6 				"/>
				<defs>
					
						<filter id="Adobe_OpacityMaskFilter_00000013170666946040248710000012217527542182709405_" filterUnits="userSpaceOnUse" x="242" y="31.5" width="4.7" height="8.2">
						<feColorMatrix  type="matrix" values="1 0 0 0 0  0 1 0 0 0  0 0 1 0 0  0 0 0 1 0"/>
					</filter>
				</defs>
				
					<mask maskUnits="userSpaceOnUse" x="242" y="31.5" width="4.7" height="8.2" id="mask-4_00000169528807238827746730000006565369587969202079_">
					<g style="filter:url(#Adobe_OpacityMaskFilter_00000013170666946040248710000012217527542182709405_);">
						<polygon id="path-3_00000020393393398526061650000016140221033584621956_" class="st3" points="0,40 295,40 295,0 0,0 						
							"/>
					</g>
				</mask>
				<path id="Fill-44" class="st38" d="M242.9,35.2h0.3c1,0,2.1-0.2,2.1-1.5c0-1.3-1-1.5-2.1-1.5h-0.3V35.2z M242.9,39.6H242v-8.2
					h1.2c1.6,0,3,0.4,3,2.3c0,1.3-0.8,2.1-2.1,2.3l2.6,3.7h-1.1l-2.5-3.6h-0.2V39.6z"/>
				<defs>
					
						<filter id="Adobe_OpacityMaskFilter_00000042734795529932818440000012492072347889246898_" filterUnits="userSpaceOnUse" x="253.6" y="31.5" width="0.9" height="8.2">
						<feColorMatrix  type="matrix" values="1 0 0 0 0  0 1 0 0 0  0 0 1 0 0  0 0 0 1 0"/>
					</filter>
				</defs>
				
					<mask maskUnits="userSpaceOnUse" x="253.6" y="31.5" width="0.9" height="8.2" id="mask-4_00000065771920072553243050000003969193386658475693_">
					<g style="filter:url(#Adobe_OpacityMaskFilter_00000042734795529932818440000012492072347889246898_);">
						<polygon id="path-3_00000054233150663177745810000017844057612030271621_" class="st3" points="0,40 295,40 295,0 0,0 						
							"/>
					</g>
				</mask>
				<polygon id="Fill-45" class="st40" points="253.6,39.6 254.5,39.6 254.5,31.5 253.6,31.5 				"/>
				<defs>
					
						<filter id="Adobe_OpacityMaskFilter_00000011009217773312135940000006351775276150057111_" filterUnits="userSpaceOnUse" x="261.8" y="31.1" width="7.3" height="8.9">
						<feColorMatrix  type="matrix" values="1 0 0 0 0  0 1 0 0 0  0 0 1 0 0  0 0 0 1 0"/>
					</filter>
				</defs>
				
					<mask maskUnits="userSpaceOnUse" x="261.8" y="31.1" width="7.3" height="8.9" id="mask-4_00000089559132323256092800000003387086489693066638_">
					<g style="filter:url(#Adobe_OpacityMaskFilter_00000011009217773312135940000006351775276150057111_);">
						<polygon id="path-3_00000155133713001519829450000011846570174877037193_" class="st3" points="0,40 295,40 295,0 0,0 						
							"/>
					</g>
				</mask>
				<polygon id="Fill-46" class="st42" points="261.8,31.1 268.2,37.8 268.2,31.5 269.1,31.5 269.1,40 262.8,33.3 262.8,39.6 
					261.8,39.6 				"/>
				<defs>
					
						<filter id="Adobe_OpacityMaskFilter_00000057116470163682520320000000087763472082987662_" filterUnits="userSpaceOnUse" x="276" y="31.3" width="8.1" height="8.5">
						<feColorMatrix  type="matrix" values="1 0 0 0 0  0 1 0 0 0  0 0 1 0 0  0 0 0 1 0"/>
					</filter>
				</defs>
				
					<mask maskUnits="userSpaceOnUse" x="276" y="31.3" width="8.1" height="8.5" id="mask-4_00000120551749033981242850000011886085818989068206_">
					<g style="filter:url(#Adobe_OpacityMaskFilter_00000057116470163682520320000000087763472082987662_);">
						<polygon id="path-3_00000052081354008832970330000000216888538893514943_" class="st3" points="0,40 295,40 295,0 0,0 						
							"/>
					</g>
				</mask>
				<path id="Fill-47" class="st44" d="M284.1,35.5c0,1.1-0.1,2-0.8,2.9c-0.7,0.9-1.9,1.4-3,1.4c-2.3,0-4.2-1.9-4.2-4.2
					c0-2.3,1.9-4.3,4.3-4.3c1.4,0,2.6,0.6,3.5,1.8l-0.7,0.6c-0.7-1-1.6-1.5-2.8-1.5c-1.9,0-3.3,1.6-3.3,3.4c0,0.9,0.3,1.7,1,2.3
					c0.6,0.6,1.5,1,2.3,1c1.4,0,2.9-1,2.9-2.6h-2.4v-0.8H284.1z"/>
			</g>
		</g>
	</g>
</g>
</svg>
