<?xml version="1.0" encoding="UTF-8"?>
<svg width="83px" height="79px" viewBox="0 0 83 79" version="1.1" xmlns="http://www.w3.org/2000/svg" xmlns:xlink="http://www.w3.org/1999/xlink">
    <title>”</title>
    <g id="pages-" stroke="none" stroke-width="1" fill="none" fill-rule="evenodd">
        <g id="Desktop-Designs-/-Homepage-v2" transform="translate(-1613.000000, -2665.000000)" fill="#E7EBF3" fill-rule="nonzero">
            <g id="”" transform="translate(1613.000000, 2665.000000)">
                <path d="M2,79 L16.1265823,22.5892857 L18.1940928,34.5 C12.9563994,34.5 8.61462729,32.8571429 5.16877637,29.5714286 C1.72292546,26.2857143 0,22.1785714 0,17.25 C0,12.3214286 1.72292546,8.21428571 5.16877637,4.92857143 C8.61462729,1.64285714 12.6807314,0 17.3670886,0 C22.604782,0 26.8087201,1.71130952 29.978903,5.13392857 C33.1490858,8.55654762 34.7341772,12.5952381 34.7341772,17.25 C34.7341772,19.1666667 34.5963432,21.0833333 34.3206751,23 C34.045007,24.9166667 33.6315049,26.8333333 33.0801688,28.75 C32.5288326,30.6666667 31.8396624,33.1309524 31.0126582,36.1428571 L16.8860759,79 L2,79 Z M50.2658228,79 L64.3924051,22.5892857 L66.4599156,34.5 C61.2222222,34.5 56.8804501,32.8571429 53.4345992,29.5714286 C49.9887482,26.2857143 48.2658228,22.1785714 48.2658228,17.25 C48.2658228,12.3214286 49.9887482,8.21428571 53.4345992,4.92857143 C56.8804501,1.64285714 60.9465541,0 65.6329114,0 C70.8706048,0 75.0745429,1.71130952 78.2447257,5.13392857 C81.4149086,8.55654762 83,12.5952381 83,17.25 C83,19.1666667 82.862166,21.0833333 82.5864979,23 C82.3108298,24.9166667 81.8973277,26.8333333 81.3459916,28.75 C80.7946554,30.6666667 80.1054852,33.1309524 79.278481,36.1428571 L65.1518987,79 L50.2658228,79 Z" id="Shape"></path>
            </g>
        </g>
    </g>
</svg>