<?xml version="1.0" encoding="utf-8"?>
<!-- Generator: Adobe Illustrator 27.5.0, SVG Export Plug-In . SVG Version: 6.00 Build 0)  -->
<svg version="1.1" id="Layer_1" xmlns="http://www.w3.org/2000/svg" xmlns:xlink="http://www.w3.org/1999/xlink" x="0px" y="0px"
	 viewBox="0 0 117 108.8" style="enable-background:new 0 0 117 108.8;" xml:space="preserve">
<style type="text/css">
	.st0{fill:#DAD7DD;}
</style>
<g>
	<g id="Group_464">
		<path id="Path_334" class="st0" d="M4.3,103.8c1.1,0.9,1.2,2.5,0.4,3.6c-0.9,1.1-2.5,1.2-3.6,0.4c-1.1-0.9-1.2-2.5-0.4-3.6
			C1.6,103,3.2,102.9,4.3,103.8C4.3,103.8,4.3,103.8,4.3,103.8L4.3,103.8"/>
		<path id="Path_335" class="st0" d="M4.3,86.6c1.1,0.9,1.2,2.5,0.4,3.6c-0.9,1.1-2.5,1.2-3.6,0.4C0,89.7-0.2,88.1,0.7,87
			C1.6,85.9,3.2,85.7,4.3,86.6C4.3,86.6,4.3,86.6,4.3,86.6"/>
		<path id="Path_336" class="st0" d="M4.3,69.5c1.1,0.9,1.2,2.5,0.4,3.6c-0.9,1.1-2.5,1.2-3.6,0.4c-1.1-0.9-1.2-2.5-0.4-3.6
			C1.6,68.7,3.2,68.6,4.3,69.5C4.3,69.5,4.3,69.5,4.3,69.5"/>
		<path id="Path_337" class="st0" d="M4.3,52.3c1.1,0.9,1.2,2.5,0.4,3.6S2.1,57.2,1,56.3c-1.1-0.9-1.2-2.5-0.4-3.6
			C1.6,51.6,3.2,51.5,4.3,52.3C4.3,52.3,4.3,52.3,4.3,52.3"/>
		<path id="Path_338" class="st0" d="M4.3,35.2c1.1,0.9,1.2,2.5,0.4,3.6S2.1,40,1,39.2c-1.1-0.9-1.2-2.5-0.4-3.6
			C1.6,34.5,3.2,34.3,4.3,35.2C4.3,35.2,4.3,35.2,4.3,35.2"/>
		<path id="Path_339" class="st0" d="M4.3,18.1c1.1,0.9,1.2,2.5,0.4,3.6C3.7,22.8,2.1,22.9,1,22c-1.1-0.9-1.2-2.5-0.4-3.6
			C1.6,17.4,3.2,17.2,4.3,18.1C4.3,18.1,4.3,18.1,4.3,18.1"/>
		<path id="Path_340" class="st0" d="M4.3,0.9c1.1,0.9,1.3,2.5,0.4,3.6S2.1,5.8,1,4.9C0,4-0.2,2.4,0.7,1.3C1.6,0.2,3.2,0.1,4.3,0.9
			C4.3,0.9,4.3,0.9,4.3,0.9"/>
		<path id="Path_341" class="st0" d="M22.9,103.8c1.1,0.9,1.2,2.5,0.4,3.6c-0.9,1.1-2.5,1.2-3.6,0.4c-1.1-0.9-1.2-2.5-0.4-3.6
			C20.2,103,21.8,102.9,22.9,103.8C22.9,103.8,22.9,103.8,22.9,103.8"/>
		<path id="Path_342" class="st0" d="M22.9,86.6c1.1,0.9,1.2,2.5,0.4,3.6c-0.9,1.1-2.5,1.2-3.6,0.4c-1.1-0.9-1.2-2.5-0.4-3.6
			C20.2,85.9,21.8,85.7,22.9,86.6C22.9,86.6,22.9,86.6,22.9,86.6"/>
		<path id="Path_343" class="st0" d="M22.9,69.5c1.1,0.9,1.2,2.5,0.4,3.6c-0.9,1.1-2.5,1.2-3.6,0.4c-1.1-0.9-1.2-2.5-0.4-3.6
			C20.2,68.7,21.8,68.6,22.9,69.5C22.9,69.5,22.9,69.5,22.9,69.5z"/>
		<path id="Path_344" class="st0" d="M22.9,52.3c1.1,0.9,1.2,2.5,0.4,3.6s-2.5,1.2-3.6,0.4c-1.1-0.9-1.2-2.5-0.4-3.6
			C20.2,51.6,21.8,51.5,22.9,52.3C22.9,52.3,22.9,52.3,22.9,52.3"/>
		<path id="Path_345" class="st0" d="M22.9,35.2c1.1,0.9,1.2,2.5,0.4,3.6s-2.5,1.2-3.6,0.4c-1.1-0.9-1.2-2.5-0.4-3.6
			C20.2,34.5,21.8,34.3,22.9,35.2C22.9,35.2,22.9,35.2,22.9,35.2"/>
		<path id="Path_346" class="st0" d="M22.9,18.1c1.1,0.9,1.2,2.5,0.4,3.6s-2.5,1.2-3.6,0.4c-1.1-0.9-1.2-2.5-0.4-3.6
			C20.2,17.4,21.8,17.2,22.9,18.1C22.9,18.1,22.9,18.1,22.9,18.1"/>
		<path id="Path_347" class="st0" d="M22.9,0.9c1.1,0.9,1.3,2.5,0.4,3.6s-2.5,1.3-3.6,0.4c-1.1-0.9-1.3-2.5-0.4-3.6c0,0,0,0,0,0
			C20.2,0.2,21.8,0.1,22.9,0.9"/>
		<path id="Path_348" class="st0" d="M41.5,103.8c1.1,0.9,1.2,2.5,0.4,3.6c-0.9,1.1-2.5,1.2-3.6,0.4c-1.1-0.9-1.2-2.5-0.4-3.6
			C38.8,103,40.4,102.9,41.5,103.8C41.5,103.8,41.5,103.8,41.5,103.8"/>
		<path id="Path_349" class="st0" d="M41.5,86.6c1.1,0.9,1.2,2.5,0.4,3.6c-0.9,1.1-2.5,1.2-3.6,0.4c-1.1-0.9-1.2-2.5-0.4-3.6
			C38.8,85.9,40.4,85.7,41.5,86.6C41.5,86.6,41.5,86.6,41.5,86.6"/>
		<path id="Path_350" class="st0" d="M41.5,69.5c1.1,0.9,1.2,2.5,0.4,3.6c-0.9,1.1-2.5,1.2-3.6,0.4c-1.1-0.9-1.2-2.5-0.4-3.6
			C38.8,68.7,40.4,68.6,41.5,69.5C41.5,69.5,41.5,69.5,41.5,69.5z"/>
		<path id="Path_351" class="st0" d="M41.5,52.3c1.1,0.9,1.2,2.5,0.4,3.6c-0.9,1.1-2.5,1.2-3.6,0.4c-1.1-0.9-1.2-2.5-0.4-3.6
			C38.8,51.6,40.4,51.5,41.5,52.3C41.5,52.3,41.5,52.3,41.5,52.3"/>
		<path id="Path_352" class="st0" d="M41.5,35.2c1.1,0.9,1.2,2.5,0.4,3.6c-0.9,1.1-2.5,1.2-3.6,0.4c-1.1-0.9-1.2-2.5-0.4-3.6
			C38.8,34.5,40.4,34.3,41.5,35.2C41.5,35.2,41.5,35.2,41.5,35.2"/>
		<path id="Path_353" class="st0" d="M41.5,18.1c1.1,0.9,1.2,2.5,0.4,3.6c-0.9,1.1-2.5,1.2-3.6,0.4c-1.1-0.9-1.2-2.5-0.4-3.6
			C38.8,17.4,40.4,17.2,41.5,18.1C41.5,18.1,41.5,18.1,41.5,18.1"/>
		<path id="Path_354" class="st0" d="M41.5,0.9c1.1,0.9,1.2,2.5,0.4,3.6s-2.5,1.2-3.6,0.4C37.2,4,37,2.4,37.9,1.3
			C38.8,0.2,40.4,0.1,41.5,0.9C41.5,0.9,41.5,0.9,41.5,0.9"/>
		<path id="Path_355" class="st0" d="M60.1,103.8c1.1,0.9,1.2,2.5,0.4,3.6c-0.9,1.1-2.5,1.2-3.6,0.4c-1.1-0.9-1.2-2.5-0.4-3.6
			C57.4,103,59,102.9,60.1,103.8C60.1,103.8,60.1,103.8,60.1,103.8z"/>
		<path id="Path_356" class="st0" d="M60.1,86.6c1.1,0.9,1.2,2.5,0.4,3.6c-0.9,1.1-2.5,1.2-3.6,0.4c-1.1-0.9-1.2-2.5-0.4-3.6
			C57.4,85.9,59,85.7,60.1,86.6C60.1,86.6,60.1,86.6,60.1,86.6"/>
		<path id="Path_357" class="st0" d="M60.1,69.5c1.1,0.9,1.2,2.5,0.4,3.6c-0.9,1.1-2.5,1.2-3.6,0.4c-1.1-0.9-1.2-2.5-0.4-3.6
			C57.4,68.7,59,68.6,60.1,69.5C60.1,69.5,60.1,69.5,60.1,69.5z"/>
		<path id="Path_358" class="st0" d="M60.1,52.3c1.1,0.9,1.2,2.5,0.4,3.6c-0.9,1.1-2.5,1.2-3.6,0.4c-1.1-0.9-1.2-2.5-0.4-3.6
			C57.4,51.6,59,51.5,60.1,52.3C60.1,52.3,60.1,52.3,60.1,52.3"/>
		<path id="Path_359" class="st0" d="M60.1,35.2c1.1,0.9,1.2,2.5,0.4,3.6c-0.9,1.1-2.5,1.2-3.6,0.4c-1.1-0.9-1.2-2.5-0.4-3.6
			C57.4,34.5,59,34.3,60.1,35.2C60.1,35.2,60.1,35.2,60.1,35.2"/>
		<path id="Path_360" class="st0" d="M60.1,18.1c1.1,0.9,1.2,2.5,0.4,3.6c-0.9,1.1-2.5,1.2-3.6,0.4c-1.1-0.9-1.2-2.5-0.4-3.6
			C57.4,17.4,59,17.2,60.1,18.1C60.1,18.1,60.1,18.1,60.1,18.1"/>
		<path id="Path_361" class="st0" d="M60.1,0.9c1.1,0.9,1.2,2.5,0.4,3.6c-0.9,1.1-2.5,1.2-3.6,0.4c-1.1-0.9-1.2-2.5-0.4-3.6
			C57.4,0.2,59,0.1,60.1,0.9C60.1,0.9,60.1,0.9,60.1,0.9"/>
		<path id="Path_362" class="st0" d="M78.7,103.8c1.1,0.9,1.2,2.5,0.4,3.6c-0.9,1.1-2.5,1.2-3.6,0.4c-1.1-0.9-1.2-2.5-0.4-3.6
			C76,103,77.6,102.9,78.7,103.8C78.7,103.8,78.7,103.8,78.7,103.8z"/>
		<path id="Path_363" class="st0" d="M78.7,86.6c1.1,0.9,1.2,2.5,0.4,3.6c-0.9,1.1-2.5,1.2-3.6,0.4c-1.1-0.9-1.2-2.5-0.4-3.6
			C76,85.9,77.6,85.7,78.7,86.6C78.7,86.6,78.7,86.6,78.7,86.6"/>
		<path id="Path_364" class="st0" d="M78.7,69.5c1.1,0.9,1.2,2.5,0.4,3.6c-0.9,1.1-2.5,1.2-3.6,0.4c-1.1-0.9-1.2-2.5-0.4-3.6
			C76,68.7,77.6,68.6,78.7,69.5C78.7,69.5,78.7,69.5,78.7,69.5z"/>
		<path id="Path_365" class="st0" d="M78.7,52.3c1.1,0.9,1.2,2.5,0.4,3.6c-0.9,1.1-2.5,1.2-3.6,0.4c-1.1-0.9-1.2-2.5-0.4-3.6
			C76,51.6,77.6,51.5,78.7,52.3C78.7,52.3,78.7,52.3,78.7,52.3"/>
		<path id="Path_366" class="st0" d="M78.7,35.2c1.1,0.9,1.2,2.5,0.4,3.6c-0.9,1.1-2.5,1.2-3.6,0.4c-1.1-0.9-1.2-2.5-0.4-3.6
			C76,34.5,77.6,34.3,78.7,35.2C78.7,35.2,78.7,35.2,78.7,35.2"/>
		<path id="Path_367" class="st0" d="M78.7,18.1c1.1,0.9,1.2,2.5,0.4,3.6c-0.9,1.1-2.5,1.2-3.6,0.4c-1.1-0.9-1.2-2.5-0.4-3.6
			C76,17.4,77.6,17.2,78.7,18.1C78.7,18.1,78.7,18.1,78.7,18.1"/>
		<path id="Path_368" class="st0" d="M78.7,0.9c1.1,0.9,1.2,2.5,0.4,3.6c-0.9,1.1-2.5,1.2-3.6,0.4c-1.1-0.9-1.2-2.5-0.4-3.6
			C76,0.2,77.6,0.1,78.7,0.9C78.7,0.9,78.7,0.9,78.7,0.9"/>
		<path id="Path_369" class="st0" d="M97.3,103.8c1.1,0.9,1.2,2.5,0.4,3.6c-0.9,1.1-2.5,1.2-3.6,0.4c-1.1-0.9-1.2-2.5-0.4-3.6
			C94.6,103,96.2,102.9,97.3,103.8C97.3,103.8,97.3,103.8,97.3,103.8z"/>
		<path id="Path_370" class="st0" d="M97.3,86.6c1.1,0.9,1.2,2.5,0.4,3.6c-0.9,1.1-2.5,1.2-3.6,0.4c-1.1-0.9-1.2-2.5-0.4-3.6
			C94.6,85.9,96.2,85.7,97.3,86.6C97.3,86.6,97.3,86.6,97.3,86.6"/>
		<path id="Path_371" class="st0" d="M97.3,69.5c1.1,0.9,1.2,2.5,0.4,3.6c-0.9,1.1-2.5,1.2-3.6,0.4c-1.1-0.9-1.2-2.5-0.4-3.6
			C94.6,68.7,96.2,68.6,97.3,69.5C97.3,69.5,97.3,69.5,97.3,69.5z"/>
		<path id="Path_372" class="st0" d="M97.3,52.3c1.1,0.9,1.2,2.5,0.4,3.6c-0.9,1.1-2.5,1.2-3.6,0.4c-1.1-0.9-1.2-2.5-0.4-3.6
			C94.6,51.6,96.2,51.5,97.3,52.3C97.3,52.3,97.3,52.3,97.3,52.3"/>
		<path id="Path_373" class="st0" d="M97.3,35.2c1.1,0.9,1.2,2.5,0.4,3.6c-0.9,1.1-2.5,1.2-3.6,0.4c-1.1-0.9-1.2-2.5-0.4-3.6
			C94.6,34.5,96.2,34.3,97.3,35.2C97.3,35.2,97.3,35.2,97.3,35.2"/>
		<path id="Path_374" class="st0" d="M97.3,18.1c1.1,0.9,1.2,2.5,0.4,3.6c-0.9,1.1-2.5,1.2-3.6,0.4c-1.1-0.9-1.2-2.5-0.4-3.6
			C94.6,17.4,96.2,17.2,97.3,18.1C97.3,18.1,97.3,18.1,97.3,18.1"/>
		<path id="Path_375" class="st0" d="M97.3,0.9c1.1,0.9,1.2,2.5,0.4,3.6c-0.9,1.1-2.5,1.2-3.6,0.4C93,4,92.8,2.4,93.7,1.3
			C94.6,0.2,96.2,0.1,97.3,0.9C97.3,0.9,97.3,0.9,97.3,0.9"/>
		<path id="Path_376" class="st0" d="M115.9,103.8c1.1,0.9,1.2,2.5,0.4,3.6c-0.9,1.1-2.5,1.2-3.6,0.4c-1.1-0.9-1.2-2.5-0.4-3.6
			C113.2,103,114.8,102.9,115.9,103.8C115.9,103.8,115.9,103.8,115.9,103.8z"/>
		<path id="Path_377" class="st0" d="M115.9,86.6c1.1,0.9,1.2,2.5,0.4,3.6c-0.9,1.1-2.5,1.2-3.6,0.4c-1.1-0.9-1.2-2.5-0.4-3.6
			C113.2,85.9,114.8,85.7,115.9,86.6C115.9,86.6,115.9,86.6,115.9,86.6"/>
		<path id="Path_378" class="st0" d="M115.9,69.5c1.1,0.9,1.2,2.5,0.4,3.6c-0.9,1.1-2.5,1.2-3.6,0.4c-1.1-0.9-1.2-2.5-0.4-3.6
			C113.2,68.7,114.8,68.6,115.9,69.5C115.9,69.5,115.9,69.5,115.9,69.5z"/>
		<path id="Path_379" class="st0" d="M115.9,52.3c1.1,0.9,1.2,2.5,0.4,3.6c-0.9,1.1-2.5,1.2-3.6,0.4c-1.1-0.9-1.2-2.5-0.4-3.6
			C113.2,51.6,114.8,51.5,115.9,52.3C115.9,52.3,115.9,52.3,115.9,52.3"/>
		<path id="Path_380" class="st0" d="M115.9,35.2c1.1,0.9,1.2,2.5,0.4,3.6c-0.9,1.1-2.5,1.2-3.6,0.4c-1.1-0.9-1.2-2.5-0.4-3.6
			C113.2,34.5,114.8,34.3,115.9,35.2C115.9,35.2,115.9,35.2,115.9,35.2"/>
		<path id="Path_381" class="st0" d="M115.9,18.1c1.1,0.9,1.2,2.5,0.4,3.6c-0.9,1.1-2.5,1.2-3.6,0.4c-1.1-0.9-1.2-2.5-0.4-3.6
			C113.2,17.4,114.8,17.2,115.9,18.1C115.9,18.1,115.9,18.1,115.9,18.1"/>
		<path id="Path_382" class="st0" d="M115.9,0.9c1.1,0.9,1.2,2.5,0.4,3.6c-0.9,1.1-2.5,1.2-3.6,0.4c-1.1-0.9-1.2-2.5-0.4-3.6
			C113.2,0.2,114.8,0.1,115.9,0.9C115.9,0.9,115.9,0.9,115.9,0.9"/>
	</g>
</g>
</svg>
