<?xml version="1.0" encoding="utf-8"?>
<!-- Generator: Adobe Illustrator 27.5.0, SVG Export Plug-In . SVG Version: 6.00 Build 0)  -->
<svg version="1.1" id="Layer_1" xmlns="http://www.w3.org/2000/svg" xmlns:xlink="http://www.w3.org/1999/xlink" x="0px" y="0px"
	 viewBox="0 0 216 60.6" style="enable-background:new 0 0 216 60.6;" xml:space="preserve">
<style type="text/css">
	.st0{fill:#8347AD;}
	.st1{fill:#31393C;}
</style>
<g>
	<path class="st0" d="M22.9,26.4c0.1,0,0.1-0.1,0.1-0.1c0-0.1-0.1-0.1-0.1-0.1c-0.2,0-0.4,0-0.5-0.2c0,0,0,0-0.1-0.1
		c0,0-0.1-0.1-0.1-0.1c-0.2-0.2-0.5-0.1-0.7-0.1L21,25.8c-0.1,0-0.1,0.1-0.1,0.1C21,26,21,26,21.1,26l0.4-0.1c0.2,0,0.4,0,0.6,0.1
		c0,0,0.1,0.1,0.1,0.1c0,0,0.1,0.1,0.1,0.1C22.4,26.3,22.6,26.4,22.9,26.4C22.8,26.4,22.9,26.4,22.9,26.4z"/>
	<path class="st0" d="M25.9,28c0,0-0.1,0-0.1,0c0,0,0,0.1,0,0.1l0.3,0.3c0.1,0.1,0.1,0.1,0.1,0.2c0,0-0.1,0.1-0.1,0.1
		c-0.1,0.1-0.2,0.2-0.3,0.2c-0.1,0-0.1,0.1-0.1,0.1c0,0.1,0.1,0.1,0.1,0.1c0,0,0,0,0,0c0.2,0,0.3-0.1,0.4-0.2
		c0.1-0.1,0.1-0.1,0.1-0.2c0-0.2-0.1-0.3-0.2-0.4L25.9,28z"/>
	<path class="st0" d="M33.2,30.8c-0.1,0-0.1,0-0.1,0.1c0,0.1-0.1,0.3-0.2,0.4c0,0,0,0.1,0,0.1c0,0,0,0-0.1,0l0,0
		c-0.2,0.1-0.4,0.3-0.4,0.5c0,0,0,0.1,0,0.1c0,0,0,0,0.1,0c0,0,0.1,0,0.1-0.1c0.1-0.2,0.2-0.3,0.4-0.4l0,0c0,0,0.1,0,0.1-0.1
		c0,0,0.1-0.1,0.1-0.1c0.1-0.1,0.1-0.3,0.2-0.4C33.3,30.9,33.3,30.8,33.2,30.8z"/>
	<path class="st0" d="M34.3,31.9c-0.1,0-0.1,0.1-0.1,0.1c-0.1,0.2-0.3,0.4-0.5,0.5c-0.1,0-0.1,0.1,0,0.1c0,0,0.1,0.1,0.1,0.1
		c0,0,0,0,0,0c0.2-0.1,0.4-0.3,0.6-0.6c0,0,0,0,0,0c0,0,0,0,0,0c0.3,0,0.6-0.1,0.8-0.2c0,0,0.1-0.1,0-0.1c0,0-0.1-0.1-0.1,0
		c-0.2,0.1-0.5,0.2-0.7,0.2C34.3,31.9,34.3,31.9,34.3,31.9z"/>
	<path class="st0" d="M26.6,31.1l0.4,0c0.2,0,0.3,0,0.4,0.1c0,0,0,0,0,0.1c0,0,0,0,0,0.1c0.1,0.1,0.2,0.2,0.4,0.2c0,0,0,0,0,0
		c0.2,0,0.3-0.1,0.4-0.2c0,0,0-0.1,0-0.1c0,0-0.1,0-0.1,0c-0.1,0.1-0.1,0.1-0.2,0.1c0,0,0,0,0,0c-0.1,0-0.2,0-0.2-0.1c0,0,0,0,0,0
		c0,0,0-0.1-0.1-0.1c-0.1-0.2-0.3-0.2-0.5-0.2l-0.4,0c-0.1,0-0.1,0-0.1,0.1C26.5,31,26.6,31,26.6,31.1z"/>
	<path class="st0" d="M26.7,32.3L26.7,32.3c0,0.1,0.1,0.1,0.1,0.1c0.1,0.1,0.2,0.1,0.3,0.1c0.1,0,0.2,0,0.3-0.1
		c0.2-0.1,0.3-0.2,0.3-0.4c0-0.1,0-0.1-0.1-0.1c-0.1,0-0.1,0-0.1,0.1c0,0.1-0.1,0.2-0.2,0.2c-0.1,0.1-0.3,0.1-0.4,0c0,0,0,0,0-0.1
		l0,0c-0.1-0.2-0.3-0.3-0.5-0.4c-0.1,0-0.2-0.1-0.3-0.1c-0.1,0-0.1,0-0.1,0.1c0,0.1,0,0.1,0.1,0.1c0.1,0,0.2,0,0.3,0.1
		C26.5,32.1,26.6,32.2,26.7,32.3z"/>
	<path class="st0" d="M11.8,33.6c-0.1,0-0.1,0.1-0.1,0.1c0,0.1,0.1,1.4,0.8,2c0,0,0,0,0.1,0c0,0,0.1,0,0.1,0c0,0,0-0.1,0-0.1
		c-0.6-0.6-0.7-1.9-0.7-1.9C11.9,33.6,11.8,33.6,11.8,33.6z"/>
	<path class="st0" d="M13.2,32.1c0-0.1-0.1-0.1-0.1-0.1C13,32,13,32,13,32.1c0,0.1,0.3,1.4,0.8,2.2c0,0,0.1,0,0.1,0c0,0,0,0,0.1,0
		c0,0,0.1-0.1,0-0.1C13.5,33.4,13.2,32.1,13.2,32.1z"/>
	<path class="st0" d="M15.2,30.4c-0.1,0-0.1,0.1-0.1,0.1c0,0,0.5,1.3,0.5,2.2c0,0.1,0,0.1,0.1,0.1c0,0,0,0,0,0
		c0.1,0,0.1-0.1,0.1-0.1c0-0.9-0.5-2.2-0.5-2.3C15.3,30.4,15.3,30.3,15.2,30.4z"/>
	<path class="st0" d="M16.8,26.6c-0.1,0-0.1,0.1-0.1,0.1c0,0,0.5,1.4,0,2.6c0,0.1,0,0.1,0.1,0.1c0,0,0,0,0,0c0,0,0.1,0,0.1-0.1
		c0.5-1.2,0-2.7,0-2.7C16.9,26.6,16.9,26.6,16.8,26.6z"/>
	<path class="st0" d="M12.8,29.2c-0.1,0-0.1,0-0.1,0.1c-0.1,2.4-0.3,2.5-0.4,2.5c-0.2,0-0.6-1.2-0.8-2.5c0-0.1-0.1-0.1-0.1-0.1
		c-0.1,0-0.1,0.1-0.1,0.1c0.2,1,0.6,2.6,1,2.6c0,0,0,0,0,0c0.2,0,0.5-0.4,0.5-2.7C12.9,29.2,12.9,29.2,12.8,29.2z"/>
	<path class="st0" d="M14.7,26c-0.1,0-0.1,0.1-0.1,0.1c0.1,1.5,0.2,3.2,0.1,3.5c-0.6-0.2-1.1-1.3-1.1-1.3c0-0.1-0.1-0.1-0.1,0
		c-0.1,0-0.1,0.1,0,0.1c0,0.1,0.6,1.2,1.3,1.5c0,0,0,0,0,0c0,0,0.1,0,0.1,0c0.3-0.2,0.1-2.4,0-3.7C14.8,26.1,14.8,26,14.7,26z"/>
	<path class="st0" d="M16.4,25.7c-0.4,0.2-0.5,1.5-0.5,2.1c-0.5-0.3-0.6-1.6-0.6-2.1c0-0.1,0-0.1-0.1-0.1s-0.1,0-0.1,0.1
		c0,0.2,0,2.1,0.8,2.4c0,0,0,0,0,0c0,0,0,0,0.1,0c0,0,0,0,0-0.1c0-0.9,0.2-2,0.4-2c0.1,0,0.1-0.1,0.1-0.1
		C16.5,25.7,16.5,25.7,16.4,25.7z"/>
	<path class="st0" d="M13.9,26.3c-0.1,0-0.1,0-0.1,0.1c0,0.1,0.1,2.2,0.5,2.7c0,0,0,0,0.1,0c0,0,0.1,0,0.1,0c0,0,0-0.1,0-0.1
		C14.1,28.6,14,27,14,26.4C14,26.4,13.9,26.3,13.9,26.3z"/>
	<path class="st0" d="M15.9,24.7c-0.1,0-0.1,0-0.1,0.1c0,0.1-0.4,1.7-0.1,2.2c0,0,0.1,0.1,0.1,0.1c0,0,0,0,0,0c0.1,0,0.1-0.1,0-0.1
		c-0.2-0.4,0-1.6,0.1-2.1C16,24.8,15.9,24.7,15.9,24.7z"/>
	<path class="st0" d="M18.4,23.3c-0.1,0-0.1,0.1-0.1,0.1c0.2,0.4-0.1,1.5-0.2,1.9c0,0.1,0,0.1,0.1,0.1c0,0,0,0,0,0
		c0,0,0.1,0,0.1-0.1c0-0.1,0.4-1.5,0.2-2C18.5,23.4,18.4,23.3,18.4,23.3z"/>
	<path class="st0" d="M18.4,21.1c-0.1,0-0.1,0-0.1,0.1c-0.5,2.9-1.4,3.7-1.8,3.9l0-1c0-0.1,0-0.1-0.1-0.1c-0.1,0-0.1,0-0.1,0.1v1.2
		c0,0,0,0.1,0,0.1c0,0,0,0,0.1,0c0,0,0,0,0,0c0.1,0,1.3-0.3,2-4.1C18.5,21.2,18.5,21.1,18.4,21.1z"/>
	<path class="st0" d="M16.8,24.4C16.8,24.4,16.8,24.5,16.8,24.4c0.1,0,0.1,0,0.1,0c0.7-0.7,0.9-2.8,0.9-2.9c0-0.1,0-0.1-0.1-0.1
		c-0.1,0-0.1,0-0.1,0.1c0,0-0.2,2.2-0.8,2.8C16.7,24.3,16.7,24.4,16.8,24.4z"/>
	<path class="st0" d="M12.5,29c0.1,0,0.2,0.1,0.2,0.1c0.1,0,0.1,0,0.2,0c0.4-0.2,0.5-1.1,0.5-1.2c0-1.5,0.1-3.7,0.6-3.9
		c0.1,0,0.1-0.1,0.1-0.1c0-0.1-0.1-0.1-0.1-0.1c-0.7,0.2-0.7,3.4-0.7,4c0,0.3-0.1,0.9-0.4,1.1c0,0-0.1,0-0.2,0
		c-0.4-0.2-0.4-2-0.4-3.1c0-0.1,0-0.1-0.1-0.1c-0.1,0-0.1,0-0.1,0.1C12,26,11.9,28.6,12.5,29z"/>
	<path class="st0" d="M12.8,28.3C12.8,28.3,12.8,28.3,12.8,28.3c0.1,0,0.1-0.1,0.1-0.1c-0.3-0.8,0.2-3.5,0.2-3.5
		c0-0.1,0-0.1-0.1-0.1c-0.1,0-0.1,0-0.1,0.1C12.9,24.6,12.3,27.4,12.8,28.3C12.7,28.2,12.8,28.3,12.8,28.3z"/>
	<path class="st0" d="M14.7,24.2c0,0,0.1,0,0.1,0c0.3,0,0.6-0.2,1-0.7c1.4-1.7,1.7-3,1.7-3c0-0.1,0-0.1-0.1-0.1
		c-0.1,0-0.1,0-0.1,0.1c0,0-0.3,1.3-1.6,2.9c-0.5,0.7-0.8,0.7-0.9,0.7c-0.2-0.1-0.3-0.6-0.3-0.8c0-0.1,0-0.1-0.1-0.1
		c-0.1,0-0.1,0-0.1,0.1C14.3,23.3,14.3,24.1,14.7,24.2z"/>
	<path class="st0" d="M15.2,23.5C15.2,23.5,15.2,23.5,15.2,23.5c0.1,0,0.1,0,0.1-0.1c0-0.9,1-2.5,1-2.5c0,0,0-0.1,0-0.1
		c0,0-0.1,0-0.1,0c0,0.1-1,1.6-1,2.6C15.1,23.5,15.2,23.5,15.2,23.5z"/>
	<path class="st0" d="M18.2,20C18.2,20,18.2,20,18.2,20c0.4,0,2.1-1.5,2.5-3.1c0-0.1,0-0.1-0.1-0.1c-0.1,0-0.1,0-0.1,0.1
		c-0.4,1.5-1.9,2.8-2.3,2.9c0-0.3,0-1.3,0-1.7c0-0.1,0-0.1-0.1-0.1c0,0-0.1,0-0.1,0.1c0,0.1-0.1,1.6,0,1.8C18.1,20,18.2,20,18.2,20z
		"/>
	<path class="st0" d="M18.7,19.1C18.7,19.1,18.7,19.1,18.7,19.1c0.1,0,0.1-0.1,0.1-0.1c-0.1-0.4,0.6-1.9,0.9-2.4c0-0.1,0-0.1,0-0.1
		c-0.1,0-0.1,0-0.1,0c-0.1,0.2-1,2-0.9,2.5C18.6,19.1,18.7,19.1,18.7,19.1z"/>
	<path class="st0" d="M22.3,16.7c-0.3,0.4-0.5,0.9-0.4,1.2c0.1,0.1,0.2,0.1,0.4,0.1c0.2,0,0.5-0.1,0.9-0.2c0.1,0,0.1-0.1,0.1-0.1
		c0-0.1-0.1-0.1-0.1-0.1c-0.8,0.3-1,0.2-1,0.2c-0.2-0.2,0.5-1.2,1-1.7c0,0,0-0.1,0-0.1c0,0-0.1,0-0.1,0c-1.4,1.3-1.7,1.2-1.7,1.2
		c0,0,0-0.1,0-0.1c0,0,0,0,0,0.1c0,0,0,0,0.1,0c0,0,0.1,0,0.1,0c0.5-0.5,1-1.1,1-1.2c0,0,0-0.1,0-0.1c0,0-0.1,0-0.1,0
		c0,0-0.5,0.6-1,1.1c0,0,0,0,0,0.1c0-0.2,0.1-0.4,0.2-0.6c0-0.1,0-0.1,0-0.1c-0.1,0-0.1,0-0.1,0c-0.1,0.2-0.4,0.9-0.1,1.1
		C21.3,17.4,21.5,17.4,22.3,16.7z"/>
	<path class="st0" d="M22.2,17.6c0,0,0,0.1,0,0.1c0,0,0,0,0.1,0c0,0,0.1,0,0.1,0c0.5-0.6,0.9-1.2,0.9-1.3c0,0,0-0.1,0-0.1
		s-0.1,0-0.1,0C23.1,16.4,22.8,17,22.2,17.6z"/>
	<path class="st0" d="M22.3,19.3c-0.5-0.1-1.1,0.3-1.1,0.3c0,0-0.1,0.1,0,0.1c0,0,0.1,0,0.1,0c0,0,0,0,0.1,0c0,0,0.5-0.4,0.9-0.3
		c0.1,0,0.1,0,0.1-0.1C22.4,19.4,22.4,19.4,22.3,19.3z"/>
	<path class="st0" d="M22.1,19.7c0,0-0.1,0-0.1,0c0,0,0,0.1,0,0.1c0,0,0.1,0.1,0.1,0.1c-0.1,0-0.2,0-0.3-0.1c-0.1,0-0.1,0-0.1,0.1
		c0,0.1,0,0.1,0.1,0.1c0.2,0.1,0.4,0.1,0.5,0.1c0.2,0,0.2-0.1,0.2-0.1C22.4,19.9,22.3,19.8,22.1,19.7z"/>
	<path class="st0" d="M38.6,19.4c-0.1,0-0.1,0.1-0.1,0.1c0,0.1,0.1,0.1,0.1,0.1c0,0,0.7-0.1,0.9,0.3c0,0,0.1,0,0.1,0c0,0,0,0,0.1,0
		c0,0,0.1-0.1,0-0.1C39.4,19.3,38.6,19.4,38.6,19.4z"/>
	<path class="st0" d="M39.2,20.1c-0.2,0-0.3-0.1-0.4-0.1c0,0,0.1,0,0.1,0c0.1,0,0.1-0.1,0.1-0.1c0-0.1-0.1-0.1-0.1-0.1
		c-0.2,0-0.3,0.1-0.3,0.2c0,0.1,0,0.2,0.6,0.3c0,0,0,0,0,0c0,0,0.1,0,0.1-0.1C39.3,20.2,39.3,20.1,39.2,20.1z"/>
	<path class="st0" d="M47.8,20.7c0-0.1-4-6.5-9.2-6.5c-0.2,0-0.4,0-0.6,0c-1.5,0.1-2.5,0.6-2.7,1.4c-0.5,1.4,1.6,3.3,1.8,3.5
		c-0.1,0-0.2,0-0.3-0.1c-0.3-0.1-0.5,0.1-0.6,0.4c-0.1,0.3,0,0.7,0.3,0.8c0.4,0.1,3.1,0.9,3.4,1c0.2,0.1,0.4,0.3,0.4,0.4
		c0,0-0.1,0.1-0.5,0c-1.3-0.1-2.8-0.9-2.8-0.9c0,0,0,0,0,0l-0.7-0.2c0,0-0.1,0-0.1,0c0,0-0.3,0.1-0.3,0.4c0,0.1,0.1,0.3,0.2,0.4
		c0.1,0.1,0.4,0.2,0.8,0.3c-1.4,3.2-3.7,3.6-4.3,3.7l0-0.7c0.3-0.1,0.5-0.5,0.5-0.8c0-0.2-0.1-0.4-0.2-0.6h0.2c0.5,0,1-0.4,1-1v-0.4
		c0-0.5-0.3-0.9-0.8-1l0.6-1c0,0,0-0.1,0-0.2c0,0-0.1-0.1-0.1-0.1l-0.3,0c0.5-1.4-0.1-1.9-0.1-1.9c-0.1,0-0.1,0-0.2,0
		c-0.2,0.2-0.4,0.3-0.6,0.4c0.1-0.3,0.2-0.7,0.1-1.1c-0.1-0.3-0.5-0.6-0.9-0.7c0.5-0.9,0.1-1.4-0.2-2L31.5,14
		c-0.4-0.7-0.5-1.1-0.5-1.7c0-0.1,0-0.1-0.1-0.1c-0.1,0-0.1,0-0.2,0l-0.1,0.1c-0.5,0.4-1,0.7-0.5,1.9c0,0.1,0.1,0.2,0.1,0.3
		c0.2,0.4,0.3,0.6,0,0.9c-0.6-0.6-0.7-0.8-0.7-1.3c0-0.1,0-0.2,0-0.4c0-0.1,0-0.1-0.1-0.1c-0.1,0-0.1,0-0.2,0
		c-1.2,1-0.6,2.2-0.4,2.6c-0.1,0.1-0.3,0.1-0.4,0.2c-0.9,0.5-1.4,1-1.5,1.6c-0.1,0.6,0.2,1.1,0.4,1.3h-0.3c-0.1,0-0.1,0-0.1,0.1
		c0,0.1,0,0.1,0,0.2l0.6,1c-0.5,0.1-0.9,0.5-0.9,1v0.4c0,0.5,0.4,1,1,1H28c-0.1,0.2-0.2,0.4-0.2,0.6c0,0.4,0.3,0.8,0.7,0.9l0,1.3
		c-2.8-0.7-4.2-3-4.5-3.6c0.1,0,0.1,0,0.2,0c0.2,0,0.4-0.1,0.4-0.3c0.1-0.1,0-0.3,0-0.4c-0.1-0.1-0.3-0.2-0.8-0.1
		c-0.5,0.1-0.7,0.2-0.8,0.2c-0.1,0-0.1,0.1-0.3,0.1c-0.3,0-1.1,0-1.3,0c-0.2-0.1-0.3-0.3-0.3-0.4c0,0,0-0.1,0.2-0.1
		c0.6-0.1,0.7,0,0.7,0c0,0,0,0,0,0l0,0.1l0.1,0c0.1,0,1.2,0.1,1.6,0c0.4-0.2,0.8-0.6,1-0.9c0-0.1,0-0.2,0-0.3
		c-0.2-0.3-0.9-0.7-1.5-0.8c0.5-0.3,2.3-1.5,2.3-2.9c0-0.8-0.6-1.5-1.7-2.1c-0.5-0.3-2.7,0-3,0c-0.1,0-3.6,1-4.5,2.4
		c-0.5,0.8-1,1.3-1.3,1.6c-0.2,0.3-0.4,0.4-0.4,0.6c-0.1,0.2-0.8,1-1.3,1.5l0,0c-0.1,0.2-2.6,4.8-2.6,8.3c0,3.2,0.9,7.9,1.7,8.3
		c0.2,0.1,0.3,0.2,0.5,0.2c0.1,0,0.2,0,0.2-0.1c0.3-0.2,0.4-0.6,0.3-2.2c0.3,0.3,0.6,0.5,1,0.6c0,0,0,0,0,0c0.1,0,0.1,0,0.2-0.1
		c0.3-0.3,0.1-1.9-0.1-3.1c0.2,0.2,0.6,0.6,1,1.2c0.2,0.2,0.3,0.3,0.4,0.3c0.1,0,0.2,0,0.2-0.1c0.4-0.3,0.7-1.7,0.3-3.1
		c0.3,0.3,0.6,0.6,1,0.5c0.3-0.1,0.8-0.5,0.8-3c0,0,0,0,0,0c0.3,0.1,0.7-0.1,1.3-0.8c-0.1,0.3-0.2,0.7-0.3,1.2
		c0,0.2,0.1,0.3,0.1,0.3c0.1,0.1,0.3,0.2,1.7-1.2c-0.4,1.3-0.5,2-0.4,2.1c0,0,0.1,0.1,0.2,0.1c0.6,0,1.1-0.1,1.4-0.3
		c-0.1,0.7-0.1,1.1,0,1.2c0,0,0.1,0.1,0.1,0.1c0,0,0,0,0,0c0.6-0.1,1-0.3,1.4-0.6c-0.1,0.9,0,1,0.1,1.1c0,0,0.1,0,0.1,0
		c0,0,0.1,0,0.1,0c1.3-0.6,1.5-1.4,1.5-1.9c0.1,0.1,0.3,0.1,0.4,0.2c-0.3,0.2-0.7,0.8-0.4,1.8c-0.8,0.8-1.6,2-1.5,3.8
		c0,1.8,1,3.1,2.9,4c-0.5,0.3-1.5,1-1.6,2.1c-0.1,1.3,1.1,2.7,3.4,4.2c0,0,0.1,0,0.1,0c0,0,0,0,0.1,0c0.1,0,0.1,0.1,0.2,0.1
		c-0.5,0.3-1.7,0.8-3.6,1c-0.2,0-0.6,0.1-0.6,0.3c-0.1,0.3,0.3,0.5,0.4,0.5c0,0,0,0,0,0c0,0,0.3,0.1,0.9,0.1c0.7,0,1.7-0.1,3.2-0.5
		c0.1,0.6,0.7,1.1,1.3,1.1c0.7,0,1.3-0.6,1.4-1.2c1.7,0.6,3.1,0.7,3.7,0.7c0.2,0,0.4,0,0.4,0c0,0,0.1,0,0.1-0.1l0.5-0.7
		c0,0,0-0.1,0-0.2c0-0.1-0.1-0.1-0.1-0.1c-1.5-0.1-3.5-0.7-4.2-0.9c1.2-0.4,3.4-1.3,4-3.3c0.2-0.6,0.1-1.1-0.2-1.7
		c-0.3-0.6-0.9-1-1.5-1.4c0.3-0.2,0.7-0.4,1.1-0.7c0.9-0.8,2.3-2.4,1.7-5c-0.2-0.9-0.8-1.5-1.3-1.9c0.1-0.1,0.3-0.4,0.3-1.1
		c0.1,0.4,0.2,0.8,0.4,1c0.1,0.1,0.2,0.2,0.4,0.2c0,0,0,0,0,0c0.1,0,0.3-0.1,0.3-0.2c0.2-0.2,0.3-0.8,0.4-1.4
		c0.1,0.3,0.3,0.6,0.4,0.7c0.1,0,0.3,0.1,0.5-0.1c0.4-0.4,0.5-1.2,0.5-2c0.5,1.2,0.7,1.3,0.9,1.3c0.1,0,0.4-0.1,0.3-2.2
		c0.2,0.6,0.5,1,0.7,1.1c0.1,0,0.2,0,0.4-0.2c0.2-0.3,0.3-0.6,0.3-1c0.4,0.3,0.7,0.4,0.9,0.2c0,0,0.1,0,0.1,0c0,1.2,0.3,2.5,0.3,2.6
		c0,0,0,0.1,0,0.1c0.2,0.2,0.5,0.3,0.8,0.2c0.3-0.1,0.6-0.3,0.8-0.6c-0.4,1.2-0.7,2.6-0.4,3.1c0.1,0.1,0.2,0.2,0.4,0.2
		c0.9,0,1.5-0.7,1.8-1.3L46.4,35c0,0,0,0.1,0.1,0.1c0,0,0.1,0,0.1,0c0,0,0,0,0,0c0.5-0.1,0.8-0.4,1.1-0.7l0.1,2.2
		c0,0.1,0.1,0.1,0.1,0.1c0.1,0,0.1,0,0.2,0c1.1,0,1.7-1.1,2.2-6.2C50.9,25.1,47.8,20.7,47.8,20.7z M36.4,21
		c-0.1-0.1-0.1-0.1-0.1-0.1c0,0,0,0,0.1-0.1L37,21c0.2,0.1,1.6,0.8,2.9,0.9c0.3,0,0.7,0,0.8-0.2c0.1-0.3-0.3-0.6-0.6-0.8
		c0,0,0,0,0,0c0,0-3-0.9-3.4-1c-0.1,0-0.2-0.2-0.1-0.4c0-0.1,0.1-0.2,0.3-0.2c0.4,0.1,1.4,0.3,1.6-0.1c0.1-0.1,0.5-0.1,0.9,0
		c0,0,0,0,0,0.1c0.1,0.2,0.4,0.3,0.9,0.4c1,0.2,1.9,1.3,1.8,2.3c-0.1,1-0.9,1.9-0.9,1.9c0,0,0,0,0,0.1c0,0.1-0.1,0.2-0.1,0.4
		c-0.2,0-0.3-0.1-0.5-0.2C40.2,24.1,40,24,39.8,24c0.1-0.1,0.2-0.3,0.2-0.5c0,0,0,0,0,0c0.3-0.1,0.5-0.2,0.8-0.3l0,0
		c0.1,0,0.3-0.1,0.4-0.2c0.1-0.1,0.1-0.3,0.2-0.4c0-0.1,0-0.3,0.1-0.3c0,0,0-0.1,0-0.1c0,0-0.1,0-0.1,0c-0.1,0.1-0.2,0.3-0.2,0.5
		c0,0.1,0,0.2-0.1,0.3C41.1,22.9,41,23,40.8,23l0,0c-0.3,0.1-0.5,0.2-0.8,0.3c0,0,0,0,0,0c0,0,0,0,0,0c0,0,0,0,0,0
		c0-0.1,0-0.2,0-0.3c-0.1-0.5-1-1-2.1-1.3c0,0,0,0,0,0c0,0,0,0,0,0c-0.2-0.1-0.4-0.1-0.6-0.2c0,0,0,0,0,0c0,0,0,0,0,0
		c0,0-0.1,0-0.1,0C36.8,21.2,36.5,21.1,36.4,21z M37.3,27.9C37.3,27.9,37.3,27.9,37.3,27.9C37.2,27.9,37.3,27.9,37.3,27.9
		c-0.1-0.1-0.3-0.1-0.4,0c0,0,0-0.1-0.1-0.2c0-0.1-0.1-0.2-0.1-0.3c-0.1-0.1-0.3-0.1-0.4-0.1c0.5-0.3,0.9-0.5,1.2-0.8c0,0,0,0,0,0.1
		c0,0.2,0.1,0.4,0.2,0.5l0,0c0.1,0.1,0.2,0.3,0.1,0.4c0,0,0,0,0,0C37.7,27.7,37.5,27.8,37.3,27.9z M36.3,28.4
		C36.3,28.5,36.2,28.5,36.3,28.4c-0.2,0.1-0.2,0.1-0.3,0.2c0,0,0,0,0,0c-0.2-0.1-0.4-0.2-0.5-0.3l0-0.1c0-0.1-0.1-0.1-0.1-0.2
		c0,0-0.1-0.1-0.1-0.1c0.3-0.1,0.6-0.3,0.8-0.4l0.2,0c0.2,0,0.3,0,0.4,0.1c0,0,0.1,0.1,0.1,0.2c0,0.1,0.1,0.2,0.1,0.2
		c0,0.1,0.1,0.1,0.1,0.1C36.7,28.2,36.5,28.3,36.3,28.4z M34.9,29.5C34.9,29.5,34.9,29.5,34.9,29.5C34.8,29.5,34.8,29.6,34.9,29.5
		c-0.4,0.3-0.8,0.5-1.7,0.8l-0.6-0.3l0-1c0.2-0.1,0.3-0.1,0.4-0.2c0,0,0,0.1,0.1,0.1c0.1,0.1,0.1,0.2,0.2,0.2c0.1,0,0.1,0,0.2,0
		c0.2,0,0.4,0,0.6,0c0.2,0,0.3,0,0.5,0c0.1,0,0.1-0.1,0.1-0.1c0-0.1-0.1-0.1-0.1-0.1c-0.4,0-0.7,0-1.1,0c0,0-0.1,0-0.1,0
		c-0.1,0-0.1-0.1-0.1-0.1c0,0,0,0,0,0c0.1,0,0.2-0.1,0.3-0.1c0,0,0,0,0,0c0.4-0.2,0.8-0.4,1.2-0.5c0.1,0,0.3,0,0.4,0.1
		c0,0,0.1,0.1,0.1,0.1c0,0,0,0,0.1,0.1c0.1,0.2,0.3,0.3,0.5,0.3c-0.2,0.2-0.5,0.4-0.7,0.6C35,29.4,34.9,29.5,34.9,29.5z M37.9,21.9
		c0.8,0.3,1.7,0.7,1.8,1.1c0,0,0,0.1,0,0.1c-1.1,0.1-1.8-0.5-2-0.7C37.8,22.2,37.9,22.1,37.9,21.9z M37.5,22.7c0.3,0.3,1,0.7,2,0.7
		c0.1,0,0.1,0,0.2,0c-0.1,0.5-0.5,0.8-0.6,0.9c-1.5,0-2-0.6-2.1-0.8C37.2,23.2,37.4,23,37.5,22.7z M36.9,23.7
		c0.2,0.3,0.8,0.9,2.1,0.9c0,0.1-0.1,0.3-0.1,0.4c0,0.1-0.2,0.3-0.6,0.6c0,0,0,0,0,0c-1.1,0-1.7-0.9-1.9-1.2
		C36.5,24.2,36.7,24,36.9,23.7z M36.1,24.6c0.2,0.4,0.8,1.2,1.8,1.3c-0.4,0.3-0.8,0.6-1.4,0.9c-0.4-0.1-1-0.9-1.3-1.5
		C35.5,25.1,35.8,24.9,36.1,24.6z M34.9,25.5c0.2,0.3,0.8,1.2,1.3,1.6c-0.4,0.2-0.8,0.4-1.2,0.7c-0.4-0.3-1-1.2-1.2-1.8
		c0.3-0.1,0.5-0.2,0.8-0.3C34.7,25.6,34.8,25.5,34.9,25.5z M33.4,26c0.2,0.4,0.7,1.4,1.2,1.8c-0.4,0.2-0.7,0.3-1.1,0.5
		c-0.2-0.2-0.6-0.7-0.9-1.1l0-1.2C32.8,26.1,33.1,26.1,33.4,26z M32.6,28.7l0-0.9c0.2,0.2,0.4,0.5,0.6,0.7
		C33,28.6,32.8,28.7,32.6,28.7z M36.9,27.9C36.9,27.9,36.9,27.9,36.9,27.9C36.9,27.9,36.9,27.9,36.9,27.9L36.9,27.9L36.9,27.9z
		 M37.9,27.1L37.9,27.1c-0.1-0.2-0.2-0.3-0.2-0.4c0-0.1,0-0.1,0-0.2c0.2-0.2,0.4-0.3,0.6-0.5c0,0,0,0,0,0c0,0.1,0,0.1,0,0.2
		c0,0.2,0.1,0.4,0.2,0.6c0.1,0.1,0.1,0.3,0.2,0.4c-0.2,0.1-0.4,0.2-0.6,0.4C38.1,27.4,38,27.2,37.9,27.1z M38.8,27
		c0-0.1-0.1-0.3-0.2-0.4c-0.1-0.2-0.2-0.3-0.2-0.5c0-0.1,0-0.1,0-0.1c0-0.1,0-0.2,0-0.2c0.2-0.2,0.4-0.3,0.5-0.5
		c0.1,0,0.2,0.1,0.3,0.1c0.1,0.1,0.2,0.1,0.2,0.2c0,0,0,0,0,0c0,0,0,0.1,0,0.1c0.1,0.1,0.2,0.2,0.3,0.2c0,0,0,0,0.1,0
		C39.6,26.4,39.3,26.8,38.8,27z M40.2,25.8c-0.1,0-0.1,0-0.2,0c-0.1,0-0.1,0-0.2-0.1c0,0,0,0,0-0.1c0,0,0,0,0-0.1
		c-0.1-0.2-0.2-0.3-0.3-0.3c-0.1-0.1-0.2-0.1-0.3-0.1c0,0,0,0,0,0c0.1-0.2,0.1-0.5,0.2-0.6c0.1-0.1,0.2-0.2,0.4-0.3c0,0,0,0,0.1,0
		c0.2,0,0.4,0.1,0.6,0.2c0.2,0.1,0.3,0.2,0.5,0.2C40.6,25,40.4,25.4,40.2,25.8z M37.3,21.7c0.1,0,0.2,0.1,0.3,0.1
		c-1.7,3.7-4.3,4-5,4l0-0.2C33.3,25.5,35.9,25.1,37.3,21.7z M32.2,29.9l-0.4-0.2l0.1-5.2h0.4c0,0,0,0,0,0L32.2,29.9z M23.9,26.3
		c0.1-0.3,0.6-0.9,1.4-1.1c0.3,0.3,0.6,0.5,1,0.8c-0.1,0.6-0.6,1.1-0.7,1.2C25,27,24.5,26.7,23.9,26.3z M23.4,22.7
		c0,0.1,0.1,0.2,0.2,0.3c-0.2,0.2-1,0.7-1.8,1.1c-0.2-0.3-0.3-0.6-0.3-1c0.1,0,0.3,0,0.4,0C22.3,23.2,22.9,23,23.4,22.7z M23.7,23.3
		c0.1,0.1,0.2,0.3,0.3,0.5c0,0,0,0,0,0C23.4,25,22.5,25,22.4,25c-0.2-0.2-0.3-0.4-0.5-0.6C22.3,24.2,23.3,23.7,23.7,23.3z M24.2,24
		c0.2,0.3,0.5,0.6,0.8,0.9c-0.8,0.3-1.2,0.9-1.4,1.2c-0.3-0.2-0.7-0.5-1-0.8C23,25.2,23.7,25,24.2,24z M26.5,26.1
		c0.3,0.2,0.6,0.4,0.9,0.5c-0.2,0.3-0.6,0.7-0.7,1l-0.6-0.2c0,0-0.1,0-0.3-0.1C26,27.1,26.4,26.7,26.5,26.1z M27.7,26.8
		c0.3,0.1,0.6,0.2,0.9,0.4l0,1.3L27,27.8C27,27.6,27.4,27.2,27.7,26.8z M28.8,24.6h0.4l0.1,4.2l-0.5-0.2c0,0,0,0,0,0L28.8,24.6z
		 M29.7,28.9l-0.1-4.3l0.8,0l0,4.6L29.7,28.9z M30.7,24.6h1l-0.1,5.1l-0.8-0.3L30.7,24.6z M33.4,17.9c0.1,0.2,0.3,0.6-0.1,1.5
		l-3.5,0c-0.3-0.2-0.5-0.4-0.5-0.6c0-0.4,0.4-0.8,0.4-0.8c0,0,0,0,0,0c0.1-0.1,0.3-0.2,0.4-0.3c0,0,0,0,0,0
		C30.1,17.8,32,19.1,33.4,17.9z M32.5,17c0.2,0.5-0.1,1-0.1,1c0,0,0,0.1,0,0.1c-0.9,0.2-1.7-0.3-2-0.5c1.1-0.8,1.2-0.9,1.2-0.9
		c0.1-0.1,0.1-0.2,0.2-0.3C32.1,16.5,32.4,16.7,32.5,17z M29.3,14.1C29.3,14.1,29.3,14.1,29.3,14.1c0.1,0.6,0.1,0.9,0.8,1.5
		c-0.2,0.1-0.5,0.3-0.9,0.5C29,15.8,28.5,14.9,29.3,14.1z M27.3,18.1c0.1-0.5,0.5-1,1.3-1.4c2.3-1.2,2.4-1.3,2-2.4
		c0-0.1-0.1-0.2-0.1-0.3c-0.3-0.9-0.1-1.1,0.3-1.4c0,0.5,0.1,1,0.5,1.6l0.1,0.2c0.4,0.6,0.7,1-0.1,2.1c-0.1,0.1-1.1,0.9-1.8,1.3
		c0,0-0.5,0.5-0.5,1c0,0.2,0.1,0.4,0.3,0.6h-1.6C27.6,19.3,27.2,18.8,27.3,18.1z M27.4,19.8h0.3h0l2.1,0l3.6,0h0.3l-0.5,0.9l-5.2,0
		L27.4,19.8z M27.8,22.8c-0.4,0-0.7-0.3-0.7-0.7v-0.4c0-0.4,0.3-0.7,0.7-0.7h0.2l5.3,0h0.1c0.4,0,0.7,0.3,0.7,0.7v0.4
		c0,0.4-0.3,0.7-0.7,0.7l-0.9,0l-3.7,0H27.8z M28.1,23.7c0-0.3,0.3-0.6,0.6-0.6l3.7,0c0.3,0,0.6,0.3,0.6,0.6c0,0.3-0.3,0.6-0.6,0.6
		h-0.6h0l-1.3,0h-1.1h-0.7C28.3,24.3,28.1,24,28.1,23.7z M28.6,26.2l0,0.6c-3.3-1.1-4.7-3.8-5-4.3c0,0,0.1-0.1,0.2-0.1
		C24.1,23,25.5,25.5,28.6,26.2z M24.5,20.4c-0.1,0.2-0.4,0.6-0.8,0.7c-0.3,0.1-1.1,0-1.4,0c-0.1-0.1-0.4-0.3-1-0.1
		c-0.3,0.1-0.4,0.2-0.5,0.4c-0.1,0.3,0.4,0.7,0.5,0.7l0,0l0,0c0,0,1,0,1.4,0c0.2,0,0.2,0,0.4-0.1c0.1,0,0.3-0.1,0.8-0.2
		c0.3-0.1,0.5,0,0.5,0c0,0,0,0,0,0c0,0.1-0.1,0.1-0.2,0.1c-0.2,0-0.3,0.1-0.4,0.1c0,0,0,0,0,0c0,0,0,0,0,0c-0.3,0.1-0.5,0.3-0.5,0.3
		c-0.9,0.9-2.5,0.4-2.5,0.4l0,0c-0.5-0.1-1.2-0.4-1.5-0.7c0,0,0-0.1-0.1-0.1l0,0c0,0,0-0.1-0.1-0.1c0,0,0,0,0-0.1
		c0-0.4,0.2-0.8,0.6-1.3c0,0,0,0,0,0c0.2,0,0.6,0,0.7-0.2c0.2-0.2,0.8-1,1-1c0.1,0,0.7,0,0.8,0c0.1,0.2,0.3,0.4,0.9,0.5
		C23.9,19.7,24.5,20.2,24.5,20.4z M18.4,27.9c-0.1,0-0.1-0.2-0.2-0.4c0-0.1,0-0.3,0-0.4l-0.3,0c0,0.1,0,0.2,0,0.4
		c0.1,2.9-0.3,3.3-0.5,3.4c-0.3,0.1-0.8-0.5-1.2-1.2c-0.1-0.3-0.3-0.6-0.4-0.8L15.5,29c0.1,0.1,0.2,0.5,0.4,0.8
		c0.7,1.6,0.4,3.4,0,3.6c0,0-0.1,0.1-0.2-0.1c-0.7-0.9-1.2-1.4-1.4-1.5c0-0.2-0.1-0.4-0.1-0.5c0-0.1-0.1-0.1-0.2-0.1
		c-0.1,0-0.1,0.1-0.1,0.2c0,0.2,0.1,0.4,0.1,0.6c0,0,0,0,0,0c0.2,1.5,0.4,3,0.2,3.3c-1-0.1-1.6-1.9-1.8-2.6c0-0.1-0.1-0.1-0.2-0.1
		c-0.1,0-0.1,0.1-0.1,0.2c0,0.1,0.3,1.1,0.8,1.9c0.1,1.8,0,2.3-0.2,2.4c-0.1,0-0.2,0-0.4-0.1c-0.5-0.3-1.5-4.5-1.5-8
		c0-3.3,2.4-7.8,2.6-8.1c0.2-0.2,1.3-1.3,1.4-1.6c0-0.1,0.2-0.3,0.4-0.5c0.3-0.3,0.8-0.9,1.3-1.7c0.9-1.3,4.3-2.3,4.3-2.3
		c0.9-0.1,2.4-0.2,2.8,0c1,0.5,1.5,1.2,1.5,1.8c0,1.4-2.2,2.7-2.2,2.7c-0.1,0-0.1,0.1-0.1,0.1c-0.2,0-0.2-0.1-0.3-0.2
		c0.4-0.1,0.8-0.7,1.4-1.6c0.4-0.7,0.4-1.1,0.2-1.5c-0.4-0.7-1.8-0.8-3.2-0.8c-1.7,0-3.5,1.7-4.2,2.5c-0.2,0.2-0.3,0.3-0.4,0.3
		c-0.1,0-0.4,0.3-1.2,1.3c-0.5,0.7-1.1,1.4-1.3,1.6c-0.4,0.3-1.7,3.5-1.8,3.9c0,0.1,0,0.1,0.1,0.1c0,0,0,0,0,0c0,0,0.1,0,0.1-0.1
		c0.2-0.6,0.5-1.3,0.8-2c0.1,0,0.2,0.1,0.4,0.1c0.1,0,0.1,0,0.2,0c0.3-0.1,0.7-0.3,0.9-0.8l0.1-0.2c0.6-0.9,1.9-3.2,2.2-3.2
		c0.1,0,0.1-0.1,0.1-0.1c0-0.1-0.1-0.1-0.1-0.1c-0.3,0-1.1,1.2-2.3,3.3l-0.1,0.2c-0.2,0.4-0.5,0.6-0.8,0.7c-0.3,0.1-0.5-0.1-0.5-0.1
		c0.4-0.8,0.7-1.5,0.9-1.6c0.2-0.2,0.8-0.9,1.4-1.6c0.4-0.5,1-1.2,1.1-1.3c0.1,0,0.2-0.1,0.4-0.4c0.8-0.7,2.5-2.4,4.1-2.4
		c1.3,0,2.6,0.1,3,0.7c0.2,0.3,0.1,0.7-0.2,1.3c-0.7,1.3-1.1,1.5-1.3,1.6c0,0,0,0,0,0c0,0,0,0-0.1-0.1c-0.1,0-0.4-0.1-0.7-0.1
		c0,0,0.1,0,0.1-0.1c0,0,0-0.1,0-0.1c0,0-0.1,0-0.1,0c-0.1,0.1-0.2,0.2-0.3,0.2c0,0,0,0,0,0c-0.1,0-0.2,0.1-0.4,0.3
		c-0.2,0.2-0.5,0.3-0.6,0.4c0.4-0.5,1-1.3,1-1.4c0,0,0-0.1,0-0.1c0,0-0.1,0-0.1,0c0,0-0.7,1.1-1.1,1.5c0,0,0,0.1,0,0.1c0,0,0,0,0,0
		c0,0,0,0,0,0c0-0.6,0.7-1.7,0.7-1.7c0,0,0-0.1,0-0.1c0,0-0.1,0-0.1,0c0,0.1-0.8,1.2-0.7,1.9c0,0.1,0.1,0.2,0.1,0.2c0,0,0.1,0,0.1,0
		c0.1,0,0.2,0,0.4-0.1c-0.1,0.1-0.1,0.2-0.2,0.2c-0.1,0.1-0.4,0.1-0.5,0.1c-0.1,0-0.1,0-0.2,0l-0.1,0.1c-0.2,0.2-0.7,0.8-0.7,1.5
		c0,0.1,0,0.2,0.1,0.3c-0.1,0.7-0.1,1.4,0.2,2.1c-0.2,1.3-1,1.9-1.3,2.1V25c0-0.1,0-0.1-0.1-0.1c-0.1,0-0.1,0-0.1,0.1v1.3
		c0,0,0,0.1,0,0.1c0,0,0,0,0.1,0c0,0,0,0,0,0c0,0,1.1-0.5,1.5-2c0.1,0.1,0.1,0.3,0.2,0.4c-1,1.7-1.3,2.7-1,2.9
		c0.1,0.1,0.2,0.1,0.3,0C18.5,27.9,18.4,27.9,18.4,27.9z M18.6,27.5c0-0.3,0.5-1.4,1-2.3c0.2,0.3,0.4,0.5,0.6,0.8
		C19.1,27.2,18.7,27.4,18.6,27.5z M19.5,27.1C19.5,27.1,19.5,27.1,19.5,27.1c0-0.1,0.1-0.1,0.2-0.2c0,0.1-0.1,0.2-0.1,0.3
		C19.6,27.2,19.6,27.2,19.5,27.1z M20.9,27.3c-0.8,0.8-1.2,1.1-1.4,1.2c0.2-1.1,0.6-2,0.8-2.3c0.3,0.3,0.5,0.6,0.8,0.8
		C21.1,27.1,21.1,27.2,20.9,27.3z M22.3,29c-0.3,0.3-0.7,0.5-1.4,0.5c0-0.3,0.3-1.3,0.6-2.2c0.4,0.3,0.7,0.6,1,0.7
		C22.5,28.4,22.4,28.7,22.3,29z M22.5,30.4c0-0.2,0.1-0.7,0.2-1.3c0.2-0.3,0.3-0.7,0.2-0.9c0.1,0.1,0.2,0.1,0.2,0.1
		c0,0,0.3,0.1,0.8,0.3c0,0,0.1,0.1,0.1,0.2c0,0.3-0.1,0.5-0.1,0.7C23.7,29.9,23.2,30.2,22.5,30.4z M24.1,30.9c0-0.2,0-0.6,0.1-1.1
		c0-0.1,0.1-0.1,0.1-0.2c0.1-0.2,0.1-0.5,0-0.7c0,0,0,0,0-0.1c0.3,0.1,0.5,0.2,0.9,0.4C25.3,29.4,25.3,30.2,24.1,30.9z M26.3,29.7
		c0.3,0.1,0.6,0.3,1,0.4c-0.3,0.1-0.9,0.4-1.5,0.9C25.6,30.1,26.1,29.8,26.3,29.7z M25.9,38.2C25.9,38.2,25.9,38.2,25.9,38.2
		c0-0.2,0-0.4,0.1-0.6c0-0.1,0.1-0.2,0.1-0.3c0,0,0-0.1,0-0.1c0-0.1,0-0.2,0.1-0.3c0,0,0.1,0,0.1,0c0.1,0,0.1,0,0.2-0.1
		c0.1-0.1,0.1-0.2,0.1-0.3c0,0,0-0.1,0-0.1c0-0.1,0-0.1,0-0.1c0-0.1,0-0.1,0-0.2c0-0.1,0.1-0.3,0-0.4c0,0-0.1-0.1-0.1,0
		c0,0-0.1,0.1,0,0.1c0,0.1,0,0.1,0,0.2c0,0.1,0,0.2,0,0.2c0,0.1,0,0.1,0,0.2c0,0,0,0.1,0,0.1c0,0.1,0,0.1,0,0.2c0,0-0.1,0-0.1,0.1
		c0,0-0.1,0-0.1,0.1c-0.1,0.1-0.2,0.2-0.2,0.4l0,0.1c0,0.1-0.1,0.2-0.1,0.3c-0.1,0.1-0.1,0.3-0.1,0.5c-0.8-0.6-1.2-1.4-1.3-2.3
		l0.3-0.2c0.1-0.1,0.3-0.2,0.3-0.4c0,0,0,0,0-0.1c0,0,0,0,0-0.1c0,0,0,0,0-0.1c0,0,0.1-0.1,0.1-0.1c0-0.1,0-0.2,0-0.2
		c0-0.1,0-0.1,0-0.2c0,0,0.1,0,0.1,0c0,0,0.1,0,0.1,0c0.1,0,0.1-0.1,0.1-0.1c0-0.1-0.1-0.1-0.1-0.1c0,0-0.1,0-0.1,0
		c-0.1,0-0.2,0-0.2,0.1c-0.1,0.1-0.1,0.2-0.1,0.3c0,0.1,0,0.1,0,0.2c0,0,0,0,0,0.1c0,0-0.1,0.1-0.1,0.1c0,0,0,0.1,0,0.1c0,0,0,0,0,0
		c0,0.1-0.1,0.2-0.2,0.2l-0.2,0.2c0-0.1,0-0.2,0-0.3c0-0.8,0.1-1.4,0.3-2c0.1,0.1,0.1,0.1,0.2,0.2c0,0,0,0.1,0,0.1
		c0,0,0,0.1,0.1,0.1c0.1,0.2,0.3,0.3,0.6,0.3c0,0,0,0,0,0c0.1,0,0.1,0,0.1-0.1c0-0.1,0-0.1-0.1-0.1c-0.2,0-0.4-0.1-0.5-0.2
		c0,0,0-0.1,0-0.1c0,0,0-0.1,0-0.1c-0.1-0.1-0.1-0.2-0.3-0.3c0.1-0.3,0.3-0.6,0.4-0.8c0.1,0,0.2,0,0.3,0.1c0.1,0.1,0.2,0.2,0.2,0.3
		l0,0c0,0,0,0.1,0,0.1c0,0.1,0.1,0.2,0.2,0.3c0,0,0.1,0.1,0.1,0.1c0,0,0,0,0,0.1c0,0,0,0.1,0,0.1c0.1,0.1,0.2,0.2,0.3,0.2
		c0,0,0.1,0,0.1,0c0.1,0,0.1-0.1,0.1-0.1c0-0.1-0.1-0.1-0.1-0.1c-0.1,0-0.1,0-0.2-0.1c0,0,0,0,0-0.1c0,0,0,0,0-0.1
		c0-0.1-0.1-0.1-0.1-0.2c-0.1-0.1-0.1-0.1-0.1-0.2c0,0,0-0.1,0-0.1l0,0c0-0.2-0.1-0.3-0.2-0.4c-0.1-0.1-0.2-0.1-0.3-0.1
		c0.1-0.2,0.3-0.3,0.4-0.4c0,0,0,0,0,0c0,0,0,0,0,0c0.1,0,0.1-0.1,0.1-0.2c0.8-0.7,1.6-1,1.7-1c0,0,0.1,0,0.1-0.1
		c0.3,0.2,0.7,0.3,1.1,0.5c0,0,0,0,0,0l0,1.2c-1.4,0.6-3,1.5-2.4,3.1c0,0.1,0.1,0.1,0.1,0.2c-0.1,0-0.3,0-0.5,0.1
		c-0.3,0.1-0.5,0.3-0.6,0.6l0,0c0,0,0,0,0,0.1c0,0,0,0,0,0.1c0,0,0,0,0,0.1c0,0.1,0,0.2,0,0.2c0,0,0,0,0,0.1c0,0.1,0,0.1-0.1,0.1
		c-0.1,0-0.1,0.1-0.1,0.1c0,0,0.1,0.1,0.1,0.1c0,0,0,0,0,0c0.1,0,0.2-0.1,0.2-0.3c0,0,0-0.1,0-0.1c0-0.1,0-0.1,0-0.1c0,0,0,0,0,0
		c0,0,0-0.1,0.1-0.1c0,0,0-0.1,0-0.1l0,0c0-0.2,0.3-0.4,0.4-0.4c0.2-0.1,0.3-0.1,0.5-0.1c0,0,0,0,0,0c0.9,1.8,1.9,2.3,2.5,2.5
		c0,0,0,0.1,0,0.1c0,0.1,0,0.2,0,0.3c0,0,0,0.1,0,0.1c0,0-0.1,0-0.1,0c0,0-0.1,0.1,0,0.1c0,0,0.1,0.1,0.1,0.1c0,0,0,0,0.1,0
		c0,0,0,0,0,0c0,0,0.1,0,0.1,0c0.1-0.1,0-0.2,0-0.3c0,0,0-0.1,0-0.1c0,0,0.1-0.1,0.2-0.1c0,0,0,0,0,0c0.1,0,0.1,0,0.1,0l0.2,0
		c0,0.2,0.1,0.4,0.3,0.6c0,0,0,0,0,0c0,0,0.1,0.1,0.1,0.1c0,0,0,0.1-0.1,0.2l-0.2,0.3c-0.1,0.1,0,0.2,0,0.3c0,0,0.1,0.1,0.1,0.1
		c0.1,0,0.2,0.1,0.2,0.2c-0.1,0-0.1,0-0.2,0l-0.1,0c-0.5-0.1-0.9-0.2-1.3-0.3c0,0,0-0.1,0-0.1c0,0,0,0,0,0c0-0.1,0-0.1,0.1-0.2
		c0.1-0.1,0.2-0.1,0.3-0.1l0.1,0c0.1,0,0.2,0,0.3-0.1c0.1,0,0.1-0.1,0.1-0.1c0-0.1-0.1-0.1-0.1-0.1c-0.1,0-0.1,0-0.2,0.1l-0.1,0
		c-0.1,0-0.3,0.1-0.4,0.2c-0.1,0.1-0.1,0.2-0.1,0.3c-0.2-0.1-0.4-0.2-0.6-0.2c0-0.2,0.1-0.4,0.1-0.6c0-0.1,0-0.1,0-0.2
		c0-0.1-0.1-0.1-0.1-0.2c0,0,0,0-0.1,0c-0.1-0.1-0.1-0.3,0-0.4c0.1-0.1,0.2-0.2,0.4-0.3c0,0,0.1-0.1,0-0.1c0,0-0.1-0.1-0.1,0
		c-0.2,0.1-0.3,0.2-0.4,0.4c-0.1,0.2-0.1,0.5,0,0.6c0,0,0,0,0.1,0.1c0,0,0.1,0.1,0.1,0.1c0,0,0,0.1,0,0.1c0,0.2,0,0.3,0,0.5
		C26.7,38.7,26.3,38.5,25.9,38.2z M30.4,31.5C30.4,31.5,30.4,31.6,30.4,31.5l0,6.3L30,37.8l-0.2-6.5C30,31.4,30.2,31.5,30.4,31.5z
		 M32.3,37.6l0.2-5.1c1.8,0.9,2.6,1.7,2.6,2.6C35,36.4,32.9,37.3,32.3,37.6z M34.2,39.4c0,0.2,0,0.3,0.1,0.5c0,0,0,0,0,0.1
		c0,0,0,0,0,0.1c-0.1,0.1-0.3,0.2-0.5,0.2c-0.1,0-0.2,0.1-0.3,0.1c-0.2,0.1-0.4,0.2-0.5,0.4c-0.2-0.1-0.5-0.3-0.8-0.4c0,0,0,0,0,0
		c0.1-0.1,0.2-0.2,0.1-0.3c0-0.1-0.1-0.1-0.1-0.1c-0.1-0.1-0.3-0.2-0.3-0.3c-0.1-0.1-0.1-0.2,0-0.3l0,0c0,0,0,0,0.1-0.1
		c0.1-0.2,0-0.4,0-0.5c0-0.1-0.1-0.1-0.1-0.1c-0.1,0-0.1,0.1-0.1,0.1c0.1,0.1,0.1,0.2,0,0.2c0,0,0,0,0,0c0,0,0,0,0,0
		c-0.2,0.2-0.2,0.4,0,0.6c0.1,0.2,0.3,0.3,0.4,0.4c0,0,0,0,0,0c0,0,0,0,0,0.1c0,0,0,0,0,0c0,0-0.1,0-0.1,0.1
		c-0.6-0.3-1.2-0.4-1.7-0.6c0-0.2-0.2-0.4-0.4-0.4c0,0,0,0,0,0L30,39c0-0.1,0.1-0.2,0.1-0.3c0-0.1-0.1-0.2-0.1-0.2
		c-0.1-0.1-0.2-0.3-0.2-0.4l0,0c0,0,0,0,0,0c0,0,0,0,0,0c0,0,0,0,0,0l1,0.2c-0.1,0.1-0.1,0.2-0.1,0.3c0,0,0,0,0,0l0,0
		c-0.1,0.1-0.2,0.3-0.2,0.4c0,0.1,0,0.1,0.1,0.1c0,0,0,0,0,0c0.1,0,0.1-0.1,0.1-0.1c0-0.1,0-0.2,0.1-0.3c0,0,0.1,0,0.1-0.1
		c0,0,0-0.1,0-0.1c0-0.1,0.1-0.2,0.2-0.2l0.6,0.2c0,0,0,0,0.1,0c0,0,0.1,0.1,0.1,0.1c0,0,0,0,0,0c0,0,0,0,0,0c0.1,0,0.2,0.1,0.4,0.1
		c0,0,0,0,0,0.1c0,0.2-0.1,0.4,0,0.6c0,0.1,0,0.1,0.1,0.2c0.1,0.1,0.1,0.3,0.1,0.4c0,0.1,0,0.1,0.1,0.1c0,0,0,0,0,0
		c0,0,0.1,0,0.1-0.1c0.1-0.2,0-0.4-0.1-0.5c0-0.1,0-0.1-0.1-0.2c0-0.2,0-0.3,0-0.5c0,0,0.1,0,0.1,0c0,0,0.1,0,0.1,0
		c0.2,0.1,0.4,0.1,0.6,0.2C33.7,39.2,33.9,39.3,34.2,39.4z M34.1,42.4c0.1,0.2,0.1,0.4,0,0.6c-0.3,0.6-1.3,0.9-1.5,0.9
		c-0.1-0.2-0.3-0.4-0.5-0.5l0.1-2.6C33.1,41.2,33.9,41.7,34.1,42.4z M30.7,43.3l0-3c0.2,0.1,0.4,0.1,0.6,0.2l-0.1,2.8H30.7z
		 M30.2,43.3l-0.1-3.2c0.1,0,0.2,0,0.3,0.1l0,3.1L30.2,43.3z M29,43.4C29,43.4,29,43.4,29,43.4c0,0-1.1-0.7-1.1-1.5
		c0-0.5,0.4-0.9,1.1-1.3L29,43.4C29.1,43.4,29.1,43.4,29,43.4C29,43.4,29,43.4,29,43.4z M29.4,43.3l-0.1-3.4c0.1,0,0.2,0,0.3,0.1
		l0.1,0c0,0,0.1,0,0.1,0l0.1,3.3h-0.4C29.5,43.3,29.4,43.3,29.4,43.3z M31.6,40.6c0.1,0,0.2,0.1,0.3,0.1l-0.1,2.6
		c-0.1,0-0.2,0-0.3,0h0L31.6,40.6z M32.2,32.4L32,38.2c0,0,0,0,0,0l-0.3-0.1l0.1-6C31.9,32.3,32,32.3,32.2,32.4
		C32.2,32.4,32.2,32.4,32.2,32.4z M31.5,32.1l-0.1,6L30.7,38l0-6.3C30.9,31.8,31.2,31.9,31.5,32.1C31.5,32.1,31.5,32.1,31.5,32.1z
		 M29.5,31.1l0.2,6.6l-0.2-0.1l0,0l0,0c0,0-0.1,0-0.2,0L29,30.9C29.2,31,29.3,31.1,29.5,31.1z M28.7,32.3l0.1,5.3
		c-0.6-0.2-1.5-0.8-2.3-2.6C26.2,34,26.9,33.1,28.7,32.3z M26.2,42.9c0.1-0.1,0.1-0.2,0.1-0.3c0-0.1,0-0.1,0-0.1
		c0-0.1,0.2-0.2,0.2-0.3l0.4-0.4c0,0,0,0,0.1,0c0,0,0,0,0.1,0c0.1,0,0.1-0.1,0.2-0.2c0.1-0.2,0.3-0.4,0.5-0.4c0.1,0,0.1-0.1,0.1-0.1
		c0-0.1-0.1-0.1-0.1-0.1c-0.3,0.1-0.5,0.3-0.6,0.6c0,0,0,0.1-0.1,0.1c0,0,0,0,0,0c-0.1,0-0.1,0.1-0.1,0.1L26.4,42
		c-0.1,0.1-0.2,0.2-0.3,0.4c0,0.1,0,0.1,0,0.2c0,0,0,0.1,0,0.1c-0.3-0.5-0.4-0.9-0.4-1.4c0-0.2,0.1-0.4,0.1-0.5c0.2,0,0.3,0,0.5,0.1
		c0.1,0,0.1,0.1,0.2,0.1c0.2,0.1,0.3,0.2,0.5,0.2c0,0,0,0,0,0c0.1,0,0.1-0.1,0.1-0.1c0-0.1,0-0.1-0.1-0.1c-0.2,0-0.3-0.1-0.4-0.2
		c-0.1,0-0.1-0.1-0.2-0.1c-0.1-0.1-0.3-0.1-0.5-0.1c0.4-0.7,1.2-1.1,1.4-1.2c0.5,0.2,1.1,0.4,1.7,0.5l0,0.4c0,0-0.1,0-0.1,0
		c-0.2,0.1-0.3,0.2-0.5,0.3l-0.2-0.2c0,0,0-0.1-0.1-0.1c0,0-0.1,0-0.1,0c-0.1,0-0.1-0.1-0.2-0.2c-0.1-0.1-0.1-0.2-0.2-0.2
		c-0.1-0.1-0.2-0.1-0.3-0.1c-0.2,0-0.3,0-0.5,0c-0.1,0-0.1,0.1-0.1,0.1c0,0.1,0.1,0.1,0.1,0.1c0.1,0,0.3,0,0.4,0
		c0.1,0,0.2,0,0.2,0.1c0.1,0,0.1,0.1,0.1,0.2c0.1,0.1,0.2,0.2,0.3,0.2c0,0,0,0,0,0c0,0,0,0,0,0c0,0,0,0,0,0l0.2,0.3
		c-0.4,0.4-0.6,0.8-0.6,1.2c0,0.1,0,0.2,0,0.3c0,0,0,0,0,0c-0.1,0-0.1,0-0.1,0.1c0,0.1-0.1,0.3-0.3,0.4c0,0-0.1,0.1-0.1,0.2
		c0,0,0,0.1,0,0.1c0.1,0.1,0,0.2,0,0.3c0,0.1,0,0.2,0,0.3c0,0.1,0.1,0.2,0.1,0.3c0,0,0,0.1,0.1,0.1c0,0.1,0,0.1,0,0.2
		C26.8,43.7,26.5,43.3,26.2,42.9z M27.5,43.8c0-0.1,0-0.1-0.1-0.1c0-0.1-0.1-0.1-0.1-0.2c0-0.1,0-0.2,0-0.3c0-0.2,0.1-0.3,0-0.5
		c0,0,0,0,0,0c0,0,0,0,0,0c0.1-0.1,0.2-0.3,0.3-0.4c0.1,0.3,0.3,0.6,0.6,0.9c0,0,0,0,0,0l0,0.4c0,0,0,0,0,0.1c0,0,0,0,0,0.1
		c-0.1,0.2-0.3,0.4-0.4,0.6c0,0-0.1,0.1-0.1,0.1c-0.1-0.1-0.1-0.1-0.2-0.2C27.5,44.1,27.5,43.9,27.5,43.8z M27.9,44.5
		C27.9,44.5,27.9,44.5,27.9,44.5c0,0,0-0.1,0-0.1c0.1-0.2,0.3-0.4,0.4-0.6c0,0,0.1-0.1,0.1-0.2c0,0,0-0.1,0-0.1l0-0.2
		c0.1,0.1,0.3,0.2,0.3,0.3c-0.2,0.2-0.4,0.5-0.4,0.9c0,0.1,0,0.3,0.1,0.4C28.2,44.8,28.1,44.6,27.9,44.5z M28.6,44.5
		c0-0.5,0.4-0.9,0.9-0.9h0.5h0h0.5h0.8h0h0.2c0.5,0,0.9,0.4,0.9,0.9c0,0.5-0.4,0.9-0.9,0.9H31c-0.1,0-0.2,0-0.3,0s-0.2,0-0.3,0
		l-0.8,0C29.1,45.4,28.6,45,28.6,44.5z M25.4,47.1c-0.1-0.1-0.2-0.2-0.2-0.2c0,0,0.1-0.1,0.3-0.1c2.6-0.3,3.8-1,4.1-1.2h0.2
		c-0.3,0.3-0.5,0.6-0.5,1c0,0,0,0,0,0C26.9,47.4,25.6,47.2,25.4,47.1z M30.7,47.8c-0.6,0-1.1-0.5-1.1-1.1c0-0.5,0.3-0.9,0.8-1H31
		c0.4,0.1,0.8,0.5,0.8,1C31.7,47.3,31.3,47.8,30.7,47.8z M32,45.9c0.1,0,2.4,0.9,4.3,1l-0.3,0.4c-0.3,0-1.9,0.1-4.1-0.7
		c0-0.3-0.1-0.5-0.3-0.7C31.8,45.8,31.9,45.8,32,45.9C32,45.8,32,45.8,32,45.9z M33.4,44.5c-0.1-0.1-0.1-0.1-0.1-0.2
		c0-0.1,0-0.1,0-0.1c-0.1,0-0.1,0-0.1,0c-0.1,0.1,0,0.3,0.1,0.4c0,0.1,0.1,0.1,0.1,0.2c0,0,0,0.1-0.1,0.1L33.2,45
		c-0.3,0.1-0.6,0.2-0.8,0.3c0.2-0.2,0.4-0.5,0.4-0.9c0-0.1,0-0.2,0-0.3c0.2-0.1,0.8-0.3,1.3-0.6c0,0,0,0.1,0,0.1c0,0,0,0,0,0
		c0,0.1,0,0.2,0,0.3c0,0,0,0.1,0,0.1c0,0.1,0.1,0.1,0.1,0.1c0,0,0.1,0.1,0.1,0.2c0,0.1,0,0.1-0.1,0.2c0,0,0,0,0,0
		c-0.2,0.1-0.4,0.2-0.6,0.3c0,0,0-0.1,0-0.1C33.5,44.7,33.5,44.6,33.4,44.5z M34.4,44.4C34.4,44.4,34.4,44.4,34.4,44.4
		c0-0.2-0.1-0.3-0.2-0.4c0,0,0,0,0,0c0,0,0,0,0,0c0-0.1,0-0.2,0-0.4c0-0.1-0.1-0.1-0.1-0.1c0,0-0.1,0-0.1,0c0.1-0.1,0.3-0.3,0.4-0.4
		c0.1-0.2,0.1-0.3,0.1-0.5c0,0,0.1,0,0.1,0c0.1,0,0.1,0,0.2,0c0,0.1,0,0.1,0,0.2c0,0.1,0,0.1,0,0.2c0,0.3,0.2,0.5,0.5,0.6
		c0,0,0,0,0,0C35,44,34.7,44.2,34.4,44.4z M35.9,40.9c0.2,0.4,0.3,0.9,0.2,1.3c0,0-0.1-0.1-0.1-0.1c0,0,0,0-0.1,0l-0.3-0.1
		c-0.1,0-0.1,0-0.2-0.1c0,0-0.1-0.1-0.1-0.1c0-0.1,0-0.1-0.1-0.1l-0.5-0.1c-0.1,0-0.1,0-0.1,0.1c0,0.1,0,0.1,0.1,0.1l0.5,0.1
		c0,0.1,0.1,0.2,0.2,0.2c0.1,0.1,0.2,0.1,0.3,0.1l0.3,0.1c0.1,0.1,0.1,0.2,0.2,0.2c-0.1,0.4-0.4,0.8-0.6,1.1c0,0,0,0,0,0
		C35.2,43.4,35,43.2,35,43c0,0,0-0.1,0-0.1c0-0.1,0-0.2-0.1-0.3c-0.1-0.1-0.3-0.2-0.4-0.1c0,0,0,0,0,0c0-0.1,0-0.2-0.1-0.3
		c-0.1-0.3-0.3-0.5-0.6-0.8c0.1-0.1,0.3-0.2,0.6-0.2c0.1,0,0.2,0,0.2,0c0.2,0,0.4,0,0.6-0.1c0,0,0.1,0,0.1-0.1
		c0-0.1,0.1-0.2,0.2-0.3l0,0c0.1-0.1,0.1-0.1,0.2-0.2C35.8,40.7,35.9,40.8,35.9,40.9z M35.5,40.3c-0.1,0-0.1,0.1-0.1,0.1
		c0,0.1,0.1,0.1,0.1,0c0,0,0,0,0,0c0,0-0.1,0.1-0.1,0.1l0,0c-0.1,0.1-0.2,0.2-0.2,0.3c-0.2,0-0.3,0-0.5,0c-0.1,0-0.2,0-0.2,0
		c-0.3,0-0.6,0.1-0.8,0.3c-0.2-0.1-0.4-0.3-0.6-0.4c0.1-0.2,0.2-0.3,0.4-0.4c0.1,0,0.2-0.1,0.3-0.1c0.2-0.1,0.5-0.1,0.6-0.3
		c0.1-0.1,0.1-0.1,0.1-0.2c0-0.1,0-0.1,0-0.2c0-0.1-0.1-0.2-0.1-0.3C34.8,39.7,35.1,40,35.5,40.3z M36.2,32.1
		C36.2,32.1,36.2,32.2,36.2,32.1c-0.1,0.1-0.1,0.1-0.1,0.1c0,0-0.1,0-0.1,0c-0.2,0.1-0.5,0.1-0.8,0.1c-0.4,0-0.7,0-1,0.2
		c0,0-0.1,0.1,0,0.1c0,0,0.1,0,0.1,0c0,0,0,0,0.1,0c0.3-0.2,0.6-0.2,0.9-0.2c0.3,0,0.5,0,0.8-0.1c0.1,0,0.1,0,0.2-0.1
		c0,0,0-0.1,0.1-0.1c0,0,0,0,0,0c0.3,0.3,0.6,0.7,0.8,1.2c0,0-0.1,0-0.1,0l-0.4,0.3c-0.1,0.1-0.2,0.1-0.2,0.1c0,0-0.1-0.1-0.1-0.1
		l0,0c-0.3-0.3-0.8-0.4-1.2-0.3c-0.1,0-0.1,0.1-0.1,0.1c0,0.1,0.1,0.1,0.1,0.1c0.3-0.1,0.7-0.1,0.9,0.2l0,0c0,0.1,0.1,0.1,0.2,0.2
		c0,0,0.1,0,0.1,0c0.1,0,0.2-0.1,0.3-0.1l0.4-0.3c0,0,0,0,0,0c0,0,0,0,0,0c0.1,0.4,0.1,0.8,0.1,1.2c-0.2,0-0.3,0-0.5,0.1l0,0
		c0,0-0.1,0-0.1,0c0,0,0,0,0,0c-0.1-0.1-0.2-0.1-0.2-0.2c0,0,0,0,0-0.1c0,0,0,0,0-0.1c-0.1-0.2-0.4-0.3-0.7-0.2
		c-0.1,0-0.1,0.1,0,0.1c0,0.1,0.1,0.1,0.1,0c0.1-0.1,0.3,0,0.4,0.1c0,0,0,0,0,0c0,0,0,0.1,0,0.1c0.1,0.1,0.2,0.2,0.3,0.2
		c0,0,0.1,0,0.1,0c0,0,0,0,0,0c0.1,0,0.1,0,0.2-0.1l0,0C37,35,37.1,35,37.3,35c0,0.2,0,0.4-0.1,0.6c-0.2,0-0.3,0-0.5,0.1
		c0,0-0.1,0-0.1,0.1c0,0,0,0-0.1,0c0,0-0.1,0-0.1,0c-0.1,0-0.2,0-0.3,0c0,0-0.1-0.1-0.1-0.2c0-0.1-0.1-0.1-0.1-0.2c0,0-0.1,0-0.1,0
		s0,0.1,0,0.1c0,0,0.1,0.1,0.1,0.1c0,0.1,0.1,0.2,0.2,0.2c0.1,0,0.1,0.1,0.2,0.1c0.1,0,0.1,0,0.2,0c0.1,0,0.1,0,0.2-0.1
		c0,0,0.1,0,0.1-0.1c0,0,0,0,0.1,0c0.1-0.1,0.2-0.1,0.3,0c-0.3,1.2-1.1,2.1-1.7,2.6c0,0,0,0,0,0c0,0,0,0-0.1,0
		c-0.1,0-0.2-0.1-0.3-0.1c0,0-0.1,0-0.1,0c0,0-0.1,0-0.1,0c-0.1,0-0.1,0-0.1,0c0,0,0-0.1,0-0.1c0-0.1,0-0.2-0.1-0.2
		c-0.1-0.1-0.1-0.1-0.2-0.1c-0.1,0-0.1,0-0.2,0c-0.1,0-0.2,0-0.3-0.1c0,0-0.1,0-0.1,0c0,0,0,0.1,0,0.1C33.9,38,34,38,34.2,38
		c0.1,0,0.1,0,0.2,0c0,0,0.1,0,0.1,0c0,0,0,0.1,0,0.1c0,0.1,0,0.1,0.1,0.2c0.1,0.1,0.1,0.1,0.3,0.1c0,0,0.1,0,0.1,0c0,0,0.1,0,0.1,0
		c0.1,0,0.1,0,0.1,0c-0.4,0.3-0.7,0.4-0.8,0.5c-0.1-0.1-0.3-0.2-0.8-0.3c-0.5-0.2-1-0.4-1.3-0.4l0-0.4c0.3-0.1,1-0.4,1.7-0.9
		c0,0,0,0,0,0c0.1,0,0.1,0.1,0.2,0.1c0,0,0,0,0,0.1c0,0.1,0.1,0.1,0.1,0.2c0.1,0.1,0.2,0.1,0.3,0.2l0.2,0.1c0,0,0.1,0,0.1,0
		c0,0,0,0,0,0c0,0,0.1,0,0.1,0c0.1,0,0.1,0,0.2-0.1c0.1,0,0.1-0.1,0.1-0.2c0,0,0.1,0,0.1,0.1c0,0,0.1,0.1,0.1,0c0,0,0.1-0.1,0-0.1
		c-0.1-0.1-0.2-0.2-0.3-0.2c-0.1,0-0.1,0-0.1,0.1c0,0,0,0.1,0,0.1c0,0,0,0.1-0.1,0.1c0,0-0.1,0-0.2,0c0,0-0.1,0-0.1,0c0,0,0,0-0.1,0
		l-0.2-0.1c-0.1,0-0.2-0.1-0.2-0.1c0,0-0.1-0.1-0.1-0.1c0,0,0-0.1-0.1-0.1c-0.1-0.1-0.1-0.1-0.2-0.1c0.3-0.2,0.5-0.4,0.7-0.6
		c0.1,0.1,0.2,0.2,0.3,0.3c0,0,0.1,0.1,0.1,0.1c0.1,0,0.1,0,0.2,0c0.2,0,0.4,0,0.6,0c0.1,0,0.1,0,0.2,0l0,0.1c0,0,0.1,0.1,0.1,0.1
		c0,0,0,0,0,0c0.1,0,0.1-0.1,0.1-0.1l0-0.1c0,0,0,0,0-0.1c-0.1-0.1-0.3-0.1-0.4-0.1c-0.2,0-0.4,0-0.6,0c0,0-0.1,0-0.1,0
		c0,0,0,0-0.1-0.1c0,0,0,0,0,0c-0.1-0.1-0.2-0.2-0.3-0.3c0.2-0.3,0.3-0.6,0.4-1c0-1-1-2-3-3c-0.8-0.4-1.6-0.7-2.2-1
		c0.3,0,0.6-0.1,0.9-0.3c0.1-0.1,0.1,0,0.1,0c0,0,0,0,0.1,0.1c0.1,0,0.1,0,0.1,0c0.2-0.1,0.4-0.1,0.5,0l0.1,0c0.1,0,0.2,0.1,0.3,0.1
		c0.1,0,0.1-0.1,0.1-0.1c0-0.1-0.1-0.1-0.1-0.1c-0.1,0-0.1,0-0.2,0l-0.1,0c-0.2-0.1-0.4-0.1-0.7,0c0,0,0,0,0,0
		c-0.1-0.1-0.2-0.1-0.3,0c-0.3,0.2-0.6,0.3-0.9,0.3C30,30.9,30,30.9,30,31c0,0,0,0,0,0c-0.3-0.1-0.6-0.3-0.9-0.4c0,0,0,0,0,0
		c0.1-0.2,0.3-0.4,0.6-0.6c0,0,0.1,0,0.1,0l0,0c0,0,0,0,0.1,0c0.1,0,0.2-0.1,0.2-0.2c0.1-0.1,0.1-0.1,0.2-0.1c0.1,0,0.1-0.1,0.1-0.1
		c0-0.1-0.1-0.1-0.1-0.1c-0.1,0-0.2,0.1-0.3,0.2c-0.1,0-0.1,0.1-0.1,0.1c0,0,0,0,0,0l0,0c0,0-0.1,0-0.1,0c-0.3,0.1-0.5,0.4-0.7,0.6
		c0,0,0,0,0,0c-0.3-0.1-0.5-0.2-0.8-0.4c0,0,0,0,0-0.1c0,0,0-0.1,0.1-0.2c0,0,0.1-0.1,0.1-0.1c0.1-0.1,0.1-0.3,0.1-0.5
		c-0.1-0.2-0.2-0.3-0.3-0.4c0,0-0.1,0-0.1,0c0,0,0,0.1,0,0.1c0.1,0.1,0.2,0.2,0.2,0.3c0,0.1,0,0.3,0,0.3c0,0-0.1,0.1-0.1,0.1
		C28.1,29.9,28,30,28,30.1c0,0,0,0,0,0c-0.3-0.1-0.6-0.3-0.9-0.4c0,0,0,0,0,0v-0.8c0-0.1,0-0.1-0.1-0.1c-0.1,0-0.1,0-0.1,0.1v0.7
		c-0.2-0.1-0.3-0.2-0.5-0.2c0,0,0,0,0,0c-0.3-0.1-0.6-0.3-0.9-0.4c0,0,0,0,0,0c-1.3-0.6-2-0.8-2.2-0.9c0.3,0,0.6-0.1,0.9-0.1
		c0.1,0,0.1,0,0.2,0c0,0,0.1-0.1,0.1-0.1c0,0,0-0.1,0-0.1c0,0-0.1-0.1-0.1,0c0,0-0.1,0.1,0,0.1c0,0,0,0-0.1,0c-0.4,0-0.7,0-1.1,0.1
		c0,0,0,0,0,0c-0.6-0.4-2.4-1.6-3.3-3.2c0.1,0,0.2,0,0.3,0c0,0,0,0,0.1,0c0,0,0.1,0,0.1,0.1c0.1,0,0.3,0,0.4,0l0.1,0
		c0.1,0,0.2,0,0.3,0.1c0,0,0,0,0,0c0,0,0,0.1,0.1,0.1c0,0,0.1,0.1,0.1,0.1c0,0,0.1,0.1,0.1,0.1c0,0.1,0,0.1,0.1,0.1c0,0,0,0,0,0
		c0,0,0.1,0,0.1-0.1c0-0.1-0.1-0.2-0.2-0.3c0,0-0.1,0-0.1-0.1c0,0,0,0,0-0.1c0,0,0-0.1,0-0.1c-0.1-0.1-0.3-0.2-0.5-0.1l-0.1,0
		c-0.1,0-0.2,0-0.3,0c0,0-0.1,0-0.1,0c0,0,0,0-0.1,0c-0.1-0.1-0.3-0.1-0.5,0c0,0,0,0,0,0c-0.3-0.7-0.5-1.4-0.4-2.2
		c0.5,0.4,1.5,0.7,1.9,0.8c0.2,1.8,1.9,3.1,3.2,3.8c-0.1,0.1-0.3,0.2-0.4,0.1c0,0-0.1,0-0.1,0c0,0,0,0-0.1,0c-0.3-0.2-0.7-0.1-1.1,0
		c-0.1,0-0.1,0.1-0.1,0.1c0,0.1,0.1,0.1,0.1,0.1c0.3-0.1,0.7-0.1,0.9,0c0,0,0,0,0.1,0c0,0,0.1,0,0.1,0.1c0.1,0,0.1,0,0.2,0
		c0.2,0,0.4-0.1,0.5-0.3c0.8,0.4,1.4,0.6,1.5,0.7l8.7,3.5c0,0-0.1,0-0.2,0c-0.1,0-0.1,0-0.1,0c-0.1,0.1-0.3,0.1-0.4,0.3c0,0,0,0,0,0
		c0,0,0,0,0,0l-0.5,0c-0.1,0-0.1,0.1-0.1,0.1c0,0.1,0,0.1,0.1,0.1c0,0,0,0,0,0l0.5,0c0,0,0.1,0,0.1,0c0,0,0.1,0,0.1-0.1
		c0.1-0.1,0.2-0.2,0.4-0.2c0,0,0.1,0,0.1,0c0,0,0.1,0,0.1,0c0.1,0,0.1,0,0.2,0c0.1,0,0.1-0.1,0.1-0.1C35.1,31.4,35.6,31.6,36.2,32.1
		z M35,31.1l-1.4-0.6c0.6-0.2,0.9-0.3,1.2-0.6c0.1,0.4,0.3,0.9,0.5,1.3C35.1,31.1,35,31.1,35,31.1z M35.9,31.4
		c-0.2,0-0.5-0.8-0.8-1.7c0.1-0.1,0.1-0.1,0.2-0.2c0.3-0.3,0.6-0.5,0.9-0.7C36.2,31.2,35.9,31.4,35.9,31.4z M37.3,31.3
		c0,0.1-0.1,0.1-0.1,0.1c0,0,0,0,0,0c0,0-0.1,0-0.2-0.1c-0.4-0.4-0.4-2.1-0.3-2.8c0.2-0.1,0.5-0.3,0.8-0.4c0,0,0.1,0,0.1-0.1
		c0,0.1,0,0.2,0,0.3C37.6,29.4,37.7,31,37.3,31.3z M38.6,30.5c-0.1,0.1-0.1,0.1-0.1,0.1c-0.3-0.1-0.5-1.1-0.6-2.2c0-0.2,0-0.3,0-0.4
		c0.3-0.2,0.6-0.3,0.9-0.5C39,28.3,39.2,30,38.6,30.5z M40.1,29.7c-0.1-0.1-0.4-0.6-1-2.4c0.3-0.2,0.6-0.5,0.9-0.8
		C40.1,27.9,40.2,29.3,40.1,29.7z M41.2,28.5C41.2,28.6,41.2,28.6,41.2,28.5c-0.3,0-0.7-1.1-1-2.3c0.3-0.3,0.5-0.7,0.7-1.1
		C41.3,25.7,42,27.2,41.2,28.5z M50,30.6c-0.5,5.3-1.2,5.9-1.9,5.9L48,34.2c0,0,0,0,0,0c0.6-0.8,0.7-1.7,0.8-1.8
		c0-0.1,0-0.2-0.1-0.2c-0.1,0-0.2,0-0.2,0.1c0,0-0.4,2-1.7,2.5l0.3-3.7c0-0.1-0.1-0.2-0.1-0.2c-0.1,0-0.2,0-0.2,0.1
		c0,0-0.4,2.1-1.9,2.1c-0.1,0-0.1,0-0.1-0.1c-0.3-0.5,0.4-3,1-4.5c0,0,0,0,0,0c0-0.1,0-0.2-0.1-0.2c-0.1,0-0.2,0-0.2,0.1
		c0,0,0,0,0,0c0,0,0,0,0,0c-0.2,0.5-0.8,1.8-1.5,1.9c-0.2,0-0.3,0-0.5-0.1c-0.1-0.3-0.3-1.9-0.3-3c0.1-0.2,0.1-0.5,0.1-0.5
		c0-0.1-0.1-0.1-0.1-0.2c-0.1,0-0.2,0-0.2,0.1c0,0.1-0.1,0.3-0.1,0.5c0,0.2-0.1,0.3-0.2,0.3c-0.2,0.1-0.4,0-0.8-0.3
		c0-1.2-0.6-2.3-0.8-2.6c0.1-0.2,0.2-0.4,0.2-0.6c0.1-0.1,0.2-0.2,0.3-0.4c0.2,0.8,0.8,2.5,1.3,2.5c0,0,0,0,0,0
		c0.2,0,0.3-0.2,0.3-1.5c0-0.1,0-0.1-0.1-0.1c-0.1,0-0.1,0-0.1,0.1c0,1.3-0.2,1.3-0.2,1.3c-0.2,0-0.7-1.1-1.1-2.4c0,0,0-0.1-0.1-0.1
		c0.3-0.4,0.5-0.9,0.6-1.6c0.1-1.2-0.9-2.4-2-2.6c-0.6-0.1-0.7-0.2-0.7-0.2h0c0,0,0-0.1,0-0.1c0-0.1-0.1-0.1-0.1-0.1
		c-0.3-0.1-0.7-0.1-1-0.1c0,0,0-0.1,0-0.1c0,0-2-1.5-1.7-2.6c0.1-0.5,0.7-0.8,1.7-1c1.7-0.3,3.7,1,5,2.1c1.7,1.4,3.2,3.3,4.1,4.8
		c0,0,0,0.1,0,0.1c0.1,0.5,0,0.6,0,0.6c-0.3,0.2-2.3-2.1-3.9-4.2c0,0-0.1-0.1-0.1,0c0,0-0.1,0.1,0,0.1c0.8,1,3.3,4.3,4,4.3
		c0,0,0.1,0,0.1,0c0.1-0.1,0.2-0.2,0.1-0.4c0.5,0.9,0.8,1.6,0.7,2.1c0,0.1,0,0.1,0.1,0.1c0,0,0,0,0,0c0.1,0,0.1,0,0.1-0.1
		c0-1.6-2.5-5.2-5.2-7.5c-1.4-1.2-3.4-2.5-5.2-2.2c-1.1,0.2-1.7,0.6-1.8,1.2c-0.3,1.2,1.6,2.7,1.8,2.8c-0.1,0-0.2,0.1-0.2,0.1
		c-0.1,0.1-0.4,0.1-0.8,0.1c0,0,0,0,0,0c0.1-0.1,0.1-0.2,0-0.2c0,0-2.2-1.9-1.7-3.2c0.2-0.6,1-1,2.4-1.2c5.3-0.5,9.4,6.3,9.5,6.3
		C47.5,20.9,50.6,25.2,50,30.6z"/>
	<path class="st0" d="M44,26.3c-0.1,0-0.1,0-0.1,0.1c0,0.2-0.2,2.4,0,2.8c0,0,0.1,0.1,0.1,0.1c0,0,0,0,0,0c0.1,0,0.1-0.1,0-0.1
		c-0.2-0.3-0.1-1.8,0-2.7C44.1,26.4,44,26.3,44,26.3z"/>
	<path class="st0" d="M45.6,30.3c0,0.1-0.6,1.4-0.6,2.1c0,0.1,0,0.1,0.1,0.1c0,0,0,0,0,0c0.1,0,0.1-0.1,0.1-0.1c0-0.6,0.5-2,0.6-2
		c0-0.1,0-0.1-0.1-0.1C45.7,30.3,45.7,30.3,45.6,30.3z"/>
	<path class="st0" d="M47.9,31.6c-0.1,0-0.1,0.1-0.1,0.1c0,0,0.1,1.5-0.6,2.1c0,0,0,0.1,0,0.1c0,0,0,0,0.1,0c0,0,0.1,0,0.1,0
		c0.7-0.7,0.6-2.2,0.6-2.3C48,31.7,47.9,31.6,47.9,31.6z"/>
	<path class="st0" d="M49.2,33.3c-0.1,0-0.1,0-0.1,0.1c-0.1,0.5-0.5,1.7-0.8,2c0,0,0,0.1,0,0.1c0,0,0,0,0.1,0c0,0,0.1,0,0.1,0
		c0.4-0.4,0.9-2,0.9-2.1C49.3,33.3,49.3,33.3,49.2,33.3z"/>
	<path class="st0" d="M42.6,23.4c0-0.1,0-0.1-0.1-0.1c-0.1,0-0.1,0.1-0.1,0.1c0,0.2,0.1,1.7,0.4,2c0,0,0.1,0,0.1,0c0,0,0,0,0.1,0
		c0,0,0.1-0.1,0-0.1C42.7,25.1,42.6,23.8,42.6,23.4z"/>
	<path class="st0" d="M45.7,25.3c-0.1,0-0.1,0-0.1,0.1c0,1.3-0.4,1.9-0.7,2.2c0-0.9-0.5-1.9-0.5-1.9c0-0.1-0.1-0.1-0.1,0
		c-0.1,0-0.1,0.1,0,0.1c0,0,0.6,1.2,0.5,2c0,0,0,0.1,0,0.1c0,0,0,0,0.1,0c0,0,0,0,0,0c0,0,1-0.5,1-2.5
		C45.8,25.3,45.8,25.3,45.7,25.3z"/>
	<path class="st0" d="M45,26.9C45,26.9,45,26.9,45,26.9c0.1,0,0.1,0,0.1-0.1c0.1-0.5,0-2,0-2.1c0-0.1,0-0.1-0.1-0.1
		c-0.1,0-0.1,0-0.1,0.1c0,0,0.1,1.6,0,2.1C44.9,26.9,44.9,26.9,45,26.9z"/>
	<path class="st0" d="M47.3,28c-0.1,0-0.1,0-0.1,0.1c-0.3,1-0.6,1.3-0.7,1.3c-0.1,0-0.1,0-0.2,0c0.3-1.5,0-3.6,0-3.6
		c0-0.1-0.1-0.1-0.1-0.1c-0.1,0-0.1,0.1-0.1,0.1c0,0,0.3,2.1,0,3.6c0,0,0,0.1,0,0.1c0,0,0.1,0.1,0.3,0.1c0,0,0.1,0,0.2,0
		c0.3-0.1,0.6-0.6,0.9-1.5C47.4,28.1,47.4,28.1,47.3,28z"/>
	<path class="st0" d="M46.7,28.8C46.7,28.8,46.7,28.8,46.7,28.8c0.1,0,0.1,0,0.1-0.1c0.2-1.1,0.2-2.8,0.2-2.8c0-0.1,0-0.1-0.1-0.1
		c0,0,0,0,0,0c-0.1,0-0.1,0-0.1,0.1c0,0,0,1.7-0.2,2.7C46.6,28.7,46.6,28.8,46.7,28.8z"/>
	<path class="st0" d="M48.8,31.4c-0.2,0.2-0.3,0.2-0.4,0.2l0,0c0.1-1.7-0.2-2.5-0.2-2.6c0-0.1-0.1-0.1-0.1-0.1
		C48,28.9,48,29,48,29.1c0,0,0.3,0.8,0.2,2.5l0,0.2c0,0,0,0.1,0,0.1c0,0,0,0,0.1,0c0,0,0,0,0,0c0.1,0,0.4,0,0.7-0.3
		c0.5-0.4,0.7-1.3,0.6-2.5c0-0.1,0-0.1-0.1-0.1c0,0,0,0,0,0c-0.1,0-0.1,0.1-0.1,0.1C49.4,30.5,49.1,31.1,48.8,31.4z"/>
	<path class="st0" d="M48.6,30.9c0,0.1,0,0.1,0.1,0.1c0,0,0,0,0,0c0,0,0.1,0,0.1-0.1c0.3-0.8,0.3-2.3,0.3-2.4c0-0.1,0-0.1-0.1-0.1
		c-0.1,0-0.1,0-0.1,0.1C48.9,28.6,48.9,30.2,48.6,30.9z"/>
	<path class="st0" d="M48.6,25.4c0.2,2.1-0.1,2.7-0.3,2.9c-0.1,0.1-0.1,0.1-0.1,0.1c-0.1-0.2-0.3-0.8-0.4-1.6
		c-0.1-0.9-0.7-3.1-0.8-3.2c0-0.1-0.1-0.1-0.1-0.1c-0.1,0-0.1,0.1-0.1,0.1c0,0,0.7,2.2,0.8,3.1c0.1,0.9,0.4,1.7,0.4,1.7
		c0,0,0,0.1,0.1,0.1c0,0,0,0,0,0c0.1,0,0.2,0,0.3-0.1c0.3-0.3,0.6-1,0.4-3.1c0-0.1,0-0.1-0.1-0.1C48.7,25.3,48.6,25.3,48.6,25.4z"/>
	<path class="st0" d="M48.2,27.6c0,0.1,0,0.1,0.1,0.1c0,0,0,0,0,0c0.1,0,0.1,0,0.1-0.1c0-1.2-0.4-3.1-0.4-3.2c0-0.1-0.1-0.1-0.1-0.1
		c-0.1,0-0.1,0.1-0.1,0.1C47.8,24.5,48.2,26.4,48.2,27.6z"/>
	<path class="st0" d="M44.3,25C44.3,25,44.3,25,44.3,25C44.3,25,44.3,25,44.3,25c0.1,0,0.1,0,0.2,0c0,0,0.2-0.6,0-1.1
		c0-0.1-0.1-0.1-0.1-0.1c-0.1,0-0.1,0.1-0.1,0.1c0.1,0.3,0.1,0.6,0,0.8c-1.3-0.9-1.7-3.5-1.7-3.6c0-0.1-0.1-0.1-0.1-0.1
		c-0.1,0-0.1,0.1-0.1,0.1C42.4,21.4,42.8,24.1,44.3,25z"/>
	<path class="st0" d="M44,24.3C44,24.3,44,24.2,44,24.3c0.1,0,0.1-0.1,0.1-0.1c0,0-0.7-2-0.8-2.9c0-0.1-0.1-0.1-0.1-0.1
		c-0.1,0-0.1,0.1-0.1,0.1C43.1,22.2,43.8,24.1,44,24.3C43.9,24.2,43.9,24.3,44,24.3z"/>
	<path class="st0" d="M40.1,17.6c0,0-0.1,0-0.1,0c0,0,0,0.1,0,0.1c0.5,0.3,0.7,1,0.7,1.3c-0.7-0.2-1.8-0.8-1.8-0.8
		c-0.1,0-0.1,0-0.1,0c0,0.1,0,0.1,0,0.1c0.1,0,1.4,0.7,2,0.8c0,0,0,0,0,0c0,0,0,0,0.1,0c0,0,0-0.1,0-0.1
		C40.9,19.2,40.8,18.1,40.1,17.6z"/>
	<path class="st0" d="M39.1,17.9c0,0.1,0,0.1,0.1,0.1c0.3,0.1,1,0.3,1,0.6c0,0.1,0,0.1,0.1,0.1c0,0,0,0,0,0c0.1,0,0.1,0,0.1-0.1
		c0-0.5-1-0.8-1.2-0.8C39.1,17.8,39.1,17.9,39.1,17.9z"/>
	<path class="st0" d="M39.2,17.5c0.1-0.3-0.4-0.6-0.5-0.7c0,0-0.1,0-0.1,0c0,0,0,0.1,0,0.1c0.2,0.1,0.4,0.4,0.4,0.5
		c0,0-0.1,0.1-0.2,0.1c-0.7,0.1-1.2-0.2-1.2-0.2c0,0-0.1,0-0.1,0c0,0,0,0.1,0,0.1c0,0,0.4,0.3,1,0.3c0.1,0,0.2,0,0.4,0
		C39,17.8,39.1,17.7,39.2,17.5z"/>
	<path class="st0" d="M38.3,17.4C38.3,17.4,38.3,17.4,38.3,17.4c0.1,0,0.1,0,0.1-0.1c0-0.1,0-0.1-0.1-0.1c-0.2,0-0.5-0.4-0.6-0.7
		c0-0.1-0.1-0.1-0.1,0c-0.1,0-0.1,0.1,0,0.1C37.6,16.7,37.9,17.4,38.3,17.4z"/>
	<path class="st0" d="M39.4,17.2c0,0,0.1,0,0.1,0c0.2-0.1,0.2-0.4,0-0.9c0-0.1-0.1-0.1-0.1-0.1c-0.1,0-0.1,0.1-0.1,0.1
		c0.2,0.6,0.1,0.7,0.1,0.7c-0.1,0.1-0.9-0.5-1.5-1.2c0,0-0.1,0-0.1,0c0,0,0,0.1,0,0.1C38.1,16.3,39,17.2,39.4,17.2z"/>
	<path class="st0" d="M39,16.6C39.1,16.6,39.1,16.7,39,16.6c0.1,0,0.1,0,0.1,0c0,0,0.1-0.1,0-0.1l-0.5-0.8c0,0-0.1-0.1-0.1,0
		c0,0-0.1,0.1,0,0.1L39,16.6z"/>
	<path class="st0" d="M42.4,19.8c0.2-0.1,0.4-0.3,0.1-1.9c0-0.1-0.1-0.1-0.1-0.1c-0.1,0-0.1,0.1-0.1,0.1c0.3,1.5,0.1,1.6,0,1.6
		c0,0-0.1,0-0.2-0.1c0,0,0,0,0,0c0.1,0,0.1-0.1,0.1-0.1c-0.1-0.3-1.1-2.9-1.1-2.9l-0.2,0.1c0,0,1,2.5,1.1,2.8
		c-0.4-0.4-1.1-1.5-1.7-2.6c0-0.1-0.1-0.1-0.1,0c-0.1,0-0.1,0.1,0,0.1C40.5,17.6,41.8,19.8,42.4,19.8C42.4,19.8,42.4,19.8,42.4,19.8
		z"/>
	<path class="st0" d="M46.6,23.1c0-0.1,0-0.1-0.1-0.1c-0.1,0-0.1,0-0.1,0.1c-0.1,0.5-0.2,0.8-0.3,0.8c0,0,0,0,0,0
		c-0.6,0-1.8-2.2-2.5-3.7c0-0.1-0.1-0.1-0.1-0.1c-0.1,0-0.1,0.1-0.1,0.1c0.2,0.4,1.8,3.8,2.7,3.8c0,0,0,0,0.1,0
		C46.3,24,46.5,23.7,46.6,23.1z"/>
	<path class="st0" d="M45.6,23.3c0,0.1,0,0.1,0.1,0.1c0,0,0,0,0,0c0.1,0,0.1,0,0.1-0.1c0.1-1.1-1.2-2.5-1.2-2.6c0,0-0.1,0-0.1,0
		c0,0,0,0.1,0,0.1C44.4,20.9,45.7,22.3,45.6,23.3z"/>
	<path class="st0" d="M20.5,49.7l0.1,0.1c0.1,0,0.2,0.1,0.2,0.2c0,0.1,0.1,0.1,0.1,0.2c0,0.1,0,0.2-0.1,0.3L19.5,53l-0.2-0.1
		c-0.2-0.1-0.3-0.1-0.3-0.2c-0.1-0.1-0.1-0.2-0.2-0.3c0-0.1,0-0.3,0-0.5l-0.1,0l-0.4,0.9l3,1.4l0.4-0.9l-0.1,0
		c-0.2,0.2-0.3,0.4-0.5,0.4c-0.1,0-0.3,0-0.6-0.1l-0.2-0.1l1.2-2.6c0.1-0.2,0.1-0.3,0.2-0.3c0.1,0,0.1-0.1,0.2-0.1
		c0.1,0,0.2,0,0.3,0.1l0.1,0.1l0-0.1L20.5,49.7L20.5,49.7z"/>
	<path class="st0" d="M17.4,52c0-0.1,0-0.1,0-0.2c0,0,0.1-0.2,0.2-0.3l1.4-2c0.1-0.2,0.2-0.2,0.2-0.3c0.1,0,0.1-0.1,0.2,0
		c0.1,0,0.2,0,0.2,0.1l0.1,0.1l0.1-0.1l-1.6-1.1l-0.1,0.1l0.1,0.1c0.1,0.1,0.1,0.1,0.2,0.2c0,0.1,0,0.1,0,0.2c0,0.1-0.1,0.2-0.2,0.3
		l-0.7,0.9l-1.1-0.7l0.7-0.9c0.1-0.2,0.2-0.2,0.2-0.3c0.1,0,0.1,0,0.2,0c0.1,0,0.2,0,0.2,0.1l0.1,0.1l0.1-0.1l-1.6-1.1L16.3,47
		l0.1,0.1c0.1,0.1,0.1,0.1,0.2,0.2c0,0.1,0,0.1,0,0.2c0,0-0.1,0.2-0.2,0.3l-1.4,2c-0.1,0.2-0.2,0.2-0.2,0.3c-0.1,0-0.1,0-0.2,0
		c-0.1,0-0.2,0-0.2-0.1l-0.1-0.1L14.2,50l1.6,1.1l0.1-0.1l-0.1-0.1c-0.1-0.1-0.1-0.1-0.2-0.2c0-0.1,0-0.1,0-0.2
		c0-0.1,0.1-0.2,0.2-0.3l0.6-0.9l1.1,0.7L16.8,51c-0.1,0.2-0.2,0.2-0.2,0.3c-0.1,0-0.1,0-0.2,0c-0.1,0-0.2,0-0.2-0.1l-0.1-0.1
		L16,51.2l1.6,1.1l0.1-0.1l-0.1-0.1C17.5,52.1,17.4,52,17.4,52z"/>
	<path class="st0" d="M13.8,48.7l1.7-1.7c0.1-0.1,0.2-0.2,0.3-0.2c0.1,0,0.1,0,0.2,0c0.1,0,0.1,0.1,0.2,0.1l0.1,0.1l0.1-0.1
		l-2.2-2.2l-0.9,0.7l0.1,0.1c0.3-0.2,0.6-0.2,0.8-0.2c0.3,0,0.5,0.2,0.8,0.4l0.2,0.2c0.1,0.1,0.1,0.1,0.1,0.2c0,0.1,0,0.1,0,0.1
		c0,0-0.1,0.1-0.2,0.3l-0.7,0.7c-0.1-0.1-0.2-0.2-0.2-0.3s0-0.2,0-0.4c0-0.1,0.1-0.3,0.3-0.5l-0.1-0.1l-1.4,1.4l0.1,0.1
		c0.2-0.2,0.4-0.3,0.6-0.3c0.2,0,0.3,0,0.5,0.2l0.1,0.1l-1.1,1.1l-0.3-0.3c-0.2-0.2-0.3-0.3-0.4-0.4c-0.1-0.2-0.1-0.3-0.1-0.5
		c0-0.1,0.1-0.3,0.2-0.6l-0.1-0.1l-0.8,0.8l2.2,2.2l0.1-0.1l-0.1-0.1c-0.1-0.1-0.1-0.2-0.1-0.3c0-0.1,0-0.1,0-0.2
		C13.6,48.9,13.7,48.8,13.8,48.7z"/>
	<path class="st0" d="M12.8,43.5c0.1,0,0.2,0.1,0.3,0.2l0.1-0.1l-0.7-1l-0.1,0.1c0.1,0.2,0.1,0.3,0.1,0.3c0,0.1,0,0.2-0.1,0.2
		c-0.1,0-0.2,0.1-0.3,0.1l-0.4,0.1l-0.7-1.1l0.3-0.4c0.1-0.1,0.1-0.2,0.1-0.2c0,0,0-0.1,0.1-0.1c0,0,0.1,0,0.1,0
		c0.1,0,0.1,0.1,0.2,0.2l0,0.1l0.1-0.1l-1-1.5L11,40.4c0.1,0.1,0.1,0.2,0.1,0.3c0,0.1-0.1,0.3-0.3,0.6L9,43.9l0,0l3.2-0.5
		C12.5,43.5,12.7,43.5,12.8,43.5z M10.2,43.6l0.8-1.1l0.6,0.9L10.2,43.6z"/>
	<path class="st0" d="M8,41l2.2-0.8c0.2-0.1,0.2-0.1,0.3-0.1c0.1,0,0.2,0,0.2,0c0.1,0,0.1,0.1,0.2,0.1c0.1,0.1,0.1,0.1,0.1,0.2l0,0
		l0.1,0l-0.5-1.2l-0.1,0c0.1,0.2,0.1,0.3,0.1,0.4c0,0.1-0.1,0.2-0.2,0.2c0,0-0.1,0.1-0.3,0.1l-2.4,0.9l2.6-2.5l0-0.1l-3.6-0.1l2.5-1
		c0.2-0.1,0.3-0.1,0.3-0.1c0.1,0,0.1,0,0.2,0.1c0.1,0,0.1,0.1,0.1,0.2l0,0.1l0.1,0l-0.7-1.8l-0.1,0l0,0.1c0,0.1,0.1,0.2,0,0.2
		c0,0.1,0,0.1-0.1,0.2c0,0-0.1,0.1-0.3,0.2l-2.3,0.9c-0.2,0.1-0.3,0.1-0.3,0.1c-0.1,0-0.1,0-0.2-0.1c-0.1,0-0.1-0.1-0.1-0.2l0-0.1
		l-0.1,0l0.5,1.4l2.6,0.1l-1.9,1.8l0.5,1.4l0.1,0l0-0.1c0-0.1-0.1-0.2,0-0.2c0-0.1,0-0.1,0.1-0.2C7.7,41.1,7.8,41,8,41z"/>
	<path class="st0" d="M5.9,35.7c0,0,0.1,0,0.3-0.1l2.4-0.4c0.2,0,0.3,0,0.3,0c0.1,0,0.1,0,0.1,0.1c0,0.1,0.1,0.1,0.1,0.2l0,0.1
		l0.1,0l-0.6-3.1l-1.2,0l0,0.1c0.3,0,0.6,0.1,0.8,0.3c0.2,0.2,0.3,0.4,0.4,0.8l0,0.2c0,0.1,0,0.2,0,0.2c0,0.1-0.1,0.1-0.1,0.1
		c0,0-0.2,0.1-0.4,0.1l-1,0.2c0-0.2,0-0.3,0-0.4c0-0.1,0.1-0.2,0.2-0.3c0.1-0.1,0.3-0.2,0.5-0.2l0-0.1l-1.9,0.3l0,0.1
		c0.3,0,0.5,0,0.7,0.1c0.2,0.1,0.3,0.2,0.3,0.5l0,0.1l-1.5,0.3l-0.1-0.4c0-0.3-0.1-0.5-0.1-0.6c0-0.2,0.1-0.3,0.2-0.4
		c0.1-0.1,0.3-0.2,0.5-0.3l0-0.1l-1.1,0.2l0.5,3l0.1,0l0-0.1c0-0.1,0-0.2,0-0.3C5.8,35.8,5.8,35.7,5.9,35.7z"/>
	<path class="st0" d="M5.6,31.6l2.4,0c0.2,0,0.3,0,0.4,0c0.1,0,0.1,0.1,0.1,0.1c0,0.1,0,0.2,0.1,0.3l0.1,0l0-1.9l-0.1,0
		c0,0.2,0,0.3,0,0.3c0,0.1-0.1,0.1-0.1,0.1c-0.1,0-0.2,0-0.4,0l-1,0l0-0.2l1.7-1.2l0-1.1l0.1,0l0.2-1.9l-0.1,0l0,0.1
		c0,0.1,0,0.2-0.1,0.2c0,0.1-0.1,0.1-0.1,0.1c0,0-0.2,0-0.4,0l-2.4-0.3c-0.2,0-0.3,0-0.3-0.1c-0.1,0-0.1-0.1-0.1-0.1
		c0-0.1,0-0.2,0-0.3l0-0.1l-0.1,0L5,27.8l0.1,0l0-0.1c0-0.1,0-0.2,0.1-0.2c0-0.1,0.1-0.1,0.1-0.1c0,0,0.2,0,0.4,0l2.4,0.3
		c0.2,0,0.3,0,0.3,0.1c0.1,0,0.1,0.1,0.1,0.1c0,0.1,0,0.2,0,0.3l0,0.1l-0.1,0c0,0.1,0,0.2-0.1,0.3c0,0-0.1,0.1-0.3,0.3l-1.2,0.9
		c-0.1-0.2-0.1-0.4-0.3-0.5c-0.2-0.2-0.4-0.3-0.7-0.3c-0.2,0-0.4,0.1-0.6,0.2c-0.2,0.1-0.3,0.3-0.3,0.5c-0.1,0.2-0.1,0.5-0.1,1
		l0,1.7l0.1,0c0-0.2,0-0.3,0-0.3c0-0.1,0.1-0.1,0.1-0.1C5.3,31.7,5.4,31.6,5.6,31.6z M5.1,30.5c0-0.3,0.1-0.5,0.2-0.6
		c0.1-0.1,0.3-0.2,0.6-0.2c0.2,0,0.4,0,0.5,0.1c0.1,0.1,0.2,0.2,0.3,0.3c0,0.1,0.1,0.3,0.1,0.6l0,0.2l-1.6,0L5.1,30.5z"/>
	<path class="st0" d="M6.2,25.1c0.3,0.3,0.6,0.4,0.9,0.5c0.3,0.1,0.6,0.1,1,0c0.3-0.1,0.6-0.3,0.8-0.5c0.2-0.3,0.4-0.6,0.5-1
		c0.1-0.3,0.1-0.6,0-0.8c0-0.2-0.1-0.5-0.3-0.7l-0.3-0.1C9,22.8,9.2,23,9.2,23.2c0.1,0.2,0,0.4,0,0.7c-0.1,0.3-0.2,0.5-0.4,0.6
		c-0.2,0.1-0.4,0.2-0.7,0.2c-0.3,0-0.6,0-0.9-0.1c-0.3-0.1-0.6-0.2-0.8-0.4C6.2,24.1,6.1,24,6,23.7c-0.1-0.2-0.1-0.4,0-0.7
		c0.1-0.3,0.2-0.5,0.4-0.7c0.2-0.2,0.5-0.2,0.8-0.2l0-0.1L6,21.8l0,0.1c0.1,0,0.1,0.1,0.2,0.1c0,0.1,0,0.1,0,0.2
		c0,0-0.1,0.1-0.2,0.3c-0.2,0.3-0.3,0.5-0.4,0.8c-0.1,0.3-0.1,0.7,0,1C5.8,24.6,6,24.9,6.2,25.1z"/>
	<path class="st0" d="M9.6,22.1c0,0.1,0.1,0.2,0,0.4l0.1,0l0.5-1.1l-0.1,0c-0.1,0.2-0.2,0.3-0.2,0.3c-0.1,0.1-0.2,0.1-0.3,0
		c-0.1,0-0.2-0.1-0.2-0.2l-0.3-0.3L9.7,20l0.5,0c0.1,0,0.2,0,0.2,0c0,0,0.1,0,0.1,0c0,0,0.1,0.1,0.1,0.1c0,0.1,0,0.2-0.1,0.3l0,0.1
		l0.1,0l0.7-1.6l-0.1,0C11.2,19,11.1,19,11,19.1c-0.1,0-0.3,0.1-0.6,0.1l-3.3,0l0,0l2.2,2.4C9.4,21.8,9.6,22,9.6,22.1z M8.1,20
		l1.4,0L9,21L8.1,20z"/>
	<path class="st0" d="M8.5,16.8c0.1,0,0.2-0.1,0.3-0.1l0.1,0l2.2,1.4c0.2,0.1,0.3,0.2,0.3,0.3c0,0.1,0,0.3-0.1,0.4l0.1,0.1l0.7-1.1
		l-0.1-0.1l0,0.1c-0.1,0.1-0.2,0.2-0.3,0.2c-0.1,0-0.3,0-0.4-0.1l-1.9-1.3l3.9-0.4l0.1-0.1l-2.5-1.7c-0.1-0.1-0.2-0.2-0.3-0.2
		c0-0.1-0.1-0.1-0.1-0.2c0-0.1,0-0.2,0.1-0.3l-0.1-0.1l-0.7,1l0.1,0.1c0.1-0.2,0.2-0.3,0.4-0.3c0.1,0,0.2,0,0.4,0.2l1.3,0.9L9,15.8
		l-0.7,1.1l0.1,0.1C8.4,16.8,8.5,16.8,8.5,16.8z"/>
	<path class="st0" d="M12.2,11.9c0.1,0,0.1,0,0.2,0c0.1,0,0.1,0.1,0.3,0.2l1.6,1.7c0.1,0.1,0.2,0.2,0.2,0.3c0,0.1,0,0.1,0,0.2
		c0,0.1-0.1,0.2-0.2,0.3l0.1,0.1l1.4-1.3c0.4-0.4,0.6-0.7,0.6-1.1c0-0.3,0-0.5-0.2-0.7c-0.2-0.2-0.4-0.3-0.7-0.3
		c-0.2,0-0.4,0.1-0.7,0.3c0.2-0.3,0.3-0.5,0.3-0.7c0-0.2-0.1-0.3-0.2-0.5c-0.1-0.1-0.3-0.2-0.4-0.2c-0.2,0-0.4,0-0.5,0
		c-0.2,0.1-0.4,0.2-0.7,0.5L11.8,12l0.1,0.1C12,12,12.1,11.9,12.2,11.9z M14.6,12c0.1-0.1,0.3-0.1,0.4,0c0.2,0,0.3,0.1,0.4,0.3
		c0.1,0.1,0.2,0.2,0.2,0.4c0,0.1,0,0.3,0,0.4c0,0.1-0.1,0.2-0.2,0.3c-0.1,0.1-0.1,0.1-0.2,0.1c-0.1,0-0.1,0-0.2-0.1l-0.1-0.1
		l-0.8-0.9C14.3,12.2,14.5,12.1,14.6,12z M13.4,10.9c0.1,0,0.2,0,0.4,0c0.1,0,0.2,0.1,0.3,0.2c0.1,0.1,0.2,0.2,0.2,0.4
		c0,0.1,0,0.2,0,0.4c0,0.1-0.2,0.3-0.4,0.5l-1-1.1C13.2,11,13.3,10.9,13.4,10.9z"/>
	<path class="st0" d="M17,11.4c0.5,0.2,1.1,0.1,1.7-0.3c0.6-0.4,0.8-0.8,0.9-1.4c0-0.4-0.1-0.9-0.3-1.3C18.9,8,18.5,7.7,18,7.6
		c-0.5-0.1-1,0-1.5,0.4c-0.5,0.3-0.8,0.7-0.9,1.2c-0.1,0.5,0,1,0.3,1.4C16.3,11,16.6,11.3,17,11.4z M16.7,8.1C16.8,8,17,8,17.2,8
		c0.2,0,0.4,0.1,0.6,0.2C18,8.4,18.2,8.6,18.5,9c0.2,0.3,0.4,0.6,0.4,0.9c0.1,0.3,0.1,0.5,0,0.7c-0.1,0.1-0.2,0.3-0.3,0.4
		c-0.2,0.2-0.5,0.2-0.7,0.1c-0.3-0.1-0.7-0.5-1-1c-0.3-0.4-0.5-0.8-0.5-1.1C16.3,8.6,16.4,8.3,16.7,8.1z"/>
	<path class="st0" d="M21.5,9.5L21.5,9.5c-0.2,0-0.3,0-0.4,0c-0.1,0-0.2-0.1-0.2-0.2c0-0.1,0-0.2,0-0.3l0-0.4L22,8.1l0.4,0.3
		c0.1,0.1,0.1,0.1,0.2,0.2c0,0,0,0.1,0.1,0.1c0,0.1,0,0.1,0,0.1c0,0.1-0.1,0.1-0.3,0.2l-0.1,0l0,0.1l1.6-0.7l0-0.1
		c-0.1,0-0.2,0-0.3,0c-0.1,0-0.3-0.2-0.5-0.4l-2.4-2.3l0,0L20.6,9c0,0.3,0,0.5-0.1,0.6c0,0.1-0.1,0.2-0.2,0.3l0,0.1L21.5,9.5z
		 M20.9,7l1,1l-1,0.4L20.9,7z"/>
	<path class="st0" d="M23.5,4.9c0.1,0,0.1,0,0.2,0.1c0,0,0.1,0.2,0.1,0.4l0.5,2.3c0,0.2,0.1,0.3,0,0.4c0,0.1,0,0.1-0.1,0.1
		c-0.1,0-0.2,0.1-0.3,0.1l0,0.1l1.8-0.4l0-0.1c-0.2,0-0.3,0-0.3,0c-0.1,0-0.1,0-0.2-0.1c0,0-0.1-0.2-0.1-0.4l-0.2-1l0.2-0.1l1.5,1.4
		l1-0.2l1.6-0.1c0.2,0,0.4,0,0.5-0.1c0.2-0.1,0.5-0.1,0.6-0.2c0.2-0.1,0.3-0.2,0.4-0.4c0.1-0.1,0.2-0.3,0.3-0.6
		c0.1-0.2,0.1-0.5,0.1-0.7c0-0.4-0.1-0.7-0.3-1c-0.2-0.3-0.4-0.5-0.8-0.6c-0.3-0.1-0.6-0.2-1.1-0.1L27.5,4l0,0.1l0.1,0
		c0.1,0,0.2,0,0.2,0C28,4.1,28,4.2,28,4.2c0,0,0,0.2,0,0.4L28.2,7c0,0.2,0,0.3,0,0.3c0,0.1-0.1,0.1-0.1,0.1c-0.1,0-0.1,0.1-0.2,0.1
		l0,0l0,0c-0.1,0-0.2,0-0.3,0c-0.1,0-0.2-0.1-0.3-0.2l-1.1-1c0.2-0.1,0.4-0.2,0.5-0.4c0.2-0.2,0.2-0.5,0.1-0.7
		c0-0.2-0.2-0.4-0.3-0.5c-0.2-0.1-0.4-0.2-0.6-0.2c-0.2,0-0.5,0-1,0.1l-1.7,0.4l0,0.1C23.3,4.9,23.5,4.9,23.5,4.9z M29.6,4.2
		c0.2,0.1,0.3,0.2,0.5,0.4c0.2,0.3,0.2,0.6,0.3,1.1c0,0.6-0.1,1-0.3,1.3c-0.2,0.2-0.4,0.3-0.7,0.3c-0.1,0-0.2,0-0.2,0
		c0,0-0.1,0-0.1-0.1c0,0,0-0.1,0-0.3L29,4.1C29.3,4.1,29.5,4.1,29.6,4.2z M24.8,4.7c0.3-0.1,0.5,0,0.7,0.1c0.2,0.1,0.3,0.3,0.3,0.6
		c0,0.2,0,0.3,0,0.5c0,0.1-0.1,0.2-0.2,0.3c-0.1,0.1-0.3,0.1-0.5,0.2l-0.2,0l-0.3-1.6L24.8,4.7z"/>
	<path class="st0" d="M34.9,8.1c0.6,0.1,1.2,0,1.6-0.4c0.3-0.3,0.6-0.7,0.7-1.1c0.1-0.5,0-1-0.3-1.4c-0.3-0.4-0.7-0.7-1.3-0.8
		c-0.5-0.1-1-0.1-1.4,0.2c-0.4,0.3-0.7,0.7-0.8,1.2c-0.1,0.5-0.1,0.9,0.2,1.3C33.8,7.7,34.3,8,34.9,8.1z M34.3,6
		c0.1-0.5,0.3-0.9,0.5-1.1c0.2-0.3,0.5-0.4,0.9-0.3c0.2,0,0.3,0.1,0.4,0.2c0.1,0.1,0.2,0.3,0.2,0.6c0,0.3,0,0.6-0.1,1.1
		c-0.1,0.4-0.2,0.7-0.3,0.9c-0.1,0.2-0.3,0.4-0.5,0.5c-0.1,0.1-0.3,0.1-0.5,0c-0.3-0.1-0.5-0.2-0.6-0.4C34.2,7.1,34.2,6.7,34.3,6z"
		/>
	<path class="st0" d="M37,8.4L37,8.4l1.7,0.8l0-0.1l-0.1,0c-0.1,0-0.2-0.1-0.2-0.1s-0.1-0.1-0.1-0.2c0-0.1,0-0.2,0.1-0.3l0.4-1
		l0.1,0c0.2,0.1,0.3,0.2,0.4,0.3c0.1,0.2,0.1,0.4,0,0.7l0.1,0l0.7-1.7l-0.1,0C40,7,39.9,7.2,39.8,7.2c-0.1,0.1-0.2,0.1-0.3,0.1
		c-0.1,0-0.2,0-0.4-0.1l-0.1,0l0.6-1.4L39.9,6c0.3,0.1,0.5,0.2,0.5,0.3c0.2,0.1,0.3,0.3,0.3,0.4c0.1,0.1,0,0.3,0,0.6l0.1,0l0.4-1
		l-2.9-1.2l0,0.1l0.1,0c0.1,0,0.2,0.1,0.2,0.1c0,0.1,0.1,0.1,0.1,0.2c0,0.1,0,0.2-0.1,0.3l-0.9,2.2c-0.1,0.2-0.1,0.3-0.2,0.3
		c0,0-0.1,0.1-0.1,0.1c-0.1,0-0.2,0-0.3,0L37,8.4z"/>
	<path class="st0" d="M41,10.3l1.6,1l0.1-0.1c-0.1-0.1-0.2-0.2-0.3-0.2c0-0.1,0-0.1,0-0.2c0-0.1,0.1-0.2,0.2-0.3L43,9.7
		c0.3,0.2,0.6,0.4,0.8,0.4c0.3,0.1,0.5,0.1,0.7,0.1c0.2-0.1,0.4-0.2,0.5-0.4c0.2-0.2,0.2-0.5,0.1-0.8c-0.1-0.3-0.3-0.6-0.8-0.9
		L43,7.3L43,7.3c0.1,0.1,0.2,0.2,0.3,0.2c0,0.1,0,0.1,0,0.2c0,0.1-0.1,0.2-0.2,0.3l-1.3,2c-0.1,0.2-0.2,0.3-0.2,0.3c0,0-0.1,0-0.2,0
		C41.3,10.4,41.2,10.3,41,10.3L41,10.3z M44.1,8.2L44.1,8.2c0.3,0.2,0.4,0.3,0.4,0.5c0,0.2,0,0.4-0.2,0.6c-0.2,0.2-0.3,0.4-0.5,0.4
		c-0.2,0-0.3,0-0.5-0.1c0,0-0.1,0-0.1-0.1L44.1,8.2z"/>
	<path class="st0" d="M44.5,12c-0.1,0.1-0.2,0.2-0.3,0.2c-0.1,0-0.1,0-0.2,0c-0.1,0-0.2-0.1-0.3-0.2l-0.1,0.1l1.4,1.3l0.1-0.1
		c-0.1-0.1-0.2-0.2-0.2-0.3c0-0.1,0-0.1,0-0.2c0-0.1,0.1-0.2,0.2-0.3l0.7-0.8L46,12l-0.3,2l0.8,0.8l0.1-0.1
		c-0.1-0.1-0.1-0.2-0.1-0.2c0-0.1,0-0.2,0-0.4l0.2-1.5c0.2,0.1,0.4,0.2,0.6,0.2c0.3,0,0.5-0.1,0.7-0.3c0.2-0.2,0.2-0.3,0.3-0.6
		c0-0.2,0-0.4-0.1-0.6c-0.1-0.2-0.3-0.4-0.6-0.7l-1.2-1.2l-0.1,0.1c0.1,0.1,0.2,0.2,0.2,0.3c0,0.1,0,0.1,0,0.2
		c0,0.1-0.1,0.2-0.2,0.3L44.5,12z M47.1,10.5l0.2,0.2c0.2,0.2,0.3,0.4,0.3,0.6c0,0.2-0.1,0.4-0.3,0.6c-0.1,0.1-0.3,0.2-0.4,0.3
		c-0.1,0-0.3,0-0.4,0c-0.1-0.1-0.3-0.2-0.5-0.3L46,11.7L47.1,10.5z"/>
	<path class="st0" d="M48,13.7c-0.4,0.3-0.6,0.7-0.8,1.1c-0.1,0.6,0,1.1,0.4,1.6c0.4,0.5,0.9,0.8,1.5,0.8c0.4,0,0.9-0.1,1.2-0.4
		c0.4-0.3,0.7-0.7,0.8-1.3c0.1-0.5-0.1-1-0.4-1.5c-0.3-0.4-0.7-0.7-1.2-0.8C49,13.3,48.5,13.4,48,13.7z M49.7,14
		c0.4-0.1,0.7,0,0.9,0.3c0.1,0.1,0.2,0.3,0.2,0.5c0,0.2-0.1,0.4-0.2,0.6c-0.1,0.2-0.4,0.5-0.8,0.8c-0.3,0.2-0.6,0.4-0.9,0.5
		c-0.3,0.1-0.5,0.1-0.7,0c-0.1,0-0.3-0.1-0.4-0.3c-0.2-0.2-0.2-0.5-0.1-0.7c0.1-0.4,0.4-0.7,0.9-1.1C49,14.2,49.4,14,49.7,14z"/>
	<path class="st0" d="M50.9,17.8c0,0.2-0.1,0.5,0,0.8c0,0.3,0,0.5,0,0.6c0,0.1-0.1,0.2-0.1,0.3c-0.1,0.1-0.1,0.1-0.2,0.2
		c-0.1,0.1-0.3,0.1-0.4,0c-0.2-0.1-0.3-0.2-0.4-0.4c-0.1-0.2-0.1-0.5-0.1-0.8c0.1-0.3,0.3-0.6,0.6-0.8l0-0.1l-1.2,0.6l0,0.1
		c0.1,0,0.1,0,0.2,0c0.1,0,0.1,0.1,0.1,0.1c0,0,0,0.1,0,0.2c0,0.2,0,0.3,0.1,0.4c0,0.1,0.1,0.2,0.1,0.3c0.2,0.3,0.4,0.5,0.7,0.7
		c0.3,0.1,0.6,0.1,0.9,0c0.2-0.1,0.4-0.3,0.5-0.5c0.1-0.2,0.1-0.6,0.1-1c0-0.3,0-0.6,0-0.7c0-0.1,0.1-0.3,0.1-0.3
		c0-0.1,0.1-0.1,0.2-0.2c0.1-0.1,0.2-0.1,0.4,0c0.1,0.1,0.2,0.2,0.3,0.3c0.1,0.2,0.1,0.5,0.1,0.7c-0.1,0.3-0.2,0.5-0.5,0.7l0.1,0.1
		l1.1-0.6l0-0.1c-0.1,0-0.2,0-0.2,0c0,0-0.1,0-0.1-0.1c0,0,0-0.1,0-0.3c0-0.1,0-0.2,0-0.3c0-0.1-0.1-0.2-0.1-0.3
		c-0.2-0.3-0.4-0.5-0.6-0.6c-0.3-0.1-0.6-0.1-0.8,0.1c-0.2,0.1-0.3,0.2-0.4,0.3C51,17.5,50.9,17.6,50.9,17.8z"/>
	<path class="st0" d="M52.9,20c0.3,0,0.5,0,0.7,0.1c0.1,0.1,0.2,0.2,0.3,0.5l0.1,0.3l-2.7,0.9c-0.2,0.1-0.3,0.1-0.3,0.1
		c-0.1,0-0.1,0-0.2-0.1c-0.1,0-0.1-0.1-0.1-0.2l0-0.1l-0.1,0l0.6,1.8l0.1,0l0-0.1c0-0.1,0-0.2,0-0.3c0-0.1,0-0.1,0.1-0.2
		c0,0,0.1-0.1,0.3-0.1l2.7-0.9l0.1,0.3c0.1,0.2,0.1,0.3,0.1,0.4c0,0.1-0.1,0.3-0.1,0.4c-0.1,0.1-0.2,0.2-0.4,0.3l0,0.1l0.9-0.3
		l-1.1-3.1L52.9,20L52.9,20z"/>
	<path class="st0" d="M54.9,24c0,0-0.2,0.1-0.3,0.1l-2.4,0.4c-0.2,0-0.3,0-0.3,0c-0.1,0-0.1,0-0.1-0.1c0-0.1-0.1-0.1-0.1-0.2l0-0.1
		l-0.1,0l0.3,1.9l0.1,0l0-0.1c0-0.1,0-0.2,0-0.3c0-0.1,0.1-0.1,0.1-0.1c0,0,0.2-0.1,0.3-0.1l1.1-0.2l0.2,1.3l-1.1,0.2
		c-0.2,0-0.3,0-0.3,0c-0.1,0-0.1,0-0.1-0.1c0-0.1-0.1-0.1-0.1-0.2l0-0.1l-0.1,0l0.3,1.9l0.1,0l0-0.1c0-0.1,0-0.2,0-0.3
		c0-0.1,0.1-0.1,0.1-0.1c0,0,0.2-0.1,0.3-0.1l2.4-0.4c0.2,0,0.3,0,0.3,0c0.1,0,0.1,0,0.1,0.1c0,0.1,0.1,0.1,0.1,0.2l0,0.1l0.1,0
		l-0.3-1.9l-0.1,0l0,0.1c0,0.1,0,0.2,0,0.3c0,0.1-0.1,0.1-0.1,0.1c0,0-0.2,0.1-0.3,0.1l-1,0.2l-0.2-1.3l1-0.2c0.2,0,0.3,0,0.3,0
		c0.1,0,0.1,0,0.1,0.1c0,0.1,0.1,0.1,0.1,0.2l0,0.1l0.1,0l-0.3-1.9l-0.1,0l0,0.1c0,0.1,0,0.2,0,0.3C55,24,54.9,24,54.9,24z"/>
	<path class="st0" d="M54,28.3c-0.5,0-0.9,0.1-1.3,0.4c-0.5,0.3-0.7,0.9-0.7,1.5c0,0.7,0.2,1.2,0.7,1.5c0.3,0.3,0.8,0.4,1.2,0.4
		c0.5,0,1-0.2,1.4-0.5c0.4-0.4,0.6-0.8,0.5-1.4c0-0.5-0.1-1-0.5-1.4C55,28.6,54.5,28.4,54,28.3z M55.6,30.3c0,0.2-0.1,0.3-0.2,0.5
		c-0.1,0.1-0.3,0.2-0.5,0.3c-0.2,0.1-0.6,0.1-1.1,0.1c-0.4,0-0.7-0.1-1-0.2c-0.3-0.1-0.4-0.2-0.5-0.4c-0.1-0.1-0.1-0.3-0.1-0.5
		c0-0.3,0.1-0.5,0.3-0.6c0.3-0.2,0.8-0.3,1.4-0.3c0.5,0,0.9,0.1,1.2,0.2C55.5,29.7,55.6,30,55.6,30.3z"/>
	<path class="st0" d="M55.5,33.1c0,0.1-0.1,0.2-0.1,0.2c0,0.1-0.1,0.1-0.1,0.1c-0.1,0-0.2,0-0.4,0L52.5,33c-0.2,0-0.3-0.1-0.3-0.1
		c-0.1,0-0.1-0.1-0.1-0.2c0-0.1,0-0.1,0-0.3l0-0.1l-0.1,0l-0.3,1.6c0,0.2-0.1,0.4-0.1,0.5c0,0.3,0,0.5,0.1,0.7
		c0,0.2,0.1,0.4,0.2,0.5c0.1,0.2,0.3,0.3,0.5,0.4c0.2,0.1,0.4,0.2,0.7,0.3c0.4,0.1,0.7,0.1,1,0c0.3-0.1,0.6-0.3,0.8-0.6
		c0.2-0.2,0.3-0.6,0.4-1l0.3-1.6l-0.1,0L55.5,33.1z M54.9,35c-0.1,0.2-0.3,0.3-0.5,0.4c-0.3,0.1-0.7,0.1-1.2,0
		c-0.6-0.1-1-0.3-1.2-0.6c-0.2-0.2-0.2-0.4-0.2-0.7c0-0.1,0-0.2,0.1-0.2c0,0,0.1,0,0.1-0.1c0,0,0.1,0,0.3,0l2.8,0.6
		C55.1,34.7,55,34.9,54.9,35z"/>
	<path class="st0" d="M52.9,36.9c-0.5-0.2-0.9-0.2-1.3-0.1C51,37,50.6,37.4,50.4,38c-0.2,0.6-0.2,1.2,0.1,1.7c0.2,0.4,0.6,0.7,1,0.8
		c0.5,0.2,1,0.2,1.5,0c0.5-0.2,0.8-0.6,1-1.1c0.2-0.5,0.2-1,0-1.5C53.8,37.5,53.4,37.1,52.9,36.9z M53.8,39.4
		c-0.1,0.2-0.2,0.3-0.3,0.4c-0.1,0.1-0.3,0.1-0.6,0.1c-0.3,0-0.6-0.1-1.1-0.3c-0.4-0.2-0.7-0.3-0.9-0.5c-0.2-0.2-0.3-0.4-0.4-0.5
		c0-0.1,0-0.3,0-0.5c0.1-0.3,0.3-0.4,0.5-0.5c0.4-0.1,0.8,0,1.4,0.2c0.5,0.2,0.8,0.4,1,0.6C53.8,38.8,53.9,39.1,53.8,39.4z"/>
	<path class="st0" d="M52.6,42.1c-0.1,0-0.1,0.1-0.3,0.1l-0.1,0L50,40.8c-0.2-0.1-0.3-0.2-0.3-0.3c0-0.1,0-0.3,0.1-0.4L49.7,40
		L49,41.1l0.1,0.1l0-0.1c0.1-0.1,0.2-0.2,0.3-0.2c0.1,0,0.3,0,0.4,0.1l2,1.2l-3.9,0.5l0,0.1l2.6,1.6c0.1,0.1,0.2,0.2,0.3,0.2
		c0,0.1,0.1,0.1,0.1,0.2c0,0.1,0,0.2-0.1,0.3l0.1,0.1l0.6-1l-0.1-0.1c-0.1,0.2-0.2,0.3-0.4,0.3c-0.1,0-0.2,0-0.4-0.2l-1.3-0.8
		l2.9-0.3l0.7-1.1l-0.1-0.1C52.7,42,52.6,42,52.6,42.1z"/>
	<path class="st0" d="M49.5,45.2c0.2,0.2,0.3,0.4,0.3,0.6c0,0.2-0.1,0.3-0.2,0.5l-0.2,0.2l-2.1-1.9c-0.1-0.1-0.2-0.2-0.2-0.2
		c0-0.1,0-0.1,0-0.2c0-0.1,0.1-0.2,0.1-0.2l0.1-0.1l-0.1-0.1l-1.3,1.4l0.1,0.1l0.1-0.1c0.1-0.1,0.1-0.1,0.2-0.2c0.1,0,0.1,0,0.2,0
		c0,0,0.1,0.1,0.3,0.2l2.1,1.9l-0.2,0.2c-0.1,0.1-0.2,0.2-0.3,0.2c-0.1,0.1-0.2,0.1-0.4,0.1c-0.1,0-0.3-0.1-0.5-0.2l-0.1,0.1
		l0.7,0.7l2.2-2.5L49.5,45.2L49.5,45.2z"/>
	<path class="st0" d="M47.5,48.7c-0.1,0.1-0.2,0.1-0.2,0.1c-0.1,0-0.1,0-0.2,0c0,0-0.1-0.1-0.3-0.2l-1.6-1.8
		c-0.1-0.1-0.2-0.2-0.2-0.3c0-0.1,0-0.1,0-0.2c0-0.1,0.1-0.1,0.2-0.2l0.1-0.1l-0.1-0.1l-1.4,1.3l0.1,0.1l0.1-0.1
		c0.1-0.1,0.2-0.1,0.2-0.1c0.1,0,0.1,0,0.2,0c0,0,0.1,0.1,0.3,0.2l1.6,1.8c0.1,0.1,0.2,0.2,0.2,0.3c0,0.1,0,0.1,0,0.2
		c0,0.1-0.1,0.1-0.2,0.2l-0.1,0.1l0.1,0.1l1.4-1.3L47.5,48.7L47.5,48.7z"/>
	<path class="st0" d="M43.9,48.2c-0.3-0.2-0.6-0.2-1-0.2c-0.3,0-0.7,0.2-1,0.4c-0.2,0.2-0.4,0.3-0.6,0.6c-0.1,0.2-0.2,0.5-0.3,0.7
		l0.2,0.3c0-0.3,0.1-0.6,0.2-0.8c0.1-0.2,0.3-0.4,0.4-0.5c0.2-0.2,0.5-0.2,0.7-0.2c0.2,0,0.4,0.1,0.7,0.3c0.2,0.2,0.4,0.4,0.6,0.7
		c0.2,0.3,0.3,0.6,0.4,0.9c0,0.2,0,0.4-0.1,0.7c-0.1,0.2-0.2,0.4-0.4,0.5c-0.2,0.2-0.5,0.2-0.8,0.2c-0.3,0-0.5-0.2-0.8-0.4l-0.1,0.1
		l0.7,1.1l0.1-0.1c0-0.1-0.1-0.2,0-0.2c0-0.1,0-0.1,0.1-0.1c0,0,0.1-0.1,0.3-0.1c0.3-0.1,0.6-0.2,0.8-0.3c0.3-0.2,0.5-0.4,0.7-0.8
		c0.2-0.3,0.2-0.7,0.2-1c0-0.4-0.1-0.7-0.3-1C44.4,48.6,44.2,48.4,43.9,48.2z"/>
	<path class="st0" d="M41.1,51.6c-0.1-0.1-0.3-0.2-0.5-0.2c-0.2,0-0.5-0.1-0.8-0.1c-0.3,0-0.5,0-0.6-0.1c-0.1,0-0.2-0.1-0.3-0.1
		c-0.1-0.1-0.1-0.1-0.2-0.2c-0.1-0.1-0.1-0.3,0-0.4c0.1-0.2,0.2-0.3,0.4-0.4c0.2-0.1,0.5-0.1,0.8,0c0.3,0.1,0.6,0.3,0.8,0.6l0.1,0
		l-0.6-1.3l-0.1,0c0,0.1,0,0.1,0,0.2c0,0.1-0.1,0.1-0.1,0.1c-0.1,0-0.1,0-0.2,0c-0.2,0-0.3,0-0.4,0c-0.1,0-0.2,0.1-0.3,0.1
		c-0.3,0.2-0.6,0.4-0.7,0.7c-0.1,0.3-0.1,0.6,0,0.9c0.1,0.2,0.3,0.4,0.5,0.5c0.2,0.1,0.6,0.2,1,0.2c0.3,0,0.6,0,0.7,0
		c0.1,0,0.3,0.1,0.3,0.1c0.1,0,0.1,0.1,0.1,0.2c0.1,0.1,0.1,0.2,0,0.4c-0.1,0.1-0.2,0.2-0.3,0.3c-0.2,0.1-0.5,0.1-0.7,0
		c-0.3-0.1-0.5-0.3-0.7-0.5l-0.1,0l0.5,1.1l0.1,0c0-0.1,0-0.2,0-0.2c0,0,0-0.1,0.1-0.1c0,0,0.1,0,0.3,0c0.1,0,0.2,0,0.3,0
		c0.1,0,0.2-0.1,0.3-0.1c0.3-0.1,0.5-0.3,0.6-0.6c0.1-0.3,0.1-0.5,0-0.8C41.4,51.8,41.3,51.7,41.1,51.6z"/>
	<path class="st0" d="M51.7,29.8c0-11.9-9.5-21.6-21.2-21.6c-11.7,0-21.2,9.7-21.2,21.6c0,11.9,9.5,21.6,21.2,21.6
		C42.2,51.3,51.7,41.7,51.7,29.8z M30.5,50.4c-11.2,0-20.3-9.3-20.3-20.8c0-11.5,9.1-20.8,20.3-20.8c11.2,0,20.3,9.3,20.3,20.8
		C50.8,41.1,41.7,50.4,30.5,50.4z"/>
	<path class="st0" d="M60.1,29.4c-0.7-1.6-0.2-3.4,0.1-5.1c0.3-1.7,0.2-3.8-1.3-4.8c-0.5-0.4-1.2-0.6-1.4-1.1
		c-0.3-0.7,0.2-1.7-0.2-2.3c-0.5-0.7-1.7-0.5-2.2-1.2c-0.8-1,0.6-2.5,0.3-3.7c-0.2-0.8-1.1-1.1-1.8-1.5c-1.7-1-2.9-2.7-4.4-4
		s-3.7-2.3-5.5-1.4c-0.1-0.6-0.3-1.3-0.4-1.9c-1.4-0.7-3.6,1-4.4-0.4c-0.2-0.4-0.2-0.8-0.5-1.2c-0.3-0.4-1-0.5-1.5-0.5
		c-2.2,0-4.4-0.1-6.6-0.1c-0.6,0-1.3,0-1.9,0.2c-0.7,0.3-1.4,0.9-2.1,0.6c-0.3-0.2-0.6-0.6-0.9-0.7c-0.6-0.2-1.2,0.4-1.8,0.6
		c-1.3,0.5-3-0.8-4.2,0.1c-0.5,0.4-0.7,1.2-1.3,1.5c-0.5,0.3-1.2,0-1.8,0.3c-1,0.5-0.9,2.3-2,2.5c-0.4,0.1-0.8-0.1-1.2-0.1
		c-0.9,0-1.7,0.8-2.1,1.6S10,8.4,9.3,9c-0.6,0.5-1.4,0.6-2.1,1c-0.5,0.2-1,0.6-1.2,1.2C5.7,11.7,6.3,12.5,6,13
		c-0.2,0.4-1,0.5-1.4,0.9c-0.4,0.4-0.7,1.1-0.9,1.6c-1.2,2.5-2.2,5-3.4,7.5c-0.6,1.3-1.3,3-0.5,4.2c0.3,0.6,0.9,1,1.2,1.6
		c0.8,1.3,0.2,3,0.1,4.5c-0.2,2.5,0.8,4.9,1.8,7.1c0.8,1.8,1.6,3.6,2.4,5.5c0.3,0.6,0.6,1.2,1.1,1.6c0.9,0.6,2.4,0.9,2.2,2
		c0,0.3-0.2,0.5-0.2,0.8c0,0.9,1.4,0.5,2.3,0.7c1.3,0.2,1.6,1.9,1.6,3.1C15,53.9,18,55,20.1,57c0.7,0.7,1.4,1.4,2.3,1.7
		c0.4,0.1,0.9,0.2,1.4,0.2c1.2,0,2.5,0.1,3.7,0.1c0.7,0,1.3,0,1.9,0.3c0.9,0.4,1.6,1.4,2.6,1.2c0.6-0.1,1-0.7,1.5-1.1
		c1.2-1,2.9-1,4.5-1.2c2.4-0.3,4.6-1.2,6.8-2c1.1-0.4,2.3-0.9,2.8-2c0.2-0.3,0.2-0.7,0.5-0.9c0.5-0.6,1.3-0.5,2.1-0.5
		c-0.1-0.5-0.1-1.1,0.1-1.7c1.9,0.7,4.2-0.5,4.8-2.3c0.4-1.2,0.2-2.7,0.7-3.9c0.7-1.5,2.6-2.4,2.9-4.1c0.2-0.9-0.2-1.9-0.2-2.8
		c0-0.9,0.5-2.1,1.4-2.1c-0.2-0.8-0.3-1.8,0.1-2.5c0.3-0.4,0.7-0.7,0.9-1.2C61.3,31.2,60.5,30.3,60.1,29.4z M30.6,56.2
		c-14.5,0-26.3-11.9-26.3-26.5C4.3,15,16.1,3.1,30.6,3.1c14.5,0,26.3,11.9,26.3,26.5C56.8,44.3,45.1,56.2,30.6,56.2z"/>
	<path class="st0" d="M39.1,19.9C39.1,19.9,39.1,20,39.1,19.9C39.1,20,39.1,20,39.1,19.9C39.1,20,39.1,20,39.1,19.9
		C39.1,20,39.1,19.9,39.1,19.9z"/>
	<path class="st0" d="M21.8,19.7C21.8,19.7,21.8,19.8,21.8,19.7C21.8,19.8,21.8,19.8,21.8,19.7C21.9,19.8,21.9,19.8,21.8,19.7
		C21.9,19.8,21.9,19.7,21.8,19.7z"/>
</g>
<path class="st1" d="M79.9,30.6c-1-0.8-2.4-1.2-4.2-1.2l-4.9,0l0,15.2l3.4,0l0-5.3h1.2c1.9,0,3.4-0.4,4.4-1.3c1-0.9,1.6-2.1,1.6-3.8
	C81.3,32.6,80.8,31.4,79.9,30.6z M74.2,32.3h1.3c0.8,0,1.5,0.2,1.8,0.5c0.4,0.3,0.6,0.8,0.6,1.6c0,0.7-0.2,1.2-0.7,1.6
	c-0.5,0.4-1.2,0.5-2.1,0.5h-0.9L74.2,32.3z"/>
<path class="st1" d="M89.3,32.7c-0.7,0-1.4,0.2-2,0.6c-0.6,0.4-1.1,0.9-1.4,1.5L85.3,33l-2.6,0l0,11.7h3.4v-5.9
	c0-0.9,0.3-1.6,0.8-2.1c0.5-0.5,1.3-0.7,2.3-0.7c0.4,0,0.7,0,0.9,0.1l0.1,0l0.3-3.2l-0.1,0C90.1,32.8,89.7,32.7,89.3,32.7z"/>
<path class="st1" d="M99.4,33.5c-0.9-0.5-1.9-0.7-3-0.7c-1.8,0-3.2,0.5-4.2,1.6c-1,1.1-1.5,2.5-1.5,4.4c0,1.2,0.2,2.3,0.7,3.2
	c0.5,0.9,1.1,1.6,2,2.1c0.9,0.5,1.9,0.7,3,0.7c1.8,0,3.2-0.5,4.2-1.6c1-1.1,1.5-2.6,1.5-4.4c0-1.2-0.2-2.3-0.7-3.2
	C100.9,34.7,100.2,34,99.4,33.5z M94.7,36.3c0.3-0.5,0.9-0.8,1.7-0.8c0.8,0,1.4,0.3,1.7,0.8c0.4,0.5,0.5,1.4,0.5,2.5
	c0,1.1-0.2,1.9-0.5,2.5c-0.3,0.5-0.9,0.8-1.7,0.8c-0.8,0-1.4-0.3-1.7-0.8c-0.4-0.6-0.5-1.4-0.5-2.5C94.1,37.7,94.3,36.8,94.7,36.3z"
	/>
<path class="st1" d="M110.5,38.5c-0.4-0.3-1.1-0.7-2-1c-1-0.4-1.6-0.7-1.9-0.9c-0.3-0.2-0.4-0.4-0.4-0.6c0-0.2,0-0.6,1.3-0.6
	c0.5,0,1,0.1,1.5,0.2c0.5,0.2,1,0.4,1.6,0.6l0.1,0l1-2.5l-0.1,0c-1.3-0.6-2.7-0.9-4.1-0.9c-1.5,0-2.6,0.3-3.4,0.9
	c-0.8,0.6-1.2,1.4-1.2,2.5c0,0.6,0.1,1.1,0.3,1.5c0.2,0.4,0.5,0.8,0.9,1.1c0.4,0.3,1.1,0.7,2,1c0.6,0.3,1.1,0.5,1.5,0.7
	c0.4,0.2,0.6,0.4,0.7,0.5c0.1,0.1,0.2,0.3,0.2,0.5c0,0.2,0,0.9-1.6,0.9c-0.5,0-1.2-0.1-1.9-0.3c-0.7-0.2-1.4-0.4-1.9-0.7l-0.2-0.1
	v2.8l0.1,0c0.5,0.2,1.1,0.4,1.7,0.5c0.6,0.1,1.3,0.2,2.2,0.2c1.6,0,2.9-0.3,3.7-0.9c0.8-0.6,1.3-1.6,1.3-2.8c0-0.6-0.1-1.1-0.3-1.5
	C111.2,39.2,110.9,38.8,110.5,38.5z"/>
<path class="st1" d="M118,42.1c-0.4,0-0.7-0.1-0.9-0.3c-0.2-0.2-0.3-0.5-0.3-0.9v-5.4l3.2,0V33l-3.2,0v-2.4l-2.2,0l-0.9,2.4
	l-1.7,1.1v1.5h1.5v5.4c0,1.3,0.3,2.3,0.9,2.9c0.6,0.7,1.5,1,2.8,1c1.1,0,2.1-0.2,2.9-0.5l0.1,0l0-2.6l-0.2,0
	C119.1,42,118.5,42.1,118,42.1z"/>
<path class="st1" d="M127.8,32.7c-1.5,0-2.6,0.5-3.4,1.6l0.1-0.7c0-0.9,0.1-1.5,0.1-1.8v-3.4l-3.4,0l0,16.1h3.4v-5.5
	c0-1.3,0.2-2.2,0.6-2.8c0.4-0.6,1-0.8,1.8-0.8c1.2,0,1.7,0.8,1.7,2.3v6.8h3.4V37c0-1.4-0.4-2.4-1.1-3.2
	C130.2,33.1,129.2,32.7,127.8,32.7z"/>
<path class="st1" d="M142.1,33.5c-0.9-0.5-1.9-0.7-3-0.7c-1.8,0-3.2,0.5-4.2,1.6c-1,1.1-1.5,2.5-1.5,4.4c0,1.2,0.2,2.3,0.7,3.2
	c0.5,0.9,1.1,1.6,2,2.1c0.9,0.5,1.9,0.7,3,0.7c1.8,0,3.2-0.5,4.2-1.6c1-1.1,1.5-2.6,1.5-4.4c0-1.2-0.2-2.3-0.7-3.2
	C143.6,34.7,143,34,142.1,33.5z M137.4,36.3c0.3-0.5,0.9-0.8,1.7-0.8c0.8,0,1.4,0.3,1.7,0.8c0.4,0.5,0.5,1.4,0.5,2.5
	c0,1.1-0.2,1.9-0.5,2.5c-0.3,0.5-0.9,0.8-1.7,0.8c-0.8,0-1.4-0.3-1.7-0.8c-0.4-0.6-0.5-1.4-0.5-2.5C136.8,37.7,137,36.8,137.4,36.3z
	"/>
<path class="st1" d="M153.1,32.3c0,0.6,0.1,1.2,0.2,2c-0.8-1-1.9-1.5-3.2-1.5c-1.4,0-2.5,0.5-3.3,1.6c-0.8,1.1-1.2,2.6-1.2,4.4
	c0,1.9,0.4,3.3,1.2,4.4c0.8,1.1,1.9,1.6,3.3,1.6c1.5,0,2.6-0.6,3.3-1.7l0.6,1.5l2.6,0l0-16.1l-3.4,0L153.1,32.3z M153.3,38.8v0.3
	c0,1.1-0.2,1.8-0.6,2.3c-0.3,0.4-0.9,0.6-1.7,0.6c-0.7,0-1.2-0.3-1.6-0.8c-0.4-0.5-0.6-1.4-0.6-2.5c0-1.1,0.2-1.9,0.6-2.5
	c0.4-0.6,0.9-0.8,1.5-0.8c0.8,0,1.4,0.2,1.8,0.7C153.1,36.8,153.3,37.6,153.3,38.8z"/>
<path class="st1" d="M166.6,33.5c-0.9-0.5-1.9-0.7-3-0.7c-1.8,0-3.2,0.5-4.2,1.6c-1,1.1-1.5,2.5-1.5,4.4c0,1.2,0.2,2.3,0.7,3.2
	c0.5,0.9,1.1,1.6,2,2.1c0.9,0.5,1.9,0.7,3,0.7c1.8,0,3.2-0.5,4.2-1.6c1-1.1,1.5-2.6,1.5-4.4c0-1.2-0.2-2.3-0.7-3.2
	C168.1,34.7,167.4,34,166.6,33.5z M161.9,36.3c0.3-0.5,0.9-0.8,1.7-0.8c0.8,0,1.4,0.3,1.7,0.8c0.4,0.5,0.5,1.4,0.5,2.5
	c0,1.1-0.2,1.9-0.5,2.5c-0.3,0.5-0.9,0.8-1.7,0.8c-0.8,0-1.4-0.3-1.7-0.8c-0.4-0.6-0.5-1.4-0.5-2.5
	C161.3,37.7,161.5,36.8,161.9,36.3z"/>
<path class="st1" d="M177.3,32.7c-0.8,0-1.5,0.1-2.1,0.4c-0.6,0.3-1.1,0.7-1.5,1.2l-0.4-1.5h-2.6v11.7h3.4l0-5.5
	c0-1.3,0.2-2.3,0.6-2.8c0.4-0.6,1-0.8,1.8-0.8c0.6,0,1,0.2,1.3,0.6c0.3,0.4,0.4,1,0.4,1.8v6.8h3.4V37c0-1.4-0.4-2.5-1.1-3.2
	C179.7,33.1,178.7,32.7,177.3,32.7z"/>
<path class="st1" d="M188.5,42.1c-0.4,0-0.7-0.1-0.9-0.3c-0.2-0.2-0.3-0.5-0.3-0.9l0-5.4h3.2V33l-3.2,0v-2.4h-2.2l-0.9,2.4l-1.7,1.1
	v1.5h1.5v5.4c0,1.3,0.3,2.3,0.9,2.9c0.6,0.7,1.5,1,2.8,1c1.1,0,2.1-0.2,2.9-0.5l0.1,0v-2.6l-0.2,0C189.7,42,189.1,42.1,188.5,42.1z"
	/>
<rect x="191.8" y="33" class="st1" width="3.4" height="11.7"/>
<path class="st1" d="M193.5,28.5c-1.2,0-1.8,0.6-1.8,1.6c0,1.1,0.6,1.7,1.8,1.7c0.6,0,1.1-0.1,1.4-0.4c0.3-0.3,0.5-0.7,0.5-1.2
	C195.3,29,194.7,28.5,193.5,28.5z"/>
<path class="st1" d="M202.3,35.5c0.4,0,0.8,0.1,1.2,0.2c0.4,0.1,0.9,0.3,1.4,0.5l0.1,0l1-2.6l-0.1,0c-1.1-0.5-2.3-0.8-3.6-0.8
	c-1.8,0-3.3,0.5-4.3,1.6c-1,1-1.5,2.6-1.5,4.5c0,4,1.8,6,5.5,6c0.8,0,1.5-0.1,2-0.2c0.5-0.1,1.1-0.4,1.6-0.7l0.1,0v-3l-0.2,0.1
	c-0.5,0.3-1,0.6-1.5,0.7c-0.5,0.2-1.1,0.2-1.6,0.2c-1.6,0-2.3-1.1-2.3-3.2C200,36.6,200.8,35.5,202.3,35.5z"/>
<path class="st1" d="M215.1,39.6c-0.2-0.4-0.5-0.8-1-1.1c-0.4-0.3-1.1-0.7-2-1c-1-0.4-1.6-0.7-1.9-0.9c-0.3-0.2-0.4-0.4-0.4-0.6
	c0-0.2,0-0.6,1.3-0.6c0.5,0,1,0.1,1.5,0.2c0.5,0.2,1,0.4,1.6,0.6l0.1,0l1-2.5l-0.1,0c-1.3-0.6-2.7-0.9-4.1-0.9
	c-1.5,0-2.6,0.3-3.4,0.9c-0.8,0.6-1.2,1.4-1.2,2.5c0,0.6,0.1,1.1,0.3,1.5c0.2,0.4,0.5,0.8,0.9,1.1c0.4,0.3,1.1,0.7,2,1
	c0.6,0.3,1.1,0.5,1.5,0.7c0.4,0.2,0.6,0.4,0.7,0.5c0.1,0.1,0.2,0.3,0.2,0.5c0,0.2,0,0.9-1.6,0.9c-0.5,0-1.2-0.1-1.9-0.3
	c-0.7-0.2-1.4-0.4-1.9-0.7l-0.2-0.1v2.8l0.1,0c0.5,0.2,1.1,0.4,1.7,0.5c0.6,0.1,1.3,0.2,2.2,0.2c1.6,0,2.9-0.3,3.7-0.9
	c0.8-0.6,1.3-1.6,1.3-2.8C215.4,40.5,215.3,40,215.1,39.6z"/>
<g>
	<polygon class="st1" points="71.7,24 73.2,24 73.2,17.5 75.5,17.5 75.5,16.2 69.4,16.2 69.4,17.5 71.7,17.5 	"/>
	<polygon class="st1" points="83.1,24 83.1,16.2 81.6,16.2 81.6,19.2 78.3,19.2 78.3,16.2 76.8,16.2 76.8,24 78.3,24 78.3,20.6 
		81.6,20.6 81.6,24 	"/>
	<polygon class="st1" points="89.9,22.6 86.8,22.6 86.8,20.6 89.7,20.6 89.7,19.3 86.8,19.3 86.8,17.5 89.9,17.5 89.9,16.2 
		85.3,16.2 85.3,24 89.9,24 	"/>
	<path class="st1" d="M96.3,21.9l2.7,0l0.7,2.1h1.7l-2.9-7.7l0-0.1l-1.6,0l-3,7.8l1.7,0L96.3,21.9z M97.4,18.7l0.1-0.3
		c0-0.1,0.1-0.3,0.1-0.4c0,0.1,0.1,0.3,0.1,0.4l0.8,2.2l-1.8,0L97.4,18.7z"/>
	<path class="st1" d="M103.9,19.7c0-0.3,0-0.5,0-0.8c0-0.1,0-0.3,0-0.4l1.9,5.5h1.3l2-5.5c0,0.1,0,0.3,0,0.5c0,0.3,0,0.5,0,0.7V24
		h1.5l0-7.8h-2l-2.1,5.7l-2-5.7h-2V24h1.4V19.7z"/>
	<polygon class="st1" points="117.5,22.6 114.4,22.6 114.4,20.6 117.3,20.6 117.3,19.3 114.4,19.3 114.4,17.5 117.5,17.5 
		117.5,16.2 112.8,16.2 112.8,24 117.5,24 	"/>
	<path class="st1" d="M123.7,24h1.8l-2.2-3.4c0.2-0.1,0.4-0.2,0.6-0.4c0.2-0.2,0.4-0.4,0.6-0.7c0.2-0.3,0.2-0.6,0.2-1
		c0-0.5-0.1-1-0.3-1.3c-0.2-0.3-0.6-0.6-1-0.8c-0.4-0.2-1-0.2-1.7-0.2h-2.3l0,7.8l1.6,0v-3h1L123.7,24z M120.8,17.5h0.7
		c0.6,0,1,0.1,1.2,0.2c0.2,0.2,0.4,0.4,0.4,0.8c0,0.4-0.1,0.6-0.3,0.8c-0.2,0.2-0.6,0.3-1.2,0.3h-0.7V17.5z"/>
	<rect x="126.6" y="16.2" class="st1" width="1.6" height="7.8"/>
	<path class="st1" d="M131.5,23.6c0.5,0.3,1.2,0.5,2,0.5c0.4,0,0.8,0,1.1-0.1c0.3-0.1,0.7-0.1,1-0.3l0.1,0v-1.4l-0.2,0.1
		c-0.3,0.1-0.6,0.2-0.9,0.2c-0.3,0.1-0.6,0.1-0.9,0.1c-0.5,0-0.9-0.1-1.2-0.3c-0.3-0.2-0.6-0.5-0.7-0.9c-0.2-0.4-0.2-0.9-0.2-1.4
		c0-0.4,0.1-0.8,0.2-1.1c0.1-0.3,0.2-0.6,0.4-0.8c0.2-0.2,0.4-0.4,0.7-0.5c0.5-0.2,1.2-0.2,1.8-0.1c0.3,0.1,0.6,0.2,0.8,0.3l0.1,0.1
		l0.6-1.3l-0.1-0.1c-0.3-0.2-0.7-0.3-1.1-0.4c-0.4-0.1-0.8-0.1-1.2-0.1c-0.6,0-1.1,0.1-1.6,0.3c-0.5,0.2-0.9,0.5-1.2,0.8
		c-0.3,0.4-0.6,0.8-0.7,1.3c-0.2,0.5-0.2,1-0.2,1.6c0,0.8,0.1,1.5,0.4,2.1C130.6,22.8,131,23.3,131.5,23.6z"/>
	<path class="st1" d="M138.9,21.9l2.7,0l0.7,2.1l1.7,0l-2.9-7.7l0-0.1h-1.6l-3,7.8l1.7,0L138.9,21.9z M140,18.7l0.1-0.3
		c0-0.1,0.1-0.3,0.1-0.4c0,0.1,0.1,0.3,0.1,0.4l0.8,2.2l-1.8,0L140,18.7z"/>
	<path class="st1" d="M146.5,19.9c0-0.2,0-0.5,0-0.7c0-0.2,0-0.5,0-0.7c0,0,0-0.1,0-0.1L150,24l1.8,0v-7.8h-1.5l0,4.1
		c0,0.2,0,0.5,0,0.7c0,0.2,0,0.5,0,0.7c0,0,0,0.1,0,0.1l-3.5-5.5l0-0.1l-1.8,0l0,7.8h1.4L146.5,19.9z"/>
	<path class="st1" d="M161.6,23.7c0.4-0.2,0.8-0.4,1-0.8c0.2-0.3,0.4-0.8,0.4-1.3c0-0.4-0.1-0.8-0.2-1c-0.1-0.3-0.4-0.5-0.6-0.6
		c-0.1-0.1-0.2-0.1-0.4-0.2c0.1-0.1,0.2-0.1,0.3-0.2c0.2-0.2,0.4-0.4,0.5-0.6c0.1-0.2,0.2-0.5,0.2-0.8c0-0.7-0.3-1.3-0.8-1.6
		c-0.5-0.3-1.3-0.4-2.3-0.4h-2.4V24l2.9,0C160.6,24,161.1,23.9,161.6,23.7z M160.8,19c-0.2,0.2-0.6,0.2-1.1,0.2h-1.1v-1.8h0.9
		c0.5,0,0.9,0.1,1.2,0.2c0.2,0.1,0.3,0.3,0.3,0.6C161.1,18.7,161,18.9,160.8,19z M161.3,21.6c0,0.3-0.1,0.6-0.3,0.8
		c-0.2,0.2-0.6,0.3-1.1,0.3h-1.2v-2.1l1.1,0c0.4,0,0.7,0,0.9,0.1c0.2,0.1,0.4,0.2,0.4,0.3C161.3,21.2,161.3,21.4,161.3,21.6z"/>
	<path class="st1" d="M171.5,21.7c0.2-0.5,0.2-1,0.2-1.6c0-0.8-0.1-1.5-0.4-2.1c-0.3-0.6-0.7-1.1-1.2-1.4c-0.5-0.3-1.2-0.5-2.1-0.5
		c-0.8,0-1.5,0.2-2.1,0.5c-0.6,0.3-1,0.8-1.3,1.4c-0.3,0.6-0.4,1.3-0.4,2.1c0,0.6,0.1,1.1,0.2,1.6c0.2,0.5,0.4,0.9,0.7,1.3
		c0.3,0.4,0.7,0.6,1.2,0.8c0.5,0.2,1,0.3,1.6,0.3c0.6,0,1.2-0.1,1.6-0.3c0.5-0.2,0.9-0.5,1.2-0.8C171.1,22.6,171.4,22.2,171.5,21.7z
		 M168,22.7c-0.5,0-0.9-0.1-1.2-0.3c-0.3-0.2-0.5-0.5-0.7-0.9c-0.2-0.4-0.2-0.9-0.2-1.4c0-0.6,0.1-1,0.2-1.4
		c0.1-0.4,0.4-0.7,0.7-0.9c0.3-0.2,0.7-0.3,1.2-0.3c0.7,0,1.3,0.2,1.6,0.7c0.3,0.5,0.5,1.1,0.5,2c0,0.6-0.1,1-0.2,1.4
		c-0.1,0.4-0.4,0.7-0.7,0.9C168.9,22.6,168.5,22.7,168,22.7z"/>
	<path class="st1" d="M174.9,21.9l2.7,0l0.7,2.1l1.7,0l-2.9-7.7l0-0.1h-1.6l-3,7.8h1.7L174.9,21.9z M176,18.7l0.1-0.3
		c0-0.1,0.1-0.3,0.1-0.4c0,0.1,0.1,0.3,0.1,0.4l0.8,2.2h-1.8L176,18.7z"/>
	<path class="st1" d="M182.7,21h1l1.9,3h1.8l-2.2-3.4c0.2-0.1,0.4-0.2,0.6-0.4c0.2-0.2,0.4-0.4,0.6-0.7c0.2-0.3,0.2-0.6,0.2-1
		c0-0.5-0.1-1-0.3-1.3c-0.2-0.3-0.6-0.6-1-0.8c-0.4-0.2-1-0.2-1.7-0.2l-2.3,0V24l1.6,0V21z M182.7,17.5h0.7c0.6,0,1,0.1,1.2,0.2
		c0.2,0.2,0.4,0.4,0.4,0.8c0,0.4-0.1,0.6-0.3,0.8c-0.2,0.2-0.6,0.3-1.2,0.3h-0.7V17.5z"/>
	<path class="st1" d="M194.4,22.2c0.3-0.6,0.5-1.3,0.5-2.2c0-0.8-0.2-1.5-0.5-2.1c-0.3-0.6-0.8-1-1.4-1.3c-0.6-0.3-1.3-0.4-2.1-0.4
		h-2.5V24l2.3,0c0.9,0,1.6-0.1,2.3-0.4C193.6,23.2,194.1,22.8,194.4,22.2z M190,17.5h0.9c0.5,0,1,0.1,1.3,0.3
		c0.4,0.2,0.6,0.4,0.8,0.8c0.2,0.4,0.3,0.9,0.3,1.4c0,0.9-0.2,1.5-0.6,2c-0.4,0.4-1.1,0.6-2,0.6H190V17.5z"/>
	<path class="st1" d="M207,20.1c0-0.8-0.1-1.5-0.4-2.1c-0.3-0.6-0.7-1.1-1.2-1.4c-0.5-0.3-1.2-0.5-2.1-0.5c-0.8,0-1.5,0.2-2.1,0.5
		c-0.6,0.3-1,0.8-1.3,1.4c-0.3,0.6-0.4,1.3-0.4,2.1c0,0.6,0.1,1.1,0.2,1.6c0.2,0.5,0.4,0.9,0.7,1.3c0.3,0.4,0.7,0.6,1.2,0.8
		c0.5,0.2,1,0.3,1.6,0.3c0.6,0,1.2-0.1,1.6-0.3c0.5-0.2,0.9-0.5,1.2-0.8c0.3-0.4,0.5-0.8,0.7-1.3C207,21.2,207,20.7,207,20.1z
		 M203.3,22.7c-0.5,0-0.9-0.1-1.2-0.3c-0.3-0.2-0.5-0.5-0.7-0.9c-0.2-0.4-0.2-0.9-0.2-1.4c0-0.6,0.1-1,0.2-1.4
		c0.1-0.4,0.4-0.7,0.7-0.9c0.3-0.2,0.7-0.3,1.2-0.3c0.7,0,1.3,0.2,1.6,0.7c0.3,0.5,0.5,1.1,0.5,2c0,0.6-0.1,1-0.2,1.4
		c-0.1,0.4-0.4,0.7-0.7,0.9C204.2,22.6,203.8,22.7,203.3,22.7z"/>
	<polygon class="st1" points="210.4,20.9 213.3,20.9 213.3,19.6 210.4,19.6 210.4,17.5 213.5,17.5 213.5,16.2 208.8,16.2 208.8,24 
		210.4,24 	"/>
</g>
</svg>
