<?xml version="1.0" encoding="UTF-8"?>
<svg id="Layer_1" xmlns="http://www.w3.org/2000/svg" width="489.89" height="365.88" version="1.1" viewBox="0 0 489.89 365.88">
  <!-- Generator: Adobe Illustrator 29.1.0, SVG Export Plug-In . SVG Version: 2.1.0 Build 142)  -->
  <defs>
    <style>
      .st0 {
        fill: #231f20;
      }

      .st1 {
        fill: #006551;
      }

      .st2 {
        fill: #fff;
      }
    </style>
  </defs>
  <path class="st0" d="M7.73,273.24c-4.66-4.09-5.9-9.42-5.9-14.04,0-3.24,1-8.85,5.57-13.04,3.43-3.14,7.95-5.04,15.04-5.04,2.95,0,4.71.19,6.9.47,1.81.24,3.33.67,4.76.81.52.05.71.28.71.57,0,.38-.14.95-.24,2.62-.09,1.57-.05,4.19-.14,5.14-.05.71-.14,1.09-.57,1.09-.38,0-.48-.38-.48-1.05-.05-1.48-.67-3.14-1.86-4.38-1.57-1.66-5.28-2.95-9.66-2.95-4.14,0-6.85,1.05-8.95,2.95-3.47,3.19-4.38,7.71-4.38,12.33,0,11.32,8.61,16.94,14.99,16.94,4.23,0,6.81-.48,8.71-2.66.81-.9,1.43-2.28,1.62-3.14.14-.76.24-.95.62-.95.33,0,.43.33.43.72,0,.57-.57,4.71-1.05,6.33-.24.81-.43,1.05-1.24,1.38-1.9.76-5.52,1.09-8.57,1.09-6.52,0-11.99-1.43-16.32-5.19"/>
  <path class="st0" d="M45.09,255.59c0-7.23,0-8.57-.1-10.09-.1-1.62-.48-2.38-2.05-2.71-.38-.1-1.19-.14-1.86-.14-.52,0-.81-.1-.81-.43s.33-.43,1.05-.43c2.52,0,5.52.14,6.85.14,1.52,0,10.99,0,11.9-.05.9-.09,1.66-.19,2.04-.29.24-.05.52-.19.76-.19s.28.19.28.43c0,.33-.24.9-.38,3.09-.05.48-.14,2.57-.24,3.14-.05.24-.14.52-.48.52s-.43-.24-.43-.67c0-.33-.05-1.14-.29-1.71-.33-.86-.81-1.43-3.19-1.71-.81-.1-5.81-.19-6.76-.19-.24,0-.33.14-.33.48v12.04c0,.33.05.52.33.52,1.05,0,6.52,0,7.61-.09,1.14-.1,1.86-.24,2.29-.71.33-.38.52-.62.76-.62.19,0,.33.1.33.38s-.24,1.05-.38,3.47c-.09.95-.19,2.85-.19,3.19,0,.38,0,.91-.43.91-.33,0-.43-.19-.43-.43-.05-.48-.05-1.09-.19-1.71-.24-.95-.9-1.66-2.66-1.86-.9-.09-5.62-.14-6.76-.14-.24,0-.28.19-.28.48v3.76c0,1.62-.05,6,0,7.38.09,3.28.86,4,5.71,4,1.24,0,3.24,0,4.47-.57,1.24-.57,1.81-1.57,2.14-3.52.09-.52.19-.71.52-.71.38,0,.38.38.38.86,0,1.09-.38,4.33-.62,5.28-.33,1.24-.76,1.24-2.57,1.24-7.19,0-10.37-.29-13.18-.29-1.09,0-4.09.14-6,.14-.62,0-.95-.14-.95-.48,0-.24.19-.38.76-.38.71,0,1.28-.09,1.71-.19.95-.19,1.19-1.24,1.38-2.62.24-2,.24-5.76.24-10.14v-8.37"/>
  <path class="st0" d="M75.16,255.59c0-7.23,0-8.57-.1-10.09-.09-1.62-.48-2.38-2.05-2.71-.38-.1-1.19-.14-1.86-.14-.52,0-.81-.1-.81-.43s.33-.43,1.05-.43c2.52,0,5.52.14,6.85.14,1.48,0,4.47-.14,7.33-.14,5.95,0,13.89,0,19.08,5.42,2.38,2.47,4.62,6.42,4.62,12.09,0,6-2.52,10.57-5.19,13.28-2.19,2.24-7.14,5.62-15.94,5.62-3.47,0-7.76-.57-10.13-.57-1.1,0-4.09.14-6,.14-.62,0-.95-.14-.95-.48,0-.24.19-.38.76-.38.71,0,1.29-.09,1.71-.19.95-.19,1.19-1.24,1.38-2.62.24-2,.24-5.76.24-10.14v-8.37M81.11,260.82c0,5.04.05,8.71.09,9.61.05,1.19.14,3.09.52,3.62.62.9,2.47,1.9,6.23,1.9,4.85,0,8.09-.95,10.95-3.43,3.04-2.62,4-6.95,4-11.85,0-6.04-2.52-9.94-4.57-11.9-4.38-4.19-9.8-4.76-13.51-4.76-.95,0-2.71.14-3.09.33-.43.19-.57.43-.57.95-.05,1.62-.05,5.76-.05,9.52v6h0Z"/>
  <path class="st0" d="M121.61,265.34c-.24,0-.33.09-.43.38l-2.57,6.81c-.48,1.19-.71,2.33-.71,2.9,0,.86.43,1.47,1.9,1.47h.71c.57,0,.71.1.71.38,0,.38-.28.48-.81.48-1.52,0-3.57-.14-5.04-.14-.52,0-3.14.14-5.62.14-.62,0-.9-.1-.9-.48,0-.29.19-.38.57-.38.43,0,1.09-.05,1.47-.09,2.19-.29,3.09-1.91,4.05-4.28l11.94-29.88c.57-1.38.86-1.9,1.33-1.9.43,0,.71.43,1.19,1.52,1.14,2.62,8.76,22.03,11.8,29.27,1.81,4.28,3.19,4.95,4.19,5.19.71.14,1.43.19,2,.19.38,0,.62.05.62.38,0,.38-.43.48-2.19.48s-5.19,0-8.99-.1c-.86-.05-1.43-.05-1.43-.38,0-.29.19-.38.67-.43.33-.09.67-.52.43-1.09l-3.81-10.09c-.09-.24-.24-.33-.48-.33h-10.61M131.31,262.96c.24,0,.29-.14.24-.28l-4.28-11.76c-.05-.19-.1-.43-.24-.43s-.24.24-.28.43l-4.38,11.71c-.05.19,0,.33.19.33h8.76-.01Z"/>
  <path class="st0" d="M153.01,255.59c0-7.23,0-8.57-.1-10.09-.09-1.62-.47-2.38-2.04-2.71-.38-.1-1.19-.14-1.86-.14-.52,0-.81-.1-.81-.43s.33-.43,1.05-.43c2.52,0,5.52.14,6.52.14,1.62,0,5.23-.14,6.71-.14,3,0,6.19.29,8.76,2.04,1.33.91,3.23,3.33,3.23,6.52,0,3.52-1.47,6.76-6.28,10.66,4.23,5.33,7.52,9.57,10.33,12.51,2.67,2.76,4.62,3.09,5.33,3.24.52.09.95.14,1.33.14s.57.14.57.38c0,.38-.33.48-.9.48h-4.52c-2.66,0-3.85-.24-5.09-.9-2.05-1.09-3.86-3.33-6.52-6.99-1.9-2.62-4.09-5.85-4.71-6.57-.24-.29-.52-.33-.86-.33l-4.14-.1c-.24,0-.38.1-.38.38v.67c0,4.43,0,8.19.24,10.18.14,1.38.43,2.43,1.86,2.62.71.1,1.76.19,2.33.19.38,0,.57.14.57.38,0,.33-.33.48-.95.48-2.76,0-6.28-.14-7-.14-.9,0-3.9.14-5.81.14-.62,0-.95-.14-.95-.48,0-.24.19-.38.76-.38.71,0,1.28-.09,1.71-.19.95-.19,1.19-1.24,1.38-2.62.24-2,.24-5.76.24-10.14v-8.37M158.63,259.34c0,.52.1.71.43.86,1,.33,2.43.47,3.62.47,1.9,0,2.52-.19,3.38-.81,1.43-1.05,2.81-3.23,2.81-7.14,0-6.76-4.47-8.71-7.28-8.71-1.19,0-2.05.05-2.52.19-.33.1-.43.29-.43.67v14.47h0Z"/>
  <path class="st0" d="M204.98,241.98c.14-.81.43-1.24.81-1.24s.67.24,1.28,1.47l12.99,26.84,12.94-27.17c.33-.76.62-1.14,1.05-1.14s.71.48.86,1.47l4.33,29.41c.43,3,.9,4.38,2.33,4.81,1.38.43,2.33.48,2.95.48.43,0,.76.05.76.33,0,.38-.57.52-1.24.52-1.19,0-7.76-.14-9.66-.29-1.09-.1-1.38-.24-1.38-.52,0-.24.19-.38.52-.52.28-.1.43-.71.24-2.04l-2.85-20.94h-.19l-10.37,21.6c-1.09,2.24-1.33,2.66-1.76,2.66s-.9-.95-1.67-2.38c-1.14-2.19-4.9-9.47-5.47-10.8-.43-1-3.28-7-4.95-10.56h-.19l-2.47,18.94c-.1.86-.14,1.48-.14,2.24,0,.9.62,1.33,1.43,1.52.86.19,1.52.24,2,.24.38,0,.71.1.71.33,0,.43-.43.52-1.14.52-2,0-4.14-.14-5-.14s-3.19.14-4.71.14c-.48,0-.86-.1-.86-.52,0-.24.29-.33.76-.33.38,0,.71,0,1.43-.14,1.33-.29,1.71-2.14,1.95-3.76l4.71-31.03"/>
  <path class="st0" d="M252.85,255.59c0-7.23,0-8.57-.1-10.09-.1-1.62-.47-2.38-2.05-2.71-.38-.1-1.19-.14-1.86-.14-.52,0-.81-.1-.81-.43s.33-.43,1.05-.43c2.52,0,5.52.14,6.85.14,1.52,0,10.99,0,11.9-.05.9-.09,1.66-.19,2.05-.29.24-.05.52-.19.76-.19s.29.19.29.43c0,.33-.24.9-.38,3.09-.05.48-.14,2.57-.24,3.14-.05.24-.14.52-.48.52s-.43-.24-.43-.67c0-.33-.05-1.14-.29-1.71-.33-.86-.81-1.43-3.19-1.71-.81-.1-5.81-.19-6.76-.19-.24,0-.33.14-.33.48v12.04c0,.33.05.52.33.52,1.05,0,6.52,0,7.61-.09,1.14-.1,1.86-.24,2.28-.71.33-.38.52-.62.76-.62.19,0,.33.1.33.38s-.24,1.05-.38,3.47c-.1.95-.19,2.85-.19,3.19,0,.38,0,.91-.43.91-.33,0-.43-.19-.43-.43-.05-.48-.05-1.09-.19-1.71-.24-.95-.9-1.66-2.66-1.86-.9-.09-5.62-.14-6.76-.14-.24,0-.29.19-.29.48v3.76c0,1.62-.05,6,0,7.38.1,3.28.86,4,5.71,4,1.24,0,3.24,0,4.47-.57,1.24-.57,1.81-1.57,2.14-3.52.1-.52.19-.71.52-.71.38,0,.38.38.38.86,0,1.09-.38,4.33-.62,5.28-.33,1.24-.76,1.24-2.57,1.24-7.19,0-10.37-.29-13.18-.29-1.09,0-4.09.14-6,.14-.62,0-.95-.14-.95-.48,0-.24.19-.38.76-.38.71,0,1.29-.09,1.71-.19.95-.19,1.19-1.24,1.38-2.62.24-2,.24-5.76.24-10.14v-8.37"/>
  <path class="st0" d="M284.69,241.98c.14-.81.43-1.24.81-1.24s.67.24,1.29,1.47l12.99,26.84,12.95-27.17c.33-.76.62-1.14,1.05-1.14s.71.48.86,1.47l4.33,29.41c.43,3,.91,4.38,2.33,4.81,1.38.43,2.33.48,2.95.48.43,0,.76.05.76.33,0,.38-.57.52-1.24.52-1.19,0-7.76-.14-9.66-.29-1.09-.1-1.38-.24-1.38-.52,0-.24.19-.38.52-.52.29-.1.43-.71.24-2.04l-2.85-20.94h-.19l-10.37,21.6c-1.09,2.24-1.33,2.66-1.76,2.66s-.9-.95-1.67-2.38c-1.14-2.19-4.9-9.47-5.47-10.8-.43-1-3.28-7-4.95-10.56h-.19l-2.48,18.94c-.09.86-.14,1.48-.14,2.24,0,.9.62,1.33,1.43,1.52.86.19,1.52.24,2,.24.38,0,.71.1.71.33,0,.43-.43.52-1.14.52-2,0-4.14-.14-5-.14s-3.19.14-4.71.14c-.48,0-.86-.1-.86-.52,0-.24.28-.33.76-.33.38,0,.71,0,1.43-.14,1.33-.29,1.71-2.14,1.95-3.76l4.71-31.03"/>
  <path class="st0" d="M325.23,259.77c0-8.14,5.38-18.65,19.65-18.65,11.85,0,19.23,6.9,19.23,17.8s-7.61,19.51-19.7,19.51c-13.66,0-19.18-10.23-19.18-18.65M357.45,260.68c0-10.66-6.14-17.27-13.94-17.27-5.47,0-11.71,3.04-11.71,14.89,0,9.9,5.47,17.75,14.61,17.75,3.33,0,11.04-1.62,11.04-15.37Z"/>
  <path class="st0" d="M374.06,255.59c0-7.23,0-8.57-.1-10.09-.09-1.62-.48-2.38-2.05-2.71-.38-.1-1.19-.14-1.86-.14-.52,0-.81-.1-.81-.43s.33-.43,1.05-.43c2.52,0,5.52.14,6.52.14,1.62,0,5.23-.14,6.71-.14,3,0,6.19.29,8.76,2.04,1.33.91,3.24,3.33,3.24,6.52,0,3.52-1.48,6.76-6.28,10.66,4.23,5.33,7.52,9.57,10.33,12.51,2.66,2.76,4.62,3.09,5.33,3.24.52.09.95.14,1.33.14s.57.14.57.38c0,.38-.33.48-.9.48h-4.52c-2.67,0-3.85-.24-5.09-.9-2.05-1.09-3.85-3.33-6.52-6.99-1.9-2.62-4.09-5.85-4.71-6.57-.24-.29-.52-.33-.86-.33l-4.14-.1c-.24,0-.38.1-.38.38v.67c0,4.43,0,8.19.24,10.18.14,1.38.43,2.43,1.86,2.62.71.1,1.76.19,2.33.19.38,0,.57.14.57.38,0,.33-.33.48-.95.48-2.76,0-6.28-.14-6.99-.14-.9,0-3.9.14-5.81.14-.62,0-.95-.14-.95-.48,0-.24.19-.38.76-.38.71,0,1.28-.09,1.71-.19.95-.19,1.19-1.24,1.38-2.62.24-2,.24-5.76.24-10.14v-8.37M379.68,259.34c0,.52.1.71.43.86,1,.33,2.43.47,3.62.47,1.9,0,2.52-.19,3.38-.81,1.43-1.05,2.81-3.23,2.81-7.14,0-6.76-4.47-8.71-7.28-8.71-1.19,0-2.05.05-2.52.19-.33.1-.43.29-.43.67v14.47h-.01Z"/>
  <path class="st0" d="M409.99,255.59c0-7.23,0-8.57-.09-10.09-.09-1.62-.57-2.43-1.62-2.66-.53-.14-1.14-.19-1.71-.19-.47,0-.76-.1-.76-.47,0-.29.38-.38,1.14-.38,1.81,0,4.81.14,6.19.14,1.19,0,4-.14,5.81-.14.62,0,1,.09,1,.38,0,.38-.28.47-.76.47s-.86.05-1.43.14c-1.28.24-1.67,1.05-1.76,2.71-.09,1.52-.09,2.85-.09,10.09v8.37c0,4.62,0,8.38.19,10.42.14,1.28.48,2.14,1.9,2.33.67.1,1.71.19,2.43.19.52,0,.76.14.76.38,0,.33-.38.48-.9.48-3.14,0-6.14-.14-7.42-.14-1.09,0-4.09.14-6,.14-.62,0-.95-.14-.95-.48,0-.24.19-.38.76-.38.71,0,1.28-.09,1.71-.19.95-.19,1.24-1,1.38-2.38.24-2,.24-5.76.24-10.37v-8.37"/>
  <path class="st0" d="M433.4,265.34c-.24,0-.33.09-.43.38l-2.57,6.81c-.48,1.19-.71,2.33-.71,2.9,0,.86.43,1.47,1.9,1.47h.71c.57,0,.71.1.71.38,0,.38-.29.48-.81.48-1.52,0-3.57-.14-5.04-.14-.52,0-3.14.14-5.62.14-.62,0-.91-.1-.91-.48,0-.29.19-.38.57-.38.43,0,1.1-.05,1.48-.09,2.19-.29,3.09-1.91,4.04-4.28l11.94-29.88c.57-1.38.86-1.9,1.33-1.9.43,0,.71.43,1.19,1.52,1.14,2.62,8.76,22.03,11.8,29.27,1.81,4.28,3.19,4.95,4.19,5.19.72.14,1.43.19,2,.19.38,0,.62.05.62.38,0,.38-.43.48-2.19.48s-5.19,0-8.99-.1c-.86-.05-1.43-.05-1.43-.38,0-.29.19-.38.67-.43.33-.09.67-.52.43-1.09l-3.81-10.09c-.1-.24-.24-.33-.48-.33h-10.61M443.11,262.96c.24,0,.29-.14.24-.28l-4.28-11.76c-.05-.19-.1-.43-.24-.43s-.24.24-.29.43l-4.38,11.71c-.05.19,0,.33.19.33h8.76Z"/>
  <path class="st0" d="M470.76,263.96c0,6.09,0,9.38,1,10.23.81.71,2.04,1.05,5.76,1.05,2.52,0,4.38-.05,5.57-1.33.57-.62,1.14-1.95,1.24-2.85.05-.43.14-.71.52-.71.33,0,.38.24.38.81,0,.52-.33,4.09-.71,5.47-.28,1.05-.52,1.28-3,1.28-6.85,0-9.99-.29-13.85-.29-1.1,0-4.09.14-6,.14-.62,0-.95-.14-.95-.48,0-.24.19-.38.76-.38.71,0,1.28-.09,1.71-.19.95-.19,1.19-1.24,1.38-2.62.24-2,.24-5.76.24-10.14v-8.37c0-7.23,0-8.57-.09-10.09-.1-1.62-.48-2.38-2.05-2.71-.38-.1-.95-.14-1.57-.14-.52,0-.81-.1-.81-.43s.33-.43,1.05-.43c2.24,0,5.23.14,6.52.14,1.14,0,4.62-.14,6.47-.14.67,0,1,.09,1,.43s-.29.43-.86.43c-.52,0-1.29.05-1.86.14-1.28.24-1.66,1.05-1.76,2.71-.09,1.52-.09,2.85-.09,10.09v8.37"/>
  <path class="st1" d="M329.14,47.11C310.77,19.53,279.48,1.37,242.82,1.37c-57.57,0-104.25,46.67-104.25,104.25s46.67,104.25,104.25,104.25c43.51,0,80.42-26.87,96.03-64.69l-9.72-98.07"/>
  <path class="st2" d="M218.13,195.77c-1.56,0-2.75-.16-4.37-.39-.85-.12-.83-.74-.02-.86,1.31-.21,2.84-.96,2.74-2.05-.05-.62-.55-1.05-.48-1.57.1-.73,1.63-1,2.6-1.09.96-.09,4.52-.58,4.52-.58,2.3-.37,9.7-.24,11.67.04,2.5.35,3.05.74,3.59,2.27.5,1.4.95,1.64,1.72,1.87.78.23,1.43.28,1.87.61.38.28.06.94-.87,1.16-.83.21-5.11.48-7.64.55-2.07.06-13.79.05-15.35.05"/>
  <path class="st2" d="M273.76,202.05c-.58.45-2.01.43-3.26,1.54-.77.68-1.85.94-2.7,1.32-.51.23-2.71.42-4.6.97-1.41.41-5.14.45-6,.62-1.03.21-2.26.48-3.56.62-1.03.11-6.58.5-8.61.5-1.66,0-6.01.04-9.3-.64-2.35-.49-4-.81-6.15-1.51-.86-.28-.92-.76-.49-.92.67-.24,1.69-.35,2.02-.33.3.02,1.81-.05,1.81-.05,2.17-.07,16.16-.81,19.59-1.25,3.14-.41,4.32-.66,5.32-.73.77-.06,3.08-.55,4.18-.9.98-.32,4.1-.79,5.06-.84.92-.05,3.34-.26,4.57-.61.81-.24,3.04-.38,3.23.51s-.52,1.26-1.09,1.71"/>
  <path class="st2" d="M307.59,180.77c-1.17.78-3.23,1.36-4.4,1.84-1.17.48-2.58.8-3.51,1.05-1.01.28-4.21,2.01-5.79,2.94-1.79,1.06-1.85,1.62-4.32,1.38-2.83-.27-5.81-.27-7.12-.41s-2.99-.37-3.13-1.13c-.14-.76,1.03-1.45,2.14-1.72,1.1-.27,2-.96,1.93-1.66-.07-.69-1.59-1.45-3.24-1.66-1.66-.21-6.14-.41-6.83-.41s-1.24-.25-1.34-.71c-.17-.82.98-1.23.89-1.78-.08-.48-.82-.77-1.79-.72-.87.04-1.38.14-2.87.18-1.45.05-3.52-.29-5.65-.34-2.92-.07-9.63,1.27-17.72,1.45-4.59.1-13.38.27-15.1.34-1.72.07-9.21-.44-9.97-.43-.9.02-2.21.5-2.53.41-.4-.11-.74-.89-1.63-1.5-.97-.66-2.67-.39-5.42-.66-.93-.09-2.73-.98-3.59-1.24-.45-.14-.55-.96.09-1.24.64-.27,2.3-.55,3.03-.73s2.11-1.56-.14-1.93-5.1-.78-7.67-.83c-2.57-.04-4.19-.27-5.06-.55-.71-.23-1.44-.48-2.11-1.06-.36-.31-.13-1.06,1.15-1.2l2.12-.14c8.64,0,33.84.34,36.99.51,3.15.17,12-.3,16.34-.28,1.95,0,4.36.37,5.07.37s1.9.53,2.53,1.06c.75.63,2.16,2.48,5.88,2.83,3.86.36,9.22,0,12.09-.34,2.55-.31,7.45-.09,8.69-.09s5.32-.49,6.42-.49,3.21-.07,3.97-.07,3.17-.25,4-.25.71.62-.05.76c-.76.14-4.6.34-6.25,1.24-1.66.9-2.46,2-2.53,2.83s1.45,2.14,3.31,2.62,3.21.72,4.27.85c1.35.16,2.04-.02,2.83-.09.92-.09,4.76-.48,5.65-.42.89.07,1.03.97.35,1.43"/>
  <path class="st2" d="M338.89,145.13c-.82.47-3.41,1.61-3.85,1.8-1.75.74-2.3,1.38-6.16,3.04-3.86,1.65-11.13,4.6-20.32,5.88-9.19,1.29-21.6,2.3-25.19,2.94s-19.76,2.66-24.55,3.03c-4.78.37-18.66,0-21.88-.28-3.22-.27-25.19-.64-29.42-1.01s-11.63-1.28-13.38-1.46c-2.55-.25-4.07-.22-4.71-1.53-1.06-2.18-3.37-11.37-1.66-19.14,1.72-7.82,9.27-16.49,10.74-18.79.96-1.5,11.4-12.27,19.86-21.4,4.49-4.84,8-9.02,10.18-11.55,6.15-7.15,8.01-10.84,10.94-18.68,3.17-8.46,1.15-13.27-.72-16.11-1.81-2.76-4.58-3.27-5.74-3.68-2.56-.9-8.89.11-11.46,3.96-1.84,2.76-2.91,5.58-3.48,6.8-.54,1.16-4.15,5.7-5.62,7.17s-1.82,1.85-2.19,2.41c-.62.92-2.03,2.38-2.87,3.57-1.22,1.72-1.24,3.88-1.84,5.33-.61,1.48-2.05,5.16-3.38,8.97-1.29,3.68-2.96,7.1-3.7,8.2-.73,1.1-.82,1.67-1.65,2.32-.83.64-1.51.35-1.51.35-1.1-.18-1.52-1.73-1.71-2.65-.18-.92-.46-7.08-.55-8.55s.2-5.51.39-6.15c.18-.64.31-1.33.76-1.64,0,0-1.56-1.37-2.97-4.42-1.61-3.47-2.04-4.24-2.5-11.97-.46-7.72.18-12.32.83-15.9.64-3.59,3.77-9.47,7.26-12.96,3.49-3.49,4.2-3.02,6.25-4.32,2.02-1.29,11.54-6.66,19.86-8.18,9.73-1.78,20.47-1.09,30.63,4.92,6.69,3.95,12.7,12.7,13.86,25.52.48,5.31-.27,14.52-2.2,22.88-1.93,8.37-6.9,22.15-11.77,30.61l-.76,1.51c-8.27,14.3-10.27,16.76-15.98,25.82-1.89,3-3.35,5.74-4.08,6.79-3.03,4.32-3.35,4.65-2.93,5.77.27.73,3.95-1.56,4.69-2.39s7.81-10.94,10.39-15.63c2.58-4.69,7.08-11.49,8.37-13.79s9.38-16.82,10.48-18.48c1.1-1.66,3.17-5.53,5.1-8.19,2.06-2.83,14.41-11.55,16.71-13.12,2.3-1.56,12.32-8.37,14.43-10.3,2.11-1.93,11.58-7.35,14.16-8.83,2.57-1.47,12.28-5.03,13.61-5.7,1.14-.58,1.49-.78,1.49-.78,0,0,2.56,3.38,5.75,9.38,5.37,10.12,11.82,26.69,11.85,48.96.03,22.56-7.89,39.66-7.89,39.66"/>
  <path class="st1" d="M198.7,48.13c3.81-.4,1.2,10.22,2,12.82.8,2.61,2.4,2,3.21,5.41.81,3.41-.2,8.82-.8,10.82-.51,1.72-3.41,10.02-4.81,12.82-.55,1.09-2.81,4.61-2.81.4s-.6-8.42,0-9.82,3.61-3.21,3.81-5.21-.8-8.62-2.2-8.82-1.4,6.61-1,8.42c.4,1.8-3.41,1.6-3.41,1.6l-1.4-2s1.2.4,2-.6-1.3-5.21-1.4-8.62c-.2-7.01,3.57-16.89,6.81-17.23"/>
  <path class="st1" d="M322.6,61.04c-.27.08-3.91,2.02-4.75,2.37-.84.34-6.16,2.27-7.64,3.09-1.72.94-4.17,2.42-5.95,3.2-1.32.58-4.27,2.02-5.76,2.78-1.49.76-5.77,2.57-6.88,2.88-1.11.31-2.09,1.14-2.35.65-.19-.35-.13-.79-.13-.79.27-1.03,1.95-2.49,2.86-3.36.63-.61,1.89-1.1,2.57-1.57.74-.52,1.98-1.08,2.8-1.77.83-.7,2.39-1.59,3.8-2.43,1.41-.84,7.64-4.94,8.68-5.82,1.02-.87,2.99-1.83,4.88-2.75,1.11-.53,3.17-1.79,5.3-2.17,2.14-.38,3.01-.8,3.85-.57s1.39.61,1.92,1.26c.53.65,1.53,1.79.76,2.75-.76.95-1.21,1.46-3.97,2.25"/>
  <path class="st0" d="M28.46,332.86l1.22-2.11c.28-1.15.6-2.37.87-3.48h-.56l-3.09,3.26-1.28,1.18-5.31,4.52-.45.22-.33-.22.26-.85,5.03-4.41,4.47-5,.74-.44,2.47-.56.58.07.86.59-1.11,4.18-1.69,4.78.55.44,4.68-4.29.82-.89,2.66-3.33.86-.04.49,1.18,2.26.19.12.59-.54.52h-2.15l-3.45,2.78-5.76,4.96-2.55,2.26-1.81-.44-.53-.56,1.64-5.11h.03ZM5.51,336l-1-3.37.75-3,1.81-2.7,2.66-2.7c.49-.48,1.03-1,1.48-1.48l3.65-1.81-.51-1.33.03-.81.48-2.33,2.11-2.33,3.26-1.67,4.12-1.11h3.11l1.01.78.93.41-.35,1.59-.78.85-1.31,2.37-1.36.37-.4-.44,1.61-3.44-.82-1h-2.55l-3.49,1.52-1.9,1.55-.69,2.44.27,1.18,4.96.85-.26,1.07-.77.37-5.28.33-2.6,1.07-1.48,1.04-.44.59-1.73,2.26-1.11,4.41.08,2.3,2.08,2.26,2.03.67,1.1.07,3.41-.67,2.41-1.07,3.12-3.18.79-1.33h1.33l.46.74-.79,1.33-.55.81-1.12.7-2.7,1.85-3.16,1.74-4.75.89h-2.85l-1.74-.81-2.57-1.81v-.02Z"/>
  <path class="st0" d="M45.76,333.41l1.41-3.15-1.51-1.11-2.97-.19.34-1.3,3.14.04,2.18.67,1.14-1.63,2.42-1.96,2.83-1.37.95-.11.76.33.19,1.26-.32,1.63-.95.37-.22.63.07.22-2.86,2.15-2.85.44-1.1,1.81c-.17,1.15-.26,2.33-.39,3.48.15.19.29.48.44.67l1.33.22,2.88-.81,1.01-.3,2.26-.44-.33,1.26-3.28.78-2.88.81-3.31-.11-.92-.44.11-2.3.46-1.55h-.03ZM52,327.64l.13.3c.15,0,.32.07.47.07l1.2-.52c.17-.11.35-.3.52-.41l.33-.63.2-.74-.34-.41c-.12.04-.3.04-.42.07l-2.07,1.44-.03.81v.02Z"/>
  <path class="st0" d="M226.36,335.82l.12-1.96c-.31.07-.71.22-1.01.3l-3.26,2.11-.26-.22.22-.81,4.08-2.96,2.78-1.93,2.74-1.89c.08-.22.15-.44.18-.63l1.83-.7,2.2-.93h.63c.38-.04.91-.11,1.32-.15l1.13,1.78h2.33l.17.3-.46.74-3.13.56-3.5,6.18-3.61,2.81h-2.33l-1.48-.63-.69-1.96h0ZM229.82,336.15h1.26c.33-.19.74-.41,1.06-.56,1.04-1.48,2.19-3.18,3.23-4.7l.47-.56c.12-.48.26-1.04.38-1.55h-.59l-2.55,1-2.99,2.89c-.2.7-.45,1.48-.61,2.18l.33,1.3h.01ZM222.18,336.22l-1.05.7-.18.19-2.12,1.3c-.22.22-.5.52-.72.74l-1.64.93-.6,1.7-.99,2.07-.41,1.7-.96,1.89-2.66,4.18-1,1.48-1.38,2.18-.4.41-1.29,1.44-2.07,1.26-1.56-.59-.36-1.52.74-2.74.71-1.3c.08-.26.22-.59.26-.85l.92-1.63.49-1.3.22-.41.71-1.7.96-1.67.48-.85.66-1.04.48-.85.96-1.48,1.42-2.59.55-.59,1.64-3,1.11-2.07.6-1.07.42-.52c.16-.3.34-.67.47-1l.34-.44,1.11-2.07c-.13-.11-.26-.22-.39-.3l-1.58,1.59-.89,1.26-5.26,5.07-1.43.96-1.19.67-.17-.48.41-.67,2.02-1.37,10.31-10.81,4.94-7.03,3.69-6.03.96-.41,1.67.41-.07,1.26-2.18,5.26-.44.59-3.64,3.22-1.4,1.22-.25.78-1.71,2.37-.62,2.04-1.52,2.33-.42,1.11-.78,1.48-.59.85c-.08.26-.24.52-.32.78l-.7,1.67-.53,1.52-.03,1.04h2.04l3.41-1.89,1.07-.63.32.26-.55,1h-.04ZM204.93,357.25c.22-.19.47-.37.73-.56l.84-.37,1.48-1.67,1.05-1.96,2.07-2.74.95-2.22c.06-.11.15-.22.16-.3l.63-1.07.55-.81.26-.41,1.11-3.37.48-1.48-.69-.26-.42-.37h-.44l-2.71,2.96-.66,1.85-.71,1.3-.59.63-.48.81-1.89,3.37-.26.22-.74,1.67c-.05.3-.21.78-.26,1.07l-.18.41-.3.85-.71,1.7.72.74h.01ZM197.98,335.34l-.54.78-1.36.78-1.29,1-1.1,1-2.24,1.59-.79.93-2.28,2.22-.94,1.96-1.29,2.26-2.79,5.15-1.45,1.3-.64,2.18-2.43,3.48-1.01,1.96-3.23,2.59-1.51-.67-.94-1.59.84-5.18,6.09-7.03,1.41-1.26,2.64-2.59,2.97-2.59,1.91-3.48.46-1.55,2.55-4.59h-.59l-3.12,2.15-1.5,1.15-2.11,1.04h-1.59l-1.49-2.67.3-1.26-3.6,1.93-.5-.33.36-.78,3.24-1.81.76-.93,5.63-3.81,3.43-1h1.93l1.57,1.59,1.95-1.59.82-1.07,2.32-1.59,1.01.56.25.44-.99,1.63-3.02,2.85c-.06.15-.19.26-.26.41l-1.27,1.96-.76.93-3.1,5.85h.26l4.98-3.7,1.82-1.11.24.56v-.05ZM174.25,362.21h1.3l3.36-5.41.95-1.59.72-1.33,1.92-3.52,1.31-2.18h-.63l-2.16,1.55-4.62,5.18-.11.63-1.1.96-1.66,4.41.73,1.3h0ZM183.69,335.78l.77.89,4.48-2.92,2.73-3.52c-.41-.19-.74-.44-1.11-.63h-1.59l-3.12,1.3-1.68,2.59-.45.44-.08,1.7.05.15h0ZM177.67,335.45l-.46.74-5.1,3.29-2.56.26-1.09-1.18-.07-.63,3.86-7.22c-.11-.22-.22-.63-.3-.81l-.33-.04-1.54.78-5.77,4.37c-.68.7-1.44,1.44-2.08,2.15l-1.72,1.59h-1.59l-.02-.3.81-1.67,1.83-3.67.43-2.04-.15-.19h-.59l-1.78,1.3-5.26,3.78-.92.41-.11-.41.3-.63,4.87-3.67,3.53-2.37h1.7l.98.74.15.63-.98,3.67,2.79-2.41,5.01-3.22,1.75-.67h.41l1.88.89.23.37-2.03,4.18-1.97,3.41-.02.52.29.44h.81l3.87-2.41.69-.37.27.37-.02.02ZM144.17,333.56c-.14-.07-.35-.11-.49-.19-.53.26-1.17.74-1.65.96l-.72.7-3.83,1.33-.17-.48.38-.67,3.5-1.59,3.87-3.04,1.83-1.78,2-2.55.86-.04,1.77.67-2.22,3.55-2.78,4.44-.34.89-.23,1.52.94.15,6.86-2.37.25.44-.49.67-5.35,2.18-2.11.63-2.47-.04-.57-.56-.32-1.52,1.48-3.33v.03ZM150.76,320.53l1.23-.89,1.87-1.15.96.44.28,1.33-1.88,1.44-2.09.07-.63-.41.26-.85v.02ZM113.4,336.15l.39-.74,2.93-2.37,9.21-9.81,2.16-3.85.78-1.26,1.49-3.18,2.54-3.92,1.46-.93,3.27-2.81,1.41-.67h2.3l1.07,1.26-2.35,4.52-5.22,4.81-1.56,1.93-3.67,3.18-.66,1.44-.82,1.3-.92,1.89c-.03.19-.05.48-.07.63l-2.02,3.07-.69,2.04.65-.56,4.63-3.37,3.03-.81,1.25.26.66.26v1.44l-1.26,2.78-.5,1.81.64,2.26c.15,0,.33.04.43.07l4.03-1.85.25.44-.38.7-5.04,2.33-.83.11-.64-.37-.56-.81-.53-1.85.45-1.7.35-1.78.2-.52c-.14-.26-.27-.59-.41-.81l-.55.19-2.52.85-2.38,1.3-.92,1-.93,1.26-.23.26-.39.33-2.95,2.85h-1l-.55-.67,1.21-1.59,1.17-1.59.14-.59,2.85-5.66.76-1.15c-.12-.15-.33-.44-.49-.59l-1.35.93-.57.7-3.68,4.48-1.92,1.63-1.07.63-1.91,1.41-.17-.52v-.02ZM131.22,318.64l.67-.04,2.09-1.78,4.99-4.81,1.22-1.89.47-.96-.57-.96h-1.26l-4.88,4.81-1.03,2.26-.52,1.26-1.19,2.11h.01ZM103.95,336.63l3.22-6.52.28-.96h-.59c-.87.93-1.82,1.93-2.72,2.85l-7.22,4.44-.18-.22.21-1,4.07-2.48,8.68-7.44,1.52-1.93c.2-.3.44-.63.64-.93l1.12-1.74-.44-.63-4.46-.33-.13-.33.38-.67,6.53-.3,1.59-2.52,3.72-4.74,2.38-1.52.45.59-.24.96-1.75,1.93-1.9,4.04-.09,1.37.39.33h9.07l.09.33-.33.63h-1.33l-2.98.33h-6.44l-1.17.96-1.44.63-1.8,2.26-.26.63-1.5,2.22-1.11,2.92-1.33,2.52-1.31,3.89.17.3,1.22.22,5.45-1.7.28.3-.54.74-5.22,2.07-2.84.78-1.59-.67-.53-1.63-.02.02ZM96.04,326.45l.38.37-2.34,3.81-.62,1-2.12,3.22-.87,2.22-.61.96-1.79,3.04,4.25-2.67,3.01-2.15,2.15-1.26.2.33-.5.93-1.48,1.04c-.43.33-.94.74-1.41,1.07l-3.09,2-3.85,2.7-1.97,1.96-1.73,3.92-2.89,4.85-1.18,1.22-1.09,1.59-3.68,3.44-.63.41-3.37.63-1.21-.3.1-1.59,1.12-2.78.67-.67,4.27-5.11,8.24-7.03,3.31-5.96,1.09-3.04h-.3l-4.51,3.74-2.4.19-.41-.19-.77-1.3,1.57-3.22,2.55-3.33.55-1h-.48l-3,1.89-1.99,1.41-.29.37-4.95,3.07-.34-.15.5-.93,2.41-1.7,5.14-3.52,2.52-1.93,2.62-.59.28.11.61,1.18-.19.67-.76.93-1.52,2.3-1.72,2.81v.93l.17.19,1.05-.26,5.03-4.41,2.11-2.92,1.25-1.22.31-.93,2.62-.37-.02.03ZM71.35,358.81v.56l1.07.11,2.52-1.93,3.59-4.18,1.5-2.85.97-1.3,1.5-2.63h-.56l-2.15,1.7-4.31,4.52-2.98,3.26-.55,1.63s-.6,1.11-.6,1.11ZM64.87,336.34l2.11-4.81,1.41-2.74v-.56l-.59-.7-.81.59-1.92,2.48-3.42,2.41c-.29.19-.52.41-.77.59l-1.37,1.07-4.08,1.74-.22-.41.28-.74,5.48-3.18,3.59-3.15,2.15-4.41c.09-.74.07-1.67.13-2.41l.45-.26,1.59.22.93.41-.45,1.11-.09,1.33,3.46,1.59-.24.96-.67.63-1.03,2.48-.62.59-1.63,3.15v2.37l.25.22.98-.11,1.73-.37c.9-.48,1.94-.93,2.87-1.37l.19.37-.35.74-5.39,2.44-2.3.26-1.15-.63-.48-1.93-.02.03Z"/>
  <path class="st0" d="M246.07,336.15l3.57-6.18,1.03-1.22-1.44-1.07-.19-1.04-.42-.37-1.74.81-3.48,1.67-2.52.41-.29-.44.56-1.07,4.48-1.48,3.38-1.55.47-1.63,1.44-1.89h1.48l.69.93-.39.93c-.16.48-.29,1.04-.42,1.55l1.15,2.11,1.2-.48h.96l-.35,1.33-.47.37-.4.19-3.1,3.7-2.45,5.07-.28,2.04c.11,0,.29.04.44.04l7.2-4.07.17.74-.57.74-3.61,2c-.76.56-1.55,1-2.31,1.55l-1.72.11-1.55.63-1.42-.33-.03-1.3v-1.07l.93-1.7v-.03Z"/>
  <path class="st0" d="M292.99,335.82l.12-1.96c-.31.07-.71.22-1.01.3l-3.26,2.11-.26-.22.22-.81,4.08-2.96,2.78-1.93,2.74-1.89c.08-.22.15-.44.18-.63l1.83-.7,2.2-.93h.63c.38-.04.91-.11,1.32-.15l1.13,1.78h2.33l.17.3-.46.74-3.13.56-3.5,6.18-3.61,2.81h-2.33l-1.48-.63-.69-1.96h0ZM296.45,336.15h1.26c.33-.19.74-.41,1.06-.56,1.04-1.48,2.19-3.18,3.23-4.7l.47-.56c.12-.48.26-1.04.39-1.55h-.59l-2.55,1-2.99,2.89c-.2.7-.45,1.48-.61,2.18l.33,1.3h0ZM287.79,326.45l.38.37-2.34,3.81-.62,1-2.12,3.22-.87,2.22-.61.96-1.79,3.04,4.25-2.67,3.01-2.15,2.15-1.26.2.33-.5.93-1.48,1.04c-.43.33-.94.74-1.41,1.07l-3.09,2-3.85,2.7-1.97,1.96-1.73,3.92-2.89,4.85-1.18,1.22-1.09,1.59-3.68,3.44-.63.41-3.37.63-1.21-.3.1-1.59,1.12-2.78.67-.67,4.27-5.11,8.24-7.03,3.31-5.96,1.09-3.04h-.3l-4.51,3.74-2.4.19-.41-.19-.77-1.3,1.57-3.22,2.55-3.33.55-1h-.48l-3,1.89-1.99,1.41-.29.37-4.95,3.07-.34-.15.5-.93,2.41-1.7,5.14-3.52,2.52-1.93,2.62-.59.28.11.61,1.18-.19.67-.76.93-1.52,2.3-1.72,2.81v.93l.17.19,1.05-.26,5.03-4.41,2.11-2.92,1.25-1.22.31-.93,2.62-.37-.02.03ZM263.1,358.81v.56l1.07.11,2.52-1.93,3.59-4.18,1.5-2.85.97-1.3,1.5-2.63h-.56l-2.15,1.7-4.31,4.52-2.98,3.26-.55,1.63-.6,1.11Z"/>
  <path class="st0" d="M326.4,336.15l-1.47.33-.69.33-2.38,1.52-2.21-.3-.96-1.3.71-4.04c-.35.3-.77.59-1.16.89-.14.19-.35.52-.5.74l-1.64,1.55-.66,1-1.83.93-2.38,1.93h-1.3l-.9-.33.3-2.52,2.12-5.52,1.97-2.55-.24-.33-5.8.56-.09-.78.41-.44,3.83-.3,4.28-.33.48.63-1.87,3.26c-.12.48-.26,1.07-.39,1.59l-.71,1.3-.07.63-.66,1.22.8.48,5.53-5.11,3.7-3.37,1.47-1.85,1.89-.22.41.22-.39,1.59-2.59,2.3c-.05.26-.18.59-.23.89l-.54.96-1.16,4.29.91.74,3.55-1.67.71.41-.27.67h.02Z"/>
  <path class="st0" d="M436.09,335.26l3.24-1.59,2.26-2.33c.27-.26.52-.63.79-.89l4.68-3.89,3.28-6.4,5.5-9.18,3.25-2.48,3.04-1.3h.81l.52,1.26.48.63-.64,1.96-6.15,7.81-1.8,1.63-4.63,4.85-.75,1.33-2.03,2.48c-.02.11-.08.26-.1.33l-.58.96-.84,1.59-.65.96c-.07.41-.46,2.41-.56,2.78l.32.48,5.43-1.18.2.11-.3.85-6.1,2.26-1.76.33-.6-1,1.13-3.67,1.58-4.11h-.26l-3.93,3.81-2.79,1.74-2.4,1.04-.15-.22.5-.96h0ZM451.36,323.23l5.51-5.66,1.46-1.55,3.09-4.07.56-1.52-.48-.63h-.67l-1.68.93-.85.63-1.76,1.59-3.28,6-1.37,2.52-.87,1.55.33.22h.01ZM426.58,333.56c-.14-.07-.35-.11-.49-.19-.53.26-1.17.74-1.65.96l-.72.7-3.83,1.33-.17-.48.38-.67,3.5-1.59,3.87-3.04,1.83-1.78,2-2.55.86-.04,1.77.67-2.22,3.55-2.78,4.44-.34.89-.23,1.52.94.15,6.86-2.37.25.44-.49.67-5.35,2.18-2.11.63-2.47-.04-.57-.56-.32-1.52,1.48-3.33v.03ZM433.17,320.53l1.23-.89,1.87-1.15.96.44.28,1.33-1.88,1.44-2.09.07-.63-.41.26-.85v.02ZM394.78,336.34l.48-.63,3.05-5.74-.03-1.11-.39-.07-.81.37-3.17,2.67-6.5,4.55-.06-1.15,6.68-4.92,2.96-2.74.71-.48,2.58-.33.71.15.49.78-.83,1.96-1.8,3.48h.59l.96-1.26,4.15-2.55,1.83-.7h1.63l.75,1-.52,1.93.98-.3c.22-.22.52-.41.73-.59l3.99-2.04h2.63l.39.7-.46,1.96-1.09,2.81-.62,1.22-.55,1.22.32.7.86-.04,5.04-2.11.21.3-.35.7-6.21,3.07h-1.63l-1.12-1-.08-.59,1.4-2.89,1.71-3.41.03-1.04-.25-.26h-.89l-1.88,1-2.19,1.3-5.89,5.7-1.37.22-.33-.22.26-1.04,3.96-5.03.36-1.22-.24-.33h-.96l-6.05,4.74-2.36,2.89-1.82.67-.91-.3-.19-.41,1.09-1.59h.02ZM387.62,336.19l-3.96,2.07-1.15.22-1.62-.67-.73-.93.38-1.74-1.37,1.07-.85.63-1.47.78-2.48.19-.45-.37-.56-1.22.15-.85.38-.48h-.37l-3.99,1.41h-.41l.28-.96,6.14-3.11,1.71-2.37,5.28-3.29h2.15l2.05.56.84-.56,1.07.67-1.47,1.63-2.08,3.18-1.19,1.93-.95,2.26.17.48.57.15,4.26-1.93.05.37-.38.89h0ZM375.58,336.22h.93l.8-.33,3.98-3.26,1.53-2.59.76-.93.47-.59c-.08-.15-.16-.33-.21-.48l-.62-.04c-.38.04-.77.19-1.15.22l-1.62,1-1.21.78-3.62,3.96c-.08.48-.16,1.11-.21,1.63l.19.63h-.02ZM369.33,336.22l-1.05.7-.18.19-2.12,1.3c-.22.22-.5.52-.72.74l-1.64.93-.6,1.7-.99,2.07-.41,1.7-.96,1.89-2.66,4.18-1,1.48-1.38,2.18-.4.41-1.29,1.44-2.07,1.26-1.56-.59-.36-1.52.74-2.74.71-1.3c.08-.26.22-.59.26-.85l.92-1.63.49-1.3.22-.41.71-1.7.96-1.67.48-.85.66-1.04.48-.85.96-1.48,1.42-2.59.55-.59,1.64-3,1.11-2.07.6-1.07.42-.52c.16-.3.34-.67.47-1l.34-.44,1.11-2.07c-.13-.11-.26-.22-.39-.3l-1.58,1.59-.89,1.26-5.26,5.07-1.43.96-1.19.67-.17-.48.41-.67,2.02-1.37,10.31-10.81,4.94-7.03,3.69-6.03.96-.41,1.67.41-.07,1.26-2.18,5.26-.44.59-3.64,3.22-1.4,1.22-.25.78-1.71,2.37-.62,2.04-1.52,2.33-.42,1.11-.78,1.48-.59.85c-.08.26-.24.52-.32.78l-.7,1.67-.53,1.52-.03,1.04h2.04l3.41-1.89,1.07-.63.32.26-.55,1h-.04ZM352.07,357.25c.22-.19.47-.37.73-.56l.84-.37,1.48-1.67,1.05-1.96,2.07-2.74.95-2.22c.06-.11.15-.22.16-.3l.63-1.07.55-.81.26-.41,1.11-3.37.48-1.48-.69-.26-.42-.37h-.44l-2.71,2.96-.66,1.85-.71,1.3-.59.63-.48.81-1.89,3.37-.26.22-.74,1.67c-.05.3-.21.78-.26,1.07l-.18.41-.3.85-.71,1.7.72.74h0ZM335.36,336.34l2.11-4.81,1.41-2.74v-.56l-.59-.7-.81.59-1.92,2.48-3.42,2.41c-.29.19-.52.41-.77.59l-1.37,1.07-4.08,1.74-.22-.41.28-.74,5.48-3.18,3.59-3.15,2.15-4.41c.09-.74.07-1.67.13-2.41l.45-.26,1.59.22.93.41-.45,1.11-.09,1.33,3.46,1.59-.24.96-.67.63-1.03,2.48-.62.59-1.63,3.15v2.37l.25.22.98-.11,1.73-.37c.9-.48,1.94-.93,2.87-1.37l.19.37-.35.74-5.39,2.44-2.3.26-1.15-.63-.48-1.93-.02.03Z"/>
  <path class="st0" d="M436.81,358.47l-1.14-1.96.74-2.52,2.17-2.85,3.48-2.96,3.94-2,1.57-.48c.36-.15,1.12-.48,1.49-.67l3.44-.63c1.47-.37,3.1-.78,4.61-1.15l5.26-.67c.16-.3.46-.7.62-1,.28-.56.62-1.18.9-1.74l1.33-2.52c.08-.22.19-.44.27-.7l1.08-1.74c.18-.41.42-.89.64-1.33l1.13-1.78c-.01-.15.03-.37.02-.52h-.63c-.47.37-.99.78-1.45,1.11l-3.23,2.78-2.06,1.59-3.41,1.89h-1.41l-.64-1.63,1.08-3,1.83-2.41.82-.89c0-.19,0-.41-.01-.56l-.03-.48h-.33c-1.56,1.48-3.19,3-4.79,4.48l-3.8,2.67.04-1.48,1.84-1.18c1.11-1.04,2.34-2.15,3.49-3.22l.81-.41c1.25-1.18,2.57-2.41,3.82-3.59h1.41l1.54.7v1.18l-1.79,2.44-1.21,1.59-1.53,2.78c0,.26.01.56,0,.81h.78c1.16-.89,2.44-1.85,3.62-2.7l4.97-4.26.66-.37.82-.44c1.27-.89,2.58-1.81,3.85-2.7l.68.74v1.07l-1.13,1.74-1.58,2.48-1.08,1.11c-.34.67-.77,1.41-1.11,2.11l-.4.59c-.15.41-.35.93-.49,1.3l-1.15,1.3c-.22.59-.46,1.15-.67,1.7l-1.17,1.59c0,.26.03.48.02.7h10.44l2.44.85-.04,1.26-.7,2.92-1.54,1.18-2.3.85h-1.26l.05-2.41,1.04-.22.7.44h.96c.32-.33.76-.74,1.08-1.07l-.04-2.48c-2.16-.15-4.35-.33-6.47-.48-1.12.04-2.25.15-3.36.19h-1.52c-.37.22-.71.48-1.09.74-.31.48-.63,1.07-.95,1.59l-1.07,1.22-.8,1.59-.83,1.37-1.85,2.3-4.97,4.07-5.98,2.85-2.9.7h-4l-1.62-.26-1.98-1.15.03.04ZM444.16,358.77c.93-.26,2.14-.59,3.04-.85.81-.37,1.69-.78,2.49-1.11,1.06-.74,2.19-1.48,3.24-2.22,1.48-1.48,3.22-3.15,4.7-4.63,1.25-1.85,2.56-3.81,3.86-5.7,0-.19-.02-.33.02-.52h-1.11c-3.27.7-6.66,1.44-9.93,2.15-1.27.48-2.66,1-3.92,1.44-1.45.67-3.03,1.44-4.49,2.15-1.21,1.22-2.47,2.48-3.69,3.74-.28.56-.62,1.18-.9,1.74v2.55c.85.41,1.74.85,2.59,1.26h4.11,0Z"/>
  <path class="st0" d="M479.95,324.57v3.8h.9v-3.8h1.49v-.76h-3.89v.76h1.5ZM483.12,323.81v4.56h.84v-3.68l1.28,3.68h.73l1.25-3.68v3.68h.84v-4.56h-1.31l-1.15,3.26-1.16-3.26h-1.32Z"/>
</svg>