<?xml version="1.0" encoding="UTF-8"?>
<svg id="Layer_1" xmlns="http://www.w3.org/2000/svg" width="489.89" height="365.88" version="1.1" viewBox="0 0 489.89 365.88">
  <!-- Generator: Adobe Illustrator 29.1.0, SVG Export Plug-In . SVG Version: 2.1.0 Build 142)  -->
  <defs>
    <style>
      .st0 {
        fill: #fff;
      }

      .st1 {
        fill: #006451;
      }
    </style>
  </defs>
  <g>
    <path class="st0" d="M9.43,272.01c-4.65-4.08-5.88-9.39-5.88-13.99,0-3.22,1-8.82,5.55-12.99,3.41-3.13,7.92-5.02,14.98-5.02,2.94,0,4.69.19,6.87.47,1.8.24,3.32.66,4.74.81.52.05.71.28.71.57,0,.38-.14.95-.24,2.61-.09,1.57-.05,4.17-.14,5.12-.05.71-.14,1.09-.57,1.09-.38,0-.47-.38-.47-1.04-.05-1.47-.66-3.13-1.85-4.36-1.56-1.66-5.26-2.94-9.63-2.94-4.12,0-6.83,1.04-8.91,2.94-3.46,3.18-4.36,7.68-4.36,12.28,0,11.28,8.58,16.88,14.94,16.88,4.22,0,6.78-.47,8.68-2.66.81-.9,1.42-2.28,1.61-3.13.14-.76.24-.95.62-.95.33,0,.43.33.43.71,0,.57-.57,4.69-1.04,6.3-.24.81-.43,1.04-1.23,1.38-1.9.76-5.5,1.09-8.53,1.09-6.5,0-11.95-1.42-16.26-5.17h-.02Z"/>
    <path class="st0" d="M46.65,254.42c0-7.21,0-8.53-.1-10.05-.1-1.61-.47-2.37-2.04-2.7-.38-.1-1.19-.14-1.85-.14-.52,0-.81-.1-.81-.43s.33-.43,1.04-.43c2.51,0,5.5.14,6.83.14,1.52,0,10.95,0,11.85-.05.9-.09,1.66-.19,2.04-.28.24-.05.52-.19.76-.19s.28.19.28.43c0,.33-.24.9-.38,3.08-.05.47-.14,2.56-.24,3.13-.05.24-.14.52-.47.52s-.43-.24-.43-.66c0-.33-.05-1.14-.28-1.71-.33-.85-.81-1.42-3.18-1.71-.81-.1-5.78-.19-6.73-.19-.24,0-.33.14-.33.47v11.99c0,.33.05.52.33.52,1.04,0,6.5,0,7.59-.1,1.14-.1,1.85-.24,2.28-.71.33-.38.52-.62.76-.62.19,0,.33.1.33.38s-.24,1.04-.38,3.46c-.09.95-.19,2.84-.19,3.18,0,.38,0,.9-.43.9-.33,0-.43-.19-.43-.43-.05-.47-.05-1.09-.19-1.71-.24-.95-.9-1.66-2.65-1.85-.9-.09-5.6-.14-6.73-.14-.24,0-.28.19-.28.47v3.75c0,1.61-.05,5.97,0,7.35.1,3.27.85,3.98,5.69,3.98,1.23,0,3.22,0,4.46-.57,1.23-.57,1.8-1.56,2.13-3.51.09-.52.19-.71.52-.71.38,0,.38.38.38.85,0,1.09-.38,4.31-.62,5.26-.33,1.23-.76,1.23-2.56,1.23-7.16,0-10.34-.28-13.13-.28-1.09,0-4.08.14-5.97.14-.62,0-.95-.14-.95-.47,0-.24.19-.38.76-.38.71,0,1.28-.09,1.71-.19.95-.19,1.19-1.23,1.37-2.61.24-1.99.24-5.74.24-10.1v-8.34.03Z"/>
    <path class="st0" d="M76.62,254.42c0-7.21,0-8.53-.1-10.05-.09-1.61-.47-2.37-2.04-2.7-.38-.1-1.19-.14-1.85-.14-.52,0-.81-.1-.81-.43s.33-.43,1.04-.43c2.51,0,5.5.14,6.83.14,1.47,0,4.46-.14,7.3-.14,5.93,0,13.84,0,19.01,5.4,2.37,2.47,4.6,6.4,4.6,12.04,0,5.97-2.51,10.53-5.17,13.23-2.18,2.23-7.11,5.6-15.88,5.6-3.46,0-7.73-.57-10.1-.57-1.09,0-4.08.14-5.97.14-.62,0-.95-.14-.95-.47,0-.24.19-.38.76-.38.71,0,1.28-.09,1.71-.19.95-.19,1.19-1.23,1.38-2.61.24-1.99.24-5.74.24-10.1v-8.34h0ZM82.54,259.64c0,5.03.05,8.68.09,9.58.05,1.19.14,3.08.52,3.6.62.9,2.47,1.9,6.21,1.9,4.84,0,8.06-.95,10.91-3.41,3.03-2.61,3.98-6.92,3.98-11.81,0-6.02-2.51-9.91-4.55-11.85-4.36-4.17-9.77-4.74-13.47-4.74-.95,0-2.7.14-3.08.33-.43.19-.57.43-.57.95-.05,1.61-.05,5.74-.05,9.48v5.97h.01Z"/>
    <path class="st0" d="M122.89,264.14c-.24,0-.33.09-.43.38l-2.56,6.78c-.47,1.19-.71,2.32-.71,2.89,0,.85.43,1.47,1.9,1.47h.71c.57,0,.71.1.71.38,0,.38-.28.47-.81.47-1.52,0-3.56-.14-5.03-.14-.52,0-3.13.14-5.59.14-.62,0-.9-.1-.9-.47,0-.28.19-.38.57-.38.43,0,1.09-.05,1.47-.09,2.18-.29,3.08-1.9,4.03-4.27l11.9-29.78c.57-1.37.85-1.9,1.33-1.9.43,0,.71.43,1.19,1.52,1.14,2.61,8.72,21.95,11.76,29.16,1.8,4.27,3.18,4.93,4.17,5.17.71.14,1.42.19,1.99.19.38,0,.62.05.62.38,0,.38-.43.47-2.18.47s-5.17,0-8.96-.1c-.85-.05-1.42-.05-1.42-.38,0-.28.19-.38.66-.43.33-.1.66-.52.43-1.09l-3.79-10.05c-.09-.24-.24-.33-.47-.33h-10.59ZM132.56,261.77c.24,0,.28-.14.24-.28l-4.27-11.71c-.05-.19-.1-.43-.24-.43s-.24.24-.28.43l-4.36,11.66c-.05.19,0,.33.19.33h8.72Z"/>
    <path class="st0" d="M154.18,254.42c0-7.21,0-8.53-.09-10.05-.09-1.61-.47-2.37-2.04-2.7-.38-.1-1.19-.14-1.85-.14-.52,0-.81-.1-.81-.43s.33-.43,1.04-.43c2.51,0,5.5.14,6.5.14,1.61,0,5.22-.14,6.69-.14,2.99,0,6.16.28,8.72,2.04,1.33.9,3.22,3.32,3.22,6.5,0,3.51-1.47,6.73-6.26,10.62,4.22,5.31,7.49,9.53,10.29,12.47,2.66,2.75,4.6,3.08,5.31,3.23.52.1.95.14,1.33.14s.57.14.57.38c0,.38-.33.47-.9.47h-4.5c-2.65,0-3.84-.24-5.07-.9-2.04-1.09-3.84-3.32-6.5-6.97-1.9-2.61-4.08-5.83-4.69-6.54-.24-.28-.52-.33-.85-.33l-4.12-.1c-.24,0-.38.1-.38.38v.66c0,4.41,0,8.16.24,10.15.14,1.38.43,2.42,1.85,2.61.71.1,1.75.19,2.32.19.38,0,.57.14.57.38,0,.33-.33.47-.95.47-2.75,0-6.26-.14-6.97-.14-.9,0-3.89.14-5.78.14-.62,0-.95-.14-.95-.47,0-.24.19-.38.76-.38.71,0,1.28-.09,1.71-.19.95-.19,1.19-1.23,1.37-2.61.24-1.99.24-5.74.24-10.1v-8.34h-.02ZM159.78,258.17c0,.52.1.71.43.85,1,.33,2.42.47,3.6.47,1.9,0,2.51-.19,3.37-.81,1.42-1.04,2.8-3.22,2.8-7.11,0-6.73-4.46-8.68-7.25-8.68-1.19,0-2.04.05-2.51.19-.33.1-.43.29-.43.66v14.43Z"/>
    <path class="st0" d="M205.96,240.86c.14-.81.43-1.23.81-1.23s.66.24,1.28,1.47l12.94,26.74,12.9-27.07c.33-.76.62-1.14,1.04-1.14s.71.47.85,1.47l4.31,29.3c.43,2.99.9,4.36,2.32,4.79,1.37.43,2.32.47,2.94.47.43,0,.76.05.76.33,0,.38-.57.52-1.23.52-1.19,0-7.73-.14-9.62-.29-1.09-.1-1.37-.24-1.37-.52,0-.24.19-.38.52-.52.28-.1.43-.71.24-2.04l-2.84-20.86h-.19l-10.34,21.53c-1.09,2.23-1.33,2.66-1.75,2.66s-.9-.95-1.66-2.37c-1.14-2.18-4.88-9.44-5.45-10.76-.43-1-3.27-6.97-4.93-10.53h-.19l-2.47,18.87c-.1.85-.14,1.47-.14,2.23,0,.9.62,1.33,1.42,1.52.85.19,1.52.24,1.99.24.38,0,.71.1.71.33,0,.43-.43.52-1.14.52-1.99,0-4.13-.14-4.98-.14-.9,0-3.18.14-4.69.14-.47,0-.85-.1-.85-.52,0-.24.28-.33.76-.33.38,0,.71,0,1.42-.14,1.33-.28,1.71-2.13,1.94-3.75l4.69-30.91h0Z"/>
    <path class="st0" d="M253.66,254.42c0-7.21,0-8.53-.1-10.05-.1-1.61-.47-2.37-2.04-2.7-.38-.1-1.19-.14-1.85-.14-.52,0-.81-.1-.81-.43s.33-.43,1.04-.43c2.51,0,5.5.14,6.83.14,1.52,0,10.95,0,11.85-.05.9-.09,1.66-.19,2.04-.28.24-.05.52-.19.76-.19s.29.19.29.43c0,.33-.24.9-.38,3.08-.05.47-.14,2.56-.24,3.13-.05.24-.14.52-.47.52s-.43-.24-.43-.66c0-.33-.05-1.14-.28-1.71-.33-.85-.81-1.42-3.18-1.71-.81-.1-5.78-.19-6.73-.19-.24,0-.33.14-.33.47v11.99c0,.33.05.52.33.52,1.04,0,6.5,0,7.59-.1,1.14-.1,1.85-.24,2.28-.71.33-.38.52-.62.76-.62.19,0,.33.1.33.38s-.24,1.04-.38,3.46c-.1.95-.19,2.84-.19,3.18,0,.38,0,.9-.43.9-.33,0-.43-.19-.43-.43-.05-.47-.05-1.09-.19-1.71-.24-.95-.9-1.66-2.66-1.85-.9-.09-5.59-.14-6.73-.14-.24,0-.29.19-.29.47v3.75c0,1.61-.05,5.97,0,7.35.1,3.27.85,3.98,5.69,3.98,1.23,0,3.23,0,4.46-.57,1.23-.57,1.8-1.56,2.13-3.51.1-.52.19-.71.52-.71.38,0,.38.38.38.85,0,1.09-.38,4.31-.62,5.26-.33,1.23-.76,1.23-2.56,1.23-7.16,0-10.34-.28-13.13-.28-1.09,0-4.08.14-5.97.14-.62,0-.95-.14-.95-.47,0-.24.19-.38.76-.38.71,0,1.28-.09,1.71-.19.95-.19,1.19-1.23,1.38-2.61.24-1.99.24-5.74.24-10.1v-8.34.03Z"/>
    <path class="st0" d="M285.38,240.86c.14-.81.43-1.23.81-1.23s.66.24,1.28,1.47l12.94,26.74,12.9-27.07c.33-.76.62-1.14,1.04-1.14s.71.47.85,1.47l4.31,29.3c.43,2.99.9,4.36,2.32,4.79,1.38.43,2.32.47,2.94.47.43,0,.76.05.76.33,0,.38-.57.52-1.23.52-1.19,0-7.73-.14-9.62-.29-1.09-.1-1.37-.24-1.37-.52,0-.24.19-.38.52-.52.29-.1.43-.71.24-2.04l-2.84-20.86h-.19l-10.34,21.53c-1.09,2.23-1.33,2.66-1.75,2.66s-.9-.95-1.66-2.37c-1.14-2.18-4.88-9.44-5.45-10.76-.43-1-3.27-6.97-4.93-10.53h-.19l-2.47,18.87c-.09.85-.14,1.47-.14,2.23,0,.9.62,1.33,1.42,1.52.85.19,1.52.24,1.99.24.38,0,.71.1.71.33,0,.43-.43.52-1.14.52-1.99,0-4.13-.14-4.98-.14-.9,0-3.18.14-4.69.14-.47,0-.85-.1-.85-.52,0-.24.28-.33.76-.33.38,0,.71,0,1.42-.14,1.33-.28,1.71-2.13,1.94-3.75l4.69-30.91h0Z"/>
    <path class="st0" d="M325.77,258.6c0-8.11,5.36-18.59,19.58-18.59,11.81,0,19.16,6.87,19.16,17.73s-7.59,19.44-19.63,19.44c-13.61,0-19.11-10.19-19.11-18.58h0ZM357.87,259.5c0-10.62-6.12-17.21-13.89-17.21-5.45,0-11.66,3.03-11.66,14.84,0,9.86,5.45,17.69,14.56,17.69,3.32,0,11-1.61,11-15.31h0Z"/>
    <path class="st0" d="M374.43,254.42c0-7.21,0-8.53-.1-10.05-.1-1.61-.47-2.37-2.04-2.7-.38-.1-1.19-.14-1.85-.14-.52,0-.81-.1-.81-.43s.33-.43,1.04-.43c2.51,0,5.5.14,6.5.14,1.61,0,5.21-.14,6.68-.14,2.99,0,6.16.28,8.72,2.04,1.33.9,3.22,3.32,3.22,6.5,0,3.51-1.47,6.73-6.26,10.62,4.22,5.31,7.49,9.53,10.29,12.47,2.65,2.75,4.6,3.08,5.31,3.23.52.1.95.14,1.33.14s.57.14.57.38c0,.38-.33.47-.9.47h-4.5c-2.66,0-3.84-.24-5.07-.9-2.04-1.09-3.84-3.32-6.49-6.97-1.9-2.61-4.08-5.83-4.69-6.54-.24-.28-.52-.33-.85-.33l-4.12-.1c-.24,0-.38.1-.38.38v.66c0,4.41,0,8.16.24,10.15.14,1.38.43,2.42,1.85,2.61.71.1,1.75.19,2.32.19.38,0,.57.14.57.38,0,.33-.33.47-.95.47-2.75,0-6.26-.14-6.97-.14-.9,0-3.89.14-5.78.14-.62,0-.95-.14-.95-.47,0-.24.19-.38.76-.38.71,0,1.28-.09,1.71-.19.95-.19,1.19-1.23,1.38-2.61.24-1.99.24-5.74.24-10.1v-8.34h-.02ZM380.02,258.17c0,.52.1.71.43.85.99.33,2.42.47,3.6.47,1.9,0,2.51-.19,3.37-.81,1.42-1.04,2.8-3.22,2.8-7.11,0-6.73-4.46-8.68-7.25-8.68-1.19,0-2.04.05-2.51.19-.33.1-.43.29-.43.66v14.43Z"/>
    <path class="st0" d="M410.22,254.42c0-7.21,0-8.53-.1-10.05-.09-1.61-.57-2.42-1.61-2.66-.52-.14-1.14-.19-1.71-.19-.47,0-.76-.1-.76-.47,0-.29.38-.38,1.14-.38,1.8,0,4.79.14,6.16.14,1.19,0,3.98-.14,5.79-.14.62,0,.99.09.99.38,0,.38-.28.47-.76.47s-.85.05-1.42.14c-1.28.24-1.66,1.04-1.75,2.7-.1,1.52-.1,2.84-.1,10.05v8.34c0,4.6,0,8.34.19,10.38.14,1.28.47,2.13,1.9,2.32.66.1,1.71.19,2.42.19.52,0,.76.14.76.38,0,.33-.38.47-.9.47-3.13,0-6.12-.14-7.4-.14-1.09,0-4.08.14-5.97.14-.62,0-.95-.14-.95-.47,0-.24.19-.38.76-.38.71,0,1.28-.09,1.71-.19.95-.19,1.23-1,1.37-2.37.24-1.99.24-5.74.24-10.34v-8.34.02Z"/>
    <path class="st0" d="M433.55,264.14c-.24,0-.33.09-.43.38l-2.56,6.78c-.47,1.19-.71,2.32-.71,2.89,0,.85.43,1.47,1.9,1.47h.71c.57,0,.71.1.71.38,0,.38-.29.47-.81.47-1.52,0-3.56-.14-5.03-.14-.52,0-3.13.14-5.59.14-.62,0-.9-.1-.9-.47,0-.28.19-.38.57-.38.43,0,1.09-.05,1.47-.09,2.18-.29,3.08-1.9,4.03-4.27l11.9-29.78c.57-1.37.85-1.9,1.33-1.9.43,0,.71.43,1.19,1.52,1.14,2.61,8.72,21.95,11.76,29.16,1.8,4.27,3.18,4.93,4.17,5.17.71.14,1.42.19,1.99.19.38,0,.62.05.62.38,0,.38-.43.47-2.18.47s-5.17,0-8.96-.1c-.85-.05-1.42-.05-1.42-.38,0-.28.19-.38.66-.43.33-.1.66-.52.43-1.09l-3.79-10.05c-.1-.24-.24-.33-.47-.33h-10.59ZM443.22,261.77c.24,0,.28-.14.24-.28l-4.27-11.71c-.05-.19-.1-.43-.24-.43s-.24.24-.28.43l-4.36,11.66c-.05.19,0,.33.19.33h8.72,0Z"/>
    <path class="st0" d="M470.77,262.77c0,6.07,0,9.34,1,10.19.81.71,2.04,1.04,5.74,1.04,2.51,0,4.36-.05,5.55-1.33.57-.62,1.14-1.94,1.23-2.84.05-.43.14-.71.52-.71.33,0,.38.24.38.81,0,.52-.33,4.08-.71,5.45-.28,1.04-.52,1.28-2.99,1.28-6.83,0-9.96-.28-13.8-.28-1.09,0-4.08.14-5.97.14-.62,0-.95-.14-.95-.47,0-.24.19-.38.76-.38.71,0,1.28-.09,1.71-.19.95-.19,1.19-1.23,1.38-2.61.24-1.99.24-5.74.24-10.1v-8.34c0-7.21,0-8.53-.1-10.05-.1-1.61-.47-2.37-2.04-2.7-.38-.1-.95-.14-1.57-.14-.52,0-.81-.1-.81-.43s.33-.43,1.04-.43c2.23,0,5.22.14,6.49.14,1.14,0,4.6-.14,6.45-.14.66,0,1,.09,1,.43s-.29.43-.85.43c-.52,0-1.28.05-1.85.14-1.28.24-1.66,1.04-1.75,2.7-.1,1.52-.1,2.84-.1,10.05v8.34h0Z"/>
  </g>
  <g>
    <path class="st1" d="M347.01,104.99"/>
    <path class="st1" d="M329.66,46.7C311.37,19.23,280.19,1.13,243.66,1.13c-57.36,0-103.87,46.5-103.87,103.87s46.5,103.87,103.87,103.87c43.35,0,80.13-26.77,95.68-64.45l-9.68-97.71h0Z"/>
    <path class="st0" d="M219.06,194.83c-1.56,0-2.74-.16-4.35-.38-.85-.12-.82-.73-.02-.86,1.3-.2,2.83-.96,2.73-2.05-.05-.61-.55-1.04-.48-1.57.1-.73,1.62-.99,2.59-1.09.96-.09,4.51-.58,4.51-.58,2.3-.37,9.67-.24,11.63.04,2.49.35,3.03.74,3.58,2.26.5,1.39.94,1.63,1.72,1.86s1.42.28,1.87.61c.38.28.06.93-.87,1.16-.83.2-5.09.47-7.61.54-2.06.06-13.74.05-15.3.05h0Z"/>
    <path class="st0" d="M274.49,201.08c-.57.45-2,.43-3.25,1.53-.77.68-1.84.93-2.69,1.32-.51.23-2.7.42-4.58.97-1.41.41-5.12.45-5.97.62-1.02.2-2.25.48-3.54.61-1.02.11-6.56.5-8.58.5-1.66,0-5.98.04-9.27-.64-2.34-.48-3.99-.8-6.13-1.5-.85-.28-.92-.76-.48-.92.67-.24,1.68-.35,2.01-.33.3.02,1.8-.05,1.8-.05,2.17-.06,16.1-.81,19.52-1.25,3.13-.41,4.31-.65,5.3-.73.76-.06,3.07-.55,4.17-.9.98-.32,4.08-.79,5.04-.84.92-.05,3.33-.25,4.55-.61.81-.23,3.03-.38,3.22.51s-.52,1.26-1.09,1.7h-.03Z"/>
    <path class="st0" d="M308.19,179.88c-1.17.78-3.21,1.35-4.38,1.84-1.17.48-2.57.8-3.49,1.05-1.01.28-4.19,2-5.77,2.93-1.79,1.05-1.84,1.61-4.31,1.37-2.82-.27-5.79-.27-7.1-.41s-2.98-.37-3.11-1.12c-.14-.76,1.03-1.44,2.13-1.72,1.1-.27,1.99-.96,1.92-1.65-.07-.69-1.58-1.44-3.23-1.65-1.65-.2-6.11-.41-6.8-.41s-1.24-.25-1.33-.71c-.17-.82.98-1.22.89-1.77-.08-.48-.82-.77-1.78-.72-.87.04-1.37.14-2.86.18-1.45.05-3.5-.29-5.63-.34-2.91-.07-9.6,1.26-17.66,1.44-4.58.1-13.33.27-15.04.34-1.72.07-9.18-.44-9.93-.42-.89.02-2.2.5-2.52.41-.4-.12-.74-.89-1.63-1.5-.96-.66-2.66-.39-5.4-.66-.93-.09-2.72-.98-3.57-1.24-.45-.14-.55-.96.09-1.24.64-.27,2.29-.55,3.02-.73.73-.18,2.11-1.56-.14-1.92-2.24-.37-5.08-.78-7.65-.83-2.56-.04-4.18-.27-5.05-.54-.71-.23-1.43-.48-2.1-1.06-.36-.31-.13-1.06,1.15-1.19l2.11-.14c8.61,0,33.72.34,36.86.51,3.13.17,11.95-.29,16.29-.28,1.94,0,4.35.37,5.06.37s1.89.52,2.52,1.05c.74.63,2.15,2.47,5.86,2.82,3.84.36,9.18,0,12.05-.34,2.54-.31,7.42-.09,8.66-.09s5.3-.49,6.4-.49,3.2-.07,3.95-.07,3.16-.25,3.98-.25.71.62-.05.76c-.75.14-4.58.34-6.23,1.24-1.65.89-2.45,1.99-2.52,2.82-.07.82,1.44,2.13,3.3,2.61,1.85.48,3.2.72,4.26.85,1.34.16,2.04-.02,2.82-.09.91-.09,4.74-.48,5.63-.41.89.07,1.03.96.34,1.42v-.02Z"/>
  </g>
  <path class="st0" d="M339.38,144.37c-.81.47-3.4,1.61-3.84,1.79-1.74.73-2.29,1.38-6.14,3.02-3.85,1.65-11.09,4.58-20.24,5.86-9.16,1.28-21.52,2.29-25.1,2.93-3.57.64-19.69,2.65-24.46,3.02-4.76.37-18.59,0-21.8-.28-3.21-.27-25.1-.64-29.31-1.01-4.21-.37-11.59-1.28-13.33-1.45-2.54-.25-4.06-.22-4.69-1.52-1.06-2.17-3.36-11.33-1.65-19.07,1.72-7.79,9.23-16.43,10.7-18.72.96-1.49,11.36-12.23,19.79-21.32,4.47-4.83,7.97-8.99,10.14-11.51,6.12-7.13,7.98-10.8,10.9-18.62,3.15-8.43,1.14-13.22-.72-16.06-1.8-2.75-4.56-3.26-5.71-3.67-2.55-.9-8.86.11-11.41,3.94-1.83,2.75-2.9,5.56-3.47,6.78-.54,1.15-4.14,5.68-5.6,7.15-1.47,1.47-1.81,1.85-2.18,2.4-.61.92-2.02,2.37-2.85,3.55-1.21,1.72-1.23,3.87-1.83,5.31-.61,1.47-2.04,5.14-3.37,8.94-1.28,3.66-2.95,7.07-3.69,8.17-.73,1.1-.82,1.67-1.64,2.31-.83.64-1.51.35-1.51.35-1.1-.18-1.52-1.72-1.7-2.64s-.46-7.05-.55-8.52c-.09-1.47.2-5.49.39-6.13.18-.64.3-1.33.76-1.63,0,0-1.56-1.37-2.96-4.41-1.6-3.46-2.03-4.23-2.49-11.92-.46-7.69.18-12.27.83-15.85.64-3.57,3.76-9.43,7.24-12.92,3.48-3.48,4.19-3.01,6.23-4.31,2.01-1.28,11.5-6.63,19.78-8.15,9.69-1.77,20.4-1.08,30.52,4.9,6.66,3.94,12.66,12.66,13.81,25.43.48,5.29-.27,14.46-2.19,22.8-1.92,8.34-6.87,22.07-11.72,30.5l-.75,1.5c-8.24,14.25-10.23,16.7-15.92,25.72-1.88,2.99-3.33,5.72-4.07,6.76-3.02,4.31-3.34,4.64-2.92,5.75.27.73,3.94-1.56,4.67-2.38s7.78-10.9,10.35-15.57c2.57-4.67,7.05-11.45,8.34-13.74,1.28-2.29,9.34-16.76,10.44-18.41,1.1-1.65,3.16-5.51,5.09-8.16,2.05-2.82,14.36-11.51,16.65-13.07s12.27-8.34,14.38-10.26c2.11-1.92,11.54-7.33,14.11-8.79,2.56-1.47,12.24-5.01,13.56-5.68,1.14-.58,1.49-.78,1.49-.78,0,0,2.55,3.37,5.72,9.35,5.35,10.08,11.78,26.6,11.81,48.78.03,22.48-7.86,39.51-7.86,39.51l-.03.03Z"/>
  <path class="st1" d="M199.71,47.73c3.79-.4,1.2,10.18,2,12.78s2.4,2,3.19,5.39c.8,3.39-.2,8.78-.8,10.78-.51,1.71-3.39,9.98-4.79,12.78-.54,1.09-2.8,4.59-2.8.4s-.6-8.38,0-9.78,3.59-3.19,3.79-5.19-.8-8.58-2.2-8.78-1.4,6.59-1,8.39-3.39,1.6-3.39,1.6l-1.4-2s1.2.4,2-.6-1.3-5.19-1.4-8.59c-.2-6.99,3.56-16.83,6.79-17.17h0Z"/>
  <path class="st1" d="M323.15,60.59c-.27.08-3.89,2.02-4.73,2.36s-6.13,2.26-7.62,3.08c-1.71.94-4.16,2.41-5.93,3.19-1.32.58-4.26,2.01-5.74,2.77-1.48.76-5.75,2.56-6.85,2.87-1.1.3-2.08,1.14-2.34.65-.19-.35-.13-.79-.13-.79.27-1.03,1.94-2.48,2.85-3.34.63-.6,1.89-1.1,2.56-1.57.74-.52,1.97-1.07,2.79-1.76.83-.69,2.38-1.59,3.79-2.42,1.4-.84,7.61-4.92,8.65-5.8,1.02-.87,2.98-1.83,4.86-2.74,1.1-.53,3.15-1.79,5.28-2.17,2.13-.38,3-.8,3.84-.57s1.38.61,1.91,1.26,1.52,1.79.76,2.74c-.76.95-1.2,1.46-3.95,2.24Z"/>
  <g>
    <path class="st0" d="M7.22,334.55l-.99-3.36.75-2.99,1.8-2.69,2.65-2.69c.49-.48,1.02-1,1.48-1.47l3.64-1.81-.5-1.33.03-.81.48-2.32,2.11-2.32,3.24-1.66,4.11-1.11h3.1l1.01.77.92.41-.35,1.59-.78.85-1.3,2.36-1.36.37-.4-.44,1.6-3.43-.82-1h-2.55l-3.48,1.51-1.9,1.55-.69,2.43.27,1.18,4.94.85-.26,1.07-.77.37-5.26.33-2.59,1.07-1.47,1.03-.44.59-1.72,2.25-1.11,4.39.08,2.29,2.07,2.25,2.02.66,1.09.07,3.4-.66,2.4-1.07,3.1-3.17.79-1.33h1.33l.46.74-.79,1.33-.55.81-1.12.7-2.69,1.84-3.15,1.73-4.73.89h-2.84l-1.74-.81-2.56-1.81h.04Z"/>
    <path class="st0" d="M30.09,331.41l1.22-2.1c.27-1.14.6-2.36.87-3.47h-.55l-3.08,3.25-1.28,1.18-5.29,4.5-.44.22-.33-.22.26-.85,5.02-4.39,4.45-4.98.74-.44,2.46-.55.58.07.85.59-1.1,4.17-1.69,4.76.55.44,4.66-4.28.82-.89,2.65-3.32.85-.04.49,1.18,2.25.18.12.59-.53.52h-2.14l-3.44,2.77-5.74,4.94-2.54,2.25-1.8-.44-.53-.55,1.63-5.09h0Z"/>
    <path class="st0" d="M47.33,331.96l1.4-3.14-1.5-1.11-2.96-.19.34-1.29,3.13.04,2.17.66,1.13-1.62,2.41-1.96,2.82-1.36.94-.11.75.33.19,1.25-.32,1.62-.95.37-.22.63s.08.15.07.22l-2.85,2.14-2.84.44-1.09,1.81c-.16,1.14-.26,2.32-.39,3.47.15.18.28.48.44.66l1.33.22,2.87-.81,1.01-.29,2.25-.44-.33,1.26-3.27.77-2.87.81-3.3-.11-.92-.44.11-2.29.46-1.55h0ZM53.54,326.21c.02.07.11.22.13.29.15,0,.32.07.47.07l1.2-.52c.17-.11.35-.3.51-.41l.33-.63.2-.74-.33-.41c-.12.04-.3.04-.42.07l-2.06,1.44-.03.81v.03Z"/>
    <path class="st0" d="M66.36,334.88l2.1-4.79,1.4-2.73v-.55l-.59-.7-.8.59-1.91,2.47-3.41,2.4c-.29.18-.51.41-.77.59l-1.37,1.07-4.07,1.73-.22-.41.28-.74,5.46-3.17,3.58-3.14,2.14-4.39c.09-.74.07-1.66.13-2.4l.45-.26,1.58.22.92.41-.45,1.11-.09,1.33,3.45,1.59-.24.96-.66.63-1.03,2.47-.62.59-1.62,3.14v2.36l.25.22.98-.11,1.72-.37c.9-.48,1.93-.92,2.86-1.36l.19.37-.35.74-5.37,2.43-2.3.26-1.14-.63-.47-1.92h0Z"/>
    <path class="st0" d="M97.42,325.03l.38.37-2.33,3.8-.62,1-2.11,3.21-.87,2.21-.61.96-1.79,3.02,4.23-2.66,3-2.14,2.14-1.25.2.33-.49.92-1.47,1.03c-.43.33-.94.74-1.41,1.07l-3.08,1.99-3.83,2.69-1.97,1.96-1.72,3.91-2.88,4.83-1.17,1.22-1.09,1.59-3.67,3.43-.62.41-3.36.63-1.2-.29.1-1.59,1.11-2.77.67-.66,4.25-5.09,8.21-7.01,3.3-5.94,1.09-3.02h-.3l-4.49,3.73-2.39.18-.41-.18-.77-1.29,1.56-3.21,2.54-3.32.54-1h-.48l-2.99,1.88-1.98,1.4-.29.37-4.93,3.06-.34-.15.49-.92,2.4-1.7,5.12-3.51,2.51-1.92,2.61-.59.28.11.6,1.18-.19.66-.75.92-1.51,2.29-1.71,2.8v.92l.17.18,1.04-.26,5.02-4.39,2.1-2.91,1.25-1.22.31-.92,2.61-.37v.02ZM72.82,357.27v.55l1.06.11,2.51-1.92,3.57-4.17,1.5-2.84.97-1.29,1.49-2.62h-.55l-2.14,1.7-4.3,4.5-2.97,3.25-.54,1.62-.6,1.11h0Z"/>
    <path class="st0" d="M105.29,335.17l3.21-6.49.28-.96h-.59c-.86.92-1.81,1.92-2.71,2.84l-7.2,4.43-.18-.22.21-1,4.05-2.47,8.65-7.41,1.52-1.92c.2-.3.44-.63.64-.92l1.12-1.73-.44-.63-4.44-.33-.13-.33.38-.66,6.51-.29,1.59-2.51,3.71-4.72,2.37-1.51.45.59-.24.96-1.74,1.92-1.89,4.02-.09,1.36.38.33h9.04l.09.33-.33.63h-1.33l-2.97.33h-6.42l-1.16.96-1.44.63-1.8,2.25-.26.63-1.5,2.21-1.1,2.91-1.33,2.51-1.31,3.87.17.29,1.22.22,5.43-1.7.28.29-.54.74-5.2,2.07-2.83.77-1.58-.66-.53-1.62h-.02Z"/>
    <path class="st0" d="M114.71,334.69l.39-.74,2.92-2.36,9.17-9.78,2.15-3.84.77-1.25,1.48-3.17,2.53-3.91,1.45-.92,3.26-2.8,1.41-.66h2.29l1.07,1.25-2.34,4.5-5.2,4.8-1.55,1.92-3.66,3.17-.66,1.44-.82,1.29-.92,1.88c-.03.19-.05.48-.07.63l-2.01,3.06-.69,2.03.65-.55,4.61-3.36,3.02-.81,1.25.26.66.26v1.44l-1.26,2.77-.5,1.81.64,2.25c.15,0,.33.04.43.07l4.01-1.84.25.44-.38.7-5.02,2.32-.83.11-.64-.37-.56-.81-.52-1.84.45-1.7.35-1.77.2-.52c-.14-.26-.26-.59-.41-.81l-.55.18-2.51.85-2.37,1.29-.91,1-.92,1.25-.23.26-.39.33-2.93,2.84h-1l-.55-.66,1.2-1.59,1.16-1.59.14-.59,2.84-5.64.75-1.14c-.12-.15-.33-.44-.49-.59l-1.34.92-.57.7-3.66,4.46-1.91,1.62-1.07.63-1.91,1.4-.17-.52h.02ZM132.46,317.25l.67-.04,2.08-1.77,4.98-4.8,1.22-1.88.46-.96-.57-.96h-1.25l-4.87,4.79-1.02,2.25-.52,1.25-1.18,2.1v.02Z"/>
    <path class="st0" d="M145.37,332.11c-.13-.07-.35-.11-.48-.18-.53.26-1.16.74-1.64.96l-.71.7-3.81,1.33-.17-.48.38-.66,3.49-1.59,3.85-3.03,1.82-1.77,2-2.54.86-.04,1.76.66-2.21,3.54-2.77,4.43-.34.89-.23,1.51.93.15,6.83-2.36.25.44-.49.66-5.33,2.18-2.1.63-2.46-.04-.57-.55-.32-1.51,1.47-3.32h0ZM151.94,319.13l1.23-.89,1.86-1.14.95.44.28,1.33-1.88,1.44-2.08.07-.63-.41.26-.85h.01Z"/>
    <path class="st0" d="M178.75,333.99l-.46.74-5.08,3.28-2.55.26-1.08-1.18-.07-.63,3.85-7.19c-.11-.22-.22-.63-.3-.81l-.33-.04-1.54.78-5.75,4.35c-.68.7-1.43,1.44-2.07,2.14l-1.72,1.59h-1.59l-.02-.3.81-1.66,1.82-3.65.43-2.03-.15-.18h-.59l-1.78,1.29-5.24,3.76-.92.41-.11-.41.29-.63,4.85-3.65,3.51-2.36h1.7l.98.74.15.63-.98,3.65,2.78-2.4,4.99-3.21,1.74-.66h.41l1.87.89.23.37-2.03,4.17-1.96,3.39-.02.52.29.44h.81l3.85-2.4.69-.37.27.37h.02Z"/>
    <path class="st0" d="M198.99,333.88l-.54.78-1.35.77-1.28,1-1.1,1-2.23,1.59-.79.92-2.27,2.21-.93,1.96-1.28,2.25-2.78,5.13-1.44,1.29-.64,2.18-2.42,3.47-1.01,1.96-3.22,2.58-1.51-.66-.94-1.59.84-5.16,6.07-7.01,1.4-1.25,2.63-2.58,2.96-2.58,1.9-3.47.46-1.55,2.54-4.57h-.59l-3.11,2.14-1.49,1.14-2.1,1.03h-1.59l-1.49-2.66.29-1.25-3.58,1.92-.49-.33.36-.77,3.23-1.81.75-.92,5.61-3.8,3.42-1h1.92l1.56,1.59,1.94-1.59.82-1.07,2.31-1.59,1.01.55.25.44-.99,1.62-3.01,2.84c-.06.15-.19.26-.26.41l-1.27,1.95-.75.92-3.09,5.83h.26l4.97-3.69,1.82-1.11.23.55h0ZM175.34,360.66h1.29l3.35-5.39.94-1.59.71-1.33,1.91-3.5,1.31-2.18h-.63l-2.15,1.55-4.6,5.16-.11.63-1.09.96-1.66,4.39.73,1.29h0ZM184.74,334.33l.77.89,4.46-2.91,2.72-3.51c-.41-.18-.73-.44-1.11-.63h-1.59l-3.1,1.29-1.67,2.58-.45.44-.08,1.7.05.15h0Z"/>
    <path class="st0" d="M223.1,334.77l-1.05.7s-.14.15-.18.18l-2.11,1.29c-.22.22-.5.52-.72.74l-1.64.92-.59,1.7-.99,2.07-.41,1.7-.96,1.88-2.65,4.17-1,1.48-1.38,2.18-.4.41-1.29,1.44-2.07,1.25-1.56-.59-.36-1.51.74-2.73.71-1.29c.08-.26.21-.59.26-.85l.91-1.62.49-1.29.22-.41.7-1.7.96-1.66.48-.85.66-1.03.48-.85.96-1.48,1.41-2.58.55-.59,1.63-2.99,1.1-2.07.59-1.07.42-.52c.16-.3.34-.66.47-1l.34-.44,1.1-2.07c-.13-.11-.26-.22-.39-.3l-1.57,1.59-.88,1.25-5.24,5.05-1.42.96-1.19.66-.17-.48.41-.66,2.01-1.36,10.27-10.77,4.92-7.01,3.68-6.01.96-.41,1.66.41-.07,1.25-2.18,5.24-.44.59-3.63,3.21-1.39,1.22-.25.77-1.71,2.36-.62,2.03-1.52,2.32-.42,1.11-.78,1.48-.59.85c-.08.26-.24.52-.32.77l-.7,1.66-.52,1.51-.03,1.03h2.03l3.39-1.88,1.07-.63.32.26-.54,1h.03ZM205.91,355.72c.22-.18.47-.37.72-.55l.84-.37,1.47-1.66,1.05-1.95,2.07-2.73.94-2.21c.06-.11.15-.22.16-.29l.63-1.07.55-.81.26-.41,1.11-3.36.48-1.48-.69-.26-.41-.37h-.44l-2.7,2.95-.66,1.84-.71,1.29-.59.63-.47.81-1.88,3.36-.26.22-.74,1.66c-.05.29-.21.77-.26,1.07l-.18.41-.3.85-.7,1.7.72.74h-.01Z"/>
    <path class="st0" d="M227.26,334.36l.12-1.95c-.31.07-.7.22-1.01.29l-3.25,2.1-.26-.22.22-.81,4.06-2.95,2.77-1.92,2.73-1.88c.08-.22.15-.44.18-.63l1.82-.7,2.19-.92h.63c.38-.04.9-.11,1.32-.15l1.13,1.77h2.32l.17.3-.46.74-3.12.55-3.48,6.16-3.59,2.8h-2.32l-1.48-.63-.69-1.96h0ZM230.71,334.69h1.25c.33-.18.74-.41,1.06-.55,1.03-1.48,2.18-3.17,3.22-4.68l.47-.55c.12-.48.26-1.03.38-1.55h-.59l-2.54,1-2.98,2.88c-.2.7-.44,1.48-.6,2.18l.33,1.29v-.02Z"/>
    <path class="st0" d="M246.9,334.69l3.56-6.16,1.03-1.22-1.43-1.07-.19-1.03-.41-.37-1.73.81-3.46,1.66-2.51.41-.29-.44.56-1.07,4.46-1.48,3.37-1.55.47-1.62,1.44-1.88h1.48l.69.92-.38.92c-.16.48-.29,1.03-.42,1.55l1.14,2.1,1.19-.48h.96l-.34,1.33-.47.37-.4.18-3.08,3.69-2.44,5.05-.28,2.03c.11,0,.29.04.44.04l7.17-4.06.17.74-.57.74-3.6,1.99c-.76.55-1.54,1-2.3,1.55l-1.72.11-1.55.63-1.42-.33-.03-1.29v-1.07l.93-1.7h-.04Z"/>
    <path class="st0" d="M288.47,325.03l.38.37-2.33,3.8-.62,1-2.11,3.21-.87,2.21-.61.96-1.79,3.02,4.23-2.66,3-2.14,2.14-1.25.2.33-.49.92-1.47,1.03c-.43.33-.94.74-1.41,1.07l-3.08,1.99-3.83,2.69-1.97,1.96-1.72,3.91-2.88,4.83-1.17,1.22-1.09,1.59-3.67,3.43-.62.41-3.36.63-1.2-.29.09-1.59,1.12-2.77.67-.66,4.25-5.09,8.21-7.01,3.3-5.94,1.09-3.02h-.29l-4.49,3.73-2.39.18-.41-.18-.77-1.29,1.56-3.21,2.54-3.32.54-1h-.48l-2.99,1.88-1.98,1.4-.29.37-4.93,3.06-.34-.15.49-.92,2.4-1.7,5.12-3.51,2.51-1.92,2.61-.59.28.11.6,1.18-.19.66-.75.92-1.51,2.29-1.71,2.8v.92l.17.18,1.04-.26,5.02-4.39,2.1-2.91,1.25-1.22.31-.92,2.61-.37-.02.02ZM263.87,357.27v.55l1.06.11,2.51-1.92,3.58-4.17,1.5-2.84.96-1.29,1.49-2.62h-.55l-2.14,1.7-4.3,4.5-2.97,3.25-.54,1.62-.6,1.11h0Z"/>
    <path class="st0" d="M293.65,334.36l.12-1.95c-.31.07-.7.22-1.01.29l-3.25,2.1-.26-.22.22-.81,4.06-2.95,2.77-1.92,2.73-1.88c.08-.22.15-.44.18-.63l1.82-.7,2.19-.92h.63c.38-.04.9-.11,1.32-.15l1.13,1.77h2.32l.17.3-.46.74-3.12.55-3.48,6.16-3.59,2.8h-2.32l-1.48-.63-.69-1.96h0ZM297.1,334.69h1.25c.33-.18.73-.41,1.06-.55,1.03-1.48,2.18-3.17,3.22-4.68l.47-.55c.12-.48.26-1.03.38-1.55h-.59l-2.54,1-2.98,2.88c-.2.7-.44,1.48-.6,2.18l.33,1.29v-.02Z"/>
    <path class="st0" d="M326.94,334.69l-1.46.33-.69.33-2.37,1.51-2.2-.29-.95-1.29.71-4.02c-.35.3-.77.59-1.15.89-.14.19-.35.52-.5.74l-1.64,1.55-.66,1-1.82.92-2.37,1.92h-1.29l-.9-.33.29-2.51,2.11-5.5,1.96-2.55-.24-.33-5.78.55-.08-.77.41-.44,3.81-.29,4.26-.33.48.63-1.86,3.25c-.12.48-.26,1.07-.39,1.59l-.71,1.29-.07.63-.66,1.22.8.48,5.51-5.09,3.69-3.36,1.47-1.84,1.88-.22.4.22-.39,1.59-2.58,2.29c-.05.26-.18.59-.23.89l-.54.96-1.16,4.28.9.74,3.54-1.66.7.41-.27.66.04-.05Z"/>
    <path class="st0" d="M335.87,334.88l2.1-4.79,1.4-2.73v-.55l-.59-.7-.8.59-1.91,2.47-3.41,2.4c-.29.18-.51.41-.77.59l-1.37,1.07-4.07,1.73-.22-.41.28-.74,5.46-3.17,3.58-3.14,2.14-4.39c.09-.74.07-1.66.13-2.4l.45-.26,1.58.22.92.41-.45,1.11-.09,1.33,3.45,1.59-.24.96-.66.63-1.03,2.47-.62.59-1.62,3.14v2.36l.25.22.98-.11,1.73-.37c.9-.48,1.93-.92,2.86-1.36l.19.37-.35.74-5.37,2.43-2.29.26-1.14-.63-.47-1.92h-.03Z"/>
    <path class="st0" d="M369.71,334.77l-1.05.7s-.14.15-.18.18l-2.11,1.29c-.22.22-.5.52-.72.74l-1.64.92-.59,1.7-.99,2.07-.41,1.7-.96,1.88-2.65,4.17-1,1.48-1.38,2.18-.4.41-1.29,1.44-2.07,1.25-1.56-.59-.36-1.51.74-2.73.71-1.29c.08-.26.21-.59.26-.85l.91-1.62.48-1.29.22-.41.7-1.7.96-1.66.48-.85.66-1.03.48-.85.96-1.48,1.41-2.58.55-.59,1.63-2.99,1.1-2.07.59-1.07.42-.52c.16-.3.34-.66.47-1l.34-.44,1.1-2.07c-.13-.11-.26-.22-.39-.3l-1.57,1.59-.89,1.25-5.24,5.05-1.42.96-1.19.66-.17-.48.41-.66,2.01-1.36,10.27-10.77,4.92-7.01,3.68-6.01.96-.41,1.66.41-.07,1.25-2.18,5.24-.44.59-3.63,3.21-1.4,1.22-.25.77-1.71,2.36-.62,2.03-1.52,2.32-.42,1.11-.78,1.48-.59.85c-.08.26-.24.52-.32.77l-.7,1.66-.52,1.51-.03,1.03h2.03l3.39-1.88,1.07-.63.32.26-.54,1h.06ZM352.52,355.72c.22-.18.47-.37.73-.55l.84-.37,1.47-1.66,1.05-1.95,2.07-2.73.94-2.21c.06-.11.15-.22.16-.29l.63-1.07.55-.81.26-.41,1.11-3.36.48-1.48-.69-.26-.41-.37h-.44l-2.7,2.95-.66,1.84-.71,1.29-.59.63-.48.81-1.88,3.36-.26.22-.73,1.66c-.05.29-.21.77-.26,1.07l-.18.41-.3.85-.7,1.7.72.74h-.02Z"/>
    <path class="st0" d="M387.93,334.73l-3.94,2.07-1.15.22-1.62-.66-.72-.92.38-1.73-1.37,1.07-.85.63-1.46.77-2.47.18-.45-.37-.56-1.22.15-.85.38-.48h-.37l-3.97,1.4h-.41l.28-.96,6.12-3.1,1.71-2.36,5.26-3.28h2.14l2.04.55.84-.55,1.06.66-1.47,1.62-2.07,3.17-1.19,1.92-.95,2.25.17.48.56.15,4.25-1.92.05.37-.38.89h.01ZM375.94,334.77h.92l.8-.33,3.97-3.25,1.52-2.58.75-.92.47-.59c-.08-.15-.16-.33-.21-.48l-.62-.04c-.38.04-.77.18-1.15.22l-1.61,1-1.21.78-3.61,3.95c-.08.48-.16,1.11-.21,1.62l.18.63h0Z"/>
    <path class="st0" d="M395.06,334.88l.48-.63,3.04-5.72-.03-1.11-.39-.07-.8.37-3.16,2.66-6.48,4.54-.06-1.14,6.66-4.91,2.95-2.73.71-.48,2.57-.33.71.15.49.77-.82,1.96-1.79,3.47h.59l.96-1.25,4.14-2.55,1.82-.7h1.62l.75,1-.52,1.92.97-.3c.22-.22.51-.41.73-.59l3.97-2.03h2.62l.39.7-.45,1.96-1.08,2.8-.62,1.22-.55,1.22.32.7.85-.04,5.02-2.1.21.3-.34.7-6.18,3.06h-1.62l-1.12-1-.08-.59,1.39-2.88,1.7-3.39.03-1.03-.25-.26h-.89l-1.87,1-2.18,1.29-5.87,5.68-1.37.22-.33-.22.26-1.03,3.95-5.02.36-1.22-.24-.33h-.96l-6.03,4.72-2.35,2.88-1.81.66-.91-.3-.19-.41,1.09-1.59h-.01Z"/>
    <path class="st0" d="M426.75,332.11c-.13-.07-.35-.11-.48-.18-.52.26-1.16.74-1.64.96l-.71.7-3.81,1.33-.17-.48.38-.66,3.49-1.59,3.85-3.03,1.82-1.77,2-2.54.85-.04,1.76.66-2.21,3.54-2.77,4.43-.34.89-.23,1.51.93.15,6.83-2.36.25.44-.49.66-5.33,2.18-2.1.63-2.46-.04-.57-.55-.32-1.51,1.47-3.32h0ZM433.32,319.13l1.23-.89,1.86-1.14.96.44.28,1.33-1.88,1.44-2.08.07-.63-.41.26-.85h0Z"/>
    <path class="st0" d="M436.23,333.81l3.23-1.59,2.25-2.32c.27-.26.52-.63.78-.89l4.67-3.87,3.26-6.38,5.49-9.15,3.24-2.47,3.03-1.29h.81l.52,1.25.48.63-.64,1.96-6.13,7.78-1.8,1.62-4.61,4.83-.75,1.33-2.02,2.47c-.02.11-.08.26-.1.33l-.57.96-.83,1.59-.65.96c-.07.41-.46,2.4-.56,2.77l.32.48,5.41-1.18.2.11-.3.85-6.08,2.25-1.76.33-.6-1,1.12-3.65,1.57-4.09h-.26l-3.92,3.8-2.78,1.73-2.4,1.03-.15-.22.5-.96h.03ZM451.43,321.82l5.49-5.64,1.45-1.55,3.08-4.06.56-1.51-.48-.63h-.66l-1.68.92-.85.63-1.76,1.59-3.27,5.98-1.36,2.51-.86,1.55.33.22h.01Z"/>
    <path class="st0" d="M436.95,356.94l-1.13-1.96.74-2.51,2.16-2.84,3.47-2.95,3.93-1.99,1.56-.48c.36-.15,1.12-.48,1.48-.66l3.43-.63c1.47-.37,3.09-.77,4.59-1.14l5.24-.66c.16-.3.46-.7.62-1,.28-.55.61-1.18.9-1.73l1.33-2.51c.08-.22.19-.44.27-.7l1.08-1.73c.18-.41.41-.89.64-1.33l1.12-1.77c-.01-.15.03-.37.02-.52h-.63c-.47.37-.98.77-1.45,1.11l-3.22,2.77-2.05,1.59-3.39,1.88h-1.4l-.64-1.62,1.08-2.99,1.82-2.4.82-.89c0-.18,0-.41-.01-.55l-.03-.48h-.33c-1.55,1.48-3.18,2.99-4.77,4.46l-3.79,2.66.04-1.48,1.83-1.18c1.1-1.03,2.33-2.14,3.48-3.21l.81-.41c1.24-1.18,2.56-2.4,3.8-3.58h1.4l1.54.7v1.18l-1.78,2.43-1.2,1.59-1.52,2.77c0,.26.01.55,0,.81h.77c1.15-.89,2.43-1.84,3.61-2.69l4.95-4.24.66-.37.82-.44c1.26-.89,2.57-1.81,3.83-2.69l.68.74v1.07l-1.12,1.73-1.58,2.47-1.08,1.11c-.34.66-.76,1.4-1.11,2.1l-.4.59c-.15.41-.35.92-.49,1.29l-1.15,1.29c-.22.59-.46,1.14-.67,1.7l-1.17,1.59c0,.26.03.48.02.7h10.4l2.43.85-.04,1.25-.7,2.91-1.54,1.18-2.29.85h-1.25l.05-2.4,1.04-.22.7.44h.96c.32-.33.76-.74,1.07-1.07l-.04-2.47c-2.15-.15-4.33-.33-6.44-.48-1.11.04-2.24.15-3.35.18h-1.51c-.37.22-.71.48-1.09.74-.31.48-.63,1.07-.94,1.59l-1.06,1.22-.8,1.59-.83,1.36-1.84,2.29-4.96,4.06-5.96,2.84-2.89.7h-3.98l-1.61-.26-1.98-1.14h.02ZM444.27,357.23c.93-.26,2.13-.59,3.03-.85.8-.37,1.69-.78,2.48-1.11,1.05-.74,2.18-1.48,3.23-2.21,1.48-1.48,3.21-3.14,4.68-4.61,1.25-1.84,2.55-3.8,3.84-5.68,0-.19-.02-.33.02-.52h-1.11c-3.26.7-6.63,1.44-9.89,2.14-1.26.48-2.65,1-3.91,1.44-1.45.66-3.02,1.44-4.47,2.14-1.21,1.22-2.46,2.47-3.68,3.73-.28.55-.61,1.18-.9,1.73v2.54c.85.41,1.73.85,2.58,1.25h4.1Z"/>
  </g>
  <path class="st0" d="M478.44,323.17v-.76h3.87v.76h-1.49v3.79h-.9v-3.79h-1.49,0ZM484.39,322.41l1.16,3.25,1.17-3.25h1.29v4.55h-.83v-3.67l-1.26,3.67h-.73l-1.27-3.67v3.67h-.83v-4.55h1.3,0Z"/>
</svg>