<?xml version="1.0" encoding="UTF-8"?>
<svg id="Layer_1" xmlns="http://www.w3.org/2000/svg" width="719.02" height="208.5" version="1.1" viewBox="0 0 719.02 208.5">
  <!-- Generator: Adobe Illustrator 29.1.0, SVG Export Plug-In . SVG Version: 2.1.0 Build 142)  -->
  <defs>
    <style>
      .st0 {
        fill: #231f20;
      }

      .st1 {
        fill: #006551;
      }

      .st2 {
        fill: #fff;
      }
    </style>
  </defs>
  <g>
    <path class="st1" d="M190.21,46.57C172.1,19.38,141.25,1.47,105.11,1.47,48.35,1.47,2.33,47.48,2.33,104.25s46.01,102.78,102.78,102.78c42.89,0,79.29-26.49,94.68-63.77l-9.58-96.69"/>
    <path class="st2" d="M80.77,193.13c-1.54,0-2.71-.16-4.3-.38-.84-.12-.81-.73-.02-.85,1.29-.2,2.8-.95,2.71-2.02-.05-.61-.54-1.03-.47-1.55.1-.72,1.61-.98,2.56-1.07.95-.09,4.46-.57,4.46-.57,2.27-.36,9.57-.24,11.51.03,2.46.35,3,.73,3.54,2.24.49,1.38.93,1.61,1.7,1.84s1.41.28,1.85.61c.38.28.06.92-.86,1.15-.82.2-5.03.47-7.53.54-2.04.06-13.6.05-15.14.05"/>
    <path class="st2" d="M135.62,199.32c-.57.44-1.98.43-3.22,1.51-.76.67-1.82.92-2.67,1.3-.51.23-2.67.41-4.53.96-1.39.41-5.07.44-5.91.61-1.01.2-2.23.47-3.51.61-1.01.11-6.49.49-8.49.49-1.64,0-5.92.04-9.17-.63-2.31-.48-3.95-.8-6.07-1.48-.85-.28-.91-.75-.48-.91.66-.24,1.67-.35,1.99-.33.3.02,1.78-.05,1.78-.05,2.14-.06,15.93-.8,19.31-1.24,3.1-.4,4.26-.65,5.24-.72.75-.06,3.04-.54,4.12-.89.97-.31,4.04-.78,4.98-.83.91-.05,3.3-.25,4.5-.6.8-.23,3-.38,3.19.5s-.51,1.24-1.08,1.69"/>
    <path class="st2" d="M168.96,178.34c-1.16.77-3.18,1.34-4.34,1.82-1.16.48-2.55.79-3.46,1.04-1,.27-4.15,1.98-5.71,2.9-1.77,1.04-1.82,1.6-4.26,1.36-2.79-.27-5.73-.27-7.02-.41-1.29-.14-2.95-.36-3.08-1.11-.14-.75,1.02-1.43,2.11-1.7s1.97-.95,1.9-1.63c-.07-.68-1.56-1.43-3.2-1.63-1.63-.2-6.05-.41-6.73-.41s-1.23-.25-1.32-.7c-.16-.81.97-1.21.88-1.75-.08-.47-.81-.76-1.76-.71-.86.04-1.36.13-2.83.18-1.43.05-3.47-.29-5.57-.34-2.88-.07-9.49,1.25-17.47,1.43-4.53.1-13.19.27-14.89.34-1.7.07-9.08-.44-9.83-.42-.88.02-2.18.49-2.5.41-.39-.11-.73-.88-1.61-1.48-.95-.66-2.63-.38-5.35-.66-.92-.09-2.69-.97-3.54-1.23-.44-.13-.54-.95.09-1.22s2.27-.54,2.99-.72c.72-.18,2.08-1.54-.14-1.9s-5.03-.77-7.56-.82c-2.54-.04-4.13-.27-4.99-.54-.7-.22-1.42-.47-2.08-1.05-.35-.3-.13-1.04,1.14-1.18l2.09-.13c8.52,0,33.37.33,36.47.5,3.1.17,11.83-.29,16.11-.28,1.92,0,4.3.37,5,.37s1.87.52,2.49,1.04c.74.62,2.13,2.45,5.8,2.79,3.8.35,9.09,0,11.92-.34,2.51-.3,7.34-.09,8.57-.09s5.24-.48,6.33-.48,3.16-.07,3.91-.07,3.13-.25,3.94-.25.7.61-.05.75-4.53.34-6.16,1.22c-1.63.89-2.42,1.97-2.49,2.79-.07.81,1.43,2.11,3.26,2.58,1.83.48,3.17.71,4.21.84,1.33.16,2.02-.02,2.79-.09.9-.09,4.69-.48,5.57-.41.88.07,1.02.95.34,1.41"/>
    <path class="st2" d="M199.82,143.2c-.8.46-3.36,1.59-3.8,1.77-1.72.73-2.27,1.36-6.07,2.99-3.81,1.63-10.97,4.53-20.03,5.8s-21.3,2.27-24.83,2.9c-3.53.63-19.48,2.63-24.2,2.99-4.71.36-18.4,0-21.57-.27s-24.83-.63-29-1c-4.17-.36-11.47-1.26-13.19-1.44-2.51-.25-4.02-.22-4.65-1.5-1.05-2.15-3.32-11.21-1.63-18.87,1.7-7.71,9.14-16.26,10.59-18.52.95-1.48,11.24-12.1,19.58-21.1,4.43-4.78,7.89-8.89,10.04-11.39,6.06-7.05,7.9-10.69,10.79-18.42,3.12-8.34,1.13-13.08-.71-15.89-1.78-2.72-4.51-3.23-5.65-3.63-2.52-.89-8.77.11-11.29,3.9-1.81,2.72-2.87,5.5-3.43,6.71-.53,1.14-4.09,5.62-5.54,7.07-1.45,1.45-1.79,1.83-2.16,2.38-.61.91-2,2.35-2.83,3.52-1.2,1.7-1.22,3.83-1.81,5.26-.6,1.45-2.02,5.09-3.33,8.85-1.27,3.63-2.92,6.99-3.65,8.08-.72,1.09-.81,1.65-1.63,2.29s-1.49.35-1.49.35c-1.09-.18-1.5-1.71-1.68-2.61-.18-.91-.45-6.98-.54-8.43s.2-5.43.38-6.06.3-1.32.75-1.62c0,0-1.54-1.35-2.93-4.36-1.58-3.43-2.01-4.18-2.46-11.8-.45-7.61.18-12.15.82-15.68.63-3.54,3.72-9.34,7.16-12.78,3.44-3.44,4.14-2.97,6.16-4.26,1.99-1.27,11.38-6.56,19.58-8.07,9.59-1.76,20.18-1.07,30.2,4.85,6.59,3.89,12.53,12.52,13.66,25.16.47,5.24-.27,14.31-2.17,22.56-1.9,8.25-6.8,21.84-11.6,30.18l-.75,1.48c-8.16,14.1-10.12,16.53-15.75,25.45-1.86,2.96-3.3,5.66-4.02,6.69-2.99,4.26-3.3,4.59-2.89,5.69.27.72,3.9-1.54,4.62-2.36.73-.81,7.7-10.78,10.24-15.41,2.54-4.62,6.98-11.33,8.25-13.6,1.27-2.26,9.24-16.59,10.33-18.22,1.09-1.63,3.12-5.45,5.03-8.08,2.03-2.79,14.21-11.39,16.47-12.93,2.27-1.54,12.15-8.25,14.23-10.15s11.42-7.25,13.96-8.7c2.54-1.45,12.11-4.96,13.41-5.62,1.12-.57,1.47-.77,1.47-.77,0,0,2.52,3.33,5.66,9.25,5.3,9.98,11.65,26.32,11.69,48.27.03,22.24-7.78,39.09-7.78,39.09"/>
    <path class="st1" d="M61.62,47.58c3.75-.39,1.18,10.07,1.98,12.64.79,2.57,2.37,1.98,3.16,5.33.79,3.35-.2,8.69-.79,10.67-.51,1.69-3.36,9.88-4.74,12.64-.54,1.07-2.77,4.54-2.77.4s-.59-8.3,0-9.68,3.56-3.16,3.75-5.14c.2-1.98-.79-8.49-2.17-8.69-1.38-.2-1.38,6.52-.99,8.3.39,1.78-3.36,1.58-3.36,1.58l-1.38-1.97s1.18.39,1.98-.59c.79-.99-1.29-5.14-1.38-8.5-.2-6.91,3.52-16.65,6.72-16.99"/>
    <path class="st1" d="M183.76,60.31c-.26.08-3.85,1.99-4.68,2.33-.83.34-6.07,2.24-7.54,3.04-1.69.93-4.11,2.39-5.86,3.16-1.3.57-4.21,1.99-5.68,2.74-1.47.75-5.69,2.54-6.78,2.84-1.09.3-2.06,1.12-2.32.64-.19-.35-.12-.78-.12-.78.27-1.02,1.92-2.45,2.82-3.31.62-.6,1.87-1.09,2.53-1.55.73-.51,1.95-1.06,2.76-1.74.82-.69,2.35-1.57,3.75-2.4,1.39-.83,7.53-4.87,8.56-5.74,1.01-.86,2.95-1.81,4.81-2.71,1.09-.53,3.12-1.77,5.23-2.14,2.11-.38,2.97-.79,3.8-.56s1.37.61,1.89,1.24c.53.64,1.5,1.77.75,2.71s-1.19,1.44-3.91,2.22"/>
  </g>
  <g>
    <path class="st0" d="M239.85,77.15c-4.6-4.04-5.82-9.29-5.82-13.84,0-3.19.98-8.73,5.49-12.86,3.38-3.1,7.83-4.97,14.82-4.97,2.91,0,4.65.19,6.8.47,1.78.24,3.28.66,4.69.8.52.05.7.28.7.56,0,.37-.14.94-.24,2.58-.09,1.55-.05,4.13-.14,5.07-.05.7-.14,1.08-.56,1.08-.37,0-.47-.38-.47-1.03-.05-1.45-.66-3.1-1.83-4.32-1.55-1.64-5.21-2.91-9.52-2.91-4.08,0-6.76,1.03-8.82,2.91-3.42,3.14-4.32,7.6-4.32,12.15,0,11.16,8.49,16.7,14.78,16.7,4.18,0,6.71-.47,8.58-2.63.8-.89,1.41-2.25,1.6-3.1.14-.75.23-.94.61-.94.33,0,.42.33.42.71,0,.56-.56,4.64-1.03,6.24-.24.8-.42,1.03-1.22,1.36-1.88.75-5.44,1.08-8.44,1.08-6.43,0-11.82-1.41-16.09-5.11"/>
    <path class="st0" d="M276.68,59.74c0-7.13,0-8.45-.09-9.95-.09-1.6-.47-2.35-2.02-2.67-.38-.09-1.17-.14-1.83-.14-.52,0-.8-.09-.8-.42s.33-.42,1.03-.42c2.49,0,5.44.14,6.76.14,1.5,0,10.84,0,11.73-.05.89-.09,1.64-.19,2.02-.28.24-.05.52-.19.75-.19s.28.19.28.42c0,.33-.23.89-.37,3.05-.05.47-.14,2.53-.24,3.1-.05.24-.14.51-.47.51s-.42-.23-.42-.66c0-.33-.05-1.12-.28-1.69-.33-.84-.8-1.41-3.14-1.69-.8-.09-5.72-.19-6.66-.19-.24,0-.33.14-.33.47v11.87c0,.33.05.52.33.52,1.03,0,6.43,0,7.51-.09,1.13-.09,1.83-.24,2.25-.7.33-.38.52-.61.75-.61.19,0,.33.09.33.38s-.23,1.03-.37,3.42c-.09.94-.19,2.81-.19,3.14,0,.38,0,.89-.42.89-.33,0-.42-.19-.42-.42-.05-.47-.05-1.08-.19-1.69-.24-.94-.89-1.64-2.63-1.83-.89-.09-5.54-.14-6.66-.14-.23,0-.28.19-.28.47v3.71c0,1.6-.05,5.91,0,7.27.09,3.24.84,3.94,5.63,3.94,1.22,0,3.19,0,4.41-.56s1.78-1.55,2.11-3.47c.09-.51.19-.7.52-.7.38,0,.38.38.38.84,0,1.08-.38,4.27-.61,5.21-.33,1.22-.75,1.22-2.53,1.22-7.08,0-10.23-.28-13-.28-1.08,0-4.03.14-5.91.14-.61,0-.94-.14-.94-.47,0-.24.19-.38.75-.38.7,0,1.27-.09,1.69-.19.94-.19,1.17-1.22,1.36-2.58.24-1.97.24-5.68.24-9.99v-8.26"/>
    <path class="st0" d="M306.33,59.74c0-7.13,0-8.45-.09-9.95-.09-1.6-.47-2.35-2.02-2.67-.37-.09-1.17-.14-1.83-.14-.52,0-.8-.09-.8-.42s.33-.42,1.03-.42c2.49,0,5.44.14,6.75.14,1.45,0,4.41-.14,7.23-.14,5.86,0,13.7,0,18.81,5.35,2.35,2.44,4.55,6.33,4.55,11.92,0,5.91-2.49,10.42-5.11,13.09-2.16,2.2-7.04,5.54-15.72,5.54-3.42,0-7.65-.56-9.99-.56-1.08,0-4.04.14-5.91.14-.61,0-.94-.14-.94-.47,0-.24.19-.38.75-.38.7,0,1.27-.09,1.69-.19.94-.19,1.17-1.22,1.36-2.58.24-1.97.24-5.68.24-9.99v-8.26M312.19,64.9c0,4.97.05,8.59.09,9.48.05,1.17.14,3.05.52,3.57.61.89,2.44,1.88,6.15,1.88,4.79,0,7.98-.94,10.79-3.38,3-2.58,3.94-6.85,3.94-11.68,0-5.96-2.49-9.8-4.5-11.73-4.32-4.13-9.66-4.69-13.32-4.69-.94,0-2.67.14-3.05.33-.42.19-.56.42-.56.94-.05,1.59-.05,5.68-.05,9.38v5.91h-.01Z"/>
    <path class="st0" d="M352.12,69.36c-.24,0-.33.09-.42.37l-2.53,6.71c-.47,1.17-.7,2.3-.7,2.86,0,.84.42,1.45,1.88,1.45h.7c.56,0,.7.09.7.38,0,.37-.28.47-.8.47-1.5,0-3.52-.14-4.97-.14-.52,0-3.1.14-5.54.14-.61,0-.89-.09-.89-.47,0-.28.19-.38.56-.38.42,0,1.08-.05,1.45-.09,2.16-.28,3.05-1.88,3.99-4.22l11.78-29.46c.56-1.36.84-1.88,1.31-1.88.42,0,.7.42,1.17,1.5,1.13,2.58,8.63,21.72,11.63,28.85,1.78,4.22,3.14,4.88,4.13,5.11.7.14,1.41.19,1.97.19.37,0,.61.05.61.38,0,.37-.42.47-2.16.47s-5.11,0-8.87-.09c-.84-.05-1.41-.05-1.41-.37,0-.28.19-.38.66-.42.33-.09.66-.52.42-1.08l-3.75-9.95c-.09-.24-.23-.33-.47-.33h-10.46M361.69,67.01c.24,0,.28-.14.24-.28l-4.22-11.59c-.05-.19-.09-.42-.24-.42s-.23.23-.28.42l-4.32,11.54c-.05.19,0,.33.19.33h8.63Z"/>
    <path class="st0" d="M383.08,59.74c0-7.13,0-8.45-.09-9.95-.09-1.6-.47-2.35-2.02-2.67-.38-.09-1.17-.14-1.83-.14-.52,0-.8-.09-.8-.42s.33-.42,1.03-.42c2.49,0,5.44.14,6.43.14,1.59,0,5.16-.14,6.61-.14,2.96,0,6.1.28,8.63,2.02,1.31.89,3.19,3.29,3.19,6.43,0,3.47-1.45,6.66-6.19,10.51,4.18,5.25,7.41,9.43,10.18,12.34,2.63,2.72,4.55,3.05,5.26,3.19.52.09.94.14,1.31.14s.56.14.56.38c0,.37-.33.47-.89.47h-4.46c-2.63,0-3.8-.23-5.02-.89-2.02-1.08-3.8-3.28-6.43-6.9-1.88-2.58-4.03-5.77-4.64-6.47-.24-.28-.52-.33-.84-.33l-4.08-.09c-.23,0-.38.09-.38.38v.66c0,4.36,0,8.07.24,10.04.14,1.36.42,2.39,1.83,2.58.7.09,1.74.19,2.3.19.38,0,.56.14.56.38,0,.33-.33.47-.94.47-2.72,0-6.19-.14-6.9-.14-.89,0-3.85.14-5.72.14-.61,0-.94-.14-.94-.47,0-.24.19-.38.75-.38.7,0,1.27-.09,1.69-.19.94-.19,1.17-1.22,1.36-2.58.23-1.97.23-5.68.23-9.99v-8.26M388.62,63.45c0,.52.09.7.42.84.98.33,2.39.47,3.57.47,1.88,0,2.49-.19,3.33-.8,1.41-1.03,2.77-3.19,2.77-7.04,0-6.66-4.41-8.59-7.18-8.59-1.17,0-2.02.05-2.49.19-.33.09-.42.28-.42.66v14.26h0Z"/>
    <path class="st0" d="M434.31,46.33c.14-.8.42-1.22.8-1.22s.66.23,1.27,1.45l12.81,26.46,12.76-26.79c.33-.75.61-1.12,1.03-1.12s.7.47.84,1.45l4.27,28.99c.42,2.96.89,4.32,2.3,4.74,1.36.42,2.3.47,2.91.47.42,0,.75.05.75.33,0,.38-.56.52-1.22.52-1.17,0-7.65-.14-9.52-.28-1.08-.09-1.36-.24-1.36-.52,0-.23.19-.38.52-.52.28-.09.42-.7.23-2.02l-2.81-20.64h-.19l-10.23,21.3c-1.08,2.21-1.31,2.63-1.74,2.63s-.89-.94-1.64-2.34c-1.13-2.16-4.83-9.34-5.39-10.65-.42-.99-3.24-6.9-4.88-10.41h-.19l-2.44,18.67c-.09.84-.14,1.45-.14,2.2,0,.89.61,1.31,1.41,1.5.84.19,1.5.23,1.97.23.38,0,.7.09.7.33,0,.42-.42.52-1.13.52-1.97,0-4.08-.14-4.93-.14s-3.14.14-4.64.14c-.47,0-.84-.09-.84-.52,0-.23.28-.33.75-.33.37,0,.7,0,1.41-.14,1.31-.28,1.69-2.11,1.92-3.71l4.64-30.59"/>
    <path class="st0" d="M481.51,59.74c0-7.13,0-8.45-.09-9.95-.09-1.6-.47-2.35-2.02-2.67-.37-.09-1.17-.14-1.83-.14-.52,0-.8-.09-.8-.42s.33-.42,1.03-.42c2.49,0,5.44.14,6.76.14,1.5,0,10.84,0,11.73-.05.89-.09,1.64-.19,2.02-.28.24-.05.52-.19.75-.19s.28.19.28.42c0,.33-.24.89-.38,3.05-.05.47-.14,2.53-.23,3.1-.05.24-.14.51-.47.51s-.42-.23-.42-.66c0-.33-.05-1.12-.28-1.69-.33-.84-.8-1.41-3.14-1.69-.8-.09-5.72-.19-6.66-.19-.23,0-.33.14-.33.47v11.87c0,.33.05.52.33.52,1.03,0,6.43,0,7.51-.09,1.13-.09,1.83-.24,2.25-.7.33-.38.52-.61.75-.61.19,0,.33.09.33.38s-.24,1.03-.38,3.42c-.09.94-.19,2.81-.19,3.14,0,.38,0,.89-.42.89-.33,0-.42-.19-.42-.42-.05-.47-.05-1.08-.19-1.69-.24-.94-.89-1.64-2.63-1.83-.89-.09-5.54-.14-6.66-.14-.24,0-.28.19-.28.47v3.71c0,1.6-.05,5.91,0,7.27.09,3.24.85,3.94,5.63,3.94,1.22,0,3.19,0,4.41-.56s1.78-1.55,2.11-3.47c.09-.51.19-.7.52-.7.38,0,.38.38.38.84,0,1.08-.38,4.27-.61,5.21-.33,1.22-.75,1.22-2.53,1.22-7.08,0-10.23-.28-13-.28-1.08,0-4.03.14-5.91.14-.61,0-.94-.14-.94-.47,0-.24.19-.38.75-.38.7,0,1.27-.09,1.69-.19.94-.19,1.17-1.22,1.36-2.58.23-1.97.23-5.68.23-9.99v-8.26"/>
    <path class="st0" d="M512.89,46.33c.14-.8.42-1.22.8-1.22s.66.23,1.27,1.45l12.81,26.46,12.76-26.79c.33-.75.61-1.12,1.03-1.12s.7.47.84,1.45l4.27,28.99c.42,2.96.89,4.32,2.3,4.74,1.36.42,2.3.47,2.91.47.42,0,.75.05.75.33,0,.38-.56.52-1.22.52-1.17,0-7.65-.14-9.52-.28-1.08-.09-1.36-.24-1.36-.52,0-.23.19-.38.51-.52.28-.09.42-.7.24-2.02l-2.81-20.64h-.19l-10.23,21.3c-1.08,2.21-1.31,2.63-1.74,2.63s-.89-.94-1.64-2.34c-1.13-2.16-4.83-9.34-5.39-10.65-.42-.99-3.24-6.9-4.88-10.41h-.19l-2.44,18.67c-.09.84-.14,1.45-.14,2.2,0,.89.61,1.31,1.41,1.5.84.19,1.5.23,1.97.23.37,0,.7.09.7.33,0,.42-.42.52-1.13.52-1.97,0-4.08-.14-4.93-.14s-3.14.14-4.65.14c-.47,0-.84-.09-.84-.52,0-.23.28-.33.75-.33.38,0,.7,0,1.41-.14,1.31-.28,1.69-2.11,1.92-3.71l4.64-30.59"/>
    <path class="st0" d="M552.86,63.87c0-8.02,5.3-18.39,19.37-18.39,11.68,0,18.95,6.8,18.95,17.55s-7.51,19.23-19.42,19.23c-13.47,0-18.91-10.09-18.91-18.39M584.62,64.76c0-10.51-6.05-17.03-13.75-17.03-5.4,0-11.54,3-11.54,14.68,0,9.76,5.4,17.5,14.4,17.5,3.28,0,10.89-1.59,10.89-15.15h0Z"/>
    <path class="st0" d="M601.01,59.74c0-7.13,0-8.45-.09-9.95-.09-1.6-.47-2.35-2.02-2.67-.37-.09-1.17-.14-1.83-.14-.52,0-.8-.09-.8-.42s.33-.42,1.03-.42c2.49,0,5.44.14,6.43.14,1.59,0,5.16-.14,6.61-.14,2.96,0,6.1.28,8.63,2.02,1.31.89,3.19,3.29,3.19,6.43,0,3.47-1.45,6.66-6.19,10.51,4.18,5.25,7.41,9.43,10.18,12.34,2.63,2.72,4.55,3.05,5.25,3.19.52.09.94.14,1.31.14s.56.14.56.38c0,.37-.33.47-.89.47h-4.46c-2.63,0-3.8-.23-5.02-.89-2.02-1.08-3.8-3.28-6.43-6.9-1.88-2.58-4.03-5.77-4.64-6.47-.24-.28-.52-.33-.84-.33l-4.08-.09c-.23,0-.37.09-.37.38v.66c0,4.36,0,8.07.23,10.04.14,1.36.42,2.39,1.83,2.58.7.09,1.74.19,2.3.19.37,0,.56.14.56.38,0,.33-.33.47-.94.47-2.72,0-6.19-.14-6.9-.14-.89,0-3.85.14-5.72.14-.61,0-.94-.14-.94-.47,0-.24.19-.38.75-.38.7,0,1.27-.09,1.69-.19.94-.19,1.17-1.22,1.36-2.58.23-1.97.23-5.68.23-9.99v-8.26M606.54,63.45c0,.52.09.7.42.84.98.33,2.39.47,3.57.47,1.88,0,2.49-.19,3.33-.8,1.41-1.03,2.77-3.19,2.77-7.04,0-6.66-4.41-8.59-7.18-8.59-1.17,0-2.02.05-2.49.19-.33.09-.42.28-.42.66v14.26h0Z"/>
    <path class="st0" d="M636.42,59.74c0-7.13,0-8.45-.09-9.95-.09-1.6-.56-2.39-1.59-2.63-.52-.14-1.13-.19-1.69-.19-.47,0-.75-.09-.75-.47,0-.28.38-.38,1.13-.38,1.78,0,4.74.14,6.1.14,1.17,0,3.94-.14,5.73-.14.61,0,.98.09.98.38,0,.37-.28.47-.75.47s-.85.05-1.41.14c-1.27.24-1.64,1.03-1.74,2.67-.09,1.5-.09,2.81-.09,9.95v8.26c0,4.55,0,8.26.19,10.28.14,1.27.47,2.11,1.88,2.3.66.09,1.69.19,2.39.19.52,0,.75.14.75.38,0,.33-.38.47-.89.47-3.1,0-6.05-.14-7.32-.14-1.08,0-4.04.14-5.91.14-.61,0-.94-.14-.94-.47,0-.24.19-.38.75-.38.7,0,1.27-.09,1.69-.19.94-.19,1.22-.99,1.36-2.35.23-1.97.23-5.68.23-10.23v-8.26"/>
    <path class="st0" d="M659.51,69.36c-.23,0-.33.09-.42.37l-2.53,6.71c-.47,1.17-.7,2.3-.7,2.86,0,.84.42,1.45,1.88,1.45h.7c.56,0,.7.09.7.38,0,.37-.28.47-.8.47-1.5,0-3.52-.14-4.97-.14-.52,0-3.1.14-5.54.14-.61,0-.89-.09-.89-.47,0-.28.19-.38.56-.38.42,0,1.08-.05,1.45-.09,2.16-.28,3.05-1.88,3.99-4.22l11.78-29.46c.56-1.36.84-1.88,1.31-1.88.42,0,.7.42,1.17,1.5,1.13,2.58,8.63,21.72,11.63,28.85,1.78,4.22,3.14,4.88,4.13,5.11.71.14,1.41.19,1.97.19.37,0,.61.05.61.38,0,.37-.42.47-2.16.47s-5.11,0-8.87-.09c-.85-.05-1.41-.05-1.41-.37,0-.28.19-.38.66-.42.33-.09.66-.52.42-1.08l-3.75-9.95c-.09-.24-.24-.33-.47-.33h-10.46M669.08,67.02c.24,0,.28-.14.24-.28l-4.22-11.59c-.05-.19-.09-.42-.24-.42s-.24.23-.28.42l-4.32,11.54c-.05.19,0,.33.19.33h8.63Z"/>
    <path class="st0" d="M696.34,68c0,6,0,9.24.98,10.09.8.7,2.02,1.03,5.68,1.03,2.49,0,4.32-.05,5.49-1.32.56-.61,1.13-1.92,1.22-2.81.05-.42.14-.7.52-.7.33,0,.37.24.37.8,0,.52-.33,4.04-.7,5.4-.28,1.03-.52,1.27-2.96,1.27-6.76,0-9.85-.28-13.65-.28-1.08,0-4.04.14-5.91.14-.61,0-.94-.14-.94-.47,0-.24.19-.38.75-.38.7,0,1.27-.09,1.69-.19.94-.19,1.17-1.22,1.36-2.58.23-1.97.23-5.68.23-9.99v-8.26c0-7.13,0-8.45-.09-9.95-.09-1.6-.47-2.35-2.02-2.67-.38-.09-.94-.14-1.55-.14-.52,0-.8-.09-.8-.42s.33-.42,1.03-.42c2.2,0,5.16.14,6.43.14,1.13,0,4.55-.14,6.38-.14.66,0,.98.09.98.42s-.28.42-.84.42c-.52,0-1.27.05-1.83.14-1.27.24-1.64,1.03-1.74,2.67-.09,1.5-.09,2.81-.09,9.95v8.26"/>
    <path class="st0" d="M260.29,135.92l1.21-2.08c.27-1.13.59-2.34.86-3.43h-.55l-3.05,3.21-1.26,1.17-5.24,4.45-.44.22-.33-.22.26-.84,4.96-4.34,4.41-4.93.73-.44,2.43-.55.57.07.85.58-1.09,4.12-1.67,4.71.54.44,4.61-4.23.81-.88,2.62-3.28.85-.04.49,1.17,2.23.18.12.58-.53.51h-2.12l-3.4,2.74-5.68,4.89-2.51,2.23-1.78-.44-.52-.55,1.62-5.04v.02h0ZM237.66,139.02l-.98-3.32.74-2.96,1.78-2.66,2.62-2.66c.49-.47,1.01-.99,1.46-1.46l3.6-1.79-.5-1.31.03-.8.48-2.3,2.08-2.3,3.21-1.64,4.06-1.09h3.07l1,.77.91.4-.35,1.57-.77.84-1.29,2.34-1.34.36-.4-.44,1.58-3.39-.81-.99h-2.52l-3.44,1.5-1.88,1.53-.68,2.41.27,1.17,4.89.84-.26,1.06-.76.36-5.2.33-2.56,1.06-1.46,1.02-.43.58-1.71,2.23-1.09,4.34.08,2.26,2.05,2.23,2,.66,1.08.07,3.36-.66,2.38-1.06,3.07-3.14.78-1.31h1.31l.46.73-.78,1.31-.54.8-1.11.69-2.66,1.82-3.11,1.72-4.68.88h-2.81l-1.72-.8-2.53-1.79h.02,0Z"/>
    <path class="st0" d="M277.35,136.47l1.39-3.1-1.49-1.09-2.92-.18.33-1.28,3.1.04,2.15.66,1.12-1.61,2.38-1.93,2.79-1.35.93-.11.75.33.18,1.24-.32,1.61-.94.36-.22.62.07.22-2.82,2.12-2.81.44-1.08,1.79c-.16,1.13-.26,2.3-.39,3.43.15.18.28.47.43.66l1.31.22,2.84-.8,1-.29,2.23-.44-.33,1.24-3.24.77-2.84.8-3.27-.11-.91-.44.11-2.26.45-1.53.02-.03h0ZM283.5,130.78l.13.29c.15,0,.32.07.46.07l1.18-.51c.17-.11.34-.29.51-.4l.33-.62.2-.73-.33-.4c-.12.04-.3.04-.41.07l-2.04,1.42-.03.8h0Z"/>
    <path class="st0" d="M455.39,138.84l.12-1.93c-.3.07-.7.22-1,.29l-3.21,2.08-.25-.22.21-.8,4.02-2.92,2.74-1.9,2.7-1.86c.08-.22.15-.44.18-.62l1.8-.69,2.17-.91h.62c.37-.04.9-.11,1.3-.15l1.11,1.75h2.3l.17.29-.46.73-3.09.55-3.45,6.1-3.55,2.77h-2.3l-1.46-.62-.68-1.93h.01ZM458.8,139.17h1.24c.32-.18.73-.4,1.05-.55,1.02-1.46,2.16-3.14,3.19-4.64l.46-.55c.12-.47.25-1.02.38-1.53h-.58l-2.51.99-2.95,2.85c-.2.69-.44,1.46-.6,2.15l.32,1.28h0ZM451.27,139.24l-1.03.69-.18.18-2.09,1.28c-.22.22-.49.51-.71.73l-1.62.91-.59,1.68-.98,2.04-.41,1.68-.95,1.86-2.62,4.12-.99,1.46-1.36,2.15-.4.4-1.27,1.42-2.04,1.24-1.54-.58-.36-1.5.73-2.7.7-1.28c.08-.26.21-.58.26-.84l.9-1.61.48-1.28.22-.4.7-1.68.95-1.64.48-.84.65-1.02.48-.84.95-1.46,1.4-2.55.54-.58,1.62-2.96,1.09-2.04.59-1.06.42-.51c.16-.29.33-.66.47-.99l.33-.44,1.09-2.04c-.13-.11-.25-.22-.39-.29l-1.55,1.57-.88,1.24-5.19,5-1.41.95-1.17.66-.17-.47.41-.66,1.99-1.35,10.16-10.66,4.87-6.93,3.64-5.95.95-.4,1.64.4-.07,1.24-2.15,5.18-.43.58-3.59,3.18-1.38,1.2-.24.77-1.69,2.34-.61,2.01-1.5,2.3-.41,1.09-.77,1.46-.59.84c-.08.26-.24.51-.32.77l-.69,1.64-.52,1.5-.03,1.02h2.01l3.36-1.86,1.06-.62.32.26-.54.99h-.03ZM434.26,159.97c.21-.18.47-.36.72-.55l.83-.36,1.46-1.64,1.03-1.93,2.05-2.7.93-2.19c.06-.11.15-.22.16-.29l.62-1.06.54-.8.25-.4,1.1-3.32.48-1.46-.68-.26-.41-.36h-.44l-2.67,2.92-.65,1.82-.7,1.28-.58.62-.47.8-1.86,3.32-.26.22-.73,1.64c-.05.29-.21.77-.26,1.06l-.18.4-.29.84-.7,1.68.71.73h0ZM427.41,138.37l-.54.77-1.34.77-1.27.99-1.09.99-2.21,1.57-.78.91-2.25,2.19-.92,1.93-1.27,2.23-2.76,5.07-1.43,1.28-.63,2.15-2.39,3.43-1,1.93-3.19,2.55-1.49-.66-.93-1.57.83-5.11,6-6.93,1.39-1.24,2.6-2.55,2.93-2.55,1.88-3.43.45-1.53,2.51-4.53h-.58l-3.07,2.12-1.48,1.13-2.08,1.02h-1.57l-1.47-2.63.29-1.24-3.55,1.9-.49-.33.35-.77,3.2-1.79.74-.91,5.55-3.76,3.39-.99h1.9l1.55,1.57,1.92-1.57.81-1.06,2.28-1.57,1,.55.25.44-.98,1.61-2.98,2.81c-.06.15-.19.26-.25.4l-1.25,1.93-.74.91-3.06,5.77h.26l4.91-3.65,1.8-1.09.23.55h.02,0ZM404.02,164.86h1.28l3.31-5.33.93-1.57.71-1.31,1.89-3.47,1.29-2.15h-.62l-2.13,1.53-4.55,5.11-.11.62-1.08.95-1.64,4.34.72,1.28h0ZM413.32,138.8l.76.88,4.41-2.88,2.69-3.47c-.41-.18-.73-.44-1.1-.62h-1.57l-3.07,1.28-1.65,2.55-.44.44-.08,1.68.05.15h0ZM407.39,138.48l-.46.73-5.03,3.25-2.53.26-1.07-1.17-.07-.62,3.81-7.12c-.11-.22-.22-.62-.3-.8l-.32-.04-1.52.77-5.69,4.31c-.67.69-1.42,1.42-2.05,2.12l-1.7,1.57h-1.57l-.02-.29.8-1.64,1.8-3.61.43-2.01-.15-.18h-.58l-1.76,1.28-5.18,3.72-.91.4-.11-.4.29-.62,4.8-3.61,3.48-2.34h1.68l.97.73.15.62-.97,3.61,2.75-2.37,4.94-3.18,1.72-.66h.4l1.85.88.23.36-2,4.12-1.94,3.36-.02.51.29.44h.8l3.81-2.37.68-.36.26.36h0ZM374.36,136.62c-.13-.07-.35-.11-.48-.18-.52.26-1.15.73-1.63.95l-.71.69-3.77,1.31-.17-.47.37-.66,3.45-1.57,3.81-2.99,1.81-1.75,1.98-2.52.85-.04,1.75.66-2.19,3.5-2.74,4.38-.34.88-.23,1.5.92.15,6.76-2.34.25.44-.48.66-5.27,2.15-2.08.62-2.44-.04-.56-.55-.32-1.5,1.45-3.28h0ZM380.86,123.77l1.21-.88,1.84-1.13.94.44.28,1.31-1.86,1.42-2.06.07-.62-.4.26-.84h0ZM344.02,139.17l.38-.73,2.89-2.34,9.08-9.67,2.13-3.8.77-1.24,1.47-3.14,2.51-3.87,1.44-.91,3.23-2.77,1.39-.66h2.26l1.06,1.24-2.32,4.45-5.14,4.74-1.54,1.9-3.62,3.14-.65,1.42-.81,1.28-.91,1.86c-.03.18-.05.47-.07.62l-1.99,3.03-.68,2.01.64-.55,4.56-3.32,2.99-.8,1.23.26.65.26v1.42l-1.24,2.74-.5,1.79.63,2.23c.15,0,.32.04.43.07l3.97-1.82.25.44-.38.69-4.97,2.3-.82.11-.63-.36-.55-.8-.52-1.82.44-1.68.35-1.75.2-.51c-.14-.26-.26-.58-.41-.8l-.54.18-2.48.84-2.34,1.28-.9.99-.91,1.24-.23.26-.39.33-2.9,2.81h-.99l-.54-.66,1.19-1.57,1.15-1.57.14-.58,2.81-5.58.75-1.13c-.12-.15-.32-.44-.48-.58l-1.33.91-.56.69-3.62,4.42-1.89,1.61-1.06.62-1.89,1.39-.17-.51-.02-.05h0ZM361.59,121.91l.66-.04,2.06-1.75,4.92-4.74,1.2-1.86.46-.95-.56-.95h-1.24l-4.81,4.74-1.01,2.23-.51,1.24s-1.17,2.08-1.17,2.08ZM334.71,139.64l3.18-6.42.28-.95h-.58c-.85.91-1.79,1.9-2.69,2.81l-7.12,4.38-.18-.22.21-.99,4.01-2.45,8.56-7.34,1.5-1.9c.2-.29.44-.62.64-.91l1.11-1.72-.44-.62-4.39-.33-.12-.33.37-.66,6.44-.29,1.57-2.48,3.67-4.67,2.34-1.5.44.58-.24.95-1.72,1.9-1.87,3.98-.09,1.35.38.33h8.94l.09.33-.33.62h-1.31l-2.94.33h-6.35l-1.15.95-1.42.62-1.78,2.23-.26.62-1.48,2.19-1.09,2.88-1.31,2.48-1.3,3.83.17.29,1.2.22,5.37-1.68.28.29-.53.73-5.14,2.04-2.8.77-1.56-.66-.52-1.61-.04.03h0ZM326.91,129.61l.37.36-2.3,3.76-.61.99-2.09,3.18-.86,2.19-.61.95-1.77,2.99,4.19-2.63,2.96-2.12,2.12-1.24.2.33-.49.91-1.46,1.02c-.42.33-.93.73-1.39,1.06l-3.05,1.97-3.79,2.66-1.95,1.93-1.7,3.87-2.85,4.78-1.16,1.2-1.08,1.57-3.63,3.39-.62.4-3.32.62-1.19-.29.09-1.57,1.1-2.74.66-.66,4.21-5.04,8.12-6.93,3.26-5.88,1.07-2.99h-.29l-4.45,3.69-2.37.18-.41-.18-.76-1.28,1.54-3.18,2.51-3.28.54-.99h-.47l-2.96,1.86-1.96,1.39-.28.36-4.88,3.03-.34-.15.49-.91,2.38-1.68,5.06-3.47,2.49-1.9,2.58-.58.27.11.6,1.17-.19.66-.74.91-1.49,2.26-1.69,2.77v.91l.17.18,1.03-.26,4.96-4.34,2.08-2.88,1.23-1.2.31-.91,2.58-.36.03.03h0ZM302.57,161.51v.55l1.05.11,2.49-1.9,3.54-4.12,1.48-2.81.96-1.28,1.48-2.59h-.55l-2.12,1.68-4.25,4.45-2.94,3.21-.54,1.61-.59,1.09h-.01ZM296.18,139.35l2.08-4.74,1.39-2.7v-.55l-.58-.69-.8.58-1.89,2.45-3.37,2.37c-.29.18-.51.4-.76.58l-1.35,1.06-4.03,1.72-.22-.4.27-.73,5.41-3.14,3.54-3.1,2.12-4.34c.09-.73.07-1.64.13-2.37l.45-.26,1.57.22.91.4-.45,1.09-.09,1.31,3.41,1.57-.24.95-.66.62-1.01,2.45-.61.58-1.61,3.1v2.34l.24.22.97-.11,1.71-.36c.89-.47,1.91-.91,2.83-1.35l.19.36-.35.73-5.32,2.41-2.27.26-1.13-.62-.47-1.9h-.01Z"/>
    <path class="st0" d="M474.82,139.17l3.52-6.1,1.02-1.2-1.42-1.06-.18-1.02-.41-.36-1.71.8-3.43,1.64-2.48.4-.29-.44.55-1.06,4.42-1.46,3.34-1.53.47-1.61,1.42-1.86h1.46l.68.91-.38.91c-.16.47-.29,1.02-.42,1.53l1.13,2.08,1.18-.47h.95l-.34,1.31-.47.36-.4.18-3.05,3.65-2.41,5-.28,2.01c.11,0,.29.04.43.04l7.09-4.01.16.73-.57.73-3.56,1.97c-.75.55-1.52.99-2.28,1.53l-1.7.11-1.53.62-1.4-.33-.03-1.28v-1.06l.92-1.68v.02h0Z"/>
    <path class="st0" d="M521.08,138.84l.12-1.93c-.3.07-.7.22-1,.29l-3.21,2.08-.25-.22.21-.8,4.02-2.92,2.74-1.9,2.7-1.86c.08-.22.15-.44.18-.62l1.8-.69,2.17-.91h.62c.37-.04.9-.11,1.3-.15l1.11,1.75h2.3l.17.29-.46.73-3.09.55-3.45,6.1-3.55,2.77h-2.3l-1.46-.62-.68-1.93h.01ZM524.49,139.17h1.24c.32-.18.73-.4,1.05-.55,1.02-1.46,2.16-3.14,3.19-4.64l.46-.55c.12-.47.25-1.02.38-1.53h-.58l-2.51.99-2.95,2.85c-.2.69-.44,1.46-.6,2.15l.32,1.28ZM515.96,129.61l.37.36-2.3,3.76-.61.99-2.09,3.18-.86,2.19-.61.95-1.77,2.99,4.19-2.63,2.96-2.12,2.12-1.24.2.33-.49.91-1.46,1.02c-.42.33-.93.73-1.39,1.06l-3.05,1.97-3.79,2.66-1.95,1.93-1.7,3.87-2.85,4.78-1.16,1.2-1.08,1.57-3.63,3.39-.62.4-3.32.62-1.19-.29.09-1.57,1.1-2.74.66-.66,4.21-5.04,8.12-6.93,3.26-5.88,1.07-2.99h-.29l-4.45,3.69-2.37.18-.41-.18-.76-1.28,1.54-3.18,2.51-3.28.54-.99h-.47l-2.96,1.86-1.96,1.39-.28.36-4.88,3.03-.34-.15.49-.91,2.38-1.68,5.06-3.47,2.49-1.9,2.58-.58.27.11.6,1.17-.19.66-.74.91-1.49,2.26-1.69,2.77v.91l.17.18,1.03-.26,4.96-4.34,2.08-2.88,1.23-1.2.31-.91,2.58-.36.03.03h0ZM491.61,161.51v.55l1.05.11,2.49-1.9,3.54-4.12,1.48-2.81.96-1.28,1.48-2.59h-.55l-2.12,1.68-4.25,4.45-2.94,3.21-.54,1.61-.59,1.09h-.01Z"/>
    <path class="st0" d="M554.01,139.17l-1.44.33-.68.33-2.34,1.5-2.17-.29-.94-1.28.7-3.98c-.34.29-.76.58-1.14.88-.14.18-.35.51-.49.73l-1.62,1.53-.65.99-1.8.91-2.34,1.9h-1.28l-.89-.33.29-2.48,2.09-5.44,1.94-2.52-.23-.33-5.72.55-.08-.77.41-.44,3.77-.29,4.22-.33.47.62-1.84,3.21c-.12.47-.26,1.06-.39,1.57l-.7,1.28-.07.62-.65,1.2.79.47,5.45-5.04,3.65-3.32,1.45-1.82,1.86-.22.4.22-.39,1.57-2.55,2.26c-.04.26-.18.58-.23.88l-.53.95-1.15,4.23.89.73,3.5-1.64.7.4-.26.66h0Z"/>
    <path class="st0" d="M662.16,138.29l3.2-1.57,2.23-2.3c.26-.26.51-.62.77-.88l4.62-3.83,3.23-6.31,5.43-9.05,3.2-2.45,3-1.28h.8l.51,1.24.47.62-.63,1.93-6.07,7.7-1.78,1.61-4.57,4.78-.74,1.31-2,2.45c-.02.11-.08.26-.09.33l-.57.95-.82,1.57-.64.95c-.07.4-.45,2.37-.56,2.74l.32.47,5.35-1.17.2.11-.29.84-6.01,2.23-1.74.33-.59-.99,1.11-3.61,1.55-4.05h-.26l-3.87,3.76-2.75,1.72-2.37,1.02-.14-.22.5-.95h0ZM677.2,126.43l5.44-5.58,1.44-1.53,3.04-4.01.56-1.5-.47-.62h-.66l-1.66.91-.84.62-1.74,1.57-3.23,5.91-1.35,2.48-.85,1.53.33.22h-.01ZM652.78,136.62c-.13-.07-.35-.11-.48-.18-.52.26-1.15.73-1.63.95l-.71.69-3.77,1.31-.17-.47.37-.66,3.45-1.57,3.81-2.99,1.81-1.75,1.98-2.52.85-.04,1.75.66-2.19,3.5-2.74,4.38-.34.88-.23,1.5.92.15,6.76-2.34.25.44-.48.66-5.27,2.15-2.08.62-2.44-.04-.56-.55-.32-1.5,1.45-3.28h.01ZM659.28,123.77l1.21-.88,1.84-1.13.94.44.28,1.31-1.86,1.42-2.06.07-.62-.4.26-.84h0ZM621.43,139.35l.47-.62,3-5.66-.03-1.09-.39-.07-.79.36-3.13,2.63-6.41,4.49-.06-1.13,6.59-4.85,2.92-2.7.7-.47,2.54-.33.7.15.49.77-.82,1.93-1.77,3.43h.58l.95-1.24,4.09-2.52,1.8-.69h1.61l.74.99-.52,1.9.96-.29c.22-.22.51-.4.72-.58l3.93-2.01h2.59l.39.69-.45,1.93-1.07,2.77-.61,1.2-.54,1.2.32.69.85-.04,4.97-2.08.2.29-.34.69-6.12,3.03h-1.61l-1.1-.99-.08-.58,1.38-2.85,1.69-3.36.03-1.02-.25-.26h-.88l-1.85.99-2.16,1.28-5.81,5.62-1.35.22-.33-.22.25-1.02,3.9-4.96.36-1.2-.23-.33h-.95l-5.97,4.67-2.33,2.85-1.79.66-.9-.29-.18-.4,1.08-1.57h.02,0ZM614.37,139.21l-3.9,2.04-1.13.22-1.6-.66-.72-.91.38-1.72-1.35,1.06-.84.62-1.45.77-2.44.18-.45-.36-.55-1.2.15-.84.38-.47h-.37l-3.93,1.39h-.4l.28-.95,6.05-3.07,1.69-2.34,5.21-3.25h2.12l2.02.55.83-.55,1.05.66-1.45,1.61-2.05,3.14-1.17,1.9-.94,2.23.17.47.56.15,4.2-1.9.05.36-.37.88h-.03ZM602.5,139.24h.91l.79-.33,3.92-3.21,1.51-2.55.74-.91.47-.58c-.08-.15-.16-.33-.21-.47l-.61-.04c-.37.04-.76.18-1.13.22l-1.6.99-1.19.77-3.57,3.91c-.08.47-.16,1.09-.21,1.61l.18.62v-.03h0ZM596.34,139.24l-1.03.69-.18.18-2.09,1.28c-.22.22-.49.51-.71.73l-1.62.91-.59,1.68-.98,2.04-.41,1.68-.95,1.86-2.62,4.12-.99,1.46-1.36,2.15-.4.4-1.27,1.42-2.04,1.24-1.54-.58-.36-1.5.73-2.7.7-1.28c.08-.26.21-.58.26-.84l.9-1.61.48-1.28.22-.4.7-1.68.95-1.64.48-.84.65-1.02.48-.84.95-1.46,1.4-2.55.54-.58,1.62-2.96,1.09-2.04.59-1.06.42-.51c.16-.29.33-.66.47-.99l.33-.44,1.09-2.04c-.13-.11-.25-.22-.39-.29l-1.55,1.57-.88,1.24-5.19,5-1.41.95-1.17.66-.17-.47.41-.66,1.99-1.35,10.16-10.66,4.87-6.93,3.64-5.95.95-.4,1.64.4-.07,1.24-2.15,5.18-.43.58-3.59,3.18-1.38,1.2-.24.77-1.69,2.34-.61,2.01-1.5,2.3-.41,1.09-.77,1.46-.59.84c-.08.26-.24.51-.32.77l-.69,1.64-.52,1.5-.03,1.02h2.01l3.36-1.86,1.06-.62.32.26-.54.99h-.03,0ZM579.33,159.97c.21-.18.47-.36.72-.55l.83-.36,1.46-1.64,1.03-1.93,2.05-2.7.93-2.19c.06-.11.15-.22.16-.29l.62-1.06.54-.8.25-.4,1.1-3.32.48-1.46-.68-.26-.41-.36h-.44l-2.67,2.92-.65,1.82-.7,1.28-.58.62-.47.8-1.86,3.32-.26.22-.73,1.64c-.05.29-.21.77-.26,1.06l-.18.4-.29.84-.7,1.68.71.73h0ZM562.85,139.35l2.08-4.74,1.39-2.7v-.55l-.58-.69-.8.58-1.89,2.45-3.37,2.37c-.29.18-.51.4-.76.58l-1.35,1.06-4.03,1.72-.22-.4.27-.73,5.41-3.14,3.54-3.1,2.12-4.34c.09-.73.07-1.64.13-2.37l.45-.26,1.57.22.91.4-.45,1.09-.09,1.31,3.41,1.57-.24.95-.66.62-1.01,2.45-.61.58-1.61,3.1v2.34l.24.22.97-.11,1.71-.36c.89-.47,1.91-.91,2.83-1.35l.19.36-.35.73-5.32,2.41-2.27.26-1.13-.62-.47-1.9h-.01Z"/>
    <path class="st0" d="M662.87,161.18l-1.12-1.93.73-2.48,2.14-2.81,3.43-2.92,3.89-1.97,1.54-.47c.35-.15,1.11-.47,1.47-.66l3.39-.62c1.45-.36,3.05-.77,4.54-1.13l5.19-.66c.16-.29.45-.69.61-.99.28-.55.61-1.17.89-1.72l1.31-2.48c.08-.22.19-.44.27-.69l1.07-1.72c.18-.4.41-.88.63-1.31l1.11-1.75c-.01-.15.03-.36.02-.51h-.62c-.47.36-.97.77-1.43,1.09l-3.18,2.74-2.03,1.57-3.36,1.86h-1.39l-.63-1.61,1.07-2.96,1.8-2.37.81-.88c0-.18,0-.4-.01-.55l-.03-.47h-.33c-1.53,1.46-3.15,2.96-4.72,4.42l-3.75,2.63.04-1.46,1.81-1.17c1.09-1.02,2.31-2.12,3.44-3.18l.8-.4c1.23-1.17,2.53-2.37,3.76-3.54h1.39l1.52.69v1.17l-1.76,2.41-1.19,1.57-1.5,2.74c0,.26.01.55,0,.8h.77c1.14-.88,2.4-1.82,3.57-2.66l4.9-4.2.65-.36.81-.44c1.25-.88,2.54-1.79,3.79-2.66l.67.73v1.06l-1.11,1.72-1.56,2.45-1.07,1.09c-.33.66-.76,1.39-1.1,2.08l-.39.58c-.14.4-.34.91-.48,1.28l-1.14,1.28c-.21.58-.45,1.13-.66,1.68l-1.15,1.57c0,.26.03.47.02.69h10.29l2.41.84-.04,1.24-.69,2.88-1.52,1.17-2.26.84h-1.24l.05-2.37,1.02-.22.69.44h.95c.31-.33.75-.73,1.06-1.06l-.04-2.45c-2.13-.15-4.29-.33-6.38-.47-1.1.04-2.22.15-3.32.18h-1.5c-.37.22-.7.47-1.08.73-.3.47-.62,1.06-.93,1.57l-1.05,1.2-.79,1.57-.82,1.35-1.82,2.26-4.9,4.01-5.9,2.81-2.86.69h-3.94l-1.6-.26-1.95-1.13h.02ZM670.11,161.47c.92-.26,2.11-.58,2.99-.84.79-.36,1.67-.77,2.46-1.09,1.04-.73,2.16-1.46,3.2-2.19,1.46-1.46,3.17-3.1,4.64-4.56,1.23-1.82,2.52-3.76,3.8-5.62,0-.18-.02-.33.02-.51h-1.09c-3.22.69-6.56,1.42-9.79,2.12-1.25.47-2.62.99-3.86,1.42-1.43.66-2.99,1.42-4.42,2.12-1.2,1.2-2.44,2.45-3.64,3.69-.28.55-.61,1.17-.89,1.72v2.52c.84.4,1.71.84,2.56,1.24h4.05l-.03-.02h0Z"/>
    <path class="st0" d="M705.4,127.76v3.75h.89v-3.75h1.47v-.75h-3.84v.75h1.48ZM708.52,127.01v4.5h.83v-3.63l1.26,3.63h.72l1.23-3.63v3.63h.83v-4.5h-1.3l-1.13,3.21-1.14-3.21h-1.3Z"/>
  </g>
</svg>