<?xml version="1.0" encoding="UTF-8"?>
<svg id="Layer_1" xmlns="http://www.w3.org/2000/svg" version="1.1" viewBox="0 0 365 365.9">
  <!-- Generator: Adobe Illustrator 29.0.0, SVG Export Plug-In . SVG Version: 2.1.0 Build 186)  -->
  <defs>
    <style>
      .st0 {
        fill: #006551;
      }

      .st1 {
        fill: #fff;
      }
    </style>
  </defs>
  <path class="st0" d="M332.2,81C300.3,33,245.9,1.5,182.1,1.5,82,1.5.9,82.6.9,182.7s81.1,181.3,181.3,181.3,139.8-46.7,167-112.5l-16.9-170.5"/>
  <path class="st1" d="M139.2,339.5c-2.7,0-4.8-.3-7.6-.7-1.5-.2-1.4-1.3,0-1.5,2.3-.4,4.9-1.7,4.8-3.6,0-1.1-1-1.8-.8-2.7.2-1.3,2.8-1.7,4.5-1.9,1.7-.2,7.9-1,7.9-1,4-.6,16.9-.4,20.3,0,4.3.6,5.3,1.3,6.2,3.9.9,2.4,1.7,2.9,3,3.3,1.4.4,2.5.5,3.3,1.1.7.5.1,1.6-1.5,2-1.4.4-8.9.8-13.3,1-3.6.1-24,0-26.7,0"/>
  <path class="st1" d="M235.9,350.4c-1,.8-3.5.7-5.7,2.7-1.3,1.2-3.2,1.6-4.7,2.3-.9.4-4.7.7-8,1.7-2.5.7-8.9.8-10.4,1.1-1.8.4-3.9.8-6.2,1.1-1.8.2-11.4.9-15,.9s-10.4,0-16.2-1.1c-4.1-.9-7-1.4-10.7-2.6-1.5-.5-1.6-1.3-.9-1.6,1.2-.4,2.9-.6,3.5-.6.5,0,3.1,0,3.1,0,3.8-.1,28.1-1.4,34.1-2.2,5.5-.7,7.5-1.1,9.3-1.3,1.3-.1,5.4-1,7.3-1.6,1.7-.6,7.1-1.4,8.8-1.5,1.6,0,5.8-.5,7.9-1.1,1.4-.4,5.3-.7,5.6.9s-.9,2.2-1.9,3"/>
  <path class="st1" d="M294.7,313.4c-2,1.4-5.6,2.4-7.7,3.2-2,.8-4.5,1.4-6.1,1.8-1.8.5-7.3,3.5-10.1,5.1-3.1,1.8-3.2,2.8-7.5,2.4-4.9-.5-10.1-.5-12.4-.7s-5.2-.6-5.4-2c-.2-1.3,1.8-2.5,3.7-3,1.9-.5,3.5-1.7,3.4-2.9-.1-1.2-2.8-2.5-5.6-2.9-2.9-.4-10.7-.7-11.9-.7s-2.2-.4-2.3-1.2c-.3-1.4,1.7-2.1,1.5-3.1-.1-.8-1.4-1.3-3.1-1.3-1.5,0-2.4.2-5,.3-2.5,0-6.1-.5-9.8-.6-5.1-.1-16.7,2.2-30.8,2.5-8,.2-23.3.5-26.3.6-3,.1-16-.8-17.3-.7-1.6,0-3.8.9-4.4.7-.7-.2-1.3-1.5-2.8-2.6-1.7-1.1-4.6-.7-9.4-1.1-1.6-.2-4.7-1.7-6.2-2.2-.8-.2-1-1.7.2-2.2,1.1-.5,4-1,5.3-1.3s3.7-2.7-.2-3.4-8.9-1.4-13.3-1.4c-4.5,0-7.3-.5-8.8-1-1.2-.4-2.5-.8-3.7-1.8-.6-.5-.2-1.8,2-2.1l3.7-.2c15,0,58.8.6,64.3.9,5.5.3,20.9-.5,28.4-.5,3.4,0,7.6.6,8.8.6s3.3.9,4.4,1.8c1.3,1.1,3.8,4.3,10.2,4.9,6.7.6,16,0,21-.6,4.4-.5,13-.2,15.1-.2s9.3-.9,11.2-.9,5.6-.1,6.9-.1,5.5-.4,7-.4,1.2,1.1,0,1.3c-1.3.2-8,.6-10.9,2.2-2.9,1.6-4.3,3.5-4.4,4.9s2.5,3.7,5.8,4.6,5.6,1.3,7.4,1.5c2.3.3,3.5,0,4.9-.2,1.6-.2,8.3-.8,9.8-.7,1.5.1,1.8,1.7.6,2.5"/>
  <path class="st1" d="M349.2,251.4c-1.4.8-5.9,2.8-6.7,3.1-3,1.3-4,2.4-10.7,5.3-6.7,2.9-19.4,8-35.3,10.2-16,2.2-37.6,4-43.8,5.1-6.2,1.1-34.4,4.6-42.7,5.3-8.3.6-32.4,0-38-.5-5.6-.5-43.8-1.1-51.2-1.8-7.4-.6-20.2-2.2-23.3-2.5-4.4-.4-7.1-.4-8.2-2.7-1.8-3.8-5.9-19.8-2.9-33.3,3-13.6,16.1-28.7,18.7-32.7,1.7-2.6,19.8-21.3,34.5-37.2,7.8-8.4,13.9-15.7,17.7-20.1,10.7-12.4,13.9-18.8,19-32.5,5.5-14.7,2-23.1-1.3-28-3.1-4.8-8-5.7-10-6.4-4.5-1.6-15.5.2-19.9,6.9-3.2,4.8-5.1,9.7-6.1,11.8-.9,2-7.2,9.9-9.8,12.5s-3.2,3.2-3.8,4.2c-1.1,1.6-3.5,4.1-5,6.2-2.1,3-2.2,6.7-3.2,9.3-1.1,2.6-3.6,9-5.9,15.6-2.2,6.4-5.1,12.3-6.4,14.3-1.3,1.9-1.4,2.9-2.9,4-1.4,1.1-2.6.6-2.6.6-1.9-.3-2.6-3-3-4.6-.3-1.6-.8-12.3-1-14.9s.3-9.6.7-10.7c.3-1.1.5-2.3,1.3-2.9,0,0-2.7-2.4-5.2-7.7-2.8-6-3.5-7.4-4.3-20.8-.8-13.4.3-21.4,1.4-27.6,1.1-6.2,6.6-16.5,12.6-22.5,6.1-6.1,7.3-5.3,10.9-7.5,3.5-2.2,20.1-11.6,34.5-14.2,16.9-3.1,35.6-1.9,53.3,8.6,11.6,6.9,22.1,22.1,24.1,44.4.8,9.2-.5,25.2-3.8,39.8-3.4,14.6-12,38.5-20.5,53.2l-1.3,2.6c-14.4,24.9-17.9,29.1-27.8,44.9-3.3,5.2-5.8,10-7.1,11.8-5.3,7.5-5.8,8.1-5.1,10,.5,1.3,6.9-2.7,8.2-4.2s13.6-19,18.1-27.2c4.5-8.2,12.3-20,14.6-24,2.2-4,16.3-29.2,18.2-32.1,1.9-2.9,5.5-9.6,8.9-14.2,3.6-4.9,25.1-20.1,29.1-22.8,4-2.7,21.4-14.6,25.1-17.9,3.7-3.4,20.1-12.8,24.6-15.4,4.5-2.6,21.4-8.7,23.7-9.9,2-1,2.6-1.4,2.6-1.4,0,0,4.5,5.9,10,16.3,9.3,17.6,20.6,46.4,20.6,85.1,0,39.2-13.7,69-13.7,69"/>
  <path class="st0" d="M105.4,82.8c6.6-.7,2.1,17.8,3.5,22.3,1.4,4.5,4.2,3.5,5.6,9.4,1.4,5.9-.3,15.3-1.4,18.8-.9,3-5.9,17.4-8.4,22.3-1,1.9-4.9,8-4.9.7s-1-14.6,0-17.1,6.3-5.6,6.6-9.1-1.4-15-3.8-15.3-2.4,11.5-1.7,14.6c.7,3.1-5.9,2.8-5.9,2.8l-2.4-3.5s2.1.7,3.5-1-2.3-9.1-2.4-15c-.3-12.2,6.2-29.4,11.8-30"/>
  <path class="st0" d="M320.8,105.2c-.5.1-6.8,3.5-8.3,4.1-1.5.6-10.7,3.9-13.3,5.4-3,1.6-7.3,4.2-10.3,5.6-2.3,1-7.4,3.5-10,4.8-2.6,1.3-10,4.5-12,5-1.9.5-3.6,2-4.1,1.1-.3-.6-.2-1.4-.2-1.4.5-1.8,3.4-4.3,5-5.8,1.1-1.1,3.3-1.9,4.5-2.7,1.3-.9,3.4-1.9,4.9-3.1,1.4-1.2,4.2-2.8,6.6-4.2,2.5-1.5,13.3-8.6,15.1-10.1,1.8-1.5,5.2-3.2,8.5-4.8,1.9-.9,5.5-3.1,9.2-3.8,3.7-.7,5.2-1.4,6.7-1s2.4,1.1,3.3,2.2c.9,1.1,2.7,3.1,1.3,4.8-1.3,1.7-2.1,2.5-6.9,3.9"/>
</svg>