<?xml version="1.0" encoding="UTF-8"?>
<svg id="Layer_1" xmlns="http://www.w3.org/2000/svg" width="616.47" height="73.68" version="1.1" viewBox="0 0 616.47 73.68">
  <!-- Generator: Adobe Illustrator 29.1.0, SVG Export Plug-In . SVG Version: 2.1.0 Build 142)  -->
  <defs>
    <style>
      .st0 {
        fill: #231f20;
      }
    </style>
  </defs>
  <path class="st0" d="M32.22,35.1l1.55-2.66c.35-1.45.76-2.99,1.1-4.39h-.7l-3.9,4.11-1.61,1.5-6.71,5.7-.56.28-.42-.28.33-1.08,6.35-5.55,5.64-6.31.93-.56,3.11-.7.73.09,1.09.74-1.4,5.27-2.14,6.03.69.56,5.9-5.41,1.04-1.13,3.35-4.2,1.09-.05.63,1.5,2.85.23.15.74-.68.65h-2.71l-4.35,3.51-7.27,6.26-3.21,2.85-2.28-.56-.67-.7,2.07-6.45v.03ZM3.25,39.07l-1.25-4.25.95-3.79,2.28-3.4,3.35-3.4c.63-.6,1.29-1.27,1.87-1.87l4.61-2.29-.64-1.68.04-1.02.61-2.94,2.66-2.94,4.11-2.1,5.2-1.4h3.93l1.28.99,1.16.51-.45,2.01-.99,1.08-1.65,2.99-1.71.46-.51-.56,2.02-4.34-1.04-1.27h-3.23l-4.4,1.92-2.41,1.96-.87,3.08.35,1.5,6.26,1.08-.33,1.36-.97.46-6.66.42-3.28,1.36-1.87,1.31-.55.74-2.19,2.85-1.4,5.55.1,2.89,2.62,2.85,2.56.84,1.38.09,4.3-.84,3.05-1.36,3.93-4.02,1-1.68h1.68l.59.93-1,1.68-.69,1.02-1.42.88-3.4,2.33-3.98,2.2-5.99,1.13h-3.6l-2.2-1.02-3.24-2.29h.03Z"/>
  <path class="st0" d="M54.05,35.8l1.78-3.97-1.91-1.4-3.74-.23.42-1.64,3.97.05,2.75.84,1.43-2.06,3.05-2.47,3.57-1.73,1.19-.14.96.42.23,1.59-.41,2.06-1.2.46-.28.79.09.28-3.61,2.71-3.6.56-1.38,2.29c-.2,1.45-.33,2.94-.5,4.39.19.23.36.6.55.84l1.68.28,3.63-1.02,1.28-.37,2.85-.56-.42,1.59-4.15.99-3.63,1.02-4.19-.14-1.16-.56.14-2.89.58-1.96.03-.04ZM61.92,28.52l.17.37c.19,0,.41.09.59.09l1.51-.65c.22-.14.44-.37.65-.51l.42-.79.26-.93-.42-.51c-.15.05-.38.05-.52.09l-2.61,1.82-.04,1.02h0Z"/>
  <path class="st0" d="M281.91,38.84l.15-2.47c-.38.09-.9.28-1.28.37l-4.11,2.66-.32-.28.27-1.02,5.14-3.74,3.51-2.43,3.46-2.38c.1-.28.19-.56.23-.79l2.3-.88,2.78-1.16h.79c.47-.05,1.15-.14,1.66-.19l1.42,2.24h2.94l.22.37-.59.93-3.95.7-4.42,7.81-4.54,3.55h-2.94l-1.87-.79-.87-2.47h.01ZM286.28,39.26h1.59c.41-.23.93-.51,1.34-.7,1.31-1.87,2.76-4.02,4.08-5.94l.59-.7c.15-.6.32-1.31.49-1.96h-.74l-3.21,1.27-3.78,3.65c-.26.88-.56,1.87-.77,2.75l.41,1.64h0ZM276.64,39.35l-1.32.88-.23.23-2.67,1.64c-.28.28-.63.65-.91.93l-2.07,1.16-.76,2.15-1.25,2.61-.52,2.15-1.22,2.38-3.35,5.27-1.27,1.87-1.74,2.75-.51.51-1.63,1.82-2.61,1.59-1.97-.74-.46-1.92.93-3.46.9-1.64c.1-.33.27-.74.33-1.08l1.15-2.06.61-1.64.28-.51.9-2.15,1.22-2.1.61-1.08.83-1.31.61-1.08,1.22-1.87,1.79-3.26.69-.74,2.07-3.79,1.4-2.61.76-1.36.54-.65c.2-.37.42-.84.6-1.27l.42-.56,1.4-2.61c-.17-.14-.32-.28-.5-.37l-1.98,2.01-1.13,1.59-6.64,6.4-1.8,1.22-1.5.84-.22-.6.52-.84,2.55-1.73,13-13.64,6.23-8.87,4.66-7.62,1.22-.51,2.1.51-.09,1.59-2.75,6.63-.55.74-4.59,4.07-1.77,1.54-.31.99-2.16,2.99-.78,2.57-1.92,2.94-.52,1.4-.99,1.87-.76,1.08c-.1.33-.31.65-.41.99l-.88,2.1-.67,1.92-.04,1.31h2.57l4.3-2.38,1.36-.79.41.33-.69,1.27h-.04ZM254.87,65.88c.27-.23.6-.46.92-.7l1.06-.46,1.87-2.1,1.32-2.47,2.62-3.46,1.19-2.8c.08-.14.19-.28.2-.37l.79-1.36.69-1.02.32-.51,1.41-4.25.61-1.87-.87-.33-.52-.46h-.56l-3.42,3.74-.83,2.33-.9,1.64-.74.79-.6,1.02-2.38,4.25-.33.28-.93,2.1c-.06.37-.27.99-.33,1.36l-.23.51-.37,1.08-.9,2.15.91.93h0ZM246.1,38.24l-.69.99-1.71.99-1.63,1.27-1.4,1.27-2.83,2.01-1,1.16-2.88,2.8-1.18,2.47-1.63,2.85-3.53,6.49-1.83,1.64-.81,2.75-3.06,4.39-1.28,2.47-4.08,3.26-1.91-.84-1.19-2.01,1.06-6.54,7.68-8.87,1.78-1.59,3.33-3.26,3.75-3.26,2.41-4.39.58-1.96,3.21-5.8h-.74l-3.93,2.71-1.89,1.45-2.66,1.31h-2.01l-1.88-3.37.37-1.59-4.54,2.43-.63-.42.45-.99,4.1-2.29.95-1.16,7.1-4.81,4.34-1.27h2.43l1.98,2.01,2.46-2.01,1.04-1.36,2.92-2.01,1.28.7.32.56-1.25,2.06-3.81,3.6c-.08.19-.24.33-.32.51l-1.6,2.47-.95,1.16-3.92,7.38h.33l6.28-4.67,2.3-1.4.29.7h.03ZM216.17,72.14h1.64l4.24-6.82,1.19-2.01.91-1.68,2.42-4.44,1.65-2.75h-.79l-2.73,1.96-5.82,6.54-.14.79-1.38,1.22-2.1,5.55.92,1.64h0ZM228.07,38.79l.97,1.13,5.64-3.69,3.44-4.44c-.52-.23-.93-.56-1.41-.79h-2.01l-3.93,1.64-2.11,3.26-.56.56-.1,2.15.06.19h0ZM220.48,38.38l-.59.93-6.44,4.16-3.24.33-1.37-1.5-.09-.79,4.88-9.11c-.14-.28-.28-.79-.38-1.02l-.41-.05-1.95.99-7.28,5.52c-.86.88-1.82,1.82-2.62,2.71l-2.18,2.01h-2.01l-.03-.37,1.02-2.1,2.3-4.62.55-2.57-.19-.23h-.74l-2.25,1.64-6.63,4.76-1.16.51-.14-.51.37-.79,6.14-4.62,4.45-2.99h2.15l1.24.93.19.79-1.24,4.62,3.52-3.03,6.32-4.07,2.2-.84h.51l2.37,1.13.29.46-2.56,5.27-2.48,4.3-.03.65.37.56h1.02l4.88-3.03.87-.46.33.46h.01ZM178.21,36c-.17-.09-.45-.14-.61-.23-.67.33-1.47.93-2.09,1.22l-.91.88-4.82,1.68-.22-.6.47-.84,4.42-2.01,4.88-3.83,2.32-2.24,2.53-3.23,1.09-.05,2.24.84-2.8,4.48-3.51,5.61-.44,1.13-.29,1.92,1.18.19,8.65-2.99.32.56-.61.84-6.74,2.75-2.66.79-3.12-.05-.72-.7-.41-1.92,1.86-4.2h.01ZM186.53,19.55l1.55-1.13,2.35-1.45,1.2.56.36,1.68-2.38,1.82-2.64.09-.79-.51.33-1.08h.01ZM139.38,39.26l.49-.93,3.7-2.99,11.62-12.38,2.73-4.86.99-1.59,1.88-4.02,3.21-4.95,1.84-1.16,4.13-3.55,1.78-.84h2.89l1.36,1.59-2.97,5.7-6.58,6.07-1.97,2.43-4.63,4.02-.83,1.82-1.04,1.64-1.16,2.38c-.04.23-.06.6-.09.79l-2.55,3.88-.87,2.57.82-.7,5.84-4.25,3.83-1.02,1.57.33.83.33v1.82l-1.59,3.51-.64,2.29.81,2.85c.19,0,.41.05.55.09l5.08-2.33.32.56-.49.88-6.36,2.94-1.05.14-.81-.46-.7-1.02-.67-2.33.56-2.15.45-2.24.26-.65c-.18-.33-.33-.74-.52-1.02l-.69.23-3.17,1.08-2.99,1.64-1.15,1.27-1.16,1.59-.29.33-.5.42-3.71,3.6h-1.27l-.69-.84,1.52-2.01,1.47-2.01.18-.74,3.6-7.14.96-1.45c-.15-.19-.41-.56-.61-.74l-1.7,1.16-.72.88-4.63,5.66-2.42,2.06-1.36.79-2.42,1.78-.22-.65-.03-.06ZM161.86,17.17l.84-.05,2.64-2.24,6.3-6.07,1.54-2.38.59-1.22-.72-1.22h-1.59l-6.16,6.07-1.29,2.85-.65,1.59s-1.5,2.66-1.5,2.66ZM127.46,39.86l4.07-8.22.36-1.22h-.74c-1.09,1.16-2.29,2.43-3.44,3.6l-9.11,5.61-.23-.28.27-1.27,5.13-3.14,10.96-9.39,1.92-2.43c.26-.37.56-.79.82-1.16l1.42-2.2-.56-.79-5.62-.42-.15-.42.47-.84,8.24-.37,2.01-3.17,4.7-5.98,2.99-1.92.56.74-.31,1.22-2.2,2.43-2.39,5.09-.12,1.73.49.42h11.44l.12.42-.42.79h-1.68l-3.76.42h-8.13l-1.47,1.22-1.82.79-2.28,2.85-.33.79-1.89,2.8-1.4,3.69-1.68,3.17-1.66,4.9.22.37,1.54.28,6.87-2.15.36.37-.68.93-6.58,2.61-3.58.99-2-.84-.67-2.06-.05.04ZM117.48,27.02l.47.46-2.94,4.81-.78,1.27-2.67,4.07-1.1,2.8-.78,1.22-2.27,3.83,5.36-3.37,3.79-2.71,2.71-1.59.26.42-.63,1.16-1.87,1.31c-.54.42-1.19.93-1.78,1.36l-3.9,2.52-4.85,3.4-2.5,2.47-2.18,4.95-3.65,6.12-1.48,1.54-1.38,2.01-4.65,4.34-.79.51-4.25.79-1.52-.37.12-2.01,1.41-3.51.84-.84,5.39-6.45,10.39-8.87,4.17-7.53,1.37-3.83h-.37l-5.7,4.72-3.03.23-.52-.23-.97-1.64,1.97-4.07,3.21-4.2.69-1.27h-.6l-3.79,2.38-2.51,1.78-.36.46-6.25,3.88-.44-.19.63-1.16,3.05-2.15,6.48-4.44,3.19-2.43,3.3-.74.35.14.77,1.5-.24.84-.95,1.16-1.91,2.89-2.16,3.55v1.16l.22.23,1.32-.33,6.35-5.55,2.66-3.69,1.57-1.54.4-1.16,3.3-.46.04.04ZM86.33,67.85v.7l1.34.14,3.19-2.43,4.53-5.27,1.89-3.6,1.23-1.64,1.89-3.31h-.7l-2.71,2.15-5.44,5.7-3.76,4.11-.69,2.06-.76,1.4h-.01ZM78.15,39.49l2.66-6.07,1.78-3.46v-.7l-.74-.88-1.02.74-2.42,3.14-4.31,3.03c-.37.23-.65.51-.97.74l-1.73,1.36-5.16,2.2-.28-.51.35-.93,6.92-4.02,4.53-3.97,2.71-5.55c.12-.93.09-2.1.17-3.03l.58-.33,2.01.28,1.16.51-.58,1.4-.12,1.68,4.36,2.01-.31,1.22-.84.79-1.29,3.14-.78.74-2.06,3.97v2.99l.31.28,1.24-.14,2.19-.46c1.14-.6,2.44-1.16,3.62-1.73l.24.46-.45.93-6.81,3.08-2.91.33-1.45-.79-.6-2.43h-.01Z"/>
  <path class="st0" d="M306.78,39.26l4.5-7.81,1.31-1.54-1.82-1.36-.23-1.31-.52-.46-2.19,1.02-4.39,2.1-3.17.51-.37-.56.7-1.36,5.66-1.87,4.27-1.96.6-2.06,1.82-2.38h1.87l.87,1.16-.49,1.16c-.2.6-.37,1.31-.54,1.96l1.45,2.66,1.51-.6h1.22l-.44,1.68-.6.46-.51.23-3.9,4.67-3.08,6.4-.36,2.57c.14,0,.37.05.55.05l9.07-5.13.2.93-.73.93-4.56,2.52c-.96.7-1.95,1.27-2.92,1.96l-2.18.14-1.96.79-1.79-.42-.04-1.64v-1.36l1.18-2.15v.03Z"/>
  <path class="st0" d="M365.98,38.84l.15-2.47c-.38.09-.9.28-1.28.37l-4.11,2.66-.32-.28.27-1.02,5.14-3.74,3.51-2.43,3.46-2.38c.1-.28.19-.56.23-.79l2.3-.88,2.78-1.16h.79c.47-.05,1.15-.14,1.66-.19l1.42,2.24h2.94l.22.37-.59.93-3.95.7-4.42,7.81-4.54,3.55h-2.94l-1.87-.79-.87-2.47h.01ZM370.35,39.26h1.59c.41-.23.93-.51,1.34-.7,1.31-1.87,2.76-4.02,4.08-5.94l.59-.7c.15-.6.32-1.31.49-1.96h-.74l-3.21,1.27-3.78,3.65c-.26.88-.56,1.87-.77,2.75l.41,1.64ZM359.43,27.02l.47.46-2.94,4.81-.78,1.27-2.67,4.07-1.1,2.8-.78,1.22-2.27,3.83,5.36-3.37,3.79-2.71,2.71-1.59.26.42-.63,1.16-1.87,1.31c-.54.42-1.19.93-1.78,1.36l-3.9,2.52-4.85,3.4-2.5,2.47-2.18,4.95-3.65,6.12-1.48,1.54-1.38,2.01-4.65,4.34-.79.51-4.25.79-1.52-.37.12-2.01,1.41-3.51.84-.84,5.39-6.45,10.39-8.87,4.17-7.53,1.37-3.83h-.37l-5.7,4.72-3.03.23-.52-.23-.97-1.64,1.97-4.07,3.21-4.2.69-1.27h-.6l-3.79,2.38-2.51,1.78-.36.46-6.25,3.88-.44-.19.63-1.16,3.05-2.15,6.48-4.44,3.19-2.43,3.3-.74.35.14.77,1.5-.24.84-.95,1.16-1.91,2.89-2.16,3.55v1.16l.22.23,1.32-.33,6.35-5.55,2.66-3.69,1.57-1.54.4-1.16,3.3-.46.04.04ZM328.27,67.85v.7l1.34.14,3.19-2.43,4.53-5.27,1.89-3.6,1.23-1.64,1.89-3.31h-.7l-2.71,2.15-5.44,5.7-3.76,4.11-.69,2.06-.76,1.4h-.01Z"/>
  <path class="st0" d="M408.13,39.26l-1.84.42-.87.42-2.99,1.92-2.78-.37-1.2-1.64.9-5.09c-.44.37-.97.74-1.46,1.13-.18.23-.45.65-.63.93l-2.07,1.96-.83,1.27-2.3,1.16-2.99,2.43h-1.64l-1.14-.42.37-3.17,2.67-6.96,2.48-3.23-.29-.42-7.32.7-.1-.99.52-.56,4.82-.37,5.4-.42.6.79-2.35,4.11c-.15.6-.33,1.36-.5,2.01l-.9,1.64-.09.79-.83,1.54,1.01.6,6.98-6.45,4.67-4.25,1.86-2.33,2.38-.28.51.28-.5,2.01-3.26,2.89c-.05.33-.23.74-.29,1.13l-.68,1.22-1.47,5.41,1.14.93,4.48-2.1.9.51-.33.84h-.01Z"/>
  <path class="st0" d="M546.54,38.13l4.1-2.01,2.85-2.94c.33-.33.65-.79.99-1.13l5.91-4.9,4.13-8.08,6.95-11.58,4.1-3.14,3.84-1.64h1.02l.65,1.59.6.79-.81,2.47-7.77,9.85-2.28,2.06-5.85,6.12-.95,1.68-2.56,3.14c-.03.14-.1.33-.12.42l-.73,1.22-1.05,2.01-.82,1.22c-.09.51-.58,3.03-.72,3.51l.41.6,6.85-1.5.26.14-.37,1.08-7.69,2.85-2.23.42-.76-1.27,1.42-4.62,1.98-5.18h-.33l-4.95,4.81-3.52,2.2-3.03,1.31-.18-.28.64-1.22h0ZM565.79,22.95l6.96-7.14,1.84-1.96,3.89-5.13.72-1.92-.6-.79h-.84l-2.12,1.16-1.08.79-2.23,2.01-4.13,7.56-1.73,3.17-1.09,1.96.42.28h-.01ZM534.54,36c-.17-.09-.45-.14-.61-.23-.67.33-1.47.93-2.09,1.22l-.91.88-4.82,1.68-.22-.6.47-.84,4.42-2.01,4.88-3.83,2.32-2.24,2.53-3.23,1.09-.05,2.24.84-2.8,4.48-3.51,5.61-.44,1.13-.29,1.92,1.18.19,8.65-2.99.32.56-.61.84-6.74,2.75-2.66.79-3.12-.05-.72-.7-.41-1.92,1.86-4.2h.01ZM542.86,19.55l1.55-1.13,2.35-1.45,1.2.56.36,1.68-2.38,1.82-2.64.09-.79-.51.33-1.08h.01ZM494.42,39.49l.6-.79,3.84-7.24-.04-1.4-.5-.09-1.01.46-4.01,3.37-8.2,5.75-.08-1.45,8.43-6.21,3.74-3.46.9-.6,3.25-.42.9.19.63.99-1.05,2.47-2.27,4.39h.74l1.22-1.59,5.23-3.23,2.3-.88h2.06l.95,1.27-.67,2.43,1.23-.37c.28-.28.65-.51.92-.74l5.03-2.57h3.31l.5.88-.58,2.47-1.37,3.55-.78,1.54-.69,1.54.41.88,1.09-.05,6.36-2.66.26.37-.44.88-7.83,3.88h-2.06l-1.41-1.27-.1-.74,1.77-3.65,2.16-4.3.04-1.31-.32-.33h-1.13l-2.37,1.27-2.76,1.64-7.44,7.19-1.73.28-.42-.28.32-1.31,4.99-6.35.46-1.54-.29-.42h-1.22l-7.64,5.98-2.98,3.65-2.29.84-1.15-.37-.23-.51,1.38-2.01h.03ZM485.38,39.31l-4.99,2.61-1.45.28-2.05-.84-.92-1.16.49-2.2-1.73,1.36-1.08.79-1.86.99-3.12.23-.58-.46-.7-1.54.19-1.08.49-.6h-.47l-5.03,1.78h-.51l.36-1.22,7.74-3.93,2.16-2.99,6.67-4.16h2.71l2.59.7,1.06-.7,1.34.84-1.86,2.06-2.62,4.02-1.5,2.43-1.2,2.85.22.6.72.19,5.38-2.43.06.46-.47,1.13h-.04ZM470.19,39.35h1.16l1.01-.42,5.02-4.11,1.93-3.26.95-1.16.6-.74c-.1-.19-.2-.42-.27-.6l-.78-.05c-.47.05-.97.23-1.45.28l-2.05,1.27-1.52.99-4.57,5c-.1.6-.2,1.4-.27,2.06l.23.79v-.04ZM462.3,39.35l-1.32.88-.23.23-2.67,1.64c-.28.28-.63.65-.91.93l-2.07,1.16-.76,2.15-1.25,2.61-.52,2.15-1.22,2.38-3.35,5.27-1.27,1.87-1.74,2.75-.51.51-1.63,1.82-2.61,1.59-1.97-.74-.46-1.92.93-3.46.9-1.64c.1-.33.27-.74.33-1.08l1.15-2.06.61-1.64.28-.51.9-2.15,1.22-2.1.61-1.08.83-1.31.61-1.08,1.22-1.87,1.79-3.26.69-.74,2.07-3.79,1.4-2.61.76-1.36.54-.65c.2-.37.42-.84.6-1.27l.42-.56,1.4-2.61c-.17-.14-.32-.28-.5-.37l-1.98,2.01-1.13,1.59-6.64,6.4-1.8,1.22-1.5.84-.22-.6.52-.84,2.55-1.73,13-13.64,6.23-8.87,4.66-7.62,1.22-.51,2.1.51-.09,1.59-2.75,6.63-.55.74-4.59,4.07-1.77,1.54-.31.99-2.16,2.99-.78,2.57-1.92,2.94-.52,1.4-.99,1.87-.76,1.08c-.1.33-.31.65-.41.99l-.88,2.1-.67,1.92-.04,1.31h2.57l4.3-2.38,1.36-.79.41.33-.69,1.27h-.04ZM440.53,65.88c.27-.23.6-.46.92-.7l1.06-.46,1.87-2.1,1.32-2.47,2.62-3.46,1.19-2.8c.08-.14.19-.28.2-.37l.79-1.36.69-1.02.32-.51,1.41-4.25.61-1.87-.87-.33-.52-.46h-.56l-3.42,3.74-.83,2.33-.9,1.64-.74.79-.6,1.02-2.38,4.25-.33.28-.93,2.1c-.06.37-.27.99-.33,1.36l-.23.51-.37,1.08-.9,2.15.91.93h0ZM419.44,39.49l2.66-6.07,1.78-3.46v-.7l-.74-.88-1.02.74-2.42,3.14-4.31,3.03c-.37.23-.65.51-.97.74l-1.73,1.36-5.16,2.2-.28-.51.35-.93,6.92-4.02,4.53-3.97,2.71-5.55c.12-.93.09-2.1.17-3.03l.58-.33,2.01.28,1.16.51-.58,1.4-.12,1.68,4.36,2.01-.31,1.22-.84.79-1.29,3.14-.78.74-2.06,3.97v2.99l.31.28,1.24-.14,2.19-.46c1.14-.6,2.44-1.16,3.62-1.73l.24.46-.45.93-6.81,3.08-2.91.33-1.45-.79-.6-2.43h-.01Z"/>
  <path class="st0" d="M547.45,67.43l-1.43-2.47.93-3.17,2.74-3.6,4.39-3.74,4.98-2.52,1.97-.6c.45-.19,1.42-.6,1.88-.84l4.34-.79c1.86-.46,3.9-.99,5.81-1.45l6.64-.84c.2-.37.58-.88.78-1.27.36-.7.78-1.5,1.14-2.2l1.68-3.17c.1-.28.24-.56.35-.88l1.37-2.2c.23-.51.52-1.13.81-1.68l1.42-2.24c-.01-.19.04-.46.03-.65h-.79c-.6.46-1.24.99-1.83,1.4l-4.07,3.51-2.6,2.01-4.3,2.38h-1.78l-.81-2.06,1.37-3.79,2.3-3.03,1.04-1.13c0-.23,0-.51-.01-.7l-.04-.6h-.42c-1.96,1.87-4.03,3.79-6.04,5.66l-4.8,3.37.05-1.87,2.32-1.5c1.4-1.31,2.96-2.71,4.4-4.07l1.02-.51c1.57-1.5,3.24-3.03,4.81-4.53h1.78l1.95.88v1.5l-2.25,3.08-1.52,2.01-1.92,3.51c0,.33.01.7,0,1.02h.99c1.46-1.13,3.07-2.33,4.57-3.4l6.27-5.38.83-.46,1.04-.56c1.6-1.13,3.25-2.29,4.85-3.4l.86.93v1.36l-1.42,2.2-2,3.14-1.37,1.4c-.42.84-.97,1.78-1.41,2.66l-.5.74c-.18.51-.44,1.16-.61,1.64l-1.46,1.64c-.27.74-.58,1.45-.84,2.15l-1.47,2.01c0,.33.04.6.03.88h13.17l3.08,1.08-.05,1.59-.88,3.69-1.95,1.5-2.89,1.08h-1.59l.06-3.03,1.31-.28.88.56h1.22c.4-.42.96-.93,1.36-1.36l-.05-3.14c-2.73-.19-5.49-.42-8.17-.6-1.41.05-2.84.19-4.25.23h-1.92c-.47.28-.9.6-1.38.93-.38.6-.79,1.36-1.19,2.01l-1.34,1.54-1.01,2.01-1.05,1.73-2.33,2.89-6.27,5.13-7.55,3.6-3.66.88h-5.04l-2.05-.33-2.5-1.45h.03ZM556.72,67.8c1.18-.33,2.7-.74,3.83-1.08,1.01-.46,2.14-.99,3.15-1.4,1.33-.93,2.76-1.87,4.1-2.8,1.87-1.87,4.06-3.97,5.94-5.84,1.57-2.33,3.23-4.81,4.86-7.19,0-.23-.03-.42.03-.65h-1.4c-4.12.88-8.4,1.82-12.53,2.71-1.6.6-3.35,1.27-4.94,1.82-1.83.84-3.83,1.82-5.66,2.71-1.54,1.54-3.12,3.14-4.66,4.72-.36.7-.78,1.5-1.14,2.2v3.23c1.08.51,2.19,1.08,3.28,1.59h5.18l-.04-.03Z"/>
  <path class="st0" d="M601.88,24.66v4.8h1.14v-4.8h1.88v-.96h-4.91v.96h1.89ZM605.88,23.7v5.76h1.06v-4.65l1.61,4.65h.92l1.57-4.65v4.65h1.06v-5.76h-1.66l-1.45,4.11-1.46-4.11h-1.66Z"/>
</svg>