<?xml version="1.0" encoding="UTF-8"?>
<svg id="Layer_1" xmlns="http://www.w3.org/2000/svg" width="616.47" height="208.5" version="1.1" viewBox="0 0 616.47 208.5">
  <!-- Generator: Adobe Illustrator 29.1.0, SVG Export Plug-In . SVG Version: 2.1.0 Build 142)  -->
  <defs>
    <style>
      .st0 {
        fill: #231f20;
      }

      .st1 {
        fill: #006551;
      }

      .st2 {
        fill: #fff;
      }
    </style>
  </defs>
  <g>
    <path class="st1" d="M190.21,46.57C172.1,19.38,141.25,1.47,105.11,1.47,48.35,1.47,2.33,47.48,2.33,104.25s46.01,102.78,102.78,102.78c42.89,0,79.29-26.49,94.68-63.77l-9.58-96.69"/>
    <path class="st2" d="M80.77,193.13c-1.54,0-2.71-.16-4.3-.38-.84-.12-.81-.73-.02-.85,1.29-.2,2.8-.95,2.71-2.02-.05-.61-.54-1.03-.47-1.55.1-.72,1.61-.98,2.56-1.07.95-.09,4.46-.57,4.46-.57,2.27-.36,9.57-.24,11.51.03,2.46.35,3,.73,3.54,2.24.49,1.38.93,1.61,1.7,1.84s1.41.28,1.85.61c.38.28.06.92-.86,1.15-.82.2-5.03.47-7.53.54-2.04.06-13.6.05-15.14.05"/>
    <path class="st2" d="M135.62,199.32c-.57.44-1.98.43-3.22,1.51-.76.67-1.82.92-2.67,1.3-.51.23-2.67.41-4.53.96-1.39.41-5.07.44-5.91.61-1.01.2-2.23.47-3.51.61-1.01.11-6.49.49-8.49.49-1.64,0-5.92.04-9.17-.63-2.31-.48-3.95-.8-6.07-1.48-.85-.28-.91-.75-.48-.91.66-.24,1.67-.35,1.99-.33.3.02,1.78-.05,1.78-.05,2.14-.06,15.93-.8,19.31-1.24,3.1-.4,4.26-.65,5.24-.72.75-.06,3.04-.54,4.12-.89.97-.31,4.04-.78,4.98-.83.91-.05,3.3-.25,4.5-.6.8-.23,3-.38,3.19.5s-.51,1.24-1.08,1.69"/>
    <path class="st2" d="M168.96,178.34c-1.16.77-3.18,1.34-4.34,1.82-1.16.48-2.55.79-3.46,1.04-1,.27-4.15,1.98-5.71,2.9-1.77,1.04-1.82,1.6-4.26,1.36-2.79-.27-5.73-.27-7.02-.41-1.29-.14-2.95-.36-3.08-1.11-.14-.75,1.02-1.43,2.11-1.7s1.97-.95,1.9-1.63c-.07-.68-1.56-1.43-3.2-1.63-1.63-.2-6.05-.41-6.73-.41s-1.23-.25-1.32-.7c-.16-.81.97-1.21.88-1.75-.08-.47-.81-.76-1.76-.71-.86.04-1.36.13-2.83.18-1.43.05-3.47-.29-5.57-.34-2.88-.07-9.49,1.25-17.47,1.43-4.53.1-13.19.27-14.89.34-1.7.07-9.08-.44-9.83-.42-.88.02-2.18.49-2.5.41-.39-.11-.73-.88-1.61-1.48-.95-.66-2.63-.38-5.35-.66-.92-.09-2.69-.97-3.54-1.23-.44-.13-.54-.95.09-1.22s2.27-.54,2.99-.72c.72-.18,2.08-1.54-.14-1.9s-5.03-.77-7.56-.82c-2.54-.04-4.13-.27-4.99-.54-.7-.22-1.42-.47-2.08-1.05-.35-.3-.13-1.04,1.14-1.18l2.09-.13c8.52,0,33.37.33,36.47.5,3.1.17,11.83-.29,16.11-.28,1.92,0,4.3.37,5,.37s1.87.52,2.49,1.04c.74.62,2.13,2.45,5.8,2.79,3.8.35,9.09,0,11.92-.34,2.51-.3,7.34-.09,8.57-.09s5.24-.48,6.33-.48,3.16-.07,3.91-.07,3.13-.25,3.94-.25.7.61-.05.75-4.53.34-6.16,1.22c-1.63.89-2.42,1.97-2.49,2.79-.07.81,1.43,2.11,3.26,2.58,1.83.48,3.17.71,4.21.84,1.33.16,2.02-.02,2.79-.09.9-.09,4.69-.48,5.57-.41.88.07,1.02.95.34,1.41"/>
    <path class="st2" d="M199.82,143.2c-.8.46-3.36,1.59-3.8,1.77-1.72.73-2.27,1.36-6.07,2.99-3.81,1.63-10.97,4.53-20.03,5.8s-21.3,2.27-24.83,2.9c-3.53.63-19.48,2.63-24.2,2.99-4.71.36-18.4,0-21.57-.27s-24.83-.63-29-1c-4.17-.36-11.47-1.26-13.19-1.44-2.51-.25-4.02-.22-4.65-1.5-1.05-2.15-3.32-11.21-1.63-18.87,1.7-7.71,9.14-16.26,10.59-18.52.95-1.48,11.24-12.1,19.58-21.1,4.43-4.78,7.89-8.89,10.04-11.39,6.06-7.05,7.9-10.69,10.79-18.42,3.12-8.34,1.13-13.08-.71-15.89-1.78-2.72-4.51-3.23-5.65-3.63-2.52-.89-8.77.11-11.29,3.9-1.81,2.72-2.87,5.5-3.43,6.71-.53,1.14-4.09,5.62-5.54,7.07-1.45,1.45-1.79,1.83-2.16,2.38-.61.91-2,2.35-2.83,3.52-1.2,1.7-1.22,3.83-1.81,5.26-.6,1.45-2.02,5.09-3.33,8.85-1.27,3.63-2.92,6.99-3.65,8.08-.72,1.09-.81,1.65-1.63,2.29s-1.49.35-1.49.35c-1.09-.18-1.5-1.71-1.68-2.61-.18-.91-.45-6.98-.54-8.43s.2-5.43.38-6.06.3-1.32.75-1.62c0,0-1.54-1.35-2.93-4.36-1.58-3.43-2.01-4.18-2.46-11.8-.45-7.61.18-12.15.82-15.68.63-3.54,3.72-9.34,7.16-12.78,3.44-3.44,4.14-2.97,6.16-4.26,1.99-1.27,11.38-6.56,19.58-8.07,9.59-1.76,20.18-1.07,30.2,4.85,6.59,3.89,12.53,12.52,13.66,25.16.47,5.24-.27,14.31-2.17,22.56-1.9,8.25-6.8,21.84-11.6,30.18l-.75,1.48c-8.16,14.1-10.12,16.53-15.75,25.45-1.86,2.96-3.3,5.66-4.02,6.69-2.99,4.26-3.3,4.59-2.89,5.69.27.72,3.9-1.54,4.62-2.36.73-.81,7.7-10.78,10.24-15.41,2.54-4.62,6.98-11.33,8.25-13.6,1.27-2.26,9.24-16.59,10.33-18.22,1.09-1.63,3.12-5.45,5.03-8.08,2.03-2.79,14.21-11.39,16.47-12.93,2.27-1.54,12.15-8.25,14.23-10.15s11.42-7.25,13.96-8.7c2.54-1.45,12.11-4.96,13.41-5.62,1.12-.57,1.47-.77,1.47-.77,0,0,2.52,3.33,5.66,9.25,5.3,9.98,11.65,26.32,11.69,48.27.03,22.24-7.78,39.09-7.78,39.09"/>
    <path class="st1" d="M61.62,47.58c3.75-.39,1.18,10.07,1.98,12.64.79,2.57,2.37,1.98,3.16,5.33.79,3.35-.2,8.69-.79,10.67-.51,1.69-3.36,9.88-4.74,12.64-.54,1.07-2.77,4.54-2.77.4s-.59-8.3,0-9.68,3.56-3.16,3.75-5.14c.2-1.98-.79-8.49-2.17-8.69-1.38-.2-1.38,6.52-.99,8.3.39,1.78-3.36,1.58-3.36,1.58l-1.38-1.97s1.18.39,1.98-.59c.79-.99-1.29-5.14-1.38-8.5-.2-6.91,3.52-16.65,6.72-16.99"/>
    <path class="st1" d="M183.76,60.31c-.26.08-3.85,1.99-4.68,2.33-.83.34-6.07,2.24-7.54,3.04-1.69.93-4.11,2.39-5.86,3.16-1.3.57-4.21,1.99-5.68,2.74-1.47.75-5.69,2.54-6.78,2.84-1.09.3-2.06,1.12-2.32.64-.19-.35-.12-.78-.12-.78.27-1.02,1.92-2.45,2.82-3.31.62-.6,1.87-1.09,2.53-1.55.73-.51,1.95-1.06,2.76-1.74.82-.69,2.35-1.57,3.75-2.4,1.39-.83,7.53-4.87,8.56-5.74,1.01-.86,2.95-1.81,4.81-2.71,1.09-.53,3.12-1.77,5.23-2.14,2.11-.38,2.97-.79,3.8-.56s1.37.61,1.89,1.24c.53.64,1.5,1.77.75,2.71s-1.19,1.44-3.91,2.22"/>
  </g>
  <g>
    <path class="st0" d="M241.65,87.25c-6-5.27-7.59-12.11-7.59-18.05,0-4.16,1.28-11.38,7.16-16.77,4.41-4.04,10.21-6.48,19.32-6.48,3.79,0,6.06.25,8.87.61,2.32.31,4.28.86,6.11,1.04.68.07.91.37.91.73,0,.48-.18,1.23-.31,3.36-.12,2.02-.07,5.38-.18,6.61-.07.91-.18,1.41-.73,1.41-.48,0-.61-.5-.61-1.34-.07-1.89-.86-4.04-2.39-5.63-2.02-2.14-6.79-3.79-12.41-3.79-5.32,0-8.81,1.34-11.5,3.79-4.46,4.09-5.63,9.91-5.63,15.84,0,14.55,11.07,21.77,19.27,21.77,5.45,0,8.75-.61,11.19-3.43,1.04-1.16,1.84-2.93,2.09-4.04.18-.98.3-1.23.8-1.23.43,0,.55.43.55.93,0,.73-.73,6.05-1.34,8.14-.31,1.04-.55,1.34-1.59,1.77-2.45.98-7.09,1.41-11,1.41-8.38,0-15.41-1.84-20.98-6.66"/>
    <path class="st0" d="M289.67,64.55c0-9.3,0-11.02-.12-12.97-.12-2.09-.61-3.06-2.63-3.48-.5-.12-1.53-.18-2.39-.18-.68,0-1.04-.12-1.04-.55s.43-.55,1.34-.55c3.25,0,7.09.18,8.81.18,1.96,0,14.13,0,15.29-.07,1.16-.12,2.14-.25,2.63-.37.31-.07.68-.25.98-.25s.37.25.37.55c0,.43-.3,1.16-.48,3.98-.07.61-.18,3.3-.31,4.04-.07.31-.18.66-.61.66s-.55-.3-.55-.86c0-.43-.07-1.46-.37-2.2-.43-1.1-1.04-1.84-4.09-2.2-1.04-.12-7.46-.25-8.68-.25-.31,0-.43.18-.43.61v15.48c0,.43.07.68.43.68,1.34,0,8.38,0,9.79-.12,1.47-.12,2.39-.31,2.93-.91.43-.5.68-.8.98-.8.25,0,.43.12.43.5s-.3,1.34-.48,4.46c-.12,1.23-.25,3.66-.25,4.09,0,.5,0,1.16-.55,1.16-.43,0-.55-.25-.55-.55-.07-.61-.07-1.41-.25-2.2-.31-1.23-1.16-2.14-3.43-2.39-1.16-.12-7.22-.18-8.68-.18-.3,0-.37.25-.37.61v4.84c0,2.09-.07,7.71,0,9.48.12,4.22,1.1,5.14,7.34,5.14,1.59,0,4.16,0,5.75-.73s2.32-2.02,2.75-4.52c.12-.66.25-.91.68-.91.5,0,.5.5.5,1.1,0,1.41-.5,5.57-.8,6.79-.43,1.59-.98,1.59-3.3,1.59-9.23,0-13.34-.37-16.95-.37-1.41,0-5.25.18-7.71.18-.8,0-1.23-.18-1.23-.61,0-.31.25-.5.98-.5.91,0,1.66-.12,2.2-.25,1.23-.25,1.53-1.59,1.77-3.36.31-2.57.31-7.41.31-13.03v-10.77"/>
    <path class="st0" d="M328.33,64.55c0-9.3,0-11.02-.12-12.97-.12-2.09-.61-3.06-2.63-3.48-.48-.12-1.53-.18-2.39-.18-.68,0-1.04-.12-1.04-.55s.43-.55,1.34-.55c3.25,0,7.09.18,8.8.18,1.89,0,5.75-.18,9.43-.18,7.64,0,17.86,0,24.53,6.98,3.06,3.18,5.93,8.25,5.93,15.54,0,7.71-3.25,13.59-6.66,17.07-2.82,2.87-9.18,7.22-20.5,7.22-4.46,0-9.97-.73-13.03-.73-1.41,0-5.27.18-7.71.18-.8,0-1.23-.18-1.23-.61,0-.31.25-.5.98-.5.91,0,1.66-.12,2.2-.25,1.23-.25,1.53-1.59,1.77-3.36.31-2.57.31-7.41.31-13.03v-10.77M335.97,71.28c0,6.48.07,11.2.12,12.36.07,1.53.18,3.98.68,4.65.8,1.16,3.18,2.45,8.02,2.45,6.25,0,10.4-1.23,14.07-4.41,3.91-3.36,5.14-8.93,5.14-15.23,0-7.77-3.25-12.78-5.87-15.29-5.63-5.38-12.6-6.11-17.37-6.11-1.23,0-3.48.18-3.98.43-.55.25-.73.55-.73,1.23-.07,2.07-.07,7.41-.07,12.23v7.71h-.01Z"/>
    <path class="st0" d="M388.03,77.1c-.31,0-.43.12-.55.48l-3.3,8.75c-.61,1.53-.91,3-.91,3.73,0,1.1.55,1.89,2.45,1.89h.91c.73,0,.91.12.91.5,0,.48-.37.61-1.04.61-1.96,0-4.59-.18-6.48-.18-.68,0-4.04.18-7.22.18-.8,0-1.16-.12-1.16-.61,0-.37.25-.5.73-.5.55,0,1.41-.07,1.89-.12,2.82-.37,3.98-2.45,5.2-5.5l15.36-38.41c.73-1.77,1.1-2.45,1.71-2.45.55,0,.91.55,1.53,1.96,1.47,3.36,11.25,28.32,15.16,37.62,2.32,5.5,4.09,6.36,5.38,6.66.91.18,1.84.25,2.57.25.48,0,.8.07.8.5,0,.48-.55.61-2.82.61s-6.66,0-11.57-.12c-1.1-.07-1.84-.07-1.84-.48,0-.37.25-.5.86-.55.43-.12.86-.68.55-1.41l-4.89-12.97c-.12-.31-.3-.43-.61-.43h-13.64M400.51,74.03c.31,0,.37-.18.31-.37l-5.5-15.11c-.07-.25-.12-.55-.31-.55s-.3.3-.37.55l-5.63,15.05c-.07.25,0,.43.25.43h11.25Z"/>
    <path class="st0" d="M428.4,64.55c0-9.3,0-11.02-.12-12.97-.12-2.09-.61-3.06-2.63-3.48-.5-.12-1.53-.18-2.39-.18-.68,0-1.04-.12-1.04-.55s.43-.55,1.34-.55c3.25,0,7.09.18,8.38.18,2.07,0,6.73-.18,8.62-.18,3.86,0,7.95.37,11.25,2.63,1.71,1.16,4.16,4.29,4.16,8.38,0,4.52-1.89,8.68-8.07,13.7,5.45,6.85,9.66,12.3,13.27,16.09,3.43,3.55,5.93,3.98,6.86,4.16.68.12,1.23.18,1.71.18s.73.18.73.5c0,.48-.43.61-1.16.61h-5.82c-3.43,0-4.95-.3-6.55-1.16-2.63-1.41-4.95-4.28-8.38-9-2.45-3.36-5.25-7.52-6.05-8.44-.31-.37-.68-.43-1.1-.43l-5.32-.12c-.3,0-.5.12-.5.5v.86c0,5.68,0,10.52.31,13.09.18,1.77.55,3.12,2.39,3.36.91.12,2.27.25,3,.25.5,0,.73.18.73.5,0,.43-.43.61-1.23.61-3.55,0-8.07-.18-9-.18-1.16,0-5.02.18-7.46.18-.8,0-1.23-.18-1.23-.61,0-.31.25-.5.98-.5.91,0,1.66-.12,2.2-.25,1.23-.25,1.53-1.59,1.77-3.36.3-2.57.3-7.41.3-13.03v-10.77M435.62,69.39c0,.68.12.91.55,1.1,1.28.43,3.12.61,4.65.61,2.45,0,3.25-.25,4.34-1.04,1.84-1.34,3.61-4.16,3.61-9.18,0-8.68-5.75-11.2-9.36-11.2-1.53,0-2.63.07-3.25.25-.43.12-.55.37-.55.86v18.59h0Z"/>
    <g>
      <path class="st0" d="M243.95,111.87c.18-1.04.55-1.59,1.04-1.59s.86.3,1.66,1.89l16.7,34.5,16.64-34.93c.43-.98.8-1.46,1.34-1.46s.91.61,1.1,1.89l5.57,37.8c.55,3.86,1.16,5.63,3,6.18,1.77.55,3,.61,3.79.61.55,0,.98.07.98.43,0,.5-.73.68-1.59.68-1.53,0-9.97-.18-12.41-.37-1.41-.12-1.77-.31-1.77-.68,0-.3.25-.5.68-.68.37-.12.55-.91.3-2.63l-3.66-26.91h-.25l-13.34,27.77c-1.41,2.88-1.71,3.43-2.27,3.43s-1.16-1.23-2.14-3.05c-1.47-2.82-6.3-12.18-7.03-13.89-.55-1.29-4.22-9-6.36-13.57h-.25l-3.18,24.34c-.12,1.1-.18,1.89-.18,2.87,0,1.16.8,1.71,1.84,1.96,1.1.25,1.96.3,2.57.3.5,0,.91.12.91.43,0,.55-.55.68-1.47.68-2.57,0-5.32-.18-6.43-.18s-4.09.18-6.05.18c-.61,0-1.1-.12-1.1-.68,0-.3.37-.43.98-.43.48,0,.91,0,1.84-.18,1.71-.37,2.2-2.75,2.5-4.84l6.05-39.88"/>
      <path class="st0" d="M305.49,129.36c0-9.3,0-11.02-.12-12.97-.12-2.09-.61-3.06-2.63-3.48-.48-.12-1.53-.18-2.39-.18-.68,0-1.04-.12-1.04-.55s.43-.55,1.34-.55c3.25,0,7.09.18,8.81.18,1.96,0,14.13,0,15.29-.07,1.16-.12,2.14-.25,2.63-.37.31-.07.68-.25.98-.25s.37.25.37.55c0,.43-.31,1.16-.5,3.98-.07.61-.18,3.3-.3,4.04-.07.31-.18.66-.61.66s-.55-.3-.55-.86c0-.43-.07-1.46-.37-2.2-.43-1.1-1.04-1.84-4.09-2.2-1.04-.12-7.46-.25-8.68-.25-.3,0-.43.18-.43.61v15.48c0,.43.07.68.43.68,1.34,0,8.38,0,9.79-.12,1.47-.12,2.39-.31,2.93-.91.43-.5.68-.8.98-.8.25,0,.43.12.43.5s-.31,1.34-.5,4.46c-.12,1.23-.25,3.66-.25,4.09,0,.5,0,1.16-.55,1.16-.43,0-.55-.25-.55-.55-.07-.61-.07-1.41-.25-2.2-.31-1.23-1.16-2.14-3.43-2.39-1.16-.12-7.22-.18-8.68-.18-.31,0-.37.25-.37.61v4.84c0,2.09-.07,7.71,0,9.48.12,4.22,1.11,5.14,7.34,5.14,1.59,0,4.16,0,5.75-.73s2.32-2.02,2.75-4.52c.12-.66.25-.91.68-.91.5,0,.5.5.5,1.1,0,1.41-.5,5.57-.8,6.79-.43,1.59-.98,1.59-3.3,1.59-9.23,0-13.34-.37-16.95-.37-1.41,0-5.25.18-7.71.18-.8,0-1.23-.18-1.23-.61,0-.31.25-.5.98-.5.91,0,1.66-.12,2.2-.25,1.23-.25,1.53-1.59,1.77-3.36.3-2.57.3-7.41.3-13.03v-10.77"/>
      <path class="st0" d="M346.41,111.87c.18-1.04.55-1.59,1.04-1.59s.86.3,1.66,1.89l16.7,34.5,16.64-34.93c.43-.98.8-1.46,1.34-1.46s.91.61,1.1,1.89l5.57,37.8c.55,3.86,1.16,5.63,3,6.18,1.77.55,3,.61,3.79.61.55,0,.98.07.98.43,0,.5-.73.68-1.59.68-1.53,0-9.97-.18-12.41-.37-1.41-.12-1.77-.31-1.77-.68,0-.3.25-.5.66-.68.37-.12.55-.91.31-2.63l-3.66-26.91h-.25l-13.34,27.77c-1.41,2.88-1.71,3.43-2.27,3.43s-1.16-1.23-2.14-3.05c-1.47-2.82-6.3-12.18-7.03-13.89-.55-1.29-4.22-9-6.36-13.57h-.25l-3.18,24.34c-.12,1.1-.18,1.89-.18,2.87,0,1.16.8,1.71,1.84,1.96,1.1.25,1.96.3,2.57.3.48,0,.91.12.91.43,0,.55-.55.68-1.47.68-2.57,0-5.32-.18-6.43-.18s-4.09.18-6.06.18c-.61,0-1.1-.12-1.1-.68,0-.3.37-.43.98-.43.5,0,.91,0,1.84-.18,1.71-.37,2.2-2.75,2.5-4.84l6.05-39.88"/>
      <path class="st0" d="M398.52,134.74c0-10.46,6.91-23.98,25.26-23.98,15.23,0,24.71,8.87,24.71,22.88s-9.79,25.07-25.32,25.07c-17.56,0-24.66-13.16-24.66-23.98M439.93,135.9c0-13.7-7.89-22.2-17.93-22.2-7.04,0-15.05,3.91-15.05,19.14,0,12.73,7.04,22.82,18.78,22.82,4.28,0,14.2-2.07,14.2-19.75h0Z"/>
      <path class="st0" d="M461.3,129.36c0-9.3,0-11.02-.12-12.97-.12-2.09-.61-3.06-2.63-3.48-.48-.12-1.53-.18-2.39-.18-.68,0-1.04-.12-1.04-.55s.43-.55,1.34-.55c3.25,0,7.09.18,8.38.18,2.07,0,6.73-.18,8.62-.18,3.86,0,7.95.37,11.25,2.63,1.71,1.16,4.16,4.29,4.16,8.38,0,4.52-1.89,8.68-8.07,13.7,5.45,6.85,9.66,12.3,13.27,16.09,3.43,3.55,5.93,3.98,6.85,4.16.68.12,1.23.18,1.71.18s.73.18.73.5c0,.48-.43.61-1.16.61h-5.82c-3.43,0-4.95-.3-6.55-1.16-2.63-1.41-4.95-4.28-8.38-9-2.45-3.36-5.25-7.52-6.05-8.44-.31-.37-.68-.43-1.1-.43l-5.32-.12c-.3,0-.48.12-.48.5v.86c0,5.68,0,10.52.3,13.09.18,1.77.55,3.12,2.39,3.36.91.12,2.27.25,3,.25.48,0,.73.18.73.5,0,.43-.43.61-1.23.61-3.55,0-8.07-.18-9-.18-1.16,0-5.02.18-7.46.18-.8,0-1.23-.18-1.23-.61,0-.31.25-.5.98-.5.91,0,1.66-.12,2.2-.25,1.23-.25,1.53-1.59,1.77-3.36.3-2.57.3-7.41.3-13.03v-10.77M468.51,134.19c0,.68.12.91.55,1.1,1.28.43,3.12.61,4.65.61,2.45,0,3.25-.25,4.34-1.04,1.84-1.34,3.61-4.16,3.61-9.18,0-8.68-5.75-11.2-9.36-11.2-1.53,0-2.63.07-3.25.25-.43.12-.55.37-.55.86v18.59h0Z"/>
      <path class="st0" d="M507.47,129.36c0-9.3,0-11.02-.12-12.97-.12-2.09-.73-3.12-2.07-3.43-.68-.18-1.47-.25-2.2-.25-.61,0-.98-.12-.98-.61,0-.37.5-.5,1.47-.5,2.32,0,6.18.18,7.95.18,1.53,0,5.14-.18,7.47-.18.8,0,1.28.12,1.28.5,0,.48-.37.61-.98.61s-1.11.07-1.84.18c-1.66.31-2.14,1.34-2.27,3.48-.12,1.96-.12,3.66-.12,12.97v10.77c0,5.93,0,10.77.25,13.4.18,1.66.61,2.75,2.45,3,.86.12,2.2.25,3.12.25.68,0,.98.18.98.5,0,.43-.5.61-1.16.61-4.04,0-7.89-.18-9.54-.18-1.41,0-5.27.18-7.71.18-.8,0-1.23-.18-1.23-.61,0-.31.25-.5.98-.5.91,0,1.66-.12,2.2-.25,1.23-.25,1.59-1.29,1.77-3.06.3-2.57.3-7.41.3-13.34v-10.77"/>
      <path class="st0" d="M537.58,141.9c-.3,0-.43.12-.55.48l-3.3,8.75c-.61,1.53-.91,3-.91,3.73,0,1.1.55,1.89,2.45,1.89h.91c.73,0,.91.12.91.5,0,.48-.37.61-1.04.61-1.96,0-4.59-.18-6.48-.18-.68,0-4.04.18-7.22.18-.8,0-1.16-.12-1.16-.61,0-.37.25-.5.73-.5.55,0,1.41-.07,1.89-.12,2.82-.37,3.98-2.45,5.2-5.5l15.36-38.41c.73-1.77,1.1-2.45,1.71-2.45.55,0,.91.55,1.53,1.96,1.47,3.36,11.25,28.32,15.16,37.62,2.32,5.5,4.09,6.36,5.38,6.66.93.18,1.84.25,2.57.25.48,0,.8.07.8.5,0,.48-.55.61-2.82.61s-6.66,0-11.57-.12c-1.11-.07-1.84-.07-1.84-.48,0-.37.25-.5.86-.55.43-.12.86-.68.55-1.41l-4.89-12.97c-.12-.31-.31-.43-.61-.43h-13.64M550.05,138.85c.31,0,.37-.18.31-.37l-5.5-15.11c-.07-.25-.12-.55-.31-.55s-.31.3-.37.55l-5.63,15.05c-.07.25,0,.43.25.43h11.25Z"/>
      <path class="st0" d="M585.6,140.13c0,7.82,0,12.05,1.28,13.16,1.04.91,2.63,1.34,7.41,1.34,3.25,0,5.63-.07,7.16-1.72.73-.8,1.47-2.5,1.59-3.66.07-.55.18-.91.68-.91.43,0,.48.31.48,1.04,0,.68-.43,5.27-.91,7.04-.37,1.34-.68,1.66-3.86,1.66-8.81,0-12.84-.37-17.8-.37-1.41,0-5.27.18-7.71.18-.8,0-1.23-.18-1.23-.61,0-.31.25-.5.98-.5.91,0,1.66-.12,2.2-.25,1.23-.25,1.53-1.59,1.77-3.36.3-2.57.3-7.41.3-13.03v-10.77c0-9.3,0-11.02-.12-12.97-.12-2.09-.61-3.06-2.63-3.48-.5-.12-1.23-.18-2.02-.18-.68,0-1.04-.12-1.04-.55s.43-.55,1.34-.55c2.87,0,6.73.18,8.38.18,1.47,0,5.93-.18,8.32-.18.86,0,1.28.12,1.28.55s-.37.55-1.1.55c-.68,0-1.66.07-2.39.18-1.66.31-2.14,1.34-2.27,3.48-.12,1.96-.12,3.66-.12,12.97v10.77"/>
    </g>
  </g>
</svg>