<svg xmlns="http://www.w3.org/2000/svg" xmlns:xlink="http://www.w3.org/1999/xlink" width="677.882" height="462.195" viewBox="0 0 677.882 462.195">
  <defs>
    <clipPath id="clip-path">
      <rect id="Rectangle_6062" data-name="Rectangle 6062" width="397.491" height="639.838" fill="#595959"/>
    </clipPath>
  </defs>
  <g id="Group_4799" data-name="Group 4799" transform="matrix(0.105, -0.995, 0.995, 0.105, 0, 395.314)" opacity="0.339">
    <g id="Group_4798" data-name="Group 4798" clip-path="url(#clip-path)">
      <g id="Group_4797" data-name="Group 4797">
        <g id="Group_4796" data-name="Group 4796" clip-path="url(#clip-path)">
          <g id="Group_4795" data-name="Group 4795" opacity="0.6">
            <g id="Group_4794" data-name="Group 4794">
              <g id="Group_4793" data-name="Group 4793" clip-path="url(#clip-path)">
                <path id="Path_17937" data-name="Path 17937" d="M157.635,462.984c1.119-.882-.684-4.666-3.881-8.568-3.177-3.884-6.589-6.472-7.747-5.666-1.156.843.373,4.8,3.628,8.764,3.235,3.962,6.883,6.354,8,5.47m-8.941,53.905c1.687-1.687-.647-6.469-5-10.921-4.373-4.431-9.2-6.9-11-5.373-1.824,1.608.158,6.726,4.628,11.274,4.49,4.53,9.648,6.706,11.373,5.02m12.628-36.139c1.176-1.059-.824-4.962-4.313-8.863-3.51-3.884-7.217-6.333-8.472-5.373-1.275,1,.469,5.118,4.04,9.08,3.548,3.96,7.53,6.215,8.745,5.157m-18.471,79.71c4.863,4.138,10.431,5.491,12.257,3.254,1.8-2.156-.727-7-5.432-11-4.727-4-10-5.706-11.923-3.646-1.962,2.1.255,7.293,5.1,11.391m8.726-21.257c1.7-1.862-.667-6.588-5.119-10.745-4.471-4.138-9.413-6.2-11.256-4.451-1.861,1.8.2,6.843,4.785,11.1,4.57,4.256,9.845,6,11.59,4.1m14.981-66.316c-1.02.9.824,4.53,4.235,8,3.452,3.472,7.1,5.433,8.06,4.472.96-.942-1.079-4.373-4.452-7.805-3.373-3.411-6.823-5.548-7.843-4.666m-3.471-16.393c-.9.745.667,4.04,3.628,7.315s6.118,5.255,6.979,4.49c.844-.745-.882-3.922-3.8-7.139-2.9-3.235-5.9-5.353-6.8-4.666M146.4,587.874c4.647,3.568,9.921,4.432,11.687,2.1,1.707-2.3-.647-6.846-5.2-10.295-4.51-3.492-9.57-4.648-11.393-2.452-1.882,2.235.254,7.078,4.9,10.648m19.275-88.279c1.275-1.275-.98-5.432-4.921-9.413-3.922-4-8.1-6.372-9.472-5.177-1.391,1.216.609,5.608,4.608,9.686,4.02,4.08,8.452,6.2,9.785,4.9m-5.881,15.2c4.235,3.922,8.881,5.765,10.234,4.275,1.333-1.452-1.058-5.608-5.2-9.452s-8.529-5.941-9.941-4.588c-1.45,1.412.667,5.843,4.9,9.765m50.57,67.2c1.1-1.8-1.608-5.334-5.921-8.078-4.315-2.687-8.686-3.608-9.863-1.844-1.2,1.766,1.353,5.588,5.725,8.354,4.431,2.765,8.961,3.411,10.06,1.568m8.295,23.707c1.119-2.1-1.707-5.747-6.255-8.315-4.529-2.548-9.1-3.118-10.335-1.078-1.215,2.058,1.472,5.979,6.1,8.608s9.355,2.884,10.491.785m-62,3.608c-4.608-3.216-9.784-3.923-11.648-1.414-1.922,2.55.275,7.452,5.02,10.767,4.747,3.293,10.118,3.686,11.923,1.038,1.745-2.588-.667-7.156-5.295-10.391m36.337-51.14c4.607,3.2,9.393,4.235,10.55,2.47,1.176-1.725-1.629-5.548-6.139-8.686-4.51-3.119-9.06-4.452-10.315-2.786-1.293,1.687,1.3,5.805,5.9,9m27.824,65.63c-3.942-2-7.921-2.116-8.941-.156-1.04,1.982,1.333,5.333,5.353,7.373,4.02,2.02,8.1,1.942,9.06-.078.942-2-1.53-5.157-5.471-7.139M191.4,612.09c1.333-2.215-1.217-6.119-5.57-8.863-4.372-2.745-8.979-3.353-10.411-1.195-1.472,2.175.881,6.354,5.353,9.156,4.469,2.823,9.254,3.139,10.628.9M164.067,536.3c4.59,3.884,9.61,5.452,11.059,3.707,1.412-1.727-1.176-6.04-5.666-9.824-4.49-3.765-9.217-5.647-10.746-4.021-1.548,1.649.8,6.276,5.353,10.138m16,25.688c1.373-1.9-1.195-6.058-5.667-9.51-4.489-3.411-9.237-4.9-10.746-3.1-1.528,1.823.844,6.295,5.431,9.823s9.55,4.686,10.982,2.785m5.9,24.2c1.45-2.156-1.3-6.431-5.982-9.706-4.706-3.275-9.686-4.393-11.254-2.313-1.588,2.136.922,6.724,5.745,10.077,4.8,3.354,10.019,4.139,11.491,1.942m.626-49.141c4.255,3.255,8.648,4.55,9.785,3.079,1.06-1.49-1.47-5.116-5.628-8.313s-8.371-4.745-9.548-3.334c-1.2,1.412,1.176,5.334,5.391,8.568m79.672,33.18c3.568,1.588,6.863,1.861,7.333.7s-2.02-3.293-5.53-4.863c-3.509-1.588-6.764-2.038-7.293-.9-.51,1.138,1.922,3.431,5.49,5.06m11.491,17.1c3.215,1.275,6.156,1.315,6.568.176.412-1.116-1.863-3-5.04-4.255-3.176-1.234-6.078-1.431-6.529-.313s1.785,3.136,5,4.391m-15.375-32.687c.452-.942-1.745-2.922-4.863-4.51s-6-2.177-6.489-1.235c-.49.922,1.628,3.059,4.8,4.626,3.137,1.609,6.078,2.06,6.548,1.119M245.877,573.5c3.744,1.922,7.333,2.293,7.961.96.606-1.313-1.924-3.8-5.608-5.686-3.707-1.864-7.2-2.432-7.883-1.157-.667,1.313,1.765,3.98,5.53,5.883m57.807,8.7c.293-1-1.941-2.568-4.962-3.626-3.02-1.04-5.706-1.118-6.06-.156-.333,1,1.863,2.7,4.924,3.765,3.058,1.038,5.783,1.02,6.1.018m-.04-19.138c2.373.806,4.471.9,4.666.235s-1.568-1.823-3.9-2.626c-2.353-.8-4.431-.962-4.646-.3-.217.649,1.51,1.864,3.881,2.687M143.028,475.829c1.49-1.2-.452-5.706-4.138-10.237-3.725-4.53-7.823-7.432-9.391-6.333-1.588,1.118.058,5.863,3.823,10.51,3.785,4.608,8.217,7.275,9.706,6.06M244.582,556.99c.667-1.275-1.98-3.982-5.863-6.2-3.863-2.2-7.568-3.06-8.295-1.824-.765,1.235,1.765,4.157,5.706,6.392s7.747,2.9,8.452,1.629m-99.006-61.395c1.55-1.393-.548-5.962-4.489-10.414-4-4.411-8.394-7.1-10.04-5.8-1.687,1.313.1,6.177,4.157,10.707s8.784,6.941,10.373,5.51m51.514,3.156c-3.451-2.922-6.863-4.608-7.726-3.686-.882.922,1.176,4.2,4.706,7.139,3.51,2.96,7.078,4.469,7.9,3.489.8-.98-1.411-4.04-4.881-6.941m-26.2-8.295c-1.079,1.059.941,4.765,4.628,8.2,3.705,3.411,7.609,5.177,8.627,4.078s-1.195-4.607-4.843-7.959c-3.626-3.373-7.353-5.353-8.411-4.315m9.784,26.983c4.177,3.509,8.57,5.156,9.687,3.783,1.118-1.333-1.412-5.1-5.51-8.53-4.1-3.45-8.275-5.354-9.451-4.1-1.216,1.3,1.1,5.315,5.274,8.845m3.666-38.356c-.765.745.98,3.666,3.982,6.431s6.078,4.315,6.8,3.55-1.176-3.55-4.118-6.295c-2.98-2.725-5.921-4.412-6.667-3.686m39.513,98.044c4.373,2.49,8.726,3.02,9.628,1.333.882-1.667-1.961-4.864-6.275-7.313-4.275-2.452-8.491-3.217-9.451-1.608-1,1.646,1.7,5.118,6.1,7.588M215.4,556.677c4.058,2.568,8.118,3.371,8.982,1.922.841-1.393-1.766-4.472-5.767-7-4-2.49-7.9-3.528-8.823-2.157s1.549,4.686,5.608,7.237m6.255-38.866c-3.391-2.371-6.666-3.608-7.373-2.687-.687.942,1.49,3.727,4.922,6.119,3.452,2.411,6.845,3.471,7.512,2.509.626-.96-1.649-3.588-5.061-5.941m-18.019-2.275c-3.628-2.765-7.2-4.275-8.081-3.215s1.313,4.294,4.983,7.119,7.411,4.116,8.234,3.02-1.53-4.158-5.136-6.924m104.985,31.846c1.51.51,2.823.626,2.942.254.1-.373-1.02-1.078-2.53-1.588-1.489-.53-2.8-.649-2.922-.3-.118.374,1,1.118,2.51,1.629m-101.084-9.689c4.1,2.846,8.234,3.982,9.118,2.649s-1.745-4.57-5.764-7.373c-4.04-2.8-8-4.138-8.941-2.884-.982,1.275,1.469,4.765,5.588,7.608m14.8-5.822c-.687,1.02,1.548,3.744,5.04,5.921,3.489,2.216,6.9,3.06,7.548,2,.629-1.038-1.7-3.568-5.157-5.745-3.451-2.156-6.744-3.2-7.431-2.176M153.813,397.745c-.391.2.2,1.884,1.313,3.727,1.138,1.844,2.373,3.157,2.765,2.942s-.215-1.863-1.353-3.707c-1.116-1.823-2.333-3.157-2.724-2.962m-.9-23.569c.137-.059-.04-.667-.391-1.353-.315-.705-.727-1.2-.844-1.157-.138.058.038.667.371,1.353.354.687.725,1.215.864,1.157m12.883,23.1c.117-.079-.078-.629-.472-1.255-.371-.629-.783-1.079-.922-1.02-.116.058.1.629.492,1.255.372.628.783,1.078.9,1.02m-13.256-12.8c-.235.116.1,1.293.824,2.588.727,1.313,1.53,2.255,1.8,2.136.255-.136-.118-1.293-.844-2.588s-1.489-2.254-1.785-2.136m2.884,26.962c-.551.333.275,2.51,1.881,4.881s3.374,4,3.9,3.667c.51-.333-.373-2.47-1.982-4.823s-3.273-4.02-3.8-3.725m4.548,29.276c-.8.588.57,3.608,3.1,6.725,2.55,3.1,5.315,5.08,6.08,4.471s-.727-3.529-3.255-6.608c-2.492-3.078-5.118-5.138-5.923-4.588m25.786-7.216c.217-.157-.333-1.137-1.195-2.2s-1.727-1.8-1.942-1.646c-.216.176.313,1.156,1.177,2.235.843,1.06,1.765,1.765,1.96,1.609m-15.06-9.118c1.235,1.626,2.51,2.745,2.843,2.509.353-.234-.392-1.725-1.588-3.353-1.215-1.628-2.47-2.765-2.8-2.53-.353.216.333,1.745,1.548,3.373M169.46,412.06c.235-.137-.255-1.235-1.058-2.432s-1.649-2.058-1.9-1.922c-.234.139.217,1.235,1.04,2.452.824,1.2,1.687,2.038,1.922,1.9m-46,204.815c-4.3-3.314-9.432-4.021-11.57-1.412-2.215,2.646-.49,7.686,3.922,11.08,4.413,3.411,9.766,3.8,11.863,1.058,2-2.686.08-7.432-4.215-10.726m4.489-193.8c-1.254.727-.058,4.884,2.844,9.2s6.393,7.1,7.628,6.295c1.217-.783-.235-4.785-3.1-9.019-2.881-4.255-6.1-7.177-7.374-6.472m51.631,40.4c-.7.626.824,3.372,3.51,6.058,2.646,2.707,5.411,4.3,6.078,3.666.649-.647-1-3.275-3.646-5.921-2.628-2.687-5.255-4.411-5.941-3.8m-51.845-56.984c-1.119.568-.157,4.354,2.333,8.374,2.451,4.038,5.431,6.744,6.53,6.136,1.058-.606-.157-4.275-2.568-8.255-2.432-3.962-5.179-6.785-6.295-6.255m26.354,39.021c.941-.7-.551-4.117-3.237-7.765-2.725-3.628-5.626-6.1-6.626-5.471-1.02.649.273,4.217,3.02,7.9s5.861,6.02,6.843,5.333m-26.65-146.771a2.066,2.066,0,0,0,.02-.805,2.924,2.924,0,0,0-.313-.783,2.309,2.309,0,0,0,.293,1.588m13.628,88.338c-.569.273.04,2.548,1.431,5.1,1.411,2.548,3.06,4.353,3.608,4.079.568-.275-.157-2.53-1.53-5.058-1.391-2.51-2.94-4.353-3.509-4.118m.666,14.392c-.725.372.119,3.137,1.942,6.119,1.824,3,3.942,5.058,4.648,4.666s-.255-3.078-2.06-6.04c-1.823-2.962-3.8-5.1-4.53-4.745M128.6,440.689c-1.412.9-.019,5.334,3.3,9.825,3.353,4.47,7.254,7.2,8.628,6.215,1.333-.98-.333-5.215-3.608-9.588-3.255-4.412-6.9-7.315-8.315-6.452m-5.412,142.145c-4.745-4-10.353-5.353-12.687-2.823-2.411,2.608-.55,8.216,4.334,12.352s10.824,5.119,13.059,2.391c2.215-2.646.039-7.9-4.706-11.921m147.44-59.024c1.47.747,2.8,1.06,2.96.727.177-.333-.9-1.176-2.333-1.941-1.49-.725-2.8-1.079-2.96-.745-.177.333.862,1.215,2.333,1.96m15.747.2c.94.452,1.783.609,1.881.411.079-.215-.626-.7-1.568-1.136s-1.786-.629-1.884-.412c-.078.195.609.725,1.571,1.137m5.215,77.083c-3.392-1.177-6.49-1.119-6.921.176-.452,1.293,1.961,3.411,5.411,4.568,3.471,1.176,6.59,1,6.982-.333.391-1.313-2.058-3.255-5.471-4.411m.333-51.532c1.921.765,3.608.94,3.8.45.2-.51-1.216-1.51-3.138-2.255-1.9-.745-3.568-.98-3.783-.49-.177.51,1.195,1.55,3.117,2.3m-.882,17.393c.293-.824-1.667-2.3-4.373-3.373-2.705-1.058-5.137-1.313-5.452-.51-.333.824,1.608,2.393,4.335,3.472s5.177,1.235,5.49.411M191.09,447.768c.273-.255-.492-1.528-1.727-2.881-1.2-1.333-2.412-2.255-2.687-2.02-.293.235.452,1.53,1.667,2.9,1.216,1.353,2.451,2.236,2.747,2M258.7,587.6c-3.922-1.766-7.608-2.1-8.293-.609-.707,1.49,1.922,4.275,5.921,6.06,3.98,1.785,7.765,1.9,8.391.372.609-1.51-2.1-4.079-6.02-5.823m23.668,42.55c-3.47-1.177-6.725-.922-7.235.667-.548,1.608,1.863,3.942,5.393,5.158,3.548,1.215,6.823.8,7.293-.823.472-1.608-1.96-3.805-5.451-5m-35.746-14.8c-4.1-1.844-8.08-1.922-8.941-.078-.864,1.9,1.783,5.04,5.959,6.923,4.2,1.9,8.275,1.763,9.06-.176.765-1.884-1.96-4.826-6.078-6.668m23.294-7.118c-3.411-1.351-6.646-1.351-7.2.06-.589,1.45,1.745,3.8,5.237,5.177s6.764,1.235,7.275-.235c.51-1.431-1.884-3.629-5.315-5m27.276-72.707c.981.391,1.863.507,1.941.293.079-.235-.647-.745-1.646-1.119-.98-.391-1.863-.527-1.922-.313-.1.217.626.745,1.627,1.139m-93.378-82.3c.138-.156-.372-.941-1.195-1.765s-1.609-1.391-1.766-1.235c-.176.157.372.942,1.177,1.785.824.824,1.609,1.354,1.783,1.215m-7.823,16.961c-.452.472.863,2.451,2.98,4.431,2.118,1.962,4.237,3.139,4.706,2.629.452-.469-.942-2.391-3.058-4.353-2.081-1.942-4.159-3.177-4.628-2.707m84.868,66.495c2,.9,3.8,1.215,4,.705.195-.47-1.255-1.568-3.236-2.47-1.981-.884-3.745-1.255-3.96-.765-.235.49,1.195,1.646,3.2,2.529m-83.436-97.437a2.313,2.313,0,0,0-1.1-1.195,2.067,2.067,0,0,0,.432.7,2.9,2.9,0,0,0,.667.49m-4.1,20.806c1.8,1.823,3.627,2.98,4.021,2.588.391-.374-.766-2.139-2.55-3.942-1.783-1.824-3.548-3-3.96-2.649-.414.373.7,2.158,2.489,4M242.15,599.09c.785-1.648-1.844-4.509-5.785-6.529-3.942-1.962-7.784-2.373-8.628-.766-.861,1.646,1.649,4.725,5.648,6.765,4.04,2.02,7.982,2.216,8.765.53m10.668-59.669c.49-.9-1.745-3.021-4.942-4.823-3.2-1.825-6.177-2.649-6.686-1.766-.551.882,1.606,3.177,4.863,5,3.215,1.823,6.275,2.51,6.765,1.589m8.176-28.061c1.313.745,2.53,1.118,2.687.823.156-.273-.805-1.116-2.118-1.861s-2.51-1.138-2.687-.843c-.156.273.786,1.136,2.119,1.882m-131.3-113.142c2.04,3.667,4.491,6.215,5.413,5.765.922-.472-.04-3.727-2.04-7.353-2-3.608-4.275-6.257-5.217-5.863-.96.432-.176,3.783,1.844,7.451m3.315-58.415c.273-.078.116-1.156-.3-2.451-.432-1.293-.98-2.293-1.255-2.235-.255.059-.116,1.177.313,2.47.414,1.3,1,2.275,1.237,2.216m18.2,19.608-.038-.058-.04-.059.02.059Zm-27.47-87.494a1.378,1.378,0,0,0-.139-.51,1.722,1.722,0,0,0-.038.51,2.319,2.319,0,0,0,.137.49.854.854,0,0,0,.04-.49m-3.275-123.34-.04.078v.08l.04-.06Zm1.843,15.532-.04.058v.078l.04-.078Zm-3.2-31.414a2.382,2.382,0,0,0,.116-.98,1.786,1.786,0,0,0-.548.765,2.207,2.207,0,0,0-.1.98,2.01,2.01,0,0,0,.53-.765M115.262,19.707l-.078.038-.04.1.078-.039Zm4.98,267.189c.2-.02.235-.783.1-1.725-.136-.922-.391-1.667-.568-1.667-.2.018-.255.783-.119,1.7.139.942.394,1.687.588,1.687m2.412,57.946c.57-.139.295-2.335-.528-4.9-.864-2.548-1.982-4.53-2.568-4.412-.588.157-.373,2.354.449,4.942.844,2.588,2.06,4.53,2.647,4.374m-4.51,10.863c1.255,3.274,2.982,5.666,3.765,5.431.766-.255.315-3.04-.921-6.275s-2.823-5.686-3.607-5.491c-.785.237-.492,3.08.763,6.335M144.3,380.489c.432-.175-.06-1.9-1.02-3.861s-2.059-3.431-2.49-3.255c-.411.157.018,1.9.96,3.881.981,1.98,2.139,3.412,2.55,3.235m-1.333-15.471c.255-.1,0-1.255-.589-2.568s-1.254-2.333-1.51-2.235c-.275.1-.04,1.255.548,2.568.568,1.333,1.275,2.333,1.55,2.235m-.824-15.1c.137-.04,0-.629-.237-1.313-.293-.667-.589-1.2-.705-1.158-.138.04-.06.628.235,1.3.235.687.568,1.214.707,1.176m.568,66.473c-.883.53.195,3.747,2.51,7.2,2.313,3.431,4.98,5.706,5.843,5.176.844-.548-.411-3.666-2.687-7.078-2.313-3.392-4.785-5.765-5.666-5.295m-9.805-61.041c.432-.137.1-1.864-.647-3.864-.785-2-1.707-3.53-2.138-3.412-.432.137-.157,1.864.589,3.882.785,2,1.785,3.512,2.2,3.393m.313,15.784c.568-.214.1-2.489-1.038-5.078-1.158-2.588-2.492-4.53-3.1-4.353-.588.2-.217,2.51.96,5.118,1.118,2.608,2.588,4.53,3.176,4.313m.412-46.393c.118-.02.078-.53-.1-1.157s-.412-1.118-.548-1.1c-.119.02-.079.548.118,1.176a3.04,3.04,0,0,0,.528,1.079m.333,62.61c.745-.333.02-3.117-1.51-6.275-1.568-3.137-3.371-5.49-4.137-5.195s-.176,3.156,1.372,6.333c1.588,3.177,3.51,5.47,4.275,5.137m-7.04,177.579c2.119-2.313,0-7.492-4.568-11.727-4.608-4.255-10-6.078-12.236-3.9-2.334,2.235-.51,7.745,4.2,12.138,4.706,4.372,10.431,5.863,12.608,3.49m-3.058-235.7c.411-.1.293-1.765-.275-3.724-.548-1.982-1.333-3.53-1.745-3.451-.432.078-.353,1.765.216,3.744.548,1.98,1.392,3.51,1.8,3.431M50.807,35.472c.452-.783.49-1.646.118-1.922-.391-.255-1.04.177-1.49.982s-.492,1.646-.1,1.922c.371.234,1.038-.177,1.47-.982m64.9,25.923c.276-.43.394-.882.237-1-.138-.1-.472.177-.745.629-.255.452-.373.9-.237,1,.157.1.49-.176.745-.628M48.3,178.146c1.472.392,3.177-2.509,3.942-6.471.725-3.96.235-7.51-1.215-7.979-1.472-.472-3.373,2.391-4.138,6.411-.745,4.02-.059,7.628,1.411,8.04M43.886,7.138c.333-.568.391-1.177.078-1.391-.275-.237-.785.038-1.137.606-.353.55-.394,1.2-.1,1.411s.824-.058,1.157-.626m30.707,120.85c.765-2.3.765-4.433,0-4.8-.786-.373-2.078,1.2-2.823,3.509-.785,2.313-.727,4.472.058,4.823.786.333,2.02-1.235,2.765-3.528M192.5,632.641c-4.335-2.451-8.923-2.629-10.335-.237-1.177,1.941.176,5.02,3.078,7.433h13.12c-.06-2.315-2.353-5.217-5.863-7.2M43.984,94.632c1.02-2.588.96-5.176-.177-5.764s-2.9,1.04-3.941,3.666-.882,5.255.275,5.8c1.137.548,2.864-1.1,3.843-3.707m-27.845,113.2c2.195.373,4.235-3.391,4.725-8.373.49-5-.765-9.393-2.942-9.883-2.215-.469-4.548,3.237-5.038,8.315-.492,5.1,1.039,9.57,3.255,9.941m-1.55-197.3c.177-.313.177-.7,0-.823-.215-.137-.53.02-.705.353a.714.714,0,0,0,.019.843c.2.119.51-.04.687-.373m37.08,107.1c.864-2.608.766-5.058-.255-5.568-1.04-.472-2.646,1.235-3.529,3.864s-.687,5.136.353,5.608c1.058.449,2.548-1.3,3.431-3.9m61.435,157.088c.352,0,.51-1.275.333-2.863-.138-1.568-.53-2.844-.863-2.864-.333,0-.51,1.3-.373,2.864.158,1.588.57,2.881.9,2.863m-2.472-115.184c.3-1.038.313-1.96.078-2.058-.254-.1-.687.647-.98,1.707-.3,1.038-.313,1.96-.058,2.058.235.1.667-.667.96-1.707M74.2,30.041c.51-.824.646-1.725.292-2-.371-.275-1.078.177-1.608,1.02-.51.824-.627,1.745-.255,2.02s1.06-.2,1.571-1.039m38.255,278.7c-.568.079-.606,2.157-.019,4.608.568,2.49,1.528,4.412,2.1,4.313.548-.078.507-2.136-.06-4.588s-1.47-4.391-2.02-4.333m.588-91.239c.079-.9-.018-1.687-.195-1.707-.2-.039-.432.667-.51,1.568-.078.922.02,1.687.215,1.727.2.019.432-.667.49-1.588M96.809,154.047c.53-1.98.571-3.724.02-3.942-.548-.234-1.431,1.177-1.98,3.157-.568,1.962-.55,3.747,0,3.962.548.2,1.391-1.235,1.96-3.177m12.158,168.068c-.8.156-.765,2.922.156,6.2.922,3.255,2.373,5.764,3.157,5.608.785-.177.609-2.922-.313-6.156-.9-3.255-2.215-5.765-3-5.648M95.24,24.333l-.176.1-.038.2.176-.1ZM215.894,457.867a.957.957,0,0,0-.275-.353.854.854,0,0,0-.371-.235,1.439,1.439,0,0,0,.273.333,1.231,1.231,0,0,0,.373.255M325.587,611.561c-2.687-.667-5.078-.373-5.295.647-.235,1.039,1.785,2.47,4.529,3.137,2.725.649,5.1.3,5.315-.745.195-1.059-1.843-2.412-4.549-3.039m-.1-66.846a1.892,1.892,0,0,0-.725-.394,2,2,0,0,0-.824-.039,2.426,2.426,0,0,0,.725.412,1.832,1.832,0,0,0,.823.02m-71.316-21.3c2.352,1.333,4.528,1.884,4.843,1.313s-1.333-2.058-3.669-3.371-4.45-1.982-4.783-1.412c-.333.548,1.273,2.137,3.608,3.47m93.868,58.963c-1.3-.255-2.414-.137-2.472.255s.942.941,2.255,1.176c1.313.275,2.412.138,2.49-.255.04-.411-.96-.921-2.273-1.176M260.113,533.91c-.3.627,1.371,2.156,3.8,3.391,2.411,1.235,4.646,1.667,4.962,1.04.293-.628-1.431-2.1-3.826-3.315-2.411-1.214-4.606-1.745-4.939-1.116m9.666,14.078c-.373.785,1.647,2.53,4.51,3.8,2.844,1.3,5.451,1.629,5.785.824.333-.783-1.707-2.432-4.53-3.707-2.844-1.254-5.412-1.7-5.765-.921m-112.222-122.1c-.667.432.394,3,2.412,5.707,2.04,2.7,4.216,4.509,4.863,4.058.629-.45-.528-2.942-2.528-5.628s-4.1-4.548-4.747-4.137m94.517,73.064c.783.51,1.527.783,1.606.606.118-.157-.469-.684-1.255-1.195-.8-.472-1.49-.765-1.606-.609-.1.177.449.705,1.255,1.2m15.176,2.391a1.38,1.38,0,0,0-.411-.353,1.815,1.815,0,0,0-.51-.176,1.347,1.347,0,0,0,.411.353,1.817,1.817,0,0,0,.51.176m9.019,11.138a2.551,2.551,0,0,0,.844.215,2.276,2.276,0,0,0-.685-.528,2.122,2.122,0,0,0-.825-.237,2.25,2.25,0,0,0,.667.551m44.61,46.727c1.393.411,2.589.432,2.687.06.079-.373-.96-.982-2.353-1.373-1.371-.412-2.568-.452-2.667-.1-.1.373.942,1,2.333,1.412m-7.156-24.825a2.47,2.47,0,0,0-.824-.51,2.415,2.415,0,0,0-.942-.1,2.619,2.619,0,0,0,.824.492,2.676,2.676,0,0,0,.942.116m3.2,40.023c-2.04-.609-3.825-.609-3.982,0-.176.626,1.334,1.646,3.393,2.235,2.039.588,3.823.547,3.98-.079.156-.609-1.374-1.55-3.392-2.156m-5.353,20.451c-2.472-.725-4.669-.626-4.9.234-.255.884,1.568,2.217,4.079,2.942,2.492.745,4.706.571,4.923-.313.195-.881-1.628-2.136-4.1-2.863m27.47-39.394c.059-.234-.687-.626-1.666-.843-.98-.235-1.785-.235-1.843,0-.039.234.687.628,1.667.863s1.8.215,1.843-.02m-8.628,32.826c-2.371-.568-4.431-.452-4.588.333-.176.783,1.629,1.9,4,2.489,2.393.589,4.451.373,4.608-.411.157-.765-1.646-1.824-4.02-2.411m10.274,41.924c-1.843-.353-3.431-.04-3.548.725-.136.785,1.255,1.724,3.119,2.078,1.861.333,3.47,0,3.568-.783.118-.785-1.3-1.669-3.139-2.02m4.119-26.766c-1.705-.315-3.157-.139-3.255.47-.1.588,1.2,1.391,2.922,1.707,1.727.333,3.176.1,3.255-.51.1-.609-1.215-1.353-2.922-1.667m-10.568-33.669c-1.707-.432-3.2-.392-3.3.1-.118.49,1.215,1.235,2.942,1.667,1.725.411,3.2.333,3.293-.157s-1.215-1.2-2.939-1.608m15.118-4.3c-.02.176.51.452,1.2.57.7.137,1.273.1,1.293-.078.04-.2-.51-.431-1.176-.571-.705-.136-1.275-.1-1.313.079M207.895,465.435c1.195,1.1,2.353,1.786,2.568,1.55s-.548-1.3-1.725-2.393c-1.2-1.1-2.335-1.8-2.55-1.568-.235.235.51,1.333,1.707,2.411m-.806,21.923c-2.646-2.235-5.235-3.588-5.8-2.98-.588.647,1.1,3.038,3.782,5.313,2.687,2.255,5.335,3.492,5.9,2.864.53-.667-1.216-2.942-3.884-5.2m36.591-.548a3.749,3.749,0,0,0,1.058.45c.079-.079-.293-.45-.8-.8a2.829,2.829,0,0,0-1.058-.47,3.559,3.559,0,0,0,.8.824m-62.965-67.75a4.036,4.036,0,0,0-.527-1.078,3.545,3.545,0,0,0-.884-.8c-.1.058.138.53.51,1.058.394.51.805.884.9.824m33.533,60.18c1.783,1.472,3.47,2.353,3.8,1.98.313-.371-.862-1.861-2.627-3.333-1.745-1.469-3.413-2.391-3.747-2.02-.333.353.806,1.884,2.571,3.373M178.442,454c2.157,2.391,4.392,3.881,4.921,3.411.568-.47-.745-2.765-2.863-5.1-2.119-2.374-4.275-3.942-4.843-3.49s.647,2.8,2.785,5.177m-15.708-71.2-.038-.157-.079-.1.039.136ZM174.3,439c1.727,2.139,3.55,3.51,4,3.139.472-.353-.588-2.315-2.293-4.414-1.745-2.1-3.471-3.548-3.962-3.214-.469.353.51,2.371,2.255,4.489m2.04-34.061-.04-.058-.038-.059.018.059ZM304.782,620.856c-2.687-.765-5.08-.53-5.393.568-.313,1.137,1.629,2.725,4.313,3.51,2.707.783,5.139.449,5.414-.687.293-1.119-1.667-2.609-4.334-3.392m-71.71-102.869c-.472.707,1.353,2.724,4.078,4.431,2.745,1.745,5.354,2.49,5.785,1.785.411-.727-1.451-2.608-4.157-4.333-2.727-1.707-5.256-2.57-5.706-1.883m-3.864-34.766c1.059.783,2.04,1.273,2.2,1.078.156-.216-.551-1.04-1.608-1.825-1.04-.8-2.02-1.293-2.177-1.078-.176.2.53,1.02,1.588,1.825m7.687,13.156c1.568,1.078,3.04,1.687,3.255,1.353.234-.353-.844-1.489-2.412-2.568-1.55-1.1-3.02-1.707-3.235-1.373-.254.333.8,1.49,2.392,2.588m8.353,13.3c1.823,1.118,3.51,1.707,3.765,1.295.254-.432-1.021-1.646-2.823-2.785-1.8-1.117-3.452-1.745-3.707-1.333-.275.411.962,1.687,2.765,2.823m-23.2-39.316c.687.609,1.353.962,1.472.824s-.353-.7-1.058-1.293-1.353-.962-1.452-.844c-.139.137.333.725,1.038,1.313m2.9,32.866c-.472.627,1.255,2.667,3.881,4.489,2.609,1.824,5.139,2.745,5.57,2.1.45-.629-1.353-2.571-3.962-4.373s-5.04-2.823-5.49-2.215m-3.666-9.981c2.059,1.547,4.02,2.431,4.372,1.96s-1.02-2.079-3.059-3.627c-2.019-1.57-3.962-2.489-4.333-2.04s.98,2.119,3.02,3.707M214.03,502.4c-2.9-2.234-5.724-3.509-6.313-2.765-.629.747,1.215,3.237,4.157,5.492s5.843,3.391,6.431,2.626c.569-.763-1.353-3.137-4.275-5.354M113.34,175.323a2.665,2.665,0,0,0,0-1.04,2.356,2.356,0,0,0-.452.883,2.746,2.746,0,0,0,0,1.059,2.072,2.072,0,0,0,.452-.9m-8.765,11.785c.273-1.588.235-2.942-.158-3.061-.371-.116-.94,1.06-1.215,2.649-.295,1.568-.2,2.942.177,3.059.391.118.9-1.079,1.2-2.646m-2.588-77.848c.293.156.861-.51,1.273-1.49s.55-1.9.254-2.058c-.273-.177-.861.49-1.293,1.469-.411.98-.51,1.922-.234,2.079m3.684,16.63c.472-1.315.609-2.53.255-2.707-.371-.2-1.058.725-1.568,2.04-.49,1.313-.589,2.528-.235,2.7.373.177,1.041-.745,1.548-2.038m2.275,78.493c.235.06.53-.745.687-1.8.136-1.04.058-1.941-.176-2-.255-.078-.568.745-.705,1.786-.138,1.058-.04,1.96.195,2.018M126.281,538.42c2.119-2.1-.02-7.413-4.608-12.079-4.568-4.666-9.961-7-12.216-5.04-2.274,2-.527,7.668,4.2,12.472,4.706,4.8,10.452,6.784,12.628,4.648M106.359,230.208c.06-1.53-.136-2.825-.49-2.863-.353-.059-.687,1.136-.765,2.666-.078,1.55.177,2.823.53,2.863.333.059.667-1.138.725-2.666m1.55-87.2c.313-.922.371-1.765.136-1.864-.255-.116-.687.551-.98,1.49-.313.922-.353,1.765-.118,1.863s.647-.568.962-1.489M99.142,68.73c.373-.687.492-1.373.255-1.53s-.725.275-1.1.962c-.394.684-.492,1.371-.254,1.528s.725-.255,1.1-.96m6.492,185.735c-.432-.02-.725,1.51-.647,3.431.1,1.922.548,3.49.98,3.51s.687-1.51.588-3.432c-.078-1.9-.49-3.471-.921-3.509M99.573,90.75c.394.235,1.2-.57,1.786-1.825.588-1.235.785-2.431.411-2.684-.411-.237-1.2.568-1.824,1.8-.608,1.255-.765,2.47-.373,2.707M83.514,211.737c-.273,3.195.255,5.9,1.138,6.078.882.136,1.765-2.3,2.059-5.472.275-3.156-.137-5.863-1-6.058-.881-.177-1.882,2.235-2.2,5.451m4.315-29.571c-.472,2.646-.235,4.98.49,5.176s1.667-1.765,2.157-4.391.313-4.942-.391-5.159c-.727-.254-1.765,1.727-2.255,4.374m1.588-64.514c.745-1.962.862-3.785.255-4.118-.629-.333-1.745,1-2.509,2.981-.745,1.96-.824,3.823-.2,4.137.629.3,1.707-1.058,2.451-3M85.575,97.771c.647-1.472.765-2.9.255-3.2-.493-.3-1.452.687-2.1,2.177s-.745,2.922-.235,3.214c.508.275,1.43-.7,2.079-2.194M97.713,243.248c0,2.568.527,4.707,1.156,4.765.626.038,1.1-1.98,1.078-4.55,0-2.568-.452-4.687-1.078-4.765-.629-.058-1.156,1.962-1.156,4.55m-3.649-40.2c.568.138,1.235-1.51,1.51-3.666.3-2.157.119-3.98-.449-4.137-.551-.138-1.275,1.49-1.571,3.646-.273,2.157-.058,4.04.51,4.157M97.417,47.571c.452-.785.609-1.588.333-1.785-.293-.215-.9.235-1.371,1-.472.785-.629,1.609-.334,1.806.274.214.882-.237,1.372-1.021M93.456,0l-.1.06-.04.117.1-.058Zm-.568,136.243c.568-1.687.629-3.216.138-3.431-.491-.255-1.333.942-1.9,2.608-.568,1.687-.589,3.235-.1,3.469.49.217,1.333-.96,1.861-2.646m17.471,295.564c-1.725.98-.548,5.962,2.844,11.06,3.431,5.078,7.706,8.176,9.413,7.1,1.626-1.058.079-5.843-3.254-10.8-3.354-4.96-7.3-8.295-9-7.354m.962-18.412c-1.55.785-.548,5.393,2.391,10.237,2.962,4.823,6.668,7.961,8.179,7.118,1.449-.863.156-5.295-2.747-10.039-2.881-4.747-6.293-8.06-7.823-7.315m1.118-17.431c-1.353.588-.55,4.861,1.96,9.469s5.765,7.727,7.081,7.04c1.313-.667.214-4.8-2.257-9.313-2.49-4.529-5.431-7.784-6.783-7.2M82.494,164.675c-.568,2.469-.392,4.666.333,4.921.727.235,1.747-1.568,2.3-4.02.568-2.431.469-4.608-.235-4.881-.725-.254-1.806,1.528-2.393,3.98m27.374,287.112c-1.9,1.177-.548,6.353,3.2,11.413,3.765,5.041,8.414,7.962,10.2,6.687,1.765-1.3.06-6.2-3.608-11.118-3.666-4.942-7.941-8.118-9.784-6.982m6.02-152.772c.353,1.825.962,3.255,1.353,3.216.373-.039.412-1.53.058-3.353-.333-1.8-.9-3.234-1.293-3.216-.391.04-.452,1.55-.118,3.353m.745,72.553c1.629,3.785,3.843,6.53,4.805,6.158s.293-3.649-1.313-7.393c-1.649-3.745-3.649-6.57-4.628-6.255-.98.333-.53,3.686,1.136,7.49m-13.941-71.3c.588,3.138,1.725,5.628,2.489,5.549.745-.078.844-2.687.255-5.822-.568-3.119-1.609-5.628-2.353-5.57-.783.058-.96,2.666-.391,5.843m22.453,213.521c2-1.783,0-6.961-4.3-11.745-4.275-4.765-9.295-7.451-11.414-5.8-2.156,1.667-.507,7.176,3.9,12.1,4.374,4.924,9.765,7.257,11.8,5.452m-8.687-324.135a2.139,2.139,0,0,0-.315,1.786,2.2,2.2,0,0,0,.353-.844,2.592,2.592,0,0,0-.039-.942m7.843,301.6c1.922-1.548.02-6.7-4.06-11.687-4.058-4.98-8.823-8-10.843-6.588-2.058,1.431-.51,6.883,3.628,12,4.195,5.1,9.333,7.845,11.274,6.275M116.065,99.651c.2.119.589-.312.9-.96.333-.648.432-1.274.237-1.373-.157-.118-.551.313-.884.962-.313.647-.411,1.255-.255,1.371M113.81,379.509c-1.177.452-.548,4.333,1.55,8.608,2.117,4.275,4.843,7.275,6,6.765,1.137-.508.293-4.293-1.8-8.49-2.06-4.217-4.57-7.315-5.747-6.883m1.843-298.7a.876.876,0,0,0,.411-.411,1.027,1.027,0,0,0,.139-.606.884.884,0,0,0-.412.411,1.217,1.217,0,0,0-.138.606M112.027,244.66c0-1.275-.217-2.353-.492-2.373-.293-.058-.51.982-.528,2.3.038,1.293.255,2.353.528,2.373.3.038.492-1,.492-2.3m5.7,13.883a3.182,3.182,0,0,0-.294-1.2c-.118,0-.2.53-.176,1.176.038.649.156,1.2.293,1.2a2.528,2.528,0,0,0,.177-1.177m7.686,55.14c.237-.04.176-1-.078-2.156-.293-1.157-.685-2.079-.9-2.06-.235.04-.235,1.02.058,2.176.275,1.158.687,2.08.922,2.04m-7.627-197.716a1.917,1.917,0,0,0,.1-.667,1.238,1.238,0,0,0-.411.49,1.566,1.566,0,0,0-.1.687,1.653,1.653,0,0,0,.411-.51M107.81,281.584c-.51.018-.745,1.882-.391,4.177.313,2.293,1.019,4.118,1.548,4.1.51-.04.647-1.9.333-4.177-.313-2.3-.98-4.118-1.49-4.1m9.727-49.729a1.52,1.52,0,0,0-.1-.609,1.6,1.6,0,0,0-.138.571,1.309,1.309,0,0,0,.08.606,1.4,1.4,0,0,0,.157-.568M362.862,576.324c-.038.293.785.667,1.825.824,1.058.157,1.922.038,1.94-.255s-.783-.667-1.824-.823c-1.058-.157-1.921-.04-1.941.254M0,594.835V613.11a7.865,7.865,0,0,0,6.04-1.687c3.431-3,3.06-8.765-.725-13A12.311,12.311,0,0,0,0,594.835M10.746,77.789c.942-2.393.725-4.863-.548-5.511-1.254-.647-3.08.765-4.02,3.176-.962,2.431-.648,4.9.626,5.55,1.255.629,3.02-.824,3.942-3.215m71.337-.9c.765-1.606.961-3.176.373-3.547-.568-.373-1.707.626-2.49,2.214-.785,1.609-.942,3.2-.333,3.57.588.351,1.687-.649,2.45-2.237M29.119,635.091a6.7,6.7,0,0,0-1.861,4.747H43.846a11.209,11.209,0,0,0-2.548-3.51c-3.785-3.57-9.176-4.138-12.178-1.237M6.1,177.479c.626-4.313-.452-8.255-2.51-8.784-1.255-.333-2.588.647-3.59,2.451v12.489a2.388,2.388,0,0,0,1.295.844c2.059.452,4.177-2.666,4.805-7m.313-39.08c-.883,3.568-.1,6.941,1.626,7.491,1.667.548,3.649-1.863,4.51-5.373.843-3.509.237-6.825-1.43-7.431-1.687-.629-3.843,1.745-4.706,5.313m19.393-96.67c.745-1.51.725-3.119-.039-3.608-.805-.51-2.06.313-2.8,1.823-.785,1.49-.707,3.137.078,3.608.786.49,2-.353,2.765-1.823m4.216,202.4c-2.236-.137-4,4.176-3.785,9.726.215,5.53,2.353,10.08,4.568,10.118,2.177.058,3.608-4.3,3.373-9.727-.2-5.411-2-9.921-4.157-10.118M18.374,108.083c1.255.551,2.942-1.156,3.823-3.744.883-2.608.629-5.177-.609-5.745-1.255-.568-3.018,1.079-3.922,3.707s-.548,5.215.707,5.783M360.43,618.914c-1.823-.254-3.371.079-3.449.784s1.333,1.53,3.195,1.785c1.843.255,3.393-.1,3.471-.823.058-.707-1.373-1.49-3.217-1.745M397.2,599.345c-.02-.237-.629-.472-1.392-.51-.745-.04-1.373.116-1.373.371s.609.51,1.373.53c.763.039,1.372-.136,1.392-.391m-1.392,23.686c-.9-.038-1.667.217-1.667.571s.745.685,1.685.725c.921.058,1.667-.2,1.667-.568,0-.353-.745-.667-1.685-.727m-30-62.413a1.2,1.2,0,0,0,.551.235,1.378,1.378,0,0,0,.568-.06,1.3,1.3,0,0,0-.551-.215,1.468,1.468,0,0,0-.568.04m11.53,75.571c-.96-.1-1.763.138-1.763.55-.04.411.725.823,1.684.921.962.079,1.765-.176,1.786-.57.02-.411-.745-.824-1.707-.9m18.983-56.433a1.211,1.211,0,0,0-.51-.177.914.914,0,0,0-.51.117,1.05,1.05,0,0,0,.51.176,1.3,1.3,0,0,0,.51-.116m-33.454,15.332c-1.548-.234-2.861-.018-2.922.492s1.177,1.116,2.727,1.351c1.568.237,2.881,0,2.922-.528.058-.51-1.177-1.1-2.727-1.315M30.119,227.933c1.962.255,3.608-3.509,3.864-8.393s-1-9.078-2.942-9.411c-1.98-.333-3.922,3.392-4.195,8.354-.237,4.98,1.273,9.216,3.273,9.451M378.883,587.677c0,.156.391.313.882.353.49.058.9-.02.9-.177.019-.156-.394-.295-.883-.353-.49-.038-.9.02-.9.177m-.176,21.236c-.882-.078-1.608.1-1.629.394-.018.333.667.685,1.57.745.9.1,1.626-.1,1.646-.412.02-.333-.687-.648-1.588-.727M108.536,367.371c1.176-.371.667-4.157-.96-8.51-1.687-4.333-3.864-7.628-5.061-7.295-1.234.313-.96,4.2.707,8.59,1.687,4.412,4.137,7.608,5.314,7.214M69.359,107.494c.94-2.411,1-4.744.116-5.195-.882-.472-2.391,1.117-3.333,3.568-.942,2.412-.922,4.785-.02,5.217.883.45,2.333-1.177,3.237-3.59M63.18,163.95c1.04.352,2.393-1.843,3.1-4.863.707-3.04.51-5.785-.528-6.138-1.02-.391-2.51,1.765-3.217,4.825-.725,3.079-.411,5.843.647,6.177m-8.118-26.493c-.922,3.275-.647,6.315.57,6.765s2.861-1.824,3.765-5.058c.9-3.216.745-6.217-.432-6.706-1.2-.51-2.962,1.725-3.9,5m1.04,52.277c-.53,3.825.176,7.158,1.489,7.451,1.3.3,2.687-2.548,3.217-6.313s-.02-7.08-1.3-7.413c-1.293-.352-2.881,2.451-3.411,6.275M63.435,85.279c.745-1.725.844-3.451.156-3.823-.7-.411-1.9.667-2.666,2.412-.765,1.765-.783,3.469-.1,3.881.687.373,1.864-.725,2.608-2.47m9.2,85.807c-1.1-.333-2.568,2.177-3.215,5.648-.647,3.49-.217,6.55.9,6.863,1.1.313,2.411-2.255,3.058-5.686.629-3.432.333-6.492-.745-6.825M77.966,54.18c.49-.884.606-1.786.254-2.021-.333-.234-1,.275-1.492,1.137-.49.884-.588,1.785-.234,2.04.333.235,1-.3,1.472-1.156m-.785,97.533c.843.333,2.136-1.609,2.883-4.333.763-2.707.725-5.177-.118-5.53-.864-.353-2.255,1.548-3,4.294-.785,2.747-.647,5.256.235,5.57m-3.667,73.651c-.176,3.687.627,6.785,1.725,6.921,1.078.137,2.02-2.707,2.2-6.353.157-3.628-.51-6.706-1.568-6.9-1.1-.176-2.177,2.649-2.354,6.335m-18.452,21.1c-1.685-.117-3.038,3.765-2.8,8.726.177,4.942,1.864,8.981,3.548,9.039,1.669.04,2.727-3.863,2.51-8.726-.195-4.861-1.588-8.921-3.255-9.039M30.728,183.52c-.588,4.255.394,8.04,2.1,8.431,1.687.353,3.431-2.745,4.04-6.921.588-4.2-.176-7.941-1.863-8.393s-3.666,2.629-4.275,6.883m8.158-27.12c1.372.452,3.079-2,3.9-5.431.785-3.451.432-6.608-.942-7.118-1.391-.51-3.234,1.9-4.078,5.374-.8,3.509-.293,6.706,1.118,7.176m18.8-94.769c.844-1.707.942-3.471.215-3.942-.745-.472-2.078.528-2.922,2.255s-.9,3.51-.156,3.98c.745.452,2.02-.588,2.863-2.293M35.023,69.257c.765-1.725.745-3.509-.079-3.98s-2.118.548-2.9,2.3c-.746,1.745-.706,3.51.137,3.98.824.452,2.078-.568,2.844-2.3m-2.98,209.267c-2.373.02-3.845,4.863-3.059,10.766.765,5.881,3.489,10.51,5.843,10.333,2.3-.177,3.354-4.962,2.608-10.727-.785-5.764-3.078-10.432-5.392-10.373m9.667-74.985c-.432,4.727.725,8.805,2.47,9.1,1.707.293,3.353-3.237,3.785-7.863.452-4.628-.469-8.648-2.157-9.06-1.745-.353-3.628,3.118-4.1,7.822m13.413,27.12c1.49.176,2.783-3.195,2.98-7.568.215-4.334-.707-8.06-2.2-8.335-1.51-.235-3,3.118-3.215,7.529-.234,4.432.922,8.179,2.431,8.374M28.728,134.046c1.53.568,3.489-1.8,4.509-5.275.962-3.49.629-6.785-.881-7.412-1.53-.629-3.649,1.687-4.667,5.215s-.51,6.883,1.039,7.472m76.984,202.54c-.98.235-.864,3.509.411,7.275,1.235,3.8,3.139,6.628,4.079,6.373.981-.255.667-3.489-.588-7.235-1.235-3.727-2.942-6.608-3.9-6.413m-6.139,31.159c-1.411.45-1.038,4.725,1.04,9.49,2.041,4.765,5,8.118,6.374,7.59,1.353-.53.667-4.706-1.353-9.374-2.059-4.668-4.666-8.138-6.061-7.706M83.044,433.827c2.313-1.2,1.353-6.823-1.863-12.747-3.235-5.9-7.55-9.941-9.942-8.941-2.451,1.078-1.98,6.941,1.334,13.021,3.3,6.058,8.118,9.881,10.471,8.667m-7.138,46.3c2.687-1.727,1.51-7.648-2.353-13.413-3.861-5.727-9-9.275-11.785-7.706-2.844,1.588-2.177,7.8,1.8,13.746,3.96,5.921,9.608,9.138,12.333,7.374m10.2-67.377c2.08-.942,1.274-6.237-1.51-11.982-2.783-5.724-6.608-9.823-8.744-9.019-2.177.8-1.824,6.313,1.019,12.2,2.881,5.863,7.1,9.746,9.235,8.805m-4.96-68.965c1.627-.372,1.627-4.881.177-10.1s-3.825-9.275-5.491-9c-1.687.272-2.039,4.843-.548,10.176s4.2,9.3,5.863,8.922m7.922,49.062c1.823-.707,1.214-5.648-1.157-11.118s-5.628-9.491-7.51-8.9c-1.922.608-1.707,5.706.7,11.315,2.432,5.588,6.1,9.451,7.962,8.706M76.318,362.058c1.844-.53,1.727-5.353-.078-10.863-1.824-5.512-4.627-9.688-6.53-9.295-1.942.411-2.177,5.353-.351,10.979,1.841,5.648,5.058,9.707,6.959,9.179m-9.941,40.1c2.393-.94,2-6.528-.626-12.608-2.608-6.058-6.512-10.411-8.961-9.646-2.51.8-2.588,6.568.078,12.8,2.687,6.237,7.078,10.413,9.51,9.452M60.945,424.12c2.646-1.215,2.139-7.078-.882-13.256-3-6.2-7.433-10.49-10.158-9.469-2.8,1.038-2.8,7.156.293,13.509,3.08,6.393,8.022,10.431,10.746,9.217m10.57-42.454c2.137-.725,1.844-6.02-.373-11.921-2.235-5.9-5.628-10.295-7.822-9.706-2.237.589-2.432,6.04-.139,12.079,2.3,6.058,6.119,10.275,8.335,9.548M83.829,248.424c1,.059,1.725-2.785,1.725-6.393,0-3.588-.725-6.588-1.725-6.7-.981-.119-1.9,2.724-1.883,6.371-.02,3.628.882,6.648,1.883,6.726m-2.608,69.4c1.078,4.764,3.235,8.391,4.626,8.156,1.353-.235,1.472-4.177.394-8.863-1.06-4.686-2.942-8.354-4.333-8.2s-1.786,4.156-.687,8.9m-4-38.826c-1.335.038-2.041,3.7-1.414,8.176.608,4.49,2.274,8.04,3.608,7.941,1.3-.078,1.745-3.727,1.139-8.139-.609-4.431-2.04-8-3.333-7.979m14.823,95.024c1.629-.53,1.176-5.118-.783-10.274-1.962-5.177-4.747-9.06-6.393-8.628-1.687.449-1.608,5.137.411,10.411,2,5.275,5.139,9.04,6.765,8.492M76.651,194.754c-.432,3.08.02,5.747.922,5.962.922.2,1.9-2.117,2.333-5.157.411-3.04.1-5.706-.8-5.941s-2.02,2.058-2.451,5.137m16.354,91.653c.47,3.489,1.647,6.255,2.548,6.2s1.159-2.9.687-6.353c-.469-3.431-1.51-6.217-2.411-6.2s-1.313,2.881-.824,6.354m2.059,69.533c1.393-.391,1.118-4.509-.45-9.254-1.55-4.747-3.843-8.393-5.237-8.08-1.431.313-1.431,4.51.139,9.335,1.588,4.823,4.157,8.371,5.548,8m-10.53-91.476c-1.119-.018-1.824,3.255-1.452,7.295.394,4.06,1.669,7.315,2.765,7.295,1.118-.02,1.629-3.275,1.255-7.275s-1.47-7.255-2.568-7.315M87.868,293.8c-1.176.078-1.609,3.646-.824,7.921.766,4.3,2.472,7.628,3.649,7.49,1.157-.137,1.352-3.646.586-7.881-.783-4.237-2.254-7.608-3.411-7.53m-65.69,83.4c3.02-.864,3.59-6.666,1.51-13.1s-6.037-11.176-9.135-10.51c-3.177.667-4.257,6.648-2.139,13.275,2.139,6.608,6.628,11.2,9.765,10.335m79.378-55.4c.94-.177.94-3.235.1-6.9-.882-3.646-2.235-6.51-3.177-6.431-.96.138-1.116,3.236-.273,6.941s2.411,6.529,3.353,6.393m-1.843-55.18c-.707,0-1.1,2.315-.824,5.2s1.1,5.217,1.783,5.217c.707-.02,1-2.333.745-5.2-.293-2.863-1-5.2-1.7-5.216m-1.432,72.1c1.177-.275,1.039-3.962-.176-8.295-1.217-4.315-3.04-7.686-4.255-7.492-1.2.2-1.3,3.942-.078,8.355,1.215,4.372,3.313,7.687,4.509,7.432M0,415.883v8.825c.961-2.177,1-5.353,0-8.825M54.885,447.59c2.864-1.469,2.257-7.49-1.058-13.587-3.333-6.119-8.2-10.176-11.158-8.883-3.018,1.3-2.922,7.588.472,13.9,3.452,6.295,8.805,10.078,11.745,8.568M92.281,262.9c.8,0,1.273-2.489,1.137-5.608-.137-3.1-.843-5.666-1.646-5.706-.826-.078-1.414,2.431-1.275,5.57.156,3.137.98,5.7,1.785,5.744M99.046,170.4c-.353,1.548-.315,2.94.1,3.058.414.137,1-1.02,1.353-2.568s.333-2.922-.058-3.06c-.411-.136-1.04,1-1.391,2.57m-7.275,62.532c.7.078,1.313-2,1.431-4.667s-.315-4.9-.982-5.02c-.7-.118-1.391,1.98-1.51,4.646-.117,2.687.373,4.942,1.06,5.041M10.648,401.139c3.411-1.118,3.942-7.256,1.51-13.786-2.451-6.51-7-11.136-10.451-10.215A3.628,3.628,0,0,0,0,378.234v13.923c2.629,6.139,7.355,10.1,10.648,8.981M99.142,214.8c-.175,2.119.1,3.922.629,4.021.51.1,1.058-1.55,1.235-3.666.2-2.1-.038-3.9-.548-4.021-.51-.1-1.118,1.528-1.315,3.666M52.709,369.078c2.413-.687,2.57-6.138.57-12.236-1.982-6.118-5.393-10.726-7.863-10.2-2.53.53-3.158,6.119-1.1,12.393,2.02,6.255,5.921,10.726,8.391,10.039M26.061,403.609c2.785,6.53,7.764,10.726,10.842,9.55,2.963-1.177,2.942-7.139.237-13.471s-7.158-10.765-10.216-9.785c-3.138.98-3.686,7.2-.863,13.707m19.158-13.118c2.745-.942,2.785-6.744.391-13.118s-6.372-11.021-9.2-10.274c-2.864.745-3.431,6.745-.98,13.313,2.47,6.55,6.982,11.021,9.785,10.08m2.922,82.788c3.06-1.8,2.393-7.941-1.2-13.941-3.606-6-8.921-9.687-12.118-8.138-3.275,1.649-3.156,8.1.588,14.3,3.727,6.2,9.55,9.589,12.727,7.784m27.06-224.4c-1.237-.079-2.176,3.215-1.981,7.391.176,4.159,1.411,7.59,2.649,7.608,1.214.04,1.94-3.275,1.765-7.391-.177-4.1-1.217-7.512-2.432-7.608M0,350.451v9.019a16.974,16.974,0,0,0,0-9.019m15.668,78.669c3.177,6.55,8.706,10.53,12.08,9.02,3.274-1.49,3.215-7.7.156-14.06s-8.04-10.548-11.431-9.292c-3.452,1.313-3.942,7.764-.806,14.332M5,442.808c-3.727,1.626-4.217,8.2-.786,14.549,3.432,6.391,9.374,9.921,13,8.077,3.529-1.785,3.489-8.118.136-14.254-3.313-6.159-8.726-9.943-12.352-8.373m74.591,13.156c2.472-1.432,1.393-7.136-2.118-12.962-3.51-5.8-8.235-9.608-10.8-8.353-2.608,1.3-2.04,7.315,1.568,13.294,3.628,5.962,8.805,9.492,11.353,8.02M44.846,550.2c-3.215,2.53-2.412,8.707,1.941,13.628,4.354,4.9,10.57,6.549,13.628,3.863C63.4,565.067,62.24,559.225,58,554.48c-4.214-4.765-10.039-6.747-13.157-4.275m6.04-34.3c-3.2,2.275-2.392,8.707,2.06,14.2,4.431,5.492,10.725,7.785,13.785,5.354,2.98-2.392,1.745-8.472-2.568-13.785-4.315-5.3-10.138-7.962-13.277-5.765M37.356,588.972c-3.333,2.922-2.608,9.156,1.843,13.686s10.765,5.588,13.942,2.49c3.118-3,2.02-8.883-2.293-13.274-4.3-4.394-10.257-5.765-13.492-2.9M85.81,625.366c-4.315-3.669-9.843-4.373-12.53-1.472-2.727,3.02-1.492,8.608,2.96,12.355,4.451,3.765,10.237,4.157,12.863,1.078,2.509-3.06,1.02-8.315-3.293-11.961M69.121,492.789c-4.058-5.489-9.53-8.588-12.472-6.744-2.98,1.9-2.235,8.138,1.962,13.843,4.177,5.686,10.118,8.451,12.982,6.393,2.8-2.02,1.608-7.982-2.472-13.492m-28.708,8.923c3.335-2.138,2.669-8.471-1.235-14.276-3.881-5.843-9.628-9.118-13.059-7.2-3.53,2-3.353,8.608.649,14.648,4.038,6.04,10.254,9,13.646,6.825m-35.276,49.3c-3.843,2.747-3.707,9.355.51,14.59,4.235,5.235,10.843,6.982,14.529,4.058,3.608-2.843,3.04-9.118-1.039-14.176-4.1-5.06-10.256-7.118-14-4.471M0,205.382v17.63c1.57-1.255,2.747-4.315,2.941-8.04.237-4.471-1-8.432-2.941-9.59M31.1,533.244c3.431-2.431,2.8-8.648-1.177-14.04-3.942-5.413-9.845-8.06-13.413-5.825-3.627,2.333-3.47,8.843.628,14.433,4.1,5.568,10.452,7.941,13.962,5.432M5,496.085c3.782-2.138,3.745-8.55.214-14.433A18.993,18.993,0,0,0,0,475.927V496.5a6.4,6.4,0,0,0,5-.411m86.357-73.671c-2.06,1-1.2,6.433,2.195,12,3.353,5.55,7.883,9,9.884,7.843,1.941-1.136.666-6.313-2.627-11.745-3.3-5.413-7.413-9.1-9.452-8.1m-2.53,20.922c-2.275,1.3-1.255,7,2.53,12.669,3.823,5.646,8.863,8.961,11.04,7.529,2.136-1.373.684-6.842-3.04-12.353-3.686-5.492-8.295-9.06-10.53-7.845m5.118-40.451c-1.863.8-1.158,5.941,1.8,11.332,2.962,5.413,6.982,8.923,8.784,8.02,1.766-.92.687-5.823-2.214-11.118-2.9-5.275-6.55-9.02-8.374-8.234M76.691,584.324c-2.727,2.666-1.411,8.335,3.078,12.55,4.51,4.176,10.394,5.2,12.962,2.393,2.53-2.727.9-8.08-3.452-12.158-4.353-4.04-9.941-5.393-12.588-2.785M96.713,384.746c-1.649.626-1.119,5.353,1.411,10.469,2.489,5.138,5.979,8.609,7.568,7.9,1.55-.707.687-5.275-1.783-10.295s-5.608-8.666-7.2-8.078M81.789,518.831c-2.687,2.1-1.353,8.078,3.177,13.158s10.452,7.215,13,4.959c2.49-2.215.763-7.843-3.628-12.785-4.394-4.922-9.922-7.391-12.55-5.333m4.785-52.454c-2.411,1.51-1.275,7.313,2.783,12.8,4.06,5.47,9.393,8.432,11.708,6.764,2.235-1.628.647-7.118-3.275-12.451-3.962-5.315-8.863-8.59-11.216-7.118m-7.512,82.887c-2.823,2.509-1.449,8.589,3.315,13.451,4.745,4.863,10.941,6.512,13.648,3.864,2.608-2.568.843-8.313-3.765-13.019-4.588-4.707-10.413-6.687-13.2-4.3M84.1,491.182c-2.608,1.825-1.333,7.845,3.06,13.236,4.391,5.413,10.138,8.019,12.608,6.04,2.411-1.922.725-7.608-3.55-12.843-4.255-5.257-9.588-8.2-12.117-6.433M57.043,278.387c-1.825.039-2.863,4.392-2.158,9.727.727,5.333,2.9,9.53,4.727,9.391,1.786-.116,2.49-4.449,1.8-9.686-.725-5.217-2.588-9.452-4.372-9.432m16,34.177c1.629-.195,2.04-4.51,1.1-9.628-.922-5.137-2.862-9.234-4.49-9.118-1.687.1-2.392,4.452-1.452,9.668.943,5.235,3.217,9.275,4.843,9.078M47.337,294.682c-2.177.118-3.275,5.06-2.217,10.961,1.06,5.921,3.864,10.472,6.02,10.176,2.118-.255,2.8-5.116,1.765-10.9s-3.431-10.373-5.568-10.237m12.472,54.592c2.156-.51,2.391-5.648.745-11.57-1.629-5.921-4.55-10.472-6.726-10.118-2.255.372-2.942,5.608-1.255,11.667s5.02,10.512,7.237,10.022M43.866,261.522c-2.079-.058-3.548,4.452-3.059,10.1.51,5.646,2.745,10.156,4.823,10.117,2.02-.06,3.138-4.57,2.646-10.1s-2.371-10.04-4.411-10.118m25.884,10.2c-.432-4.9-1.922-8.923-3.471-8.961-1.588-.04-2.647,3.96-2.195,8.941.429,4.979,2.214,8.979,3.782,8.941,1.55-.04,2.315-4.02,1.884-8.921m-1.922-70.515c-1.275-.293-2.707,2.785-3.1,6.845-.353,4.078.469,7.548,1.745,7.784,1.275.215,2.53-2.863,2.884-6.883.391-4-.255-7.472-1.53-7.747M3.1,252.659c-.136-4.176-1.391-7.823-3.1-9.548v19.315c2-1.118,3.294-5.04,3.1-9.767M62.924,239.8c0,4.588,1.275,8.414,2.748,8.51,1.429.118,2.489-3.47,2.489-8,.02-4.51-1.04-8.315-2.472-8.49-1.45-.177-2.725,3.391-2.765,7.979m-2.333,80.985c1.3,5.55,4,9.746,5.883,9.431,1.844-.333,2.177-4.959.9-10.411-1.235-5.432-3.588-9.687-5.452-9.51-1.9.235-2.588,4.939-1.333,10.49m-17.216-92.4c-1.942-.216-3.686,3.823-3.707,9.1s1.687,9.667,3.628,9.823c1.9.118,3.333-3.96,3.353-9.136s-1.373-9.531-3.275-9.785M15.648,260.6c-2.666-.058-4.588,4.805-4.1,10.923.51,6.119,3.3,10.982,5.942,10.942,2.588-.079,4.118-4.942,3.608-10.9s-2.844-10.843-5.452-10.962M5.608,316.624c-3.117.371-4.7,5.962-3.235,12.492,1.452,6.528,5.353,11.332,8.451,10.8,3.02-.528,4.119-6.058,2.667-12.391-1.412-6.355-4.823-11.236-7.883-10.9m9.61-91.789c-2.492-.3-4.687,4.04-4.747,9.745-.038,5.706,2.119,10.491,4.608,10.688,2.432.156,4.275-4.217,4.334-9.805.019-5.57-1.763-10.315-4.195-10.628M35,324.447c1.391,6.138,4.706,10.727,7.138,10.315,2.392-.411,3.02-5.568,1.667-11.57s-4.235-10.666-6.648-10.411c-2.469.273-3.528,5.51-2.156,11.667M6.628,290.29c-.783-6.1-3.608-11-6.51-10.961-.058,0-.078.018-.118.018V300.27a3.99,3.99,0,0,0,2.981,1.393c2.922-.217,4.432-5.295,3.647-11.373M23.687,155.047c-1.881-.588-4.215,2.412-5.02,6.745-.843,4.335.138,8.315,2.04,8.825,1.882.53,3.942-2.55,4.765-6.823.823-4.257.058-8.159-1.786-8.747m8.962,200.4c2.785-.629,3.373-6.275,1.608-12.649-1.725-6.393-5.216-11.236-8.04-10.8-2.881.49-3.98,6.217-2.177,12.785,1.786,6.569,5.785,11.315,8.609,10.668M19.316,296.427c-2.8.176-4.373,5.53-3.237,11.943,1.119,6.392,4.53,11.274,7.275,10.921,2.727-.333,3.826-5.628,2.707-11.863-1.1-6.237-4.021-11.178-6.745-11" transform="translate(0 0)" fill="#595959"/>
              </g>
            </g>
          </g>
        </g>
      </g>
    </g>
  </g>
</svg>
