<svg xmlns="http://www.w3.org/2000/svg" xmlns:xlink="http://www.w3.org/1999/xlink" width="62.985" height="31.476" viewBox="0 0 62.985 31.476">
  <defs>
    <clipPath id="clip-path">
      <rect id="Rectangle_4713" data-name="Rectangle 4713" width="62.985" height="31.476"/>
    </clipPath>
  </defs>
  <g id="Group_4673" data-name="Group 4673" clip-path="url(#clip-path)">
    <path id="Path_17899" data-name="Path 17899" d="M.44,28.192h.575a1.213,1.213,0,0,1,.872.2.88.88,0,0,1,.284.681.782.782,0,0,1-.849.788H.949l1.178,1.917h.464L1.63,30.22a1.1,1.1,0,0,0,.961-1.156,1.271,1.271,0,0,0-.514-1.035,1.558,1.558,0,0,0-.956-.228H.054v3.972H.44Z" transform="translate(-0.001 -0.433)"/>
    <path id="Path_17900" data-name="Path 17900" d="M4.5,29.582V28.191H6.174V27.8H4.113v3.971H6.174v-.385H4.5V29.973H6.174v-.391Z" transform="translate(-0.064 -0.433)"/>
    <path id="Path_17901" data-name="Path 17901" d="M9.814,30.169h-1.5l.743-1.993Zm-2.106,1.6.474-1.245H9.948l.475,1.245h.419L9.306,27.8h-.47L7.3,31.772Z" transform="translate(-0.114 -0.433)"/>
    <path id="Path_17902" data-name="Path 17902" d="M13.836,31.772v-.385h-1.4V27.8h-.392v3.971Z" transform="translate(-0.188 -0.433)"/>
    <path id="Path_17903" data-name="Path 17903" d="M15.841,31.772V28.191h.792V27.8H14.657v.39h.793v3.581Z" transform="translate(-0.228 -0.433)"/>
    <path id="Path_17904" data-name="Path 17904" d="M17.509,29.759a2.02,2.02,0,0,0,2.016,2.091,1.984,1.984,0,0,0,1.514-.671,2.017,2.017,0,0,0,.525-1.42,1.994,1.994,0,0,0-.607-1.458,1.961,1.961,0,0,0-1.425-.581,1.932,1.932,0,0,0-1.4.576,2.031,2.031,0,0,0-.62,1.463m.408.006a1.75,1.75,0,0,1,.609-1.3,1.541,1.541,0,0,1,1-.368,1.689,1.689,0,1,1-1.609,1.665" transform="translate(-0.273 -0.432)"/>
    <path id="Path_17905" data-name="Path 17905" d="M23.357,28.192h.575a1.214,1.214,0,0,1,.872.2.88.88,0,0,1,.284.681.782.782,0,0,1-.849.788h-.374l1.178,1.917h.463l-.96-1.553a1.1,1.1,0,0,0,.96-1.156,1.27,1.27,0,0,0-.513-1.035,1.56,1.56,0,0,0-.956-.228H22.972v3.972h.385Z" transform="translate(-0.358 -0.433)"/>
    <path id="Path_17906" data-name="Path 17906" d="M0,25.957H25.289V.668H0ZM13.445,3.7h2.818a4.78,4.78,0,0,1,0,9.54l-2.818,0ZM10.711,22.775H3.581V3.672h7.13Zm2.734.03V13.3l9.887,9.5Z" transform="translate(0 -0.01)"/>
    <path id="Path_17907" data-name="Path 17907" d="M26.1,27.054a.693.693,0,0,0-.5.207.735.735,0,0,0-.216.513.709.709,0,0,0,.212.505.7.7,0,0,0,.506.214.729.729,0,0,0,.512-.215.693.693,0,0,0,.207-.5.71.71,0,0,0-.207-.508.7.7,0,0,0-.512-.212m.64.722a.607.607,0,0,1-.182.446.652.652,0,0,1-.458.19.644.644,0,0,1-.639-.638.647.647,0,0,1,.193-.456.618.618,0,0,1,.446-.186.635.635,0,0,1,.64.644m-.618-.427h-.3v.826h.124v-.362h.193l.174.362h.143l-.185-.381a.213.213,0,0,0,.2-.217c0-.159-.114-.228-.343-.228m-.024.084c.162,0,.237.042.237.153s-.075.145-.237.145h-.155v-.3Z" transform="translate(-0.396 -0.422)"/>
    <path id="Path_17908" data-name="Path 17908" d="M32.642,7.283q1.305-.616,2.612-1.231L47.957.036A.25.25,0,0,1,48.2.028Q52.132,1.9,56.071,3.763l7.324,3.473c.061.029.1.053.1.133,0,1.13,0,2.26,0,3.39a.446.446,0,0,1-.006.054L62.1,10.153V22.7H34.086V10.069l-1.444.692Zm26.4,12.384c0-.046.006-.087.006-.127q0-5.363,0-10.728a.165.165,0,0,0-.114-.174c-.65-.308-1.3-.62-1.945-.931q-4.4-2.1-8.8-4.211a.229.229,0,0,0-.22,0Q42.6,6.04,37.231,8.578a.177.177,0,0,0-.117.188q0,5.382,0,10.766v.135Z" transform="translate(-0.509 0)"/>
    <path id="Path_17909" data-name="Path 17909" d="M55.523,31.935l-1.343-1.61h-.024v1.548h-.5v-2.4a2.747,2.747,0,0,1,.313,0,.2.2,0,0,1,.113.079c.407.485.809.973,1.214,1.46.018.022.037.041.074.082V29.537h.5v2.4Z" transform="translate(-0.836 -0.459)"/>
    <path id="Path_17910" data-name="Path 17910" d="M43.552,31.935c-.045-.016-.091-.034-.136-.047a1.219,1.219,0,0,1-.892-1.286,1.232,1.232,0,0,1,1.118-1.125,1.262,1.262,0,0,1,1.356.8,1.225,1.225,0,0,1-.835,1.614c-.047.012-.093.029-.14.043Zm.993-1.257a.75.75,0,1,0-1.5,0,.752.752,0,1,0,1.5,0" transform="translate(-0.663 -0.459)"/>
    <path id="Path_17911" data-name="Path 17911" d="M35.251,31.935c-.122-.046-.249-.082-.365-.139a1.22,1.22,0,0,1-.648-1.329,1.239,1.239,0,0,1,1.113-.991,1.26,1.26,0,0,1,1.358.835,1.232,1.232,0,0,1-.894,1.595c-.031.008-.062.02-.093.03Zm.993-1.246a.751.751,0,1,0-1.5-.009.753.753,0,1,0,1.5.009" transform="translate(-0.533 -0.459)"/>
    <path id="Path_17912" data-name="Path 17912" d="M51.428,31.936c-.006,0-.012-.014-.019-.015a.835.835,0,0,1-.7-.878c-.012-.48,0-.96,0-1.44a.638.638,0,0,1,.008-.065h.5c0,.08,0,.154,0,.226.007.455,0,.911.026,1.364a.415.415,0,0,0,.583.383.436.436,0,0,0,.28-.442c.015-.351.011-.7.014-1.055,0-.157,0-.313,0-.476h.49c.006.008.014.015.014.022,0,.537.012,1.076-.022,1.611a.764.764,0,0,1-.664.744c-.011,0-.02.014-.03.021Z" transform="translate(-0.79 -0.46)"/>
    <path id="Path_17913" data-name="Path 17913" d="M38.227,27.872l.343.376c-.17.017-.317.038-.464.043-.039,0-.083-.043-.118-.074a1.193,1.193,0,0,1-.1-.108,1.41,1.41,0,0,1-1.1.073,1.153,1.153,0,0,1-.642-.519,1.232,1.232,0,0,1,.273-1.591,1.344,1.344,0,0,1,1.7.039,1.289,1.289,0,0,1,.107,1.76m-.726-.137-.413-.444c.288-.008.578-.14.742.2a.793.793,0,0,0-.074-1.047.728.728,0,0,0-.972-.052.865.865,0,0,0-.165,1.094.685.685,0,0,0,.882.25" transform="translate(-0.561 -0.402)"/>
    <path id="Path_17914" data-name="Path 17914" d="M59.154,25.852h.5v2.394a2.329,2.329,0,0,1-.311,0,.228.228,0,0,1-.122-.088q-.577-.691-1.149-1.385l-.13-.151v1.569h-.5v-2.4a2.817,2.817,0,0,1,.316,0,.216.216,0,0,1,.112.084c.421.505.84,1.012,1.282,1.545Z" transform="translate(-0.896 -0.402)"/>
    <path id="Path_17915" data-name="Path 17915" d="M50.631,28.255a1.234,1.234,0,1,1,1.284-1.227,1.229,1.229,0,0,1-1.284,1.227M49.889,27a.751.751,0,1,0,1.5,0,.749.749,0,1,0-1.5,0" transform="translate(-0.769 -0.402)"/>
    <path id="Path_17916" data-name="Path 17916" d="M61.832,27.329H61.3v-.371h1.092a1.127,1.127,0,0,1-1.169,1.3,1.176,1.176,0,0,1-1.176-.881,1.252,1.252,0,0,1,.565-1.424,1.267,1.267,0,0,1,1.588.271c.03.038.054.082.086.131l-.433.212a2.462,2.462,0,0,0-.218-.23.653.653,0,0,0-.842.041.931.931,0,0,0,.024,1.323.622.622,0,0,0,1.005-.281.87.87,0,0,0,.011-.089" transform="translate(-0.935 -0.402)"/>
    <path id="Path_17917" data-name="Path 17917" d="M47.6,27.165v1.023h-.5V25.853h.5v.913h.914v-.909h.509v2.335h-.5V27.165Z" transform="translate(-0.734 -0.403)"/>
    <path id="Path_17918" data-name="Path 17918" d="M47.035,30.9l.719.977c-.215,0-.406,0-.6,0-.029,0-.059-.051-.081-.085-.181-.271-.361-.542-.561-.846v.925h-.5v-2.34c.083,0,.168,0,.253,0a5.789,5.789,0,0,1,.752.044.6.6,0,0,1,.528.636.628.628,0,0,1-.463.667.284.284,0,0,0-.049.025m-.52-.99v.69c.177,0,.352.016.465-.145a.345.345,0,0,0,.014-.388c-.107-.178-.293-.154-.478-.158" transform="translate(-0.717 -0.46)"/>
    <path id="Path_17919" data-name="Path 17919" d="M38.856,25.853h.5c0,.047.006.1.007.143,0,.434,0,.869.01,1.3a.981.981,0,0,0,.029.221.389.389,0,0,0,.4.335.385.385,0,0,0,.427-.332,1.706,1.706,0,0,0,.037-.368c0-.43,0-.86,0-1.3h.5a.377.377,0,0,1,.013.078c0,.479,0,.96-.01,1.44a.838.838,0,0,1-.921.881,1.535,1.535,0,0,1-.38-.04.81.81,0,0,1-.6-.831c-.021-.5,0-1.01,0-1.53" transform="translate(-0.606 -0.403)"/>
    <path id="Path_17920" data-name="Path 17920" d="M53.659,25.854h.492c0,.035.008.071.008.105,0,.46.014.919-.006,1.378a1.418,1.418,0,0,1-.142.531.694.694,0,0,1-.593.375,1.848,1.848,0,0,1-.541-.024.8.8,0,0,1-.624-.81c-.018-.5-.007-1.009-.008-1.514a.16.16,0,0,1,.012-.041h.491c0,.055,0,.1,0,.152.006.472,0,.943.024,1.414a.41.41,0,0,0,.463.436.368.368,0,0,0,.37-.291,2.069,2.069,0,0,0,.052-.441c.007-.376,0-.753,0-1.129Z" transform="translate(-0.814 -0.403)"/>
    <path id="Path_17921" data-name="Path 17921" d="M43.369,28.186a.369.369,0,0,1-.042.01c-.157,0-.346.052-.462-.018s-.14-.256-.2-.395a.107.107,0,0,0-.117-.081c-.24,0-.48,0-.721,0a.161.161,0,0,0-.114.075,2.871,2.871,0,0,0-.145.329.112.112,0,0,1-.126.088c-.14-.006-.281,0-.441,0,.018-.051.03-.093.046-.132.3-.724.606-1.446.906-2.172a.147.147,0,0,1,.162-.108c.278,0,.279,0,.383.258q.406,1,.811,2c.019.045.034.091.056.146m-1.2-1.705-.278.839h.594l-.316-.839" transform="translate(-0.639 -0.402)"/>
    <path id="Path_17922" data-name="Path 17922" d="M38.209,31.012v.858H37.7V29.529a5.134,5.134,0,0,1,1.087.051.728.728,0,0,1-.152,1.411c-.139.013-.279.015-.428.022m0-.394c.184-.008.378.034.493-.143a.372.372,0,0,0,0-.423c-.12-.172-.311-.128-.491-.131Z" transform="translate(-0.588 -0.46)"/>
    <path id="Path_17923" data-name="Path 17923" d="M40.174,29.512a10.287,10.287,0,0,1,1.042.065c.391.063.562.344.533.768a.652.652,0,0,1-.631.645c-.139.014-.281.015-.439.022v.86h-.505Zm.512.41v.7c.181-.006.374.035.491-.14a.37.37,0,0,0,0-.422c-.118-.174-.31-.132-.492-.134" transform="translate(-0.626 -0.46)"/>
    <path id="Path_17924" data-name="Path 17924" d="M35.673,25.855v.392H34.86v.514h.783v.4h-.782v.632h.81v.4H34.346V25.855Z" transform="translate(-0.535 -0.403)"/>
    <path id="Path_17925" data-name="Path 17925" d="M56.062,26.053l-.21.281a2.967,2.967,0,0,0-.409-.145.332.332,0,0,0-.217.067.208.208,0,0,0,0,.361,1.441,1.441,0,0,0,.221.11c.083.036.17.065.252.1a.654.654,0,0,1,.428.786.756.756,0,0,1-.66.632.908.908,0,0,1-.966-.455l.29-.261a1.978,1.978,0,0,0,.315.271.328.328,0,0,0,.5-.308.287.287,0,0,0-.177-.25c-.107-.052-.221-.091-.332-.135-.428-.172-.587-.437-.483-.808a.754.754,0,0,1,.874-.5,1.038,1.038,0,0,1,.564.253" transform="translate(-0.85 -0.402)"/>
    <path id="Path_17926" data-name="Path 17926" d="M61.718,31.876h-.505c0-.232-.015-.46,0-.684a1.024,1.024,0,0,0-.2-.7c-.211-.3-.4-.619-.608-.955.2,0,.386,0,.569,0,.024,0,.052.047.069.078.132.233.262.469.4.723a6.033,6.033,0,0,0,.329-.549.386.386,0,0,1,.462-.26,1.741,1.741,0,0,0,.289,0c-.031.052-.049.088-.071.121-.22.345-.446.686-.66,1.036a.545.545,0,0,0-.075.263c-.01.305,0,.611,0,.925" transform="translate(-0.942 -0.46)"/>
    <path id="Path_17927" data-name="Path 17927" d="M49.855,29.539v.395h-.5v1.94h-.511V29.937h-.517v-.4Z" transform="translate(-0.753 -0.46)"/>
    <path id="Path_17928" data-name="Path 17928" d="M59.8,29.538v.4h-.509v1.938h-.505V29.94h-.519v-.4Z" transform="translate(-0.908 -0.46)"/>
    <path id="Path_17929" data-name="Path 17929" d="M43.633,25.852h.49v1.935h.709v.4h-1.2Z" transform="translate(-0.68 -0.403)"/>
    <rect id="Rectangle_4709" data-name="Rectangle 4709" width="0.496" height="2.336" transform="translate(55.62 25.453)"/>
    <rect id="Rectangle_4710" data-name="Rectangle 4710" width="0.497" height="2.337" transform="translate(56.042 29.079)"/>
    <rect id="Rectangle_4711" data-name="Rectangle 4711" width="11.825" height="3.24" transform="translate(41.637 9.025)"/>
    <rect id="Rectangle_4712" data-name="Rectangle 4712" width="11.827" height="3.178" transform="translate(41.633 14.002)"/>
  </g>
</svg>
