<svg xmlns="http://www.w3.org/2000/svg" xmlns:xlink="http://www.w3.org/1999/xlink" width="201.534" height="57.581" viewBox="0 0 201.534 57.581">
  <defs>
    <clipPath id="clip-path">
      <rect id="Rectangle_19" data-name="Rectangle 19" width="201.534" height="57.581" fill="#c20017"/>
    </clipPath>
  </defs>
  <g id="Group_3" data-name="Group 3" clip-path="url(#clip-path)">
    <path id="Path_17" data-name="Path 17" d="M.082,32.093c-.238-1.189.06-1.843.655-1.843.831,0,.831.714,1.129,1.963a12.687,12.687,0,0,0,12.48,8.914c5.648,0,11.175-3.15,11.175-9.389,0-11.472-24.131-5.054-24.131-20.565C1.39,3.625,7.749,0,14.584,0c7.191,0,9.152,2.139,9.984,2.139.536,0,.654-.653,1.248-.653.357,0,.653.178.714.831l.891,8.084c.06.476-.058.891-.653.891-.654,0-1.07-1.248-1.247-1.782C23.736,4.4,19.4,1.783,14.168,1.783c-4.7,0-9.688,2.259-9.688,7.727,0,11.173,24.13,4.636,24.13,21.037,0,4.993-3.506,12.482-17,12.482-4.4,0-9.806-2.2-10.046-3.268Z" transform="translate(0 0)" fill="#c20017"/>
    <path id="Path_18" data-name="Path 18" d="M121.837,50.6c-5.244,2.1-16.593,6.3-27.767,6.3A44.824,44.824,0,0,1,65.395,46.425L54.328,35.031c-.284-.327-.448-.53-.448-.774,0-.2.243-.446.61-.774l9.532-8.473c4.644-3.788,5.581-2.241,5.581-3.543,0-.286-.488-.327-.734-.327-1.3,0-1.629.162-3.747.162-2.158,0-2.81-.162-4.317-.162-.327,0-.53.162-.53.489,0,.733,2.28.612,2.28,1.915,0,1.019-2.117,2.606-2.892,3.3l-8.187,7.413a1.954,1.954,0,0,1-.912.2c-.122,0-.2-.163-.2-.407V24.888c0-2.892,2.364-2.486,2.364-3.38,0-.245-.123-.368-.326-.368-1.222,0-2.949.162-4.661.162-1.344,0-2.647-.162-3.95-.162-.366,0-.53.082-.53.449,0,1.058,3.421.081,3.421,3.461V45.908c0,3.462-2.891,2.77-2.891,3.421,0,.612.57.653,1.017.653.652,0,2.843-.162,4.921-.162,3.136,0,3.289.045,3.412.045.244,0,1.1,0,1.1-.406,0-1.468-3.877.562-3.877-3.959V36.987a.354.354,0,0,1,.367-.406,2.109,2.109,0,0,1,1.2.406l11.6,11.628C66.913,52.065,77.47,58.967,92.2,58.967s29.988-7.655,29.988-7.655c.406-.349.455-.23.292-.64-.117-.288-.358-.195-.647-.078" transform="translate(-16.181 -7.908)" fill="#c20017"/>
    <path id="Path_19" data-name="Path 19" d="M80.815,35.179c0-8.474,6.6-14.625,14.95-14.625,8.31,0,14.706,5.989,14.706,14.422,0,9.165-6.314,15.072-15.4,15.072-8.84,0-14.257-6.274-14.257-14.868M83.789,34c0,7.537,4.929,14.826,12.995,14.826,5.948,0,10.713-4.765,10.713-12.3,0-7.414-5.011-14.624-12.954-14.624C87.7,21.9,83.789,27.562,83.789,34" transform="translate(-30.23 -7.689)" fill="#c20017"/>
    <path id="Path_20" data-name="Path 20" d="M156.574,34.61c.326,0,1.1-.165,1.1.367,0,.854-2.077-.083-2.077,2.646v8.311c-4.2,1.344-5.3,4.114-12.546,4.114-9,0-14.584-5.581-14.584-14.624,0-8.8,6.6-14.869,15.236-14.869,7.047,0,9.083,2.771,10.225,2.771.449,0,.612-.733,1.059-.733.57,0,.408.61.449.936l.407,5.337c0,.327-.04.733-.448.733-1.06,0-2.894-7.862-12.507-7.862-7.332,0-11,6.192-11,12.914,0,7.21,4.156,14.094,12.015,14.094,3.709,0,8.475-1.832,8.475-5.3V37.135c0-1.914-3.545-1.06-3.545-2.079,0-.53.57-.447.938-.447Z" transform="translate(-48.056 -7.689)" fill="#c20017"/>
    <path id="Path_21" data-name="Path 21" d="M204.318,46.233c.205,3.424,3.219,1.915,3.219,3.342,0,.407-.53.407-.977.407-.775,0-2.2-.162-3.83-.162-1.262,0-2.566.162-3.585.162-.366,0-.448-.2-.448-.366,0-1.223,2.566-.327,2.526-3.342l-.409-15.805c0-1.018-.2-1.589-.448-1.589-.284,0-.651.368-1.059,1.224l-8.432,17.19c-.2.366-.854,2.036-1.261,2.036s-.694-.9-.817-1.181L180.124,29.98c-.124-.325-.328-.449-.491-.449-.121,0-.243.205-.285.612l-.488,14.3c-.205,5.417,3.667,3.625,3.667,5.091,0,.407-.45.448-1.02.448-.531,0-2.362-.162-3.586-.162-2.118,0-2.81.162-3.543.162-.286,0-.407-.2-.407-.488,0-1.386,2.606.284,2.891-3.951.49-6.642.978-10.958.978-15.278,0-9.572-3.869-7.29-3.869-8.675,0-.367.326-.449.693-.449.732,0,1.466.162,2.24.162.732,0,1.466-.162,2.2-.162.572,0,.654.694.857,1.14l9.694,20.693c.449.857.612,1.224.9,1.224.2,0,.61-.855,1.261-2.2l9.7-19.473c.245-.448.57-1.425,1.058-1.385.408,0,1.713.162,1.915.162.936,0,1.3-.162,1.957-.162a.457.457,0,0,1,.4.489c0,1.3-3.258-.448-3.094,4.4Z" transform="translate(-65.078 -7.908)" fill="#c20017"/>
    <path id="Path_22" data-name="Path 22" d="M248.246,39.856c-.407-.938-.652-1.55-1.792-1.55h-8.962c-.774,0-1.508,0-1.913.856l-2.608,5.7a4.183,4.183,0,0,0-.286,1.425c0,2.852,2.894,1.632,2.894,2.689,0,.734-.571.612-1.1.612-1.14,0-2.282-.162-3.422-.162-1.1,0-2.2.162-3.259.162-.244,0-.367-.2-.367-.449,0-.856,1.915-.163,2.973-2.485l9.738-20.775c2.4-5.134,2.524-5.785,3.055-5.785.448,0,.732,1.182.853,1.507l8.474,20.977a25.852,25.852,0,0,0,2.036,4.646c1.222,1.874,3.586.976,3.586,2,0,.366-.285.366-.571.366-1.669,0-3.339-.162-5.01-.162-1.1,0-2.2.162-3.3.162-.244,0-.9,0-.9-.407,0-.979,2.445-.571,2.445-2.121A17.16,17.16,0,0,0,249.55,43.2Zm-11-4.074c-.286.57,0,.734.53.734h8.064c.9,0,.856-.285.653-.814L242.5,25.884c-.2-.491-.407-.491-.65,0Z" transform="translate(-85.075 -7.519)" fill="#c20017"/>
    <path id="Path_23" data-name="Path 23" d="M279.525,29.165c0-8.473-4.929-6.11-4.929-7.617,0-.246.408-.407.612-.407.652,0,1.263.161,1.914.161.612,0,1.264-.161,1.873-.161.449,0,.814.652,1.06.938l19.431,21.63c.244.285.408.448.489.448s.123-.122.123-.448V26.68c0-5.335-4.523-3.788-4.523-5.132a.4.4,0,0,1,.449-.407c1.223,0,2.4.161,3.706.161,1.386,0,3.137-.161,4.115-.161.244,0,.407.122.407.367,0,1.058-2.4.325-2.4,3.3V48.393c0,1.182-.041,1.751-.367,1.751-.286,0-.692-.2-1.547-1.14L282.419,29.288c-.083-.081-.571-.774-.856-.774-.164,0-.286.122-.286.937V46.112c0,3.666,3.584,2.239,3.584,3.341,0,.2-.041.53-.447.53-.977,0-2.119-.162-4.114-.162-1.426,0-3.545.162-3.83.162-.489,0-.53-.246-.53-.449,0-1.426,3.585.366,3.585-5.335Z" transform="translate(-102.718 -7.908)" fill="#c20017"/>
    <path id="Path_24" data-name="Path 24" d="M179.289,84.979a.284.284,0,0,1,.215.1l.6.65a3.317,3.317,0,0,1-1.225.945,4.224,4.224,0,0,1-1.744.328,4.129,4.129,0,0,1-1.638-.311,3.606,3.606,0,0,1-1.241-.866,3.786,3.786,0,0,1-.789-1.323,4.953,4.953,0,0,1-.275-1.68,4.509,4.509,0,0,1,.306-1.688,3.808,3.808,0,0,1,2.185-2.183,4.568,4.568,0,0,1,1.706-.309,4.027,4.027,0,0,1,1.592.291,3.747,3.747,0,0,1,1.169.772l-.51.707a.456.456,0,0,1-.116.119.327.327,0,0,1-.195.051.446.446,0,0,1-.266-.1,3.2,3.2,0,0,0-.345-.22,2.765,2.765,0,0,0-.529-.221,3.051,3.051,0,0,0-1.872.1,2.365,2.365,0,0,0-.831.574,2.65,2.65,0,0,0-.543.908,3.5,3.5,0,0,0-.2,1.2,3.594,3.594,0,0,0,.2,1.227,2.7,2.7,0,0,0,.529.905,2.261,2.261,0,0,0,.786.563,2.426,2.426,0,0,0,.973.195,4.152,4.152,0,0,0,.563-.034,2.355,2.355,0,0,0,.464-.108,2.026,2.026,0,0,0,.4-.189,2.517,2.517,0,0,0,.376-.285.516.516,0,0,1,.118-.082.3.3,0,0,1,.136-.031" transform="translate(-64.786 -29.417)" fill="#c20017"/>
    <path id="Path_25" data-name="Path 25" d="M196.573,82.818a4.523,4.523,0,0,1-.3,1.666,3.939,3.939,0,0,1-.842,1.326,3.822,3.822,0,0,1-1.306.874,4.724,4.724,0,0,1-3.385,0,3.853,3.853,0,0,1-1.313-.874,3.915,3.915,0,0,1-.844-1.326,4.776,4.776,0,0,1,0-3.331,3.927,3.927,0,0,1,.844-1.326,3.853,3.853,0,0,1,1.313-.874,4.428,4.428,0,0,1,1.693-.314,4.382,4.382,0,0,1,1.692.317,3.819,3.819,0,0,1,2.148,2.2,4.525,4.525,0,0,1,.3,1.666m-1.561,0a3.82,3.82,0,0,0-.178-1.207,2.555,2.555,0,0,0-.513-.908,2.2,2.2,0,0,0-.81-.571,3.034,3.034,0,0,0-2.158,0,2.223,2.223,0,0,0-.817.571,2.584,2.584,0,0,0-.518.908,4.12,4.12,0,0,0,0,2.415,2.545,2.545,0,0,0,.518.905,2.247,2.247,0,0,0,.817.568,3.042,3.042,0,0,0,2.158,0,2.219,2.219,0,0,0,.81-.568,2.517,2.517,0,0,0,.513-.905,3.82,3.82,0,0,0,.178-1.207" transform="translate(-70.431 -29.417)" fill="#c20017"/>
    <path id="Path_26" data-name="Path 26" d="M210.654,83.944q.082.2.161.393c.053-.136.108-.27.164-.4s.117-.258.182-.379l2.421-4.53a.594.594,0,0,1,.093-.136.294.294,0,0,1,.108-.074.469.469,0,0,1,.133-.028c.048,0,.107-.006.175-.006h1.148v8.178H213.9V81.679c0-.1,0-.205.008-.322s.014-.235.024-.356l-2.471,4.638a.661.661,0,0,1-.221.246.573.573,0,0,1-.317.088h-.209a.57.57,0,0,1-.317-.088.644.644,0,0,1-.22-.246l-2.506-4.654q.023.187.032.365t.009.33v5.282h-1.341V78.783h1.148c.069,0,.127,0,.176.006a.46.46,0,0,1,.132.028.324.324,0,0,1,.111.074.562.562,0,0,1,.1.136l2.444,4.541c.063.121.123.246.178.376" transform="translate(-77.196 -29.47)" fill="#c20017"/>
    <path id="Path_27" data-name="Path 27" d="M230.388,83.944q.083.2.161.393c.053-.136.108-.27.164-.4s.117-.258.181-.379l2.42-4.53a.638.638,0,0,1,.093-.136.316.316,0,0,1,.108-.074.489.489,0,0,1,.133-.028c.049,0,.108-.006.175-.006h1.148v8.178h-1.339V81.679c0-.1,0-.205.008-.322s.015-.235.026-.356l-2.472,4.638a.647.647,0,0,1-.22.246.576.576,0,0,1-.317.088h-.209a.577.577,0,0,1-.318-.088.644.644,0,0,1-.22-.246l-2.5-4.654c.015.125.024.246.031.365s.009.229.009.33v5.282H226.1V78.783h1.148c.068,0,.126,0,.175.006a.469.469,0,0,1,.133.028.325.325,0,0,1,.11.074.562.562,0,0,1,.1.136l2.442,4.541c.064.121.123.246.178.376" transform="translate(-84.579 -29.47)" fill="#c20017"/>
    <path id="Path_28" data-name="Path 28" d="M250.994,78.783v1.211H247.37v2.268h2.856v1.17H247.37v2.313h3.625v1.216h-5.158V78.783Z" transform="translate(-91.96 -29.471)" fill="#c20017"/>
    <path id="Path_29" data-name="Path 29" d="M260.713,83.766v3.2h-1.521V78.783h2.494a5.213,5.213,0,0,1,1.434.173,2.728,2.728,0,0,1,.978.484,1.87,1.87,0,0,1,.56.744,2.6,2.6,0,0,1,.056,1.733,2.246,2.246,0,0,1-.351.667,2.342,2.342,0,0,1-.565.526,2.979,2.979,0,0,1-.767.362,1.506,1.506,0,0,1,.5.469l2.047,3.02h-1.369a.66.66,0,0,1-.336-.079.668.668,0,0,1-.235-.226l-1.719-2.619a.611.611,0,0,0-.213-.209.744.744,0,0,0-.342-.062Zm0-1.092h.95a2.358,2.358,0,0,0,.749-.108,1.444,1.444,0,0,0,.527-.3,1.215,1.215,0,0,0,.308-.45,1.571,1.571,0,0,0,.1-.571,1.163,1.163,0,0,0-.409-.956,1.964,1.964,0,0,0-1.253-.334h-.973Z" transform="translate(-96.956 -29.47)" fill="#c20017"/>
    <path id="Path_30" data-name="Path 30" d="M278.777,84.979a.286.286,0,0,1,.215.1l.6.65a3.3,3.3,0,0,1-1.224.945,4.229,4.229,0,0,1-1.746.328,4.129,4.129,0,0,1-1.637-.311,3.6,3.6,0,0,1-1.241-.866,3.789,3.789,0,0,1-.79-1.323,4.982,4.982,0,0,1-.274-1.68,4.508,4.508,0,0,1,.305-1.688,3.854,3.854,0,0,1,.859-1.321,3.894,3.894,0,0,1,1.326-.863,4.568,4.568,0,0,1,1.706-.309,4.031,4.031,0,0,1,1.592.291,3.726,3.726,0,0,1,1.167.772l-.508.707a.473.473,0,0,1-.116.119.336.336,0,0,1-.2.051.443.443,0,0,1-.265-.1,3.207,3.207,0,0,0-.345-.22,2.789,2.789,0,0,0-.53-.221,3.049,3.049,0,0,0-1.871.1,2.36,2.36,0,0,0-.831.574,2.631,2.631,0,0,0-.543.908,3.473,3.473,0,0,0-.2,1.2,3.565,3.565,0,0,0,.2,1.227,2.69,2.69,0,0,0,.528.905,2.279,2.279,0,0,0,.786.563,2.432,2.432,0,0,0,.974.195,4.12,4.12,0,0,0,.561-.034,2.345,2.345,0,0,0,.465-.108,2.037,2.037,0,0,0,.4-.189,2.491,2.491,0,0,0,.377-.285.514.514,0,0,1,.118-.082.3.3,0,0,1,.136-.031" transform="translate(-102.001 -29.417)" fill="#c20017"/>
    <rect id="Rectangle_18" data-name="Rectangle 18" width="1.527" height="8.178" transform="translate(180.757 49.312)" fill="#c20017"/>
    <path id="Path_31" data-name="Path 31" d="M303.8,86.961h-1.176a.509.509,0,0,1-.325-.1.554.554,0,0,1-.185-.246l-.61-1.668h-3.388l-.612,1.668a.53.53,0,0,1-.178.238.5.5,0,0,1-.325.108h-1.181l3.212-8.178h1.555Zm-5.294-3.088h2.608l-1-2.72c-.045-.121-.1-.263-.149-.427s-.109-.342-.161-.535c-.053.192-.105.371-.155.538s-.1.311-.15.435Z" transform="translate(-110.658 -29.47)" fill="#c20017"/>
    <path id="Path_32" data-name="Path 32" d="M314.364,85.706h3.274v1.256h-4.8V78.783h1.522Z" transform="translate(-117.025 -29.47)" fill="#c20017"/>
  </g>
</svg>
