<svg xmlns="http://www.w3.org/2000/svg" xmlns:xlink="http://www.w3.org/1999/xlink" width="321.975" height="91.993" viewBox="0 0 321.975 91.993">
  <defs>
    <clipPath id="clip-path">
      <rect id="Rectangle_17" data-name="Rectangle 17" width="321.975" height="91.993" transform="translate(0 0)" fill="#fff"/>
    </clipPath>
  </defs>
  <g id="Group_1" data-name="Group 1" transform="translate(0 0)" clip-path="url(#clip-path)">
    <path id="Path_1" data-name="Path 1" d="M.131,51.273c-.38-1.9.1-2.944,1.046-2.944,1.327,0,1.327,1.14,1.8,3.136A20.27,20.27,0,0,0,22.919,65.706c9.023,0,17.853-5.033,17.853-15,0-18.328-38.552-8.075-38.552-32.855C2.22,5.792,12.38,0,23.3,0,34.788,0,37.922,3.418,39.251,3.418c.856,0,1.045-1.044,1.994-1.044.57,0,1.044.284,1.14,1.328l1.423,12.915c.1.76-.093,1.423-1.043,1.423-1.045,0-1.709-1.994-1.993-2.847C37.922,7.025,30.99,2.848,22.635,2.848c-7.5,0-15.478,3.609-15.478,12.345,0,17.85,38.551,7.406,38.551,33.61,0,7.977-5.6,19.941-27.155,19.941-7.027,0-15.666-3.512-16.049-5.221Z" fill="#fff"/>
    <path id="Path_2" data-name="Path 2" d="M168.8,68.2c-8.378,3.35-26.51,10.061-44.361,10.061A71.612,71.612,0,0,1,78.625,61.536l-17.681-18.2c-.454-.522-.715-.846-.715-1.237,0-.324.389-.713.975-1.236L76.433,27.323c7.42-6.052,8.917-3.58,8.917-5.661,0-.457-.779-.522-1.173-.522-2.082,0-2.6.259-5.987.259-3.447,0-4.489-.259-6.9-.259-.522,0-.846.259-.846.782,0,1.171,3.643.977,3.643,3.059,0,1.628-3.382,4.164-4.621,5.272L56.389,42.1a3.121,3.121,0,0,1-1.457.326c-.195,0-.327-.261-.327-.65V27.128c0-4.621,3.777-3.971,3.777-5.4,0-.392-.2-.588-.521-.588-1.952,0-4.712.259-7.446.259-2.147,0-4.229-.259-6.311-.259-.585,0-.847.131-.847.717,0,1.691,5.466.13,5.466,5.53V60.71c0,5.531-4.619,4.425-4.619,5.466,0,.977.911,1.043,1.625,1.043,1.042,0,4.542-.259,7.862-.259,5.01,0,5.254.072,5.451.072.39,0,1.757,0,1.757-.648,0-2.346-6.194.9-6.194-6.325v-13.6a.566.566,0,0,1,.586-.649,3.369,3.369,0,0,1,1.914.649L75.643,65.034c5.407,5.512,22.274,16.54,45.812,16.54s47.91-12.23,47.91-12.23c.649-.557.727-.367.467-1.022-.187-.46-.572-.311-1.034-.124" fill="#fff"/>
    <path id="Path_3" data-name="Path 3" d="M80.815,43.92c0-13.538,10.541-23.366,23.884-23.366,13.277,0,23.494,9.568,23.494,23.041,0,14.643-10.087,24.079-24.6,24.079-14.123,0-22.778-10.023-22.778-23.754m4.751-1.888c0,12.042,7.875,23.687,20.761,23.687,9.5,0,17.116-7.612,17.116-19.653,0-11.844-8.006-23.363-20.695-23.363-10.935,0-17.182,9.047-17.182,19.329" fill="#fff"/>
    <path id="Path_4" data-name="Path 4" d="M173.372,43.009c.521,0,1.758-.263,1.758.587,0,1.365-3.319-.132-3.319,4.228V61.1c-6.7,2.147-8.46,6.572-20.044,6.572-14.383,0-23.3-8.916-23.3-23.364,0-14.057,10.544-23.755,24.341-23.755,11.259,0,14.511,4.427,16.335,4.427.717,0,.977-1.171,1.692-1.171.91,0,.652.974.717,1.495l.65,8.526c0,.522-.064,1.171-.715,1.171-1.693,0-4.623-12.56-19.981-12.56-11.714,0-17.571,9.892-17.571,20.631,0,11.519,6.639,22.517,19.2,22.517,5.926,0,13.54-2.927,13.54-8.461V47.044c0-3.058-5.663-1.693-5.663-3.321,0-.846.91-.714,1.5-.714Z" fill="#fff"/>
    <path id="Path_5" data-name="Path 5" d="M222.454,61.23c.328,5.47,5.143,3.06,5.143,5.339,0,.65-.846.65-1.561.65-1.238,0-3.516-.259-6.119-.259-2.016,0-4.1.259-5.727.259-.584,0-.715-.326-.715-.585,0-1.954,4.1-.523,4.036-5.339l-.653-25.251c0-1.626-.324-2.539-.716-2.539-.454,0-1.04.588-1.692,1.955L200.979,62.923c-.326.585-1.365,3.253-2.015,3.253s-1.108-1.432-1.305-1.886L183.8,35.264c-.2-.52-.524-.717-.784-.717-.193,0-.388.328-.455.978l-.779,22.844c-.328,8.655,5.858,5.792,5.858,8.134,0,.651-.719.716-1.629.716-.848,0-3.774-.259-5.729-.259-3.383,0-4.49.259-5.66.259-.457,0-.65-.326-.65-.78,0-2.215,4.164.454,4.619-6.313.783-10.611,1.562-17.507,1.562-24.408,0-15.293-6.181-11.647-6.181-13.86,0-.586.521-.717,1.107-.717,1.17,0,2.342.259,3.578.259,1.17,0,2.342-.259,3.512-.259.914,0,1.045,1.108,1.369,1.822l15.488,33.059c.717,1.369.977,1.956,1.434,1.956.324,0,.974-1.366,2.015-3.514l15.491-31.11c.392-.715.91-2.276,1.691-2.213.652,0,2.736.259,3.059.259,1.5,0,2.082-.259,3.127-.259a.729.729,0,0,1,.646.781c0,2.082-5.205-.716-4.943,7.03Z" fill="#fff"/>
    <path id="Path_6" data-name="Path 6" d="M260.686,51.664c-.65-1.5-1.041-2.476-2.863-2.476H243.505c-1.237,0-2.409,0-3.057,1.367l-4.166,9.114a6.683,6.683,0,0,0-.457,2.276c0,4.557,4.623,2.608,4.623,4.3,0,1.172-.912.978-1.758.978-1.822,0-3.646-.259-5.467-.259-1.757,0-3.513.259-5.207.259-.39,0-.586-.327-.586-.717,0-1.367,3.059-.261,4.75-3.97l15.557-33.19c3.838-8.2,4.033-9.243,4.881-9.243.715,0,1.17,1.888,1.363,2.408L267.52,56.021c.975,2.414,1.756,5.144,3.252,7.423,1.953,2.994,5.729,1.56,5.729,3.19,0,.585-.455.585-.912.585-2.666,0-5.334-.259-8-.259-1.756,0-3.516.259-5.272.259-.39,0-1.433,0-1.433-.651,0-1.564,3.906-.912,3.906-3.388,0-1.43-1.369-4.422-2.016-6.179Zm-17.57-6.509c-.457.911,0,1.172.846,1.172h12.884c1.43,0,1.368-.455,1.043-1.3l-6.381-15.684c-.322-.784-.65-.784-1.039,0Z" fill="#fff"/>
    <path id="Path_7" data-name="Path 7" d="M282.471,33.961c0-13.536-7.875-9.761-7.875-12.169,0-.393.652-.651.977-.651,1.041,0,2.017.258,3.058.258.977,0,2.02-.258,2.992-.258.717,0,1.3,1.042,1.694,1.5L314.36,57.2c.39.455.652.716.781.716s.2-.195.2-.716v-27.2c0-8.523-7.226-6.052-7.226-8.2a.633.633,0,0,1,.717-.651c1.954,0,3.839.258,5.921.258,2.215,0,5.012-.258,6.575-.258.39,0,.65.195.65.587,0,1.69-3.838.52-3.838,5.27V64.68c0,1.888-.066,2.8-.586,2.8-.457,0-1.1-.325-2.472-1.822l-27.985-31.5c-.133-.13-.912-1.237-1.367-1.237-.262,0-.457.2-.457,1.5V61.036c0,5.857,5.726,3.577,5.726,5.337,0,.326-.066.846-.714.846-1.561,0-3.385-.259-6.573-.259-2.279,0-5.664.259-6.119.259-.781,0-.847-.393-.847-.717,0-2.278,5.728.585,5.728-8.524Z" fill="#fff"/>
    <path id="Path_8" data-name="Path 8" d="M182.932,88.768a.454.454,0,0,1,.344.154l.959,1.039a5.3,5.3,0,0,1-1.957,1.509,6.749,6.749,0,0,1-2.787.524,6.6,6.6,0,0,1-2.617-.5,5.761,5.761,0,0,1-1.983-1.383A6.049,6.049,0,0,1,173.631,88a7.912,7.912,0,0,1-.439-2.684,7.2,7.2,0,0,1,.489-2.7,6.083,6.083,0,0,1,3.491-3.488,7.3,7.3,0,0,1,2.725-.493,6.434,6.434,0,0,1,2.543.465,5.986,5.986,0,0,1,1.867,1.234l-.814,1.129a.729.729,0,0,1-.186.19.523.523,0,0,1-.311.081.713.713,0,0,1-.425-.162,5.12,5.12,0,0,0-.551-.352,4.417,4.417,0,0,0-.845-.353,4.874,4.874,0,0,0-2.991.158,3.779,3.779,0,0,0-1.328.917,4.234,4.234,0,0,0-.867,1.45,5.6,5.6,0,0,0-.312,1.92,5.743,5.743,0,0,0,.312,1.961,4.32,4.32,0,0,0,.845,1.446,3.612,3.612,0,0,0,1.256.9,3.876,3.876,0,0,0,1.554.311,6.632,6.632,0,0,0,.9-.054,3.759,3.759,0,0,0,.741-.172,3.238,3.238,0,0,0,.641-.3,4.023,4.023,0,0,0,.6-.456.823.823,0,0,1,.189-.131.484.484,0,0,1,.217-.05" fill="#fff"/>
    <path id="Path_9" data-name="Path 9" d="M201.528,85.316a7.225,7.225,0,0,1-.48,2.661A6.293,6.293,0,0,1,199.7,90.1a6.105,6.105,0,0,1-2.086,1.4,7.548,7.548,0,0,1-5.408,0,6.156,6.156,0,0,1-2.1-1.4,6.254,6.254,0,0,1-1.349-2.119,7.631,7.631,0,0,1,0-5.322,6.274,6.274,0,0,1,1.349-2.119,6.156,6.156,0,0,1,2.1-1.4,7.074,7.074,0,0,1,2.705-.5,7,7,0,0,1,2.7.506,6.1,6.1,0,0,1,3.432,3.51,7.229,7.229,0,0,1,.48,2.661m-2.494,0a6.1,6.1,0,0,0-.285-1.929,4.082,4.082,0,0,0-.819-1.45,3.508,3.508,0,0,0-1.294-.912,4.846,4.846,0,0,0-3.448,0,3.552,3.552,0,0,0-1.306.912,4.127,4.127,0,0,0-.827,1.45,6.583,6.583,0,0,0,0,3.858,4.065,4.065,0,0,0,.827,1.446,3.59,3.59,0,0,0,1.306.908,4.861,4.861,0,0,0,3.448,0,3.545,3.545,0,0,0,1.294-.908,4.021,4.021,0,0,0,.819-1.446,6.1,6.1,0,0,0,.285-1.929" fill="#fff"/>
    <path id="Path_10" data-name="Path 10" d="M213.214,87.028q.13.312.257.628c.084-.217.172-.431.262-.642s.187-.412.291-.605l3.867-7.237a.951.951,0,0,1,.148-.217.47.47,0,0,1,.172-.118.751.751,0,0,1,.212-.045c.077-.006.171-.009.28-.009h1.834V91.848H218.4V83.409c0-.156,0-.328.013-.515s.022-.376.039-.569L214.5,89.734a1.055,1.055,0,0,1-.353.393.915.915,0,0,1-.506.14h-.334a.911.911,0,0,1-.506-.14,1.029,1.029,0,0,1-.352-.393l-4-7.436q.036.3.051.583c.009.19.014.366.014.528v8.439h-2.143V78.783H208.2c.11,0,.2,0,.281.009a.736.736,0,0,1,.211.045.517.517,0,0,1,.178.118.9.9,0,0,1,.153.217l3.9,7.255c.1.193.2.393.284.6" fill="#fff"/>
    <path id="Path_11" data-name="Path 11" d="M232.948,87.028q.132.312.258.628c.084-.217.172-.431.262-.642s.187-.412.289-.605l3.867-7.237a1.019,1.019,0,0,1,.148-.217.5.5,0,0,1,.172-.118.781.781,0,0,1,.213-.045c.078-.006.172-.009.279-.009h1.834V91.848h-2.14V83.409c0-.156,0-.328.013-.515s.024-.376.041-.569l-3.949,7.409a1.034,1.034,0,0,1-.351.393.92.92,0,0,1-.506.14h-.334a.922.922,0,0,1-.508-.14,1.029,1.029,0,0,1-.352-.393l-4-7.436c.024.2.039.393.049.583s.014.366.014.528v8.439H226.1V78.783h1.834c.108,0,.2,0,.28.009a.751.751,0,0,1,.212.045.519.519,0,0,1,.176.118.9.9,0,0,1,.155.217l3.9,7.255c.1.193.2.393.285.6" fill="#fff"/>
    <path id="Path_12" data-name="Path 12" d="M254.077,78.783v1.934h-5.791V84.34h4.562v1.87h-4.562v3.7h5.791v1.943h-8.24V78.783Z" fill="#fff"/>
    <path id="Path_13" data-name="Path 13" d="M261.622,86.744v5.1h-2.43V78.783h3.985a8.33,8.33,0,0,1,2.291.276,4.36,4.36,0,0,1,1.562.773,2.988,2.988,0,0,1,.895,1.188,4.151,4.151,0,0,1,.09,2.769,3.589,3.589,0,0,1-.561,1.066,3.743,3.743,0,0,1-.9.84,4.76,4.76,0,0,1-1.225.579,2.407,2.407,0,0,1,.8.75l3.271,4.825h-2.187a1.054,1.054,0,0,1-.537-.127,1.067,1.067,0,0,1-.375-.361l-2.746-4.184a.977.977,0,0,0-.34-.334,1.188,1.188,0,0,0-.547-.1Zm0-1.744h1.518a3.766,3.766,0,0,0,1.2-.172,2.308,2.308,0,0,0,.842-.474,1.94,1.94,0,0,0,.492-.719,2.51,2.51,0,0,0,.162-.912,1.859,1.859,0,0,0-.654-1.527,3.137,3.137,0,0,0-2-.533h-1.555Z" fill="#fff"/>
    <path id="Path_14" data-name="Path 14" d="M282.421,88.768a.457.457,0,0,1,.343.154l.957,1.039a5.269,5.269,0,0,1-1.955,1.509,6.756,6.756,0,0,1-2.789.524,6.6,6.6,0,0,1-2.616-.5,5.757,5.757,0,0,1-1.982-1.383A6.053,6.053,0,0,1,273.117,88a7.961,7.961,0,0,1-.437-2.684,7.2,7.2,0,0,1,.488-2.7,6.156,6.156,0,0,1,1.373-2.11,6.221,6.221,0,0,1,2.119-1.378,7.3,7.3,0,0,1,2.725-.493,6.441,6.441,0,0,1,2.543.465,5.954,5.954,0,0,1,1.865,1.234l-.812,1.129a.757.757,0,0,1-.185.19.537.537,0,0,1-.314.081.708.708,0,0,1-.423-.162,5.119,5.119,0,0,0-.551-.352,4.456,4.456,0,0,0-.846-.353,4.871,4.871,0,0,0-2.99.158,3.77,3.77,0,0,0-1.328.917,4.2,4.2,0,0,0-.867,1.45,5.548,5.548,0,0,0-.313,1.92,5.7,5.7,0,0,0,.313,1.961,4.3,4.3,0,0,0,.843,1.446,3.64,3.64,0,0,0,1.256.9,3.885,3.885,0,0,0,1.556.311,6.58,6.58,0,0,0,.9-.054,3.747,3.747,0,0,0,.743-.172,3.256,3.256,0,0,0,.64-.3,3.978,3.978,0,0,0,.6-.456.823.823,0,0,1,.189-.131.485.485,0,0,1,.218-.05" fill="#fff"/>
    <rect id="Rectangle_16" data-name="Rectangle 16" width="2.439" height="13.066" transform="translate(288.782 78.782)" fill="#fff"/>
    <path id="Path_15" data-name="Path 15" d="M308.569,91.849H306.69a.813.813,0,0,1-.519-.159.885.885,0,0,1-.295-.393l-.975-2.665h-5.412l-.977,2.665a.846.846,0,0,1-.285.38.8.8,0,0,1-.519.172h-1.887l5.131-13.066h2.484Zm-8.457-4.934h4.166l-1.592-4.346c-.072-.193-.152-.42-.238-.682s-.174-.547-.258-.854c-.084.307-.168.593-.248.859s-.162.5-.24.695Z" fill="#fff"/>
    <path id="Path_16" data-name="Path 16" d="M315.274,89.843h5.23v2.006h-7.662V78.783h2.432Z" fill="#fff"/>
  </g>
</svg>
