<?xml version="1.0" encoding="utf-8"?>
<!-- Generator: Adobe Illustrator 27.0.1, SVG Export Plug-In . SVG Version: 6.00 Build 0)  -->
<svg version="1.1" xmlns="http://www.w3.org/2000/svg" xmlns:xlink="http://www.w3.org/1999/xlink" x="0px" y="0px"
	 viewBox="0 0 232.6 232.6" style="enable-background:new 0 0 232.6 232.6;" xml:space="preserve">
<style type="text/css">
	.st0{display:none;}
	.st1{display:inline;}
	.st2{fill:none;stroke:#253130;stroke-miterlimit:10;}
	.st3{fill:#262626;}
</style>
<g id="Layer_1" class="st0">
	<g class="st1">
		<g>
			<path class="st2" d="M120.1,97.4c-0.7,1.9-3.2,4.1-5.1,3.4c-1.9-0.7-2.3-4.5-1.8-5.9c0.7-1.9,2.8-3,4.7-2.3
				C121.2,94,120.5,96.2,120.1,97.4z"/>
			<g>
				<g>
					<path class="st2" d="M114.4,118l-5.2,19c-0.2,0.6-0.8,1-1.4,0.8l-1.8-0.4c-0.6-0.1-1-0.8-0.8-1.4l5.5-20.2"/>
				</g>
			</g>
			<path class="st2" d="M109.6,108.5l0.3-1.6l0.8-3.6c0.3-1.4,1.5-2.6,3-2.6c0,0,0,0,0,0l0,0c0.9,0,2.2,0.3,2.8,1.4
				c0,0,1.7,3.1,2.7,3.5c1.3,0.5,5.3-0.9,5.3-0.9c1-0.2,2,0.4,2.2,1.4l0,0c0.2,1,0.6,1.1-0.4,1.3c0,0-5,2.4-8.1,1.6
				c-2.5-0.6-4.4-3.2-4.4-3.2"/>
			<path class="st2" d="M116.8,108.2l-0.8,3.7c-0.1,0.4,0.1,0.9,0.5,1.1l4.4,2.7c1.2,0.8,1.8,2.2,1.5,3.6l-3.7,14.5
				c-0.2,0.6-0.8,1-1.4,0.8l-2-0.5c-0.6-0.2-1-0.8-0.8-1.4l3.2-12.6c0-0.2,0-0.4-0.2-0.4l-6.8-4c-1.3-0.8-2-2.3-1.7-3.8l0.3-1.2"/>
			<line class="st2" x1="124.9" y1="108.2" x2="126.1" y2="130.1"/>
			<line class="st2" x1="124.4" y1="99.6" x2="124.7" y2="104.4"/>
			<polyline class="st2" points="94.6,141.1 102.6,136.5 110.1,138.5 113.1,136.6 115.6,134.3 118.4,135 121.9,137.5 124.7,137.5 
							"/>
			<polyline class="st2" points="119.5,136.3 124.7,130.4 129.2,129.4 134.5,126.8 139.3,126.8 			"/>
			<line class="st2" x1="101.4" y1="141.1" x2="103.3" y2="141.1"/>
			<line class="st2" x1="117.3" y1="141.1" x2="119.2" y2="141.1"/>
			<line class="st2" x1="126.9" y1="137.5" x2="128.8" y2="137.5"/>
			<line class="st2" x1="132.8" y1="141.1" x2="134.7" y2="141.1"/>
			<line class="st2" x1="137.3" y1="141.1" x2="139.2" y2="141.1"/>
			<line class="st2" x1="130.2" y1="133.6" x2="132.1" y2="133.6"/>
			<line class="st2" x1="135.3" y1="136.3" x2="137.2" y2="136.3"/>
			<line class="st2" x1="124.4" y1="141.1" x2="126.3" y2="141.1"/>
			<line class="st2" x1="137.3" y1="131.6" x2="139.2" y2="131.6"/>
			<line class="st2" x1="111.3" y1="140.7" x2="110.1" y2="138.5"/>
			<path class="st2" d="M112,101.3c0,0-2.7-1.1-3.4,0.1c-1.3,2.6-1.8,4.8-2.8,5.9c-1,1.1-1.1,0.2-2.1,2.8c-0.8,2,1.7,4.7,5.6,3.1"/>
			<path class="st2" d="M106.7,110.2c4.2,1.2,6.2,1,8.4-3.2"/>
		</g>
		<g>
			<g>
				<path class="st2" d="M101.5,99h-6.5c-1-0.1-1.7-1.2-1.7-2.3c0-1.3,1-2.3,2.3-2.3c0.2,0,0.4,0,0.6,0.1c0.2-1.1,1.1-2,2.3-2
					c1.2,0,2.1,0.9,2.3,2c0.2,0,0.4-0.1,0.5-0.1c1.3,0,2.3,1,2.3,2.3c0,1.1-0.7,2.1-1.8,2.3H101.5z"/>
			</g>
		</g>
		<g>
			<g>
				<path class="st2" d="M137.4,117.4h-4.5c-0.7-0.1-1.2-0.8-1.2-1.6c0-0.9,0.7-1.6,1.6-1.6c0.2,0,0.3,0,0.4,0.1
					c0.1-0.8,0.8-1.4,1.6-1.4c0.8,0,1.5,0.6,1.6,1.4c0.1,0,0.2,0,0.4,0c0.9,0,1.6,0.7,1.6,1.6c0,0.8-0.5,1.5-1.2,1.6H137.4z"/>
			</g>
		</g>
	</g>
</g>
<g id="Layer_2">
	<path class="st3" d="M221.1,172.8h-7v-28c0-15.4-12.7-27.9-28.3-28c-39.6-0.1-51-30.3-54.4-49h19.6c11.6,0,21-9.4,21-21
		s-9.4-21-21-21h-21v-14c0-3.9-3.1-7-7-7h-98c-3.9,0-7,3.1-7,7v161h-7c-3.9,0-7,3.1-7,7v42c0,3.9,3.1,7,7,7h210c3.9,0,7-3.1,7-7v-42
		C228.1,175.9,225,172.8,221.1,172.8z M151.1,39.8c3.9,0,7,3.1,7,7s-3.1,7-7,7h-21v-14H151.1z M32.1,18.8h84v35h-15.9
		c-2.4-4.2-6.9-7-12.1-7c-7.7,0-14,6.3-14,14c0,7.7,6.3,14,14,14c5.2,0,9.6-2.8,12.1-7h16.9c0.9,6,2.3,11.9,4.3,17.5l-11.6,5.8
		c-2.2-1.5-4.9-2.3-7.7-2.3c-7.7,0-14,6.3-14,14c0,7.7,6.3,14,14,14c7.4,0,13.5-5.8,13.9-13.1l11.2-5.6c4.7,8.2,10.9,15.4,18.8,20.9
		l-12.4,12.4c-1.1-0.3-2.3-0.5-3.6-0.5c-7.7,0-14,6.3-14,14c0,7.7,6.3,14,14,14c7.7,0,14-6.3,14-14c0-1.2-0.2-2.4-0.5-3.6l15.4-15.4
		c7.8,3.1,16.7,4.9,26.8,4.9c7.9,0,14.3,6.3,14.3,14v28h-168V18.8z M214.1,214.8h-196v-28h196V214.8z"/>
</g>
</svg>
