<?xml version="1.0" encoding="utf-8"?>
<!-- Generator: Adobe Illustrator 27.0.1, SVG Export Plug-In . SVG Version: 6.00 Build 0)  -->
<svg version="1.1" id="Layer_1" xmlns="http://www.w3.org/2000/svg" xmlns:xlink="http://www.w3.org/1999/xlink" x="0px" y="0px"
	 viewBox="0 0 55.1 55.1" style="enable-background:new 0 0 55.1 55.1;" xml:space="preserve">
<style type="text/css">
	.st0{fill:none;stroke:#253130;stroke-miterlimit:10;}
</style>
<g>
	<g>
		<path class="st0" d="M31.3,8.7c-0.7,1.9-3.2,4.1-5.1,3.4c-1.9-0.7-2.3-4.5-1.8-5.9C25,4.3,27.1,3.3,29,4
			C32.4,5.2,31.7,7.4,31.3,8.7z"/>
		<g>
			<g>
				<path class="st0" d="M25.6,29.2l-5.2,19c-0.2,0.6-0.8,1-1.4,0.8l-1.8-0.4c-0.6-0.1-1-0.8-0.8-1.4l5.5-20.2"/>
			</g>
		</g>
		<path class="st0" d="M20.9,19.8l0.3-1.6l0.8-3.6c0.3-1.4,1.5-2.6,3-2.6c0,0,0,0,0,0l0,0c0.9,0,2.2,0.3,2.8,1.4
			c0,0,1.7,3.1,2.7,3.5c1.3,0.5,5.3-0.9,5.3-0.9c1-0.2,2,0.4,2.2,1.4l0,0c0.2,1,0.6,1.1-0.4,1.3c0,0-5,2.4-8.1,1.6
			c-2.5-0.6-4.4-3.2-4.4-3.2"/>
		<path class="st0" d="M28,19.4l-0.8,3.7c-0.1,0.4,0.1,0.9,0.5,1.1l4.4,2.7c1.2,0.8,1.8,2.2,1.5,3.6l-3.7,14.5
			c-0.2,0.6-0.8,1-1.4,0.8l-2-0.5c-0.6-0.2-1-0.8-0.8-1.4l3.2-12.6c0-0.2,0-0.4-0.2-0.4l-6.8-4c-1.3-0.8-2-2.3-1.7-3.8l0.3-1.2"/>
		<line class="st0" x1="36.1" y1="19.4" x2="37.3" y2="41.3"/>
		<line class="st0" x1="35.6" y1="10.8" x2="35.9" y2="15.6"/>
		<polyline class="st0" points="5.8,52.3 13.8,47.8 21.3,49.7 24.3,47.8 26.8,45.5 29.7,46.2 33.1,48.7 36,48.7 		"/>
		<polyline class="st0" points="30.7,47.5 35.9,41.7 40.4,40.6 45.8,38 50.5,38 		"/>
		<line class="st0" x1="12.6" y1="52.3" x2="14.5" y2="52.3"/>
		<line class="st0" x1="28.5" y1="52.3" x2="30.4" y2="52.3"/>
		<line class="st0" x1="38.2" y1="48.8" x2="40" y2="48.8"/>
		<line class="st0" x1="44.1" y1="52.3" x2="46" y2="52.3"/>
		<line class="st0" x1="48.5" y1="52.3" x2="50.4" y2="52.3"/>
		<line class="st0" x1="41.4" y1="44.8" x2="43.3" y2="44.8"/>
		<line class="st0" x1="46.5" y1="47.5" x2="48.4" y2="47.5"/>
		<line class="st0" x1="35.6" y1="52.3" x2="37.5" y2="52.3"/>
		<line class="st0" x1="48.5" y1="42.8" x2="50.4" y2="42.8"/>
		<line class="st0" x1="22.5" y1="51.9" x2="21.3" y2="49.7"/>
		<path class="st0" d="M23.2,12.6c0,0-2.7-1.1-3.4,0.1c-1.3,2.6-1.8,4.8-2.8,5.9c-1,1.1-1.1,0.2-2.1,2.8c-0.8,2,1.7,4.7,5.6,3.1"/>
		<path class="st0" d="M18,21.4c4.2,1.2,6.2,1,8.4-3.2"/>
	</g>
	<g>
		<g>
			<path class="st0" d="M12.7,10.2H6.2c-1-0.1-1.7-1.2-1.7-2.3c0-1.3,1-2.3,2.3-2.3c0.2,0,0.4,0,0.6,0.1c0.2-1.1,1.1-2,2.3-2
				c1.2,0,2.1,0.9,2.3,2c0.2,0,0.4-0.1,0.5-0.1c1.3,0,2.3,1,2.3,2.3c0,1.1-0.7,2.1-1.8,2.3H12.7z"/>
		</g>
	</g>
	<g>
		<g>
			<path class="st0" d="M48.7,28.6h-4.5c-0.7-0.1-1.2-0.8-1.2-1.6c0-0.9,0.7-1.6,1.6-1.6c0.2,0,0.3,0,0.4,0.1
				c0.1-0.8,0.8-1.4,1.6-1.4c0.8,0,1.5,0.6,1.6,1.4c0.1,0,0.2,0,0.4,0c0.9,0,1.6,0.7,1.6,1.6c0,0.8-0.5,1.5-1.2,1.6H48.7z"/>
		</g>
	</g>
</g>
</svg>
