<?xml version="1.0" encoding="utf-8"?>
<!-- Generator: Adobe Illustrator 27.6.1, SVG Export Plug-In . SVG Version: 6.00 Build 0)  -->
<svg version="1.1" id="Layer_1" xmlns="http://www.w3.org/2000/svg" xmlns:xlink="http://www.w3.org/1999/xlink" x="0px" y="0px"
	 viewBox="0 0 133.9 128.1" style="enable-background:new 0 0 133.9 128.1;" xml:space="preserve">
<style type="text/css">
	.st0{fill:#E2DCD2;}
</style>
<g id="Group_160" transform="translate(0 0)">
	<g>
		<g id="Group_159" transform="translate(0 0.001)">
			<path id="Path_11590" class="st0" d="M5.2,3.1c0,1.4-1.1,2.5-2.5,2.5C1.4,5.5,0.3,4.4,0.3,3s1.1-2.5,2.5-2.5
				C4.1,0.6,5.2,1.7,5.2,3.1"/>
			<path id="Path_11591" class="st0" d="M23.6,3.1c0,1.4-1.1,2.5-2.5,2.5c-1.4,0-2.5-1.1-2.5-2.5c0-1.4,1.1-2.5,2.5-2.5c0,0,0,0,0,0
				C22.5,0.6,23.6,1.7,23.6,3.1"/>
			<path id="Path_11592" class="st0" d="M42,3.1c0,1.4-1.1,2.5-2.5,2.5c-1.4,0-2.5-1.1-2.5-2.5s1.1-2.5,2.5-2.5
				C40.9,0.6,42,1.7,42,3.1"/>
			<path id="Path_11593" class="st0" d="M60.4,3.1c0,1.4-1.1,2.5-2.5,2.5c-1.4,0-2.5-1.1-2.5-2.5c0-1.4,1.1-2.5,2.5-2.5c0,0,0,0,0,0
				C59.3,0.6,60.4,1.7,60.4,3.1C60.4,3,60.4,3,60.4,3.1"/>
			<path id="Path_11594" class="st0" d="M5.2,20.4c0,1.4-1.1,2.5-2.5,2.5c-1.4,0-2.5-1.1-2.5-2.5c0-1.4,1.1-2.5,2.5-2.5
				C4.1,17.9,5.2,19,5.2,20.4"/>
			<path id="Path_11595" class="st0" d="M23.6,20.4c0,1.4-1.1,2.5-2.5,2.5c-1.4,0-2.5-1.1-2.5-2.5c0-1.4,1.1-2.5,2.5-2.5
				C22.5,17.9,23.6,19,23.6,20.4"/>
			<path id="Path_11596" class="st0" d="M42,20.4c0,1.4-1.1,2.5-2.5,2.5c-1.4,0-2.5-1.1-2.5-2.5c0-1.4,1.1-2.5,2.5-2.5
				C40.9,17.9,42,19,42,20.4C42,20.4,42,20.4,42,20.4"/>
			<path id="Path_11597" class="st0" d="M60.4,20.4c0,1.4-1.1,2.5-2.5,2.5s-2.5-1.1-2.5-2.5c0-1.4,1.1-2.5,2.5-2.5
				C59.3,17.9,60.4,19,60.4,20.4"/>
			<path id="Path_11598" class="st0" d="M5.2,37.7c0,1.4-1.1,2.5-2.5,2.5s-2.5-1.1-2.5-2.5c0-1.4,1.1-2.5,2.5-2.5
				C4.1,35.3,5.2,36.4,5.2,37.7"/>
			<path id="Path_11599" class="st0" d="M23.6,37.7c0,1.4-1.1,2.5-2.5,2.5s-2.5-1.1-2.5-2.5c0-1.4,1.1-2.5,2.5-2.5
				S23.6,36.4,23.6,37.7C23.6,37.7,23.6,37.7,23.6,37.7"/>
			<path id="Path_11600" class="st0" d="M42,37.7c0,1.4-1.1,2.5-2.5,2.5s-2.5-1.1-2.5-2.5c0-1.4,1.1-2.5,2.5-2.5
				C40.9,35.3,42,36.4,42,37.7"/>
			<path id="Path_11601" class="st0" d="M60.4,37.7c0,1.4-1.1,2.5-2.5,2.5s-2.5-1.1-2.5-2.5c0-1.4,1.1-2.5,2.5-2.5
				C59.3,35.3,60.4,36.4,60.4,37.7"/>
			<path id="Path_11602" class="st0" d="M5.2,55.1c0,1.4-1.1,2.5-2.5,2.5c-1.4,0-2.5-1.1-2.5-2.5c0-1.4,1.1-2.5,2.5-2.5
				C4.1,52.6,5.2,53.7,5.2,55.1C5.2,55.1,5.2,55.1,5.2,55.1"/>
			<path id="Path_11603" class="st0" d="M23.6,55.1c0,1.4-1.1,2.5-2.5,2.5c-1.4,0-2.5-1.1-2.5-2.5c0-1.4,1.1-2.5,2.5-2.5
				C22.5,52.6,23.6,53.7,23.6,55.1C23.6,55.1,23.6,55.1,23.6,55.1"/>
			<path id="Path_11604" class="st0" d="M42,55.1c0,1.4-1.1,2.5-2.5,2.5s-2.5-1.1-2.5-2.5s1.1-2.5,2.5-2.5S42,53.7,42,55.1L42,55.1"
				/>
			<path id="Path_11605" class="st0" d="M60.4,55.1c0,1.4-1.1,2.5-2.5,2.5s-2.5-1.1-2.5-2.5s1.1-2.5,2.5-2.5
				C59.3,52.6,60.4,53.7,60.4,55.1"/>
			<path id="Path_11606" class="st0" d="M78.2,3.1c0,1.4-1.1,2.5-2.5,2.5c-1.4,0-2.5-1.1-2.5-2.5s1.1-2.5,2.5-2.5
				C77,0.6,78.2,1.7,78.2,3.1"/>
			<path id="Path_11607" class="st0" d="M96.6,3.1c0,1.4-1.1,2.5-2.5,2.5c-1.4,0-2.5-1.1-2.5-2.5c0-1.4,1.1-2.5,2.5-2.5c0,0,0,0,0,0
				C95.4,0.6,96.6,1.7,96.6,3.1"/>
			<path id="Path_11608" class="st0" d="M115,3.1c0,1.4-1.1,2.5-2.5,2.5c-1.4,0-2.5-1.1-2.5-2.5c0-1.4,1.1-2.5,2.5-2.5
				C113.8,0.6,115,1.7,115,3.1"/>
			<path id="Path_11609" class="st0" d="M133.4,3.1c0,1.4-1.1,2.5-2.5,2.5c-1.4,0-2.5-1.1-2.5-2.5c0-1.4,1.1-2.5,2.5-2.5
				C132.2,0.6,133.4,1.7,133.4,3.1"/>
			<path id="Path_11610" class="st0" d="M78.2,20.4c0,1.4-1.1,2.5-2.5,2.5c-1.4,0-2.5-1.1-2.5-2.5c0-1.4,1.1-2.5,2.5-2.5
				C77,17.9,78.2,19,78.2,20.4C78.2,20.4,78.2,20.4,78.2,20.4"/>
			<path id="Path_11611" class="st0" d="M96.6,20.4c0,1.4-1.1,2.5-2.5,2.5s-2.5-1.1-2.5-2.5c0-1.4,1.1-2.5,2.5-2.5l0,0
				C95.4,17.9,96.6,19,96.6,20.4"/>
			<path id="Path_11612" class="st0" d="M115,20.4c0,1.4-1.1,2.5-2.5,2.5s-2.5-1.1-2.5-2.5c0-1.4,1.1-2.5,2.5-2.5l0,0
				C113.8,17.9,115,19,115,20.4"/>
			<path id="Path_11613" class="st0" d="M133.4,20.4c0,1.4-1.1,2.5-2.5,2.5s-2.5-1.1-2.5-2.5c0-1.4,1.1-2.5,2.5-2.5l0,0
				C132.2,17.9,133.4,19,133.4,20.4"/>
			<path id="Path_11614" class="st0" d="M78.2,37.7c0,1.4-1.1,2.5-2.5,2.5s-2.5-1.1-2.5-2.5c0-1.4,1.1-2.5,2.5-2.5
				C77,35.3,78.2,36.4,78.2,37.7"/>
			<path id="Path_11615" class="st0" d="M96.6,37.7c0,1.4-1.1,2.5-2.5,2.5c-1.4,0-2.5-1.1-2.5-2.5c0-1.4,1.1-2.5,2.5-2.5l0,0
				C95.4,35.3,96.6,36.4,96.6,37.7"/>
			<path id="Path_11616" class="st0" d="M115,37.7c0,1.4-1.1,2.5-2.5,2.5c-1.4,0-2.5-1.1-2.5-2.5c0-1.4,1.1-2.5,2.5-2.5
				C113.8,35.3,115,36.4,115,37.7C115,37.7,115,37.7,115,37.7"/>
			<path id="Path_11617" class="st0" d="M133.4,37.7c0,1.4-1.1,2.5-2.5,2.5c-1.4,0-2.5-1.1-2.5-2.5c0-1.4,1.1-2.5,2.5-2.5
				C132.2,35.3,133.4,36.4,133.4,37.7"/>
			<path id="Path_11618" class="st0" d="M78.2,55.1c0,1.4-1.1,2.5-2.5,2.5s-2.5-1.1-2.5-2.5s1.1-2.5,2.5-2.5S78.2,53.7,78.2,55.1
				L78.2,55.1"/>
			<path id="Path_11619" class="st0" d="M96.6,55.1c0,1.4-1.1,2.5-2.5,2.5c-1.4,0-2.5-1.1-2.5-2.5c0-1.4,1.1-2.5,2.5-2.5l0,0
				C95.4,52.6,96.6,53.7,96.6,55.1"/>
			<path id="Path_11620" class="st0" d="M115,55.1c0,1.4-1.1,2.5-2.5,2.5c-1.4,0-2.5-1.1-2.5-2.5c0-1.4,1.1-2.5,2.5-2.5l0,0
				C113.8,52.6,115,53.7,115,55.1"/>
			<path id="Path_11621" class="st0" d="M133.4,55.1c0,1.4-1.1,2.5-2.5,2.5c-1.4,0-2.5-1.1-2.5-2.5c0-1.4,1.1-2.5,2.5-2.5l0,0
				C132.2,52.6,133.4,53.7,133.4,55.1"/>
			<path id="Path_11622" class="st0" d="M5.2,73.1c0,1.4-1.1,2.5-2.5,2.5c-1.4,0-2.5-1.1-2.5-2.5c0-1.4,1.1-2.5,2.5-2.5
				C4.1,70.6,5.2,71.7,5.2,73.1"/>
			<path id="Path_11623" class="st0" d="M23.6,73.1c0,1.4-1.1,2.5-2.5,2.5c-1.4,0-2.5-1.1-2.5-2.5c0-1.4,1.1-2.5,2.5-2.5
				C22.5,70.6,23.6,71.7,23.6,73.1"/>
			<path id="Path_11624" class="st0" d="M42,73.1c0,1.4-1.1,2.5-2.5,2.5c-1.4,0-2.5-1.1-2.5-2.5c0-1.4,1.1-2.5,2.5-2.5
				C40.9,70.6,42,71.7,42,73.1"/>
			<path id="Path_11625" class="st0" d="M60.4,73.1c0,1.4-1.1,2.5-2.5,2.5c-1.4,0-2.5-1.1-2.5-2.5c0-1.4,1.1-2.5,2.5-2.5
				C59.3,70.6,60.4,71.7,60.4,73.1"/>
			<path id="Path_11626" class="st0" d="M5.2,90.4c0,1.4-1.1,2.5-2.5,2.5s-2.5-1.1-2.5-2.5c0-1.4,1.1-2.5,2.5-2.5c0,0,0,0,0,0
				C4.1,87.9,5.2,89,5.2,90.4"/>
			<path id="Path_11627" class="st0" d="M23.6,90.4c0,1.4-1.1,2.5-2.5,2.5s-2.5-1.1-2.5-2.5c0-1.4,1.1-2.5,2.5-2.5
				C22.5,87.9,23.6,89,23.6,90.4"/>
			<path id="Path_11628" class="st0" d="M42,90.4c0,1.4-1.1,2.5-2.5,2.5s-2.5-1.1-2.5-2.5c0-1.4,1.1-2.5,2.5-2.5l0,0
				C40.9,87.9,42,89,42,90.4"/>
			<path id="Path_11629" class="st0" d="M60.4,90.4c0,1.4-1.1,2.5-2.5,2.5s-2.5-1.1-2.5-2.5c0-1.4,1.1-2.5,2.5-2.5c0,0,0,0,0,0
				C59.3,87.9,60.4,89,60.4,90.4"/>
			<path id="Path_11630" class="st0" d="M5.2,107.8c0,1.4-1.1,2.5-2.5,2.5c-1.4,0-2.5-1.1-2.5-2.5c0-1.4,1.1-2.5,2.5-2.5
				C4.1,105.3,5.2,106.4,5.2,107.8"/>
			<path id="Path_11631" class="st0" d="M23.6,107.8c0,1.4-1.1,2.5-2.5,2.5s-2.5-1.1-2.5-2.5c0-1.4,1.1-2.5,2.5-2.5
				C22.5,105.3,23.6,106.4,23.6,107.8"/>
			<path id="Path_11632" class="st0" d="M42,107.8c0,1.4-1.1,2.5-2.5,2.5s-2.5-1.1-2.5-2.5c0-1.4,1.1-2.5,2.5-2.5
				C40.9,105.3,42,106.4,42,107.8C42,107.8,42,107.8,42,107.8"/>
			<path id="Path_11633" class="st0" d="M60.4,107.8c0,1.4-1.1,2.5-2.5,2.5s-2.5-1.1-2.5-2.5c0-1.4,1.1-2.5,2.5-2.5c0,0,0,0,0,0
				C59.3,105.3,60.4,106.4,60.4,107.8"/>
			<path id="Path_11634" class="st0" d="M5.2,125.1c0,1.4-1.1,2.5-2.5,2.5s-2.5-1.1-2.5-2.5c0-1.4,1.1-2.5,2.5-2.5c0,0,0,0,0,0
				C4.1,122.6,5.2,123.7,5.2,125.1"/>
			<path id="Path_11635" class="st0" d="M23.6,125.1c0,1.4-1.1,2.5-2.5,2.5s-2.5-1.1-2.5-2.5s1.1-2.5,2.5-2.5h0
				C22.5,122.6,23.6,123.7,23.6,125.1"/>
			<path id="Path_11636" class="st0" d="M42,125.1c0,1.4-1.1,2.5-2.5,2.5s-2.5-1.1-2.5-2.5c0-1.4,1.1-2.5,2.5-2.5l0,0
				C40.9,122.6,42,123.7,42,125.1"/>
			<path id="Path_11637" class="st0" d="M60.4,125.1c0,1.4-1.1,2.5-2.5,2.5s-2.5-1.1-2.5-2.5c0-1.4,1.1-2.5,2.5-2.5c0,0,0,0,0,0
				C59.3,122.6,60.4,123.7,60.4,125.1"/>
			<path id="Path_11638" class="st0" d="M78.2,73.1c0,1.4-1.1,2.5-2.5,2.5c-1.4,0-2.5-1.1-2.5-2.5c0-1.4,1.1-2.5,2.5-2.5
				C77,70.6,78.2,71.7,78.2,73.1"/>
			<path id="Path_11639" class="st0" d="M96.6,73.1c0,1.4-1.1,2.5-2.5,2.5c-1.4,0-2.5-1.1-2.5-2.5c0-1.4,1.1-2.5,2.5-2.5
				C95.4,70.6,96.6,71.7,96.6,73.1"/>
			<path id="Path_11640" class="st0" d="M115,73.1c0,1.4-1.1,2.5-2.5,2.5c-1.4,0-2.5-1.1-2.5-2.5c0-1.4,1.1-2.5,2.5-2.5
				C113.8,70.6,115,71.7,115,73.1C115,73.1,115,73.1,115,73.1"/>
			<path id="Path_11641" class="st0" d="M133.4,73.1c0,1.4-1.1,2.5-2.5,2.5c-1.4,0-2.5-1.1-2.5-2.5c0-1.4,1.1-2.5,2.5-2.5l0,0
				C132.2,70.6,133.4,71.7,133.4,73.1"/>
			<path id="Path_11642" class="st0" d="M78.2,90.4c0,1.4-1.1,2.5-2.5,2.5s-2.5-1.1-2.5-2.5s1.1-2.5,2.5-2.5c0,0,0,0,0,0
				C77,87.9,78.2,89,78.2,90.4"/>
			<path id="Path_11643" class="st0" d="M96.6,90.4c0,1.4-1.1,2.5-2.5,2.5s-2.5-1.1-2.5-2.5s1.1-2.5,2.5-2.5h0
				C95.4,87.9,96.6,89,96.6,90.4"/>
			<path id="Path_11644" class="st0" d="M115,90.4c0,1.4-1.1,2.5-2.5,2.5s-2.5-1.1-2.5-2.5s1.1-2.5,2.5-2.5h0
				C113.8,87.9,115,89,115,90.4"/>
			<path id="Path_11645" class="st0" d="M133.4,90.4c0,1.4-1.1,2.5-2.5,2.5s-2.5-1.1-2.5-2.5s1.1-2.5,2.5-2.5h0
				C132.2,87.9,133.4,89,133.4,90.4"/>
			<path id="Path_11646" class="st0" d="M78.2,107.8c0,1.4-1.1,2.5-2.5,2.5c-1.4,0-2.5-1.1-2.5-2.5c0-1.4,1.1-2.5,2.5-2.5
				C77,105.3,78.2,106.4,78.2,107.8C78.2,107.8,78.2,107.8,78.2,107.8"/>
			<path id="Path_11647" class="st0" d="M96.6,107.8c0,1.4-1.1,2.5-2.5,2.5s-2.5-1.1-2.5-2.5s1.1-2.5,2.5-2.5h0
				C95.4,105.3,96.6,106.4,96.6,107.8"/>
			<path id="Path_11648" class="st0" d="M115,107.8c0,1.4-1.1,2.5-2.5,2.5s-2.5-1.1-2.5-2.5s1.1-2.5,2.5-2.5h0
				C113.8,105.3,115,106.4,115,107.8"/>
			<path id="Path_11649" class="st0" d="M133.4,107.8c0,1.4-1.1,2.5-2.5,2.5s-2.5-1.1-2.5-2.5s1.1-2.5,2.5-2.5h0
				C132.2,105.3,133.4,106.4,133.4,107.8"/>
			<path id="Path_11650" class="st0" d="M78.2,125.1c0,1.4-1.1,2.5-2.5,2.5s-2.5-1.1-2.5-2.5s1.1-2.5,2.5-2.5c0,0,0,0,0,0
				C77,122.6,78.2,123.7,78.2,125.1"/>
			<path id="Path_11651" class="st0" d="M96.6,125.1c0,1.4-1.1,2.5-2.5,2.5s-2.5-1.1-2.5-2.5s1.1-2.5,2.5-2.5h0
				C95.4,122.6,96.6,123.7,96.6,125.1"/>
			<path id="Path_11652" class="st0" d="M115,125.1c0,1.4-1.1,2.5-2.5,2.5s-2.5-1.1-2.5-2.5c0-1.4,1.1-2.5,2.5-2.5
				C113.8,122.6,115,123.7,115,125.1"/>
			<path id="Path_11653" class="st0" d="M133.4,125.1c0,1.4-1.1,2.5-2.5,2.5s-2.5-1.1-2.5-2.5c0-1.4,1.1-2.5,2.5-2.5
				C132.2,122.6,133.4,123.7,133.4,125.1"/>
		</g>
	</g>
</g>
</svg>
