<?xml version="1.0" encoding="utf-8"?>
<!-- Generator: Adobe Illustrator 27.0.1, SVG Export Plug-In . SVG Version: 6.00 Build 0)  -->
<svg version="1.1" id="Layer_1" xmlns="http://www.w3.org/2000/svg" xmlns:xlink="http://www.w3.org/1999/xlink" x="0px" y="0px"
	 viewBox="0 0 587.9 488.1" style="enable-background:new 0 0 587.9 488.1;" xml:space="preserve">
<style type="text/css">
	.st0{opacity:0.199;}
	.st1{fill:#5C543F;}
	.st2{fill:#7B7A77;}
	.st3{fill:#C9C0AB;}
</style>
<g id="Group_246" class="st0">
	<rect id="Rectangle_164" x="313.9" y="478.8" class="st1" width="8.1" height="8.1"/>
	<rect id="Rectangle_165" x="313.9" y="466.4" class="st1" width="8.1" height="8.1"/>
	<rect id="Rectangle_166" x="313.9" y="453.9" class="st1" width="8.1" height="8.1"/>
	<rect id="Rectangle_167" x="313.9" y="416.5" class="st1" width="8.1" height="8.1"/>
	<rect id="Rectangle_168" x="313.9" y="391.6" class="st2" width="8.1" height="8.1"/>
	<rect id="Rectangle_169" x="313.9" y="329.2" class="st3" width="8.1" height="8.1"/>
	<rect id="Rectangle_170" x="313.9" y="316.8" class="st1" width="8.1" height="8.1"/>
	<rect id="Rectangle_171" x="326.3" y="478.8" class="st2" width="8.1" height="8.1"/>
	<rect id="Rectangle_172" x="338.8" y="478.8" class="st2" width="8.1" height="8.1"/>
	<rect id="Rectangle_173" x="351.3" y="478.8" class="st2" width="8.1" height="8.1"/>
	<rect id="Rectangle_174" x="363.7" y="478.8" class="st3" width="8.1" height="8.1"/>
	<rect id="Rectangle_175" x="376.2" y="478.8" class="st1" width="8.1" height="8.1"/>
	<rect id="Rectangle_176" x="388.7" y="478.8" class="st1" width="8.1" height="8.1"/>
	<rect id="Rectangle_177" x="401.1" y="478.8" class="st2" width="8.1" height="8.1"/>
	<rect id="Rectangle_178" x="413.6" y="478.8" class="st1" width="8.1" height="8.1"/>
	<rect id="Rectangle_179" x="326.3" y="466.4" class="st3" width="8.1" height="8.1"/>
	<rect id="Rectangle_180" x="338.8" y="466.4" class="st1" width="8.1" height="8.1"/>
	<rect id="Rectangle_181" x="351.3" y="466.4" class="st2" width="8.1" height="8.1"/>
	<rect id="Rectangle_182" x="376.2" y="466.4" class="st3" width="8.1" height="8.1"/>
	<rect id="Rectangle_183" x="401.1" y="466.4" class="st3" width="8.1" height="8.1"/>
	<rect id="Rectangle_184" x="413.6" y="466.4" class="st2" width="8.1" height="8.1"/>
	<rect id="Rectangle_185" x="426.1" y="466.4" class="st3" width="8.1" height="8.1"/>
	<rect id="Rectangle_186" x="326.3" y="453.9" class="st3" width="8.1" height="8.1"/>
	<rect id="Rectangle_187" x="338.8" y="453.9" class="st2" width="8.1" height="8.1"/>
	<rect id="Rectangle_188" x="363.7" y="453.9" class="st2" width="8.1" height="8.1"/>
	<rect id="Rectangle_189" x="326.3" y="441.4" class="st1" width="8.1" height="8.1"/>
	<rect id="Rectangle_190" x="338.8" y="441.4" class="st1" width="8.1" height="8.1"/>
	<rect id="Rectangle_191" x="363.7" y="441.4" class="st3" width="8.1" height="8.1"/>
	<rect id="Rectangle_192" x="338.8" y="429" class="st1" width="8.1" height="8.1"/>
	<rect id="Rectangle_193" x="338.8" y="416.5" class="st1" width="8.1" height="8.1"/>
	<rect id="Rectangle_194" x="351.3" y="416.5" class="st2" width="8.1" height="8.1"/>
	<rect id="Rectangle_195" x="363.7" y="416.5" class="st3" width="8.1" height="8.1"/>
	<rect id="Rectangle_196" x="363.7" y="391.6" class="st1" width="8.1" height="8.1"/>
	<rect id="Rectangle_197" x="363.7" y="379.1" class="st3" width="8.1" height="8.1"/>
	<rect id="Rectangle_198" x="351.3" y="341.7" class="st1" width="8.1" height="8.1"/>
	<rect id="Rectangle_199" x="2.2" y="478.8" class="st2" width="8.1" height="8.1"/>
	<rect id="Rectangle_200" x="2.2" y="466.4" class="st1" width="8.1" height="8.1"/>
	<rect id="Rectangle_201" x="2.2" y="453.9" class="st3" width="8.1" height="8.1"/>
	<rect id="Rectangle_202" x="2.2" y="441.4" class="st1" width="8.1" height="8.1"/>
	<rect id="Rectangle_203" x="2.2" y="429" class="st2" width="8.1" height="8.1"/>
	<rect id="Rectangle_204" x="2.2" y="416.5" class="st2" width="8.1" height="8.1"/>
	<rect id="Rectangle_205" x="2.2" y="404" class="st1" width="8.1" height="8.1"/>
	<rect id="Rectangle_206" x="2.2" y="391.6" class="st1" width="8.1" height="8.1"/>
	<rect id="Rectangle_207" x="2.2" y="379.1" class="st1" width="8.1" height="8.1"/>
	<rect id="Rectangle_208" x="2.2" y="366.6" class="st1" width="8.1" height="8.1"/>
	<rect id="Rectangle_209" x="2.2" y="354.2" class="st2" width="8.1" height="8.1"/>
	<rect id="Rectangle_210" x="2.2" y="341.7" class="st1" width="8.1" height="8.1"/>
	<rect id="Rectangle_211" x="2.2" y="329.2" class="st3" width="8.1" height="8.1"/>
	<rect id="Rectangle_212" x="2.2" y="316.8" class="st1" width="8.1" height="8.1"/>
	<rect id="Rectangle_213" x="2.2" y="304.3" class="st1" width="8.1" height="8.1"/>
	<rect id="Rectangle_214" x="2.2" y="291.8" class="st1" width="8.1" height="8.1"/>
	<rect id="Rectangle_215" x="2.2" y="279.3" class="st1" width="8.1" height="8.1"/>
	<rect id="Rectangle_216" x="2.2" y="266.9" class="st1" width="8.1" height="8.1"/>
	<rect id="Rectangle_217" x="2.2" y="254.4" class="st3" width="8.1" height="8.1"/>
	<rect id="Rectangle_218" x="2.2" y="241.9" class="st1" width="8.1" height="8.1"/>
	<rect id="Rectangle_219" x="2.2" y="229.5" class="st1" width="8.1" height="8.1"/>
	<rect id="Rectangle_220" x="2.2" y="217" class="st2" width="8.1" height="8.1"/>
	<rect id="Rectangle_221" x="2.2" y="204.5" class="st2" width="8.1" height="8.1"/>
	<rect id="Rectangle_222" x="2.2" y="192.1" class="st2" width="8.1" height="8.1"/>
	<rect id="Rectangle_223" x="2.2" y="179.6" class="st2" width="8.1" height="8.1"/>
	<rect id="Rectangle_224" x="2.2" y="167.1" class="st1" width="8.1" height="8.1"/>
	<rect id="Rectangle_225" x="2.2" y="154.7" class="st1" width="8.1" height="8.1"/>
	<rect id="Rectangle_226" x="2.2" y="142.2" class="st2" width="8.1" height="8.1"/>
	<rect id="Rectangle_227" x="2.2" y="104.8" class="st1" width="8.1" height="8.1"/>
	<rect id="Rectangle_228" x="2.2" y="92.3" class="st3" width="8.1" height="8.1"/>
	<rect id="Rectangle_229" x="2.2" y="30" class="st1" width="8.1" height="8.1"/>
	<rect id="Rectangle_230" x="2.2" y="17.5" class="st3" width="8.1" height="8.1"/>
	<rect id="Rectangle_231" x="2.2" y="5.1" class="st2" width="8.1" height="8.1"/>
	<rect id="Rectangle_233" x="14.7" y="478.8" class="st1" width="8.1" height="8.1"/>
	<rect id="Rectangle_234" x="27.1" y="478.8" class="st1" width="8.1" height="8.1"/>
	<rect id="Rectangle_235" x="39.6" y="478.8" class="st1" width="8.1" height="8.1"/>
	<rect id="Rectangle_236" x="52.1" y="478.8" class="st2" width="8.1" height="8.1"/>
	<rect id="Rectangle_237" x="64.5" y="478.8" class="st2" width="8.1" height="8.1"/>
	<rect id="Rectangle_238" x="77" y="478.8" class="st1" width="8.1" height="8.1"/>
	<rect id="Rectangle_239" x="89.5" y="478.8" class="st3" width="8.1" height="8.1"/>
	<rect id="Rectangle_240" x="101.9" y="478.8" class="st2" width="8.1" height="8.1"/>
	<rect id="Rectangle_241" x="114.4" y="478.8" class="st1" width="8.1" height="8.1"/>
	<rect id="Rectangle_242" x="126.9" y="478.8" class="st1" width="8.1" height="8.1"/>
	<rect id="Rectangle_243" x="139.3" y="478.8" class="st1" width="8.1" height="8.1"/>
	<rect id="Rectangle_244" x="151.8" y="478.8" class="st1" width="8.1" height="8.1"/>
	<rect id="Rectangle_245" x="164.3" y="478.8" class="st2" width="8.1" height="8.1"/>
	<rect id="Rectangle_246" x="176.7" y="478.8" class="st1" width="8.1" height="8.1"/>
	<rect id="Rectangle_247" x="189.2" y="478.8" class="st2" width="8.1" height="8.1"/>
	<rect id="Rectangle_248" x="201.7" y="478.8" class="st3" width="8.1" height="8.1"/>
	<rect id="Rectangle_249" x="214.1" y="478.8" class="st1" width="8.1" height="8.1"/>
	<rect id="Rectangle_250" x="226.6" y="478.8" class="st1" width="8.1" height="8.1"/>
	<rect id="Rectangle_251" x="239.1" y="478.8" class="st1" width="8.1" height="8.1"/>
	<rect id="Rectangle_252" x="251.5" y="478.8" class="st1" width="8.1" height="8.1"/>
	<rect id="Rectangle_253" x="264" y="478.8" class="st3" width="8.1" height="8.1"/>
	<rect id="Rectangle_254" x="276.5" y="478.8" class="st1" width="8.1" height="8.1"/>
	<rect id="Rectangle_255" x="288.9" y="478.8" class="st1" width="8.1" height="8.1"/>
	<rect id="Rectangle_256" x="301.4" y="478.8" class="st3" width="8.1" height="8.1"/>
	<rect id="Rectangle_257" x="14.7" y="466.4" class="st1" width="8.1" height="8.1"/>
	<rect id="Rectangle_258" x="27.1" y="466.4" class="st1" width="8.1" height="8.1"/>
	<rect id="Rectangle_259" x="39.6" y="466.4" class="st1" width="8.1" height="8.1"/>
	<rect id="Rectangle_260" x="52.1" y="466.4" class="st1" width="8.1" height="8.1"/>
	<rect id="Rectangle_261" x="64.5" y="466.4" class="st1" width="8.1" height="8.1"/>
	<rect id="Rectangle_262" x="77" y="466.4" class="st3" width="8.1" height="8.1"/>
	<rect id="Rectangle_263" x="89.5" y="466.4" class="st2" width="8.1" height="8.1"/>
	<rect id="Rectangle_264" x="101.9" y="466.4" class="st1" width="8.1" height="8.1"/>
	<rect id="Rectangle_265" x="114.4" y="466.4" class="st3" width="8.1" height="8.1"/>
	<rect id="Rectangle_266" x="126.9" y="466.4" class="st1" width="8.1" height="8.1"/>
	<rect id="Rectangle_267" x="139.3" y="466.4" class="st3" width="8.1" height="8.1"/>
	<rect id="Rectangle_268" x="151.8" y="466.4" class="st2" width="8.1" height="8.1"/>
	<rect id="Rectangle_269" x="164.3" y="466.4" class="st1" width="8.1" height="8.1"/>
	<rect id="Rectangle_270" x="176.7" y="466.4" class="st3" width="8.1" height="8.1"/>
	<rect id="Rectangle_271" x="189.2" y="466.4" class="st1" width="8.1" height="8.1"/>
	<rect id="Rectangle_272" x="201.7" y="466.4" class="st3" width="8.1" height="8.1"/>
	<rect id="Rectangle_273" x="214.1" y="466.4" class="st3" width="8.1" height="8.1"/>
	<rect id="Rectangle_274" x="226.6" y="466.4" class="st3" width="8.1" height="8.1"/>
	<rect id="Rectangle_275" x="239.1" y="466.4" class="st2" width="8.1" height="8.1"/>
	<rect id="Rectangle_276" x="251.5" y="466.4" class="st1" width="8.1" height="8.1"/>
	<rect id="Rectangle_277" x="276.5" y="466.4" class="st2" width="8.1" height="8.1"/>
	<rect id="Rectangle_278" x="288.9" y="466.4" class="st3" width="8.1" height="8.1"/>
	<rect id="Rectangle_279" x="301.4" y="466.4" class="st1" width="8.1" height="8.1"/>
	<rect id="Rectangle_280" x="14.7" y="453.9" class="st1" width="8.1" height="8.1"/>
	<rect id="Rectangle_281" x="27.1" y="453.9" class="st1" width="8.1" height="8.1"/>
	<rect id="Rectangle_282" x="39.6" y="453.9" class="st2" width="8.1" height="8.1"/>
	<rect id="Rectangle_283" x="52.1" y="453.9" class="st1" width="8.1" height="8.1"/>
	<rect id="Rectangle_284" x="64.5" y="453.9" class="st1" width="8.1" height="8.1"/>
	<rect id="Rectangle_285" x="77" y="453.9" class="st3" width="8.1" height="8.1"/>
	<rect id="Rectangle_286" x="89.5" y="453.9" class="st1" width="8.1" height="8.1"/>
	<rect id="Rectangle_287" x="101.9" y="453.9" class="st3" width="8.1" height="8.1"/>
	<rect id="Rectangle_288" x="114.4" y="453.9" class="st2" width="8.1" height="8.1"/>
	<rect id="Rectangle_289" x="126.9" y="453.9" class="st2" width="8.1" height="8.1"/>
	<rect id="Rectangle_290" x="139.3" y="453.9" class="st1" width="8.1" height="8.1"/>
	<rect id="Rectangle_291" x="151.8" y="453.9" class="st1" width="8.1" height="8.1"/>
	<rect id="Rectangle_292" x="164.3" y="453.9" class="st1" width="8.1" height="8.1"/>
	<rect id="Rectangle_293" x="176.7" y="453.9" class="st1" width="8.1" height="8.1"/>
	<rect id="Rectangle_294" x="189.2" y="453.9" class="st1" width="8.1" height="8.1"/>
	<rect id="Rectangle_295" x="201.7" y="453.9" class="st1" width="8.1" height="8.1"/>
	<rect id="Rectangle_296" x="214.1" y="453.9" class="st2" width="8.1" height="8.1"/>
	<rect id="Rectangle_297" x="226.6" y="453.9" class="st3" width="8.1" height="8.1"/>
	<rect id="Rectangle_298" x="239.1" y="453.9" class="st1" width="8.1" height="8.1"/>
	<rect id="Rectangle_299" x="251.5" y="453.9" class="st1" width="8.1" height="8.1"/>
	<rect id="Rectangle_300" x="264" y="453.9" class="st1" width="8.1" height="8.1"/>
	<rect id="Rectangle_301" x="276.5" y="453.9" class="st1" width="8.1" height="8.1"/>
	<rect id="Rectangle_302" x="288.9" y="453.9" class="st3" width="8.1" height="8.1"/>
	<rect id="Rectangle_303" x="301.4" y="453.9" class="st3" width="8.1" height="8.1"/>
	<rect id="Rectangle_304" x="14.7" y="441.4" class="st2" width="8.1" height="8.1"/>
	<rect id="Rectangle_305" x="27.1" y="441.4" class="st2" width="8.1" height="8.1"/>
	<rect id="Rectangle_306" x="39.6" y="441.4" class="st1" width="8.1" height="8.1"/>
	<rect id="Rectangle_307" x="52.1" y="441.4" class="st2" width="8.1" height="8.1"/>
	<rect id="Rectangle_308" x="64.5" y="441.4" class="st2" width="8.1" height="8.1"/>
	<rect id="Rectangle_309" x="77" y="441.4" class="st2" width="8.1" height="8.1"/>
	<rect id="Rectangle_310" x="89.5" y="441.4" class="st3" width="8.1" height="8.1"/>
	<rect id="Rectangle_311" x="101.9" y="441.4" class="st3" width="8.1" height="8.1"/>
	<rect id="Rectangle_312" x="114.4" y="441.4" class="st1" width="8.1" height="8.1"/>
	<rect id="Rectangle_313" x="126.9" y="441.4" class="st1" width="8.1" height="8.1"/>
	<rect id="Rectangle_314" x="139.3" y="441.4" class="st2" width="8.1" height="8.1"/>
	<rect id="Rectangle_315" x="151.8" y="441.4" class="st3" width="8.1" height="8.1"/>
	<rect id="Rectangle_316" x="164.3" y="441.4" class="st2" width="8.1" height="8.1"/>
	<rect id="Rectangle_317" x="176.7" y="441.4" class="st2" width="8.1" height="8.1"/>
	<rect id="Rectangle_318" x="189.2" y="441.4" class="st2" width="8.1" height="8.1"/>
	<rect id="Rectangle_319" x="201.7" y="441.4" class="st2" width="8.1" height="8.1"/>
	<rect id="Rectangle_320" x="214.1" y="441.4" class="st1" width="8.1" height="8.1"/>
	<rect id="Rectangle_321" x="226.6" y="441.4" class="st2" width="8.1" height="8.1"/>
	<rect id="Rectangle_322" x="226.6" y="429" class="st1" width="8.1" height="8.1"/>
	<rect id="Rectangle_323" x="239.1" y="441.4" class="st1" width="8.1" height="8.1"/>
	<rect id="Rectangle_324" x="251.5" y="441.4" class="st1" width="8.1" height="8.1"/>
	<rect id="Rectangle_325" x="264" y="441.4" class="st1" width="8.1" height="8.1"/>
	<rect id="Rectangle_326" x="276.5" y="441.4" class="st2" width="8.1" height="8.1"/>
	<rect id="Rectangle_327" x="288.9" y="441.4" class="st2" width="8.1" height="8.1"/>
	<rect id="Rectangle_328" x="301.4" y="441.4" class="st3" width="8.1" height="8.1"/>
	<rect id="Rectangle_329" x="14.7" y="429" class="st1" width="8.1" height="8.1"/>
	<rect id="Rectangle_330" x="27.1" y="429" class="st2" width="8.1" height="8.1"/>
	<rect id="Rectangle_331" x="39.6" y="429" class="st1" width="8.1" height="8.1"/>
	<rect id="Rectangle_332" x="52.1" y="429" class="st3" width="8.1" height="8.1"/>
	<rect id="Rectangle_333" x="64.5" y="429" class="st3" width="8.1" height="8.1"/>
	<rect id="Rectangle_334" x="77" y="429" class="st1" width="8.1" height="8.1"/>
	<rect id="Rectangle_335" x="89.5" y="429" class="st1" width="8.1" height="8.1"/>
	<rect id="Rectangle_336" x="101.9" y="429" class="st1" width="8.1" height="8.1"/>
	<rect id="Rectangle_337" x="114.4" y="429" class="st1" width="8.1" height="8.1"/>
	<rect id="Rectangle_338" x="126.9" y="429" class="st3" width="8.1" height="8.1"/>
	<rect id="Rectangle_339" x="139.3" y="429" class="st1" width="8.1" height="8.1"/>
	<rect id="Rectangle_340" x="151.8" y="429" class="st1" width="8.1" height="8.1"/>
	<rect id="Rectangle_341" x="164.3" y="429" class="st3" width="8.1" height="8.1"/>
	<rect id="Rectangle_342" x="176.7" y="429" class="st3" width="8.1" height="8.1"/>
	<rect id="Rectangle_343" x="189.2" y="429" class="st1" width="8.1" height="8.1"/>
	<rect id="Rectangle_344" x="214.1" y="429" class="st1" width="8.1" height="8.1"/>
	<rect id="Rectangle_345" x="239.1" y="429" class="st3" width="8.1" height="8.1"/>
	<rect id="Rectangle_346" x="251.5" y="429" class="st1" width="8.1" height="8.1"/>
	<rect id="Rectangle_347" x="264" y="429" class="st1" width="8.1" height="8.1"/>
	<rect id="Rectangle_348" x="276.5" y="429" class="st1" width="8.1" height="8.1"/>
	<rect id="Rectangle_349" x="288.9" y="429" class="st3" width="8.1" height="8.1"/>
	<rect id="Rectangle_350" x="301.4" y="429" class="st1" width="8.1" height="8.1"/>
	<rect id="Rectangle_351" x="463.5" y="478.8" class="st1" width="8.1" height="8.1"/>
	<rect id="Rectangle_352" x="475.9" y="478.8" class="st2" width="8.1" height="8.1"/>
	<rect id="Rectangle_353" x="488.4" y="478.8" class="st2" width="8.1" height="8.1"/>
	<rect id="Rectangle_354" x="500.9" y="478.8" class="st2" width="8.1" height="8.1"/>
	<rect id="Rectangle_355" x="513.3" y="478.8" class="st3" width="8.1" height="8.1"/>
	<rect id="Rectangle_356" x="525.8" y="478.8" class="st1" width="8.1" height="8.1"/>
	<rect id="Rectangle_357" x="538.3" y="478.8" class="st1" width="8.1" height="8.1"/>
	<rect id="Rectangle_358" x="563.2" y="478.8" class="st1" width="8.1" height="8.1"/>
	<rect id="Rectangle_359" x="475.9" y="466.4" class="st3" width="8.1" height="8.1"/>
	<rect id="Rectangle_360" x="500.9" y="466.4" class="st2" width="8.1" height="8.1"/>
	<rect id="Rectangle_361" x="488.4" y="453.9" class="st2" width="8.1" height="8.1"/>
	<rect id="Rectangle_362" x="438.5" y="478.8" class="st1" width="8.1" height="8.1"/>
	<rect id="Rectangle_363" x="451" y="478.8" class="st3" width="8.1" height="8.1"/>
	<rect id="Rectangle_364" x="451" y="466.4" class="st1" width="8.1" height="8.1"/>
	<rect id="Rectangle_365" x="451" y="453.9" class="st3" width="8.1" height="8.1"/>
	<rect id="Rectangle_366" x="438.5" y="441.4" class="st2" width="8.1" height="8.1"/>
	<rect id="Rectangle_367" x="401.1" y="441.4" class="st2" width="8.1" height="8.1"/>
	<rect id="Rectangle_368" x="401.1" y="429" class="st3" width="8.1" height="8.1"/>
	<rect id="Rectangle_369" x="451" y="429" class="st1" width="8.1" height="8.1"/>
	<rect id="Rectangle_370" x="14.7" y="416.5" class="st1" width="8.1" height="8.1"/>
	<rect id="Rectangle_371" x="27.1" y="416.5" class="st1" width="8.1" height="8.1"/>
	<rect id="Rectangle_372" x="39.6" y="416.5" class="st1" width="8.1" height="8.1"/>
	<rect id="Rectangle_373" x="52.1" y="416.5" class="st3" width="8.1" height="8.1"/>
	<rect id="Rectangle_374" x="64.5" y="416.5" class="st1" width="8.1" height="8.1"/>
	<rect id="Rectangle_375" x="77" y="416.5" class="st1" width="8.1" height="8.1"/>
	<rect id="Rectangle_376" x="89.5" y="416.5" class="st1" width="8.1" height="8.1"/>
	<rect id="Rectangle_377" x="101.9" y="416.5" class="st3" width="8.1" height="8.1"/>
	<rect id="Rectangle_378" x="114.4" y="416.5" class="st1" width="8.1" height="8.1"/>
	<rect id="Rectangle_379" x="126.9" y="416.5" class="st1" width="8.1" height="8.1"/>
	<rect id="Rectangle_380" x="139.3" y="416.5" class="st3" width="8.1" height="8.1"/>
	<rect id="Rectangle_381" x="151.8" y="416.5" class="st1" width="8.1" height="8.1"/>
	<rect id="Rectangle_382" x="164.3" y="416.5" class="st3" width="8.1" height="8.1"/>
	<rect id="Rectangle_383" x="176.7" y="416.5" class="st3" width="8.1" height="8.1"/>
	<rect id="Rectangle_384" x="189.2" y="416.5" class="st1" width="8.1" height="8.1"/>
	<rect id="Rectangle_385" x="201.7" y="416.5" class="st1" width="8.1" height="8.1"/>
	<rect id="Rectangle_386" x="201.7" y="429" class="st2" width="8.1" height="8.1"/>
	<rect id="Rectangle_387" x="214.1" y="416.5" class="st2" width="8.1" height="8.1"/>
	<rect id="Rectangle_388" x="226.6" y="416.5" class="st3" width="8.1" height="8.1"/>
	<rect id="Rectangle_389" x="251.5" y="416.5" class="st2" width="8.1" height="8.1"/>
	<rect id="Rectangle_390" x="276.5" y="416.5" class="st1" width="8.1" height="8.1"/>
	<rect id="Rectangle_391" x="288.9" y="416.5" class="st3" width="8.1" height="8.1"/>
	<rect id="Rectangle_392" x="301.4" y="416.5" class="st1" width="8.1" height="8.1"/>
	<rect id="Rectangle_393" x="14.7" y="404" class="st3" width="8.1" height="8.1"/>
	<rect id="Rectangle_394" x="27.1" y="404" class="st1" width="8.1" height="8.1"/>
	<rect id="Rectangle_395" x="39.6" y="404" class="st1" width="8.1" height="8.1"/>
	<rect id="Rectangle_396" x="52.1" y="404" class="st2" width="8.1" height="8.1"/>
	<rect id="Rectangle_397" x="64.5" y="404" class="st2" width="8.1" height="8.1"/>
	<rect id="Rectangle_398" x="77" y="404" class="st2" width="8.1" height="8.1"/>
	<rect id="Rectangle_399" x="89.5" y="404" class="st3" width="8.1" height="8.1"/>
	<rect id="Rectangle_400" x="101.9" y="404" class="st3" width="8.1" height="8.1"/>
	<rect id="Rectangle_401" x="114.4" y="404" class="st3" width="8.1" height="8.1"/>
	<rect id="Rectangle_402" x="126.9" y="404" class="st1" width="8.1" height="8.1"/>
	<rect id="Rectangle_403" x="139.3" y="404" class="st2" width="8.1" height="8.1"/>
	<rect id="Rectangle_404" x="151.8" y="404" class="st1" width="8.1" height="8.1"/>
	<rect id="Rectangle_405" x="164.3" y="404" class="st2" width="8.1" height="8.1"/>
	<rect id="Rectangle_406" x="176.7" y="404" class="st3" width="8.1" height="8.1"/>
	<rect id="Rectangle_407" x="201.7" y="404" class="st1" width="8.1" height="8.1"/>
	<rect id="Rectangle_408" x="214.1" y="404" class="st1" width="8.1" height="8.1"/>
	<rect id="Rectangle_409" x="226.6" y="404" class="st1" width="8.1" height="8.1"/>
	<rect id="Rectangle_410" x="239.1" y="404" class="st3" width="8.1" height="8.1"/>
	<rect id="Rectangle_411" x="251.5" y="404" class="st2" width="8.1" height="8.1"/>
	<rect id="Rectangle_412" x="264" y="404" class="st1" width="8.1" height="8.1"/>
	<rect id="Rectangle_413" x="276.5" y="404" class="st2" width="8.1" height="8.1"/>
	<rect id="Rectangle_414" x="288.9" y="404" class="st1" width="8.1" height="8.1"/>
	<rect id="Rectangle_415" x="14.7" y="391.6" class="st3" width="8.1" height="8.1"/>
	<rect id="Rectangle_416" x="27.1" y="391.6" class="st1" width="8.1" height="8.1"/>
	<rect id="Rectangle_417" x="39.6" y="391.6" class="st1" width="8.1" height="8.1"/>
	<rect id="Rectangle_418" x="52.1" y="391.6" class="st3" width="8.1" height="8.1"/>
	<rect id="Rectangle_419" x="64.5" y="391.6" class="st3" width="8.1" height="8.1"/>
	<rect id="Rectangle_420" x="77" y="391.6" class="st1" width="8.1" height="8.1"/>
	<rect id="Rectangle_421" x="89.5" y="391.6" class="st2" width="8.1" height="8.1"/>
	<rect id="Rectangle_422" x="101.9" y="391.6" class="st2" width="8.1" height="8.1"/>
	<rect id="Rectangle_423" x="114.4" y="391.6" class="st3" width="8.1" height="8.1"/>
	<rect id="Rectangle_424" x="126.9" y="391.6" class="st1" width="8.1" height="8.1"/>
	<rect id="Rectangle_425" x="139.3" y="391.6" class="st1" width="8.1" height="8.1"/>
	<rect id="Rectangle_426" x="151.8" y="391.6" class="st1" width="8.1" height="8.1"/>
	<rect id="Rectangle_427" x="164.3" y="391.6" class="st1" width="8.1" height="8.1"/>
	<rect id="Rectangle_428" x="176.7" y="391.6" class="st1" width="8.1" height="8.1"/>
	<rect id="Rectangle_429" x="189.2" y="391.6" class="st2" width="8.1" height="8.1"/>
	<rect id="Rectangle_430" x="201.7" y="391.6" class="st1" width="8.1" height="8.1"/>
	<rect id="Rectangle_431" x="214.1" y="391.6" class="st3" width="8.1" height="8.1"/>
	<rect id="Rectangle_432" x="226.6" y="391.6" class="st1" width="8.1" height="8.1"/>
	<rect id="Rectangle_433" x="239.1" y="391.6" class="st3" width="8.1" height="8.1"/>
	<rect id="Rectangle_434" x="251.5" y="391.6" class="st1" width="8.1" height="8.1"/>
	<rect id="Rectangle_435" x="288.9" y="391.6" class="st1" width="8.1" height="8.1"/>
	<rect id="Rectangle_436" x="14.7" y="379.1" class="st1" width="8.1" height="8.1"/>
	<rect id="Rectangle_437" x="27.1" y="379.1" class="st2" width="8.1" height="8.1"/>
	<rect id="Rectangle_438" x="39.6" y="379.1" class="st1" width="8.1" height="8.1"/>
	<rect id="Rectangle_439" x="52.1" y="379.1" class="st3" width="8.1" height="8.1"/>
	<rect id="Rectangle_440" x="64.5" y="379.1" class="st1" width="8.1" height="8.1"/>
	<rect id="Rectangle_441" x="77" y="379.1" class="st1" width="8.1" height="8.1"/>
	<rect id="Rectangle_442" x="89.5" y="379.1" class="st2" width="8.1" height="8.1"/>
	<rect id="Rectangle_443" x="101.9" y="379.1" class="st2" width="8.1" height="8.1"/>
	<rect id="Rectangle_444" x="114.4" y="379.1" class="st1" width="8.1" height="8.1"/>
	<rect id="Rectangle_445" x="126.9" y="379.1" class="st2" width="8.1" height="8.1"/>
	<rect id="Rectangle_446" x="139.3" y="379.1" class="st1" width="8.1" height="8.1"/>
	<rect id="Rectangle_447" x="151.8" y="379.1" class="st2" width="8.1" height="8.1"/>
	<rect id="Rectangle_448" x="164.3" y="379.1" class="st3" width="8.1" height="8.1"/>
	<rect id="Rectangle_449" x="176.7" y="379.1" class="st2" width="8.1" height="8.1"/>
	<rect id="Rectangle_450" x="189.2" y="379.1" class="st2" width="8.1" height="8.1"/>
	<rect id="Rectangle_451" x="201.7" y="379.1" class="st1" width="8.1" height="8.1"/>
	<rect id="Rectangle_452" x="214.1" y="379.1" class="st2" width="8.1" height="8.1"/>
	<rect id="Rectangle_453" x="226.6" y="379.1" class="st1" width="8.1" height="8.1"/>
	<rect id="Rectangle_454" x="239.1" y="379.1" class="st3" width="8.1" height="8.1"/>
	<rect id="Rectangle_455" x="251.5" y="379.1" class="st3" width="8.1" height="8.1"/>
	<rect id="Rectangle_456" x="288.9" y="379.1" class="st2" width="8.1" height="8.1"/>
	<rect id="Rectangle_457" x="14.7" y="366.6" class="st3" width="8.1" height="8.1"/>
	<rect id="Rectangle_458" x="27.1" y="366.6" class="st2" width="8.1" height="8.1"/>
	<rect id="Rectangle_459" x="39.6" y="366.6" class="st2" width="8.1" height="8.1"/>
	<rect id="Rectangle_460" x="52.1" y="366.6" class="st1" width="8.1" height="8.1"/>
	<rect id="Rectangle_461" x="64.5" y="366.6" class="st1" width="8.1" height="8.1"/>
	<rect id="Rectangle_462" x="77" y="366.6" class="st1" width="8.1" height="8.1"/>
	<rect id="Rectangle_463" x="89.5" y="366.6" class="st1" width="8.1" height="8.1"/>
	<rect id="Rectangle_464" x="101.9" y="366.6" class="st2" width="8.1" height="8.1"/>
	<rect id="Rectangle_465" x="114.4" y="366.6" class="st3" width="8.1" height="8.1"/>
	<rect id="Rectangle_466" x="126.9" y="366.6" class="st3" width="8.1" height="8.1"/>
	<rect id="Rectangle_467" x="139.3" y="366.6" class="st1" width="8.1" height="8.1"/>
	<rect id="Rectangle_468" x="151.8" y="366.6" class="st2" width="8.1" height="8.1"/>
	<rect id="Rectangle_469" x="164.3" y="366.6" class="st3" width="8.1" height="8.1"/>
	<rect id="Rectangle_470" x="176.7" y="366.6" class="st1" width="8.1" height="8.1"/>
	<rect id="Rectangle_471" x="189.2" y="366.6" class="st1" width="8.1" height="8.1"/>
	<rect id="Rectangle_472" x="201.7" y="366.6" class="st1" width="8.1" height="8.1"/>
	<rect id="Rectangle_473" x="214.1" y="366.6" class="st1" width="8.1" height="8.1"/>
	<rect id="Rectangle_474" x="226.6" y="366.6" class="st3" width="8.1" height="8.1"/>
	<rect id="Rectangle_475" x="239.1" y="366.6" class="st1" width="8.1" height="8.1"/>
	<rect id="Rectangle_476" x="251.5" y="366.6" class="st1" width="8.1" height="8.1"/>
	<rect id="Rectangle_477" x="264" y="366.6" class="st2" width="8.1" height="8.1"/>
	<rect id="Rectangle_478" x="276.5" y="366.6" class="st1" width="8.1" height="8.1"/>
	<rect id="Rectangle_479" x="288.9" y="366.6" class="st3" width="8.1" height="8.1"/>
	<rect id="Rectangle_480" x="301.4" y="366.6" class="st1" width="8.1" height="8.1"/>
	<rect id="Rectangle_481" x="14.7" y="354.2" class="st3" width="8.1" height="8.1"/>
	<rect id="Rectangle_482" x="27.1" y="354.2" class="st2" width="8.1" height="8.1"/>
	<rect id="Rectangle_483" x="39.6" y="354.2" class="st1" width="8.1" height="8.1"/>
	<rect id="Rectangle_484" x="52.1" y="354.2" class="st1" width="8.1" height="8.1"/>
	<rect id="Rectangle_485" x="64.5" y="354.2" class="st3" width="8.1" height="8.1"/>
	<rect id="Rectangle_486" x="77" y="354.2" class="st2" width="8.1" height="8.1"/>
	<rect id="Rectangle_487" x="89.5" y="354.2" class="st2" width="8.1" height="8.1"/>
	<rect id="Rectangle_488" x="101.9" y="354.2" class="st1" width="8.1" height="8.1"/>
	<rect id="Rectangle_489" x="114.4" y="354.2" class="st2" width="8.1" height="8.1"/>
	<rect id="Rectangle_490" x="126.9" y="354.2" class="st1" width="8.1" height="8.1"/>
	<rect id="Rectangle_491" x="139.3" y="354.2" class="st2" width="8.1" height="8.1"/>
	<rect id="Rectangle_492" x="151.8" y="354.2" class="st1" width="8.1" height="8.1"/>
	<rect id="Rectangle_493" x="164.3" y="354.2" class="st3" width="8.1" height="8.1"/>
	<rect id="Rectangle_494" x="176.7" y="354.2" class="st2" width="8.1" height="8.1"/>
	<rect id="Rectangle_495" x="189.2" y="354.2" class="st3" width="8.1" height="8.1"/>
	<rect id="Rectangle_496" x="214.1" y="354.2" class="st2" width="8.1" height="8.1"/>
	<rect id="Rectangle_497" x="276.5" y="354.2" class="st3" width="8.1" height="8.1"/>
	<rect id="Rectangle_498" x="301.4" y="354.2" class="st1" width="8.1" height="8.1"/>
	<rect id="Rectangle_499" x="14.7" y="341.7" class="st3" width="8.1" height="8.1"/>
	<rect id="Rectangle_500" x="27.1" y="341.7" class="st1" width="8.1" height="8.1"/>
	<rect id="Rectangle_501" x="39.6" y="341.7" class="st3" width="8.1" height="8.1"/>
	<rect id="Rectangle_502" x="52.1" y="341.7" class="st2" width="8.1" height="8.1"/>
	<rect id="Rectangle_503" x="64.5" y="341.7" class="st2" width="8.1" height="8.1"/>
	<rect id="Rectangle_504" x="77" y="341.7" class="st1" width="8.1" height="8.1"/>
	<rect id="Rectangle_505" x="89.5" y="341.7" class="st1" width="8.1" height="8.1"/>
	<rect id="Rectangle_506" x="101.9" y="341.7" class="st3" width="8.1" height="8.1"/>
	<rect id="Rectangle_507" x="114.4" y="341.7" class="st1" width="8.1" height="8.1"/>
	<rect id="Rectangle_508" x="139.3" y="341.7" class="st1" width="8.1" height="8.1"/>
	<rect id="Rectangle_509" x="151.8" y="341.7" class="st2" width="8.1" height="8.1"/>
	<rect id="Rectangle_510" x="176.7" y="341.7" class="st1" width="8.1" height="8.1"/>
	<rect id="Rectangle_511" x="189.2" y="341.7" class="st3" width="8.1" height="8.1"/>
	<rect id="Rectangle_512" x="239.1" y="341.7" class="st3" width="8.1" height="8.1"/>
	<rect id="Rectangle_513" x="264" y="341.7" class="st1" width="8.1" height="8.1"/>
	<rect id="Rectangle_514" x="14.7" y="329.2" class="st1" width="8.1" height="8.1"/>
	<rect id="Rectangle_515" x="27.1" y="329.2" class="st1" width="8.1" height="8.1"/>
	<rect id="Rectangle_516" x="39.6" y="329.2" class="st1" width="8.1" height="8.1"/>
	<rect id="Rectangle_517" x="52.1" y="329.2" class="st1" width="8.1" height="8.1"/>
	<rect id="Rectangle_518" x="64.5" y="329.2" class="st1" width="8.1" height="8.1"/>
	<rect id="Rectangle_519" x="77" y="329.2" class="st2" width="8.1" height="8.1"/>
	<rect id="Rectangle_520" x="89.5" y="329.2" class="st1" width="8.1" height="8.1"/>
	<rect id="Rectangle_521" x="101.9" y="329.2" class="st3" width="8.1" height="8.1"/>
	<rect id="Rectangle_522" x="114.4" y="329.2" class="st3" width="8.1" height="8.1"/>
	<rect id="Rectangle_523" x="126.9" y="329.2" class="st3" width="8.1" height="8.1"/>
	<rect id="Rectangle_524" x="139.3" y="329.2" class="st1" width="8.1" height="8.1"/>
	<rect id="Rectangle_525" x="151.8" y="329.2" class="st1" width="8.1" height="8.1"/>
	<rect id="Rectangle_526" x="164.3" y="329.2" class="st3" width="8.1" height="8.1"/>
	<rect id="Rectangle_527" x="176.7" y="329.2" class="st3" width="8.1" height="8.1"/>
	<rect id="Rectangle_528" x="201.7" y="329.2" class="st1" width="8.1" height="8.1"/>
	<rect id="Rectangle_529" x="276.5" y="329.2" class="st2" width="8.1" height="8.1"/>
	<rect id="Rectangle_530" x="14.7" y="316.8" class="st2" width="8.1" height="8.1"/>
	<rect id="Rectangle_531" x="27.1" y="316.8" class="st1" width="8.1" height="8.1"/>
	<rect id="Rectangle_532" x="39.6" y="316.8" class="st1" width="8.1" height="8.1"/>
	<rect id="Rectangle_533" x="52.1" y="316.8" class="st2" width="8.1" height="8.1"/>
	<rect id="Rectangle_534" x="64.5" y="316.8" class="st3" width="8.1" height="8.1"/>
	<rect id="Rectangle_535" x="77" y="316.8" class="st2" width="8.1" height="8.1"/>
	<rect id="Rectangle_536" x="89.5" y="316.8" class="st1" width="8.1" height="8.1"/>
	<rect id="Rectangle_537" x="101.9" y="316.8" class="st1" width="8.1" height="8.1"/>
	<rect id="Rectangle_538" x="114.4" y="316.8" class="st2" width="8.1" height="8.1"/>
	<rect id="Rectangle_539" x="126.9" y="316.8" class="st2" width="8.1" height="8.1"/>
	<rect id="Rectangle_540" x="139.3" y="316.8" class="st1" width="8.1" height="8.1"/>
	<rect id="Rectangle_541" x="151.8" y="316.8" class="st3" width="8.1" height="8.1"/>
	<rect id="Rectangle_542" x="164.3" y="316.8" class="st2" width="8.1" height="8.1"/>
	<rect id="Rectangle_543" x="214.1" y="316.8" class="st2" width="8.1" height="8.1"/>
	<rect id="Rectangle_544" x="14.7" y="304.3" class="st3" width="8.1" height="8.1"/>
	<rect id="Rectangle_545" x="27.1" y="304.3" class="st1" width="8.1" height="8.1"/>
	<rect id="Rectangle_546" x="39.6" y="304.3" class="st1" width="8.1" height="8.1"/>
	<rect id="Rectangle_547" x="52.1" y="304.3" class="st2" width="8.1" height="8.1"/>
	<rect id="Rectangle_548" x="64.5" y="304.3" class="st3" width="8.1" height="8.1"/>
	<rect id="Rectangle_549" x="77" y="304.3" class="st3" width="8.1" height="8.1"/>
	<rect id="Rectangle_550" x="89.5" y="304.3" class="st2" width="8.1" height="8.1"/>
	<rect id="Rectangle_551" x="101.9" y="304.3" class="st2" width="8.1" height="8.1"/>
	<rect id="Rectangle_552" x="114.4" y="304.3" class="st1" width="8.1" height="8.1"/>
	<rect id="Rectangle_553" x="126.9" y="304.3" class="st1" width="8.1" height="8.1"/>
	<rect id="Rectangle_554" x="139.3" y="304.3" class="st3" width="8.1" height="8.1"/>
	<rect id="Rectangle_555" x="151.8" y="304.3" class="st1" width="8.1" height="8.1"/>
	<rect id="Rectangle_556" x="164.3" y="304.3" class="st2" width="8.1" height="8.1"/>
	<rect id="Rectangle_557" x="176.7" y="304.3" class="st1" width="8.1" height="8.1"/>
	<rect id="Rectangle_558" x="189.2" y="304.3" class="st3" width="8.1" height="8.1"/>
	<rect id="Rectangle_559" x="239.1" y="304.3" class="st1" width="8.1" height="8.1"/>
	<rect id="Rectangle_560" x="251.5" y="304.3" class="st1" width="8.1" height="8.1"/>
	<rect id="Rectangle_561" x="264" y="304.3" class="st2" width="8.1" height="8.1"/>
	<rect id="Rectangle_562" x="14.7" y="291.8" class="st1" width="8.1" height="8.1"/>
	<rect id="Rectangle_563" x="27.1" y="291.8" class="st1" width="8.1" height="8.1"/>
	<rect id="Rectangle_564" x="39.6" y="291.8" class="st3" width="8.1" height="8.1"/>
	<rect id="Rectangle_565" x="52.1" y="291.8" class="st1" width="8.1" height="8.1"/>
	<rect id="Rectangle_566" x="64.5" y="291.8" class="st3" width="8.1" height="8.1"/>
	<rect id="Rectangle_567" x="77" y="291.8" class="st1" width="8.1" height="8.1"/>
	<rect id="Rectangle_568" x="101.9" y="291.8" class="st3" width="8.1" height="8.1"/>
	<rect id="Rectangle_569" x="114.4" y="291.8" class="st2" width="8.1" height="8.1"/>
	<rect id="Rectangle_570" x="126.9" y="291.8" class="st2" width="8.1" height="8.1"/>
	<rect id="Rectangle_571" x="139.3" y="291.8" class="st1" width="8.1" height="8.1"/>
	<rect id="Rectangle_572" x="164.3" y="291.8" class="st2" width="8.1" height="8.1"/>
	<rect id="Rectangle_573" x="176.7" y="291.8" class="st2" width="8.1" height="8.1"/>
	<rect id="Rectangle_574" x="14.7" y="279.3" class="st1" width="8.1" height="8.1"/>
	<rect id="Rectangle_575" x="27.1" y="279.3" class="st2" width="8.1" height="8.1"/>
	<rect id="Rectangle_576" x="39.6" y="279.3" class="st1" width="8.1" height="8.1"/>
	<rect id="Rectangle_577" x="52.1" y="279.3" class="st1" width="8.1" height="8.1"/>
	<rect id="Rectangle_578" x="64.5" y="279.3" class="st3" width="8.1" height="8.1"/>
	<rect id="Rectangle_579" x="77" y="279.3" class="st1" width="8.1" height="8.1"/>
	<rect id="Rectangle_580" x="89.5" y="279.3" class="st2" width="8.1" height="8.1"/>
	<rect id="Rectangle_581" x="101.9" y="279.3" class="st2" width="8.1" height="8.1"/>
	<rect id="Rectangle_582" x="114.4" y="279.3" class="st1" width="8.1" height="8.1"/>
	<rect id="Rectangle_583" x="126.9" y="279.3" class="st1" width="8.1" height="8.1"/>
	<rect id="Rectangle_584" x="139.3" y="279.3" class="st1" width="8.1" height="8.1"/>
	<rect id="Rectangle_585" x="151.8" y="279.3" class="st3" width="8.1" height="8.1"/>
	<rect id="Rectangle_586" x="214.1" y="279.3" class="st2" width="8.1" height="8.1"/>
	<rect id="Rectangle_587" x="251.5" y="279.3" class="st1" width="8.1" height="8.1"/>
	<rect id="Rectangle_588" x="14.7" y="266.9" class="st2" width="8.1" height="8.1"/>
	<rect id="Rectangle_589" x="27.1" y="266.9" class="st1" width="8.1" height="8.1"/>
	<rect id="Rectangle_590" x="39.6" y="266.9" class="st2" width="8.1" height="8.1"/>
	<rect id="Rectangle_591" x="52.1" y="266.9" class="st3" width="8.1" height="8.1"/>
	<rect id="Rectangle_592" x="77" y="266.9" class="st1" width="8.1" height="8.1"/>
	<rect id="Rectangle_593" x="89.5" y="266.9" class="st1" width="8.1" height="8.1"/>
	<rect id="Rectangle_594" x="101.9" y="266.9" class="st2" width="8.1" height="8.1"/>
	<rect id="Rectangle_595" x="126.9" y="266.9" class="st3" width="8.1" height="8.1"/>
	<rect id="Rectangle_596" x="164.3" y="266.9" class="st3" width="8.1" height="8.1"/>
	<rect id="Rectangle_597" x="201.7" y="266.9" class="st2" width="8.1" height="8.1"/>
	<rect id="Rectangle_598" x="226.6" y="266.9" class="st1" width="8.1" height="8.1"/>
	<rect id="Rectangle_599" x="239.1" y="266.9" class="st3" width="8.1" height="8.1"/>
	<rect id="Rectangle_600" x="264" y="266.9" class="st3" width="8.1" height="8.1"/>
	<rect id="Rectangle_601" x="276.5" y="266.9" class="st1" width="8.1" height="8.1"/>
	<rect id="Rectangle_602" x="14.7" y="254.4" class="st3" width="8.1" height="8.1"/>
	<rect id="Rectangle_603" x="27.1" y="254.4" class="st2" width="8.1" height="8.1"/>
	<rect id="Rectangle_604" x="39.6" y="254.4" class="st1" width="8.1" height="8.1"/>
	<rect id="Rectangle_605" x="52.1" y="254.4" class="st1" width="8.1" height="8.1"/>
	<rect id="Rectangle_606" x="77" y="254.4" class="st1" width="8.1" height="8.1"/>
	<rect id="Rectangle_607" x="89.5" y="254.4" class="st1" width="8.1" height="8.1"/>
	<rect id="Rectangle_608" x="101.9" y="254.4" class="st2" width="8.1" height="8.1"/>
	<rect id="Rectangle_609" x="114.4" y="254.4" class="st1" width="8.1" height="8.1"/>
	<rect id="Rectangle_610" x="126.9" y="254.4" class="st3" width="8.1" height="8.1"/>
	<rect id="Rectangle_611" x="176.7" y="254.4" class="st2" width="8.1" height="8.1"/>
	<rect id="Rectangle_612" x="201.7" y="254.4" class="st3" width="8.1" height="8.1"/>
	<rect id="Rectangle_613" x="214.1" y="254.4" class="st1" width="8.1" height="8.1"/>
	<rect id="Rectangle_614" x="276.5" y="254.4" class="st2" width="8.1" height="8.1"/>
	<rect id="Rectangle_615" x="14.7" y="241.9" class="st1" width="8.1" height="8.1"/>
	<rect id="Rectangle_616" x="27.1" y="241.9" class="st1" width="8.1" height="8.1"/>
	<rect id="Rectangle_617" x="39.6" y="241.9" class="st1" width="8.1" height="8.1"/>
	<rect id="Rectangle_618" x="89.5" y="241.9" class="st2" width="8.1" height="8.1"/>
	<rect id="Rectangle_619" x="101.9" y="241.9" class="st2" width="8.1" height="8.1"/>
	<rect id="Rectangle_620" x="114.4" y="241.9" class="st1" width="8.1" height="8.1"/>
	<rect id="Rectangle_621" x="126.9" y="241.9" class="st1" width="8.1" height="8.1"/>
	<rect id="Rectangle_622" x="151.8" y="241.9" class="st1" width="8.1" height="8.1"/>
	<rect id="Rectangle_623" x="164.3" y="241.9" class="st3" width="8.1" height="8.1"/>
	<rect id="Rectangle_624" x="214.1" y="241.9" class="st1" width="8.1" height="8.1"/>
	<rect id="Rectangle_625" x="14.7" y="229.5" class="st1" width="8.1" height="8.1"/>
	<rect id="Rectangle_626" x="27.1" y="229.5" class="st3" width="8.1" height="8.1"/>
	<rect id="Rectangle_627" x="39.6" y="229.5" class="st1" width="8.1" height="8.1"/>
	<rect id="Rectangle_628" x="52.1" y="229.5" class="st3" width="8.1" height="8.1"/>
	<rect id="Rectangle_629" x="64.5" y="229.5" class="st1" width="8.1" height="8.1"/>
	<rect id="Rectangle_630" x="77" y="229.5" class="st3" width="8.1" height="8.1"/>
	<rect id="Rectangle_631" x="89.5" y="229.5" class="st1" width="8.1" height="8.1"/>
	<rect id="Rectangle_632" x="101.9" y="229.5" class="st2" width="8.1" height="8.1"/>
	<rect id="Rectangle_633" x="114.4" y="229.5" class="st1" width="8.1" height="8.1"/>
	<rect id="Rectangle_634" x="126.9" y="229.5" class="st2" width="8.1" height="8.1"/>
	<rect id="Rectangle_635" x="14.7" y="217" class="st1" width="8.1" height="8.1"/>
	<rect id="Rectangle_636" x="27.1" y="217" class="st3" width="8.1" height="8.1"/>
	<rect id="Rectangle_637" x="39.6" y="217" class="st3" width="8.1" height="8.1"/>
	<rect id="Rectangle_638" x="52.1" y="217" class="st2" width="8.1" height="8.1"/>
	<rect id="Rectangle_639" x="64.5" y="217" class="st1" width="8.1" height="8.1"/>
	<rect id="Rectangle_640" x="77" y="217" class="st3" width="8.1" height="8.1"/>
	<rect id="Rectangle_641" x="89.5" y="217" class="st2" width="8.1" height="8.1"/>
	<rect id="Rectangle_642" x="101.9" y="217" class="st3" width="8.1" height="8.1"/>
	<rect id="Rectangle_643" x="114.4" y="217" class="st1" width="8.1" height="8.1"/>
	<rect id="Rectangle_644" x="139.3" y="217" class="st1" width="8.1" height="8.1"/>
	<rect id="Rectangle_645" x="14.7" y="204.5" class="st2" width="8.1" height="8.1"/>
	<rect id="Rectangle_646" x="27.1" y="204.5" class="st1" width="8.1" height="8.1"/>
	<rect id="Rectangle_647" x="52.1" y="204.5" class="st1" width="8.1" height="8.1"/>
	<rect id="Rectangle_648" x="64.5" y="204.5" class="st2" width="8.1" height="8.1"/>
	<rect id="Rectangle_649" x="89.5" y="204.5" class="st2" width="8.1" height="8.1"/>
	<rect id="Rectangle_650" x="151.8" y="204.5" class="st1" width="8.1" height="8.1"/>
	<rect id="Rectangle_651" x="14.7" y="192.1" class="st2" width="8.1" height="8.1"/>
	<rect id="Rectangle_652" x="39.6" y="192.1" class="st3" width="8.1" height="8.1"/>
	<rect id="Rectangle_653" x="52.1" y="192.1" class="st1" width="8.1" height="8.1"/>
	<rect id="Rectangle_654" x="64.5" y="192.1" class="st1" width="8.1" height="8.1"/>
	<rect id="Rectangle_655" x="77" y="192.1" class="st1" width="8.1" height="8.1"/>
	<rect id="Rectangle_656" x="89.5" y="192.1" class="st2" width="8.1" height="8.1"/>
	<rect id="Rectangle_657" x="126.9" y="192.1" class="st2" width="8.1" height="8.1"/>
	<rect id="Rectangle_658" x="139.3" y="192.1" class="st2" width="8.1" height="8.1"/>
	<rect id="Rectangle_659" x="14.7" y="179.6" class="st3" width="8.1" height="8.1"/>
	<rect id="Rectangle_660" x="27.1" y="179.6" class="st1" width="8.1" height="8.1"/>
	<rect id="Rectangle_661" x="39.6" y="179.6" class="st1" width="8.1" height="8.1"/>
	<rect id="Rectangle_662" x="52.1" y="179.6" class="st1" width="8.1" height="8.1"/>
	<rect id="Rectangle_663" x="89.5" y="179.6" class="st2" width="8.1" height="8.1"/>
	<rect id="Rectangle_664" x="151.8" y="179.6" class="st1" width="8.1" height="8.1"/>
	<rect id="Rectangle_665" x="14.7" y="167.1" class="st1" width="8.1" height="8.1"/>
	<rect id="Rectangle_666" x="39.6" y="167.1" class="st2" width="8.1" height="8.1"/>
	<rect id="Rectangle_667" x="52.1" y="167.1" class="st1" width="8.1" height="8.1"/>
	<rect id="Rectangle_668" x="77" y="167.1" class="st1" width="8.1" height="8.1"/>
	<rect id="Rectangle_669" x="89.5" y="167.1" class="st2" width="8.1" height="8.1"/>
	<rect id="Rectangle_670" x="114.4" y="167.1" class="st1" width="8.1" height="8.1"/>
	<rect id="Rectangle_671" x="176.7" y="167.1" class="st1" width="8.1" height="8.1"/>
	<rect id="Rectangle_672" x="14.7" y="154.7" class="st3" width="8.1" height="8.1"/>
	<rect id="Rectangle_673" x="27.1" y="154.7" class="st1" width="8.1" height="8.1"/>
	<rect id="Rectangle_674" x="39.6" y="154.7" class="st1" width="8.1" height="8.1"/>
	<rect id="Rectangle_675" x="89.5" y="154.7" class="st1" width="8.1" height="8.1"/>
	<rect id="Rectangle_676" x="101.9" y="154.7" class="st1" width="8.1" height="8.1"/>
	<rect id="Rectangle_677" x="126.9" y="154.7" class="st1" width="8.1" height="8.1"/>
	<rect id="Rectangle_678" x="139.3" y="154.7" class="st3" width="8.1" height="8.1"/>
	<rect id="Rectangle_679" x="14.7" y="142.2" class="st2" width="8.1" height="8.1"/>
	<rect id="Rectangle_680" x="52.1" y="142.2" class="st1" width="8.1" height="8.1"/>
	<rect id="Rectangle_681" x="77" y="142.2" class="st1" width="8.1" height="8.1"/>
	<rect id="Rectangle_682" x="89.5" y="142.2" class="st1" width="8.1" height="8.1"/>
	<rect id="Rectangle_683" x="39.6" y="129.7" class="st1" width="8.1" height="8.1"/>
	<rect id="Rectangle_684" x="52.1" y="129.7" class="st2" width="8.1" height="8.1"/>
	<rect id="Rectangle_685" x="77" y="129.7" class="st1" width="8.1" height="8.1"/>
	<rect id="Rectangle_686" x="27.1" y="117.3" class="st2" width="8.1" height="8.1"/>
	<rect id="Rectangle_687" x="77" y="117.3" class="st1" width="8.1" height="8.1"/>
	<rect id="Rectangle_688" x="14.7" y="104.8" class="st1" width="8.1" height="8.1"/>
	<rect id="Rectangle_689" x="27.1" y="104.8" class="st1" width="8.1" height="8.1"/>
	<rect id="Rectangle_690" x="27.1" y="92.3" class="st3" width="8.1" height="8.1"/>
	<rect id="Rectangle_691" x="64.5" y="92.3" class="st1" width="8.1" height="8.1"/>
	<rect id="Rectangle_692" x="77" y="92.3" class="st3" width="8.1" height="8.1"/>
	<rect id="Rectangle_693" x="101.9" y="92.3" class="st3" width="8.1" height="8.1"/>
	<rect id="Rectangle_694" x="14.7" y="79.9" class="st1" width="8.1" height="8.1"/>
	<rect id="Rectangle_695" x="27.1" y="79.9" class="st2" width="8.1" height="8.1"/>
	<rect id="Rectangle_696" x="27.1" y="67.4" class="st3" width="8.1" height="8.1"/>
	<rect id="Rectangle_697" x="77" y="67.4" class="st1" width="8.1" height="8.1"/>
	<rect id="Rectangle_698" x="89.5" y="67.4" class="st3" width="8.1" height="8.1"/>
	<rect id="Rectangle_699" x="14.7" y="54.9" class="st3" width="8.1" height="8.1"/>
	<rect id="Rectangle_700" x="14.7" y="42.5" class="st2" width="8.1" height="8.1"/>
	<rect id="Rectangle_701" x="27.1" y="42.5" class="st1" width="8.1" height="8.1"/>
	<rect id="Rectangle_702" x="39.6" y="42.5" class="st1" width="8.1" height="8.1"/>
	<rect id="Rectangle_703" x="52.1" y="42.5" class="st1" width="8.1" height="8.1"/>
	<rect id="Rectangle_704" x="64.5" y="42.5" class="st1" width="8.1" height="8.1"/>
	<rect id="Rectangle_705" x="39.6" y="30" class="st3" width="8.1" height="8.1"/>
	<rect id="Rectangle_706" x="39.6" y="17.5" class="st1" width="8.1" height="8.1"/>
	<rect id="Rectangle_708" x="575.7" y="478.8" class="st2" width="8.1" height="8.1"/>
</g>
</svg>
