<?xml version="1.0" encoding="utf-8"?>
<!-- Generator: Adobe Illustrator 27.6.1, SVG Export Plug-In . SVG Version: 6.00 Build 0)  -->
<svg version="1.1" id="Layer_1" xmlns="http://www.w3.org/2000/svg" xmlns:xlink="http://www.w3.org/1999/xlink" x="0px" y="0px"
	 viewBox="0 0 914.7 612" style="enable-background:new 0 0 914.7 612;" xml:space="preserve">
<style type="text/css">
	.st0{fill:url(#SVGID_1_);}
	.st1{fill:url(#SVGID_00000046340010951561155640000000420168992756373941_);}
	.st2{fill:url(#SVGID_00000028317527636987267030000008160255766768524217_);}
	.st3{fill:url(#SVGID_00000159435208553102325410000008751308971337919398_);}
	.st4{fill:url(#SVGID_00000120551933370139148980000015135313652542673079_);}
	.st5{fill:url(#SVGID_00000083807609095824236740000006894523054397285266_);}
	.st6{fill:url(#SVGID_00000142872175724810230530000012940548638225606042_);}
	.st7{fill:url(#SVGID_00000133506720153502692580000016977708449110826391_);}
	.st8{fill:url(#SVGID_00000039131217765531537210000015545420601288924861_);}
	.st9{fill:url(#SVGID_00000121968662785883499460000006760479633874396575_);}
	.st10{fill:url(#SVGID_00000010289679510813165430000005838475945663016600_);}
	.st11{fill:url(#SVGID_00000118373695007719430660000008153858538510778800_);}
	.st12{fill:url(#SVGID_00000050641865737210053210000014863533825666873260_);}
	.st13{fill:url(#SVGID_00000148645891321842270570000014232348827659482770_);}
	.st14{fill:url(#SVGID_00000158023387111645264910000014663988156851519670_);}
	.st15{fill:url(#SVGID_00000055693136403482073530000017116687076680791466_);}
	.st16{fill:url(#SVGID_00000061466338219501822550000007312207178516749702_);}
	.st17{fill:url(#SVGID_00000110457136935019061750000011747606379007416461_);}
	.st18{fill:url(#SVGID_00000129922099583312675090000017187814517465784203_);}
	.st19{fill:url(#SVGID_00000127749505332878133580000009645254617912592805_);}
	.st20{fill:url(#SVGID_00000039128057986242562350000014986236823833968304_);}
	.st21{fill:url(#SVGID_00000013871128019387065760000003163745737798268080_);}
	.st22{fill:url(#SVGID_00000047052710052587129810000004080123806470395298_);}
	.st23{fill:url(#SVGID_00000111158232533254848310000000366134086460628096_);}
	.st24{fill:url(#SVGID_00000160152460861129168540000003385699921016635306_);}
	.st25{fill:url(#SVGID_00000046307805706989258050000000642720627936144040_);}
	.st26{fill:url(#SVGID_00000011753061066706870480000004514327242789109638_);}
	.st27{fill:url(#SVGID_00000018932878228019349360000005228215285536721597_);}
	.st28{fill:url(#SVGID_00000086685105123645226750000004009997552142057374_);}
	.st29{fill:url(#SVGID_00000158727982321817799310000012772748679105339266_);}
	.st30{fill:url(#SVGID_00000127745200697570000530000001286678022614806933_);}
	.st31{fill:url(#SVGID_00000027593625528923500480000007507192709368727711_);}
	.st32{fill:url(#SVGID_00000165941859750846413970000008622740241346316701_);}
	.st33{fill:url(#SVGID_00000079481418923882932210000002959776492738900108_);}
	.st34{fill:url(#SVGID_00000127739562390430496470000017553132146957311924_);}
	.st35{fill:url(#SVGID_00000137129364123527140200000009201884359209191342_);}
	.st36{fill:url(#SVGID_00000031904073752990832390000014019515621577540480_);}
	.st37{fill:url(#SVGID_00000088819243193088197430000005619903634423242897_);}
	.st38{fill:url(#SVGID_00000109725082406404346270000012395062090868626821_);}
	.st39{fill:url(#SVGID_00000091700256905834809050000015955430459592005306_);}
	.st40{fill:url(#SVGID_00000005236983793056457610000009284744312072976025_);}
	.st41{fill:url(#SVGID_00000154389258246816418610000002798506876432546978_);}
	.st42{fill:url(#SVGID_00000110468081937036860890000012558331829286627225_);}
	.st43{fill:url(#SVGID_00000167359351806482965850000015125935691314442662_);}
	.st44{fill:url(#SVGID_00000080893173208323428320000006392635351616485284_);}
	.st45{fill:url(#SVGID_00000145027748750654617030000006999479637938659723_);}
	.st46{fill:url(#SVGID_00000005245921800883830840000001926685264439246250_);}
	.st47{fill:url(#SVGID_00000113349885502909163440000003465413034222335418_);}
	.st48{fill:url(#SVGID_00000023241857928570178470000014403397293468955554_);}
	.st49{fill:url(#SVGID_00000073683983701005579850000003280200950670437810_);}
	.st50{fill:url(#SVGID_00000086689609160185390420000004771766499295931324_);}
	.st51{fill:url(#SVGID_00000054966312676269642590000005139074933006677425_);}
</style>
<g>
	<g>
		<g>
			<linearGradient id="SVGID_1_" gradientUnits="userSpaceOnUse" x1="636.0454" y1="291.7667" x2="1012.9384" y2="-209.572">
				<stop  offset="0" style="stop-color:#FFFFFF"/>
				<stop  offset="0.7659" style="stop-color:#D0D2D3"/>
			</linearGradient>
			<polyline class="st0" points="344.7,584.5 345.9,585.7 347.1,584.5 917.5,14.1 917.5,9.3 345.9,580.9 			"/>
		</g>
		<g>
			
				<linearGradient id="SVGID_00000044177922446294065130000017614565030461321402_" gradientUnits="userSpaceOnUse" x1="622.9508" y1="281.9225" x2="999.8438" y2="-219.4162">
				<stop  offset="0" style="stop-color:#FFFFFF"/>
				<stop  offset="0.7659" style="stop-color:#D0D2D3"/>
			</linearGradient>
			<polyline style="fill:url(#SVGID_00000044177922446294065130000017614565030461321402_);" points="344.7,558.6 345.9,559.9 
				347.1,558.6 909,-3.2 904.2,-3.2 345.9,555 			"/>
		</g>
		<g>
			
				<linearGradient id="SVGID_00000138575605893678628170000009819944005370735234_" gradientUnits="userSpaceOnUse" x1="608.485" y1="271.0476" x2="985.378" y2="-230.2911">
				<stop  offset="0" style="stop-color:#FFFFFF"/>
				<stop  offset="0.7659" style="stop-color:#D0D2D3"/>
			</linearGradient>
			<polyline style="fill:url(#SVGID_00000138575605893678628170000009819944005370735234_);" points="345.9,534 883.1,-3.2 
				878.3,-3.2 345.9,529.2 			"/>
		</g>
		<g>
			
				<linearGradient id="SVGID_00000011027349836828613940000000696878812485473162_" gradientUnits="userSpaceOnUse" x1="594.0194" y1="260.1727" x2="970.9124" y2="-241.166">
				<stop  offset="0" style="stop-color:#FFFFFF"/>
				<stop  offset="0.7659" style="stop-color:#D0D2D3"/>
			</linearGradient>
			<polyline style="fill:url(#SVGID_00000011027349836828613940000000696878812485473162_);" points="345.9,508.2 857.3,-3.2 
				852.5,-3.2 345.9,503.3 			"/>
		</g>
		<g>
			
				<linearGradient id="SVGID_00000133502731024427068730000014033791270150775425_" gradientUnits="userSpaceOnUse" x1="579.5536" y1="249.2978" x2="956.4466" y2="-252.041">
				<stop  offset="0" style="stop-color:#FFFFFF"/>
				<stop  offset="0.7659" style="stop-color:#D0D2D3"/>
			</linearGradient>
			<polyline style="fill:url(#SVGID_00000133502731024427068730000014033791270150775425_);" points="345.9,482.3 831.4,-3.2 
				826.6,-3.2 345.9,477.5 			"/>
		</g>
		<g>
			
				<linearGradient id="SVGID_00000119806437211091120800000017739112606241775800_" gradientUnits="userSpaceOnUse" x1="565.0879" y1="238.4228" x2="941.9808" y2="-262.916">
				<stop  offset="0" style="stop-color:#FFFFFF"/>
				<stop  offset="0.7659" style="stop-color:#D0D2D3"/>
			</linearGradient>
			<polyline style="fill:url(#SVGID_00000119806437211091120800000017739112606241775800_);" points="344.7,455.2 345.9,456.5 
				347.1,455.2 805.6,-3.2 800.8,-3.2 345.9,451.6 			"/>
		</g>
		<g>
			
				<linearGradient id="SVGID_00000052810219222699714370000011187225305614481337_" gradientUnits="userSpaceOnUse" x1="550.6223" y1="227.5479" x2="927.5152" y2="-273.7908">
				<stop  offset="0" style="stop-color:#FFFFFF"/>
				<stop  offset="0.7659" style="stop-color:#D0D2D3"/>
			</linearGradient>
			<polyline style="fill:url(#SVGID_00000052810219222699714370000011187225305614481337_);" points="345.9,430.6 779.7,-3.2 
				774.9,-3.2 345.9,425.8 			"/>
		</g>
		<g>
			
				<linearGradient id="SVGID_00000054265352525362246600000007546593966736553406_" gradientUnits="userSpaceOnUse" x1="536.1564" y1="216.6729" x2="913.0494" y2="-284.6658">
				<stop  offset="0" style="stop-color:#FFFFFF"/>
				<stop  offset="0.7659" style="stop-color:#D0D2D3"/>
			</linearGradient>
			<polyline style="fill:url(#SVGID_00000054265352525362246600000007546593966736553406_);" points="345.9,404.8 753.9,-3.2 
				749.1,-3.2 345.9,399.9 			"/>
		</g>
		<g>
			
				<linearGradient id="SVGID_00000065048883814502772230000015043250228988210611_" gradientUnits="userSpaceOnUse" x1="521.6908" y1="205.798" x2="898.5837" y2="-295.5407">
				<stop  offset="0" style="stop-color:#FFFFFF"/>
				<stop  offset="0.7659" style="stop-color:#D0D2D3"/>
			</linearGradient>
			<polyline style="fill:url(#SVGID_00000065048883814502772230000015043250228988210611_);" points="344.7,377.7 345.9,378.9 
				347.1,377.7 728,-3.2 723.2,-3.2 345.9,374.1 			"/>
		</g>
		<g>
			
				<linearGradient id="SVGID_00000177477576232468867290000017029614297129620155_" gradientUnits="userSpaceOnUse" x1="507.2251" y1="194.9231" x2="884.1181" y2="-306.4156">
				<stop  offset="0" style="stop-color:#FFFFFF"/>
				<stop  offset="0.7659" style="stop-color:#D0D2D3"/>
			</linearGradient>
			<polyline style="fill:url(#SVGID_00000177477576232468867290000017029614297129620155_);" points="344.7,351.8 345.9,353.1 
				347.1,351.8 702.2,-3.2 697.4,-3.2 345.9,348.2 			"/>
		</g>
		<g>
			
				<linearGradient id="SVGID_00000086675383588150437810000005326074849124518061_" gradientUnits="userSpaceOnUse" x1="492.7594" y1="184.0482" x2="869.6524" y2="-317.2905">
				<stop  offset="0" style="stop-color:#FFFFFF"/>
				<stop  offset="0.7659" style="stop-color:#D0D2D3"/>
			</linearGradient>
			<polyline style="fill:url(#SVGID_00000086675383588150437810000005326074849124518061_);" points="345.9,327.2 676.3,-3.2 
				671.5,-3.2 345.9,322.4 			"/>
		</g>
		<g>
			
				<linearGradient id="SVGID_00000143581838094717561780000012708920671265357727_" gradientUnits="userSpaceOnUse" x1="478.2937" y1="173.1732" x2="855.1866" y2="-328.1655">
				<stop  offset="0" style="stop-color:#FFFFFF"/>
				<stop  offset="0.7659" style="stop-color:#D0D2D3"/>
			</linearGradient>
			<polyline style="fill:url(#SVGID_00000143581838094717561780000012708920671265357727_);" points="345.9,301.4 650.5,-3.2 
				645.7,-3.2 345.9,296.5 			"/>
		</g>
		<g>
			
				<linearGradient id="SVGID_00000170251330751116483180000016887188501862891706_" gradientUnits="userSpaceOnUse" x1="463.828" y1="162.2983" x2="840.7209" y2="-339.0404">
				<stop  offset="0" style="stop-color:#FFFFFF"/>
				<stop  offset="0.7659" style="stop-color:#D0D2D3"/>
			</linearGradient>
			<polyline style="fill:url(#SVGID_00000170251330751116483180000016887188501862891706_);" points="345.9,275.5 624.6,-3.2 
				619.8,-3.2 345.9,270.7 			"/>
		</g>
		<g>
			
				<linearGradient id="SVGID_00000104673817591185798570000011599844108198948517_" gradientUnits="userSpaceOnUse" x1="449.3622" y1="151.4234" x2="826.2552" y2="-349.9154">
				<stop  offset="0" style="stop-color:#FFFFFF"/>
				<stop  offset="0.7659" style="stop-color:#D0D2D3"/>
			</linearGradient>
			<polyline style="fill:url(#SVGID_00000104673817591185798570000011599844108198948517_);" points="345.9,249.7 598.8,-3.2 
				594,-3.2 345.9,244.8 			"/>
		</g>
		<g>
			
				<linearGradient id="SVGID_00000098929161880950902840000015826784105036584849_" gradientUnits="userSpaceOnUse" x1="434.8965" y1="140.5484" x2="811.7895" y2="-360.7903">
				<stop  offset="0" style="stop-color:#FFFFFF"/>
				<stop  offset="0.7659" style="stop-color:#D0D2D3"/>
			</linearGradient>
			<polyline style="fill:url(#SVGID_00000098929161880950902840000015826784105036584849_);" points="344.7,222.6 345.9,223.8 
				347.1,222.6 572.9,-3.2 568.1,-3.2 345.9,219 			"/>
		</g>
		<g>
			
				<linearGradient id="SVGID_00000067210530024349113870000008223442817704220328_" gradientUnits="userSpaceOnUse" x1="420.4308" y1="129.6735" x2="797.3238" y2="-371.6652">
				<stop  offset="0" style="stop-color:#FFFFFF"/>
				<stop  offset="0.7659" style="stop-color:#D0D2D3"/>
			</linearGradient>
			<polyline style="fill:url(#SVGID_00000067210530024349113870000008223442817704220328_);" points="344.7,196.8 345.9,198 
				347.1,196.8 547.1,-3.2 542.3,-3.2 345.9,193.1 			"/>
		</g>
		<g>
			
				<linearGradient id="SVGID_00000098919290946943937940000003312041461774144186_" gradientUnits="userSpaceOnUse" x1="405.9652" y1="118.7987" x2="782.8582" y2="-382.5401">
				<stop  offset="0" style="stop-color:#FFFFFF"/>
				<stop  offset="0.7659" style="stop-color:#D0D2D3"/>
			</linearGradient>
			<polyline style="fill:url(#SVGID_00000098919290946943937940000003312041461774144186_);" points="345.9,172.1 521.2,-3.2 
				516.4,-3.2 345.9,167.3 			"/>
		</g>
		<g>
			
				<linearGradient id="SVGID_00000039110309455603512860000004662421242726823315_" gradientUnits="userSpaceOnUse" x1="391.4995" y1="107.9237" x2="768.3925" y2="-393.415">
				<stop  offset="0" style="stop-color:#FFFFFF"/>
				<stop  offset="0.7659" style="stop-color:#D0D2D3"/>
			</linearGradient>
			<polyline style="fill:url(#SVGID_00000039110309455603512860000004662421242726823315_);" points="344.7,145.1 345.9,146.3 
				495.4,-3.2 490.6,-3.2 345.9,141.4 			"/>
		</g>
		<g>
			
				<linearGradient id="SVGID_00000183225065071832626420000018344040101656324012_" gradientUnits="userSpaceOnUse" x1="309.0226" y1="45.9198" x2="685.9155" y2="-455.4189">
				<stop  offset="0" style="stop-color:#FFFFFF"/>
				<stop  offset="0.7659" style="stop-color:#D0D2D3"/>
			</linearGradient>
			<polygon style="fill:url(#SVGID_00000183225065071832626420000018344040101656324012_);" points="464.7,-3.2 345.9,115.6 
				227.2,-3.2 222.3,-3.2 344.7,119.2 345.9,120.4 469.5,-3.2 			"/>
		</g>
		<g>
			
				<linearGradient id="SVGID_00000107578858773245491640000001980295800305695664_" gradientUnits="userSpaceOnUse" x1="309.0225" y1="45.9197" x2="685.9155" y2="-455.419">
				<stop  offset="0" style="stop-color:#FFFFFF"/>
				<stop  offset="0.7659" style="stop-color:#D0D2D3"/>
			</linearGradient>
			<polygon style="fill:url(#SVGID_00000107578858773245491640000001980295800305695664_);" points="438.9,-3.2 345.9,89.7 
				253,-3.2 248.2,-3.2 345.9,94.6 443.7,-3.2 			"/>
		</g>
		<g>
			
				<linearGradient id="SVGID_00000116210303368973198540000012728995006717895341_" gradientUnits="userSpaceOnUse" x1="309.0226" y1="45.9198" x2="685.9155" y2="-455.419">
				<stop  offset="0" style="stop-color:#FFFFFF"/>
				<stop  offset="0.7659" style="stop-color:#D0D2D3"/>
			</linearGradient>
			<polygon style="fill:url(#SVGID_00000116210303368973198540000012728995006717895341_);" points="413,-3.2 345.9,63.9 
				278.9,-3.2 274,-3.2 344.7,67.5 345.9,68.7 417.8,-3.2 			"/>
		</g>
		<g>
			
				<linearGradient id="SVGID_00000065070812128254131040000011489948354251863198_" gradientUnits="userSpaceOnUse" x1="309.0226" y1="45.9198" x2="685.9156" y2="-455.4189">
				<stop  offset="0" style="stop-color:#FFFFFF"/>
				<stop  offset="0.7659" style="stop-color:#D0D2D3"/>
			</linearGradient>
			<polygon style="fill:url(#SVGID_00000065070812128254131040000011489948354251863198_);" points="387.2,-3.2 345.9,38 
				304.7,-3.2 299.9,-3.2 344.7,41.7 345.9,42.9 392,-3.2 			"/>
		</g>
		<g>
			
				<linearGradient id="SVGID_00000026160296340657547840000002688090262127760539_" gradientUnits="userSpaceOnUse" x1="309.0226" y1="45.9198" x2="685.9156" y2="-455.4189">
				<stop  offset="0" style="stop-color:#FFFFFF"/>
				<stop  offset="0.7659" style="stop-color:#D0D2D3"/>
			</linearGradient>
			<polygon style="fill:url(#SVGID_00000026160296340657547840000002688090262127760539_);" points="361.3,-3.2 345.9,12.2 
				330.6,-3.2 325.7,-3.2 344.7,15.8 345.9,17 366.1,-3.2 			"/>
		</g>
	</g>
	<g>
		<g>
			
				<linearGradient id="SVGID_00000163772070207893523940000012037488658899222409_" gradientUnits="userSpaceOnUse" x1="768.745" y1="391.5267" x2="1145.6379" y2="-109.812">
				<stop  offset="0" style="stop-color:#FFFFFF"/>
				<stop  offset="0.7659" style="stop-color:#D0D2D3"/>
			</linearGradient>
			<polygon style="fill:url(#SVGID_00000163772070207893523940000012037488658899222409_);" points="917.5,408.2 734,224.7 
				917.5,41.2 917.5,36.3 730.4,223.5 729.2,224.7 917.5,413 			"/>
		</g>
		<g>
			
				<linearGradient id="SVGID_00000115474535294277651550000018245061333686514574_" gradientUnits="userSpaceOnUse" x1="770.7948" y1="393.0677" x2="1147.6877" y2="-108.271">
				<stop  offset="0" style="stop-color:#FFFFFF"/>
				<stop  offset="0.7659" style="stop-color:#D0D2D3"/>
			</linearGradient>
			<polygon style="fill:url(#SVGID_00000115474535294277651550000018245061333686514574_);" points="917.5,382.4 759.9,224.7 
				917.5,67 917.5,62.2 756.2,223.5 755,224.7 756.2,225.9 917.5,387.2 			"/>
		</g>
		<g>
			
				<linearGradient id="SVGID_00000086679845221875975010000004576515166898973580_" gradientUnits="userSpaceOnUse" x1="772.8447" y1="394.6087" x2="1149.7375" y2="-106.73">
				<stop  offset="0" style="stop-color:#FFFFFF"/>
				<stop  offset="0.7659" style="stop-color:#D0D2D3"/>
			</linearGradient>
			<polygon style="fill:url(#SVGID_00000086679845221875975010000004576515166898973580_);" points="917.5,356.5 785.7,224.7 
				917.5,92.9 917.5,88 782.1,223.5 780.9,224.7 917.5,361.3 			"/>
		</g>
		<g>
			
				<linearGradient id="SVGID_00000180357499422786586780000014042398226916063904_" gradientUnits="userSpaceOnUse" x1="774.8944" y1="396.1497" x2="1151.7874" y2="-105.1891">
				<stop  offset="0" style="stop-color:#FFFFFF"/>
				<stop  offset="0.7659" style="stop-color:#D0D2D3"/>
			</linearGradient>
			<polygon style="fill:url(#SVGID_00000180357499422786586780000014042398226916063904_);" points="917.5,330.7 811.6,224.7 
				917.5,118.7 917.5,113.9 806.7,224.7 917.5,335.5 			"/>
		</g>
		<g>
			
				<linearGradient id="SVGID_00000095335396986685959100000012784348824970931903_" gradientUnits="userSpaceOnUse" x1="776.9442" y1="397.6906" x2="1153.8372" y2="-103.6481">
				<stop  offset="0" style="stop-color:#FFFFFF"/>
				<stop  offset="0.7659" style="stop-color:#D0D2D3"/>
			</linearGradient>
			<polygon style="fill:url(#SVGID_00000095335396986685959100000012784348824970931903_);" points="917.5,304.8 837.4,224.7 
				917.5,144.6 917.5,139.7 833.8,223.5 832.6,224.7 917.5,309.6 			"/>
		</g>
		<g>
			
				<linearGradient id="SVGID_00000015327618683929963800000006135652591113402789_" gradientUnits="userSpaceOnUse" x1="778.9939" y1="399.2315" x2="1155.8868" y2="-102.1072">
				<stop  offset="0" style="stop-color:#FFFFFF"/>
				<stop  offset="0.7659" style="stop-color:#D0D2D3"/>
			</linearGradient>
			<polygon style="fill:url(#SVGID_00000015327618683929963800000006135652591113402789_);" points="917.5,279 863.3,224.7 
				917.5,170.4 917.5,165.6 859.6,223.5 858.4,224.7 859.6,225.9 917.5,283.8 			"/>
		</g>
		<g>
			
				<linearGradient id="SVGID_00000035496989685154988020000012792932257674665147_" gradientUnits="userSpaceOnUse" x1="781.0438" y1="400.7726" x2="1157.9368" y2="-100.5661">
				<stop  offset="0" style="stop-color:#FFFFFF"/>
				<stop  offset="0.7659" style="stop-color:#D0D2D3"/>
			</linearGradient>
			<polygon style="fill:url(#SVGID_00000035496989685154988020000012792932257674665147_);" points="917.5,253.1 889.1,224.7 
				917.5,196.3 917.5,191.4 885.5,223.5 884.3,224.7 917.5,257.9 			"/>
		</g>
		<g>
			
				<linearGradient id="SVGID_00000024694670761518410440000013944811328922613144_" gradientUnits="userSpaceOnUse" x1="783.0936" y1="402.3136" x2="1159.9865" y2="-99.0252">
				<stop  offset="0" style="stop-color:#FFFFFF"/>
				<stop  offset="0.7659" style="stop-color:#D0D2D3"/>
			</linearGradient>
			<polygon style="fill:url(#SVGID_00000024694670761518410440000013944811328922613144_);" points="917.5,227.3 915,224.7 
				917.5,222.1 917.5,217.3 911.3,223.5 910.1,224.7 917.5,232.1 			"/>
		</g>
	</g>
	<g>
		<g>
			
				<linearGradient id="SVGID_00000082356714738732559400000016531967911625817509_" gradientUnits="userSpaceOnUse" x1="744.3972" y1="373.2227" x2="1121.2902" y2="-128.116">
				<stop  offset="0" style="stop-color:#FFFFFF"/>
				<stop  offset="0.7659" style="stop-color:#D0D2D3"/>
			</linearGradient>
			<polygon style="fill:url(#SVGID_00000082356714738732559400000016531967911625817509_);" points="348.6,609 717.6,240 917.5,440 
				917.5,435.1 718.8,236.4 717.6,235.2 343.8,609 			"/>
		</g>
		<g>
			
				<linearGradient id="SVGID_00000074434269986164666090000010371639648146214580_" gradientUnits="userSpaceOnUse" x1="758.8631" y1="384.0977" x2="1135.756" y2="-117.241">
				<stop  offset="0" style="stop-color:#FFFFFF"/>
				<stop  offset="0.7659" style="stop-color:#D0D2D3"/>
			</linearGradient>
			<polygon style="fill:url(#SVGID_00000074434269986164666090000010371639648146214580_);" points="374.5,609 717.6,265.9 
				917.5,465.8 917.5,461 718.8,262.3 717.6,261.1 716.4,262.3 369.7,609 			"/>
		</g>
		<g>
			
				<linearGradient id="SVGID_00000075132283929257206900000003679034484883047829_" gradientUnits="userSpaceOnUse" x1="773.3287" y1="394.9726" x2="1150.2217" y2="-106.3661">
				<stop  offset="0" style="stop-color:#FFFFFF"/>
				<stop  offset="0.7659" style="stop-color:#D0D2D3"/>
			</linearGradient>
			<polygon style="fill:url(#SVGID_00000075132283929257206900000003679034484883047829_);" points="400.3,609 717.6,291.7 
				917.5,491.7 917.5,486.8 718.8,288.1 717.6,286.9 395.5,609 			"/>
		</g>
		<g>
			
				<linearGradient id="SVGID_00000072978263092951809670000005998426155797541782_" gradientUnits="userSpaceOnUse" x1="787.7944" y1="405.8476" x2="1164.6874" y2="-95.4912">
				<stop  offset="0" style="stop-color:#FFFFFF"/>
				<stop  offset="0.7659" style="stop-color:#D0D2D3"/>
			</linearGradient>
			<polygon style="fill:url(#SVGID_00000072978263092951809670000005998426155797541782_);" points="426.2,609 717.6,317.6 
				917.5,517.5 917.5,512.7 718.8,314 717.6,312.8 421.4,609 			"/>
		</g>
		<g>
			
				<linearGradient id="SVGID_00000103970631726223015900000014574354775723241640_" gradientUnits="userSpaceOnUse" x1="802.2601" y1="416.7225" x2="1179.1531" y2="-84.6163">
				<stop  offset="0" style="stop-color:#FFFFFF"/>
				<stop  offset="0.7659" style="stop-color:#D0D2D3"/>
			</linearGradient>
			<polygon style="fill:url(#SVGID_00000103970631726223015900000014574354775723241640_);" points="452,609 717.6,343.4 
				917.5,543.4 917.5,538.5 717.6,338.6 447.2,609 			"/>
		</g>
		<g>
			
				<linearGradient id="SVGID_00000098194828900401861950000002129301240286064268_" gradientUnits="userSpaceOnUse" x1="816.7258" y1="427.5974" x2="1193.6188" y2="-73.7413">
				<stop  offset="0" style="stop-color:#FFFFFF"/>
				<stop  offset="0.7659" style="stop-color:#D0D2D3"/>
			</linearGradient>
			<polygon style="fill:url(#SVGID_00000098194828900401861950000002129301240286064268_);" points="477.9,609 717.6,369.3 
				917.5,569.2 917.5,564.4 718.8,365.7 717.6,364.5 473.1,609 			"/>
		</g>
		<g>
			
				<linearGradient id="SVGID_00000154428038834756319620000011064348748236710580_" gradientUnits="userSpaceOnUse" x1="831.1915" y1="438.4723" x2="1208.0845" y2="-62.8664">
				<stop  offset="0" style="stop-color:#FFFFFF"/>
				<stop  offset="0.7659" style="stop-color:#D0D2D3"/>
			</linearGradient>
			<polygon style="fill:url(#SVGID_00000154428038834756319620000011064348748236710580_);" points="503.7,609 717.6,395.1 
				917.5,595.1 917.5,590.2 717.6,390.3 498.9,609 			"/>
		</g>
		<g>
			
				<linearGradient id="SVGID_00000119109566781588196860000006065693331988968360_" gradientUnits="userSpaceOnUse" x1="840.5567" y1="445.5128" x2="1217.4496" y2="-55.8259">
				<stop  offset="0" style="stop-color:#FFFFFF"/>
				<stop  offset="0.7659" style="stop-color:#D0D2D3"/>
			</linearGradient>
			<polygon style="fill:url(#SVGID_00000119109566781588196860000006065693331988968360_);" points="529.6,609 717.6,421 905.7,609 
				910.5,609 717.6,416.2 524.7,609 			"/>
		</g>
		<g>
			
				<linearGradient id="SVGID_00000149368835155570230430000014466069282273844881_" gradientUnits="userSpaceOnUse" x1="840.5566" y1="445.5128" x2="1217.4496" y2="-55.826">
				<stop  offset="0" style="stop-color:#FFFFFF"/>
				<stop  offset="0.7659" style="stop-color:#D0D2D3"/>
			</linearGradient>
			<polygon style="fill:url(#SVGID_00000149368835155570230430000014466069282273844881_);" points="555.4,609 717.6,446.8 
				879.8,609 884.7,609 717.6,442 550.6,609 			"/>
		</g>
		<g>
			
				<linearGradient id="SVGID_00000100352177380745023060000009084748720661090198_" gradientUnits="userSpaceOnUse" x1="840.5566" y1="445.5128" x2="1217.4496" y2="-55.826">
				<stop  offset="0" style="stop-color:#FFFFFF"/>
				<stop  offset="0.7659" style="stop-color:#D0D2D3"/>
			</linearGradient>
			<polygon style="fill:url(#SVGID_00000100352177380745023060000009084748720661090198_);" points="581.3,609 717.6,472.7 854,609 
				858.8,609 717.6,467.9 576.4,609 			"/>
		</g>
		<g>
			
				<linearGradient id="SVGID_00000170966837850100361270000017884881463989408929_" gradientUnits="userSpaceOnUse" x1="840.5565" y1="445.5127" x2="1217.4495" y2="-55.826">
				<stop  offset="0" style="stop-color:#FFFFFF"/>
				<stop  offset="0.7659" style="stop-color:#D0D2D3"/>
			</linearGradient>
			<polygon style="fill:url(#SVGID_00000170966837850100361270000017884881463989408929_);" points="607.1,609 717.6,498.5 
				828.1,609 833,609 718.8,494.9 717.6,493.7 602.3,609 			"/>
		</g>
		<g>
			
				<linearGradient id="SVGID_00000057847511396761201540000005745303692478476705_" gradientUnits="userSpaceOnUse" x1="840.5566" y1="445.5128" x2="1217.4496" y2="-55.826">
				<stop  offset="0" style="stop-color:#FFFFFF"/>
				<stop  offset="0.7659" style="stop-color:#D0D2D3"/>
			</linearGradient>
			<polygon style="fill:url(#SVGID_00000057847511396761201540000005745303692478476705_);" points="633,609 717.6,524.4 802.3,609 
				807.1,609 718.8,520.8 717.6,519.6 716.4,520.8 628.1,609 			"/>
		</g>
		<g>
			
				<linearGradient id="SVGID_00000070085193271595680940000002223639758671931522_" gradientUnits="userSpaceOnUse" x1="840.5566" y1="445.5128" x2="1217.4496" y2="-55.826">
				<stop  offset="0" style="stop-color:#FFFFFF"/>
				<stop  offset="0.7659" style="stop-color:#D0D2D3"/>
			</linearGradient>
			<polygon style="fill:url(#SVGID_00000070085193271595680940000002223639758671931522_);" points="658.8,609 717.6,550.2 
				776.4,609 781.3,609 718.8,546.6 717.6,545.4 716.4,546.6 654,609 			"/>
		</g>
		<g>
			
				<linearGradient id="SVGID_00000180359889849200621320000007978615933362995610_" gradientUnits="userSpaceOnUse" x1="840.5566" y1="445.5128" x2="1217.4496" y2="-55.826">
				<stop  offset="0" style="stop-color:#FFFFFF"/>
				<stop  offset="0.7659" style="stop-color:#D0D2D3"/>
			</linearGradient>
			<polygon style="fill:url(#SVGID_00000180359889849200621320000007978615933362995610_);" points="684.7,609 717.6,576.1 
				750.6,609 755.4,609 718.8,572.5 717.6,571.3 716.4,572.5 679.8,609 			"/>
		</g>
		<g>
			
				<linearGradient id="SVGID_00000044857406117401537840000016167935912523142585_" gradientUnits="userSpaceOnUse" x1="840.5565" y1="445.5127" x2="1217.4495" y2="-55.826">
				<stop  offset="0" style="stop-color:#FFFFFF"/>
				<stop  offset="0.7659" style="stop-color:#D0D2D3"/>
			</linearGradient>
			<polygon style="fill:url(#SVGID_00000044857406117401537840000016167935912523142585_);" points="710.5,609 717.6,601.9 
				724.7,609 729.6,609 718.8,598.3 717.6,597.1 705.7,609 			"/>
		</g>
	</g>
	<g>
		<g>
			
				<linearGradient id="SVGID_00000122711187259459246700000011702052592750902930_" gradientUnits="userSpaceOnUse" x1="602.4608" y1="266.5187" x2="979.3538" y2="-234.82">
				<stop  offset="0" style="stop-color:#FFFFFF"/>
				<stop  offset="0.7659" style="stop-color:#D0D2D3"/>
			</linearGradient>
			<line style="fill:url(#SVGID_00000122711187259459246700000011702052592750902930_);" x1="342.6" y1="609" x2="347.4" y2="609"/>
		</g>
		<g>
			
				<linearGradient id="SVGID_00000007394153364189712410000001931580114645544100_" gradientUnits="userSpaceOnUse" x1="585.9454" y1="254.1029" x2="962.8383" y2="-247.2359">
				<stop  offset="0" style="stop-color:#FFFFFF"/>
				<stop  offset="0.7659" style="stop-color:#D0D2D3"/>
			</linearGradient>
			<line style="fill:url(#SVGID_00000007394153364189712410000001931580114645544100_);" x1="316.7" y1="609" x2="321.5" y2="609"/>
		</g>
		<g>
			
				<linearGradient id="SVGID_00000096737491314317782590000011703084882091827606_" gradientUnits="userSpaceOnUse" x1="569.4299" y1="241.687" x2="946.3229" y2="-259.6517">
				<stop  offset="0" style="stop-color:#FFFFFF"/>
				<stop  offset="0.7659" style="stop-color:#D0D2D3"/>
			</linearGradient>
			<line style="fill:url(#SVGID_00000096737491314317782590000011703084882091827606_);" x1="290.9" y1="609" x2="295.7" y2="609"/>
		</g>
		<g>
			
				<linearGradient id="SVGID_00000166634419314575037760000000374901306190816934_" gradientUnits="userSpaceOnUse" x1="552.9144" y1="229.2711" x2="929.8074" y2="-272.0676">
				<stop  offset="0" style="stop-color:#FFFFFF"/>
				<stop  offset="0.7659" style="stop-color:#D0D2D3"/>
			</linearGradient>
			<line style="fill:url(#SVGID_00000166634419314575037760000000374901306190816934_);" x1="265" y1="609" x2="269.8" y2="609"/>
		</g>
		<g>
			
				<linearGradient id="SVGID_00000121238050069106737840000005946515492737875118_" gradientUnits="userSpaceOnUse" x1="536.399" y1="216.8552" x2="913.2919" y2="-284.4835">
				<stop  offset="0" style="stop-color:#FFFFFF"/>
				<stop  offset="0.7659" style="stop-color:#D0D2D3"/>
			</linearGradient>
			<line style="fill:url(#SVGID_00000121238050069106737840000005946515492737875118_);" x1="239.2" y1="609" x2="244" y2="609"/>
		</g>
		<g>
			
				<linearGradient id="SVGID_00000013899897487185076600000010789844061765824439_" gradientUnits="userSpaceOnUse" x1="519.8832" y1="204.4391" x2="896.7762" y2="-296.8996">
				<stop  offset="0" style="stop-color:#FFFFFF"/>
				<stop  offset="0.7659" style="stop-color:#D0D2D3"/>
			</linearGradient>
			<line style="fill:url(#SVGID_00000013899897487185076600000010789844061765824439_);" x1="213.3" y1="609" x2="218.1" y2="609"/>
		</g>
	</g>
</g>
</svg>
