<?xml version="1.0" encoding="utf-8"?>
<!-- Generator: Adobe Illustrator 27.6.1, SVG Export Plug-In . SVG Version: 6.00 Build 0)  -->
<svg version="1.1" id="Layer_1" xmlns="http://www.w3.org/2000/svg" xmlns:xlink="http://www.w3.org/1999/xlink" x="0px" y="0px"
	 viewBox="0 0 504 135.3" style="enable-background:new 0 0 504 135.3;" xml:space="preserve">
<style type="text/css">
	.st0{fill:#231F20;}
	.st1{fill:#FFFFFF;}
	.st2{fill:#B6AD94;}
</style>
<g>
	<g>
		<g>
			<g>
				<path class="st0" d="M150.1,134H0.9V1.5h149.2V134z M15.1,119.7h120.7v-104H15.1V119.7z"/>
				<g>
					<rect x="8" y="8.7" class="st1" width="135" height="118.2"/>
					<path class="st1" d="M143,8.7v118.2H8V8.7H143 M149.1,2.6H143H8H1.9v6.1v118.2v6.1H8h135h6.1v-6.1V8.7V2.6L149.1,2.6z"/>
				</g>
				<rect x="8" y="8.7" width="63.9" height="118.2"/>
				<rect x="77.6" y="8.7" class="st2" width="65.2" height="118.2"/>
			</g>
			<g>
				<path class="st1" d="M113.8,111.9c0.1,0.5-0.3,1-0.7,1.2c-6.7,2.4-12.3,4-16.7,4.9c-8,1.5-15.6,2.3-22.8,2.3
					c-10.8,0-20.4-2.1-28.9-6.4c-8.4-4.2-14.9-10.2-19.5-17.8c-4.6-7.6-7.5-16.7-7.5-27c0-9.1,1.4-17.3,4.6-23.7
					c3.3-6.4,6.1-10.8,12.9-16.2c5-4,5.8-5.1,14.8-9.1c7.4-3.3,16.8-4.7,27.9-4.7c5.1,0,25,0.7,35.6,7.2c0.4,0.3,0.6,0.8,0.5,1.2
					c-0.6,2.1-1.1,4.2-1.4,6.2c-0.4,2.2-0.8,5.7-1.4,12.3c0,0.6-0.5,1-1.1,1h-2.3c-0.6,0-1.1-0.5-1.1-1l-0.3-6.1
					c0-1.2-0.1-2.2-0.1-3c0-0.7-0.3-1.6-0.8-2.7c0-0.1-0.1-0.2-0.2-0.3c-1.3-1.6-3.2-3.1-5.9-4.4c0,0-0.1,0-0.1-0.1
					c-4.7-1.8-8.7-3-11.8-3.6c-3.1-0.6-6.8-0.9-11.1-0.9c-8.9,0-16.6,1.9-23.1,5.7c-6.5,3.8-11.4,9.2-14.8,16.3
					c-3.3,7.1-5,14.8-5,23.2c0,9.2,2,17.5,5.9,24.9c3.9,7.4,9.2,13,15.7,16.9c6.6,3.9,14.3,5.9,23,5.9c4.1,0,8.1-0.4,12-1.2
					c3.6-0.7,6.8-1.8,9.3-3.1c0.3-0.2,0.5-0.4,0.6-0.8c0.4-1.9,0.5-4.7,0.5-8.5v-7.8c0-4.1-0.2-6.5-0.6-7.2
					c-0.4-0.7-1.6-1.2-3.4-1.6c-1.7-0.3-5.6-0.6-11.7-0.8c-0.6,0-1.1-0.5-1.1-1.1v-2.1c0-0.6,0.5-1.1,1.1-1.1l20.8,0.5
					c3.9,0,7.9-0.1,12-0.4c0.6,0,1.1,0.4,1.1,0.9l0.2,1.7c0.1,0.4-0.2,0.9-0.5,1.1l-4.2,2.5c-0.3,0.2-0.5,0.5-0.5,0.8
					c-0.5,4.8-0.8,9.2-0.8,13.3C113,103.1,113.3,107.4,113.8,111.9z"/>
			</g>
		</g>
	</g>
	<g>
		<g>
			<path d="M215.1,61.7c-1.4,0.3-7.3,2.4-12.3,2.4c-13.7,0-21.1-7.4-21.1-22.1c0-8.4,4-15.5,10.5-18.8c3.4-1.7,6.8-2.6,11.6-2.6
				c4.3,0,7.8,1.1,11,1.4c-0.4,1.7-0.8,6.4-0.9,9.6c-0.2,0.3-0.8,0.3-1.1,0.1c-0.4-5.2-1.2-6.7-3.1-7.8c-2-1.1-4.6-1.7-8.2-1.7
				c-10.7,0-15.2,8.2-15.2,19.5c0,11.6,5.9,20.9,17.3,20.9c1.9,0,4-0.3,4.9-0.7c1.2-0.5,1.6-1.4,1.8-3.4c0.1-2.1,0.3-5.3,0.1-7.5
				c-0.2-2.4-0.5-3.2-2.5-3.5c-1-0.2-1.4-0.2-3-0.4c-0.2-0.1-0.2-0.9,0-1c2.3,0,4.8,0.2,7.3,0.2c2.5,0,3.9-0.1,5.4-0.2
				c0.1,0.2,0.1,0.9-0.1,1c-1,0.2-1.6,0.3-2.1,0.5c-1.1,0.3-1.3,1.4-1.5,3.4c-0.1,2.1-0.2,6.2-0.1,7.9c0.1,1.3,0.2,1.5,1.3,1.9
				C215.2,61,215.2,61.6,215.1,61.7z"/>
			<path d="M218.7,29.2c1.3,0,3.8,0.2,5.3,0.2c3.6,0,6.1-0.1,8-0.1c6.2,0,9.2,3.8,9.2,8.3c0,4.8-3.3,7.4-6.4,8.8
				c-0.1,0.1-0.1,0.2-0.1,0.3c2.1,3.4,6.7,10.1,9.2,12.6c2.6,2.6,3.6,2.9,6.1,3.1c0.1,0.1,0,0.8-0.1,0.8c-1.9,0.1-5.7-0.2-7.4-0.9
				c-0.8-0.3-1.5-0.9-2.5-2c-2.1-2.2-5.9-8.7-8-11.7c-0.4-0.7-0.9-0.9-1.3-0.9c-0.9-0.1-3.2,0.1-4.2,0.1c-0.1,0-0.2,0.3-0.2,0.4
				c0,2.9,0,8.6,0.1,10.6c0.1,2.4,0.5,2.7,1.5,3c0.8,0.2,1.9,0.4,2.8,0.5c0.2,0.1,0.1,0.7-0.1,0.8c-0.7,0-3.8-0.2-6.1-0.2
				c-3.4,0-5.3,0.2-6.1,0.2c-0.2-0.1-0.2-0.8,0-0.8c1.1-0.2,2.1-0.3,2.7-0.4c1.3-0.3,1.6-1.1,1.7-3.1c0.1-1.5,0.1-9.3,0.1-12.2
				c0-3.2,0-11.8-0.1-13.7c-0.1-1.4-0.4-2.1-1.8-2.4c-0.7-0.2-1.7-0.3-2.6-0.3C218.5,29.9,218.6,29.3,218.7,29.2z M226.9,30.7
				c-0.1,0.1-0.3,0.4-0.3,0.7c-0.2,1.9-0.2,10.8-0.2,14.4c0,0.1,0.2,0.3,0.2,0.3c1.8,0.2,5.3,0.4,6.7-0.1c1.9-0.7,4.4-2.6,4.4-7.3
				c0-5.2-3-8.2-9-8.2C228.1,30.5,227.3,30.5,226.9,30.7z"/>
			<path d="M249.3,29.2c1.2,0,2.8,0.2,5.8,0.2h10.6c2,0,4.7-0.1,5.5-0.2c0.1,0,0.2,0.1,0.2,0.2c-0.5,1.8-0.8,5.1-1,7
				c-0.1,0.1-0.7,0.2-0.9,0.1c-0.1-1.5-0.3-2.5-0.4-3.2c-0.4-1.3-0.8-2.2-3.1-2.3c-1.4-0.1-7.5-0.1-8.4,0c-0.4,0.1-0.5,0.5-0.5,0.8
				c-0.1,2-0.2,12.4-0.1,12.9c0,0.2,0.1,0.4,0.2,0.4c1.4,0.1,7.2,0.1,8.8-0.1c1.8-0.1,2.1-1,2.4-1.8c0.2-0.6,0.4-1.3,0.5-2
				c0.2-0.1,0.9-0.1,0.9,0.1c-0.2,0.9-0.4,3.1-0.4,4.9c0,2.4,0.1,3.6,0.1,4.4c-0.2,0.2-0.8,0.3-0.9,0.1c-0.1-0.8-0.2-1.3-0.3-1.9
				c-0.2-0.7-0.4-1.8-2.2-1.9c-1.6-0.1-7.3-0.2-8.8-0.1c-0.1,0-0.2,0.4-0.2,0.4c-0.1,0.9,0,9.1,0.1,12.3c0.1,1.4,0.8,1.9,1.3,2
				c1.1,0.2,3.1,0.3,7,0.3c3.3,0,4-0.7,4.7-1.4c0.8-0.7,2.1-2.8,3-4.9c0.1-0.1,0.6,0.2,0.7,0.4c-0.3,1.8-1.6,5.8-2.2,6.8
				c-0.3,0.5-0.5,0.6-3.3,0.6c-2.7,0-4.4-0.2-13-0.2c-3.7,0-5,0.2-7.1,0.2c-0.1-0.1-0.2-0.7,0-0.8c1.4-0.1,2.5-0.2,3.4-0.4
				c1.3-0.3,1.8-0.9,1.9-3.2c0.1-0.8,0.1-7.3,0.1-13.7c0-5.4-0.1-10.7-0.1-11.5c-0.1-2.2-0.3-2.7-1.7-3c-0.7-0.2-1.4-0.3-2.5-0.4
				C249.1,29.9,249.1,29.3,249.3,29.2z"/>
			<path d="M278.1,57.3c3.3-7.9,8.3-22,9.5-25.2c0.4-1.1,0.7-2,0.8-2.7c0.1,0,0.5,0.1,1.3,0.1c0.8,0,1.2-0.1,1.3-0.1
				c0.1,0.5,0.3,1.4,0.7,2.4c1,2.7,7.3,22.7,9,26.7c1.4,3.2,1.6,3.4,5.3,3.8c0.1,0.2,0.1,0.7-0.1,0.8c-1.4-0.1-4.5-0.2-5.8-0.2
				c-1.3,0-4.9,0.1-6.1,0.2c-0.1-0.1-0.1-0.7,0-0.8c1.1-0.2,2-0.3,2.7-0.5c0.9-0.4,0.9-0.8,0.7-1.5c-0.6-2.4-2.7-8.2-3.7-11.2
				c0,0-0.3-0.3-0.4-0.3c-0.5-0.1-1.7-0.1-5.1-0.1c-3.7,0-3.9,0-4.5,0.1c-0.2,0-0.4,0.2-0.4,0.4c-1.1,2.8-3.3,8.9-3.6,10.5
				c-0.2,1-0.2,1.9,1.6,2.3c0.7,0.2,1.1,0.3,2.3,0.4c0.1,0.1,0.1,0.7-0.1,0.8c-1,0-3.8-0.2-6.2-0.2c-2.7,0-4.3,0.2-5.1,0.2
				c-0.2-0.1-0.2-0.7,0-0.8C275.8,61.8,276.4,61.3,278.1,57.3z M288.5,33.6c-0.9,2.3-3.6,10.5-4.4,12.9c0,0.2,0.1,0.3,0.2,0.4
				c0.5,0.1,1.9,0.1,4.8,0.1c1.2,0,3.3,0,3.6-0.1c0.1,0,0.2-0.2,0.1-0.4c-1.3-4.2-3.3-10.5-4.1-12.9
				C288.6,33.6,288.5,33.6,288.5,33.6z"/>
			<path d="M325.3,63.1c-1.6,0-4.7-0.2-6.6-0.2c-3,0-5.9,0.2-7.4,0.2c-0.2-0.2-0.2-0.7,0-0.8c1.8-0.2,3-0.3,3.6-0.5
				c1.7-0.3,1.9-1.5,2-3.9c0.1-1.6,0.1-17.7,0.1-26.6c0-0.2-0.2-0.4-0.3-0.4c-1-0.1-7-0.1-8.2,0.1c-0.8,0-1.5,0.5-2,1.3
				c-0.7,1-1.4,3.1-2,4.8c-0.1,0.1-0.8,0-0.9-0.2c0.4-2.2,0.9-6.1,1-8.3c0,0,0.2-0.1,0.3-0.1c0.8,0.4,2.7,0.8,4.1,0.8h20.3
				c1.9,0,3-0.1,4.7-0.7c0.1,0,0.2,0.1,0.2,0.1c-0.5,1.6-0.9,5.3-1.1,8c-0.1,0.2-0.9,0.2-0.9,0c-0.1-1.3-0.3-3.2-0.8-4.3
				c-0.4-1-1-1.5-2.1-1.5c-2.2-0.2-7.2-0.1-8.5-0.1c-0.2,0.1-0.3,0.3-0.3,0.5c0,7.8,0.1,23.8,0.2,26.4c0.2,3.4,0.8,3.7,2,4.1
				c0.8,0.2,1.5,0.3,2.7,0.4C325.5,62.4,325.5,63,325.3,63.1z"/>
			<path d="M355.8,44.4c0-0.1,0.1-0.3,0.2-0.3c0.7,0.1,1.3,0.3,2.7,0.3c2,0,3.2-0.3,4.5-1.1c3-1.9,3.8-5.2,3.8-9
				c0-6.1-2.6-11.1-10.6-11.1c-0.7,0-2,0.1-2.4,0.3c-0.2,0.1-0.4,0.3-0.4,0.9c-0.1,1.6-0.2,6.6-0.2,15.8c0,4.4-0.2,12,0,17.3
				c0.1,3.7,0.6,4,2.5,4.4c0.9,0.2,2,0.3,2.8,0.5c0.2,0.1,0.2,0.9,0.1,1c-1.5,0-5.1-0.2-7.3-0.2c-2.7,0-6,0.2-7,0.2
				c-0.2-0.1-0.2-0.9-0.1-1c1.2-0.1,2.1-0.3,2.9-0.5c1.3-0.4,2-0.3,2.1-4.1c0.1-2,0.2-5.7,0.2-15.6c0-4.1,0.1-13.1-0.1-15
				c-0.1-2.3-0.4-3.4-1.9-3.8c-0.8-0.2-1.8-0.4-3-0.5c-0.1-0.2,0.1-0.9,0.2-1c1,0,3.8,0.2,6.6,0.2c2.9,0,4.9-0.1,8.3-0.1
				c2.1,0,5.6,0.5,7.8,2.5c1.9,1.7,3.5,4.3,3.6,8.5c0.1,6.2-3.1,9.9-6.3,11.7c-1.9,0.9-3.6,1.4-5.8,1.4c-0.9,0-2-0.1-2.7-0.3
				C356.1,45.2,355.8,44.6,355.8,44.4z"/>
			<path d="M373.1,29.2c1.1,0,3.1,0.2,6.1,0.2c2.7,0,4.8-0.2,5.7-0.2c0.2,0.1,0.2,0.8,0,0.8c-1.1,0.2-1.6,0.2-2.3,0.4
				c-1.3,0.3-1.4,1-1.4,2.4c-0.1,1.8-0.1,8.2-0.1,12.7c-0.1,4.8,0,11.2,0.1,14.1c0.1,0.9,0.5,1.4,0.9,1.6c1.1,0.5,7.7,0.5,9.9,0.4
				c1.2-0.1,2.1-0.6,3-1.8c0.8-0.9,2.1-3.1,3.1-5.6c0.2-0.1,0.8,0.1,0.8,0.3c-0.4,2.1-1.7,6.6-2.5,8c-0.3,0.3-0.8,0.7-1.7,0.7
				c-2.8,0-13.3-0.2-15.7-0.2c-2.2,0-5.5,0.2-6.4,0.2c-0.1-0.1-0.1-0.7,0-0.8c1.2-0.2,2.1-0.2,2.9-0.4c1.1-0.3,1.8-0.7,1.9-2.5
				c0.1-1.5,0.2-2.6,0.2-15.3c0-5.7,0-8.9-0.1-10.1c-0.1-2.7-0.2-3.3-1.9-3.7c-0.7-0.2-2.1-0.3-2.7-0.4
				C372.9,30,372.9,29.3,373.1,29.2z"/>
			<path d="M402.6,57.3c3.3-7.9,8.3-22,9.5-25.2c0.4-1.1,0.7-2,0.8-2.7c0.1,0,0.5,0.1,1.3,0.1c0.8,0,1.2-0.1,1.3-0.1
				c0.1,0.5,0.3,1.4,0.7,2.4c1,2.7,7.3,22.7,9,26.7c1.4,3.2,1.6,3.4,5.3,3.8c0.1,0.2,0.1,0.7-0.1,0.8c-1.4-0.1-4.5-0.2-5.7-0.2
				c-1.3,0-4.9,0.1-6.1,0.2c-0.1-0.1-0.1-0.7,0-0.8c1.1-0.2,2-0.3,2.7-0.5c0.9-0.4,0.9-0.8,0.7-1.5C421.1,57.8,419,52,418,49
				c0,0-0.3-0.3-0.4-0.3c-0.5-0.1-1.7-0.1-5.1-0.1c-3.7,0-3.9,0-4.5,0.1c-0.2,0-0.4,0.2-0.4,0.4c-1.1,2.8-3.3,8.9-3.6,10.5
				c-0.2,1-0.2,1.9,1.6,2.3c0.7,0.2,1.1,0.3,2.3,0.4c0.1,0.1,0.1,0.7-0.1,0.8c-1,0-3.8-0.2-6.2-0.2c-2.7,0-4.3,0.2-5.1,0.2
				c-0.2-0.1-0.2-0.7,0-0.8C400.3,61.8,400.9,61.3,402.6,57.3z M413,33.6c-0.9,2.3-3.6,10.5-4.4,12.9c0,0.2,0.1,0.3,0.2,0.4
				c0.5,0.1,1.9,0.1,4.8,0.1c1.2,0,3.3,0,3.6-0.1c0.1,0,0.2-0.2,0.1-0.4c-1.3-4.2-3.3-10.5-4.1-12.9C413.1,33.6,413,33.6,413,33.6z"
				/>
			<path d="M429.8,29.2c1,0,3.8,0.2,6.3,0.2c2.3,0,3.9-0.2,5.3-0.2c0.1,0.2,0.2,0.7,0.1,0.8c-0.8,0.1-1.8,0.2-2.2,0.3
				c-1.2,0.3-1.4,1.2-1.5,2.8c-0.1,2.3-0.2,7.8-0.2,12.5c0,5.1,0.1,11.2,0.1,13c0.1,1.7,0.3,2.6,1.6,3c0.8,0.2,1.8,0.4,2.8,0.5
				c0.2,0.2,0.1,0.7-0.1,0.8c-1.1,0-3.1-0.2-5.5-0.2c-2.7,0-3.8,0.2-6.6,0.2c-0.2-0.2-0.1-0.7,0-0.8c0.8-0.1,1.8-0.2,2.5-0.4
				c1.4-0.3,1.6-1.1,1.7-2.4c0.1-1.3,0.2-10.8,0.2-15.3c0-4.1,0-8.4-0.1-10.9c-0.2-1.3-0.1-2.5-1.4-2.8c-0.6-0.2-1.6-0.3-3-0.5
				C429.6,29.9,429.7,29.3,429.8,29.2z"/>
			<path d="M443.4,29.2c0.8,0,3.3,0.2,5,0.2c1.1,0,1.8,0,2.3-0.1c0.2,0.3,0.7,1.1,2.1,3c6.3,7.8,19.3,23.5,21.3,25.7
				c0.1-0.1,0.1-0.1,0.2-0.1c0-7.4,0.1-20.5-0.2-24.4c-0.1-1.5-0.3-2.5-1.9-3c-0.9-0.3-2.1-0.4-3.3-0.5c-0.2-0.1-0.1-0.7,0.1-0.8
				c1.4,0,3.7,0.2,6.2,0.2c1.5,0,4.4-0.2,5-0.2c0.1,0.1,0.1,0.7,0,0.8c-1,0.2-1.4,0.2-2.1,0.4c-1.4,0.4-1.7,1.5-1.8,2.8
				c-0.3,4.1-0.2,15.4-0.3,22.7c0,2.5,0.1,5.5,0.1,7.2c-0.5-0.1-2.2-0.1-2.7,0c-2.7-4.1-20.1-25.2-22.6-28.2c-0.1-0.1-0.2,0-0.2,0.1
				c-0.1,5.4-0.1,19.9,0.1,23.1c0.1,2.7,0.9,3.3,2.1,3.7c0.8,0.3,1.9,0.4,2.9,0.5c0.2,0.1,0.1,0.8-0.1,0.8c-1,0-3.4-0.2-6.2-0.2
				c-2.5,0-4.2,0.2-5.3,0.2c-0.1-0.1-0.1-0.8,0-0.8c1-0.1,1.5-0.2,2.2-0.4c1.3-0.3,2.1-0.9,2.2-3.8c0.1-2.5,0.3-12.6,0.4-24.1
				c0-0.5-0.3-1.5-1-2.3c-1.1-1.3-2.4-1.4-4.7-1.7C443.3,29.9,443.3,29.3,443.4,29.2z"/>
			<path d="M486.4,61.2c1.4,1,3.1,1.4,5.5,1.4c3.4,0,6.3-2.1,6.3-6.5c0-3.9-2.6-5.9-7.4-8.9c-4.1-2.5-7.5-5.4-7.5-10
				c0-5.5,4.4-8.9,10.1-8.9c3.2,0,5.3,0.6,7.4,0.8c-0.3,1.8-0.7,4.3-0.9,6.9c-0.1,0.2-0.8,0.2-0.9,0.1c-0.2-3.8-0.8-5-2.1-5.7
				c-1.1-0.7-2.4-0.9-4.2-0.9c-4.1,0-6.2,2.9-6.2,6.1c-0.1,3.2,1.6,5.1,3.7,6.7c2.1,1.5,4.7,2.8,6.2,3.8c2.4,1.6,5.3,3.8,5.3,8
				c0,5.3-4.3,9.7-11.3,9.7c-3,0-6.1-0.9-7.2-1.6c-0.5-0.8-1.1-5.8-1.2-7.4c0.1-0.2,0.8-0.3,0.9-0.2C483.6,58,484.7,60.1,486.4,61.2
				z"/>
		</g>
		<g>
			<g>
				<path class="st2" d="M241.3,100.5c-0.6-0.6-1.6-1.4-2.6-1.8c-1-0.5-2.2-0.8-3.4-0.8c-4.5,0-7.9,3.7-7.9,8.2c0,5.3,4.3,8,7.9,8
					c1.3,0,2.6-0.4,3.7-0.9c1.1-0.6,1.9-1.3,2.3-1.6v2.7c-2.2,1.6-4.4,1.9-5.9,1.9c-5.8,0-10.2-4.4-10.2-10.1
					c0-5.9,4.4-10.2,10.3-10.2c1.2,0,3.4,0.1,5.8,1.9V100.5z"/>
				<path class="st2" d="M271.8,110.3h-8.4l-2.4,5.5h-2.4l9-20.6l8.8,20.6h-2.4L271.8,110.3z M271,108.3l-3.3-7.9l-3.4,7.9H271z"/>
				<path class="st2" d="M303.4,100.1c-0.3-0.5-0.7-1.1-1.1-1.5c-0.4-0.3-1.1-0.7-2.2-0.7c-1.9,0-3.3,1.2-3.3,3
					c0,0.8,0.2,1.2,0.7,1.7c0.6,0.6,1.3,0.9,2.1,1.2l1.9,0.8c1.1,0.5,2.2,1,3,1.9c1,1,1.4,2.2,1.4,3.6c0,3.6-2.7,6-6.2,6
					c-1.3,0-2.9-0.3-4.3-1.6c-1-0.9-1.6-2.3-1.8-3.5l2.1-0.6c0.1,1,0.6,1.9,1.2,2.5c0.9,0.9,1.8,1.1,2.8,1.1c2.7,0,3.9-1.9,3.9-3.9
					c0-0.9-0.3-1.6-1-2.3c-0.6-0.5-1.3-0.9-2.4-1.4l-1.8-0.8c-0.8-0.4-1.7-0.8-2.6-1.6c-0.9-0.8-1.4-1.7-1.4-3.2
					c0-3,2.3-5.1,5.5-5.1c1.2,0,2.2,0.2,3.2,0.9c0.8,0.5,1.5,1.3,1.9,2.2L303.4,100.1z"/>
				<path class="st2" d="M327.7,108.3c0,1.6,0,3.4,1.6,4.8c0.8,0.7,2.2,1.1,3.2,1.1c1.1,0,2.4-0.4,3.2-1.1c1.6-1.3,1.6-3.1,1.6-4.8
					V96.2h2.2v12.6c0,1.7-0.2,3.2-1.2,4.7c-1.2,1.6-3.2,2.7-5.7,2.7c-2.5,0-4.6-1-5.7-2.7c-1.1-1.5-1.2-3.1-1.2-4.7V96.2h2.2V108.3z
					"/>
				<path class="st2" d="M371,110.3h-8.4l-2.4,5.5h-2.4l9-20.6l8.8,20.6h-2.4L371,110.3z M370.1,108.3l-3.3-7.9l-3.4,7.9H370.1z"/>
				<path class="st2" d="M396.3,96.2v17.6h5.4v2.1h-7.6V96.2H396.3z"/>
				<path class="st2" d="M424.6,98.3v17.6h-2.2V98.3h-4.8v-2.1h11.7v2.1H424.6z"/>
				<path class="st2" d="M452.7,107.4l-6.5-11.2h2.5l5,8.8l5.1-8.8h2.5l-6.5,11.2v8.5h-2.2V107.4z"/>
			</g>
			<rect x="181.5" y="78.9" class="st2" width="318.9" height="1"/>
		</g>
	</g>
</g>
</svg>
