<?xml version="1.0" encoding="utf-8"?>
<!-- Generator: Adobe Illustrator 27.6.1, SVG Export Plug-In . SVG Version: 6.00 Build 0)  -->
<svg version="1.1" id="Layer_1" xmlns="http://www.w3.org/2000/svg" xmlns:xlink="http://www.w3.org/1999/xlink" x="0px" y="0px"
	 viewBox="0 0 222 165.4" style="enable-background:new 0 0 222 165.4;" xml:space="preserve">
<style type="text/css">
	.st0{fill:#1A1717;}
	.st1{fill:#FFFFFF;}
	.st2{fill:#040505;}
	.st3{fill:#AA9D80;}
	.st4{fill:#C8BFAA;}
</style>
<g id="Group_87" transform="translate(-609.44 -4126.646)">
	<g id="Group_89" transform="translate(0 6)">
		<g id="Group_82" transform="translate(609.44 4120.646)">
			<path id="Path_11514" class="st0" d="M69.9,10.2h83.5v71.9H69.9V10.2z M60.1,91.9h103.2V0.3H60.1V91.9z"/>
			<rect id="Rectangle_81" x="65" y="5.2" class="st1" width="93.3" height="81.7"/>
			<path id="Path_11515" class="st1" d="M65,5.2h93.3V87H65V5.2z M158.3,1H60.8v90.2h101.8V1H158.3z"/>
			<rect id="Rectangle_82" x="65" y="5.2" class="st2" width="44.2" height="81.7"/>
			<path id="Path_11755" class="st3" d="M113.1,5.2h45.1V87h-45.1V5.2z"/>
			<g id="Group_81" transform="translate(0 0)">
				<g>
					<g id="Group_80">
						<path id="Path_11516" class="st1" d="M138.1,76.7c0,0.3-0.2,0.7-0.5,0.8c-3.8,1.4-7.6,2.5-11.5,3.4c-5.2,1-10.5,1.6-15.7,1.6
							c-6.9,0.1-13.7-1.4-20-4.4c-5.6-2.7-10.3-7-13.5-12.3c-3.4-5.6-5.2-12.1-5.2-18.7c0-6.3,0.9-12,3.2-16.4
							c2.3-4.4,4.2-7.5,8.9-11.2c3.5-2.8,4-3.5,10.2-6.3c5.1-2.3,11.6-3.3,19.3-3.3c3.5,0,17.3,0.5,24.6,5c0.3,0.2,0.4,0.5,0.3,0.8
							c-0.4,1.4-0.7,2.9-1,4.3c-0.2,1.5-0.6,4-0.9,8.5c0,0.4-0.4,0.7-0.7,0.7H134c-0.4,0-0.7-0.3-0.7-0.7l-0.2-4.2
							c0-0.8-0.1-1.5-0.1-2c-0.1-0.7-0.3-1.3-0.6-1.9c0-0.1-0.1-0.1-0.1-0.2c-1.1-1.3-2.5-2.4-4.1-3.1c0,0-0.1,0-0.1,0
							c-2.6-1.1-5.4-1.9-8.1-2.5c-2.5-0.5-5.1-0.7-7.7-0.6c-5.6-0.1-11.1,1.2-16,3.9c-4.5,2.6-8.1,6.5-10.2,11.3
							c-2.3,5-3.5,10.5-3.5,16c-0.1,6,1.3,11.9,4.1,17.2c2.5,4.8,6.2,8.9,10.9,11.7c4.8,2.8,10.3,4.2,15.9,4.1
							c2.8,0,5.6-0.3,8.3-0.8c2.2-0.4,4.4-1.1,6.4-2.1c0.2-0.1,0.4-0.3,0.4-0.5c0.3-1.9,0.4-3.9,0.4-5.9v-5.4c0-2.8-0.1-4.5-0.4-5
							c-0.3-0.5-1.1-0.8-2.4-1.1c-2.7-0.3-5.4-0.5-8.1-0.5c-0.4,0-0.7-0.3-0.7-0.7v-1.5c0-0.4,0.3-0.8,0.8-0.8c0,0,0,0,0,0l14.4,0.3
							c2.7,0,5.5-0.1,8.3-0.3c0.4,0,0.7,0.3,0.8,0.6l0.1,1.1c0,0.3-0.1,0.6-0.4,0.7l-2.9,1.7c-0.2,0.1-0.3,0.3-0.4,0.6
							c-0.3,3-0.5,6.1-0.5,9.2C137.6,70.8,137.8,73.7,138.1,76.7"/>
						<path id="Path_11517" class="st1" d="M22.6,129.2c-2.7,0.9-5.5,1.5-8.4,1.6c-9,0-13.7-5-13.7-14c0-5.6,2.6-10,6.8-12.1
							c2.3-1.1,4.9-1.7,7.5-1.6c3.1,0,5.3,0.7,7.6,0.9c-0.4,2.2-0.6,4.5-0.7,6.8c-0.4,0.2-0.8,0.3-1.3,0.1c-0.3-3.2-0.8-4.4-1.9-5.1
							c-1.6-0.9-3.4-1.3-5.2-1.2c-6,0-8.9,4.7-8.9,11.7c0,7.3,3.5,13,10.5,13c0.9,0.1,1.8-0.1,2.6-0.6c0.5-0.4,0.8-1.1,0.8-1.8
							c0.1-1.4,0.1-2.9,0.1-4.3c-0.1-1.4-0.3-1.9-1.4-2.3c-0.7-0.2-1.4-0.3-2.6-0.4c-0.2-0.1-0.1-1.1,0-1.2c1.2,0,3,0.1,5.4,0.1
							c2.3,0,3.4-0.1,4.2-0.1c0.1,0.4,0.1,0.9,0,1.3c-0.4,0.1-0.9,0.2-1.3,0.3c-0.7,0.3-0.9,0.8-1,2c0,1.3-0.1,3.9,0,4.7
							c0,0.6,0.1,0.8,1,1.2C22.7,128.6,22.7,128.9,22.6,129.2"/>
						<path id="Path_11518" class="st1" d="M25.4,108.6c0.8,0,2.9,0.1,4,0.1c2.5,0,4.3-0.1,5.7-0.1c4,0,6.2,2.4,6.2,5.3
							c0,2.5-1.6,4.7-3.9,5.6c-0.1,0.1-0.1,0.2-0.1,0.2c1.7,2.6,3.5,5.1,5.6,7.5c1.4,1.5,1.9,1.6,4,1.9c0.1,0.1,0,0.9-0.2,1
							c-1.5,0.1-4.2,0-5.5-0.7c-0.7-0.3-1.2-0.8-1.6-1.4c-1.3-1.6-3.4-5-4.7-6.9c-0.2-0.3-0.5-0.5-0.9-0.5c-0.5-0.1-2,0-2.4,0
							c-0.1,0-0.1,0.2-0.1,0.2c0,1.9,0,5.1,0.1,6.3c0.1,1.2,0.3,1.5,1.1,1.7c0.5,0.1,1.1,0.2,1.9,0.3c0.2,0.1,0.1,0.9-0.1,1
							c-0.7,0-2.3-0.1-4.6-0.1c-2.2,0-3.7,0.1-4.4,0.1c-0.2-0.3-0.2-0.7,0-1c0.8-0.1,1.3-0.2,1.8-0.3c0.8-0.2,1.1-0.6,1.2-1.9
							c0-0.8,0.1-5.5,0.1-7.4c0-3.5,0-7,0-8.1c0-1-0.3-1.4-1.1-1.6c-0.5-0.1-1.2-0.2-1.9-0.3C25.2,109.2,25.2,108.9,25.4,108.6
							 M31.6,110c-0.1,0.1-0.2,0.3-0.2,0.5c-0.1,1.2-0.1,5.9-0.1,8.6c0,0.1,0.1,0.2,0.2,0.2c1.5,0.2,3,0.1,4.4-0.3
							c1.5-0.8,2.4-2.4,2.2-4c0-3.3-1.7-5.2-5.3-5.2C32.4,109.8,32,109.9,31.6,110"/>
						<path id="Path_11519" class="st1" d="M46.5,108.6c0.9,0,2.6,0.1,4.6,0.1h6.8c1.3,0,3.1,0,3.8-0.1c0,0,0.1,0.1,0.1,0.2
							c-0.3,1.6-0.5,3.2-0.6,4.7c-0.3,0.2-0.7,0.2-1.1,0.1c-0.1-0.7-0.2-1.4-0.4-2.1c-0.2-0.8-0.9-1.4-1.7-1.3c-0.7,0-4.8,0-5.3,0
							c-0.2,0.1-0.4,0.5-0.4,0.7c0,1.9,0,5.8,0,7.3c0,0.1,0.1,0.2,0.2,0.2c1.4,0,4,0,5.3-0.1c0.6,0,1.1-0.5,1.2-1
							c0.2-0.5,0.3-0.9,0.4-1.4c0.4-0.1,0.8-0.1,1.1,0.1c-0.2,1.1-0.2,2.2-0.2,3.3c0,1.3,0,2.3,0.1,3.2c-0.4,0.2-0.8,0.2-1.2,0
							c0-0.5-0.1-1-0.3-1.4c-0.1-0.6-0.6-1-1.2-1c-1-0.1-3.9-0.1-5.2-0.1c-0.1,0-0.2,0.2-0.2,0.3c0,1.6,0,5.3,0.1,6.9
							c0,0.6,0.3,1.1,0.8,1.3c1.7,0.2,3.4,0.2,5.1,0.2c1,0.1,2-0.3,2.5-1.1c0.7-0.9,1.3-2,1.7-3c0.4,0,0.7,0.2,1,0.4
							c-0.3,1.6-0.8,3.2-1.4,4.7c-0.2,0.4-0.4,0.6-2.1,0.6c-2.9,0-5.4-0.1-8.9-0.1c-2.3,0-4,0.1-5.4,0.1c-0.1-0.3-0.2-0.7,0-1
							c0.9-0.1,1.8-0.2,2.6-0.3c0.8-0.2,1.1-0.7,1.2-1.9c0-0.7,0-4.5,0-8.4c0-3.2,0-6.2,0-6.9c-0.1-1.2-0.2-1.6-1-1.8
							c-0.6-0.2-1.2-0.3-1.8-0.3C46.3,109.4,46.4,108.7,46.5,108.6"/>
						<path id="Path_11520" class="st1" d="M67,125.9c1.8-4.2,5-13,5.7-15.2c0.3-0.6,0.5-1.3,0.6-2c0.1,0,0.5,0,1.1,0
							c0.7,0,1,0,1.1,0c0.1,0.5,0.3,1.1,0.5,1.8c0.7,2,4.5,13,5.7,15.8c1,2.3,1.2,2.5,3.7,2.8c0.1,0.1,0,0.9-0.1,1
							c-0.9,0-2.6-0.1-4.2-0.1c-1.7,0-3.8,0.1-4.5,0.1c-0.1-0.3-0.1-0.7,0-1c0.6-0.1,1.3-0.2,1.9-0.4c0.3-0.1,0.5-0.5,0.4-0.8
							c0,0,0,0,0,0c-0.4-1.5-1.4-4.4-2.1-6c-0.1-0.1-0.2-0.2-0.3-0.2c-0.5,0-1.7,0-3.2,0c-2.2,0-2.4,0-2.9,0c-0.1,0-0.3,0.2-0.3,0.3
							c-0.7,1.8-1.4,3.7-1.9,5.6c0,0.6,0,1,1.1,1.2c0.5,0.1,1.1,0.2,1.7,0.3c0.1,0.3,0.1,0.7-0.1,1c-0.7,0-2.5-0.1-4.4-0.1
							c-2,0-3,0.1-3.7,0.1c-0.1-0.3-0.1-0.7,0-1C65.5,128.8,65.9,128.6,67,125.9 M73.6,112.3c-0.6,1.7-2,5.6-2.6,7.5
							c0,0.1,0,0.2,0.1,0.2c0.3,0,1.4,0,2.8,0c0.8,0,2,0,2.3,0c0.1,0,0.2-0.1,0.1-0.3c-0.7-2.1-2-6-2.5-7.5
							C73.7,112.3,73.6,112.2,73.6,112.3"/>
						<path id="Path_11521" class="st1" d="M99.6,130.1c-1,0-3-0.1-5.1-0.1c-2.5,0-4.3,0.1-5.2,0.1c-0.1-0.3-0.1-0.7,0-1
							c0.8-0.1,1.6-0.2,2.4-0.3c1.1-0.2,1.3-0.9,1.3-2.5c0.1-2.7,0.1-10.1,0.1-15.9c0-0.1-0.1-0.3-0.2-0.3c-0.6,0-3.1,0-4.4,0
							c-0.6,0-1.2,0.4-1.4,1c-0.5,1-1,2.1-1.3,3.2c-0.4,0-0.8-0.1-1.1-0.3c0.3-1.9,0.6-3.8,0.7-5.7c0-0.1,0.3-0.2,0.4-0.1
							c0.9,0.4,1.8,0.6,2.8,0.5h12.7c1.1,0.1,2.3-0.1,3.3-0.5c0.1,0,0.3,0.1,0.3,0.2c-0.4,1.9-0.7,3.9-0.8,5.9c-0.1,0.2-1,0.2-1.1,0
							c0-1-0.2-2.1-0.5-3.1c-0.2-0.6-0.7-1-1.3-1c-1.6,0-4,0-4.8,0c-0.1,0.1-0.2,0.2-0.2,0.3c0,5.1,0,14.7,0.1,16.5
							c0.1,1.2,0.4,1.6,1.2,1.8c0.8,0.2,1.5,0.3,2.3,0.4C99.8,129.3,99.7,130,99.6,130.1"/>
						<path id="Path_11522" class="st1" d="M121,118.4c0-0.1,0-0.3,0.2-0.4c0.5,0.1,1,0.1,1.5,0.1c0.9,0,1.9-0.2,2.7-0.6
							c1.8-1.1,2.3-3.1,2.3-5.5c0-3.9-1.8-6.8-6.1-6.8c-0.5,0-1.1,0.1-1.6,0.2c-0.2,0.2-0.3,0.4-0.3,0.6c0,1-0.1,3.2-0.1,10.1
							c0,4.8,0,8.1,0,10.2c0.1,1.5,0.3,1.9,1.4,2.2c0.8,0.2,1.5,0.3,2.3,0.4c0.1,0.4,0.1,0.8,0,1.2c-1.1,0-3.8-0.1-5.3-0.1
							c-1.8,0-4.1,0.1-5,0.1c-0.1-0.4-0.2-0.8,0-1.2c0.8-0.1,1.6-0.2,2-0.3c0.9-0.3,1.1-0.8,1.2-2.5c0.1-1.4,0.1-4.9,0.1-9.5
							c0-4.9,0-7.8,0-9.1c-0.1-1.5-0.3-2-1.4-2.2c-0.6-0.2-1.2-0.3-1.9-0.3c-0.1-0.4-0.1-0.8,0.1-1.2c0.6,0,2.7,0.1,4.5,0.1
							c2.3,0,3.9-0.1,6.2-0.1c1.8-0.1,3.6,0.5,5.1,1.6c1.6,1.5,2.5,3.6,2.4,5.7c0.2,4.5-3.2,8.2-7.7,8.4c-0.1,0-0.3,0-0.4,0
							c-0.6,0-1.1,0-1.7-0.2C121.2,119.1,121.1,118.8,121,118.4"/>
						<path id="Path_11523" class="st1" d="M133,108.6c1,0,2.1,0.1,4.4,0.1c2.3,0,3.6-0.1,4.3-0.1c0.2,0.3,0.2,0.7,0,1
							c-0.6,0.1-1.2,0.2-1.8,0.3c-0.8,0.2-0.9,0.7-0.9,1.4c-0.1,1.2-0.1,4.2-0.1,7.5c0,4.3,0,7.2,0.1,8.7c0,0.4,0.3,0.8,0.7,1
							c1.9,0.3,3.8,0.4,5.7,0.3c0.9,0,1.6-0.5,2-1.3c0.8-1.2,1.5-2.5,2-3.8c0.4,0,0.8,0.1,1,0.4c-0.4,2-1,3.9-1.8,5.8
							c-0.1,0.3-0.5,0.4-1.4,0.4c-2.2,0-8.1-0.2-9.9-0.2c-1.6,0-4.2,0.1-4.9,0.1c-0.1-0.1-0.2-0.9,0-1c0.8-0.1,1.5-0.2,2.3-0.3
							c0.8-0.2,1-0.6,1.1-1.4c0.1-0.9,0.1-4.3,0.1-8.8c0-3.7,0-5.7-0.1-6.7c0-1.4-0.2-1.8-1.1-2c-0.6-0.1-1.3-0.2-1.9-0.3
							C132.8,109.2,132.8,108.9,133,108.6"/>
						<path id="Path_11524" class="st1" d="M153.4,125.9c1.8-4.2,5-13,5.7-15.2c0.3-0.6,0.5-1.3,0.6-2c0.1,0,0.6,0,1.1,0
							c0.7,0,1,0,1.1,0c0.1,0.5,0.3,1.1,0.6,1.8c0.7,2,4.5,13,5.7,15.8c1,2.3,1.2,2.5,3.7,2.8c0.1,0.1,0,0.9-0.1,1
							c-0.9,0-2.6-0.1-4.2-0.1c-1.7,0-3.8,0.1-4.5,0.1c-0.1-0.3-0.1-0.7,0-1c0.6-0.1,1.3-0.2,1.9-0.4c0.3-0.1,0.5-0.5,0.4-0.8
							c0,0,0,0,0,0c-0.4-1.5-1.4-4.4-2.1-6c-0.1-0.1-0.2-0.2-0.3-0.2c-0.5,0-1.7,0-3.2,0c-2.2,0-2.4,0-2.9,0c-0.1,0-0.3,0.2-0.3,0.3
							c-0.7,1.8-1.4,3.7-1.9,5.6c0,0.6,0,1,1.1,1.2c0.5,0.1,1.1,0.2,1.7,0.3c0.1,0.3,0.1,0.7-0.1,1c-0.7,0-2.5-0.1-4.4-0.1
							c-2,0-3,0.1-3.7,0.1c-0.1-0.3-0.1-0.7,0-1C151.8,128.8,152.2,128.5,153.4,125.9 M160,112.3c-0.6,1.7-2,5.6-2.6,7.5
							c0,0.1,0,0.2,0.1,0.2c0.3,0,1.4,0,2.8,0c0.8,0,2,0,2.3,0c0.1,0,0.2-0.1,0.1-0.3c-0.7-2.1-2-6-2.5-7.5
							C160.1,112.3,160,112.2,160,112.3"/>
						<path id="Path_11525" class="st1" d="M172.1,108.6c0.7,0,2.7,0.1,4.5,0.1c1.8,0,3.4-0.1,4.3-0.1c0.1,0.3,0.1,0.7,0,1
							c-0.8,0.1-1.3,0.2-1.8,0.3c-0.8,0.2-0.9,0.7-1,1.7c-0.1,1.5-0.1,4.4-0.1,7.4c0,3.4,0,6.8,0.1,8c0,1,0.2,1.6,1.2,1.8
							c0.7,0.2,1.3,0.3,2,0.3c0.1,0.3,0.1,0.7-0.1,1c-0.8,0-2.8-0.1-4.4-0.1c-2,0-3.7,0.1-4.8,0.1c-0.2-0.1-0.2-0.9,0-1
							c0.6,0,1.2-0.1,1.8-0.3c1-0.2,1.1-0.7,1.2-1.5c0.1-1,0.1-4.5,0.1-9.1c0-2.8,0-5.1-0.1-6.7c-0.1-0.9-0.1-1.4-0.9-1.6
							c-0.7-0.2-1.4-0.3-2.1-0.4C172,109.2,172,108.9,172.1,108.6"/>
						<path id="Path_11526" class="st1" d="M182.6,108.6c0.9,0,2.6,0.1,4.3,0.1c0.7,0,1.3,0,1.5,0c0.3,0.7,0.7,1.3,1.2,1.9
							c3.5,4.4,10.6,13.1,12.2,15c0.1,0,0.1,0,0.1,0c0-4.7,0-11.2-0.1-13.7c-0.1-1-0.3-1.6-1.3-1.8c-0.8-0.2-1.5-0.3-2.3-0.4
							c-0.1-0.3-0.1-0.7,0-1c0.9,0,2.5,0.1,4.6,0.1c1.2,0,3.2-0.1,3.6-0.1c0.1,0.3,0.1,0.7,0,1c-0.5,0.1-1,0.2-1.5,0.3
							c-0.9,0.3-1.1,0.9-1.2,1.9c-0.2,2.7-0.2,7.1-0.3,13.7c0,1.6,0,3.6,0.1,4.7c-0.4,0-2,0-2.4,0c-1.8-2.6-11.3-14.5-13.3-17.1
							c0,0-0.1,0-0.1,0c-0.1,3.6-0.1,11.7,0,13.6c0.1,1.4,0.5,1.9,1.4,2.1c0.7,0.2,1.4,0.3,2.1,0.3c0.1,0.1,0,0.9-0.1,1
							c-0.8,0-2.4-0.1-4.3-0.1c-2.1,0-3.4,0.1-4.1,0.1c-0.1-0.3-0.1-0.7,0-1c0.6,0,1.2-0.2,1.8-0.3c0.8-0.2,1.2-0.7,1.3-2
							c0.1-1.8,0.2-7.4,0.3-14.7c0-0.7-0.3-1.4-0.9-1.7c-0.8-0.5-1.8-0.8-2.8-0.8C182.4,109.2,182.4,108.9,182.6,108.6"/>
						<path id="Path_11527" class="st1" d="M211.6,128.4c1,0.7,2.2,1,3.4,0.9c1.9,0.1,3.6-1.3,3.7-3.2c0-0.1,0-0.3,0-0.4
							c0-2.3-1.4-3.4-4.5-5.2c-3.1-1.8-5.1-3.5-5.1-6.6c0-3.7,3-5.9,6.8-5.9c1.8,0.1,3.5,0.3,5.2,0.6c-0.3,1.6-0.5,3.2-0.6,4.8
							c-0.1,0.2-0.9,0.2-1,0c-0.2-2-0.5-3-1.3-3.6c-0.8-0.5-1.8-0.8-2.8-0.7c-1.9-0.1-3.6,1.5-3.6,3.4c0,0,0,0.1,0,0.1
							c0,1.9,0.9,2.9,2.3,4c1.4,0.9,3.1,1.7,4.3,2.4c1.8,1.1,3.3,2.6,3.3,5.1c0,3.4-2.8,6.4-7.6,6.4c-1.7,0-3.4-0.4-5-1.1
							c-0.5-1.7-0.8-3.4-1-5.2c0.1-0.2,0.9-0.4,1.1-0.3C209.7,126.2,210.4,127.6,211.6,128.4"/>
						<path id="Path_11528" class="st4" d="M40.3,153.1c-0.5-0.5-1.1-0.9-1.8-1.3c-0.7-0.3-1.5-0.5-2.3-0.5c-3.1,0-5.6,2.5-5.6,5.6
							s2.5,5.6,5.6,5.6l0,0c0.9,0,1.7-0.2,2.5-0.6c0.6-0.3,1.1-0.7,1.6-1.1v1.9c-1.2,0.9-2.6,1.3-4.1,1.3c-3.9,0-7-3.2-7-7.1
							s3.2-7,7.1-7c1.5,0,2.9,0.4,4,1.3V153.1z"/>
						<path id="Path_11529" class="st4" d="M61.4,159.9h-5.8l-1.6,3.8h-1.7l6.3-14.2l6.1,14.2h-1.7L61.4,159.9z M60.8,158.5
							l-2.3-5.4l-2.3,5.4H60.8z"/>
						<path id="Path_11530" class="st4" d="M83.2,152.8c-0.2-0.4-0.5-0.7-0.8-1c-0.4-0.3-1-0.5-1.5-0.5c-1.1-0.1-2.2,0.7-2.3,1.9
							c0,0.1,0,0.1,0,0.2c0,0.5,0.2,0.9,0.5,1.2c0.4,0.4,0.9,0.7,1.4,0.9l1.3,0.6c0.8,0.3,1.5,0.7,2.1,1.3c0.7,0.6,1,1.5,1,2.5
							c-0.1,2.4-2.1,4.3-4.5,4.2c-1,0-2-0.4-2.7-1.1c-0.6-0.7-1.1-1.5-1.3-2.4l1.5-0.4c0.1,0.6,0.4,1.3,0.8,1.7
							c0.5,0.5,1.2,0.8,2,0.8c1.4,0.1,2.6-1,2.7-2.4c0-0.1,0-0.2,0-0.3c0-0.6-0.2-1.2-0.7-1.6c-0.5-0.4-1-0.7-1.6-0.9l-1.2-0.6
							c-0.7-0.3-1.3-0.6-1.8-1.1c-0.6-0.6-1-1.4-0.9-2.2c0-1.9,1.6-3.5,3.5-3.5c0.1,0,0.2,0,0.3,0c0.8,0,1.5,0.2,2.2,0.6
							c0.6,0.4,1,0.9,1.3,1.5L83.2,152.8z"/>
						<path id="Path_11531" class="st4" d="M100,158.5c-0.2,1.2,0.2,2.4,1.1,3.3c1.3,1,3.2,1,4.5,0c0.9-0.9,1.3-2.1,1.1-3.3v-8.3
							h1.5v8.7c0.1,1.2-0.2,2.3-0.9,3.3c-1.9,2.2-5.2,2.5-7.4,0.6c-0.2-0.2-0.4-0.4-0.6-0.6c-0.6-1-0.9-2.1-0.9-3.3v-8.7h1.5V158.5z
							"/>
						<path id="Path_11532" class="st4" d="M129.9,159.9h-5.8l-1.6,3.8h-1.7l6.3-14.2l6.1,14.2h-1.7L129.9,159.9z M129.3,158.5
							l-2.3-5.4l-2.3,5.4H129.3z"/>
						<path id="Path_11533" class="st4" d="M147.4,150.1v12.2h3.8v1.4h-5.3v-13.6H147.4z"/>
						<path id="Path_11534" class="st4" d="M167,151.6v12.2h-1.5v-12.2h-3.3v-1.4h8.1v1.4H167z"/>
						<path id="Path_11535" class="st4" d="M186.4,157.9l-4.5-7.7h1.8l3.5,6.1l3.5-6.1h1.8l-4.5,7.7v5.8h-1.5V157.9z"/>
						<rect id="Rectangle_84" x="0.5" y="139.6" class="st4" width="220.5" height="0.7"/>
					</g>
				</g>
			</g>
		</g>
	</g>
</g>
</svg>
