<?xml version="1.0" encoding="utf-8"?>
<!-- Generator: Adobe Illustrator 28.3.0, SVG Export Plug-In . SVG Version: 6.00 Build 0)  -->
<svg version="1.1" id="Layer_1" xmlns="http://www.w3.org/2000/svg" xmlns:xlink="http://www.w3.org/1999/xlink" x="0px" y="0px"
	 viewBox="0 0 132.4 40.5" style="enable-background:new 0 0 132.4 40.5;" xml:space="preserve">
<style type="text/css">
	.st0{fill:#FDEBB9;}
</style>
<path class="st0" d="M28.5,37.8C17.6,35.4,0.2,31,0.2,21.3C0.3,13.9,9.8,9,18.7,6.4c23.5-6.9,71.2-6.8,94.4,0.7
	c5.9,1.9,11.9,4.5,15.4,8.6c1.8,2.1,2.5,4.8,1.5,7.2c-1.4,3.5-5.5,6.1-9.6,8.1C108.2,36.4,93,38.4,78.8,39
	c-19.1,0.6-39.2-0.6-56-7.6c-0.9-0.4-0.2-1.4,0.8-1c13.8,5.6,29.9,7.2,45.5,7.2c15.6,0,31.7-1.6,45.7-6.6c4-1.5,7.9-3.4,10.6-6
	c3.9-3.8,2.3-7.8-2.1-11c-3.2-2.3-7.2-4-11.4-5.4C92.3,2.7,68.2,2.4,47,3.5C34,4.4,17.4,6.3,7.7,12.9C2,16.7-0.2,22.5,4.8,27.2
	c3.8,3.5,9.6,5.6,15.2,7.3c2.9,0.9,5.9,1.6,8.9,2.3C29.9,37,29.5,38,28.5,37.8C28.5,37.8,28.5,37.8,28.5,37.8z"/>
</svg>
