<?xml version="1.0" encoding="UTF-8"?><svg id="Layer_1" xmlns="http://www.w3.org/2000/svg" width=".76in" height="3.3in" viewBox="0 0 54.9 237.51"><circle cx="3.74" cy="3.74" r="3.74" fill="#e3e3e3" stroke-width="0"/><circle cx="3.74" cy="29.27" r="3.74" fill="#e3e3e3" stroke-width="0"/><circle cx="3.74" cy="54.81" r="3.74" fill="#e3e3e3" stroke-width="0"/><circle cx="3.74" cy="80.35" r="3.74" fill="#e3e3e3" stroke-width="0"/><circle cx="3.74" cy="105.89" r="3.74" fill="#e3e3e3" stroke-width="0"/><circle cx="27.45" cy="3.74" r="3.74" fill="#e3e3e3" stroke-width="0"/><circle cx="27.45" cy="29.27" r="3.74" fill="#e3e3e3" stroke-width="0"/><circle cx="27.45" cy="54.81" r="3.74" fill="#e3e3e3" stroke-width="0"/><circle cx="27.45" cy="80.35" r="3.74" fill="#e3e3e3" stroke-width="0"/><circle cx="27.45" cy="105.89" r="3.74" fill="#e3e3e3" stroke-width="0"/><path d="M51.16,7.47c2.06,0,3.74-1.68,3.74-3.74s-1.68-3.74-3.74-3.74-3.74,1.68-3.74,3.74,1.68,3.74,3.74,3.74Z" fill="#e3e3e3" stroke-width="0"/><path d="M51.16,25.54c-2.06,0-3.74,1.68-3.74,3.74s1.68,3.74,3.74,3.74,3.74-1.68,3.74-3.74-1.68-3.74-3.74-3.74Z" fill="#e3e3e3" stroke-width="0"/><path d="M51.16,51.08c-2.06,0-3.74,1.68-3.74,3.74s1.68,3.74,3.74,3.74,3.74-1.68,3.74-3.74-1.68-3.74-3.74-3.74Z" fill="#e3e3e3" stroke-width="0"/><path d="M51.16,76.61c-2.06,0-3.74,1.68-3.74,3.74s1.68,3.74,3.74,3.74,3.74-1.68,3.74-3.74-1.68-3.74-3.74-3.74Z" fill="#e3e3e3" stroke-width="0"/><path d="M51.16,102.15c-2.06,0-3.74,1.68-3.74,3.74s1.68,3.74,3.74,3.74,3.74-1.68,3.74-3.74-1.68-3.74-3.74-3.74Z" fill="#e3e3e3" stroke-width="0"/><path d="M3.74,127.89c-2.06,0-3.74,1.68-3.74,3.74s1.68,3.74,3.74,3.74,3.74-1.68,3.74-3.74-1.68-3.74-3.74-3.74Z" fill="#e3e3e3" stroke-width="0"/><path d="M3.74,153.43c-2.06,0-3.74,1.68-3.74,3.74s1.68,3.74,3.74,3.74,3.74-1.68,3.74-3.74-1.68-3.74-3.74-3.74Z" fill="#e3e3e3" stroke-width="0"/><path d="M3.74,178.97c-2.06,0-3.74,1.68-3.74,3.74s1.68,3.74,3.74,3.74,3.74-1.68,3.74-3.74-1.68-3.74-3.74-3.74Z" fill="#e3e3e3" stroke-width="0"/><path d="M3.74,204.5c-2.06,0-3.74,1.68-3.74,3.74s1.68,3.74,3.74,3.74,3.74-1.68,3.74-3.74-1.68-3.74-3.74-3.74Z" fill="#e3e3e3" stroke-width="0"/><path d="M3.74,230.04c-2.06,0-3.74,1.68-3.74,3.74s1.68,3.74,3.74,3.74,3.74-1.68,3.74-3.74-1.68-3.74-3.74-3.74Z" fill="#e3e3e3" stroke-width="0"/><path d="M27.45,127.89c-2.06,0-3.74,1.68-3.74,3.74s1.68,3.74,3.74,3.74,3.74-1.68,3.74-3.74-1.68-3.74-3.74-3.74Z" fill="#e3e3e3" stroke-width="0"/><path d="M27.45,153.43c-2.06,0-3.74,1.68-3.74,3.74s1.68,3.74,3.74,3.74,3.74-1.68,3.74-3.74-1.68-3.74-3.74-3.74Z" fill="#e3e3e3" stroke-width="0"/><path d="M27.45,178.97c-2.06,0-3.74,1.68-3.74,3.74s1.68,3.74,3.74,3.74,3.74-1.68,3.74-3.74-1.68-3.74-3.74-3.74Z" fill="#e3e3e3" stroke-width="0"/><path d="M27.45,204.5c-2.06,0-3.74,1.68-3.74,3.74s1.68,3.74,3.74,3.74,3.74-1.68,3.74-3.74-1.68-3.74-3.74-3.74Z" fill="#e3e3e3" stroke-width="0"/><path d="M27.45,230.04c-2.06,0-3.74,1.68-3.74,3.74s1.68,3.74,3.74,3.74,3.74-1.68,3.74-3.74-1.68-3.74-3.74-3.74Z" fill="#e3e3e3" stroke-width="0"/><path d="M51.16,127.89c-2.06,0-3.74,1.68-3.74,3.74s1.68,3.74,3.74,3.74,3.74-1.68,3.74-3.74-1.68-3.74-3.74-3.74Z" fill="#e3e3e3" stroke-width="0"/><path d="M51.16,153.43c-2.06,0-3.74,1.68-3.74,3.74s1.68,3.74,3.74,3.74,3.74-1.68,3.74-3.74-1.68-3.74-3.74-3.74Z" fill="#e3e3e3" stroke-width="0"/><path d="M51.16,178.97c-2.06,0-3.74,1.68-3.74,3.74s1.68,3.74,3.74,3.74,3.74-1.68,3.74-3.74-1.68-3.74-3.74-3.74Z" fill="#e3e3e3" stroke-width="0"/><path d="M51.16,204.5c-2.06,0-3.74,1.68-3.74,3.74s1.68,3.74,3.74,3.74,3.74-1.68,3.74-3.74-1.68-3.74-3.74-3.74Z" fill="#e3e3e3" stroke-width="0"/><path d="M51.16,230.04c-2.06,0-3.74,1.68-3.74,3.74s1.68,3.74,3.74,3.74,3.74-1.68,3.74-3.74-1.68-3.74-3.74-3.74Z" fill="#e3e3e3" stroke-width="0"/></svg>