<?xml version="1.0" encoding="utf-8"?>
<!-- Generator: Adobe Illustrator 28.2.0, SVG Export Plug-In . SVG Version: 6.00 Build 0)  -->
<svg version="1.1" id="Layer_1" xmlns="http://www.w3.org/2000/svg" xmlns:xlink="http://www.w3.org/1999/xlink" x="0px" y="0px"
	 viewBox="0 0 1528.6 410.1" style="enable-background:new 0 0 1528.6 410.1;" xml:space="preserve">
<style type="text/css">
	.st0{fill:#FFFFFF;}
	.st1{clip-path:url(#SVGID_00000078002817746422954450000017481873311491002034_);}
	.st2{fill:#FAFAF8;}
	.st3{clip-path:url(#SVGID_00000108285722896620026780000001763622091646949008_);}
</style>
<rect x="-23.3" y="-11.7" class="st0" width="1572.6" height="445.4"/>
<g id="Group_2432">
	<g>
		<defs>
			<rect id="SVGID_1_" x="-44.5" y="-158.8" width="1619.7" height="535"/>
		</defs>
		<clipPath id="SVGID_00000014591748813228433470000003576898912066833800_">
			<use xlink:href="#SVGID_1_"  style="overflow:visible;"/>
		</clipPath>
		
			<g id="Group_2327_00000078045001367444308820000007398750631427761029_" transform="translate(0 0)" style="clip-path:url(#SVGID_00000014591748813228433470000003576898912066833800_);">
			<path id="Path_13475_00000130604878695786616050000000004089563222550688_" class="st2" d="M-42.5,255.4
				C811.2-214.9,800.4,673.2,1575.2,266v-424.9H-44.5L-42.5,255.4z"/>
		</g>
	</g>
</g>
<g id="Group_2439" transform="matrix(0.809, -0.588, 0.588, 0.809, 1143.31, 252.183)">
	<g>
		<defs>
			
				<rect id="SVGID_00000169538882398325909570000011774522080674365585_" x="103.5" y="-102.5" transform="matrix(0.8089 -0.5879 0.5879 0.8089 -33.6367 187.3848)" width="335.8" height="496"/>
		</defs>
		<clipPath id="SVGID_00000013895270999413648370000009759199246220532156_">
			<use xlink:href="#SVGID_00000169538882398325909570000011774522080674365585_"  style="overflow:visible;"/>
		</clipPath>
		
			<g id="Group_2426" transform="translate(0 0)" style="clip-path:url(#SVGID_00000013895270999413648370000009759199246220532156_);">
			<path id="Path_13621" class="st0" d="M276.8,212.5l0.9-1.2h-2.3c-2.2,0.1-4.4,0.4-6.6,1c-6.3,1.6-11.3,4.8-28,18
				c-5.2,4.1-12.3,9.4-15.7,11.8c-1.3,0.9-2.8,2-4.5,3.2c-2.7,1.9-5.7,4.3-8,5.7c-14.5,8.7-26.7,17.1-37.2,18.3c-4,0.5-4.4-3.4-2-4
				c2.6-0.7,4.6-1.2,5.9-1.7c6.8-2.5,19.3-8.3,23.5-10.9c8.8-5.5,28-19.5,41-30c14.8-12,20.1-15.1,29.4-18l2.7-0.9l-3.1-1.5
				c-7.8-4-9.6-4.5-19.5-5c-6.8-0.4-13.5-0.2-20.3,0.5c-14.8,1.2-53.2,1-58.6,0.3c-17.4-2.1-24.7-6.1-28.9-8.9
				c-1.6-1.1-2.6-2.6-2.4-3.4c0.2-0.4,0.6-0.6,1-0.6c1.9,0.5,3.8,1.2,5.6,2.1c6.5,3.1,13.4,5.2,20.6,6.1c4.7,0.7,7.4,1.7,26.4,1.6
				c11.1-0.1,23-0.4,27.1-0.7c4.5-0.4,14.3-1,21.7-1.4c15.3-0.7,20.3-0.3,28.2,2.2l4.4,1.5l-0.4-9.3c-0.3-5.5-0.8-10.4-1.3-11.6
				c-1.4-3.5-12.8-13-22.2-18.5c-11.7-7.2-24.5-12.4-37.9-15.6c-9.8-2.6-19.4-5.9-28.7-9.9c-2.8-1.2-6.5-2.8-8.2-3.4
				c-6.3-2.6-12.3-5.8-18-9.6c-5-3.3-11.1-9-21.4-19.7c-5.1-5.3-5.6-7.5-5.2-8.1c1.1-1.8,2-3,14.2,11.3c6.9,8,15.4,15.1,29.3,21.8
				c7.5,3.7,34.1,13,48.3,16.8c10.3,3,20.4,7,30,11.8c10.6,5.5,14.9,7.9,17,9.4c0.5,0.4,1.1,0.7,1.7,1c0.4-1.5-1-14.2-1.4-18.4
				c-0.4-4.3-1.1-13.2-1.5-19.7c-0.9-14.6-3.6-40.5-5-47.7c-0.3-1.8-1-6.5-1.5-10.5c-2.5-20.5-5.1-35.2-10.8-60.7
				c-1.5-6.6-3-14.1-3-14.9c0-0.2-0.3-1.2-5.2-4.9c-9.6-7.2-18.1-15.9-25.1-25.6c-5.2-7.6-6-11.4-4.3-12.4c1.3-0.8,2.8,1.3,3.9,3.4
				c5.3,10,10.1,16.5,18.5,23.7c5.5,4.7,9.5,7.2,10.3,7.2h0.1c-0.3-2.3-0.7-4.5-1.3-6.7c-2.7-11-5.9-26.4-7.2-35
				c-4.4-28.9-5.2-33.2-7.4-37.7c-0.5-1.3-1.2-2.5-2-3.6c-0.5,0.7-0.9,1.4-1.2,2.2c-1.8,4.2-9.6,16.2-12.7,19.5
				c-6.5,6.4-13.6,12.1-21.1,17.2c-2.6,1.6-5.1,3.4-7.5,5.3c-2.5,2.3-2.6,5.5-0.7,14.4c3.5,16.6,11,30.2,24.2,43.9
				c8.1,8.5,9.8,11.6,7.4,14c-3,3-10.1,0.8-19.2-6c-13-9.5-24.5-24.9-30.8-41.1l-1.9-4.8l-5.3,4.7c-9.2,8.2-17.9,20-25.1,34.1
				c-4,8-4,9.4-0.3,17c3.1,6.3,6,10.3,14.5,20.7c6.6,7.9,23,23.7,33.6,32.5c2.6,2.1,7.7,6.8,11.1,10.1c6.9,6.8,9.3,10.7,8.1,13
				c-0.9,1.6-2.4,2.7-4.2,3.1c-6.4,1.4-17.9-3.4-30.2-12.6c-10.8-8.2-20.9-17.6-27.2-25.2c-4.6-5.5-18.5-22.4-20.7-22.4
				c-1.2,0-2.7,3.1-5.8,12.4c-1.4,4.3-2.8,8.6-3.1,9.4c-1,2.4-4.9,21-5.8,27.8c-2.3,17.3-0.2,24,11.7,35.8
				c13,13,27.1,19.5,48.7,22.4c5.4,0.7,14.9,3.8,22.1,7c7.3,3.4,14.2,10.7,16.1,17c0.2,0.8,0.1,1.7-0.4,2.4
				c-1.1,1.2-2.7,1.9-4.3,1.8c-3.2,0-5.3-0.8-17.4-6.5c-15.4-7.1-17.6-7.6-40.9-7.8c-17.4-0.2-19.5-0.3-22.9-1.5
				c-4.7-1.6-13.1-5.9-15.2-7.9l-1.3-1.2l-0.3,1.7c-0.2,1.2-0.3,7-0.3,13.6c0,10,0.2,12.1,1.5,17.6c3.9,16,9.3,24.2,19.3,29.2
				c5.2,2.7,17.8,6.3,29.8,8.7c14.4,2.8,18.5,4,25.7,7.8c6.3,3.2,10.5,7,10.5,9.3c0,2.1-2.8,3.8-7.8,4.7c-6.7,1.1-26,1-33.8-0.4
				c-6-0.9-9-1.7-25-6.4c-2-0.6-4-1.1-6.1-1.5c0.2,1.6,0.4,3.2,0.8,4.7c2.1,9.8,10.6,24.2,24.6,41.4c9.9,12.2,24.7,21.9,39.4,26
				c8.3,2.2,24.2,2.8,32.3,1.2c8.9-1.8,23.5-9.4,33.3-17.5c4.6-3.7,9.8-10.8,13.9-19.1c4.5-8.8,5.6-13.5,8.6-33.7
				C272.5,223.7,274.6,215.3,276.8,212.5 M251.5,129.6c-1.8,1.1-5,0.6-9.4-1.6c-5.4-2.5-10.9-6.6-13.8-10.3
				c-2.9-3.5-7.1-10.2-7.1-11.1c0-0.2,0.1-0.5,0.3-0.6c0.5-0.3,1.1-0.4,1.7-0.3c1.9,0,5.3,0.7,10.5,2.6c7.5,2.8,9.4,3.7,13.5,6.9
				c4.3,3.2,6,6.1,6,9.8C253.3,127.3,252.6,128.8,251.5,129.6 M229.9,35.3L229.9,35.3c1.2,0.5,2.3,1.2,3.3,1.9
				c8.5,5.8,13.3,11.6,14.2,17c0.4,1.8,0.2,2.2-0.7,2.7c-0.6,0.2-1.2,0.3-1.8,0.1c-3.3-1.1-8.2-6.9-12-14.3
				C232,41,229.4,36,229.9,35.3 M204.3,59.8c-13-8.7-21-16-19.9-19.2c0.5-1.3,2.6-2.1,7.1,2.6c12.9,13.5,25.3,22.6,54.1,33.8
				c6.8,2.6,12,4.4,12.2,6.3c0,0.7-0.5,1.4-1.2,1.6c-1,0.2-2.4-0.1-5.9-1.6c-3.2-1.4-4-1.9-9.3-4C220.4,71.1,213.7,66.1,204.3,59.8
				 M240.8,256.8c-0.2,3.7-8.5,14-15.2,18.7c-4.7,3.3-10.4,5.8-13.1,5.7c-1.8-0.1-1.8-0.1-2.1-2.1c-0.3-2.4-0.3-2.7,3.5-6.4
				c6.5-6.6,18-14.3,24.2-16.3l2.9-0.9L240.8,256.8z M289.2,237.1c1.6,51.1,1.4,93.2-0.7,112.6c-0.5,5.8-0.7,11.6-0.6,17.4
				c0.2,12.3-0.1,15.3-4.6,20c-2.5,2.6-7.7,6.4-10.5,6.4l-1.8-0.3l-0.8-1.2c-0.3-0.6-1-1.7,0.3-6.5c1.5-6.1,5.1-25.7,6.5-34.3
				c3.8-24.6,5.3-52.5,4.6-87.6c-0.3-14.3-0.7-28.6-1-32.5l-0.2-2.5c-0.2-2.4-0.4-4.6-0.4-6.9c0-1.6,1.2-3.4,4.4-3.4
				c3.3,0,4.4,1.8,4.4,3.4c0,4.4,0.1,7.7,0.3,12.3L289.2,237.1z M370.9,194.1c3.6-2,16.2-6.5,32.7-11.6c10.1-3.1,16.6-6.2,21.3-10.2
				c4.4-3.9,8-8.7,10.6-14c3.1-7.7,4.8-25.7,3.5-37.8c-1.4-13.3-2.2-15.6-2.6-15.8c-1.8,1.4-3.3,3-4.7,4.7
				c-6.9,7.9-10.6,11.2-17.9,16c-8.9,5.9-22.5,13.8-29.5,17.3c-10.4,5.2-23.2,14.6-27.4,19.9c-1.1,1.4-3.7,4.7-6,7.3
				c-10.9,12.8-15.8,16.6-21.8,16.6c-0.4,0-0.8,0-1.2-0.1c-6.1-0.4-9.3-3.6-10.1-9.9c-0.8-7.2,6.8-14.9,20.7-21.3
				c16.5-7.8,32.1-17.1,46.8-27.9c7.4-5.4,16.4-15.2,22.5-24.3c7.7-11.4,12.3-24.6,12.3-35.2c-0.1-13-3.7-23.3-13.4-38.4
				c-9.7-14.9-12.5-19-15.2-22.3c-2-2.2-3.6-3.5-4-3.5c-0.9,0-3.3,5.1-4.3,7c-4.3,8.7-15,25-22.8,34.8c-10.4,13-27.6,29.9-33.5,32.9
				c-2.6,1.3-5,1.3-6.3-0.1c-1.6-1.6-1.3-6.4,0.6-10.1c3.4-5.6,7.2-11,11.4-16.1c2.1-2.4,7.6-11.3,12.3-19.9
				c6.4-11.6,13.4-32.1,15.6-45.8l0.2-1.3c1.3-8.1,1.3-8.1-5.4-13.7l-1.1-0.9c-3.9-3.2-10.4-9.2-14.7-13.2c-4.3-4.3-7.5-7.1-8-7.2
				c-0.6,0-0.6,0.2-2.6,8.7l-0.2,1C325.6-28,321.4-16.2,315.9-5c-10.1,19.8-17.9,28.5-25.5,28.5c-3.4,0-6.8-3.5-6.8-7
				c0-6.8,3.9-15,16.3-33.8c14.4-21.7,16.8-26.3,18.2-35.1c1.1-6.1,0-8-7.4-12.6c-2.2-1.4-5.4-3.4-8.2-5.2c-1.1-0.7-2.2-1.5-3.1-2
				c-2.2-1.5-4.5-2.8-6.9-4c-0.6-0.2-1.2-0.1-1.8,0.2c-1.7,1.1-2.8,5.2-4.7,16.9c-3,18.1-6.7,28.6-11.3,32.1
				c-3.2,2.3-5.3,2.3-7.3,0.2c-2.4-2.3-2.1-5.9,1.7-21.3c4.6-18.7,5.9-25.2,5.9-30.5c0-5.2-0.1-5.2-6.6-8.2
				c-4.6-2-24-11.1-30.4-14.2c-1.6-0.8-2.6-1.3-3.2-1.6c0.3,0.6,0.7,1.6,1.5,2.8c1.9,3.5,2.2,5,9.2,41c1.7,9.1,4.7,22.4,6.6,29.8
				l1,4.1c1.7,6.9,3.9,15.5,5,20.5c0.6,2.3,1.1,4.9,1.7,7.2c0.9,3.8,1.7,7.4,2.2,9.2c8.1,33.1,10.7,45.6,12.4,57.9
				c0.4,3,1.2,8.3,1.8,12c4.4,23.7,7.3,47.6,8.8,71.6l0.1,2.1l3-2.1c1.9-1.3,7.3-4.5,11.8-6.8c11.2-5.8,18.4-10.1,24.6-14.8
				c6.6-5.1,17.8-14.9,21.4-18.8c1.6-1.7,5.6-6.1,9.2-9.8c9-9.5,19.4-25.6,29.3-45.2c2.6-5.2,2.6-7.8,4.5-9.5c0.9-1,2.4-1,3.4-0.1
				c0.5,0.5,0.8,1.1,0.7,1.8c-0.2,2.6-1.5,3.2-11.8,21.6c-14.1,25.2-17.6,29.9-34.4,45.8c-13.7,12.9-22.1,19.7-34.7,28
				c-12.1,8-19.5,14.1-23.4,19.4c-3,4.1-3.1,4.6-2,14.9c0.3,3.1,0.8,9.4,1.2,14.1c0.2,2.6,0.5,5.8,0.7,7.2c6.6,1.9,29.2,1.3,43.7-3
				c8.7-2.6,14.2-5.3,22.4-10.4c5-3,7.2-4.2,8.4-4.2c0.2,0,0.4,0,0.6,0.1c0.4,0.3,0.6,0.7,0.5,1.2c0,1.7-3.7,4.4-10.3,8.3
				c-11.9,6.9-25.9,15-64,15.4c0,0,0.8,4.7,1.1,5.4c0.5,0.8,1,1.5,1.6,2.2c2.8,3.6,7.5,13.4,12.3,25.5c2,5,5.2,13.3,7.3,18.5
				c7.1,18.2,11.1,24.5,18.5,29.4c6.2,4.1,12.4,5.8,21.4,5.8c4.1,0.2,8.3-0.4,12.2-1.7c19.3-5.8,38.6-22.1,51.6-43.6
				c1.8-3.1,3.6-6,4-6.5c0.4-0.5,2.2-4,3.9-7.4c4.9-9.6,6.6-15.8,7.9-27.5l0.2-1.8l-5.9,0.4c-2.6,0.1-7.3,0.6-13.6,1.2
				c-24.4,2.9-32.8,3.3-39.2,2c-4.1-0.9-5.1-1.3-7.1-3.5c-2.2-2.3-2.5-3-2.1-4.7C364.8,198.6,366.6,196.5,370.9,194.1 M395.5,163.3
				c-2.7,1.9-6.9,4.8-9.3,6.8c-2.6,2-4.1,2.9-4.9,2.8c-0.1,0-0.2,0-0.3-0.1c-0.3-0.2-0.5-0.5-0.4-1.2c0.1-1.3,8-7.9,13.2-11.6
				c2.1-1.6,3.7-3.1,6.3-4.9c2.4-1.6,6.2,0.6,2.9,3.1C401.1,159.8,398.5,161.3,395.5,163.3 M313.8,96c-1.1,4.2-8.5,12.2-15.7,15.5
				c-3,1.4-5.1,1.5-5.8,0.9c-0.2-0.2-0.3-0.5-0.2-0.8c0.7-4.5,11.3-17.3,15.4-18.5c0.9-0.3,1.7-0.4,2.6-0.4c1.3-0.1,2.6,0.3,3.6,1.2
				C314,94.6,314.1,95.3,313.8,96 M296.5,67.3c-10.5,11.6-10.3,10.4-11.7,10.4c-0.2,0-0.3,0-0.5-0.1c-0.4-0.2-0.7-0.6-0.8-1.1
				c-0.1-0.8,0.8-2,2.5-3.4c2.5-1.9,11.6-12.2,17.1-18.9c5.6-6.6,14.1-20,18.2-28.6c2.2-4.5,4.1-9.8,4.7-11c1.3-2.7,5.5-2.3,4.9,1.4
				c-0.3,1.7-9.4,18.6-12.9,24.3C313.6,47.5,306.6,56.3,296.5,67.3 M309,186c-1.1,2.3-4.4,3.5-8.7,3c-1.3-0.1-2.5-0.3-3.7-0.6
				c0-0.1-0.1-0.2-0.1-0.3c0.1-1,2-3.2,4.1-4.6c1.3-0.9,2.8-1.5,4.4-1.6c1.2,0,2.3,0.5,3.2,1.3c0.9,0.7,1.2,1.1,1.2,1.6
				C309.3,185.2,309.2,185.6,309,186 M361.2,270.6c-5.4-2.5-10.6-5.7-15.3-9.3c-4.6-3.6-12.2-11.3-19.7-20.3
				c-3.7-4.4-7.5-7.8-9.8-11.5c-0.7-1.1-0.4-2.6,0.7-3.3c1.1-0.7,2.6-0.4,3.3,0.7c6.6,8.7,16.4,20.9,23.3,27.5
				c6.1,5.9,12.1,10.7,20,13.2C366,268.2,365.6,272.6,361.2,270.6 M372.3,233.9c8.7,3.3,13.8,7.3,13.5,10.7
				c-0.6,8.2-12.4,4.9-17.1,3.2c-4.4-1.6-11.6-6-17.2-10.5c-2.5-2.1-5.1-3.9-7.9-5.5c-2.4-1.3-2.6-1.7-2.6-1.8
				c0.5-0.8,9.7,0.2,13.7,0.6C365.4,231.6,367.4,232,372.3,233.9"/>
		</g>
	</g>
</g>
</svg>
