<?xml version="1.0" encoding="UTF-8"?><svg id="Layer_1" xmlns="http://www.w3.org/2000/svg" width="2in" height="3.09in" viewBox="0 0 143.83 222.33"><path d="M133.54,143.59l.05-.82-1.06.72c-.75.51-1.98,1.65-2.74,2.54-2.44,2.71-3.72,5.77-7.35,17.14-1.11,3.55-2.73,8.23-3.56,10.42-.32.82-.69,1.83-1.1,2.9-.67,1.74-1.3,3.79-1.94,5.17-4,8.58-7.01,16.34-11.49,20.18-1.7,1.46-3.13-.2-2.17-1.26,1.01-1.12,1.76-2.03,2.19-2.62,2.37-3.3,6.35-9.93,7.46-12.46,2.35-5.29,6.84-17.85,9.6-26.82,3.14-10.21,4.57-13.33,7.96-17.59l.96-1.26-1.92.28c-4.89.59-5.86.94-10.62,3.79-3.28,1.96-5.71,3.68-9.24,6.6-6.48,5.22-24.34,17.16-27.06,18.55-8.73,4.51-13.37,4.9-16.22,4.94-1.08.02-2.02-.37-2.18-.83-.02-.14-.04-.39.27-.6s1.9-.53,3.26-.77c4.05-.66,7.07-1.5,11.46-3.6,2.4-1.14,3.96-1.51,12.76-7.54,5.11-3.5,10.52-7.39,12.33-8.84,1.97-1.6,6.31-4.96,9.64-7.47,6.87-5.14,9.32-6.54,13.76-7.85l2.5-.71-3.09-4.18c-1.85-2.45-3.64-4.6-4.24-4.98-1.73-1.17-10.04-2-16.13-1.62-8.25.48-14.34,1.74-22.49,4.66-4.6,1.68-11.23,3.45-16.41,4.43-1.71.32-3.91.76-4.85.98-3.13.68-8.02,1.2-11.38,1.21-3.34.03-7.99-.68-16.13-2.43-4.05-.87-4.95-1.72-4.98-2.12-.09-1.19,0-2.01,10.14.75,5.71,1.57,11.88,2.15,20.43.89,4.63-.64,19.89-4.71,27.68-7.37,4.91-1.67,12.33-3.32,17.61-3.95,6.63-.75,9.36-1.01,10.84-1,.54.01.95-.04,1.12-.08-.29-.82-4.89-6.28-6.43-8.11-1.53-1.87-4.67-5.79-6.87-8.64-4.99-6.48-14.37-17.65-17.3-20.58-.72-.72-2.5-2.69-4-4.39-7.6-8.71-13.45-14.73-24.08-24.75-2.76-2.63-5.83-5.6-6.08-5.97-.05-.08-.5-.46-3.96-.6-6.39-.28-14.13-1.84-19.68-3.97-4.82-1.87-6.35-3.41-5.89-4.4.38-.78,1.7-.28,2.86.33,5.6,2.97,9.88,4.49,16.02,5.2,4.05.47,6.65.33,7.01.09l.03-.02c-.14-.21-1.19-1.31-2.73-2.69-4.7-4.26-11.01-10.41-14.34-13.97-11.13-12.03-12.85-13.73-15.28-15.15-1.18-.68-1.84-.98-2.05-1.03-.03.17,0,.61.13,1.42.49,2.5.65,10.55.26,13.04-.61,3.62-2.65,10.48-4.39,14.6-.85,1.98-1.65,4.14-1.83,4.83-.4,1.86.5,3.36,4.19,6.91,6.86,6.61,14.59,10.56,25.02,12.74,6.46,1.4,8.16,2.29,7.83,4.14-.47,2.32-4.42,3.52-10.8,3.24-9.01-.36-19.16-3.87-27.17-9.4l-2.39-1.63-.97,3.87c-1.67,6.68-2.01,14.88-.94,23.71.64,4.97,1.1,5.64,5.2,7.96,3.43,1.94,6.01,2.91,13.24,5.05,5.57,1.59,18.1,3.8,25.77,4.53,1.86.18,5.67.73,8.3,1.21,5.35.98,7.69,2.04,7.84,3.49.1.99-.24,1.94-1,2.76-2.54,2.66-9.38,4.05-17.93,3.64-7.56-.4-15.23-1.58-20.52-3.14-3.86-1.13-15.6-4.58-16.64-3.88-.57.39-.26,2.29,1.24,7.58.7,2.43,1.38,4.88,1.51,5.36.31,1.41,4.33,11.31,6.02,14.69,4.35,8.76,7.45,11.16,16.65,12.93,10.09,1.97,18.68.53,29.61-4.91,2.71-1.35,8.08-2.9,12.44-3.66,4.44-.7,9.94.52,12.81,2.85.37.32.58.74.55,1.25-.04.78-.56,1.63-1.42,2.2-1.48,1-2.72,1.28-10.13,2.44-9.37,1.51-10.57,2.02-21.44,9.23-8.12,5.35-9.14,5.96-11.09,6.49-2.67.75-7.92,1.36-9.52,1.12l-.96-.14.41.89c.29.6,2.05,3.37,4.12,6.42,3.14,4.64,3.88,5.57,6.24,7.71,6.8,6.2,11.89,8.3,18.11,7.49,3.28-.41,10.22-2.65,16.56-5.32,7.56-3.23,9.83-3.94,14.38-4.48,3.92-.46,7.06-.06,7.8,1.03.65.96-.13,2.66-2.15,4.63-2.76,2.62-11.74,8.59-15.79,10.43-3.05,1.46-4.72,2.06-13.59,4.86-1.95.64-3.02,1.06-3.3,1.21.14.21.75.89,1.85,1.96,4.07,3.89,12.51,7.88,24.41,11.5,8.45,2.55,18.34,2.43,26.41-.32,4.53-1.56,12.12-6.32,15.34-9.59,3.56-3.62,7.94-11.76,9.95-18.56.97-3.15,1.13-8.09.45-13.22-.68-5.47-1.63-8.04-6.59-18.32-3.46-7.06-5.12-11.64-4.97-13.59ZM95.75,113.06c-.5,1.1-2.11,1.85-4.84,2.22-3.28.52-7.14.34-9.62-.43-2.45-.72-6.52-2.49-6.79-2.88-.09-.13-.09-.24-.04-.39.09-.21.31-.44.7-.7.88-.6,2.67-1.36,5.69-2.08,4.35-1.05,5.53-1.21,8.42-1.06,3.01.15,4.71.93,5.87,2.64.72,1.06.91,1.95.61,2.68ZM56.13,76.13v-.04c.13-.04,1.07-.11,2.12-.11,5.76.03,9.79,1.19,11.93,3.44.76.73.76.96.51,1.47-.14.24-.4.46-.81.59-1.86.54-5.98-.63-10.06-2.86-.91-.51-3.67-2.01-3.69-2.49ZM51.95,95.5c-8.73.05-14.77-.84-15.28-2.65-.19-.78.55-1.81,4.12-1.05,10.23,2.22,18.83,2.54,35.72-1.3,3.98-.92,6.93-1.71,7.62-.89.21.24.27.77-.07,1.1-.43.42-1.13.7-3.24,1.1-1.91.36-2.45.38-5.56,1.08-12.3,2.81-16.97,2.61-23.31,2.61ZM130.74,175.44c1.1,1.79.44,9.18-1.21,13.44-1.14,3-3.02,5.97-4.27,6.74q-.85.54-1.63-.29c-.91-1.01-.97-1.16-.41-4.07.96-5.11,3.86-12.32,6.11-15.13l1.07-1.33.35.63ZM147.04,151.07c16.8,23.21,29.9,42.8,35.02,52.41,1.15,2.14,3.47,5.84,5.19,8.26,3.96,5.61,4.76,7.15,4.14,10.69-.35,2.01-1.59,5.39-2.89,6.27l-.92.46-.75-.28c-.32-.16-.99-.51-1.93-3.12-1.25-3.3-5.71-13.53-7.78-17.96-5.97-12.6-14.03-25.98-25.36-42.09-4.61-6.55-9.29-13.03-10.66-14.77l-.88-1.1c-.84-1.04-1.62-2.01-2.35-3.08-.49-.73-.53-1.94.99-2.96s2.63-.54,3.12.18c1.37,2.02,2.47,3.53,3.98,5.6l1.08,1.49ZM171.39,105.5c1.05-2.07,5.48-8.09,11.55-15.64,3.7-4.58,5.77-8.1,6.67-11.39.8-3,1.02-7.19.51-9.79-.97-4.56-5.84-13.42-10.27-18.62-4.82-5.72-5.93-6.52-6.18-6.5-.09.14-.44,1.36-.73,3.67-.72,5.85-1.4,8.54-3.27,13.02-2.3,5.52-6.08,13.45-8.24,17.29-3.19,5.71-6.2,14.05-6.45,17.85-.08,1-.26,3.35-.5,5.29-1.04,9.39-2.1,12.68-4.87,14.56-.18.12-.36.25-.59.36-2.96,1.7-5.42,1.25-7.78-1.45-2.61-3.07-1.55-9.04,2.93-16.37,4.82-7.95,9.76-18.55,12.93-27.64,1.72-4.83,2.82-12.18,2.79-18.36-.02-7.73-2.04-15.28-5.37-20.2-4.09-5.99-9.04-9.67-18.26-13.58-9.16-3.88-11.75-4.92-14.07-5.55-1.63-.4-2.77-.47-2.95-.34-.41.28.04,3.41.22,4.61.74,5.39.9,16.27.36,23.29-.75,9.27-3.41,22.52-5.19,25.8-.8,1.45-1.9,2.16-2.94,1.96-1.26-.24-2.62-2.53-2.91-4.86-.21-1.98-.08-8.48.21-11.06.2-1.76-.04-7.64-.54-13.12-.65-7.38-3.87-19.1-7.13-26.14l-.3-.67q-1.92-4.18-6.78-4.66l-.77-.08c-2.79-.27-7.72-.97-10.97-1.53-3.34-.64-5.7-.94-5.97-.83-.26.18-.21.3,1.5,4.84l.21.54c2.4,6.38,4.32,13.96,5.11,20.26,1.55,12.32.65,18.86-2.85,21.23-1.58,1.07-4.22.52-5.33-1.12-2.14-3.16-2.9-8.19-3.05-20.79-.17-14.58-.49-17.46-2.57-21.98-1.41-3.2-2.51-3.7-7.39-3.49-1.47.05-3.56.1-5.41.15-.75.01-1.49.03-2.08.05-2.1.02-4.02.19-4.43.32-.39.15-.63.35-.78.64-.43,1.04.31,3.3,3.09,9.31,4.31,9.32,5.87,15.36,4.81,18.42-.78,2.08-1.72,2.75-3.32,2.4-1.85-.33-2.84-2.08-5.92-10.42-3.71-10.1-5.16-13.54-6.83-16s-1.67-2.42-5.62-1.71c-2.78.52-14.61,2.41-18.58,2.95-.97.13-1.62.23-1.97.27.3.17.83.5,1.55.84,1.97,1.01,2.61,1.63,17.14,16.16,3.66,3.68,9.22,8.94,12.42,11.76l1.76,1.6c2.93,2.66,6.64,5.96,8.77,7.93,1,.91,2.04,1.9,3.06,2.8,1.61,1.48,3.12,2.87,3.89,3.56,14.15,12.81,19.28,17.76,23.93,22.96,1.13,1.28,3.16,3.49,4.62,4.99,10.6,10.91,19.29,20.9,26.59,30.45l.7.92.72-1.89c.46-1.22,1.99-4.37,3.35-6.88,3.38-6.22,5.35-10.46,6.75-14.58,1.49-4.44,3.58-12.51,4.01-15.44.18-1.29.7-4.59,1.18-7.41,1.2-7.27.96-17.99-.61-30.18-.41-3.23-1.24-4.45-.91-5.81.27-1.28,1.89-1.51,2.44-.52.75,1.27.3,1.95,1.32,13.72,1.36,16.12,1.2,19.4-1.57,32.04-2.31,10.25-4.08,16.06-7.3,23.86-3.09,7.49-4.6,12.67-4.77,16.33-.1,2.86.01,3.09,3.75,7.55,1.11,1.36,3.33,4.09,4.99,6.14.93,1.15,2.03,2.54,2.57,3.11,3.68-1.19,13.94-8.54,19.31-15.12,3.22-3.95,4.9-6.92,7.11-11.85,1.36-2.96,2.03-4.2,2.57-4.57.1-.07.2-.1.29-.12.23,0,.41.1.6.39.54.8-.32,3.2-2.16,7.05-3.34,6.95-7.29,15.06-24.85,27.24,0,0,1.87,1.92,2.21,2.14.22.15.98.39,1.43.54,2.43.81,7.68,3.87,13.71,7.98,2.47,1.69,6.61,4.51,9.17,6.29,9.01,6.21,12.85,7.88,17.82,7.8,4.15-.06,7.55-1.23,11.72-4.05,2.56-1.74,3.47-2.58,5.15-4.62,7.14-8.76,10.98-22.39,10.26-36.44-.11-2-.21-3.94-.21-4.27.02-.36-.24-2.52-.5-4.65-.76-5.98-1.88-9.42-4.97-15.26l-.46-.9-2.6,2.07c-1.18.88-3.22,2.56-5.91,4.83-10.4,9.01-14.19,11.84-17.57,13.22-2.2.88-2.78.97-4.39.6-1.73-.38-2.07-.6-2.45-1.55-.78-1.93-.61-3.52.63-5.94ZM173.14,83.5c-.68,1.72-1.69,4.42-2.19,6.07-.58,1.77-.99,2.62-1.4,2.85-.05.03-.11.06-.18.07-.21.01-.38-.1-.55-.4-.36-.62,1.23-6.17,2.47-9.55.5-1.4.73-2.58,1.42-4.24.62-1.5,3.04-1.68,2.33.52-.42,1.29-1.11,2.79-1.9,4.69ZM114.14,77.91c.82,2.28-.14,8.33-2.43,12.14-.96,1.59-1.88,2.29-2.39,2.26-.16,0-.27-.12-.35-.29-1.07-2.3-.18-11.59,1.32-13.39.33-.41.71-.74,1.09-1.01.75-.51,1.54-.74,2.05-.6.3.1.55.42.71.88ZM97.1,70.03c-1.24,8.66-1.49,8.07-2.13,8.51-.1.07-.2.1-.27.11-.32.03-.55-.08-.71-.27-.29-.37-.25-1.15.1-2.37.54-1.65,1.52-9.3,1.98-14.14.5-4.84.23-13.72-.54-18.97-.38-2.8-1.17-5.86-1.28-6.57-.24-1.69,1.8-2.81,2.69-.88.4.86,1.51,11.59,1.65,15.32.22,4.73-.28,11.03-1.48,19.28ZM140.15,121.18c.24,1.42-.93,2.97-3.09,4.13-1.05.56-1.82.89-1.93.89-.04,0-.08-.06-.11-.11-.25-.48-.11-2.12.46-3.45.47-1.04.94-1.73,1.51-2.12s1.15-.48,1.9-.38c.64.06.92.13,1.06.34.11.16.13.36.2.69ZM190.91,144c-3.24.55-6.93.67-10.04.48-3.27-.2-9.19-1.41-15.48-3.23-3.1-.91-5.93-1.24-8.14-2.24-1.56-.71-.73-3.09,1.02-2.5,5.8,1.96,14.17,4.53,19.42,5.44,4.66.81,8.94,1.17,13.43-.18,1.31-.39,2.5,1.77-.21,2.23ZM184.52,123.5c5.07-1.21,8.69-.94,9.63.73,2.28,3.97-4.21,6.17-6.92,6.84-2.51.64-7.26.88-11.27.53-1.74-.18-4.19-.22-5.41-.07-1.52.16-1.76.02-1.78,0-.01-.52,4.58-2.95,6.54-4.01,5.36-2.91,6.39-3.34,9.22-4.01Z" fill="#fff" stroke-width="0"/></svg>