<?xml version="1.0" encoding="UTF-8"?><svg id="Layer_1" xmlns="http://www.w3.org/2000/svg" width="3.77in" height=".9in" viewBox="0 0 271.37 65.06"><path d="M250.89,11.15c.61.03,1.13.21,1.56.53.43.32.9.92,1.41,1.79l4.94,8.56v4.43c0,1.02-.17,1.7-.51,2.03-.34.33-.97.5-1.89.5h-.5v1.87c.61-.02,1.27-.04,1.98-.05.71-.01,1.77-.02,3.17-.02s2.47,0,3.16.02c.69.01,1.34.03,1.92.05v-1.87h-.5c-.93,0-1.56-.16-1.9-.49-.33-.33-.5-1.01-.5-2.04v-4.37l5.24-8.59c.57-.93,1.05-1.55,1.44-1.87.39-.32.82-.48,1.3-.48h.14v-1.86c-1.09.02-1.93.04-2.53.05-.6.01-1.15.02-1.64.02-.93,0-2.33-.02-4.21-.07h-.19v1.86c.61,0,1.05.09,1.32.27.27.18.4.47.4.87,0,.17-.03.38-.1.61-.07.24-.17.47-.29.71l-2.74,5.4-2.76-5.57c-.15-.3-.26-.55-.33-.75-.07-.2-.1-.37-.1-.51,0-.35.13-.62.4-.78.26-.17.68-.25,1.24-.25h.17v-1.86c-1.31.02-2.28.04-2.93.05-.65.01-1.24.02-1.76.02s-1.12,0-1.75-.02c-.63-.01-1.52-.03-2.68-.05l.02,1.86ZM230.58,15.78h2.21c-.01-.13-.02-.25-.03-.38,0-.13,0-.3,0-.53,0-1.13.22-1.92.67-2.35.45-.43,1.27-.64,2.49-.64h1.91v14.34c0,1.05-.17,1.78-.51,2.17-.34.4-.92.59-1.75.59h-.74v1.87c.63-.02,1.32-.04,2.06-.05.74-.01,1.85-.02,3.33-.02s2.57,0,3.3.02c.73.01,1.42.03,2.06.05v-1.87h-.74c-.84,0-1.43-.2-1.77-.59-.34-.4-.51-1.12-.51-2.17v-14.34h1.57c1.35,0,2.25.23,2.68.68.44.45.66,1.34.66,2.67v.55h2.33v-6.5c-1.74,0-3.62.02-5.64.05-.58.01-.95.02-1.1.02h-5.94c-.14,0-.49,0-1.05-.02-1.96-.03-3.78-.05-5.49-.05v6.5ZM219.51,11.15h.41c.84,0,1.43.2,1.76.59.33.4.5,1.11.5,2.16v12.32c0,1.05-.17,1.78-.5,2.17-.33.4-.92.59-1.76.59h-.41v1.87c.6-.02,1.24-.04,1.94-.05.7-.01,1.74-.02,3.15-.02s2.42,0,3.11.02c.7.01,1.34.03,1.94.05v-1.87h-.47c-.83,0-1.41-.2-1.75-.59-.34-.4-.51-1.12-.51-2.17v-12.32c0-1.04.17-1.76.5-2.16.33-.4.92-.59,1.76-.59h.47v-1.86c-1.39.02-2.44.04-3.14.05s-1.34.02-1.91.02-1.25,0-1.95-.02c-.7-.01-1.75-.03-3.14-.05v1.86ZM202.5,11.15h.41c.84,0,1.43.2,1.76.59.33.4.5,1.11.5,2.16v12.33c0,1.05-.17,1.78-.5,2.17-.33.4-.92.59-1.76.59h-.41v1.87h16.76v-6.75h-1.99c-.02,1.71-.29,2.83-.8,3.36-.51.53-1.69.79-3.54.79h-3.02v-14.36c0-1.04.17-1.76.5-2.16.33-.39.91-.59,1.75-.59h.94v-1.86c-1.39.02-2.46.04-3.2.05-.75.01-1.43.02-2.05.02s-1.3,0-2.04-.02c-.74-.01-1.84-.03-3.31-.05v1.86ZM179.98,25.68c-.49,1.24-.95,2.1-1.38,2.57-.43.47-.95.72-1.57.76v1.85c.53-.02,1.1-.04,1.72-.05.62-.01,1.57-.02,2.85-.02s2.31,0,2.98.02c.67.01,1.3.03,1.88.05v-1.85c-1.09-.07-1.79-.21-2.11-.42-.32-.21-.47-.59-.47-1.15,0-.16.02-.33.06-.52.04-.18.11-.41.2-.67l.91-2.76h7.92l.77,2.29c.11.37.2.69.26.96.06.28.09.49.09.65,0,.55-.19.95-.58,1.18-.38.24-1.08.38-2.09.42v1.85c.6-.02,1.24-.04,1.92-.05.69-.01,1.72-.02,3.09-.02s2.41,0,3.1.02c.69.01,1.33.03,1.9.05v-1.87c-.63-.06-1.14-.29-1.54-.69-.4-.4-.87-1.31-1.42-2.72l-6.22-16.29h-5.77l-6.51,16.4ZM192.01,20.89h-6.08l3.21-8.98,2.87,8.98ZM160.91,15.78h2.21c-.01-.13-.02-.25-.03-.38,0-.13,0-.3,0-.53,0-1.13.22-1.92.67-2.35.45-.43,1.27-.64,2.49-.64h1.91v14.34c0,1.05-.17,1.78-.51,2.17-.34.4-.92.59-1.75.59h-.74v1.87c.63-.02,1.32-.04,2.06-.05.74-.01,1.85-.02,3.33-.02s2.57,0,3.3.02c.73.01,1.42.03,2.06.05v-1.87h-.74c-.84,0-1.43-.2-1.77-.59-.34-.4-.51-1.12-.51-2.17v-14.34h1.57c1.35,0,2.25.23,2.68.68.44.45.66,1.34.66,2.67v.55h2.33v-6.5c-1.74,0-3.62.02-5.64.05-.58.01-.95.02-1.1.02h-5.94c-.14,0-.49,0-1.05-.02-1.96-.03-3.78-.05-5.49-.05v6.5ZM149.84,11.15h.41c.84,0,1.43.2,1.76.59.33.4.5,1.11.5,2.16v12.32c0,1.05-.17,1.78-.5,2.17-.33.4-.92.59-1.76.59h-.41v1.87c.6-.02,1.24-.04,1.94-.05.7-.01,1.74-.02,3.15-.02s2.42,0,3.11.02c.7.01,1.34.03,1.94.05v-1.87h-.47c-.83,0-1.41-.2-1.75-.59-.34-.4-.51-1.12-.51-2.17v-12.32c0-1.04.17-1.76.5-2.16.33-.4.92-.59,1.76-.59h.47v-1.86c-1.39.02-2.44.04-3.14.05-.7.01-1.34.02-1.91.02s-1.25,0-1.95-.02c-.7-.01-1.75-.03-3.14-.05v1.86ZM133.31,11.15h.47c.84,0,1.43.2,1.76.59.33.39.5,1.11.5,2.15v12.32c0,1.06-.17,1.78-.51,2.18-.34.4-.92.59-1.75.59h-.47v1.87c.6-.02,1.24-.04,1.94-.05.7-.01,1.74-.02,3.13-.02s2.41,0,3.1.02c.69.01,1.34.03,1.93.05v-1.87h-.41c-.83,0-1.41-.2-1.74-.59-.33-.4-.5-1.12-.5-2.18v-4.37h2.86c2.63,0,4.57-.51,5.81-1.52,1.24-1.01,1.86-2.6,1.86-4.75s-.7-3.83-2.09-4.81c-1.4-.99-3.69-1.48-6.9-1.48h-9v1.86ZM142.54,11.78c1.31,0,2.33.31,3.04.94.71.63,1.07,1.53,1.07,2.71,0,1.35-.34,2.36-1.01,3.03-.67.67-1.68,1-3.03,1h-1.85v-7.68h1.78ZM128.5,9.03c-1.22-.16-2.37-.24-3.46-.24-2.7,0-4.8.55-6.3,1.66-1.5,1.1-2.25,2.65-2.25,4.63,0,1.32.39,2.43,1.17,3.33.78.9,2.09,1.76,3.93,2.56l4.12,1.75c.9.39,1.54.81,1.91,1.26.37.45.55,1.04.55,1.76,0,1.05-.35,1.86-1.05,2.43-.7.57-1.71.85-3.02.85-1.65,0-2.89-.35-3.72-1.06-.83-.7-1.25-1.75-1.25-3.13,0-.05,0-.13.02-.24.01-.11.02-.2.02-.26h-2.57v6.09c1.34.31,2.66.54,3.96.7,1.3.16,2.56.23,3.79.23,2.82,0,4.98-.56,6.49-1.68,1.51-1.12,2.27-2.71,2.27-4.77,0-1.29-.38-2.41-1.13-3.36-.76-.94-1.9-1.73-3.44-2.35l-4.47-1.78c-.99-.39-1.68-.82-2.1-1.3-.41-.48-.62-1.08-.62-1.8,0-.95.38-1.71,1.13-2.29.75-.58,1.74-.87,2.98-.87,1.47,0,2.54.31,3.23.94.69.62,1.03,1.6,1.03,2.93,0,.18,0,.33,0,.43,0,.1-.01.19-.03.27h2.71v-5.94c-1.37-.33-2.67-.58-3.89-.74M95.93,11.74c-1.89,1.96-2.84,4.73-2.84,8.3s.95,6.35,2.85,8.33c1.9,1.98,4.56,2.97,7.98,2.97s6.08-.99,7.98-2.97c1.9-1.98,2.85-4.76,2.85-8.33s-.95-6.34-2.85-8.3c-1.9-1.96-4.56-2.95-7.98-2.95s-6.1.98-7.99,2.95M108.2,13.63c.98,1.46,1.47,3.59,1.47,6.38s-.49,4.91-1.48,6.37c-.99,1.46-2.41,2.19-4.27,2.19s-3.27-.74-4.27-2.21c-.99-1.47-1.49-3.59-1.49-6.35s.49-4.91,1.48-6.37c.99-1.47,2.41-2.2,4.27-2.2s3.3.73,4.28,2.19M59.9,2.7h.59c1.19,0,2.03.28,2.5.85.47.56.71,1.59.71,3.08v17.6c0,1.51-.24,2.54-.71,3.1-.48.56-1.31.85-2.5.85h-.59v2.68c.85-.03,1.77-.06,2.76-.07.99-.02,2.48-.02,4.48-.02s3.42,0,4.42.02c1,.02,1.91.04,2.75.07v-2.68h-.64c-1.19,0-2.03-.28-2.5-.85-.47-.56-.71-1.6-.71-3.1v-7.34h12.81v7.34c0,1.51-.24,2.54-.72,3.1-.48.56-1.31.85-2.49.85h-.66v2.68c.85-.03,1.78-.06,2.77-.07,1-.02,2.49-.02,4.47-.02s3.44,0,4.43.02c.99.02,1.91.04,2.76.07v-2.68h-.61c-1.18,0-2.01-.28-2.49-.85-.48-.56-.72-1.6-.72-3.1V6.63c0-1.49.24-2.52.72-3.08.48-.56,1.31-.85,2.49-.85h.61V.05c-1.98.03-3.47.06-4.47.07-1,.02-1.91.02-2.72.02s-1.75,0-2.76-.02c-1.01-.02-2.5-.04-4.48-.07v2.65h.66c1.19,0,2.03.28,2.5.85.47.56.71,1.59.71,3.08v6.53h-12.81v-6.53c0-1.49.24-2.52.71-3.08.47-.56,1.31-.85,2.5-.85h.64V.05c-1.98.03-3.46.06-4.45.07-.99.02-1.89.02-2.71.02s-1.78,0-2.77-.02c-1-.02-2.49-.04-4.47-.07v2.65Z" fill="#fff" stroke-width="0"/><path d="M268.94,40.83c-.62-.07-1.23-.1-1.82-.1-1.39,0-2.47.27-3.26.8-.78.53-1.17,1.27-1.17,2.22,0,1.29,1.35,2.41,4.04,3.34.04.02.08.03.1.04,1.28.44,2.08.82,2.41,1.14.33.32.49.73.49,1.25,0,.74-.27,1.3-.81,1.68-.54.39-1.31.58-2.33.58-1.16,0-1.99-.24-2.49-.72-.5-.48-.76-1.27-.76-2.37h-.47v3.2c.73.19,1.44.33,2.13.43.69.1,1.36.15,2.02.15,1.41,0,2.49-.27,3.23-.8.74-.53,1.11-1.31,1.11-2.32,0-.8-.25-1.46-.75-1.96-.5-.5-1.38-.97-2.64-1.39-.22-.08-.53-.18-.93-.3-1.89-.6-2.83-1.36-2.83-2.27,0-.63.26-1.12.77-1.47.52-.36,1.24-.53,2.17-.53,1.13,0,1.95.2,2.46.61.51.41.76,1.06.76,1.97v.2h.52v-3.03c-.69-.14-1.35-.25-1.97-.32M259.64,40.85c-.65-.08-1.27-.13-1.84-.13-1.72,0-3.05.51-4,1.54-.95,1.03-1.43,2.46-1.43,4.31s.46,3.3,1.38,4.33c.92,1.03,2.2,1.55,3.85,1.55,1.32,0,2.36-.3,3.11-.89.75-.6,1.19-1.46,1.31-2.6h-.99c-.14.85-.49,1.51-1.03,1.95-.54.45-1.26.67-2.15.67-1.21,0-2.14-.43-2.78-1.29-.64-.86-.96-2.1-.96-3.73,0-1.71.33-2.98.99-3.82.66-.84,1.67-1.26,3.02-1.26,1.06,0,1.82.22,2.3.65.47.44.72,1.14.74,2.13h.6s0-3.03,0-3.03c-.75-.18-1.46-.31-2.11-.39M248.34,36.02c-.16.15-.24.42-.24.81s.08.66.25.83c.17.16.46.24.86.24s.7-.08.87-.24c.17-.16.25-.44.25-.83s-.08-.67-.23-.82c-.16-.15-.45-.22-.88-.22s-.72.08-.88.23M248.76,41.04c-.44.02-.86.03-1.24.03h-.55v.48c.74.02,1.2.1,1.4.25.19.15.29.57.29,1.26v6.66c0,.75-.12,1.24-.36,1.47-.24.23-.73.34-1.45.34v.55c.31-.02.65-.03,1.02-.04.36,0,.92-.01,1.66-.01s1.31,0,1.68.01c.38,0,.73.02,1.05.04v-.55c-.85,0-1.41-.11-1.66-.33-.25-.22-.37-.71-.37-1.48v-8.78c-.53.04-1.02.07-1.47.1M241.12,40.48c-.44.44-1.08.73-1.94.87v.49h2.03v7.12c0,1.3.19,2.21.57,2.71.38.5,1.04.76,1.97.76s1.7-.26,2.22-.77c.51-.51.78-1.27.82-2.28h-.61c-.05.71-.25,1.27-.61,1.66-.36.4-.82.6-1.4.6-.52,0-.89-.19-1.09-.56-.2-.37-.3-1.17-.3-2.4v-6.84h3.38v-.77h-3.44v-2.7h-.6c-.23.96-.56,1.67-1,2.11M237.06,41.85c-.66-.77-1.72-1.15-3.2-1.15-.86,0-1.62.15-2.3.46-.68.31-1.26.76-1.72,1.35v-1.57c-.47.04-.91.07-1.33.1-.42.02-.84.03-1.25.03h-.6v.48c.73.02,1.19.1,1.39.25.2.15.3.57.3,1.26v6.66c0,.75-.12,1.24-.36,1.47-.24.23-.73.34-1.47.34v.55c.31-.02.65-.03,1.02-.04.37,0,.92-.01,1.66-.01s1.33,0,1.71.01c.38,0,.73.02,1.05.04v-.55c-.86,0-1.42-.11-1.68-.34-.25-.22-.38-.72-.38-1.48v-3.94c0-1.4.29-2.46.86-3.15.58-.7,1.44-1.05,2.59-1.05,1.07,0,1.85.32,2.35.95.5.63.75,1.62.75,2.98v4.21c0,.78-.13,1.28-.39,1.49-.26.22-.81.32-1.67.32v.55c.34-.02.7-.03,1.09-.04.39,0,.96-.01,1.71-.01s1.27,0,1.63.01c.36,0,.69.02,1,.04v-.55c-.76-.03-1.25-.12-1.47-.27-.22-.16-.32-.63-.32-1.42v-4.19c0-1.78-.33-3.05-.98-3.81M216.7,42.26c-.96,1.02-1.43,2.46-1.43,4.32s.48,3.3,1.43,4.33c.96,1.03,2.29,1.55,4,1.55s3.06-.52,4.02-1.55c.96-1.04,1.44-2.48,1.44-4.32s-.48-3.29-1.43-4.32c-.96-1.02-2.3-1.54-4.02-1.54s-3.04.51-4,1.54M223.5,42.84c.65.87.97,2.11.97,3.74s-.33,2.85-.98,3.71c-.66.87-1.58,1.3-2.79,1.3s-2.14-.43-2.78-1.29c-.64-.86-.96-2.1-.96-3.73s.32-2.89.96-3.75c.64-.86,1.57-1.29,2.79-1.29s2.15.43,2.8,1.3M211.76,36.03c-.44.02-.87.03-1.28.03h-.57v.5c.74.02,1.2.1,1.4.25.19.15.29.57.29,1.26v4.58c-.38-.64-.9-1.12-1.55-1.44-.66-.33-1.43-.49-2.32-.49-1.51,0-2.71.53-3.59,1.59-.88,1.06-1.32,2.52-1.32,4.36s.43,3.28,1.28,4.28c.85,1,2.07,1.5,3.66,1.5.87,0,1.65-.18,2.34-.54.69-.36,1.26-.88,1.72-1.57v1.87c.39-.04.79-.07,1.21-.1.42-.02.84-.03,1.28-.03h.6v-.49c-.73,0-1.19-.09-1.39-.24-.2-.15-.3-.57-.3-1.28v-14.14c-.52.04-1.01.07-1.45.1M210.75,42.97c.62.9.93,2.18.93,3.84,0,1.53-.3,2.7-.91,3.5-.61.8-1.48,1.21-2.62,1.21s-2.08-.42-2.7-1.25c-.63-.83-.94-2.04-.94-3.61s.31-2.87.93-3.74c.62-.87,1.52-1.3,2.68-1.3s2.01.45,2.63,1.35M192.68,42.26c-.96,1.02-1.43,2.46-1.43,4.32s.48,3.3,1.43,4.33c.96,1.03,2.29,1.55,4,1.55s3.06-.52,4.02-1.55c.96-1.04,1.44-2.48,1.44-4.32s-.48-3.29-1.43-4.32c-.96-1.02-2.3-1.54-4.02-1.54s-3.04.51-4,1.54M199.48,42.84c.65.87.97,2.11.97,3.74s-.33,2.85-.98,3.71c-.66.87-1.58,1.3-2.79,1.3s-2.14-.43-2.78-1.29c-.64-.86-.97-2.1-.97-3.73s.32-2.89.96-3.75c.64-.86,1.57-1.29,2.79-1.29s2.15.43,2.8,1.3M179.95,36.03c-.43.02-.86.03-1.28.03h-.57v.5c.74.02,1.2.1,1.4.25.19.15.29.57.29,1.26v11.65c0,.75-.12,1.24-.36,1.47-.24.23-.73.34-1.47.34v.55c.31-.02.65-.03,1.02-.04.37,0,.92-.01,1.66-.01s1.33,0,1.71.01c.38,0,.73.02,1.05.04v-.55c-.86,0-1.42-.11-1.68-.34-.25-.22-.38-.72-.38-1.48v-3.94c0-1.4.29-2.46.86-3.15.58-.7,1.44-1.05,2.59-1.05,1.07,0,1.85.32,2.35.95.5.63.75,1.62.75,2.98v4.21c0,.78-.13,1.28-.39,1.49-.26.22-.81.32-1.67.32v.55c.34-.02.7-.03,1.09-.04.39,0,.96-.01,1.71-.01s1.27,0,1.63.01c.36,0,.69.02,1,.04v-.55c-.76-.03-1.25-.12-1.47-.27-.22-.16-.32-.63-.32-1.42v-4.19c0-1.78-.33-3.05-.98-3.81-.66-.77-1.72-1.15-3.21-1.15-.85,0-1.62.15-2.3.46-.68.31-1.25.76-1.72,1.35v-6.58c-.45.04-.89.07-1.32.1M172.36,40.48c-.44.44-1.08.73-1.94.87v.49h2.03v7.12c0,1.3.19,2.21.57,2.71.38.5,1.04.76,1.97.76s1.7-.26,2.21-.77c.51-.51.78-1.27.82-2.28h-.61c-.05.71-.25,1.27-.61,1.66s-.82.6-1.4.6c-.52,0-.89-.19-1.09-.56-.2-.37-.3-1.17-.3-2.4v-6.84h3.38v-.77h-3.44v-2.7h-.6c-.23.96-.56,1.67-1,2.11M170.13,40.72c-.21-.02-.43-.03-.65-.03-.85,0-1.58.15-2.2.44-.62.3-1.15.75-1.6,1.37v-1.57c-.47.04-.91.07-1.33.1-.42.02-.84.03-1.25.03h-.6v.48c.73.02,1.19.1,1.39.25.2.15.3.57.3,1.26v6.66c0,.75-.12,1.24-.36,1.47-.24.23-.73.34-1.47.34v.55c.31-.02.65-.03,1.02-.04.37,0,.92-.01,1.66-.01s1.33,0,1.71.01c.38,0,.73.02,1.05.04v-.55c-.86,0-1.42-.11-1.68-.34-.25-.22-.38-.72-.38-1.48v-3.94c0-1.47.21-2.53.64-3.18.43-.65,1.11-.97,2.06-.97.6,0,1.03.15,1.29.44.26.29.39.78.39,1.48,0,.05,0,.13-.01.24,0,.11-.01.18-.01.23h.62v-3.22c-.2-.03-.41-.06-.62-.08M148.45,37.95c-1.33,1.46-1.99,3.51-1.99,6.15s.66,4.7,1.99,6.16c1.32,1.46,3.19,2.19,5.6,2.19s4.25-.73,5.58-2.19c1.32-1.46,1.99-3.51,1.99-6.16s-.66-4.69-1.99-6.15c-1.32-1.46-3.18-2.19-5.58-2.19s-4.27.73-5.6,2.19M158.24,38.53c.96,1.28,1.44,3.13,1.44,5.55s-.48,4.28-1.44,5.55c-.96,1.27-2.36,1.91-4.2,1.91s-3.24-.64-4.21-1.92c-.97-1.28-1.46-3.13-1.46-5.55s.49-4.27,1.46-5.55c.97-1.28,2.38-1.92,4.21-1.92s3.23.64,4.2,1.92" fill="#fff" stroke-width="0"/><path d="M141.1,54.56s.03.04.07.09c.18.21.35.31.53.31.06,0,.1-.02.13-.07.03-.04.04-.1.04-.18,0-.14-.11-.37-.34-.71,0,0-.01,0-.01-.02l-.69-.9c.73-.65,1.27-1.3,1.62-1.96.36-.66.54-1.34.54-2.06s-.18-1.36-.55-1.84c-.37-.48-.83-.72-1.37-.72-.42,0-.76.12-1.01.35-.25.24-.38.54-.38.91,0,.35.11.64.32.85.21.22.49.32.83.32.31,0,.61-.12.9-.35.05-.04.08-.06.09-.06.07,0,.13.08.19.23.06.15.09.34.09.55,0,.46-.15.96-.44,1.5-.29.54-.71,1.08-1.25,1.63-1.24-1.64-2.22-3.33-2.96-5.09-.74-1.76-1.24-3.59-1.49-5.52,3.02-.84,5.18-1.71,6.48-2.61,1.3-.9,1.95-1.94,1.95-3.14,0-.94-.33-1.68-1-2.21-.67-.53-1.6-.8-2.79-.8-1.75,0-3.14.6-4.2,1.8-1.05,1.2-1.58,2.81-1.58,4.82,0,.19,0,.39.02.6.01.22.05.55.1,1-2.62.57-4.58,1.47-5.88,2.71-1.3,1.24-1.95,2.8-1.95,4.71s.68,3.55,2.05,4.79c1.37,1.24,3.14,1.86,5.32,1.86,1.11,0,2.15-.15,3.12-.45.97-.3,1.86-.75,2.68-1.35l.84.99ZM135.84,40.59c0-.11,0-.21,0-.31,0-.61.09-1.21.26-1.81.17-.6.43-1.21.79-1.82.54-.92,1.13-1.63,1.79-2.13.65-.5,1.31-.74,1.98-.74.62,0,1.13.19,1.52.57.4.38.6.87.6,1.47,0,1.14-.59,2.16-1.76,3.06-1.17.9-2.88,1.64-5.11,2.21-.03-.23-.05-.39-.05-.5M137.48,54.11c-.81.26-1.69.39-2.62.39-1.82,0-3.27-.47-4.35-1.4-1.07-.94-1.61-2.19-1.61-3.77,0-1.71.52-3.17,1.57-4.4,1.04-1.23,2.57-2.17,4.57-2.83.35,1.93.92,3.78,1.7,5.54.78,1.77,1.81,3.52,3.1,5.27-.76.55-1.54.95-2.35,1.21" fill="#fff" stroke-width="0"/><path d="M121.19,36.03c-.44.02-.87.03-1.28.03h-.57v.49c.74.02,1.21.1,1.4.25.19.15.29.57.29,1.26v11.65c0,.75-.12,1.24-.36,1.47-.24.23-.73.34-1.45.34v.55c.3-.02.64-.03,1.01-.04.37,0,.92-.01,1.66-.01s1.33,0,1.71.01c.38,0,.73.02,1.05.04v-.55c-.86,0-1.42-.11-1.68-.34-.25-.22-.38-.72-.38-1.48v-13.77c-.49.03-.96.06-1.4.08M116.85,41.78c-.69-.71-1.9-1.06-3.66-1.06-.54,0-1.12.04-1.73.11-.61.08-1.26.19-1.94.33v2.75h.55c.03-.86.28-1.5.74-1.9.46-.4,1.17-.6,2.13-.6,1.08,0,1.92.23,2.5.7.58.47.88,1.13.88,2.01v1.38h-2.16c-2.03,0-3.51.28-4.45.85-.94.57-1.4,1.46-1.4,2.68,0,1.08.35,1.92,1.06,2.52.71.6,1.71.89,3,.89.96,0,1.76-.16,2.41-.49.65-.33,1.16-.82,1.54-1.49v1.74c.44-.04.88-.07,1.31-.1.43-.02.86-.03,1.29-.03h.62v-.49h-.18c-.61,0-1.01-.09-1.2-.26-.19-.17-.29-.59-.29-1.25v-4.42c0-1.88-.34-3.17-1.03-3.88M116.32,46.26v1.04c0,1.43-.29,2.5-.88,3.22-.58.72-1.46,1.07-2.61,1.07-.93,0-1.65-.22-2.16-.67-.51-.45-.77-1.08-.77-1.9,0-.92.36-1.61,1.07-2.07.71-.46,1.79-.69,3.22-.69h2.13ZM102.37,40.48c-.44.44-1.08.73-1.94.87v.5h2.03v7.12c0,1.3.19,2.21.57,2.71.38.5,1.04.76,1.97.76s1.7-.26,2.22-.77c.51-.51.78-1.27.82-2.28h-.61c-.05.71-.25,1.27-.61,1.66-.36.4-.82.6-1.4.6-.52,0-.89-.19-1.09-.56-.2-.37-.3-1.17-.3-2.4v-6.84h3.38v-.77h-3.44v-2.7h-.6c-.23.96-.56,1.67-1,2.11M98.31,41.85c-.66-.77-1.72-1.15-3.2-1.15-.86,0-1.62.15-2.3.46-.68.31-1.25.76-1.72,1.35v-1.57c-.47.04-.91.07-1.33.1-.42.02-.84.03-1.25.03h-.6v.48c.73.02,1.19.1,1.39.25s.3.57.3,1.26v6.66c0,.75-.12,1.24-.36,1.47-.24.23-.73.34-1.47.34v.55c.31-.02.65-.03,1.02-.04.37,0,.92-.01,1.66-.01s1.33,0,1.71.01c.38,0,.73.02,1.05.04v-.55c-.86,0-1.42-.11-1.68-.34-.25-.22-.38-.72-.38-1.48v-3.93c0-1.4.29-2.46.86-3.15.58-.7,1.44-1.05,2.59-1.05,1.07,0,1.85.32,2.35.95.5.63.75,1.62.75,2.98v4.21c0,.78-.13,1.28-.39,1.49-.26.22-.81.32-1.67.32v.55c.34-.02.7-.03,1.09-.04.39,0,.96-.01,1.71-.01s1.27,0,1.63.01c.36,0,.69.02,1,.04v-.55c-.76-.03-1.25-.12-1.47-.27-.22-.16-.32-.63-.32-1.42v-4.19c0-1.78-.33-3.05-.98-3.81M78.33,46.13c.09-1.51.46-2.67,1.1-3.45.64-.79,1.54-1.18,2.69-1.18s2.12.39,2.76,1.18c.64.79.96,1.91.96,3.38v.08h-7.51ZM87.33,46.48c0-1.9-.44-3.34-1.31-4.3-.88-.96-2.17-1.45-3.89-1.45s-3.05.51-4,1.54c-.95,1.03-1.43,2.46-1.43,4.31s.47,3.34,1.4,4.35c.93,1.02,2.28,1.52,4.03,1.52,1.47,0,2.61-.27,3.41-.82.8-.55,1.33-1.4,1.57-2.57h-1.07c-.18.85-.56,1.49-1.16,1.9-.6.41-1.41.62-2.44.62-1.32,0-2.32-.38-2.99-1.16-.67-.77-1.03-1.93-1.07-3.47h8.95v-.5ZM59.9,36.8h.62c.69,0,1.16.13,1.4.39.24.26.36.75.36,1.47v10.89c0,.73-.12,1.22-.36,1.48-.24.26-.71.39-1.4.39h-.62v.65h7.02c2.97,0,5.17-.67,6.59-2.01,1.43-1.34,2.14-3.42,2.14-6.23,0-2.57-.7-4.5-2.09-5.78-1.4-1.28-3.5-1.92-6.31-1.92h-7.35v.65ZM66.87,36.96c2.35,0,4.08.58,5.19,1.73,1.11,1.16,1.66,2.96,1.66,5.41s-.59,4.17-1.78,5.34c-1.18,1.17-2.98,1.76-5.39,1.76h-2.58v-14.24h2.89Z" fill="#fff" stroke-width="0"/><path d="M194.54,64.94v-5.92h-2.21v-.79h5.32v.79h-2.22v5.92h-.89Z" fill="#fff" stroke-width="0"/><path d="M198.1,64.94v-4.86h.74v.74c.19-.35.36-.57.52-.68.16-.11.34-.16.53-.16.28,0,.56.09.85.27l-.28.76c-.2-.12-.4-.18-.6-.18-.18,0-.34.05-.49.16s-.25.26-.31.45c-.09.29-.14.61-.14.96v2.55h-.82Z" fill="#fff" stroke-width="0"/><path d="M204.42,64.94v-.71c-.38.55-.89.82-1.54.82-.29,0-.55-.05-.8-.16s-.43-.25-.55-.41c-.12-.17-.21-.37-.25-.61-.03-.16-.05-.42-.05-.77v-3.01h.82v2.7c0,.43.02.72.05.87.05.22.16.39.33.51.17.12.38.19.62.19s.48-.06.7-.19.37-.3.46-.52c.09-.22.14-.53.14-.95v-2.61h.82v4.86h-.74Z" fill="#fff" stroke-width="0"/><path d="M206.12,63.49l.81-.13c.05.33.17.58.38.75.21.17.5.26.88.26s.66-.08.84-.23.27-.34.27-.54c0-.19-.08-.33-.24-.44-.11-.07-.39-.17-.84-.28-.6-.15-1.02-.28-1.26-.4-.23-.11-.41-.27-.53-.46-.12-.2-.18-.41-.18-.65,0-.22.05-.42.15-.6.1-.18.23-.34.41-.46.13-.09.3-.17.52-.24s.46-.1.71-.1c.38,0,.72.05,1.01.16.29.11.5.26.64.45.14.19.23.44.28.75l-.81.11c-.04-.25-.14-.45-.32-.59-.18-.14-.42-.21-.74-.21-.38,0-.65.06-.81.19-.16.13-.24.27-.24.44,0,.11.03.2.1.29.07.09.17.16.32.22.08.03.33.1.73.21.58.16.99.28,1.22.38.23.1.41.24.54.43s.2.42.2.71-.08.53-.24.78c-.16.24-.39.43-.69.56-.3.13-.64.2-1.03.2-.63,0-1.11-.13-1.44-.39-.33-.26-.54-.65-.63-1.17Z" fill="#fff" stroke-width="0"/><path d="M212.93,64.21l.12.73c-.23.05-.44.07-.62.07-.3,0-.53-.05-.7-.14-.16-.09-.28-.22-.35-.37s-.1-.48-.1-.97v-2.8h-.6v-.64h.6v-1.2l.82-.49v1.7h.83v.64h-.83v2.84c0,.23.01.39.04.45s.08.12.14.16c.07.04.16.06.28.06.09,0,.21-.01.36-.03Z" fill="#fff" stroke-width="0"/><path d="M217.07,63.38l.85.11c-.13.5-.38.88-.75,1.16-.36.27-.83.41-1.39.41-.71,0-1.28-.22-1.69-.66-.42-.44-.63-1.05-.63-1.84s.21-1.45.63-1.9c.42-.45.97-.68,1.64-.68s1.18.22,1.59.66c.41.44.62,1.07.62,1.87,0,.05,0,.12,0,.22h-3.63c.03.53.18.94.45,1.23.27.28.61.43,1.02.43.3,0,.56-.08.77-.24.21-.16.38-.41.51-.76ZM214.36,62.05h2.72c-.04-.41-.14-.72-.31-.92-.26-.32-.6-.48-1.02-.48-.38,0-.7.13-.95.38-.26.25-.4.59-.43,1.02Z" fill="#fff" stroke-width="0"/><path d="M222.11,64.94v-.61c-.31.48-.76.72-1.36.72-.39,0-.74-.11-1.07-.32-.33-.21-.58-.51-.76-.9-.18-.38-.27-.82-.27-1.32s.08-.93.24-1.32c.16-.4.4-.7.73-.91.32-.21.69-.32,1.09-.32.29,0,.55.06.78.19.23.12.42.28.56.48v-2.41h.82v6.71h-.76ZM219.51,62.52c0,.62.13,1.09.39,1.4.26.31.57.46.93.46s.67-.15.92-.44c.25-.29.38-.74.38-1.35,0-.67-.13-1.15-.38-1.47s-.57-.47-.95-.47-.67.15-.92.45c-.25.3-.37.77-.37,1.42Z" fill="#fff" stroke-width="0"/><path d="M226.58,62.79l.84-.07c.04.34.13.61.28.83.14.22.37.39.68.52.31.13.65.2,1.03.2.34,0,.64-.05.9-.15s.45-.24.58-.41.19-.37.19-.57-.06-.39-.18-.55-.32-.29-.6-.4c-.18-.07-.58-.18-1.2-.33-.62-.15-1.05-.29-1.3-.42-.32-.17-.56-.38-.72-.63-.16-.25-.24-.53-.24-.84,0-.34.1-.66.29-.95.19-.29.47-.52.84-.67.37-.15.78-.23,1.23-.23.5,0,.94.08,1.32.24.38.16.67.4.88.71.2.31.31.66.33,1.06l-.85.06c-.05-.42-.2-.74-.46-.96-.26-.22-.65-.33-1.17-.33s-.93.1-1.17.3c-.25.2-.37.43-.37.71,0,.24.09.44.26.6.17.16.62.32,1.34.48.72.16,1.22.31,1.49.43.39.18.68.41.87.68s.28.59.28.95-.1.69-.31,1.01c-.2.32-.5.56-.88.74-.38.18-.81.26-1.29.26-.61,0-1.12-.09-1.53-.27-.41-.18-.73-.44-.97-.8-.23-.36-.36-.76-.37-1.21Z" fill="#fff" stroke-width="0"/><path d="M233.04,59.18v-.95h.82v.95h-.82ZM233.04,64.94v-4.86h.82v4.86h-.82Z" fill="#fff" stroke-width="0"/><path d="M235.12,64.94v-4.86h.74v.69c.36-.53.87-.8,1.55-.8.29,0,.56.05.81.16.25.11.43.24.55.41.12.17.21.37.26.61.03.15.05.42.05.8v2.99h-.82v-2.96c0-.34-.03-.59-.1-.75-.06-.17-.18-.3-.34-.4-.16-.1-.35-.15-.57-.15-.35,0-.65.11-.91.33-.25.22-.38.65-.38,1.27v2.66h-.82Z" fill="#fff" stroke-width="0"/><path d="M243.51,63.16l.81.11c-.09.56-.32,1-.68,1.31-.36.32-.81.47-1.34.47-.67,0-1.2-.22-1.61-.65-.4-.44-.61-1.06-.61-1.87,0-.53.09-.98.26-1.38.17-.39.44-.69.79-.89.36-.2.74-.3,1.16-.3.53,0,.96.13,1.3.4.34.27.55.65.65,1.14l-.8.12c-.08-.33-.21-.57-.41-.74s-.43-.25-.7-.25c-.42,0-.75.15-1.01.45-.26.3-.39.77-.39,1.41s.13,1.13.38,1.42c.25.3.58.44.98.44.32,0,.59-.1.81-.3.22-.2.35-.5.41-.92Z" fill="#fff" stroke-width="0"/><path d="M248.35,63.38l.85.11c-.13.5-.38.88-.75,1.16-.36.27-.83.41-1.39.41-.71,0-1.28-.22-1.69-.66-.42-.44-.63-1.05-.63-1.84s.21-1.45.63-1.9c.42-.45.97-.68,1.64-.68s1.18.22,1.59.66c.41.44.62,1.07.62,1.87,0,.05,0,.12,0,.22h-3.63c.03.53.18.94.45,1.23.27.28.61.43,1.02.43.3,0,.56-.08.77-.24.21-.16.38-.41.51-.76ZM245.64,62.05h2.72c-.04-.41-.14-.72-.31-.92-.26-.32-.6-.48-1.02-.48-.38,0-.7.13-.95.38-.26.25-.4.59-.43,1.02Z" fill="#fff" stroke-width="0"/><path d="M255.72,64.94h-.82v-5.25c-.2.19-.46.38-.78.57-.32.19-.61.33-.87.43v-.8c.46-.22.86-.48,1.21-.79.34-.31.59-.61.73-.9h.53v6.74Z" fill="#fff" stroke-width="0"/><path d="M257.95,63.39l.79-.07c.07.37.2.64.38.81.19.17.43.25.73.25.25,0,.48-.06.67-.17.19-.12.35-.27.47-.46s.22-.46.31-.79c.08-.33.12-.67.12-1.01,0-.04,0-.09,0-.16-.16.26-.39.48-.68.64-.29.16-.59.25-.93.25-.56,0-1.03-.2-1.41-.6s-.58-.93-.58-1.59.2-1.23.6-1.64.9-.62,1.51-.62c.44,0,.84.12,1.2.35.36.24.64.57.82,1.01.19.44.28,1.06.28,1.89s-.09,1.54-.28,2.05c-.19.51-.46.9-.83,1.16s-.8.4-1.29.4c-.53,0-.95-.15-1.29-.44-.33-.29-.53-.7-.6-1.23ZM261.33,60.43c0-.47-.13-.85-.38-1.13-.25-.28-.55-.42-.91-.42s-.69.15-.96.45c-.27.3-.41.69-.41,1.16,0,.43.13.77.39,1.04.26.27.58.4.95.4s.7-.13.94-.4c.25-.27.37-.64.37-1.11Z" fill="#fff" stroke-width="0"/><path d="M263.1,59.11v-.79h4.35v.64c-.43.45-.85,1.06-1.27,1.81-.42.75-.74,1.53-.97,2.33-.16.56-.27,1.18-.32,1.85h-.85c0-.53.11-1.17.31-1.91s.48-1.47.85-2.16c.37-.69.77-1.28,1.18-1.76h-3.29Z" fill="#fff" stroke-width="0"/><path d="M271.37,64.94h-.82v-5.25c-.2.19-.46.38-.78.57-.32.19-.61.33-.87.43v-.8c.46-.22.86-.48,1.21-.79.34-.31.59-.61.73-.9h.53v6.74Z" fill="#fff" stroke-width="0"/><rect width="50.8" height="52.09" rx="8.79" ry="8.79" fill="#fff" stroke-width="0"/><polygon points="40.71 19.58 40.74 19.78 40.71 19.95 40.63 20.07 40.52 20.19 40.4 20.25 40.26 20.3 40.12 20.33 39.98 20.36 39.81 20.36 39.67 20.33 39.07 20.3 38.51 20.3 37.91 20.33 37.35 20.39 36.78 20.51 36.25 20.62 35.71 20.77 35.17 20.94 34.66 21.17 34.18 21.43 33.73 21.7 33.28 22.01 32.85 22.39 32.48 22.77 32.12 23.2 31.8 23.67 31.75 23.73 31.66 23.78 31.55 23.81 31.44 23.78 31.32 23.55 31.35 23.26 31.44 23 31.55 22.74 31.75 22.42 31.95 22.1 32.2 21.78 32.46 21.52 32.74 21.23 33.02 21 33.33 20.74 33.64 20.54 33.98 20.33 34.32 20.13 34.69 19.98 35.03 19.81 35.4 19.69 35.76 19.58 36.16 19.49 36.53 19.4 36.61 19.35 36.67 19.29 36.7 19.2 36.75 19.11 36.61 18.85 36.44 18.65 36.19 18.53 35.91 18.48 35.62 18.45 35.31 18.45 35 18.42 34.72 18.42 34.35 18.42 33.95 18.45 33.59 18.5 33.22 18.53 32.82 18.59 32.46 18.65 32.06 18.71 31.69 18.74 31.47 18.71 31.27 18.59 31.1 18.39 30.96 18.19 30.84 17.9 30.79 17.58 30.76 17.26 30.76 16.91 30.93 16.24 31.13 15.6 31.38 14.97 31.66 14.36 32 13.78 32.34 13.2 32.74 12.67 33.16 12.15 33.3 11.98 33.45 11.8 33.61 11.66 33.76 11.49 33.9 11.31 34.04 11.14 34.15 10.94 34.24 10.73 34.21 10.65 34.12 10.62 34.01 10.62 33.93 10.62 33.59 10.73 33.25 10.85 32.91 10.96 32.57 11.11 32.23 11.28 31.92 11.43 31.61 11.63 31.3 11.8 30.98 12.01 30.67 12.21 30.39 12.44 30.11 12.67 29.8 12.91 29.51 13.14 29.26 13.4 28.98 13.66 28.86 13.72 28.75 13.72 28.61 13.72 28.5 13.66 28.16 13.23 27.99 12.7 27.87 12.12 27.73 11.57 27.62 10.82 27.56 10.07 27.56 9.28 27.62 8.5 27.7 7.74 27.85 6.99 28.02 6.24 28.24 5.51 28.24 5.45 28.24 5.42 28.21 5.37 28.16 5.34 27.96 5.4 27.79 5.54 27.65 5.69 27.51 5.83 27.11 6.41 26.74 7.02 26.4 7.66 26.12 8.32 25.86 9.02 25.64 9.72 25.44 10.41 25.27 11.14 25.21 11.52 25.16 11.86 24.99 12.21 24.68 12.44 24.42 12.47 24.2 12.41 23.97 12.33 23.77 12.18 23.57 12.04 23.4 11.86 23.24 11.66 23.09 11.49 22.95 11.28 22.81 11.08 22.7 10.88 22.58 10.67 22.47 10.47 22.36 10.24 22.27 10.04 22.19 9.8 22.13 9.72 22.08 9.66 21.99 9.63 21.88 9.63 21.57 10.09 21.45 10.62 21.42 11.23 21.37 11.8 21.37 13.11 21.51 14.39 21.68 15.63 21.91 16.88 21.99 17.32 21.99 17.78 21.91 18.24 21.71 18.62 21.59 18.71 21.48 18.77 21.31 18.79 21.17 18.79 20.92 18.71 20.69 18.59 20.49 18.45 20.26 18.27 20.07 18.13 19.87 17.95 19.64 17.81 19.42 17.66 19.11 17.46 18.79 17.26 18.46 17.08 18.12 16.88 17.78 16.74 17.44 16.59 17.1 16.45 16.73 16.3 16.59 16.27 16.45 16.21 16.31 16.19 16.14 16.19 15.99 16.16 15.82 16.16 15.65 16.16 15.48 16.19 15.46 16.24 15.46 16.27 15.46 16.33 15.51 16.36 16.11 16.82 16.67 17.32 17.21 17.87 17.72 18.42 18.17 19.03 18.63 19.64 19.05 20.27 19.47 20.91 19.56 21.12 19.61 21.35 19.61 21.58 19.59 21.78 19.47 21.9 19.33 21.93 19.19 21.93 19.02 21.9 18.71 21.84 18.4 21.78 18.09 21.7 17.78 21.61 17.49 21.55 17.18 21.52 16.84 21.49 16.53 21.52 16.47 21.55 16.45 21.58 16.42 21.61 16.39 21.67 16.47 21.78 16.59 21.87 16.7 21.93 16.81 22.01 16.93 22.07 17.04 22.13 17.15 22.19 17.27 22.28 17.55 22.54 17.8 22.83 18.06 23.12 18.31 23.41 18.57 23.7 18.85 23.96 19.16 24.19 19.47 24.39 19.59 24.45 19.67 24.54 19.73 24.62 19.76 24.74 19.67 24.86 19.56 24.88 19.42 24.86 19.28 24.86 18.85 24.68 18.46 24.45 18.06 24.16 17.72 23.84 17.35 23.49 17.01 23.17 16.67 22.86 16.33 22.59 16.02 22.33 15.68 22.13 15.32 21.96 14.98 21.75 14.61 21.58 14.3 21.38 13.99 21.14 13.73 20.85 13.73 20.77 13.73 20.68 13.76 20.59 13.79 20.54 14.1 20.42 14.41 20.33 14.75 20.3 15.09 20.3 15.46 20.33 15.8 20.36 16.14 20.42 16.47 20.45 16.79 20.48 17.07 20.54 17.35 20.59 17.61 20.68 17.89 20.77 18.14 20.85 18.4 20.94 18.68 21.03 18.74 21.06 18.79 21.03 18.88 21.03 18.91 20.97 18.79 20.77 18.68 20.56 18.54 20.36 18.4 20.19 18.26 20.01 18.09 19.81 17.95 19.64 17.8 19.46 17.38 19.06 16.96 18.65 16.5 18.27 16.05 17.9 15.57 17.52 15.09 17.2 14.58 16.88 14.04 16.62 13.85 16.53 13.65 16.42 13.45 16.27 13.31 16.07 13.31 15.89 13.34 15.75 13.39 15.63 13.51 15.52 13.93 15.29 14.38 15.14 14.86 15.02 15.4 14.97 15.91 15 16.42 15.05 16.9 15.14 17.35 15.31 17.8 15.52 18.26 15.78 18.68 16.04 19.08 16.33 19.5 16.65 19.9 16.97 20.29 17.26 20.69 17.58 20.83 17.66 21 17.72 21.14 17.78 21.31 17.75 21.4 17.61 21.4 17.43 21.37 17.26 21.34 17.08 21.17 16.3 20.94 15.52 20.72 14.76 20.46 14.01 20.24 13.23 20.07 12.44 20.01 11.63 20.04 10.76 20.1 10.27 20.18 9.8 20.29 9.37 20.43 8.93 20.6 8.53 20.8 8.09 21.03 7.72 21.28 7.31 21.42 7.19 21.62 7.11 21.82 7.08 22.02 7.11 22.22 7.25 22.39 7.43 22.53 7.63 22.64 7.83 22.75 8.03 22.87 8.27 22.95 8.5 23.01 8.73 23.09 9.14 23.18 9.54 23.29 9.95 23.38 10.33 23.52 10.73 23.66 11.11 23.83 11.46 24.06 11.8 24.11 11.83 24.2 11.89 24.25 11.92 24.34 11.89 24.42 11.78 24.48 11.63 24.48 11.46 24.48 11.28 24.51 10.24 24.65 9.25 24.85 8.27 25.19 7.31 25.58 6.41 26.06 5.57 26.66 4.76 27.31 4 27.56 3.8 27.85 3.57 28.1 3.37 28.38 3.16 28.64 2.99 28.95 2.84 29.26 2.7 29.6 2.61 29.97 3.19 29.74 4.29 29.51 5.4 29.29 6.53 29.12 7.63 28.98 8.76 28.86 9.89 28.84 11.05 28.89 12.21 28.95 12.33 29.06 12.41 29.17 12.44 29.29 12.41 29.66 12.15 30.02 11.86 30.39 11.57 30.79 11.28 31.18 10.99 31.58 10.7 31.97 10.47 32.37 10.24 32.71 10.07 33.08 9.89 33.45 9.72 33.81 9.57 34.18 9.43 34.58 9.31 34.97 9.22 35.4 9.17 35.59 9.17 35.79 9.19 35.99 9.19 36.19 9.19 36.39 9.25 36.56 9.31 36.7 9.43 36.81 9.6 36.84 9.83 36.81 10.04 36.73 10.24 36.61 10.41 36.3 10.73 35.99 11.05 35.68 11.37 35.37 11.69 35.06 12.01 34.75 12.33 34.44 12.65 34.12 12.96 33.81 13.31 33.53 13.63 33.25 13.98 32.97 14.33 32.68 14.68 32.43 15.02 32.17 15.4 31.95 15.78 31.72 16.21 31.55 16.68 31.44 17.17 31.49 17.69 31.58 17.78 31.66 17.84 31.75 17.9 31.86 17.92 32.29 17.9 32.71 17.87 33.13 17.81 33.56 17.75 33.95 17.69 34.38 17.63 34.8 17.58 35.23 17.58 35.59 17.58 35.96 17.58 36.33 17.58 36.7 17.61 37.07 17.63 37.43 17.69 37.77 17.78 38.11 17.87 38.45 17.95 38.79 18.1 39.1 18.21 39.41 18.39 39.7 18.56 39.98 18.77 40.26 19 40.52 19.23 40.63 19.37 40.71 19.58" fill="#00a1a6" stroke-width="0"/><path d="M24.14,42.32l.17.09.14.12.17.09.14.12.14.09.14.12.17.09.14.12h.17l.31-.2.31-.2.31-.2.31-.2.28-.23.31-.2.28-.23.31-.23v-.12l-.31-.17-.31-.17-.28-.23-.28-.2-.28-.23-.28-.23-.28-.23-.28-.23-.31.26-.34.26-.31.26-.31.26-.31.26-.31.23-.31.26-.34.23.14.09.11.09.14.09.14.09.11.09.14.09.11.09.14.09ZM24.62,36.89l.11.09.11.12.11.09.11.09.08.12.11.09.11.12.11.09.17.06.31-.26.34-.26.31-.26.31-.26.28-.26.31-.26.28-.26.31-.26-.23-.17-.2-.15-.23-.17-.23-.17-.23-.17-.23-.17-.23-.17-.2-.17-.2-.14-.2-.17-.2-.15-.2-.14-.34.23-.31.23-.34.23-.31.2-.34.23-.34.23-.31.2-.34.23.2.17.2.17.2.17.23.17.2.18.23.17.2.2.23.17ZM23.63,37.88l-.25-.23-.28-.2-.25-.23-.25-.2-.25-.23-.28-.2-.25-.2-.28-.2-.31.09-.31.09-.34.09-.34.06-.37.06-.34.06-.37.03h-.74l-.34-.03-.34-.06-.34-.12-.31-.12-.31-.15-.28-.2-.25-.23-.25-.35-.17-.41-.11-.44v-.46l.03-.44.14-.46.17-.41.23-.38.06-.06.08-.06.08-.03h.11l.08.23-.17.52-.11.52-.03.55.17.52.34.35.4.26.45.15.48.09.51.03h.54l.51-.06.48-.09.14-.09-.08-.12-.11-.09-.11-.12-.14-.09-.28-.26-.31-.26-.31-.26-.34-.26-.31-.26-.28-.32-.23-.32-.17-.35-.03-.29.08-.23.14-.23.11-.2.08-.06.08.03.08.03.08.06.42.38.42.38.42.35.45.35.42.35.45.38.42.35.45.38.34-.2.34-.23.31-.2.34-.23.31-.23.31-.23.34-.23.31-.26v-.09l-.4-.32-.4-.35-.4-.32-.4-.35-.4-.32-.42-.35-.4-.32-.42-.32-.34.15-.34.12-.37.06h-.4l-.4-.03-.37-.09-.34-.12-.34-.17-.25-.17-.23-.2-.17-.26-.11-.32v-.46l.14-.41.23-.38.28-.32.14-.12.14-.09.14-.12.14-.09.14-.09.17-.09.14-.06.17-.06.08-.03.06.03.06.03.06.06-.08.2-.17.14-.2.12-.17.12-.28.23-.25.32-.14.35v.43l.06.15.08.12.08.12.11.09.2.06.2.06.2.03h.2l.2-.03.2-.03.2-.06.2-.06-.08-.11-.08-.15-.08-.12-.08-.12-.08-.17-.03-.23v-.2l.06-.2.08-.15.11-.14.11-.12.14-.06.2.12.17.15.2.17.2.14.17.17.2.15.17.17.17.14,3.73,3.19h.11l.31-.26.31-.23.31-.26.31-.23.31-.26.31-.23.31-.26.31-.26v-.06l-3.7-3.02-.11-.14-.14-.15-.14-.15-.14-.17-.08-.17-.08-.18v-.2l.03-.23.08-.17.08-.17.11-.12.11-.12.14.03,4.13,3.42.82.7.23-.15.2-.14.2-.14.2-.17.2-.15.2-.17.2-.14.23-.12.11.09.11.15.06.17.08.15.03.38-.11.32-.2.29-.2.29.14.03h.17l.14.03.17-.03.14-.03.14-.03.14-.06.11-.09.14-.15.08-.17.03-.17v-.2l-.06-.23-.08-.2-.06-.23.03-.2h.25l.14.15.11.23.11.2.11.35.03.38-.03.38-.14.32-.17.23-.2.2-.23.17-.23.12-.25.12-.28.06-.28.03h-.28l-.14-.03-.14-.03h-.14l-.14-.03-.14-.03-.14-.03-.11-.03-.14-.03-.34.26-.37.29-.34.26-.37.29-.37.29-.34.29-.37.29-.34.29v.09l.28.26.28.26.28.23.28.26.28.23.31.23.31.23.31.23.11-.03.42-.38.4-.35.42-.35.42-.35.42-.35.4-.35.42-.35.4-.35.08-.03.08.03.06.03.06.06.11.23.08.2.06.26-.03.26-.2.38-.25.32-.31.32-.31.26-.34.29-.34.26-.34.29-.28.29v.06l.06.03.06.03h.06l.37.06.37.03h.34l.37-.03.34-.09.34-.12.28-.17.25-.26.25-.44.08-.46-.03-.52-.11-.46-.06-.2-.08-.23-.03-.2.11-.17.25.14.17.23.11.29.11.26.2.67.03.7-.17.67-.37.61-.37.32-.42.23-.45.17-.48.09-.48.06h-.51l-.51-.03-.48-.09-.76-.2-.34.29-.37.29-.34.29-.34.29-.34.29-.34.26-.34.32-.34.29.25.26.28.23.28.26.28.23.31.23.28.23.34.17.34.17.4-.29.42-.32.4-.32.4-.32.4-.32.42-.32.4-.32.4-.32.17.03.11.23.11.26.06.29-.06.29-.14.29-.2.23-.2.23-.23.18-.23.2-.23.2-.25.17-.23.2v.06l.51-.03.48-.09.45-.17.45-.2.39-.29.37-.35.28-.38.25-.44.11-.38.09-.41.03-.41-.03-.44.03-.06.06-.09.06-.03.06-.03.11.03.08.06.06.09.03.09.08.52.06.49-.03.52-.11.49-.17.46-.23.44-.31.41-.37.35-.42.29-.48.26-.51.17-.51.15-.54.09-.57.03-.54-.03-.57-.09-.23.12-.2.14-.2.15-.17.14-.2.17-.17.15-.2.14-.2.15-.17.12-.17.15-.2.12-.17.12-.17.12-.17.12-.17.12-.17.15.28.2.28.17.28.17.31.15.34.15.31.14.34.12.34.09.37.06.34.06h.68l.37-.03.34-.09.31-.09.34-.15.31-.2.28-.23.25-.29.23-.29.17-.32.17-.35.17-.35.14-.35.08-.06.08-.03h.11l.08.03.09.32-.03.35-.09.35-.11.35-.25.55-.31.49-.4.46-.45.38-.51.35-.54.23-.57.17-.62.06h-.34l-.34-.03-.34-.06-.34-.06-.31-.09-.31-.09-.31-.12-.28-.12-.31-.14-.28-.14-.28-.15-.28-.15-.28-.17-.28-.15-.28-.17-.28-.14-.34.17-.34.2-.34.17-.34.2-.34.17-.37.17-.34.17-.37.17-.34.15-.37.12-.4.09-.37.09-.4.03h-.4l-.42-.03-.42-.06-.62-.2-.57-.29-.51-.35-.42-.46-.37-.49-.28-.55-.23-.58-.14-.61v-.12l.03-.12.03-.09.06-.09.08-.03h.08l.08.03.06.03.14.35.17.38.2.35.2.32.25.32.25.29.31.26.34.2.23.09.25.09.25.09.28.03.25.03.28.03.25-.03.28-.03.45-.09.42-.12.42-.17.42-.17.4-.17.42-.23.37-.23.4-.23-.03-.09-.14-.09-.14-.09-.11-.09-.14-.09-.11-.09-.14-.09-.11-.09-.14-.09-.2-.12-.17-.15-.2-.12-.17-.14-.2-.12-.17-.14-.2-.12-.17-.14-.54.11-.57.06-.59.03-.57-.03-.54-.06-.57-.14-.51-.17-.48-.26-.4-.23-.34-.32-.28-.35-.23-.38-.2-.44-.11-.43-.03-.46.03-.49.06-.29.06-.29.11-.26.2-.23h.11l.06.06.03.03v.29l-.03.29.03.32.03.29.17.49.25.43.28.41.37.35.4.26.45.23.48.15.51.09.14.03h.11l.14.03h.37l.14-.03.11-.03v-.06l-.28-.23-.31-.23-.28-.23-.31-.26-.31-.23-.28-.26-.25-.29-.23-.29-.11-.32v-.32l.11-.32.17-.29.11-.03.08.03.11.03.08.06.42.35.42.35.42.35.42.35.45.32.42.32.45.35.42.32.37-.23.31-.23.34-.23.31-.26.28-.26.31-.29.31-.26.31-.29-.03-.09-.11-.09-.11-.09-.11-.09-.08-.09-.11-.09-.11-.09-.11-.09-.11-.09Z" fill="#32124b" stroke-width="0"/><polygon points="31.83 31.88 31.86 31.96 31.83 32.02 31.78 32.08 31.69 32.11 31.52 32.02 31.38 31.9 31.21 31.79 31.07 31.7 30.9 31.59 30.76 31.47 30.59 31.35 30.45 31.24 30.45 31.12 30.98 30.77 31.1 30.89 31.21 31.03 31.32 31.15 31.44 31.29 31.52 31.44 31.64 31.59 31.75 31.73 31.83 31.88" fill="#32124b" stroke-width="0"/><polygon points="31.61 37.91 31.61 38 31.58 38.05 31.52 38.08 31.47 38.08 31.3 38 31.15 37.88 30.98 37.79 30.84 37.68 30.7 37.56 30.56 37.44 30.39 37.3 30.25 37.18 30.33 37.04 30.48 36.92 30.62 36.83 30.76 36.72 30.87 36.78 31.61 37.91" fill="#32124b" stroke-width="0"/><polygon points="31.1 47.3 31.1 47.45 31.07 47.57 30.9 47.91 30.7 48.2 30.48 48.47 30.22 48.67 29.97 48.87 29.66 49.02 29.34 49.13 29 49.22 28.64 49.28 28.3 49.34 27.93 49.39 27.56 49.42 27.17 49.42 26.8 49.45 26.46 49.45 26.09 49.48 25.75 49.48 25.41 49.48 25.07 49.48 24.73 49.48 24.42 49.48 24.08 49.48 23.74 49.48 23.43 49.45 23.09 49.42 22.78 49.39 22.44 49.36 22.13 49.31 21.79 49.25 21.48 49.19 21.17 49.1 20.86 49.02 20.63 48.9 20.43 48.76 20.24 48.58 20.07 48.41 19.9 48.23 19.76 48.03 19.61 47.8 19.53 47.57 19.53 47.45 19.53 47.33 19.53 47.25 19.61 47.19 19.7 47.13 19.81 47.13 19.93 47.16 20.01 47.19 20.07 47.3 20.15 47.42 20.26 47.51 20.35 47.6 20.46 47.68 20.6 47.74 20.72 47.8 20.86 47.86 21.31 47.97 21.79 48.06 22.27 48.15 22.75 48.2 23.24 48.26 23.74 48.32 24.25 48.35 24.73 48.35 25.24 48.35 25.75 48.35 26.26 48.35 26.77 48.32 27.25 48.29 27.73 48.23 28.21 48.17 28.69 48.12 28.95 48.06 29.2 48.03 29.46 47.94 29.71 47.86 29.94 47.74 30.16 47.6 30.36 47.42 30.5 47.19 30.59 47.13 30.7 47.07 30.81 47.04 30.93 47.1 31.04 47.19 31.1 47.3" fill="#32124b" stroke-width="0"/><polygon points="31.1 32.51 31.1 32.6 31.07 32.66 31.01 32.72 30.96 32.72 30.79 32.63 30.62 32.54 30.48 32.43 30.31 32.31 30.16 32.19 29.99 32.08 29.85 31.96 29.68 31.85 29.82 31.7 29.97 31.56 30.11 31.44 30.28 31.38 31.1 32.51" fill="#32124b" stroke-width="0"/><polygon points="30.87 38.52 30.87 38.55 30.84 38.6 30.81 38.66 30.73 38.72 30.67 38.72 30.59 38.66 30.5 38.6 30.39 38.49 30.25 38.4 30.11 38.29 29.99 38.2 29.85 38.11 29.71 38 29.57 37.91 29.46 37.79 29.57 37.68 29.71 37.53 29.82 37.42 29.97 37.33 30.08 37.36 30.84 38.46 30.87 38.52" fill="#32124b" stroke-width="0"/><polygon points="30.45 24.31 30.45 24.42 30.42 24.54 30.42 24.62 30.31 24.65 30.19 24.65 30.08 24.62 29.99 24.57 29.46 24.04 28.95 23.49 28.52 22.88 28.16 22.25 27.85 21.58 27.62 20.88 27.45 20.16 27.36 19.4 27.34 19.35 27.31 19.29 27.25 19.26 27.19 19.23 26.91 19.26 26.66 19.32 26.43 19.43 26.2 19.55 25.98 19.72 25.75 19.87 25.55 20.04 25.36 20.22 25.02 20.56 24.71 20.91 24.39 21.26 24.14 21.64 23.86 22.01 23.63 22.42 23.4 22.83 23.18 23.23 23.01 23.46 22.84 23.7 22.61 23.9 22.41 24.07 22.19 24.25 21.93 24.39 21.68 24.51 21.42 24.62 21.31 24.62 21.23 24.65 21.14 24.65 21.06 24.6 21 24.51 21 24.42 21.03 24.33 21.06 24.22 21.42 23.99 21.74 23.7 21.99 23.38 22.22 23.03 22.41 22.68 22.58 22.3 22.75 21.9 22.9 21.52 23.09 21.17 23.32 20.82 23.57 20.48 23.83 20.16 24.11 19.84 24.42 19.55 24.73 19.26 25.07 19 25.44 18.74 25.78 18.53 26.18 18.3 26.54 18.13 26.94 17.95 27.34 17.81 27.73 17.69 28.16 17.61 28.35 17.61 28.55 17.58 28.75 17.61 28.95 17.66 29.06 17.78 29.09 17.95 29.09 18.16 29.06 18.33 28.84 19.11 28.72 19.93 28.75 20.71 28.89 21.49 29.15 22.22 29.49 22.94 29.91 23.61 30.39 24.22 30.45 24.31" fill="#00a1a6" stroke-width="0"/><polygon points="30.36 33.15 30.36 33.21 30.33 33.3 30.31 33.33 30.22 33.35 30.05 33.3 29.88 33.18 29.74 33.09 29.57 32.95 29.43 32.83 29.26 32.72 29.12 32.6 28.95 32.49 28.95 32.4 29.09 32.31 29.2 32.19 29.34 32.08 29.49 32.02 30.36 33.15" fill="#32124b" stroke-width="0"/><polygon points="30.08 39.18 30.08 39.24 30.05 39.27 29.99 39.3 29.91 39.33 29.74 39.21 29.57 39.13 29.43 39.01 29.26 38.89 29.12 38.78 28.98 38.63 28.84 38.52 28.69 38.4 28.84 38.26 28.98 38.14 29.12 38.02 29.29 37.97 29.51 38.26 29.71 38.58 29.91 38.87 30.08 39.18" fill="#32124b" stroke-width="0"/><polygon points="29.6 33.85 29.6 33.93 29.54 33.96 29.49 33.99 29.32 33.91 29.15 33.82 28.98 33.7 28.81 33.59 28.64 33.47 28.5 33.35 28.33 33.21 28.19 33.09 28.3 32.98 28.44 32.86 28.55 32.75 28.67 32.63 28.75 32.63 29.6 33.79 29.6 33.85" fill="#32124b" stroke-width="0"/><polygon points="29.32 39.76 29.32 39.82 29.29 39.88 29.23 39.91 29.17 39.94 29.09 39.94 29.03 39.88 27.93 39.01 28.04 38.89 28.16 38.78 28.3 38.66 28.47 38.55 28.69 38.81 28.92 39.1 29.09 39.39 29.29 39.68 29.29 39.74 29.32 39.76" fill="#32124b" stroke-width="0"/><polygon points="28.55 25.76 28.58 25.87 27.36 26.77 27.31 26.77 27.25 26.74 27.19 26.68 27.19 26.63 27.36 26.31 27.56 25.99 27.79 25.73 27.99 25.44 28.04 25.41 28.1 25.41 28.16 25.44 28.21 25.47 28.33 25.58 28.44 25.67 28.55 25.76" fill="#32124b" stroke-width="0"/><polygon points="27.85 25.18 27.85 25.23 26.66 26.1 26.54 26.13 26.46 26.05 26.43 25.93 26.49 25.81 26.6 25.67 26.69 25.55 26.8 25.41 26.91 25.29 27 25.15 27.11 25.03 27.22 24.88 27.34 24.77 27.48 24.86 27.59 24.94 27.7 25.06 27.85 25.18" fill="#32124b" stroke-width="0"/><polygon points="27.76 16.68 27.79 16.88 27.68 16.94 27.53 16.94 27.39 16.88 27.25 16.79 27 16.59 26.77 16.36 26.54 16.1 26.35 15.81 26.15 15.55 26.01 15.23 25.84 14.94 25.72 14.65 25.67 14.59 25.61 14.53 25.53 14.5 25.44 14.5 25.33 14.56 25.24 14.62 25.16 14.73 25.07 14.82 24.73 15.31 24.42 15.84 24.14 16.36 23.91 16.91 23.72 17.46 23.55 18.04 23.4 18.62 23.29 19.23 23.26 19.32 23.21 19.4 23.15 19.46 23.07 19.49 22.95 19.46 22.87 19.4 22.78 19.32 22.73 19.2 22.67 18.45 22.73 17.66 22.84 16.88 23.01 16.16 23.15 15.78 23.29 15.43 23.46 15.11 23.66 14.79 23.89 14.5 24.11 14.21 24.37 13.92 24.62 13.66 24.85 13.46 25.07 13.26 25.3 13.05 25.55 12.85 25.81 12.7 26.06 12.56 26.35 12.47 26.66 12.44 26.74 12.47 26.8 12.53 26.83 12.62 26.86 12.7 26.77 13.63 26.83 14.53 27 15.37 27.36 16.16 27.51 16.33 27.68 16.5 27.76 16.68" fill="#00a1a6" stroke-width="0"/><polygon points="27.08 24.6 26.94 24.71 26.8 24.86 26.63 24.97 26.49 25.09 26.32 25.18 26.18 25.29 26.01 25.41 25.86 25.49 25.81 25.49 25.75 25.47 25.7 25.44 25.67 25.38 25.75 25.2 25.86 25.06 25.98 24.88 26.09 24.74 26.2 24.6 26.32 24.45 26.4 24.31 26.52 24.16 26.63 24.16 27.08 24.6" fill="#32124b" stroke-width="0"/><polygon points="26.32 23.93 26.32 24.02 25.24 24.83 25.19 24.86 25.1 24.86 25.02 24.86 24.96 24.83 24.93 24.74 24.96 24.65 24.99 24.6 25.04 24.51 25.81 23.52 25.95 23.61 26.06 23.7 26.2 23.81 26.32 23.93" fill="#32124b" stroke-width="0"/><polygon points="24.71 28.54 24.56 28.68 23.49 29.44 23.43 29.44 23.38 29.41 23.32 29.38 23.26 29.32 23.32 29.15 24.17 28.08 24.34 28.16 24.48 28.31 24.59 28.42 24.71 28.54" fill="#32124b" stroke-width="0"/><polygon points="23.86 27.76 23.97 27.9 23.83 28.02 23.69 28.13 23.55 28.25 23.4 28.34 23.24 28.45 23.09 28.57 22.92 28.66 22.78 28.77 22.73 28.77 22.7 28.77 22.64 28.77 22.58 28.77 22.5 28.66 22.56 28.54 22.64 28.45 22.7 28.34 23.43 27.47 23.57 27.55 23.74 27.64 23.86 27.76" fill="#32124b" stroke-width="0"/><polygon points="23.24 27.23 23.24 27.29 22.05 28.16 21.96 28.16 21.88 28.16 21.82 28.11 21.79 28.02 21.88 27.84 22.67 26.83 22.84 26.89 22.98 27 23.09 27.12 23.24 27.23" fill="#32124b" stroke-width="0"/><polygon points="22.73 38.89 22.73 38.95 21.57 39.85 21.51 39.85 21.45 39.85 21.4 39.85 21.37 39.79 21.34 39.74 21.37 39.65 21.4 39.56 21.42 39.5 22.13 38.52 22.3 38.55 22.47 38.66 22.58 38.78 22.73 38.89" fill="#32124b" stroke-width="0"/><polygon points="22.58 32.66 22.58 32.72 21.4 33.59 21.31 33.59 21.25 33.59 21.2 33.56 21.17 33.5 21.25 33.33 21.34 33.15 21.45 33.01 21.57 32.86 21.68 32.72 21.79 32.54 21.91 32.4 22.02 32.25 22.19 32.31 22.3 32.4 22.44 32.54 22.58 32.66" fill="#32124b" stroke-width="0"/><polygon points="22.5 26.63 22.33 26.8 22.13 26.92 21.93 27.06 21.74 27.21 21.59 27.32 21.45 27.41 21.28 27.5 21.11 27.53 21.09 27.47 21.06 27.38 21.06 27.32 21.11 27.26 21.96 26.16 22.13 26.25 22.25 26.36 22.36 26.51 22.5 26.63" fill="#32124b" stroke-width="0"/><polygon points="21.99 38.31 21.85 38.43 21.71 38.55 21.57 38.69 21.4 38.81 21.25 38.92 21.11 39.04 20.97 39.13 20.8 39.24 20.75 39.24 20.66 39.24 20.6 39.21 20.58 39.16 20.75 38.81 20.94 38.49 21.17 38.2 21.4 37.91 21.51 37.91 21.99 38.31" fill="#32124b" stroke-width="0"/><polygon points="21.82 32.02 21.79 32.14 20.6 32.98 20.55 32.98 20.49 32.95 20.43 32.89 20.41 32.86 20.43 32.72 21.25 31.61 21.4 31.67 21.54 31.76 21.68 31.9 21.82 32.02" fill="#32124b" stroke-width="0"/><polygon points="21.23 37.73 21.09 37.85 20.94 38 20.77 38.08 20.63 38.2 20.46 38.31 20.32 38.43 20.15 38.55 20.01 38.66 19.95 38.66 19.87 38.63 19.81 38.6 19.78 38.55 19.9 38.31 20.04 38.08 20.18 37.91 20.32 37.7 20.43 37.59 20.52 37.42 20.63 37.3 20.8 37.33 21.23 37.73" fill="#32124b" stroke-width="0"/><polygon points="21.09 31.41 20.97 31.56 19.84 32.37 19.76 32.37 19.7 32.34 19.67 32.28 19.64 32.22 19.73 32.05 19.81 31.9 19.93 31.76 20.04 31.61 20.15 31.44 20.26 31.29 20.38 31.15 20.49 31.01 20.55 30.98 20.63 31.01 20.69 31.06 20.75 31.09 21.09 31.41" fill="#32124b" stroke-width="0"/><polygon points="20.43 37.07 20.43 37.15 19.22 38.05 19.16 38.02 19.13 38.02 19.08 38 19.02 37.97 19.08 37.76 19.84 36.66 20.01 36.75 20.15 36.83 20.29 36.95 20.43 37.07" fill="#32124b" stroke-width="0"/><polygon points="20.32 30.8 20.18 30.92 20.04 31.06 19.87 31.18 19.73 31.29 19.56 31.41 19.39 31.5 19.22 31.61 19.05 31.7 19.02 31.73 18.96 31.7 18.94 31.64 18.88 31.61 18.94 31.47 19.02 31.32 19.13 31.18 19.25 31.03 19.39 30.89 19.5 30.71 19.64 30.54 19.81 30.4 19.95 30.48 20.07 30.6 20.18 30.69 20.32 30.8" fill="#32124b" stroke-width="0"/></svg>