<?xml version="1.0" encoding="UTF-8"?><svg id="Layer_1" xmlns="http://www.w3.org/2000/svg" width="1.4in" height="1.4in" viewBox="0 0 100.8 100.8"><rect x="2.17" y=".95" width="96.8" height="99.27" rx="16.76" ry="16.76" fill="#fff" stroke-width="0"/><polygon points="79.76 38.26 79.81 38.65 79.76 38.98 79.59 39.2 79.38 39.42 79.16 39.53 78.9 39.64 78.63 39.7 78.36 39.75 78.03 39.75 77.76 39.7 76.63 39.64 75.55 39.64 74.42 39.7 73.34 39.81 72.27 40.03 71.24 40.25 70.22 40.53 69.2 40.86 68.22 41.3 67.31 41.8 66.45 42.3 65.58 42.91 64.77 43.62 64.07 44.34 63.37 45.17 62.78 46.06 62.67 46.17 62.51 46.28 62.29 46.33 62.08 46.28 61.86 45.83 61.92 45.28 62.08 44.78 62.29 44.29 62.67 43.68 63.05 43.07 63.54 42.46 64.02 41.96 64.56 41.41 65.1 40.97 65.69 40.47 66.28 40.08 66.93 39.7 67.58 39.31 68.28 39.04 68.92 38.7 69.63 38.48 70.33 38.26 71.08 38.1 71.78 37.93 71.94 37.82 72.05 37.71 72.1 37.54 72.21 37.38 71.94 36.88 71.62 36.49 71.14 36.27 70.59 36.16 70.06 36.11 69.46 36.11 68.87 36.05 68.33 36.05 67.63 36.05 66.87 36.11 66.18 36.22 65.47 36.27 64.72 36.38 64.02 36.49 63.26 36.6 62.56 36.66 62.13 36.6 61.75 36.38 61.43 36 61.16 35.61 60.94 35.06 60.84 34.45 60.78 33.84 60.78 33.18 61.11 31.91 61.49 30.69 61.97 29.47 62.51 28.31 63.16 27.21 63.8 26.1 64.56 25.11 65.37 24.11 65.64 23.78 65.91 23.45 66.23 23.17 66.5 22.84 66.77 22.51 67.04 22.18 67.25 21.79 67.41 21.4 67.36 21.24 67.2 21.18 66.98 21.18 66.82 21.18 66.18 21.4 65.53 21.63 64.88 21.85 64.24 22.12 63.59 22.45 62.99 22.73 62.4 23.12 61.81 23.45 61.22 23.84 60.62 24.22 60.08 24.67 59.55 25.11 58.95 25.55 58.41 25.99 57.93 26.49 57.39 26.99 57.17 27.1 56.96 27.1 56.69 27.1 56.47 26.99 55.82 26.16 55.5 25.16 55.29 24.06 55.02 23.01 54.8 21.57 54.7 20.13 54.7 18.64 54.8 17.15 54.96 15.71 55.23 14.27 55.56 12.84 55.99 11.46 55.99 11.35 55.99 11.29 55.94 11.18 55.82 11.13 55.45 11.23 55.13 11.51 54.86 11.79 54.59 12.06 53.83 13.17 53.13 14.33 52.49 15.55 51.95 16.82 51.46 18.14 51.03 19.47 50.65 20.8 50.33 22.18 50.22 22.9 50.11 23.56 49.79 24.22 49.2 24.67 48.71 24.72 48.28 24.61 47.85 24.44 47.47 24.17 47.1 23.89 46.77 23.56 46.45 23.17 46.18 22.84 45.91 22.45 45.64 22.07 45.43 21.68 45.21 21.29 44.99 20.91 44.78 20.46 44.62 20.08 44.45 19.64 44.35 19.47 44.24 19.36 44.08 19.3 43.86 19.3 43.27 20.19 43.05 21.18 43 22.34 42.89 23.45 42.89 25.94 43.16 28.37 43.49 30.75 43.92 33.12 44.08 33.95 44.08 34.83 43.92 35.72 43.54 36.44 43.32 36.6 43.11 36.71 42.78 36.77 42.51 36.77 42.03 36.6 41.6 36.38 41.22 36.11 40.79 35.78 40.41 35.5 40.03 35.17 39.6 34.89 39.17 34.61 38.58 34.23 37.99 33.84 37.34 33.51 36.69 33.12 36.05 32.84 35.4 32.57 34.75 32.29 34.05 32.02 33.78 31.96 33.51 31.85 33.24 31.8 32.92 31.8 32.65 31.74 32.33 31.74 32 31.74 31.68 31.8 31.63 31.91 31.63 31.96 31.63 32.07 31.74 32.13 32.86 33.01 33.94 33.95 34.97 35 35.94 36.05 36.8 37.21 37.66 38.37 38.47 39.59 39.28 40.8 39.44 41.19 39.55 41.63 39.55 42.08 39.5 42.46 39.28 42.68 39.01 42.74 38.74 42.74 38.42 42.68 37.82 42.57 37.23 42.46 36.64 42.3 36.05 42.13 35.51 42.02 34.91 41.96 34.27 41.91 33.67 41.96 33.57 42.02 33.51 42.08 33.46 42.13 33.41 42.24 33.57 42.46 33.78 42.63 34 42.74 34.21 42.91 34.43 43.02 34.64 43.12 34.86 43.24 35.08 43.4 35.62 43.9 36.1 44.45 36.58 45 37.07 45.56 37.56 46.11 38.09 46.61 38.69 47.05 39.28 47.44 39.5 47.55 39.66 47.71 39.77 47.88 39.82 48.1 39.66 48.32 39.44 48.37 39.17 48.32 38.9 48.32 38.09 47.99 37.34 47.55 36.58 46.99 35.94 46.39 35.24 45.72 34.59 45.11 33.94 44.51 33.3 44.01 32.7 43.51 32.06 43.12 31.36 42.79 30.71 42.41 30.01 42.08 29.42 41.69 28.82 41.25 28.34 40.69 28.34 40.53 28.34 40.36 28.39 40.2 28.45 40.08 29.04 39.86 29.63 39.7 30.28 39.64 30.93 39.64 31.63 39.7 32.27 39.75 32.92 39.86 33.57 39.92 34.16 39.98 34.7 40.08 35.24 40.2 35.72 40.36 36.26 40.53 36.74 40.69 37.23 40.86 37.77 41.03 37.88 41.08 37.99 41.03 38.15 41.03 38.2 40.91 37.99 40.53 37.77 40.14 37.5 39.75 37.23 39.42 36.96 39.09 36.64 38.7 36.37 38.37 36.1 38.04 35.29 37.27 34.48 36.49 33.62 35.78 32.76 35.06 31.84 34.34 30.93 33.73 29.96 33.12 28.93 32.62 28.56 32.46 28.18 32.24 27.8 31.96 27.53 31.58 27.53 31.24 27.58 30.97 27.69 30.75 27.91 30.52 28.72 30.08 29.58 29.8 30.5 29.58 31.52 29.47 32.49 29.53 33.46 29.64 34.38 29.8 35.24 30.14 36.1 30.52 36.96 31.02 37.77 31.52 38.53 32.07 39.33 32.68 40.09 33.29 40.84 33.84 41.6 34.45 41.87 34.61 42.19 34.72 42.46 34.83 42.78 34.78 42.95 34.5 42.95 34.17 42.89 33.84 42.84 33.51 42.51 32.02 42.08 30.52 41.65 29.09 41.17 27.65 40.74 26.16 40.41 24.67 40.31 23.12 40.36 21.46 40.47 20.52 40.63 19.64 40.84 18.81 41.11 17.98 41.44 17.2 41.81 16.38 42.25 15.66 42.73 14.88 43 14.66 43.38 14.5 43.75 14.44 44.13 14.5 44.51 14.77 44.83 15.1 45.1 15.49 45.32 15.88 45.53 16.26 45.75 16.71 45.91 17.15 46.02 17.59 46.18 18.37 46.34 19.14 46.56 19.91 46.72 20.63 46.99 21.4 47.26 22.12 47.58 22.79 48.01 23.45 48.12 23.51 48.28 23.62 48.39 23.67 48.55 23.62 48.71 23.39 48.82 23.12 48.82 22.79 48.82 22.45 48.87 20.46 49.14 18.59 49.52 16.71 50.17 14.88 50.92 13.17 51.84 11.57 52.97 10.02 54.21 8.58 54.7 8.19 55.23 7.75 55.72 7.37 56.26 6.98 56.74 6.65 57.34 6.37 57.93 6.1 58.58 5.93 59.28 7.03 58.84 9.13 58.41 11.23 57.98 13.39 57.66 15.49 57.39 17.65 57.17 19.8 57.12 22.01 57.23 24.22 57.34 24.44 57.55 24.61 57.77 24.67 57.98 24.61 58.68 24.11 59.38 23.56 60.08 23.01 60.84 22.45 61.59 21.9 62.35 21.35 63.1 20.91 63.86 20.46 64.51 20.13 65.21 19.8 65.91 19.47 66.61 19.19 67.31 18.92 68.06 18.7 68.82 18.53 69.63 18.42 70 18.42 70.38 18.47 70.76 18.47 71.14 18.47 71.51 18.59 71.83 18.7 72.1 18.92 72.32 19.25 72.37 19.69 72.32 20.08 72.16 20.46 71.94 20.8 71.35 21.4 70.76 22.01 70.16 22.62 69.57 23.23 68.98 23.84 68.39 24.44 67.79 25.05 67.2 25.66 66.61 26.32 66.06 26.93 65.53 27.59 64.99 28.26 64.45 28.92 63.97 29.58 63.48 30.3 63.05 31.02 62.62 31.85 62.29 32.74 62.08 33.67 62.19 34.67 62.35 34.83 62.51 34.95 62.67 35.06 62.89 35.11 63.7 35.06 64.51 35 65.31 34.89 66.12 34.78 66.87 34.67 67.69 34.56 68.49 34.45 69.3 34.45 70 34.45 70.7 34.45 71.4 34.45 72.1 34.5 72.8 34.56 73.51 34.67 74.15 34.83 74.8 35 75.45 35.17 76.09 35.44 76.69 35.66 77.28 36 77.82 36.33 78.36 36.71 78.9 37.16 79.38 37.6 79.59 37.87 79.76 38.26" fill="#00a1a6" stroke-width="0"/><path d="M49.09,71.26l.22.17.22.22.22.17.22.17.16.22.22.17.22.22.21.16.33.11.59-.5.65-.5.59-.5.59-.5.54-.5.59-.5.54-.49.59-.5-.43-.33-.38-.28-.43-.33-.43-.33-.43-.33-.43-.33-.43-.33-.38-.33-.38-.28-.38-.33-.38-.28-.38-.28-.65.44-.59.44-.65.44-.59.39-.65.44-.64.44-.59.39-.65.44.38.33.38.33.38.33.43.33.38.34.43.33.38.39.43.33ZM47.2,73.14l-.49-.44-.54-.38-.49-.44-.48-.39-.49-.44-.54-.38-.49-.39-.54-.39-.59.17-.59.17-.65.16-.65.11-.7.11-.65.11-.7.05h-1.4l-.65-.05-.65-.11-.65-.22-.59-.22-.59-.28-.54-.38-.49-.44-.48-.66-.32-.77-.22-.83v-.88l.05-.83.27-.88.32-.78.43-.72.11-.11.16-.11.16-.05h.21l.16.44-.32.99-.22.99-.05,1.05.32,1,.65.66.75.5.86.28.92.16.97.06h1.03l.97-.11.92-.17.27-.16-.16-.22-.22-.17-.22-.22-.27-.16-.54-.5-.59-.5-.59-.5-.65-.5-.59-.5-.54-.61-.43-.61-.32-.66-.06-.55.16-.44.27-.44.22-.39.16-.11.16.05.16.06.16.11.81.72.81.72.81.66.86.66.81.66.86.72.81.66.86.72.65-.38.65-.44.59-.39.65-.44.59-.44.6-.44.65-.44.59-.5v-.17l-.76-.61-.75-.66-.75-.61-.76-.67-.75-.61-.81-.67-.76-.61-.81-.61-.65.28-.65.22-.7.11h-.75l-.75-.05-.7-.17-.65-.22-.65-.33-.49-.33-.43-.38-.32-.5-.22-.61v-.88l.27-.78.43-.72.54-.61.27-.22.27-.16.27-.22.27-.17.27-.16.33-.17.27-.11.33-.11.16-.06.11.06.11.05.11.11-.16.38-.32.28-.38.22-.32.22-.54.44-.48.61-.27.66v.83l.11.28.16.22.16.22.22.17.38.11.38.11.38.05h.38l.38-.05.38-.06.38-.11.38-.11-.16-.22-.16-.28-.16-.22-.16-.22-.16-.33-.05-.44v-.39l.11-.39.16-.28.22-.28.22-.22.27-.11.38.22.32.28.38.33.38.28.32.33.38.28.32.33.32.27,7.12,6.08h.22l.59-.5.59-.44.59-.5.59-.44.59-.5.59-.44.59-.5.59-.5v-.11l-7.06-5.75-.22-.28-.27-.28-.27-.28-.27-.33-.16-.33-.16-.33v-.39l.05-.44.16-.33.16-.33.22-.22.22-.22.27.05,7.87,6.52,1.56,1.33.43-.28.38-.28.38-.27.38-.33.38-.28.38-.33.38-.28.43-.22.22.17.22.28.11.33.16.28.05.72-.21.61-.38.55-.38.55.27.05h.32l.27.05.32-.05.27-.05.27-.06.27-.11.21-.17.27-.28.16-.33.06-.33v-.39l-.11-.44-.16-.39-.11-.44.06-.39h.49l.27.28.22.44.22.39.22.66.05.72-.05.72-.27.61-.32.44-.38.38-.43.33-.43.22-.49.22-.54.11-.54.05h-.54l-.27-.05-.27-.06h-.27l-.27-.05-.27-.05-.27-.05-.22-.05-.27-.06-.65.5-.7.55-.65.5-.7.55-.7.55-.65.55-.7.55-.65.55v.17l.54.5.54.5.54.44.54.5.54.44.6.44.59.44.59.44.21-.05.81-.72.75-.66.81-.66.81-.66.81-.66.76-.66.81-.66.76-.66.16-.05.16.05.11.06.11.11.22.44.16.39.11.5-.06.5-.38.72-.49.61-.59.61-.59.5-.65.55-.65.5-.65.55-.54.55v.11l.11.06.11.06h.11l.7.11.7.05h.65l.7-.05.65-.17.65-.22.54-.33.48-.5.49-.83.16-.88-.06-.99-.22-.88-.11-.39-.16-.44-.05-.39.22-.33.49.28.32.44.22.55.21.5.38,1.27.05,1.33-.32,1.27-.7,1.16-.7.61-.81.44-.86.33-.92.17-.92.11h-.97l-.97-.05-.92-.17-1.45-.38-.65.55-.7.55-.65.55-.65.55-.65.55-.65.5-.65.61-.65.55.48.5.54.44.54.5.54.44.59.44.54.44.65.33.65.33.75-.55.81-.61.75-.61.76-.61.75-.61.81-.61.75-.61.75-.61.33.05.22.44.22.5.11.55-.11.55-.27.55-.38.44-.38.44-.44.33-.43.39-.43.39-.49.33-.43.39v.11l.97-.06.92-.17.86-.33.86-.39.75-.55.7-.66.53-.72.49-.83.22-.72.16-.78.05-.77-.05-.83.05-.11.11-.17.11-.05.11-.06.22.06.16.11.11.17.05.16.16,1,.11.94-.05,1-.21.94-.32.88-.43.83-.59.77-.7.67-.81.55-.91.5-.97.33-.97.28-1.02.16-1.08.06-1.02-.06-1.08-.16-.43.22-.38.28-.37.28-.32.28-.38.33-.32.28-.38.27-.38.28-.32.22-.32.28-.38.22-.32.22-.32.22-.32.22-.32.22-.32.28.54.39.54.33.54.33.59.28.65.28.59.28.65.22.65.17.7.11.65.11h1.29l.7-.06.65-.16.59-.17.65-.28.59-.39.54-.44.48-.55.43-.55.32-.61.32-.66.32-.66.27-.66.16-.11.16-.05h.22l.16.05.16.61-.05.66-.16.66-.22.66-.48,1.05-.59.94-.75.89-.86.72-.97.67-1.02.44-1.08.33-1.19.11h-.65l-.65-.06-.65-.11-.64-.11-.59-.16-.59-.17-.59-.22-.54-.22-.59-.28-.54-.28-.54-.28-.54-.28-.54-.33-.54-.28-.54-.33-.54-.28-.65.33-.65.39-.65.33-.65.39-.65.33-.7.33-.65.33-.7.33-.65.28-.7.22-.75.17-.7.16-.76.06h-.75l-.81-.06-.81-.11-1.19-.39-1.08-.55-.97-.66-.81-.88-.7-.94-.54-1.05-.43-1.11-.27-1.16v-.22l.06-.22.05-.16.11-.17.16-.06h.16l.16.06.11.06.27.66.32.72.38.66.38.61.49.61.48.55.59.5.65.39.43.16.48.17.49.17.54.06.48.05.54.06.49-.06.54-.05.86-.17.81-.22.81-.33.81-.33.75-.33.81-.44.7-.45.75-.44-.05-.16-.27-.17-.27-.17-.22-.17-.27-.16-.22-.17-.27-.17-.22-.16-.27-.17-.38-.22-.32-.28-.38-.22-.33-.28-.38-.22-.32-.28-.38-.22-.32-.27-1.02.22-1.08.11-1.13.06-1.08-.06-1.02-.11-1.08-.28-.97-.33-.92-.5-.75-.44-.65-.61-.54-.66-.43-.72-.38-.83-.22-.83-.05-.88.05-.94.11-.55.11-.55.22-.5.38-.44h.22l.11.11.05.06v.55l-.05.55.05.61.05.55.32.94.49.83.54.78.7.66.75.5.86.44.92.28.97.17.27.05h.22l.27.06h.7l.27-.06.22-.05v-.11l-.54-.44-.59-.44-.54-.44-.59-.5-.59-.44-.54-.5-.49-.55-.43-.55-.22-.61v-.61l.22-.61.32-.55.22-.05.16.05.22.05.16.11.81.66.81.66.81.66.81.66.86.61.81.61.86.66.81.61.7-.44.6-.44.64-.44.6-.5.54-.5.59-.55.59-.5.59-.55-.06-.17-.22-.17-.22-.17-.22-.17-.16-.17-.22-.17-.22-.16-.22-.17-.22-.17ZM48.17,81.59l.32.17.27.22.32.17.27.22.27.16.27.22.33.16.27.22h.32l.59-.39.59-.39.6-.39.59-.39.54-.44.59-.39.54-.44.59-.44v-.22l-.59-.33-.59-.33-.54-.44-.54-.38-.54-.44-.54-.44-.54-.44-.54-.44-.59.5-.65.5-.59.5-.59.5-.59.5-.59.44-.59.5-.65.44.27.17.22.17.27.16.27.17.22.17.27.16.22.17.27.16Z" fill="#32124b" stroke-width="0"/><polygon points="62.83 61.7 62.89 61.86 62.83 61.97 62.73 62.08 62.56 62.14 62.24 61.97 61.97 61.75 61.65 61.53 61.38 61.36 61.06 61.14 60.78 60.92 60.46 60.7 60.19 60.48 60.19 60.26 61.22 59.6 61.43 59.82 61.65 60.09 61.86 60.31 62.08 60.59 62.24 60.87 62.46 61.14 62.67 61.42 62.83 61.7" fill="#32124b" stroke-width="0"/><polygon points="62.4 73.19 62.4 73.36 62.35 73.47 62.24 73.52 62.13 73.52 61.81 73.36 61.54 73.14 61.22 72.97 60.94 72.75 60.68 72.53 60.41 72.31 60.08 72.03 59.82 71.81 59.98 71.53 60.25 71.31 60.52 71.15 60.78 70.93 61 71.03 62.4 73.19" fill="#32124b" stroke-width="0"/><polygon points="61.43 91.1 61.43 91.38 61.38 91.6 61.06 92.26 60.68 92.81 60.25 93.31 59.76 93.7 59.28 94.08 58.68 94.36 58.09 94.58 57.44 94.75 56.74 94.86 56.1 94.97 55.4 95.08 54.7 95.13 53.94 95.13 53.24 95.19 52.59 95.19 51.89 95.24 51.25 95.24 50.6 95.24 49.95 95.24 49.31 95.24 48.71 95.24 48.07 95.24 47.42 95.24 46.83 95.19 46.18 95.13 45.59 95.08 44.94 95.02 44.35 94.91 43.7 94.8 43.11 94.69 42.51 94.52 41.92 94.36 41.49 94.14 41.11 93.86 40.74 93.53 40.41 93.2 40.09 92.87 39.82 92.48 39.55 92.04 39.39 91.6 39.39 91.38 39.39 91.15 39.39 90.99 39.55 90.88 39.71 90.77 39.93 90.77 40.14 90.82 40.31 90.88 40.41 91.1 40.57 91.32 40.79 91.48 40.95 91.65 41.17 91.81 41.44 91.93 41.65 92.04 41.92 92.15 42.78 92.37 43.7 92.54 44.62 92.7 45.53 92.81 46.45 92.92 47.42 93.03 48.39 93.09 49.31 93.09 50.28 93.09 51.25 93.09 52.21 93.09 53.19 93.03 54.1 92.98 55.02 92.87 55.94 92.75 56.85 92.64 57.34 92.54 57.82 92.48 58.31 92.31 58.79 92.15 59.22 91.93 59.65 91.65 60.03 91.32 60.3 90.88 60.46 90.77 60.68 90.66 60.89 90.6 61.11 90.71 61.33 90.88 61.43 91.1" fill="#32124b" stroke-width="0"/><polygon points="61.43 62.91 61.43 63.08 61.38 63.19 61.27 63.3 61.16 63.3 60.84 63.13 60.52 62.97 60.25 62.75 59.92 62.53 59.65 62.3 59.33 62.08 59.06 61.86 58.74 61.64 59.01 61.36 59.28 61.09 59.55 60.87 59.87 60.76 61.43 62.91" fill="#32124b" stroke-width="0"/><polygon points="61 74.35 61 74.41 60.94 74.52 60.89 74.63 60.73 74.74 60.62 74.74 60.46 74.63 60.3 74.52 60.08 74.3 59.82 74.13 59.55 73.91 59.33 73.74 59.06 73.58 58.79 73.36 58.52 73.19 58.31 72.97 58.52 72.75 58.79 72.47 59.01 72.25 59.28 72.09 59.49 72.14 60.94 74.24 61 74.35" fill="#32124b" stroke-width="0"/><polygon points="60.19 47.27 60.19 47.49 60.14 47.71 60.14 47.88 59.92 47.93 59.71 47.93 59.49 47.88 59.33 47.77 58.31 46.77 57.34 45.72 56.53 44.56 55.82 43.35 55.23 42.08 54.8 40.75 54.48 39.37 54.32 37.93 54.26 37.82 54.21 37.71 54.1 37.66 53.99 37.6 53.45 37.66 52.97 37.76 52.54 37.99 52.11 38.21 51.68 38.54 51.25 38.82 50.87 39.15 50.49 39.48 49.84 40.14 49.25 40.8 48.66 41.47 48.17 42.19 47.63 42.91 47.2 43.68 46.77 44.45 46.34 45.23 46.02 45.67 45.69 46.11 45.26 46.5 44.89 46.83 44.45 47.16 43.97 47.44 43.49 47.66 43 47.88 42.78 47.88 42.62 47.93 42.46 47.93 42.3 47.82 42.19 47.66 42.19 47.49 42.25 47.33 42.3 47.1 43 46.66 43.59 46.11 44.08 45.5 44.51 44.84 44.89 44.18 45.21 43.46 45.53 42.68 45.8 41.96 46.18 41.3 46.61 40.64 47.1 39.98 47.58 39.37 48.12 38.76 48.71 38.21 49.31 37.66 49.95 37.16 50.65 36.66 51.3 36.27 52.06 35.83 52.75 35.5 53.51 35.17 54.26 34.89 55.02 34.67 55.82 34.5 56.2 34.5 56.58 34.45 56.96 34.5 57.34 34.61 57.55 34.83 57.61 35.17 57.61 35.55 57.55 35.88 57.12 37.38 56.9 38.92 56.96 40.42 57.23 41.91 57.71 43.29 58.36 44.67 59.17 45.94 60.08 47.1 60.19 47.27" fill="#00a1a6" stroke-width="0"/><polygon points="60.03 64.13 60.03 64.24 59.98 64.4 59.92 64.46 59.76 64.52 59.44 64.4 59.12 64.18 58.84 64.02 58.52 63.74 58.25 63.52 57.93 63.3 57.66 63.08 57.34 62.86 57.34 62.69 57.61 62.53 57.82 62.3 58.09 62.08 58.36 61.97 60.03 64.13" fill="#32124b" stroke-width="0"/><polygon points="59.49 75.62 59.49 75.73 59.44 75.79 59.33 75.85 59.17 75.9 58.84 75.68 58.52 75.51 58.25 75.29 57.93 75.07 57.66 74.85 57.39 74.57 57.12 74.35 56.85 74.13 57.12 73.86 57.39 73.63 57.66 73.41 57.98 73.3 58.41 73.86 58.79 74.46 59.17 75.01 59.49 75.62" fill="#32124b" stroke-width="0"/><polygon points="58.58 65.45 58.58 65.62 58.47 65.68 58.36 65.73 58.04 65.56 57.71 65.4 57.39 65.18 57.07 64.96 56.74 64.74 56.47 64.52 56.15 64.24 55.88 64.02 56.1 63.8 56.37 63.57 56.58 63.35 56.8 63.13 56.96 63.13 58.58 65.34 58.58 65.45" fill="#32124b" stroke-width="0"/><polygon points="58.04 76.73 58.04 76.84 57.98 76.95 57.87 77.01 57.77 77.06 57.61 77.06 57.5 76.95 55.4 75.29 55.61 75.07 55.82 74.85 56.1 74.63 56.42 74.41 56.85 74.9 57.28 75.46 57.61 76.01 57.98 76.56 57.98 76.67 58.04 76.73" fill="#32124b" stroke-width="0"/><polygon points="56.58 50.03 56.63 50.25 54.32 51.97 54.21 51.97 54.1 51.91 53.99 51.8 53.99 51.69 54.32 51.08 54.7 50.48 55.13 49.98 55.5 49.43 55.61 49.37 55.72 49.37 55.82 49.43 55.94 49.48 56.15 49.7 56.37 49.87 56.58 50.03" fill="#32124b" stroke-width="0"/><polygon points="55.23 48.93 55.23 49.04 52.97 50.7 52.75 50.75 52.59 50.59 52.54 50.37 52.65 50.15 52.86 49.87 53.02 49.65 53.24 49.37 53.45 49.15 53.62 48.87 53.83 48.65 54.05 48.37 54.26 48.16 54.53 48.32 54.75 48.49 54.96 48.71 55.23 48.93" fill="#32124b" stroke-width="0"/><polygon points="55.07 32.74 55.13 33.12 54.91 33.23 54.64 33.23 54.37 33.12 54.1 32.96 53.62 32.57 53.19 32.13 52.75 31.63 52.38 31.08 52 30.58 51.73 29.97 51.41 29.42 51.19 28.87 51.08 28.76 50.98 28.64 50.82 28.59 50.65 28.59 50.44 28.7 50.28 28.81 50.11 29.03 49.95 29.2 49.31 30.14 48.71 31.13 48.17 32.13 47.74 33.18 47.37 34.23 47.04 35.33 46.77 36.44 46.56 37.6 46.5 37.76 46.39 37.93 46.29 38.04 46.13 38.1 45.91 38.04 45.75 37.93 45.59 37.76 45.48 37.54 45.37 36.11 45.48 34.61 45.69 33.12 46.02 31.74 46.29 31.02 46.56 30.36 46.88 29.75 47.26 29.14 47.69 28.59 48.12 28.04 48.6 27.49 49.09 26.99 49.52 26.6 49.95 26.21 50.38 25.83 50.87 25.44 51.35 25.16 51.84 24.89 52.38 24.72 52.97 24.67 53.13 24.72 53.24 24.83 53.29 25 53.35 25.16 53.19 26.93 53.29 28.64 53.62 30.25 54.32 31.74 54.59 32.07 54.91 32.4 55.07 32.74" fill="#00a1a6" stroke-width="0"/><polygon points="53.78 47.82 53.51 48.04 53.24 48.32 52.92 48.54 52.65 48.76 52.32 48.93 52.06 49.15 51.73 49.37 51.46 49.54 51.35 49.54 51.25 49.48 51.14 49.43 51.08 49.32 51.25 48.98 51.46 48.71 51.68 48.37 51.89 48.1 52.11 47.82 52.32 47.55 52.49 47.27 52.7 46.99 52.92 46.99 53.78 47.82" fill="#32124b" stroke-width="0"/><polygon points="52.32 46.55 52.32 46.72 50.28 48.27 50.17 48.32 50.01 48.32 49.84 48.32 49.74 48.27 49.68 48.1 49.74 47.93 49.79 47.82 49.9 47.66 51.35 45.78 51.62 45.94 51.84 46.11 52.11 46.33 52.32 46.55" fill="#32124b" stroke-width="0"/><polygon points="49.25 55.34 48.98 55.62 46.93 57.05 46.83 57.05 46.72 57 46.61 56.94 46.5 56.83 46.61 56.5 48.23 54.45 48.55 54.62 48.82 54.9 49.04 55.12 49.25 55.34" fill="#32124b" stroke-width="0"/><polygon points="47.63 53.85 47.85 54.12 47.58 54.35 47.31 54.57 47.04 54.79 46.77 54.95 46.45 55.18 46.18 55.39 45.86 55.56 45.59 55.78 45.48 55.78 45.43 55.78 45.32 55.78 45.21 55.78 45.05 55.56 45.15 55.34 45.32 55.18 45.43 54.95 46.83 53.29 47.1 53.46 47.42 53.63 47.63 53.85" fill="#32124b" stroke-width="0"/><polygon points="46.45 52.85 46.45 52.96 44.19 54.62 44.02 54.62 43.86 54.62 43.75 54.51 43.7 54.35 43.86 54.01 45.37 52.08 45.69 52.19 45.96 52.41 46.18 52.63 46.45 52.85" fill="#32124b" stroke-width="0"/><polygon points="45.48 75.07 45.48 75.18 43.27 76.89 43.16 76.89 43.05 76.89 42.95 76.89 42.89 76.78 42.84 76.67 42.89 76.51 42.95 76.34 43 76.23 44.35 74.35 44.67 74.41 44.99 74.63 45.21 74.85 45.48 75.07" fill="#32124b" stroke-width="0"/><polygon points="45.21 63.19 45.21 63.3 42.95 64.96 42.78 64.96 42.68 64.96 42.57 64.9 42.51 64.79 42.68 64.46 42.84 64.13 43.05 63.85 43.27 63.57 43.49 63.3 43.7 62.97 43.92 62.69 44.13 62.41 44.45 62.53 44.67 62.69 44.94 62.97 45.21 63.19" fill="#32124b" stroke-width="0"/><polygon points="45.05 51.69 44.72 52.02 44.35 52.24 43.97 52.52 43.59 52.8 43.32 53.02 43.05 53.19 42.73 53.35 42.41 53.41 42.35 53.29 42.3 53.13 42.3 53.02 42.41 52.91 44.02 50.81 44.35 50.97 44.56 51.19 44.78 51.47 45.05 51.69" fill="#32124b" stroke-width="0"/><polygon points="44.08 73.97 43.81 74.19 43.54 74.41 43.27 74.68 42.95 74.9 42.68 75.13 42.41 75.35 42.14 75.51 41.81 75.73 41.7 75.73 41.54 75.73 41.44 75.68 41.38 75.57 41.7 74.9 42.08 74.3 42.51 73.74 42.95 73.19 43.16 73.19 44.08 73.97" fill="#32124b" stroke-width="0"/><polygon points="43.75 61.97 43.7 62.19 41.44 63.8 41.33 63.8 41.22 63.74 41.11 63.63 41.06 63.57 41.11 63.3 42.68 61.2 42.95 61.31 43.21 61.48 43.49 61.75 43.75 61.97" fill="#32124b" stroke-width="0"/><polygon points="42.62 72.86 42.35 73.08 42.08 73.36 41.76 73.52 41.49 73.74 41.17 73.97 40.9 74.19 40.57 74.41 40.31 74.63 40.2 74.63 40.03 74.57 39.93 74.52 39.87 74.41 40.09 73.97 40.36 73.52 40.63 73.19 40.9 72.8 41.11 72.59 41.27 72.25 41.49 72.03 41.81 72.09 42.62 72.86" fill="#32124b" stroke-width="0"/><polygon points="42.35 60.81 42.14 61.09 39.98 62.64 39.82 62.64 39.71 62.58 39.66 62.47 39.6 62.36 39.77 62.03 39.93 61.75 40.14 61.48 40.36 61.2 40.57 60.87 40.79 60.59 41.01 60.31 41.22 60.04 41.33 59.98 41.49 60.04 41.6 60.15 41.7 60.2 42.35 60.81" fill="#32124b" stroke-width="0"/><polygon points="41.11 71.59 41.11 71.76 38.79 73.47 38.69 73.41 38.63 73.41 38.53 73.36 38.42 73.3 38.53 72.92 39.98 70.81 40.31 70.98 40.57 71.15 40.84 71.37 41.11 71.59" fill="#32124b" stroke-width="0"/><polygon points="40.9 59.65 40.63 59.87 40.36 60.15 40.03 60.37 39.77 60.59 39.44 60.81 39.12 60.98 38.79 61.2 38.47 61.36 38.42 61.42 38.31 61.36 38.26 61.26 38.15 61.2 38.26 60.92 38.42 60.65 38.63 60.37 38.85 60.09 39.12 59.82 39.33 59.48 39.6 59.15 39.93 58.88 40.2 59.04 40.41 59.26 40.63 59.43 40.9 59.65" fill="#32124b" stroke-width="0"/></svg>