<?xml version="1.0" encoding="UTF-8"?><svg id="Layer_1" xmlns="http://www.w3.org/2000/svg" width="3.04in" height="1.24in" viewBox="0 0 218.87 89.17"><g id="LOGO"><path d="M200.33,34c.55.03,1.02.19,1.41.48.39.29.82.83,1.27,1.62l4.47,7.75v4.02c0,.92-.15,1.54-.46,1.84-.31.3-.88.45-1.71.45h-.45v1.69c.55-.02,1.15-.04,1.79-.05.64-.01,1.6-.02,2.87-.02s2.23,0,2.86.02c.63.01,1.21.03,1.74.05v-1.69h-.45c-.84,0-1.42-.15-1.72-.44-.3-.3-.45-.91-.45-1.84v-3.95l4.75-7.78c.52-.84.95-1.41,1.3-1.7.35-.29.74-.44,1.18-.44h.12v-1.69c-.99.02-1.75.04-2.29.05-.54.01-1.04.02-1.49.02-.84,0-2.11-.02-3.81-.06h-.17v1.69c.55,0,.95.08,1.19.24.24.16.37.42.37.79,0,.16-.03.34-.09.55-.06.21-.15.43-.26.65l-2.48,4.89-2.49-5.04c-.14-.27-.23-.5-.3-.68-.06-.18-.09-.33-.09-.46,0-.32.12-.56.36-.71.24-.15.61-.23,1.12-.23h.16v-1.69c-1.18.02-2.07.04-2.66.05-.59.01-1.12.02-1.6.02s-1.02,0-1.59-.02c-.57-.01-1.38-.03-2.43-.05l.02,1.69ZM181.95,38.2h2c-.01-.11-.02-.23-.02-.34,0-.11,0-.27,0-.48,0-1.03.2-1.74.61-2.12.4-.39,1.15-.58,2.25-.58h1.73v12.98c0,.95-.15,1.61-.46,1.97-.31.36-.83.54-1.58.54h-.67v1.69c.57-.02,1.19-.04,1.86-.05.67-.01,1.67-.02,3.01-.02s2.33,0,2.99.02c.66.01,1.29.03,1.87.05v-1.69h-.67c-.76,0-1.29-.18-1.6-.54-.31-.36-.46-1.01-.46-1.97v-12.98h1.42c1.22,0,2.03.21,2.43.61.4.41.59,1.22.59,2.42v.5h2.11v-5.89c-1.57,0-3.28.02-5.11.05-.53.01-.86.02-.99.02h-5.38c-.12,0-.44,0-.95-.02-1.77-.03-3.43-.05-4.97-.05v5.89ZM171.92,34h.38c.76,0,1.29.18,1.59.54.3.36.45,1.01.45,1.95v11.16c0,.95-.15,1.61-.45,1.97-.3.36-.83.54-1.59.54h-.38v1.69c.54-.02,1.13-.04,1.76-.05.63-.01,1.58-.02,2.85-.02s2.19,0,2.82.02c.63.01,1.21.03,1.76.05v-1.69h-.42c-.75,0-1.28-.18-1.58-.54-.31-.36-.46-1.01-.46-1.97v-11.16c0-.94.15-1.59.45-1.95.3-.36.83-.54,1.59-.54h.42v-1.69c-1.26.02-2.21.04-2.84.05s-1.21.02-1.73.02-1.13,0-1.76-.02c-.63-.01-1.58-.03-2.84-.05v1.69ZM156.51,34h.37c.76,0,1.29.18,1.59.54.3.36.45,1.01.45,1.95v11.16c0,.95-.15,1.61-.45,1.97-.3.36-.83.54-1.59.54h-.37v1.69h15.18v-6.11h-1.8c-.02,1.55-.26,2.56-.73,3.04-.46.48-1.53.72-3.21.72h-2.73v-13c0-.94.15-1.6.45-1.95.3-.36.83-.54,1.58-.54h.85v-1.69c-1.26.02-2.22.04-2.9.05-.68.01-1.29.02-1.85.02s-1.18,0-1.85-.02c-.67-.01-1.67-.03-3-.05v1.69ZM136.12,47.16c-.45,1.12-.86,1.9-1.25,2.33-.39.43-.86.66-1.42.69v1.67c.48-.02,1-.04,1.56-.05.56-.01,1.42-.02,2.58-.02s2.09,0,2.7.02c.61.01,1.18.03,1.7.05v-1.67c-.99-.06-1.62-.19-1.91-.38-.29-.19-.43-.54-.43-1.04,0-.15.02-.3.05-.47.04-.17.1-.37.18-.61l.82-2.5h7.17l.7,2.08c.1.33.18.62.23.87.05.25.08.45.08.59,0,.5-.17.86-.52,1.07-.35.21-.98.34-1.89.38v1.67c.54-.02,1.12-.04,1.74-.05.62-.01,1.56-.02,2.8-.02s2.18,0,2.81.02c.63.01,1.2.03,1.72.05v-1.69c-.57-.05-1.04-.26-1.39-.62-.36-.36-.79-1.19-1.28-2.47l-5.63-14.76h-5.23l-5.9,14.85ZM147.01,42.83h-5.51l2.91-8.13,2.6,8.13ZM118.86,38.2h2c-.01-.11-.02-.23-.02-.34,0-.11,0-.27,0-.48,0-1.03.2-1.74.61-2.12.4-.39,1.15-.58,2.25-.58h1.73v12.98c0,.95-.15,1.61-.46,1.97-.31.36-.83.54-1.58.54h-.67v1.69c.57-.02,1.19-.04,1.86-.05.67-.01,1.67-.02,3.01-.02s2.33,0,2.99.02c.66.01,1.29.03,1.87.05v-1.69h-.67c-.76,0-1.29-.18-1.6-.54-.31-.36-.46-1.01-.46-1.97v-12.98h1.42c1.22,0,2.03.21,2.43.61.4.41.59,1.22.59,2.42v.5h2.11v-5.89c-1.57,0-3.28.02-5.11.05-.53.01-.86.02-.99.02h-5.38c-.12,0-.44,0-.95-.02-1.77-.03-3.43-.05-4.97-.05v5.89ZM108.83,34h.37c.76,0,1.29.18,1.59.54.3.36.45,1.01.45,1.95v11.16c0,.95-.15,1.61-.45,1.97-.3.36-.83.54-1.59.54h-.37v1.69c.54-.02,1.13-.04,1.76-.05.63-.01,1.58-.02,2.85-.02s2.19,0,2.82.02c.63.01,1.22.03,1.76.05v-1.69h-.42c-.75,0-1.28-.18-1.58-.54-.31-.36-.46-1.01-.46-1.97v-11.16c0-.94.15-1.59.45-1.95.3-.36.83-.54,1.59-.54h.42v-1.69c-1.26.02-2.21.04-2.84.05-.64.01-1.21.02-1.73.02s-1.13,0-1.76-.02c-.63-.01-1.58-.03-2.84-.05v1.69ZM93.86,34h.42c.76,0,1.29.18,1.59.54.3.36.45,1.01.45,1.95v11.16c0,.96-.15,1.61-.46,1.97-.31.36-.84.54-1.58.54h-.42v1.69c.54-.02,1.13-.04,1.76-.05.63-.01,1.58-.02,2.83-.02s2.18,0,2.81.02c.63.01,1.21.03,1.75.05v-1.69h-.37c-.75,0-1.28-.18-1.58-.54-.3-.36-.45-1.02-.45-1.97v-3.96h2.59c2.38,0,4.14-.46,5.26-1.38,1.12-.92,1.69-2.35,1.69-4.3s-.63-3.47-1.9-4.36c-1.26-.89-3.35-1.34-6.24-1.34h-8.15v1.69ZM102.22,34.58c1.19,0,2.11.28,2.75.85.65.57.97,1.39.97,2.45,0,1.22-.31,2.13-.92,2.74-.61.61-1.53.91-2.75.91h-1.67v-6.96h1.61ZM89.51,32.09c-1.1-.15-2.15-.22-3.13-.22-2.45,0-4.35.5-5.71,1.5-1.36,1-2.04,2.4-2.04,4.19,0,1.19.35,2.2,1.06,3.02.7.82,1.89,1.59,3.56,2.32l3.73,1.58c.82.35,1.4.73,1.73,1.14.33.41.5.94.5,1.59,0,.95-.32,1.69-.95,2.2-.63.51-1.55.77-2.74.77-1.49,0-2.62-.32-3.37-.96-.75-.64-1.13-1.58-1.13-2.84,0-.04,0-.11.02-.22.01-.1.02-.18.02-.23h-2.33v5.51c1.21.28,2.41.49,3.59.63,1.18.14,2.32.21,3.43.21,2.55,0,4.51-.51,5.88-1.52,1.37-1.01,2.05-2.45,2.05-4.32,0-1.17-.34-2.19-1.03-3.04-.68-.86-1.72-1.56-3.11-2.12l-4.05-1.62c-.89-.35-1.52-.75-1.9-1.18-.37-.43-.56-.98-.56-1.63,0-.86.34-1.55,1.02-2.07.68-.52,1.58-.78,2.7-.78,1.33,0,2.3.28,2.92.85.62.56.93,1.45.93,2.65,0,.17,0,.3,0,.39,0,.09-.01.18-.02.25h2.45v-5.38c-1.24-.3-2.42-.52-3.52-.67M60.01,34.54c-1.72,1.78-2.57,4.28-2.57,7.52s.86,5.75,2.58,7.54c1.72,1.79,4.13,2.69,7.23,2.69s5.51-.9,7.23-2.69c1.72-1.79,2.58-4.31,2.58-7.54s-.86-5.74-2.58-7.52c-1.72-1.78-4.13-2.67-7.23-2.67s-5.52.89-7.24,2.67M71.13,36.25c.89,1.32,1.33,3.25,1.33,5.78s-.45,4.44-1.34,5.76c-.89,1.32-2.18,1.98-3.87,1.98s-2.96-.67-3.86-2c-.9-1.33-1.35-3.25-1.35-5.75s.45-4.44,1.34-5.77c.89-1.33,2.18-1.99,3.87-1.99s2.99.66,3.88,1.98M27.39,26.36h.53c1.08,0,1.84.26,2.27.77.43.51.64,1.44.64,2.79v15.93c0,1.36-.21,2.3-.64,2.81-.43.51-1.19.77-2.27.77h-.53v2.42c.77-.03,1.6-.05,2.5-.07.9-.01,2.25-.02,4.06-.02s3.1,0,4,.02c.9.01,1.73.04,2.49.07v-2.42h-.58c-1.08,0-1.84-.26-2.27-.77-.43-.51-.64-1.45-.64-2.81v-6.64h11.6v6.64c0,1.36-.22,2.3-.66,2.81-.44.51-1.19.77-2.26.77h-.6v2.42c.77-.03,1.61-.05,2.51-.07.9-.01,2.25-.02,4.04-.02s3.11,0,4.01.02c.9.01,1.73.04,2.5.07v-2.42h-.56c-1.07,0-1.82-.26-2.26-.77-.44-.51-.66-1.45-.66-2.81v-15.93c0-1.35.22-2.28.66-2.79.44-.51,1.19-.77,2.26-.77h.56v-2.4c-1.79.03-3.14.05-4.04.07-.9.01-1.73.02-2.47.02s-1.59,0-2.5-.02c-.91-.01-2.26-.04-4.06-.07v2.4h.6c1.08,0,1.84.26,2.27.77.43.51.64,1.44.64,2.79v5.91h-11.6v-5.91c0-1.35.21-2.28.64-2.79.43-.51,1.19-.77,2.27-.77h.58v-2.4c-1.79.03-3.14.05-4.03.07-.9.01-1.71.02-2.46.02s-1.61,0-2.51-.02c-.9-.01-2.25-.04-4.04-.07v2.4Z" fill="#32124b" stroke-width="0"/><path d="M211.75,63.12c-.61-.07-1.21-.1-1.8-.1-1.37,0-2.44.26-3.21.79-.77.53-1.16,1.26-1.16,2.19,0,1.28,1.33,2.38,3.98,3.29.04.02.08.03.1.04,1.26.43,2.05.81,2.38,1.12.33.31.49.72.49,1.23,0,.73-.27,1.28-.8,1.66-.53.38-1.3.57-2.3.57-1.14,0-1.96-.24-2.46-.71-.5-.47-.74-1.25-.74-2.34h-.46v3.16c.72.18,1.42.32,2.1.42.68.1,1.35.14,2,.14,1.39,0,2.46-.26,3.19-.79.73-.53,1.1-1.29,1.1-2.29,0-.79-.25-1.44-.74-1.93-.49-.5-1.36-.95-2.6-1.37-.22-.08-.52-.18-.91-.3-1.86-.59-2.79-1.34-2.79-2.24,0-.62.25-1.1.76-1.45.51-.35,1.22-.53,2.14-.53,1.12,0,1.93.2,2.43.6.5.4.75,1.05.75,1.94v.2h.51v-2.99c-.68-.14-1.33-.25-1.95-.31M202.58,63.14c-.64-.08-1.25-.13-1.82-.13-1.69,0-3.01.51-3.95,1.52-.94,1.01-1.41,2.43-1.41,4.25s.45,3.25,1.36,4.27c.91,1.02,2.17,1.53,3.8,1.53,1.3,0,2.33-.29,3.07-.88.74-.59,1.17-1.44,1.29-2.56h-.98c-.14.84-.48,1.49-1.01,1.93-.53.44-1.24.66-2.12.66-1.19,0-2.11-.42-2.74-1.27-.63-.85-.95-2.07-.95-3.68,0-1.69.33-2.94.98-3.77.65-.83,1.64-1.24,2.98-1.24,1.04,0,1.8.21,2.27.64.47.43.71,1.13.73,2.1h.59s0-2.99,0-2.99c-.74-.18-1.44-.3-2.08-.39M191.43,58.37c-.16.15-.24.42-.24.8s.08.66.25.81c.17.16.45.24.85.24s.7-.08.86-.24c.16-.16.24-.43.24-.81s-.08-.66-.23-.81c-.15-.15-.44-.22-.87-.22s-.71.08-.86.23M191.85,63.32c-.44.02-.85.03-1.22.03h-.54v.48c.73.02,1.19.1,1.38.24.19.15.29.56.29,1.25v6.57c0,.74-.12,1.23-.36,1.45-.24.23-.72.34-1.43.34v.54c.31-.02.64-.03,1-.04.36,0,.91-.01,1.64-.01s1.29,0,1.66.01c.37,0,.72.02,1.03.04v-.54c-.84,0-1.39-.11-1.63-.33-.25-.22-.37-.71-.37-1.47v-8.67c-.53.04-1.01.07-1.45.09M184.31,62.77c-.43.44-1.07.72-1.91.86v.49h2v7.03c0,1.29.19,2.18.56,2.67.38.5,1.02.75,1.94.75s1.68-.25,2.19-.76c.5-.51.77-1.25.81-2.25h-.6c-.05.7-.25,1.25-.6,1.64-.35.39-.81.59-1.38.59-.52,0-.88-.18-1.08-.55-.2-.37-.3-1.16-.3-2.37v-6.75h3.33v-.76h-3.39v-2.67h-.59c-.23.95-.55,1.65-.98,2.08M180.3,64.13c-.65-.76-1.7-1.13-3.16-1.13-.84,0-1.6.15-2.27.46-.67.3-1.24.75-1.7,1.33v-1.55c-.46.04-.9.07-1.31.09-.41.02-.82.03-1.23.03h-.59v.48c.72.02,1.18.1,1.37.24.2.15.29.56.29,1.25v6.57c0,.74-.12,1.23-.36,1.45-.24.23-.72.34-1.45.34v.54c.31-.02.64-.03,1.01-.04.36,0,.91-.01,1.63-.01s1.31,0,1.69.01c.38,0,.72.02,1.04.04v-.54c-.85,0-1.4-.11-1.65-.33-.25-.22-.38-.71-.38-1.46v-3.88c0-1.39.28-2.42.85-3.11.57-.69,1.42-1.03,2.55-1.03,1.05,0,1.82.31,2.32.93.49.62.74,1.6.74,2.94v4.16c0,.77-.13,1.26-.38,1.47-.25.21-.8.32-1.65.32v.54c.33-.02.69-.03,1.08-.04.38,0,.95-.01,1.69-.01s1.25,0,1.61.01c.35,0,.68.02.98.04v-.54c-.75-.03-1.23-.11-1.45-.27-.21-.15-.32-.62-.32-1.4v-4.13c0-1.75-.32-3.01-.97-3.76M160.22,64.53c-.94,1.01-1.41,2.43-1.41,4.26s.47,3.25,1.41,4.27c.94,1.02,2.26,1.53,3.95,1.53s3.02-.51,3.96-1.53c.95-1.02,1.42-2.44,1.42-4.26s-.47-3.25-1.42-4.26c-.94-1.01-2.27-1.52-3.97-1.52s-3,.51-3.95,1.52M166.92,65.1c.64.86.96,2.08.96,3.69s-.32,2.81-.97,3.66c-.65.86-1.56,1.28-2.75,1.28s-2.11-.42-2.74-1.27c-.63-.85-.95-2.07-.95-3.68s.32-2.85.95-3.7c.63-.85,1.55-1.27,2.75-1.27s2.12.43,2.76,1.28M155.34,58.39c-.44.02-.86.03-1.26.03h-.56v.49c.73.02,1.19.1,1.38.24.19.15.29.56.29,1.25v4.52c-.38-.63-.89-1.1-1.53-1.42-.65-.32-1.41-.48-2.29-.48-1.49,0-2.68.52-3.54,1.57-.87,1.05-1.3,2.48-1.3,4.3s.42,3.24,1.26,4.22c.84.99,2.05,1.48,3.61,1.48.86,0,1.63-.18,2.31-.53.68-.35,1.25-.87,1.7-1.55v1.84c.38-.04.78-.07,1.2-.09.41-.02.83-.03,1.26-.03h.59v-.49c-.72,0-1.18-.09-1.37-.23-.2-.15-.29-.57-.29-1.26v-13.95c-.52.04-1,.07-1.43.09M154.34,65.23c.61.89.91,2.15.91,3.79,0,1.51-.3,2.66-.9,3.46-.6.79-1.46,1.19-2.59,1.19s-2.05-.41-2.67-1.23c-.62-.82-.93-2.01-.93-3.56s.31-2.83.92-3.69c.61-.86,1.5-1.28,2.65-1.28s1.98.44,2.59,1.33M136.52,64.53c-.94,1.01-1.42,2.43-1.42,4.26s.47,3.25,1.42,4.27c.94,1.02,2.26,1.53,3.94,1.53s3.02-.51,3.96-1.53c.95-1.02,1.42-2.44,1.42-4.26s-.47-3.25-1.41-4.26c-.94-1.01-2.27-1.52-3.97-1.52s-3,.51-3.94,1.52M143.23,65.1c.64.86.96,2.08.96,3.69s-.32,2.81-.97,3.66c-.65.86-1.56,1.28-2.75,1.28s-2.11-.42-2.74-1.27c-.63-.85-.95-2.07-.95-3.68s.32-2.85.95-3.7c.63-.85,1.55-1.27,2.75-1.27s2.12.43,2.76,1.28M123.96,58.39c-.43.02-.85.03-1.26.03h-.56v.49c.73.02,1.19.1,1.38.24.19.15.29.56.29,1.25v11.5c0,.74-.12,1.23-.36,1.45-.24.23-.72.34-1.45.34v.54c.31-.02.64-.03,1.01-.04.36,0,.91-.01,1.63-.01s1.32,0,1.69.01c.38,0,.72.02,1.04.04v-.54c-.85,0-1.4-.11-1.65-.33-.25-.22-.38-.71-.38-1.46v-3.88c0-1.39.28-2.42.85-3.11.57-.69,1.42-1.03,2.55-1.03,1.05,0,1.82.31,2.32.93.49.62.74,1.6.74,2.94v4.16c0,.77-.13,1.26-.38,1.47-.26.21-.8.32-1.65.32v.54c.33-.02.69-.03,1.08-.04.38,0,.95-.01,1.69-.01s1.25,0,1.61.01c.35,0,.68.02.98.04v-.54c-.75-.03-1.23-.11-1.45-.27-.21-.15-.32-.62-.32-1.4v-4.13c0-1.75-.32-3.01-.97-3.76-.65-.76-1.7-1.13-3.16-1.13-.84,0-1.6.15-2.27.46-.67.3-1.24.75-1.7,1.33v-6.49c-.45.04-.88.07-1.3.09M116.48,62.77c-.43.44-1.07.72-1.91.86v.49h2v7.03c0,1.29.19,2.18.56,2.67.38.5,1.02.75,1.94.75s1.68-.25,2.19-.76c.51-.51.77-1.25.81-2.25h-.6c-.05.7-.25,1.25-.6,1.64s-.81.59-1.38.59c-.52,0-.88-.18-1.08-.55-.2-.37-.3-1.16-.3-2.37v-6.75h3.33v-.76h-3.39v-2.67h-.59c-.23.95-.55,1.65-.98,2.08M114.27,63.02c-.2-.02-.42-.03-.64-.03-.83,0-1.56.15-2.17.44-.61.29-1.14.74-1.58,1.35v-1.55c-.46.04-.9.07-1.31.09-.41.02-.82.03-1.23.03h-.59v.48c.72.02,1.17.1,1.37.24.2.15.29.56.29,1.25v6.57c0,.74-.12,1.23-.36,1.45-.24.23-.72.34-1.45.34v.54c.31-.02.64-.03,1.01-.04.36,0,.91-.01,1.63-.01s1.32,0,1.69.01c.38,0,.72.02,1.04.04v-.54c-.85,0-1.4-.11-1.65-.33-.25-.22-.38-.71-.38-1.46v-3.88c0-1.45.21-2.5.63-3.14.42-.64,1.1-.96,2.04-.96.59,0,1.02.14,1.28.43.26.29.39.77.39,1.46,0,.05,0,.13-.01.23,0,.1-.01.18-.01.23h.61v-3.18c-.2-.03-.4-.06-.61-.08M92.89,60.28c-1.31,1.44-1.97,3.46-1.97,6.07s.65,4.64,1.96,6.08c1.31,1.44,3.15,2.16,5.53,2.16s4.2-.72,5.5-2.16c1.31-1.44,1.96-3.47,1.96-6.08s-.65-4.63-1.96-6.07c-1.31-1.44-3.14-2.16-5.5-2.16s-4.21.72-5.52,2.16M102.55,60.85c.95,1.26,1.42,3.08,1.42,5.47s-.47,4.22-1.42,5.48c-.95,1.26-2.33,1.88-4.14,1.88s-3.2-.63-4.16-1.89c-.96-1.26-1.44-3.08-1.44-5.47s.48-4.21,1.44-5.47c.96-1.26,2.35-1.89,4.16-1.89s3.19.63,4.14,1.89" fill="#32124b" stroke-width="0"/><path d="M85.63,76.66s.03.04.07.09c.17.2.35.3.52.3.06,0,.1-.02.13-.07.03-.04.04-.1.04-.18,0-.14-.11-.37-.33-.7,0,0-.01,0-.01-.01l-.68-.88c.72-.64,1.25-1.28,1.6-1.93.35-.65.53-1.32.53-2.03s-.18-1.34-.54-1.81c-.36-.47-.81-.71-1.36-.71-.42,0-.75.12-.99.35-.25.23-.37.53-.37.9,0,.35.1.63.31.84.21.21.48.32.82.32.31,0,.6-.12.88-.35.05-.04.08-.06.09-.06.07,0,.13.07.19.22.06.15.09.33.09.54,0,.45-.15.95-.44,1.48-.29.53-.7,1.07-1.23,1.61-1.22-1.62-2.19-3.29-2.92-5.02-.73-1.73-1.22-3.55-1.47-5.44,2.98-.83,5.11-1.69,6.39-2.58,1.28-.89,1.92-1.92,1.92-3.1,0-.93-.33-1.66-.99-2.18-.66-.53-1.58-.79-2.76-.79-1.72,0-3.1.59-4.14,1.78-1.04,1.18-1.56,2.77-1.56,4.75,0,.18,0,.38.02.59.01.21.05.54.09.99-2.58.56-4.51,1.45-5.8,2.67-1.28,1.22-1.92,2.77-1.92,4.64s.67,3.5,2.02,4.72c1.35,1.22,3.1,1.84,5.25,1.84,1.09,0,2.12-.15,3.08-.44.96-.3,1.84-.74,2.64-1.33l.83.97ZM80.44,62.88c0-.11,0-.21,0-.3,0-.6.08-1.19.25-1.78.17-.59.43-1.19.78-1.8.53-.91,1.12-1.61,1.76-2.1.64-.49,1.29-.73,1.95-.73.61,0,1.11.19,1.5.57.39.38.59.86.59,1.45,0,1.12-.58,2.13-1.73,3.02-1.16.89-2.84,1.62-5.04,2.18-.03-.22-.05-.39-.05-.49M82.06,76.22c-.8.26-1.66.38-2.58.38-1.8,0-3.23-.46-4.29-1.39-1.06-.92-1.59-2.16-1.59-3.72,0-1.68.52-3.13,1.55-4.35,1.03-1.21,2.53-2.15,4.51-2.79.35,1.91.91,3.73,1.68,5.47.77,1.74,1.79,3.47,3.05,5.19-.74.54-1.52.94-2.32,1.2" fill="#00a1a6" stroke-width="0"/><path d="M65.99,58.39c-.44.02-.86.03-1.26.03h-.56v.49c.73.02,1.2.1,1.38.24.19.15.28.56.28,1.25v11.5c0,.74-.12,1.23-.36,1.45-.24.23-.72.34-1.43.34v.54c.3-.02.63-.03,1-.04.36,0,.91-.01,1.63-.01s1.31,0,1.69.01c.38,0,.72.02,1.04.04v-.54c-.85,0-1.4-.11-1.65-.33-.25-.22-.38-.71-.38-1.46v-13.59c-.48.03-.95.06-1.38.08M61.71,64.06c-.68-.7-1.88-1.05-3.61-1.05-.53,0-1.1.04-1.71.11-.61.08-1.24.18-1.91.33v2.72h.54c.03-.85.28-1.48.73-1.87.45-.4,1.15-.6,2.1-.6,1.07,0,1.89.23,2.47.69.58.46.86,1.12.86,1.98v1.36h-2.13c-2,0-3.47.28-4.39.84-.92.56-1.38,1.44-1.38,2.64,0,1.07.35,1.9,1.05,2.49.7.59,1.68.88,2.96.88.94,0,1.74-.16,2.38-.48.64-.32,1.15-.81,1.52-1.47v1.72c.43-.04.86-.07,1.29-.09.43-.02.85-.03,1.28-.03h.61v-.49h-.18c-.6,0-1-.09-1.18-.26-.19-.17-.28-.58-.28-1.23v-4.36c0-1.85-.34-3.13-1.01-3.83M61.18,68.48v1.03c0,1.41-.29,2.47-.86,3.17-.58.71-1.44,1.06-2.58,1.06-.92,0-1.63-.22-2.14-.66-.51-.44-.76-1.07-.76-1.88,0-.91.35-1.59,1.05-2.04.7-.45,1.76-.68,3.18-.68h2.1ZM47.42,62.77c-.43.44-1.07.72-1.91.86v.49h2v7.03c0,1.29.19,2.18.56,2.67.38.5,1.02.75,1.94.75s1.68-.25,2.19-.76c.5-.51.77-1.25.81-2.25h-.6c-.05.7-.25,1.25-.6,1.64-.35.39-.81.59-1.38.59-.52,0-.88-.18-1.08-.55-.2-.37-.3-1.16-.3-2.37v-6.75h3.33v-.76h-3.39v-2.67h-.59c-.23.95-.55,1.65-.98,2.09M43.42,64.13c-.65-.76-1.7-1.13-3.16-1.13-.84,0-1.6.15-2.27.46-.67.3-1.24.75-1.7,1.33v-1.55c-.46.04-.9.07-1.31.09-.41.02-.82.03-1.23.03h-.59v.48c.72.02,1.17.1,1.37.24s.29.56.29,1.25v6.57c0,.74-.12,1.23-.36,1.45-.24.23-.72.34-1.45.34v.54c.31-.02.64-.03,1.01-.04.36,0,.91-.01,1.63-.01s1.31,0,1.69.01c.38,0,.72.02,1.04.04v-.54c-.85,0-1.4-.11-1.65-.33-.25-.22-.38-.71-.38-1.46v-3.88c0-1.39.28-2.42.85-3.11.57-.69,1.42-1.03,2.55-1.03,1.05,0,1.82.31,2.32.93.49.62.74,1.6.74,2.94v4.16c0,.77-.13,1.26-.38,1.47-.25.21-.8.32-1.65.32v.54c.33-.02.69-.03,1.08-.04.38,0,.95-.01,1.69-.01s1.25,0,1.61.01c.35,0,.68.02.98.04v-.54c-.75-.03-1.23-.11-1.45-.27-.21-.15-.32-.62-.32-1.4v-4.13c0-1.75-.32-3.01-.97-3.76M23.71,68.35c.09-1.49.45-2.63,1.09-3.41.63-.78,1.52-1.16,2.65-1.16s2.09.39,2.72,1.16c.63.78.95,1.89.95,3.33v.08h-7.41ZM32.59,68.69c0-1.88-.43-3.29-1.3-4.25-.86-.95-2.14-1.43-3.84-1.43s-3.01.51-3.95,1.52c-.94,1.01-1.41,2.43-1.41,4.25s.46,3.29,1.38,4.3c.92,1,2.25,1.5,3.98,1.5,1.45,0,2.58-.27,3.37-.81.79-.54,1.31-1.38,1.55-2.54h-1.05c-.18.84-.56,1.47-1.15,1.88-.59.41-1.39.61-2.41.61-1.3,0-2.29-.38-2.95-1.14-.66-.76-1.02-1.9-1.06-3.42h8.83v-.49ZM5.53,59.15h.61c.68,0,1.15.13,1.38.39.24.26.36.74.36,1.45v10.74c0,.72-.12,1.21-.36,1.46-.24.26-.7.39-1.38.39h-.61v.64h6.93c2.93,0,5.1-.66,6.51-1.98,1.41-1.32,2.11-3.37,2.11-6.14,0-2.54-.69-4.44-2.07-5.7-1.38-1.26-3.45-1.89-6.22-1.89h-7.25v.64ZM12.4,59.3c2.32,0,4.03.57,5.12,1.71,1.09,1.14,1.64,2.92,1.64,5.34s-.58,4.11-1.75,5.27c-1.17,1.16-2.94,1.73-5.32,1.73h-2.54v-14.05h2.86Z" fill="#32124b" stroke-width="0"/><polygon points="31.24 18.86 31.28 19.09 31.24 19.28 31.15 19.41 31.02 19.54 30.89 19.6 30.73 19.67 30.57 19.7 30.41 19.73 30.21 19.73 30.05 19.7 29.37 19.67 28.73 19.67 28.05 19.7 27.41 19.76 26.76 19.89 26.15 20.02 25.54 20.18 24.92 20.38 24.34 20.64 23.8 20.93 23.28 21.22 22.76 21.57 22.28 21.99 21.86 22.41 21.44 22.89 21.09 23.41 21.02 23.47 20.93 23.54 20.8 23.57 20.67 23.54 20.54 23.28 20.57 22.96 20.67 22.67 20.8 22.38 21.02 22.02 21.25 21.67 21.54 21.31 21.83 21.02 22.15 20.7 22.47 20.44 22.83 20.15 23.18 19.93 23.57 19.7 23.96 19.48 24.38 19.31 24.76 19.12 25.18 18.99 25.6 18.86 26.05 18.77 26.47 18.67 26.57 18.6 26.63 18.54 26.67 18.44 26.73 18.35 26.57 18.06 26.37 17.83 26.09 17.7 25.76 17.64 25.44 17.6 25.09 17.6 24.73 17.57 24.41 17.57 23.99 17.57 23.54 17.6 23.12 17.67 22.7 17.7 22.25 17.77 21.83 17.83 21.38 17.89 20.96 17.93 20.7 17.89 20.47 17.77 20.28 17.54 20.12 17.31 19.99 16.99 19.93 16.64 19.89 16.28 19.89 15.9 20.09 15.15 20.31 14.45 20.6 13.74 20.93 13.06 21.31 12.41 21.7 11.77 22.15 11.19 22.63 10.61 22.8 10.41 22.96 10.22 23.15 10.06 23.31 9.87 23.47 9.67 23.63 9.48 23.76 9.25 23.86 9.03 23.83 8.93 23.73 8.9 23.6 8.9 23.51 8.9 23.12 9.03 22.73 9.16 22.34 9.29 21.96 9.45 21.57 9.64 21.22 9.8 20.86 10.03 20.51 10.22 20.15 10.45 19.8 10.67 19.47 10.93 19.15 11.19 18.8 11.45 18.48 11.7 18.18 11.99 17.86 12.28 17.73 12.35 17.61 12.35 17.44 12.35 17.31 12.28 16.93 11.8 16.73 11.22 16.61 10.57 16.44 9.96 16.31 9.12 16.25 8.29 16.25 7.42 16.31 6.54 16.41 5.71 16.57 4.87 16.77 4.03 17.02 3.22 17.02 3.16 17.02 3.13 16.99 3.06 16.93 3.03 16.7 3.09 16.51 3.26 16.35 3.42 16.19 3.58 15.73 4.22 15.32 4.9 14.93 5.61 14.61 6.35 14.32 7.13 14.06 7.9 13.83 8.67 13.64 9.48 13.57 9.9 13.51 10.29 13.32 10.67 12.96 10.93 12.67 10.96 12.41 10.9 12.16 10.8 11.93 10.64 11.7 10.48 11.51 10.29 11.32 10.06 11.16 9.87 11 9.64 10.83 9.41 10.7 9.19 10.58 8.96 10.45 8.74 10.32 8.48 10.22 8.25 10.12 8 10.06 7.9 10 7.83 9.9 7.8 9.77 7.8 9.42 8.32 9.29 8.9 9.25 9.58 9.19 10.22 9.19 11.67 9.35 13.09 9.54 14.48 9.8 15.86 9.9 16.35 9.9 16.86 9.8 17.38 9.58 17.8 9.45 17.89 9.32 17.96 9.12 17.99 8.96 17.99 8.67 17.89 8.42 17.77 8.19 17.6 7.93 17.41 7.71 17.25 7.48 17.06 7.22 16.9 6.96 16.73 6.61 16.51 6.25 16.28 5.87 16.09 5.48 15.86 5.09 15.7 4.71 15.54 4.32 15.38 3.9 15.22 3.74 15.19 3.58 15.12 3.42 15.09 3.22 15.09 3.06 15.06 2.87 15.06 2.68 15.06 2.48 15.09 2.45 15.15 2.45 15.19 2.45 15.25 2.52 15.28 3.19 15.8 3.84 16.35 4.45 16.96 5.03 17.57 5.55 18.25 6.06 18.93 6.54 19.64 7.03 20.35 7.13 20.57 7.19 20.83 7.19 21.09 7.16 21.31 7.03 21.44 6.87 21.47 6.71 21.47 6.51 21.44 6.16 21.38 5.8 21.31 5.45 21.22 5.09 21.12 4.77 21.05 4.42 21.02 4.03 20.99 3.68 21.02 3.61 21.05 3.58 21.09 3.55 21.12 3.51 21.18 3.61 21.31 3.74 21.41 3.87 21.47 4 21.57 4.13 21.64 4.26 21.7 4.39 21.76 4.51 21.86 4.84 22.15 5.13 22.47 5.42 22.8 5.71 23.12 6 23.44 6.32 23.73 6.67 23.99 7.03 24.22 7.16 24.28 7.25 24.38 7.32 24.47 7.35 24.6 7.25 24.73 7.13 24.76 6.96 24.73 6.8 24.73 6.32 24.54 5.87 24.28 5.42 23.96 5.03 23.6 4.61 23.21 4.22 22.86 3.84 22.51 3.45 22.22 3.09 21.93 2.71 21.7 2.29 21.51 1.9 21.28 1.48 21.09 1.13 20.86 .77 20.6 .48 20.28 .48 20.18 .48 20.09 .52 19.99 .55 19.93 .9 19.8 1.26 19.7 1.64 19.67 2.03 19.67 2.45 19.7 2.84 19.73 3.22 19.8 3.61 19.83 3.97 19.86 4.29 19.93 4.61 19.99 4.9 20.09 5.22 20.18 5.51 20.28 5.8 20.38 6.13 20.47 6.19 20.51 6.25 20.47 6.35 20.47 6.38 20.41 6.25 20.18 6.13 19.96 5.97 19.73 5.8 19.54 5.64 19.35 5.45 19.12 5.29 18.93 5.13 18.73 4.64 18.28 4.16 17.83 3.64 17.41 3.13 16.99 2.58 16.57 2.03 16.22 1.45 15.86 .84 15.57 .61 15.48 .39 15.35 .16 15.19 0 14.96 0 14.77 .03 14.61 .1 14.48 .23 14.35 .71 14.09 1.23 13.93 1.77 13.8 2.39 13.74 2.97 13.77 3.55 13.83 4.09 13.93 4.61 14.12 5.13 14.35 5.64 14.64 6.13 14.93 6.58 15.25 7.06 15.61 7.51 15.96 7.96 16.28 8.42 16.64 8.58 16.73 8.77 16.8 8.93 16.86 9.12 16.83 9.22 16.67 9.22 16.48 9.19 16.28 9.16 16.09 8.96 15.22 8.71 14.35 8.45 13.51 8.16 12.67 7.9 11.8 7.71 10.93 7.64 10.03 7.67 9.06 7.74 8.51 7.84 8 7.96 7.51 8.12 7.03 8.32 6.58 8.54 6.09 8.8 5.67 9.09 5.22 9.25 5.09 9.48 5 9.7 4.97 9.93 5 10.16 5.16 10.35 5.35 10.51 5.58 10.64 5.8 10.77 6.03 10.9 6.29 11 6.54 11.06 6.8 11.16 7.25 11.25 7.71 11.38 8.16 11.48 8.58 11.64 9.03 11.8 9.45 11.99 9.83 12.25 10.22 12.32 10.25 12.41 10.32 12.48 10.35 12.58 10.32 12.67 10.19 12.74 10.03 12.74 9.83 12.74 9.64 12.77 8.48 12.93 7.38 13.15 6.29 13.54 5.22 13.99 4.22 14.54 3.29 15.22 2.39 15.96 1.55 16.25 1.32 16.57 1.06 16.86 .84 17.19 .61 17.48 .42 17.83 .26 18.18 .1 18.57 0 18.99 .64 18.73 1.87 18.48 3.09 18.22 4.35 18.02 5.58 17.86 6.84 17.73 8.09 17.7 9.38 17.77 10.67 17.83 10.8 17.96 10.9 18.09 10.93 18.22 10.9 18.64 10.61 19.06 10.29 19.47 9.96 19.93 9.64 20.38 9.32 20.83 9 21.28 8.74 21.73 8.48 22.12 8.29 22.54 8.09 22.96 7.9 23.38 7.74 23.8 7.58 24.25 7.45 24.7 7.35 25.18 7.29 25.41 7.29 25.63 7.32 25.86 7.32 26.09 7.32 26.31 7.38 26.5 7.45 26.67 7.58 26.79 7.77 26.83 8.03 26.79 8.25 26.7 8.48 26.57 8.67 26.21 9.03 25.86 9.38 25.5 9.74 25.15 10.09 24.79 10.45 24.44 10.8 24.09 11.16 23.73 11.51 23.38 11.9 23.05 12.25 22.73 12.64 22.41 13.03 22.09 13.41 21.8 13.8 21.51 14.22 21.25 14.64 20.99 15.12 20.8 15.64 20.67 16.19 20.73 16.77 20.83 16.86 20.93 16.93 21.02 16.99 21.15 17.02 21.64 16.99 22.12 16.96 22.6 16.9 23.09 16.83 23.54 16.77 24.02 16.7 24.5 16.64 24.99 16.64 25.41 16.64 25.83 16.64 26.25 16.64 26.67 16.67 27.08 16.7 27.5 16.77 27.89 16.86 28.28 16.96 28.66 17.06 29.05 17.22 29.41 17.35 29.76 17.54 30.08 17.73 30.41 17.96 30.73 18.22 31.02 18.48 31.15 18.64 31.24 18.86" fill="#00a1a6" stroke-width="0"/><path d="M11.77,39.21l-.29-.26-.32-.22-.29-.26-.29-.23-.29-.26-.32-.23-.29-.23-.32-.23-.35.1-.36.1-.39.1-.39.06-.42.06-.39.06-.42.03h-.84l-.39-.03-.39-.06-.39-.13-.35-.13-.36-.16-.32-.23-.29-.26-.29-.39-.19-.45-.13-.48v-.52l.03-.48.16-.51.19-.45.26-.42.06-.06.1-.06.1-.03h.13l.1.26-.19.58-.13.58-.03.61.19.58.39.39.45.29.52.16.55.1.58.03h.61l.58-.06.55-.1.16-.1-.1-.13-.13-.1-.13-.13-.16-.1-.32-.29-.36-.29-.35-.29-.39-.29-.35-.29-.32-.35-.26-.35-.19-.39-.03-.32.1-.26.16-.26.13-.23.1-.06.1.03.1.03.1.06.48.42.48.42.48.39.52.39.48.39.52.42.48.39.52.42.39-.23.39-.26.35-.23.39-.26.35-.26.36-.26.39-.26.36-.29v-.1l-.45-.35-.45-.39-.45-.35-.45-.39-.45-.35-.48-.39-.45-.35-.48-.35-.39.16-.39.13-.42.06h-.45l-.45-.03-.42-.1-.39-.13-.39-.19-.29-.19-.26-.23-.19-.29-.13-.36v-.52l.16-.45.26-.42.32-.35.16-.13.16-.1.16-.13.16-.1.16-.1.19-.1.16-.06.19-.06.1-.03.06.03.06.03.06.06-.1.23-.19.16-.23.13-.19.13-.32.26-.29.35-.16.39v.48l.06.16.1.13.1.13.13.1.23.06.23.07.23.03h.23l.23-.03.23-.03.23-.06.23-.06-.1-.13-.1-.16-.1-.13-.1-.13-.1-.19-.03-.26v-.23l.06-.23.1-.16.13-.16.13-.13.16-.06.23.13.19.16.23.19.23.16.19.19.23.16.19.19.19.16,4.26,3.55h.13l.35-.29.35-.26.36-.29.35-.26.36-.29.35-.26.35-.29.36-.29v-.06l-4.22-3.35-.13-.16-.16-.16-.16-.16-.16-.19-.1-.19-.1-.19v-.23l.03-.26.1-.19.1-.19.13-.13.13-.13.16.03,4.71,3.81.94.77.26-.16.23-.16.23-.16.23-.19.23-.16.23-.19.23-.16.26-.13.13.1.13.16.06.19.1.16.03.42-.13.35-.23.32-.23.32.16.03h.19l.16.03.19-.03.16-.03.16-.03.16-.06.13-.1.16-.16.1-.19.03-.19v-.23l-.06-.26-.1-.23-.06-.26.03-.23h.29l.16.16.13.26.13.23.13.39.03.42-.03.42-.16.35-.19.26-.23.23-.26.19-.26.13-.29.13-.32.06-.32.03h-.32l-.16-.03-.16-.03h-.16l-.16-.03-.16-.03-.16-.03-.13-.03-.16-.03-.39.29-.42.32-.39.29-.42.32-.42.32-.39.32-.42.32-.39.32v.1l.32.29.32.29.32.26.32.29.32.26.36.26.35.26.36.26.13-.03.48-.42.45-.39.48-.39.48-.39.48-.39.45-.39.48-.39.45-.39.1-.03.1.03.06.03.06.06.13.26.1.23.06.29-.03.29-.23.42-.29.35-.35.36-.36.29-.39.32-.39.29-.39.32-.32.32v.06l.06.03.06.03h.06l.42.06.42.03h.39l.42-.03.39-.1.39-.13.32-.19.29-.29.29-.48.1-.52-.03-.58-.13-.52-.06-.23-.1-.26-.03-.23.13-.19.29.16.19.26.13.32.13.29.23.74.03.77-.19.74-.42.68-.42.36-.48.26-.51.19-.55.1-.55.06h-.58l-.58-.03-.55-.1-.87-.22-.39.32-.42.32-.39.32-.39.32-.39.32-.39.29-.39.35-.39.32.29.29.32.26.32.29.32.26.35.26.32.26.39.19.39.19.45-.32.48-.36.45-.35.45-.36.45-.35.48-.35.45-.35.45-.36.19.03.13.26.13.29.06.32-.06.32-.16.32-.23.26-.22.26-.26.19-.26.23-.26.23-.29.19-.26.23v.06l.58-.03.55-.1.52-.19.52-.23.45-.32.42-.39.32-.42.29-.49.13-.42.1-.45.03-.45-.03-.48.03-.06.06-.1.06-.03.06-.03.13.03.1.06.06.1.03.1.1.58.06.55-.03.58-.13.55-.19.51-.26.48-.35.45-.42.39-.48.32-.55.29-.58.19-.58.16-.61.1-.64.03-.61-.03-.64-.1-.26.13-.23.16-.22.16-.19.16-.23.19-.19.16-.23.16-.23.16-.19.13-.19.16-.23.13-.19.13-.19.13-.19.13-.19.13-.19.16.32.23.32.19.32.19.36.16.39.16.35.16.39.13.39.1.42.06.39.06h.77l.42-.03.39-.1.35-.1.39-.16.35-.23.32-.26.29-.32.26-.32.19-.36.19-.39.19-.39.16-.39.1-.06.1-.03h.13l.1.03.1.35-.03.39-.1.38-.13.39-.29.61-.36.55-.45.52-.52.42-.58.39-.61.26-.65.19-.71.07h-.39l-.39-.03-.39-.06-.39-.06-.35-.1-.36-.1-.35-.13-.32-.13-.36-.16-.32-.16-.32-.16-.32-.16-.32-.19-.32-.16-.32-.19-.32-.16-.39.19-.39.23-.39.19-.39.23-.39.19-.42.19-.39.19-.42.19-.39.16-.42.13-.45.1-.42.1-.45.03h-.45l-.48-.03-.48-.06-.71-.23-.64-.32-.58-.39-.48-.52-.42-.55-.32-.61-.26-.64-.16-.68v-.13l.03-.13.03-.1.06-.1.1-.03h.1l.1.03.06.03.16.39.19.42.23.39.23.35.29.36.29.32.36.29.39.23.26.1.29.1.29.1.32.03.29.03.32.03.29-.03.32-.03.52-.1.48-.13.48-.19.48-.19.45-.19.48-.26.42-.26.45-.26-.03-.1-.16-.1-.16-.1-.13-.1-.16-.1-.13-.1-.16-.1-.13-.1-.16-.1-.23-.13-.19-.16-.23-.13-.19-.16-.23-.13-.19-.16-.23-.13-.19-.16-.61.13-.64.06-.68.03-.64-.03-.61-.06-.64-.16-.58-.19-.55-.29-.45-.26-.39-.36-.32-.39-.26-.42-.23-.48-.13-.48-.03-.52.03-.55.06-.32.06-.32.13-.29.23-.26h.13l.06.06.03.03v.32l-.03.32.03.35.03.32.19.55.29.48.32.45.42.39.45.29.52.26.55.16.58.1.16.03h.13l.16.03h.42l.16-.03.13-.03v-.06l-.32-.26-.35-.26-.32-.26-.36-.29-.35-.26-.32-.29-.29-.32-.26-.32-.13-.35v-.36l.13-.35.19-.32.13-.03.1.03.13.03.1.06.48.39.48.39.48.39.48.39.52.35.48.35.52.39.48.35.42-.26.36-.26.39-.26.36-.29.32-.29.35-.32.35-.29.36-.32-.03-.1-.13-.1-.13-.1-.13-.1-.1-.1-.13-.1-.13-.1-.13-.1-.13-.1ZM12.35,44.14l.19.1.16.13.19.1.16.13.16.1.16.13.19.1.16.13h.19l.35-.23.35-.23.36-.23.35-.23.32-.26.36-.23.32-.26.35-.26v-.13l-.35-.19-.36-.19-.32-.26-.32-.22-.32-.26-.32-.26-.32-.26-.32-.26-.36.29-.39.29-.36.29-.35.29-.35.29-.36.26-.35.29-.39.26.16.1.13.1.16.1.16.1.13.1.16.09.13.1.16.1ZM12.9,38.11l.13.1.13.13.13.1.13.1.1.13.13.1.13.13.13.1.19.06.35-.29.39-.29.35-.29.36-.29.32-.29.36-.29.32-.29.36-.29-.26-.19-.23-.16-.26-.19-.26-.19-.26-.19-.26-.19-.26-.19-.23-.19-.23-.16-.23-.19-.23-.16-.23-.16-.39.26-.36.26-.39.26-.35.23-.39.26-.39.26-.36.23-.39.26.23.19.23.19.23.19.26.19.23.19.26.19.23.23.26.19Z" fill="#32124b" stroke-width="0"/><polygon points="21.12 32.53 21.15 32.63 21.12 32.7 21.06 32.76 20.96 32.79 20.76 32.7 20.6 32.57 20.41 32.44 20.25 32.34 20.06 32.21 19.89 32.08 19.7 31.95 19.54 31.83 19.54 31.7 20.15 31.31 20.28 31.44 20.41 31.6 20.54 31.73 20.67 31.89 20.76 32.05 20.89 32.21 21.02 32.37 21.12 32.53" fill="#32124b" stroke-width="0"/><polygon points="20.86 39.24 20.86 39.34 20.83 39.4 20.76 39.43 20.7 39.43 20.51 39.34 20.35 39.21 20.15 39.11 19.99 38.98 19.83 38.85 19.67 38.72 19.47 38.56 19.31 38.43 19.41 38.27 19.57 38.14 19.73 38.05 19.89 37.92 20.02 37.98 20.86 39.24" fill="#32124b" stroke-width="0"/><polygon points="20.28 49.69 20.28 49.85 20.25 49.98 20.06 50.37 19.83 50.69 19.57 50.98 19.28 51.2 18.99 51.43 18.64 51.59 18.28 51.72 17.89 51.81 17.48 51.88 17.09 51.95 16.67 52.01 16.25 52.04 15.8 52.04 15.38 52.07 14.99 52.07 14.57 52.1 14.19 52.1 13.8 52.1 13.41 52.1 13.03 52.1 12.67 52.1 12.28 52.1 11.9 52.1 11.54 52.07 11.16 52.04 10.8 52.01 10.41 51.98 10.06 51.91 9.67 51.85 9.32 51.78 8.96 51.69 8.61 51.59 8.35 51.46 8.12 51.3 7.9 51.11 7.71 50.91 7.51 50.72 7.35 50.49 7.19 50.24 7.09 49.98 7.09 49.85 7.09 49.72 7.09 49.62 7.19 49.56 7.29 49.49 7.42 49.49 7.55 49.53 7.64 49.56 7.71 49.69 7.8 49.82 7.93 49.91 8.03 50.01 8.16 50.11 8.32 50.17 8.45 50.24 8.61 50.3 9.12 50.43 9.67 50.53 10.22 50.62 10.77 50.69 11.32 50.75 11.9 50.82 12.48 50.85 13.03 50.85 13.61 50.85 14.19 50.85 14.77 50.85 15.35 50.82 15.9 50.78 16.44 50.72 16.99 50.65 17.54 50.59 17.83 50.53 18.12 50.49 18.41 50.4 18.7 50.3 18.96 50.17 19.22 50.01 19.44 49.82 19.6 49.56 19.7 49.49 19.83 49.43 19.96 49.4 20.09 49.46 20.22 49.56 20.28 49.69" fill="#32124b" stroke-width="0"/><polygon points="20.28 33.24 20.28 33.34 20.25 33.4 20.18 33.47 20.12 33.47 19.93 33.37 19.73 33.28 19.57 33.15 19.38 33.02 19.22 32.89 19.02 32.76 18.86 32.63 18.67 32.5 18.83 32.34 18.99 32.18 19.15 32.05 19.35 31.99 20.28 33.24" fill="#32124b" stroke-width="0"/><polygon points="20.02 39.92 20.02 39.95 19.99 40.01 19.96 40.08 19.86 40.14 19.8 40.14 19.7 40.08 19.6 40.01 19.47 39.89 19.31 39.79 19.15 39.66 19.02 39.56 18.86 39.47 18.7 39.34 18.54 39.24 18.41 39.11 18.54 38.98 18.7 38.82 18.83 38.69 18.99 38.6 19.12 38.63 19.99 39.85 20.02 39.92" fill="#32124b" stroke-width="0"/><polygon points="19.54 24.12 19.54 24.25 19.51 24.38 19.51 24.47 19.38 24.5 19.25 24.5 19.12 24.47 19.02 24.41 18.41 23.83 17.83 23.21 17.35 22.54 16.93 21.83 16.57 21.09 16.31 20.31 16.12 19.51 16.03 18.67 15.99 18.6 15.96 18.54 15.9 18.51 15.83 18.48 15.51 18.51 15.22 18.57 14.96 18.7 14.7 18.83 14.44 19.02 14.19 19.19 13.96 19.38 13.74 19.57 13.35 19.96 12.99 20.35 12.64 20.73 12.35 21.15 12.03 21.57 11.77 22.02 11.51 22.47 11.25 22.92 11.06 23.18 10.87 23.44 10.61 23.67 10.38 23.86 10.12 24.05 9.83 24.22 9.54 24.34 9.25 24.47 9.12 24.47 9.03 24.5 8.93 24.5 8.83 24.44 8.77 24.34 8.77 24.25 8.8 24.15 8.83 24.02 9.25 23.76 9.61 23.44 9.9 23.09 10.16 22.7 10.38 22.31 10.58 21.89 10.77 21.44 10.93 21.02 11.16 20.64 11.41 20.25 11.7 19.86 11.99 19.51 12.32 19.15 12.67 18.83 13.03 18.51 13.41 18.22 13.83 17.93 14.22 17.7 14.67 17.44 15.09 17.25 15.54 17.06 15.99 16.9 16.44 16.77 16.93 16.67 17.15 16.67 17.38 16.64 17.61 16.67 17.83 16.73 17.96 16.86 17.99 17.06 17.99 17.28 17.96 17.48 17.7 18.35 17.57 19.25 17.61 20.12 17.77 20.99 18.06 21.8 18.44 22.6 18.93 23.34 19.47 24.02 19.54 24.12" fill="#00a1a6" stroke-width="0"/><polygon points="19.44 33.95 19.44 34.02 19.41 34.11 19.38 34.15 19.28 34.18 19.09 34.11 18.89 33.98 18.73 33.89 18.54 33.73 18.38 33.6 18.18 33.47 18.02 33.34 17.83 33.21 17.83 33.11 17.99 33.02 18.12 32.89 18.28 32.76 18.44 32.7 19.44 33.95" fill="#32124b" stroke-width="0"/><polygon points="19.12 40.66 19.12 40.72 19.09 40.76 19.02 40.79 18.93 40.82 18.73 40.69 18.54 40.59 18.38 40.47 18.18 40.34 18.02 40.21 17.86 40.05 17.7 39.92 17.54 39.79 17.7 39.63 17.86 39.5 18.02 39.37 18.22 39.3 18.48 39.63 18.7 39.98 18.93 40.3 19.12 40.66" fill="#32124b" stroke-width="0"/><polygon points="18.57 34.73 18.57 34.82 18.51 34.85 18.44 34.89 18.25 34.79 18.06 34.69 17.86 34.56 17.67 34.44 17.48 34.31 17.31 34.18 17.12 34.02 16.96 33.89 17.09 33.76 17.25 33.63 17.38 33.5 17.51 33.37 17.61 33.37 18.57 34.66 18.57 34.73" fill="#32124b" stroke-width="0"/><polygon points="18.25 41.3 18.25 41.37 18.22 41.43 18.15 41.46 18.09 41.5 17.99 41.5 17.93 41.43 16.67 40.47 16.8 40.34 16.93 40.21 17.09 40.08 17.28 39.95 17.54 40.24 17.8 40.56 17.99 40.88 18.22 41.21 18.22 41.27 18.25 41.3" fill="#32124b" stroke-width="0"/><polygon points="17.38 25.73 17.41 25.86 16.03 26.86 15.96 26.86 15.9 26.83 15.83 26.76 15.83 26.7 16.03 26.34 16.25 25.99 16.51 25.7 16.73 25.38 16.8 25.34 16.86 25.34 16.93 25.38 16.99 25.41 17.12 25.54 17.25 25.63 17.38 25.73" fill="#32124b" stroke-width="0"/><polygon points="16.57 25.09 16.57 25.15 15.22 26.12 15.09 26.15 14.99 26.05 14.96 25.92 15.03 25.8 15.15 25.63 15.25 25.5 15.38 25.34 15.51 25.21 15.6 25.05 15.73 24.92 15.86 24.76 15.99 24.63 16.15 24.73 16.28 24.83 16.41 24.96 16.57 25.09" fill="#32124b" stroke-width="0"/><polygon points="16.48 15.64 16.51 15.86 16.38 15.93 16.22 15.93 16.06 15.86 15.9 15.77 15.6 15.54 15.35 15.28 15.09 14.99 14.86 14.67 14.64 14.38 14.48 14.03 14.28 13.7 14.15 13.38 14.09 13.32 14.03 13.25 13.93 13.22 13.83 13.22 13.7 13.28 13.61 13.35 13.51 13.48 13.41 13.57 13.03 14.12 12.67 14.7 12.35 15.28 12.09 15.9 11.87 16.51 11.67 17.15 11.51 17.8 11.38 18.48 11.35 18.57 11.28 18.67 11.22 18.73 11.12 18.77 11 18.73 10.9 18.67 10.8 18.57 10.74 18.44 10.67 17.6 10.74 16.73 10.87 15.86 11.06 15.06 11.22 14.64 11.38 14.25 11.58 13.9 11.8 13.54 12.06 13.22 12.32 12.9 12.61 12.58 12.9 12.28 13.15 12.06 13.41 11.83 13.67 11.61 13.96 11.38 14.25 11.22 14.54 11.06 14.86 10.96 15.22 10.93 15.32 10.96 15.38 11.03 15.41 11.12 15.44 11.22 15.35 12.25 15.41 13.25 15.6 14.19 16.03 15.06 16.19 15.25 16.38 15.44 16.48 15.64" fill="#00a1a6" stroke-width="0"/><polygon points="15.7 24.44 15.54 24.57 15.38 24.73 15.19 24.86 15.03 24.99 14.83 25.09 14.67 25.21 14.48 25.34 14.32 25.44 14.25 25.44 14.19 25.41 14.12 25.38 14.09 25.31 14.19 25.12 14.32 24.96 14.44 24.76 14.57 24.6 14.7 24.44 14.83 24.28 14.93 24.12 15.06 23.96 15.19 23.96 15.7 24.44" fill="#32124b" stroke-width="0"/><polygon points="14.83 23.7 14.83 23.8 13.61 24.7 13.54 24.73 13.45 24.73 13.35 24.73 13.28 24.7 13.25 24.6 13.28 24.5 13.32 24.44 13.38 24.34 14.25 23.25 14.41 23.34 14.54 23.44 14.7 23.57 14.83 23.7" fill="#32124b" stroke-width="0"/><polygon points="12.99 28.82 12.83 28.99 11.61 29.82 11.54 29.82 11.48 29.79 11.41 29.76 11.35 29.7 11.41 29.5 12.38 28.31 12.58 28.41 12.74 28.57 12.86 28.7 12.99 28.82" fill="#32124b" stroke-width="0"/><polygon points="12.03 27.95 12.16 28.12 11.99 28.25 11.83 28.37 11.67 28.5 11.51 28.6 11.32 28.73 11.16 28.86 10.96 28.95 10.8 29.08 10.74 29.08 10.7 29.08 10.64 29.08 10.58 29.08 10.48 28.95 10.54 28.82 10.64 28.73 10.7 28.6 11.54 27.63 11.7 27.73 11.9 27.83 12.03 27.95" fill="#32124b" stroke-width="0"/><polygon points="11.32 27.37 11.32 27.44 9.96 28.41 9.87 28.41 9.77 28.41 9.7 28.34 9.67 28.25 9.77 28.05 10.67 26.92 10.87 26.99 11.03 27.12 11.16 27.24 11.32 27.37" fill="#32124b" stroke-width="0"/><polygon points="10.74 40.34 10.74 40.4 9.42 41.4 9.35 41.4 9.29 41.4 9.22 41.4 9.19 41.33 9.16 41.27 9.19 41.17 9.22 41.08 9.25 41.01 10.06 39.92 10.25 39.95 10.45 40.08 10.58 40.21 10.74 40.34" fill="#32124b" stroke-width="0"/><polygon points="10.58 33.4 10.58 33.47 9.22 34.44 9.12 34.44 9.06 34.44 9 34.4 8.96 34.34 9.06 34.15 9.16 33.95 9.29 33.79 9.42 33.63 9.54 33.47 9.67 33.28 9.8 33.11 9.93 32.95 10.12 33.02 10.25 33.11 10.41 33.28 10.58 33.4" fill="#32124b" stroke-width="0"/><polygon points="10.48 26.7 10.29 26.89 10.06 27.02 9.83 27.18 9.61 27.34 9.45 27.47 9.29 27.57 9.09 27.67 8.9 27.7 8.87 27.63 8.83 27.54 8.83 27.47 8.9 27.41 9.87 26.18 10.06 26.28 10.19 26.41 10.32 26.57 10.48 26.7" fill="#32124b" stroke-width="0"/><polygon points="9.9 39.69 9.74 39.82 9.58 39.95 9.42 40.11 9.22 40.24 9.06 40.37 8.9 40.5 8.74 40.59 8.54 40.72 8.48 40.72 8.38 40.72 8.32 40.69 8.29 40.63 8.48 40.24 8.71 39.89 8.96 39.56 9.22 39.24 9.35 39.24 9.9 39.69" fill="#32124b" stroke-width="0"/><polygon points="9.7 32.7 9.67 32.82 8.32 33.76 8.25 33.76 8.19 33.73 8.12 33.66 8.09 33.63 8.12 33.47 9.06 32.24 9.22 32.31 9.38 32.4 9.54 32.57 9.7 32.7" fill="#32124b" stroke-width="0"/><polygon points="9.03 39.05 8.87 39.18 8.71 39.34 8.51 39.43 8.35 39.56 8.16 39.69 8 39.82 7.8 39.95 7.64 40.08 7.58 40.08 7.48 40.05 7.42 40.01 7.38 39.95 7.51 39.69 7.67 39.43 7.84 39.24 8 39.01 8.12 38.89 8.22 38.69 8.35 38.56 8.54 38.6 9.03 39.05" fill="#32124b" stroke-width="0"/><polygon points="8.87 32.02 8.74 32.18 7.45 33.08 7.35 33.08 7.29 33.05 7.25 32.98 7.22 32.92 7.32 32.73 7.42 32.57 7.55 32.4 7.67 32.24 7.8 32.05 7.93 31.89 8.06 31.73 8.19 31.57 8.25 31.53 8.35 31.57 8.42 31.63 8.48 31.66 8.87 32.02" fill="#32124b" stroke-width="0"/><polygon points="8.12 38.31 8.12 38.4 6.74 39.4 6.67 39.37 6.64 39.37 6.58 39.34 6.51 39.3 6.58 39.08 7.45 37.85 7.64 37.95 7.8 38.05 7.96 38.18 8.12 38.31" fill="#32124b" stroke-width="0"/><polygon points="8 31.34 7.84 31.47 7.67 31.63 7.48 31.76 7.32 31.89 7.13 32.02 6.93 32.11 6.74 32.24 6.54 32.34 6.51 32.37 6.45 32.34 6.42 32.28 6.35 32.24 6.42 32.08 6.51 31.92 6.64 31.76 6.77 31.6 6.93 31.44 7.06 31.24 7.22 31.05 7.42 30.89 7.58 30.99 7.71 31.11 7.84 31.21 8 31.34" fill="#32124b" stroke-width="0"/><path d="M116.19,89.02v-7.59h-2.83v-1.02h6.82v1.02h-2.85v7.59h-1.14Z" fill="#231f20" stroke-width="0"/><path d="M120.75,89.02v-6.23h.95v.95c.24-.44.47-.73.67-.87.21-.14.43-.21.68-.21.36,0,.72.11,1.09.34l-.36.98c-.26-.15-.52-.23-.77-.23-.23,0-.44.07-.62.21s-.32.33-.39.58c-.12.38-.18.79-.18,1.23v3.26h-1.06Z" fill="#231f20" stroke-width="0"/><path d="M128.85,89.02v-.92c-.49.7-1.14,1.06-1.98,1.06-.37,0-.71-.07-1.03-.21s-.56-.32-.71-.53c-.15-.21-.26-.47-.33-.78-.04-.21-.06-.54-.06-.99v-3.86h1.06v3.46c0,.55.02.92.06,1.11.07.28.21.5.42.65.22.16.48.24.8.24s.61-.08.89-.24.47-.38.59-.66c.12-.28.17-.69.17-1.22v-3.34h1.06v6.23h-.94Z" fill="#231f20" stroke-width="0"/><path d="M131.03,87.16l1.04-.16c.06.42.22.74.49.96.27.22.64.33,1.12.33s.85-.1,1.08-.3.35-.43.35-.7c0-.24-.1-.43-.31-.56-.14-.09-.51-.21-1.08-.36-.77-.2-1.31-.36-1.61-.51-.3-.14-.53-.34-.68-.59-.15-.25-.23-.53-.23-.84,0-.28.06-.53.19-.77.13-.24.3-.43.52-.59.16-.12.39-.22.67-.31s.59-.13.91-.13c.49,0,.92.07,1.29.21.37.14.64.33.82.57.18.24.3.56.36.97l-1.03.14c-.05-.32-.18-.57-.41-.75-.23-.18-.54-.27-.95-.27-.49,0-.83.08-1.04.24-.21.16-.31.35-.31.56,0,.14.04.26.13.37.09.11.22.21.41.28.11.04.42.13.93.27.75.2,1.27.36,1.56.49.3.13.53.31.7.55s.25.54.25.9-.1.68-.31.99c-.21.31-.5.55-.89.72-.39.17-.83.26-1.31.26-.81,0-1.43-.17-1.85-.5-.42-.34-.7-.84-.81-1.5Z" fill="#231f20" stroke-width="0"/><path d="M139.76,88.08l.15.93c-.3.06-.56.09-.8.09-.38,0-.68-.06-.89-.18-.21-.12-.36-.28-.45-.48s-.13-.61-.13-1.25v-3.59h-.77v-.82h.77v-1.54l1.05-.63v2.18h1.06v.82h-1.06v3.64c0,.3.02.49.06.58s.1.15.18.21c.08.05.2.08.36.08.12,0,.27-.01.46-.04Z" fill="#231f20" stroke-width="0"/><path d="M145.06,87.02l1.09.13c-.17.64-.49,1.13-.96,1.48-.47.35-1.06.53-1.78.53-.91,0-1.63-.28-2.17-.84-.53-.56-.8-1.35-.8-2.36s.27-1.86.81-2.44c.54-.58,1.24-.87,2.1-.87s1.51.28,2.04.85c.53.57.79,1.37.79,2.39,0,.06,0,.16,0,.28h-4.65c.04.68.23,1.21.58,1.57.35.36.78.55,1.3.55.39,0,.72-.1.99-.31.27-.2.49-.53.65-.97ZM141.59,85.31h3.48c-.05-.52-.18-.92-.4-1.18-.34-.41-.77-.61-1.31-.61-.49,0-.89.16-1.22.49-.33.32-.51.76-.55,1.3Z" fill="#231f20" stroke-width="0"/><path d="M151.52,89.02v-.79c-.4.62-.98.93-1.74.93-.5,0-.95-.14-1.37-.41-.42-.27-.74-.66-.97-1.15-.23-.49-.34-1.06-.34-1.69s.1-1.19.31-1.69c.21-.51.52-.9.93-1.16.41-.27.88-.41,1.39-.41.38,0,.71.08,1,.24.29.16.53.36.72.62v-3.09h1.05v8.6h-.98ZM148.19,85.91c0,.8.17,1.39.5,1.79.34.39.73.59,1.19.59s.85-.19,1.18-.57c.32-.38.48-.95.48-1.73,0-.85-.16-1.48-.49-1.88s-.73-.6-1.22-.6-.86.19-1.18.57c-.32.38-.47.99-.47,1.81Z" fill="#231f20" stroke-width="0"/><path d="M157.25,86.26l1.07-.09c.05.43.17.78.35,1.06.19.28.47.5.87.67.39.17.83.26,1.32.26.43,0,.82-.06,1.15-.19s.58-.31.74-.53.24-.47.24-.74-.08-.51-.23-.71-.41-.37-.77-.51c-.23-.09-.74-.23-1.53-.42-.79-.19-1.34-.37-1.66-.54-.41-.22-.72-.48-.92-.8-.2-.32-.3-.68-.3-1.07,0-.43.12-.84.37-1.22.25-.38.61-.66,1.08-.86.47-.2,1-.29,1.58-.29.64,0,1.2.1,1.69.31.49.21.86.51,1.12.91.26.4.4.85.42,1.36l-1.09.08c-.06-.54-.26-.95-.6-1.23-.34-.28-.84-.42-1.5-.42s-1.19.13-1.51.38c-.32.25-.47.56-.47.91,0,.31.11.56.33.76.22.2.79.4,1.72.61.93.21,1.56.39,1.9.55.5.23.87.52,1.11.88s.36.76.36,1.22-.13.89-.39,1.29c-.26.41-.64.72-1.13.95-.49.22-1.04.34-1.66.34-.78,0-1.43-.11-1.96-.34-.53-.23-.94-.57-1.24-1.02-.3-.46-.46-.97-.47-1.55Z" fill="#231f20" stroke-width="0"/><path d="M165.53,81.63v-1.21h1.06v1.21h-1.06ZM165.53,89.02v-6.23h1.06v6.23h-1.06Z" fill="#231f20" stroke-width="0"/><path d="M168.19,89.02v-6.23h.95v.89c.46-.68,1.12-1.03,1.98-1.03.38,0,.72.07,1.04.2.31.14.55.31.71.53.16.22.27.48.33.78.04.2.06.54.06,1.03v3.83h-1.06v-3.79c0-.43-.04-.75-.12-.97-.08-.21-.23-.38-.44-.51-.21-.13-.45-.19-.74-.19-.45,0-.84.14-1.16.43-.33.29-.49.83-.49,1.63v3.4h-1.06Z" fill="#231f20" stroke-width="0"/><path d="M178.94,86.74l1.04.13c-.11.72-.4,1.28-.87,1.68-.47.41-1.04.61-1.72.61-.85,0-1.54-.28-2.06-.84-.52-.56-.78-1.36-.78-2.4,0-.67.11-1.26.33-1.77.22-.5.56-.88,1.02-1.14.46-.25.95-.38,1.49-.38.68,0,1.23.17,1.66.51.43.34.71.83.83,1.46l-1.03.16c-.1-.42-.27-.73-.52-.94s-.55-.32-.9-.32c-.53,0-.96.19-1.3.57-.33.38-.5.99-.5,1.81s.16,1.45.48,1.83c.32.38.74.57,1.26.57.41,0,.76-.13,1.04-.38.28-.25.45-.65.53-1.17Z" fill="#231f20" stroke-width="0"/><path d="M185.15,87.02l1.09.13c-.17.64-.49,1.13-.96,1.48-.47.35-1.06.53-1.78.53-.91,0-1.63-.28-2.17-.84-.53-.56-.8-1.35-.8-2.36s.27-1.86.81-2.44c.54-.58,1.24-.87,2.1-.87s1.51.28,2.04.85c.53.57.79,1.37.79,2.39,0,.06,0,.16,0,.28h-4.65c.04.68.23,1.21.58,1.57.35.36.78.55,1.3.55.39,0,.72-.1.99-.31.27-.2.49-.53.65-.97ZM181.68,85.31h3.48c-.05-.52-.18-.92-.4-1.18-.34-.41-.77-.61-1.31-.61-.49,0-.89.16-1.22.49-.33.32-.51.76-.55,1.3Z" fill="#231f20" stroke-width="0"/><path d="M194.6,89.02h-1.06v-6.73c-.25.24-.59.49-1,.73-.41.24-.78.42-1.11.55v-1.02c.59-.28,1.11-.61,1.55-1.01.44-.4.76-.78.94-1.15h.68v8.64Z" fill="#231f20" stroke-width="0"/><path d="M197.46,87.03l1.02-.09c.09.48.25.82.49,1.04.24.22.55.32.93.32.32,0,.61-.07.85-.22.24-.15.45-.35.6-.6s.29-.58.39-1.01c.11-.42.16-.85.16-1.29,0-.05,0-.12,0-.21-.21.34-.5.61-.87.82-.37.21-.76.31-1.19.31-.71,0-1.31-.26-1.81-.77s-.74-1.2-.74-2.04.26-1.58.77-2.11,1.16-.8,1.93-.8c.56,0,1.07.15,1.53.45.46.3.82.73,1.06,1.29.24.56.36,1.36.36,2.42s-.12,1.98-.36,2.63c-.24.65-.59,1.15-1.07,1.49s-1.02.51-1.66.51c-.67,0-1.22-.19-1.65-.56-.43-.37-.68-.9-.77-1.58ZM201.79,83.24c0-.61-.16-1.09-.48-1.44-.32-.36-.71-.53-1.16-.53s-.88.19-1.23.58c-.35.38-.52.88-.52,1.49,0,.55.17.99.5,1.34.33.34.74.51,1.22.51s.89-.17,1.21-.51c.32-.34.47-.82.47-1.42Z" fill="#231f20" stroke-width="0"/><path d="M204.06,81.55v-1.02h5.57v.82c-.55.58-1.09,1.36-1.63,2.32-.54.97-.95,1.96-1.25,2.98-.21.72-.35,1.51-.4,2.37h-1.09c.01-.68.14-1.49.4-2.45s.62-1.88,1.09-2.77c.48-.89.98-1.64,1.52-2.25h-4.21Z" fill="#231f20" stroke-width="0"/><path d="M214.65,89.02h-1.06v-6.73c-.25.24-.59.49-1,.73-.41.24-.78.42-1.11.55v-1.02c.59-.28,1.11-.61,1.55-1.01.44-.4.76-.78.94-1.15h.68v8.64Z" fill="#231f20" stroke-width="0"/></g></svg>