<?xml version="1.0" encoding="UTF-8"?><svg id="Layer_1" xmlns="http://www.w3.org/2000/svg" width="6.34in" height="10.73in" viewBox="0 0 456.36 772.39"><g id="Group_2186"><g id="Group_2185"><g id="Group_2184"><g id="Group_2183"><g id="Group_2182"><path id="Path_925" d="M450.8,281.01l.45,3.31-.45,2.82-1.4,1.91-1.83,1.87-1.83.95-2.28.93-2.32.49-2.28.47h-2.75l-2.32-.47-9.64-.49h-9.21l-9.66.49-9.19.93-9.21,1.89-8.74,1.87-8.74,2.37-8.72,2.82-8.29,3.78-7.81,4.24-7.36,4.24-7.36,5.2-6.91,6.12-5.99,6.13-5.97,7.07-5.05,7.55-.93.95-1.37.93-1.85.47-1.83-.47-1.83-3.8.47-4.7,1.37-4.24,1.83-4.24,3.22-5.18,3.22-5.18,4.15-5.22,4.14-4.24,4.6-4.71,4.59-3.78,5.05-4.23,5.05-3.33,5.52-3.27,5.52-3.31,5.99-2.36,5.52-2.84,5.97-1.87,5.99-1.91,6.44-1.4,5.97-1.42,1.39-.93.92-.95.47-1.42.9-1.42-2.28-4.23-2.77-3.29-4.12-1.91-4.62-.93-4.59-.49h-5.05l-5.05-.45h-10.6l-6.44.45-5.99.95-5.97.47-6.44.95-5.97.95-6.46.93-5.97.45-3.67-.45-3.22-1.89-2.77-3.31-2.28-3.29-1.85-4.71-.92-5.2-.47-5.18v-5.65l2.77-10.86,3.22-10.38,4.14-10.36,4.6-9.93,5.52-9.43,5.5-9.43,6.46-8.51,6.89-8.47,2.3-2.84,2.3-2.82,2.75-2.37,2.3-2.81,2.28-2.84,2.32-2.82,1.85-3.31,1.37-3.31-.47-1.4-1.39-.47h-3.2l-5.54,1.87-5.5,1.91-5.52,1.87-5.52,2.37-5.5,2.81-5.07,2.37-5.05,3.29-5.07,2.84-5.05,3.31-5.07,3.31-4.59,3.76-4.6,3.76-5.05,3.8-4.6,3.76-4.14,4.24-4.6,4.24-1.84.95h-4.14l-1.84-.95-5.52-7.07-2.77-8.49-1.84-9.44-2.28-8.94-1.85-12.27-.92-12.27v-12.75l.92-12.72,1.38-12.27,2.3-12.27,2.75-12.27,3.69-11.8v-1.39l-.47-.95-.92-.47-3.22.94-2.77,2.36-2.28,2.36-2.3,2.36-6.44,9.44-5.97,9.89-5.54,10.38-4.59,10.85-4.15,11.33-3.67,11.31-3.22,11.31-2.75,11.8-.93,6.13-.9,5.67-2.77,5.67-5.07,3.76-4.12.47-3.69-.93-3.67-1.44-3.22-2.34-3.24-2.37-2.77-2.81-2.73-3.33-2.32-2.81-2.28-3.33-2.3-3.29-1.84-3.29-1.84-3.31-1.84-3.29-1.85-3.8-1.38-3.29-1.38-3.76-.92-1.42-.92-.97-1.38-.45h-1.84l-5.05,7.56-1.85,8.49-.45,9.91-.93,9.43v21.22l2.32,20.74,2.75,20.31,3.67,20.27,1.38,7.09v7.52l-1.38,7.57-3.2,6.12-1.85,1.42-1.84.93-2.75.47h-2.3l-4.14-1.4-3.69-1.89-3.22-2.37-3.69-2.81-3.22-2.38-3.22-2.82-3.67-2.36-3.69-2.36-5.05-3.31-5.07-3.29-5.5-2.84-5.52-3.29-5.52-2.37-5.5-2.34-5.54-2.37-5.97-2.34-2.3-.47-2.3-.95-2.3-.47h-2.77l-2.3-.49h-5.52l-2.77.49-.45.93v1.42l.94.45,9.64,7.55,9.21,8.04,8.74,8.94,8.27,8.98,7.38,9.91,7.36,9.89,6.89,10.38,6.91,10.38,1.37,3.29.92,3.78v3.78l-.45,3.29-1.83,1.89-2.32.47h-2.28l-2.77-.47-5.05-.95-5.05-.93-5.05-1.4-5.07-1.42-4.6-.95-5.05-.47-5.52-.47-5.05.47-.92.47-.47.49-.47.47-.45.95,1.38,1.87,1.83,1.42,1.85.93,1.83,1.44,1.83.93,1.83.93,1.85.93,1.84,1.42,4.6,4.23,4.14,4.73,4.12,4.73,4.15,4.71,4.14,4.71,4.6,4.24,5.07,3.78,5.05,3.31,1.83.93,1.39,1.4.92,1.42.45,1.89-1.37,1.89-1.85.45-2.3-.45h-2.29l-6.91-2.82-6.44-3.78-6.46-4.71-5.5-5.2-5.97-5.67-5.52-5.2-5.53-5.16-5.52-4.25-5.07-4.24-5.5-3.31-5.97-2.82-5.52-3.29-5.99-2.84-5.05-3.29-5.07-3.8-4.12-4.71v-2.82l.45-1.4.47-.97,5.05-1.87,5.05-1.4,5.54-.49h5.5l5.97.49,5.52.47,5.52.93,5.52.45,5.05.49,4.6.93,4.6.97,4.12,1.4,4.62,1.42,4.12,1.4,4.15,1.42,4.59,1.42.93.47.9-.47h1.39l.45-.95-1.83-3.28-1.83-3.31-2.28-3.29-2.3-2.84-2.3-2.82-2.75-3.31-2.32-2.82-2.28-2.86-6.91-6.57-6.91-6.6-7.34-6.13-7.36-6.13-7.84-6.13-7.81-5.2-8.27-5.18-8.74-4.24-3.22-1.42-3.22-1.89-3.24-2.34-2.28-3.31v-2.84l.45-2.36.94-1.87,1.83-1.91,6.91-3.76,7.36-2.37,7.82-1.89,8.72-.92,8.27.45,8.27.95,7.84,1.4,7.36,2.84,7.36,3.29,7.36,4.24,6.89,4.24,6.46,4.73,6.89,5.18,6.44,5.2,6.44,4.71,6.44,5.18,2.3,1.42,2.75.93,2.3.93,2.77-.47,1.38-2.34v-2.85l-.49-2.82-.45-2.84-2.75-12.72-3.69-12.75-3.69-12.25-4.12-12.3-3.69-12.7-2.77-12.74-.9-13.22.45-14.14.92-8.04,1.39-7.52,1.83-7.09,2.3-7.07,2.75-6.62,3.22-7.05,3.69-6.13,4.15-6.62,2.28-1.89,3.22-1.4,3.22-.47,3.22.47,3.22,2.36,2.75,2.84,2.3,3.29,1.84,3.31,1.85,3.27,1.84,3.8,1.38,3.78.92,3.78,1.37,6.6,1.38,6.58,1.84,6.6,1.38,6.13,2.3,6.6,2.3,6.15,2.75,5.65,3.69,5.67.92.49,1.38.93.92.47,1.38-.47,1.38-1.89.9-2.37v-5.67l.49-16.98,2.28-16.03,3.22-16.03,5.52-15.58,6.45-14.61,7.81-13.69,9.68-13.2,10.58-12.25,4.14-3.33,4.6-3.76,4.14-3.29,4.6-3.31,4.14-2.82,5.05-2.37,5.05-2.34,5.53-1.42,5.99,9.43-3.69,17.91-3.69,17.93-3.69,18.38-2.73,17.93-2.32,18.4-1.84,18.38-.45,18.87.92,18.89.92,1.85,1.83,1.44,1.83.47,1.83-.47,6.01-4.24,5.95-4.71,5.99-4.71,6.44-4.75,6.44-4.7,6.44-4.73,6.42-3.76,6.46-3.8,5.52-2.81,5.99-2.84,5.97-2.82,5.99-2.37,5.97-2.34,6.44-1.89,6.42-1.42,6.91-.93h3.22l3.22.45h6.46l3.22.95,2.75.95,2.3,1.89,1.83,2.82.47,3.8-.47,3.27-1.39,3.29-1.83,2.84-5.07,5.18-5.05,5.2-5.05,5.2-5.05,5.18-5.07,5.2-5.05,5.16-5.05,5.2-5.07,5.18-5.04,5.67-4.62,5.18-4.59,5.67-4.59,5.67-4.62,5.67-4.12,5.65-4.15,6.13-3.69,6.13-3.67,7.09-2.77,7.55-1.83,8,.93,8.51,1.37,1.38,1.39.95,1.37.95,1.83.47,6.91-.47,6.91-.49,6.89-.93,6.91-.95,6.44-.92,6.91-.95,6.89-.95h24.84l5.99.49,5.97.47,5.97.95,5.54,1.38,5.52,1.42,5.5,1.42,5.52,2.36,5.05,1.89,5.07,2.82,4.59,2.84,4.6,3.29,4.6,3.8,4.12,3.76,1.83,2.36,1.41,3.29Z" fill="#9090a0" stroke-width="0"/><path id="Path_926" d="M181.27,650.8l2.75,1.42,2.3,1.87,2.77,1.42,2.28,1.91,2.3,1.39,2.3,1.91,2.75,1.4,2.32,1.89h2.75l5.05-3.29,5.05-3.29,5.07-3.33,5.05-3.29,4.59-3.78,5.07-3.31,4.6-3.74,5.05-3.8v-1.91l-5.05-2.81-5.07-2.82-4.6-3.78-4.59-3.29-4.6-3.78-4.59-3.78-4.6-3.78-4.6-3.78-5.07,4.24-5.5,4.24-5.07,4.26-5.05,4.23-5.05,4.24-5.05,3.78-5.05,4.24-5.54,3.78,2.32,1.42,1.83,1.4,2.28,1.4,2.32,1.44,1.84,1.42,2.3,1.37,1.84,1.46,2.29,1.42ZM189.1,562.61l1.84,1.42,1.84,1.87,1.84,1.42,1.85,1.42,1.38,1.87,1.84,1.42,1.84,1.91,1.84,1.38,2.77.95,5.04-4.24,5.54-4.23,5.05-4.24,5.05-4.26,4.6-4.24,5.07-4.26,4.59-4.21,5.07-4.28-3.68-2.81-3.22-2.37-3.69-2.82-3.69-2.82-3.67-2.82-3.67-2.84-3.69-2.82-3.22-2.84-3.22-2.34-3.24-2.84-3.2-2.36-3.22-2.35-5.5,3.78-5.08,3.77-5.52,3.76-5.05,3.33-5.54,3.76-5.5,3.76-5.07,3.33-5.5,3.76,3.22,2.81,3.22,2.86,3.22,2.81,3.69,2.82,3.22,2.86,3.67,2.82,3.22,3.29,3.68,2.84ZM163.32,666.37l-3.22-1.91-2.73-2.36-3.22-1.87-2.77-2.36-3.22-1.89-2.75-2.36-3.24-1.91-2.75-2.34-8.74,1.87-9.19.95-9.68.47-9.19-.47-8.74-.95-9.19-2.36-8.27-2.82-7.82-4.24-6.44-3.78-5.52-5.18-4.6-5.67-3.68-6.13-3.24-7.07-1.84-7.07-.45-7.55.45-8,.93-4.75.9-4.71,1.85-4.23,3.22-3.76h1.84l.94.92.45.47v4.72l-.45,4.73.45,5.18.45,4.7,2.77,8.04,4.14,7.05,4.6,6.62,5.97,5.67,6.44,4.24,7.36,3.76,7.82,2.36,8.27,1.42,2.32.45h1.83l2.28.5h5.98l2.32-.5,1.83-.45v-.93l-4.6-3.76-5.05-3.8-4.6-3.75-5.07-4.24-5.05-3.78-4.6-4.24-4.14-4.73-3.69-4.71-1.83-5.2v-5.18l1.83-5.18,2.75-4.71,1.85-.47,1.37.47,1.85.47,1.38.93,6.89,5.65,6.91,5.67,6.91,5.67,6.89,5.67,7.36,5.18,6.91,5.2,7.36,5.65,6.89,5.2,5.99-3.78,5.07-3.76,5.5-3.78,5.07-4.24,4.59-4.24,5.05-4.73,5.05-4.23,5.07-4.71-.45-1.42-1.85-1.42-1.84-1.42-1.84-1.4-1.38-1.42-1.84-1.42-1.85-1.4-1.84-1.42-1.84-1.42-4.15-3.79-4.6-3.29-4.14-3.76-4.12-3.33-4.15-3.76-4.59-3.29-4.15-3.33-4.59-3.31-5.06,1.45-5.07,1.42-5.5,1.4-5.52.95-5.99.93-5.52.95-5.97.47h-11.96l-5.52-.47-5.52-.95-5.52-1.89-5.05-1.89-5.07-2.37-4.59-3.27-4.16-3.8-4.12-5.64-2.77-6.6-1.83-7.07v-7.55l.47-7.09,2.28-7.52,2.75-6.62,3.7-6.13.9-.93,1.39-.95,1.38-.47h1.83l1.39,3.8-2.75,8.47-1.85,8.49-.45,8.96,2.75,8.51,5.52,5.63,6.44,4.26,7.36,2.36,7.82,1.4,8.27.49h8.76l8.26-.93,7.82-1.44,2.3-1.38-1.39-1.91-1.83-1.42-1.85-1.87-2.28-1.4-4.6-4.24-5.07-4.26-5.05-4.26-5.52-4.23-5.05-4.24-4.59-5.18-3.69-5.2-2.75-5.65-.47-4.73,1.38-3.76,2.3-3.78,1.83-3.31,1.38-.94,1.38.45,1.37.49,1.37.95,6.91,6.13,6.91,6.12,6.89,5.67,7.36,5.67,6.91,5.67,7.36,6.12,6.89,5.67,7.38,6.13,5.52-3.31,5.52-3.76,5.05-3.31,5.52-3.77,5.05-3.76,5.07-3.78,5.5-3.8,5.07-4.23v-1.42l-6.46-5.18-6.42-5.67-6.44-5.18-6.46-5.68-6.44-5.16-6.89-5.68-6.44-5.18-6.88-5.18-5.52,2.37-5.54,1.87-5.97.93h-6.44l-6.42-.47-5.99-1.42-5.52-1.87-5.52-2.84-4.14-2.84-3.69-3.29-2.75-4.23-1.83-5.2v-7.55l2.3-6.6,3.67-6.13,4.6-5.18,2.28-1.89,2.3-1.4,2.32-1.89,2.28-1.44,2.28-1.4,2.8-1.43,2.28-.92,2.77-.95,1.39-.49.9.49.93.47.92.95-1.39,3.27-2.75,2.37-3.22,1.87-2.77,1.91-4.59,3.78-4.15,5.18-2.3,5.67v7.07l.94,2.36,1.37,1.89,1.38,1.89,1.83,1.42,3.22.92,3.24.97,3.22.47h3.22l3.22-.47,3.2-.49,3.22-.95,3.22-.93-1.37-1.87-1.39-2.37-1.37-1.87-1.38-1.91-1.39-2.81-.45-3.8v-3.29l.9-3.31,1.39-2.36,1.83-2.36,1.85-1.87,2.3-.95,3.2,1.87,2.77,2.37,3.22,2.84,3.22,2.34,2.75,2.84,3.22,2.36,2.77,2.84,2.75,2.34,60.72,51.89h1.83l5.05-4.24,5.05-3.8,5.07-4.23,5.05-3.78,5.07-4.23,5.05-3.8,5.05-4.25,5.07-4.25v-.93l-60.26-49.04-1.85-2.36-2.28-2.36-2.32-2.37-2.28-2.81-1.39-2.85-1.38-2.84v-3.31l.47-3.76,1.37-2.84,1.38-2.82,1.84-1.89,1.85-1.87,2.3.45,67.14,55.67,13.35,11.32,3.67-2.36,3.24-2.36,3.22-2.34,3.2-2.84,3.22-2.36,3.22-2.84,3.22-2.34,3.69-1.91,1.84,1.42,1.84,2.36.93,2.82,1.38,2.36.45,6.12-1.84,5.2-3.22,4.71-3.24,4.73,2.3.47h2.77l2.28.47,2.77-.47,2.3-.47,2.3-.47,2.3-.93,1.83-1.42,2.28-2.37,1.39-2.81.47-2.84v-3.31l-.92-3.76-1.39-3.31-.93-3.78.49-3.29h4.14l2.28,2.36,1.85,3.78,1.83,3.29,1.85,5.67.45,6.13-.45,6.13-2.32,5.18-2.73,3.77-3.22,3.29-3.69,2.84-3.67,1.89-4.15,1.87-4.59.95-4.6.47h-4.62l-2.28-.47-2.3-.49h-2.3l-2.3-.47-2.28-.47-2.32-.47-1.84-.45-2.28-.49-5.52,4.25-5.99,4.71-5.52,4.23-5.97,4.73-5.99,4.73-5.52,4.71-5.95,4.71-5.52,4.71v1.42l4.59,4.24,4.6,4.24,4.59,3.78,4.6,4.24,4.6,3.76,5.07,3.78,5.05,3.78,5.05,3.76,1.85-.47,6.89-6.13,6.42-5.67,6.91-5.64,6.91-5.67,6.89-5.67,6.44-5.65,6.91-5.67,6.44-5.67,1.37-.47,1.39.47.93.49.9.95,1.85,3.76,1.39,3.31.9,4.24-.45,4.23-3.22,6.15-4.14,5.18-5.05,5.2-5.07,4.24-5.5,4.71-5.52,4.24-5.52,4.71-4.6,4.71v.93l.93.49.9.49h.93l5.97.93,5.97.47h5.54l5.97-.47,5.5-1.42,5.54-1.89,4.59-2.82,4.14-4.24,4.15-7.09,1.39-7.55-.49-8.47-1.83-7.55-.92-3.29-1.39-3.8-.45-3.29,1.83-2.82,4.14,2.36,2.77,3.76,1.85,4.73,1.82,4.26,3.24,10.83.45,11.33-2.77,10.85-5.97,9.89-5.99,5.2-6.89,3.78-7.36,2.82-7.81,1.42-7.84.92h-8.26l-8.29-.45-7.82-1.42-12.42-3.29-5.52,4.71-5.97,4.71-5.54,4.73-5.5,4.7-5.52,4.73-5.52,4.24-5.5,5.16-5.52,4.75,4.12,4.24,4.62,3.76,4.59,4.24,4.6,3.78,5.05,3.78,4.59,3.76,5.54,2.84,5.52,2.81,6.42-4.69,6.89-5.2,6.46-5.18,6.44-5.2,6.44-5.18,6.89-5.18,6.44-5.18,6.44-5.2,2.77.47,1.83,3.78,1.85,4.24.9,4.71-.9,4.71-2.32,4.73-3.22,3.78-3.2,3.74-3.7,2.86-3.67,3.29-3.67,3.31-4.14,2.82-3.67,3.29v.95l8.26-.49,7.82-1.4,7.36-2.82,7.38-3.31,6.42-4.71,5.99-5.65,4.59-6.13,4.15-7.1,1.83-6.12,1.39-6.62.47-6.6-.47-7.08.47-.93.9-1.42.93-.47.9-.49,1.85.49,1.39.95.93,1.42.45,1.4,1.39,8.49.9,8.02-.45,8.49-1.83,8.02-2.77,7.53-3.69,7.09-5.05,6.6-5.97,5.68-6.89,4.7-7.82,4.24-8.27,2.84-8.29,2.36-8.74,1.39-9.19.5-8.74-.5-9.21-1.39-3.67,1.89-3.24,2.34-3.2,2.37-2.75,2.36-3.24,2.82-2.77,2.37-3.2,2.32-3.22,2.37-2.77,1.89-2.75,2.37-3.22,1.89-2.77,1.85-2.73,1.91-2.77,1.89-2.77,1.89-2.75,2.37,4.59,3.29,4.6,2.82,4.6,2.82,5.07,2.37,5.5,2.36,5.05,2.36,5.54,1.89,5.5,1.4,5.99.95,5.52.93h11.03l5.97-.47,5.54-1.42,5.05-1.4,5.52-2.37,5.05-3.29,4.59-3.78,4.15-4.71,3.69-4.73,2.75-5.18,2.77-5.65,2.73-5.67,2.32-5.67,1.39-.95,1.35-.45h1.85l1.37.45,1.4,5.2-.45,5.67-1.4,5.65-1.83,5.67-4.14,8.96-5.05,8-6.44,7.57-7.36,6.11-8.29,5.68-8.72,3.78-9.21,2.81-10.13.95h-5.5l-5.52-.5-5.54-.92-5.5-.93-5.05-1.4-5.07-1.46-5.05-1.85-4.59-1.91-5.07-2.36-4.6-2.34-4.59-2.37-4.6-2.36-4.6-2.82-4.59-2.37-4.6-2.82-4.6-2.36-5.52,2.84-5.52,3.29-5.5,2.82-5.52,3.29-5.52,2.86-5.99,2.81-5.52,2.86-5.95,2.79-5.54,2.39-5.97,1.87-6.44,1.42-5.99,1.4-6.46.49h-6.44l-6.91-.49-6.89-.93-10.1-3.29-9.21-4.71-8.27-5.67-6.89-7.55-5.99-8-4.6-8.99-3.67-9.42-2.32-9.88v-1.91l.47-1.91.47-1.4.92-1.4,1.39-.49h1.39l1.37.49.92.49,2.3,5.63,2.77,6.15,3.22,5.65,3.22,5.2,4.14,5.18,4.14,4.73,5.05,4.24,5.52,3.29,3.69,1.4,4.14,1.4,4.14,1.42,4.6.49,4.12.45,4.6.49,4.14-.49,4.6-.45,7.36-1.42,6.91-1.89,6.91-2.82,6.89-2.86,6.44-2.81,6.91-3.78,5.97-3.8,6.44-3.78-.45-1.39-2.32-1.42-2.28-1.42-1.84-1.42-2.3-1.4-1.84-1.42-2.32-1.4-1.83-1.4-2.29-1.42Z" fill="#9090a0" stroke-width="0"/><path id="Path_927" d="M306.37,481.01l.45,1.42-.45.95-.92.92-1.38.47-2.75-1.38-2.3-1.91-2.77-1.89-2.28-1.42-2.77-1.87-2.3-1.91-2.75-1.85-2.3-1.89v-1.9l8.74-5.67,1.83,1.89,1.83,2.36,1.85,1.89,1.83,2.36,1.38,2.36,1.83,2.38,1.83,2.33,1.39,2.38Z" fill="#9090a0" stroke-width="0"/><path id="Path_928" d="M302.69,579.11v1.42l-.47.95-.92.45h-.92l-2.77-1.4-2.28-1.91-2.77-1.4-2.3-1.89-2.28-1.89-2.32-1.9-2.76-2.35-2.3-1.89,1.39-2.36,2.28-1.89,2.32-1.42,2.28-1.87,1.85.93,11.96,18.4Z" fill="#9090a0" stroke-width="0"/><path id="Path_929" d="M294.41,731.92v2.37l-.45,1.87-2.77,5.67-3.22,4.71-3.69,4.24-4.12,3.31-4.15,3.29-5.05,2.37-5.05,1.89-5.54,1.39-5.95.95-5.52.95-5.99.93-5.97.49h-6.44l-5.97.45h-5.52l-5.99.49h-38.18l-5.05-.49-5.52-.45-5.05-.49-5.52-.47-5.05-.93-5.52-.97-5.05-.93-5.07-1.4-5.05-1.4-3.69-1.91-3.22-2.36-3.2-2.82-2.77-2.82-2.77-2.84-2.28-3.29-2.3-3.76-1.39-3.8v-5.21l1.39-.94,1.39-.92h1.85l1.84.47,1.37.45.92,1.91,1.39,1.91,1.83,1.38,1.39,1.44,1.85,1.38,2.28.97,1.84.95,2.3.92,7.37,1.89,7.81,1.42,7.82,1.42,7.82.94,7.82.94,8.26.94,8.29.5h32.65l8.29-.5,7.81-.45,7.84-.95,7.81-.97,7.82-.92,4.14-.94,4.14-.47,4.14-1.42,4.14-1.42,3.67-1.87,3.69-2.36,3.22-2.82,2.28-3.81,1.4-.92,1.84-.94,1.84-.5,1.84.97,1.85,1.38.93,1.9Z" fill="#9090a0" stroke-width="0"/><path id="Path_930" d="M294.41,491.39v1.4l-.45.95-.94.94h-.9l-2.77-1.4-2.77-1.42-2.3-1.89-2.75-1.87-2.3-1.91-2.76-1.89-2.3-1.87-2.75-1.89,2.28-2.39,2.3-2.34,2.3-1.89,2.75-.93,13.35,18.4Z" fill="#9090a0" stroke-width="0"/><path id="Path_931" d="M290.74,589.01v.47l-.47.95-.45.95-1.38.92h-.94l-1.37-.92-1.39-.95-1.83-1.89-2.3-1.42-2.3-1.87-1.84-1.42-2.3-1.42-2.3-1.87-2.28-1.42-1.85-1.89,1.85-1.91,2.28-2.34,1.83-1.89,2.32-1.42,1.83.47,12.4,17.93.47.94Z" fill="#9090a0" stroke-width="0"/><path id="Path_932" d="M283.83,357.91v1.89l-.45,1.87v1.42l-1.85.47h-1.84l-1.84-.47-1.38-.93-8.74-8.49-8.27-8.97-6.91-9.89-5.97-10.38-5.05-10.85-3.69-11.33-2.77-11.78-1.37-12.27-.47-.94-.45-.95-.93-.45-.9-.49-4.62.49-4.12.94-3.68,1.87-3.69,1.89-3.69,2.82-3.67,2.37-3.22,2.82-3.22,2.82-5.52,5.67-5.05,5.67-5.07,5.65-4.12,6.13-4.62,6.16-3.67,6.6-3.69,6.58-3.67,6.6-2.76,3.78-2.77,3.78-3.67,3.29-3.22,2.84-3.69,2.82-4.14,2.37-4.14,1.87-4.14,1.89h-1.83l-1.39.47h-1.38l-1.39-.93-.92-1.42v-1.4l.47-1.42.45-1.91,5.99-3.76,5.05-4.71,4.14-5.18,3.69-5.67,3.22-5.65,2.77-6.15,2.75-6.6,2.28-6.13,3.22-5.65,3.69-5.68,4.14-5.65,4.14-5.18,4.6-5.2,5.07-4.71,5.05-4.69,5.52-4.24,5.97-4.28,5.5-3.29,6.46-3.78,5.99-2.82,6.42-2.82,6.44-2.36,6.46-1.89,6.89-1.4h3.2l3.22-.49,3.24.49,3.22.94,1.84,1.87.47,2.84v3.31l-.47,2.81-3.67,12.73-1.85,13.2.47,12.77,2.28,12.72,4.15,11.78,5.52,11.8,6.89,10.85,7.82,9.89.92,1.44Z" fill="#9090a0" stroke-width="0"/><path id="Path_933" d="M282.45,501.77v.94l-.45,1.42-.47.47-1.37.47-2.77-.94-2.77-1.89-2.3-1.42-2.73-2.34-2.32-1.91-2.75-1.89-2.3-1.89-2.75-1.87v-1.44l2.3-1.4,1.83-1.89,2.28-1.89,2.32-.93,14.25,18.4Z" fill="#9090a0" stroke-width="0"/><path id="Path_934" d="M277.85,599.86v.95l-.45.47-.94.49-1.38.47-2.75-1.91-2.75-1.4-2.3-1.89-2.77-1.89-2.29-1.89-2.3-2.36-2.3-1.89-2.3-1.89,2.3-2.34,2.3-1.91,2.3-1.89,2.75-.94,3.69,4.73,3.22,5.18,3.2,4.69,2.77,5.2Z" fill="#9090a0" stroke-width="0"/><path id="Path_935" d="M270.03,513.08v1.42l-.92.47-.92.49-2.79-1.44-2.73-1.42-2.77-1.89-2.76-1.85-2.75-1.91-2.3-1.89-2.77-2.36-2.28-1.89,1.84-1.89,2.28-1.89,1.83-1.88,1.85-1.87h1.39l13.8,18.85v.95Z" fill="#9090a0" stroke-width="0"/><path id="Path_936" d="M265.42,609.3v.94l-.45.95-.92.47-.92.47h-1.37l-.93-.94-17.94-14.16,1.84-1.89,1.84-1.89,2.3-1.89,2.77-1.89,3.67,4.24,3.69,4.71,2.77,4.71,3.2,4.73v.94l.45.49Z" fill="#9090a0" stroke-width="0"/><path id="Path_937" d="M253.01,381.49l.45,1.89-19.75,14.62h-.94l-.92-.47-.92-.95v-.95l2.77-5.18,3.22-5.2,3.67-4.24,3.22-4.69.92-.49h.93l.9.49.93.47,1.83,1.89,1.83,1.42,1.83,1.4Z" fill="#9090a0" stroke-width="0"/><path id="Path_938" d="M241.52,372.05v.95l-19.32,14.14-1.84.47-1.38-1.42-.45-1.87.9-1.89,1.84-2.34,1.39-1.91,1.85-2.37,1.82-1.87,1.39-2.37,1.85-1.89,1.83-2.36,1.83-1.87,2.32,1.42,1.83,1.4,1.83,1.89,2.3,1.89Z" fill="#9090a0" stroke-width="0"/><path id="Path_939" d="M240.14,233.86l.45,3.29-1.83.95h-2.28l-2.3-.95-2.32-1.4-4.14-3.31-3.67-3.78-3.67-4.23-3.24-4.71-3.22-4.26-2.28-5.2-2.77-4.69-1.83-4.73-.94-.94-.92-.95-1.37-.47h-1.38l-1.85.94-1.37.95-1.37,1.89-1.38,1.4-5.52,8.02-5.05,8.49-4.6,8.49-3.69,8.97-3.22,8.96-2.76,9.42-2.32,9.43-1.84,9.91-.45,1.42-.92,1.42-.92.92-1.39.5-1.84-.5-1.39-.92-1.39-1.42-.92-1.89-.92-12.27.92-12.74,1.84-12.73,2.77-11.78,2.3-6.13,2.28-5.65,2.77-5.2,3.22-5.18,3.69-4.73,3.67-4.73,4.14-4.69,4.15-4.24,3.67-3.31,3.69-3.29,3.67-3.29,4.14-3.31,4.15-2.36,4.12-2.37,4.6-1.42,5.07-.47,1.37.47.93.95.45,1.42.47,1.42-1.38,15.07.92,14.62,2.75,13.69,5.99,12.74,2.3,2.82,2.75,2.84,1.39,2.82Z" fill="#9090a0" stroke-width="0"/><path id="Path_940" d="M229.11,362.63l-2.3,1.89-2.3,2.36-2.77,1.89-2.3,1.89-2.75,1.4-2.29,1.89-2.77,1.89-2.3,1.4h-.92l-.92-.47-.94-.45-.45-.95,1.39-2.84,1.84-2.34,1.83-2.86,1.85-2.34,1.83-2.35,1.83-2.37,1.39-2.34,1.84-2.37h1.83l7.37,7.09Z" fill="#9090a0" stroke-width="0"/><path id="Path_941" d="M216.68,351.78v1.42l-17.47,13.18-.94.49h-2.75l-.94-.49-.45-1.4.45-1.42.49-.94.9-1.42,12.43-16.05,2.3,1.42,1.83,1.42,2.31,1.87,1.83,1.91Z" fill="#9090a0" stroke-width="0"/><path id="Path_942" d="M190.47,426.76l-2.3,2.37-17.49,12.25h-.92l-.92-.47-.92-.47-.92-.94.92-2.84,13.8-17.47,2.77,1.44,2.28,2.36,1.84,1.89,1.85,1.87Z" fill="#9090a0" stroke-width="0"/><path id="Path_943" d="M176.65,414.03l1.85,2.37-2.3,1.87-2.3,1.89-2.3,1.91-2.3,1.38-2.76,1.9-2.3,1.89-2.77,1.4-2.29,1.89h-3.22l-1.39-1.89.92-1.89,1.39-1.4.92-1.91,11.96-14.14,2.28,1.42,2.77,1.4,1.83,1.89Z" fill="#9090a0" stroke-width="0"/><path id="Path_944" d="M166.55,405.53v.95l-19.32,14.16h-2.77l-.92-.95-.45-1.4,1.37-2.84,12.9-16.51,2.73.95,2.32,1.89,1.84,1.87,2.3,1.89Z" fill="#9090a0" stroke-width="0"/><path id="Path_945" d="M158.26,595.14v.95l-18.85,14.61h-2.75l-.48-.95-.45-.92.45-1.42.49-1.4.45-.95,11.49-16.05,2.77.47,2.77,1.91,1.84,1.87,2.28,1.89Z" fill="#9090a0" stroke-width="0"/><path id="Path_946" d="M155.97,493.74v.95l-19.32,14.16h-2.3l-.92-.49-.47-.94,1.38-2.84,1.37-2.81,1.84-2.37,1.85-2.37,1.85-2.34,1.83-2.84,1.84-2.36,1.85-2.36,2.73.95,1.85,1.4,2.31,2.36,2.3,1.88Z" fill="#9090a0" stroke-width="0"/><path id="Path_947" d="M154.59,395.63l-2.77,2.82-3.2,1.89-3.22,2.37-3.24,2.34-2.28,1.91-2.32,1.42-2.73,1.38-2.77.49-.47-.94-.45-1.42v-.94l.92-.95,13.79-17.94,2.77,1.42,1.84,1.89,1.83,2.34,2.3,1.9Z" fill="#9090a0" stroke-width="0"/><path id="Path_948" d="M146.3,585.71l-2.28,1.9-2.32,1.85-2.28,2.37-2.77,1.89-2.3,1.89-2.28,1.89-2.32,1.42-2.75,1.87h-2.29l-.93-.49-.45-.92,2.75-5.66,3.22-5.2,3.67-4.71,3.68-4.71h1.85l7.81,6.6Z" fill="#9090a0" stroke-width="0"/><path id="Path_949" d="M143.54,483.37l-.45,1.88-19.32,13.67h-.92l-.92-.45-.93-.97-.45-.44.45-2.36,13.35-17.94,2.3.95,2.28,1.42,2.32,2.34,2.28,1.91Z" fill="#9090a0" stroke-width="0"/><path id="Path_950" d="M133.89,576.28l-2.3,1.89-2.3,2.36-2.75,1.4-2.32,1.91-2.73,1.87-2.3,1.91-2.77,1.87-2.29,1.89h-.93l-1.39-.49-.9-.47-.47-.94,1.84-3.78,2.3-3.78,2.3-2.82,2.3-3.31,1.83-1.87,1.37-2.82,1.83-1.91,2.77.49,6.91,6.6Z" fill="#9090a0" stroke-width="0"/><path id="Path_951" d="M131.58,473.46l-1.83,2.36-18.4,13.2h-1.37l-.93-.47-.45-.95-.47-.92,1.39-2.84,1.38-2.36,1.84-2.36,1.84-2.37,1.84-2.82,1.84-2.37,1.85-2.34,1.83-2.35.93-.47,1.37.47.92.93.93.47,5.51,5.2Z" fill="#9090a0" stroke-width="0"/><path id="Path_952" d="M121,565.43v1.42l-19.77,14.62-.92-.49h-.47l-.92-.47-.92-.49.92-3.29,12.41-17.93,2.77,1.44,2.28,1.4,2.32,1.89,2.28,1.89Z" fill="#9090a0" stroke-width="0"/><path id="Path_953" d="M119.17,463.56l-2.28,1.89-2.32,2.34-2.75,1.91-2.3,1.87-2.75,1.89-2.77,1.42-2.75,1.89-2.77,1.38-.45.49-.93-.49-.45-.9-.92-.49.92-2.37,1.38-2.35,1.83-2.34,1.85-2.37,2.29-2.36,1.84-2.84,2.32-2.81,2.74-2.38,2.3,1.42,1.83,1.89,1.85,1.4,2.29,1.91Z" fill="#9090a0" stroke-width="0"/></g></g></g></g></g></svg>