<?xml version="1.0" encoding="utf-8"?>
<!-- Generator: Adobe Illustrator 28.3.0, SVG Export Plug-In . SVG Version: 6.00 Build 0)  -->
<svg version="1.1" id="Layer_1" xmlns="http://www.w3.org/2000/svg" xmlns:xlink="http://www.w3.org/1999/xlink" x="0px" y="0px"
	 viewBox="0 0 300.5 772.6" style="enable-background:new 0 0 300.5 772.6;" xml:space="preserve">
<style type="text/css">
	.st0{fill:#FAFAF8;}
</style>
<g id="Group_2186">
	<g id="Group_2185">
		<g id="Group_2184">
			<g id="Group_2183">
				<g id="Group_2182">
					<path id="Path_925" class="st0" d="M292.9,281.1l0.5,3.3l-0.5,2.8l-1.4,1.9l-1.8,1.9l-1.8,1l-2.3,0.9l-2.3,0.5l-2.3,0.5h-2.8
						l-2.3-0.5l-9.6-0.5H257l-9.7,0.5l-9.2,0.9l-9.2,1.9l-8.7,1.9l-8.7,2.4l-8.7,2.8l-8.3,3.8l-7.8,4.2l-7.4,4.2l-7.4,5.2l-6.9,6.1
						l-6,6.1l-6,7.1l-5.1,7.6l-0.9,1l-1.4,0.9l-1.9,0.5l-1.8-0.5l-1.8-3.8l0.5-4.7l1.4-4.2l1.8-4.2l3.2-5.2l3.2-5.2l4.2-5.2l4.1-4.2
						l4.6-4.7l4.6-3.8l5.1-4.2l5.1-3.3l5.5-3.3l5.5-3.3l6-2.4l5.5-2.8l6-1.9l6-1.9l6.4-1.4l6-1.4l1.4-0.9l0.9-1l0.5-1.4l0.9-1.4
						l-2.3-4.2l-2.8-3.3l-4.1-1.9l-4.6-0.9l-4.6-0.5h-5.1l-5.1-0.5h-10.6l-6.4,0.5l-6,1l-6,0.5l-6.4,1l-6,1l-6.5,0.9l-6,0.5
						l-3.7-0.5l-3.2-1.9l-2.8-3.3l-2.3-3.3l-1.9-4.7l-0.9-5.2l-0.5-5.2v-5.7l2.8-10.9l3.2-10.4l4.1-10.4l4.6-9.9l5.5-9.4l5.5-9.4
						l6.5-8.5l6.9-8.5l2.3-2.8l2.3-2.8l2.8-2.4l2.3-2.8l2.3-2.8l2.3-2.8l1.9-3.3l1.4-3.3l-0.5-1.4l-1.4-0.5h-3.2l-5.5,1.9l-5.5,1.9
						l-5.5,1.9l-5.5,2.4l-5.5,2.8l-5.1,2.4l-5.1,3.3l-5.1,2.8l-5.1,3.3l-5.1,3.3L125,165l-4.6,3.8l-5.1,3.8l-4.6,3.8l-4.1,4.2
						l-4.6,4.2l-1.8,1H96l-1.8-1l-5.5-7.1l-2.8-8.5l-1.8-9.4l-2.3-8.9l-1.9-12.3L79,126.3v-12.8l0.9-12.7l1.4-12.3l2.3-12.3L86.4,64
						l3.7-11.8v-1.4l-0.5-1l-0.9-0.5l-3.2,0.9l-2.8,2.4l-2.3,2.4l-2.3,2.4l-6.4,9.4l-6,9.9l-5.5,10.4L55.6,98l-4.2,11.3l-3.7,11.3
						l-3.2,11.3l-2.8,11.8l-0.9,6.1l-0.9,5.7l-2.8,5.7l-5.1,3.8l-4.1,0.5l-3.7-0.9l-3.7-1.4l-3.2-2.3l-3.2-2.4l-2.8-2.8l-2.7-3.3
						l-2.3-2.8L4,146.1l-2.3-3.3l-1.8-3.3l-1.8-3.3l-1.8-3.3l-1.9-3.8l-1.4-3.3l-1.4-3.8l-0.9-1.4l-0.9-1l-1.4-0.5h-1.8l-5.1,7.6
						l-1.9,8.5l-0.5,9.9l-0.9,9.4v21.2l2.3,20.7l2.8,20.3l3.7,20.3l1.4,7.1v7.5l-1.4,7.6l-3.2,6.1l-1.9,1.4l-1.8,0.9l-2.8,0.5h-2.3
						l-4.1-1.4l-3.7-1.9l-3.2-2.4l-3.7-2.8l-3.2-2.4l-3.2-2.8l-3.7-2.4l-3.7-2.4l-5.1-3.3l-5.1-3.3l-5.5-2.8l-5.5-3.3l-5.5-2.4
						l-5.5-2.3l-5.5-2.4l-6-2.3l-2.3-0.5l-2.3-1l-2.3-0.5h-2.8l-2.3-0.5h-5.5l-2.8,0.5l-0.5,0.9v1.4l0.9,0.5l9.6,7.6l9.2,8l8.7,8.9
						l8.3,9l7.4,9.9l7.4,9.9l6.9,10.4l6.9,10.4l1.4,3.3l0.9,3.8v3.8l-0.5,3.3l-1.8,1.9l-2.3,0.5h-2.3l-2.8-0.5l-5.1-1l-5.1-0.9
						l-5.1-1.4l-5.1-1.4l-4.6-1l-5.1-0.5l-5.5-0.5l-5.1,0.5l-0.9,0.5l-0.5,0.5l-0.5,0.5l-0.5,1l1.4,1.9l1.8,1.4l1.9,0.9l1.8,1.4
						l1.8,0.9l1.8,0.9l1.9,0.9l1.8,1.4l4.6,4.2l4.1,4.7l4.1,4.7l4.2,4.7l4.1,4.7l4.6,4.2l5.1,3.8l5.1,3.3l1.8,0.9l1.4,1.4l0.9,1.4
						l0.5,1.9l-1.4,1.9l-1.9,0.5l-2.3-0.5h-2.3l-6.9-2.8l-6.4-3.8l-6.5-4.7l-5.5-5.2l-6-5.7l-5.5-5.2l-5.5-5.2l-5.5-4.3l-5.1-4.2
						l-5.5-3.3l-6-2.8l-5.5-3.3l-6-2.8l-5.1-3.3l-5.1-3.8l-4.1-4.7V299l0.5-1.4l0.5-1l5.1-1.9l5.1-1.4l5.5-0.5h5.5l6,0.5l5.5,0.5
						l5.5,0.9l5.5,0.5l5.1,0.5l4.6,0.9l4.6,1l4.1,1.4l4.6,1.4l4.1,1.4l4.2,1.4l4.6,1.4l0.9,0.5l0.9-0.5h1.4l0.5-1l-1.8-3.3l-1.8-3.3
						l-2.3-3.3l-2.3-2.8l-2.3-2.8l-2.8-3.3l-2.3-2.8l-2.3-2.9l-6.9-6.6l-6.9-6.6l-7.3-6.1l-7.4-6.1l-7.8-6.1l-7.8-5.2l-8.3-5.2
						l-8.7-4.2l-3.2-1.4l-3.2-1.9l-3.2-2.3l-2.3-3.3v-2.8l0.5-2.4l0.9-1.9l1.8-1.9l6.9-3.8l7.4-2.4l7.8-1.9l8.7-0.9l8.3,0.5l8.3,1
						l7.8,1.4l7.4,2.8l7.4,3.3l7.4,4.2l6.9,4.2l6.5,4.7l6.9,5.2l6.4,5.2l6.4,4.7l6.4,5.2l2.3,1.4l2.8,0.9l2.3,0.9l2.8-0.5l1.4-2.3
						v-2.9l-0.5-2.8l-0.5-2.8l-2.8-12.7l-3.7-12.8l-3.7-12.3l-4.1-12.3l-3.7-12.7l-2.8-12.7l-0.9-13.2l0.5-14.1l0.9-8l1.4-7.5
						l1.8-7.1l2.3-7.1l2.8-6.6l3.2-7.1l3.7-6.1l4.2-6.6l2.3-1.9l3.2-1.4l3.2-0.5l3.2,0.5l3.2,2.4l2.8,2.8l2.3,3.3l1.8,3.3l1.9,3.3
						L2.7,97l1.4,3.8l0.9,3.8l1.4,6.6l1.4,6.6l1.8,6.6l1.4,6.1l2.3,6.6l2.3,6.2l2.8,5.7l3.7,5.7l0.9,0.5l1.4,0.9l0.9,0.5l1.4-0.5
						l1.4-1.9l0.9-2.4v-5.7l0.5-17l2.3-16l3.2-16l5.5-15.6l6.5-14.6l7.8-13.7l9.7-13.2l10.6-12.3l4.1-3.3l4.6-3.8l4.1-3.3l4.6-3.3
						l4.1-2.8l5.1-2.4l5.1-2.3l5.5-1.4l6,9.4l-3.7,17.9l-3.7,17.9l-3.7,18.4l-2.7,17.9L102,105l-1.8,18.4l-0.5,18.9l0.9,18.9
						l0.9,1.9l1.8,1.4l1.8,0.5l1.8-0.5l6-4.2l6-4.7l6-4.7l6.4-4.8l6.4-4.7l6.4-4.7l6.4-3.8l6.5-3.8l5.5-2.8l6-2.8l6-2.8l6-2.4l6-2.3
						l6.4-1.9l6.4-1.4l6.9-0.9h3.2l3.2,0.5h6.5l3.2,1l2.8,1l2.3,1.9l1.8,2.8l0.5,3.8l-0.5,3.3l-1.4,3.3l-1.8,2.8l-5.1,5.2l-5.1,5.2
						l-5.1,5.2l-5.1,5.2l-5.1,5.2l-5.1,5.2l-5.1,5.2l-5.1,5.2l-5,5.7l-4.6,5.2l-4.6,5.7l-4.6,5.7l-4.6,5.7l-4.1,5.7l-4.2,6.1
						l-3.7,6.1l-3.7,7.1l-2.8,7.6l-1.8,8l0.9,8.5l1.4,1.4l1.4,1l1.4,1l1.8,0.5l6.9-0.5l6.9-0.5l6.9-0.9l6.9-1l6.4-0.9l6.9-1l6.9-1
						h24.8l6,0.5l6,0.5l6,1l5.5,1.4l5.5,1.4l5.5,1.4l5.5,2.4l5.1,1.9l5.1,2.8l4.6,2.8l4.6,3.3l4.6,3.8l4.1,3.8l1.8,2.4L292.9,281.1
						L292.9,281.1z"/>
					<path id="Path_926" class="st0" d="M23.3,650.9l2.8,1.4l2.3,1.9l2.8,1.4l2.3,1.9l2.3,1.4l2.3,1.9l2.8,1.4l2.3,1.9h2.8l5.1-3.3
						l5.1-3.3l5.1-3.3l5.1-3.3l4.6-3.8l5.1-3.3l4.6-3.7l5.1-3.8v-1.9l-5.1-2.8l-5.1-2.8l-4.6-3.8l-4.6-3.3l-4.6-3.8l-4.6-3.8
						l-4.6-3.8l-4.6-3.8l-5.1,4.2l-5.5,4.2l-5.1,4.3l-5.1,4.2l-5.1,4.2l-5.1,3.8l-5.1,4.2l-5.5,3.8l2.3,1.4l1.8,1.4l2.3,1.4l2.3,1.4
						l1.8,1.4l2.3,1.4l1.8,1.5L23.3,650.9L23.3,650.9z M31.2,562.7l1.8,1.4l1.8,1.9l1.8,1.4l1.9,1.4l1.4,1.9l1.8,1.4l1.8,1.9
						l1.8,1.4l2.8,1l5-4.2l5.5-4.2l5.1-4.2l5.1-4.3l4.6-4.2l5.1-4.3l4.6-4.2l5.1-4.3l-3.7-2.8l-3.2-2.4l-3.7-2.8l-3.7-2.8l-3.7-2.8
						l-3.7-2.8l-3.7-2.8l-3.2-2.8l-3.2-2.3l-3.2-2.8l-3.2-2.4l-3.2-2.4l-5.5,3.8l-5.1,3.8l-5.5,3.8l-5.1,3.3l-5.5,3.8l-5.5,3.8
						l-5.1,3.3L4,539.6l3.2,2.8l3.2,2.9l3.2,2.8l3.7,2.8l3.2,2.9l3.7,2.8l3.2,3.3L31.2,562.7L31.2,562.7z M5.4,666.5l-3.2-1.9
						l-2.7-2.4l-3.2-1.9l-2.8-2.4l-3.2-1.9l-2.8-2.4l-3.2-1.9l-2.8-2.3l-8.7,1.9l-9.2,1l-9.7,0.5l-9.2-0.5l-8.7-1l-9.2-2.4l-8.3-2.8
						l-7.8-4.2l-6.4-3.8l-5.5-5.2l-4.6-5.7l-3.7-6.1l-3.2-7.1l-1.8-7.1l-0.5-7.6l0.5-8l0.9-4.8l0.9-4.7l1.9-4.2l3.2-3.8h1.8l0.9,0.9
						l0.5,0.5v4.7l-0.5,4.7l0.5,5.2l0.5,4.7l2.8,8l4.1,7.1l4.6,6.6l6,5.7l6.4,4.2l7.4,3.8l7.8,2.4l8.3,1.4l2.3,0.5h1.8l2.3,0.5h6
						l2.3-0.5l1.8-0.5V633l-4.6-3.8l-5.1-3.8l-4.6-3.8l-5.1-4.2l-5.1-3.8l-4.6-4.2l-4.1-4.7L-77,600l-1.8-5.2v-5.2l1.8-5.2l2.8-4.7
						l1.9-0.5l1.4,0.5l1.9,0.5l1.4,0.9l6.9,5.7l6.9,5.7l6.9,5.7l6.9,5.7l7.4,5.2l6.9,5.2l7.4,5.7l6.9,5.2l6-3.8l5.1-3.8l5.5-3.8
						l5.1-4.2l4.6-4.2l5.1-4.7l5.1-4.2l5.1-4.7l-0.5-1.4l-1.9-1.4l-1.8-1.4l-1.8-1.4l-1.4-1.4l-1.8-1.4l-1.9-1.4l-1.8-1.4l-1.8-1.4
						l-4.2-3.8l-4.6-3.3L2.1,568l-4.1-3.3l-4.2-3.8l-4.6-3.3l-4.2-3.3l-4.6-3.3l-5.1,1.5l-5.1,1.4l-5.5,1.4l-5.5,1l-6,0.9l-5.5,1
						l-6,0.5h-12l-5.5-0.5l-5.5-1l-5.5-1.9l-5.1-1.9l-5.1-2.4l-4.6-3.3l-4.2-3.8l-4.1-5.6l-2.8-6.6l-1.8-7.1V517l0.5-7.1l2.3-7.5
						l2.8-6.6l3.7-6.1l0.9-0.9l1.4-1l1.4-0.5h1.8l1.4,3.8l-2.8,8.5l-1.9,8.5l-0.5,9l2.8,8.5l5.5,5.6l6.4,4.3l7.4,2.4l7.8,1.4
						l8.3,0.5h8.8l8.3-0.9l7.8-1.4l2.3-1.4l-1.4-1.9l-1.8-1.4l-1.9-1.9l-2.3-1.4l-4.6-4.2l-5.1-4.3l-5.1-4.3l-5.5-4.2l-5.1-4.2
						l-4.6-5.2l-3.7-5.2l-2.8-5.7l-0.5-4.7l1.4-3.8l2.3-3.8l1.8-3.3l1.4-0.9l1.4,0.5l1.4,0.5l1.4,1l6.9,6.1l6.9,6.1l6.9,5.7l7.4,5.7
						l6.9,5.7l7.4,6.1l6.9,5.7l7.4,6.1l5.5-3.3l5.5-3.8l5.1-3.3l5.5-3.8l5.1-3.8l5.1-3.8l5.5-3.8l5.1-4.2v-1.4l-6.5-5.2l-6.4-5.7
						l-6.4-5.2l-6.5-5.7l-6.4-5.2l-6.9-5.7l-6.4-5.2l-6.9-5.2l-5.5,2.4l-5.5,1.9l-6,0.9H-48l-6.4-0.5l-6-1.4l-5.5-1.9l-5.5-2.8
						l-4.1-2.8l-3.7-3.3l-2.8-4.2l-1.8-5.2V426l2.3-6.6l3.7-6.1l4.6-5.2l2.3-1.9l2.3-1.4l2.3-1.9l2.3-1.4l2.3-1.4l2.8-1.4l2.3-0.9
						l2.8-1l1.4-0.5l0.9,0.5l0.9,0.5l0.9,1l-1.4,3.3l-2.8,2.4l-3.2,1.9l-2.8,1.9l-4.6,3.8l-4.2,5.2l-2.3,5.7v7.1l0.9,2.4l1.4,1.9
						l1.4,1.9l1.8,1.4l3.2,0.9l3.2,1l3.2,0.5h3.2l3.2-0.5l3.2-0.5l3.2-1l3.2-0.9l-1.4-1.9l-1.4-2.4l-1.4-1.9l-1.4-1.9l-1.4-2.8
						l-0.5-3.8v-3.3l0.9-3.3l1.4-2.4l1.8-2.4l1.9-1.9l2.3-1l3.2,1.9l2.8,2.4l3.2,2.8l3.2,2.3l2.8,2.8l3.2,2.4l2.8,2.8l2.8,2.3
						l60.7,51.9h1.8l5.1-4.2l5.1-3.8l5.1-4.2l5.1-3.8L73,459l5.1-3.8l5.1-4.3l5.1-4.3v-0.9l-60.3-49.1l-1.9-2.4l-2.3-2.4l-2.3-2.4
						l-2.3-2.8l-1.4-2.9l-1.4-2.8v-3.3l0.5-3.8l1.4-2.8l1.4-2.8l1.8-1.9l1.9-1.9l2.3,0.5l67.2,55.7l13.4,11.3l3.7-2.4l3.2-2.4
						l3.2-2.3l3.2-2.8l3.2-2.4l3.2-2.8l3.2-2.3l3.7-1.9l1.8,1.4l1.8,2.4l0.9,2.8l1.4,2.4l0.5,6.1l-1.8,5.2l-3.2,4.7l-3.2,4.7
						l2.3,0.5h2.8l2.3,0.5l2.8-0.5l2.3-0.5l2.3-0.5l2.3-0.9l1.8-1.4l2.3-2.4l1.4-2.8l0.5-2.8v-3.3l-0.9-3.8l-1.4-3.3l-0.9-3.8
						l0.5-3.3h4.1l2.3,2.4l1.9,3.8l1.8,3.3l1.9,5.7l0.5,6.1l-0.5,6.1l-2.3,5.2l-2.7,3.8l-3.2,3.3l-3.7,2.8l-3.7,1.9l-4.2,1.9l-4.6,1
						l-4.6,0.5h-4.6l-2.3-0.5l-2.3-0.5h-2.3l-2.3-0.5l-2.3-0.5l-2.3-0.5l-1.8-0.5l-2.3-0.5l-5.5,4.3l-6,4.7l-5.5,4.2l-6,4.7l-6,4.7
						l-5.5,4.7l-6,4.7l-5.5,4.7v1.4l4.6,4.2l4.6,4.2l4.6,3.8l4.6,4.2l4.6,3.8l5.1,3.8l5.1,3.8l5.1,3.8l1.9-0.5l6.9-6.1l6.4-5.7
						l6.9-5.6l6.9-5.7l6.9-5.7l6.4-5.7l6.9-5.7l6.4-5.7l1.4-0.5l1.4,0.5l0.9,0.5l0.9,1l1.9,3.8l1.4,3.3l0.9,4.2l-0.5,4.2l-3.2,6.2
						l-4.1,5.2l-5.1,5.2l-5.1,4.2l-5.5,4.7l-5.5,4.2l-5.5,4.7l-4.6,4.7v0.9l0.9,0.5l0.9,0.5h0.9l6,0.9l6,0.5h5.5l6-0.5l5.5-1.4
						l5.5-1.9l4.6-2.8l4.1-4.2l4.2-7.1l1.4-7.6l-0.5-8.5l-1.8-7.6l-0.9-3.3l-1.4-3.8l-0.5-3.3l1.8-2.8l4.1,2.4l2.8,3.8l1.9,4.7
						l1.8,4.3l3.2,10.8l0.5,11.3l-2.8,10.9l-6,9.9l-6,5.2l-6.9,3.8l-7.4,2.8l-7.8,1.4l-7.8,0.9h-8.3l-8.3-0.5l-7.8-1.4l-12.4-3.3
						l-5.5,4.7l-6,4.7l-5.5,4.7l-5.5,4.7l-5.5,4.7l-5.5,4.2l-5.5,5.2l-5.5,4.8l4.1,4.2l4.6,3.8l4.6,4.2l4.6,3.8l5.1,3.8l4.6,3.8
						l5.5,2.8l5.5,2.8l6.4-4.7l6.9-5.2l6.5-5.2l6.4-5.2l6.4-5.2l6.9-5.2l6.4-5.2l6.4-5.2l2.8,0.5l1.8,3.8l1.9,4.2l0.9,4.7l-0.9,4.7
						l-2.3,4.7l-3.2,3.8l-3.2,3.7l-3.7,2.9L147,616l-3.7,3.3l-4.1,2.8l-3.7,3.3v1l8.3-0.5l7.8-1.4l7.4-2.8l7.4-3.3l6.4-4.7l6-5.7
						l4.6-6.1l4.2-7.1l1.8-6.1l1.4-6.6l0.5-6.6l-0.5-7.1l0.5-0.9l0.9-1.4l0.9-0.5l0.9-0.5l1.9,0.5l1.4,1l0.9,1.4l0.5,1.4l1.4,8.5
						l0.9,8l-0.5,8.5l-1.8,8l-2.8,7.5l-3.7,7.1l-5.1,6.6l-6,5.7l-6.9,4.7l-7.8,4.2l-8.3,2.8l-8.3,2.4l-8.7,1.4l-9.2,0.5l-8.7-0.5
						l-9.2-1.4l-3.7,1.9l-3.2,2.3l-3.2,2.4l-2.8,2.4l-3.2,2.8l-2.8,2.4l-3.2,2.3l-3.2,2.4l-2.8,1.9l-2.8,2.4l-3.2,1.9l-2.8,1.9
						l-2.7,1.9l-2.8,1.9l-2.8,1.9l-2.8,2.4l4.6,3.3l4.6,2.8l4.6,2.8l5.1,2.4l5.5,2.4l5.1,2.4l5.5,1.9l5.5,1.4l6,1l5.5,0.9h11l6-0.5
						l5.5-1.4l5.1-1.4l5.5-2.4l5.1-3.3l4.6-3.8l4.2-4.7l3.7-4.7l2.8-5.2l2.8-5.7l2.7-5.7l2.3-5.7l1.4-1l1.4-0.5h1.9l1.4,0.5l1.4,5.2
						l-0.5,5.7l-1.4,5.7l-1.8,5.7l-4.1,9l-5.1,8l-6.4,7.6l-7.4,6.1l-8.3,5.7l-8.7,3.8l-9.2,2.8l-10.1,1h-5.5l-5.5-0.5l-5.5-0.9
						l-5.5-0.9l-5.1-1.4l-5.1-1.5l-5.1-1.9l-4.6-1.9l-5.1-2.4l-4.6-2.3l-4.6-2.4l-4.6-2.4l-4.6-2.8l-4.6-2.4l-4.6-2.8l-4.6-2.4
						l-5.5,2.8l-5.5,3.3l-5.5,2.8l-5.5,3.3l-5.5,2.9l-6,2.8l-5.5,2.9l-6,2.8l-5.5,2.4l-6,1.9l-6.4,1.4l-6,1.4l-6.5,0.5h-6.4
						l-6.9-0.5l-6.9-0.9l-10.1-3.3l-9.2-4.7l-8.3-5.7l-6.9-7.6l-6-8l-4.6-9l-3.7-9.4l-2.3-9.9v-1.9l0.5-1.9l0.5-1.4l0.9-1.4l1.4-0.5
						h1.4l1.4,0.5l0.9,0.5l2.3,5.6l2.8,6.2l3.2,5.7l3.2,5.2l4.1,5.2l4.1,4.7l5.1,4.2l5.5,3.3l3.7,1.4l4.1,1.4l4.1,1.4l4.6,0.5
						l4.1,0.5l4.6,0.5l4.1-0.5l4.6-0.5l7.4-1.4l6.9-1.9l6.9-2.8l6.9-2.9l6.4-2.8l6.9-3.8l6-3.8l6.4-3.8l-0.5-1.4l-2.3-1.4l-2.3-1.4
						l-1.8-1.4l-2.3-1.4l-1.8-1.4l-2.3-1.4l-1.8-1.4L5.4,666.5L5.4,666.5z"/>
					<path id="Path_927" class="st0" d="M148.4,481.1l0.5,1.4l-0.5,1l-0.9,0.9l-1.4,0.5l-2.8-1.4l-2.3-1.9l-2.8-1.9l-2.3-1.4
						l-2.8-1.9l-2.3-1.9l-2.8-1.9l-2.3-1.9v-1.9l8.7-5.7l1.8,1.9l1.8,2.4l1.9,1.9l1.8,2.4l1.4,2.4l1.8,2.4l1.8,2.3L148.4,481.1
						L148.4,481.1z"/>
					<path id="Path_928" class="st0" d="M144.8,579.2v1.4l-0.5,1l-0.9,0.5h-0.9l-2.8-1.4l-2.3-1.9l-2.8-1.4l-2.3-1.9l-2.3-1.9
						l-2.3-1.9l-2.8-2.4l-2.3-1.9l1.4-2.4l2.3-1.9l2.3-1.4l2.3-1.9l1.9,0.9L144.8,579.2L144.8,579.2z"/>
					<path id="Path_929" class="st0" d="M136.5,732.1v2.4l-0.5,1.9l-2.8,5.7l-3.2,4.7l-3.7,4.2l-4.1,3.3l-4.2,3.3l-5.1,2.4l-5.1,1.9
						l-5.5,1.4l-6,1l-5.5,1l-6,0.9l-6,0.5h-6.4l-6,0.5h-5.5l-6,0.5H16.9l-5.1-0.5l-5.5-0.5L1.3,766l-5.5-0.5l-5.1-0.9l-5.5-1
						l-5.1-0.9l-5.1-1.4l-5.1-1.4l-3.7-1.9l-3.2-2.4l-3.2-2.8l-2.8-2.8l-2.8-2.8l-2.3-3.3l-2.3-3.8l-1.4-3.8v-5.2l1.4-0.9l1.4-0.9
						h1.9l1.8,0.5l1.4,0.5l0.9,1.9l1.4,1.9l1.8,1.4l1.4,1.4l1.9,1.4l2.3,1l1.8,1l2.3,0.9l7.4,1.9l7.8,1.4l7.8,1.4l7.8,0.9l7.8,0.9
						l8.3,0.9l8.3,0.5h32.7l8.3-0.5l7.8-0.5l7.8-1l7.8-1l7.8-0.9l4.1-0.9l4.1-0.5l4.1-1.4l4.1-1.4l3.7-1.9l3.7-2.4l3.2-2.8l2.3-3.8
						l1.4-0.9l1.8-0.9l1.8-0.5l1.8,1l1.9,1.4l0.9,1.9L136.5,732.1z"/>
					<path id="Path_930" class="st0" d="M136.5,491.5v1.4l-0.5,1l-0.9,0.9h-0.9l-2.8-1.4l-2.8-1.4l-2.3-1.9l-2.8-1.9l-2.3-1.9
						l-2.8-1.9l-2.3-1.9l-2.8-1.9l2.3-2.4l2.3-2.3l2.3-1.9l2.8-0.9L136.5,491.5L136.5,491.5z"/>
					<path id="Path_931" class="st0" d="M132.8,589.1v0.5l-0.5,1l-0.5,1l-1.4,0.9h-0.9l-1.4-0.9l-1.4-1l-1.8-1.9l-2.3-1.4l-2.3-1.9
						l-1.8-1.4l-2.3-1.4l-2.3-1.9l-2.3-1.4l-1.9-1.9l1.9-1.9l2.3-2.3l1.8-1.9l2.3-1.4l1.8,0.5l12.4,17.9L132.8,589.1L132.8,589.1z"
						/>
					<path id="Path_932" class="st0" d="M125.9,358v1.9l-0.5,1.9v1.4l-1.9,0.5h-1.8l-1.8-0.5l-1.4-0.9l-8.7-8.5l-8.3-9l-6.9-9.9
						l-6-10.4l-5.1-10.9l-3.7-11.3l-2.8-11.8l-1.4-12.3l-0.5-0.9l-0.5-1l-0.9-0.5l-0.9-0.5l-4.6,0.5l-4.1,0.9l-3.7,1.9l-3.7,1.9
						l-3.7,2.8l-3.7,2.4l-3.2,2.8l-3.2,2.8l-5.5,5.7l-5.1,5.7l-5.1,5.7l-4.1,6.1l-4.6,6.2l-3.7,6.6l-3.7,6.6l-3.7,6.6l-2.8,3.8
						l-2.8,3.8l-3.7,3.3l-3.2,2.8l-3.7,2.8l-4.1,2.4l-4.1,1.9l-4.1,1.9h-1.8l-1.4,0.5h-1.4l-1.4-0.9l-0.9-1.4v-1.4l0.5-1.4l0.5-1.9
						l6-3.8l5.1-4.7l4.1-5.2l3.7-5.7l3.2-5.7l2.8-6.2l2.8-6.6l2.3-6.1l3.2-5.7l3.7-5.7l4.1-5.7l4.1-5.2l4.6-5.2l5.1-4.7l5.1-4.7
						l5.5-4.2l6-4.3l5.5-3.3l6.5-3.8l6-2.8l6.4-2.8l6.4-2.4l6.5-1.9l6.9-1.4h3.2l3.2-0.5l3.2,0.5l3.2,0.9l1.8,1.9l0.5,2.8v3.3
						l-0.5,2.8l-3.7,12.7l-1.9,13.2l0.5,12.8l2.3,12.7l4.2,11.8l5.5,11.8l6.9,10.9l7.8,9.9L125.9,358L125.9,358z"/>
					<path id="Path_933" class="st0" d="M124.5,501.9v0.9l-0.5,1.4l-0.5,0.5l-1.4,0.5l-2.8-0.9l-2.8-1.9l-2.3-1.4l-2.7-2.3l-2.3-1.9
						l-2.8-1.9l-2.3-1.9l-2.8-1.9v-1.4l2.3-1.4l1.8-1.9l2.3-1.9l2.3-0.9L124.5,501.9L124.5,501.9z"/>
					<path id="Path_934" class="st0" d="M119.9,600v1l-0.5,0.5l-0.9,0.5l-1.4,0.5l-2.8-1.9l-2.8-1.4l-2.3-1.9l-2.8-1.9l-2.3-1.9
						L102,591l-2.3-1.9l-2.3-1.9l2.3-2.3l2.3-1.9l2.3-1.9l2.8-0.9l3.7,4.7l3.2,5.2l3.2,4.7L119.9,600L119.9,600z"/>
					<path id="Path_935" class="st0" d="M112.1,513.2v1.4l-0.9,0.5l-0.9,0.5l-2.8-1.4l-2.7-1.4l-2.8-1.9l-2.8-1.9l-2.8-1.9l-2.3-1.9
						l-2.8-2.4l-2.3-1.9l1.8-1.9l2.3-1.9l1.8-1.9l1.9-1.9h1.4l13.8,18.9L112.1,513.2L112.1,513.2z"/>
					<path id="Path_936" class="st0" d="M107.5,609.4v0.9l-0.5,1l-0.9,0.5l-0.9,0.5h-1.4l-0.9-0.9L85,597.2l1.8-1.9l1.8-1.9l2.3-1.9
						l2.8-1.9l3.7,4.2l3.7,4.7l2.8,4.7l3.2,4.7v0.9L107.5,609.4L107.5,609.4z"/>
					<path id="Path_937" class="st0" d="M95.1,381.6l0.5,1.9l-19.8,14.6h-0.9l-0.9-0.5l-0.9-1v-1l2.8-5.2l3.2-5.2l3.7-4.2l3.2-4.7
						l0.9-0.5h0.9l0.9,0.5l0.9,0.5l1.8,1.9l1.8,1.4L95.1,381.6L95.1,381.6z"/>
					<path id="Path_938" class="st0" d="M83.6,372.1v1l-19.3,14.1l-1.8,0.5l-1.4-1.4l-0.5-1.9l0.9-1.9l1.8-2.3l1.4-1.9l1.9-2.4
						l1.8-1.9l1.4-2.4l1.9-1.9l1.8-2.4l1.8-1.9l2.3,1.4l1.8,1.4l1.8,1.9L83.6,372.1L83.6,372.1z"/>
					<path id="Path_939" class="st0" d="M82.2,233.9l0.5,3.3l-1.8,1h-2.3l-2.3-1l-2.3-1.4l-4.1-3.3l-3.7-3.8l-3.7-4.2l-3.2-4.7
						l-3.2-4.3l-2.3-5.2l-2.8-4.7l-1.8-4.7l-0.9-0.9l-0.9-1l-1.4-0.5h-1.4l-1.9,0.9l-1.4,1l-1.4,1.9l-1.4,1.4l-5.5,8l-5.1,8.5
						l-4.6,8.5l-3.7,9l-3.2,9l-2.8,9.4l-2.3,9.4l-1.8,9.9l-0.5,1.4l-0.9,1.4l-0.9,0.9l-1.4,0.5L4,279.2l-1.4-0.9l-1.4-1.4l-0.9-1.9
						l-0.9-12.3l0.9-12.7l1.8-12.7l2.8-11.8l2.3-6.1l2.3-5.7l2.8-5.2l3.2-5.2l3.7-4.7l3.7-4.7l4.1-4.7l4.2-4.2l3.7-3.3l3.7-3.3
						l3.7-3.3l4.1-3.3l4.2-2.4l4.1-2.4l4.6-1.4l5.1-0.5l1.4,0.5l0.9,1l0.5,1.4l0.5,1.4l-1.4,15.1L67,199l2.8,13.7l6,12.7l2.3,2.8
						l2.8,2.8L82.2,233.9L82.2,233.9z"/>
					<path id="Path_940" class="st0" d="M71.2,362.7l-2.3,1.9l-2.3,2.4l-2.8,1.9l-2.3,1.9l-2.8,1.4l-2.3,1.9l-2.8,1.9l-2.3,1.4h-0.9
						l-0.9-0.5l-0.9-0.5l-0.5-1l1.4-2.8l1.8-2.3l1.8-2.9l1.9-2.3l1.8-2.4l1.8-2.4l1.4-2.3l1.8-2.4h1.8L71.2,362.7L71.2,362.7z"/>
					<path id="Path_941" class="st0" d="M58.7,351.9v1.4l-17.5,13.2l-0.9,0.5h-2.8l-0.9-0.5l-0.5-1.4l0.5-1.4l0.5-0.9l0.9-1.4
						l12.4-16.1l2.3,1.4l1.8,1.4l2.3,1.9L58.7,351.9L58.7,351.9z"/>
					<path id="Path_942" class="st0" d="M32.5,426.9l-2.3,2.4l-17.5,12.3h-0.9l-0.9-0.5l-0.9-0.5L9,439.6l0.9-2.8l13.8-17.5l2.8,1.4
						l2.3,2.4l1.8,1.9L32.5,426.9L32.5,426.9z"/>
					<path id="Path_943" class="st0" d="M18.7,414.1l1.9,2.4l-2.3,1.9l-2.3,1.9l-2.3,1.9l-2.3,1.4l-2.8,1.9l-2.3,1.9l-2.8,1.4
						l-2.3,1.9H-2l-1.4-1.9l0.9-1.9l1.4-1.4l0.9-1.9l12-14.1l2.3,1.4l2.8,1.4L18.7,414.1L18.7,414.1z"/>
					<path id="Path_944" class="st0" d="M8.6,405.6v1l-19.3,14.2h-2.8l-0.9-1l-0.5-1.4l1.4-2.8L-0.6,399l2.7,1l2.3,1.9l1.8,1.9
						L8.6,405.6L8.6,405.6z"/>
					<path id="Path_945" class="st0" d="M0.3,595.3v1l-18.9,14.6h-2.8l-0.5-1l-0.5-0.9l0.5-1.4l0.5-1.4l0.5-1l11.5-16.1l2.8,0.5
						l2.8,1.9l1.8,1.9L0.3,595.3L0.3,595.3z"/>
					<path id="Path_946" class="st0" d="M-2,493.8v1L-21.3,509h-2.3l-0.9-0.5l-0.5-0.9l1.4-2.8l1.4-2.8l1.8-2.4l1.9-2.4l1.9-2.3
						l1.8-2.8l1.8-2.4l1.9-2.4l2.7,1l1.9,1.4l2.3,2.4L-2,493.8L-2,493.8z"/>
					<path id="Path_947" class="st0" d="M-3.4,395.7l-2.8,2.8l-3.2,1.9l-3.2,2.4l-3.2,2.3l-2.3,1.9l-2.3,1.4l-2.7,1.4l-2.8,0.5
						l-0.5-0.9l-0.5-1.4V407l0.9-1l13.8-17.9l2.8,1.4l1.8,1.9l1.8,2.3L-3.4,395.7L-3.4,395.7z"/>
					<path id="Path_948" class="st0" d="M-11.7,585.8l-2.3,1.9l-2.3,1.9l-2.3,2.4l-2.8,1.9l-2.3,1.9l-2.3,1.9l-2.3,1.4l-2.8,1.9
						h-2.3l-0.9-0.5l-0.5-0.9l2.8-5.7l3.2-5.2l3.7-4.7l3.7-4.7h1.9L-11.7,585.8L-11.7,585.8z"/>
					<path id="Path_949" class="st0" d="M-14.4,483.5l-0.5,1.9L-34.2,499h-0.9l-0.9-0.5l-0.9-1l-0.5-0.4l0.5-2.4l13.4-17.9l2.3,1
						l2.3,1.4l2.3,2.3L-14.4,483.5L-14.4,483.5z"/>
					<path id="Path_950" class="st0" d="M-24.1,576.4l-2.3,1.9l-2.3,2.4l-2.8,1.4l-2.3,1.9l-2.7,1.9l-2.3,1.9l-2.8,1.9l-2.3,1.9
						h-0.9l-1.4-0.5l-0.9-0.5l-0.5-0.9l1.8-3.8l2.3-3.8l2.3-2.8l2.3-3.3l1.8-1.9l1.4-2.8l1.8-1.9l2.8,0.5L-24.1,576.4L-24.1,576.4z"
						/>
					<path id="Path_951" class="st0" d="M-26.4,473.6l-1.8,2.4l-18.4,13.2H-48l-0.9-0.5l-0.5-1l-0.5-0.9l1.4-2.8l1.4-2.4l1.8-2.4
						l1.8-2.4l1.8-2.8l1.8-2.4l1.9-2.3l1.8-2.4l0.9-0.5l1.4,0.5l0.9,0.9l0.9,0.5L-26.4,473.6L-26.4,473.6z"/>
					<path id="Path_952" class="st0" d="M-37,565.6v1.4l-19.8,14.6l-0.9-0.5h-0.5l-0.9-0.5l-0.9-0.5l0.9-3.3l12.4-17.9l2.8,1.4
						l2.3,1.4l2.3,1.9L-37,565.6L-37,565.6z"/>
					<path id="Path_953" class="st0" d="M-38.8,463.7l-2.3,1.9l-2.3,2.3l-2.8,1.9l-2.3,1.9l-2.8,1.9L-54,475l-2.8,1.9l-2.8,1.4
						l-0.5,0.5l-0.9-0.5l-0.5-0.9l-0.9-0.5l0.9-2.4l1.4-2.4l1.8-2.3l1.9-2.4l2.3-2.4l1.8-2.8l2.3-2.8l2.7-2.4l2.3,1.4l1.8,1.9
						l1.9,1.4L-38.8,463.7L-38.8,463.7z"/>
				</g>
			</g>
		</g>
	</g>
</g>
</svg>
