<?xml version="1.0" encoding="UTF-8"?><svg id="Layer_1" xmlns="http://www.w3.org/2000/svg" width="1.38in" height=".87in" xmlns:xlink="http://www.w3.org/1999/xlink" viewBox="0 0 99.16 62.44"><defs><clipPath id="clippath"><rect width="99.16" height="62.44" fill="none" stroke-width="0"/></clipPath></defs><g clip-path="url(#clippath)"><g id="Group_2421"><path id="Path_13619" d="M17.8.63C5.29,3.65-2.4,16.23.62,28.74c2.12,8.77,9.11,15.53,17.94,17.35-2.13,6.26-5.8,11.88-10.67,16.34,21.44-.25,38.69-17.7,38.7-39.15C46.57,10.41,36.12-.03,23.24-.02c-1.83,0-3.66.22-5.44.65" fill="#00a3a8" stroke-width="0"/><path id="Path_13620" d="M70.38.63c-12.51,3.02-20.2,15.61-17.18,28.12,2.12,8.77,9.11,15.53,17.94,17.35-2.13,6.26-5.8,11.88-10.68,16.34,21.44-.25,38.7-17.7,38.7-39.15C99.16,10.41,88.71-.03,75.83-.02c-1.83,0-3.66.22-5.45.65" fill="#00a3a8" stroke-width="0"/></g></g></svg>