<?xml version="1.0" encoding="UTF-8"?><svg id="Layer_1" xmlns="http://www.w3.org/2000/svg" width="1.44in" height=".19in" xmlns:xlink="http://www.w3.org/1999/xlink" viewBox="0 0 103.77 13.64"><defs><clipPath id="clippath"><rect x=".14" y="2.7" width="103.48" height="8.24" transform="translate(-.29 2.72) rotate(-3)" fill="none" stroke-width="0"/></clipPath></defs><g id="Group_2368"><g clip-path="url(#clippath)"><g id="Group_2367"><path id="Path_13547" d="M5.38,12.7c14.3-5.51,30.98-7.34,47.26-7.61,12.77-.19,25.54.5,38.21,2.08,2.43.3,4.86.61,7.25,1.02,1.25.05,2.5-.13,3.69-.53.23-.06,2.43-.79,1.8-.9-7.49-1.28-15.29-1.98-22.99-2.51-16.5-1.27-33.09-.81-49.5,1.37-10.27,1.36-20.35,3.86-30.07,7.46-.91.35-.78.59.25.51,1.4-.11,2.78-.41,4.09-.9" fill="#00a3a8" stroke-width="0"/><path id="Path_13548" d="M5.72,12.61C20.28,6.44,37.66,3.92,54.68,3.18c12.79-.54,25.6-.2,38.34,1.01,2.44.23,4.89.47,7.3.81.63.02,1.25-.07,1.84-.26.11-.03,1.21-.4.9-.45-7.57-1.06-15.42-1.55-23.16-1.86-16.34-.79-32.71.11-48.86,2.71-9.58,1.54-18.94,4.17-27.92,7.84-.55.23.53.15.64.13.67-.08,1.33-.25,1.95-.5" fill="#00a3a8" stroke-width="0"/></g></g></g></svg>