<?xml version="1.0" encoding="UTF-8"?><svg id="Layer_1" xmlns="http://www.w3.org/2000/svg" width="2in" height=".47in" viewBox="0 0 144.34 34.07"><path d="M129.9,8.74c-3.93,0-5.97-2.03-7.76-3.82-1.74-1.73-3.38-3.37-6.67-3.37s-4.93,1.64-6.67,3.37c-1.8,1.79-3.83,3.82-7.76,3.82s-5.96-2.03-7.76-3.82c-1.74-1.73-3.38-3.37-6.67-3.37s-4.93,1.64-6.67,3.37c-1.8,1.79-3.83,3.82-7.76,3.82s-5.96-2.03-7.76-3.82c-1.74-1.73-3.38-3.37-6.67-3.37s-4.93,1.64-6.67,3.37c-1.8,1.79-3.83,3.82-7.76,3.82s-5.96-2.03-7.76-3.82c-1.74-1.73-3.38-3.37-6.67-3.37s-4.93,1.64-6.67,3.37c-1.8,1.79-3.83,3.82-7.76,3.82s-5.96-2.03-7.76-3.82C4.93,3.18,3.29,1.54,0,1.54V0c3.93,0,5.96,2.03,7.76,3.82,1.74,1.73,3.38,3.37,6.67,3.37s4.93-1.64,6.67-3.37c1.8-1.79,3.83-3.82,7.76-3.82s5.96,2.03,7.76,3.82c1.74,1.73,3.38,3.37,6.67,3.37s4.93-1.64,6.67-3.37c1.8-1.79,3.83-3.82,7.76-3.82s5.96,2.03,7.76,3.82c1.74,1.73,3.38,3.37,6.67,3.37s4.93-1.64,6.67-3.37c1.8-1.79,3.83-3.82,7.76-3.82s5.96,2.03,7.76,3.82c1.74,1.73,3.38,3.37,6.67,3.37s4.93-1.64,6.67-3.37c1.8-1.79,3.83-3.82,7.76-3.82s5.97,2.03,7.76,3.82c1.74,1.73,3.38,3.37,6.67,3.37s4.93-1.64,6.67-3.37c1.8-1.79,3.83-3.82,7.76-3.82v1.54c-3.29,0-4.93,1.64-6.67,3.37-1.8,1.79-3.83,3.82-7.76,3.82Z" fill="#00a3a8" stroke-width="0"/><path d="M129.9,21.4c-3.93,0-5.97-2.03-7.76-3.82-1.74-1.73-3.38-3.37-6.67-3.37s-4.93,1.64-6.67,3.37c-1.8,1.79-3.83,3.82-7.76,3.82s-5.96-2.03-7.76-3.82c-1.74-1.73-3.38-3.37-6.67-3.37s-4.93,1.64-6.67,3.37c-1.8,1.79-3.83,3.82-7.76,3.82s-5.96-2.03-7.76-3.82c-1.74-1.73-3.38-3.37-6.67-3.37s-4.93,1.64-6.67,3.37c-1.8,1.79-3.83,3.82-7.76,3.82s-5.96-2.03-7.76-3.82c-1.74-1.73-3.38-3.37-6.67-3.37s-4.93,1.64-6.67,3.37c-1.8,1.79-3.83,3.82-7.76,3.82s-5.96-2.03-7.76-3.82c-1.74-1.73-3.38-3.37-6.67-3.37v-1.54c3.93,0,5.96,2.03,7.76,3.82,1.74,1.73,3.38,3.37,6.67,3.37s4.93-1.64,6.67-3.37c1.8-1.79,3.83-3.82,7.76-3.82s5.96,2.03,7.76,3.82c1.74,1.73,3.38,3.37,6.67,3.37s4.93-1.64,6.67-3.37c1.8-1.79,3.83-3.82,7.76-3.82s5.96,2.03,7.76,3.82c1.74,1.73,3.38,3.37,6.67,3.37s4.93-1.64,6.67-3.37c1.8-1.79,3.83-3.82,7.76-3.82s5.96,2.03,7.76,3.82c1.74,1.73,3.38,3.37,6.67,3.37s4.93-1.64,6.67-3.37c1.8-1.79,3.83-3.82,7.76-3.82s5.97,2.03,7.76,3.82c1.74,1.73,3.38,3.37,6.67,3.37s4.93-1.64,6.67-3.37c1.8-1.79,3.83-3.82,7.76-3.82v1.54c-3.29,0-4.93,1.64-6.67,3.37-1.8,1.79-3.83,3.82-7.76,3.82Z" fill="#00a3a8" stroke-width="0"/><path d="M129.9,34.07c-3.93,0-5.97-2.03-7.76-3.82-1.74-1.73-3.38-3.37-6.67-3.37s-4.93,1.64-6.67,3.37c-1.8,1.79-3.83,3.82-7.76,3.82s-5.96-2.03-7.76-3.82c-1.74-1.73-3.38-3.37-6.67-3.37s-4.93,1.64-6.67,3.37c-1.8,1.79-3.83,3.82-7.76,3.82s-5.96-2.03-7.76-3.82c-1.74-1.73-3.38-3.37-6.67-3.37s-4.93,1.64-6.67,3.37c-1.8,1.79-3.83,3.82-7.76,3.82s-5.96-2.03-7.76-3.82c-1.74-1.73-3.38-3.37-6.67-3.37s-4.93,1.64-6.67,3.37c-1.8,1.79-3.83,3.82-7.76,3.82s-5.96-2.03-7.76-3.82c-1.74-1.73-3.38-3.37-6.67-3.37v-1.54c3.93,0,5.96,2.03,7.76,3.82,1.74,1.73,3.38,3.37,6.67,3.37s4.93-1.64,6.67-3.37c1.8-1.79,3.83-3.82,7.76-3.82s5.96,2.03,7.76,3.82c1.74,1.73,3.38,3.37,6.67,3.37s4.93-1.64,6.67-3.37c1.8-1.79,3.83-3.82,7.76-3.82s5.96,2.03,7.76,3.82c1.74,1.73,3.38,3.37,6.67,3.37s4.93-1.64,6.67-3.37c1.8-1.79,3.83-3.82,7.76-3.82s5.96,2.03,7.76,3.82c1.74,1.73,3.38,3.37,6.67,3.37s4.93-1.64,6.67-3.37c1.8-1.79,3.83-3.82,7.76-3.82s5.97,2.03,7.76,3.82c1.74,1.73,3.38,3.37,6.67,3.37s4.93-1.64,6.67-3.37c1.8-1.79,3.83-3.82,7.76-3.82v1.54c-3.29,0-4.93,1.64-6.67,3.37-1.8,1.79-3.83,3.82-7.76,3.82Z" fill="#00a3a8" stroke-width="0"/></svg>