<?xml version="1.0" encoding="UTF-8"?>
<svg xmlns="http://www.w3.org/2000/svg" width="1.9in" height="1.9in" version="1.1" viewBox="0 0 140 138.5">
  <!-- Generator: Adobe Illustrator 29.1.0, SVG Export Plug-In . SVG Version: 2.1.0 Build 142)  -->
  <defs>
    <style>
      .st0 {
        fill: #a7c2d0;
      }

      .st1 {
        mix-blend-mode: multiply;
      }

      .st1, .st2 {
        isolation: isolate;
      }
    </style>
  </defs>
  <g class="st2">
    <g id="Layer_1">
      <g id="Repeat_Grid_1" class="st1">
        <circle id="Ellipse_13" class="st0" cx="3.5" cy="3.5" r="3.5"/>
        <circle id="Ellipse_13-2" class="st0" cx="27.5" cy="3.5" r="3.5"/>
        <circle id="Ellipse_13-3" class="st0" cx="51.5" cy="3.5" r="3.5"/>
        <circle id="Ellipse_13-4" class="st0" cx="75.5" cy="3.5" r="3.5"/>
        <circle id="Ellipse_13-5" class="st0" cx="99.5" cy="3.5" r="3.5"/>
        <circle id="Ellipse_13-6" class="st0" cx="123.5" cy="3.5" r="3.5"/>
        <circle id="Ellipse_13-7" class="st0" cx="3.5" cy="27.5" r="3.5"/>
        <circle id="Ellipse_13-8" class="st0" cx="27.5" cy="27.5" r="3.5"/>
        <circle id="Ellipse_13-9" class="st0" cx="51.5" cy="27.5" r="3.5"/>
        <circle id="Ellipse_13-10" class="st0" cx="75.5" cy="27.5" r="3.5"/>
        <circle id="Ellipse_13-11" class="st0" cx="99.5" cy="27.5" r="3.5"/>
        <circle id="Ellipse_13-12" class="st0" cx="123.5" cy="27.5" r="3.5"/>
        <circle id="Ellipse_13-13" class="st0" cx="3.5" cy="51.5" r="3.5"/>
        <circle id="Ellipse_13-14" class="st0" cx="27.5" cy="51.5" r="3.5"/>
        <circle id="Ellipse_13-15" class="st0" cx="51.5" cy="51.5" r="3.5"/>
        <circle id="Ellipse_13-16" class="st0" cx="75.5" cy="51.5" r="3.5"/>
        <circle id="Ellipse_13-17" class="st0" cx="99.5" cy="51.5" r="3.5"/>
        <circle id="Ellipse_13-18" class="st0" cx="123.5" cy="51.5" r="3.5"/>
        <circle id="Ellipse_13-19" class="st0" cx="3.5" cy="75.5" r="3.5"/>
        <circle id="Ellipse_13-20" class="st0" cx="27.5" cy="75.5" r="3.5"/>
        <circle id="Ellipse_13-21" class="st0" cx="51.5" cy="75.5" r="3.5"/>
        <circle id="Ellipse_13-22" class="st0" cx="75.5" cy="75.5" r="3.5"/>
        <circle id="Ellipse_13-23" class="st0" cx="99.5" cy="75.5" r="3.5"/>
        <circle id="Ellipse_13-24" class="st0" cx="123.5" cy="75.5" r="3.5"/>
        <circle id="Ellipse_13-25" class="st0" cx="3.5" cy="99.5" r="3.5"/>
        <circle id="Ellipse_13-26" class="st0" cx="27.5" cy="99.5" r="3.5"/>
        <circle id="Ellipse_13-27" class="st0" cx="51.5" cy="99.5" r="3.5"/>
        <circle id="Ellipse_13-28" class="st0" cx="75.5" cy="99.5" r="3.5"/>
        <circle id="Ellipse_13-29" class="st0" cx="99.5" cy="99.5" r="3.5"/>
        <circle id="Ellipse_13-30" class="st0" cx="123.5" cy="99.5" r="3.5"/>
        <circle id="Ellipse_13-31" class="st0" cx="3.5" cy="123.5" r="3.5"/>
        <circle id="Ellipse_13-32" class="st0" cx="27.5" cy="123.5" r="3.5"/>
        <circle id="Ellipse_13-33" class="st0" cx="51.5" cy="123.5" r="3.5"/>
        <circle id="Ellipse_13-34" class="st0" cx="75.5" cy="123.5" r="3.5"/>
        <circle id="Ellipse_13-35" class="st0" cx="99.5" cy="123.5" r="3.5"/>
        <circle id="Ellipse_13-36" class="st0" cx="123.5" cy="123.5" r="3.5"/>
      </g>
    </g>
  </g>
</svg>