<?xml version="1.0" encoding="UTF-8"?>
<svg id="Layer_1" xmlns="http://www.w3.org/2000/svg" width="3.6in" height="2.7in" version="1.1" viewBox="0 0 259.9 195.5">
  <!-- Generator: Adobe Illustrator 29.1.0, SVG Export Plug-In . SVG Version: 2.1.0 Build 142)  -->
  <defs>
    <style>
      .st0 {
        fill: #61c2ee;
      }

      .st1 {
        fill: #fff;
      }

      .st2 {
        fill: #fdb913;
      }

      .st3 {
        fill: #f37127;
      }

      .st4 {
        fill: #c8d9de;
      }

      .st5 {
        fill: #ed1b30;
      }

      .st6 {
        fill: #70bf4a;
      }

      .st7 {
        fill: #2bbdbd;
      }
    </style>
  </defs>
  <g>
    <path class="st4" d="M76.8,179h-4.1v-1.5s9.9,0,9.9,0v1.5s-4.1,0-4.1,0v10.5h-1.7v-10.5Z"/>
    <path class="st4" d="M81.8,180.9h1.6v1.5c0,.4,0,.6,0,.6h0c.4-1.3,1.4-2.2,2.7-2.2s.4,0,.4,0v1.6s-.2,0-.5,0c-1.1,0-2,.7-2.4,2-.2.5-.2,1-.2,1.5v3.5h-1.6v-8.6Z"/>
    <path class="st4" d="M92.2,184.1h.4v-.2c0-1.4-.8-1.9-1.9-1.9s-2.4.8-2.4.8l-.7-1.2s1.2-1,3.2-1,3.4,1.2,3.4,3.4v5.4h-1.5v-.8c0-.4,0-.7,0-.7h0s-.7,1.7-2.8,1.7-2.9-.9-2.9-2.6c0-2.8,3.7-3,5.2-3ZM90.3,188.4c1.4,0,2.3-1.5,2.3-2.7v-.3h-.4c-1.2,0-3.5,0-3.5,1.6s.5,1.4,1.6,1.4Z"/>
    <path class="st4" d="M96.1,177.5h1.7v1.7s-1.7,0-1.7,0v-1.7ZM96.1,180.9h1.6v8.6h-1.6v-8.6Z"/>
    <path class="st4" d="M99.9,180.9h1.6v1.1c0,.3,0,.6,0,.6h0c.3-.7,1.4-2,3.2-2s3,1.1,3,3.3v5.5h-1.6v-5.1c0-1.2-.3-2.2-1.6-2.2s-2.4.9-2.7,2.1c-.1.3-.1.7-.1,1.2v4h-1.6v-8.6Z"/>
    <path class="st4" d="M109.6,177.5h1.7v1.7s-1.7,0-1.7,0v-1.7ZM109.6,180.9h1.6v8.6h-1.6v-8.6Z"/>
    <path class="st4" d="M113.3,180.9h1.6v1.1c0,.3,0,.6,0,.6h0c.3-.7,1.4-2,3.2-2s3,1.1,3,3.3v5.5h-1.6v-5.1c0-1.2-.3-2.2-1.6-2.2s-2.4.9-2.7,2.1c-.1.3-.1.7-.1,1.2v4h-1.6v-8.6Z"/>
    <path class="st4" d="M126.2,191.6c1.5,0,2.7-.7,2.7-2.4v-.6c0-.3,0-.5,0-.5h0c-.5.8-1.3,1.3-2.5,1.3-2.4,0-3.8-1.9-3.8-4.4s1.4-4.3,3.8-4.3,2.7,1.3,2.7,1.3h0s0-.1,0-.3v-.8h1.6v8.2c0,2.8-2.2,3.9-4.3,3.9s-2.1-.3-2.9-.7l.5-1.3s1.1.6,2.4.6ZM128.9,185c0-2.2-1.1-2.9-2.4-2.9s-2.3,1.1-2.3,2.8,1,3,2.5,3,2.3-.7,2.3-3Z"/>
    <path class="st4" d="M136.9,182.4h-1.1v-1.3h1.1v-.4c0-2.8,2.1-3.2,3.2-3.2s.6,0,.6,0v1.4s-.2,0-.4,0c-.6,0-1.8.2-1.8,1.8v.4h2v1.3h-2v7.1h-1.6v-7.1Z"/>
    <path class="st4" d="M145.7,180.7c2.6,0,4.6,1.9,4.6,4.5s-2.1,4.5-4.6,4.5-4.6-1.9-4.6-4.5,2.1-4.5,4.6-4.5ZM145.7,188.3c1.6,0,3-1.3,3-3.1s-1.3-3.1-3-3.1-3,1.3-3,3.1,1.3,3.1,3,3.1Z"/>
    <path class="st4" d="M151.8,180.9h1.6v1.5c0,.4,0,.6,0,.6h0c.4-1.3,1.4-2.2,2.7-2.2s.4,0,.4,0v1.6s-.2,0-.5,0c-1.1,0-2,.7-2.4,2-.2.5-.2,1-.2,1.5v3.5h-1.6v-8.6Z"/>
    <path class="st4" d="M161.8,177.5h1.7v10.5h5.4v1.5h-7v-12Z"/>
    <path class="st4" d="M169.9,177.5h1.7v1.7s-1.7,0-1.7,0v-1.7ZM169.9,180.9h1.6v8.6h-1.6v-8.6Z"/>
    <path class="st4" d="M174.1,182.4h-1.1v-1.3h1.1v-.4c0-2.8,2.1-3.2,3.2-3.2s.6,0,.6,0v1.4s-.2,0-.4,0c-.6,0-1.8.2-1.8,1.8v.4h2v1.3h-2v7.1h-1.6v-7.1Z"/>
    <path class="st4" d="M182.6,180.7c2.4,0,3.7,1.8,3.7,4s0,.7,0,.7h-6.3c0,1.9,1.4,2.8,3,2.8s2.5-1,2.5-1l.7,1.2s-1.3,1.2-3.3,1.2-4.6-2-4.6-4.5,1.9-4.5,4.3-4.5ZM184.6,184.2c0-1.5-1-2.2-2.1-2.2s-2.3.8-2.5,2.2h4.6Z"/>
  </g>
  <g>
    <g>
      <path class="st1" d="M60.6,96.1c.1-1.1.7-1.6,1.7-1.6h2.5c.9,0,1.6.5,1.9,1.4l5.1,12.8c.2.4.3.9.5,1.4.2.5.3.9.5,1.4l.5,1.5h0c.1-.5.3-1,.4-1.5.1-.4.3-.9.5-1.4.2-.5.3-.9.5-1.4l5.1-12.8c.3-.9,1-1.4,1.9-1.4h2.5c1.1,0,1.7.5,1.7,1.6l2.1,25.4c0,1.2-.5,1.7-1.6,1.7h-1.8c-1.1,0-1.7-.5-1.7-1.6l-1.1-14.4c0-.5,0-1,0-1.5v-1.5c0-.5,0-1,0-1.5h0c-.2.6-.4,1.1-.5,1.6-.2.5-.3.9-.5,1.5-.2.5-.3,1-.5,1.4l-4.2,9.8c-.3.9-1,1.3-1.9,1.3h-1.7c-1,0-1.6-.4-1.9-1.3l-4.1-9.8c-.2-.4-.3-.9-.5-1.4-.2-.5-.4-1-.5-1.5-.2-.5-.4-1.1-.5-1.6h0c0,.5,0,1,0,1.5s0,1,0,1.5c0,.5,0,1,0,1.5l-1.1,14.4c0,1.1-.7,1.6-1.7,1.6h-1.8c-1.2,0-1.7-.6-1.6-1.7l2.1-25.4Z"/>
      <path class="st1" d="M93,99.1c-1.1,0-1.7-.6-1.7-1.7v-1.2c0-1.1.6-1.7,1.7-1.7h1.8c1.1,0,1.7.6,1.7,1.7v1.2c0,1.1-.6,1.7-1.7,1.7h-1.8ZM91.3,104.3c0-1.1.6-1.7,1.7-1.7h1.8c1.1,0,1.7.6,1.7,1.7v17.2c0,1.1-.6,1.7-1.7,1.7h-1.8c-1.1,0-1.7-.6-1.7-1.7v-17.2Z"/>
      <path class="st1" d="M98.7,112.9c0-1.6.2-3.1.7-4.5.5-1.3,1.1-2.5,1.9-3.4.8-.9,1.8-1.7,3-2.2s2.4-.8,3.8-.8,2.1.2,2.9.5c.8.3,1.4.7,1.8,1,.5.4,1,.9,1.3,1.5h0c0-.1,0-.2,0-.3,0-.1,0-.2,0-.4v-8.2c0-1.1.6-1.7,1.7-1.7h1.8c1.1,0,1.7.6,1.7,1.7v25.3c0,1.1-.6,1.7-1.7,1.7h-1.5c-1.1,0-1.7-.5-1.7-1.5v-.8c0-.3,0-.4,0-.5,0,0,0-.1,0-.2h0c-.4.7-.9,1.3-1.5,1.8-.5.5-1.2.9-2,1.2s-1.8.5-3,.5-2.7-.3-3.8-.8c-1.1-.5-2.1-1.3-2.9-2.2-.8-.9-1.4-2.1-1.8-3.4-.4-1.3-.6-2.8-.6-4.4ZM103.9,112.9c0,2,.5,3.5,1.4,4.7.9,1.2,2.2,1.8,3.7,1.8s1.3-.1,1.9-.4c.6-.3,1.2-.6,1.7-1.2.5-.5.9-1.2,1.2-2,.3-.8.4-1.8.4-2.9s-.1-1.6-.3-2.3c-.2-.8-.5-1.4-1-2-.4-.6-1-1.1-1.6-1.4-.6-.4-1.4-.5-2.3-.5s-1.4.1-2,.4c-.6.3-1.2.7-1.6,1.2-.5.5-.8,1.2-1.1,2-.3.8-.4,1.7-.4,2.7Z"/>
      <path class="st1" d="M121,104.5c-.2-.6-.1-1,.1-1.4.3-.4.7-.5,1.3-.5h1.9c1,0,1.6.5,1.8,1.5l3.3,12.1c0,.3.1.6.1.8,0,.2,0,.5.1.7,0,.2,0,.5.1.7h0c0-.2,0-.4.1-.7,0-.2.1-.4.1-.7,0-.2.1-.5.2-.8l3.5-12.1c.2-1,.8-1.5,1.9-1.5h1.5c1,0,1.6.5,1.9,1.5l3.4,12.1c0,.3.1.6.2.8,0,.2,0,.5.1.7,0,.2,0,.5.1.7h0c0-.2,0-.4.1-.7,0-.2.1-.4.1-.7,0-.2.1-.5.2-.8l3.3-12.1c.2-1,.9-1.5,1.9-1.5h1.9c.6,0,1.1.2,1.3.5.2.4.3.8.1,1.4l-5.3,17.3c-.3.9-.9,1.4-1.9,1.4h-2.7c-1,0-1.7-.5-1.9-1.5l-3.1-10.3c0-.3-.1-.5-.2-.8,0-.3-.1-.5-.2-.7,0-.2,0-.5-.1-.7h0c0,.2-.1.4-.2.7,0,.2-.1.5-.2.7,0,.3-.1.5-.2.8l-3.1,10.3c-.2,1-.9,1.5-1.9,1.5h-2.8c-1,0-1.6-.5-1.9-1.4l-5.3-17.3Z"/>
      <path class="st1" d="M152.5,112.9c0-1.6.3-3,.8-4.4.5-1.3,1.2-2.5,2.1-3.4.9-1,2-1.7,3.3-2.2,1.3-.5,2.7-.8,4.3-.8s2.8.2,3.9.7c1.1.5,2.1,1.2,2.9,2,.8.9,1.4,1.9,1.8,3.1.4,1.2.6,2.5.6,3.9s-.2.9-.5,1.2c-.3.4-.8.5-1.3.5h-12.6c0,.9.3,1.8.7,2.5.4.7.8,1.3,1.4,1.8.6.5,1.2.8,1.9,1.1.7.2,1.5.4,2.2.4s1.8-.1,2.6-.4c.8-.3,1.4-.6,1.9-.9.5-.2,1-.3,1.3-.2s.7.4,1,.8l.5.8c.5,1,.3,1.7-.6,2.3-.7.4-1.6.9-2.8,1.4-1.2.5-2.6.7-4.2.7s-3.2-.3-4.6-.9c-1.4-.6-2.5-1.4-3.5-2.3-1-1-1.7-2.1-2.2-3.4-.5-1.3-.8-2.7-.8-4.1ZM167,110.6c0-1.5-.5-2.6-1.2-3.4-.8-.8-1.7-1.2-2.9-1.2s-2.4.4-3.3,1.3c-.9.8-1.4,1.9-1.7,3.3h9.1Z"/>
      <path class="st1" d="M173.7,121.6c-.5-.3-.7-.6-.8-1,0-.4,0-.8.4-1.3l.5-.7c.3-.4.6-.7,1-.7s.8,0,1.3.3c.5.3,1.1.6,1.9.9.8.3,1.7.5,2.7.5s1.6-.2,2.1-.6c.5-.4.8-.9.8-1.5s-.2-1-.7-1.4c-.5-.3-1.1-.6-1.9-.9-.8-.3-1.6-.6-2.5-.9-.9-.3-1.7-.7-2.5-1.2-.8-.5-1.4-1.1-1.9-1.9-.5-.8-.7-1.7-.7-2.9s.2-1.9.6-2.7c.4-.8,1-1.4,1.7-1.9.7-.5,1.6-.9,2.5-1.2,1-.3,2-.4,3.1-.4s2.5.2,3.5.5c1,.4,1.7.7,2.2,1,.5.2.7.6.8,1,0,.4,0,.8-.2,1.3l-.4.7c-.2.5-.6.8-.9.9-.4,0-.8,0-1.3-.2-.5-.2-1-.4-1.7-.7-.6-.2-1.4-.3-2.3-.3s-1.6.2-2.1.5c-.5.4-.7.9-.7,1.5s.2,1,.7,1.4,1.1.7,1.9.9c.8.3,1.6.6,2.5.9.9.3,1.7.7,2.5,1.2.8.5,1.4,1.1,1.9,1.9.5.8.7,1.7.7,2.9s-.2,1.8-.5,2.5c-.4.8-.9,1.4-1.6,2s-1.5,1-2.5,1.3c-1,.3-2.1.5-3.2.5s-3.1-.2-4.2-.7c-1.1-.5-2-.9-2.7-1.4Z"/>
      <path class="st1" d="M191.8,107h-1.1c-1.1,0-1.7-.6-1.7-1.7v-.7c0-1.1.6-1.7,1.7-1.7h1.2v-4.2c0-1.1.6-1.7,1.7-1.7h1.6c1.1,0,1.7.6,1.7,1.7v4.2h3c1.1,0,1.7.6,1.7,1.7v.7c0,1.1-.6,1.7-1.7,1.7h-3v8c0,.8.1,1.4.3,1.9.2.5.5.8.8,1.1.3.3.7.5,1.1.6.4.1.8.2,1.1.2.6,0,1.1.2,1.3.4.3.2.4.6.4,1.2v1.3c0,.6-.2,1.1-.5,1.3s-.9.4-1.6.4-1.9-.1-2.8-.4c-1-.3-1.8-.7-2.6-1.3-.8-.6-1.4-1.4-1.9-2.3-.5-1-.7-2.1-.7-3.5v-8.9Z"/>
    </g>
    <g>
      <path class="st1" d="M3.9,156.9c-.3-.3-.5-.6-.7-1s0-.8.4-1.4l.9-1.3c.3-.5.7-.7,1-.7.4,0,.8,0,1.3.4.2.2.5.4.9.6s.8.5,1.3.7c.5.2,1.1.4,1.7.6.6.2,1.3.2,2,.2,1.3,0,2.4-.3,3.2-.9.8-.6,1.1-1.4,1.1-2.4s-.3-1.7-1-2.3c-.7-.6-1.5-1.1-2.5-1.6s-2.1-1-3.2-1.5c-1.1-.5-2.2-1.1-3.2-1.7-1-.7-1.8-1.5-2.5-2.5-.7-1-1-2.2-1-3.7s.2-2.4.7-3.4c.5-1,1.2-1.9,2-2.6.9-.7,1.9-1.3,3.1-1.7,1.2-.4,2.4-.6,3.8-.6s1.6,0,2.4.2c.8.1,1.5.3,2.1.5.6.2,1.2.5,1.7.7.5.3.9.5,1.2.7.9.6,1,1.4.5,2.3l-.7,1.3c-.3.6-.6.9-1.1.9s-.8-.1-1.3-.3c-.6-.4-1.3-.7-2.1-1.1-.8-.4-1.8-.5-2.9-.5s-2.4.3-3.2.9c-.8.6-1.2,1.4-1.2,2.3s.3,1.6,1,2.2c.7.6,1.5,1.1,2.5,1.6,1,.5,2.1.9,3.2,1.4,1.1.5,2.2,1,3.2,1.7,1,.7,1.8,1.5,2.5,2.5.7,1,1,2.3,1,3.8s-.2,2.3-.6,3.3c-.4,1-1.1,1.9-1.9,2.7s-1.8,1.4-3,1.8-2.5.7-4,.7-2-.1-2.9-.3-1.8-.5-2.5-.7c-.8-.3-1.4-.6-2-1-.6-.3-1-.6-1.4-.9Z"/>
      <path class="st1" d="M23.2,153.6c0-1,.2-1.9.6-2.6.4-.7.9-1.4,1.5-1.9.6-.5,1.4-1,2.2-1.3s1.7-.6,2.6-.8c.9-.2,1.8-.3,2.7-.4.9,0,1.7-.1,2.5-.1h.9v-.5c0-1.3-.4-2.3-1.1-2.8-.8-.5-1.7-.8-2.7-.8s-1.7.1-2.4.4c-.8.3-1.4.5-1.9.8-1.1.5-1.8.2-2.3-.7l-.4-.8c-.5-1-.3-1.8.6-2.3.7-.4,1.6-.7,2.7-1.1,1.1-.4,2.5-.6,4-.6,2.7,0,4.8.7,6.3,2.1,1.5,1.4,2.2,3.5,2.2,6.1v11.2c0,1.1-.6,1.7-1.7,1.7h-1.4c-1.1,0-1.7-.6-1.7-1.7v-.8c0-.3,0-.5,0-.6,0-.1,0-.2,0-.2h0c-.4.7-.9,1.4-1.5,1.9-.5.5-1.2.9-2,1.3-.8.4-1.8.6-2.9.6s-1.8-.1-2.7-.4-1.5-.7-2.2-1.3c-.6-.5-1.1-1.2-1.5-1.9-.4-.8-.5-1.6-.5-2.5ZM28.3,153.2c0,.7.3,1.3.8,1.9.5.6,1.3.8,2.3.8s1.4-.2,2-.5c.6-.3,1.1-.7,1.5-1.3.4-.5.7-1.1,1-1.8.2-.6.3-1.3.3-1.9v-.8h-.9c-.6,0-1.4,0-2.2.1-.8,0-1.6.2-2.3.5-.7.2-1.3.6-1.8,1.1-.5.5-.7,1.1-.7,1.8Z"/>
      <path class="st1" d="M45.3,143.1h-1c-1.1,0-1.7-.6-1.7-1.7v-.7c0-1.1.6-1.7,1.7-1.7h1v-1c0-1.6.3-3,.9-3.9.6-1,1.4-1.7,2.2-2.3.9-.5,1.7-.9,2.6-1.1.9-.2,1.6-.3,2.1-.3h.6c1.1,0,1.7.6,1.7,1.7v1.1c0,1-.6,1.6-1.7,1.7-.3,0-.7,0-1.1.1-.4,0-.7.2-1.1.4-.3.2-.6.6-.8,1-.2.4-.3,1-.3,1.8v.8h2.8c1.1,0,1.7.6,1.7,1.7v.7c0,1.1-.6,1.7-1.7,1.7h-2.8v14.6c0,1.1-.6,1.7-1.7,1.7h-1.8c-1.1,0-1.7-.6-1.7-1.7v-14.6Z"/>
      <path class="st1" d="M54.6,149c0-1.6.3-3,.8-4.4.5-1.3,1.2-2.5,2.1-3.4.9-1,2-1.7,3.3-2.2,1.3-.5,2.7-.8,4.3-.8s2.8.2,3.9.7c1.1.5,2.1,1.2,2.9,2,.8.9,1.4,1.9,1.8,3.1.4,1.2.6,2.5.6,3.9s-.2.9-.5,1.2c-.3.4-.8.5-1.3.5h-12.6c0,.9.3,1.8.7,2.5.4.7.8,1.3,1.4,1.8.6.5,1.2.8,1.9,1.1.7.2,1.5.4,2.2.4s1.8-.1,2.6-.4c.8-.3,1.4-.6,1.9-.9.5-.2,1-.3,1.3-.2s.7.4,1,.8l.5.8c.5,1,.3,1.7-.6,2.3-.7.4-1.6.9-2.8,1.4-1.2.5-2.6.7-4.2.7s-3.2-.3-4.6-.9c-1.4-.6-2.5-1.4-3.5-2.3-1-1-1.7-2.1-2.2-3.4-.5-1.3-.8-2.7-.8-4.1ZM69.2,146.7c0-1.5-.5-2.6-1.2-3.4-.8-.8-1.7-1.2-2.9-1.2s-2.4.4-3.3,1.3c-.9.8-1.4,1.9-1.7,3.3h9.1Z"/>
      <path class="st1" d="M77.4,143.1h-1.1c-1.1,0-1.7-.6-1.7-1.7v-.7c0-1.1.6-1.7,1.7-1.7h1.2v-4.2c0-1.1.6-1.7,1.7-1.7h1.6c1.1,0,1.7.6,1.7,1.7v4.2h3c1.1,0,1.7.6,1.7,1.7v.7c0,1.1-.6,1.7-1.7,1.7h-3v8c0,.8.1,1.4.3,1.9.2.5.5.8.8,1.1.3.3.7.5,1.1.6.4.1.8.2,1.1.2.6,0,1.1.2,1.3.4.3.2.4.6.4,1.2v1.3c0,.6-.2,1.1-.5,1.3s-.9.4-1.6.4-1.9-.1-2.8-.4c-1-.3-1.8-.7-2.6-1.3-.8-.6-1.4-1.4-1.9-2.3-.5-1-.7-2.1-.7-3.5v-8.9Z"/>
      <path class="st1" d="M88.6,163.3c.3-.1.7-.1,1,0,.2,0,.4.2.6.2.2,0,.5.1.8.1.8,0,1.4-.3,2-.8.6-.6,1-1.2,1.3-1.9l.8-1.8-7.9-18.3c-.3-.6-.3-1.1,0-1.4s.7-.5,1.3-.5h2.2c.9,0,1.6.5,1.9,1.4l3.9,10.5c0,.3.2.6.3.9,0,.3.2.6.3.9.1.3.2.6.2,1h0c0-.3.1-.6.2-.9,0-.3.1-.6.2-.9s.2-.6.3-.9l3.6-10.6c.3-.9.9-1.4,1.9-1.4h2c.6,0,1.1.2,1.3.5.3.4.3.8,0,1.4l-8.5,21.8c-.4.9-.8,1.8-1.3,2.4-.5.7-1.1,1.2-1.8,1.7-.6.4-1.3.8-2.1,1-.7.2-1.5.3-2.2.3s-1.1,0-1.6-.2c-.5-.1-.9-.3-1.3-.4-.5-.2-.8-.5-.9-.9-.1-.4,0-.8.1-1.3l.4-.9c.2-.5.5-.7.8-.9Z"/>
      <path class="st1" d="M117.8,132.3c0-1.1.6-1.7,1.7-1.7h9.4c1.3,0,2.6.2,3.7.7,1.1.4,2.1,1.1,2.9,1.9.8.8,1.4,1.8,1.9,3,.4,1.1.7,2.4.7,3.8s-.2,2.7-.7,3.8c-.4,1.2-1.1,2.2-1.9,3-.8.8-1.8,1.5-2.9,1.9-1.1.5-2.4.7-3.7.7h-5.9v8.2c0,1.1-.6,1.7-1.7,1.7h-1.9c-1.1,0-1.7-.6-1.7-1.7v-25.3ZM127.9,144.9c1.5,0,2.7-.4,3.6-1.3.8-.9,1.3-2.1,1.3-3.6s-.4-2.7-1.2-3.6c-.8-.9-2-1.3-3.5-1.3h-5v9.8h4.9Z"/>
      <path class="st1" d="M138,153.6c0-1,.2-1.9.6-2.6.4-.7.9-1.4,1.5-1.9.6-.5,1.4-1,2.2-1.3s1.7-.6,2.6-.8c.9-.2,1.8-.3,2.7-.4.9,0,1.7-.1,2.5-.1h.9v-.5c0-1.3-.4-2.3-1.1-2.8-.8-.5-1.7-.8-2.7-.8s-1.7.1-2.4.4c-.8.3-1.4.5-1.9.8-1.1.5-1.8.2-2.3-.7l-.4-.8c-.5-1-.3-1.8.6-2.3.7-.4,1.6-.7,2.7-1.1,1.1-.4,2.5-.6,4-.6,2.7,0,4.8.7,6.3,2.1,1.5,1.4,2.2,3.5,2.2,6.1v11.2c0,1.1-.6,1.7-1.7,1.7h-1.4c-1.1,0-1.7-.6-1.7-1.7v-.8c0-.3,0-.5,0-.6,0-.1,0-.2,0-.2h0c-.4.7-.9,1.4-1.5,1.9-.5.5-1.2.9-2,1.3-.8.4-1.8.6-2.9.6s-1.8-.1-2.7-.4-1.5-.7-2.2-1.3c-.6-.5-1.1-1.2-1.5-1.9-.4-.8-.5-1.6-.5-2.5ZM143.1,153.2c0,.7.3,1.3.8,1.9.5.6,1.3.8,2.3.8s1.4-.2,2-.5c.6-.3,1.1-.7,1.5-1.3.4-.5.7-1.1,1-1.8.2-.6.3-1.3.3-1.9v-.8h-.9c-.6,0-1.4,0-2.2.1-.8,0-1.6.2-2.3.5-.7.2-1.3.6-1.8,1.1-.5.5-.7,1.1-.7,1.8Z"/>
      <path class="st1" d="M159.2,140.4c0-1.1.6-1.7,1.7-1.7h1.6c1.1,0,1.7.6,1.7,1.7v1.9c0,.2,0,.4,0,.6s0,.3,0,.4c0,.1,0,.3,0,.4h0c.2-.6.5-1.2.8-1.9.4-.6.8-1.2,1.4-1.7.5-.5,1.1-.9,1.7-1.2s1.3-.5,2-.5,1,.1,1.2.4c.2.3.3.7.3,1.3v1.6c0,1.1-.6,1.7-1.7,1.7s-1.8.2-2.5.6c-.7.4-1.3,1-1.7,1.7-.5.7-.8,1.5-1,2.4-.2.9-.3,1.8-.3,2.8v6.6c0,1.1-.6,1.7-1.7,1.7h-1.8c-1.1,0-1.7-.6-1.7-1.7v-17.2Z"/>
      <path class="st1" d="M173.9,143.1h-1.1c-1.1,0-1.7-.6-1.7-1.7v-.7c0-1.1.6-1.7,1.7-1.7h1.2v-4.2c0-1.1.6-1.7,1.7-1.7h1.6c1.1,0,1.7.6,1.7,1.7v4.2h3c1.1,0,1.7.6,1.7,1.7v.7c0,1.1-.6,1.7-1.7,1.7h-3v8c0,.8.1,1.4.3,1.9.2.5.5.8.8,1.1.3.3.7.5,1.1.6.4.1.8.2,1.1.2.6,0,1.1.2,1.3.4.3.2.4.6.4,1.2v1.3c0,.6-.2,1.1-.5,1.3s-.9.4-1.6.4-1.9-.1-2.8-.4c-1-.3-1.8-.7-2.6-1.3-.8-.6-1.4-1.4-1.9-2.3-.5-1-.7-2.1-.7-3.5v-8.9Z"/>
      <path class="st1" d="M185.9,140.4c0-1.1.6-1.7,1.7-1.7h1.6c1.1,0,1.7.6,1.7,1.7v1.3c0,.1,0,.3,0,.4,0,.1,0,.2,0,.3,0,.1,0,.2,0,.3h0c.2-.4.5-.9.9-1.4s.9-1,1.5-1.4c.6-.4,1.3-.8,2.1-1.1.8-.3,1.7-.4,2.8-.4,2.3,0,4.1.6,5.3,1.9,1.3,1.2,1.9,3.2,1.9,6v11.6c0,1.1-.6,1.7-1.7,1.7h-1.7c-1.1,0-1.7-.6-1.7-1.7v-10.5c0-1.3-.2-2.3-.6-3.1-.4-.8-1.3-1.2-2.6-1.2s-1.7.2-2.5.5c-.7.4-1.3.8-1.9,1.5-.5.6-.9,1.3-1.2,2.2-.3.8-.4,1.7-.4,2.6v8c0,1.1-.6,1.7-1.7,1.7h-1.8c-1.1,0-1.7-.6-1.7-1.7v-17.2Z"/>
      <path class="st1" d="M207.2,149c0-1.6.3-3,.8-4.4.5-1.3,1.2-2.5,2.1-3.4.9-1,2-1.7,3.3-2.2,1.3-.5,2.7-.8,4.3-.8s2.8.2,3.9.7c1.1.5,2.1,1.2,2.9,2,.8.9,1.4,1.9,1.8,3.1.4,1.2.6,2.5.6,3.9s-.2.9-.5,1.2c-.3.4-.8.5-1.3.5h-12.6c0,.9.3,1.8.7,2.5.4.7.8,1.3,1.4,1.8.6.5,1.2.8,1.9,1.1.7.2,1.5.4,2.2.4s1.8-.1,2.6-.4c.8-.3,1.4-.6,1.9-.9.5-.2,1-.3,1.3-.2s.7.4,1,.8l.5.8c.5,1,.3,1.7-.6,2.3-.7.4-1.6.9-2.8,1.4-1.2.5-2.6.7-4.2.7s-3.2-.3-4.6-.9c-1.4-.6-2.5-1.4-3.5-2.3-1-1-1.7-2.1-2.2-3.4-.5-1.3-.8-2.7-.8-4.1ZM221.7,146.7c0-1.5-.5-2.6-1.2-3.4-.8-.8-1.7-1.2-2.9-1.2s-2.4.4-3.3,1.3c-.9.8-1.4,1.9-1.7,3.3h9.1Z"/>
      <path class="st1" d="M229,140.4c0-1.1.6-1.7,1.7-1.7h1.6c1.1,0,1.7.6,1.7,1.7v1.9c0,.2,0,.4,0,.6s0,.3,0,.4c0,.1,0,.3,0,.4h0c.2-.6.5-1.2.8-1.9.4-.6.8-1.2,1.4-1.7.5-.5,1.1-.9,1.7-1.2s1.3-.5,2-.5,1,.1,1.2.4c.2.3.3.7.3,1.3v1.6c0,1.1-.6,1.7-1.7,1.7s-1.8.2-2.5.6c-.7.4-1.3,1-1.7,1.7-.5.7-.8,1.5-1,2.4-.2.9-.3,1.8-.3,2.8v6.6c0,1.1-.6,1.7-1.7,1.7h-1.8c-1.1,0-1.7-.6-1.7-1.7v-17.2Z"/>
      <path class="st1" d="M241.9,157.7c-.5-.3-.7-.6-.8-1,0-.4,0-.8.4-1.3l.5-.7c.3-.4.6-.7,1-.7s.8,0,1.3.3c.5.3,1.1.6,1.9.9.8.3,1.7.5,2.7.5s1.6-.2,2.1-.6c.5-.4.8-.9.8-1.5s-.2-1-.7-1.4c-.5-.3-1.1-.6-1.9-.9-.8-.3-1.6-.6-2.5-.9-.9-.3-1.7-.7-2.5-1.2-.8-.5-1.4-1.1-1.9-1.9-.5-.8-.7-1.7-.7-2.9s.2-1.9.6-2.7,1-1.4,1.7-1.9c.7-.5,1.6-.9,2.5-1.2,1-.3,2-.4,3.1-.4s2.5.2,3.5.5c1,.4,1.7.7,2.2,1,.5.2.7.6.8,1,0,.4,0,.8-.2,1.3l-.4.7c-.2.5-.6.8-.9.9-.4,0-.8,0-1.3-.2-.5-.2-1-.4-1.7-.7-.6-.2-1.4-.3-2.3-.3s-1.6.2-2.1.5c-.5.4-.7.9-.7,1.5s.2,1,.7,1.4,1.1.7,1.9.9c.8.3,1.6.6,2.5.9.9.3,1.7.7,2.5,1.2.8.5,1.4,1.1,1.9,1.9.5.8.7,1.7.7,2.9s-.2,1.8-.5,2.5c-.4.8-.9,1.4-1.6,2s-1.5,1-2.5,1.3c-1,.3-2.1.5-3.2.5s-3.1-.2-4.2-.7c-1.1-.5-2-.9-2.7-1.4Z"/>
    </g>
    <g>
      <g>
        <path class="st0" d="M130.1,20.3c4,8.8,10.9,15.9,19.5,20.2,5.5-2.7,11.8-4.3,18.4-4.3s0,0,0,0v-6.1s0,0,0,0c-14.8,0-26.8-12-26.8-26.8s0-.5,0-.8h-7.4c0,.3,0,.5,0,.8,0,6.1-1.3,11.9-3.7,17.1Z"/>
        <path class="st6" d="M149.6,40.5c-8.6,4.3-15.5,11.4-19.5,20.2,2.4,5.2,3.7,11,3.7,17.1s0,.3,0,.5h7.4c0-.2,0-.3,0-.5,0-14.8,12-26.8,26.8-26.8s0,0,0,0v-6.1s0,0,0,0c-6.6,0-12.8-1.5-18.3-4.3Z"/>
        <path class="st7" d="M168,36.2c-6.6,0-12.8,1.5-18.4,4.3,5.5,2.7,11.8,4.3,18.3,4.3s0,0,0,0v-8.5s0,0,0,0Z"/>
        <path class="st2" d="M133.8,2.4h-14.7c0,.3,0,.5,0,.8,0,14.8-12,26.8-26.8,26.8s0,0,0,0v6.1s0,0,0,0c6.6,0,12.8,1.5,18.3,4.3,8.6-4.3,15.5-11.4,19.5-20.2,2.4-5.2,3.7-11,3.7-17.1s0-.5,0-.8Z"/>
        <path class="st5" d="M130.1,60.6c-4-8.8-10.9-15.9-19.5-20.2-5.5,2.7-11.8,4.3-18.4,4.3s0,0,0,0v6.1s0,0,0,0c14.8,0,26.8,12,26.8,26.8s0,.3,0,.5h14.7c0-.2,0-.3,0-.5,0-6.1-1.3-11.9-3.7-17.1Z"/>
        <path class="st3" d="M110.6,40.4c-5.5-2.7-11.8-4.3-18.3-4.3s0,0,0,0v8.5s0,0,0,0c6.6,0,12.8-1.5,18.4-4.3Z"/>
      </g>
      <circle class="st0" cx="158" cy="12.3" r="6.2" transform="translate(-.4 16.3) rotate(-5.9)"/>
      <circle class="st2" cx="102.2" cy="12.2" r="6.2" transform="translate(79.6 112.7) rotate(-84.1)"/>
    </g>
  </g>
</svg>