<?xml version="1.0" encoding="UTF-8"?>
<svg id="logo-52" xmlns="http://www.w3.org/2000/svg" width="2.2in" height=".7in" version="1.1" viewBox="0 0 161.1 50.4">
  <!-- Generator: Adobe Illustrator 29.1.0, SVG Export Plug-In . SVG Version: 2.1.0 Build 142)  -->
  <defs>
    <style>
      .st0 {
        fill: #61c2ee;
      }

      .st1 {
        fill: #f37127;
      }

      .st2 {
        fill: #466f85;
      }

      .st3 {
        fill: #70bf4a;
      }

      .st4 {
        fill: #fdb913;
      }

      .st5 {
        fill: #ed1b30;
      }

      .st6 {
        fill: #053b84;
      }

      .st7 {
        fill: #2bbdbd;
      }
    </style>
  </defs>
  <g>
    <path class="st2" d="M41.7,40.8h-2.6v-.9h6.2v.9h-2.6v6.6h-1v-6.6h0Z"/>
    <path class="st2" d="M44.9,42h1v1.3h0c.3-.8.9-1.4,1.7-1.4s.3,0,.3,0v1h-.3c-.7,0-1.3.5-1.5,1.3,0,.3,0,.7,0,.9v2.3h-1v-5.5h0Z"/>
    <path class="st2" d="M51.4,44.1h.3c0-.9-.5-1.3-1.2-1.3s-1.5.6-1.5.6l-.5-.8s.8-.7,2-.7,2.2.8,2.2,2.2v3.4h-.9v-.9h0s-.5,1-1.7,1-1.9-.6-1.9-1.7c0-1.8,2.4-1.9,3.3-1.9h0ZM50.2,46.7c.9,0,1.4-.9,1.4-1.7v-.2h-.3c-.8,0-2.2,0-2.2,1s.4.9,1,.9Z"/>
    <path class="st2" d="M53.9,39.9h1v1h-1v-1ZM53.9,42h1v5.5h-1v-5.5Z"/>
    <path class="st2" d="M56.2,42h1v1.1h0c.2-.5.9-1.2,2.1-1.2s1.9.7,1.9,2.1v3.5h-1v-3.2c0-.8-.2-1.3-1-1.3s-1.5.6-1.7,1.3v3.3h-1v-5.5h-.2Z"/>
    <path class="st2" d="M62.4,39.9h1v1h-1v-1ZM62.4,42h1v5.5h-1v-5.5Z"/>
    <path class="st2" d="M64.7,42h1v1.1h0c.2-.5.9-1.2,2.1-1.2s1.9.7,1.9,2.1v3.5h-1v-3.2c0-.8-.2-1.3-1-1.3s-1.5.6-1.7,1.3v3.3h-1v-5.5h-.2Z"/>
    <path class="st2" d="M72.9,48.8c.9,0,1.7-.4,1.7-1.5v-.8h0c-.3.6-.9.9-1.6.9-1.5,0-2.5-1.2-2.5-2.7s.9-2.7,2.4-2.7,1.7.9,1.7.9h0v-.7h1v5.2c0,1.8-1.3,2.5-2.7,2.5s-1.3-.2-1.9-.5l.4-.9s.7.4,1.5.4ZM74.7,44.6c0-1.4-.7-1.8-1.5-1.8s-1.5.7-1.5,1.8.6,1.9,1.6,1.9,1.4-.5,1.4-1.9Z"/>
    <path class="st2" d="M79.7,42.9h-.7v-.9h.7v-.3c0-1.8,1.3-2,2.1-2s.4,0,.4,0v.9h-.3c-.4,0-1.1,0-1.1,1.1v.2h1.3v.9h-1.3v4.5h-1v-4.5h0Z"/>
    <path class="st2" d="M85.3,41.9c1.6,0,2.9,1.2,2.9,2.8s-1.3,2.8-2.9,2.8-2.9-1.2-2.9-2.8,1.3-2.8,2.9-2.8ZM85.3,46.7c1,0,1.9-.9,1.9-2s-.9-1.9-1.9-1.9-1.9.9-1.9,1.9.9,2,1.9,2Z"/>
    <path class="st2" d="M89.2,42h1v1.3h0c.3-.8.9-1.4,1.7-1.4s.3,0,.3,0v1h-.3c-.7,0-1.3.5-1.5,1.3,0,.3,0,.7,0,.9v2.3h-1v-5.5h0Z"/>
    <path class="st2" d="M95.5,39.9h1v6.6h3.4v.9h-4.4v-7.6Z"/>
    <path class="st2" d="M100.6,39.9h1v1h-1v-1ZM100.6,42h1v5.5h-1v-5.5Z"/>
    <path class="st2" d="M103.3,42.9h-.7v-.9h.7v-.3c0-1.8,1.3-2,2.1-2s.4,0,.4,0v.9h-.3c-.4,0-1.1,0-1.1,1.1v.2h1.3v.9h-1.3v4.5h-1v-4.5h0Z"/>
    <path class="st2" d="M108.6,41.9c1.5,0,2.4,1.1,2.4,2.6s0,.5,0,.5h-4c0,1.2.9,1.8,1.9,1.8s1.6-.7,1.6-.7l.5.8s-.9.8-2.1.8-2.8-1.2-2.8-2.8,1.1-2.8,2.7-2.8h-.2ZM109.9,44.2c0-.9-.6-1.4-1.3-1.4s-1.4.5-1.6,1.4h2.9Z"/>
  </g>
  <g>
    <g>
      <path class="st6" d="M39.3,30.2c-.2,0-.3-.3-.3-.5s0-.4.2-.7l.4-.7c.2-.2.3-.4.5-.4s.4,0,.7.2c0,0,.3.2.5.3s.4.2.7.3c.3,0,.5.2.8.3.3,0,.6,0,.9,0,.7,0,1.1-.2,1.5-.5.4-.3.6-.7.6-1.1s-.2-.8-.5-1c-.3-.3-.8-.6-1.2-.8s-.9-.5-1.5-.7-1-.5-1.5-.9c-.5-.3-.9-.8-1.2-1.2-.3-.5-.5-1-.5-1.8s0-1.1.4-1.6c.3-.5.6-.9.9-1.2.4-.4.9-.7,1.4-.8.6-.2,1.1-.3,1.8-.3s.8,0,1.1,0c.4,0,.7.2,1,.3.3,0,.6.2.9.4.3,0,.5.2.6.4.4.3.5.7.3,1.1l-.4.7c0,.3-.3.4-.5.4s-.4,0-.6-.2c-.3-.2-.7-.4-1-.5-.4-.2-.9-.3-1.4-.3s-1.1,0-1.5.4c-.4.3-.6.7-.6,1.1s.2.8.5,1c.3.3.8.6,1.2.8.5.2.9.5,1.5.7s1,.5,1.5.9c.5.3.9.8,1.2,1.2.3.5.5,1,.5,1.8s0,1-.3,1.6c-.2.5-.5.9-.9,1.3-.4.4-.9.7-1.4.9s-1.2.3-1.9.3-.9,0-1.4-.2-.9-.2-1.2-.4c-.4,0-.7-.3-.9-.5s-.5-.3-.7-.5h0Z"/>
      <path class="st6" d="M48.5,28.6c0-.5,0-.9.3-1.2.2-.4.4-.7.8-.9.3-.3.7-.5,1-.6s.8-.3,1.2-.4c.4,0,.9-.2,1.2-.2h1.6v-.2c0-.7-.2-1.1-.6-1.3-.4-.3-.8-.4-1.3-.4s-.8,0-1.1.2c-.4,0-.7.3-.9.4-.5.2-.9,0-1-.3l-.2-.4c-.3-.5-.2-.9.3-1,.3-.2.8-.4,1.3-.6.6-.2,1.2-.3,1.9-.3,1.3,0,2.3.4,3,1s1,1.6,1,2.9v5.4c0,.6-.3.9-.9.9h-.7c-.6,0-.8-.3-.8-.9v-.7h0c-.2.3-.5.6-.8.9-.3.2-.6.5-.9.7s-.9.3-1.4.3-.9,0-1.2-.2-.8-.4-1-.6c-.3-.3-.6-.6-.7-.9-.2-.4-.3-.8-.3-1.2v-.4ZM50.9,28.4c0,.4,0,.7.4.9.3.3.7.4,1.1.4s.7,0,.9-.2.5-.4.7-.6c.2-.3.4-.6.5-.9s.2-.6.2-.9v-.4h-1.4c-.4,0-.8,0-1.1.2s-.7.3-.9.5-.4.5-.4.9v.2Z"/>
      <path class="st6" d="M59.1,23.6h-.5c-.6,0-.8-.3-.8-.9v-.3c0-.6.3-.9.8-.9h.5v-.5c0-.8.2-1.4.5-1.9s.7-.9,1-1.1c.4-.3.9-.5,1.2-.5s.8,0,1,0h.3c.6,0,.8.3.8.9v.5c0,.5-.3.8-.9.8h-.5c-.2,0-.4,0-.5.2-.2,0-.3.3-.4.5s-.2.5-.2.9v.4h1.3c.6,0,.8.3.8.9v.3c0,.6-.3.9-.8.9h-1.3v7c0,.6-.3.9-.9.9h-.9c-.6,0-.8-.3-.8-.9v-7h0Z"/>
      <path class="st6" d="M63.5,26.5c0-.8,0-1.4.4-2.1s.6-1.1,1-1.6.9-.9,1.6-1c.7-.3,1.3-.4,2-.4s1.3,0,1.9.4,1,.6,1.4.9.7.9.9,1.5c.2.6.3,1.2.3,1.9s0,.4-.3.6c-.2.2-.4.3-.6.3h-6.1c0,.5.2.9.3,1.1.2.4.4.7.7.9.3.2.6.4.9.5s.7.2,1,.2.9,0,1.2-.2c.4,0,.7-.3.9-.4s.5-.2.7,0,.3.2.5.4l.2.4c.3.5.2.9-.3,1-.3.2-.8.4-1.3.7-.6.2-1.2.4-2,.4s-1.5,0-2.2-.4c-.7-.3-1.2-.7-1.7-1.1s-.9-1-1-1.6c-.3-.7-.4-1.3-.4-2v-.2ZM70.4,25.3c0-.7-.2-1.2-.6-1.6-.4-.4-.9-.6-1.4-.6s-1.1.2-1.6.6c-.4.4-.7.9-.8,1.6h4.4Z"/>
      <path class="st6" d="M74.3,23.6h-.6c-.6,0-.8-.3-.8-.9v-.3c0-.6.3-.9.9-.9h.6v-2c0-.6.3-.9.9-.9h.8c.6,0,.9.3.9.9v2h1.4c.6,0,.9.3.9.9v.3c0,.6-.3.9-.8.9h-1.4v3.8c0,.4,0,.7.2.9,0,.2.2.4.4.6.2,0,.3.2.5.3.2,0,.4,0,.6,0,.3,0,.5,0,.7.2,0,0,.2.3.2.6v.6c0,.3,0,.5-.3.7s-.4.2-.8.2-.9,0-1.3-.2c-.5,0-.9-.4-1.2-.7s-.7-.7-.9-1.1-.4-1-.4-1.7v-4.3h-.2Z"/>
      <path class="st6" d="M79.7,33.3h.5s.2,0,.3,0h.4c.4,0,.7,0,.9-.4.3-.3.5-.6.7-.9l.4-.9-3.8-8.8c0-.3,0-.5,0-.7s.3-.3.7-.3h1c.5,0,.8.2.9.7l1.9,5c0,0,0,.3,0,.5,0,.2,0,.3,0,.5,0,.2,0,.3,0,.5h0c0-.2,0-.3,0-.5,0,0,0-.3,0-.4s0-.3,0-.5l1.7-5c0-.5.5-.7.9-.7h.9c.3,0,.5,0,.7.3,0,.2,0,.4,0,.7l-4.1,10.4c-.2.5-.4.9-.7,1.1-.3.3-.6.6-.9.8s-.7.4-1,.5-.8.2-1,.2-.6,0-.8,0c-.2,0-.5,0-.7-.2-.2,0-.4-.2-.5-.4v-.7l.2-.4c0-.2.2-.4.4-.4h.3Z"/>
      <path class="st6" d="M93.7,18.5c0-.6.3-.9.8-.9h4.4c.7,0,1.2,0,1.8.3.6.2,1,.5,1.4.9.4.4.7.9.9,1.4.2.6.3,1.1.3,1.8s0,1.3-.3,1.8c-.2.6-.5,1-.9,1.4-.4.4-.9.7-1.4.9-.6.2-1.1.3-1.8.3h-2.8v3.9c0,.6-.3.9-.8.9h-.9c-.6,0-.8-.3-.8-.9v-12.1.2ZM98.4,24.5c.8,0,1.3-.2,1.7-.7s.6-1,.6-1.7-.2-1.3-.6-1.7-.9-.7-1.7-.7h-2.4v4.7h2.4Z"/>
      <path class="st6" d="M103.3,28.6c0-.5,0-.9.3-1.2.2-.4.4-.7.8-.9.3-.3.7-.5,1-.6s.8-.3,1.2-.4c.4,0,.9-.2,1.2-.2h1.6v-.2c0-.7-.2-1.1-.6-1.3-.4-.3-.8-.4-1.3-.4s-.8,0-1.1.2c-.4,0-.7.3-.9.4-.5.2-.9,0-1-.3l-.2-.4c-.3-.5-.2-.9.3-1,.3-.2.8-.4,1.3-.6s1.2-.3,1.9-.3c1.3,0,2.3.4,3,1,.8.7,1,1.6,1,2.9v5.4c0,.6-.3.9-.9.9h-.7c-.6,0-.8-.3-.8-.9v-.7h0c-.2.3-.5.6-.8.9-.3.2-.6.5-.9.7s-.9.3-1.4.3-.9,0-1.2-.2-.8-.4-1-.6c-.3-.3-.6-.6-.7-.9-.2-.4-.3-.8-.3-1.2v-.4ZM105.7,28.4c0,.4,0,.7.4.9.3.3.7.4,1.1.4s.7,0,.9-.2.5-.4.7-.6c.2-.3.4-.6.5-.9s.2-.6.2-.9v-.4h-1.4c-.4,0-.8,0-1.1.2-.4,0-.7.3-.9.5-.2.2-.4.5-.4.9v.2Z"/>
      <path class="st6" d="M113.4,22.3c0-.6.3-.9.8-.9h.8c.6,0,.9.3.9.9v1.6h0c0-.3.2-.6.4-.9.2-.3.4-.6.7-.8.3-.3.6-.5.9-.6s.7-.2.9-.2.5,0,.6.2c0,0,.2.4.2.6v.8c0,.6-.3.9-.9.9s-.9,0-1.1.3c-.4.2-.6.5-.9.9-.2.4-.4.8-.5,1.1,0,.4-.2.9-.2,1.3v3.2c0,.6-.3.9-.8.9h-.9c-.6,0-.8-.3-.8-.9v-8.4Z"/>
      <path class="st6" d="M120.5,23.6h-.6c-.6,0-.8-.3-.8-.9v-.3c0-.6.3-.9.9-.9h.6v-2c0-.6.3-.9.9-.9h.8c.6,0,.9.3.9.9v2h1.4c.6,0,.9.3.9.9v.3c0,.6-.3.9-.8.9h-1.4v3.8c0,.4,0,.7.2.9,0,.2.2.4.4.6.2,0,.3.2.5.3.2,0,.4,0,.6,0,.3,0,.5,0,.7.2,0,0,.2.3.2.6v.6c0,.3,0,.5-.3.7s-.4.2-.8.2-.9,0-1.3-.2c-.5,0-.9-.4-1.2-.7-.4-.3-.7-.7-.9-1.1s-.4-1-.4-1.7v-4.3h-.2Z"/>
      <path class="st6" d="M126.1,22.3c0-.6.3-.9.8-.9h.8c.6,0,.8.3.8.9v.8h0v.2h0c0-.2.3-.5.5-.7s.5-.5.8-.7.7-.4,1-.6c.4,0,.9-.2,1.3-.2,1.1,0,2,.3,2.6.9.6.6.9,1.5.9,2.8v5.5c0,.6-.3.9-.9.9h-.9c-.6,0-.9-.3-.9-.9v-5c0-.6,0-1.1-.3-1.4-.2-.4-.7-.6-1.2-.6s-.9,0-1.1.3c-.4.2-.7.4-.9.7-.3.3-.5.7-.6,1s-.2.9-.2,1.2v3.8c0,.6-.3.9-.8.9h-.9c-.6,0-.8-.3-.8-.9v-8.2l-.2.2Z"/>
      <path class="st6" d="M136.4,26.5c0-.8,0-1.4.4-2.1.3-.7.6-1.1,1-1.6s.9-.9,1.6-1c.7-.3,1.3-.4,2-.4s1.3,0,1.9.4,1,.6,1.4.9.7.9.9,1.5.3,1.2.3,1.9,0,.4-.3.6c-.2.2-.4.3-.6.3h-6.1c0,.5.2.9.3,1.1.2.4.4.7.7.9.3.2.6.4.9.5s.7.2,1,.2.9,0,1.2-.2c.4,0,.7-.3.9-.4s.5-.2.7,0,.3.2.5.4l.2.4c.3.5.2.9-.3,1-.3.2-.8.4-1.3.7-.6.2-1.2.4-2,.4s-1.5,0-2.2-.4c-.7-.3-1.2-.7-1.7-1.1s-.9-1-1-1.6c-.3-.7-.4-1.3-.4-2v-.2ZM143.3,25.3c0-.7-.2-1.2-.6-1.6-.4-.4-.9-.6-1.4-.6s-1.1.2-1.6.6c-.4.4-.7.9-.8,1.6h4.4Z"/>
      <path class="st6" d="M146.8,22.3c0-.6.3-.9.8-.9h.8c.6,0,.9.3.9.9v1.6h0c0-.3.2-.6.4-.9s.4-.6.7-.8c.3-.3.6-.5.9-.6s.7-.2.9-.2.5,0,.6.2c0,0,.2.4.2.6v.8c0,.6-.3.9-.9.9s-.9,0-1.1.3c-.4.2-.6.5-.9.9-.2.4-.4.8-.5,1.1,0,.4-.2.9-.2,1.3v3.2c0,.6-.3.9-.8.9h-.9c-.6,0-.8-.3-.8-.9v-8.4Z"/>
      <path class="st6" d="M152.9,30.6c-.2,0-.4-.3-.4-.5s0-.4.2-.7l.2-.4c0-.2.3-.3.5-.4s.4,0,.7.2c.2,0,.6.3.9.5.4.2.8.3,1.3.3s.8,0,1-.3c.3-.2.4-.4.4-.8s0-.5-.4-.7c-.3-.2-.6-.3-.9-.5-.4,0-.8-.3-1.1-.5s-.9-.4-1.1-.6c-.4-.2-.7-.6-.9-.9-.3-.4-.4-.9-.4-1.4s0-.9.3-1.2.5-.7.9-.9.8-.5,1.2-.6.9-.2,1.4-.2,1.2,0,1.7.3c.5.2.9.3,1,.5.2,0,.4.3.4.5s0,.4,0,.7l-.2.4c0,.2-.3.4-.5.4s-.4,0-.7,0c-.2,0-.5-.2-.8-.3-.3,0-.7-.2-1-.2s-.8,0-.9.3c-.2.2-.4.4-.4.8s0,.5.4.7.6.3.9.5c.4,0,.8.3,1.1.4.4.2.9.4,1.1.6.4.2.7.6.9.9.3.4.4.9.4,1.4s0,.9-.3,1.2c-.2.4-.4.7-.8.9s-.8.5-1.2.7-.9.2-1.5.2-1.5,0-2-.4c-.6-.2-.9-.5-1.2-.7h0Z"/>
    </g>
    <g>
      <path class="st6" d="M40,1.2c0-.5.4-.8.9-.8h1.2c.5,0,.8.2.9.7l2.5,6.2c0,.2.2.4.3.7,0,.2.2.5.2.7l.2.7h0c0-.2,0-.5.2-.7,0-.2,0-.4.2-.7,0-.2.2-.5.3-.7l2.5-6.2c.2-.5.5-.7.9-.7h1.2c.5,0,.8.3.9.8l.9,12.1c0,.6-.2.9-.8.9h-.9c-.5,0-.8-.3-.9-.8l-.6-6.9v-2.1h0c0,.3-.2.6-.3.8,0,.2-.2.5-.3.7,0,.3-.2.5-.3.7l-2,4.6c-.2.4-.5.7-.9.7h-.9c-.5,0-.8-.2-.9-.7l-2-4.6c0-.2-.2-.4-.3-.7,0-.3-.2-.5-.3-.7,0-.3-.2-.5-.3-.8h0v2.1l-.6,6.9c0,.5-.3.8-.9.8h-.9c-.6,0-.9-.3-.8-.9l.9-12.1h.3Z"/>
      <path class="st6" d="M55.5,2.6c-.6,0-.8-.3-.8-.8v-.6c0-.6.3-.9.8-.9h.9c.6,0,.9.3.9.9v.6c0,.6-.3.8-.9.8h-.9ZM54.7,5.1c0-.6.3-.9.8-.9h.9c.6,0,.8.3.8.9v8.2c0,.6-.3.9-.8.9h-.9c-.6,0-.8-.3-.8-.9V5.1Z"/>
      <path class="st6" d="M58.2,9.2c0-.8,0-1.5.3-2.1.2-.7.6-1.1.9-1.6s.9-.8,1.4-1c.6-.3,1.1-.4,1.8-.4s1,0,1.3.2c.4.2.7.3.9.5.3.2.5.5.7.7h0V1.2c0-.6.3-.9.8-.9h.9c.6,0,.8.3.8.9v12.1c0,.6-.3.9-.8.9h-.8c-.6,0-.8-.3-.8-.8v-.7h0c-.2.2-.4.5-.7.8-.3.2-.6.4-.9.6s-.9.3-1.4.3-1.2,0-1.8-.4c-.6-.3-1-.6-1.4-1s-.7-1-.9-1.6c-.2-.7-.3-1.3-.3-2.1ZM60.7,9.2c0,.9.2,1.7.7,2.3s1,.9,1.8.9.7,0,.9-.2c.3,0,.6-.3.8-.6.2-.3.4-.6.6-.9,0-.4.2-.9.2-1.4s0-.8-.2-1.1c0-.4-.3-.7-.5-.9s-.5-.5-.8-.7-.7-.3-1-.3-.7,0-.9.2c-.3,0-.6.4-.8.6-.2.3-.4.6-.6.9,0,.4-.2.9-.2,1.3Z"/>
      <path class="st6" d="M68.9,5.2v-.7c0-.2.3-.3.6-.3h.9c.5,0,.8.3.9.8l1.6,5.8v.9h0v-.9l1.7-5.8c0-.5.4-.7.9-.7h.8c.5,0,.8.2.9.7l1.6,5.8v.9h0v-.9l1.6-5.8c0-.5.4-.8.9-.8h.9c.3,0,.5,0,.7.3,0,.2,0,.4,0,.7l-2.6,8.2c0,.5-.5.7-.9.7h-1.3c-.5,0-.8-.2-.9-.7l-1.5-4.9c0,0,0-.3,0-.4v-.7h0v.7c0,0,0,.3,0,.4l-1.5,4.9c0,.5-.4.7-.9.7h-1.3c-.5,0-.8-.2-.9-.7l-2.6-8.2h.9Z"/>
      <path class="st6" d="M83.9,9.2c0-.8,0-1.4.4-2.1s.6-1.1,1-1.6.9-.9,1.6-1c.7-.3,1.3-.4,2-.4s1.3,0,1.9.4,1,.6,1.4.9.7.9.9,1.5c.2.6.3,1.2.3,1.9s0,.4-.3.6c-.2.2-.4.3-.6.3h-6.1c0,.5.2.9.3,1.1.2.4.4.7.7.9.3.2.6.4.9.5s.7.2,1,.2.9,0,1.2-.2c.4,0,.7-.3.9-.4.3,0,.5-.2.7,0s.3.2.5.4l.2.4c.3.5.2.9-.3,1-.3.2-.8.4-1.3.7-.6.2-1.2.4-2,.4s-1.5,0-2.2-.4c-.7-.3-1.2-.7-1.7-1.1s-.9-1-1-1.6c-.3-.7-.4-1.3-.4-2v-.2ZM90.9,8.1c0-.7-.2-1.2-.6-1.6-.4-.4-.9-.6-1.4-.6s-1.1.2-1.6.6c-.4.4-.7.9-.8,1.6h4.4Z"/>
      <path class="st6" d="M94.1,13.4c-.2,0-.4-.3-.4-.5s0-.4.2-.7l.2-.4c0-.2.3-.3.5-.4s.4,0,.7.2c.2,0,.6.3.9.5.4.2.8.3,1.3.3s.8,0,1-.3c.3-.2.4-.4.4-.8s0-.5-.4-.7-.6-.3-.9-.5c-.4,0-.8-.3-1.1-.5-.4-.2-.9-.4-1.1-.6-.4-.2-.7-.6-.9-.9-.3-.4-.4-.9-.4-1.4s0-.9.3-1.2.5-.7.9-.9.8-.5,1.2-.6.9-.2,1.4-.2,1.2,0,1.7.3c.5.2.9.3,1,.5.2,0,.4.3.4.5s0,.4,0,.7l-.2.4c0,.2-.3.4-.5.4s-.4,0-.7,0c-.2,0-.5-.2-.8-.3-.3,0-.7-.2-1-.2s-.8,0-.9.3c-.2.2-.4.4-.4.8s0,.5.4.7c.3.2.6.3.9.5.4,0,.8.3,1.1.4.4.2.9.4,1.1.6.4.2.7.6.9.9.3.4.4.9.4,1.4s0,.9-.3,1.2c-.2.4-.4.7-.8.9s-.8.5-1.2.7-.9.2-1.5.2-1.5,0-2-.4c-.6-.2-.9-.5-1.2-.7h0Z"/>
      <path class="st6" d="M102.7,6.4h-.6c-.6,0-.8-.3-.8-.9v-.3c0-.6.3-.9.9-.9h.6v-2c0-.6.3-.9.9-.9h.8c.6,0,.9.3.9.9v2h1.4c.6,0,.9.3.9.9v.3c0,.6-.3.9-.8.9h-1.4v3.8c0,.4,0,.7.2.9,0,.2.2.4.4.6.2,0,.3.2.5.3.2,0,.4,0,.6,0,.3,0,.5,0,.7.2,0,0,.2.3.2.6v.6c0,.3,0,.5-.3.7s-.4.2-.8.2-.9,0-1.3-.2c-.5,0-.9-.4-1.2-.7s-.7-.7-.9-1.1-.4-1-.4-1.7v-4.3h-.2Z"/>
    </g>
  </g>
  <g>
    <g>
      <path class="st0" d="M15.7,7.7c1.6,3.6,4.4,6.5,8,8.3,2.3-1.1,4.8-1.8,7.6-1.8s0,0,0,0v-2.6h0c-6.1,0-11-4.9-11-11s0-.2,0-.3h-3v.3c0,2.5-.6,4.8-1.5,7h0Z"/>
      <path class="st3" d="M23.8,16.1c-3.5,1.7-6.3,4.6-8,8.3.9,2.2,1.5,4.5,1.5,7s0,0,0,.2h3v-.2c0-6.1,4.9-11,11-11s0,0,0,0v-2.6h0c-2.7,0-5.3-.7-7.6-1.8h0Z"/>
      <path class="st7" d="M31.2,14.3c-2.7,0-5.3.7-7.6,1.8,2.3,1.1,4.8,1.8,7.6,1.8s0,0,0,0v-3.5h0Z"/>
      <path class="st4" d="M17.2.4h-6.1v.3c0,6.1-4.9,11-11.1,11s0,0,0,0v2.6H.1c2.7,0,5.3.7,7.6,1.8,3.5-1.7,6.3-4.6,8-8.3.9-2.2,1.5-4.5,1.5-7s0-.2,0-.3Z"/>
      <path class="st5" d="M15.7,24.3c-1.6-3.6-4.4-6.5-8-8.3-2.3,1.1-4.8,1.8-7.6,1.8s0,0,0,0v2.6H.1c6.1,0,11,4.9,11,11s0,0,0,.2h6.1v-.2c0-2.5-.6-4.8-1.5-7h0Z"/>
      <path class="st1" d="M7.7,16.1c-2.3-1.1-4.8-1.8-7.6-1.8s0,0,0,0v3.5H.1c2.7,0,5.3-.7,7.6-1.8h0Z"/>
    </g>
    <circle class="st0" cx="27.2" cy="4.4" r="2.6"/>
    <circle class="st4" cx="4.3" cy="4.5" r="2.6"/>
  </g>
</svg>