<?xml version="1.0" encoding="UTF-8"?><svg id="Layer_1" xmlns="http://www.w3.org/2000/svg" width="1in" height="1in" viewBox="0 0 72 72"><path d="M52.42,64.56c-.03,2.37-1.96,4.27-4.34,4.26H11.45c-2.37.02-4.31-1.89-4.34-4.26V17.16c.03-2.37,1.96-4.27,4.34-4.26h5.29c.53,2.71,2.92,4.74,5.77,4.72h16.93c2.86.03,5.25-2.01,5.78-4.72h2.88c2.37-.02,4.31,1.89,4.34,4.26v17.51h2.89v-17.51c-.05-3.95-3.28-7.12-7.23-7.09h-3.06c-.28-.86-.77-1.66-1.44-2.3-1.11-1.09-2.61-1.7-4.16-1.69h-1.69c-.41-2.13-1.85-3.91-3.84-4.76-2.18-.96-4.7-.76-6.71.53-1.5.97-2.55,2.49-2.94,4.23h-1.75c-2.6-.02-4.81,1.66-5.59,3.99h-5.48c-3.95-.03-7.18,3.14-7.23,7.09v47.4c.04,3.95,3.28,7.12,7.23,7.09h36.63c3.95.03,7.18-3.14,7.23-7.09v-14.19h-2.89v14.19ZM22.52,8.91h4.5v-1.42c0-1.32.67-2.56,1.79-3.27,1.2-.75,2.7-.86,3.99-.28,1.38.64,2.25,2.03,2.22,3.55v1.43h4.43c.79,0,1.55.31,2.12.86.26.26.47.56.62.89v2.24h.05c-.44,1.11-1.52,1.9-2.78,1.88h-16.93c-.06,0-.12,0-.17,0-1.62-.05-2.9-1.4-2.85-3.03.05-1.62,1.4-2.9,3.03-2.85Z" fill="#fff" stroke-width="0"/><path d="M69.81,41.12h-1.82c-.62-2.13-2.59-3.67-4.91-3.61h-9.89c-1.59-.01-2.89,1.26-2.91,2.86v.76h-3.03c-.25-3.7-1.79-7.33-4.63-10.14-3.05-3.05-7.18-4.76-11.49-4.78h-.14c-4.26-.02-8.37,1.63-11.43,4.59-.1.1-.2.2-.3.3-6.14,6.2-6.09,16.19.11,22.33,3.05,3.05,7.18,4.76,11.49,4.78h.14c4.26.02,8.36-1.63,11.43-4.59.1-.1.2-.2.3-.3,2.6-2.63,4.08-5.94,4.46-9.35h3.09v.72c.02,1.59,1.32,2.87,2.91,2.86h9.89c.08,0,.15,0,.23,0,2.23-.05,4.06-1.55,4.67-3.58h1.84v-2.84ZM40.4,51.58c-2.56,2.45-5.97,3.81-9.52,3.78-3.55-.01-6.94-1.43-9.45-3.93-.08-.08-.16-.17-.25-.25-4.96-5.18-4.78-13.41.4-18.37,2.52-2.44,5.9-3.79,9.4-3.78h.11c3.55.01,6.94,1.43,9.45,3.93.08.08.16.17.25.25,4.96,5.18,4.78,13.41-.4,18.37ZM63.08,44.7l-9.91-.02v-4.31s0-.02.02-.02h9.89c1.2,0,2.18.98,2.18,2.18s-.98,2.18-2.18,2.18Z" fill="#fff" stroke-width="0"/><rect x="21.77" y="40.78" width="18.43" height="2.84" transform="translate(-.3 .22) rotate(-.41)" fill="#fff" stroke-width="0"/><rect x="24.66" y="35.1" width="12.65" height="2.84" transform="translate(-.4 .35) rotate(-.64)" fill="#fff" stroke-width="0"/><rect x="24.66" y="46.45" width="12.65" height="2.84" transform="translate(-.53 .35) rotate(-.64)" fill="#fff" stroke-width="0"/></svg>