<?xml version="1.0" encoding="UTF-8"?><svg id="Layer_1" xmlns="http://www.w3.org/2000/svg" width="1in" height="1in" viewBox="0 0 72 72"><g id="Group_2298"><path id="Path_13553" d="M21.48,43.88c-.58,2.37-.2,4.88,1.06,6.97-1.71,1.69-3.3,3.49-4.78,5.39-.44.57-.33,1.39.24,1.83s1.39.33,1.83-.24c1.39-1.79,2.9-3.49,4.51-5.08,1.69,1.31,3.77,2.01,5.91,1.99,4.16,0,9.02-2.3,13-6.17,7-6.79,7.26-18.73,7.27-19.23.01-.72-.56-1.31-1.28-1.32-.11,0-.21.01-.32.03-6.39,1.53-12.67,3.5-18.8,5.89-4.33,1.7-7.56,5.42-8.64,9.95M47.8,31c-.33,3.4-1.59,11.07-6.36,15.68-3.46,3.34-7.74,5.43-11.19,5.43-1.43.03-2.83-.39-4.01-1.2,3.17-2.93,6.55-5.62,10.1-8.07.58-.42.71-1.24.28-1.82-.4-.54-1.14-.69-1.72-.35-3.67,2.51-7.16,5.29-10.43,8.31-.66-1.43-.81-3.04-.44-4.57.9-3.69,3.55-6.71,7.1-8.09,5.43-2.14,11-3.92,16.66-5.33" fill="#fff" stroke-width="0"/><path id="Path_13554" d="M51.22,17.13c.72,0,1.3-.58,1.3-1.3h0v-.52h3.65s0,6.25,0,6.25c.03.72.63,1.28,1.35,1.26.68-.02,1.23-.57,1.26-1.26v-7.56c0-.72-.58-1.3-1.3-1.3,0,0,0,0,0,0h-6.25c-.72,0-1.3.58-1.3,1.3h0v1.82c0,.72.58,1.3,1.3,1.3h0" fill="#fff" stroke-width="0"/><path id="Path_13555" d="M70.96,35.93L36.98,7.61c-.48-.4-1.18-.4-1.67,0L1.3,35.93c-.55.46-.63,1.28-.17,1.83.25.3.61.47,1,.47h6.62s0,26.84,0,26.84c0,.72.59,1.3,1.31,1.3h0s52.11,0,52.11,0c.72,0,1.3-.58,1.3-1.3h0v-26.83h6.66c.72,0,1.3-.59,1.3-1.31,0-.38-.17-.75-.47-1M62.16,35.63c-.72,0-1.3.58-1.3,1.3h0v26.84H11.36s0-26.84,0-26.84c0-.72-.58-1.3-1.3-1.3h-4.32s30.41-25.32,30.41-25.32l30.38,25.32h-4.36Z" fill="#fff" stroke-width="0"/></g></svg>