<?xml version="1.0" encoding="UTF-8"?><svg id="Layer_1" xmlns="http://www.w3.org/2000/svg" width="1in" height="1in" viewBox="0 0 72 72"><rect x="8.61" y="38.25" width="9.14" height="3.05" fill="#fff" stroke-width="0"/><rect x="8.61" y="44.35" width="9.14" height="3.05" fill="#fff" stroke-width="0"/><path d="M13.18,51.68c-2.52,0-4.57,2.04-4.57,4.57,0,2.52,2.04,4.57,4.57,4.57,2.52,0,4.57-2.05,4.57-4.57,0-2.52-2.04-4.56-4.57-4.57ZM13.18,57.79c-.85,0-1.53-.69-1.53-1.53s.69-1.53,1.53-1.53,1.53.69,1.53,1.53-.69,1.53-1.53,1.53Z" fill="#fff" stroke-width="0"/><path d="M17.75,15.35h-9.14v19.86h9.14V15.35ZM14.7,32.16h-3.05v-13.77h3.05v13.77Z" fill="#fff" stroke-width="0"/><rect x="31.45" y="38.25" width="9.14" height="3.05" fill="#fff" stroke-width="0"/><rect x="31.45" y="44.35" width="9.14" height="3.05" fill="#fff" stroke-width="0"/><path d="M36.02,51.68c-2.52,0-4.57,2.04-4.57,4.57,0,2.52,2.04,4.57,4.57,4.57,2.52,0,4.57-2.05,4.57-4.57,0-2.52-2.04-4.56-4.57-4.57ZM36.02,57.79c-.85,0-1.53-.69-1.53-1.53s.69-1.53,1.53-1.53,1.53.69,1.53,1.53-.69,1.53-1.53,1.53Z" fill="#fff" stroke-width="0"/><path d="M40.59,10.78h-9.14v24.43h9.14V10.78ZM37.54,32.16h-3.05V13.82h3.05v18.34Z" fill="#fff" stroke-width="0"/><rect x="54.29" y="38.25" width="9.14" height="3.05" fill="#fff" stroke-width="0"/><rect x="54.29" y="44.35" width="9.14" height="3.05" fill="#fff" stroke-width="0"/><path d="M58.86,51.68c-2.52,0-4.57,2.05-4.57,4.57s2.05,4.57,4.57,4.57c2.52,0,4.56-2.05,4.57-4.57,0-2.52-2.05-4.57-4.57-4.57ZM58.86,57.79c-.85,0-1.53-.69-1.53-1.53s.69-1.53,1.53-1.53,1.53.69,1.53,1.53-.69,1.53-1.53,1.53Z" fill="#fff" stroke-width="0"/><path d="M63.43,13.82h-9.14v21.38h9.14V13.82ZM60.38,32.16h-3.05v-15.3s3.05,0,3.05,0v15.3Z" fill="#fff" stroke-width="0"/><path d="M48.96,3.92v-1.52h-25.89v4.57H.23v62.22h71.57V3.92h-22.84ZM23.07,66.15H3.28V10.01h19.8v56.13ZM45.91,66.15h-19.79V6.97h0v-1.52h19.8v60.7ZM68.76,66.15h-19.8V6.97h19.8v59.18Z" fill="#fff" stroke-width="0"/></svg>