<?xml version="1.0" encoding="UTF-8"?><svg id="Layer_1" xmlns="http://www.w3.org/2000/svg" width="1in" height="1in" viewBox="0 0 72 72"><g id="Group_2430"><path id="Path_13754" d="M60.9,33.65c.67,0,1.21-.54,1.21-1.21v-3.99c0-.45-.27-.86-.68-1.06l-19.74-9.65,3.87-8.99h7.01v2.75c0,.67.54,1.21,1.21,1.21.67,0,1.21-.54,1.21-1.21h0v-6.59c0-.53-.35-1-.85-1.15L43.13.36c-.12-.04-.24-.05-.36-.05-1.63.05-3.09.99-3.82,2.44-.98,1.77-2.61,4.71-3.68,6.65-1.06-1.93-2.69-4.88-3.68-6.65-.73-1.45-2.2-2.39-3.82-2.44-.12,0-.24.02-.35.05l-11,3.39c-.51.16-.85.62-.85,1.15v6.59c0,.67.54,1.21,1.21,1.21.67,0,1.21-.54,1.21-1.21h0v-2.75h7.02l3.87,8.99-19.76,9.65c-.41.2-.67.62-.68,1.07v3.99c0,.67.54,1.21,1.21,1.21s1.21-.54,1.21-1.21h0v-2.76h14.07l-5.7,32.74h-9.58c-.67,0-1.21.54-1.21,1.21t0,0v7.23c0,.67.54,1.21,1.21,1.21h51.26c.67,0,1.21-.54,1.21-1.21v-7.23c0-.67-.54-1.21-1.21-1.21h-9.59l-5.68-32.74h14.08v2.76c0,.67.54,1.21,1.21,1.21M25.79,6.34h-7.82v-.54l9.95-3.07c.68.13,1.25.58,1.55,1.2,1.55,2.78,4.69,8.48,4.72,8.54.19.34.53.57.91.61.04,0,.09,0,.13,0h.02c.44,0,.84-.24,1.06-.62.03-.06,3.17-5.76,4.72-8.54.3-.62.87-1.06,1.55-1.2l9.96,3.07v.54h-7.79c-.48,0-.92.29-1.11.73l-4.32,10.05h-8.12l-4.32-10.03c-.19-.44-.63-.73-1.11-.73M33.82,41.56l-11.43,16.78,4.65-26.73,6.78,9.95ZM35.28,43.7l12.75,18.72h-25.51l12.75-18.72ZM36.73,41.56l6.78-9.95,4.65,26.73-11.43-16.78ZM35.28,39.41l-6.63-9.74h13.26l-6.63,9.74ZM59.7,69.66H10.85v-4.82h48.85v4.82ZM14.86,27.27l15.84-7.75h9.15l15.84,7.75H14.86Z" fill="#fff" stroke-width="0"/></g></svg>