<?xml version="1.0" encoding="utf-8"?>
<!-- Generator: Adobe Illustrator 28.2.0, SVG Export Plug-In . SVG Version: 6.00 Build 0)  -->
<svg version="1.1" id="Layer_1" xmlns="http://www.w3.org/2000/svg" xmlns:xlink="http://www.w3.org/1999/xlink" x="0px" y="0px"
	 viewBox="0 0 72 72" style="enable-background:new 0 0 72 72;" xml:space="preserve">
<style type="text/css">
	.st0{fill:#FFFFFF;}
</style>
<g>
	<g id="Group_2400">
		<path id="Path_13735" class="st0" d="M62.6,32.5c0-0.7-0.5-1.2-1.2-1.2l0,0h-9.5c-1.2-2.6-2.9-4.8-5.1-6.6l9-4.8v2
			c0,0.7,0.5,1.2,1.2,1.2s1.2-0.5,1.2-1.2v-7.6c0-0.7-0.5-1.2-1.2-1.2l0,0H41.7l-2-11.8c-0.1-0.6-0.6-1-1.2-1h-5.5
			c-0.6,0-1.1,0.4-1.2,1l-2,11.8H14.7c-0.7,0-1.2,0.5-1.2,1.2v7.6c0,0.7,0.5,1.2,1.2,1.2c0.7,0,1.2-0.5,1.2-1.2c0,0,0-0.1,0-0.1v-2
			l9,4.8c-2.2,1.8-4,4-5.1,6.6h-9.5c-0.7,0-1.2,0.5-1.2,1.2V41c0,0.7,0.5,1.2,1.2,1.2s1.2-0.5,1.2-1.2v-2l7.2,3.8
			c0.8,3.2,2.5,6.1,4.8,8.3l-1.9,11.1H10.3c-0.7,0-1.2,0.5-1.2,1.2v7.2c0,0.7,0.5,1.2,1.2,1.2h51.1c0.7,0,1.2-0.5,1.2-1.2
			c0,0,0,0,0,0v-7.2c0-0.7-0.5-1.2-1.2-1.2h0H49.9l-1.9-11.1c2.4-2.3,4-5.2,4.8-8.3l7.2-3.8v2c0,0.7,0.5,1.2,1.2,1.2
			s1.2-0.5,1.2-1.2L62.6,32.5z M55.7,15.5v1.7l-11.2,6c-0.4-0.2-0.8-0.4-1.2-0.6l-1.2-7L55.7,15.5z M34.1,2.7h3.5l1.7,10.4h-6.9
			L34.1,2.7z M32,15.5h7.7l1,6.1c-3.2-0.9-6.6-0.9-9.8,0L32,15.5z M15.9,17.2v-1.7h13.6l-1.2,7c-0.4,0.2-0.8,0.4-1.2,0.6L15.9,17.2z
			 M11.5,36.3v-2.6h7.4c-0.4,1.6-0.7,3.2-0.7,4.8c0,0.5,0,0.9,0.1,1.4L11.5,36.3z M60.2,69.4H11.5v-4.8h48.7V69.4z M47.5,62.2H24.2
			l1.6-9.3c6.1,4.3,14.2,4.3,20.2,0L47.5,62.2z M35.8,53.7c-8.4,0-15.2-6.8-15.2-15.2c0-8.4,6.8-15.2,15.2-15.2
			c8.4,0,15.2,6.8,15.2,15.2C51.1,46.9,44.2,53.7,35.8,53.7 M60.2,36.3l-6.8,3.6c0-0.4,0.1-0.9,0.1-1.4c0-1.6-0.2-3.2-0.7-4.8h7.4
			L60.2,36.3z"/>
		<path id="Path_13736" class="st0" d="M39.6,37.3h-5.6l3-6.6c0.3-0.6,0.1-1.3-0.5-1.6c-0.6-0.3-1.3-0.1-1.6,0.5c0,0,0,0.1,0,0.1
			L31,38c-0.3,0.6,0,1.3,0.6,1.6c0.2,0.1,0.3,0.1,0.5,0.1h5.6l-3,6.6c-0.3,0.6-0.1,1.3,0.5,1.6s1.3,0.1,1.6-0.5c0,0,0-0.1,0-0.1
			l3.8-8.3c0.3-0.6,0-1.3-0.6-1.6C39.9,37.3,39.8,37.3,39.6,37.3"/>
	</g>
</g>
</svg>
