<?xml version="1.0" encoding="UTF-8"?><svg id="Layer_1" xmlns="http://www.w3.org/2000/svg" width="1in" height="1in" viewBox="0 0 72 72"><path d="M38.45,38.79h-2.73l1.55-8.85c.08-.45-.09-.9-.44-1.19-.54-.44-1.34-.37-1.78.17l-10.12,12.35c-.18.23-.29.51-.29.8,0,.7.57,1.27,1.26,1.27h2.73l-1.55,8.85c-.01.07-.02.15-.02.22,0,.7.57,1.26,1.26,1.26h0c.38,0,.74-.17.98-.46l10.12-12.35c.18-.23.29-.51.29-.8,0-.7-.57-1.27-1.26-1.27ZM30.41,47.87l.97-5.57c.01-.07.02-.14.02-.22,0-.7-.57-1.27-1.27-1.27h-1.56l5.38-6.56-.98,5.58c-.01.07-.02.14-.02.22,0,.7.57,1.27,1.27,1.27h1.56l-5.37,6.55Z" fill="#fff" stroke-width="0"/><path d="M32.85,19.44c3.3,0,5.98-2.68,5.98-5.98s-2.68-5.98-5.98-5.98-5.98,2.68-5.98,5.98,2.68,5.98,5.98,5.98ZM32.85,10.04h0c1.9,0,3.44,1.53,3.44,3.43s-1.54,3.44-3.44,3.44c-1.9,0-3.43-1.54-3.44-3.43,0-1.9,1.54-3.44,3.44-3.44Z" fill="#fff" stroke-width="0"/><path d="M71.3,34.54h-.05c-.6-.36-1.38-.17-1.73.43-.7.96-1.88,1.46-3.06,1.31.7-1.31.88-2.83.51-4.27-.7-1.69-2.63-2.48-4.32-1.79-1.18.49-1.97,1.62-2.03,2.9.15,1.46.82,2.82,1.89,3.83-.54.27-1.1.51-1.67.7-.89-8.52-8.96-15.97-20.24-18.42-.68-.17-1.37.23-1.54.91-.17.68.23,1.37.91,1.54.03,0,.06.02.09.02l.52.12-.2,1.21c-2.64-.68-5.35-1.03-8.07-1.05-2.34-.02-4.67.2-6.97.64l-.33-1.34c.15-.02.28-.05.43-.07.69-.1,1.17-.74,1.07-1.43-.1-.67-.7-1.15-1.38-1.08-1.6.22-3.17.56-4.71,1.03-1.72-2.78-4.43-4.82-7.58-5.72-.68-.16-1.36.26-1.52.95-.02.09-.03.19-.03.29v9.84c-2.2,1.75-4,3.94-5.28,6.44l-4.24.53c-.63.08-1.11.61-1.11,1.25v11.67c0,.64.48,1.18,1.11,1.26l4.26.52c1.99,3.66,4.94,6.71,8.52,8.82l.42,8.34c.04.67.59,1.2,1.26,1.2h9.57c.67,0,1.23-.53,1.26-1.2l.24-4.07c1.71.17,3.42.24,5.14.21h.27c1.59,0,3.22,0,4.82-.15l.24,4.02c.04.67.59,1.2,1.26,1.2h9.57c.67,0,1.23-.53,1.26-1.2l.48-8.31c5.85-3.05,9.81-8.8,10.58-15.36,1.03-.26,2.03-.64,2.96-1.14.34-.17.65-.38.94-.63.38.15.78.25,1.18.29,2.23.34,4.46-.63,5.73-2.5.36-.6.16-1.38-.44-1.73ZM48.48,53.74h.04c-.38.22-.62.61-.65,1.04l-.45,7.81h-7.18l-.24-4.18c-.04-.7-.64-1.24-1.34-1.2-.04,0-.09,0-.13.01-1.92.26-3.86.36-5.8.3h-.27c-2.04.05-4.09-.08-6.11-.37-.7-.11-1.35.36-1.46,1.06,0,.04-.01.09-.01.13l-.24,4.25h-7.2l-.39-7.82c-.02-.44-.27-.83-.65-1.04-3.62-1.98-6.55-5.02-8.41-8.7-.19-.38-.56-.65-.98-.7l-3.81-.48v-9.44l3.8-.48c.43-.05.8-.32.99-.7.84-1.76,1.95-3.37,3.31-4.77v.19c-.03.7.51,1.29,1.21,1.32s1.29-.51,1.32-1.21c0-.04,0-.07,0-.11v-11.59c3.07,1.46,5.25,4.31,5.86,7.66.16.68.84,1.1,1.52.94.64-.15,1.06-.77.96-1.42-.15-.75-.35-1.49-.61-2.21.32-.09.65-.17.99-.26l.64,2.66c.17.68.85,1.1,1.53.93.02,0,.04-.01.06-.02,2.46-.61,5-.9,7.53-.85,2.94.03,5.87.47,8.69,1.33.13.04.26.06.4.06.62,0,1.15-.45,1.25-1.06l.39-2.35c9.18,2.93,15.36,9.51,15.36,16.72,0,5.65-3.71,11.08-9.92,14.54ZM64.23,35.09c-.58-.54-.96-1.26-1.07-2.04,0-.21-.01-.42.63-.54.11-.02.22-.03.33-.03.35,0,.41.16.46.32.15.78.03,1.59-.35,2.29Z" fill="#fff" stroke-width="0"/><path d="M13.26,33.93c-.88,0-1.59.72-1.59,1.6,0,.88.72,1.59,1.6,1.59.88,0,1.59-.71,1.59-1.59,0-.88-.71-1.6-1.6-1.6Z" fill="#fff" stroke-width="0"/></svg>