<?xml version="1.0" encoding="utf-8"?>
<!-- Generator: Adobe Illustrator 28.2.0, SVG Export Plug-In . SVG Version: 6.00 Build 0)  -->
<svg version="1.1" id="Layer_1" xmlns="http://www.w3.org/2000/svg" xmlns:xlink="http://www.w3.org/1999/xlink" x="0px" y="0px"
	 viewBox="0 0 72 72" style="enable-background:new 0 0 72 72;" xml:space="preserve">
<style type="text/css">
	.st0{fill:#FFFFFF;}
</style>
<g id="Group_2398" transform="translate(0 0)">
	<rect id="Rectangle_4675" x="14.2" y="20" class="st0" width="17.8" height="2.9"/>
	<rect id="Rectangle_4676" x="21.8" y="10.1" class="st0" width="15.5" height="2.9"/>
	<rect id="Rectangle_4677" x="14.2" y="26.4" class="st0" width="15.1" height="2.9"/>
	<rect id="Rectangle_4678" x="14.2" y="39.2" class="st0" width="15.1" height="2.9"/>
	<rect id="Rectangle_4679" x="14.2" y="45.6" class="st0" width="18.7" height="2.9"/>
	<rect id="Rectangle_4680" x="14.2" y="52" class="st0" width="26.6" height="2.9"/>
	<rect id="Rectangle_4681" x="14.2" y="32.8" class="st0" width="15.1" height="2.9"/>
	<g id="Group_2399" transform="translate(0 0)">
		<g>
			<g id="Group_2398-2">
				<path id="Path_13732" class="st0" d="M6.9,60.5V13h6.9c1.6,0,2.9-1.3,2.9-2.9V3.1h31.5c0.8,0,1.5,0.7,1.5,1.5v8.2h2.9V4.6
					c0-2.4-2-4.4-4.4-4.4H16.6c-1.2,0-2.3,0.5-3.1,1.3L5.3,9.6c-0.8,0.8-1.3,2-1.3,3.1v47.8c0,2.4,2,4.4,4.4,4.4h34.3V62H8.4
					C7.6,62,6.9,61.3,6.9,60.5 M13.9,5.2l0,4.9H9L13.9,5.2z"/>
				<path id="Path_13733" class="st0" d="M55.5,27.8l-5.8,5.8l-2.8-2.8l-2.1,2.1l4.9,4.9l7.9-7.9L55.5,27.8z"/>
				<path id="Path_13734" class="st0" d="M67.6,32.4c0.1-9.1-7.2-16.5-16.3-16.6l0,0c-9.1-0.1-16.5,7.2-16.6,16.3
					c-0.1,8.4,6.3,15.6,14.7,16.5V51h-0.7c-1.6,0-2.9,1.3-2.9,2.9v10.9c0,2.3,1.5,4.3,3.7,4.9v1.9h2.9v-1.9c2.2-0.6,3.7-2.6,3.7-4.9
					V53.9c0-1.6-1.3-2.9-2.9-2.9h-0.8v-2.3C60.9,48.1,67.6,41,67.6,32.4 M53.1,53.9v10.9c0,1.2-1,2.2-2.2,2.2c-1.2,0-2.2-1-2.2-2.2
					l0-11L53.1,53.9C53.1,53.9,53.1,53.9,53.1,53.9L53.1,53.9 M37.7,32.2c0.1-7.4,6.1-13.4,13.5-13.4h0.1c7.5,0,13.5,6.1,13.5,13.6
					s-6.1,13.5-13.6,13.5h-0.1C43.6,45.7,37.6,39.6,37.7,32.2"/>
			</g>
		</g>
	</g>
</g>
</svg>
