<?xml version="1.0" encoding="UTF-8"?><svg id="Layer_1" xmlns="http://www.w3.org/2000/svg" width="1in" height="1in" viewBox="0 0 72 72"><g id="Group_2300"><path id="Path_13556" d="M68.36,40.9c-.22-.47-.69-.78-1.21-.78h-8.64l4.1-24.43c.12-.73-.37-1.42-1.1-1.54-.46-.08-.93.09-1.23.45l-24.4,28.67c-.48.56-.41,1.41.15,1.88.24.21.55.32.87.32h8.64l-4.1,24.43c-.12.73.37,1.42,1.1,1.54.46.08.93-.09,1.23-.45l24.4-28.67c.34-.4.41-.95.2-1.43M44.86,65.58l3.56-21.22c.12-.73-.37-1.42-1.1-1.54-.07-.01-.15-.02-.22-.02h-7.32l19.39-22.78-3.56,21.22c-.12.73.37,1.42,1.1,1.54.07.01.15.02.22.02h7.32l-19.39,22.78Z" fill="#fff" stroke-width="0"/><path id="Path_13557" d="M36.35,47.05c-11.49,4.97-24.83-.32-29.8-11.81-4.97-11.49.32-24.83,11.81-29.8,11.49-4.97,24.83.32,29.8,11.81.61,1.41,1.07,2.88,1.39,4.39.12.73.81,1.22,1.54,1.1.73-.12,1.22-.81,1.1-1.54,0-.03-.01-.07-.02-.1C49.33,7.39,35.92-1.42,22.22,1.42,8.51,4.25-.3,17.66,2.54,31.36c2.43,11.77,12.8,20.2,24.81,20.2,3.46,0,6.88-.7,10.05-2.07.68-.29.99-1.08.7-1.76-.29-.68-1.08-.99-1.76-.7" fill="#fff" stroke-width="0"/><path id="Path_13558" d="M27.6,43.07c.74,0,1.34-.6,1.34-1.34v-2.46c.42-.06.83-.15,1.23-.26,3.86-1.04,6.27-3.69,6.27-6.93,0-4.92-4.83-6.23-8.71-7.28-4.15-1.12-6.67-2-6.67-4.61s2.56-3.79,3.65-4.15c2.74-.89,6.53-.5,8.15,1.7.45.59,1.29.7,1.88.24.57-.44.69-1.24.28-1.82-1.5-1.86-3.7-3-6.08-3.16v-2.31c0-.74-.6-1.34-1.34-1.34s-1.34.6-1.34,1.34v2.3c-.81.08-1.61.24-2.38.49-3.13.73-5.38,3.47-5.5,6.68,0,4.85,4.79,6.15,8.64,7.19,4.19,1.14,6.74,2.02,6.74,4.7,0,2.97-3.28,4.07-4.28,4.35-3.05.81-7.13.22-8.69-2.49-.39-.63-1.22-.82-1.84-.43-.6.37-.81,1.15-.47,1.77,1.72,2.62,4.66,4.19,7.8,4.15v2.29c0,.74.6,1.34,1.34,1.34" fill="#fff" stroke-width="0"/></g></svg>