<?xml version="1.0" encoding="UTF-8"?><svg id="Layer_1" xmlns="http://www.w3.org/2000/svg" width="1in" height="1in" viewBox="0 0 72 72"><g id="Group_2304"><path id="Path_13563" d="M65.82.34H6.34C2.99.35.27,3.06.26,6.42v59.48c0,3.35,2.72,6.07,6.08,6.08h59.48c3.35,0,6.07-2.72,6.08-6.08V6.42c0-3.35-2.72-6.07-6.08-6.08M68.7,65.9c0,1.59-1.29,2.88-2.88,2.88H6.34c-1.59,0-2.88-1.29-2.88-2.88V6.42c0-1.59,1.29-2.88,2.88-2.88h59.48c1.59,0,2.88,1.29,2.88,2.88v59.48Z" fill="#fff" stroke-width="0"/><path id="Path_13564" d="M57.92,8.66H14.25c-3.13,0-5.67,2.54-5.67,5.67h0v43.67c0,3.13,2.54,5.67,5.67,5.67h43.67c3.13,0,5.67-2.54,5.67-5.67V14.32c0-3.13-2.54-5.67-5.67-5.67M60.39,57.99c0,1.36-1.11,2.47-2.47,2.47H14.25c-1.36,0-2.47-1.11-2.47-2.47V14.32c0-1.36,1.11-2.47,2.47-2.47h43.67c1.36,0,2.47,1.11,2.47,2.47v43.67Z" fill="#fff" stroke-width="0"/><path id="Path_13565" d="M46.74,36.16c0-1.65-1.34-2.98-2.98-2.98-1.65,0-2.98,1.34-2.98,2.98s1.34,2.98,2.98,2.98h0c1.65,0,2.98-1.34,2.98-2.98" fill="#fff" stroke-width="0"/><path id="Path_13566" d="M25.42,36.16c0,1.65,1.34,2.98,2.98,2.98,1.65,0,2.98-1.34,2.98-2.98,0-1.65-1.34-2.98-2.98-2.98h0c-1.65,0-2.98,1.34-2.98,2.98" fill="#fff" stroke-width="0"/><path id="Path_13567" d="M41.69,18.07c-.85-.26-1.74.22-1.99,1.07s.22,1.74,1.07,1.99h0c8.32,2.52,13.02,11.31,10.5,19.63-2.52,8.32-11.31,13.02-19.63,10.5-5.73-1.74-9.98-6.58-10.96-12.49,1.23-3.52,3.76-6.43,7.07-8.14,8.8-4.92,7.66-11.58,7.61-11.86-.09-.48-.39-.88-.82-1.11-5.36-2.61-11.77-1.63-16.12,2.45-2.29,2.08-3.66,4.99-3.82,8.08-.06.88.6,1.64,1.49,1.7.88.06,1.64-.6,1.7-1.49.1-2.27,1.1-4.4,2.78-5.92,3.1-2.98,7.64-3.9,11.66-2.36-.08,1.48-.89,4.83-6.05,7.71-1.93,1.07-3.67,2.45-5.14,4.1.93-3.35,2.96-6.29,5.75-8.36.72-.52.87-1.52.36-2.23-.52-.72-1.52-.87-2.23-.36-.01,0-.03.02-.04.03-8.38,6.26-10.1,18.12-3.85,26.5,6.26,8.38,18.12,10.1,26.5,3.85,8.38-6.26,10.1-18.12,3.85-26.5-2.42-3.24-5.81-5.62-9.68-6.79" fill="#fff" stroke-width="0"/></g></svg>