<svg id="Layer_1" data-name="Layer 1" xmlns="http://www.w3.org/2000/svg" viewBox="0 0 524 68.88"><title>NYT - The New York Times logo - Brandlogos.net</title><path d="M161.28,356.68c0-5.69-5.41-7.12-9.68-7.12v.85c2.56,0,4.55.85,4.55,2.85,0,1.14-.85,2.85-3.42,2.85-2,0-6.26-1.14-9.39-2.28-3.7-1.42-7.12-2.56-10-2.56a9.31,9.31,0,0,0-9.68,9.11,6.6,6.6,0,0,0,4.27,6.26l.28-.57a3.41,3.41,0,0,1-1.42-2.85c0-1.14,1.14-3.13,4-3.13,2.56,0,6,1.14,10.53,2.56a80.43,80.43,0,0,0,10.53,2.28v8.82l-4.27,3.7v.28l4.27,3.7v12.24a13.14,13.14,0,0,1-7.12,1.71c-4.27,0-8-1.14-11.1-4.55l11.67-5.69V365.5l-14.23,6.26c1.14-3.7,4.27-6.26,7.4-8l-.28-.85c-8.54,2.28-16.22,10.25-16.22,19.92a20,20,0,0,0,19.92,19.92,18.52,18.52,0,0,0,18.79-18.5h-.57c-1.71,3.7-4.27,7.12-7.4,8.82V381.44l4.55-3.7v-.28l-4.55-3.7v-8.82C157,364.93,161.28,362.08,161.28,356.68ZM136.52,388l-3.42,1.71c-2-2.56-3.13-6-3.13-10.82a20.34,20.34,0,0,1,.57-6l6-2.56Zm30.17,6.55-3.7,2.85.57.57,1.71-1.42,6.26,5.69,8.54-5.69-.28-.57-2.28,1.42-2.85-2.85V375.18l2.28-1.71,4.84,4v17.36c0,10.82-2.28,12.52-7.12,14.23v.85c8,.28,15.37-2.28,15.37-16.22V374.89l2.56-2-.57-.57L189.74,374l-7.12-6-8,6V350.7h-.57l-10,6.83v.57c1.14.57,2.85,1.14,2.85,4.27Zm52.09-3.13-7.12,5.41-7.12-5.69V387.7l13.38-9.11v-.28l-6.83-10.25-14.8,8v18.79l-2.85,2.28.57.57,2.56-2,9.68,7.12,12.81-10.25Zm-14.23-4.84V372.61l.57-.28,6.26,10Zm68.6-32.45a8.31,8.31,0,0,0-.57-2.56H272c-.85,2.28-2,3.42-4.84,3.42a7.53,7.53,0,0,1-5.41-2.56l-8.25,9.39.57.57,2.85-2.56a10.38,10.38,0,0,0,7.12,2.85v23.62l-16.79-28.75c-1.42-2.28-3.42-5.41-7.4-5.41-4.55,0-8.54,4-8,10.25h.85c.28-1.71,1.14-3.7,3.13-3.7,1.42,0,2.85,1.42,3.7,2.85v9.39c-5.12,0-8.54,2.28-8.54,6.55,0,2.28,1.14,5.69,4.55,6.55v-.57a2.58,2.58,0,0,1-.85-2c0-1.42,1.14-2.56,3.13-2.56h1.42v12c-6,0-10.82,3.42-10.82,9.11,0,5.41,4.55,8,9.68,7.68v-.57c-3.13-.28-4.55-1.71-4.55-3.7,0-2.56,1.71-3.7,4-3.7a7.73,7.73,0,0,1,5.69,3.13l8.25-9.11-.57-.57-2,2.28c-3.13-2.85-4.84-3.7-8.54-4.27V362.65l22.77,39.85h1.71V362.65A8.71,8.71,0,0,0,273.14,354.11Zm20.78,37.29-7.12,5.41-7.12-5.69V387.7l13.38-9.11v-.28l-6.83-10.25-14.8,8v18.79l-2.85,2.28.57.57,2.56-2,9.68,7.12,12.81-10.25Zm-14.23-4.84V372.61l.57-.28,6.26,10Zm60.63-15.37-2,1.42-5.41-4.55-6.26,5.69,2.56,2.56v21.35l-6.83-4.27V375.75l2.28-1.42-6.55-6.26-6.26,5.69,2.56,2.56v20.49l-.85.57-6-4.27V376c0-4-2-5.12-4.27-6.55-2-1.42-3.13-2.28-3.13-4.27,0-1.71,1.71-2.56,2.56-3.13v-.57c-2.28,0-8.25,2.28-8.25,7.68,0,2.85,1.42,4,2.85,5.41s2.85,2.56,2.85,5.12v16.51L297,398.52l.57.57,2.85-2.28L307,402.5l7.12-4.84,8,4.84,15.09-8.82V374.61l3.7-2.85-.57-.57Zm52.94-15.65-2.85,2.56-6.26-5.69-9.39,6.83V353h-.85l.28,46.11a30.75,30.75,0,0,1-5.41-1.14l-.57-38.42a6.77,6.77,0,0,0-7.12-6.83,8.28,8.28,0,0,0-8.54,8h.85c.28-1.71,1.14-3.13,2.85-3.13s3.13,1.14,3.13,4.84v11.1c-5.12.28-8.25,3.13-8.25,6.83,0,2.28,1.14,5.69,4.55,5.69v-.57a2.26,2.26,0,0,1-1.42-2c0-1.71,1.42-2.28,3.7-2.28h1.14V398.8c-4.27,1.42-6,4.55-6,8,0,4.84,3.7,8.25,9.39,8.25a43.21,43.21,0,0,0,10.82-1.42,62.94,62.94,0,0,1,8.25-1.42c2.28,0,3.13,1.14,3.13,2.56,0,2-.85,2.85-2,3.13v.57c4.55-.85,7.4-3.7,7.4-8s-4.27-6.83-8.82-6.83a90.86,90.86,0,0,0-10.53,1.42,66.14,66.14,0,0,1-9.11,1.42c-2,0-4.27-.85-4.27-3.7,0-2.28,2-4.27,6.83-4.27a34.12,34.12,0,0,1,8.82,1.14c3.42.85,6.55,1.71,9.39,1.71,4.27,0,8-1.42,8-7.4V359l3.42-2.85-.57-.57ZM381.58,372.9a5,5,0,0,1-3.42,1.71,4.44,4.44,0,0,1-3.42-1.71V360.38l2.85-2,4,3.7Zm0,8.54a4.81,4.81,0,0,0-6.83,0V374a4.81,4.81,0,0,0,6.83,0Zm0,13.38a4.32,4.32,0,0,1-4.55,4.55h-2.28V382.58a5.44,5.44,0,0,1,3.42-1.42,6.25,6.25,0,0,1,3.42,1.42Zm39-20.21-9.11-6.55-13.95,8v18.5l-2.85,2.28.28.57,2.28-1.71,9.11,6.83L420.57,394ZM405.2,392.54V372l7.12,5.12v20.21Zm42.41-23.91H447a5.11,5.11,0,0,1-2.56,1.14,4.08,4.08,0,0,1-3.13-1.42h-.57l-4.84,5.41-4.84-5.41L422.57,374l.28.57,2.28-1.42,2.85,3.13v17.93l-3.7,2.85.57.57,1.71-1.42,6.83,5.69,8.82-6-.28-.57-2.56,1.42L435.94,394V374c1.42,1.42,3.13,2.85,5.12,2.85,4,.28,6.26-3.7,6.55-8.25ZM481.77,396l-9.68,6.55L459,382.58l9.39-14.52H469a7.09,7.09,0,0,0,4.84,2.28,5.33,5.33,0,0,0,4.27-2.28h.57c-.28,5.69-4.27,9.11-7.12,9.11s-4.27-1.42-6-2.28l-.85,1.42,14.23,21.06,2.85-1.71Zm-31.31-1.42-3.7,2.85.57.57,1.71-1.42,6.26,5.69,8.54-5.69-.57-.57L461,397.38l-2.85-2.85V350.7h-.28l-10.25,6.83v.57c1.14.57,2.85.85,2.85,4.27ZM529,356.68c0-5.69-5.41-7.12-9.68-7.12v.85c2.56,0,4.55.85,4.55,2.85,0,1.14-.85,2.85-3.42,2.85-2,0-6.26-1.14-9.39-2.28-3.7-1.14-7.12-2.28-10-2.28a9.31,9.31,0,0,0-9.68,9.11,6.6,6.6,0,0,0,4.27,6.26l.28-.57a3,3,0,0,1-1.71-2.85c0-1.14,1.14-3.13,4-3.13,2.56,0,6,1.14,10.53,2.56a80.43,80.43,0,0,0,10.53,2.28V374l-4.27,3.7V378l4.27,3.7V394a13.14,13.14,0,0,1-7.12,1.71c-4.27,0-8-1.14-11.1-4.55l11.67-5.69V365.5l-14.23,6.26c1.42-3.7,4.55-6.26,7.4-8.25l-.28-.57c-8.54,2.28-16.22,10-16.22,19.64a20,20,0,0,0,19.92,19.92A18.52,18.52,0,0,0,528.16,384h-.57c-1.71,3.7-4.27,7.12-7.4,8.82V381.15l4.55-3.7v-.28l-4.27-3.7v-8.54C524.75,364.93,529,362.08,529,356.68ZM504.26,388l-3.42,1.71c-2-2.56-3.13-6-3.13-10.82a20.23,20.23,0,0,1,.85-6l6-2.56ZM539,353.83h-.28L533,358.67V359l4.84,5.41h.57l5.69-4.84v-.28L539,353.83ZM547.52,396l-2.28,1.42-2.85-2.85V374.89l2.85-2-.57-.57-2,1.71-5.12-6-8.25,5.69.57.85,2-1.42,2.56,3.13v18.5l-3.7,2.85.28.57,2-1.42,6.26,5.69,8.54-5.69-.28-.85Zm47.53-.28-2,1.42-3.13-2.85V374.89l2.85-2.28-.57-.57-2.28,2-6.55-6-8.54,6-6.55-6-8,6-5.12-6-8.25,5.69.28.85,2-1.42,2.85,3.13v18.5l-2.28,2.28,6.55,5.41,6.26-5.69L560,394.25V374.89l2.56-1.71,4.27,4v17.08l-2.28,2.28,6.55,5.41,6.26-5.69-2.56-2.56V374.89l2.28-1.42,4.55,4v17.08l-2,2,6.55,6,8.82-6v-.85Zm24.76-4.27-7.12,5.41-7.12-5.69V387.7L619,378.59v-.28l-6.83-10.25-14.8,8v19.35l10,7.12,12.81-10.25Zm-14.23-4.84V372.61l.57-.28,6.26,10ZM645.72,384l-5.41-4.27a14.15,14.15,0,0,0,5.12-10.25v-1.71h-.57a4.1,4.1,0,0,1-4,2.85c-2.28,0-3.7-1.14-5.12-2.85l-12.81,7.12v10.25l4.84,3.7c-4.84,4.27-5.69,7.12-5.69,9.39a5.68,5.68,0,0,0,3.7,5.69l.28-.57a2.54,2.54,0,0,1-1.14-2.28c0-.85,1.14-2.28,3.42-2.28,2.85,0,4.55,2,5.41,2.85l12.24-7.4V384Zm-3.13-8.54c-2,3.42-6.26,6.83-8.82,8.54l-3.13-2.56v-10a8.42,8.42,0,0,0,7.4,5.12A7.76,7.76,0,0,0,642.58,375.46Zm-4.84,22.77a9.44,9.44,0,0,0-8.25-5.41,9.93,9.93,0,0,0-5.41,1.42,31.76,31.76,0,0,1,10-9.11l3.42,2.85.28,10.25Z" transform="translate(-122 -349.56)"/></svg>