<?xml version="1.0" encoding="UTF-8"?>
<svg id="a" xmlns="http://www.w3.org/2000/svg" version="1.1" viewBox="0 0 331.2 316.8">
  <!-- Generator: Adobe Illustrator 29.0.0, SVG Export Plug-In . SVG Version: 2.1.0 Build 186)  -->
  <defs>
    <style>
      .st0 {
        fill: #765d37;
        isolation: isolate;
        opacity: .1;
      }
    </style>
  </defs>
  <path class="st0" d="M7.7,110.9c5.1,4.9,10.7,9,16.7,12.9,8,5.6,17.2,9.6,25.5,14.9,1.2.9,2.6,1.8,3.2,3.1.6,4.8,5.6,5.8,9.8,6.3,20.3,3.5,39.3,2.3,58.3-4.6,10.4-3.5,19.9-8.7,29.3-13.9,8.3-4.8,16.7-9.5,24.5-15.1,3.9-2.8,7.6-5.7,11.6-8.3,5.9-3.8,11.9-7.1,17.8-10.7-19.8,18.6-38,38.9-53.3,61-4.3,6.1-8.3,12.5-11.7,19.1-.9,1.9-1.9,3.9-2.7,5.9-.3,0-.6,0-.9.2-3.6,1.6-7.3,2.8-11.1,4-6.7,2.2-13.7,3.8-20.4,6.1-1.3.5-2.6,1-3.9,1.6-13,6-27.6,19.7-33.2,31.1-1.4,3.8-1.6,7.8-2.9,11.6-1.2,4.2-2.7,8.2-3.3,12.5-.5,3.5,0,7,1.4,10.3.9,1.8,2.2,3.5,2.6,5.5.5,2.1.2,4.3,0,6.3-1.5,6.4-3.9,12.7-6.8,18.6h0v.2c-3.1,6-7.1,11.8-10.7,17.6-.9,1.8-2.5,3.7-2.3,5.8,1.6,4.6,7.1.6,9.6-1,7.8-5.1,15.1-10.7,22.3-16.5,4.1-3.3,8.1-6.6,12.9-9.1,1.1-.5,2.2-.4,3.3-1.1,3.2-1.9,5-5.1,7.4-7.6,2.6-3,5.3-5.9,7.9-8.8,1.3-1.4,2.7-2.8,4.3-4.1.8-.6,1.7-1.5,2.8-.7,5,3,9.1.4,11.1-4.1,1.7-3.1,3.3-6.3,5.4-9.2,3.3-4.7,6.9-9.2,9.6-14.2,6.1-11.9,6.1-26.1.7-38.6-.9-2.3-1.7-4.7-2.3-7-.3-.6-.3-1.4-.3-2.1,1.3-6.3,4.4-12,7.6-17.6,14-22.7,31.1-43.3,50.2-62.4-6.4,9.3-12.2,19.1-15.8,29.7-5.6,17.1-7,35.8-2,53.4,1,3.1,2,6.2,4.3,8.7,2.3,2,4.3,4.1,5.8,6.7,3.5,6,5.1,12.7,7.7,19,5.2,12.7,12.7,24.4,20.5,35.7.8,1.2,1.7,2.6,3.3,2.6s2-.7,2.3-1.7c.6-2.8.7-5.7,1.2-8.4,1.2-7.9,3-15.8,5.3-23.5,1.2-4.2,2.5-8.3,3.3-12.6.9-4.5.7-9,.8-13.5,0-.2,0-.3.3-.4.8-.2,1.6-.3,2.3-.6,1.1-.5,2-1.4,2.5-2.4,2.5-6.1,1.9-13.1,1.6-19.6-1.4-15.5-10-29.7-21.1-41.2-8.2-8.4-15.4-17.9-18.4-29.2,3.4-5,7-9.8,10.6-14.6,1.4-1.9,2.8-3.8,4.2-5.7.2-.2.4-.5.6-.7,18.3-16.5,38-31.8,57.9-46.4,1-.7,2.1-1.4,3.1-2.2-5,8.4-6.9,18.1-12.2,26.4-17,27.3-15.2,51.2,3.5,78.1,5.3,8,11.3,15.5,17.5,23,5.5,6.2,10.9,13.6,17.3,19.2,10.1,4.6,6.2-17.3,5.9-22.1-.9-6.6-1.6-13.2-1.3-19.9,0-2.1,0-4.2.3-6.2.2-.9,0-2.2,1.1-2.7,3.3-1.5,8.5,0,9.6-4.5.7-2.4.2-5,.5-7.3,1.5-7.9,3-16.2,0-24-7-21.4-31.5-32.6-40.4-53.2,2.1-4.3,4.7-8.4,7.4-12.4.2-.3.4-.7.7-1,12.8-8.5,26.2-16.7,39.8-23.9,30-15,61-28.3,90.2-44.4,10.7-6,21.3-12.4,31.4-19.2,3.3-2.3,6.5-4.6,9.8-6.8,1.6-1.2.5-3.8-1.5-3.9-.4,0-.8,0-1.2.2-.4.2-.7.4-1.1.7-2.8,2-5.8,4.1-8.7,6-13.4,9.1-27.6,17.3-41.9,25-29.6,15.8-61.3,28.5-90.6,44.7-3.1,1.8-6.1,3.6-9.2,5.5-.8-.4-1.9-.4-2.8,0-2.8,1-5.8,1.4-8.7,1.5-15.6.3-30.1-7.6-42.7-15.9.6-1.5.2-3.2.5-4.7,1.2-7.1,1.1-14.6-.2-21.7-2.6-13.5-8.7-27.4-20.6-36.1-6-4.5-13.4-7.1-19.4-11.5-3-2.2-5.6-4.9-8.1-7.4-2-1.7-3.7-4.7-6.6-4.9-.4,0-.8.2-1.1.3-3,1.4-.3,6,0,8.7.7,7.1.7,14.4,2.1,21.6,2.3,10.7,3.7,21.6,8.4,31.7,4.5,9.7,12.5,18.3,22.6,23.2,4,1.9,8.3,2.8,12.7,3h4.9c.7.3,1.4.9,2.1,1.4,12.8,8.4,27.2,16.1,42.9,16.8-1.1.4-2.2.6-3.2.9-15.9,3.9-33,2.6-49.5.5-6.1-.8-12.2-1.8-18.3-2.5-2.7-1.7-5.3-3.6-7.7-5.5-7.5-5.6-15.4-10.9-24.3-14.2C178.6.9,168.6-.4,158.8-.1c-6.3.3-10.4,1.2-13.7,2.7-4.6,2.1-7.7,5.5-13.9,9.8-11.3,5.1-23.3,8.8-34,15-2,1.3-4.9,2.3-5.7,4.7-.3,3.8,4.8,2.9,7.3,2.9s5.1,0,7.6.2c11.7.5,22.9,4,34.2,6.4,11.2,2.5,18.9,1.2,29.4-2,2.7-.7,5.3-1.3,8-1.9,4.6-1.1,9.2-1.3,13.9-2.2,7.2-1.1,13.5-5,20.2-7.2,2-.4,4.2-.7,6.1-.3.7.4,1.7.5,2.4,0,21.2,2.8,43.2,6.6,64.3,2.5-.2.2-.3.4-.5.6s-.2.3-.3.4c-17.6,11.9-34.5,24.8-50.9,38.2-2.2,1.8-4.3,3.6-6.4,5.4-.2,0-.3,0-.5.2-5.8,5.1-12.7,8.8-19.3,12.8-3.9,2.4-7.8,4.8-11.8,7-14.3,3.5-29.6.6-43.9-2.7-11.5-2.7-22.7-8.4-34.5-10.1-10.8-1.3-25,.8-33.8,6.5-2,1.3-3.2,3.3-4.8,4.9-1.7,1.2-4.1,1.2-6.1,1.5-3.1.3-6.2.5-9.3.9-3.8.5-8,1.2-10.3,4.3-1.2,1.7-1.1,3.8-.3,5.7.4,1.5.5,2.3-1.4,2.1-9.3-.3-18.6-2.6-27.7-4.7-5-1-10.2-2.4-15.3-1.5-.3,0-.6.2-.9.4-3.9,1.8-1.7,5.6,1.1,7.8l.2.3-.5.4h0ZM138.2,201.2c2.3,5.8,3.4,12,3,18-1,14.1-8.1,20.7-15.4,31.8-2.1,3.1-3.2,7.1-5.9,9.7-1.8.6-3.4-1.4-5.2-1.4h-1.1c3-4.7,5.6-9.6,7.7-14.8,2.6-6.5,4.5-13.3,6.9-19.8-3.3,6.3-6.9,12.7-10.5,18.9-3.4,6-6.4,12.2-10,18.1-.5.8-1,1.6-1.5,2.3-.6.6-1.2,1.2-1.8,1.8-4.5,4.7-8.6,9.6-12.8,14.4h0c1.8-2.9,3.4-5.9,3.6-6.4,2.7-5.8,4.2-11.9,6.3-17.7-4.6,8.7-10.2,17.2-14.3,26.3-2.5,1.2-4.7,2.8-6.8,4.3-7.1,5.5-14,11.1-21.2,16.4,2.5-3,5-6,7.3-9.3,6-9,11.4-18.5,17.6-27.6-8.1,10.1-16.4,20.4-24.4,30.6-1.3,1.6-2.6,3.3-3.8,5,3.9-6.1,7.5-12.4,10.1-19.4,2.2-6.2,5-13,3.2-19.6-.2-.7-.5-1.4-.8-2.1,1.4-2.5,3.1-4.7,4.9-6.8,4.2-5.1,8.4-10.3,12.8-15.3-6.6,5.9-15.3,10.9-19.4,18.9-.2-.4-.5-.9-.6-1.3-2-6,.7-12.2,2.4-17.9.2-.5.3-1,.5-1.5,9.7-12,23.7-20.2,36.7-29-12,6.6-26,11.7-34.8,22.2-.2.2-.3.5-.5.7.4-2,.9-3.9,1.7-5.7,6.1-10.1,15.3-18.5,25.5-25.1,10.7-6.2,23.7-7.9,35.5-12.3,0,.2-.2.3-.3.4-3.6,5.5-6.2,11.2-9.2,17-6.3,12.1-13.6,23.6-21.1,35.1h0c9.1-12,19.5-23.4,26-37,2.1-4.3,4.2-8.5,6.4-12.7,0,.3,0,.6.2.9.8,3.5,2,6.6,3.3,10.1l-.3-.2h.1ZM301.9,19.1c-.4.2-.7.6-.9,1,.2-.4.5-.7.9-1ZM232.1-7.9c2.3,3,4.7,5.8,7.3,8.4.3.3,1.2,1.2,2.3,2.2-3.7,0-7.2-.4-10.7-1.9-9.9-4.3-17.6-12.6-21.9-21.8-4.4-9.7-5.8-20.2-7.9-30.4-1.4-7.2-1.2-14.7-2.2-22,3,3,5.9,5.9,9.4,8.3,7,5,15.7,7.7,21.9,13.6,8.9,8.3,13.5,19.8,15.6,31,.5,3.2.8,6.4.9,9.7.2,4-.6,8.1-1,12.4-1.4-1.3-2.8-2.6-4.1-4-7.8-8.9-15.3-18.1-22.2-27.8,4,7.3,7.2,15.4,12.6,22.1h0v.2h0ZM205.8,26.2c-4.4,1.8-8.4,4.1-13.2,5.1-5.1,1.3-10,1.3-15.3,2.5-8.6,1.6-16.8,5.2-25.6,5.4-9.8,0-19.2-3.5-28.8-5.4-5.9-1.3-11.8-2.1-17.6-2.4,1.4-.3,2.7-.6,4.1-.9,8-1.8,16.2-3.5,24.2-4.9-8.8.5-17.8.5-26.5,2.2,7.5-3.5,15.4-6.3,23.1-9.5,8.5-1.5,17.4-2,26-2.7,2.5-.2,5.2-.3,7.6-.5-8.1-.2-16.4-1.4-24.5-.8-1,0-1.9.2-2.9.3,2.9-2.2,5.6-4.8,8.7-6.6,10.3-5.1,24.6-3,35.8-.6,11,2.8,20.2,9.5,29.3,16.2-2.3,0-4.7,0-7-.2-10.1,0-20.2-1-30.3-.3-6.8.5-13.7,1.3-20.5,1.8,17.6-.2,35.7,2.7,53.4,1.6v-.2h0ZM272.9,63.7c-2,12.6-1.6,25.4.2,38.1,1.2,10.2,4.3,20.1,7.5,29.9,1.1,3.4,2.2,6.8,3.3,10.1-.7-2.7-1.3-5.5-2-8.1-4.2-17.4-6.5-35-7-52.7,0-5.5.5-10.9,1.2-16.3.3-2.9.8-5.9,1.2-8.8,3.1,5.2,6.9,9.7,11.1,14.2,2.9,3.1,5.9,6,8.8,9,10.4,10,20.8,22.6,18.7,37.2-.3,2.6-.9,5.5-1.3,8-.6,2.7,0,5.5-.6,8-4.7.4-7.3,1.3-8.9,2.9,0-.4,0-.8-.2-1.2-2.3-14.6-9.6-27.9-15.3-41.4,3.8,12.1,7.2,24.4,10.5,36.6h0c.8,3.2,1.6,6.2,2.2,9.4.3,1.1.5,2.1.7,3.2,0,1.2,0,2.5-.2,4-.3,6.7.2,13.4,1.1,20.1.6,6.2,1.7,12.6.6,18.7-12.3-13.5-24.2-27.5-34-42.5-10.2-15.6-16-32.3-11-50.1,2.3-10.1,8.4-18.7,13.1-28v-.3h.3,0ZM207.3,147.5c-1.5-6.8-3.2-13.8-4.9-20.6,1.1,1.8,2.2,3.5,3.4,5.2,6.9,9.4,16.5,17.3,22.2,27.5,5.5,9.2,8.3,19.8,7.8,30.2,0,3.1-.2,6.7-1.3,9.7,0,.3-.3.5-.6.6-.3.2-.7.2-1.1.3-.6,0-1.1.2-1.5.5-.4.2-.7.5-1,.8-4-14.3-11.4-27.7-16.9-41.5,3.5,11.3,6.2,23,10.8,34,1.7,4.2,3.2,8.4,4.6,12.8,0,3.3.2,6.5-.5,9.8-1.2,7.6-4.4,15.8-6,23.6-1.2,5.2-2.1,10.1-2.9,15.4-1.8-5.1-3.2-10.2-5-15.2-2.7-8-5.6-16-8-24.1,2.1,9.9,3.7,20.1,6.5,30,0,.3.2.7.3,1-4.5-7.1-8.5-14.5-11.7-22.1-3.2-7.5-5-15.7-9.8-22.5-1.5-2.6-4.3-4.1-5.9-6.5-3.2-6.8-4.4-14.4-5-21.7-1.1-20.2,4.8-40.5,16-57.4,0,.4-.2.8-.3,1-.9,3.1-1.7,6.2-2.4,9.4-3.9,20.4.4,41.4,5.6,61.7.8,3.2,1.5,6.4,2.3,9.6-3.2-22.1-7.7-44.5-5.5-66.7.4-3.3,1-6.5,1.6-9.8,1.4,8,7.3,20.2,9,25.2h0l.2-.2h0ZM30.5,110.4c1.7.4,3.4.7,5.1,1,17.8,4.1,36.1,6.6,54.4,5.8,3,0,6.1,0,9-.3-14.6-.8-29.2-2.9-43.7-5.2,1.6-1.6,1.7-4.1.9-6-1.5-2.5,1.4-3.4,3.5-3.9.4,0,.8-.2,1.2-.2h2.1c5.7,0,11.4.4,17.1,1.1,8.2,1,16.3,2.9,24.5,3.8,8,1,16.1,0,24.1-.5,2.1,0,4.4-.2,6.3-.3-18.1.4-36.2-5.8-54.3-7.4,1.9-1.4,2.9-3.7,5-5,8.1-5.1,20.5-6.8,30.4-5.7,7.1,1,13.9,3.8,20.7,6,15,5.1,30.9,8.5,46.7,8.3-.4.2-.7.3-1,.4-4.4,1.7-8.8,3.2-13.4,4.6-8.6,2.6-17.6,4.4-26.6,6.1-9.5,2.1-18.9,4.4-28.6,6.2,15.4-1.6,30.9-3,45.9-6.5,5.7-1.5,11.4-3,16.9-5.2-5.9,4.3-11.8,8.5-18.1,12.2-11.1,6.5-22.3,13.1-34.4,18-21.3,8.4-41.3,10.1-64.5,5.7-.7-.3-1.6-.3-2.1-.9-.5-1.3-.7-2.7-1.8-3.8-2.2-2.6-5.2-4.3-8.1-5.9-5.8-3.2-11.5-6.2-17.2-9.6,10.2,3.6,21.2,5.1,31.8,4.9h11.5c-3.7-.4-7.4-.7-11.2-1.2-12.2-1.5-24.5-4.1-35.8-9-5.7-2.6-10.7-6-15.9-9.4-.5-.3-1-.7-1.4-1,6.9,0,13.6,2.2,20.3,3.6l.6-.6h.1Z"/>
</svg>