<?xml version="1.0" encoding="UTF-8"?>
<svg id="Layer_1" xmlns="http://www.w3.org/2000/svg" width="397" height="336.8" version="1.1" viewBox="0 0 397 336.8">
  <!-- Generator: Adobe Illustrator 29.1.0, SVG Export Plug-In . SVG Version: 2.1.0 Build 142)  -->
  <defs>
    <style>
      .st0 {
        fill: #7a6f4a;
      }
    </style>
  </defs>
  <path class="st0" d="M181.3,12.8s28.9-1.2,16.9,21.9c-12,23.1-90.3,58.4-109.6,112s77.1,68.2,73.5,115.6c-3.6,47.5-59,77.9-116.8,56-57.8-21.9-54.2-138.8,0-192.3C99.4,72.4,139.1,31,181.3,12.8Z"/>
  <path class="st0" d="M374,12.8s28.9-1.2,16.9,21.9c-12,23.1-90.3,58.4-109.6,112s77.1,68.2,73.5,115.6c-3.6,47.5-59,77.9-116.8,56s-54.2-138.8,0-192.3c54.2-53.6,93.9-94.9,136.1-113.2h0Z"/>
</svg>