<?xml version="1.0" encoding="UTF-8"?>
<svg id="Layer_1" xmlns="http://www.w3.org/2000/svg" width="1.8in" height="3in" version="1.1" viewBox="0 0 130.8 216">
  <!-- Generator: Adobe Illustrator 29.1.0, SVG Export Plug-In . SVG Version: 2.1.0 Build 142)  -->
  <defs>
    <style>
      .st0 {
        fill: #625645;
      }
    </style>
  </defs>
  <g>
    <path class="st0" d="M43,214.5c2.7-13,4.9-26.1,6.8-39.3,1.8-13,3.3-26.1,4.3-39.2,1-13.1,1.7-26.4,1.2-39.5-.5-12.4-2.1-24.8-5.4-36.7-3.1-11.2-7.6-22-13.9-31.7-.8-1.2-1.6-2.4-2.5-3.6-.4-.5-1.2,0-.8.5,6.8,9.4,11.8,20,15.2,31.1,3.6,11.7,5.5,23.8,6.3,36,.8,13,.3,26.1-.6,39.2-.9,13.1-2.3,26.3-4,39.3-1.7,13.1-3.9,26.1-6.4,39.1-.3,1.6-.6,3.2-1,4.8-.1.6.8.9.9.3h0Z"/>
    <path class="st0" d="M33.4,24.2c-1.6-3.8-3.3-7.6-5-11.3-1.4-3.1-2.8-6.3-5.2-8.8-1-1.1-2.9-3-4.5-1.5-.6.6-1,1.4-1.2,2.2-.2.8-.3,1.7-.2,2.5.3,3.7,2.9,6.5,5.4,8.9,2.7,2.6,5.6,5.1,8.7,7.2.4.3.8.5,1.2.8.5.3,1-.5.5-.8-3-2-5.8-4.2-8.4-6.6-1.3-1.2-2.5-2.4-3.7-3.8-1.1-1.3-2-2.7-2.4-4.3-.4-1.4-.4-3.1.3-4.4.3-.6.7-1.4,1.5-1.1.7.2,1.4.9,1.9,1.4,2.3,2.3,3.8,5.3,5.1,8.2,1.6,3.5,3.1,7.1,4.7,10.7.2.5.4.9.6,1.4.1.2.5.3.7.2.2-.1.3-.4.2-.7h0Z"/>
    <path class="st0" d="M34.1,24c-.3-3.1-.2-6.3.2-9.4.4-3.1,1.2-6.2,2.3-9.1.3-.8,1.1-2.1,2.1-1.3.5.4.7,1,.9,1.5.2.7.3,1.3.2,2,0,3-1.8,5.6-3.3,8-1.5,2.4-3.2,4.9-3.4,7.9,0,.3,0,.7,0,1,0,.6,1,.6,1,0-.1-3,1.5-5.7,3.1-8.1,1.7-2.6,3.4-5.3,3.6-8.4.1-1.4-.1-3-1-4.2-.4-.5-1-.9-1.7-.9-.7,0-1.3.4-1.7,1-.4.5-.6,1.2-.9,1.8-.3.8-.5,1.6-.8,2.3-.5,1.6-.8,3.2-1.1,4.8-.6,3.3-.8,6.6-.6,9.9,0,.4,0,.8,0,1.3,0,.3.2.5.5.5s.5-.2.5-.5h0Z"/>
    <path class="st0" d="M33.3,23.9c-3.6-.8-7.4-1-11.1-.4-3.2.5-6.5,1.5-9.2,3.3-1.3.9-2.4,2-3.2,3.3-.4.7-.9,1.6-.8,2.4,0,.7.6,1.3,1.2,1.5,1.4.6,3,.2,4.3-.3,1.5-.6,2.9-1.5,4.1-2.5s2.4-2.2,3.4-3.4c.5-.6,1-1.2,1.4-1.8.3-.5.6-.9,1.1-1.3.3-.2.6-.4.9-.5.2,0,.4-.3.3-.6,0-.2-.3-.4-.6-.3-.6.3-1.2.6-1.7,1.1-.4.5-.7,1-1.1,1.5-.4.6-.9,1.2-1.4,1.7-.5.6-1,1.1-1.6,1.7-1.1,1.1-2.2,2-3.5,2.8-.6.4-1.3.7-2,.9-.6.2-1.3.4-2,.4-.3,0-.6,0-.9,0-.2,0-.5-.2-.6-.3-.5-.4-.4-1.1,0-1.7.6-1.3,1.6-2.4,2.7-3.3,2.4-1.9,5.4-2.9,8.4-3.4,3.4-.7,7-.7,10.5,0,.4,0,.9.2,1.3.3.6.1.9-.8.3-.9h0Z"/>
    <path class="st0" d="M55.3,98.9c1.2-6,2.9-11.9,5-17.6,2.1-5.8,4.5-11.5,7.3-16.9,1.4-2.7,2.9-5.4,4.4-8,.8-1.3,1.6-2.6,2.4-3.8.8-1.2,1.5-2.3,2.4-3.5.8-1,1.7-2,2.7-2.8.5-.4,1-.7,1.6-1,.6-.3,1.3-.6,1.9-.6,1.2,0,1.2,1.6,1,2.5-.2,1.2-.7,2.4-1.4,3.4-1.5,2.2-3.6,3.9-5.7,5.5-2.7,2.1-5.4,4.2-8,6.3-.7.5-1.3,1-2,1.5-.2.2-.2.5,0,.7.2.2.5.2.7,0,2.8-2.2,5.5-4.3,8.3-6.5,2.3-1.8,4.7-3.5,6.6-5.8.9-1,1.6-2.1,2.1-3.4.4-1.1.8-2.6.3-3.8-1.1-3.2-5.3-.3-6.8,1.1-2.1,1.9-3.6,4.4-5.1,6.8-1.7,2.6-3.3,5.3-4.7,8.1-3,5.6-5.7,11.4-7.9,17.3-2.2,5.9-4,11.9-5.4,18-.2.7-.3,1.5-.5,2.2-.1.6.8.9.9.3h0Z"/>
    <path class="st0" d="M66,66.7c1-3.6,1.6-7.4,2-11.1.2-1.9.2-3.8.2-5.6,0-.9,0-1.8,0-2.8,0-.7,0-1.4-.3-2.1-.2-.6-.5-1.3-1-1.7-.6-.5-1.3-.7-2.1-.6-1.7.3-2.6,2-2.9,3.5-.7,3.3-.6,6.7,0,10,.5,3.4,1.5,6.6,2.9,9.7.2.4.3.7.5,1.1.1.2.5.3.7.2.2-.1.3-.4.2-.7-1.3-2.9-2.4-5.9-3-9-.6-3.1-.9-6.3-.5-9.5.1-.8.2-1.5.5-2.2.2-.7.5-1.3,1.1-1.8.5-.4,1.2-.6,1.8-.3.4.2.8.6.9,1.1.2.6.3,1.2.3,1.8,0,.9,0,1.7,0,2.6,0,1.8,0,3.5-.1,5.3-.2,3.6-.8,7.1-1.7,10.5-.1.4-.2.9-.3,1.3-.2.6.8.9.9.3h0Z"/>
    <path class="st0" d="M65.8,68.1c0-1.1,1.6-1.7,2.4-2,1.5-.6,3-1,4.5-1.4,1.5-.3,3.1-.5,4.6-.6,1.4,0,2.8,0,4.2.2.6.1,1.3.3,1.8.6.3.1.6.3.9.5.2.2.5.4.6.6.1.2-.2.5-.3.7-.2.2-.4.4-.6.6-.5.4-1.1.7-1.7.9-1.3.5-2.7.7-4.1.7-1.5,0-3,0-4.5-.2-1.5-.2-3-.6-4.5-1.2-.5-.2-1.1-.4-1.5-.8-.4-.4-.8-.8-1.3-1-.2-.1-.5-.2-.8-.2-.3,0-.5.2-.5.5s.2.5.5.5c0,0,.1,0,.1,0,0,0,0,0,.1,0,0,0,0,0,0,0,0,0,.1,0,.2.1.2.2.4.3.6.5.2.2.5.4.7.6.3.2.6.3.9.4,1.5.6,3.1,1.1,4.7,1.3,1.6.3,3.3.4,4.9.3,1.5,0,3-.3,4.5-.8.7-.2,1.3-.5,1.9-.9.6-.4,1.2-1,1.5-1.6.3-.9-.4-1.5-1-2-.6-.4-1.2-.7-1.9-.9-1.4-.5-3-.5-4.5-.5-1.7,0-3.4.2-5,.5-1.6.3-3.3.7-4.8,1.3-1.2.5-2.8,1-3.5,2.2-.2.3-.2.6-.3,1,0,.6.9.6,1,0h0Z"/>
    <path class="st0" d="M61.7,76.1c-.2-3.5-.7-7-1.4-10.4-.3-1.7-.7-3.4-1.2-5.1-.2-.8-.4-1.7-.7-2.5-.2-.8-.4-1.6-.7-2.4-.3-.7-.6-1.4-1.2-1.9-.6-.4-1.3-.7-2-.5-1.7.3-1.6,2.3-1.5,3.6.2,3.2,1.1,6.4,2.3,9.4,1.3,3,2.8,5.9,4.4,8.8.2.3.4.7.6,1,.3.5,1.1,0,.8-.5-1.6-2.7-3.1-5.4-4.4-8.3-1.3-2.8-2.3-5.7-2.7-8.7-.1-.7-.2-1.5-.2-2.2,0-.6,0-1.3.3-1.8.3-.5.9-.5,1.3-.3.6.2.9.8,1.2,1.3.3.7.5,1.4.7,2.1.2.8.5,1.6.7,2.4.4,1.6.8,3.2,1.1,4.9.7,3.2,1.1,6.5,1.4,9.8,0,.4,0,.8,0,1.2,0,.3.2.5.5.5s.5-.2.5-.5h0Z"/>
    <path class="st0" d="M62,76.4c2.6-1.4,5.6-1.7,8.6-1.5,1.5,0,3,.3,4.5.5,1.6.2,3.2.5,4.7,1,1.2.4,2.4,1.2,3.3,2.2.2.3.4.5.5.8.1.2.3.6.3.8,0,.3-.4.3-.6.4-.4.1-.8.2-1.2.3-1.6.4-3.3.7-4.9.6-1.6-.1-3.1-.7-4.5-1.4-1.5-.8-3-1.6-4.5-2.4-1.6-.8-3.1-1.6-4.7-2.5-.4-.2-.8-.4-1.2-.6-.6-.3-1,.5-.5.8,3.3,1.7,6.6,3.4,9.9,5.1,1.5.8,3.1,1.5,4.7,1.7,1.8.3,3.6,0,5.4-.4.4-.1.9-.2,1.3-.3.4,0,.8-.2,1.1-.4.4-.2.6-.5.7-.9,0-.4,0-.8-.2-1.2-.6-1.3-1.7-2.4-2.9-3.1-1.5-.8-3.1-1.2-4.8-1.5-1.6-.3-3.2-.5-4.9-.7-3.1-.3-6.4-.2-9.4,1-.4.2-.7.3-1.1.5-.5.3,0,1.1.5.8h0Z"/>
    <path class="st0" d="M38.9,33.2c.4-3.4,1.1-6.8,2.2-10,.5-1.6,1.2-3.2,1.9-4.7.7-1.5,1.4-3,2.3-4.3.8-1.3,1.8-2.5,3-3.4.1-.1.3-.2.5-.3,0,0,.1,0,0,0,0,0,0,0,0,0,0,0,0,.1.1.2,0,.1,0,.3,0,.3,0,.3,0,.6,0,.9,0,.4-.2.8-.3,1.1-.4,1.5-1.1,3-1.9,4.3-.8,1.3-1.8,2.5-2.8,3.5-1.9,2-4.2,3.9-5.1,6.6-.1.3-.2.6-.2,1,0,.3,0,.5.3.6.2,0,.6,0,.6-.3.5-2.9,2.8-4.9,4.8-6.9,1.1-1.1,2.2-2.3,3-3.7.9-1.4,1.6-3,2.1-4.6.2-.7.5-1.5.5-2.3,0-.6-.1-1.4-.7-1.7-.8-.4-1.6.4-2.2.9-.6.5-1.2,1.1-1.7,1.8-1,1.3-1.9,2.8-2.6,4.3-.8,1.6-1.5,3.3-2.2,5-1.3,3.4-2.1,6.9-2.6,10.5,0,.4-.1.9-.2,1.3,0,.3.2.5.5.5s.5-.2.5-.5h0Z"/>
    <path class="st0" d="M38.7,34c-3.1-1.4-6.7-1.8-10-1-3,.6-5.8,2.2-8,4.4-1.1,1.1-2,2.3-2.7,3.6-.6,1.1-1.1,2.7-.2,3.7.6.6,1.5.7,2.2.6.8,0,1.5-.3,2.3-.6,1.5-.6,2.8-1.6,4-2.6,1.4-1.1,2.6-2.4,3.9-3.6,1.4-1.3,2.8-2.6,4.2-3.9.4-.3.7-.7,1.1-1,.5-.4-.2-1.1-.7-.7-2.6,2.4-5.2,4.9-7.9,7.3-1.1,1-2.2,2-3.5,2.8-1.2.7-2.6,1.3-4.1,1.4-.3,0-.6,0-.8-.2-.2-.1-.2-.3-.3-.6,0-.5,0-1.1.3-1.6.3-.6.6-1.2,1-1.7.4-.6.8-1.1,1.3-1.6,1.9-2.1,4.3-3.7,7-4.5,3-.9,6.3-.8,9.3.3.4.1.7.3,1.1.4.2.1.5,0,.7-.2.1-.2,0-.6-.2-.7h0Z"/>
    <path class="st0" d="M54.8,122.7c-.9-4.7-1.9-9.4-3-14-1.2-4.6-2.5-9.2-4.4-13.6-1.6-3.9-3.6-7.7-6-11.2-2.3-3.3-5-6.3-8-8.9-3.1-2.6-6.5-4.7-10.2-6.1-.5-.2-.9-.3-1.4-.5-.6-.2-.8.7-.3.9,3.7,1.2,7.1,3.1,10.2,5.5,3.1,2.4,5.8,5.3,8.2,8.5,2.4,3.3,4.5,6.9,6.1,10.7,1.9,4.3,3.3,8.8,4.5,13.3,1.2,4.6,2.2,9.2,3.1,13.8.1.6.2,1.2.3,1.7.1.6,1.1.4.9-.3h0Z"/>
    <path class="st0" d="M52.7,151.6c-.5-3-1.3-6-2.3-8.8-1-2.9-2.3-5.7-3.7-8.4-1.4-2.7-3.1-5.3-4.8-7.8-1.8-2.5-3.8-4.9-5.8-7.2-2.1-2.2-4.2-4.4-6.6-6.3-2.4-1.9-4.9-3.6-7.7-4.9-2.7-1.3-5.6-2.2-8.6-2.5-1.4-.1-2.9-.2-4.2,0-1.2.2-2.5.9-2.8,2.2-.6,2.7,2.9,3.6,4.9,3.7,3.7.1,7.4.2,11,.2.9,0,1.8,0,2.7,0,.6,0,.6-1,0-1-3.6,0-7.1,0-10.7-.1-.9,0-1.8,0-2.6,0-.6,0-1.2,0-1.8-.2-.5-.1-1.1-.3-1.5-.5-.4-.2-.8-.5-1-.9,0,0,0,0,0,0,0,0,0-.1,0-.2,0-.1,0-.1,0-.3,0-.2,0-.4.1-.6.2-.4.6-.7,1.1-.9,1.2-.5,2.5-.4,3.7-.4,2.8.1,5.6.9,8.2,2,2.7,1.2,5.2,2.7,7.5,4.5,2.3,1.8,4.5,3.8,6.5,5.9,2,2.1,4,4.4,5.7,6.7,1.8,2.4,3.4,4.9,4.9,7.4,1.5,2.6,2.7,5.2,3.8,8,1.1,2.8,1.9,5.6,2.6,8.5.2.7.3,1.4.4,2.1,0,.3.4.4.6.3.3,0,.4-.3.3-.6h0Z"/>
    <path class="st0" d="M26.1,110.8c-.7-2.1-1.1-4.2-1.2-6.4,0-1.1,0-2.2,0-3.3,0-1,.1-2,.4-2.9.1-.3.3-.7.5-.9.2-.2.4-.4.7-.4.4,0,.7.3.9.6.2.3.4.7.5,1.1.2.8,0,1.6,0,2.4-.2,1-.5,1.9-.8,2.9-.8,2.5-1.5,5.1-2.3,7.6-.2.6.8.9.9.3.7-2.4,1.5-4.9,2.2-7.3.6-1.9,1.4-4,1-6.1-.2-.9-.7-1.9-1.6-2.3-.9-.4-1.8,0-2.4.8-.6.8-.7,1.9-.8,2.8-.1,1.2-.2,2.3-.2,3.5,0,2.7.5,5.3,1.3,7.8.2.6,1.1.3.9-.3h0Z"/>
    <path class="st0" d="M24.8,110.6c-3.8,1.6-6.8,4.8-8.5,8.5-.2.5-.4,1-.6,1.5-.2.5-.3,1-.3,1.5,0,.6.4,1.1,1,1.2.6,0,1.1-.2,1.6-.5,1.7-1.1,3.1-2.7,4.2-4.4,1.3-2,2.2-4.2,3.1-6.4,0-.2-.1-.5-.3-.6-.3,0-.5,0-.6.3-1.4,3.5-3,7.2-6,9.6-.3.2-1.8,1.5-2,1-.2-.3,0-.8.2-1.1.1-.4.3-.9.5-1.3.7-1.7,1.8-3.3,3.1-4.7,1.5-1.5,3.2-2.8,5.1-3.6.2-.1.3-.5.2-.7-.1-.2-.4-.3-.7-.2h0Z"/>
    <path class="st0" d="M34.5,118.1c-1.2-2.4-2-4.9-2.3-7.5-.4-2.6-.3-5.2.3-7.8.3-1.2.7-2.5,1.3-3.6.1-.3.3-.6.5-.9.1-.2.3-.5.5-.6.4-.2.6.8.7,1.1.4,1.4.3,2.9.1,4.3-.2,1.6-.3,3.2-.5,4.7-.3,3.2-.7,6.4-1,9.7,0,.4,0,.8-.1,1.2,0,.3.2.5.5.5s.5-.2.5-.5c.4-3.4.7-6.8,1.1-10.2.2-1.7.4-3.4.5-5.1.2-1.5.3-3.1,0-4.6-.1-.7-.4-1.5-.9-1.9-.7-.5-1.4,0-1.8.6-.4.5-.7,1.2-1,1.8-.3.6-.5,1.3-.8,2-.8,2.6-1.1,5.5-.8,8.2.3,2.8,1,5.6,2.2,8.2.1.3.3.6.4.9.1.2.4.3.7.2.2-.1.3-.4.2-.7h0Z"/>
    <path class="st0" d="M35.2,119.5c-.7-1.3-2.3-1.6-3.6-1.3-.7.2-1.4.5-2.1.9-.6.3-1.1.7-1.7,1.1-2.2,1.6-4,3.7-5.3,6.1-.3.6-.6,1.2-.9,1.8-.2.6-.5,1.2-.4,1.9,0,.3.2.6.5.8.4.2.8.1,1.1,0,.6-.2,1.1-.4,1.7-.7,2.1-1.1,3.7-2.9,5.2-4.7,1.5-1.8,3-3.7,4.8-5.3.2-.2.4-.3.7-.5.2-.2.3-.4.2-.7-.1-.2-.4-.3-.7-.2-1.8,1.3-3.3,3-4.8,4.8-1.4,1.7-2.8,3.4-4.5,4.8-.8.6-1.8,1.2-2.7,1.5-.1,0-.3.1-.4.1,0,0,0,0,0,0,0,0,0,0,0,0,0,0,0-.1,0-.2,0-.1,0-.2,0-.4.2-.6.4-1.1.7-1.7,1.1-2.3,2.6-4.3,4.5-5.9,1.1-.9,2.3-1.8,3.5-2.4,1.1-.5,2.8-.7,3.5.5.3.5,1.1,0,.8-.5h0Z"/>
    <path class="st0" d="M50.6,168.3c1.8-4.7,3.9-9.3,6.3-13.8,2.4-4.5,5-8.8,8-12.9,2.9-4.1,6.1-8.1,9.5-11.8.9-.9,1.7-1.8,2.6-2.7.4-.4.9-.9,1.3-1.3.4-.4.8-.8,1.3-1.1.4-.2.9-.4,1.3-.3.4,0,.8.3.9.6.2.5-.1,1.1-.4,1.5-.3.5-.7,1-1.1,1.5-1.7,1.9-3.9,3.2-5.9,4.6-2.5,1.6-4.9,3.3-7.4,4.9-.6.4-1.2.8-1.8,1.2-.5.3,0,1.2.5.8,2.6-1.7,5.1-3.4,7.7-5.2,1.2-.8,2.4-1.6,3.6-2.4,1.1-.7,2.1-1.5,3-2.3.9-.8,1.8-1.8,2.4-2.9.3-.6.5-1.3.3-2-.2-.5-.6-.9-1-1.1-1.2-.6-2.4-.1-3.3.6-.5.4-.9.9-1.4,1.3-.5.5-.9.9-1.4,1.4-3.6,3.8-7,7.8-10.1,12-3.1,4.2-6,8.6-8.5,13.2-2.6,4.6-4.8,9.3-6.7,14.2-.2.6-.5,1.2-.7,1.8,0,.2.1.5.3.6.3,0,.5,0,.6-.3h0Z"/>
    <path class="st0" d="M65.8,139.4c1-2.6,1.9-5.2,2.7-7.8.4-1.3.8-2.6,1.1-3.9.3-1.1.6-2.3.8-3.5.1-1.2-.1-2.4-1-3.2-.2-.1-.4-.2-.6,0-1.9,1.3-3.1,3.4-3.6,5.6-.6,2.5-.6,5.1-.6,7.6,0,1.8.2,3.6.3,5.3,0,.3.3.5.6.5,5-1.2,10.4-.9,15.3.8.5.2,1,.3,1.4.7.1.1.2.2.3.4,0,0,0,.1,0,.2,0,.1,0,0,0,0,0,0,0,.1,0,0-.3.7-1.5.9-2.2.9-2.5.2-5,0-7.5-.5-2.8-.6-5.5-1.6-7.9-2.9-.5-.3-1,.5-.5.8,4.8,2.6,10.2,3.9,15.7,3.6,1,0,2.2-.2,2.9-1,.4-.4.5-.9.4-1.4-.1-.6-.6-1-1.1-1.3-.6-.3-1.2-.5-1.8-.7-.6-.2-1.3-.4-1.9-.6-1.4-.4-2.8-.6-4.2-.7-3.1-.3-6.2-.1-9.3.6.2.2.4.3.6.5-.3-2.9-.4-5.9-.3-8.8,0-2.2.4-4.4,1.4-6.4.5-1,1.3-2,2.3-2.6-.2,0-.4,0-.6,0,.7.6.8,1.6.7,2.5,0,1.1-.4,2.2-.7,3.3-.7,2.6-1.4,5.1-2.3,7.6-.5,1.4-1,2.8-1.5,4.2,0,.2.1.5.3.6.3,0,.5,0,.6-.3h0Z"/>
    <path class="st0" d="M57.9,151.8c1-2.7,1.8-5.4,2.5-8.2.3-1.4.6-2.7.8-4.1.2-1.3.3-2.7.2-4.1,0-.7-.2-1.3-.4-2-.2-.6-.7-1.1-1.4-.9-.6.2-1,.8-1.2,1.3-.3.5-.6,1.1-.8,1.7-.8,2.3-.9,4.8-.8,7.3,0,1.5.2,2.9.4,4.4.2,1.7.3,3.3.5,5,0,.5.6.7.9.2,1-1.7,3.4-1.8,5.1-1.7,1.4,0,2.8.1,4.2.3,1.2.1,2.3.3,3.5.6,1,.3,2,.7,2.8,1.4.2.2.3.3.5.5.2.2,0,.3-.1.5-.4.3-.9.5-1.4.7-2.3.7-4.8,0-7.1-.7-1.4-.4-2.9-.9-4.4-1-1.4-.1-2.9,0-4.2-.6-.2-.1-.5,0-.7.2-.1.2,0,.6.2.7,1.3.6,2.8.6,4.2.7,1.4,0,2.8.4,4.1.8,2.5.8,5.2,1.7,7.9.9,1-.3,3.1-1.1,2.4-2.5-.3-.5-.8-1-1.3-1.3-.5-.4-1-.7-1.6-.9-1.1-.4-2.3-.7-3.4-.8-1.5-.2-3-.3-4.5-.4-2.4-.1-5.6-.2-7,2.2l.9.2c-.3-2.7-.6-5.3-.8-8-.2-2.3-.3-4.7.2-6.9.2-1.1.6-2.1,1.2-3.1.1-.2.3-.5.5-.6.1,0,.2,0,.2,0,.1.2.2.5.3.7,0,.3.2.6.2,1,.2,1.2.1,2.5,0,3.7-.2,1.3-.5,2.6-.8,3.9-.7,2.9-1.5,5.8-2.6,8.7,0,.2.1.5.3.6.3,0,.5,0,.6-.3h0Z"/>
    <path class="st0" d="M21.6,68.7c0-.8-.2-1.6-.4-2.3,0-.4-.2-.8-.3-1.1-.1-.3-.2-.8-.4-1.1-.3-.3-.7-.4-1,0-.3.2-.3.6-.3.9,0,.7.1,1.5.4,2.1.3.8.7,1.6,1.2,2.3l.8-.5c-.5-.6-1-1.2-1.7-1.6-.6-.4-1.3-.8-2-.9-.8,0-1.4.6-1.3,1.4.2.8.9,1.2,1.6,1.3,1,.2,2.1.4,3.1.5v-1c-.8,0-1.5.2-2.1.6-.6.4-1.3.9-1.6,1.5-.2.3-.2.7,0,1,.2.4.6.5,1,.4.7-.2,1.4-.6,2-1.1.6-.5,1.2-1.2,1.5-1.9.3-.6-.6-1-.8-.5-.3.6-.8,1.2-1.3,1.7-.2.2-.5.4-.8.5-.2,0-.3.2-.5.2,0,0-.1,0-.2,0-.1,0-.2,0,0,.1,0,0,0,0,0,0,0,0,0,0,0,0,0-.1.1-.2.2-.3.2-.3.4-.5.7-.7.6-.4,1.3-.7,2-.7.6,0,.6-.9,0-1-.9,0-1.8-.2-2.7-.4-.3,0-.7-.1-1-.4-.1-.1-.2-.3-.1-.5.1-.2.5,0,.6,0,.3.1.7.3,1,.5.6.4,1.2.9,1.6,1.5.2.2.4.3.7.2.2-.1.3-.4.2-.7-.7-1.2-1.5-2.6-1.5-4,0,0,0-.2,0-.1,0,0-.4,0-.4,0,0,0,0,.2,0,.2,0,0,0,.2.1.3.1.4.2.7.3,1.1.2.7.3,1.5.4,2.3,0,.3.2.5.5.5s.5-.2.5-.5h0Z"/>
    <path class="st0" d="M22.1,68.7c0-.8,0-1.6.2-2.4,0-.4.2-.8.3-1.1,0-.1,0-.2.2-.4,0,0,.1,0,0-.1-.1-.1-.2-.2-.3-.3.4,1.7-.6,3.4-1.5,4.8-.3.5.5,1,.8.5,1-1.6,2.1-3.5,1.6-5.5,0-.1-.2-.3-.3-.3-1.1-.2-1.4,1-1.6,1.8-.3,1-.4,2-.3,3.1,0,.6,1,.6,1,0h0Z"/>
    <path class="st0" d="M23.5,64c.7-2.2,1.3-4.4,1.7-6.7.2-1.2.3-2.3.4-3.5,0-1.1.2-2.3-.1-3.4-.1-.5-.5-1-1-1-.5,0-1,.2-1.3.5-.7.6-1.1,1.6-1.4,2.5-.6,1.9-.6,4-.6,6,0,2.7-.1,5.4-.2,8.2,0,.6,1,.6,1,0,0-2.3,0-4.5.1-6.8,0-1.1,0-2.1,0-3.2,0-.9,0-1.8.2-2.6.2-.8.4-1.7.8-2.4.1-.2,1.1-1.6,1.4-1,.2.4.2,1,.2,1.4,0,.5,0,1.1,0,1.6,0,1.1-.2,2.1-.4,3.2-.4,2.4-1,4.7-1.7,7-.2.6.7.8.9.3h0Z"/>
    <path class="st0" d="M21.6,66.6c0-2.4,0-4.8,0-7.3,0-1.2-.1-2.4-.2-3.6,0-1.1-.2-2.2-.4-3.3-.2-.9-.5-2-1.3-2.5-1.1-.6-1.9.9-2.1,1.7-.3.9-.4,1.9-.4,2.9,0,1.1.1,2.3.3,3.4.3,2.6.9,5.1,1.9,7.5,0,.2.3.4.6.3.2,0,.4-.3.3-.6-.8-2-1.3-4.1-1.7-6.2-.2-1-.3-2.1-.4-3.1,0-.9-.1-1.9,0-2.8,0-.4.2-.9.3-1.3.1-.3.3-.7.6-1,0,0,0,0,0,0,0,0,0,0,0,0,0,0,.1.1.2.2.1.1.2.3.3.5.2.4.3.8.4,1.2.2,1,.2,2,.3,3,0,1.1.2,2.3.2,3.4.1,2.5.1,5.1,0,7.6,0,.6.9.6,1,0h0Z"/>
    <path class="st0" d="M18.6,69c-3,1-5.2,3.4-6.7,6.1-.4.6-.8,1.3-1.1,2-.3.6-.5,1.5.2,2,.7.5,1.7,0,2.3-.5.7-.5,1.3-1.2,1.9-1.8,1.5-1.5,2.9-3.1,4.3-4.7.2-.2.2-.5,0-.7s-.5-.2-.7,0c-1.1,1.3-2.2,2.6-3.4,3.8-.6.6-1.2,1.2-1.8,1.8-.5.5-1,1-1.7,1.2-.1,0-.3,0-.4,0,0,0,0,0,0,0,0,0,0,0,0,0,0-.2,0-.5.2-.7.3-.6.6-1.2,1-1.8.7-1.2,1.5-2.3,2.5-3.3,1.1-1.1,2.3-2,3.8-2.4.2,0,.4-.3.3-.6,0-.2-.3-.4-.6-.3h0Z"/>
    <path class="st0" d="M16.7,67.4c-3.2.5-6.6,1.2-9,3.5-.7.6-1.2,1.3-1.7,2.1-.2.3-.5.7-.7,1.1-.2.5,0,1,.5,1.2.4.1.8,0,1.1,0,.4,0,.8-.1,1.2-.2.8-.2,1.6-.5,2.3-.8,1.7-.7,3.2-1.7,5-2.1.6-.2.3-1.1-.3-.9-1.5.4-2.8,1.1-4.2,1.8-1.3.6-2.6,1.3-4.1,1.4-.2,0-.4,0-.5,0,0,0-.1,0-.2,0,0,0,0,0,0,0,0,0,0,.1,0,.1,0,0,.2-.3.2-.4.1-.2.2-.4.4-.5.5-.7,1-1.3,1.5-1.9,1-1,2.3-1.7,3.7-2.2,1.6-.6,3.3-.8,5-1.1.3,0,.4-.4.3-.6,0-.3-.3-.4-.6-.3h0Z"/>
    <path class="st0" d="M19.3,66.7c-1.6-2.1-3-4.4-4-6.9-.5-1.2-1-2.4-1.2-3.7-.1-.6-.2-1.2-.1-1.8,0-.3.1-.6.2-.8,0-.2.2-.5.4-.5.2,0,.5.1.7.3.3.2.5.5.8.8.4.5.8,1.1,1,1.8,0,.2.3.4.6.3.2,0,.4-.3.3-.6-.3-.7-.6-1.3-1-1.9-.4-.6-.9-1.2-1.6-1.5-.3-.2-.7-.3-1.1-.1-.4.1-.6.4-.8.7-.4.6-.5,1.3-.5,2.1,0,1.5.5,2.9,1,4.2.5,1.4,1.2,2.8,1.9,4.1.8,1.5,1.8,2.9,2.8,4.2.2.2.5.2.7,0,.2-.2.2-.5,0-.7h0Z"/>
    <path class="st0" d="M17,66.9c-3.1-1.2-5.8-3.6-7.4-6.5-.2-.4-.4-.8-.6-1.1-.2-.4-.4-.8-.4-1.2,0-.7.8-.8,1.4-.7.7.2,1.3.8,1.8,1.4.6.8,1.1,1.7,1.6,2.5,1.4,2.1,2.7,4.2,4.1,6.3.3.5,1.2,0,.8-.5l-3.9-6c-.6-.9-1.2-1.9-1.8-2.8-.6-.8-1.2-1.5-2.2-1.8-.8-.3-1.8-.2-2.4.5-.7.9-.2,2,.2,2.9.8,1.7,1.9,3.2,3.2,4.5,1.5,1.5,3.3,2.6,5.3,3.4.2,0,.5-.1.6-.3,0-.3,0-.5-.3-.6h0Z"/>
    <path class="st0" d="M17,67.3c-.9-.5-1.9-1-2.8-1.4-.8-.4-1.7-.9-2.6-1.2-1.6-.6-3.4-.8-5-.1-.7.3-1.3.8-1.8,1.4-.5.7-.8,1.7,0,2.3.6.5,1.6.4,2.4.4,1,0,2.1,0,3.1,0,2.4,0,4.7,0,7.1,0,.6,0,.6-1,0-1-1.9,0-3.9,0-5.8,0-.9,0-1.9,0-2.8,0-.9,0-1.8,0-2.7,0-.2,0-.5,0-.7-.2,0,0,0-.1,0-.2,0-.2,0-.3.2-.5.3-.6.8-1,1.4-1.2,1.3-.7,2.8-.5,4.2,0,.9.3,1.8.8,2.6,1.2,1,.5,1.9,1,2.9,1.5.6.3,1-.6.5-.8h0Z"/>
    <path class="st0" d="M37.4,64.8c2.1,3.2,3.6,6.8,4.7,10.4,1.2,3.7,2,7.6,2.6,11.4.3,2.1.6,4.3.8,6.4,0,.3.2.5.5.5s.5-.2.5-.5c-.4-3.9-1-7.8-1.8-11.7-.8-3.9-1.9-7.7-3.5-11.3-.8-2-1.8-3.9-3-5.8-.3-.5-1.2,0-.8.5h0Z"/>
    <path class="st0" d="M37.6,64.1c-1.2.5-2.7.3-3.8-.5-1.1-.8-1.5-2.3-1.1-3.6.4-1.3,1.6-2.1,2.9-2,.6,0,1.2.2,1.7.6.6.4.9,1.1,1.1,1.7.2.8.3,1.7.2,2.5,0,.3-.1.6-.3.9,0,.1-.1.3-.3.4,0,0-.2,0-.3,0-.6,0-.6,1,0,1,1.9,0,1.9-2.8,1.7-4.2-.1-.9-.4-1.8-1-2.6-.5-.7-1.3-1.1-2.1-1.3-1.7-.3-3.5.4-4.3,1.9-.8,1.6-.6,3.6.6,4.9,1.3,1.5,3.6,1.8,5.4,1,.2-.1.3-.5.2-.7-.1-.2-.4-.3-.7-.2h0Z"/>
    <path class="st0" d="M37.3,64c-.3.1-.7.1-1.1,0,0,0,0,0,0,0,0,0-.1,0-.2,0-.1,0-.1,0-.2-.1,0,0,0,0-.1-.1,0,0,0-.1,0,0,0,0,0,0,0-.1,0,0,0-.2,0-.1-.2.2-.3.4-.5.6.9,0,1.8.3,2.5,1,.4.4,1-.1.8-.6-.4-.8-.5-1.8-.3-2.7-.3,0-.6,0-.9.1.5.9.8,1.9.7,3,0,.3.2.5.5.5s.5-.2.5-.5c.1-1,.4-2,.7-2.9h-.9c.2,1,0,1.9-.3,2.9,0,.2.1.5.3.6.3,0,.5,0,.6-.3.4-1.1.5-2.2.3-3.4,0-.2-.3-.4-.5-.4s-.4.2-.5.4c-.4,1-.7,2.1-.8,3.1h1c0-1.2-.3-2.4-.9-3.5-.2-.4-.8-.3-.9.1-.3,1.1-.2,2.4.4,3.4.3-.2.5-.4.8-.6-.8-.8-2-1.3-3.2-1.3-.3,0-.6.3-.5.6.5,1.3,2,1.9,3.2,1.3.2-.1.3-.4.2-.7-.1-.2-.4-.3-.7-.2h0Z"/>
    <path class="st0" d="M31.9,85.8c3.6,2,7.3,3.9,10.9,5.9,1,.6,2,1.2,3,1.8.5.3,1-.5.5-.8-3.5-2.2-7.1-4.1-10.8-6-1-.5-2-1.1-3-1.7-.5-.3-1,.5-.5.8h0Z"/>
    <path class="st0" d="M32.3,85.6c.5-1.6,0-3.5-1.3-4.7-1.3-1.2-3.2-1.4-4.8-.7-1.6.7-2.5,2.3-2.4,4,.1,1.7,1.1,3.2,2.8,3.7,1.7.5,3.8-.3,4.7-1.9.1-.3,0-.6-.3-.7-.9-.3-1.6-1.1-1.8-2-.2.2-.5.4-.7.5,1,.6,1.9,1.5,2.5,2.4.3-.2.5-.4.8-.6-.5-.6-1.5-.8-2.2-.3-.7.5-.9,1.5-.4,2.2.1.2.4.3.7.2,2.1-1,2.6-3.9,1.2-5.6l-.7.7c.7.5,1,1.4.8,2.3-.1.6.8.9.9.3.3-1.2-.1-2.5-1.1-3.2-.5-.4-1.1.2-.7.7,1,1.3.5,3.4-1,4.1.2,0,.4.1.7.2-.2-.3-.1-.7.2-.9.3-.2.7,0,1,.2.3.4,1.1-.1.8-.6-.8-1.1-1.7-2-2.9-2.8-.4-.2-.8.2-.7.5.3,1.3,1.2,2.3,2.5,2.7,0-.2-.2-.5-.3-.7-.6,1.1-1.9,1.7-3.2,1.6-1.3-.2-2.2-1.2-2.5-2.5-.2-1.3.3-2.6,1.4-3.3,1.1-.7,2.6-.7,3.7,0,1.3.9,1.8,2.6,1.4,4-.2.6.8.9.9.3h0Z"/>
  </g>
  <path class="st0" d="M28.7,212.3c-1.3-8.4,2-16.6,6.8-23.3,4.8-6.8,11.4-12.1,18.1-16.9,6.8-4.8,14-9.2,20.6-14.3,6.5-5,12.5-10.4,17.7-16.8,5.3-6.5,9.6-14,11.7-22.2.3-1,.5-2,.7-3.1.1-.6-.8-.9-.9-.3-1.6,8.4-5.6,16.3-10.7,23.1-5,6.5-11,12.2-17.4,17.2-3.3,2.7-6.8,5.2-10.3,7.5-3.5,2.3-7,4.6-10.4,7-6.8,4.7-13.3,9.9-18.5,16.4-5.1,6.3-8.8,14.4-8.5,22.7,0,1,.2,2,.3,3.1,0,.6,1,.4.9-.3h0Z"/>
  <g>
    <path class="st0" d="M102,101.8c.6,0,1.1-.3,1.4-.8.2-.5.2-1.1-.1-1.6-.2-.3-.5-.5-.8-.6-.3,0-.6,0-.9,0-.6.2-1,.7-1.1,1.4,0,.8.7,1.6,1.5,1.6.3,0,.5-.2.5-.5,0-.3-.2-.5-.5-.5,0,0,0,0,0,0,.1,0,0,0,0,0,0,0,0,0,0,0,0,0,0,0,0,0,0,0,0,0,0,0,0,0-.1,0-.2,0,0,0,0,0,0,0,0,0,0,0,0,0,0,0,0,0,0,0,0,0,0,0,0,0,0,0,0,0,0,0,0,0,0-.1,0-.2,0,0,0,.1,0,0,0,0,0,0,0,0,0,0,0,0,0,0,0,0,0,.1,0,0,0,0,0,0,0,0,0,0,0-.1,0-.1,0,0,0,.1,0,0,0,0,0,0,0,0,0,0,0,0,0,0,0,0,0,0,0,0,0,0,0,.1,0,0,0,0,0,0,0-.1,0,0,0,0,0,0,0,0,0,0,0,0,0,0,0,0,.1-.1,0,0,0,0,0,0,0,0,0,0,0,0,0,0,0,0,.1,0,0,0,0,0,0,0,0,0,0,0,0,0,0,0,0,0,.1,0,0,0-.1,0,0,0,0,0,0,0,0,0,0,0,0,0,0,0,0,0-.1,0,0,0,0,0,0,0,.1,0,0,0-.1,0,0,0,0,0,0,0,0,0,0,0,0,0,0,0,0,0,0,0,0,0,0,0,0,0,0,0,0,0,0,0,.1.1,0,0,0,0,0,0,0,0,0,0,0,0,0,0,0,0,0,0,0,0,0,0,0,.1,0,0,0-.1,0,0,0,0,0,0,0,0,0,0,0,0,0,.1,0,0,0,0,0,0,0,0,0,0,0,0,0,0,0,0,0,.1,0,0,0,0,0,0,0,0,0,0,0,0,0,0,0,0,0,0,0,0,0,0,0,.1,0,0,0,0,0,0,0,0,0,0,0,0,0,0,0,0,0,.1,0,0,0,0,0,0,0,0,0,0,0,0,0,0,0,0,0,0,0,0,0,0,0,0,0,0,0,0,0,0,0,0,0,0,0,0,0,0,0,0,0,0,0,0,.1,0,0,0,0,0,0,0,0,0,0,0-.2,0-.2,0,0,0,.1,0,0,0,0,0,0,0,0,0,0,0,0,0,0,0-.3,0-.5.2-.5.5,0,.3.2.5.5.5Z"/>
    <path class="st0" d="M102.4,99c0,0,0-.2,0-.3,0,0,0,0,0,0,0,0,0,0,0,0,0,0,0-.1,0-.2,0-.1,0-.2,0-.3,0,0,0,0,0-.1,0,0,0,0,0,0,0-.1,0,.1,0,0,0,0,0-.2,0-.3,0,0,0,0,0,0,0,0,0,0,0,0,0,0,0-.1,0-.1,0,0,0,0,0,0,0,0,0,0,0,0,0,0,0,0,0,0,0,0,0,0,0,0,0,0,0,0,0,0,0,0,.1,0,.1,0,0,0-.1,0,0,0,0,0,0,0,0,0,0,0,0,0,0,0,0,0,0,0,0,0,0,0,.1,0,.1,0,0,0-.1,0,0,0,0,0,0,0,0,0,0,0,0,0,0,0,0,0,0,0,0,0,0,0,0,0,0,0,0,0,0,0,0,0,0,0,0,0,0,0,0,0,0,0,0,0,0,0,0,0,0,0,0,0,0,0,.1.1,0,0,0,0,0,0,0,0,0,0,0,0,0,0,0,.1,0,.1,0,0,0,0,0,0,0,0,0-.1,0,0,0,0,0,.1,0,.2,0,0,0,0,0,0,0,0,0,0,0,0,0,0,0,.1,0,.2,0,0,0-.1,0,0,0,0,0,0,0,0,0,0,0,0,0,0,0,0,0,0,0,0,0,0,0,.1,0,.2,0,0,0,0,0,0,0,0,0,0,0,0,0,0,0,0-.1.1,0,0,0,0,0,0,0,0,0,0,0,0,0,0,0,0,0,0,0,0-.1,0-.1,0,0,0-.1,0-.2,0,0,0,0,0,0,0,0,0,0,0,0,0,0,0-.1,0-.2,0-.2,0-.4.4-.3.6,0,.3.3.4.6.3,1.2-.2,2.2-1.7,1.4-2.8-.4-.5-1-.8-1.6-.7-.6,0-1,.6-1.2,1.1-.2.6-.1,1.2,0,1.8,0,.2.4.4.6.3.3,0,.4-.3.3-.6h0Z"/>
    <path class="st0" d="M103.5,99.7c0,0,0-.1,0-.2,0,0,0,0,0,0,0,0,0,0,0,0,0,0,0,0,0,0,0,0,0-.1,0-.1,0,0,0,0,0,0,0,0,0,0,0,0,0,0,0,0,0,0,0,0,0,0,.1-.1,0,0,0,0,0,0,0,0,0,0,0,0,0,0,.1,0,.2,0,0,0,0,0,0,0,0,0,0,0,0,0,0,0,0,0,.1,0,0,0,.1,0,.2,0,0,0,.1,0,0,0,0,0,0,0,0,0,0,0,.1,0,.2,0,0,0,0,0,0,0,0,0-.1,0,0,0,0,0,0,0,.1,0,0,0,0,0,0,0,0,0,0,0,0,0,0,0,0,0,0,0,0,0,.1,0,.2,0,0,0,0,0,0,0,0,0,0,0,0,0,0,0,0,0,0,0,0,0,0,0,0,0,0,0,0,0,0,0,0,0,0,0,0,0,0,0,0,0,0,0,0,0,0,0,0,0,0,0,0,0,0,0,0,0,0-.1,0,0,0,0,0,0,0,.1,0,0,0,0,0,0,0,0,0,0,0,0,0,0,0,0,0,0,0,.1,0,.2,0,.3,0,0,0,0,0,0,0,0,0,0,0,0,0,0,0,0,0,0,0,0,0,.1,0,.2,0,0,0,0,0,0,0,0,0,0,0,0,0,0,0,0,0,0,0,0,0,0,0,0,0,0,0,0,0,0,0,0,0,0,0,0,0,0,0,0-.1.1,0,0,0,0,0,0,0,0,0,0,0,0,0,0,0,0,0,0,0,0,.1,0,0,0,0,0-.1,0-.2,0,0,0-.1,0,0,0,0,0,0,0,0,0,0,0-.1,0-.2,0,0,0,0,0,0,0,0,0,0,0,0,0,0,0,0,0,0,0,0,0-.1,0-.2,0,0,0,0,0,0,0,0,0,.1,0,0,0,0,0,0,0,0,0,0,0-.1,0-.2-.1,0,0,0,0,0,0,0,0,0,0,0,0,0,0,0,0,0,0,0,0,0,0,0,0,0,0,0,0,0,0,0,0,0-.1,0-.2,0,0,0,.1,0,0,0,0,0,0,0,0,0,0,0,0,0,0,0-.2-.4-.4-.6-.3-.3,0-.4.3-.3.6.1.6.7,1.1,1.3,1.2.7.1,1.4,0,1.8-.7.3-.6.3-1.3,0-1.9-.2-.3-.4-.5-.7-.7-.4-.2-.7-.2-1.1-.1-.7.1-1.4.7-1.5,1.5,0,.1,0,.3,0,.4,0,.1.2.2.3.2.2,0,.6,0,.6-.3h0Z"/>
    <path class="st0" d="M103.1,101.2c.1,0,.2,0,.4,0-.1,0,0,0,0,0,0,0,0,0,0,0,0,0,.1,0,.2,0,0,0,0,0,0,0,0,0,.1,0,0,0,0,0,0,0,.1,0,0,0,.1,0,.2.1,0,0,0,0,0,0,0,0,0,0,0,0,0,0,0,0,.1.1,0,0,0,0,0,0,0,0,0,0,0,0,0,0,0,0,0,.1,0,0,0,0,0,0,0,0,0,0,0,0,0,0,0,.1,0,.2,0,0,0-.1,0,0,0,0,0,0,0,0,0,0,0,.1,0,.2,0,0,0,0,0,0h0s0,0,0,0c0,0,0,0,0,.1,0,0,0,0,0,0,0,0,0-.1,0,0,0,0,0,0,0,.1,0,0,0,0,0,0,0,0,0,0,0,0,0,0,0,.1-.1.1,0,0,0,0,0,0,0,0,0,0,0,0,0,0,0,0,0,0,0,0,0,0,0,0,0,0,0,0,0,0,0,0,0,0,0,0,0,0-.1,0,0,0,0,0,0,0,0,0,0,0,0,0,0,0,0,0,0,0,0,0h0s0,0,0,0c0,0-.1,0-.2,0,0,0,0,0,0,0,.1,0,0,0,0,0,0,0-.1,0-.2,0,0,0,0,0,0,0,0,0,0,0,0,0,0,0,0,0-.1-.1,0,0,0,0,0,0,0,0,0,0,0,0,0,0,0,0,0,0,0,0,0-.1,0,0,0,0,0,0,0,0,0,0,0,0,0-.1,0,0,0,0,0,0,0-.1,0,0,0,0,0,0,0-.1,0-.2,0,0,0,0,0-.1,0,0,0-.2,0,0,0,0,0-.1,0-.2s0-.1,0-.2c0,0,0-.1,0,0,0,0,0,0,0,0,0,0,0,0,0,0,.1-.2,0-.5-.2-.7-.2-.1-.5,0-.7.2-.4.7-.5,1.6-.1,2.3.3.6.9,1.1,1.6,1.1.7,0,1.3-.4,1.6-1.1.2-.6.1-1.3-.3-1.8-.5-.6-1.3-.9-2-.9-.3,0-.5.2-.5.5,0,.3.2.5.5.5h0Z"/>
    <path class="st0" d="M102.1,99.1c.3-.6.1-1.3-.3-1.8-.4-.5-1.1-.7-1.7-.6-.6.2-1.1.7-1.3,1.2-.2.6,0,1.3.4,1.8.5.6,1.6.7,2.1,0,.2-.2.2-.5,0-.7-.2-.2-.5-.2-.7,0,0,0,0,0,0,0,0,0,0,0,0,0,0,0,0,0,0,0,0,0,.1,0,0,0,0,0,0,0,0,0,0,0,0,0,0,0,0,0,0,0,0,0,0,0,0,0,0,0,0,0,0,0,0,0,0,0,0,0,0,0,0,0-.1,0-.2,0,0,0,0,0,0,0,0,0,0,0,0,0,0,0,0,0,0,0,0,0,0,0,0,0,0,0,0,0,0,0,0,0,0,0,0,0,0,0,0,0,0,0,0,0,0,0,0,0,0,0,0-.2,0,0,0,0,0-.1,0-.2,0,0,0,0,0,0,0,0,0,0,0,0,0,0,0-.1,0-.2,0,0,0,0,0,0,0,0,0,0,0,0,0,0,0-.1,0-.2,0,0,0,0,0-.1,0,0,0,.1,0,0,0,0,0,0,0,0,0,0,0,0,0-.1,0,0,0,0,0,0,0,0,0,0,0,0,0,0,0,0,.1-.1,0,0,0,0,0,0,0,0,0,0,0,0,0,0,0,0,.1,0,0,0,0,0,0,0,0,0,0,0,0,0,0,0,0,0,0,0,0,0,.1,0,.1,0,0,0,0,0,0,0,0,0,0,0,0,0,0,0,.1,0,.1,0,0,0,0,0,0,0,0,0,0,0,0,0,0,0,0,0,0,0,0,0,0,0,.1,0,0,0-.1,0,0,0,0,0,0,0,0,0,0,0,0,0,.1,0,0,0,0,0,0,0,0,0,0,0,0,0,0,0,0,0,.1.1,0,0,0,0,0,0,0,0,0,0,0,0,0,0,0,0,0,.1,0,0,0,0,0,0,0,0,0,0,0,0,0,0,0,0,0,0,0,0,0,.1,0,0,0,0,0,0,0,0,0,0,0,0,0,0,0,0,0,0,0,0,0,0,0-.1,0,0,0,0,0,.2,0,0-.1.2,0,.5.2.7.2.1.5,0,.7-.2h0Z"/>
    <path class="st0" d="M100.5,100c-.4-.7-1.4-.9-2.1-.5-.6.3-1.1,1-1.1,1.7,0,.7.5,1.3,1.1,1.6.7.3,1.5.2,2-.3.6-.5.8-1.4.6-2.1,0-.2-.3-.4-.6-.3-.2,0-.4.3-.3.6,0,0,0,.1,0,.2,0,0,0,0,0,0,0,0,0,0,0,0,0,0,0,.1,0,.2,0,0,0,0,0,0,0,0,0,0,0,0,0,0,0,0,0,0,0,0,0,.1,0,.2,0,0,0,0,0,0,0,.1,0,0,0,0,0,0,0,0,0,.1,0,0,0,0,0,0,0,0,0,0,0,0,0,0,0,0,0,0,0,0,0,0-.1.1,0,0-.2.1,0,0,0,0,0,0-.1,0,0,0,0,0,0,0,0,0,0,0,0,0,0,0,0,0-.1,0,0,0,0,0,0,0,0,0,0,0,0,0,0,0,0,0,0,0,0,0-.1,0-.2,0h0c0,0,0,0,0,0,0,0,0,0-.1,0,0,0-.1,0-.2,0,0,0,0,0,0,0,0,0,0,0,0,0,0,0-.1,0-.2,0,0,0,0,0,0,0,0,0,0,0,0,0,0,0,0,0-.1-.1,0,0,0,0,0,0,0,0,0,0,0,0,0,0,0-.1,0-.2,0,0,0,0,0,0,0,0,0,0,0-.1,0,0,0,0,0,0,0,0,0-.1,0,0,0,0,0-.1,0-.2,0,0,0-.1,0,0,0,0,0,0,0,0,0,0,0-.1,0-.2,0,0,0,0,0,0,0,0,0,0,0,0,0,0,0,0,0-.1,0,0,0,0,0,0,0,0,0,0,0,0,0,0,0,0,.2-.1,0,0,0,0,0,0,0,0,0,0,0,0,0,0,0,0,0,0,0,0,0,0,0,0,0,0,.1,0,.2,0,0,0-.1,0,0,0,0,0,0,0,.1,0,0,0,0,0,0,0,0,0,0,0,0,0,0,0,0,0,0,0,0,0,0,0,0,0,0,0,0,0,0,0,0,0,0,0,0,0,0,0,0,0,0,0,0,0,0,0,0,0,0,0,0,0,0,0,.1.2.4.3.7.2.2-.1.3-.4.2-.7h0Z"/>
    <path class="st0" d="M100.8,100.7c-1.1.5-2,2.2-1.2,3.3.4.5,1,.8,1.6.7.6,0,1-.6,1.1-1.1.1-.6,0-1.2-.1-1.8,0-.2-.3-.4-.6-.3-.2,0-.4.3-.3.6,0,.2,0,.4.1.6,0,0,0,0,0,0,0,0,0,0,0,0,0,0,0,0,0,.1,0,.1,0,.2,0,.3,0,0,0,0,0,.1,0-.1,0,0,0,0,0,0,0,0,0,.1,0,0,0,0,0,0,0,0,0,0,0,0,0,0,0,0,0,.1,0,0,0,0,0,0,0,0,0,0,0,0,0,0,0,0,0,0,0,0,0,0-.1,0,0,0,0,0,0,0,0,0,0,0,0,0,0,0,0,0,0,0,0,0,0,0,0,0,0,0,0,0-.1,0,.1,0,0,0,0,0,0,0,0,0,0,0,0,0,0,0,0,0,0,0,0,0-.1,0,0,0,0,0,0,0,0,0,0,0,0,0,0,0,0,0-.1-.1,0,0,0,0,0,0,0,0,0,0,0,0,0,0,0,0,0-.1,0,0,0,0,0,0,0,0,0,0,0,0,0,0,0-.1,0-.2,0,0,0,0,0,0,0,0,0,0,0,0,0,0,0-.1,0-.2,0,0,0,0,0,0,0,0,0,0,0,0,0,0,0-.1,0-.2,0,0,0,0,0,0,0-.1,0,0,0,0,0,0,0-.1,0-.2,0,0,0-.1.1-.2,0,0,0,0,0,0,0,0,0,0,0,0h0c.2-.3.3-.4.6-.5.2-.1.3-.5.2-.7-.2-.2-.4-.3-.7-.2h0Z"/>
    <path class="st0" d="M102,102.8c-1,.5-1.3,2-.4,2.7.4.4,1,.5,1.6.4.6-.1,1-.6,1.2-1.1.2-.6,0-1.3-.4-1.8-.2-.2-.5-.2-.7,0-.2.2-.2.5,0,.7,0,0,0,0,0,0,0,0,0,0,0,0,0,0,0,0,0,.1,0,0,0,0,0,0,0,0,0-.1,0,0,0,0,0,0,0,.1,0,0,0,.2,0,0,0,0,0,0,0,.1,0,0,0,0,0,.1s0,.1,0,0c0,0,0,0,0,0,0,0,0,0,0,.1,0,0,0,0,0,0,0,0,0,0,0,0,0,0,0,0,0,.1,0,0,0,0,0,0,0,0,0,0,0,0,0,0,0,0,0,0,0,0,0,0,0,.1,0,0,0,0,0,0,0,0,0,0,0,0,0,0,0,0-.1,0,0,0,0,0,0,0,0,0,0,0,0,0,0,0,0,0-.1,0,0,0,0,0,0,0,0,0,.1,0,0,0,0,0-.2,0-.3,0,.1,0,0,0,0,0,0,0,0,0,0,0,0,0,0,0-.1,0,0,0,0,0,0,0,.1,0,0,0,0,0,0,0,0,0-.1,0,0,0,0,0,0,0,.1,0,0,0,0,0,0,0,0,0,0,0,0,0,0,0,0,0,0,0,0,0,0,0,0,0,0,0,0-.1,0,0,0,.1,0,0,0,0,0,0,0,0,0,0,0,0,0-.1,0,0,0,0,0,0,0,0,0,0,0,0,0,0,0,0,0-.1,0,0,0,0,0,0,0,.1,0,0,0,0,0,0,0,0,0-.1,0,0,0,0,0,0,0,0,0,.1,0,0,0,0,0,0,0-.1,0,0,0,0,0,0,0,0,0,0,0,0,0,0,0,0,.1-.1,0,0,0,0,0,0,0,0,0,0,0,0,0,0,0,0,.1,0,.2-.1.3-.5.2-.7-.2-.2-.4-.3-.7-.2h0Z"/>
    <path class="st0" d="M103.8,103.9c.2.6.7.9,1.3.9.6,0,1.2-.4,1.5-.9.3-.5.4-1.2.4-1.8,0-.6-.3-1.3-.9-1.6-.6-.3-1.4-.2-1.7.5-.1.2,0,.5.2.7.2.1.5,0,.7-.2,0,0,0,0,0,0,0,0,0,0,0,0,0,0,0,0,0,0,0,0,0,0,0,0,0,0,0,0,0,0,0,0,0,0,0,0,0,0,0,0,0,0,.1,0,0,0,0,0,0,0,0,0,.1,0,0,0,0,0,0,0-.1,0,0,0,0,0,0,0,0,0,.1,0,0,0,0,0,0,0,0,0,.1,0,0,0,0,0,0,0,0,0,0,0,0,0,0,0,0,0,0,0,0,0,0,0,0,.1,0,0,0,0,0,0,0,.1,0,0,0,.1,0,.2,0,0,0,0,0,0,0,0,0,0,0,0,0,.1,0,.2,0,.3,0,0,0,.1,0,.2,0,0,0,0,0,0,0,0,0,0,0,0,0,.1,0,.2,0,.3,0,0,0,.1,0,.2,0,0,0,.2,0,0,0,0,0,.2-.1.3,0,0,0,0,0,0,0,0,0,0,0,0,0,0,0,0-.1.1,0,0-.1,0,0,0,0,0,0,0-.1,0,0,0,0,0,0,0,0,0,0,0,0,0,0,0,0,0-.1,0,0,0,0,0,0,0,0,0,0,0,0,0,0,0,0,0-.1,0,.1,0,0,0,0,0,0,0,0,0,0,0,0,0,0,0,0,0,0,0,0,0-.1,0,0,0,0,0,0,0,0,0,0,0,0,0,0,0,0,0,0,0,0,0,0,0,0,0,0,0,0,0,0,0,0,0,0,0,0,0,0-.2-.3-.4-.6-.3-.2,0-.4.3-.3.6h0Z"/>
    <path class="st0" d="M105.3,101c.4.4,1,.5,1.5.4.5-.1.9-.5,1.1-1,.2-.5,0-1-.2-1.5-.3-.4-.8-.7-1.3-.7-.6,0-1.2.3-1.4.9-.1.2,0,.5.2.7.2.1.5,0,.7-.2,0,0,0,0,0-.1,0,0,0,0,0,0,0,0,0,0,0,0,0,0,0,0,0,0,0,0,0,0,0,0,0,0,0,0,0,0,0,0,0,0,.1,0,0,0,0,0,0,0,0,0-.1,0,0,0,0,0,.2,0,.2,0,0,0-.1,0,0,0,0,0,0,0,0,0,0,0,0,0,.1,0,0,0,0,0,0,0,0,0-.1,0,0,0,0,0,0,0,.1,0,0,0,0,0,0,0,0,0-.1,0,0,0,0,0,0,0,.1,0,0,0,0,0,0,0-.1,0,0,0,0,0,0,0,0,0,0,0,0,0,0,0,0,0,0,0,0,0,0,0,0,0,0,0,0,.1,0,0,0,0,0,0,0,0,0-.1,0,0,0,0,0,0,0,.1,0,0,0,0,0,.1,0-.1,0,0,0,0,0,0,0,0,0,0,0,0,0,0,0,.1,0,0,0,0,0,0,0,0,0-.1,0,0,0,0,0,0,0,.1,0,0,0,0,0,0,0,0,0,0,0,0,0,0,0,0,0,.1,0,0,0,0,0,0,0,0,0,0,0,0,0,0,0,0,0,0,0,0,0,0,0,0,0,0,0,0,0,0,0,0,0,0-.1,0,0,0,0,0,0,0,0,0,.1,0,0,0,0,0,0,0-.1,0,0,0,0,0,0,0,0,0,.1,0,0,0,0,0,0,0-.1,0,0,0,0,0,0,0s0,0,0,0c0,0,.1,0,0,0,0,0,0,0-.1,0,0,0,0,0,0,0,0,0,0,0,0,0,0,0,0,0-.1,0,0,0,0,0,0,0,0,0,0,0,0,0-.2-.2-.5-.2-.7,0-.2.2-.2.5,0,.7h0Z"/>
    <path class="st0" d="M106.6,99.2c.9-.6,1.2-2,.4-2.8-.4-.4-.9-.6-1.4-.6-.6,0-1.1.3-1.4.8-.3.5-.4,1.1-.2,1.7,0,.2.3.4.6.3.2,0,.4-.3.3-.6,0,0,0-.2,0-.3,0,0,0,.1,0,0,0,0,0,0,0,0,0,0,0,0,0-.1,0-.1,0,0,0,0,0,0,0,0,0-.1,0,0,0,0,0-.1,0,0,0,0,0,0,0,0,0,0,0,0,0,0,0,0,0-.1,0,0,0,0,0,0,0,0,0,0,0,0,0,0,0,0,0,0,0,0,0,0,0,0,0,0,0,0,0,0,0,0,0,0,0,0,0,0,0,0,0,0,0,0,.1,0,0,0,0,0,0,0,0,0,0,0,.2,0,.2,0,0,0-.1,0,0,0,0,0,0,0,0,0,0,0,0,0,.1,0,0,0,0,0,0,0,0,0,0,0,0,0,0,0,.1,0,.1,0,0,0,0,0,.1,0,0,0,0,0,0,0,0,0,0,0,0,0,0,0,0,0,.1,0,0,0,0,0,0,0,0,0,0,0,0,0,0,0,0,0,0,0,0,0,.2.2.2.2,0,0,0,0,0,0,0,0,0,0,0,0,0,0,0,0,0,.1,0,0,0,0,0,0,0,0,0,0,0,0,0,0,0,0,0,.1,0,0,0,0,0,0,0,0,0-.1,0,0,0,0,0,.1,0,.2,0,0,0,0,0,0,0,0,0,0,0,0,0,0,0,.1,0,.2,0,0,0,0,0,.1,0,0,0,0,0,0,0,0,0,0,0,0,0,0,0,0,0,.1,0,0,0,0,0,0,0,0,0,0,0,0,0,0,0,0-.1.1,0,0,0,0,0,0,0,0,0,0,0,0,0,0,0,0,0,0-.2.1-.3.4-.2.7.1.2.4.3.7.2h0Z"/>
    <path class="st0" d="M104.7,97.3c.4-.9,0-2.2-.9-2.6-.4-.2-.9-.3-1.4-.1-.5.2-.8.5-.9,1-.1.5,0,1.1.4,1.4.2.2.5.2.7,0,.2-.2.2-.5,0-.7,0,0,0,0,0,0,0,0,0,0,0,0,0,0,0,0,0,0,0,0,0,.1,0,0,0,0,0,0,0,0,0,0,0,0,0,0,0,0,0,0,0,0,0,0,0,0,0,0,0,0,0,0,0,0,0,0,0,0,0,0,0,0,0,.1,0,0,0,0,0-.1,0-.2,0,0,0,0,0,0,0,0,0,0,0,0,0,0,0,0,0-.1,0,0,0,0,0,0,0,0,0,0,0,0,0,0,0,0,0,0,0,0,0,0,.1,0,0,0,0,0,0,0,0,0,0,0,0,0,0,0,0,0,.1,0,0,0,0,0,0,0,0,0-.1,0,0,0,0,0,0,0,.1,0,0,0,0,0,.1,0-.1,0,0,0,0,0,0,0,0,0,.1,0,0,0,0,0,0,0,0,0,0,0,0,0,0,0,0,0,.1,0,0,0,0,0,.1,0,0,0,0,0,0,0,0,0,0,0,0,0,0,0,0,0,.1,0,0,0,0,0,0,0,0,0,0,0,0,0,0,0,0,0,0,.1,0,0,0,0,0,.1,0,0,0,0,0,0,0,0,0,0,0,0,0,0,0,0,0,0,0,0,0,0,0,0,0,0,0,0,0,.1,0,0,0,.1,0,.2,0,0,0-.1,0,0,0,0,0,0,0,0,0,0,0,.1,0,.2,0,0,0,.1,0,.2,0,0,0-.1,0,0,0,0,0,0,0,0,0,.1,0,.2,0,.3,0,.2,0,.5.3.6.3,0,.5,0,.6-.3h0Z"/>
    <path class="st0" d="M102.1,97.2c.4-1-.3-2.3-1.4-2.5-.6-.1-1.2,0-1.6.5-.4.4-.7.9-.6,1.5,0,.3.2.7.5.9.3.2.7.4,1,.2.2,0,.4-.3.3-.6,0-.2-.3-.4-.6-.3,0,0,0,0,0,0,0,0,0,0,0,0,0,0,0,0,0,0,0,0,0,0,0,0,0,0,0,0,0,0,0,0,0,0,0,0,0,0,0,0,0,0,0,0,0,0,0,0,0,0,0-.1,0,0,0,0,0,0,0-.1,0,0,0,0,0,0,0,0,0,0,0,0,0,0,0,0,0,0,0,0,0,0,0,0,0,0,0-.1,0-.1,0,0,0,0,0,0,0,0,0,0,0,0,0,0,0,0,0-.1,0,0,0,0,0,0,0,0,0,0,0,0,0,0,0-.1.1-.2,0,0,0,0,0,0,0,0,0,0,0,0,0,0,0,0,.1-.1,0,0,.1,0,0,0,0,0,0,0,.1,0,0,0,0,0,.1,0,0,0,0,0,0,0,0,0,0,0,0,0,0,0,0,0,.1,0,0,0,0,0,0,0,0,0,0,0,0,0,0,0,.1,0,.1,0,0,0,0,0,0,0,0,0,.1,0,0,0,0,0,0,0,0,0,0,0,.1,0,.1,0,0,0,0,0,0,0,0,0,0,0,0,0,0,0,0,0,.1,0,0,0,0,0,0,0,0,0,0,0,.1,0,0,0,0,0,0,0,0,0,0,0,0,0,0,0,0,0,0,0,0,0,0,0,0,.1,0,0,0,0,0,0,0,0,0,0,0,0,0,0,0,.2,0,.3,0,0,0,0,0,0,0,0,0,0,0,0,0,0,0,0,0,.1,0,0,0,0,0,0,0,0,0,0,0,0,0,0,0,.1,0,.2,0,.2,0,.5.3.6.3,0,.5,0,.6-.3h0Z"/>
    <path class="st0" d="M99.4,97.9c.2-.6-.3-1.1-.8-1.3-.6-.1-1.1.2-1.4.8-.2.5-.4,1.1-.4,1.6,0,.6.2,1.2.8,1.5.5.3,1.3.3,1.7-.1.2-.2.2-.5,0-.7-.2-.2-.5-.2-.7,0,0,0,0,0,0,0,0,0,0,0,0,0,0,0,0,0,0,0,0,0,0,0,0,0,0,0,.1,0,0,0,0,0,0,0-.1,0,0,0,0,0,0,0,0,0,0,0-.1,0,0,0,0,0,0,0,0,0,0,0,0,0,0,0,0,0-.1,0,0,0,0,0,0,0,0,0,0,0,0,0,0,0,0,0,0,0,0,0,0,0,0,0,0,0,0,0,0-.1,0,0,0,0,0,0,0,0,0,0,0,0,0,0,0-.1,0-.2,0,0,0,0,0,0,0,0,0,0,0,0,0-.2,0-.4,0-.6,0,0,0,0,0,0,0,0,0,0,0-.1,0,0,0-.2,0-.3,0,0,0,0,0-.1,0,0,0,0,0,0,0,0,0-.2.1-.2,0,0,0,0,0,0,0,0,0,0,0,0,0,0,0,0,0,0,0,0,0,0,0,0,0,0,0,0,0,0,0,0,0,0,0,0,0,0,0,0,0,0,0,0,0,0,0,0,0,0,0,0,0,0,0,0,0,0,0,0,0,0,0,0,0,0,0,0,0,0,0,0,0,0,0,0,0,0,0,0,0,0,0,0,0,0,0,0,0,0,0,0,0,0,0,0,0,0,0,0,0,0,0,0,0,0,0,0,0,0,0,0,0,0,0,0,0,0,0,0,0,0,0,0,0,0,0,0,0,0,0,0,0,.2,0,.5.3.6.3,0,.5,0,.6-.3h0Z"/>
    <path class="st0" d="M98.5,100c-.3-.5-1-.7-1.5-.5-.6.2-.9.7-1.1,1.3-.2.6-.2,1.3.1,1.8.4.5,1,.8,1.6.6.7-.1,1.1-.8,1.2-1.4,0-.3-.2-.5-.5-.5-.3,0-.5.2-.5.5,0,0,0,0,0,0,0,0,0,0,0,0,0,0,0,0,0,.1,0,0,0,0,0,0,0,0,0,.1,0,0,0,0,0,0,0,0,0,0-.1,0,0,0,0,0,0,0,0,0,0,0,0,0,0,0,0,0,0,0,0,0,0,0,0,0-.1,0,0,0,0,0,0,0,0,0,0,0,0,0,0,0,0,0-.1,0,.1,0,0,0,0,0,0,0,0,0,0,0,0,0,0,0,0,0,0,0,0,0,0,0,0,0,0,0,0,0,0,0,0,0-.1-.1,0,0,0,0,0,0,0,0,0,0,0,0,0,0,0,0,0-.1,0,0,0,0,0,0,0,0,0,0,0,0,0,0,0,0,0,0,0,0,0,0,0,0,0-.1,0-.2,0-.3,0,0,0,0,0,0,0,0,0-.1,0-.2,0,0,0-.2,0-.3,0,0,0-.1,0,0,0,0,0,0,0-.1,0,0,0,0,0-.1,0,0,0,0,0,0,0,0,0,0,0,0,0,0,0,0,0,0,0,0,0,0,0,0,0,0,0,0,0,0,0,0,.1,0,0,0,0,0,0,0,.1,0,0,0,0,0,0,0,0,0,0,0,0,0,0,0,.1,0,.1,0,0,0,0,0,0,0,0,0,0,0,0,0,0,0,0,0,0,0,0,0,0,0,0,0,0,0,0,0,0,0,0,0,0,0,0,0,0,0,0,0,0,0,0,0,0,0,0,0,.1.2.4.3.7.2.2-.1.3-.4.2-.7h0Z"/>
    <path class="st0" d="M98.7,102.5c-.5-.2-1.1.1-1.4.5-.3.4-.3,1,0,1.5.3.4.8.6,1.3.6.6,0,1-.3,1.4-.7.3-.5.5-1.1.4-1.6,0-.3-.2-.5-.5-.5-.2,0-.5.2-.5.5,0,0,0,.2,0,.3,0,0,0,0,0,.1,0,0,0,0,0,0,0,.1,0-.1,0,0,0,0,0,.2,0,.3,0,0,0,0,0,.1,0,0,0,0,0,0,0,0,0,0,0,0,0,0-.1.1-.1.2,0,0,0,0,0,0,0,0,0,0,0,0,0,0,0,0-.1.1,0,0,0,0,0,0,0,0,0,0,0,0,0,0,0,0,0,0,0,0,0,0,0,0,0,0,.1,0,0,0,0,0,0,0-.1,0,0,0-.2,0,0,0,0,0,0,0,0,0,0,0,0,0-.1,0,0,0,0,0,0,0,0,0,.1,0,0,0,0,0,0,0-.1,0,0,0-.1,0,0,0,0,0,0,0,0,0,0,0,0,0-.1,0,0,0,0,0,0,0,0,0,0,0,0,0,0,0,0,0,0,0,0,0,0,0,0,0,0,0,0,0,0,0,0,0,0,0,0,0,0,0,0,0,0,0,0,0,0,0,0,0,0,0,0,0,0,0,0,0,0,.1,0,0,0,0,0,0,0-.1,0,0,0,0,0,0,0,0,0,0,0,0,0,0,0,0,0,0,0,0,0,0,0,0,0,0,0,0,0-.1,0,0,0,0,0,0,0,0,0,0,0,0,0,0,0,0,0,0,0,0,0,0,0,0,0,0,0,0,0,0,0,0,0,0,0,0,0,0,0,0,0,0,0,0,0,0,.1,0,0,0,0,0,0,0,0,0,0,0,0,0,0,0-.1,0,0,0,0,0,0,0,0,0,.2,0,.5,0,.6-.3,0-.3,0-.5-.3-.6h0Z"/>
    <path class="st0" d="M99.9,103.7c-1.1,0-1.7,1.3-1.2,2.1.3.4.8.7,1.3.7.5,0,1-.2,1.4-.5.4-.4.7-1,.7-1.6,0-.3-.2-.5-.5-.5-.3,0-.5.2-.5.5,0,0,0,.1,0,0,0,0,0,0,0,0,0,0,0,.2,0,.3,0,0,0,0,0,0,0,0,0,0,0,0,0,0,0,0,0,.1,0,0,0,0,0,.1,0,0,0,0,0,0,0,0,0,0,0,0,0,0,0,0,0,0,0,0,0,0,0,0,0,0,0,0,0,0,0,0,0,0,0,0,0,0,0,0-.1,0,0,0,0,0,0,0,0,0,0,0,0,0,0,0,0,0,0,0,0,0,0,0,0,0,0,0,0,0-.1,0,0,0,0,0,0,0,0,0,.1,0,0,0,0,0-.1,0-.2,0,0,0,.1,0,0,0,0,0,0,0-.1,0,0,0,0,0,0,0,0,0,0,0,0,0,0,0,0,0,0,0,0,0,0,0,0,0,0,0,0,0,0,0,0,0,0,0,0,0,0,0,0,0,0,0,0,0,0,0,0,0,0,0,0,0,0,0,0,0,0,0,0,0,0,0,0,0,0,0,0,0,0,0,0-.1,0,0,0,.1,0,0,0,0,0,0,0-.1,0,0,0,0,0,0,0,0,0,0,0,0,0,0,0,0,0-.1,0,0,0,0,0,0,0,0,0,.1,0,0,0,0,0,0,0-.1,0,0,0,0,0,0,0,0,0,0,0,0,0,0,0,0,0,0,0,0,0,0,0,0,0,0,0,0,0,0,0,0,0,0,0,0,0,0,0,0,0,0,0,0,.2,0,0,0,0,0,0,0,0,0,0,0,0,0,0,0,.3,0,.5-.2.5-.5,0-.3-.2-.5-.5-.5h0Z"/>
  </g>
  <path class="st0" d="M99.1,104.7c-1.5,1.4-2.9,3-3.7,4.9-.4.8-.7,1.7-.9,2.6,0,.5-.2,1-.1,1.4,0,.5.4.9.8,1.1.5.2,1.1.3,1.6.1.3,0,.5-.2.7-.5.1-.1.3-.3.4-.4-.2,0-.5-.2-.7-.3.2.8.9,1.8,1.8,1.6.9-.1,1.3-1.1,1.7-1.8.7-1.6.7-3.4.6-5.1,0-1.1,0-2.3,0-3.4,0-.6-1-.6-1,0,0,1.6.1,3.3.1,4.9,0,1.4-.2,3-1.1,4.2-.1.2-.4.4-.6.2-.3-.2-.5-.6-.6-.9,0-.3-.4-.5-.7-.3-.3.2-.5.5-.8.7-.3.2-.6.2-.9,0-.3-.1-.4-.3-.4-.7,0-.4,0-.7.2-1.1.4-1.6,1.2-3.1,2.2-4.5.6-.8,1.4-1.6,2.1-2.3.5-.4-.2-1.1-.7-.7h0Z"/>
  <path class="st0" d="M100.8,104.8c-.4,2.3-.5,4.6-.2,6.9.1,1,.1,2.2.9,2.9.7.6,1.7.8,2.6.6.5-.1.9-.4,1.1-.9.2-.4.2-.9.1-1.3-.3.2-.5.3-.8.5.3.3.6.6,1,.8.4.2.9.5,1.4.5.5,0,1-.1,1.2-.6.1-.4,0-.8-.3-1.2-.9-1.9-2-3.8-3.2-5.5-.7-1-1.5-2-2.2-3-.2-.2-.5-.2-.7,0-.2.2-.2.5,0,.7,1.2,1.5,2.3,3,3.3,4.7.5.8.9,1.6,1.4,2.4.2.4.4.8.6,1.2,0,.1,0,.2.1.3,0,0,0,0,0,.1,0,0,0,0,0,0,0,0,0,0,0,0,0,0,0,0,0,0,0,0,0,0,0,0,0,0-.2,0-.2,0-.1,0-.2,0-.3,0-.2,0-.4-.2-.6-.3-.4-.2-.7-.4-.9-.7-.1-.2-.4-.2-.6,0-.2.1-.3.3-.2.5,0,0,0,.1,0,.1,0,0,0,.1,0,.2,0,.1,0,.2,0,.3,0,.2-.3.3-.6.4-.6.1-1.4,0-1.7-.6-.2-.3-.2-.7-.3-1,0-.5-.1-.9-.2-1.4,0-1-.1-2,0-2.9,0-1.1.1-2.2.3-3.3,0-.3,0-.5-.3-.6-.2,0-.6,0-.6.3h0Z"/>
  <path class="st0" d="M102.6,105c1,1.7,2.1,3.3,3.3,4.8.7.8,1.4,1.5,2.1,2.2.7.7,1.5,1.4,2.6,1.4.5,0,1.2-.2,1.3-.8,0-.2,0-.5,0-.7,0,0,0-.2,0-.3,0-.2,0,0,0,0,0,0,0,0,0-.1-.2.1-.4.2-.6.3.5.2,1.1.4,1.7.5.5,0,1.2.2,1.7,0,.6-.2.8-.7.6-1.3-.2-.5-.5-.9-.9-1.3-.8-.8-1.7-1.5-2.6-2.2-.9-.7-1.8-1.4-2.7-2.1-1.1-.8-2.3-1.5-3.4-2.1-.5-.3-1,.5-.5.8,1.8,1,3.6,2.2,5.2,3.5.8.6,1.6,1.3,2.4,1.9.4.3.8.7,1.1,1,0,0,.7.9.6,1,0,0,0-.1,0-.1,0,0-.1,0-.1,0,0,0-.2,0-.3,0-.3,0-.5,0-.8,0-.6-.1-1.2-.3-1.7-.5-.3-.1-.5.1-.6.3-.1.3,0,.7,0,1.1,0,0,0,0,0,0,0,0,0-.1,0,0,0,0,.1,0,0,0,0,0,.1,0,0,0-.1,0-.3,0-.4,0-.4,0-.7-.2-1-.4-.4-.3-.7-.6-1-.9-1.3-1.2-2.5-2.6-3.5-4.1-.6-.8-1.1-1.7-1.6-2.5-.3-.5-1.2,0-.8.5h0Z"/>
  <path class="st0" d="M101.6,95.2c-.7-1.9-1.4-3.7-2.1-5.6-.7-1.8-1.3-3.5-1.8-5.4-.9-3.1-1.2-6.6.3-9.6.4-.8.9-1.5,1.5-2.1.3-.2.6-.5,1-.5.2,0,.5.2.5.4,0,.3,0,.5.3.6.2,0,.5,0,.6-.3.1-.5.4-1.3.9-1.5.6-.3,1.2.4,1.4,1,.1.4.1.8.1,1.3,0,.5,0,.9,0,1.4,0,1,0,1.9-.1,2.9-.2,3.8-.7,7.7-1.5,11.4-.5,2.1-1,4.2-1.6,6.3-.2.6.7.8.9.3,1.2-4,2.1-8.1,2.7-12.2.3-2,.5-4.1.6-6.2,0-1,0-2.1,0-3.1,0-1,0-2-.4-2.9-.5-.9-1.5-1.4-2.5-1-.8.4-1.2,1.3-1.4,2.1.3,0,.6.2.9.3,0-.4,0-.9-.4-1.2-.3-.3-.7-.5-1.2-.4-.9,0-1.6.8-2.2,1.4-1.1,1.4-1.8,3-2,4.7-.6,3.9.6,7.7,2,11.4.8,2.3,1.7,4.5,2.5,6.8,0,.2.3.4.6.3.2,0,.4-.3.3-.6h0Z"/>
  <path class="st0" d="M103.2,94.9c.4-3.7.9-7.4,1.6-11.1.3-1.8.7-3.7,1.1-5.5.2-.9.4-1.8.6-2.7.2-.7.3-1.5.6-2.2.2-.3.4-.7.7-.9.2-.2.5-.3.7-.3.3,0,.5,0,.7.1.2.1.3.2.3.5,0,.3.4.4.6.3.7-.1,1.1-.8,1.7-1.1,0,0,.2,0,.1,0,0,0,.2,0,.1,0,0,0,0,0,.1,0,0,0,0,0,.1,0,.2.3.3.7.4,1.1.5,1.9.3,3.9-.2,5.8-.5,2-1.3,3.8-2.3,5.6-.9,1.8-1.9,3.5-2.9,5.2-1.1,1.9-2.3,3.8-3.7,5.5-.2.2-.2.5,0,.7s.5.2.7,0c1.3-1.6,2.5-3.4,3.6-5.2,1.1-1.8,2.1-3.7,3.1-5.5,2-3.7,3.6-8,2.6-12.2-.1-.5-.3-1.1-.6-1.5-.3-.4-.8-.5-1.3-.4-.4,0-.7.4-1,.6-.3.2-.5.5-.9.6.2.1.4.2.6.3-.2-1.4-2.2-1.7-3.2-1-.7.5-1.1,1.2-1.3,2-.3.9-.5,1.8-.7,2.7-.9,3.9-1.7,7.8-2.3,11.8-.3,2.2-.6,4.5-.9,6.7,0,.3.2.5.5.5s.5-.2.5-.5h0Z"/>
  <path class="st0" d="M104.9,96.4c1.9-3.6,3.8-7.3,5.9-10.8,1-1.8,2-3.5,3.1-5.2,1-1.6,2-3.1,3.3-4.3.5-.5,1.5-1.2,2.1-.6.5.5.4,1.4.3,2,0,.3.2.5.5.5.3,0,.7,0,1,0,.3,0,.6.1.8.3.2.2.2.6.1.9-.1.4-.4.8-.6,1.2-.9,1.6-1.9,3-3,4.4-2.3,2.8-5,5.3-7.7,7.6-1.6,1.3-3.2,2.5-4.8,3.8-.2.2-.3.4-.2.7.1.2.5.3.7.2,3.1-2.4,6.1-4.7,8.9-7.4,2.7-2.6,5.2-5.6,7.1-8.9.5-.9,1.1-2.1.2-3.1-.6-.7-1.7-.7-2.5-.7.2.2.3.3.5.5,0-.8,0-1.6-.3-2.3-.4-.8-1.4-1.1-2.2-.8-.9.3-1.6,1-2.3,1.7-.7.7-1.3,1.5-1.8,2.3-1.2,1.7-2.2,3.5-3.2,5.3-1.1,1.9-2.2,3.8-3.2,5.7-1.2,2.1-2.3,4.3-3.5,6.5-.3.6.5,1,.8.5h0Z"/>
  <path class="st0" d="M107.2,96.5c.2-.8.8-1.3,1.4-1.8.7-.6,1.4-1.2,2.1-1.8,1.4-1.2,2.9-2.4,4.4-3.5,1.5-1.1,2.9-2.2,4.5-3.1,1.5-.9,3.1-1.6,4.9-1.6.7,0,1.6,0,2.2.5.2.1.4.4.4.6,0,0,0,.1,0,.2-.1.1-.3.2-.4.3-.4.2-.6.5-.8.9-.1.4,0,.9.4,1.1.3.2.6.2.8.4.1.2.2.5.1.7-.2.7-.9,1.3-1.5,1.8-.6.5-1.3,1-2.1,1.4-1.5.8-3,1.5-4.6,2-3.6,1.1-7.3,1.7-10.8,2.8-.5.1-.9.3-1.3.4-.2,0-.4.3-.3.6,0,.2.3.4.6.3,3.7-1.3,7.7-1.9,11.4-3,1.7-.5,3.4-1.1,5-2,.8-.4,1.5-.9,2.3-1.4.7-.5,1.5-1.1,2-1.8.5-.7.6-1.6.1-2.3-.2-.4-.5-.5-.9-.7,0,0,0,0,0,0-.1,0,0,0,0,0,0,0,0,0,0,0,0-.1.1-.2.3-.3.4-.2.7-.5.9-.9.2-.4.2-.8,0-1.1-.3-.7-1.2-1.2-1.9-1.3-3.8-.7-7.3,1.7-10.2,3.8-1.6,1.2-3.2,2.4-4.7,3.6-.8.6-1.5,1.3-2.2,1.9-.7.6-1.4,1.2-2,1.9-.3.3-.5.7-.6,1.1-.1.6.8.9.9.3h0Z"/>
  <path class="st0" d="M107.5,99.1c3.4-1.1,6.9-1.8,10.4-2,1.6,0,3.3-.1,5,0,1.1.1,2.5.5,3.2,1.4.1.1.2.3.3.5,0,0,0,.2,0,.3,0,0,0,.2,0,.1,0,.1,0,.1-.2.2,0,0-.2.1-.3.2-.6.3-1.2.6-1.4,1.3-.1.4.3.7.6.6,0,0,0,0,0,0,0,0,.1.1.1.2,0,.2-.2.4-.3.5-.5.4-1.1.6-1.7.7-1.3.3-2.7.2-4,.1-1.5-.1-3-.3-4.5-.5-1.4-.1-2.8-.2-4.2-.5-1.3-.2-2.6-.6-3.5-1.6-.4-.5-1.1.2-.7.7,1,1,2.3,1.5,3.6,1.8,1.6.3,3.1.4,4.7.5,1.7.2,3.4.4,5,.5,1.5.1,3.1,0,4.5-.5.7-.3,1.6-.7,1.8-1.5.3-.8-.5-1.8-1.3-1.5l.6.6s0-.1.1-.2c0,0,.1-.1.3-.2.2-.1.5-.3.7-.4.6-.4,1-1.1.8-1.8-.5-1.4-1.9-2.1-3.3-2.4-1.6-.4-3.3-.3-5-.3-1.9,0-3.8.3-5.6.6-2.1.4-4.1.9-6.2,1.6-.6.2-.3,1.1.3.9h0Z"/>
  <path class="st0" d="M106.1,102c3,.5,6,1.4,8.9,2.3,1.3.4,2.7.8,4,1.3,1.1.4,2.3,1,3.1,2,0,.1.2.3.2.4,0,0,0,0,0,.1,0,0,0,0,0,0,0,0,0,0,0,0,0,0,0,0,0,0,0,0,0,0,0,0-.1,0-.2.1-.3.2-.5.3-1,.5-1.1,1.1,0,.3,0,.5.3.6,0,0,0,.1,0,.2,0,0,.1-.2.2-.3-1,.5-2.1.6-3.2.6-1.1,0-2.2-.5-3.2-1-1-.6-2-1.3-3-2-1.1-.7-2.1-1.5-3.2-2.2-1.2-.8-2.4-1.6-3.6-2.4-.2-.1-.5,0-.7.2-.1.2,0,.5.2.7,2.4,1.7,4.9,3.4,7.3,5.1,1.1.8,2.2,1.6,3.5,2.1,1.2.5,2.5.7,3.9.6.8,0,1.5-.3,2.2-.6.2-.1.4-.2.4-.5,0-.2,0-.4,0-.5-.1-.4-.4-.6-.7-.7.1.2.2.4.3.6,0,0,0-.1,0,0,0,0,0-.1,0,0,0-.1,0,0,.2-.2.2-.1.4-.2.6-.3.5-.3.9-.8.8-1.4-.1-.7-.7-1.3-1.2-1.7-.5-.4-1.1-.8-1.7-1.1-1.3-.6-2.6-1-4-1.4-1.5-.5-3.1-1-4.6-1.4-1.8-.5-3.5-.9-5.3-1.2-.3,0-.5,0-.6.3,0,.2,0,.6.3.6h0Z"/>
  <path class="st0" d="M100.8,94.9c-.9-3.3-2.1-6.6-3.3-9.9-.6-1.6-1.3-3.2-2-4.8-.5-1.2-1.3-2.6-2.6-3-1.1-.3-2.6.2-2.9,1.3,0,.3,0,.6,0,.8,0,.1,0,.3,0,.4,0,0,0,.1,0,0,0,.1,0,0,0,0,0,0,0,0,0,0,0,0,.1,0,0,0,0,0-.2,0-.3,0-.2,0-.4,0-.6,0-.4,0-.7.2-1,.4-1.4,1.1-.6,3.1-.1,4.4.6,1.4,1.3,2.8,2.3,4,1,1.3,2.2,2.3,3.5,3.4,1.4,1.1,2.8,2.2,4.2,3.2.4.3.7.5,1.1.8.2.2.5.2.7,0,.2-.2.2-.5,0-.7-1.3-1-2.7-2.1-4-3.1-1.3-1-2.5-1.9-3.7-3.1-1-1-1.9-2.2-2.5-3.5-.3-.6-.6-1.3-.8-2-.2-.7-.5-1.4-.3-2.1.1-.5.6-.9,1.1-.7.4.1.8.2,1.1,0,.2-.2.3-.5.3-.8,0-.3,0-.5,0-.8,0-.2,0-.3.2-.5,0,0,0,0,0,0,0,0,0,0,0,0,0,0,.2-.1.3-.2.2,0,.4-.1.6-.1.5,0,1,.2,1.3.6.4.4.7,1,1,1.5.7,1.4,1.3,2.9,1.9,4.4,1.2,3.1,2.3,6.2,3.2,9.3.1.4.2.8.3,1.2.2.6,1.1.3.9-.3h0Z"/>
  <path class="st0" d="M99.4,95.7c-3.1-2.4-6.2-4.6-9.4-6.8-.8-.5-1.6-1-2.4-1.5-.7-.5-1.5-.9-2.4-1.1-1.4-.3-3.2.3-3.6,1.8-.5,1.8,1.2,3.2,2.6,4l.2-.9c-1.1.1-2.5.5-2.7,1.7-.2,1.5,1.3,2.4,2.4,3,1.2.6,2.5,1,3.9,1.2,1.5.3,2.9.5,4.4.7,1.8.2,3.5.5,5.3.7.3,0,.5-.2.5-.5s-.2-.5-.5-.5c-2.8-.3-5.6-.7-8.3-1.1-1.2-.2-2.4-.4-3.6-.9-.6-.2-1.1-.4-1.7-.8-.5-.3-1-.6-1.3-1-.3-.4-.3-.9,0-1.1.4-.3,1-.4,1.4-.5.2,0,.4-.1.5-.4,0-.2,0-.4-.2-.5-.9-.5-2.4-1.5-2.2-2.7,0-.5.5-.9,1-1.1.6-.3,1.2-.3,1.8-.1.8.2,1.5.6,2.2,1.1.7.5,1.5.9,2.2,1.4,1.5,1,2.9,2,4.4,3,1.6,1.1,3.2,2.3,4.8,3.5.2.2.5.2.7,0s.2-.5,0-.7h0Z"/>
  <path class="st0" d="M97.4,97.8c-3.2.4-6.4-.3-9.5-.3-1.4,0-2.9.2-4.2.6-.7.2-1.4.5-2,.9-.5.3-1.1.8-1.2,1.5-.1.8.2,1.6,1,1.8.4.1.9.1,1.3.2l1.4.2c-.1-.3-.2-.5-.3-.8-.5.5-1,1-1.4,1.6-.4.5-1,1.1-.9,1.8.1.6.8.9,1.3.9.7,0,1.4,0,2-.2,2.8-.4,5.6-1.5,8.2-2.6,1.5-.6,3-1.3,4.5-2,.6-.3,0-1.1-.5-.8-2.3,1.2-4.7,2.2-7.2,3.1-1.2.4-2.4.8-3.7,1.1-.6.1-1.2.3-1.9.3-.3,0-.6,0-.9,0-.2,0-.5,0-.7,0,0,0-.2,0-.1,0-.1-.2,0,0,0,0,0,0,0,0,0,0,0,0,0,0,0-.1.2-.3.4-.6.6-.8.4-.5.9-1,1.4-1.5.3-.3,0-.8-.3-.8-.7,0-1.5-.1-2.2-.2-.2,0-.5,0-.6-.3-.1-.2,0-.4,0-.6.2-.5.8-.8,1.2-1,.5-.3,1.1-.5,1.7-.7,2.6-.7,5.4-.4,8.1-.2,1.7.1,3.3.2,5,0,.3,0,.5-.2.5-.5s-.2-.5-.5-.5h0Z"/>
  <path class="st0" d="M96.1,101.6c-1.3.8-2.7,1.5-4,2.3-1.1.6-2.2,1.2-3.3,2-1,.7-1.9,1.4-2.7,2.3-.4.5-.7,1-.9,1.5-.2.5-.4,1.1-.2,1.7.4.8,1.3.6,2,.4.8-.3,1.5-.6,2.3-1-.2-.2-.4-.4-.7-.7-.4,1-1.4,3.4.4,3.7.6.1,1.2-.1,1.7-.4.5-.2,1-.5,1.5-.9,1.9-1.4,3.4-3.3,4.9-5.1.9-1,1.8-2,2.8-2.9.2-.2.2-.5,0-.7s-.5-.2-.7,0c-1.7,1.4-3,3.2-4.4,4.8-1.4,1.6-2.9,3.2-4.8,4-.2,0-.4.2-.7.2-.2,0-.3,0-.4-.2,0-.3,0-.7.1-1,0-.4.2-.7.4-1.1.2-.4-.2-.9-.7-.7-.6.3-1.2.5-1.8.8-.3,0-.5.2-.8.3-.2,0-.3,0-.3-.1,0-.4.2-.9.4-1.2.2-.4.5-.8.9-1.2,1.5-1.6,3.5-2.7,5.4-3.7,1.3-.8,2.7-1.5,4-2.3.5-.3,0-1.1-.5-.8h0Z"/>
  <path class="st0" d="M87,146.5c1.5-1.5,3.4-2.5,5.3-3.4,2-.9,4-1.6,6-2.5,4-1.9,7.7-4.3,11.1-7.2,1.9-1.6,3.6-3.4,5.2-5.3.2-.2.2-.5,0-.7-.2-.2-.5-.2-.7,0-2.8,3.4-6.1,6.3-9.7,8.8-1.8,1.2-3.7,2.3-5.7,3.3-2,.9-4,1.7-6,2.5-2.2.9-4.4,2.1-6.1,3.8-.4.4.2,1.1.7.7h0Z"/>
  <path class="st0" d="M114.5,127.2c-.7-1.7-.4-3.9,1-5.2.2-.2.7-.6.9-.3.2.3.2.7,0,1-.2.8-.8,1.5-1.3,2.2-.6.8-1.2,1.7-1.3,2.8,0,.4.6.7.8.3.6-.8,1.2-1.6,1.9-2.3.3-.4.6-.8.9-1.2.2-.3.5-.7.8-.8.2,0,.4,0,.5.2.2.2.2.5,0,.8-.3.7-1.1,1.2-1.7,1.6-.9.5-1.8.8-2.8.9-.4,0-.5.6-.2.8,1.3,1.2,3.2,1.8,4.9,1.3.9-.2,1.7-.7,2.1-1.5.4-.8.4-1.7-.2-2.4-.6-.6-1.6-.9-2.3-.3-.2.2-.3.4-.2.7.1.2.5.3.7.2.3-.3.8-.2,1.1.1.3.4.3,1,0,1.4-.7,1.1-2.4,1.2-3.5.9-.7-.2-1.4-.5-1.9-1,0,.3-.1.5-.2.8,1-.1,2-.5,2.9-1,.8-.5,1.8-1.1,2.2-2,.2-.5.2-1,0-1.5-.2-.4-.5-.7-.9-.9-1.1-.4-1.8.8-2.4,1.5-.8,1-1.7,2.1-2.5,3.1.3.1.5.2.8.3.1-.9.8-1.8,1.4-2.5.6-.8,1.3-1.7,1.4-2.8,0-.5,0-1.1-.5-1.5-.5-.5-1.2-.4-1.8,0-1,.6-1.6,1.8-1.9,2.8-.3,1.2-.3,2.6.2,3.7.1.2.3.4.6.3.2,0,.4-.4.3-.6h0Z"/>
  <path class="st0" d="M116.9,121.3c.2-1.2,1-2.1,2.1-2.7,1-.5,2.3-.5,3.3,0,1,.5,1.9,1.5,2.2,2.6.3,1.1,0,2.3-.6,3.3-.7,1.1-1.9,1.9-3.2,2-.3,0-.5.2-.5.5s.2.5.5.5c2.9-.2,5.3-3.1,4.8-6-.4-2.9-3.6-5-6.5-4-1.5.6-2.8,1.9-3.1,3.5,0,.3,0,.5.3.6.2,0,.5,0,.6-.3h0Z"/>
  <path class="st0" d="M63.2,165.6c2.5-1.4,5.3-2.2,8.1-2.5,3-.4,6.1-.3,9.2-.1,3.1.2,6.2.6,9.3,1.3,2.7.6,5.4,1.4,8,2.4,2.5,1,4.9,2.4,7.1,4.1,1.1.8,2.1,1.7,3,2.8.8,1,1.4,2.2,1.4,3.4,0,2.1-1.8,3.6-3.7,4.1-1.1.3-2.2.3-3.2,0-1.2-.3-2.4-1-3.3-1.7-2.1-1.7-3.8-4-5.2-6.3-1.5-2.4-2.7-5-3.6-7.8-.2-.7-.4-1.3-.6-2-.2-.6-1.1-.3-.9.3.7,2.9,1.8,5.7,3.3,8.3.7,1.3,1.5,2.6,2.4,3.8.8,1.1,1.7,2.3,2.7,3.2,1.9,1.8,4.4,3.5,7.1,3.4,2.2,0,4.6-1.3,5.7-3.3.6-1.1.6-2.4.2-3.6-.4-1.4-1.3-2.5-2.3-3.5-2-2-4.4-3.6-7-4.9-2.6-1.3-5.3-2.3-8.1-3-3-.8-6.2-1.3-9.3-1.7-3.2-.3-6.5-.5-9.8-.3-3,.2-6,.7-8.8,1.8-.7.3-1.3.6-1.9,1-.5.3,0,1.1.5.8h0Z"/>
  <path class="st0" d="M80.9,162.5c2.8-2.9,6.2-5.2,9-8.1,2.6-2.7,5.2-5.4,8.5-7.2,1.5-.8,3.2-1.5,4.9-1.5.7,0,1.5.2,2.1.7.5.5.8,1.2.9,1.9.2,1.7-.7,3.1-2,4.2-1.4,1.2-3.2,1.9-5,2.5-1.9.6-3.8.9-5.8,1.2-2.1.3-4.2.5-6.3.7-.5,0-1.1.1-1.6.2-.3,0-.5.2-.5.5s.2.5.5.5c2.2-.3,4.5-.5,6.7-.8,2.1-.3,4.1-.5,6.2-1.1,2-.5,3.9-1.2,5.6-2.4,1.5-1,2.8-2.4,3.1-4.3.3-1.7-.4-3.6-2.1-4.4-1.7-.8-3.6-.4-5.2.2-3.7,1.4-6.6,4.1-9.4,6.9-.7.7-1.4,1.5-2.1,2.2-.8.7-1.5,1.4-2.3,2.1-1.6,1.4-3.2,2.7-4.8,4.1-.4.4-.8.7-1.1,1.1-.4.4.2,1.1.7.7h0Z"/>
  <path class="st0" d="M74.3,162.9c2,3,2.6,6.7,3.1,10.2.6,3.9,1.2,7.8.7,11.8-.2,1.6-.5,3.4-1.4,4.7-.3.5-.8,1-1.4,1.2-.6.2-1.3,0-1.8-.3-1.3-1-1.8-2.8-1.9-4.4-.1-1.8.1-3.6.5-5.3.8-3.4,2.3-6.6,4.5-9.4.3-.3.5-.7.8-1,.2-.2.2-.5,0-.7s-.5-.2-.7,0c-2.4,2.8-4.2,6.2-5.2,9.8-.5,1.8-.9,3.7-.9,5.6,0,1.8.3,3.8,1.5,5.3.5.7,1.2,1.2,2,1.4.8.2,1.6,0,2.2-.4,1.4-.9,2-2.6,2.3-4.1,1-4.1.6-8.3,0-12.5-.3-1.9-.6-3.9-1-5.8-.4-1.8-.9-3.7-1.8-5.3-.2-.4-.5-.8-.7-1.2-.3-.5-1.2,0-.8.5h0Z"/>
  <path class="st0" d="M103.9,144.8c-1.3-1.1-3-1.6-4.7-1.5-1.8,0-3.5.6-5,1.5-2.9,1.7-5.3,4.3-6.9,7.2-.9,1.6-1.6,3.4-2,5.2-.1.6.8.9.9.3.7-3,2.1-5.9,4.2-8.2,1-1.2,2.2-2.3,3.6-3.2,1.4-.9,2.9-1.6,4.5-1.8,1.7-.2,3.5.1,4.9,1.2.2.2.5.2.7,0s.2-.5,0-.7h0Z"/>
  <path class="st0" d="M76.9,170.7c3,1.8,5.2,4.9,5.9,8.3.4,1.9.3,3.9-.2,5.8-.5,1.7-1.3,3.4-2.6,4.6-1.4,1.3-3.5,2-5.4,1.3-.2,0-.5,0-.6.3,0,.3,0,.5.3.6,1.8.7,4,.2,5.5-.9,1.6-1.1,2.7-2.8,3.3-4.7,1.4-3.9.9-8.4-1.4-11.8-1.1-1.8-2.7-3.3-4.5-4.4-.5-.3-1,.5-.5.8h0Z"/>
  <path class="st0" d="M110.1,178.3c1-2.1,2.1-4.3,1.7-6.7-.3-2-1.6-3.6-3-4.9-1.6-1.4-3.5-2.4-5.5-3.1-2.1-.8-4.3-1.2-6.5-1.3-2.5,0-5,.2-7.4,1-.6.2-.3,1.1.3.9,4-1.3,8.4-1.3,12.4,0,1.9.6,3.8,1.4,5.4,2.6,1.4,1.1,2.7,2.5,3.3,4.2.7,2.4-.3,4.7-1.4,6.8-.1.2,0,.5.2.7.2.1.5,0,.7-.2h0Z"/>
</svg>