<?xml version="1.0" encoding="UTF-8"?>
<svg id="a" xmlns="http://www.w3.org/2000/svg" width="4.6in" height="4.4in" version="1.1" viewBox="0 0 327.7 319.5">
  <!-- Generator: Adobe Illustrator 29.1.0, SVG Export Plug-In . SVG Version: 2.1.0 Build 142)  -->
  <defs>
    <style>
      .st0 {
        fill: #fff;
        opacity: .1;
      }
    </style>
  </defs>
  <path class="st0" d="M4.6,111.8c5.1,4.9,10.8,9.1,16.8,13,8.1,5.6,17.3,9.7,25.7,15,1.2.9,2.6,1.8,3.2,3.1.6,4.8,5.6,5.8,9.9,6.4,20.5,3.5,39.6,2.3,58.8-4.6,10.5-3.5,20.1-8.8,29.6-14,8.4-4.8,16.8-9.6,24.7-15.2,3.9-2.8,7.7-5.7,11.7-8.4,5.9-3.8,12-7.2,18-10.8-20,18.8-38.3,39.2-53.8,61.5-4.3,6.2-8.4,12.6-11.8,19.3-.9,1.9-1.9,3.9-2.7,5.9-.3,0-.6,0-.9.2-3.6,1.6-7.4,2.8-11.2,4-6.8,2.2-13.8,3.8-20.6,6.2-1.3.5-2.6,1-3.9,1.6-13.1,6.1-27.8,19.9-33.5,31.4-1.4,3.8-1.6,7.9-2.9,11.7-1.2,4.2-2.7,8.3-3.3,12.6-.5,3.5-.1,7.1,1.4,10.4.9,1.8,2.2,3.5,2.6,5.5.5,2.1.2,4.3-.1,6.4-1.5,6.5-3.9,12.8-6.9,18.8,0,0,0,0,0,0,0,0,0,0,0,.1,0,0,0,0,0,0,0,0,0,0,0,0,0,0,0,0,0,0,0,0,0,0,0,0,0,0,0,0,0,.1-3.1,6.1-7.2,11.9-10.8,17.8-.9,1.8-2.5,3.7-2.3,5.8,1.6,4.6,7.2.6,9.7-1,7.9-5.1,15.2-10.8,22.5-16.6,4.1-3.3,8.2-6.7,13-9.2,1.1-.5,2.2-.4,3.3-1.1,3.2-1.9,5-5.1,7.5-7.7,2.6-3,5.3-5.9,8-8.9,1.3-1.4,2.7-2.8,4.3-4.1.8-.6,1.7-1.5,2.8-.7,5,3,9.2.4,11.2-4.1,1.7-3.1,3.3-6.4,5.4-9.3,3.3-4.7,7-9.3,9.7-14.3,6.2-12,6.2-26.3.7-38.9-.9-2.3-1.7-4.7-2.3-7.1-.3-.6-.3-1.4-.3-2.1,1.3-6.4,4.4-12.1,7.7-17.8,14.1-22.9,31.4-43.7,50.6-62.9-6.5,9.4-12.3,19.3-15.9,30-5.6,17.2-7.1,36.1-2,53.9,1,3.1,2,6.3,4.3,8.8,2.3,2,4.3,4.1,5.8,6.8,3.5,6.1,5.1,12.8,7.8,19.2,5.2,12.8,12.8,24.6,20.7,36,.8,1.2,1.7,2.6,3.3,2.6,1.1,0,2-.7,2.3-1.7.6-2.8.7-5.7,1.2-8.5,1.2-8,3-15.9,5.3-23.7,1.2-4.2,2.5-8.4,3.3-12.7.9-4.5.7-9.1.8-13.6,0-.2,0-.3.3-.4.8-.2,1.6-.3,2.3-.6,1.1-.5,2-1.4,2.5-2.4,2.5-6.2,1.9-13.2,1.6-19.8-1.4-15.6-10.1-30-21.3-41.6-8.3-8.5-15.5-18.1-18.6-29.4,3.4-5,7.1-9.9,10.7-14.7,1.4-1.9,2.8-3.8,4.2-5.7.2-.2.4-.5.6-.7,18.5-16.6,38.3-32.1,58.4-46.8,1-.7,2.1-1.4,3.1-2.2-5,8.5-7,18.3-12.3,26.6-17.1,27.5-15.3,51.6,3.5,78.8,5.3,8.1,11.4,15.6,17.6,23.2,5.5,6.3,11,13.7,17.4,19.4,10.2,4.6,6.3-17.4,6-22.3-.9-6.7-1.6-13.3-1.3-20.1,0-2.1.1-4.2.3-6.3.2-.9.1-2.2,1.1-2.7,3.3-1.5,8.6-.1,9.7-4.5.7-2.4.2-5,.5-7.4,1.5-8,3-16.3,0-24.2-7.1-21.6-31.8-32.9-40.7-53.7,2.1-4.3,4.7-8.5,7.5-12.5.2-.3.4-.7.7-1,12.9-8.6,26.4-16.8,40.1-24.1,30.3-15.1,61.5-28.5,91-44.8,10.8-6.1,21.5-12.5,31.7-19.4,3.3-2.3,6.6-4.6,9.9-6.9,1.6-1.2.5-3.8-1.5-3.9-.4,0-.8,0-1.2.2-.4.2-.7.4-1.1.7-2.8,2-5.8,4.1-8.8,6.1-13.5,9.2-27.8,17.4-42.3,25.2-29.9,15.9-61.8,28.7-91.4,45.1-3.1,1.8-6.2,3.6-9.3,5.5-.8-.4-1.9-.4-2.8.1-2.8,1-5.8,1.4-8.8,1.5-15.7.3-30.4-7.7-43.1-16,.6-1.5.2-3.2.5-4.7,1.2-7.2,1.1-14.7-.2-21.9-2.6-13.6-8.8-27.6-20.8-36.4-6.1-4.5-13.5-7.2-19.6-11.6-3-2.2-5.6-4.9-8.2-7.5-2-1.7-3.7-4.7-6.7-4.9-.4,0-.8.2-1.1.3-3,1.4-.3,6.1-.1,8.8.7,7.2.7,14.5,2.1,21.8,2.3,10.8,3.7,21.8,8.5,32,4.5,9.8,12.6,18.5,22.8,23.4,4,1.9,8.4,2.8,12.8,3,1.6.1,3.3,0,4.9-.1.7.3,1.4.9,2.1,1.4,12.9,8.5,27.4,16.2,43.3,16.9-1.1.4-2.2.6-3.2.9-16,3.9-33.3,2.6-49.9.5-6.2-.8-12.3-1.8-18.5-2.5-2.7-1.7-5.3-3.6-7.8-5.5-7.6-5.6-15.5-11-24.5-14.3C176.2,1.3,166.1,0,156.3.3c-6.4.3-10.5,1.2-13.8,2.7-4.6,2.1-7.8,5.5-14,9.9-11.4,5.1-23.5,8.9-34.3,15.1-2,1.3-4.9,2.3-5.7,4.7-.3,3.8,4.8,2.9,7.4,2.9,2.6,0,5.1,0,7.7.2,11.8.5,23.1,4,34.5,6.5,11.3,2.5,19.1,1.2,29.7-2,2.7-.7,5.3-1.3,8.1-1.9,4.6-1.1,9.3-1.3,14-2.2,7.3-1.1,13.6-5,20.4-7.3,2-.4,4.2-.7,6.2-.3.7.4,1.7.5,2.4.1,21.4,2.8,43.6,6.7,64.8,2.5-.2.2-.3.4-.5.6-.1.1-.2.3-.3.4-17.8,12-34.8,25-51.3,38.5-2.2,1.8-4.3,3.6-6.5,5.4-.2,0-.3,0-.5.2-5.8,5.1-12.8,8.9-19.5,12.9-3.9,2.4-7.9,4.8-11.9,7.1-14.4,3.5-29.9.6-44.3-2.7-11.6-2.7-22.9-8.5-34.8-10.2-10.9-1.3-25.2.8-34.1,6.6-2,1.3-3.2,3.3-4.8,4.9-1.7,1.2-4.1,1.2-6.2,1.5-3.1.3-6.3.5-9.4.9-3.8.5-8.1,1.2-10.4,4.3-1.2,1.7-1.1,3.8-.3,5.7.4,1.5.5,2.3-1.4,2.1-9.4-.3-18.8-2.6-27.9-4.7-5-1-10.3-2.4-15.4-1.5-.3.1-.6.2-.9.4-3.9,1.8-1.7,5.6,1.1,7.9ZM136.2,202.9c2.3,5.8,3.4,12.1,3,18.2-1,14.2-8.2,20.9-15.5,32.1-2.1,3.1-3.2,7.2-5.9,9.8-1.8.6-3.4-1.4-5.2-1.4-.4,0-.7,0-1.1,0,3-4.7,5.6-9.7,7.8-14.9,2.6-6.6,4.5-13.4,7-20-3.3,6.4-7,12.8-10.6,19.1-3.4,6.1-6.5,12.3-10.1,18.3-.5.8-1,1.6-1.5,2.3-.6.6-1.2,1.2-1.8,1.8-4.5,4.7-8.7,9.7-12.9,14.5,0,0,0,0,0,.1,1.8-3,3.4-6.1,3.6-6.6,2.7-5.8,4.2-12,6.4-17.9-4.6,8.8-10.3,17.3-14.4,26.5-2.5,1.2-4.7,2.8-6.9,4.3-7.2,5.5-14.1,11.2-21.4,16.5,2.5-3,5-6.1,7.4-9.4,6.1-9.1,11.5-18.7,17.8-27.8-8.2,10.2-16.5,20.6-24.6,30.9-1.3,1.6-2.6,3.3-3.8,5,3.9-6.2,7.6-12.5,10.2-19.6,2.2-6.3,5-13.1,3.2-19.8-.2-.7-.5-1.4-.8-2.1,1.4-2.5,3.1-4.7,4.9-6.9,4.2-5.1,8.5-10.4,12.9-15.4-6.7,6-15.4,11-19.6,19.1-.2-.4-.5-.9-.6-1.3-2-6.1.7-12.3,2.4-18.1.2-.5.3-1,.5-1.5,9.8-12.1,23.9-20.4,37-29.2-12.1,6.7-26.2,11.8-35.1,22.4-.2.2-.3.5-.5.7.4-2,.9-3.9,1.7-5.7,6.2-10.2,15.4-18.7,25.7-25.3,10.8-6.3,23.9-8,35.8-12.4-.1.2-.2.3-.3.4-3.6,5.5-6.3,11.3-9.3,17.1-6.4,12.2-13.7,23.8-21.3,35.4,0,0,0,0,0,0,9.2-12.1,19.7-23.6,26.2-37.3,2.1-4.3,4.2-8.6,6.5-12.8,0,.3.1.6.2.9.8,3.5,2,6.7,3.3,10.2ZM301.3,19.3c-.4.2-.7.6-.9,1,.2-.4.5-.7.9-1ZM230.9-8c2.3,3,4.7,5.8,7.4,8.5.3.3,1.2,1.2,2.3,2.2-3.7,0-7.3-.4-10.8-1.9-10-4.3-17.8-12.7-22.1-22-4.4-9.8-5.8-20.4-8-30.7-1.4-7.3-1.2-14.8-2.2-22.2,3,3,5.9,6,9.5,8.4,7.1,5,15.8,7.8,22.1,13.7,9,8.4,13.6,20,15.7,31.3.5,3.2.8,6.5.9,9.8.2,4-.6,8.2-1,12.5-1.4-1.3-2.8-2.6-4.1-4-7.9-9-15.4-18.3-22.4-28,4,7.4,7.3,15.5,12.7,22.3ZM204.4,26.4c-4.4,1.8-8.5,4.1-13.3,5.1-5.1,1.3-10.1,1.3-15.4,2.5-8.7,1.6-16.9,5.2-25.8,5.4-9.9,0-19.4-3.5-29-5.4-5.9-1.3-11.9-2.1-17.8-2.4,1.4-.3,2.7-.6,4.1-.9,8.1-1.8,16.3-3.5,24.4-4.9-8.9.5-18,.5-26.7,2.2,7.6-3.5,15.5-6.4,23.3-9.6,8.6-1.5,17.5-2,26.2-2.7,2.5-.2,5.2-.3,7.7-.5-8.2-.2-16.5-1.4-24.7-.8-1,0-1.9.2-2.9.3,2.9-2.2,5.6-4.8,8.8-6.7,10.4-5.1,24.8-3,36.1-.6,11.1,2.8,20.4,9.6,29.5,16.3-2.3,0-4.7-.1-7.1-.2-10.2-.1-20.4-1-30.6-.3-6.9.5-13.8,1.3-20.7,1.8,17.8-.2,36,2.7,53.9,1.6ZM272.1,64.2c-2,12.7-1.6,25.6.2,38.4,1.2,10.3,4.3,20.3,7.6,30.2,1.1,3.4,2.2,6.9,3.3,10.2-.7-2.7-1.3-5.5-2-8.2-4.2-17.5-6.6-35.3-7.1-53.1,0-5.5.5-11,1.2-16.4.3-2.9.8-6,1.2-8.9,3.1,5.2,7,9.8,11.2,14.3,2.9,3.1,5.9,6.1,8.9,9.1,10.5,10.1,21,22.8,18.9,37.5-.3,2.6-.9,5.5-1.3,8.1-.6,2.7,0,5.5-.6,8.1-4.7.4-7.4,1.3-9,2.9,0-.4-.1-.8-.2-1.2-2.3-14.7-9.7-28.1-15.4-41.8,3.8,12.2,7.3,24.6,10.6,36.9,0,0,0,0,0,0,.8,3.2,1.6,6.3,2.2,9.5.3,1.1.5,2.1.7,3.2,0,1.2-.1,2.5-.2,4-.3,6.8.2,13.5,1.1,20.3.6,6.3,1.7,12.7.6,18.9-12.4-13.6-24.4-27.7-34.3-42.9-10.3-15.7-16.1-32.6-11.1-50.5,2.3-10.2,8.5-18.9,13.2-28.2,0,0,0-.2.1-.3ZM205.9,148.8c-1.5-6.9-3.2-13.9-4.9-20.8,1.1,1.8,2.2,3.5,3.4,5.2,7,9.5,16.6,17.4,22.4,27.7,5.5,9.3,8.4,20,7.9,30.5,0,3.1-.2,6.8-1.3,9.8-.1.3-.3.5-.6.6-.3.2-.7.2-1.1.3-.6,0-1.1.2-1.5.5-.4.2-.7.5-1,.8-4-14.4-11.5-27.9-17-41.9,3.5,11.4,6.3,23.2,10.9,34.3,1.7,4.2,3.2,8.5,4.6,12.9,0,3.3.2,6.6-.5,9.9-1.2,7.7-4.4,15.9-6.1,23.8-1.2,5.2-2.1,10.2-2.9,15.5-1.8-5.1-3.2-10.3-5-15.3-2.7-8.1-5.6-16.1-8.1-24.3,2.1,10,3.7,20.3,6.6,30.3,0,.3.2.7.3,1-4.5-7.2-8.6-14.6-11.8-22.3-3.2-7.6-5-15.8-9.9-22.7-1.5-2.6-4.3-4.1-5.9-6.6-3.2-6.9-4.4-14.5-5-21.9-1.1-20.4,4.8-40.8,16.1-57.9,0,.4-.2.8-.3,1-.9,3.1-1.7,6.3-2.4,9.5-3.9,20.6.4,41.8,5.6,62.2.8,3.2,1.5,6.5,2.3,9.7-3.2-22.3-7.8-44.9-5.5-67.3.4-3.3,1-6.6,1.6-9.9,1.4,8.1,7.4,20.4,9.1,25.4ZM27.6,111.3c1.7.4,3.4.7,5.1,1,18,4.1,36.4,6.7,54.9,5.8,3-.1,6.2-.1,9.1-.3-14.7-.8-29.4-2.9-44.1-5.2,1.6-1.6,1.7-4.1.9-6.1-1.5-2.5,1.4-3.4,3.5-3.9.4,0,.8-.2,1.2-.2.7,0,1.4,0,2.1,0,5.7,0,11.5.4,17.2,1.1,8.3,1,16.4,2.9,24.7,3.8,8.1,1,16.2,0,24.3-.5,2.1-.1,4.4-.2,6.4-.3-18.3.4-36.5-5.8-54.8-7.5,1.9-1.4,2.9-3.7,5-5,8.2-5.1,20.7-6.9,30.7-5.7,7.2,1,14,3.8,20.9,6.1,15.1,5.1,31.2,8.6,47.1,8.4-.4.2-.7.3-1,.4-4.4,1.7-8.9,3.2-13.5,4.6-8.7,2.6-17.8,4.4-26.8,6.2-9.6,2.1-19.1,4.4-28.8,6.3,15.5-1.6,31.2-3,46.3-6.6,5.7-1.5,11.5-3,17-5.2-6,4.3-11.9,8.6-18.3,12.3-11.2,6.6-22.5,13.2-34.7,18.2-21.5,8.5-41.7,10.2-65,5.7-.7-.3-1.6-.3-2.1-.9-.5-1.3-.7-2.7-1.8-3.8-2.2-2.6-5.2-4.3-8.2-6-5.8-3.2-11.6-6.3-17.3-9.7,10.3,3.6,21.4,5.1,32.1,4.9,3.9,0,7.8-.1,11.6-.1-3.7-.4-7.5-.7-11.3-1.2-12.3-1.5-24.7-4.1-36.1-9.1-5.7-2.6-10.8-6.1-16-9.5-.5-.3-1-.7-1.4-1,7,0,13.7,2.2,20.5,3.6Z"/>
</svg>