<svg id="Layer_1" data-name="Layer 1" xmlns="http://www.w3.org/2000/svg" viewBox="0 0 78.63 45.43"><defs><style>.cls-1,.cls-2{fill:#8bc53f;}.cls-2{fill-rule:evenodd;}</style></defs><path class="cls-1" d="M269.74,260.69H250.16l-6.06,6.06h22.13c1.25,0,3.09-1.44,4.06-3.18S270.92,260.69,269.74,260.69Z" transform="translate(-210.47 -226.98)"/><path class="cls-1" d="M278.88,251.55H259.29l-6.06,6.06h22.14c1.25,0,3.09-1.43,4.06-3.17S280.05,251.55,278.88,251.55Z" transform="translate(-210.47 -226.98)"/><path class="cls-1" d="M288,242.41H268.43l-6.06,6.06h22.14c1.24,0,3.09-1.43,4.05-3.17S289.19,242.41,288,242.41Z" transform="translate(-210.47 -226.98)"/><path class="cls-2" d="M229.67,257.27l28.45-28.46a6.27,6.27,0,0,1,8.87,8.87l-32.85,32.86,0,0a6.27,6.27,0,0,1-8.87,0l-1.19-1.18h0l-11.74-11.75a6.27,6.27,0,1,1,8.87-8.87Z" transform="translate(-210.47 -226.98)"/></svg>