<?xml version="1.0" encoding="utf-8"?>
<!-- Generator: Adobe Illustrator 26.0.1, SVG Export Plug-In . SVG Version: 6.00 Build 0)  -->
<svg version="1.1" id="Layer_1" xmlns="http://www.w3.org/2000/svg" xmlns:xlink="http://www.w3.org/1999/xlink" x="0px" y="0px"
	 viewBox="0 0 500 500" style="enable-background:new 0 0 500 500;" xml:space="preserve">
<style type="text/css">
	.st0{fill-rule:evenodd;clip-rule:evenodd;fill:#FFFFFF;}
</style>
<g>
	<path class="st0" d="M232.3,251.4l16.8-16.2c0.3-0.3,0.8-0.3,1.1,0l0,0l0,0l16.6,16.1l0,0l0.5,0.5c0.2,0.2,0.3,0.4,0.3,0.6h0v23.9
		c0,0.4-0.3,0.8-0.8,0.8h-34.4c-0.4,0-0.8-0.3-0.8-0.8v-24c0-0.2,0.1-0.5,0.3-0.6L232.3,251.4z"/>
	<path class="st0" d="M249.7,226.9l-23,21.8c-0.6,0.6-1.6,0.6-2.2-0.1c-0.6-0.6-0.6-1.6,0.1-2.2l24-22.8c0.6-0.6,1.5-0.6,2.1,0
		l24,22.8c0.6,0.6,0.6,1.6,0.1,2.2c-0.6,0.6-1.6,0.6-2.2,0.1L249.7,226.9z"/>
</g>
</svg>
