<svg id="Layer_3" data-name="Layer 3" xmlns="http://www.w3.org/2000/svg" viewBox="0 0 60.61 58.74" fill="currentColor"><defs><style>.cls-1{fill:#8bc53f;}</style></defs><path class="cls-1" d="M269.68,246.36,264,256.31a1.61,1.61,0,0,0,.09,1.94,1.09,1.09,0,0,0,.59.5,1.33,1.33,0,0,0,.75.26,1.78,1.78,0,0,0,1.78-.85l5.73-9.94V233.13a3.2,3.2,0,0,1,2.1-3.2,2.74,2.74,0,0,1,1.44-.34,2.92,2.92,0,0,1,1.43.34,3.21,3.21,0,0,1,2.11,3.2V254c0,2.11,0,2.19-1.27,4.47L272.47,269a9.9,9.9,0,0,1-.85,1.43,6,6,0,0,0-1.18,4v3.88a.84.84,0,0,1-.84.84H252.91a.9.9,0,0,1-.84-.84v-3.54h0v-9.61c0-2.44.08-2.61,1-4.3,3.45-5.9,6.91-12.39,10.53-18.12a3.41,3.41,0,0,1,3.46-1.77,4.36,4.36,0,0,1,1.35.5,6.16,6.16,0,0,1,1.1.93,3.4,3.4,0,0,1,.16,3.88Zm-20.06-22.59a14.2,14.2,0,0,1,7-3.29,7,7,0,0,1,4.8,1,7.5,7.5,0,0,1,3.12,3.37,9.62,9.62,0,0,1,.76,6c-.67,3.29-4.21,6.66-8.09,10.37a78.19,78.19,0,0,0-6.91,7.17.82.82,0,0,1-1.18.08l-.17-.08a69.89,69.89,0,0,0-6.91-7.17c-3.88-3.71-7.34-7.08-8-10.37a9.6,9.6,0,0,1,.67-6,8,8,0,0,1,3.12-3.37,7.25,7.25,0,0,1,4.89-1,13.62,13.62,0,0,1,6.91,3.29Zm-14.24,32.54-5.82-10a3.26,3.26,0,0,1,.17-3.79l.08-.09a3.64,3.64,0,0,1,1-.93h.09a3.66,3.66,0,0,1,1.35-.5,3.39,3.39,0,0,1,3.45,1.77l10.46,18.12c1,1.69,1.09,1.86,1.09,4.3v13.15a.9.9,0,0,1-.84.84H229.64a.9.9,0,0,1-.84-.84v-3.54h0v-.34a5.61,5.61,0,0,0-1.18-4c-.25-.42-.51-.84-.84-1.35l-6.16-10.7c-1.26-2.28-1.26-2.36-1.26-4.47V233.13a3.21,3.21,0,0,1,2.11-3.2,2.68,2.68,0,0,1,1.43-.34,3.1,3.1,0,0,1,1.43.34,3.21,3.21,0,0,1,2.11,3.2v15.09l5.73,9.94a1.71,1.71,0,0,0,1.69.85,1.19,1.19,0,0,0,.76-.26,1.3,1.3,0,0,0,.67-.5,1.77,1.77,0,0,0,.09-1.94Z" transform="translate(-219.36 -220.41)"/></svg>