<svg id="Layer_4" data-name="Layer 4" xmlns="http://www.w3.org/2000/svg" xmlns:xlink="http://www.w3.org/1999/xlink" viewBox="0 0 302.13 180.26"><defs><style>.cls-1{fill:#8bc53f;}.cls-2{fill:#00adee;}.cls-3{fill:#fff;}.cls-4{fill:url(#linear-gradient);}</style><linearGradient id="linear-gradient" x1="135.28" y1="316.37" x2="135.76" y2="335.1" gradientUnits="userSpaceOnUse"><stop offset="0.3" stop-color="#ffc132"/><stop offset="0.69" stop-color="#ffc132"/><stop offset="0.78" stop-color="#febb2f"/><stop offset="0.89" stop-color="#fbaa28"/><stop offset="1" stop-color="#f6921e"/></linearGradient></defs><path class="cls-1" d="M175.87,256c-1.17,0-2.38,0-3.59.13-3.62.26-7.21,1.68-8.51,3.38a2,2,0,0,0-.49,1.63c.2,1.13,1.64,1.78,3.94,1.78.37,0,.76,0,1.17-.05a35.41,35.41,0,0,0,16.1-6.12,50.68,50.68,0,0,0-8.62-.75m49.6-30.78,1.34,0a89.47,89.47,0,0,0,12.86-1.13c9.27-1.37,29.76-7.12,30.21-15.3a5,5,0,0,0-1.43-3.75c-1.75-1.81-5.16-2.84-9.34-2.84-.37,0-.74,0-1.11,0a28.56,28.56,0,0,0-13.06,3.95,12.54,12.54,0,0,1,2.51,4c1.1,2.6,1.06,5,.61,5.67a.7.7,0,0,1-.57.35h0c-.61,0-.79-.49-.94-.93a13.6,13.6,0,0,0-2.45-4.14,15.88,15.88,0,0,0-2.56-2.66c-4.79,3.4-10.06,8.89-16.07,16.74M215.3,200.3c-1,0-2.12,0-3.23.07-8.86.37-15.91,2.78-19.34,6.61a7.67,7.67,0,0,0-2.16,5.69v.14c.39,5.93,9.43,10.23,17.85,11.32a54.81,54.81,0,0,1,27.07-20c-5.61-2.52-12.4-3.79-20.2-3.79m10.43,72.46a97.54,97.54,0,0,1-17.56-6.62c-2.25-1-4.53-2.13-6.71-3.18-5.34-2.58-10.39-5-12.67-5.34-5.88,3.94-12.74,7.64-23,8.21-1,.06-2,.1-2.88.1-3.88,0-6.44-.6-7.6-1.78a2.32,2.32,0,0,1-.71-1.71c-.16-5.18,14.88-9.41,25.73-10.16,3-.21,5.51-.31,7.75-.31l2.11,0c4.29-4.23,7.35-9.82,10.31-15.22a86.24,86.24,0,0,1,6.35-10.44c-11.23-1.65-18.7-6.9-19.15-13.51v-.15A11.64,11.64,0,0,1,191,204.3c4.4-4.91,12.29-8,21.65-8.35.9,0,1.79,0,2.65,0a47.86,47.86,0,0,1,25.31,6.65,68.56,68.56,0,0,1,16-2.48c.68,0,1.37,0,2,0,7.88,0,14.39,1.88,17.41,5a6.26,6.26,0,0,1,1.87,4.68c-.74,12-32,16.44-38.23,17.22a106.59,106.59,0,0,1-12.44.76c-1.17,0-2.31,0-3.44-.06-8.5,12-20.73,20.58-28,25,2.81.72,7.87,2.73,14.42,5.33,1.89.75,3.9,1.55,6,2.37a123.22,123.22,0,0,0,16.51,5,83.43,83.43,0,0,0,16.07,1.8,48.88,48.88,0,0,0,21.67-5,3.88,3.88,0,0,1,1.65-.44,1.82,1.82,0,0,1,1.29.48,1,1,0,0,1,.33.88c-.1.75-1,1.27-2.4,2-11.18,5.72-23,9.22-29.39,9.58A47.94,47.94,0,0,1,225.73,272.76Z" transform="translate(-96.29 -160.14)"/><path class="cls-1" d="M175.87,256c-1.17,0-2.38,0-3.59.13-3.62.26-7.21,1.68-8.51,3.38a2,2,0,0,0-.49,1.63c.2,1.13,1.64,1.78,3.94,1.78.37,0,.76,0,1.17-.05a35.41,35.41,0,0,0,16.1-6.12,50.68,50.68,0,0,0-8.62-.75m49.6-30.78,1.34,0a89.47,89.47,0,0,0,12.86-1.13c9.27-1.37,29.76-7.12,30.21-15.3a5,5,0,0,0-1.43-3.75c-1.75-1.81-5.16-2.84-9.34-2.84-.37,0-.74,0-1.11,0a28.56,28.56,0,0,0-13.06,3.95,12.54,12.54,0,0,1,2.51,4c1.1,2.6,1.06,5,.61,5.67a.7.7,0,0,1-.57.35h0c-.61,0-.79-.49-.94-.93a13.6,13.6,0,0,0-2.45-4.14,15.88,15.88,0,0,0-2.56-2.66c-4.79,3.4-10.06,8.89-16.07,16.74M215.3,200.3c-1,0-2.12,0-3.23.07-8.86.37-15.91,2.78-19.34,6.61a7.67,7.67,0,0,0-2.16,5.69v.14c.39,5.93,9.43,10.23,17.85,11.32a54.81,54.81,0,0,1,27.07-20c-5.61-2.52-12.4-3.79-20.2-3.79m10.43,72.46a97.54,97.54,0,0,1-17.56-6.62c-2.25-1-4.53-2.13-6.71-3.18-5.34-2.58-10.39-5-12.67-5.34-5.88,3.94-12.74,7.64-23,8.21-1,.06-2,.1-2.88.1-3.88,0-6.44-.6-7.6-1.78a2.32,2.32,0,0,1-.71-1.71c-.16-5.18,14.88-9.41,25.73-10.16,3-.21,5.51-.31,7.75-.31l2.11,0c4.29-4.23,7.35-9.82,10.31-15.22a86.24,86.24,0,0,1,6.35-10.44c-11.23-1.65-18.7-6.9-19.15-13.51v-.15A11.64,11.64,0,0,1,191,204.3c4.4-4.91,12.29-8,21.65-8.35.9,0,1.79,0,2.65,0a47.86,47.86,0,0,1,25.31,6.65,68.56,68.56,0,0,1,16-2.48c.68,0,1.37,0,2,0,7.88,0,14.39,1.88,17.41,5a6.26,6.26,0,0,1,1.87,4.68c-.74,12-32,16.44-38.23,17.22a106.59,106.59,0,0,1-12.44.76c-1.17,0-2.31,0-3.44-.06-8.5,12-20.73,20.58-28,25,2.81.72,7.87,2.73,14.42,5.33,1.89.75,3.9,1.55,6,2.37a123.22,123.22,0,0,0,16.51,5,83.43,83.43,0,0,0,16.07,1.8,48.88,48.88,0,0,0,21.67-5,3.88,3.88,0,0,1,1.65-.44,1.82,1.82,0,0,1,1.29.48,1,1,0,0,1,.33.88c-.1.75-1,1.27-2.4,2-11.18,5.72-23,9.22-29.39,9.58A47.94,47.94,0,0,1,225.73,272.76Z" transform="translate(-96.29 -160.14)"/><path class="cls-1" d="M259.08,240.35c1.63-1.27,3.43-2.68,5.27-4.15,3.21-3.92,10.41-11.87,16.31-18,1.41-1.51,1.89-2.09,2-2.31l0-.16.29-.2c.1-.06.53-.38,2.32-1.92a17.07,17.07,0,0,1,10.17-4h.63c2.25,0,3.94.5,4.53,1.35l.31.45-.43.32c-2.51,1.85-3,2.45-8.1,8.16l-2.2,2.47c-9.58,10.62-20.53,24.08-21.52,27.32-.37,1-.32,1.59.14,1.78a1.89,1.89,0,0,0,.75.14,3.73,3.73,0,0,0,1.28-.25,33.23,33.23,0,0,0,7.09-4c1.89-1.35,5.05-3.85,6.81-5.34a2.94,2.94,0,0,1,1.63-.82,1.18,1.18,0,0,1,.75.26.82.82,0,0,1,.35.63c0,.57-.49,1-1.34,1.8l-.42.38a88.48,88.48,0,0,1-8,6.18c-4,2.68-9.31,5.8-15.74,6.07l-.8,0c-5.55,0-6.55-2.68-6.66-4.27-.16-2.45,1.58-5.5,3.64-8.19l0,0c-.86.73-2.35,2-2.35,2-1.93,1.67-5.09,4.22-7.08,5.61-5,3.48-9.31,5.69-15.18,5.94l-.91,0c-4,0-6.05-1.25-6.22-3.69A8.16,8.16,0,0,1,228.2,249a56.23,56.23,0,0,1,10.68-11.52v0c0-1,4.66-2.93,8.38-3.09,1,0,1.85-.07,2.57-.07,2.47,0,3.45.25,3.74,1s-.42,1.44-.73,1.74c-3.53,3.49-5.35,5.41-7.78,8.23a32,32,0,0,0-4.28,5.87c-.64,1.22-.66,1.77-.48,1.87a.78.78,0,0,0,.34.07,5.75,5.75,0,0,0,2.14-.69,35.39,35.39,0,0,0,6-3.75c1.93-1.42,8.9-7.1,10.31-8.2" transform="translate(-96.29 -160.14)"/><path class="cls-1" d="M296.44,224.16c-1.32,0-1.57-.53-1.6-.85-.06-.65.68-1.16,2-1.42,8.08-1.55,12.76-5,14.29-10.63l-.27,0a10.58,10.58,0,0,1-1.4.11,3.85,3.85,0,0,1-.48,0c-3.09-.27-5.17-2.45-5.06-5.3.12-3.34,2.32-5.42,5.76-5.42a7.57,7.57,0,0,1,.81,0c4.56.41,7.63,3.77,7.47,8.18-.38,10.55-14.32,14.12-20.3,15.16a7.39,7.39,0,0,1-1.25.12" transform="translate(-96.29 -160.14)"/><path class="cls-1" d="M296.44,224.16c-1.32,0-1.57-.53-1.6-.85-.06-.65.68-1.16,2-1.42,8.08-1.55,12.76-5,14.29-10.63l-.27,0a10.58,10.58,0,0,1-1.4.11,3.85,3.85,0,0,1-.48,0c-3.09-.27-5.17-2.45-5.06-5.3.12-3.34,2.32-5.42,5.76-5.42a7.57,7.57,0,0,1,.81,0c4.56.41,7.63,3.77,7.47,8.18-.38,10.55-14.32,14.12-20.3,15.16a7.39,7.39,0,0,1-1.25.12" transform="translate(-96.29 -160.14)"/><path class="cls-2" d="M194.45,160.24c-24.86,1.47-43.85,22.27-42.41,46.45a42.45,42.45,0,0,0,2.28,11.5,36.31,36.31,0,0,0-7.69-.6A44.79,44.79,0,0,0,135,218.82c-21.13,5.22-34.74,25.36-33,46.92a43.72,43.72,0,0,1,11.85,1.86c-2.74-16.85,7.54-33.21,24-37.27a32,32,0,0,1,8.6-.91l12.62.41,11,.67-4.44-16a31.82,31.82,0,0,1-1.68-8.49c-1-17.78,13-33.13,31.25-34.22A33.69,33.69,0,0,1,218,178.9a21.37,21.37,0,0,1,6.86,8.72,54.66,54.66,0,0,1,15.74,4.78C235.44,169.59,215.93,159,194.45,160.24Z" transform="translate(-96.29 -160.14)"/><path class="cls-3" d="M263.31,311.38h-4.68l-5.52-15.51-5.51,15.51h-4.68l-8.35-23.87h5.77l5.06,16.05,5.48-16.12h4.61L261,303.56,266,287.51h5.62Z" transform="translate(-96.29 -160.14)"/><path class="cls-3" d="M286.1,311.62c-7.54,0-13-5.45-13-12.19v-.07c0-6.74,5.48-12.26,13-12.26s13,5.45,13,12.19v.07C299.13,306.1,293.64,311.62,286.1,311.62Zm7.4-12.26a7.31,7.31,0,0,0-7.4-7.45,7.19,7.19,0,0,0-7.33,7.38v.07a7.31,7.31,0,0,0,7.4,7.45,7.19,7.19,0,0,0,7.33-7.38Z" transform="translate(-96.29 -160.14)"/><path class="cls-3" d="M318.74,311.21l-5.23-7.58h-4.23v7.58H303.9v-23.7h11.18c5.76,0,9.21,2.94,9.21,7.82v.07a7.39,7.39,0,0,1-5.23,7.35l6,8.46Zm.11-15.61c0-2.23-1.61-3.39-4.23-3.39h-5.34V299h5.45c2.62,0,4.12-1.35,4.12-3.35Z" transform="translate(-96.29 -160.14)"/><path class="cls-3" d="M344.92,311.21l-7.57-10.09L334.52,304v7.25h-5.38v-23.7h5.38v10.36l9.92-10.36h6.49L341,297.56l10.4,13.65Z" transform="translate(-96.29 -160.14)"/><path class="cls-3" d="M363,311.55a15.85,15.85,0,0,1-10.37-3.79l3.18-3.69a11.39,11.39,0,0,0,7.3,2.87c2.2,0,3.52-.84,3.52-2.23v-.07c0-1.32-.84-2-4.92-3-4.92-1.22-8.1-2.54-8.1-7.25v-.07c0-4.3,3.56-7.14,8.55-7.14a14.42,14.42,0,0,1,9.08,3l-2.79,3.93a11.69,11.69,0,0,0-6.36-2.34c-2.06,0-3.14.92-3.14,2.07v.07c0,1.56,1.05,2.06,5.27,3.11,5,1.26,7.76,3,7.76,7.11v.07C372,308.91,368.24,311.55,363,311.55Z" transform="translate(-96.29 -160.14)"/><path class="cls-2" d="M365.3,251.62a42.73,42.73,0,0,0-11.66-1.24c3-17-4.28-33-20.93-36.92a23.77,23.77,0,0,0-5.67-.7,21.9,21.9,0,0,1-6.56,11.35,20.7,20.7,0,0,1,6.44,0,21.06,21.06,0,0,1,15.35,24.27l-2.55,14.28,14.14-.46a32,32,0,0,1,8.6.91c17.3,4.28,27.79,22.23,23.4,40a33.64,33.64,0,0,1-13.62,19.73,32,32,0,0,1-17.86,5.68c-.05,0-.08,0-.13,0H158.72a24.62,24.62,0,0,1-8.33,11.76H351.91c1.35.07,2.69.06,4,0h.44v0c18.88-1.07,35.8-14.62,40.69-34.41C403,281.74,388.82,257.43,365.3,251.62Z" transform="translate(-96.29 -160.14)"/><path class="cls-4" d="M150.47,319.87a15.45,15.45,0,0,0-.17-2.27,15.09,15.09,0,0,1-29.83,0,14.19,14.19,0,0,0-.18,2.27c0,.15,0,.3,0,.45s0,.4,0,.61a15.09,15.09,0,0,0,30.18,0c0-.21,0-.41,0-.61S150.47,320,150.47,319.87Z" transform="translate(-96.29 -160.14)"/><path class="cls-2" d="M100.64,274.67q11.16,0,17.4,5.06,6.84,5.52,6.84,13.26T118,306.24q-6.24,5-17.4,5.06H96.29V274.67Zm1.58,4.83v27q7.07,0,11.58-3.64,5.1-4.08,5.1-9.86t-5.1-9.87Q109.29,279.51,102.22,279.5Z" transform="translate(-96.29 -160.14)"/><path class="cls-2" d="M135.05,290.93a11.26,11.26,0,0,1,8.16-3.78v4.92a8.65,8.65,0,0,0-5.16,1.67,7.16,7.16,0,0,0-3,5.45V311.3h-5.92V287.74h5.92Z" transform="translate(-96.29 -160.14)"/><path class="cls-2" d="M152.71,306c.81.71,2.28,1.06,4.41,1.06a8.22,8.22,0,0,0,5.91-2.38l1.24-1.42,4.83,1.69a31.92,31.92,0,0,1-2.57,3.18,13.45,13.45,0,0,1-18.8,0,12.88,12.88,0,0,1,0-18.45,13.54,13.54,0,0,1,17.66-1c.38.32.77.67,1.14,1,.16.16.6.64,1.33,1.45l-2.43,2.4Zm8.08-14.65c-.55-.41-1.77-.61-3.67-.61a8,8,0,0,0-5.87,2.39,7.78,7.78,0,0,0-2.44,5.78c0,1.85.21,3,.63,3.59Z" transform="translate(-96.29 -160.14)"/><path class="cls-2" d="M192.13,289.39v-1.65H197v23.58h-4.86v-2.95a11.09,11.09,0,0,1-8.12,3.55,12.94,12.94,0,0,1-9.4-3.82,12.85,12.85,0,0,1,0-18.42,12.93,12.93,0,0,1,9.4-3.81A11.09,11.09,0,0,1,192.13,289.39Zm0,11.24v-3.48a7.67,7.67,0,0,0-2.24-4,8.48,8.48,0,0,0-11.78,0,8,8,0,0,0,0,11.53,8.47,8.47,0,0,0,11.78,0A7.67,7.67,0,0,0,192.13,300.63Z" transform="translate(-96.29 -160.14)"/><path class="cls-2" d="M202.07,287.74h5.45v2.2c1-2.3,3.08-3.46,6.08-3.46s4.66,1.32,5,3.94c.86-2.62,3.23-3.94,7.11-3.94s5.74,2,5.74,6.07V311.3H226V294.73q0-3.48-3.24-3.48a3.46,3.46,0,0,0-2.31.82q-1,.82-1,5.54V311.3H214l0-16.57q0-3.48-3.26-3.48a3.47,3.47,0,0,0-2.32.82c-.56.47-.88,1.72-.95,3.75V311.3h-5.45Z" transform="translate(-96.29 -160.14)"/></svg>