<?xml version="1.0" encoding="utf-8"?>
<!-- Generator: Adobe Illustrator 26.0.3, SVG Export Plug-In . SVG Version: 6.00 Build 0)  -->
<svg version="1.1" xmlns="http://www.w3.org/2000/svg" xmlns:xlink="http://www.w3.org/1999/xlink" x="0px" y="0px"
	 viewBox="0 0 1201 138.2" style="enable-background:new 0 0 1201 138.2;" xml:space="preserve">
<style type="text/css">
	.st0{fill:#D31A6E;}
	.st1{fill:#04304D;}
	.st2{opacity:0.4;}
	.st3{fill:none;stroke:#29373B;stroke-width:3;}
	.st4{fill-rule:evenodd;clip-rule:evenodd;fill:url(#SVGID_1_);}
</style>
<g id="Layer_1">
	<g>
		<path class="st0" d="M675.1,32.6c0,4.2-0.5,8-1.6,11.3c-1.1,3.4-2.5,6.3-4.5,8.8c-1.9,2.5-4.1,4.5-6.7,6.1
			c-2.5,1.6-5.3,2.7-8.4,3.4c0.2,1.2,0.8,2.2,1.8,3c1,0.8,2.3,1.5,3.8,2.1c1.5,0.6,3.3,1,5.3,1.4c2,0.4,4.1,0.6,6.3,0.8l-2.4,8
			c-7.2-0.6-13-1.9-17.2-4.2c-4.3-2.2-7-5.7-8.1-10.5c-3.5-0.3-6.7-1.2-9.7-2.7c-3-1.5-5.6-3.4-7.9-6c-2.2-2.5-4-5.6-5.3-9.2
			c-1.3-3.6-1.9-7.7-1.9-12.3c0-5,0.8-9.4,2.3-13.1s3.6-7,6.2-9.5c2.6-2.6,5.6-4.5,9-5.8c3.4-1.3,7-1.9,10.8-1.9
			c3.8,0,7.4,0.6,10.8,1.9c3.4,1.3,6.4,3.2,8.9,5.8c2.5,2.6,4.6,5.8,6.1,9.5S675.1,27.6,675.1,32.6z M629.6,32.6
			c0,3.2,0.4,6.1,1.2,8.7c0.8,2.6,1.9,4.8,3.4,6.6c1.5,1.8,3.3,3.2,5.4,4.2c2.1,1,4.5,1.5,7.2,1.5c2.6,0,5-0.5,7.1-1.5
			c2.1-1,3.9-2.4,5.4-4.2c1.5-1.8,2.6-4,3.4-6.6c0.8-2.6,1.2-5.5,1.2-8.7c0-3.2-0.4-6.1-1.2-8.7c-0.8-2.6-1.9-4.8-3.4-6.6
			c-1.5-1.8-3.3-3.2-5.4-4.2c-2.1-1-4.5-1.5-7.1-1.5c-2.7,0-5.1,0.5-7.2,1.5c-2.1,1-3.9,2.4-5.4,4.3c-1.5,1.8-2.6,4.1-3.4,6.6
			C630,26.5,629.6,29.4,629.6,32.6z"/>
	</g>
	<g>
		<path class="st0" d="M709.1,63c-4,0-7.4-0.6-10.2-1.7s-5.2-2.8-7.1-4.8c-1.9-2.1-3.3-4.5-4.2-7.3c-0.9-2.8-1.3-5.9-1.3-9.2V3.6
			h10.7v35.4c0,2.6,0.3,4.9,0.9,6.8c0.6,1.9,1.4,3.4,2.5,4.6s2.4,2,3.9,2.6c1.5,0.6,3.2,0.8,5,0.8c1.8,0,3.5-0.3,5-0.8
			c1.5-0.6,2.8-1.4,3.9-2.6s1.9-2.7,2.5-4.6c0.6-1.9,0.9-4.1,0.9-6.8V3.6h10.7v36.4c0,3.4-0.5,6.4-1.4,9.2c-0.9,2.8-2.3,5.2-4.2,7.3
			c-1.9,2.1-4.3,3.7-7.2,4.8C716.5,62.5,713.1,63,709.1,63z"/>
	</g>
	<g>
		<path class="st0" d="M783.7,61.8c-0.8-2.3-1.6-4.6-2.4-6.8c-0.8-2.2-1.7-4.5-2.4-6.9h-24.6c-0.8,2.4-1.6,4.7-2.4,6.9
			c-0.8,2.3-1.6,4.5-2.4,6.8h-11c2.2-6.2,4.3-12,6.2-17.2c2-5.3,3.9-10.2,5.7-15c1.9-4.7,3.7-9.2,5.6-13.4c1.8-4.3,3.8-8.5,5.7-12.6
			h10.1c2,4.1,3.9,8.3,5.7,12.6c1.8,4.3,3.7,8.7,5.6,13.4s3.8,9.7,5.8,15c2,5.3,4.1,11,6.3,17.2H783.7z M766.5,14.8
			c-1.3,3-2.8,6.6-4.4,10.8c-1.7,4.3-3.4,8.9-5.2,13.9h19.2c-1.8-5-3.5-9.6-5.2-13.9C769.2,21.2,767.7,17.7,766.5,14.8z"/>
	</g>
	<g>
		<path class="st0" d="M841.6,61.8c-1.9-3.2-4-6.6-6.4-10.3c-2.4-3.7-4.8-7.4-7.3-11.1c-2.5-3.7-5.1-7.3-7.7-10.8
			c-2.6-3.5-5.1-6.6-7.4-9.5v41.7h-10.4V3.6h8.7c2.2,2.4,4.6,5.1,7.2,8.4c2.6,3.2,5.2,6.6,7.8,10c2.6,3.5,5.1,7,7.6,10.5
			c2.4,3.5,4.6,6.8,6.5,9.8V3.6h10.5v58.2H841.6z"/>
	</g>
	<g>
		<path class="st0" d="M905.1,3.6v9.2h-17.9v49.1h-10.7V12.7h-17.9V3.6H905.1z"/>
	</g>
	<g>
		<path class="st0" d="M935.6,63c-4,0-7.4-0.6-10.2-1.7s-5.2-2.8-7.1-4.8c-1.9-2.1-3.3-4.5-4.2-7.3c-0.9-2.8-1.3-5.9-1.3-9.2V3.6
			h10.7v35.4c0,2.6,0.3,4.9,0.9,6.8c0.6,1.9,1.4,3.4,2.5,4.6c1.1,1.2,2.4,2,3.9,2.6c1.5,0.6,3.2,0.8,5,0.8s3.5-0.3,5-0.8
			c1.5-0.6,2.8-1.4,3.9-2.6c1.1-1.2,1.9-2.7,2.5-4.6c0.6-1.9,0.9-4.1,0.9-6.8V3.6h10.7v36.4c0,3.4-0.5,6.4-1.4,9.2
			c-0.9,2.8-2.3,5.2-4.2,7.3c-1.9,2.1-4.3,3.7-7.2,4.8C943.1,62.5,939.6,63,935.6,63z"/>
	</g>
	<g>
		<path class="st0" d="M985,3.6c1.2,2.1,2.6,4.7,4.1,7.8c1.5,3.1,3.1,6.3,4.6,9.7c1.6,3.4,3.1,6.8,4.7,10.3c1.5,3.5,3,6.7,4.2,9.7
			c1.3-3,2.7-6.2,4.2-9.7c1.5-3.5,3.1-6.9,4.6-10.3c1.6-3.4,3.1-6.6,4.6-9.7c1.5-3.1,2.9-5.7,4.1-7.8h9.5c0.5,4.3,1,8.8,1.5,13.6
			c0.5,4.8,0.9,9.7,1.2,14.7c0.4,5,0.7,10.1,1,15.1c0.3,5.1,0.6,10,0.8,14.8h-10.4c-0.2-6.8-0.5-13.7-0.8-20.9
			c-0.3-7.2-0.8-14.1-1.4-20.8c-0.6,1.3-1.3,2.8-2.2,4.6c-0.8,1.8-1.7,3.7-2.7,5.8c-1,2.1-1.9,4.3-2.9,6.5c-1,2.2-1.9,4.4-2.9,6.5
			c-0.9,2.1-1.8,4.1-2.6,5.9c-0.8,1.8-1.5,3.4-2,4.7h-7.9c-0.6-1.3-1.2-2.9-2-4.7c-0.8-1.8-1.6-3.8-2.6-5.9
			c-0.9-2.1-1.9-4.3-2.9-6.5c-1-2.2-1.9-4.4-2.9-6.5c-1-2.1-1.8-4-2.7-5.8c-0.8-1.8-1.6-3.3-2.2-4.6c-0.6,6.7-1.1,13.7-1.4,20.8
			c-0.3,7.2-0.6,14.1-0.8,20.9h-10.4c0.2-4.8,0.5-9.8,0.8-15c0.3-5.2,0.7-10.3,1-15.3c0.4-5.1,0.8-10,1.2-14.7
			c0.5-4.8,0.9-9.2,1.5-13.2H985z"/>
	</g>
	<g>
		<path class="st1" d="M1085.7,61.8c-1.9-3.2-4-6.6-6.4-10.3c-2.4-3.7-4.8-7.4-7.3-11.1c-2.5-3.7-5.1-7.3-7.7-10.8
			c-2.6-3.5-5.1-6.6-7.4-9.5v41.7h-10.4V3.6h8.7c2.2,2.4,4.6,5.1,7.2,8.4c2.6,3.2,5.2,6.6,7.8,10c2.6,3.5,5.1,7,7.6,10.5
			c2.4,3.5,4.6,6.8,6.5,9.8V3.6h10.5v58.2H1085.7z"/>
	</g>
	<g>
		<path class="st1" d="M1108.7,61.8V3.6h37.4v9h-26.8v14.4h23.9v8.8h-23.9v17.1h28.8v9H1108.7z"/>
	</g>
	<g>
		<path class="st1" d="M1198.5,3.6v9.2h-17.9v49.1h-10.7V12.7H1152V3.6H1198.5z"/>
	</g>
	<g>
		<path class="st1" d="M638.1,137.6c-2.7,0-5.1-0.4-7.3-1.3c-2.2-0.9-4.1-2.2-5.7-3.8s-2.8-3.8-3.7-6.2c-0.9-2.5-1.3-5.3-1.3-8.5
			s0.5-6,1.5-8.5c1-2.5,2.3-4.6,3.9-6.2c1.6-1.7,3.6-3,5.8-3.8c2.2-0.9,4.5-1.3,7-1.3c1.6,0,3,0.1,4.3,0.3c1.3,0.2,2.4,0.5,3.3,0.8
			c0.9,0.3,1.7,0.6,2.3,0.9c0.6,0.3,1,0.5,1.2,0.7l-1.5,4.4c-0.3-0.2-0.8-0.5-1.4-0.7c-0.6-0.3-1.3-0.5-2.1-0.8
			c-0.8-0.3-1.7-0.5-2.6-0.6s-1.9-0.2-2.8-0.2c-2,0-3.8,0.3-5.4,1c-1.6,0.7-3,1.7-4.1,3c-1.1,1.3-2,2.9-2.6,4.8
			c-0.6,1.9-0.9,4-0.9,6.4c0,2.3,0.3,4.3,0.8,6.2c0.5,1.9,1.3,3.5,2.4,4.8c1.1,1.3,2.4,2.4,4,3.1c1.6,0.7,3.5,1.1,5.6,1.1
			c2.5,0,4.5-0.3,6.1-0.8c1.6-0.5,2.8-1,3.6-1.4l1.4,4.4c-0.3,0.2-0.7,0.4-1.4,0.7c-0.7,0.3-1.5,0.5-2.5,0.8c-1,0.3-2.1,0.5-3.5,0.7
			C641.1,137.5,639.7,137.6,638.1,137.6z"/>
	</g>
	<g>
		<path class="st1" d="M660.3,117.7c0-3.3,0.5-6.1,1.5-8.6c1-2.5,2.3-4.6,4-6.2c1.7-1.7,3.6-2.9,5.8-3.8c2.2-0.8,4.6-1.3,7.1-1.3
			c2.5,0,4.8,0.4,7,1.3c2.2,0.8,4.1,2.1,5.7,3.8c1.6,1.7,3,3.8,3.9,6.2s1.5,5.4,1.5,8.6c0,3.3-0.5,6.1-1.5,8.6
			c-1,2.5-2.3,4.6-3.9,6.2c-1.7,1.7-3.6,2.9-5.7,3.8c-2.2,0.8-4.5,1.3-7,1.3c-2.5,0-4.8-0.4-7.1-1.3c-2.2-0.8-4.2-2.1-5.8-3.8
			c-1.7-1.7-3-3.7-4-6.2C660.8,123.8,660.3,120.9,660.3,117.7z M665.9,117.7c0,2.3,0.3,4.4,0.9,6.3c0.6,1.9,1.4,3.5,2.5,4.8
			c1.1,1.3,2.4,2.3,4,3.1c1.6,0.7,3.3,1.1,5.3,1.1c1.9,0,3.7-0.4,5.2-1.1c1.5-0.7,2.8-1.7,3.9-3.1c1.1-1.3,1.9-2.9,2.5-4.8
			c0.6-1.9,0.9-4,0.9-6.3s-0.3-4.4-0.9-6.3c-0.6-1.9-1.4-3.5-2.5-4.8c-1.1-1.3-2.4-2.3-3.9-3.1c-1.5-0.7-3.3-1.1-5.2-1.1
			c-1.9,0-3.7,0.4-5.3,1.1c-1.6,0.7-2.9,1.7-4,3.1c-1.1,1.3-1.9,2.9-2.5,4.8C666.2,113.3,665.9,115.4,665.9,117.7z"/>
	</g>
	<g>
		<path class="st1" d="M728.9,131.5c-0.4-0.9-0.9-2-1.5-3.4c-0.6-1.4-1.3-2.8-2-4.4c-0.7-1.6-1.4-3.2-2.2-4.9
			c-0.8-1.7-1.5-3.2-2.2-4.7c-0.7-1.5-1.3-2.8-2-4c-0.6-1.2-1.1-2.1-1.5-2.7c-0.4,4.3-0.7,9-1,14.1c-0.3,5-0.5,10.1-0.7,15.3h-5.2
			c0.1-3.3,0.3-6.6,0.5-10c0.2-3.4,0.4-6.7,0.6-9.9c0.2-3.2,0.5-6.4,0.8-9.5c0.3-3.1,0.6-6,0.9-8.7h4.7c1,1.6,2.1,3.5,3.2,5.7
			c1.1,2.2,2.3,4.5,3.4,6.9s2.2,4.8,3.3,7.2c1.1,2.4,2,4.6,2.9,6.6c0.9-2,1.9-4.2,2.9-6.6c1.1-2.4,2.2-4.8,3.3-7.2s2.3-4.7,3.4-6.9
			c1.1-2.2,2.2-4.1,3.2-5.7h4.7c1.2,12.3,2.2,25,2.8,38.1h-5.2c-0.2-5.1-0.4-10.2-0.7-15.3c-0.3-5-0.6-9.7-1-14.1
			c-0.4,0.6-0.9,1.5-1.5,2.7c-0.6,1.2-1.3,2.5-2,4c-0.7,1.5-1.4,3.1-2.2,4.7c-0.8,1.7-1.5,3.3-2.2,4.9c-0.7,1.6-1.3,3-2,4.4
			c-0.6,1.4-1.1,2.5-1.5,3.4H728.9z"/>
	</g>
	<g>
		<path class="st1" d="M784,131.5c-0.4-0.9-0.9-2-1.5-3.4s-1.3-2.8-2-4.4c-0.7-1.6-1.4-3.2-2.2-4.9c-0.8-1.7-1.5-3.2-2.2-4.7
			c-0.7-1.5-1.3-2.8-2-4c-0.6-1.2-1.1-2.1-1.5-2.7c-0.4,4.3-0.7,9-1,14.1c-0.3,5-0.5,10.1-0.7,15.3h-5.2c0.1-3.3,0.3-6.6,0.5-10
			c0.2-3.4,0.4-6.7,0.6-9.9c0.2-3.2,0.5-6.4,0.8-9.5s0.6-6,0.9-8.7h4.7c1,1.6,2.1,3.5,3.2,5.7c1.1,2.2,2.3,4.5,3.4,6.9
			c1.1,2.4,2.2,4.8,3.3,7.2c1.1,2.4,2,4.6,2.9,6.6c0.9-2,1.9-4.2,2.9-6.6c1.1-2.4,2.2-4.8,3.3-7.2c1.1-2.4,2.3-4.7,3.4-6.9
			c1.1-2.2,2.2-4.1,3.2-5.7h4.7c1.2,12.3,2.2,25,2.8,38.1h-5.2c-0.2-5.1-0.4-10.2-0.7-15.3c-0.3-5-0.6-9.7-1-14.1
			c-0.4,0.6-0.9,1.5-1.5,2.7c-0.6,1.2-1.3,2.5-2,4c-0.7,1.5-1.4,3.1-2.2,4.7c-0.8,1.7-1.5,3.3-2.2,4.9c-0.7,1.6-1.3,3-2,4.4
			s-1.1,2.5-1.5,3.4H784z"/>
	</g>
	<g>
		<path class="st1" d="M836.1,137.6c-2.5,0-4.7-0.4-6.5-1.2c-1.8-0.8-3.3-1.8-4.5-3.2c-1.2-1.3-2-2.9-2.6-4.8
			c-0.6-1.8-0.9-3.8-0.9-5.9V98.6h5.3V122c0,3.8,0.8,6.6,2.5,8.3c1.7,1.7,3.9,2.6,6.6,2.6c1.4,0,2.6-0.2,3.7-0.6
			c1.1-0.4,2.1-1.1,2.9-2s1.4-2,1.9-3.4c0.4-1.4,0.7-3,0.7-4.9V98.6h5.3v23.9c0,2.1-0.3,4.1-0.9,5.9c-0.6,1.8-1.4,3.4-2.6,4.8
			c-1.2,1.3-2.7,2.4-4.5,3.2C840.8,137.2,838.6,137.6,836.1,137.6z"/>
	</g>
	<g>
		<path class="st1" d="M893,136.8c-0.8-1.4-1.7-2.9-2.8-4.6c-1-1.7-2.2-3.4-3.4-5.3c-1.2-1.8-2.5-3.7-3.8-5.5
			c-1.3-1.9-2.6-3.7-3.9-5.4c-1.3-1.7-2.5-3.4-3.7-4.9s-2.3-2.9-3.4-4.1v29.8h-5.2V98.6h4.2c1.7,1.8,3.6,4,5.5,6.4
			c2,2.4,3.9,4.9,5.8,7.5c1.9,2.6,3.7,5.1,5.4,7.6s3.1,4.7,4.3,6.7V98.6h5.2v38.1H893z"/>
	</g>
	<g>
		<path class="st1" d="M914.1,98.6h5.3v38.1h-5.3V98.6z"/>
	</g>
	<g>
		<path class="st1" d="M952.4,137.6c-2.7,0-5.1-0.4-7.3-1.3c-2.2-0.9-4.1-2.2-5.7-3.8c-1.6-1.7-2.8-3.8-3.7-6.2
			c-0.9-2.5-1.3-5.3-1.3-8.5s0.5-6,1.5-8.5c1-2.5,2.3-4.6,3.9-6.2c1.7-1.7,3.6-3,5.8-3.8c2.2-0.9,4.5-1.3,7-1.3c1.6,0,3,0.1,4.3,0.3
			c1.3,0.2,2.4,0.5,3.3,0.8c0.9,0.3,1.7,0.6,2.3,0.9c0.6,0.3,1,0.5,1.2,0.7l-1.5,4.4c-0.3-0.2-0.8-0.5-1.4-0.7
			c-0.6-0.3-1.3-0.5-2.1-0.8c-0.8-0.3-1.6-0.5-2.6-0.6s-1.9-0.2-2.8-0.2c-2,0-3.8,0.3-5.4,1c-1.6,0.7-3,1.7-4.1,3s-2,2.9-2.6,4.8
			c-0.6,1.9-0.9,4-0.9,6.4c0,2.3,0.3,4.3,0.8,6.2s1.3,3.5,2.4,4.8c1.1,1.3,2.4,2.4,4,3.1c1.6,0.7,3.5,1.1,5.6,1.1
			c2.5,0,4.5-0.3,6.1-0.8c1.6-0.5,2.8-1,3.6-1.4l1.4,4.4c-0.3,0.2-0.7,0.4-1.4,0.7c-0.7,0.3-1.5,0.5-2.5,0.8c-1,0.3-2.1,0.5-3.5,0.7
			S954,137.6,952.4,137.6z"/>
	</g>
	<g>
		<path class="st1" d="M1004,136.8c-0.6-1.7-1.2-3.3-1.8-4.9c-0.5-1.6-1.1-3.2-1.7-4.9h-17.3l-3.5,9.7h-5.6c1.5-4,2.8-7.8,4.1-11.2
			c1.3-3.4,2.5-6.7,3.8-9.8c1.2-3.1,2.4-6,3.7-8.8c1.2-2.8,2.5-5.6,3.8-8.3h4.9c1.3,2.8,2.6,5.5,3.8,8.3c1.2,2.8,2.4,5.7,3.7,8.8
			s2.5,6.3,3.8,9.8c1.3,3.4,2.7,7.2,4.1,11.2H1004z M999,122.6c-1.2-3.2-2.3-6.3-3.5-9.3s-2.4-5.9-3.6-8.6c-1.3,2.8-2.5,5.6-3.7,8.6
			s-2.3,6.1-3.4,9.3H999z"/>
	</g>
	<g>
		<path class="st1" d="M1044.1,98.6v4.6h-12v33.5h-5.3v-33.5h-12v-4.6H1044.1z"/>
	</g>
	<g>
		<path class="st1" d="M1056.8,98.6h5.3v38.1h-5.3V98.6z"/>
	</g>
	<g>
		<path class="st1" d="M1077.2,117.7c0-3.3,0.5-6.1,1.5-8.6s2.3-4.6,4-6.2c1.7-1.7,3.6-2.9,5.8-3.8c2.2-0.8,4.6-1.3,7.1-1.3
			c2.5,0,4.8,0.4,7,1.3c2.2,0.8,4.1,2.1,5.7,3.8c1.7,1.7,3,3.8,3.9,6.2s1.5,5.4,1.5,8.6c0,3.3-0.5,6.1-1.5,8.6
			c-1,2.5-2.3,4.6-3.9,6.2c-1.6,1.7-3.6,2.9-5.7,3.8c-2.2,0.8-4.5,1.3-7,1.3c-2.5,0-4.8-0.4-7.1-1.3c-2.2-0.8-4.2-2.1-5.8-3.8
			c-1.7-1.7-3-3.7-4-6.2C1077.7,123.8,1077.2,120.9,1077.2,117.7z M1082.8,117.7c0,2.3,0.3,4.4,0.9,6.3c0.6,1.9,1.4,3.5,2.5,4.8
			c1.1,1.3,2.4,2.3,4,3.1c1.6,0.7,3.3,1.1,5.3,1.1c1.9,0,3.7-0.4,5.2-1.1c1.5-0.7,2.9-1.7,3.9-3.1c1.1-1.3,1.9-2.9,2.5-4.8
			c0.6-1.9,0.9-4,0.9-6.3s-0.3-4.4-0.9-6.3c-0.6-1.9-1.4-3.5-2.5-4.8c-1.1-1.3-2.4-2.3-3.9-3.1c-1.5-0.7-3.3-1.1-5.2-1.1
			c-1.9,0-3.7,0.4-5.3,1.1c-1.6,0.7-2.9,1.7-4,3.1c-1.1,1.3-1.9,2.9-2.5,4.8C1083.1,113.3,1082.8,115.4,1082.8,117.7z"/>
	</g>
	<g>
		<path class="st1" d="M1154.8,136.8c-0.8-1.4-1.7-2.9-2.8-4.6c-1-1.7-2.2-3.4-3.4-5.3c-1.2-1.8-2.5-3.7-3.8-5.5
			c-1.3-1.9-2.6-3.7-3.9-5.4c-1.3-1.7-2.5-3.4-3.7-4.9c-1.2-1.5-2.3-2.9-3.4-4.1v29.8h-5.2V98.6h4.2c1.7,1.8,3.6,4,5.5,6.4
			c2,2.4,3.9,4.9,5.8,7.5s3.7,5.1,5.4,7.6s3.1,4.7,4.3,6.7V98.6h5.2v38.1H1154.8z"/>
	</g>
	<g>
		<path class="st1" d="M1184.8,133c5.6,0,8.4-1.9,8.4-5.7c0-1.2-0.2-2.2-0.7-3c-0.5-0.8-1.2-1.5-2-2.1c-0.8-0.6-1.8-1.1-2.9-1.6
			c-1.1-0.4-2.2-0.9-3.4-1.3c-1.4-0.5-2.7-1-4-1.6c-1.2-0.6-2.3-1.3-3.2-2.1c-0.9-0.8-1.6-1.8-2.2-2.9c-0.5-1.1-0.8-2.5-0.8-4.1
			c0-3.3,1.1-5.9,3.4-7.8c2.3-1.9,5.4-2.8,9.4-2.8c2.3,0,4.4,0.2,6.3,0.7c1.9,0.5,3.3,1,4.2,1.6l-1.7,4.3c-0.8-0.5-1.9-0.9-3.4-1.4
			c-1.5-0.5-3.3-0.7-5.3-0.7c-1,0-2,0.1-2.9,0.3s-1.7,0.5-2.3,1c-0.7,0.4-1.2,1-1.6,1.7c-0.4,0.7-0.6,1.5-0.6,2.4
			c0,1,0.2,1.9,0.6,2.6c0.4,0.7,1,1.3,1.7,1.8c0.7,0.5,1.6,1,2.6,1.5c1,0.4,2,0.9,3.2,1.3c1.7,0.7,3.2,1.3,4.5,2s2.6,1.4,3.6,2.4
			c1,0.9,1.8,2,2.3,3.3c0.5,1.3,0.8,2.8,0.8,4.6c0,3.3-1.2,5.9-3.7,7.7c-2.4,1.8-5.9,2.7-10.3,2.7c-1.5,0-2.9-0.1-4.2-0.3
			c-1.3-0.2-2.4-0.4-3.4-0.7c-1-0.3-1.8-0.6-2.6-0.9c-0.7-0.3-1.3-0.6-1.7-0.8l1.6-4.4c0.8,0.5,2.1,1,3.8,1.6
			C1180.2,132.7,1182.3,133,1184.8,133z"/>
	</g>
	<g>
		<path class="st1" d="M296.5,135.8c-8.5-15.1-17.7-30-27.5-44.7c-9.9-14.7-20.4-28.6-31.5-41.6v86.3h-29.3V4.1h24.1
			c4.2,4.2,8.8,9.3,13.9,15.4c5.1,6.1,10.2,12.6,15.5,19.5c5.3,6.9,10.5,14.1,15.7,21.5c5.2,7.4,10.1,14.5,14.6,21.4V4.1h29.4v131.7
			H296.5z"/>
	</g>
	<g>
		<path class="st1" d="M347.1,135.8V4.1H436V29h-59.3v25.8h52.6v24.3h-52.6v31.7h63.7v24.9H347.1z"/>
	</g>
	<g>
		<path class="st1" d="M555.1,4.1v25.3h-39.7v106.4h-29.6V29.4h-39.7V4.1H555.1z"/>
	</g>
	<g class="st2">
		<line class="st3" x1="585" y1="137.8" x2="585" y2="2.8"/>
	</g>
</g>
<g id="Layer_2">
	<g id="Layer_3">
		<linearGradient id="SVGID_1_" gradientUnits="userSpaceOnUse" x1="94.8581" y1="143.0926" x2="94.8581" y2="7.2586">
			<stop  offset="0" style="stop-color:#B80B8A"/>
			<stop  offset="0.3237" style="stop-color:#C7147B"/>
			<stop  offset="0.9478" style="stop-color:#EF2B53"/>
			<stop  offset="1" style="stop-color:#F32D4F"/>
		</linearGradient>
		<path class="st4" d="M120.8,35.1L120.8,35.1l-60.3-0.1l0,0H31.1c-7.6,0-14.6-4-18.4-10.6C7.2,14.9,0,2.4,0,2.4h118.5
			c0.5,0,1,0,1.5,0h0.8l0,0c33.2,0.7,65.9,23.4,65.9,68.2c0,15.6-3.9,28.5-10.5,38.9l13.5,22.3v4.3h-34.2l-3.2-6
			C112.6,151.3,52,131.2,52,70.6c0-1.7,0.1-3.3,0.2-5h-7.9c-4.8,0-9.2-2.6-11.6-6.7c-3.9-6.7-9.3-16.1-9.3-16.1h33.5l0,0h41.1l0,0
			L98,42.9C91.2,48.7,86.5,58,86.5,70.6c0,47.7,65.7,47.7,65.7,0C152.2,47.6,136.8,35.8,120.8,35.1L120.8,35.1z"/>
	</g>
</g>
</svg>
