<?xml version="1.0" encoding="utf-8"?>
<!-- Generator: Adobe Illustrator 27.0.1, SVG Export Plug-In . SVG Version: 6.00 Build 0)  -->
<svg version="1.1" id="Layer_1" xmlns="http://www.w3.org/2000/svg" xmlns:xlink="http://www.w3.org/1999/xlink" x="0px" y="0px"
	 viewBox="0 0 72 72" style="enable-background:new 0 0 72 72;" xml:space="preserve">
<style type="text/css">
	.st0{fill-rule:evenodd;clip-rule:evenodd;fill:#21829F;}
</style>
<g>
	<g>
		<g>
			<path class="st0" d="M41.2,42l2.1,3.6l3.5-2l-2-3.6l4.8-1.3L36.1,29l1.7,16.6L41.2,42z M3.3,14.5h4c5.8-0.1,9.2,2.4,10.3,7.5
				l0.5,2.3h48.1c0,6,0,12,0,18c0,0,0,0,0,0.1c0,1.5-0.6,2.9-1.6,4.1c0,0-0.1,0.1-0.1,0.1c0,0-0.1,0.2-0.4,0.4
				c-0.4,0.5-1.2,1-2.4,1.4l0,0c-0.4,0.2-0.9,0.3-1.3,0.3h0c-1.1,0.1-10.3,1.1-27.6,3h0c-2.5,0.3-5.1,0.5-7.9,0.8l0.4,1.8
				c2.3,0,4.2,0.8,5.9,2.4c1.2,1.2,1.9,2.5,2.3,4.1c5.5,0,10.9,0,16.4,0c0.3-1.6,1.1-2.9,2.3-4.1l0,0c1.6-1.6,3.6-2.5,6-2.4h0
				c2.3,0,4.3,0.8,5.9,2.4c1.2,1.2,2,2.6,2.3,4.1h1.4c0.5,0,1,0.2,1.4,0.6c0.4,0.4,0.6,0.8,0.6,1.4c0,0.5-0.2,1-0.6,1.4
				c-0.4,0.4-0.8,0.6-1.4,0.5h-1.4c-0.3,1.5-1.1,2.9-2.3,4.1c0,0,0,0,0,0c-1.6,1.7-3.6,2.5-5.9,2.5c-2.4,0-4.4-0.8-6-2.5l0,0
				c-1.2-1.2-1.9-2.5-2.2-4H33.4c-0.3,1.5-1.1,2.9-2.3,4.1c0,0,0,0,0,0c-1.6,1.7-3.6,2.5-5.9,2.5c-2.4,0-4.4-0.8-6-2.5l0,0
				c-1.6-1.6-2.5-3.6-2.5-6c0-2.3,0.8-4.3,2.5-6l0,0c0.7-0.7,1.5-1.3,2.4-1.7l0,0l-7.6-32.3h0c-0.8-3.1-3-4.6-6.6-4.5c0,0,0,0,0,0
				h-4c-0.5,0-1-0.2-1.4-0.6c-0.4-0.4-0.6-0.8-0.6-1.3c0-0.5,0.2-1,0.6-1.4C2.3,14.6,2.7,14.5,3.3,14.5z M29.8,62.8
				c0-1.3-0.5-2.4-1.4-3.3c-0.9-0.9-2-1.4-3.3-1.4c-1.3,0-2.4,0.5-3.3,1.4c-0.9,0.9-1.4,2-1.4,3.3c0,1.3,0.5,2.4,1.4,3.3
				c0.9,0.9,2,1.4,3.3,1.4c1.3,0,2.4-0.5,3.3-1.4C29.4,65.2,29.8,64.1,29.8,62.8z M62.7,62.8c0-1.3-0.4-2.4-1.4-3.3
				c-0.9-0.9-2-1.4-3.3-1.4c-1.3,0-2.4,0.5-3.3,1.4c-0.4,0.4-0.8,0.9-1,1.4c-0.3,0.6-0.4,1.2-0.4,1.9c0,1.3,0.4,2.4,1.4,3.3
				c0.9,0.9,2,1.4,3.3,1.4c1.3,0,2.4-0.5,3.3-1.4C62.3,65.2,62.7,64.1,62.7,62.8z"/>
		</g>
		<g>
			<path class="st0" d="M27,11.9c-1.2,1.9-1.9,3.9-2.2,6.2h13.2v-4.8c-3.4-0.3-6.5-1.5-9.3-3.5C28,10.4,27.5,11.1,27,11.9L27,11.9
				C27,11.8,27,11.9,27,11.9z M20.7,20c0-5.3,1.9-9.8,5.6-13.6c3.8-3.7,8.3-5.6,13.6-5.6c5.3,0,9.8,1.9,13.6,5.6
				c3.7,3.7,5.6,8.3,5.6,13.6c0,0.7,0,1.3-0.1,2c-12.7,0-25.5,0-38.2,0C20.8,21.3,20.7,20.7,20.7,20z M52.7,11.7
				c-0.5-0.7-1-1.3-1.5-1.9c-2.7,2-5.8,3.2-9.3,3.5V18H55c-0.3-2.3-1-4.4-2.3-6.2v0C52.8,11.7,52.7,11.7,52.7,11.7z M41.9,9.3
				c2.3-0.3,4.3-1,6.2-2.2c-1.9-1.2-3.9-1.9-6.2-2.2V9.3z M37.9,4.9c-2.3,0.3-4.3,1-6.2,2.2c1.9,1.2,3.9,1.9,6.2,2.2V4.9z"/>
		</g>
	</g>
</g>
</svg>
