<?xml version="1.0" encoding="utf-8"?>
<!-- Generator: Adobe Illustrator 27.0.1, SVG Export Plug-In . SVG Version: 6.00 Build 0)  -->
<svg version="1.1" id="Layer_1" xmlns="http://www.w3.org/2000/svg" xmlns:xlink="http://www.w3.org/1999/xlink" x="0px" y="0px"
	 viewBox="0 0 44.6 72" style="enable-background:new 0 0 44.6 72;" xml:space="preserve">
<style type="text/css">
	.st0{fill-rule:evenodd;clip-rule:evenodd;fill:#21829F;}
</style>
<g>
	<g>
		<g>
			<path class="st0" d="M38.1,2c1.1,0,2.1,0.4,2.9,1.2c0.8,0.8,1.2,1.7,1.2,2.8v29.7c-0.3,0-0.6-0.1-0.9-0.1c-0.6,0-1.2,0.1-1.8,0.3
				c-0.2-0.4-0.5-0.8-0.9-1.1l0,0c-0.4-0.4-0.9-0.8-1.4-1V6.9H5.7v51.9h8c0.1,0.4,0.2,0.7,0.3,1.1c1.2,4.3,2.9,7.1,5.3,8.4v3.2
				c0,0.1,0,0.1,0,0.2H4.9c-1.1,0-2.1-0.4-2.9-1.2c-0.8-0.8-1.2-1.7-1.2-2.9V6.1C0.9,4.9,1.2,4,2,3.2C2.8,2.4,3.8,2,4.9,2H38.1z"/>
		</g>
		<g>
			<path class="st0" d="M21.5,22.1c1,0,1.9,0.4,2.6,1.1c0.7,0.7,1.1,1.6,1.1,2.6v10h0c0.1-0.7,0.4-1.3,0.9-1.9
				c0.6-0.6,1.4-0.9,2.3-0.9c0.9,0,1.6,0.3,2.3,0.9c0.6,0.6,0.9,1.4,0.9,2.3v2h0c0.1-0.7,0.4-1.3,0.9-1.9c0.6-0.6,1.4-0.9,2.3-0.9
				c0.9,0,1.6,0.3,2.3,0.9c0.6,0.6,0.9,1.4,0.9,2.3v2h0c0.1-0.7,0.4-1.3,0.9-1.8c0.6-0.6,1.4-0.9,2.3-0.9c0.9,0,1.6,0.3,2.3,0.9
				c0.6,0.6,0.9,1.4,0.9,2.3v15.5c0.1,5.3-1.2,8.7-3.9,10.3v4.9h-19v-0.2h0v-4.6c-2.4-0.8-4.2-3.4-5.4-7.6c-1.1-4.2-2.9-7.4-5.3-9.5
				l-1-1c-0.8-0.7-1.2-1.6-1.3-2.6c-0.1-1,0.2-1.9,0.9-2.6c0.7-0.7,1.5-1.1,2.5-1.1c1,0,1.9,0.4,2.7,1.1l3.1,2.8V25.8
				c0-1,0.4-1.9,1.1-2.6C19.6,22.4,20.4,22.1,21.5,22.1z"/>
		</g>
	</g>
</g>
</svg>
