<?xml version="1.0" encoding="utf-8"?>
<!-- Generator: Adobe Illustrator 27.0.1, SVG Export Plug-In . SVG Version: 6.00 Build 0)  -->
<svg version="1.1" id="Layer_1" xmlns="http://www.w3.org/2000/svg" xmlns:xlink="http://www.w3.org/1999/xlink" x="0px" y="0px"
	 viewBox="0 0 72 72" style="enable-background:new 0 0 72 72;" xml:space="preserve">
<style type="text/css">
	.st0{fill:#21829F;}
</style>
<g>
	<path class="st0" d="M60.5,27.3c1.1,2.9,1.7,6.1,1.7,9.4c0,14.8-12.1,26.9-26.9,26.9c-14.8,0-26.9-12.1-26.9-26.9
		c0-14.8,12.1-26.9,26.9-26.9c3.2,0,6.3,0.6,9.2,1.6l5.5-5.5c-4.5-2.1-9.5-3.3-14.7-3.3C16.5,2.5,1.2,17.8,1.2,36.6
		c0,18.8,15.3,34.1,34.1,34.1c18.8,0,34.1-15.3,34.1-34.1c0-5.3-1.2-10.4-3.4-14.9L60.5,27.3z"/>
	<path class="st0" d="M35.3,25c0.6,0,1.2,0.1,1.8,0.1l5.2-5.2c-2.1-0.9-4.5-1.4-6.9-1.4c-9.9,0-18,8.1-18,18c0,9.9,8.1,18,18,18
		c9.9,0,18-8.1,18-18c0-2.5-0.5-4.8-1.4-7l-5.1,5.1c0.1,0.6,0.2,1.2,0.2,1.8c0,6.4-5.2,11.6-11.6,11.6c-6.4,0-11.6-5.2-11.6-11.6
		C23.7,30.2,28.9,25,35.3,25z"/>
	<path class="st0" d="M33.7,35c-0.4,0.4-0.7,1-0.7,1.7c0,0.6,0.2,1.2,0.7,1.7c0.4,0.4,1,0.7,1.7,0.7c0.6,0,1.2-0.2,1.7-0.7
		l11.5-11.5l10.1-5.1l13-12.9l-6.7-1.7l-1.7-6.7L50.3,13.2l-5,10.1L33.7,35z"/>
</g>
</svg>
