<?xml version="1.0" encoding="utf-8"?>
<!-- Generator: Adobe Illustrator 27.0.1, SVG Export Plug-In . SVG Version: 6.00 Build 0)  -->
<svg version="1.1" id="Layer_1" xmlns="http://www.w3.org/2000/svg" xmlns:xlink="http://www.w3.org/1999/xlink" x="0px" y="0px"
	 viewBox="0 0 72 44.9" style="enable-background:new 0 0 72 44.9;" xml:space="preserve">
<style type="text/css">
	.st0{fill:#21829F;}
</style>
<g>
	<path class="st0" d="M63.3,10.3C57,5.6,46.8,1,36.2,1S15.4,5.6,9.1,10.3c-5,3.7-8.9,9.4-8.9,12.3c0,2.9,4.9,9,8.9,12.5
		c6.2,5.5,15.6,9.1,27.1,9.1c11.5,0,20.9-3.6,27.1-9.1c4-3.5,8.9-9.6,8.9-12.5C72.2,19.7,68.3,14,63.3,10.3z M36.2,37.9
		c-8.5,0-15.3-6.9-15.3-15.3c0-8.4,6.9-15.3,15.3-15.3s15.3,6.9,15.3,15.3C51.5,31.1,44.7,37.9,36.2,37.9z"/>
	<path class="st0" d="M36.2,14.2c-0.8,0-1.6,0.1-2.3,0.3c1.6,0.7,2.8,2.2,2.8,4.1c0,2.4-2,4.4-4.4,4.4c-1.9,0-3.4-1.1-4.1-2.8
		c-0.2,0.7-0.3,1.5-0.3,2.3c0,4.7,3.8,8.4,8.4,8.4c4.7,0,8.4-3.8,8.4-8.4C44.7,17.9,40.9,14.2,36.2,14.2z"/>
</g>
</svg>
