<?xml version="1.0" encoding="utf-8"?>
<!-- Generator: Adobe Illustrator 27.0.1, SVG Export Plug-In . SVG Version: 6.00 Build 0)  -->
<svg version="1.1" id="Layer_1" xmlns="http://www.w3.org/2000/svg" xmlns:xlink="http://www.w3.org/1999/xlink" x="0px" y="0px"
	 viewBox="0 0 72 42.6" style="enable-background:new 0 0 72 42.6;" xml:space="preserve">
<style type="text/css">
	.st0{fill:#21829F;}
</style>
<path class="st0" d="M71.5,13.3c-0.2-0.5-0.7-1.5-2.5-1.5h-8.1c-0.2,0-0.5-0.2-0.5-0.4l-2.5-7.7c-0.6-1.7-1.8-1.9-2.2-1.9
	c-0.5,0-1.7,0.2-2.2,1.9l-2.5,7.7c0,0.1-0.3,0.4-0.5,0.4h-8.1c-0.1,0-0.2,0-0.3,0l-0.9-2.7c-0.9-2.8-3.1-3.8-4.8-3.8
	c-1.7,0-3.9,1-4.8,3.8l-0.9,2.7c-0.1,0-0.2,0-0.3,0h-8.1c-0.2,0-0.4-0.2-0.5-0.4l-2.5-7.7C18.7,2,17.5,1.8,17,1.8
	c-0.5,0-1.7,0.2-2.2,1.9l-2.5,7.7c0,0.1-0.3,0.4-0.5,0.4H3.7c-1.8,0-2.4,1.1-2.5,1.5C1,13.8,0.8,15,2.3,16l6.6,4.8
	c0.1,0.1,0.2,0.4,0.2,0.6l-2.5,7.7c-0.4,1.2-0.1,2,0.2,2.4c0.4,0.5,1,0.9,1.7,0.9c0.6,0,1.1-0.2,1.7-0.6l6.6-4.8
	c0,0,0.1-0.1,0.3-0.1c0.2,0,0.3,0,0.3,0.1l6.5,4.8c0.1,0.1,0.2,0.1,0.2,0.2l-0.9,2.8c-0.8,2.4,0.1,4.1,0.6,4.8c0.9,1.2,2.3,2,3.9,2
	c1.1,0,2.2-0.4,3.3-1.1l5.3-3.9l5.3,3.9c1,0.8,2.2,1.1,3.3,1.1c1.5,0,3-0.7,3.9-2c0.6-0.8,1.4-2.4,0.6-4.8l-0.9-2.8
	c0.1,0,0.2-0.1,0.2-0.2l6.5-4.8c0,0,0.1-0.1,0.3-0.1c0.2,0,0.3,0,0.3,0.1l6.6,4.8c0.6,0.4,1.1,0.6,1.7,0.6c0.7,0,1.3-0.3,1.7-0.9
	c0.3-0.4,0.6-1.2,0.2-2.4l-2.5-7.7c0-0.1,0.1-0.5,0.2-0.6l6.6-4.8C71.8,15,71.6,13.8,71.5,13.3z M50.3,21.3L43.7,26
	c-0.6,0.4-0.9,1.4-0.7,2.1l2.5,7.8c0.2,0.5,0.2,0.9,0,1.2c-0.1,0.2-0.3,0.3-0.6,0.3c-0.3,0-0.6-0.1-0.9-0.4l-6.6-4.8
	c-0.6-0.4-1.7-0.4-2.2,0L28.6,37c-0.7,0.5-1.2,0.5-1.5,0.1c-0.2-0.3-0.2-0.7,0-1.2l2.5-7.8c0.2-0.7-0.1-1.7-0.7-2.1l-6.6-4.8
	c-0.7-0.5-0.7-0.9-0.6-1.2c0.1-0.3,0.4-0.6,1.2-0.6h8.2c0.7,0,1.6-0.6,1.8-1.3l2.5-7.8c0.3-0.8,0.7-1,1-1s0.7,0.2,1,1l2.5,7.8
	c0.2,0.7,1.1,1.3,1.8,1.3h8.2c0.9,0,1.1,0.3,1.2,0.6C51.1,20.3,51,20.8,50.3,21.3z"/>
</svg>
