<?xml version="1.0" encoding="utf-8"?>
<!-- Generator: Adobe Illustrator 27.0.1, SVG Export Plug-In . SVG Version: 6.00 Build 0)  -->
<svg version="1.1" id="Layer_1" xmlns="http://www.w3.org/2000/svg" xmlns:xlink="http://www.w3.org/1999/xlink" x="0px" y="0px"
	 viewBox="0 0 72 72" style="enable-background:new 0 0 72 72;" xml:space="preserve">
<style type="text/css">
	.st0{fill:#21829F;}
</style>
<g>
	<path class="st0" d="M36,41.5c11.4,0,20.6-9.1,20.6-20.4C56.6,9.9,47.4,0.7,36,0.7c-11.4,0-20.6,9.1-20.6,20.4
		C15.4,32.4,24.6,41.5,36,41.5z M39.1,24.7c-0.4-0.5-1.2-1.1-2.4-1.6c-2.4-1.1-4.1-2-4.9-2.6c-0.9-0.7-1.5-1.4-1.9-2.2
		c-0.4-0.8-0.6-1.7-0.6-2.6c0-1.5,0.6-2.8,1.7-3.9c1.1-1.1,2.5-1.7,4.3-1.7V7.6H38v2.6c1,0.2,1.8,0.5,2.5,0.9c0.7,0.4,1.5,1.1,2.4,2
		L40,16c-1.3-1.4-2.7-2.1-4-2.1c-0.8,0-1.4,0.2-1.9,0.6c-0.5,0.4-0.7,0.9-0.7,1.4c0,0.5,0.2,0.9,0.6,1.3c0.4,0.5,1.3,0.9,2.5,1.5
		c2.3,0.9,3.8,1.7,4.7,2.4c0.8,0.7,1.5,1.4,1.9,2.4c0.4,0.9,0.7,1.9,0.7,3.1c0,1.1-0.2,2.2-0.7,3.2c-0.5,1-1.1,1.7-1.8,2.3
		c-0.8,0.6-1.8,1-3.3,1.3v2.5h-2.9v-2.4c-1.3-0.2-2.5-0.5-3.4-1c-1.3-0.7-2.5-1.6-3.6-2.8l2.9-3c1.9,2,3.7,3,5.4,3
		c0.9,0,1.6-0.3,2.3-0.9c0.6-0.6,1-1.3,1-2.2C39.7,25.8,39.5,25.2,39.1,24.7z"/>
	<path class="st0" d="M17,54.5c-2.5-0.9-1.7-2.5-1.3-3c0.1-0.1,0.1-0.1,0.2-0.2c2.2-2.3,4.3-11.5-3-11.5c-7.3,0-5,9.3-2.8,11.5
		c0.1,0.1,0.1,0.1,0.2,0.2c0.4,0.6,1.2,2.2-1.2,3l0,0c-3.2,0.6-7.6,2.4-8.1,8.2h24.3C24.7,56.9,20.2,55.1,17,54.5z"/>
	<path class="st0" d="M56.1,51.2c0.1,0.1,0.1,0.1,0.2,0.2c0.4,0.6,1.2,2.2-1.3,3c-3.2,0.6-7.7,2.4-8.3,8.2H71
		c-0.5-5.8-4.9-7.6-8.1-8.2l0,0c-2.5-0.9-1.6-2.5-1.2-3c0.1-0.1,0.1-0.1,0.2-0.2c2.2-2.3,4.4-11.5-2.8-11.5
		C51.8,39.7,53.9,49,56.1,51.2z"/>
	<path class="st0" d="M40,63.2L40,63.2c-2.5-0.9-1.6-2.5-1.2-3.1c0.1-0.1,0.1-0.1,0.2-0.2c2.2-2.3,4.4-11.5-2.8-11.5
		c-7.3,0-5.2,9.3-3,11.5c0.1,0.1,0.1,0.1,0.2,0.2c0.4,0.6,1.2,2.2-1.3,3c-3.2,0.6-7.7,2.4-8.3,8.2h24.3C47.7,65.7,43.2,63.9,40,63.2
		z"/>
</g>
</svg>
