<?xml version="1.0" encoding="utf-8"?>
<!-- Generator: Adobe Illustrator 27.0.1, SVG Export Plug-In . SVG Version: 6.00 Build 0)  -->
<svg version="1.1" id="Layer_1" xmlns="http://www.w3.org/2000/svg" xmlns:xlink="http://www.w3.org/1999/xlink" x="0px" y="0px"
	 viewBox="0 0 72 52.1" style="enable-background:new 0 0 72 52.1;" xml:space="preserve">
<style type="text/css">
	.st0{fill:#21829F;}
</style>
<g>
	<path class="st0" d="M13.4,7.3h45.9v31.6h6.1V6.6c0-3.1-2.5-5.7-5.7-5.7H13C9.9,1,7.3,3.5,7.3,6.6v32.3h6.1V7.3z"/>
	<path class="st0" d="M44.9,43.3v0.5c0,1.3-1.1,2.4-2.4,2.4H30.2c-1.3,0-2.4-1.1-2.4-2.4v-0.5H1.2v4.3c0,2.3,1.9,4.2,4.2,4.2h62
		c2.3,0,4.2-1.9,4.2-4.2v-4.3H44.9z"/>
	<path class="st0" d="M52.2,18.6c2.2,0,3.9-1.7,3.9-3.9c0-2.2-1.7-3.9-3.9-3.9c-2.2,0-3.9,1.7-3.9,3.9c0,0.7,0.2,1.3,0.5,1.8
		l-6.3,7.2c-0.4-0.1-0.8-0.2-1.3-0.2c-0.8,0-1.5,0.2-2.1,0.6l-4.4-3.2c0.1-0.3,0.1-0.6,0.1-1c0-2.2-1.7-3.9-3.9-3.9
		c-2.2,0-3.9,1.7-3.9,3.9c0,0.7,0.2,1.4,0.5,2l-5.4,6.7c-0.4-0.1-0.7-0.2-1.2-0.2c-2.2,0-3.9,1.7-3.9,3.9c0,2.2,1.7,3.9,3.9,3.9
		c2.2,0,3.9-1.7,3.9-3.9c0-0.7-0.2-1.4-0.5-2l5.4-6.7c0.4,0.1,0.7,0.2,1.2,0.2c0.8,0,1.5-0.2,2.1-0.6l4.4,3.2
		c-0.1,0.3-0.1,0.6-0.1,1c0,2.2,1.7,3.9,3.9,3.9c2.2,0,3.9-1.7,3.9-3.9c0-0.7-0.2-1.3-0.5-1.8l6.3-7.2
		C51.3,18.5,51.7,18.6,52.2,18.6z"/>
</g>
</svg>
