<?xml version="1.0" encoding="utf-8"?>
<!-- Generator: Adobe Illustrator 27.0.1, SVG Export Plug-In . SVG Version: 6.00 Build 0)  -->
<svg version="1.1" id="Layer_1" xmlns="http://www.w3.org/2000/svg" xmlns:xlink="http://www.w3.org/1999/xlink" x="0px" y="0px"
	 viewBox="0 0 72 72" style="enable-background:new 0 0 72 72;" xml:space="preserve">
<style type="text/css">
	.st0{fill-rule:evenodd;clip-rule:evenodd;fill:#21829F;}
</style>
<g>
	<g>
		<g>
			<path class="st0" d="M65.5,1.7c0.7,0,1.3,0.3,1.8,0.8c0.5,0.5,0.7,1,0.8,1.7v42.1c0,0.1,0,0.1,0,0.2c0,0.6-0.3,1.2-0.8,1.6
				c-0.5,0.5-1,0.7-1.6,0.8h-58c-0.7,0-1.3-0.3-1.8-0.8c-0.5-0.5-0.8-1.1-0.8-1.8V4.3c0-0.7,0.3-1.3,0.8-1.8C6.3,2,6.9,1.7,7.7,1.7
				H65.5z M62.9,6.8c-17.6,0-35.2,0-52.8,0l0,0l0,33c17.6,0,35.2,0,52.8,0V6.8L62.9,6.8z M35.2,42.9c-0.4,0.4-0.5,0.8-0.5,1.4
				s0.2,1,0.5,1.3c0.4,0.4,0.8,0.6,1.3,0.6h0.1c0.5,0,0.9-0.2,1.3-0.6c0.4-0.4,0.6-0.8,0.6-1.3s-0.2-1-0.6-1.4
				c-0.4-0.4-0.8-0.5-1.3-0.5S35.6,42.6,35.2,42.9z"/>
		</g>
		<g>
			<polygon class="st0" points="43,32 38.2,34.8 35.4,29.8 30.5,34.8 28.2,11.9 46.9,25.3 40.2,27.1 			"/>
		</g>
		<g>
			<path class="st0" d="M32.9,51.4h7.3c-0.2,4.4,4.4,6.8,14,7.4v3.5H18.8v-3.5C28.4,58.3,33.1,55.8,32.9,51.4z"/>
		</g>
		<g>
			<path class="st0" d="M61.4,58.7c1.2-1,2.6-1.5,4.2-1.5c1.6,0,3,0.5,4.2,1.5c1.2,1,1.8,2.2,1.8,3.7h-12
				C59.7,60.9,60.2,59.7,61.4,58.7z"/>
		</g>
		<g>
			<polygon class="st0" points="71.6,69.5 71.6,72.1 1.5,72.1 1.5,69.5 6,65 67.1,65 			"/>
		</g>
	</g>
</g>
</svg>
