<?xml version="1.0" encoding="utf-8"?>
<!-- Generator: Adobe Illustrator 27.0.1, SVG Export Plug-In . SVG Version: 6.00 Build 0)  -->
<svg version="1.1" id="Layer_1" xmlns="http://www.w3.org/2000/svg" xmlns:xlink="http://www.w3.org/1999/xlink" x="0px" y="0px"
	 viewBox="0 0 1000.5 965.7" style="enable-background:new 0 0 1000.5 965.7;" xml:space="preserve">
<style type="text/css">
	.st0{opacity:9.000000e-02;enable-background:new    ;}
	.st1{fill:#E5F2FF;}
	.st2{fill:#1B5075;}
	.st3{fill:#00304D;}
	.st4{fill:#1F829F;}
	.st5{fill:#FFFFFF;}
	.st6{fill:#FFFF00;}
	.st7{fill:#A2B245;}
	.st8{fill:#44AAB5;}
	.st9{fill:#D9E9FF;}
</style>
<g id="image">
	<path class="st0" d="M445.1,926.5L243.8,810.2c-5.6-3.2-6.3-8.2-1.4-11l420.2-242.7c4.9-2.8,13.5-2.4,19.1,0.8l201.4,116.3
		c5.6,3.2,6.3,8.2,1.4,11L464.2,927.3C459.3,930.1,450.8,929.7,445.1,926.5z"/>
	<g>
		<path class="st1" d="M165.4,331.9c0,0.1,0,0.3,0,0.4c0,0,0.1,2,0.1,3.4l1.8,67.2c0,0.1,0,0.1,0,0.2l0,0c0,0.1,0,0.1,0,0.1
			c0,0.1,0,0.3,0,0.4c0,0.2,0,0.3,0,0.5v0.1l0,0l0,0c0,0.2,0,0.3,0,0.4s0,0.3,0,0.4c0,0,0.1,2,0.1,3.4l6.8,288.9
			c0,3.5,2.4,5.7,4.8,7.9l15,11c0.5,0.3,0.6-3.6-0.2-5.5l4.2,5.5c1.1,0.6-3.1-8-3.1-9.4l-1.8-66.3l3.1,2.8c1.1,0.6-3.1-8-3.1-9.4
			l-5.9-219.5c0-0.1,0-0.2,0-0.3s0.1-0.3,0.1-0.4c0.1-0.3,0.1-0.6,0.2-0.9v-0.1c0-0.3,0.1-0.6,0.2-0.9v-0.1c0.1-0.2,0.2-0.5,0.3-0.8
			v-0.1c0.1-0.2,0.2-0.5,0.3-0.8c0.1,0,0.1-0.1,0.1-0.1c0.1-0.2,0.3-0.5,0.4-0.8c0.1,0,0.1-0.1,0.1-0.1c0.1-0.3,0.2-0.6,0.4-0.9V408
			c0.2-0.3,0.3-0.6,0.5-0.9c0-0.1,0-0.1,0-0.1c0.2-0.3,0.3-0.5,0.5-0.8c0-0.1,0.1-0.1,0.1-0.2c0.1-0.2,0.3-0.4,0.4-0.6
			c0.1-0.1,0.1-0.2,0.2-0.3c0.1-0.2,0.2-0.3,0.3-0.4c0.1-0.2,0.3-0.4,0.4-0.6s0.3-0.3,0.4-0.5c0.1-0.1,0.2-0.3,0.3-0.4
			c0.2-0.2,0.4-0.5,0.6-0.7l0.1-0.1c0.3-0.2,0.5-0.5,0.7-0.7l0.1-0.1c0.2-0.3,0.5-0.5,0.7-0.7l0.1-0.1c0.3-0.3,0.5-0.5,0.8-0.7l0,0
			l0,0c0.3-0.2,0.5-0.4,0.8-0.6c0.1-0.1,0.1-0.1,0.2-0.2c0.2-0.2,0.3-0.3,0.5-0.4s0.3-0.2,0.5-0.3c0.2-0.1,0.3-0.2,0.5-0.3
			s3.7-2.1,3.7-2.1l-8.2-4.4c0.2-0.1,0.4-0.2,0.4-0.2l-7.5-4l-1.2-43c0-0.5,0-0.8,0-0.8c0-0.1,0-0.3,0-0.4c0-0.2,0-0.4,0-0.6
			s0-0.3,0-0.5c0.1-0.2,0.1-0.3,0.1-0.5s0.1-0.3,0.1-0.5c0-0.1,0.1-0.3,0.1-0.4c0.1-0.3,0.1-0.6,0.2-0.9v-0.1c0-0.3,0.1-0.6,0.2-0.9
			v-0.1c0.1-0.2,0.2-0.5,0.3-0.8V338c0.1-0.2,0.2-0.5,0.3-0.8c0.1,0,0.1-0.1,0.1-0.1c0.1-0.2,0.3-0.5,0.4-0.8c0.1,0,0.1-0.1,0.1-0.1
			c0.1-0.3,0.2-0.6,0.4-0.9v-0.1c0.2-0.3,0.3-0.6,0.5-0.9c0-0.1,0-0.1,0-0.1c0.2-0.3,0.3-0.5,0.5-0.8c0-0.1,0.1-0.1,0.1-0.2
			c0.1-0.2,0.3-0.4,0.4-0.6c0.1-0.1,0.1-0.2,0.2-0.3c0.1-0.2,0.2-0.3,0.3-0.4c0.1-0.2,0.3-0.4,0.4-0.6s0.3-0.3,0.4-0.5
			c0.1-0.1,0.2-0.3,0.3-0.4c0.2-0.2,0.4-0.5,0.6-0.7l0.1-0.1c0.3-0.2,0.5-0.5,0.7-0.7l0.1-0.1c0.2-0.3,0.5-0.5,0.7-0.7l0.1-0.1
			c0.3-0.3,0.5-0.5,0.8-0.7l0,0l0,0c0.3-0.2,0.5-0.4,0.8-0.6c0.1-0.1,0.1-0.1,0.2-0.2c0.2-0.2,0.3-0.3,0.5-0.4s0.3-0.2,0.5-0.3
			c0.2-0.1,0.3-0.2,0.5-0.3c0.2-0.1,12.5-6.7,12.5-6.7l-0.4-0.3c0,0,483.8-274.3,483.9-274.3c0.3,0.1-19.3-13.1-19.3-13.1
			c-0.3-0.1-0.6-0.3-1-0.4h-0.1c-0.1,0-0.1,0-0.1,0c-0.3-0.1-0.6-0.2-0.9-0.2c-0.1,0-0.1,0-0.1,0s-0.1,0-0.2,0c-0.1,0-0.2,0-0.4,0
			H670c-0.1,0-0.2,0-0.3,0s-0.2,0-0.3,0s-0.1,0-0.1,0c-0.2,0-0.4,0-0.6,0l0,0l0,0c-0.2,0-0.4,0.1-0.6,0.1H668c-0.1,0-0.1,0-0.2,0
			c0,0-0.1,0-0.2,0c-0.2,0-0.3,0.1-0.5,0.1l0,0l0,0l0,0c-0.1,0.1-0.3,0.1-0.5,0.2s-0.3,0.1-0.5,0.2s-0.3,0.1-0.5,0.2
			c-0.2,0-0.3,0.1-0.5,0.2c-0.2,0-0.3,0.1-0.5,0.2s-0.3,0.2-0.5,0.3c-0.1,0-0.8,0.4-1.3,0.7l0,0l-0.7,0.4l0,0L188.9,306.2l0,0
			c-0.1,0-11.8,6.8-11.8,6.8c-0.2,0.1-0.3,0.2-0.5,0.3c-0.1,0.1-0.2,0.1-0.3,0.2l0,0l0,0l-0.1,0.1c-0.2,0.1-0.3,0.2-0.5,0.3
			c-0.2,0.1-0.3,0.2-0.4,0.3s-0.1,0.1-0.1,0.1c-0.1,0-0.1,0-0.1,0c-0.2,0.1-0.3,0.3-0.5,0.4s-0.3,0.3-0.5,0.4l0,0l0,0
			c-0.2,0.1-0.3,0.3-0.5,0.4s-0.4,0.3-0.5,0.4S173,316,173,316c-0.1,0.1-0.1,0.1-0.1,0.1c-0.1,0.1-0.2,0.2-0.3,0.3
			c-0.1,0.1-0.3,0.3-0.4,0.4s-0.1,0.1-0.2,0.2l-0.1,0.1c-0.1,0.1-0.1,0.1-0.2,0.2c-0.1,0.2-0.3,0.3-0.4,0.5c0,0.1-0.1,0.2-0.2,0.3
			l-0.1,0.1l-0.1,0.1c-0.3,0.2-0.5,0.5-0.7,0.8l0,0c-0.1,0-0.1,0.1-0.2,0.2c-0.2,0.2-0.3,0.5-0.5,0.7l-0.1,0.1
			c-0.1,0.1-0.1,0.2-0.2,0.3s-0.2,0.3-0.3,0.4c-0.1,0.2-0.2,0.3-0.3,0.5c0,0.1,0,0.1,0,0.1l0,0c-0.1,0.1-0.2,0.3-0.3,0.4
			s-0.2,0.3-0.3,0.4c0,0.1-0.1,0.1-0.1,0.2v0.1c0,0.1-0.1,0.1-0.1,0.2s-0.1,0.3-0.2,0.4c-0.1,0.2-0.1,0.3-0.2,0.5c0,0.1,0,0.1,0,0.1
			c0,0.1,0,0.1,0,0.1c-0.1,0.2-0.1,0.3-0.2,0.4c-0.1,0.2-0.1,0.3-0.2,0.5c0,0.1-0.1,0.2-0.1,0.3v0.1c-0.1,0-0.1,0.1-0.1,0.1
			c-0.1,0.2-0.1,0.3-0.2,0.5s-0.1,0.3-0.2,0.5l0,0l0,0c-0.1,0.2-0.1,0.3-0.2,0.5s-0.2,0.3-0.2,0.5c0,0.1,0,0.1,0,0.2v0.1
			c-0.1,0-0.1,0.1-0.1,0.2c0,0.2-0.1,0.3-0.1,0.5c-0.1,0.2-0.1,0.3-0.1,0.4s0,0.1,0,0.1c0,0.1,0,0.1,0,0.1c0,0.2-0.1,0.3-0.1,0.5
			c-0.1,0.2-0.1,0.3-0.1,0.5l0,0c0,0.1,0,0.1,0,0.1c0,0.1,0,0.3,0,0.4c0,0.2,0,0.3,0,0.5c0,0,0,0.1,0,0.2l0,0l0,0
			C165.5,331.1,165.4,331.3,165.4,331.9z"/>
		<g>
			<path class="st1" d="M682.8,117.7c6.6-3.8,12.1-1.7,12.3,4.8l7.9,293.6c0.2,6.4-5,14.8-11.6,18.6L204.7,715.8
				c-6.6,3.8-12.1,1.7-12.3-4.8l-7.9-293.5c-0.2-6.4,5-14.8,11.6-18.6L682.8,117.7z"/>
		</g>
		<g>
			<g>
				<path class="st2" d="M682.4,83.5c6.6-3.8,12.1-1.7,12.3,4.8l7.9,293.6c0.2,6.4-5,14.8-11.6,18.6L204.2,681.7
					c-6.6,3.8-12.6,1.8-12.8-4.7l-6.7-305.8c-0.2-6.4,4.4-2.7,11-6.5L682.4,83.5z"/>
			</g>
		</g>
		<g>
			<path class="st2" d="M682.5,44.9c6.6-3.8,12.1-1.7,12.3,4.8l7.4,316.3c0.2,6.5-4.6-7.9-11.2-4.1L204.2,643.1
				c-6.6,3.8-12.6,1.8-12.8-4.7l-7.3-293.7c-0.2-6.4,5-14.8,11.6-18.6L682.5,44.9z"/>
		</g>
		<path class="st3" d="M206.3,608c0,0.7,0.1,1.3,0.3,1.9l1.4,35.5c0.2,5.4,5.4,7,11.7,3.4l455.6-258.9c6.2-3.5,13.3-13.5,13.1-18.9
			l-6.3-246.6c0-0.7-0.1-1.3-0.3-1.9l-1.4-35.6c-0.2-5.4-5.4-7-11.7-3.4l-461.2,262c-6.2,3.6-11.1,10.9-10.9,16.3L206.3,608z"/>
		<path class="st3" d="M202.4,735.8c0,2.5,1.8,5,5.4,7.1l233.9,134.8c6.5,3.7,16.5,3.8,22.1,0.5l488.1-282.5
			c1.9-1.1,3.1-2.4,3.6-5.5l0.6-14.2l-4.3,1.8l-30.9-15v3.2L717.6,449.3c-6.5-3.7-17.8-4.2-23.4-0.9l-469,270.8l-4,9.3l-18.7-12
			L202.4,735.8L202.4,735.8z"/>
		<path class="st1" d="M442,858.4l-233.9-135c-6.5-3.8-7.2-9.5-1.6-12.8l488.1-281.8c5.6-3.3,15.6-2.9,22.1,0.9l233.9,135
			c6.5,3.8,7.2,9.5,1.6,12.8L464.1,859.3C458.4,862.6,448.5,862.2,442,858.4z"/>
		<g>
			<g>
				<g>
					<path class="st4" d="M667.8,469.7c-0.7-0.5-0.4-1.3,0.7-1.9l29.6-17.1c1-0.6,2.5-0.8,3.2-0.4l19.6,11.3
						c0.7,0.4,0.4,1.3-0.7,1.9l-29.6,17.1c-1,0.6-2.5,0.8-3.2,0.4L667.8,469.7z"/>
					<path class="st4" d="M633.4,520.7c-0.7-0.4-0.4-1.3,0.7-1.9l29.6-17.1c1.1-0.6,2.5-0.8,3.2-0.4l19.6,11.3
						c0.8,0.5,0.5,1.3-0.6,1.9l-29.6,17.1c-1.1,0.7-2.5,0.8-3.2,0.4L633.4,520.7z"/>
					<path class="st4" d="M650.8,541.9c-0.7-0.4-0.4-1.3,0.7-1.9l29.6-17.1c1-0.6,2.5-0.8,3.2-0.4l19.6,11.3
						c0.7,0.5,0.4,1.3-0.7,1.9l-29.6,17.1c-1,0.6-2.5,0.8-3.2,0.4L650.8,541.9z"/>
					<path class="st4" d="M697.9,546c-0.7-0.5-0.5-1.3,0.6-1.9l29.6-17.1c1-0.6,2.5-0.8,3.2-0.4l19.6,11.3c0.7,0.5,0.5,1.3-0.6,1.9
						l-29.6,17.1c-1.1,0.6-2.5,0.8-3.2,0.4L697.9,546z"/>
					<path class="st4" d="M776,532.2c-0.6-0.4-0.4-1.3,0.7-1.9l29.6-17.1c1-0.6,2.5-0.8,3.2-0.4l23.1,13.3c0.7,0.4,0.4,1.3-0.7,1.9
						l-29.7,17c-1,0.6-2.5,0.8-3.2,0.4L776,532.2z"/>
					<path class="st4" d="M724.8,561.6c-0.7-0.4-0.1-1.4,1.3-2.2l38.8-22.4c1.4-0.8,3.1-1.1,3.8-0.7l23.1,13.3
						c0.7,0.4,0.1,1.4-1.3,2.2l-38.8,22.4c-1.4,0.8-3.1,1.1-3.8,0.7L724.8,561.6z"/>
					<path class="st4" d="M484.4,717.4c-0.6-0.3-0.2-1.1,0.9-1.7l29.6-17.1c1.1-0.6,2.4-0.8,3-0.5l8.5,4.9c0.6,0.3,0.2,1.1-0.9,1.7
						l-29.6,17.1c-1.1,0.6-2.4,0.8-3,0.5L484.4,717.4z"/>
					<path class="st4" d="M444.8,740.9c-0.6-0.3-0.2-1.1,0.9-1.7l29.6-17.1c1.1-0.6,2.4-0.8,3-0.5l8.5,4.9c0.6,0.3,0.2,1.1-0.9,1.7
						l-29.6,17.1c-1.1,0.6-2.4,0.8-3,0.5L444.8,740.9z"/>
					<path class="st4" d="M403.1,764.7c-0.6-0.3-0.2-1.1,0.9-1.7l29.6-17.1c1.1-0.6,2.4-0.8,3-0.5l8.2,4.7c0.6,0.3,0.2,1.1-0.9,1.7
						l-29.6,17.1c-1.1,0.6-2.4,0.8-3,0.5L403.1,764.7z"/>
					<path class="st4" d="M428.9,732c-0.6-0.3-0.2-1.1,0.9-1.7l29.6-17.1c1.1-0.6,2.4-0.8,3-0.5l8.2,4.7c0.6,0.3,0.2,1.1-0.9,1.7
						l-29.6,17.1c-1.1,0.6-2.4,0.8-3,0.5L428.9,732z"/>
					<path class="st4" d="M521,679.3c-0.7-0.4-0.4-1.3,0.7-1.9l192.8-111.3c1-0.6,2.5-0.8,3.2-0.4l23.1,13.3
						c0.7,0.4,0.4,1.3-0.7,1.9L547.3,692.1c-1,0.6-2.5,0.8-3.2,0.4L521,679.3z"/>
					<path class="st4" d="M751.8,566.8c-0.1,0,0-0.1,0.1-0.2l22.7-13.1c0.1-0.1,0.3-0.1,0.3-0.1l1.4,0.8c0.1,0,0,0.1-0.1,0.2
						l-22.7,13.1c-0.1,0.1-0.3,0.1-0.3,0.1L751.8,566.8z"/>
					<path class="st4" d="M809.9,530.7C809.8,530.7,809.8,530.6,809.9,530.7l9.6-5.7c0.1,0,0.2,0,0.2,0l1.4,0.8c0.1,0,0.1,0.1,0,0.1
						l-9.6,5.6c-0.1,0-0.2,0-0.2,0L809.9,530.7z"/>
					<path class="st4" d="M657.2,569.5c-0.7-0.4-0.4-1.3,0.7-1.9l29.6-17.1c1-0.6,2.5-0.8,3.2-0.4l19.6,11.3
						c0.7,0.4,0.4,1.3-0.7,1.9L680,580.4c-1.1,0.6-2.5,0.8-3.2,0.4L657.2,569.5z"/>
					<path class="st4" d="M616.5,593c-0.7-0.5-0.5-1.3,0.6-1.9l29.6-17.1c1-0.6,2.5-0.8,3.2-0.4l19.6,11.3c0.7,0.4,0.4,1.3-0.7,1.9
						l-29.6,17.1c-1,0.6-2.5,0.8-3.2,0.4L616.5,593z"/>
					<path class="st4" d="M575.6,616.5c-0.7-0.5-0.5-1.3,0.6-1.9l29.6-17.1c1-0.6,2.5-0.8,3.2-0.4l19.6,11.3
						c0.7,0.5,0.5,1.3-0.6,1.9l-29.6,17.1c-1,0.6-2.5,0.8-3.2,0.4L575.6,616.5z"/>
					<path class="st4" d="M534.9,640.1c-0.7-0.4-0.5-1.3,0.6-1.9l29.6-17.1c1-0.6,2.5-0.8,3.2-0.4l19.6,11.3
						c0.7,0.4,0.4,1.3-0.7,1.9L557.6,651c-1.1,0.6-2.5,0.8-3.2,0.4L534.9,640.1z"/>
					<path class="st4" d="M493.9,663.6c-0.7-0.4-0.4-1.3,0.7-1.9l29.6-17.1c1-0.6,2.5-0.8,3.2-0.4l19.6,11.3
						c0.7,0.5,0.5,1.3-0.6,1.9l-29.6,17.1c-1,0.6-2.5,0.8-3.2,0.4L493.9,663.6z"/>
					<path class="st4" d="M453.4,687.2c-0.8-0.4-0.5-1.3,0.6-1.9l29.6-17.1c1-0.6,2.5-0.8,3.2-0.4l19.6,11.3
						c0.7,0.4,0.4,1.3-0.7,1.9L476,698.1c-1,0.6-2.5,0.8-3.2,0.4L453.4,687.2z"/>
					<path class="st4" d="M361.4,740.2c-0.8-0.4-0.5-1.3,0.6-1.9l80.7-46.6c1-0.6,2.5-0.8,3.2-0.4l19.6,11.3
						c0.7,0.4,0.4,1.3-0.7,1.9l-80.7,46.6c-1,0.6-2.5,0.8-3.2,0.4L361.4,740.2z"/>
					<path class="st4" d="M610.3,565.3c-0.7-0.4-0.5-1.2,0.6-1.8l29.6-17.1c1.1-0.6,2.5-0.8,3.2-0.4l19.6,11.3
						c0.7,0.5,0.4,1.3-0.7,1.9L633,576.3c-1.1,0.6-2.5,0.8-3.2,0.4L610.3,565.3z"/>
					<path class="st4" d="M569.3,588.9c-0.7-0.4-0.4-1.2,0.7-1.8l29.6-17.1c1.1-0.6,2.5-0.8,3.2-0.4l19.6,11.3
						c0.8,0.4,0.5,1.2-0.6,1.8l-29.6,17.1c-1,0.6-2.5,0.8-3.2,0.4L569.3,588.9z"/>
					<path class="st4" d="M528.6,612.4c-0.7-0.4-0.4-1.3,0.7-1.9l29.6-17.1c1-0.6,2.5-0.8,3.2-0.4l19.6,11.3
						c0.7,0.5,0.3,1.3-0.7,1.9l-29.6,17.1c-1,0.6-2.5,0.8-3.2,0.4L528.6,612.4z"/>
					<path class="st4" d="M487.8,636c-0.7-0.5-0.4-1.3,0.7-1.9l29.6-17.1c1.1-0.6,2.5-0.8,3.2-0.4l19.6,11.3
						c0.7,0.5,0.4,1.3-0.7,1.9l-29.6,17.1c-1.1,0.6-2.5,0.8-3.2,0.4L487.8,636z"/>
					<path class="st4" d="M446.9,659.5c-0.7-0.5-0.4-1.3,0.7-1.9l29.6-17.1c1.1-0.6,2.5-0.8,3.2-0.4l19.6,11.3
						c0.8,0.5,0.5,1.3-0.6,1.9l-29.6,17.1c-1,0.6-2.5,0.8-3.2,0.4L446.9,659.5z"/>
					<path class="st4" d="M406.2,683c-0.6-0.4-0.4-1.2,0.7-1.8l29.6-17.1c1.1-0.6,2.5-0.8,3.2-0.4l19.6,11.3
						c0.7,0.4,0.4,1.3-0.7,1.9L429,694c-1.1,0.6-2.5,0.8-3.2,0.4L406.2,683z"/>
					<path class="st4" d="M365.3,706.6c-0.6-0.4-0.4-1.2,0.7-1.8l29.6-17.1c1.1-0.6,2.5-0.8,3.2-0.4l19.6,11.3
						c0.8,0.4,0.5,1.2-0.6,1.8l-29.6,17.1c-1.1,0.6-2.5,0.8-3.2,0.4L365.3,706.6z"/>
					<path class="st4" d="M592.8,544.2c-0.7-0.4-0.4-1.3,0.7-1.9l29.6-17.1c1.1-0.6,2.5-0.8,3.2-0.4l19.6,11.3
						c0.7,0.5,0.5,1.3-0.6,1.9l-29.7,17.1c-1,0.6-2.5,0.8-3.2,0.4L592.8,544.2z"/>
					<path class="st4" d="M552.1,567.6c-0.7-0.4-0.5-1.2,0.6-1.8l29.6-17.1c1.1-0.6,2.5-0.8,3.2-0.4l19.6,11.3
						c0.8,0.5,0.5,1.3-0.6,1.9l-29.6,17.1c-1,0.6-2.5,0.8-3.2,0.4L552.1,567.6z"/>
					<path class="st4" d="M511.1,591.2c-0.7-0.4-0.4-1.3,0.7-1.9l29.6-17.1c1.1-0.6,2.5-0.8,3.2-0.4l19.6,11.3
						c0.7,0.5,0.5,1.3-0.6,1.9L534,602.1c-1,0.6-2.5,0.8-3.2,0.4L511.1,591.2z"/>
					<path class="st4" d="M470.5,614.7c-0.7-0.4-0.5-1.2,0.6-1.8l29.6-17.1c1.1-0.6,2.5-0.8,3.2-0.4l19.6,11.3
						c0.8,0.5,0.5,1.3-0.6,1.9l-29.6,17.1c-1.1,0.7-2.5,0.8-3.2,0.4L470.5,614.7z"/>
					<path class="st4" d="M429.6,638.2c-0.7-0.4-0.4-1.2,0.6-1.8l29.6-17.1c1.1-0.6,2.5-0.8,3.2-0.4l19.6,11.3
						c0.8,0.5,0.5,1.3-0.6,1.9l-29.6,17.1c-1,0.6-2.5,0.8-3.2,0.4L429.6,638.2z"/>
					<path class="st4" d="M388.7,661.9c-0.7-0.4-0.4-1.3,0.7-1.9l29.6-17.1c1-0.6,2.5-0.8,3.2-0.4l19.6,11.3
						c0.8,0.5,0.4,1.3-0.6,1.9l-29.6,17.1c-1,0.6-2.5,0.8-3.2,0.4L388.7,661.9z"/>
					<path class="st4" d="M347.9,685.3c-0.6-0.4-0.4-1.2,0.7-1.8l29.6-17.1c1.1-0.6,2.5-0.8,3.2-0.4l19.6,11.3
						c0.8,0.5,0.5,1.3-0.6,1.9l-29.6,17.1c-1,0.6-2.5,0.8-3.2,0.4L347.9,685.3z"/>
					<path class="st4" d="M674.2,497.2c-0.7-0.4-0.4-1.3,0.7-1.9l50.2-29c1.1-0.6,2.5-0.8,3.2-0.4l19.6,11.3
						c0.8,0.4,0.5,1.3-0.6,1.9l-50.2,29c-1,0.6-2.5,0.8-3.2,0.4L674.2,497.2z"/>
					<path class="st4" d="M280.1,693.3c-0.7-0.5-0.4-1.3,0.7-1.9l50.2-29c1-0.6,2.5-0.8,3.2-0.4l19.6,11.3c0.8,0.5,0.4,1.3-0.6,1.9
						l-50.2,29c-1,0.6-2.5,0.8-3.2,0.4L280.1,693.3z"/>
					<path class="st4" d="M691.7,518.4c-0.7-0.4-0.4-1.3,0.7-1.9l59.9-34.6c1.1-0.6,2.5-0.8,3.2-0.4l19.6,11.3
						c0.7,0.5,0.4,1.3-0.7,1.9l-60,34.6c-1.1,0.6-2.5,0.8-3.2,0.4L691.7,518.4z"/>
					<path class="st4" d="M738.6,522.5c-0.7-0.4-0.4-1.3,0.7-1.9l39.9-23c1-0.6,2.5-0.8,3.2-0.4l19.6,11.3c0.7,0.4,0.4,1.3-0.7,1.9
						l-39.9,23c-1,0.6-2.5,0.8-3.2,0.4L738.6,522.5z"/>
					<path class="st4" d="M627,493.2c-0.7-0.4-0.4-1.3,0.7-1.9l29.6-17.1c1-0.6,2.5-0.8,3.2-0.4l19.6,11.3c0.7,0.4,0.4,1.3-0.7,1.9
						l-29.6,17.1c-1.1,0.6-2.5,0.8-3.2,0.4L627,493.2z"/>
					<path class="st4" d="M586.3,516.6c-0.7-0.4-0.4-1.3,0.7-1.9l29.6-17.1c1-0.6,2.5-0.8,3.2-0.4l19.6,11.3
						c0.8,0.4,0.5,1.3-0.6,1.9l-29.6,17.1c-1,0.6-2.5,0.8-3.2,0.4L586.3,516.6z"/>
					<path class="st4" d="M545.7,540.2c-0.8-0.5-0.5-1.3,0.6-1.9l29.6-17.1c1-0.6,2.5-0.8,3.2-0.4l19.6,11.3
						c0.8,0.5,0.5,1.3-0.6,1.9l-29.7,17.1c-1.1,0.7-2.5,0.8-3.2,0.4L545.7,540.2z"/>
					<path class="st4" d="M504.8,563.7c-0.7-0.4-0.4-1.3,0.7-1.9l29.6-17.1c1-0.6,2.5-0.8,3.2-0.4l19.6,11.3
						c0.7,0.4,0.4,1.3-0.7,1.9l-29.6,17.1c-1,0.6-2.5,0.8-3.2,0.4L504.8,563.7z"/>
					<path class="st4" d="M464.1,587.3c-0.7-0.5-0.5-1.3,0.6-1.9l29.6-17.1c1-0.6,2.5-0.8,3.2-0.4l19.6,11.3
						c0.7,0.4,0.4,1.3-0.7,1.9l-29.6,17.1c-1.1,0.7-2.5,0.8-3.2,0.4L464.1,587.3z"/>
					<path class="st4" d="M423.2,610.8c-0.8-0.5-0.5-1.3,0.6-1.9l29.6-17.1c1-0.6,2.5-0.8,3.2-0.4l19.6,11.3
						c0.7,0.5,0.5,1.3-0.6,1.9L446,621.7c-1,0.6-2.5,0.8-3.2,0.4L423.2,610.8z"/>
					<path class="st4" d="M382.4,634.4c-0.7-0.5-0.4-1.3,0.7-1.9l29.6-17.1c1-0.6,2.5-0.8,3.2-0.4l19.6,11.3
						c0.7,0.4,0.4,1.3-0.7,1.9l-29.6,17.1c-1,0.6-2.5,0.8-3.2,0.4L382.4,634.4z"/>
					<path class="st4" d="M341.6,657.9c-0.7-0.4-0.5-1.2,0.6-1.8l29.7-17.1c1-0.6,2.5-0.8,3.2-0.4l19.6,11.3
						c0.7,0.4,0.5,1.2-0.6,1.8l-29.7,17.1c-1.1,0.6-2.5,0.8-3.2,0.4L341.6,657.9z"/>
					<path class="st4" d="M307.8,707.2c-0.5,0.3-0.9,0.6-1,1c-0.2,0.3,0,0.6,0.3,0.8l46.7,27c0.4,0.2,0.9,0.3,1.5,0.2
						s1.2-0.3,1.7-0.6l20-11.5c0.5-0.3,0.9-0.6,1-1c0.2-0.4,0-0.7-0.3-0.9L352,707.3l7.7-4.5c0.5-0.3,0.9-0.6,1-1s-0.1-0.7-0.4-0.9
						l-19.6-11.3c-0.4-0.2-0.9-0.3-1.5-0.2s-1.2,0.3-1.7,0.6L307.8,707.2z"/>
					<path class="st4" d="M762.2,523.4c-0.1,0,0-0.1,0.1-0.2l22.7-13.1c0.1-0.1,0.3-0.1,0.3-0.1l1.4,0.8c0.1,0,0,0.1-0.1,0.2
						l-22.7,13.1c-0.1,0.1-0.3,0.1-0.3,0.1L762.2,523.4z"/>
				</g>
			</g>
		</g>
	</g>
	<g>
		<g>
			<ellipse class="st5" cx="522.6" cy="356.6" rx="35.5" ry="35.5"/>
		</g>
	</g>
	<polygon class="st4" points="560.7,217.6 534.3,211.5 538.4,253.6 565.8,269.3 	"/>
	<g>
		<g>
			<ellipse class="st5" cx="510.3" cy="449.5" rx="42.5" ry="42.5"/>
		</g>
	</g>
	<g>
		<g>
			<ellipse class="st5" cx="511.3" cy="408.7" rx="49.4" ry="49.4"/>
		</g>
	</g>
	<polygon class="st6" points="426.6,325.9 426.6,447.2 495.8,478.1 490.8,346.5 	"/>
	<path class="st7" d="M443.3,351.4c-10,34.9,16.2,50.9,16.2,50.9c21.7-17.5,15-41.7,15-41.7S453.3,316.3,443.3,351.4z"/>
	<path class="st1" d="M907.5,202.6c-1-0.7-2-1.4-3.1-2c-10.6-5.8-19.7-1.1-20.5,10.5c-0.8,11.5,7.1,25.5,17.6,31.2l62.5,34.6
		c8.9,4.3,16.4,0.2,17.1-9.7c0.7-10.2-6.3-22.6-15.6-27.7c-0.7-0.4-1.5-0.8-2.3-1.1c0-0.3,0.1-0.7,0.1-1c1.1-17-10.6-37.8-26.1-46.3
		C922.9,183.2,910.3,188.4,907.5,202.6z"/>
	<path class="st1" d="M849.5,292.9c-0.6-0.5-1.4-1-2.1-1.4c-7.2-3.9-13.4-0.7-13.9,7.2s4.8,17.4,12,21.3l42.6,23.6
		c6.1,3,11.3,0.1,11.7-6.6c0.5-6.9-4.3-15.4-10.6-18.9c-0.5-0.3-1.1-0.6-1.6-0.8c0.1-0.2,0.1-0.5,0.1-0.7
		c0.7-11.6-7.2-25.7-17.8-31.5C860.2,279.8,851.6,283.3,849.5,292.9z"/>
	<path class="st1" d="M101.3,404.2c0.8-0.6,1.7-1.2,2.6-1.7c8.8-4.8,16.3-0.9,16.9,8.7c0.6,9.4-5.8,21-14.5,25.7l-51.5,28.5
		c-7.3,3.6-13.6,0.1-14.1-8c-0.5-8.5,5.2-18.7,12.9-22.9c0.6-0.3,1.3-0.7,1.9-0.9c-0.1-0.3-0.1-0.6-0.1-0.9
		c-0.9-14,8.7-31.1,21.5-38.1C88.7,388.1,99.1,392.4,101.3,404.2z"/>
	<path class="st1" d="M107.2,525.2c1.2-0.9,2.4-1.7,3.7-2.4c12.5-6.9,23.3-1.3,24.2,12.4c0.9,13.6-8.4,30.1-20.8,36.9l-73.9,41
		c-10.6,5.2-19.5,0.3-20.3-11.4c-0.8-12.1,7.5-26.7,18.5-32.8c1-0.5,1.9-0.9,2.8-1.3c0-0.4-0.1-0.8-0.1-1.2
		c-1.4-20.1,12.4-44.6,30.8-54.7C89,502.4,103.9,508.6,107.2,525.2z"/>
	<g>
		<g>
			<circle class="st5" cx="584.9" cy="428.8" r="63.2"/>
		</g>
	</g>
	<g>
		<g>
			<ellipse class="st5" cx="404.3" cy="547.2" rx="49.4" ry="49.4"/>
		</g>
	</g>
	<g>
		<g>
			<circle class="st5" cx="669.9" cy="449.5" r="49.4"/>
		</g>
	</g>
	<g>
		<g>
			<ellipse class="st5" cx="325.3" cy="589.7" rx="75" ry="75"/>
		</g>
	</g>
	<path class="st4" d="M510.3,165.6c0,0,54.7-19.8,49.2,59.6c-0.4,6.1-5,11.2-8.1,8.9c-6.7-5.1-18-10.4-31.8-3.6L510.3,165.6z"/>
	<path class="st4" d="M412.4,336.5c0,0-0.8,30.7,44.2,29c45.1-1.7,53.7-38,53.7-38L412.4,336.5z"/>
	<path class="st8" d="M520.9,180.9c0,0,54.7-19.8,49.2,59.6c-0.4,6.1-5,11.2-8.1,8.9c-6.7-5.1-18-10.4-31.8-3.6L520.9,180.9z"/>
	<path class="st5" d="M394.2,320l0.3,1.1c2.9,7.5,9.8,13.8,19.9,19.6c12,7,27.1,10.9,42.6,12c15.6-1.1,30.6-5.1,42.6-12
		c10.1-5.8,16.9-11.9,19.8-19.4l0.5-1.3c11.5-31.3,17.6-71.1,14.2-110.7c-4-45.9-35.7-98.5-54.3-128.2c-5.8-9.2-13.7-17.2-22.7-19.9
		c-9,2.6-16.9,10.6-22.7,19.9c-18.6,29.6-50.3,82.3-54.3,128.2C376.7,248.9,382.8,288.7,394.2,320z"/>
	
		<ellipse transform="matrix(0.5047 -0.8633 0.8633 0.5047 51.3536 531.0345)" class="st4" cx="488.5" cy="220.8" rx="42.5" ry="24.5"/>
	<g>
		<g>
			
				<ellipse transform="matrix(0.5047 -0.8633 0.8633 0.5047 51.3501 541.3148)" class="st5" cx="497.4" cy="225.9" rx="42.5" ry="24.5"/>
		</g>
	</g>
	<path class="st4" d="M498.3,203.8c9.9-5.8,17.9-1.2,17.9,10.2s-8.1,25.3-18,31c-9.9,5.8-17.9,1.2-17.9-10.2
		S488.4,209.6,498.3,203.8z"/>
	<path class="st8" d="M511.2,136.7C499.6,110.3,476,63.5,457,61.1c-9,2.6-16.9,10.6-22.7,19.9c-10.5,16.9-25.4,41.2-36.9,67.5
		C430.3,175.7,499.1,162.1,511.2,136.7z"/>
	<g>
		<g>
			<ellipse class="st5" cx="413.1" cy="487.3" rx="63.2" ry="63.2"/>
		</g>
	</g>
	<g>
		<g>
			<ellipse class="st5" cx="444.1" cy="592" rx="63.2" ry="63.2"/>
		</g>
	</g>
	<path class="st9" d="M249.9,607c8.2,40.6,47.8,66.8,88.4,58.6c22.4-4.6,40.4-18.7,50.7-37.2c13.7,21.4,39.5,33.2,65.8,27.9
		c31.8-6.5,53.1-35.7,50.4-67.3c-9.2,19.9-28.6,34.5-52,36.5c-26.8,2.2-51.1-12.5-62.2-35.3c-12.3,17.2-31.8,29.2-54.6,31.1
		c-39.2,3.3-73.9-24.2-80.3-62.3C249,573.4,246.4,590.1,249.9,607z"/>
	<g>
		<g>
			<ellipse class="st5" cx="649.9" cy="481.5" rx="41.3" ry="41.3"/>
		</g>
	</g>
	<path class="st9" d="M521,414.9c-1.2,4.9-1.9,10.1-1.9,15.4c0,34.9,28.3,63.2,63.2,63.2c8.5,0,16.7-1.7,24.1-4.8
		c2.8,20.1,20.1,35.5,40.9,35.5c22.8,0,44.4-17.5,44.4-40.3c0-5.4,1.9-12.7,0-17.5c-6.1,15.2-27,27-44.4,27
		c-20.9,0-38.1-15.4-40.9-35.5c-7.4,3.1-15.6,4.8-24.1,4.8C552.7,462.7,527.9,442.4,521,414.9z"/>
	<g>
		<g>
			<ellipse class="st5" cx="535.1" cy="601.3" rx="41.3" ry="41.3"/>
		</g>
	</g>
	<g>
		<g>
			<ellipse class="st5" cx="594.4" cy="611" rx="41.3" ry="41.3"/>
		</g>
	</g>
	<g>
		<g>
			<circle class="st5" cx="404.3" cy="412" r="35.5"/>
		</g>
	</g>
	<g>
		<g>
			<ellipse class="st5" cx="347.4" cy="495.2" rx="35.5" ry="35.5"/>
		</g>
	</g>
	<path class="st4" d="M432.1,361.8c-3-9.1-5.5-18.3-7.7-27.3l-13.1,1.2C411.3,335.7,410.8,354.4,432.1,361.8z"/>
	<path class="st9" d="M425.8,154.8c8.5-37.6-13.6-37.5-24.4-14.7c-10.6,22.4-19.4,46.8-21.4,69.6c-3.4,39.6,2.7,79.3,14.2,110.7
		l0.3,1.1c2.9,7.5,9.8,13.8,19.9,19.6c4.3,2.5,9,4.6,14,6.3C408.9,276.8,413.4,209.8,425.8,154.8z"/>
	<path class="st4" d="M457.1,61.2c-0.1,0-0.1-0.1-0.2-0.1c-25.3,7.3-48.7,62-59.7,87.4c7.6,6.2,16.9,10.3,27.1,12.6
		C432.8,120.6,445.8,86.2,457.1,61.2z"/>
	<g>
		<path class="st4" d="M355.3,323.3c0.5,1.4,1.5,2.3,2.6,2.6l0,0l17,9.4l17-46.9c1.3-1,2.7-1.9,4.1-2.8l-0.2-7.9l15.5-42.6l-17-9.2
			C394.3,225.9,336.3,268,355.3,323.3z"/>
		<path class="st4" d="M354.9,338.5c0.5,1.5,0.4,2.4,1.8,3.7l0.9,0.5l23.4,13.6c-13.9-58.1-0.5-73.3,24.9-94.1l-30.3-18.5
			C375.6,243.7,335.9,283.1,354.9,338.5z"/>
		<path class="st8" d="M411.2,235.1c0,0-58,42-39,97.5c1.5,4.3,6.9,3.4,9.6-1.6c5.8-10.9,16.3-26.9,31.2-36.1L411.2,235.1z"/>
	</g>
	<g>
		<g>
			<path class="st5" d="M464.3,73.6L464.3,73.6c-2.4,1.1-3.3,4.2-1.8,6.5c18.2,27.9,26.6,46.5,29.9,55.2c1.1,3,4.6,4.3,7.4,2.8l0,0
				c2.3-1.2,3.4-3.9,2.6-6.3c-6.4-20.6-26-47.9-32.6-56.8C468.6,73.3,466.2,72.7,464.3,73.6z"/>
		</g>
	</g>
	<path class="st8" d="M372.3,332.6l7,22c0.8,2.6,4.6,2.1,4.7-0.6l1.3-29.1L372.3,332.6z"/>
	<path class="st8" d="M556.9,245.6l7,22c0.8,2.6,4.6,2.1,4.7-0.6l1.3-29.1L556.9,245.6z"/>
	<g>
		<g>
			<ellipse class="st5" cx="509.6" cy="524.5" rx="63.2" ry="63.2"/>
		</g>
	</g>
	<g>
		<g>
			<ellipse class="st5" cx="724.6" cy="489.2" rx="41.3" ry="41.3"/>
		</g>
	</g>
	<g>
		<path class="st3" d="M638.5,297.5l10.5-19.9c-5-8-14.7-9.3-26.6-2c-11.9,7.3-23.1,21.6-30.4,37.1l7.8,8.6
			c4-11.6,12.1-23.2,20.9-28.6C629.4,287.3,636.3,289.7,638.5,297.5z"/>
		<path class="st3" d="M625.5,244.3c-15.9,9.8-31.1,26.8-43,46.5c-1.4,2.3-2.7,4.6-4,6.9l7.3,8.2c9.6-18.8,23.4-35.5,37.9-44.5
			c14.5-8.9,26.6-8.1,33.6,0.4l10-18.8C658,233.7,643.1,233.4,625.5,244.3z"/>
		<path class="st3" d="M626.5,319.8c0.5-1.1,0.9-2.3,1.2-3.4l0,0l0,0c0.1-0.5,0.3-1.1,0.4-1.6c0.2-0.7,0.3-1.4,0.4-2.1
			c0-0.9,0.1-1.7,0-2.5c-0.3-5.4-4-7.4-9-4.3s-9.6,10.1-11.1,16.7c-0.3,1-0.4,1.9-0.5,2.8c0,0.7,0,1.3,0,1.9c0,0.4,0,0.9,0.1,1.3
			l0,0l0,0c0.3,2.3,1.3,3.8,2.7,4.5c0.1,0.1,0.3,0.1,0.4,0.2c0.3,0.1,0.5,0.2,0.8,0.2c0.2,0.1,0.4,0.1,0.7,0.1c0.2,0,0.4,0,0.7,0
			c0.4,0,0.7-0.1,1.1-0.2c0.2-0.1,0.4-0.1,0.6-0.2c0.6-0.2,1.3-0.5,1.9-0.9c0.6-0.4,1.3-0.9,1.9-1.4c0.3-0.2,0.5-0.4,0.7-0.6
			c0.4-0.3,0.8-0.7,1.2-1.1c0.3-0.3,0.5-0.6,0.8-0.9c0.2-0.3,0.5-0.6,0.8-1s0.6-0.8,0.9-1.2c0.2-0.3,0.3-0.5,0.5-0.8
			C624.7,323.7,625.6,322,626.5,319.8z"/>
	</g>
</g>
</svg>
