<?xml version="1.0" encoding="utf-8"?>
<!-- Generator: Adobe Illustrator 27.0.1, SVG Export Plug-In . SVG Version: 6.00 Build 0)  -->
<svg version="1.1" id="Layer_1" xmlns="http://www.w3.org/2000/svg" xmlns:xlink="http://www.w3.org/1999/xlink" x="0px" y="0px"
	 viewBox="0 0 867.3 759.1" style="enable-background:new 0 0 867.3 759.1;" xml:space="preserve">
<style type="text/css">
	.st0{opacity:0.18;}
	.st1{fill:#FFFFFF;fill-opacity:0;}
	.st2{opacity:5.847953e-03;fill:#FEFEFF;enable-background:new    ;}
	.st3{opacity:1.169591e-02;fill:#FDFEFE;enable-background:new    ;}
	.st4{opacity:1.754386e-02;fill:#FCFDFE;enable-background:new    ;}
	.st5{opacity:2.339181e-02;fill:#FBFCFD;enable-background:new    ;}
	.st6{opacity:2.923977e-02;fill:#FAFCFD;enable-background:new    ;}
	.st7{opacity:3.508772e-02;fill:#F9FBFD;enable-background:new    ;}
	.st8{opacity:4.093567e-02;fill:#F8FAFC;enable-background:new    ;}
	.st9{opacity:4.678363e-02;fill:#F7F9FC;enable-background:new    ;}
	.st10{opacity:5.263158e-02;fill:#F6F9FB;enable-background:new    ;}
	.st11{opacity:5.847953e-02;fill:#F5F8FB;enable-background:new    ;}
	.st12{opacity:6.432749e-02;fill:#F4F7FB;enable-background:new    ;}
	.st13{opacity:7.017544e-02;fill:#F3F7FA;enable-background:new    ;}
	.st14{opacity:7.602339e-02;fill:#F2F6FA;enable-background:new    ;}
	.st15{opacity:8.187135e-02;fill:#F1F5F9;enable-background:new    ;}
	.st16{opacity:8.771930e-02;fill:#F0F5F9;enable-background:new    ;}
	.st17{opacity:9.356725e-02;fill:#EFF4F9;enable-background:new    ;}
	.st18{opacity:9.941521e-02;fill:#EEF3F8;enable-background:new    ;}
	.st19{opacity:0.1053;fill:#EDF3F8;enable-background:new    ;}
	.st20{opacity:0.1111;fill:#ECF2F7;enable-background:new    ;}
	.st21{opacity:0.117;fill:#EBF1F7;enable-background:new    ;}
	.st22{opacity:0.1228;fill:#EAF1F7;enable-background:new    ;}
	.st23{opacity:0.1287;fill:#E9F0F6;enable-background:new    ;}
	.st24{opacity:0.1345;fill:#E8EFF6;enable-background:new    ;}
	.st25{opacity:0.1404;fill:#E7EEF5;enable-background:new    ;}
	.st26{opacity:0.1462;fill:#E6EEF5;enable-background:new    ;}
	.st27{opacity:0.152;fill:#E5EDF5;enable-background:new    ;}
	.st28{opacity:0.1579;fill:#E4ECF4;enable-background:new    ;}
	.st29{opacity:0.1637;fill:#E3ECF4;enable-background:new    ;}
	.st30{opacity:0.1696;fill:#E2EBF3;enable-background:new    ;}
	.st31{opacity:0.1754;fill:#E1EAF3;enable-background:new    ;}
	.st32{opacity:0.1813;fill:#E0EAF2;enable-background:new    ;}
	.st33{opacity:0.1871;fill:#DFE9F2;enable-background:new    ;}
	.st34{opacity:0.193;fill:#DEE8F2;enable-background:new    ;}
	.st35{opacity:0.1988;fill:#DDE8F1;enable-background:new    ;}
	.st36{opacity:0.2047;fill:#DCE7F1;enable-background:new    ;}
	.st37{opacity:0.2105;fill:#DBE6F0;enable-background:new    ;}
	.st38{opacity:0.2164;fill:#DAE5F0;enable-background:new    ;}
	.st39{opacity:0.2222;fill:#D9E5F0;enable-background:new    ;}
	.st40{opacity:0.2281;fill:#D8E4EF;enable-background:new    ;}
	.st41{opacity:0.2339;fill:#D7E3EF;enable-background:new    ;}
	.st42{opacity:0.2398;fill:#D6E3EE;enable-background:new    ;}
	.st43{opacity:0.2456;fill:#D5E2EE;enable-background:new    ;}
	.st44{opacity:0.2515;fill:#D4E1EE;enable-background:new    ;}
	.st45{opacity:0.2573;fill:#D3E1ED;enable-background:new    ;}
	.st46{opacity:0.2632;fill:#D2E0ED;enable-background:new    ;}
	.st47{opacity:0.269;fill:#D1DFEC;enable-background:new    ;}
	.st48{opacity:0.2749;fill:#D0DFEC;enable-background:new    ;}
	.st49{opacity:0.2807;fill:#CFDEEC;enable-background:new    ;}
	.st50{opacity:0.2865;fill:#CEDDEB;enable-background:new    ;}
	.st51{opacity:0.2924;fill:#CDDCEB;enable-background:new    ;}
	.st52{opacity:0.2982;fill:#CCDCEA;enable-background:new    ;}
	.st53{opacity:0.3041;fill:#CBDBEA;enable-background:new    ;}
	.st54{opacity:0.3099;fill:#CADAEA;enable-background:new    ;}
	.st55{opacity:0.3158;fill:#C9DAE9;enable-background:new    ;}
	.st56{opacity:0.3216;fill:#C8D9E9;enable-background:new    ;}
	.st57{opacity:0.3275;fill:#C7D8E8;enable-background:new    ;}
	.st58{opacity:0.3333;fill:#C6D8E8;enable-background:new    ;}
	.st59{opacity:0.3392;fill:#C5D7E8;enable-background:new    ;}
	.st60{opacity:0.345;fill:#C4D6E7;enable-background:new    ;}
	.st61{opacity:0.3509;fill:#C3D6E7;enable-background:new    ;}
	.st62{opacity:0.3567;fill:#C2D5E6;enable-background:new    ;}
	.st63{opacity:0.3626;fill:#C1D4E6;enable-background:new    ;}
	.st64{opacity:0.3684;fill:#C0D4E6;enable-background:new    ;}
	.st65{opacity:0.3743;fill:#BFD3E5;enable-background:new    ;}
	.st66{opacity:0.3801;fill:#BED2E5;enable-background:new    ;}
	.st67{opacity:0.386;fill:#BDD1E4;enable-background:new    ;}
	.st68{opacity:0.3918;fill:#BCD1E4;enable-background:new    ;}
	.st69{opacity:0.3977;fill:#BBD0E4;enable-background:new    ;}
	.st70{opacity:0.4035;fill:#BACFE3;enable-background:new    ;}
	.st71{opacity:0.4094;fill:#B9CFE3;enable-background:new    ;}
	.st72{opacity:0.4152;fill:#B8CEE2;enable-background:new    ;}
	.st73{opacity:0.4211;fill:#B7CDE2;enable-background:new    ;}
	.st74{opacity:0.4269;fill:#B6CDE2;enable-background:new    ;}
	.st75{opacity:0.4327;fill:#B5CCE1;enable-background:new    ;}
	.st76{opacity:0.4386;fill:#B4CBE1;enable-background:new    ;}
	.st77{opacity:0.4444;fill:#B3CBE0;enable-background:new    ;}
	.st78{opacity:0.4503;fill:#B2CAE0;enable-background:new    ;}
	.st79{opacity:0.4561;fill:#B1C9E0;enable-background:new    ;}
	.st80{opacity:0.462;fill:#B0C8DF;enable-background:new    ;}
	.st81{opacity:0.4678;fill:#AFC8DF;enable-background:new    ;}
	.st82{opacity:0.4737;fill:#AEC7DE;enable-background:new    ;}
	.st83{opacity:0.4795;fill:#ADC6DE;enable-background:new    ;}
	.st84{opacity:0.4854;fill:#ACC6DE;enable-background:new    ;}
	.st85{opacity:0.4912;fill:#ABC5DD;enable-background:new    ;}
	.st86{opacity:0.4971;fill:#AAC4DD;enable-background:new    ;}
	.st87{opacity:0.5029;fill:#A9C4DC;enable-background:new    ;}
	.st88{opacity:0.5088;fill:#A8C3DC;enable-background:new    ;}
	.st89{opacity:0.5146;fill:#A7C2DB;enable-background:new    ;}
	.st90{opacity:0.5205;fill:#A6C2DB;enable-background:new    ;}
	.st91{opacity:0.5263;fill:#A5C1DB;enable-background:new    ;}
	.st92{opacity:0.5322;fill:#A4C0DA;enable-background:new    ;}
	.st93{opacity:0.538;fill:#A3C0DA;enable-background:new    ;}
	.st94{opacity:0.5439;fill:#A2BFD9;enable-background:new    ;}
	.st95{opacity:0.5497;fill:#A1BED9;enable-background:new    ;}
	.st96{opacity:0.5556;fill:#A0BDD9;enable-background:new    ;}
	.st97{opacity:0.5614;fill:#9FBDD8;enable-background:new    ;}
	.st98{opacity:0.5673;fill:#9EBCD8;enable-background:new    ;}
	.st99{opacity:0.5731;fill:#9DBBD7;enable-background:new    ;}
	.st100{opacity:0.5789;fill:#9CBBD7;enable-background:new    ;}
	.st101{opacity:0.5848;fill:#9BBAD7;enable-background:new    ;}
	.st102{opacity:0.5906;fill:#9AB9D6;enable-background:new    ;}
	.st103{opacity:0.5965;fill:#99B9D6;enable-background:new    ;}
	.st104{opacity:0.6023;fill:#98B8D5;enable-background:new    ;}
	.st105{opacity:0.6082;fill:#97B7D5;enable-background:new    ;}
	.st106{opacity:0.614;fill:#96B7D5;enable-background:new    ;}
	.st107{opacity:0.6199;fill:#95B6D4;enable-background:new    ;}
	.st108{opacity:0.6257;fill:#94B5D4;enable-background:new    ;}
	.st109{opacity:0.6316;fill:#93B4D3;enable-background:new    ;}
	.st110{opacity:0.6374;fill:#92B4D3;enable-background:new    ;}
	.st111{opacity:0.6433;fill:#91B3D3;enable-background:new    ;}
	.st112{opacity:0.6491;fill:#90B2D2;enable-background:new    ;}
	.st113{opacity:0.655;fill:#8FB2D2;enable-background:new    ;}
	.st114{opacity:0.6608;fill:#8EB1D1;enable-background:new    ;}
	.st115{opacity:0.6667;fill:#8DB0D1;enable-background:new    ;}
	.st116{opacity:0.6725;fill:#8CB0D1;enable-background:new    ;}
	.st117{opacity:0.6784;fill:#8BAFD0;enable-background:new    ;}
	.st118{opacity:0.6842;fill:#8AAED0;enable-background:new    ;}
	.st119{opacity:0.6901;fill:#89AECF;enable-background:new    ;}
	.st120{opacity:0.6959;fill:#88ADCF;enable-background:new    ;}
	.st121{opacity:0.7018;fill:#87ACCF;enable-background:new    ;}
	.st122{opacity:0.7076;fill:#86ACCE;enable-background:new    ;}
	.st123{opacity:0.7135;fill:#85ABCE;enable-background:new    ;}
	.st124{opacity:0.7193;fill:#84AACD;enable-background:new    ;}
	.st125{opacity:0.7251;fill:#83A9CD;enable-background:new    ;}
	.st126{opacity:0.731;fill:#82A9CD;enable-background:new    ;}
	.st127{opacity:0.7368;fill:#81A8CC;enable-background:new    ;}
	.st128{opacity:0.7427;fill:#80A7CC;enable-background:new    ;}
	.st129{opacity:0.7485;fill:#7FA7CB;enable-background:new    ;}
	.st130{opacity:0.7544;fill:#7EA6CB;enable-background:new    ;}
	.st131{opacity:0.7602;fill:#7DA5CB;enable-background:new    ;}
	.st132{opacity:0.7661;fill:#7CA5CA;enable-background:new    ;}
	.st133{opacity:0.7719;fill:#7BA4CA;enable-background:new    ;}
	.st134{opacity:0.7778;fill:#7AA3C9;enable-background:new    ;}
	.st135{opacity:0.7836;fill:#79A3C9;enable-background:new    ;}
	.st136{opacity:0.7895;fill:#78A2C9;enable-background:new    ;}
	.st137{opacity:0.7953;fill:#77A1C8;enable-background:new    ;}
	.st138{opacity:0.8012;fill:#76A0C8;enable-background:new    ;}
	.st139{opacity:0.807;fill:#75A0C7;enable-background:new    ;}
	.st140{opacity:0.8129;fill:#749FC7;enable-background:new    ;}
	.st141{opacity:0.8187;fill:#739EC7;enable-background:new    ;}
	.st142{opacity:0.8246;fill:#729EC6;enable-background:new    ;}
	.st143{opacity:0.8304;fill:#719DC6;enable-background:new    ;}
	.st144{opacity:0.8363;fill:#709CC5;enable-background:new    ;}
	.st145{opacity:0.8421;fill:#6F9CC5;enable-background:new    ;}
	.st146{opacity:0.848;fill:#6E9BC4;enable-background:new    ;}
	.st147{opacity:0.8538;fill:#6D9AC4;enable-background:new    ;}
	.st148{opacity:0.8596;fill:#6C9AC4;enable-background:new    ;}
	.st149{opacity:0.8655;fill:#6B99C3;enable-background:new    ;}
	.st150{opacity:0.8713;fill:#6A98C3;enable-background:new    ;}
	.st151{opacity:0.8772;fill:#6997C2;enable-background:new    ;}
	.st152{opacity:0.883;fill:#6897C2;enable-background:new    ;}
	.st153{opacity:0.8889;fill:#6796C2;enable-background:new    ;}
	.st154{opacity:0.8947;fill:#6695C1;enable-background:new    ;}
	.st155{opacity:0.9006;fill:#6595C1;enable-background:new    ;}
	.st156{opacity:0.9064;fill:#6494C0;enable-background:new    ;}
	.st157{opacity:0.9123;fill:#6393C0;enable-background:new    ;}
	.st158{opacity:0.9181;fill:#6293C0;enable-background:new    ;}
	.st159{opacity:0.924;fill:#6192BF;enable-background:new    ;}
	.st160{opacity:0.9298;fill:#6091BF;enable-background:new    ;}
	.st161{opacity:0.9357;fill:#5F91BE;enable-background:new    ;}
	.st162{opacity:0.9415;fill:#5E90BE;enable-background:new    ;}
	.st163{opacity:0.9474;fill:#5D8FBE;enable-background:new    ;}
	.st164{opacity:0.9532;fill:#5C8FBD;enable-background:new    ;}
	.st165{opacity:0.9591;fill:#5B8EBD;enable-background:new    ;}
	.st166{opacity:0.9649;fill:#5A8DBC;enable-background:new    ;}
	.st167{opacity:0.9708;fill:#598CBC;enable-background:new    ;}
	.st168{opacity:0.9766;fill:#588CBC;enable-background:new    ;}
	.st169{opacity:0.9825;fill:#578BBB;enable-background:new    ;}
	.st170{opacity:0.9883;fill:#568ABB;enable-background:new    ;}
	.st171{opacity:0.9942;fill:#558ABA;enable-background:new    ;}
	.st172{fill:#5489BA;}
	.st173{fill:#1F829F;}
	.st174{fill:#00304D;}
	.st175{fill:#FCFCFC;}
	.st176{opacity:0.31;fill:#4C6E9B;enable-background:new    ;}
	.st177{fill:#EDEDED;}
	.st178{fill:#A2B245;}
	.st179{fill:#F2F2F2;}
	.st180{fill:#D6E591;}
	.st181{fill:#FFFFFF;}
</style>
<g class="st0">
	<ellipse class="st1" cx="413.7" cy="692.9" rx="420.6" ry="40.3"/>
	<path class="st2" d="M-6,692.9C-6,715,181.9,733,413.7,733s419.7-18,419.7-40.1s-187.9-40.1-419.7-40.1S-6,670.7-6,692.9z"/>
	<path class="st3" d="M-5.1,692.8c0,22,187.5,39.9,418.9,39.9s418.9-17.9,418.9-39.9c0-22-187.5-39.9-418.9-39.9
		S-5.1,670.8-5.1,692.8z"/>
	<path class="st4" d="M-4.3,692.8c0,21.9,187.1,39.7,418,39.7s418-17.9,418-39.7c0-21.9-187.1-39.6-418-39.6S-4.3,670.9-4.3,692.8z"
		/>
	<path class="st5" d="M-3.3,692.7c0,21.8,186.7,39.5,417.1,39.5s417.1-17.8,417.1-39.5s-186.7-39.4-417.1-39.4S-3.3,671-3.3,692.7z"
		/>
	<path class="st6" d="M-2.4,692.7c0,21.7,186.4,39.3,416.2,39.3s416.2-17.7,416.2-39.3c0-21.6-186.4-39.2-416.2-39.2
		S-2.4,671.1-2.4,692.7z"/>
	<path class="st7" d="M-1.6,692.6c0,21.6,186,39.2,415.3,39.2S829,714.2,829,692.6s-186-39-415.3-39S-1.6,671.1-1.6,692.6z"/>
	<path class="st8" d="M-0.7,692.6c0,21.4,185.6,39,414.4,39s414.4-17.6,414.4-39s-185.6-38.8-414.4-38.8S-0.7,671.2-0.7,692.6z"/>
	<path class="st9" d="M0.2,692.5c0,21.3,185.2,38.8,413.5,38.8s413.5-17.5,413.5-38.8c0-21.3-185.2-38.6-413.5-38.6
		S0.2,671.3,0.2,692.5z"/>
	<path class="st10" d="M1,692.5c0,21.2,184.8,38.7,412.7,38.7s412.7-17.4,412.7-38.7s-184.8-38.4-412.7-38.4S1,671.3,1,692.5z"/>
	<path class="st11" d="M1.9,692.5c0,21.1,184.4,38.5,411.8,38.5s411.8-17.4,411.8-38.5c0-21.1-184.4-38.1-411.8-38.1
		S1.9,671.4,1.9,692.5z"/>
	<path class="st12" d="M2.8,692.4c0,21,184,38.3,410.9,38.3s410.9-17.3,410.9-38.3c0-21-183.9-37.9-410.9-37.9S2.8,671.5,2.8,692.4z
		"/>
	<path class="st13" d="M3.7,692.3c0,20.8,183.6,38.1,410.1,38.1s410.1-17.2,410.1-38.1c0-20.8-183.6-37.7-410.1-37.7
		S3.7,671.5,3.7,692.3z"/>
	<path class="st14" d="M4.5,692.3c0,20.7,183.2,37.9,409.2,37.9s409.2-17.2,409.2-37.9c0-20.7-183.2-37.5-409.2-37.5
		S4.5,671.6,4.5,692.3z"/>
	<path class="st15" d="M5.4,692.3c0,20.6,182.8,37.7,408.3,37.7S822,712.9,822,692.3c0-20.6-182.8-37.3-408.3-37.3
		S5.4,671.7,5.4,692.3z"/>
	<path class="st16" d="M6.3,692.2c0,20.5,182.4,37.6,407.4,37.6s407.4-17,407.4-37.6c0-20.5-182.4-37.1-407.4-37.1
		S6.3,671.7,6.3,692.2z"/>
	<path class="st17" d="M7.2,692.1c0,20.3,182,37.4,406.6,37.4s406.5-17,406.5-37.4c0-20.3-182-36.9-406.5-36.9S7.2,671.8,7.2,692.1z
		"/>
	<path class="st18" d="M8.1,692.1c0,20.3,181.6,37.2,405.6,37.2s405.6-17,405.6-37.2c0-20.3-181.6-36.6-405.6-36.6
		S8.1,671.9,8.1,692.1z"/>
	<path class="st19" d="M9,692.1c0,20.1,181.3,37,404.8,37s404.8-16.9,404.8-37c0-20.1-181.2-36.4-404.8-36.4S9,671.9,9,692.1z"/>
	<path class="st20" d="M9.8,692c0,20,180.9,36.8,403.9,36.8S817.6,712,817.6,692c0-20-180.9-36.2-403.9-36.2S9.8,672,9.8,692z"/>
	<path class="st21" d="M10.7,692c0,19.9,180.5,36.6,403,36.6s403-16.8,403-36.6s-180.5-36-403-36S10.7,672.1,10.7,692z"/>
	<path class="st22" d="M11.6,691.9c0,19.8,180.1,36.4,402.1,36.4s402.1-16.7,402.1-36.4c0-19.8-180.1-35.8-402.1-35.8
		S11.6,672.1,11.6,691.9z"/>
	<path class="st23" d="M12.5,691.9c0,19.7,179.7,36.3,401.3,36.3S815,711.5,815,691.9c0-19.7-179.7-35.6-401.3-35.6
		S12.5,672.2,12.5,691.9z"/>
	<path class="st24" d="M13.3,691.8c0,19.5,179.2,36.1,400.4,36.1s400.4-16.6,400.4-36.1c0-19.5-179.2-35.4-400.4-35.4
		S13.3,672.3,13.3,691.8z"/>
	<path class="st25" d="M14.2,691.8c0,19.4,178.8,35.9,399.5,35.9s399.5-16.5,399.5-35.9c0-19.4-178.8-35.2-399.5-35.2
		S14.2,672.3,14.2,691.8z"/>
	<path class="st26" d="M15.1,691.7c0,19.3,178.5,35.8,398.6,35.8s398.6-16.4,398.6-35.8c0-19.3-178.4-35-398.6-35
		S15.1,672.4,15.1,691.7z"/>
	<path class="st27" d="M16,691.7c0,19.2,178.1,35.6,397.8,35.6s397.7-16.4,397.7-35.6s-178.1-34.8-397.8-34.8S16,672.5,16,691.7z"/>
	<path class="st28" d="M16.9,691.7c0,19.1,177.7,35.4,396.9,35.4s396.8-16.3,396.8-35.4s-177.7-34.6-396.8-34.6
		S16.9,672.5,16.9,691.7z"/>
	<path class="st29" d="M17.8,691.6c0,19,177.3,35.2,396,35.2s396-16.2,396-35.2c0-19-177.3-34.4-396-34.4S17.8,672.6,17.8,691.6z"/>
	<path class="st30" d="M18.6,691.5c0,18.9,176.9,35,395.1,35s395.1-16.2,395.1-35s-176.9-34.2-395.1-34.2S18.6,672.7,18.6,691.5z"/>
	<path class="st31" d="M19.5,691.5c0,18.7,176.5,34.8,394.2,34.8s394.2-16.1,394.2-34.8s-176.5-33.9-394.2-33.9
		S19.5,672.7,19.5,691.5z"/>
	<path class="st32" d="M20.4,691.5c0,18.6,176.1,34.7,393.3,34.7s393.3-16,393.3-34.7c0-18.6-176.1-33.7-393.3-33.7
		S20.4,672.8,20.4,691.5z"/>
	<path class="st33" d="M21.3,691.4c0,18.5,175.8,34.5,392.5,34.5s392.5-16,392.5-34.5c0-18.5-175.7-33.5-392.5-33.5
		S21.3,672.9,21.3,691.4z"/>
	<path class="st34" d="M22.1,691.3c0,18.4,175.4,34.3,391.6,34.3s391.6-15.9,391.6-34.3c0-18.4-175.3-33.3-391.6-33.3
		S22.1,673,22.1,691.3z"/>
	<path class="st35" d="M23,691.3c0,18.3,175,34.1,390.7,34.1s390.7-15.8,390.7-34.1c0-18.3-175-33.1-390.7-33.1S23,673.1,23,691.3z"
		/>
	<path class="st36" d="M23.9,691.3c0,18.1,174.5,34,389.8,34s389.8-15.8,389.8-34c0-18.1-174.5-32.9-389.8-32.9
		S23.9,673.1,23.9,691.3z"/>
	<path class="st37" d="M24.7,691.2c0,18.1,174.1,33.8,389,33.8s388.9-15.7,388.9-33.8c0-18.1-174.1-32.7-389-32.7
		S24.7,673.2,24.7,691.2z"/>
	<path class="st38" d="M25.7,691.2c0,17.9,173.7,33.5,388.1,33.5s388-15.7,388-33.5c0-17.9-173.7-32.4-388.1-32.4
		S25.7,673.3,25.7,691.2z"/>
	<path class="st39" d="M26.6,691.1c0,17.8,173.3,33.4,387.2,33.4s387.2-15.6,387.2-33.4s-173.3-32.2-387.2-32.2
		S26.6,673.3,26.6,691.1z"/>
	<path class="st40" d="M27.4,691.1c0,17.6,173,33.2,386.4,33.2s386.3-15.6,386.3-33.2c0-17.6-172.9-32-386.3-32
		S27.4,673.4,27.4,691.1z"/>
	<path class="st41" d="M28.3,691c0,17.6,172.6,33,385.4,33s385.4-15.5,385.4-33c0-17.6-172.5-31.8-385.4-31.8S28.3,673.5,28.3,691z"
		/>
	<path class="st42" d="M29.2,691c0,17.4,172.2,32.9,384.5,32.9s384.5-15.4,384.5-32.9c0-17.4-172.2-31.6-384.5-31.6
		S29.2,673.5,29.2,691z"/>
	<path class="st43" d="M30,690.9c0,17.3,171.8,32.7,383.7,32.7s383.7-15.4,383.7-32.7s-171.8-31.4-383.7-31.4S30,673.6,30,690.9z"/>
	<path class="st44" d="M30.9,690.9c0,17.2,171.4,32.5,382.8,32.5s382.8-15.3,382.8-32.5c0-17.2-171.4-31.1-382.8-31.1
		S30.9,673.7,30.9,690.9z"/>
	<path class="st45" d="M31.8,690.9c0,17.1,171,32.3,381.9,32.3s381.9-15.2,381.9-32.3s-171-30.9-381.9-30.9S31.8,673.7,31.8,690.9z"
		/>
	<path class="st46" d="M32.7,690.8c0,17,170.6,32.1,381.1,32.1s381-15.2,381-32.1s-170.6-30.7-381.1-30.7S32.7,673.8,32.7,690.8z"/>
	<path class="st47" d="M33.5,690.7c0,16.8,170.3,31.9,380.2,31.9s380.1-15.1,380.1-31.9c0-16.8-170.2-30.5-380.2-30.5
		S33.5,673.9,33.5,690.7z"/>
	<path class="st48" d="M34.5,690.7c0,16.7,169.8,31.7,379.3,31.7s379.2-15,379.2-31.7c0-16.7-169.8-30.3-379.3-30.3
		S34.5,674,34.5,690.7z"/>
	<path class="st49" d="M35.3,690.7c0,16.6,169.4,31.6,378.4,31.6s378.4-15,378.4-31.6s-169.4-30.1-378.4-30.1S35.3,674,35.3,690.7z"
		/>
	<path class="st50" d="M36.2,690.6c0,16.5,169,31.4,377.6,31.4s377.5-14.9,377.5-31.4c0-16.5-169-29.9-377.5-29.9
		S36.2,674.1,36.2,690.6z"/>
	<path class="st51" d="M37.1,690.5c0,16.4,168.6,31.2,376.7,31.2s376.6-14.8,376.6-31.2s-168.6-29.6-376.6-29.6
		S37.1,674.2,37.1,690.5z"/>
	<path class="st52" d="M38,690.5c0,16.2,168.2,31.1,375.8,31.1s375.7-14.8,375.7-31.1c0-16.3-168.3-29.5-375.8-29.5
		S38,674.2,38,690.5z"/>
	<path class="st53" d="M38.8,690.5c0,16.2,167.8,30.9,374.9,30.9s374.9-14.7,374.9-30.9c0-16.2-167.8-29.2-374.9-29.2
		S38.8,674.3,38.8,690.5z"/>
	<path class="st54" d="M39.7,690.4c0,16,167.5,30.7,374,30.7s374-14.6,374-30.7s-167.4-29-374-29S39.7,674.4,39.7,690.4z"/>
	<path class="st55" d="M40.6,690.3c0,15.9,167.1,30.5,373.1,30.5s373.1-14.6,373.1-30.5c0-15.9-167-28.8-373.1-28.8
		S40.6,674.4,40.6,690.3z"/>
	<path class="st56" d="M41.5,690.3c0,15.8,166.7,30.3,372.3,30.3s372.2-14.5,372.2-30.3c0-15.8-166.7-28.6-372.3-28.6
		S41.5,674.5,41.5,690.3z"/>
	<path class="st57" d="M42.3,690.3c0,15.7,166.3,30.1,371.4,30.1S785,706,785,690.3s-166.3-28.4-371.4-28.4S42.3,674.6,42.3,690.3z"
		/>
	<path class="st58" d="M43.2,690.2c0,15.6,165.9,30,370.5,30s370.4-14.3,370.4-30c0-15.6-165.9-28.2-370.5-28.2
		S43.2,674.6,43.2,690.2z"/>
	<path class="st59" d="M44.1,690.2c0,15.4,165.5,29.8,369.6,29.8s369.6-14.3,369.6-29.8c0-15.4-165.5-28-369.6-28
		S44.1,674.7,44.1,690.2z"/>
	<path class="st60" d="M45,690.1c0,15.4,165.1,29.6,368.8,29.6s368.7-14.3,368.7-29.6c0-15.4-165.1-27.8-368.7-27.8
		S45,674.8,45,690.1z"/>
	<path class="st61" d="M45.9,690.1c0,15.2,164.7,29.4,367.9,29.4s367.8-14.2,367.8-29.4c0-15.2-164.7-27.6-367.8-27.6
		S45.9,674.8,45.9,690.1z"/>
	<path class="st62" d="M46.8,690.1c0,15.1,164.3,29.2,367,29.2s367-14.1,367-29.2c0-15.1-164.3-27.4-367-27.4S46.8,674.9,46.8,690.1
		z"/>
	<path class="st63" d="M47.6,690c0,15,163.9,29,366.1,29s366.1-14.1,366.1-29S616,662.8,413.8,662.8S47.6,675,47.6,690z"/>
	<path class="st64" d="M48.5,689.9c0,14.9,163.5,28.8,365.3,28.8s365.2-14,365.2-28.8C779,675,615.5,663,413.8,663
		S48.5,675.1,48.5,689.9z"/>
	<path class="st65" d="M49.4,689.9c0,14.8,163.1,28.7,364.3,28.7s364.3-13.9,364.3-28.7s-163.1-26.7-364.3-26.7
		S49.4,675.2,49.4,689.9z"/>
	<path class="st66" d="M50.3,689.9c0,14.6,162.7,28.5,363.5,28.5s363.4-13.9,363.4-28.5s-162.7-26.5-363.5-26.5
		S50.3,675.2,50.3,689.9z"/>
	<path class="st67" d="M51.1,689.8c0,14.5,162.3,28.3,362.6,28.3s362.5-13.8,362.5-28.3c0-14.5-162.3-26.3-362.6-26.3
		S51.1,675.3,51.1,689.8z"/>
	<path class="st68" d="M52,689.7c0,14.4,162,28.2,361.7,28.2s361.7-13.7,361.7-28.2s-161.9-26.1-361.7-26.1S52,675.4,52,689.7z"/>
	<path class="st69" d="M52.9,689.7c0,14.3,161.6,28,360.8,28s360.8-13.7,360.8-28S613,663.8,413.6,663.8S52.9,675.4,52.9,689.7z"/>
	<path class="st70" d="M53.8,689.6c0,14.1,161.2,27.8,360,27.8s359.9-13.6,359.9-27.8c0-14.1-161.1-25.7-360-25.7
		S53.8,675.5,53.8,689.6z"/>
	<path class="st71" d="M54.7,689.6c0,14,160.8,27.6,359.1,27.6s359-13.5,359-27.6s-160.8-25.4-359-25.4S54.7,675.6,54.7,689.6z"/>
	<path class="st72" d="M55.6,689.5c0,13.9,160.4,27.4,358.2,27.4s358.2-13.5,358.2-27.4c0-13.9-160.4-25.2-358.2-25.2
		S55.6,675.6,55.6,689.5z"/>
	<path class="st73" d="M56.4,689.5c0,13.8,160,27.2,357.4,27.2s357.3-13.4,357.3-27.2c0-13.8-160-25-357.3-25S56.4,675.7,56.4,689.5
		z"/>
	<path class="st74" d="M57.3,689.4c0,13.7,159.6,27,356.5,27s356.4-13.3,356.4-27c0-13.7-159.6-24.8-356.4-24.8
		S57.3,675.8,57.3,689.4z"/>
	<path class="st75" d="M58.2,689.4c0,13.5,159.2,26.9,355.6,26.9s355.5-13.3,355.5-26.9c0-13.5-159.2-24.6-355.5-24.6
		S58.2,675.8,58.2,689.4z"/>
	<path class="st76" d="M59,689.4c0,13.5,158.8,26.7,354.7,26.7s354.6-13.2,354.6-26.7S609.5,665,413.6,665S59,675.9,59,689.4z"/>
	<path class="st77" d="M59.9,689.3c0,13.3,158.4,26.5,353.8,26.5s353.7-13.1,353.7-26.5s-158.4-24.1-353.8-24.1S59.9,676,59.9,689.3
		z"/>
	<path class="st78" d="M60.8,689.2c0,13.2,158,26.3,352.9,26.3s352.9-13.1,352.9-26.3c0-13.2-158-23.9-352.9-23.9
		S60.8,676,60.8,689.2z"/>
	<path class="st79" d="M61.7,689.2c0,13.1,157.6,26.1,352.1,26.1s352-13.1,352-26.1s-157.6-23.7-352.1-23.7S61.7,676.1,61.7,689.2z"
		/>
	<path class="st80" d="M62.5,689.2c0,13,157.2,25.9,351.2,25.9s351.1-13,351.1-25.9c0-13-157.2-23.5-351.2-23.5
		S62.5,676.2,62.5,689.2z"/>
	<path class="st81" d="M63.5,689.1c0,12.9,156.8,25.8,350.3,25.8S764,702,764,689.1s-156.8-23.3-350.3-23.3S63.5,676.2,63.5,689.1z"
		/>
	<path class="st82" d="M64.4,689c0,12.7,156.5,25.6,349.4,25.6s349.4-12.9,349.4-25.6c0-12.7-156.4-23.1-349.4-23.1
		S64.4,676.3,64.4,689z"/>
	<path class="st83" d="M65.2,689c0,12.7,156.1,25.4,348.6,25.4s348.5-12.8,348.5-25.4c0-12.7-156-22.9-348.5-22.9
		S65.2,676.4,65.2,689z"/>
	<path class="st84" d="M66.1,689c0,12.5,155.7,25.3,347.7,25.3s347.6-12.7,347.6-25.3s-155.6-22.6-347.6-22.6S66.1,676.4,66.1,689z"
		/>
	<path class="st85" d="M67,688.9c0,12.4,155.3,25.1,346.8,25.1s346.7-12.7,346.7-25.1c0-12.4-155.3-22.4-346.7-22.4
		S67,676.5,67,688.9z"/>
	<path class="st86" d="M67.8,688.9c0,12.3,154.9,24.9,345.9,24.9s345.9-12.6,345.9-24.9c0-12.3-154.9-22.2-345.9-22.2
		S67.8,676.6,67.8,688.9z"/>
	<path class="st87" d="M68.7,688.8c0,12.2,154.5,24.7,345.1,24.7s344.9-12.5,344.9-24.7s-154.5-22-345-22S68.7,676.6,68.7,688.8z"/>
	<path class="st88" d="M69.6,688.8c0,12.1,154.1,24.5,344.1,24.5s344.1-12.5,344.1-24.5c0-12.1-154.1-21.8-344.1-21.8
		S69.6,676.7,69.6,688.8z"/>
	<path class="st89" d="M70.5,688.7c0,11.9,153.7,24.3,343.3,24.3s343.2-12.4,343.2-24.3s-153.7-21.6-343.3-21.6
		S70.5,676.8,70.5,688.7z"/>
	<path class="st90" d="M71.3,688.7c0,11.8,153.3,24.1,342.4,24.1S756,700.5,756,688.7s-153.3-21.4-342.4-21.4S71.3,676.8,71.3,688.7
		z"/>
	<path class="st91" d="M72.3,688.6c0,11.7,152.9,24,341.5,24s341.4-12.3,341.4-24c0-11.7-152.9-21.2-341.5-21.2
		S72.3,676.9,72.3,688.6z"/>
	<path class="st92" d="M73.1,688.6c0,11.6,152.5,23.8,340.6,23.8s340.6-12.2,340.6-23.8c0-11.6-152.5-21-340.6-21
		S73.1,677,73.1,688.6z"/>
	<path class="st93" d="M74,688.6c0,11.5,152.1,23.6,339.8,23.6s339.7-12.1,339.7-23.6c0-11.5-152.1-20.7-339.7-20.7
		S74,677.1,74,688.6z"/>
	<path class="st94" d="M74.9,688.5c0,11.3,151.7,23.4,338.9,23.4s338.8-12.1,338.8-23.4c0-11.3-151.7-20.5-338.8-20.5
		S74.9,677.2,74.9,688.5z"/>
	<path class="st95" d="M75.8,688.4c0,11.2,151.4,23.2,338,23.2s338-12,338-23.2s-151.3-20.3-338-20.3S75.8,677.3,75.8,688.4z"/>
	<path class="st96" d="M76.6,688.4c0,11.1,151,23,337.1,23s337.1-11.9,337.1-23s-150.9-20.1-337.1-20.1S76.6,677.3,76.6,688.4z"/>
	<path class="st97" d="M77.5,688.4c0,11,150.6,22.9,336.3,22.9s336.1-11.9,336.1-22.9c0-11-150.5-19.9-336.2-19.9
		S77.5,677.4,77.5,688.4z"/>
	<path class="st98" d="M78.4,688.3c0,10.8,150.2,22.7,335.4,22.7s335.3-11.8,335.3-22.7s-150.1-19.7-335.3-19.7
		S78.4,677.5,78.4,688.3z"/>
	<path class="st99" d="M79.3,688.2c0,10.8,149.8,22.5,334.5,22.5s334.4-11.7,334.4-22.5c0-10.8-149.7-19.5-334.5-19.5
		S79.3,677.5,79.3,688.2z"/>
	<path class="st100" d="M80.1,688.2c0,10.6,149.4,22.4,333.6,22.4s333.5-11.7,333.5-22.4c0-10.6-149.4-19.3-333.6-19.3
		S80.1,677.6,80.1,688.2z"/>
	<path class="st101" d="M81,688.2c0,10.5,149,22.2,332.7,22.2s332.6-11.7,332.6-22.2s-149-19.1-332.7-19.1S81,677.7,81,688.2z"/>
	<path class="st102" d="M81.9,688.1c0,10.4,148.6,22,331.8,22s331.8-11.6,331.8-22c0-10.4-148.6-18.9-331.8-18.9
		S81.9,677.7,81.9,688.1z"/>
	<path class="st103" d="M82.8,688.1c0,10.3,148.2,21.8,331,21.8s330.9-11.5,330.9-21.8c0-10.2-148.2-18.7-330.9-18.7
		S82.8,677.8,82.8,688.1z"/>
	<path class="st104" d="M83.7,688c0,10.2,147.8,21.6,330.1,21.6s330-11.5,330-21.6s-147.8-18.4-330-18.4S83.7,677.9,83.7,688z"/>
	<path class="st105" d="M84.6,688c0,10,147.4,21.4,329.2,21.4S742.9,698,742.9,688c0-10-147.4-18.2-329.2-18.2S84.6,677.9,84.6,688z
		"/>
	<path class="st106" d="M85.4,687.9c0,10,147,21.2,328.4,21.2s328.3-11.3,328.3-21.2s-147-18-328.3-18S85.4,678,85.4,687.9z"/>
	<path class="st107" d="M86.3,687.9c0,9.8,146.6,21.1,327.5,21.1s327.3-11.2,327.3-21.1c0-9.8-146.6-17.8-327.4-17.8
		S86.3,678.1,86.3,687.9z"/>
	<path class="st108" d="M87.2,687.8c0,9.7,146.2,20.9,326.6,20.9s326.5-11.2,326.5-20.9c0-9.7-146.2-17.6-326.5-17.6
		S87.2,678.1,87.2,687.8z"/>
	<path class="st109" d="M88,687.8c0,9.6,145.9,20.7,325.7,20.7s325.6-11.1,325.6-20.7s-145.8-17.3-325.7-17.3S88,678.2,88,687.8z"/>
	<path class="st110" d="M88.9,687.8c0,9.5,145.5,20.5,324.9,20.5s324.7-11,324.7-20.5c0-9.5-145.4-17.2-324.8-17.2
		S88.9,678.3,88.9,687.8z"/>
	<path class="st111" d="M89.8,687.7c0,9.4,145.1,20.3,323.9,20.3s323.9-11,323.9-20.3s-145-16.9-323.9-16.9S89.8,678.3,89.8,687.7z"
		/>
	<path class="st112" d="M90.7,687.6c0,9.2,144.7,20.1,323,20.1s323-10.9,323-20.1c0-9.2-144.6-16.7-323-16.7S90.7,678.4,90.7,687.6z
		"/>
	<path class="st113" d="M91.6,687.6c0,9.1,144.3,20,322.2,20s322.1-10.8,322.1-20s-144.2-16.5-322.2-16.5S91.6,678.5,91.6,687.6z"/>
	<path class="st114" d="M92.5,687.6c0,9,143.9,19.8,321.3,19.8S735,696.6,735,687.6c0-9-143.9-16.3-321.2-16.3
		S92.5,678.5,92.5,687.6z"/>
	<path class="st115" d="M93.4,687.5c0,8.9,143.5,19.6,320.4,19.6s320.4-10.7,320.4-19.6s-143.5-16.1-320.4-16.1
		S93.4,678.6,93.4,687.5z"/>
	<path class="st116" d="M94.2,687.4c0,8.8,143.1,19.4,319.6,19.4s319.5-10.6,319.5-19.4s-143.1-15.9-319.5-15.9
		S94.2,678.7,94.2,687.4z"/>
	<path class="st117" d="M95.1,687.4c0,8.6,142.7,19.3,318.7,19.3s318.6-10.6,318.6-19.3c0-8.7-142.7-15.6-318.6-15.6
		S95.1,678.7,95.1,687.4z"/>
	<path class="st118" d="M96,687.4c0,8.6,142.3,19.1,317.8,19.1s317.7-10.5,317.7-19.1c0-8.6-142.3-15.4-317.7-15.4
		S96,678.8,96,687.4z"/>
	<path class="st119" d="M96.8,687.3c0,8.4,141.9,18.9,316.9,18.9s316.8-10.4,316.8-18.9c0-8.4-141.9-15.2-316.9-15.2
		S96.8,678.9,96.8,687.3z"/>
	<path class="st120" d="M97.7,687.3c0,8.3,141.5,18.7,316.1,18.7s315.9-10.4,315.9-18.7c0-8.3-141.5-15-316-15
		S97.7,678.9,97.7,687.3z"/>
	<path class="st121" d="M98.6,687.2c0,8.2,141.1,18.5,315.2,18.5s315.1-10.4,315.1-18.5s-141-14.8-315.1-14.8S98.6,679,98.6,687.2z"
		/>
	<path class="st122" d="M99.5,687.2c0,8.1,140.7,18.3,314.3,18.3s314.2-10.3,314.2-18.3s-140.7-14.6-314.3-14.6
		S99.5,679.1,99.5,687.2z"/>
	<path class="st123" d="M100.3,687.1c0,7.9,140.4,18.2,313.4,18.2S727,695,727,687.1s-140.3-14.4-313.4-14.4
		S100.3,679.1,100.3,687.1z"/>
	<path class="st124" d="M101.3,687.1c0,7.8,140,18,312.5,18s312.4-10.2,312.4-18c0-7.8-139.9-14.1-312.5-14.1
		S101.3,679.3,101.3,687.1z"/>
	<path class="st125" d="M102.1,687c0,7.7,139.6,17.8,311.6,17.8s311.6-10.1,311.6-17.8s-139.5-13.9-311.6-13.9
		S102.1,679.3,102.1,687z"/>
	<path class="st126" d="M103,687c0,7.6,139.2,17.6,310.8,17.6s310.7-10,310.7-17.6c0-7.6-139.1-13.7-310.7-13.7S103,679.4,103,687z"
		/>
	<path class="st127" d="M103.9,687c0,7.5,138.8,17.4,309.9,17.4s309.8-10,309.8-17.4s-138.7-13.5-309.8-13.5S103.9,679.5,103.9,687z
		"/>
	<path class="st128" d="M104.8,686.9c0,7.3,138.4,17.2,309,17.2s308.9-9.9,308.9-17.2c0-7.3-138.3-13.3-309-13.3
		S104.8,679.5,104.8,686.9z"/>
	<path class="st129" d="M105.6,686.8c0,7.3,138,17,308.1,17s308-9.8,308-17c0-7.3-138-13.1-308.1-13.1S105.6,679.6,105.6,686.8z"/>
	<path class="st130" d="M106.5,686.8c0,7.1,137.6,16.9,307.3,16.9s307.1-9.8,307.1-16.9c0-7.1-137.6-12.9-307.2-12.9
		S106.5,679.7,106.5,686.8z"/>
	<path class="st131" d="M107.4,686.8c0,7,137.2,16.7,306.4,16.7s306.3-9.7,306.3-16.7s-137.2-12.7-306.3-12.7
		S107.4,679.7,107.4,686.8z"/>
	<path class="st132" d="M108.3,686.7c0,6.9,136.8,16.5,305.5,16.5s305.4-9.6,305.4-16.5c0-6.9-136.8-12.5-305.5-12.5
		S108.3,679.8,108.3,686.7z"/>
	<path class="st133" d="M109.1,686.6c0,6.8,136.4,16.4,304.7,16.4s304.5-9.6,304.5-16.4S582,674.4,413.7,674.4
		S109.1,679.9,109.1,686.6z"/>
	<path class="st134" d="M110.1,686.6c0,6.7,136,16.2,303.7,16.2s303.6-9.5,303.6-16.2s-135.9-12.1-303.7-12.1
		S110.1,679.9,110.1,686.6z"/>
	<path class="st135" d="M110.9,686.5c0,6.5,135.6,16,302.8,16s302.8-9.4,302.8-16S581,674.7,413.8,674.7S110.9,680,110.9,686.5z"/>
	<path class="st136" d="M111.8,686.5c0,6.4,135.2,15.8,302,15.8s301.9-9.4,301.9-15.8c0-6.4-135.2-11.7-301.9-11.7
		S111.8,680.1,111.8,686.5z"/>
	<path class="st137" d="M112.7,686.5c0,6.3,134.9,15.6,301.1,15.6s301-9.3,301-15.6s-134.8-11.4-301-11.4S112.7,680.1,112.7,686.5z"
		/>
	<path class="st138" d="M113.6,686.4c0,6.2,134.5,15.4,300.2,15.4s300.1-9.2,300.1-15.4c0-6.2-134.4-11.2-300.2-11.2
		S113.6,680.2,113.6,686.4z"/>
	<path class="st139" d="M114.4,686.3c0,6.1,134.1,15.3,299.4,15.3S713,692.5,713,686.3c0-6.1-134-11-299.3-11
		S114.4,680.3,114.4,686.3z"/>
	<path class="st140" d="M115.3,686.3c0,5.9,133.7,15.1,298.5,15.1s298.3-9.1,298.3-15.1c0-5.9-133.6-10.8-298.4-10.8
		S115.3,680.4,115.3,686.3z"/>
	<path class="st141" d="M116.2,686.3c0,5.9,133.3,14.9,297.6,14.9s297.5-9.1,297.5-14.9c0-5.8-133.2-10.6-297.5-10.6
		S116.2,680.4,116.2,686.3z"/>
	<path class="st142" d="M117.1,686.2c0,5.7,132.9,14.7,296.7,14.7s296.6-9,296.6-14.7c0-5.7-132.8-10.4-296.7-10.4
		S117.1,680.5,117.1,686.2z"/>
	<path class="st143" d="M117.9,686.1c0,5.6,132.5,14.6,295.9,14.6s295.7-9,295.7-14.6c0-5.6-132.5-10.2-295.8-10.2
		S117.9,680.6,117.9,686.1z"/>
	<path class="st144" d="M118.8,686.1c0,5.5,132.1,14.3,295,14.3s294.9-8.9,294.9-14.3c0-5.5-132.1-9.9-294.9-9.9
		S118.8,680.6,118.8,686.1z"/>
	<path class="st145" d="M119.7,686.1c0,5.4,131.7,14.1,294,14.1s294-8.8,294-14.1c0-5.4-131.7-9.7-294-9.7S119.7,680.7,119.7,686.1z
		"/>
	<path class="st146" d="M120.6,686c0,5.3,131.3,14,293.2,14s293.1-8.8,293.1-14c0-5.3-131.2-9.5-293.2-9.5S120.6,680.8,120.6,686z"
		/>
	<path class="st147" d="M121.5,685.9c0,5.1,130.9,13.8,292.3,13.8S706,691.1,706,685.9s-130.8-9.3-292.2-9.3
		S121.5,680.8,121.5,685.9z"/>
	<path class="st148" d="M122.4,685.9c0,5,130.5,13.6,291.4,13.6s291.3-8.6,291.3-13.6c0-5-130.4-9.1-291.4-9.1
		S122.4,680.9,122.4,685.9z"/>
	<path class="st149" d="M123.2,685.9c0,4.9,130.1,13.5,290.6,13.5s290.4-8.6,290.4-13.5c0-4.9-130-8.9-290.5-8.9
		S123.2,681,123.2,685.9z"/>
	<path class="st150" d="M124.1,685.8c0,4.8,129.7,13.3,289.7,13.3s289.5-8.5,289.5-13.3c0-4.8-129.6-8.7-289.6-8.7
		S124.1,681,124.1,685.8z"/>
	<path class="st151" d="M125,685.8c0,4.6,129.4,13.1,288.8,13.1s288.7-8.4,288.7-13.1c0-4.6-129.3-8.4-288.7-8.4
		S125,681.1,125,685.8z"/>
	<path class="st152" d="M125.8,685.7c0,4.5,129,12.9,287.9,12.9s287.8-8.4,287.8-12.9c0-4.5-128.9-8.2-287.9-8.2
		S125.8,681.2,125.8,685.7z"/>
	<path class="st153" d="M126.7,685.7c0,4.4,128.6,12.7,287.1,12.7s286.9-8.3,286.9-12.7s-128.5-8-287-8S126.7,681.2,126.7,685.7z"/>
	<path class="st154" d="M127.6,685.7c0,4.3,128.2,12.5,286.2,12.5s286.1-8.2,286.1-12.5s-128.1-7.8-286.1-7.8
		S127.6,681.4,127.6,685.7z"/>
	<path class="st155" d="M128.5,685.6c0,4.2,127.8,12.4,285.3,12.4S699,689.9,699,685.6c0-4.2-127.7-7.6-285.3-7.6
		S128.5,681.4,128.5,685.6z"/>
	<path class="st156" d="M129.4,685.5c0,4.1,127.4,12.2,284.4,12.2s284.3-8.1,284.3-12.2s-127.3-7.4-284.4-7.4
		S129.4,681.5,129.4,685.5z"/>
	<path class="st157" d="M130.3,685.5c0,4,127,12,283.5,12s283.4-8,283.4-12c0-4-126.9-7.1-283.4-7.1S130.3,681.6,130.3,685.5z"/>
	<path class="st158" d="M131.1,685.5c0,3.8,126.6,11.8,282.6,11.8s282.5-7.9,282.5-11.8c0-3.8-126.5-6.9-282.6-6.9
		S131.1,681.6,131.1,685.5z"/>
	<path class="st159" d="M132,685.4c0,3.7,126.2,11.7,281.8,11.7s281.6-7.9,281.6-11.7s-126.1-6.7-281.7-6.7S132,681.7,132,685.4z"/>
	<path class="st160" d="M132.9,685.3c0,3.6,125.8,11.5,280.9,11.5s280.8-7.8,280.8-11.5s-125.7-6.5-280.8-6.5
		S132.9,681.8,132.9,685.3z"/>
	<path class="st161" d="M133.8,685.3c0,3.5,125.4,11.2,280,11.2s279.9-7.8,279.9-11.2c0-3.4-125.3-6.3-279.9-6.3
		S133.8,681.8,133.8,685.3z"/>
	<path class="st162" d="M134.6,685.3c0,3.4,125,11.1,279.1,11.1s279-7.7,279-11.1s-124.9-6.1-279.1-6.1S134.6,681.9,134.6,685.3z"/>
	<path class="st163" d="M135.5,685.2c0,3.2,124.6,10.9,278.3,10.9s278.1-7.7,278.1-10.9s-124.5-5.9-278.2-5.9S135.5,682,135.5,685.2
		z"/>
	<path class="st164" d="M136.4,685.1c0,3.2,124.2,10.7,277.4,10.7S691,688.2,691,685.1s-124.1-5.7-277.3-5.7S136.4,682,136.4,685.1z
		"/>
	<path class="st165" d="M137.3,685.1c0,3,123.9,10.6,276.5,10.6s276.4-7.5,276.4-10.6s-123.8-5.5-276.5-5.5S137.3,682.1,137.3,685.1
		z"/>
	<path class="st166" d="M138.1,685.1c0,2.9,123.5,10.4,275.7,10.4s275.5-7.5,275.5-10.4s-123.4-5.3-275.6-5.3
		S138.1,682.2,138.1,685.1z"/>
	<path class="st167" d="M139.1,685c0,2.8,123.1,10.2,274.8,10.2s274.6-7.4,274.6-10.2s-123-5.1-274.7-5.1S139.1,682.2,139.1,685z"/>
	<path class="st168" d="M139.9,685c0,2.7,122.7,10,273.9,10s273.7-7.3,273.7-10c0-2.7-122.6-4.9-273.8-4.9S139.9,682.3,139.9,685z"
		/>
	<path class="st169" d="M140.8,684.9c0,2.6,122.3,9.8,273,9.8s272.8-7.3,272.8-9.8c0-2.6-122.2-4.6-272.9-4.6
		S140.8,682.4,140.8,684.9z"/>
	<path class="st170" d="M141.7,684.9c0,2.4,121.8,9.6,272.1,9.6s272-7.2,272-9.6c0-2.4-121.8-4.4-272-4.4S141.7,682.4,141.7,684.9z"
		/>
	<path class="st171" d="M142.6,684.9c0,2.3,121.4,9.4,271.2,9.4s271.1-7.1,271.1-9.4c0-2.3-121.4-4.2-271.2-4.2
		S142.6,682.5,142.6,684.9z"/>
	<path class="st172" d="M143.4,684.8c0,2.2,121.1,9.3,270.3,9.3S684,687,684,684.8c0-2.2-121-4-270.3-4S143.4,682.6,143.4,684.8z"/>
</g>
<g>
	<g>
		<path class="st173" d="M170.7,92.2c0.1-12.5,5.5-25.8,16.6-32.5c2.2-1.3,4.6-2.4,7.1-3c0.5-0.1,1.1-0.3,1.6-0.4l17.3-3.7
			c-17.6,3.8-25.6,23.6-24.4,40.3c-0.1,0.6,47,495.2,47.1,496.2c0.1,1.3,0.3,2.6,0.5,4c0.8,4.6,2.6,8.8,4.7,13.1
			c3.3,6.7,8.2,12.7,14.5,16.8c4.3,2.8,8.3,5,13.5,5.5c1.2,0.1,2.4,0.1,3.6,0.1l211.2-7.9l0,0c1.8-0.1,3.2-0.3,4.6-0.6
			c-3.6,0.6-18.7,4.3-22,4.2l0,0L255.3,632c-1.8,0.1-3.5-0.1-5.3-0.3c-6.3-0.9-12.2-4-16.9-8.2l0,0c-6.6-5.9-11.2-13.7-13.6-22.2
			c-0.8-2.8-1.3-5.8-1.6-8.7L170.8,97.5C170.7,95.7,170.7,93.9,170.7,92.2z"/>
		<g>
			<path class="st173" d="M373.6,60.5c-4.4,0.1-7.5,4.2-7.1,9c0.5,4.8,4.4,8.6,8.8,8.4c4.4-0.1,7.5-4.2,7.1-9
				C381.8,64.1,377.9,60.4,373.6,60.5z"/>
		</g>
		<g>
			<path class="st173" d="M280.5,65.3c-2.2,0.1-3.8,3-3.5,6.5c0.3,3.5,2.2,6.2,4.4,6.1l74.6-2.2c2.2-0.1,3.8-3,3.5-6.5
				c-0.3-3.5-2.2-6.2-4.4-6.1L280.5,65.3z"/>
		</g>
		<g>
			<path class="st174" d="M219.1,64.3c-12.9,0.5-22.1,13.5-20.6,29.1l47.1,495.3c1.5,15.6,13.1,27.8,25.9,27.4l211.1-7.9
				c12.9-0.5,22.1-13.5,20.6-29.1L456.1,83.7C454.7,68,443,55.8,430.2,56.3l-27.1,1l1.2,12.5c0.9,9.5-4.7,17.5-12.6,17.8l-128.4,4.9
				c-7.9,0.3-15-7.2-15.9-16.7l-1.2-12.5L219.1,64.3z"/>
		</g>
		<path class="st174" d="M188.2,93.8L235.3,589c2.2,22.4,18.9,40.1,37.4,39.4l211.2-7.9c18.5-0.7,31.8-19.5,29.6-42L466.5,83.3
			c-2.2-22.4-18.9-40.1-37.4-39.4l-211.2,7.9C199.4,52.6,186.1,71.3,188.2,93.8z M219.1,64.3l27.1-1l0,0l1.2,12.5
			c0.9,9.5,8,17,15.9,16.7l128.4-4.9c7.9-0.3,13.5-8.3,12.6-17.8l-1.2-12.5l0,0l27.1-1c12.9-0.5,24.5,11.8,25.9,27.4l47.1,495.3
			c1.5,15.6-7.7,28.6-20.6,29.1L271.6,616c-12.9,0.5-24.5-11.8-25.9-27.4L198.5,93.4C197,77.8,206.2,64.7,219.1,64.3z M280.9,66.8
			l69.7-1.8c2-0.1,3.9,1.9,4.2,4.4s-1.2,4.6-3.3,4.6l-69.7,1.8c-2.1,0.1-3.9-1.9-4.2-4.4C277.4,69,278.8,66.9,280.9,66.8z
			 M373.2,61.7c3.5-0.1,6.7,2.9,7,6.8c0.3,3.8-2.2,7.1-5.7,7.3c-3.5,0.1-6.7-2.9-7-6.7C367.2,65.1,369.7,61.8,373.2,61.7z"/>
	</g>
</g>
<g>
	<g>
		
			<ellipse transform="matrix(0.1964 -0.9805 0.9805 0.1964 -53.5387 353.602)" class="st174" cx="189" cy="209.5" rx="72.1" ry="74.4"/>
		<path class="st173" d="M261.2,187.4c12.7,38.1-7.1,78.1-44.3,89.5c-37.1,11.3-77.6-10.3-90.3-48.4s7.1-78.1,44.3-89.5
			S248.5,149.3,261.2,187.4z"/>
		<path class="st175" d="M219.7,258.1c-2.5,1.3-5.2,2.4-7.9,3.2c-28.2,8.6-59.1-8.4-68.9-37.7c-4.3-12.9-4-26.7,0.9-38.9
			c4.7-11.8,13.4-21.3,24.4-26.8c2.5-1.3,5.2-2.4,7.9-3.2c13.4-4.1,28-2.6,40.8,4.3c13.3,7.1,23.2,19,28.1,33.4
			c4.3,12.9,4,26.7-0.9,38.9C239.4,243,230.7,252.6,219.7,258.1z"/>
		<path class="st173" d="M211.8,243.7c-1.7,0.8-3.4,1.5-5.2,2.1c-19.2,5.9-40.5-6.3-47.4-27.1c-3.2-9.4-3-19.3,0.5-28.1
			c3.2-8.1,9-14.6,16.4-18.2c1.7-0.8,3.4-1.5,5.2-2.1c8.9-2.7,18.6-1.6,27.3,3c9.5,5.1,16.6,13.6,20.1,24.1c3.2,9.4,3,19.3-0.5,28.1
			C224.9,233.5,219.1,239.9,211.8,243.7z"/>
		<path class="st175" d="M203.8,229.2c-0.8,0.4-1.6,0.7-2.5,1c-4.5,1.4-9.6,0.7-14.3-2c-5.4-3.1-9.5-8.2-11.7-14.6
			c-2-5.9-1.9-12,0.3-17.2c1.8-4.4,4.7-7.7,8.4-9.6c0.8-0.4,1.6-0.7,2.5-1c4.4-1.3,9.2-0.7,13.8,1.8c5.7,3,10,8.3,12.2,14.8
			c2,5.9,1.9,12-0.3,17.2C210.5,223.9,207.5,227.4,203.8,229.2z"/>
		<path class="st174" d="M196.2,212.8c-0.2,0.1-0.3,0.1-0.5,0.2c-1,0.3-2.2,0.1-3.3-0.5c-1.2-0.7-2.2-1.9-2.6-3.3
			c-0.5-1.3-0.4-2.8,0.1-3.9c0.4-1,1.1-1.8,1.9-2.2c0.2-0.1,0.3-0.1,0.5-0.2c1-0.3,2.1-0.2,3.2,0.4c1.3,0.7,2.3,1.9,2.8,3.4
			c0.5,1.3,0.4,2.8-0.1,3.9C197.7,211.6,197,212.3,196.2,212.8z"/>
	</g>
	<path class="st176" d="M257.9,242c-0.8,1.6-1.6,3.2-2.6,4.7l-5.3-3.1l-56.4-33.1c-0.5-0.3-0.8-0.7-1.1-1.1c-0.4-0.8-0.4-1.8,0-2.6
		c0.7-1.3,2.2-1.8,3.4-1.1l56.5,33.1L257.9,242z"/>
	<g>
		<path class="st173" d="M254.6,117.7l-23.3,37.1c0.3,0.3,0.7,0.5,1.2,0.5l16-0.5c0.3,0,0.5-0.1,0.7-0.1c0.3-0.1,0.5-0.3,0.6-0.5
			l25.2-37.7c0.7-1-0.3-2.2-1.6-2L254.6,117.7"/>
		<path class="st173" d="M239.3,101.6c-0.3,0.1-0.5,0.3-0.7,0.5l-23.2,36.5c-0.3,0.5-0.3,1,0.1,1.5l10.1,11.9
			c0.2,0.2,0.5,0.4,0.7,0.5l23.4-37.2l-8.4-13.1C241,101.5,239.9,101.3,239.3,101.6"/>
		<path class="st174" d="M252.8,111.2c-0.5,0.2-0.9,0.5-1.2,1l-1.9,3l-23.4,37.2l-34.1,54.3c-0.7,1.2-0.3,2.7,1.1,3.3
			c0.9,0.4,1.9,0.3,2.7,0c0.5-0.2,0.9-0.5,1.1-1l34-54.2l23.4-37.1l2-3.2c0.7-1.2,0.3-2.7-1.1-3.3
			C254.6,110.8,253.6,110.9,252.8,111.2"/>
	</g>
</g>
<g>
	<path class="st173" d="M101,477.4L101,477.4c4.1,0.7,8.3-0.9,10.8-4.2l28.7-36.8l-25.3-4.3L94,459.4C88.7,466.1,92.6,476,101,477.4
		z"/>
	<path class="st174" d="M153.9,447.3c2.6,0.5,6.3-2,8.8-5.9c3-4.6,3.4-9.9,1.1-11.6c-0.3-0.2-0.7-0.4-1.1-0.5
		c-2.6-0.5-6.3,2-8.8,5.9c-1.5,2.4-2.4,4.9-2.5,7.2c-0.1,2.1,0.4,3.7,1.5,4.4C153.1,447.1,153.5,447.2,153.9,447.3z"/>
	<path class="st173" d="M141.1,451.9c5.3,1.1,13-4.1,18.2-12.2c6.1-9.6,7.2-20.6,2.2-24.1c-0.7-0.5-1.4-0.8-2.2-0.9
		c-5.3-1.1-13,4.1-18.2,12.2c-3.1,4.9-5,10.2-5.3,15c-0.2,4.3,0.8,7.6,3.1,9.2C139.5,451.4,140.3,451.7,141.1,451.9z"/>
	<polygon class="st173" points="134.6,397.3 161.6,415.6 138.9,450.9 109,433.7 	"/>
	<path class="st174" d="M113.3,435.6c5.6,1.1,13.5-4.4,18.9-12.9c6.4-10.1,7.5-21.7,2.4-25.4c-0.7-0.5-1.5-0.8-2.3-1
		c-5.6-1.1-13.5,4.4-18.9,12.9c-3.3,5.1-5.3,10.8-5.6,15.7c-0.3,4.6,0.8,8,3.2,9.6C111.7,435.1,112.5,435.4,113.3,435.6z"/>
	<path class="st175" d="M90.9,334.3l42.7,63.5c2.7,4,4,14.5-2.2,24.1c-4.6,7.2-10.1,11.3-15.8,12.1c-1.3,0.2-2.7,0.1-4-0.1
		l-68.7-8.9L90.9,334.3z"/>
	
		<ellipse transform="matrix(0.5332 -0.846 0.846 0.5332 -290.5715 229.9954)" class="st173" cx="63.1" cy="378.3" rx="52" ry="30.9"/>
	<path class="st177" d="M30,397.9c-0.2,9.6,2.6,16.8,8,20.2c1.6,1,3.4,1.7,5.4,2c8.9,1.5,20.2-3.9,30.1-13.6
		c4.2-4.1,8.2-8.9,11.5-14.4c3.4-5.4,6.1-11.1,8-16.6c5.5-16.3,4.1-31.4-4.8-37c-1.6-1-3.4-1.7-5.4-2c-12.6-2.1-30.1,9.7-41.7,28
		C34.2,375.5,30.3,387.4,30,397.9z"/>
	<path class="st173" d="M61.3,390.1c0,0,6.6,8.5,12.2,16.4c4.2-4.1,8.2-8.9,11.5-14.4c3.4-5.4,6.1-11.1,8-16.6
		c-9.6-1.7-19.7-4-19.7-4L61.3,390.1z"/>
	<path class="st173" d="M64.7,392.4c3.4,0.5,7.6-2.1,10.4-6.6c1.5-2.5,2.5-5.1,2.6-7.6c0.1-2.8-0.8-4.9-2.5-6
		c-0.5-0.4-1.2-0.6-1.8-0.7c-3.4-0.5-7.6,2.1-10.4,6.6c-3.4,5.4-3.4,11.4,0,13.6C63.4,392.1,64,392.4,64.7,392.4z"/>
	<path class="st174" d="M64.3,379.1c-2.9,4.6-3.1,9.6-0.5,11.3s7-0.8,9.9-5.4s3.1-9.6,0.5-11.3C71.7,372.1,67.2,374.5,64.3,379.1z"
		/>
</g>
<g>
	
		<rect x="631.9" y="530.9" transform="matrix(0.2807 -0.9598 0.9598 0.2807 -45.8981 1017.7106)" class="st173" width="48.4" height="17.1"/>
	<path class="st173" d="M582.2,486.2c5-0.6,24.7,6.2,25.3,5.5c0.6-0.7,1.6-12.5,2.5-16.7c0.9-4.2,1.7-10.3,7-12.1
		c1.4-0.5,2.6-0.6,3.7-0.4l7.8,2.2l-2.6,5.4c0,4.8,2.5,15.6,6,25.8c3.7,10.7,12.4,15,12.4,15l-13.6,46.4c0,0-3.4-1.1-6.9-2
		c-3.4-0.8-22.6-1.6-31.1-2.8c-8.5-1.1-18.9-1.4-20.2-6.7c-1.2-5.3-1-7.7,1.7-14.9c-1.6-4.7,0.6-11.5,0.7-14.1
		c0.2-2.6-1.8-7.5,1.6-13.9C574.8,496,577.2,486.8,582.2,486.2z"/>
	
		<rect x="637.5" y="532.6" transform="matrix(0.2807 -0.9598 0.9598 0.2807 -43.4655 1024.3519)" class="st173" width="48.4" height="17.1"/>
	<path class="st177" d="M638,559.4l13.6-46.4c0,0-8.7-4.4-12.4-15c-3.7-10.7-6.2-22.1-6-26.4s-3.7-8.5-9-6.6c-5.3,1.9-6,8-7,12.1
		c-0.9,4.2-1.9,16-2.5,16.7c-0.6,0.7-20.2-6.1-25.3-5.5c-5,0.6-7.4,9.8-5.7,16.8c-3.3,6.4-1.4,11.3-1.6,13.9
		c-0.2,2.6-2.3,9.4-0.7,14.1c-2.7,7.2-3,9.6-1.7,14.9c1.2,5.3,11.7,5.5,20.2,6.7c8.5,1.1,27.7,1.9,31.1,2.8
		C634.5,558.3,638,559.4,638,559.4z"/>
	<path class="st178" d="M660.5,526.8c-0.7,2.4,0.7,4.9,3.1,5.6c2.4,0.7,4.9-0.7,5.6-3.1c0.7-2.4-0.7-4.9-3.1-5.6
		C663.7,523,661.1,524.4,660.5,526.8z"/>
</g>
<g>
	<path class="st174" d="M549.7,74.2c-5,3.7-12.2,2.7-16.8-2.1c-0.8-0.8-2.1-0.9-3-0.3l-10,7.3c-1,0.8-1.2,2.2-0.5,3.2l34,46.4
		c0.8,1,2.2,1.2,3.2,0.5l42.3-31c1-0.8,1.2-2.2,0.5-3.2l-7.8-10.6c-0.7-0.9-0.5-2.1,0.2-2.9c4.2-4.3,4.5-11.5,0.5-17
		c-4-5.5-11-7.3-16.4-4.6c-1,0.5-2.2,0.3-2.9-0.7l-7.8-10.6c-0.8-1-2.2-1.2-3.2-0.5l-8.9,6.5c-0.9,0.7-1.2,1.9-0.6,2.9
		C556,63.4,554.8,70.5,549.7,74.2z"/>
	<path class="st173" d="M554.4,70.7c-5,3.7-12.2,2.7-16.8-2.1c-0.8-0.8-2.1-0.9-3-0.3l-10,7.3c-1,0.8-1.2,2.2-0.5,3.2l34,46.4
		c0.8,1,2.2,1.2,3.2,0.5l42.3-31c1-0.8,1.2-2.2,0.5-3.2L596.5,81c-0.7-0.9-0.5-2.1,0.2-2.9c4.2-4.3,4.5-11.5,0.5-17
		c-4-5.5-11-7.3-16.4-4.6c-1,0.5-2.2,0.3-2.9-0.7l-7.8-10.6c-0.8-1-2.2-1.2-3.2-0.5l-8.9,6.5c-0.9,0.7-1.2,1.9-0.6,2.9
		C560.7,59.9,559.5,67,554.4,70.7z"/>
</g>
<ellipse class="st173" cx="253.7" cy="356.7" rx="33.8" ry="33.8"/>
<circle class="st173" cx="253.7" cy="392.8" r="33.8"/>
<circle class="st173" cx="348.4" cy="397.1" r="33.8"/>
<circle class="st179" cx="437.9" cy="522" r="40.9"/>
<circle class="st173" cx="463.9" cy="512.2" r="40.9"/>
<circle class="st173" cx="478.8" cy="482.2" r="14.3"/>
<circle class="st173" cx="287.5" cy="412.7" r="57.6"/>
<path class="st175" d="M242,495.2c-4.4,9.1-6.8,19.3-6.8,30c0,15.2,4.9,29.3,13.2,40.7c-4.1,2.4-6.9,6.9-6.9,12
	c0,6.5,4.4,11.9,10.4,13.5c-0.3,1.4-0.5,2.9-0.5,4.4c0,9.9,8,17.9,17.9,17.9c3.6,0,6.9-1,9.6-2.8c1.9,2.6,4.9,4.2,8.3,4.2
	s6.4-1.7,8.3-4.2c5.1,5.1,12.2,8.3,20,8.3c7.9,0,15.2-3.3,20.3-8.6c5.5,1.3,11.2,2.1,17,2.1c10.7,0,20.8-2.4,29.8-6.7
	c5.2,2.9,11.1,4.6,17.4,4.6c7.4,0,14.3-2.3,20.1-6.1c5.7,3.9,12.6,6.1,20.1,6.1c7.1,0,13.6-2,19.1-5.6c1.9,2.2,4.6,3.6,7.7,3.6
	c3.1,0,5.8-1.3,7.7-3.5c2.4,2.2,5.7,3.5,9.2,3.5c5.3,0,9.8-3,12.2-7.3c11.1-1.1,19.7-10.5,19.7-21.9c0-7.1-3.4-13.4-8.6-17.4
	c2.7-5.1,4.2-10.8,4.2-17c0-19.7-16.4-31.5-35.7-35.7c-11.3-2.5-37.2,4.5-42.8,16.6c-7.4,2.2-9.2,5.1-7.9,16.5c-1,0.5-2,1-3,1.5
	c0-0.2,0.2-0.5,0-0.7c-37.7-27.6-123-90.4-126.4-93.8c12.5-5.6,20-18.1,21.2-32.6c1.5-20.3-14.6-41.2-39.8-41.2
	c-17.5,0-32,12.5-35.1,29.2c-6.3,1.3-11.1,6.9-11.1,13.6c0,3.2,1.1,6.1,2.8,8.4c-3.8,2.5-6.3,6.7-6.3,11.6c0,5.7,3.5,10.6,8.4,12.8
	c-3.2,5.3-5,11.6-5,18.3C231.1,479.5,235.3,488.6,242,495.2z"/>
<polygon class="st175" points="559.8,343.7 391.5,590.7 249.7,478.8 525.1,303.8 "/>
<g>
	<g>
		<path class="st173" d="M451.4,405c-0.3-99.2,87.8-97.1,87.8-97.1l19.7,22.4C558.9,330.3,549.8,418,451.4,405z"/>
		<path class="st180" d="M468.7,389.7c1.8-22,8.9-39.2,21.4-51.5c16.2-16,37.7-19.8,47.6-20.7l11.5,13c-2.2,9.6-8.7,30.6-26.6,44.6
			C508.8,385.9,490.8,390.8,468.7,389.7z"/>
	</g>
	<g>
		<path class="st173" d="M653.3,254.6c0,0,49.9,73.7,4.1,118c-36.2,35-80.2,53.5-97,59.6c-2.9,1.1-5.7-1.6-4.8-4.6l21.4-70
			c2.2-7.4,0.2-15.4-5.3-20.8l-11.2-10.9L653.3,254.6z"/>
		<path class="st173" d="M626.3,223.9c0,0-66.8-58.9-116.5-19.1c-39.4,31.5-63.3,72.8-71.5,88.6c-1.4,2.7,0.9,5.9,3.9,5.4l72.1-12.3
			c7.6-1.3,15.3,1.8,19.9,7.9l9.4,12.5L626.3,223.9z"/>
	</g>
	<path class="st175" d="M515.6,293.2l46.1,52.5l8.7,9.9c1.8,2,4.6,2.7,7.1,1.7c3-1.2,6.1-2.5,9.4-3.9
		c39.6-16.6,103.5-46.4,150.4-83.5c28.6-22.6,46.7-55.8,58-87.9c12.3-34.8,16.7-68.2,18.3-84.9c0.5-6.2-4.2-11.6-10.4-11.9
		c-1.1-0.1-2.3-0.1-3.6-0.1c-17.7-0.5-49.3,0.1-83.1,7.4c-33.2,7.1-68.5,20.7-94.6,46.3c-42.8,41.8-80.5,101.3-102,138.4
		c-1.8,3.1-3.5,6.1-5.1,8.8C513.5,288.3,513.9,291.2,515.6,293.2z"/>
	<path class="st177" d="M561.7,345.7l8.7,9.9c1.8,2,4.6,2.7,7.1,1.7c3-1.2,6.1-2.5,9.4-3.9c39.6-16.6,103.5-46.4,150.4-83.5
		c28.6-22.6,46.7-55.8,58-87.9c12.3-34.8,16.7-68.2,18.3-84.9c0.5-6.2-4.2-11.6-10.4-11.9c-1.1-0.1-2.3-0.1-3.6-0.1
		c-1.7,34.6-17.4,131.9-117.1,192.7C614.1,319.4,579.2,337.7,561.7,345.7z"/>
	<path class="st173" d="M515.6,293.2l46.1,52.5l8.7,9.9c1.8,2,4.6,2.7,7.1,1.7c2.2-0.9,4.5-1.9,6.9-2.8c0.8-0.3,1.6-0.7,2.4-1l0,0
		l-12.3-13.9l-54.7-62.3c-1.8,3.1-3.5,6.1-5.1,8.8C513.5,288.3,513.9,291.2,515.6,293.2z"/>
	<path class="st173" d="M716.5,92.4c5.6,16.7,16.2,35,31.2,51.9c9.5,10.8,19.7,19.9,30,27.1c5.9,4.1,11.7,7.6,17.5,10.4l0,0
		c12.3-34.8,16.7-68.2,18.3-84.9c0.2-2-0.2-3.9-0.9-5.5c-0.1-0.3-0.3-0.6-0.5-0.9c-0.1-0.1-0.2-0.3-0.3-0.5
		c-0.3-0.5-0.6-0.9-0.9-1.2c-1.9-2.2-4.6-3.6-7.7-3.7c-0.6,0-1.3-0.1-2-0.1c-0.2,0-0.5,0-0.7,0c-0.3,0-0.6,0-0.9,0
		C781.9,84.6,750.3,85.2,716.5,92.4z"/>
	<path class="st174" d="M650.9,222.4c1,1.5,2.1,2.9,3.3,4.3c2.7,3.1,5.8,5.7,9.2,7.7c14.6,9,34,7.9,47.6-4.1
		c16.3-14.3,18.2-38.9,4.6-55.5c-0.3-0.3-0.6-0.7-0.9-1.1l0,0c-0.1-0.1-0.1-0.1-0.1-0.1c-14.7-16.7-40.1-18.3-56.7-3.6
		C642.5,183.4,639.9,205.9,650.9,222.4z"/>
	<path class="st173" d="M650.9,222.4c0,0,0.1,0.1,0.1,0.1c2.7,3.1,5.8,5.7,9.2,7.7c14.6,9,34,7.9,47.6-4.1
		c15.3-13.5,17.9-35.9,7-52.4l0,0c-0.1-0.1-0.1-0.1-0.1-0.1c-14.7-16.7-40.1-18.3-56.7-3.6C642.5,183.4,639.9,205.9,650.9,222.4z"/>
	<path class="st173" d="M512.3,351.4L512.3,351.4c-3-3.4-2.6-8.4,0.7-11.4l76.9-67.6c3.4-3,8.4-2.6,11.4,0.7l0,0
		c3,3.4,2.6,8.4-0.7,11.4l-77,67.6C520.3,355.1,515.2,354.7,512.3,351.4z"/>
	<g>
		<path class="st181" d="M701.6,174.4c-5.5-3.8-12-5.8-18.6-5.7c-6.3,0.1-12.4,2.4-17.5,6.1c-2.8,2-5.2,4.6-7.1,7.5
			c-1.2,1.8-4.2,0.1-3-1.7c3.8-5.8,9.3-10.2,15.7-12.9c6.6-2.7,14-3.2,20.9-1.4c4,1,7.8,2.7,11.2,5.1c0.7,0.5,1.1,1.5,0.6,2.4
			C703.5,174.5,702.4,174.9,701.6,174.4L701.6,174.4z"/>
	</g>
	<g>
		<path class="st181" d="M654.5,187.5c-2.2,0-2.2-3.4,0-3.4C656.6,184.1,656.6,187.5,654.5,187.5L654.5,187.5z"/>
	</g>
	<path class="st174" d="M795.3,182L795.3,182c12.3-34.8,16.7-68.2,18.3-84.9c0.2-2-0.2-3.9-0.9-5.5c-0.1-0.3-0.3-0.6-0.5-0.9
		c-0.1-0.1-0.2-0.3-0.3-0.5c-0.3-0.5-0.6-0.9-0.9-1.2c-1.9-2.2-4.6-3.6-7.7-3.7c-0.6,0-1.3-0.1-2-0.1c-0.2,0-0.5,0-0.7,0
		c-0.3,0-0.6,0-0.9,0c-0.9,17.2-5.3,50.3-21.8,86.5C783.6,175.7,789.5,179.2,795.3,182z"/>
	<path class="st174" d="M561.7,345.7l8.7,9.9c1.8,2,4.6,2.7,7.1,1.7c2.2-0.9,4.5-1.9,6.9-2.8c0.8-0.3,1.6-0.7,2.4-1l-12.3-13.9
		C569.5,342,565.3,344,561.7,345.7z"/>
</g>
</svg>
