<?xml version="1.0" encoding="utf-8"?>
<!-- Generator: Adobe Illustrator 27.0.1, SVG Export Plug-In . SVG Version: 6.00 Build 0)  -->
<svg version="1.1" id="Õ_xBA__x2264__x201E__x5F_1"
	 xmlns="http://www.w3.org/2000/svg" xmlns:xlink="http://www.w3.org/1999/xlink" x="0px" y="0px" viewBox="0 0 4382.6 3600"
	 style="enable-background:new 0 0 4382.6 3600;" xml:space="preserve">
<style type="text/css">
	.st0{opacity:0.21;fill:#2E406D;}
	.st1{enable-background:new    ;}
	.st2{fill:#F0F6FF;}
	.st3{fill:#32829F;}
	.st4{fill:#E5F2FF;}
	.st5{fill:#B0CEFF;}
	.st6{fill:#00304D;}
	.st7{fill:#FFFFFF;}
	.st8{opacity:0.3;fill:#7796FF;}
	.st9{fill:none;}
	.st10{fill:url(#XMLID_00000137820214964262509020000008728495216535456138_);}
	.st11{fill:url(#XMLID_00000073712332875270721700000004215446064768286096_);}
	.st12{fill:url(#XMLID_00000132786782785223848650000003381058411669370522_);}
	.st13{fill:#5C74C5;}
	.st14{fill:#F47D25;}
	.st15{fill:url(#XMLID_00000136397137671474093960000002006183173753645701_);}
	.st16{opacity:0.31;fill:#FFFFFF;}
	.st17{fill:#FFA82E;}
	.st18{fill:#FF7606;}
	.st19{fill:#E9EEF2;}
	.st20{fill:#0600FE;}
	.st21{fill:#FF7479;}
	.st22{fill:#FDCFD9;}
	.st23{opacity:0.37;fill:none;stroke:#FF7479;stroke-width:4.7813;stroke-miterlimit:10;}
	.st24{opacity:0.37;fill:none;stroke:#FFFFFF;stroke-width:4.7813;stroke-miterlimit:10;}
	.st25{opacity:0.37;fill:none;stroke:#0600FE;stroke-width:4.7813;stroke-miterlimit:10;}
	.st26{fill:none;stroke:#FDCFD9;stroke-width:2.7698;stroke-miterlimit:10;}
	.st27{fill:none;stroke:#0600FE;stroke-width:2.7698;stroke-miterlimit:10;}
	.st28{fill:none;stroke:#FF7479;stroke-width:2.7698;stroke-miterlimit:10;}
	.st29{fill:#416086;}
	.st30{fill:#FE5A4E;}
	.st31{fill:#3BA1DB;}
	.st32{fill:#F25A29;}
	.st33{fill:#848484;}
	.st34{fill:#49AECE;}
	.st35{fill:#57C4E5;}
	.st36{fill:#73D6FF;}
	.st37{fill:#A51C8B;}
	.st38{fill:#BF34A5;}
	.st39{fill:#CC44AF;}
	.st40{fill:#19769E;}
	.st41{fill:#2599CC;}
	.st42{fill:#FF882E;}
	.st43{fill:#FFAD00;}
	.st44{fill:#FFC600;}
	.st45{fill:#C66A82;}
	.st46{fill:#EFA5B9;}
	.st47{fill:#3E59AF;}
	.st48{fill:#5070D3;}
	.st49{fill:#5D77D8;}
	.st50{fill:#B7202B;}
	.st51{fill:#E83D52;}
	.st52{fill:#F25C67;}
	.st53{fill:#F48292;}
	.st54{fill:#F45162;}
	.st55{fill:#BDBDBD;}
	.st56{fill:#F76378;}
</style>
<g>
	<polygon id="XMLID_135_" class="st0" points="541.9,2410.6 1791.6,1684.4 3560.2,2705.5 3559.8,2860.3 2310.1,3586.5 541.5,2565.4 
			"/>
	<path id="XMLID_115_" class="st0" d="M56.2,2040.4l207.2,119.6l107-61.9v-0.2l265.5-154.2c2.8,0.8,5.6,1.6,8.4,2.4
		c0.9,0.3,1.9,0.5,2.8,0.8c1.9,0.5,3.7,1,5.6,1.5c1.1,0.3,2.2,0.6,3.4,0.9c1.7,0.4,3.4,0.9,5.1,1.3c1.2,0.3,2.4,0.6,3.6,0.9
		c1.6,0.4,3.3,0.8,4.9,1.2c1.3,0.3,2.5,0.6,3.8,0.9c1.6,0.4,3.2,0.7,4.8,1.1c1.3,0.3,2.6,0.6,3.9,0.8c1.6,0.3,3.2,0.7,4.8,1
		c1.3,0.3,2.7,0.5,4,0.8c1.6,0.3,3.1,0.6,4.7,0.9c1.3,0.3,2.7,0.5,4.1,0.8c1.6,0.3,3.1,0.6,4.7,0.9c0.4,0.1,0.7,0.1,1.1,0.2
		c1.5,0.3,3.1,0.5,4.6,0.8c0.7,0.1,1.4,0.3,2.2,0.4c2.7,0.5,5.3,0.9,8,1.3c0.6,0.1,1.2,0.2,1.7,0.3c2.1,0.3,4.2,0.7,6.3,1
		c0.9,0.1,1.9,0.3,2.8,0.4c1.8,0.3,3.5,0.5,5.3,0.8c1,0.1,2.1,0.3,3.1,0.4c1.7,0.2,3.5,0.5,5.2,0.7c1,0.1,2,0.3,3,0.4
		c1.9,0.2,3.9,0.5,5.8,0.7c0.8,0.1,1.6,0.2,2.4,0.3c2.7,0.3,5.3,0.6,8,0.9c0.1,0,0.1,0,0.2,0c3.7,0.4,7.5,0.7,11.2,1.1
		c1,0.1,2,0.2,3,0.3c3.1,0.3,6.2,0.5,9.3,0.7c0.8,0.1,1.5,0.1,2.3,0.2c3.7,0.3,7.5,0.5,11.2,0.7c0.9,0,1.8,0.1,2.7,0.1
		c3,0.2,6.1,0.3,9.1,0.4c0.6,0,1.2,0.1,1.8,0.1c0.4,0,0.8,0,1.2,0c3.5,0.1,7.1,0.2,10.7,0.3c0,0,0,0,0,0c3.5,0.1,7.1,0.1,10.6,0.2
		c1.1,0,2.1,0,3.2,0c2.6,0,5.2,0,7.8,0c1.1,0,2.2,0,3.2,0c3.3,0,6.6-0.1,9.9-0.1c0.2,0,0.5,0,0.7,0c0,0,0.1,0,0.1,0
		c3.4-0.1,6.9-0.2,10.3-0.3c1,0,2.1-0.1,3.1-0.1c2.5-0.1,4.9-0.2,7.4-0.3c1.2-0.1,2.3-0.1,3.5-0.2c2.5-0.1,5-0.3,7.5-0.4
		c1-0.1,1.9-0.1,2.9-0.2c3.4-0.2,6.9-0.5,10.3-0.7c0.1,0,0.2,0,0.2,0c0.4,0,0.9-0.1,1.3-0.1c2.9-0.2,5.9-0.5,8.8-0.7
		c1.1-0.1,2.2-0.2,3.3-0.3c2.4-0.2,4.8-0.5,7.2-0.7c1.1-0.1,2.3-0.2,3.4-0.4c2.7-0.3,5.4-0.6,8.1-0.9c0.7-0.1,1.4-0.2,2.1-0.3
		c3.4-0.4,6.8-0.9,10.1-1.3c0.2,0,0.4-0.1,0.6-0.1c0.6-0.1,1.2-0.2,1.8-0.3c2.7-0.4,5.4-0.8,8.1-1.2c1.1-0.2,2.2-0.3,3.3-0.5
		c2.6-0.4,5.3-0.8,7.9-1.3c0.9-0.1,1.7-0.3,2.6-0.4c3.4-0.6,6.8-1.2,10.2-1.8c0.7-0.1,1.4-0.3,2.1-0.4c2.7-0.5,5.5-1,8.2-1.6
		c0.5-0.1,1-0.2,1.5-0.3c0.5-0.1,1-0.2,1.5-0.3c3.2-0.7,6.4-1.3,9.6-2c0.5-0.1,1-0.2,1.5-0.3c3.6-0.8,7.2-1.6,10.8-2.5
		c0.9-0.2,1.8-0.4,2.8-0.7c3-0.7,6-1.5,8.9-2.2c0.7-0.2,1.5-0.4,2.2-0.6c3.5-0.9,7-1.9,10.5-2.8c0.3-0.1,0.5-0.1,0.8-0.2
		c1.3-0.4,2.7-0.8,4-1.1c0.9-0.2,1.7-0.5,2.6-0.7c2.5-0.7,4.9-1.4,7.4-2.2c0.1,0,0.2-0.1,0.3-0.1c2.5-0.8,5.1-1.6,7.6-2.4
		c0.8-0.3,1.6-0.5,2.4-0.8c1.7-0.6,3.4-1.1,5.1-1.7c1-0.3,1.9-0.6,2.9-1c1.5-0.5,3.1-1.1,4.6-1.6c1-0.3,2-0.7,3-1.1
		c1.5-0.5,3-1.1,4.5-1.6c1-0.4,2-0.7,3-1.1c1.5-0.6,3-1.1,4.5-1.7c0.9-0.4,1.9-0.7,2.8-1.1c0.3-0.1,0.7-0.3,1-0.4
		c0.7-0.3,1.3-0.5,2-0.8c2-0.8,3.9-1.6,5.9-2.3c1-0.4,2.1-0.8,3.1-1.3c1.9-0.8,3.8-1.6,5.7-2.4c1-0.4,2-0.8,2.9-1.3
		c2.2-0.9,4.3-1.9,6.5-2.9c0.6-0.3,1.3-0.6,1.9-0.9c2.8-1.3,5.5-2.5,8.2-3.8c0.7-0.3,1.4-0.7,2.1-1c2-1,4.1-2,6.1-3
		c0.9-0.5,1.9-0.9,2.8-1.4c1.8-0.9,3.6-1.8,5.3-2.7c1-0.5,1.9-1,2.9-1.5c1.8-1,3.6-1.9,5.4-2.9c0.8-0.5,1.7-0.9,2.5-1.4
		c2.6-1.4,5.2-2.9,7.7-4.4c89.9-52.3,135-120.7,135.2-189.2l0.3-106.9c0,0.3,0,0.6,0,0.9c0.6-69.7-45.2-139.6-137.3-192.8
		c-182.2-105.2-476.7-105.2-657.7,0c-90.4,52.5-135.4,121.3-135.1,190.2c0-0.3,0-0.7,0-1l-0.3,106.9c0,1,0,2,0,3.1
		c0,0.2,0,0.3,0,0.5c0,0.4,0,0.9,0,1.3c0,0.8,0,1.6,0.1,2.4c0,0.5,0,0.9,0.1,1.4c0,0.8,0.1,1.6,0.1,2.3c0,0.5,0.1,0.9,0.1,1.4
		c0.1,0.8,0.1,1.7,0.2,2.5c0,0.4,0.1,0.8,0.1,1.2c0.2,2.4,0.5,4.9,0.9,7.3c0.1,0.4,0.1,0.8,0.2,1.2c0.1,0.8,0.3,1.7,0.4,2.5
		c0.1,0.5,0.2,0.9,0.2,1.4c0.1,0.4,0.1,0.8,0.2,1.3c0.1,0.4,0.1,0.7,0.2,1.1c0.1,0.5,0.2,0.9,0.3,1.4c0.2,0.8,0.3,1.6,0.5,2.4
		c0.1,0.4,0.2,0.8,0.3,1.2c0.2,1,0.5,2,0.7,3.1c0,0.2,0.1,0.4,0.1,0.6c0.2,0.8,0.4,1.5,0.6,2.3L56.5,1933.5L56.2,2040.4z
		 M379,1600.7c0-0.4,0-0.7,0-1.1c0-0.4,0-0.9,0-1.3c0-0.4,0-0.7,0-1.1C378.9,1598.4,378.9,1599.5,379,1600.7z M379.2,1606.2
		c0-0.2,0-0.3,0-0.5c-0.1-0.8-0.1-1.6-0.1-2.3c0-0.4,0-0.9-0.1-1.3C379.1,1603.4,379.1,1604.8,379.2,1606.2z M379.7,1611.3
		c0-0.2,0-0.4-0.1-0.6c0-0.4-0.1-0.8-0.1-1.2c-0.1-0.8-0.1-1.6-0.2-2.4C379.4,1608.6,379.5,1610,379.7,1611.3z M381.1,1621.9
		c0,0,0-0.1,0-0.1c-0.1-0.8-0.3-1.7-0.4-2.5c-0.1-0.4-0.1-0.8-0.2-1.2c0-0.1,0-0.3-0.1-0.4C380.7,1619,380.9,1620.5,381.1,1621.9z
		 M382.1,1626.9c0,0,0-0.1,0-0.1c-0.1-0.5-0.2-0.9-0.3-1.4c-0.2-0.8-0.3-1.6-0.4-2.3c0-0.1,0-0.1,0-0.2
		C381.5,1624.2,381.8,1625.6,382.1,1626.9z M383.1,1631.7c-0.1-0.4-0.2-0.9-0.3-1.3c-0.1-0.4-0.2-0.8-0.3-1.2
		c-0.1-0.3-0.1-0.6-0.2-0.9C382.6,1629.5,382.9,1630.6,383.1,1631.7z M1149.2,1799.9c0.3-0.1,0.6-0.3,0.9-0.4c0,0,0,0,0,0
		C1149.8,1799.6,1149.5,1799.7,1149.2,1799.9z M1136.8,1578.9c0.1,0.7,0.2,1.4,0.4,2.2c-0.1-0.6-0.2-1.2-0.3-1.8
		C1136.8,1579.2,1136.8,1579,1136.8,1578.9z M635.1,1475.5C635.1,1475.5,635.1,1475.5,635.1,1475.5
		C635.1,1475.5,635.1,1475.5,635.1,1475.5c-1,0.6-1.9,1.1-2.9,1.7C633.1,1476.6,634.1,1476,635.1,1475.5z M648.7,1468.1
		c-0.1,0-0.1,0.1-0.2,0.1C648.6,1468.1,648.6,1468.1,648.7,1468.1z M677.2,1455.2L677.2,1455.2c-0.9,0.4-1.8,0.7-2.7,1.1
		C675.3,1455.9,676.3,1455.5,677.2,1455.2z M716.9,1441.9C716.9,1441.9,716.9,1441.9,716.9,1441.9
		C716.9,1441.9,716.9,1441.9,716.9,1441.9C716.9,1441.9,716.9,1441.9,716.9,1441.9z M722.8,1440.4c-0.1,0-0.1,0-0.2,0.1
		C722.6,1440.4,722.7,1440.4,722.8,1440.4z M745.8,1435C745.8,1435,745.8,1435,745.8,1435c-2.4,0.5-4.9,1-7.3,1.5
		C740.9,1436.1,743.4,1435.5,745.8,1435z M783.5,1429c-0.1,0-0.2,0-0.3,0C783.3,1429.1,783.4,1429,783.5,1429z M859.8,1425.8
		L859.8,1425.8c-1.3,0-2.7-0.1-4-0.1C857.2,1425.7,858.5,1425.8,859.8,1425.8z M893.4,1428C893.4,1428,893.4,1428,893.4,1428
		c-1.7-0.2-3.4-0.3-5-0.5C890.1,1427.7,891.8,1427.9,893.4,1428z M919.9,1431.4c-1.9-0.3-3.7-0.6-5.6-0.8
		C916.1,1430.8,918,1431.1,919.9,1431.4z M981.9,1445.6C981.9,1445.6,981.9,1445.6,981.9,1445.6c-1.1-0.3-2.1-0.7-3.2-1
		C979.8,1445,980.9,1445.3,981.9,1445.6z M991.5,1448.8c-2.2-0.7-4.5-1.5-6.7-2.2C987.1,1447.3,989.3,1448,991.5,1448.8z
		 M999.3,1451.5c-1.3-0.5-2.6-0.9-4-1.4C996.6,1450.5,998,1451,999.3,1451.5z M1009.5,1455.3c-2.1-0.8-4.3-1.7-6.4-2.5
		C1005.2,1453.7,1007.4,1454.5,1009.5,1455.3z M1051.4,1475.5c1.4,0.8,2.7,1.6,4.1,2.4C1054.2,1477.1,1052.8,1476.3,1051.4,1475.5
		c-2.3-1.3-4.6-2.6-7-3.9C1046.8,1472.9,1049.2,1474.2,1051.4,1475.5z M1065.6,1484.3c-0.6-0.4-1.2-0.8-1.8-1.2
		c-0.6-0.4-1.3-0.8-1.9-1.3C1063.2,1482.7,1064.4,1483.5,1065.6,1484.3z M1116.5,1531.9c-0.1-0.2-0.3-0.4-0.4-0.6
		C1116.2,1531.6,1116.3,1531.8,1116.5,1531.9z M1125.3,1546.2c0.4,0.7,0.8,1.4,1.1,2.1c-0.3-0.6-0.7-1.3-1-1.9
		C1125.3,1546.4,1125.3,1546.3,1125.3,1546.2z M1089.2,1825.5c0.8-0.3,1.5-0.5,2.3-0.8c0,0,0,0,0,0
		C1090.7,1824.9,1090,1825.2,1089.2,1825.5z M1046.3,1839.1c1.6-0.5,3.2-0.9,4.9-1.4c0,0,0,0-0.1,0
		C1049.6,1838.2,1048,1838.6,1046.3,1839.1z M1022.8,1845.2c0.6-0.2,1.3-0.3,1.9-0.5c0,0,0,0,0,0
		C1024,1844.8,1023.4,1845,1022.8,1845.2z M1009.6,1848.2c0.4-0.1,0.8-0.2,1.1-0.2C1010.4,1848,1010,1848.1,1009.6,1848.2
		C1009.6,1848.2,1009.6,1848.2,1009.6,1848.2z M986.7,1852.8c0.7-0.1,1.5-0.3,2.2-0.4c0,0,0,0,0,0
		C988.1,1852.5,987.4,1852.7,986.7,1852.8C986.7,1852.8,986.7,1852.8,986.7,1852.8z M963.8,1856.6c0.7-0.1,1.4-0.2,2.2-0.3
		c0,0,0,0,0,0C965.3,1856.4,964.6,1856.5,963.8,1856.6z M952.2,1858.3c0.6-0.1,1.2-0.2,1.7-0.2
		C953.3,1858.1,952.8,1858.2,952.2,1858.3C952.2,1858.3,952.2,1858.3,952.2,1858.3z M940.8,1859.8c0.4-0.1,0.8-0.1,1.3-0.1
		c0,0,0,0,0,0C941.6,1859.7,941.2,1859.7,940.8,1859.8z M894.3,1864c0.8,0,1.6-0.1,2.3-0.1C895.9,1863.9,895.2,1863.9,894.3,1864
		C894.4,1864,894.4,1864,894.3,1864z M883.4,1864.6c0.8,0,1.6-0.1,2.4-0.1C884.9,1864.5,884.2,1864.5,883.4,1864.6
		C883.4,1864.6,883.4,1864.6,883.4,1864.6z M839.1,1865.4c0.6,0,1.1,0,1.7,0c0,0,0,0,0,0C840.2,1865.4,839.7,1865.4,839.1,1865.4z
		 M827,1865.3C827,1865.3,827,1865.3,827,1865.3C827,1865.3,827,1865.3,827,1865.3C827.1,1865.3,827,1865.3,827,1865.3z M788,1863.4
		c0.3,0,0.6,0,0.8,0.1C788.5,1863.4,788.3,1863.4,788,1863.4C788,1863.4,788,1863.4,788,1863.4z M776.3,1862.5
		c0.8,0.1,1.6,0.1,2.4,0.2c0,0,0,0,0,0C777.9,1862.6,777.1,1862.5,776.3,1862.5z M731.6,1857.3c1.7,0.3,3.5,0.5,5.2,0.7c0,0,0,0,0,0
		C735.1,1857.8,733.4,1857.6,731.6,1857.3z M670,1845.7c0.9,0.2,1.7,0.4,2.6,0.6C671.8,1846.1,670.9,1845.9,670,1845.7
		C670,1845.7,670,1845.7,670,1845.7z M644.9,1839.2c0.9,0.3,1.9,0.5,2.8,0.8c-0.1,0-0.2,0-0.3-0.1
		C646.6,1839.7,645.7,1839.5,644.9,1839.2z M564.1,1648.8c5.1-8.9,11.5-17.6,19.2-26.1c9.4,29.4,33.8,57.5,73.1,80.2
		c103.4,59.7,271.2,59.7,374.6,0c38.9-22.5,63.2-50.2,72.8-79.2c0.2,0.2,0.4,0.4,0.5,0.6c1,1.1,1.9,2.2,2.9,3.3
		c0.2,0.2,0.4,0.4,0.6,0.7c0.8,1,1.7,2,2.5,3c0.2,0.2,0.3,0.4,0.5,0.6c0.8,1.1,1.7,2.1,2.5,3.2c0.7,0.9,1.4,1.9,2,2.8
		c0.3,0.4,0.7,0.9,1,1.3c1,1.4,1.9,2.8,2.8,4.1c0,0.1,0.1,0.1,0.1,0.2c0.9,1.3,1.7,2.6,2.5,4c0.3,0.5,0.5,0.9,0.8,1.4
		c0.3,0.5,0.6,1.1,0.9,1.6c-13.9,24.2-37.4,47-70.6,66.3c-114.6,66.6-301,66.6-416.4,0C602.2,1696.9,578.2,1673.6,564.1,1648.8z
		 M425.4,1712.9c1.2,1.4,2.4,2.8,3.6,4.2c-1-1.1-2-2.3-2.9-3.4C425.9,1713.5,425.6,1713.2,425.4,1712.9z M421.7,1708.4
		c0.8,1.1,1.7,2.1,2.5,3.1c-0.4-0.4-0.7-0.8-1-1.3c-0.4-0.4-0.7-0.9-1.1-1.4C422,1708.8,421.9,1708.6,421.7,1708.4z M419.3,1705.4
		c-0.5-0.7-1-1.3-1.5-2c0.9,1.2,1.9,2.5,2.9,3.7c-0.1-0.1-0.1-0.2-0.2-0.3C420.1,1706.3,419.7,1705.9,419.3,1705.4z M414.3,1698.6
		c0.9,1.2,1.7,2.4,2.6,3.6c-0.1-0.1-0.2-0.2-0.3-0.3c-0.5-0.7-1-1.3-1.5-2C414.9,1699.4,414.6,1699,414.3,1698.6z M411,1693.8
		c0.7,1.1,1.5,2.2,2.2,3.2c-0.2-0.3-0.4-0.6-0.6-0.9c-0.4-0.5-0.7-1-1.1-1.5C411.4,1694.4,411.2,1694.1,411,1693.8z M407.7,1688.9
		c0.7,1.2,1.5,2.3,2.3,3.5c-0.3-0.4-0.6-0.9-0.9-1.3C408.7,1690.3,408.2,1689.6,407.7,1688.9z M404.4,1683.5
		c0.8,1.4,1.7,2.8,2.6,4.2c-0.1-0.1-0.1-0.2-0.2-0.3c-0.5-0.8-1-1.6-1.5-2.4c-0.2-0.4-0.5-0.8-0.7-1.2
		C404.6,1683.7,404.5,1683.6,404.4,1683.5z M401.8,1679c0.6,1.1,1.3,2.2,1.9,3.3c-0.4-0.7-0.8-1.4-1.2-2.1c0,0,0-0.1,0-0.1
		C402.2,1679.8,402,1679.4,401.8,1679z M399.1,1674c0.6,1.2,1.3,2.4,1.9,3.5c-0.2-0.3-0.4-0.6-0.5-1c-0.2-0.3-0.3-0.6-0.5-0.9
		C399.7,1675.1,399.4,1674.6,399.1,1674z M396.5,1668.8c0.7,1.4,1.4,2.8,2.1,4.1c-0.2-0.4-0.4-0.8-0.6-1.2c-0.4-0.8-0.8-1.5-1.1-2.3
		C396.7,1669.2,396.6,1669,396.5,1668.8z M394.1,1663.9c0.5,1.2,1.1,2.4,1.7,3.5c-0.3-0.5-0.5-1.1-0.8-1.6c-0.2-0.5-0.4-0.9-0.6-1.4
		C394.3,1664.2,394.2,1664,394.1,1663.9z M392,1659c0.5,1.2,1,2.3,1.5,3.5c0-0.1-0.1-0.2-0.1-0.3c-0.2-0.4-0.4-0.9-0.6-1.3
		C392.5,1660.2,392.3,1659.6,392,1659z M389.7,1653.3c0.6,1.5,1.1,3,1.8,4.4c-0.1-0.2-0.2-0.4-0.2-0.6c-0.5-1.2-1-2.4-1.4-3.6
		C389.8,1653.5,389.8,1653.4,389.7,1653.3z M388,1648.6c0.4,1.3,0.9,2.5,1.3,3.7c-0.3-0.8-0.6-1.6-0.9-2.4c-0.1-0.4-0.3-0.8-0.4-1.2
		C388.1,1648.7,388,1648.6,388,1648.6z M386.4,1643.8c0.4,1.1,0.7,2.3,1.1,3.4c-0.1-0.3-0.2-0.6-0.3-0.8c-0.1-0.4-0.3-0.9-0.4-1.3
		C386.7,1644.6,386.6,1644.2,386.4,1643.8z M384.7,1638.1c0.4,1.4,0.8,2.8,1.2,4.2c-0.1-0.3-0.2-0.6-0.3-0.9
		c-0.3-0.9-0.5-1.7-0.7-2.6C384.9,1638.5,384.8,1638.3,384.7,1638.1z M384.5,1637.3c-0.3-1.1-0.6-2.2-0.9-3.2c0-0.2-0.1-0.4-0.1-0.6
		c0-0.1-0.1-0.2-0.1-0.3C383.8,1634.6,384.2,1635.9,384.5,1637.3z"/>
	<polygon id="XMLID_191_" class="st0" points="2128.8,1741.6 1604.1,1438.3 1664.2,1403.3 2188.8,1706.5 	"/>
	<g id="XMLID_16_">
		<g id="XMLID_40_">
			<g id="XMLID_24_" class="st1">
				<g id="XMLID_29_">
					<polygon id="XMLID_33_" class="st2" points="535.1,2267.8 534.7,2422.6 2303.3,3443.8 2303.7,3288.9 					"/>
				</g>
				<g id="XMLID_27_">
					<polygon id="XMLID_28_" class="st3" points="2303.7,3288.9 2303.3,3443.8 3553,2717.5 3553.4,2562.7 					"/>
				</g>
				<g id="XMLID_25_">
					<polygon id="XMLID_26_" class="st4" points="1784.8,1541.6 535.1,2267.8 2303.7,3288.9 3553.4,2562.7 					"/>
				</g>
			</g>
		</g>
		<g id="XMLID_52_">
			<polygon id="XMLID_53_" class="st5" points="1830.8,1705.8 1097,2131.9 2472.7,2931.1 3206.5,2504.9 			"/>
		</g>
		<g id="XMLID_45_">
			<polygon id="XMLID_66_" class="st5" points="1563.1,2492.7 1365.3,2607.5 1736.1,2823 1933.9,2708.1 			"/>
		</g>
		<g id="XMLID_71_">
			<polygon id="XMLID_72_" class="st3" points="3553.4,2562.7 3687.3,2484.9 3691.1,1136.2 3557.2,1214 			"/>
		</g>
		<g id="XMLID_69_">
			<polygon id="XMLID_70_" class="st4" points="3557.2,1214 3691.1,1136.2 1922.5,115.1 1788.6,192.9 			"/>
		</g>
		<polygon id="XMLID_68_" class="st2" points="1788.6,192.9 1784.8,1541.6 3553.4,2562.7 3557.2,1214 		"/>
		<polygon id="XMLID_21_" class="st6" points="3509.7,1241.4 1835.9,275 1832.4,1514.2 3506.2,2480.6 		"/>
	</g>
	<polygon id="XMLID_231_" class="st7" points="1572.1,1239.9 2153.4,1576 2153.9,682.9 1572.5,346.9 	"/>
	<polygon id="XMLID_230_" class="st8" points="1650.2,989.9 2075.6,1235.8 2075.6,1152.2 1650.2,906.3 	"/>
	<polygon id="XMLID_229_" class="st8" points="1650.2,1039.5 2075.6,1285.4 2075.6,1258 1650.2,1012.1 	"/>
	<polygon id="XMLID_228_" class="st8" points="1650.2,1085.3 2075.6,1331.1 2075.6,1303.7 1650.2,1057.8 	"/>
	<polygon id="XMLID_227_" class="st8" points="1780.6,1206.4 2075.5,1376.9 2075.5,1349.4 1780.6,1178.9 	"/>
	<polygon id="XMLID_226_" class="st3" points="2153.4,1576 2220,1537.1 2220.4,644 2153.9,682.9 	"/>
	<polygon id="XMLID_225_" class="st4" points="2153.9,682.9 1572.5,346.9 1639.1,308 2220.4,644 	"/>
	<polygon id="XMLID_223_" class="st7" points="3104.9,2090.3 3686.2,2426.4 3686.7,1533.3 3105.3,1197.3 	"/>
	<polygon id="XMLID_222_" class="st8" points="3183,1840.3 3608.4,2086.2 3608.4,2002.6 3183,1756.7 	"/>
	<polygon id="XMLID_221_" class="st8" points="3183,1890 3608.4,2135.8 3608.4,2108.4 3183,1862.5 	"/>
	<polygon id="XMLID_220_" class="st8" points="3182.9,1935.7 3608.3,2181.6 3608.4,2154.1 3182.9,1908.2 	"/>
	<polygon id="XMLID_219_" class="st8" points="3313.4,2056.8 3608.3,2227.3 3608.3,2199.8 3313.4,2029.4 	"/>
	<polygon id="XMLID_188_" class="st3" points="3686.2,2426.4 3752.8,2387.5 3753.2,1494.4 3686.7,1533.3 	"/>
	<polygon id="XMLID_187_" class="st4" points="3686.7,1533.3 3105.3,1197.3 3171.9,1158.4 3753.2,1494.4 	"/>
	<polygon id="XMLID_186_" class="st8" points="1896.5,1427.4 2065.9,1523 2065.9,632.1 1896.5,534.1 	"/>
	<polygon id="XMLID_184_" class="st7" points="2065.2,1578.9 2971.8,2102.9 2972.5,710.2 2065.9,186.2 	"/>
	<polygon id="XMLID_183_" class="st8" points="2187.1,1189 2850.4,1572.4 2850.5,1442.1 2187.1,1058.6 	"/>
	<polygon id="XMLID_182_" class="st8" points="2187,1266.4 2850.4,1649.8 2850.4,1607.1 2187,1223.6 	"/>
	<polygon id="XMLID_181_" class="st8" points="2187,1337.7 2850.4,1721.1 2850.4,1678.3 2187,1294.9 	"/>
	<polygon id="XMLID_180_" class="st8" points="2390.4,1526.5 2850.3,1792.4 2850.3,1749.6 2390.4,1483.8 	"/>
	<polygon id="XMLID_149_" class="st3" points="2971.8,2102.9 3075.6,2042.2 3076.3,649.6 2972.5,710.2 	"/>
	<polygon id="XMLID_148_" class="st4" points="2972.5,710.2 2065.9,186.2 2169.7,125.6 3076.3,649.6 	"/>
	<polygon id="XMLID_233_" class="st8" points="3557.2,1381.2 3691.1,1300.8 3691.1,1458.5 	"/>
	<polygon id="XMLID_302_" class="st7" points="3763.4,2470.3 4288.1,2773.6 4288.5,1967.6 3763.9,1664.3 	"/>
	<polygon id="XMLID_301_" class="st8" points="3834,2244.7 4217.9,2466.6 4217.9,2391.1 3834,2169.2 	"/>
	<polygon id="XMLID_300_" class="st8" points="3833.9,2289.5 4217.8,2511.4 4217.9,2486.6 3833.9,2264.7 	"/>
	<polygon id="XMLID_299_" class="st8" points="3833.9,2330.7 4217.8,2552.6 4217.8,2527.9 3833.9,2306 	"/>
	<polygon id="XMLID_298_" class="st8" points="3951.6,2440 4217.8,2593.9 4217.8,2569.1 3951.6,2415.3 	"/>
	<polygon id="XMLID_296_" class="st3" points="4288.1,2773.6 4348.2,2738.5 4348.6,1932.5 4288.5,1967.6 	"/>
	<polygon id="XMLID_295_" class="st4" points="4288.5,1967.6 3763.9,1664.3 3823.9,1629.2 4348.6,1932.5 	"/>
	<polygon id="XMLID_142_" class="st0" points="4228.5,2901.1 3703.8,2597.9 3763.9,2562.8 4288.5,2866 	"/>
	<polygon id="XMLID_35_" class="st0" points="1549.4,1405 1024.8,1101.7 1084.8,1066.6 1609.5,1369.9 	"/>
	<polygon id="XMLID_311_" class="st7" points="954.8,879.9 1479.4,1183.2 1479.8,377.2 955.2,74 	"/>
	<polygon id="XMLID_310_" class="st8" points="1025.3,654.3 1409.2,876.2 1409.2,800.8 1025.3,578.9 	"/>
	<polygon id="XMLID_309_" class="st8" points="1025.3,699.1 1409.2,921 1409.2,896.3 1025.3,674.4 	"/>
	<polygon id="XMLID_308_" class="st8" points="1025.2,740.4 1409.2,962.3 1409.2,937.5 1025.3,715.6 	"/>
	<polygon id="XMLID_307_" class="st8" points="1142.9,849.7 1409.1,1003.5 1409.1,978.8 1143,824.9 	"/>
	<polygon id="XMLID_306_" class="st3" points="1479.4,1183.2 1539.5,1148.1 1539.9,342.2 1479.8,377.2 	"/>
	<polygon id="XMLID_305_" class="st4" points="1479.8,377.2 955.2,74 1015.2,38.9 1539.9,342.2 	"/>
	<path id="XMLID_626_" class="st9" d="M1619.6,2054c-1.8,0.1-3.7,0.3-5.5,0.5C1615.9,2054.3,1617.8,2054.2,1619.6,2054
		C1619.6,2054,1619.6,2054,1619.6,2054z"/>
	<path id="XMLID_627_" class="st9" d="M1576.8,2058.7c-0.8,0.1-1.5,0.2-2.3,0.3c-0.9,0.1-1.8,0.3-2.7,0.4c-0.4,0.1-0.8,0.1-1.1,0.2
		C1572.8,2059.3,1574.8,2059,1576.8,2058.7C1576.8,2058.7,1576.8,2058.7,1576.8,2058.7z"/>
	<path id="XMLID_628_" class="st9" d="M1565.9,2060.3c-0.4,0.1-0.8,0.1-1.3,0.2c0.5-0.1,0.9-0.1,1.4-0.2
		C1566,2060.3,1565.9,2060.3,1565.9,2060.3z"/>
	<path id="XMLID_641_" class="st9" d="M1897.7,2083.5c1.6,0.5,3.2,1,4.8,1.6C1900.9,2084.5,1899.3,2084,1897.7,2083.5
		C1897.7,2083.5,1897.7,2083.5,1897.7,2083.5z"/>
	<path id="XMLID_643_" class="st9" d="M1712.3,2052.1c2.7,0.1,5.3,0.2,8,0.4C1717.6,2052.4,1715,2052.2,1712.3,2052.1
		C1712.3,2052.1,1712.3,2052.1,1712.3,2052.1z"/>
	<path id="XMLID_644_" class="st9" d="M2213.7,2454.3c-0.4,0.5-0.8,1-1.2,1.5c0.5-0.6,0.9-1.2,1.4-1.7
		C2213.8,2454.2,2213.7,2454.2,2213.7,2454.3z"/>
	<path id="XMLID_645_" class="st9" d="M2266.9,2328.9c0,0.4-0.1,0.8-0.1,1.2c0.1-0.7,0.1-1.3,0.2-2
		C2266.9,2328.4,2266.9,2328.7,2266.9,2328.9z"/>
	<path id="XMLID_646_" class="st9" d="M2266,2337c-0.1,0.4-0.1,0.9-0.2,1.3c0.1-0.7,0.2-1.4,0.3-2
		C2266.1,2336.5,2266,2336.7,2266,2337z"/>
	<path id="XMLID_647_" class="st9" d="M2259.3,2369.1c-0.1,0.3-0.2,0.6-0.3,0.9c0.2-0.5,0.3-1,0.5-1.5
		C2259.4,2368.6,2259.4,2368.8,2259.3,2369.1z"/>
	<path id="XMLID_648_" class="st9" d="M1751,2054.6c2.5,0.2,5.1,0.5,7.6,0.7c0,0,0,0,0,0C1756.1,2055.1,1753.5,2054.9,1751,2054.6z"
		/>
	<g id="XMLID_39_">
		
			<linearGradient id="XMLID_00000018935719389786622340000013231958965388847805_" gradientUnits="userSpaceOnUse" x1="3389.0117" y1="1468.2091" x2="3978.1924" y2="1468.2091" gradientTransform="matrix(-1 0 0 1 4527.3804 0)">
			<stop  offset="0" style="stop-color:#5166AD"/>
			<stop  offset="1" style="stop-color:#3E4E85"/>
		</linearGradient>
		<path id="XMLID_34_" style="fill:url(#XMLID_00000018935719389786622340000013231958965388847805_);" d="M549.5,1498.8
			c0.1-43.4,28.6-86.7,85.6-119.8c1.8-1,3.5-2,5.3-3c0.6-0.3,1.2-0.6,1.8-1c1.2-0.7,2.4-1.3,3.6-2c0.7-0.4,1.5-0.8,2.2-1.1
			c1.1-0.6,2.2-1.1,3.3-1.7c0.8-0.4,1.6-0.8,2.4-1.2c1.1-0.5,2.1-1.1,3.2-1.6c0.8-0.4,1.7-0.8,2.5-1.2c1.1-0.5,2.1-1,3.2-1.5
			c0.9-0.4,1.8-0.8,2.6-1.2c1.1-0.5,2.1-0.9,3.2-1.4c0.9-0.4,1.8-0.8,2.7-1.1c1.1-0.4,2.1-0.9,3.2-1.3c0.9-0.4,1.8-0.7,2.8-1.1
			c0.8-0.3,1.6-0.7,2.4-1c0.2-0.1,0.4-0.1,0.6-0.2c2.5-1,5.1-1.9,7.7-2.9c0.5-0.2,1.1-0.4,1.6-0.6c2.1-0.8,4.3-1.5,6.5-2.2
			c0.7-0.2,1.5-0.5,2.2-0.7c2.6-0.9,5.3-1.7,7.9-2.5c0,0,0.1,0,0.1,0c2.7-0.8,5.4-1.6,8.1-2.4c0.3-0.1,0.6-0.2,1-0.3
			c0.5-0.1,1.1-0.3,1.6-0.4c1.5-0.4,2.9-0.8,4.4-1.2c0.9-0.2,1.9-0.5,2.8-0.7c1.5-0.4,3-0.8,4.5-1.1c0.9-0.2,1.8-0.4,2.7-0.6
			c1.7-0.4,3.5-0.8,5.2-1.2c0.7-0.2,1.4-0.3,2.1-0.5c2.4-0.5,4.9-1,7.3-1.5c0.1,0,0.1,0,0.2,0c0.6-0.1,1.3-0.2,1.9-0.4
			c1.6-0.3,3.3-0.6,4.9-0.9c0.9-0.2,1.8-0.3,2.7-0.5c1.4-0.3,2.9-0.5,4.3-0.8c1-0.2,2-0.3,3-0.5c1.4-0.2,2.7-0.4,4.1-0.7
			c1-0.2,2.1-0.3,3.1-0.5c1.3-0.2,2.7-0.4,4-0.6c0.3,0,0.7-0.1,1-0.1c0.8-0.1,1.5-0.2,2.3-0.3c1.2-0.2,2.4-0.3,3.6-0.5
			c1.1-0.1,2.3-0.3,3.4-0.4c1.2-0.1,2.4-0.3,3.6-0.4c1.1-0.1,2.3-0.2,3.4-0.4c1.2-0.1,2.4-0.2,3.6-0.4c1.1-0.1,2.3-0.2,3.4-0.3
			c1.2-0.1,2.4-0.2,3.7-0.3c0.5,0,0.9-0.1,1.4-0.1c0.7-0.1,1.4-0.1,2-0.1c1.2-0.1,2.5-0.2,3.7-0.3c1.1-0.1,2.3-0.1,3.4-0.2
			c1.2-0.1,2.5-0.1,3.7-0.2c1.1-0.1,2.3-0.1,3.4-0.2c1.2-0.1,2.5-0.1,3.7-0.2c1.1,0,2.3-0.1,3.4-0.1c1.2,0,2.5-0.1,3.7-0.1
			c0.6,0,1.1,0,1.7,0c0.6,0,1.1,0,1.7,0c1.3,0,2.6,0,3.9-0.1c1.1,0,2.2,0,3.3,0c1.3,0,2.6,0,4,0c1.1,0,2.2,0,3.3,0
			c1.3,0,2.6,0,4,0.1c1.1,0,2.2,0,3.3,0.1c1.3,0,2.7,0.1,4,0.1c0.8,0,1.5,0,2.3,0.1c0.3,0,0.6,0,0.9,0c1.7,0.1,3.5,0.2,5.2,0.2
			c0.8,0,1.6,0.1,2.4,0.1c2.5,0.1,5.1,0.3,7.6,0.5c0.2,0,0.4,0,0.6,0c2.3,0.2,4.7,0.3,7,0.5c0.8,0.1,1.7,0.2,2.5,0.2
			c1.7,0.2,3.4,0.3,5.1,0.5c0.3,0,0.7,0.1,1,0.1c0.5,0.1,1,0.1,1.6,0.2c2.1,0.2,4.1,0.4,6.2,0.7c0.8,0.1,1.7,0.2,2.5,0.3
			c2.6,0.3,5.2,0.7,7.8,1c0.2,0,0.4,0,0.5,0.1c2.8,0.4,5.5,0.8,8.2,1.2c0.8,0.1,1.6,0.3,2.4,0.4c2,0.3,4.1,0.7,6.1,1
			c0.5,0.1,1,0.2,1.5,0.3c0.4,0.1,0.8,0.2,1.2,0.2c1.1,0.2,2.2,0.4,3.4,0.6c1.1,0.2,2.3,0.4,3.4,0.7c1.1,0.2,2.2,0.5,3.3,0.7
			c1.1,0.2,2.3,0.5,3.4,0.7c1.1,0.2,2.2,0.5,3.3,0.7c1.1,0.2,2.2,0.5,3.3,0.8c1.1,0.3,2.2,0.5,3.3,0.8c1.1,0.3,2.2,0.5,3.3,0.8
			c1.1,0.3,2.2,0.5,3.3,0.8c1.1,0.3,2.2,0.6,3.3,0.9c1.1,0.3,2.2,0.6,3.2,0.9c1.1,0.3,2.2,0.6,3.3,0.9c1.1,0.3,2.1,0.6,3.2,0.9
			c1.1,0.3,2.2,0.6,3.2,1c1.1,0.3,2.1,0.6,3.2,1c0.6,0.2,1.3,0.4,1.9,0.6c0.3,0.1,0.6,0.2,0.9,0.3c2.7,0.9,5.4,1.7,8,2.6
			c0.1,0.1,0.3,0.1,0.4,0.2c2.5,0.9,5,1.8,7.5,2.7c0.7,0.3,1.4,0.5,2.1,0.8c2.2,0.8,4.4,1.7,6.6,2.5c0.4,0.2,0.8,0.3,1.3,0.5
			c2.5,1,5.1,2.1,7.6,3.1c0.6,0.3,1.3,0.6,1.9,0.8c2,0.9,4,1.8,6,2.7c0.6,0.3,1.2,0.6,1.8,0.8c2.4,1.1,4.9,2.3,7.2,3.5
			c0.4,0.2,0.9,0.5,1.3,0.7c2,1,4,2,5.9,3.1c0.6,0.3,1.3,0.7,1.9,1c2.3,1.3,4.7,2.6,7,3.9c1.8,1,3.5,2,5.2,3.1
			c0.6,0.3,1.1,0.7,1.7,1c1,0.6,2,1.3,3,1.9c0.1,0.1,0.2,0.1,0.3,0.2c0.7,0.5,1.5,0.9,2.2,1.4c0.9,0.6,1.9,1.2,2.8,1.8
			c0.7,0.5,1.4,1,2.2,1.5c0.9,0.6,1.8,1.2,2.6,1.8c0.7,0.5,1.4,1,2.1,1.5c0.8,0.6,1.7,1.2,2.5,1.8c0.7,0.5,1.4,1,2.1,1.6
			c0.8,0.6,1.6,1.2,2.4,1.8c0.7,0.5,1.3,1.1,2,1.6c0.8,0.6,1.5,1.2,2.3,1.8c0.7,0.5,1.3,1.1,1.9,1.6c0.7,0.6,1.5,1.2,2.2,1.9
			c0.6,0.6,1.3,1.1,1.9,1.7c0.7,0.6,1.4,1.2,2.1,1.9c0.6,0.6,1.2,1.1,1.8,1.7c0.4,0.4,0.8,0.8,1.3,1.2c0.3,0.3,0.7,0.7,1,1
			c0.3,0.2,0.5,0.5,0.8,0.7c1.1,1.1,2.2,2.1,3.2,3.2c0.2,0.2,0.3,0.3,0.5,0.5c0.9,1,1.8,2,2.7,2.9c0.2,0.2,0.4,0.5,0.6,0.7
			c1,1.1,1.9,2.2,2.9,3.3c0.2,0.2,0.4,0.4,0.6,0.7c0.8,1,1.7,2,2.5,3c0.2,0.2,0.3,0.4,0.5,0.6c0.7,0.9,1.4,1.8,2.2,2.7
			c0.1,0.1,0.2,0.3,0.3,0.4c0.7,0.9,1.4,1.9,2,2.8c0.3,0.4,0.6,0.9,1,1.3c1,1.4,1.9,2.8,2.8,4.1c0,0.1,0.1,0.1,0.1,0.2
			c0.9,1.3,1.7,2.6,2.5,4c0.3,0.5,0.5,0.9,0.8,1.4c0.5,0.9,1.1,1.9,1.6,2.8c0.1,0.2,0.2,0.3,0.3,0.5c0.3,0.5,0.5,0.9,0.7,1.4
			c0.4,0.7,0.8,1.5,1.1,2.2c0.3,0.6,0.6,1.3,0.9,1.9c0.4,0.7,0.7,1.5,1,2.2c0.3,0.6,0.6,1.3,0.8,1.9c0.3,0.7,0.6,1.5,0.9,2.2
			c0.3,0.6,0.5,1.3,0.8,1.9c0.3,0.7,0.6,1.5,0.8,2.2c0.1,0.3,0.2,0.5,0.3,0.8c0.1,0.4,0.3,0.8,0.4,1.2c0.2,0.7,0.5,1.4,0.7,2.1
			c0.2,0.7,0.4,1.3,0.6,2c0.2,0.7,0.4,1.4,0.6,2.1c0.2,0.7,0.4,1.3,0.5,2c0.2,0.7,0.4,1.4,0.5,2.1c0.2,0.7,0.3,1.3,0.5,2
			c0.2,0.7,0.3,1.4,0.4,2.1c0.1,0.3,0.1,0.6,0.2,0.9c0.1,0.4,0.1,0.7,0.2,1.1c0.1,0.7,0.2,1.4,0.4,2.1c0.1,0.7,0.2,1.3,0.3,2
			c0.1,0.7,0.2,1.4,0.3,2.1c0.1,0.7,0.1,1.3,0.2,2c0.1,0.7,0.1,1.4,0.2,2.1c0,0.7,0.1,1.3,0.1,2c0,0.7,0.1,1.4,0.1,2.1
			c0,0.4,0,0.7,0,1.1c0,0.7,0,1.3,0,2l0,0l0,0l-0.3,106.9c0-1,0-2-0.1-3c0-0.7,0-1.4-0.1-2.1c0-0.7-0.1-1.3-0.1-2
			c-0.1-0.7-0.1-1.4-0.2-2.1c-0.1-0.7-0.1-1.3-0.2-2c-0.1-0.7-0.2-1.4-0.3-2.1c-0.1-0.7-0.2-1.3-0.3-2c-0.1-0.7-0.2-1.4-0.4-2.1
			c-0.1-0.7-0.2-1.3-0.4-2c-0.1-0.7-0.3-1.4-0.4-2.1c-0.1-0.7-0.3-1.3-0.5-2c-0.2-0.7-0.3-1.4-0.5-2.1c-0.2-0.7-0.4-1.3-0.5-2
			c-0.2-0.7-0.4-1.4-0.6-2.1c-0.2-0.7-0.4-1.3-0.6-2c-0.2-0.7-0.5-1.4-0.7-2.1c-0.2-0.7-0.5-1.3-0.7-2c-0.3-0.7-0.5-1.5-0.8-2.2
			c-0.3-0.6-0.5-1.3-0.8-1.9c-0.3-0.7-0.6-1.4-0.9-2.2c-0.3-0.6-0.6-1.3-0.9-1.9c-0.3-0.7-0.7-1.4-1-2.2c-0.3-0.6-0.6-1.3-0.9-1.9
			c-0.4-0.7-0.7-1.4-1.1-2.2c-0.3-0.6-0.6-1.2-1-1.9c-0.5-0.9-1.1-1.9-1.6-2.8c-0.3-0.5-0.5-0.9-0.8-1.4c-0.8-1.3-1.6-2.6-2.5-4
			c0-0.1-0.1-0.1-0.1-0.2c-0.9-1.4-1.8-2.8-2.8-4.1c-0.3-0.4-0.6-0.9-1-1.3c-0.7-0.9-1.3-1.9-2-2.8c-0.8-1.1-1.6-2.1-2.5-3.2
			c-0.2-0.2-0.3-0.4-0.5-0.6c-0.8-1-1.6-2-2.5-3c-0.2-0.2-0.4-0.4-0.6-0.7c-0.9-1.1-1.9-2.2-2.9-3.3c-0.2-0.2-0.4-0.5-0.6-0.7
			c-0.9-1-1.8-2-2.7-2.9c-0.2-0.2-0.3-0.3-0.5-0.5c-1-1.1-2.1-2.1-3.2-3.2c-0.3-0.2-0.5-0.5-0.8-0.7c-0.7-0.7-1.5-1.4-2.2-2.1
			c-0.6-0.6-1.2-1.1-1.8-1.7c-0.7-0.6-1.4-1.2-2.1-1.9c-0.6-0.6-1.2-1.1-1.9-1.7c-0.7-0.6-1.4-1.2-2.2-1.8c-0.6-0.5-1.3-1.1-1.9-1.6
			c-0.7-0.6-1.5-1.2-2.3-1.8c-0.7-0.5-1.3-1.1-2-1.6c-0.8-0.6-1.6-1.2-2.4-1.8c-0.7-0.5-1.4-1.1-2.1-1.6c-0.8-0.6-1.6-1.2-2.5-1.8
			c-0.7-0.5-1.4-1-2.1-1.5c-0.9-0.6-1.7-1.2-2.6-1.8c-0.7-0.5-1.4-1-2.2-1.5c-0.9-0.6-1.8-1.2-2.8-1.8c-0.7-0.5-1.4-0.9-2.2-1.4
			c-1.1-0.7-2.2-1.4-3.4-2.1c-0.6-0.3-1.1-0.7-1.7-1c-1.7-1-3.4-2.1-5.2-3.1c-2.3-1.3-4.6-2.6-7-3.9c-0.6-0.3-1.3-0.7-1.9-1
			c-2-1-3.9-2.1-5.9-3.1c-0.4-0.2-0.9-0.5-1.3-0.7c-2.4-1.2-4.8-2.4-7.2-3.5c-0.6-0.3-1.2-0.6-1.8-0.8c-2-0.9-4-1.8-6-2.7
			c-0.6-0.3-1.3-0.6-1.9-0.8c-2.5-1.1-5-2.1-7.6-3.1c-0.4-0.2-0.9-0.3-1.3-0.5c-2.2-0.9-4.4-1.7-6.6-2.5c-0.7-0.3-1.4-0.5-2.2-0.8
			c-2.5-0.9-5-1.8-7.5-2.7c-0.1-0.1-0.3-0.1-0.4-0.2c-2.7-0.9-5.3-1.8-8-2.6c-1-0.3-1.9-0.6-2.9-0.9c-1.1-0.3-2.1-0.7-3.2-1
			c-1.1-0.3-2.2-0.6-3.2-1c-1.1-0.3-2.1-0.6-3.2-0.9c-1.1-0.3-2.2-0.6-3.3-0.9c-1.1-0.3-2.2-0.6-3.2-0.9c-1.1-0.3-2.2-0.6-3.3-0.9
			c-1.1-0.3-2.2-0.6-3.3-0.8c-1.1-0.3-2.2-0.5-3.3-0.8c-1.1-0.3-2.2-0.5-3.3-0.8c-1.1-0.3-2.2-0.5-3.4-0.8c-1.1-0.2-2.2-0.5-3.3-0.7
			c-1.1-0.2-2.3-0.5-3.4-0.7c-1.1-0.2-2.2-0.5-3.3-0.7c-1.1-0.2-2.3-0.4-3.4-0.7c-1.1-0.2-2.2-0.4-3.4-0.6c-0.9-0.2-1.8-0.3-2.7-0.5
			c-2-0.4-4-0.7-6.1-1c-0.8-0.1-1.6-0.3-2.4-0.4c-2.7-0.4-5.5-0.9-8.2-1.2c-0.2,0-0.4,0-0.5-0.1c-2.6-0.4-5.2-0.7-7.8-1
			c-0.8-0.1-1.7-0.2-2.5-0.3c-2.1-0.2-4.1-0.5-6.2-0.7c-0.9-0.1-1.7-0.2-2.6-0.3c-1.7-0.2-3.4-0.3-5-0.5c-0.8-0.1-1.7-0.2-2.5-0.2
			c-2.3-0.2-4.7-0.4-7-0.5c-0.2,0-0.4,0-0.6,0c-2.5-0.2-5.1-0.3-7.6-0.5c-0.8,0-1.6-0.1-2.4-0.1c-1.7-0.1-3.5-0.2-5.2-0.2
			c-1.1,0-2.1-0.1-3.2-0.1c-1.3,0-2.7-0.1-4-0.1c-1.1,0-2.2,0-3.3-0.1c-1.3,0-2.7,0-4-0.1c-1.1,0-2.2,0-3.3,0c-1.3,0-2.6,0-3.9,0
			c-1.1,0-2.2,0-3.3,0c-1.3,0-2.6,0-3.9,0.1c-1.1,0-2.3,0-3.4,0.1c-1.2,0-2.5,0.1-3.7,0.1c-1.2,0-2.3,0.1-3.5,0.1
			c-1.2,0-2.5,0.1-3.7,0.2c-1.1,0.1-2.3,0.1-3.4,0.2c-1.2,0.1-2.4,0.1-3.7,0.2c-1.1,0.1-2.3,0.1-3.4,0.2c-1.2,0.1-2.4,0.2-3.7,0.3
			c-1.1,0.1-2.3,0.2-3.4,0.3c-1.2,0.1-2.4,0.2-3.7,0.3c-1.1,0.1-2.3,0.2-3.4,0.3c-1.2,0.1-2.4,0.2-3.6,0.4c-1.1,0.1-2.3,0.2-3.4,0.4
			c-1.2,0.1-2.4,0.3-3.6,0.4c-1.1,0.1-2.3,0.3-3.4,0.4c-1.2,0.2-2.4,0.3-3.6,0.5c-1.1,0.1-2.2,0.3-3.3,0.4c-1.3,0.2-2.7,0.4-4,0.6
			c-1,0.2-2.1,0.3-3.1,0.5c-1.4,0.2-2.7,0.4-4.1,0.7c-1,0.2-2,0.3-3,0.5c-1.4,0.2-2.9,0.5-4.3,0.8c-0.9,0.2-1.8,0.3-2.7,0.5
			c-1.6,0.3-3.2,0.6-4.9,0.9c-0.7,0.1-1.4,0.3-2.1,0.4c-2.4,0.5-4.9,1-7.3,1.5c-0.7,0.2-1.4,0.3-2.1,0.5c-1.7,0.4-3.5,0.8-5.2,1.2
			c-0.9,0.2-1.8,0.4-2.7,0.7c-1.5,0.4-3,0.7-4.5,1.1c-0.9,0.2-1.9,0.5-2.8,0.7c-1.5,0.4-2.9,0.8-4.4,1.2c-0.9,0.2-1.7,0.5-2.6,0.7
			c-2.7,0.8-5.4,1.6-8.1,2.4c0,0-0.1,0-0.1,0c-2.7,0.8-5.3,1.7-7.9,2.5c-0.7,0.2-1.5,0.5-2.2,0.7c-2.2,0.7-4.3,1.5-6.5,2.2
			c-0.5,0.2-1,0.4-1.6,0.6c-2.6,0.9-5.1,1.9-7.7,2.9c-1,0.4-2,0.8-3,1.2c-0.9,0.4-1.9,0.7-2.8,1.1c-1.1,0.4-2.1,0.9-3.2,1.3
			c-0.9,0.4-1.8,0.8-2.7,1.1c-1.1,0.5-2.1,0.9-3.2,1.4c-0.9,0.4-1.8,0.8-2.6,1.2c-1.1,0.5-2.1,1-3.2,1.5c-0.8,0.4-1.7,0.8-2.5,1.2
			c-1.1,0.5-2.1,1-3.2,1.6c-0.8,0.4-1.6,0.8-2.4,1.2c-1.1,0.6-2.2,1.1-3.3,1.7c-0.7,0.4-1.5,0.8-2.2,1.1c-1.2,0.6-2.4,1.3-3.6,2
			c-0.6,0.3-1.2,0.6-1.8,1c-1.8,1-3.6,2-5.3,3c-56.9,33.1-85.4,76.4-85.6,119.8L549.5,1498.8z"/>
		
			<linearGradient id="XMLID_00000005261360475524977920000010509181288469879730_" gradientUnits="userSpaceOnUse" x1="4098.3613" y1="1612.9365" x2="4148.8408" y2="1612.9365" gradientTransform="matrix(-1 0 0 1 4527.3804 0)">
			<stop  offset="0" style="stop-color:#5166AD"/>
			<stop  offset="1" style="stop-color:#3E4E85"/>
		</linearGradient>
		<path id="XMLID_41_" style="fill:url(#XMLID_00000005261360475524977920000010509181288469879730_);" d="M380.4,1629.7
			c-0.1-0.4-0.1-0.8-0.2-1.2c-0.4-2.4-0.7-4.9-0.9-7.3c0-0.4-0.1-0.8-0.1-1.2c-0.1-0.8-0.1-1.7-0.2-2.5c0-0.5-0.1-0.9-0.1-1.4
			c-0.1-0.8-0.1-1.6-0.1-2.3c0-0.5,0-0.9-0.1-1.4c0-0.8-0.1-1.6-0.1-2.4c0-0.4,0-0.9,0-1.3c0-0.2,0-0.3,0-0.5c0-1,0-2,0-3.1
			l0.3-106.9c0,1.2,0,2.4,0,3.5c0,0.4,0,0.9,0,1.3c0,0.8,0,1.6,0.1,2.4c0,0.5,0,0.9,0.1,1.4c0,0.8,0.1,1.6,0.1,2.3
			c0,0.5,0.1,0.9,0.1,1.4c0.1,0.8,0.1,1.7,0.2,2.5c0,0.4,0.1,0.8,0.1,1.2c0.2,2.4,0.5,4.9,0.9,7.3c0.1,0.4,0.1,0.8,0.2,1.2
			c0.1,0.8,0.3,1.7,0.4,2.5c0.1,0.5,0.2,0.9,0.2,1.4c0.1,0.8,0.3,1.6,0.4,2.3c0.1,0.5,0.2,0.9,0.3,1.4c0.2,0.8,0.3,1.6,0.5,2.4
			c0.1,0.4,0.2,0.8,0.3,1.2c0.2,1,0.5,2,0.7,3c0,0.2,0.1,0.4,0.1,0.6c0.3,1.2,0.6,2.4,0.9,3.6c0.1,0.4,0.2,0.7,0.3,1.1
			c0.2,0.9,0.5,1.7,0.7,2.6c0.1,0.4,0.3,0.9,0.4,1.3c0.2,0.8,0.5,1.6,0.7,2.3c0.1,0.4,0.3,0.9,0.4,1.3c0.3,0.8,0.5,1.6,0.8,2.4
			c0.1,0.4,0.3,0.8,0.4,1.2c0.3,0.9,0.7,1.8,1,2.7c0.1,0.3,0.2,0.6,0.3,0.9c0.5,1.2,0.9,2.4,1.4,3.6c0.1,0.3,0.2,0.6,0.4,0.9
			c0.4,0.9,0.8,1.8,1.1,2.7c0.2,0.4,0.4,0.9,0.6,1.3c0.3,0.8,0.7,1.5,1,2.3c0.2,0.5,0.4,0.9,0.6,1.4c0.3,0.7,0.7,1.5,1.1,2.2
			c0.2,0.5,0.5,0.9,0.7,1.4c0.4,0.8,0.8,1.5,1.1,2.3c0.2,0.4,0.4,0.9,0.7,1.3c0.5,0.9,0.9,1.8,1.4,2.6c0.2,0.3,0.3,0.6,0.5,0.9
			c0.6,1.2,1.3,2.4,2,3.6c0,0,0,0.1,0,0.1c0.7,1.2,1.4,2.4,2.1,3.6c0.2,0.4,0.5,0.8,0.7,1.2c0.5,0.8,1,1.6,1.5,2.4
			c0.3,0.5,0.6,0.9,0.9,1.4c0.5,0.7,0.9,1.5,1.4,2.2c0.3,0.5,0.7,1,1,1.5c0.5,0.7,0.9,1.4,1.4,2.1c0.4,0.5,0.7,1,1.1,1.5
			c0.5,0.7,0.9,1.4,1.4,2c0.4,0.5,0.7,1,1.1,1.6c0.5,0.7,1,1.3,1.5,2c0.4,0.5,0.8,1,1.2,1.6c0.5,0.7,1,1.4,1.6,2
			c0.4,0.5,0.7,1,1.1,1.4c0.6,0.7,1.1,1.4,1.7,2.1c0.4,0.5,0.7,0.9,1.1,1.4c0.6,0.8,1.3,1.6,1.9,2.3c0.3,0.4,0.6,0.7,0.9,1.1
			c1,1.1,1.9,2.3,2.9,3.4l-0.3,106.9c-1-1.1-2-2.3-2.9-3.4c-0.3-0.4-0.6-0.7-0.9-1.1c-0.6-0.8-1.3-1.5-1.9-2.3
			c-0.4-0.4-0.7-0.9-1.1-1.4c-0.6-0.7-1.1-1.4-1.7-2.1c-0.4-0.5-0.7-1-1.1-1.4c-0.3-0.4-0.6-0.8-0.9-1.2c-0.2-0.3-0.4-0.6-0.7-0.9
			c-0.4-0.5-0.8-1-1.2-1.6c-0.5-0.7-1-1.3-1.5-2c-0.4-0.5-0.8-1-1.1-1.6c-0.5-0.7-1-1.3-1.4-2c-0.4-0.5-0.7-1-1.1-1.5
			c-0.5-0.7-0.9-1.4-1.4-2.1c-0.3-0.5-0.7-1-1-1.5c-0.5-0.7-0.9-1.5-1.4-2.2c-0.3-0.5-0.6-0.9-0.9-1.4c-0.5-0.8-1-1.6-1.5-2.4
			c-0.2-0.4-0.5-0.8-0.7-1.2c-0.7-1.2-1.4-2.4-2.1-3.6c0,0,0,0,0-0.1c-0.7-1.1-1.3-2.3-1.9-3.4c0-0.1-0.1-0.1-0.1-0.2
			c-0.2-0.3-0.3-0.6-0.5-0.9c-0.5-0.9-0.9-1.8-1.4-2.6c-0.2-0.4-0.4-0.9-0.7-1.3c-0.4-0.8-0.8-1.5-1.1-2.3c-0.2-0.5-0.5-0.9-0.7-1.4
			c-0.4-0.7-0.7-1.5-1.1-2.2c-0.2-0.5-0.4-0.9-0.6-1.4c-0.4-0.8-0.7-1.5-1-2.3c-0.2-0.4-0.4-0.9-0.6-1.3c-0.4-0.9-0.8-1.8-1.2-2.7
			c-0.1-0.3-0.2-0.6-0.4-0.9c-0.5-1.2-1-2.4-1.4-3.6c-0.1-0.3-0.2-0.6-0.3-0.9c-0.3-0.8-0.6-1.5-0.8-2.3c-0.1-0.2-0.1-0.3-0.2-0.5
			c-0.1-0.4-0.3-0.8-0.4-1.2c-0.3-0.8-0.5-1.6-0.8-2.4c-0.1-0.4-0.3-0.9-0.4-1.4c-0.3-0.8-0.5-1.6-0.7-2.3c-0.1-0.4-0.3-0.9-0.4-1.3
			c-0.3-0.9-0.5-1.7-0.7-2.6c-0.1-0.3-0.2-0.7-0.3-1c-0.3-1.2-0.6-2.4-1-3.6c0-0.2-0.1-0.4-0.1-0.6c-0.3-1-0.5-2-0.7-3.1
			c-0.1-0.4-0.2-0.8-0.3-1.2c-0.2-0.8-0.3-1.6-0.5-2.4c-0.1-0.5-0.2-0.9-0.3-1.4c-0.1-0.4-0.1-0.7-0.2-1.1c-0.1-0.4-0.1-0.8-0.2-1.3
			c-0.1-0.5-0.2-0.9-0.2-1.4C380.7,1631.4,380.5,1630.5,380.4,1629.7z"/>
		
			<linearGradient id="XMLID_00000152236340515752274880000013138759198632810424_" gradientUnits="userSpaceOnUse" x1="3218.3594" y1="1688.4124" x2="3891.4482" y2="1688.4124" gradientTransform="matrix(-1 0 0 1 4527.3804 0)">
			<stop  offset="0" style="stop-color:#5166AD"/>
			<stop  offset="1" style="stop-color:#3E4E85"/>
		</linearGradient>
		<path id="XMLID_32_" style="fill:url(#XMLID_00000152236340515752274880000013138759198632810424_);" d="M747.8,1870
			c-1-0.1-2-0.3-3-0.4c-1.7-0.2-3.5-0.5-5.2-0.7c-1-0.1-2.1-0.3-3.1-0.4c-1.8-0.2-3.5-0.5-5.3-0.8c-0.9-0.1-1.9-0.3-2.8-0.4
			c-2.1-0.3-4.2-0.6-6.3-1c-0.6-0.1-1.2-0.2-1.7-0.3c-2.7-0.4-5.4-0.9-8-1.3c-0.7-0.1-1.4-0.3-2.2-0.4c-1.5-0.3-3.1-0.5-4.6-0.8
			c-0.4-0.1-0.7-0.1-1.1-0.2c-1.6-0.3-3.1-0.6-4.7-0.9c-1.4-0.3-2.7-0.5-4.1-0.8c-1.6-0.3-3.1-0.6-4.7-0.9c-1.3-0.3-2.7-0.5-4-0.8
			c-1.6-0.3-3.2-0.7-4.8-1c-1.3-0.3-2.6-0.6-3.9-0.8c-1.6-0.4-3.2-0.7-4.8-1.1c-1.3-0.3-2.5-0.6-3.8-0.9c-1.6-0.4-3.3-0.8-4.9-1.2
			c-1.2-0.3-2.4-0.6-3.6-0.9c-1.7-0.4-3.4-0.9-5.1-1.3c-1.1-0.3-2.3-0.6-3.4-0.9c-1.9-0.5-3.7-1-5.6-1.5c-0.9-0.3-1.9-0.5-2.8-0.8
			c-2.8-0.8-5.6-1.6-8.4-2.4l0.3-106.9c2.8,0.8,5.6,1.6,8.4,2.4c0.9,0.3,1.9,0.5,2.8,0.8c1.9,0.5,3.7,1,5.6,1.5
			c1.1,0.3,2.3,0.6,3.4,0.9c1.7,0.4,3.4,0.9,5.1,1.3c1.2,0.3,2.4,0.6,3.7,0.9c1.6,0.4,3.2,0.8,4.9,1.2c1.3,0.3,2.5,0.6,3.8,0.9
			c1.6,0.4,3.2,0.7,4.8,1.1c1.3,0.3,2.6,0.6,3.9,0.9c1.6,0.3,3.1,0.7,4.7,1c1.3,0.3,2.7,0.5,4,0.8c1.6,0.3,3.1,0.6,4.7,0.9
			c1.4,0.3,2.7,0.5,4.1,0.8c1.5,0.3,3.1,0.6,4.7,0.9c1.9,0.3,3.8,0.7,5.7,1c0.7,0.1,1.4,0.3,2.1,0.4c2.7,0.5,5.3,0.9,8,1.3
			c0.6,0.1,1.1,0.2,1.7,0.3c2.1,0.3,4.3,0.7,6.4,1c0.9,0.1,1.9,0.3,2.8,0.4c1.8,0.3,3.6,0.5,5.3,0.8c1,0.1,2,0.3,3.1,0.4
			c1.8,0.2,3.5,0.5,5.3,0.7c1,0.1,2,0.3,3,0.4c2,0.2,3.9,0.5,5.9,0.7c0.8,0.1,1.6,0.2,2.3,0.3c2.7,0.3,5.4,0.6,8.1,0.9
			c3.7,0.4,7.5,0.7,11.2,1.1c1,0.1,2,0.2,3,0.3c3.1,0.3,6.2,0.5,9.3,0.7c0.8,0.1,1.5,0.1,2.3,0.2c3.7,0.3,7.5,0.5,11.2,0.7
			c0.9,0,1.8,0.1,2.7,0.1c3,0.2,6.1,0.3,9.1,0.4c1,0,2,0.1,3,0.1c3.5,0.1,7.1,0.2,10.6,0.3c0,0,0.1,0,0.1,0
			c3.5,0.1,7.1,0.1,10.6,0.2c1.1,0,2.1,0,3.2,0c2.6,0,5.2,0,7.8,0c1.1,0,2.2,0,3.3,0c3.3,0,6.6-0.1,9.8-0.1c0.3,0,0.6,0,0.8,0
			c3.4-0.1,6.9-0.2,10.3-0.3c1,0,2.1-0.1,3.1-0.1c2.5-0.1,4.9-0.2,7.4-0.3c1.2-0.1,2.3-0.1,3.5-0.2c2.5-0.1,5-0.3,7.5-0.4
			c1-0.1,2-0.1,2.9-0.2c3.4-0.2,6.9-0.5,10.3-0.7c0.5,0,1-0.1,1.6-0.1c2.9-0.2,5.8-0.5,8.7-0.7c1.1-0.1,2.2-0.2,3.3-0.3
			c2.4-0.2,4.8-0.5,7.2-0.7c1.1-0.1,2.3-0.2,3.4-0.4c2.7-0.3,5.4-0.6,8.1-0.9c0.7-0.1,1.4-0.2,2.2-0.3c3.4-0.4,6.8-0.9,10.1-1.3
			c0.8-0.1,1.6-0.2,2.5-0.3c2.7-0.4,5.4-0.8,8.1-1.2c1.1-0.2,2.2-0.3,3.3-0.5c2.6-0.4,5.2-0.8,7.9-1.3c0.9-0.1,1.7-0.3,2.6-0.4
			c3.4-0.6,6.8-1.2,10.2-1.8c0.7-0.1,1.4-0.3,2.1-0.4c2.7-0.5,5.4-1,8.1-1.6c1-0.2,2-0.4,3.1-0.6c3.2-0.7,6.4-1.3,9.6-2
			c0.5-0.1,1-0.2,1.5-0.3c3.6-0.8,7.2-1.6,10.8-2.5c0.9-0.2,1.8-0.4,2.7-0.7c3-0.7,6-1.5,8.9-2.2c0.7-0.2,1.5-0.4,2.2-0.6
			c3.5-0.9,7.1-1.9,10.6-2.8c1.6-0.4,3.2-0.9,4.8-1.4c0.9-0.2,1.7-0.5,2.6-0.7c2.5-0.7,4.9-1.4,7.4-2.2c0.1,0,0.2-0.1,0.3-0.1
			c2.5-0.8,5.1-1.6,7.6-2.4c0.8-0.3,1.6-0.5,2.4-0.8c1.7-0.6,3.4-1.1,5.1-1.7c1-0.3,1.9-0.6,2.9-1c1.5-0.5,3.1-1.1,4.6-1.6
			c1-0.3,2-0.7,3-1.1c1.5-0.5,3-1.1,4.5-1.6c1-0.4,2-0.7,3-1.1c1.5-0.6,3-1.1,4.6-1.7c0.9-0.4,1.9-0.7,2.8-1.1c1-0.4,2-0.8,3-1.2
			c2-0.8,3.9-1.5,5.9-2.3c1-0.4,2.1-0.8,3.1-1.3c1.9-0.8,3.8-1.6,5.7-2.4c1-0.4,2-0.8,2.9-1.3c2.2-0.9,4.3-1.9,6.5-2.9
			c0.6-0.3,1.3-0.6,1.9-0.9c2.8-1.3,5.5-2.5,8.2-3.8c0.7-0.3,1.4-0.7,2-1c2-1,4.1-2,6.1-3c0.9-0.5,1.9-0.9,2.8-1.4
			c1.8-0.9,3.5-1.8,5.3-2.7c1-0.5,1.9-1,2.9-1.5c1.8-1,3.6-1.9,5.4-2.9c0.8-0.5,1.7-0.9,2.5-1.4c2.6-1.4,5.2-2.9,7.7-4.4
			c89.9-52.3,135-120.7,135.2-189.2l-0.3,106.9c-0.2,68.5-45.2,136.9-135.2,189.2c-2.5,1.5-5.1,2.9-7.7,4.4
			c-0.8,0.5-1.7,0.9-2.5,1.4c-1.8,1-3.6,2-5.4,2.9c-1,0.5-1.9,1-2.9,1.5c-1.8,0.9-3.5,1.8-5.3,2.7c-0.9,0.5-1.9,1-2.8,1.4
			c-2,1-4.1,2-6.1,3c-0.7,0.3-1.4,0.7-2.1,1c-2.7,1.3-5.5,2.6-8.2,3.8c-0.6,0.3-1.3,0.6-1.9,0.9c-2.1,1-4.3,1.9-6.5,2.9
			c-1,0.4-2,0.8-2.9,1.3c-1.9,0.8-3.8,1.6-5.7,2.4c-1,0.4-2.1,0.8-3.1,1.3c-2,0.8-3.9,1.6-5.9,2.3c-0.7,0.3-1.3,0.5-2,0.8
			c-0.3,0.1-0.7,0.3-1,0.4c-0.9,0.4-1.9,0.7-2.8,1.1c-1.5,0.6-3,1.1-4.5,1.7c-1,0.4-2,0.7-3,1.1c-1.5,0.5-3,1.1-4.5,1.6
			c-1,0.4-2,0.7-3,1.1c-1.5,0.5-3.1,1.1-4.6,1.6c-1,0.3-1.9,0.6-2.9,1c-1.7,0.6-3.4,1.1-5.1,1.7c-0.8,0.3-1.6,0.5-2.4,0.8
			c-2.5,0.8-5.1,1.6-7.6,2.4c-0.1,0-0.2,0.1-0.3,0.1c-2.5,0.7-4.9,1.5-7.4,2.2c-0.9,0.2-1.7,0.5-2.6,0.7c-1.3,0.4-2.7,0.8-4,1.1
			c-0.3,0.1-0.5,0.1-0.8,0.2c-3.5,1-7,1.9-10.5,2.8c-0.7,0.2-1.5,0.4-2.2,0.6c-3,0.8-5.9,1.5-8.9,2.2c-0.9,0.2-1.8,0.4-2.8,0.7
			c-3.6,0.9-7.2,1.7-10.8,2.5c-0.5,0.1-1,0.2-1.5,0.3c-3.2,0.7-6.4,1.4-9.6,2c-0.5,0.1-1,0.2-1.5,0.3c-0.5,0.1-1,0.2-1.5,0.3
			c-2.7,0.5-5.4,1.1-8.2,1.6c-0.7,0.1-1.4,0.3-2.1,0.4c-3.4,0.6-6.8,1.2-10.2,1.8c-0.9,0.1-1.7,0.3-2.6,0.4
			c-2.6,0.4-5.3,0.9-7.9,1.3c-1.1,0.2-2.2,0.3-3.3,0.5c-2.7,0.4-5.4,0.8-8.1,1.2c-0.6,0.1-1.2,0.2-1.8,0.3c-0.2,0-0.4,0.1-0.6,0.1
			c-3.4,0.5-6.8,0.9-10.1,1.3c-0.7,0.1-1.4,0.2-2.1,0.3c-2.7,0.3-5.4,0.6-8.1,0.9c-1.1,0.1-2.3,0.2-3.4,0.4
			c-2.4,0.3-4.8,0.5-7.2,0.7c-1.1,0.1-2.2,0.2-3.3,0.3c-2.9,0.3-5.8,0.5-8.8,0.7c-0.4,0-0.9,0.1-1.3,0.1c-0.1,0-0.2,0-0.2,0
			c-3.4,0.3-6.9,0.5-10.3,0.7c-1,0.1-1.9,0.1-2.9,0.2c-2.5,0.2-5,0.3-7.5,0.4c-1.2,0.1-2.3,0.1-3.5,0.2c-2.5,0.1-4.9,0.2-7.4,0.3
			c-1,0-2.1,0.1-3.1,0.1c-3.4,0.1-6.9,0.2-10.3,0.3c0,0-0.1,0-0.1,0c-0.2,0-0.5,0-0.7,0c-3.3,0.1-6.6,0.1-9.9,0.1
			c-1.1,0-2.2,0-3.2,0c-2.6,0-5.2,0-7.8,0c-1.1,0-2.1,0-3.2,0c-3.5,0-7.1-0.1-10.6-0.2c0,0,0,0,0,0c-3.6-0.1-7.1-0.2-10.7-0.3
			c-0.4,0-0.8,0-1.2,0c-0.6,0-1.2-0.1-1.8-0.1c-3.1-0.1-6.1-0.3-9.1-0.4c-0.9,0-1.8-0.1-2.7-0.1c-3.7-0.2-7.5-0.4-11.2-0.7
			c-0.8-0.1-1.5-0.1-2.3-0.2c-3.1-0.2-6.2-0.5-9.3-0.7c-1-0.1-2-0.2-3-0.3c-3.8-0.3-7.5-0.7-11.2-1.1c-0.1,0-0.1,0-0.2,0
			c-2.7-0.3-5.3-0.6-8-0.9c-0.8-0.1-1.6-0.2-2.4-0.3C751.7,1870.5,749.8,1870.2,747.8,1870z"/>
		<g id="XMLID_236_">
			<polygon id="XMLID_237_" class="st13" points="263.7,1956.7 263.4,2063.6 635.9,1847.2 636.2,1740.3 			"/>
		</g>
		<g id="XMLID_234_">
			<polygon id="XMLID_235_" class="st14" points="56.5,1837 56.2,1944 263.4,2063.6 263.7,1956.7 			"/>
		</g>
		<g id="XMLID_216_">
			
				<linearGradient id="XMLID_00000062171913020972999040000010478299183800668300_" gradientUnits="userSpaceOnUse" x1="3218.3586" y1="1593.4352" x2="4470.8638" y2="1593.4352" gradientTransform="matrix(-1 0 0 1 4527.3804 0)">
				<stop  offset="0" style="stop-color:#E7FFFF"/>
				<stop  offset="1" style="stop-color:#7796FF"/>
			</linearGradient>
			<path id="XMLID_217_" style="fill:url(#XMLID_00000062171913020972999040000010478299183800668300_);" d="M1173.9,1690.1
				c-145.1,84.3-363,101-537.6,50.2l-372.5,216.4L56.5,1837L429,1620.7c-88.3-101-60.1-227.3,85-311.6
				c181-105.2,475.5-105.2,657.7,0C1353.9,1414.3,1354.9,1584.9,1173.9,1690.1z M636.4,1620.2c115.4,66.6,301.8,66.6,416.4,0
				c114.6-66.6,114-174.6-1.4-241.2c-115.4-66.6-301.8-66.6-416.4,0C520.4,1445.6,521.1,1553.6,636.4,1620.2"/>
		</g>
		<ellipse id="XMLID_325_" class="st16" cx="843.8" cy="1498.3" rx="264.9" ry="152.9"/>
		<ellipse id="XMLID_133_" class="st7" cx="843.8" cy="1388.3" rx="25.1" ry="14.5"/>
		<polygon id="XMLID_14_" class="st17" points="56.5,1837 163.2,1775.2 370.4,1894.8 263.7,1956.7 		"/>
		<polygon id="XMLID_139_" class="st18" points="370.4,1894.8 370.4,2001.7 263.4,2063.6 263.7,1956.7 		"/>
	</g>
	<g id="XMLID_408_">
		<path id="XMLID_442_" class="st9" d="M1733.7,709.1c4.6,2.6,8.9,4.1,12.9,4.4l-41.5-78.8c-2.9,4-4.6,9.7-4.6,16.8
			C1700.4,672.7,1715.3,698.5,1733.7,709.1z"/>
		<path id="XMLID_441_" class="st9" d="M1766.9,689.9c0-21.2-14.9-47-33.2-57.6c-12.2-7-22.9-5.6-28.7,2.4l41.5,78.8
			C1758.5,714.6,1766.9,705.8,1766.9,689.9z"/>
		<path id="XMLID_375_" class="st19" d="M1733.7,709.1c-18.4-10.6-33.2-36.4-33.2-57.6c0-7.1,1.7-12.8,4.6-16.8l-15.1-28.7
			c-7.4,6.6-11.7,17.8-11.7,32.6c0,35.4,24.8,78.4,55.5,96.1c10.2,5.9,19.7,8.2,28,7.4l-15.1-28.7
			C1742.6,713.1,1738.2,711.7,1733.7,709.1z"/>
		<path id="XMLID_435_" class="st20" d="M1789.2,702.7c0-35.4-24.8-78.4-55.5-96.1c-17.8-10.3-33.6-9.7-43.8-0.6l15.1,28.7
			c5.8-8,16.4-9.4,28.7-2.4c18.4,10.6,33.2,36.4,33.2,57.6c0,15.9-8.4,24.7-20.4,23.6l15.1,28.7
			C1778.1,740.6,1789.2,726.3,1789.2,702.7z"/>
		<polygon id="XMLID_432_" class="st21" points="2018.4,819.8 1798.7,693 1798.7,676.4 2018.4,803.2 		"/>
		<polygon id="XMLID_429_" class="st21" points="1910.7,782.3 1798.7,717.6 1798.7,705.9 1910.7,770.6 		"/>
		<polygon id="XMLID_426_" class="st21" points="1890.4,790 1798.7,737.1 1798.7,725.4 1890.4,778.3 		"/>
		<polygon id="XMLID_423_" class="st21" points="2033.1,949.2 1798.7,813.9 1798.7,797.3 2033.1,932.6 		"/>
		<polygon id="XMLID_360_" class="st21" points="1910.7,903.2 1798.7,838.6 1798.7,826.8 1910.7,891.5 		"/>
		<polygon id="XMLID_417_" class="st21" points="1890.4,910.9 1798.7,858 1798.7,846.3 1890.4,899.2 		"/>
		<path id="XMLID_416_" class="st9" d="M1733.7,777.8c-18.4-10.6-33.2-2-33.2,19.2c0,1.4,0.1,2.9,0.2,4.4l57.9,3.7
			C1752.4,793.7,1743.5,783.6,1733.7,777.8z"/>
		<path id="XMLID_415_" class="st9" d="M1733.7,854.6c18.4,10.6,33.2,2,33.2-19.2c0-9.8-3.2-20.5-8.4-30.3l-57.9-3.7
			C1702.4,821.7,1716.5,844.7,1733.7,854.6z"/>
		<path id="XMLID_412_" class="st21" d="M1700.4,797c0-21.2,14.9-29.8,33.2-19.2c9.9,5.7,18.8,15.8,24.9,27.2l20.9,1.3
			c-10-22.6-26.8-43.3-45.8-54.3c-30.7-17.7-55.5-3.4-55.5,32c0,5.2,0.5,10.5,1.5,15.9l20.9,1.3
			C1700.5,799.9,1700.4,798.5,1700.4,797z"/>
		<path id="XMLID_409_" class="st19" d="M1758.5,805.1c5.2,9.8,8.4,20.5,8.4,30.3c0,21.2-14.9,29.8-33.2,19.2
			c-17.1-9.9-31.2-33-33-53.2l-20.9-1.3c5.8,31.5,27.8,65.1,54,80.3c30.7,17.7,55.5,3.4,55.5-32c0-13.4-3.6-28-9.7-41.8
			L1758.5,805.1z"/>
	</g>
	<g id="XMLID_251_">
		<polygon id="XMLID_275_" class="st21" points="2251,930.1 2186.2,892.7 2186.2,581.2 2251,618.6 		"/>
		<polygon id="XMLID_321_" class="st22" points="2448.7,1044.2 2383.9,1006.8 2383.9,729.3 2448.7,766.7 		"/>
		<polygon id="XMLID_270_" class="st20" points="2552.6,1104.2 2487.8,1066.8 2487.8,869.3 2552.6,906.7 		"/>
		<polygon id="XMLID_315_" class="st22" points="2656.4,1164.2 2591.7,1126.8 2591.7,815.3 2656.4,852.7 		"/>
		<polygon id="XMLID_264_" class="st20" points="2760.3,1224.2 2695.6,1186.8 2695.6,831.6 2760.3,869 		"/>
		<polygon id="XMLID_261_" class="st21" points="2864.2,1284.2 2799.5,1246.8 2799.5,1006.2 2864.2,1043.6 		"/>
		<polygon id="XMLID_304_" class="st20" points="2349.7,987.1 2285,949.7 2285,726 2349.7,763.4 		"/>
		<polyline id="XMLID_256_" class="st23" points="2186.2,512.1 2349.7,555.7 2470.2,701.5 2605.6,703.5 2728,812.2 2864.2,781.3 		
			"/>
		<polyline id="XMLID_255_" class="st24" points="2226.9,582.6 2285,488.5 2409.5,710.1 2510.7,638.8 2624.1,790.3 2746.3,839.4 
			2845.1,961.6 		"/>
		<polyline id="XMLID_252_" class="st25" points="2226.9,493.4 2317.3,690.9 2412.2,673 2527.3,839.1 2569.3,766.5 2669.2,834.9 
			2706.5,770.3 2878.4,889.5 		"/>
	</g>
	<g id="XMLID_354_">
		<path id="XMLID_405_" class="st21" d="M3334.3,1609.5l-91.9,2.6c17.4,48.1,52,94.1,91.9,117.2c29.9,17.3,56.9,18.2,75.8,5.7
			L3334.3,1609.5z"/>
		<path id="XMLID_402_" class="st20" d="M3334.3,1489.7c-57.3-33.1-103.7-6.3-103.7,59.9c0,20.1,4.3,41.5,11.8,62.5l91.9-2.6
			l80.1-29.8C3395.4,1542,3366.6,1508.3,3334.3,1489.7z"/>
		<path id="XMLID_399_" class="st22" d="M3414.5,1579.6l-80.1,29.8l75.8,125.5c17.3-11.4,27.9-34,27.9-65.6
			C3438.1,1640.5,3429.2,1608.8,3414.5,1579.6z"/>
		<polyline id="XMLID_396_" class="st26" points="3462.1,1622.4 3497.9,1619.6 3604.7,1681.3 		"/>
		<polyline id="XMLID_393_" class="st27" points="3272.1,1453.7 3236.3,1409.6 3129.5,1347.9 		"/>
		<polyline id="XMLID_390_" class="st28" points="3398.2,1761 3434,1805.2 3540.8,1866.8 		"/>
		<polygon id="XMLID_387_" class="st22" points="3608.4,1721.2 3504.7,1661.3 3504.7,1639.9 3608.4,1699.8 		"/>
		<polygon id="XMLID_383_" class="st21" points="3504.7,1827.6 3438.1,1789.1 3438.1,1767.7 3504.7,1806.2 		"/>
		<polygon id="XMLID_378_" class="st22" points="3587.1,1731 3504.7,1683.4 3504.7,1672.7 3587.1,1720.3 		"/>
		<polygon id="XMLID_365_" class="st20" points="3188.2,1420.6 3129.5,1386.7 3129.5,1365.3 3188.2,1399.2 		"/>
		<polygon id="XMLID_362_" class="st20" points="3224.1,1463.4 3191.2,1444.4 3191.2,1433.7 3224.1,1452.7 		"/>
		<polygon id="XMLID_359_" class="st20" points="3176.2,1435.7 3129.5,1408.8 3129.5,1398.1 3176.2,1425 		"/>
		<polygon id="XMLID_356_" class="st21" points="3550.7,1821.4 3468.3,1773.9 3468.3,1763.2 3550.7,1810.8 		"/>
	</g>
	<g id="XMLID_137_">
		<g id="XMLID_289_">
			<polygon id="XMLID_293_" class="st21" points="3519.2,1488.6 3529.6,1494.5 3529.6,1506.4 3519.2,1500.5 			"/>
			<polygon id="XMLID_292_" class="st21" points="3622.3,1551.7 3535.6,1501.7 3535.6,1498 3622.3,1548.1 			"/>
			<polygon id="XMLID_291_" class="st21" points="3622.3,1557.7 3535.6,1507.6 3535.6,1504 3622.3,1554 			"/>
			<polygon id="XMLID_290_" class="st21" points="3609.7,1556.3 3535.6,1513.6 3535.6,1509.9 3609.7,1552.7 			"/>
		</g>
		<g id="XMLID_276_">
			<g>
				<polygon id="XMLID_00000001643136386057493950000003204326444825765258_" class="st20" points="3519.2,1516.2 3529.6,1522.2 
					3529.6,1534.1 3519.2,1528.1 				"/>
				<polygon id="XMLID_00000064318702603707940660000005895636724793085606_" class="st20" points="3622.3,1579.3 3535.6,1529.3 
					3535.6,1525.6 3622.3,1575.7 				"/>
				<polygon id="XMLID_00000121964113234218924160000012782508454818846907_" class="st20" points="3622.3,1585.3 3535.6,1535.2 
					3535.6,1531.6 3622.3,1581.6 				"/>
				<polygon id="XMLID_00000132786326933176306200000017041003558027729327_" class="st20" points="3609.7,1583.9 3535.6,1541.2 
					3535.6,1537.5 3609.7,1580.3 				"/>
			</g>
		</g>
		<g id="XMLID_140_">
			<g>
				<polygon id="XMLID_00000139274861326477927410000013215380644175728260_" class="st22" points="3519.2,1546.4 3529.6,1552.3 
					3529.6,1564.2 3519.2,1558.3 				"/>
				<polygon id="XMLID_00000119839136901434279520000006471426241243967156_" class="st22" points="3622.3,1609.5 3535.6,1559.4 
					3535.6,1555.8 3622.3,1605.8 				"/>
				<polygon id="XMLID_00000010280840385461999290000017688879004471129763_" class="st22" points="3622.3,1615.4 3535.6,1565.4 
					3535.6,1561.7 3622.3,1611.8 				"/>
				<polygon id="XMLID_00000127760520312900028770000016377993704712473776_" class="st22" points="3609.7,1614.1 3535.6,1571.3 
					3535.6,1567.7 3609.7,1610.5 				"/>
			</g>
		</g>
	</g>
	<g id="XMLID_61_">
		<g>
			<g id="XMLID_00000158736382336383927630000000198061272834797994_">
				<g id="XMLID_00000024722859246248407220000000439558753958775170_">
					<polygon id="XMLID_00000118358176385123262040000009261315587078856865_" class="st21" points="4236.8,2301.1 4261.6,2287.6 
						4140.9,2065.5 3971.1,2048.1 3869.4,1837.2 3844,1849.5 3952.5,2074.6 4123.2,2092.1 					"/>
				</g>
				<g id="XMLID_00000013160131992102300410000003318514529980981151_">
					<polygon id="XMLID_00000165212362244911619610000007106523158727485629_" class="st21" points="3924.9,1884.6 3833.9,1788.7 
						3846.8,1903.5 					"/>
				</g>
			</g>
			<g id="XMLID_00000181768834762066547170000018008517266132310973_">
				<polygon id="XMLID_00000004525072725007532150000015045106413992803470_" class="st21" points="4137.4,2260.8 4178,2284.3 
					4178,2226.3 4137.4,2202.9 				"/>
			</g>
			<g id="XMLID_00000143600716911941213530000014879409663849879439_">
				<polygon id="XMLID_00000033360739068235081070000003210097039619133874_" class="st21" points="4049.5,2210.1 4090.1,2233.5 
					4090.1,2135.5 4049.5,2112 				"/>
			</g>
			<g id="XMLID_00000136383537021415307540000007697152021689145234_">
				<polygon id="XMLID_00000161590085502961118010000008091971145184749708_" class="st21" points="3961.6,2159.3 4002.2,2182.8 
					4002.2,2124.8 3961.6,2101.4 				"/>
			</g>
			<g id="XMLID_00000080194473547945092200000011141510356893821851_">
				<polygon id="XMLID_00000070802188388336508470000014668300449401254038_" class="st21" points="3873.7,2108.6 3914.4,2132 
					3914.4,2015.8 3873.7,1992.4 				"/>
			</g>
		</g>
	</g>
	<g id="XMLID_17_">
		<polygon id="XMLID_1269_" class="st29" points="1003,207.2 1051,235 1051,223.5 1003,195.7 		"/>
		<polygon id="XMLID_1268_" class="st29" points="1027,239.6 1051,253.5 1051,242 1027,228.1 		"/>
		<polygon id="XMLID_1267_" class="st29" points="1341.1,405.9 1397.6,438.6 1397.6,427.1 1341.1,394.4 		"/>
		<polygon id="XMLID_1266_" class="st29" points="1369.3,440.7 1397.6,457.1 1397.6,445.6 1369.3,429.2 		"/>
		<polygon id="XMLID_1265_" class="st29" points="1383.5,516.4 1425.8,540.9 1425.8,529.4 1383.5,504.9 		"/>
		<polygon id="XMLID_1264_" class="st29" points="1366.4,525.1 1425.8,559.4 1425.8,547.9 1366.4,513.6 		"/>
		<polygon id="XMLID_1263_" class="st29" points="980.9,284.7 1041.7,319.8 1041.7,308.3 980.9,273.2 		"/>
		<polygon id="XMLID_1262_" class="st29" points="1003,316 1041.7,338.3 1041.7,326.8 1003,304.5 		"/>
		<path id="XMLID_1261_" class="st30" d="M1177.7,349.5c7.7,2.8,15.6,6.4,23.8,11.1c32.7,18.9,62.5,50.4,85,86.9l-88.3,37.4
			L1177.7,349.5z"/>
		<path id="XMLID_1260_" class="st31" d="M1328.1,579.9c0,80.8-56.7,113.5-126.6,73.1c-35.8-20.7-68.1-56.5-91.1-97.3l191.1-80.9
			C1318.1,509.3,1328.1,546.1,1328.1,579.9z"/>
		<path id="XMLID_1259_" class="st32" d="M1096.5,527.9c-13.6-31.2-21.7-63.9-21.7-94.2c0-43.8,16.7-73.5,43.2-85l73.4,139
			L1096.5,527.9z"/>
		<polygon id="XMLID_1258_" class="st33" points="1072.5,271.1 1100.5,321.4 1103.1,320 1075.2,269.8 		"/>
		<polygon id="XMLID_1257_" class="st33" points="1357.9,511.8 1322,515 1320.3,509.7 1356.2,506.4 		"/>
		<polygon id="XMLID_1256_" class="st33" points="1324.8,407.9 1289,411.2 1287.3,405.8 1323.1,402.5 		"/>
		<polygon id="XMLID_1255_" class="st33" points="1054.5,347.3 1074.9,371.3 1076.5,368.5 1056.2,344.5 		"/>
		<path id="XMLID_1254_" class="st29" d="M1168,346.8l20.8,129.4l-63.6-131.6C1125.1,344.5,1141,338,1168,346.8z"/>
	</g>
	<g id="XMLID_18_">
		<g id="XMLID_603_" class="st1">
			<g id="XMLID_608_">
				<polygon id="XMLID_56_" class="st34" points="1590.9,2267.2 1680.7,2215 1681.8,1847.5 1592,1899.7 				"/>
			</g>
			<g id="XMLID_606_">
				<polygon id="XMLID_607_" class="st35" points="1592,1899.7 1681.8,1847.5 1582.4,1790.2 1492.6,1842.4 				"/>
			</g>
			<g id="XMLID_604_">
				<g>
					<polygon id="XMLID_00000134933066878374780460000006188729250139054740_" class="st36" points="1492.6,1842.4 1491.5,2209.8 
						1590.9,2267.2 1592,1899.7 					"/>
				</g>
			</g>
		</g>
		<g id="XMLID_596_" class="st1">
			<g id="XMLID_601_">
				<polygon id="XMLID_602_" class="st37" points="1750.4,2359.3 1840.2,2307.1 1841.7,1764.6 1751.9,1816.8 				"/>
			</g>
			<g id="XMLID_599_">
				<polygon id="XMLID_600_" class="st38" points="1751.9,1816.8 1841.7,1764.6 1742.3,1707.2 1652.5,1759.4 				"/>
			</g>
			<g id="XMLID_597_">
				<g>
					<polygon id="XMLID_00000049934070016426383930000000587686765943093378_" class="st39" points="1652.5,1759.4 1651,2301.9 
						1750.4,2359.3 1751.9,1816.8 					"/>
				</g>
			</g>
		</g>
		<g id="XMLID_538_" class="st1">
			<g id="XMLID_46_">
				<polygon id="XMLID_595_" class="st40" points="1909.8,2451.3 1999.6,2399.1 2001,1923.4 1911.2,1975.6 				"/>
			</g>
			<g id="XMLID_592_">
				<polygon id="XMLID_593_" class="st41" points="1911.2,1975.6 2001,1923.4 1901.6,1866 1811.8,1918.2 				"/>
			</g>
			<g id="XMLID_540_">
				<polygon id="XMLID_541_" class="st31" points="1811.8,1918.2 1810.4,2393.9 1909.8,2451.3 1911.2,1975.6 				"/>
			</g>
		</g>
		<g id="XMLID_525_" class="st1">
			<g id="XMLID_535_">
				<polygon id="XMLID_537_" class="st42" points="2069.3,2543.4 2159.1,2491.2 2160,2189.5 2070.1,2241.7 				"/>
			</g>
			<g id="XMLID_532_">
				<polygon id="XMLID_534_" class="st43" points="2070.1,2241.7 2160,2189.5 2060.6,2132.1 1970.7,2184.3 				"/>
			</g>
			<g id="XMLID_528_">
				<polygon id="XMLID_531_" class="st44" points="1970.7,2184.3 1969.9,2486 2069.3,2543.4 2070.1,2241.7 				"/>
			</g>
		</g>
		<g id="XMLID_509_" class="st1">
			<g id="XMLID_519_">
				<polygon id="XMLID_522_" class="st45" points="2228.7,2635.4 2318.5,2583.2 2319.7,2159.4 2229.9,2211.6 				"/>
			</g>
			<g id="XMLID_515_">
				<polygon id="XMLID_517_" class="st46" points="2229.9,2211.6 2319.7,2159.4 2220.4,2102 2130.5,2154.2 				"/>
			</g>
			<g id="XMLID_511_">
				<g>
					<polygon id="XMLID_00000070092756865865366330000003335796408955530407_" class="st22" points="2130.5,2154.2 2129.3,2578.1 
						2228.7,2635.4 2229.9,2211.6 					"/>
				</g>
			</g>
		</g>
		<g id="XMLID_496_" class="st1">
			<g id="XMLID_505_">
				<polygon id="XMLID_507_" class="st47" points="2380.6,2723.1 2470.4,2670.9 2471.4,2329.3 2381.5,2381.5 				"/>
			</g>
			<g id="XMLID_501_">
				<polygon id="XMLID_503_" class="st48" points="2381.5,2381.5 2471.4,2329.3 2372,2271.9 2282.1,2324.1 				"/>
			</g>
			<g id="XMLID_497_">
				<g>
					<polygon id="XMLID_00000028287047906734923980000014474848237507802270_" class="st49" points="2282.1,2324.1 2281.2,2665.7 
						2380.6,2723.1 2381.5,2381.5 					"/>
				</g>
			</g>
		</g>
		<g id="XMLID_489_" class="st1">
			<g id="XMLID_494_">
				<polygon id="XMLID_495_" class="st50" points="2532.1,2810.6 2622,2758.4 2623.3,2282.7 2533.5,2334.9 				"/>
			</g>
			<g id="XMLID_492_">
				<polygon id="XMLID_493_" class="st51" points="2533.5,2334.9 2623.3,2282.7 2523.9,2225.3 2434.1,2277.5 				"/>
			</g>
			<g id="XMLID_490_">
				<g>
					<polygon id="XMLID_00000062890931756644083300000016142973685697794722_" class="st52" points="2434.1,2277.5 2432.8,2753.2 
						2532.1,2810.6 2533.5,2334.9 					"/>
				</g>
			</g>
		</g>
	</g>
	<g id="XMLID_36_">
		<g id="XMLID_55_">
			<g id="XMLID_64_" class="st1">
				<g id="XMLID_80_">
					<polygon id="XMLID_108_" class="st53" points="1710.6,1076.7 1652.8,1103.4 1658.6,1358.4 1716.5,1331.6 					"/>
				</g>
				<g id="XMLID_65_">
					<polygon id="XMLID_78_" class="st54" points="1710.6,1076.7 1716.5,1331.6 1888.3,1234.1 					"/>
				</g>
			</g>
		</g>
		<g id="XMLID_37_">
			<g id="XMLID_38_" class="st1">
				<g id="XMLID_51_">
					<polygon id="XMLID_54_" class="st55" points="1751.9,1311.4 1849,1255 1814.2,1274.6 1717.2,1331 					"/>
				</g>
				<g id="XMLID_50_">
					<polygon id="XMLID_95_" class="st54" points="1953.7,1662.6 2050.8,1606.2 1849,1255 1751.9,1311.4 					"/>
				</g>
				<g id="XMLID_47_">
					<polygon id="XMLID_49_" class="st56" points="2274.7,1847.9 2371.8,1791.5 2050.8,1606.2 1953.7,1662.6 					"/>
				</g>
				<g id="XMLID_44_">
					<polygon id="XMLID_91_" class="st54" points="2435.1,2217.9 2532.2,2161.5 2371.8,1791.5 2274.7,1847.9 					"/>
				</g>
				<g id="XMLID_42_">
					<polygon id="XMLID_43_" class="st53" points="1751.9,1311.4 1717.2,1331 1933.2,1707 2248.5,1889 2394.4,2225.7 2435.1,2217.9 
						2274.7,1847.9 1953.7,1662.6 					"/>
				</g>
			</g>
		</g>
	</g>
</g>
</svg>
