<?xml version="1.0" encoding="utf-8"?>
<!-- Generator: Adobe Illustrator 27.0.1, SVG Export Plug-In . SVG Version: 6.00 Build 0)  -->
<svg version="1.1" id="Õ_xBA__x2264__x201E__x5F_1"
	 xmlns="http://www.w3.org/2000/svg" xmlns:xlink="http://www.w3.org/1999/xlink" x="0px" y="0px" viewBox="0 0 872.4 1404"
	 style="enable-background:new 0 0 872.4 1404;" xml:space="preserve">
<style type="text/css">
	.st0{fill:#B7B7B7;}
	.st1{fill:#943530;}
	.st2{fill:#FF5C54;}
	.st3{fill:#B8423D;}
	.st4{enable-background:new    ;}
	.st5{fill:#578223;}
	.st6{fill:#B1FF59;}
	.st7{fill:#8DDB37;}
	.st8{fill:#AD902F;}
	.st9{fill:#FFD959;}
	.st10{fill:#EFC73C;}
	.st11{fill:#AD3A2F;}
	.st12{fill:#FF6959;}
	.st13{fill:#EF4E3C;}
	.st14{fill:#2F6FAD;}
	.st15{fill:#59AAFF;}
	.st16{fill:#3C90EF;}
	.st17{fill:#E6E6E6;}
	.st18{fill:#D9D9D9;}
	.st19{fill:#E5F2FF;}
	.st20{fill:#737373;}
	.st21{fill:#595959;}
	.st22{fill:#808080;}
	.st23{fill:#7E7E7E;}
	.st24{fill:#333333;}
	.st25{fill:#404040;}
	.st26{fill:#A8A8A8;}
	.st27{fill:#8A8A8A;}
	.st28{fill:#636363;}
	.st29{fill:url(#SVGID_1_);}
	.st30{fill:#32829F;}
	.st31{fill:#F5F5F5;}
	.st32{opacity:0.3;fill:#FFFFFF;}
	.st33{clip-path:url(#SVGID_00000138536592313992581960000004993477941879559823_);}
	.st34{fill:#A38989;}
	.st35{fill:#3D3D3D;}
	.st36{fill:#B3B3B3;}
	.st37{fill:url(#SVGID_00000036221823961523075460000011247782670715077015_);}
	.st38{fill:url(#SVGID_00000064344442074893566130000006499567977131322041_);}
	.st39{fill:#8ADE3E;}
	.st40{fill:#FFE72E;}
	.st41{fill:#FF5900;}
	.st42{fill:#5CBCFF;}
	.st43{fill:#FFFFFF;}
	.st44{fill:#F2F2F2;}
	.st45{fill:#ADADAD;}
	.st46{fill:#E8E8E8;}
	.st47{fill:#CCCCCC;}
	.st48{fill:#61C5FF;}
	.st49{fill:#FF8880;}
	.st50{fill:#58B3E8;}
	.st51{fill:#FB897B;}
	.st52{fill:#FFCE20;}
	.st53{fill:#82B0FF;}
	.st54{fill:#67DB44;}
	.st55{fill:#FF9A45;}
	.st56{fill:#FF7066;}
	.st57{fill:#00304D;}
	.st58{fill:url(#SVGID_00000061450503330146892420000011001453971826443453_);}
	.st59{fill:url(#SVGID_00000170246775576997988990000003496379712533184421_);}
	.st60{fill:url(#SVGID_00000172408008734516237070000017169203524561192868_);}
	.st61{fill:url(#SVGID_00000138540624985305319070000017268449801104972204_);}
	.st62{fill:url(#SVGID_00000181789590237073190350000012526735783578037644_);}
	.st63{fill:url(#SVGID_00000059267395588463880390000006579368250222631059_);}
	.st64{fill:url(#SVGID_00000087382319102862154950000010049066887113704321_);}
	.st65{fill:#664437;}
	.st66{opacity:0.5;clip-path:url(#SVGID_00000017491375187979026280000015432914181897126333_);fill:#FFFFFF;}
	.st67{opacity:0.3;clip-path:url(#SVGID_00000017491375187979026280000015432914181897126333_);fill:#FFFFFF;}
</style>
<g>
	<g>
		<g>
			<g>
				<path class="st57" d="M698.9,737.9c-28.7,18.9-57.5,37.8-86.2,56.7c22.4-14.7,41.6-33.4,57.3-55.3c15.7-21.8,27.8-46.8,36-74.2
					c8.2-27.3,12.4-56.9,12.3-88.2c-0.1-31.2-4.5-64-13.6-97.7c-12.2-45.1-31.7-87.6-56.6-125.9c-24.9-38.3-55.2-72.4-88.9-100.7
					c-33.8-28.4-71.1-51-110.1-66.2c-39-15.3-79.7-23.1-120.1-21.7c-12.8,0.4-25.1,1.8-37,4c-11.9,2.2-23.4,5.2-34.4,9.1
					c-11,3.9-21.5,8.5-31.5,13.9c-10,5.4-19.5,11.6-28.4,18.4l81.9-62.8c9-6.9,18.5-13,28.5-18.5c10-5.4,20.6-10.1,31.7-13.9
					c11-3.8,22.6-6.9,34.5-9c12-2.2,24.4-3.5,37.2-3.9c40.6-1.3,81.5,6.7,120.8,22.3c39.2,15.5,76.8,38.4,110.9,67.1
					c34,28.7,64.6,63.2,89.8,101.8c25.2,38.7,45,81.6,57.4,127.1c9.3,34,13.8,67.1,14,98.5c0.2,31.5-4,61.4-12.1,88.9
					c-8.1,27.6-20.2,52.7-35.9,74.7C740.6,704.3,721.3,723.1,698.9,737.9z"/>
				<g>
					<path class="st30" d="M399.1,54.9c46.3-1.3,93,7.9,137.8,25.7c44.6,17.7,87.5,43.9,126.3,76.7c38.8,32.7,73.6,72,102.3,116.1
						c28.7,44,51.2,92.9,65.4,144.8c14.2,52,18.7,102.2,14.6,148.4c-4.1,46.5-16.9,89.1-37.2,125.7c-20.4,36.8-48.5,67.5-83,89.9
						c-34.7,22.6-76,36.7-122.7,40.2c-46.9,3.5-94.7-4.2-141-21.1c-46.5-17-91.3-43.3-132-76.8c-40.8-33.6-77.4-74.5-107.3-120.6
						c-29.9-46.1-53-97.2-66.9-151.4c-13.9-54-17.2-105.8-11.4-153c5.7-47.1,20.5-89.6,42.9-125.5c22.3-35.7,52.1-64.9,88-85.4
						C310.7,68.1,352.5,56.2,399.1,54.9z M589.8,773.7c40.8-2.9,77-15.2,107.5-34.8c30.3-19.5,55-46.3,72.9-78.5
						c17.9-32,29.2-69.3,32.8-110c3.7-40.6-0.2-84.6-12.7-130.2c-12.4-45.5-32.2-88.4-57.4-127.1c-25.2-38.7-55.7-73.1-89.8-101.8
						c-34.1-28.7-71.7-51.7-110.9-67.1c-39.3-15.5-80.2-23.5-120.8-22.3c-40.8,1.3-77.3,11.8-108.6,29.7
						c-31.4,18.1-57.4,43.7-76.8,75c-19.5,31.5-32.3,68.7-37.2,109.9c-5,41.3-2,86.5,10.2,133.7c12.2,47.3,32.4,91.9,58.5,132.1
						c26.1,40.2,58,75.9,93.6,105.3c35.5,29.3,74.7,52.3,115.3,67.3C506.9,769.8,548.7,776.6,589.8,773.7L589.8,773.7z"/>
				</g>
				<path class="st57" d="M725.5,782.2l-86.5,56.2c-8.6,5.6-17.7,10.7-27.1,15.3c-9.4,4.6-19.3,8.5-29.5,11.9
					c-10.2,3.4-20.8,6.2-31.7,8.4c-11,2.2-22.3,3.8-33.9,4.6c-46.7,3.6-94.2-3.9-140.2-20.5c-46.1-16.7-90.6-42.6-131-75.8
					c-40.4-33.2-76.7-73.7-106.2-119.3c-29.5-45.6-52.3-96.3-66-149.9c-9.3-36.4-13.7-71.9-13.7-105.6c0-33.6,4.3-65.5,12.6-95
					c8.3-29.4,20.4-56.4,36.1-80.3c15.6-23.8,34.6-44.6,56.6-61.7c2.4-1.9,5.7-4.4,8.1-6.3c1.2-0.9,2.8-2.2,4-3.1
					c2.4-1.9,5.7-4.4,8.1-6.3c2.4-1.9,5.7-4.4,8.1-6.3c1.2-0.9,2.8-2.2,4.1-3.2c2.4-1.9,5.7-4.4,8.1-6.3c2.4-1.9,5.7-4.4,8.2-6.3
					c1.2-1,2.9-2.2,4.1-3.2c2.5-1.9,5.7-4.4,8.2-6.3c2.5-1.9,5.7-4.5,8.2-6.4c1.2-1,2.9-2.2,4.1-3.2c2.5-1.9,5.8-4.5,8.2-6.4
					c-22.1,17.1-41.1,38-56.7,61.9c-15.7,24-27.8,51.2-36,80.8c-8.2,29.7-12.5,61.8-12.4,95.7c0.1,34,4.7,69.7,14.1,106.5
					c13.9,54.1,37,105.3,66.9,151.4c29.9,46.1,66.5,87,107.3,120.6c40.7,33.6,85.6,59.8,132,76.8c46.3,16.9,94.1,24.6,141,21.1
					c11.7-0.9,23.1-2.4,34.1-4.6c11-2.2,21.6-5,31.9-8.4c10.2-3.4,20.1-7.4,29.6-12C707.7,792.9,716.8,787.8,725.5,782.2z"/>
			</g>
			<g>
				<path class="st57" d="M207.1,906.3l49.3-116c9.5-22.5,48.2-27.7,87-11.7c39.2,16.2,63.7,48,54.8,71.1c-0.1,0.2-0.2,0.5-0.3,0.7
					l-49.3,116c0.1-0.2,0.2-0.5,0.3-0.7c9-23.1-15.5-54.9-54.8-71.1C255.3,878.5,216.7,883.8,207.1,906.3z"/>
				<g>
					<path class="st57" d="M343.4,778.5c-13.4-5.5-26.8-8.5-39-9.1l-48.9,116.1c12.1,0.6,25.4,3.6,38.7,9.1
						c6.2,2.6,12.1,5.5,17.5,8.8l49-116.2C355.3,783.9,349.5,781,343.4,778.5z"/>
					<path class="st65" d="M322.3,1045.5c-0.3,1.3-0.7,2.6-1.2,3.9c-0.1,0.3-0.2,0.6-0.3,0.8l2-4.7
						C322.5,1045.5,322.4,1045.5,322.3,1045.5z"/>
				</g>
				<path class="st57" d="M42,1192.8c0.4-1,0.9-2.3,1.4-3.3c14.6-34.4,73.8-42.5,133.3-18c60.1,24.8,97.7,73.5,83.9,108.9
					c-0.1,0.4-0.3,0.8-0.5,1.1c-2.5,5.2-6,12.1-8.9,17c-2,3.3-5,7.6-7.5,10.6c-3.5,4.2-8.4,9.7-12.5,13.4
					c-7.2,6.5-12.9,10.3-15.1,11.7c-4,2.5-9.4,5.7-13.6,7.6c-2.2,1-5.2,2.4-7.5,3.2c-3.4,1.3-8,2.9-11.5,3.9
					c-8.7,2.3-14.6,3.1-16.7,3.4c-10.1,1.1-13.9,1-20.9,0.8c-0.3,0-7.9-0.2-18.3-2.4c-7.3-1.5-13.1-3.5-16.5-4.8
					c-3.6-1.3-16.2-6.1-28.7-15.4c-4.9-3.6-7.9-6.1-13.9-12c-4.7-4.6-9.8-11.2-9.9-11.3c-1.3-1.7-3-4-4.2-5.8
					c-1.6-2.4-3.7-5.6-5-8.1c-1.4-2.5-5.5-10-8.3-18.1c-1.8-5.1-7.2-20.6-6.9-41.1c0.1-9.3,1.2-16.3,1.9-19.6
					c0.5-2.8,1.3-6.5,2.1-9.2C38.9,1201.5,40.5,1196.5,42,1192.8c-18.8,48.2,13.2,106.3,72.3,130.7C55.1,1299.1,23.2,1241,42,1192.8
					z"/>
				<circle class="st57" cx="127.8" cy="1242.3" r="35.9"/>
				<path class="st57" d="M43.3,1189.5l126.2-299.2c14.6-34.4,73.8-42.5,133.3-18c60.1,24.8,97.7,73.5,83.9,108.9
					c-0.1,0.4-0.3,0.8-0.5,1.1L260,1281.5c0.2-0.4,0.3-0.8,0.5-1.1c13.8-35.3-23.8-84.1-83.9-108.9
					C117.2,1147,57.9,1155.1,43.3,1189.5z"/>
				<g>
					<path class="st57" d="M203.8,1185.2L330,886c-8.4-5.1-17.5-9.7-27.2-13.7c-16.6-6.8-33.1-11.1-48.7-13
						c-0.3,0.8-0.5,1.7-0.9,2.5c-0.2,0.6-0.5,1.2-0.7,1.8l-124.4,294.9c15.5,1.9,32,6.2,48.5,13
						C186.3,1175.5,195.4,1180.1,203.8,1185.2z"/>
					<path class="st65" d="M262.1,1275.1c-0.4,1.8-0.9,3.5-1.6,5.3c-0.1,0.4-0.3,0.8-0.5,1.1l2.7-6.4
						C262.5,1275.2,262.3,1275.1,262.1,1275.1z"/>
				</g>
			</g>
			<g>
				<defs>
					<path id="SVGID_00000062151107377073222670000012973839436094201022_" d="M589.8,773.7c40.8-2.9,77-15.2,107.5-34.8
						c30.3-19.5,55-46.3,72.9-78.5c17.9-32,29.2-69.3,32.8-110c3.7-40.6-0.2-84.6-12.7-130.2c-12.4-45.5-32.2-88.4-57.4-127.1
						c-25.2-38.7-55.7-73.1-89.8-101.8c-34.1-28.7-71.7-51.7-110.9-67.1c-39.3-15.5-80.2-23.5-120.8-22.3
						c-40.8,1.3-77.3,11.8-108.6,29.7c-31.4,18.1-57.4,43.7-76.8,75c-19.5,31.5-32.3,68.7-37.2,109.9c-5,41.3-2,86.5,10.2,133.7
						c12.2,47.3,32.4,91.9,58.5,132.1c26.1,40.2,58,75.9,93.6,105.3c35.5,29.3,74.7,52.3,115.3,67.3
						C506.9,769.8,548.7,776.6,589.8,773.7L589.8,773.7z"/>
				</defs>
				<clipPath id="SVGID_00000114789105365031735060000011619301468671995292_">
					<use xlink:href="#SVGID_00000062151107377073222670000012973839436094201022_"  style="overflow:visible;"/>
				</clipPath>
				<path style="opacity:0.5;clip-path:url(#SVGID_00000114789105365031735060000011619301468671995292_);fill:#FFFFFF;" d="
					M528,799.7c40.8-2.9,77-15.2,107.5-34.8c30.3-19.5,55-46.3,72.9-78.5c17.9-32,29.2-69.3,32.8-110c3.7-40.6-0.2-84.6-12.7-130.2
					c-12.4-45.5-32.2-88.4-57.4-127.1c-25.2-38.7-55.7-73.1-89.8-101.8c-34.1-28.7-71.7-51.7-110.9-67.1
					c-39.3-15.5-80.2-23.5-120.8-22.3c-40.8,1.3-77.3,11.8-108.6,29.7c-31.4,18.1-57.4,43.7-76.8,75
					c-19.5,31.5-32.3,68.7-37.2,109.9c-5,41.3-2,86.5,10.2,133.7c12.2,47.3,32.4,91.9,58.5,132.1c26.1,40.2,58,75.9,93.6,105.3
					C325,743,364.1,766,404.7,781C445.1,795.8,486.9,802.6,528,799.7L528,799.7z"/>
				<path style="opacity:0.3;clip-path:url(#SVGID_00000114789105365031735060000011619301468671995292_);fill:#FFFFFF;" d="
					M560.5,790c40.8-2.9,77-15.2,107.5-34.8c30.3-19.5,55-46.3,72.9-78.5c17.9-32,29.2-69.3,32.8-110c3.7-40.6-0.2-84.6-12.7-130.2
					c-12.4-45.5-32.2-88.4-57.4-127.1c-25.2-38.7-55.7-73.1-89.8-101.8c-34.1-28.7-71.7-51.7-110.9-67.1
					c-39.3-15.5-80.2-23.5-120.8-22.3c-40.8,1.3-77.3,11.8-108.6,29.7c-31.4,18.1-57.4,43.7-76.8,75
					c-19.5,31.5-32.3,68.7-37.2,109.9c-5,41.3-2,86.5,10.2,133.7c12.2,47.3,32.4,91.9,58.5,132.1c26.1,40.2,58,75.9,93.6,105.3
					c35.5,29.3,74.7,52.3,115.3,67.3C477.7,786.1,519.5,792.9,560.5,790L560.5,790z"/>
			</g>
		</g>
	</g>
	<g>
		<defs>
			<path id="SVGID_00000004524891516757087690000011914442668283508405_" d="M226.2,206.6c-19.5,31.5-32.3,68.7-37.2,109.9
				c-5,41.3-2,86.5,10.2,133.7c12.2,47.3,32.4,91.9,58.5,132.1c26.1,40.2,58,75.9,93.6,105.3c35.5,29.3,74.7,52.3,115.3,67.3
				c40.4,14.9,82.2,21.7,123.3,18.8c29.4-2.1,56.4-9.1,80.6-20.1c29.2-19.4,53-45.6,70.5-76.9c17.9-32,29.2-69.3,32.8-110
				c3.7-40.6-0.2-84.6-12.7-130.2c-12.4-45.5-32.2-88.4-57.4-127.1c-25.2-38.7-55.7-73.1-89.8-101.8
				c-34.1-28.7-71.7-51.7-110.9-67.1c-39.3-15.5-80.2-23.5-120.8-22.3c-33.3,1-63.8,8.2-90.8,20.6
				C265.2,156.2,243.2,179.2,226.2,206.6z"/>
		</defs>
		<clipPath id="SVGID_00000029020867297889796860000009991812855726992298_">
			<use xlink:href="#SVGID_00000004524891516757087690000011914442668283508405_"  style="overflow:visible;"/>
		</clipPath>
	</g>
</g>
</svg>
