<?xml version="1.0" encoding="utf-8"?>
<!-- Generator: Adobe Illustrator 27.0.1, SVG Export Plug-In . SVG Version: 6.00 Build 0)  -->
<svg version="1.1" id="Õ_xBA__x2264__x201E__x5F_1"
	 xmlns="http://www.w3.org/2000/svg" xmlns:xlink="http://www.w3.org/1999/xlink" x="0px" y="0px" viewBox="0 0 1709.2 1404"
	 style="enable-background:new 0 0 1709.2 1404;" xml:space="preserve">
<style type="text/css">
	.st0{fill:#B7B7B7;}
	.st1{fill:#943530;}
	.st2{fill:#FF5C54;}
	.st3{fill:#B8423D;}
	.st4{enable-background:new    ;}
	.st5{fill:#578223;}
	.st6{fill:#B1FF59;}
	.st7{fill:#8DDB37;}
	.st8{fill:#AD902F;}
	.st9{fill:#FFD959;}
	.st10{fill:#EFC73C;}
	.st11{fill:#AD3A2F;}
	.st12{fill:#FF6959;}
	.st13{fill:#EF4E3C;}
	.st14{fill:#2F6FAD;}
	.st15{fill:#59AAFF;}
	.st16{fill:#3C90EF;}
	.st17{fill:#E6E6E6;}
	.st18{fill:#D9D9D9;}
	.st19{fill:#E5F2FF;}
	.st20{fill:#737373;}
	.st21{fill:#595959;}
	.st22{fill:#808080;}
	.st23{fill:#7E7E7E;}
	.st24{fill:#333333;}
	.st25{fill:#404040;}
	.st26{fill:#A8A8A8;}
	.st27{fill:#8A8A8A;}
	.st28{fill:#636363;}
	.st29{fill:url(#SVGID_1_);}
	.st30{fill:#32829F;}
	.st31{fill:#F5F5F5;}
	.st32{opacity:0.3;fill:#FFFFFF;}
	.st33{clip-path:url(#SVGID_00000163785378240730100410000006226020313158355846_);}
	.st34{fill:#A38989;}
	.st35{fill:#3D3D3D;}
	.st36{fill:#B3B3B3;}
	.st37{fill:url(#SVGID_00000014603642147832969210000007726375225480696464_);}
	.st38{fill:url(#SVGID_00000111185630823287642840000002934551456177890181_);}
	.st39{fill:#8ADE3E;}
	.st40{fill:#FFE72E;}
	.st41{fill:#FF5900;}
	.st42{fill:#5CBCFF;}
	.st43{fill:#FFFFFF;}
	.st44{fill:#F2F2F2;}
	.st45{fill:#ADADAD;}
	.st46{fill:#E8E8E8;}
	.st47{fill:#CCCCCC;}
	.st48{fill:#61C5FF;}
	.st49{fill:#FF8880;}
	.st50{fill:#58B3E8;}
	.st51{fill:#FB897B;}
	.st52{fill:#FFCE20;}
	.st53{fill:#82B0FF;}
	.st54{fill:#67DB44;}
	.st55{fill:#FF9A45;}
	.st56{fill:#FF7066;}
	.st57{fill:#00304D;}
	.st58{fill:url(#SVGID_00000112624311470327673540000008043694719872653719_);}
	.st59{fill:url(#SVGID_00000050664378768677433970000015765039443878840760_);}
	.st60{fill:url(#SVGID_00000094576183526517580790000000192511935496629890_);}
	.st61{fill:url(#SVGID_00000108989276168180050890000000698552917629572509_);}
	.st62{fill:url(#SVGID_00000101799206962423326290000005782853718514255529_);}
	.st63{fill:url(#SVGID_00000101783848844908772430000010020784657654521774_);}
	.st64{fill:url(#SVGID_00000127021991129971372290000001420790534261711514_);}
	.st65{fill:#664437;}
	.st66{opacity:0.5;clip-path:url(#SVGID_00000029728881766673581750000010130194436767746688_);fill:#FFFFFF;}
	.st67{opacity:0.3;clip-path:url(#SVGID_00000029728881766673581750000010130194436767746688_);fill:#FFFFFF;}
</style>
<g>
	<g>
		<g>
			<path class="st57" d="M875.6,1190.2l-118.5-175.4l124-133.5l118.5,175.4c16.3,24.2,15.5,50.6,0.1,67.2l-124,133.5
				C891.1,1240.8,891.9,1214.4,875.6,1190.2z"/>
			<g>
				<path class="st30" d="M396.3,587.9c31.6-12.3,74.8,3.7,96.4,35.5l4.3,6.3l260.1,385l118.5,175.4c21.3,31.6,13.3,67-18,79.2
					l-289.3,112.5c-31.6,12.3-74.8-3.7-96.4-35.5L89,779.5c-21.4-31.6-13.3-67,18.1-79.2L396.3,587.9z"/>
			</g>
			<path class="st57" d="M212.9,578.9c4.7-5.1,10.8-9.2,18.2-12.1l289.2-112.4c31.6-12.3,74.8,3.7,96.4,35.5l4.3,6.3L497,629.8
				l-4.3-6.3c-21.6-31.9-64.8-47.8-96.4-35.5L107.1,700.3c-7.4,2.9-13.5,7-18.2,12.1L212.9,578.9z"/>
			
				<linearGradient id="SVGID_1_" gradientUnits="userSpaceOnUse" x1="-10140.002" y1="3653.6694" x2="-10140.002" y2="3451.8374" gradientTransform="matrix(-0.8493 0.5279 0.5279 0.8493 -8981.7598 3216.6899)">
				<stop  offset="0" style="stop-color:#F1A791"/>
				<stop  offset="0.5" style="stop-color:#F2D6D1"/>
				<stop  offset="1" style="stop-color:#FFE1DC"/>
			</linearGradient>
			<path class="st29" d="M1586.6,893.2l-124,133.5c22.6-24.3,24.4-63.2-1.1-97.6c-15.6-21-38-36.5-61.9-44.5l124-133.5
				c23.9,8,46.4,23.5,61.9,44.5C1611.1,830,1609.2,868.8,1586.6,893.2z"/>
			
				<linearGradient id="SVGID_00000075126078115588112860000015201136861934783645_" gradientUnits="userSpaceOnUse" x1="-7446.3037" y1="2808.4263" x2="-7446.3037" y2="2290.3977" gradientTransform="matrix(-0.8493 0.5279 0.5279 0.8493 -7025.7788 2000.9844)">
				<stop  offset="0" style="stop-color:#F1BEAF"/>
				<stop  offset="1" style="stop-color:#FFFFFF"/>
			</linearGradient>
			<path style="fill:url(#SVGID_00000075126078115588112860000015201136861934783645_);" d="M365.5,160.9l124-133.5
				c6.8-5.4,13.8-9.9,21.4-12.8l0,0c45.2-17.6,128-4.7,194.4,47.6c69.6,54.9,127.3,115.4,218,248.2l-124,133.5
				c-90.7-132.7-148.3-193.3-218-248.2c-66.4-52.3-149.2-65.2-194.4-47.6L365.5,160.9z"/>
			
				<linearGradient id="SVGID_00000132806671094159846660000002176882924267281043_" gradientUnits="userSpaceOnUse" x1="-10194.2871" y1="3498.4873" x2="-10194.2871" y2="3281.2881" gradientTransform="matrix(-0.8493 0.5279 0.5279 0.8493 -8981.7598 3216.6899)">
				<stop  offset="0" style="stop-color:#F1A791"/>
				<stop  offset="0.5" style="stop-color:#F2D6D1"/>
				<stop  offset="1" style="stop-color:#FFE1DC"/>
			</linearGradient>
			<path style="fill:url(#SVGID_00000132806671094159846660000002176882924267281043_);" d="M1549.7,733.4l-124,133.5
				c23.3-25.1,24.5-65.3-0.5-102c-17.1-25.1-43.2-43.5-71.1-52.8l124-133.5c27.9,9.3,53.9,27.7,71.1,52.8
				C1574.3,668.1,1573.1,708.3,1549.7,733.4z"/>
			
				<linearGradient id="SVGID_00000103251226225858063080000010250134013366253468_" gradientUnits="userSpaceOnUse" x1="-10243.999" y1="3326.8528" x2="-10243.999" y2="3078.0603" gradientTransform="matrix(-0.8493 0.5279 0.5279 0.8493 -8981.7598 3216.6899)">
				<stop  offset="0" style="stop-color:#F1A791"/>
				<stop  offset="0.5" style="stop-color:#F2D6D1"/>
				<stop  offset="1" style="stop-color:#FFE1DC"/>
			</linearGradient>
			<path style="fill:url(#SVGID_00000103251226225858063080000010250134013366253468_);" d="M1499.3,562.6l-124,133.5
				c25.4-27.4,26.7-71.2-0.6-111.2c-23.2-34-61.4-56.8-99.5-63.1l124-133.5c38.1,6.3,76.2,29.1,99.5,63.1
				C1526,491.5,1524.7,535.3,1499.3,562.6z"/>
			<g>
				
					<linearGradient id="SVGID_00000173857984695541865880000009850549423546434691_" gradientUnits="userSpaceOnUse" x1="-10017.957" y1="2868.1672" x2="-10017.957" y2="2760.5457" gradientTransform="matrix(-0.8493 0.5279 0.5279 0.8493 -8981.7598 3216.6899)">
					<stop  offset="0" style="stop-color:#F8DFD7"/>
					<stop  offset="1" style="stop-color:#FBF1EF"/>
				</linearGradient>
				<polygon style="fill:url(#SVGID_00000173857984695541865880000009850549423546434691_);" points="799.2,443.9 923.3,310.4 
					1225.1,193 1101.1,326.5 				"/>
			</g>
			
				<linearGradient id="SVGID_00000028307991769439535920000006108340487791295909_" gradientUnits="userSpaceOnUse" x1="-10237.4414" y1="3123.8647" x2="-10237.4414" y2="2820.2234" gradientTransform="matrix(-0.8493 0.5279 0.5279 0.8493 -8981.7598 3216.6899)">
				<stop  offset="0" style="stop-color:#F1A791"/>
				<stop  offset="0.5" style="stop-color:#F2D6D1"/>
				<stop  offset="1" style="stop-color:#FFE1DC"/>
			</linearGradient>
			<path style="fill:url(#SVGID_00000028307991769439535920000006108340487791295909_);" d="M1407,381l-124,133.5
				c29.5-31.8,30.2-83.2-3.9-129.3c-41.6-56.3-121.1-80.8-177.9-58.7l124-133.5c56.9-22.1,136.3,2.4,177.9,58.7
				C1437.2,297.8,1436.5,349.3,1407,381z"/>
			
				<linearGradient id="SVGID_00000117678686517817753980000004624207529644851601_" gradientUnits="userSpaceOnUse" x1="-9812.9326" y1="3656.0459" x2="-9812.9326" y2="2338.3003" gradientTransform="matrix(-0.8493 0.5279 0.5279 0.8493 -8981.7598 3216.6899)">
				<stop  offset="0" style="stop-color:#BC755F"/>
				<stop  offset="1" style="stop-color:#E5A07B"/>
			</linearGradient>
			<path style="fill:url(#SVGID_00000117678686517817753980000004624207529644851601_);" d="M386.9,148.1
				c45.2-17.6,128-4.7,194.4,47.6c69.6,54.9,127.3,115.4,218,248.2l301.9-117.4c56.9-22.1,136.3,2.4,177.9,58.7
				c36.9,49.8,33.1,105.9-3.8,136.6c38.1,6.3,76.2,29.1,99.5,63.1c33.6,49.2,23.9,104.1-20.6,127.2c27.9,9.3,53.9,27.7,71.1,52.8
				c32.4,47.5,20.9,100.7-25.6,119.7c23.9,8,46.4,23.5,61.9,44.5c33.4,45,19.9,97.7-25.6,115.4l-345.4,134.3
				c-103.7,40.3-193.2,7.4-229.7-10.5l-103.8-153.6L497,629.8c69.4-88.8,38.7-193.9-52.2-324.9c-29.1-41.9-81.5-68.7-89.6-102.8
				C348.9,176.1,362.4,157.6,386.9,148.1z"/>
		</g>
	</g>
	<g>
		<defs>
			<path id="SVGID_00000131350522059350435860000011707314238380210872_" d="M1461.5,929.1c-15.6-21-38-36.5-61.9-44.5
				c46.5-19,58-72.3,25.6-119.7c-17.1-25.1-43.2-43.5-71.1-52.8c44.5-23.1,54.2-78,20.6-127.2c-23.2-34-61.4-56.8-99.5-63.1
				c36.9-30.7,40.7-86.8,3.8-136.6c-41.6-56.3-121.1-80.8-177.9-58.7L799.2,443.9c-90.7-132.7-148.3-193.3-218-248.2
				c-66.4-52.3-149.2-65.2-194.4-47.6c-24.5,9.5-38,28-31.7,54c8.2,34.1,60.6,60.9,89.6,102.8c90.9,131,121.6,236.1,52.2,324.9
				l-4.3-6.3c-21.6-31.9-64.8-47.8-96.4-35.5L107.1,700.3c-31.4,12.2-39.5,47.6-18.1,79.2l383,566.8c21.6,31.9,64.8,47.8,96.4,35.5
				l289.3-112.5c31.3-12.2,39.3-47.6,18-79.2l-118.5-175.4l103.8,153.6c36.6,17.8,126.1,50.8,229.7,10.5l345.4-134.3
				C1481.5,1026.8,1494.9,974.1,1461.5,929.1z"/>
		</defs>
		<clipPath id="SVGID_00000163058352323376424540000013844832787081669005_">
			<use xlink:href="#SVGID_00000131350522059350435860000011707314238380210872_"  style="overflow:visible;"/>
		</clipPath>
	</g>
</g>
</svg>
