<?xml version="1.0" encoding="UTF-8"?><svg id="a" xmlns="http://www.w3.org/2000/svg" viewBox="0 0 417.94 490.51"><g id="b" opacity=".6"><path id="c" d="M231.93,91.09c54.17,31.42,96.71,80.13,137.91,127.49,17.58,20.23,37.65,43.17,44.98,73.85,4.29,17.67,4.14,37.28-.27,58.04-8.15,37.69-27.83,71.86-56.18,98.02-28.16,25.85-61.98,40.78-95.46,41.89-23.99.8-47.9-2.21-70.94-8.95-45.98-13.58-90.43-41.72-135.83-86.14C31.31,371.01,2.48,337.35.16,291.8c-2.17-41.15,17.41-84.32,35.98-121.56,16.41-32.96,36.5-69.85,67.58-89.19,39.99-24.94,83.62-12.68,113.13,2.15,5.28,2.43,10.27,5.06,15.07,7.9M136.02,453.78c17.96,10.51,37.05,18.88,56.96,24.82,22.73,6.65,46.35,9.67,69.93,8.88,67.46-2.44,132.79-62.84,148.81-137.62,4.42-20.66,4.5-39.27.32-56.74-7.2-29.98-26.96-52.63-44.33-72.57-40.99-47.07-83.32-95.69-137.19-126.82-4.8-2.84-9.79-5.48-14.77-7.91-28.9-14.45-71.42-26.54-110.34-2.24-30.49,19.02-50.29,55.4-66.51,88.06C20.51,208.38,1.12,251.14,3.26,291.59c2.28,44.55,30.59,77.63,55.1,101.53,26.06,25.55,51.74,45.61,77.66,60.66" fill="#93bbad" stroke-width="0"/><g id="d"><path id="e" d="M357.62,94.72c19.29,59.59,18.24,124.26,17.22,186.93-.41,26.83-.9,57.26-15.99,84.98-8.67,16-21.8,30.44-38.99,43.02-31.27,22.45-68.78,34.8-107.29,35.28-38.21.37-73.31-11.27-98.94-32.73-18.32-15.4-34.14-33.69-46.72-54.08-25.17-40.89-39.26-91.55-43.36-154.85-2.25-34.64-1.02-79.01,27.62-114.38,25.95-31.98,69.34-51.03,108.06-66.22C193.49,9.12,233.05-4.8,269.18,1.61c46.5,8.26,70.59,46.58,82.71,77.3,2.17,5.13,4.05,10.47,5.73,15.82M43.66,300.06c6.26,19.8,14.89,38.73,25.69,56.48,12.47,20.1,27.98,38.19,46.2,53.4,51.67,43.41,140.68,42.25,202.62-2.73,17.1-12.37,29.65-26.2,38.23-41.99,14.71-27.1,15.11-57.13,15.53-83.66,1.03-62.47,2.09-126.84-17.09-186.04-1.68-5.35-3.55-10.59-5.63-15.72-11.8-30.02-35.36-67.46-80.45-75.47-35.33-6.23-74.49,7.48-108.37,20.91-38.32,15.18-81.32,33.92-106.89,65.38-28.07,34.65-29.22,78.21-26.98,112.36,2.31,36.44,7.98,68.57,17.13,97.08" fill="#93bbad" stroke-width="0"/></g></g></svg>