<?xml version="1.0" encoding="utf-8"?>
<!-- Generator: Adobe Illustrator 27.5.0, SVG Export Plug-In . SVG Version: 6.00 Build 0)  -->
<svg version="1.1" id="Layer_1" xmlns="http://www.w3.org/2000/svg" xmlns:xlink="http://www.w3.org/1999/xlink" x="0px" y="0px"
	 viewBox="0 0 72 72" style="enable-background:new 0 0 72 72;" xml:space="preserve">
<style type="text/css">
	.st0{fill:#F5EDF5;}
	.st1{enable-background:new    ;}
	.st2{fill:#7D4A9D;}
</style>
<rect x="-0.3" y="-0.4" class="st0" width="72.6" height="72.8"/>
<g class="st1">
	<path class="st2" d="M44.8,44.8c0,0.7-0.6,1.2-1.2,1.2h-15c-0.7,0-1.2-0.6-1.2-1.2c0-3.8,3.1-6.9,6.9-6.9h3.8
		C41.7,37.9,44.8,41,44.8,44.8z M42.8,44.2c-0.3-2.5-2.4-4.4-5-4.4h-3.8c-2.5,0-4.7,1.9-5,4.4H42.8z M31,31.1c0-2.8,2.2-5,5-5
		s5,2.2,5,5s-2.2,5-5,5C33.2,36.1,31,33.8,31,31.1z M32.9,31.1c0,1.7,1.4,3.1,3.1,3.1s3.1-1.4,3.1-3.1s-1.4-3.1-3.1-3.1
		C34.3,27.9,32.9,29.3,32.9,31.1z"/>
</g>
</svg>
