<?xml version="1.0" encoding="utf-8"?>
<!-- Generator: Adobe Illustrator 27.0.1, SVG Export Plug-In . SVG Version: 6.00 Build 0)  -->
<svg version="1.1" id="Layer_1" xmlns="http://www.w3.org/2000/svg" xmlns:xlink="http://www.w3.org/1999/xlink" x="0px" y="0px"
	 viewBox="0 0 72 72" style="enable-background:new 0 0 72 72;" xml:space="preserve">
<style type="text/css">
	.st0{fill:none;stroke:#DBA2D0;stroke-width:2.6695;stroke-linejoin:round;stroke-miterlimit:10;}
	.st1{fill:none;stroke:#DBA2D0;stroke-width:2.6695;stroke-linecap:round;stroke-linejoin:round;stroke-miterlimit:10;}
</style>
<g>
	<path class="st0" d="M9.4,21.8V13c0-2.1,1.7-3.8,3.8-3.8h53c2.1,0,3.8,1.7,3.8,3.8v53c0,2.1-1.7,3.8-3.8,3.8h-53
		c-2.1,0-3.8-1.7-3.8-3.8v-3.3"/>
	<g>
		<path class="st1" d="M26.8,16.2c-3.9,0-7-3.1-7-7s3.1-7,7-7s7,3.1,7,7"/>
		<path class="st1" d="M52.6,16.2c-3.9,0-7-3.1-7-7s3.1-7,7-7s7,3.1,7,7"/>
	</g>
	<g>
		<path class="st1" d="M9.4,21.8L1.3,58.9c-0.4,2,0.9,3.7,3,3.7h53c2.1,0,4.1-1.7,4.6-3.7L70,21.8"/>
		<g>
			<polygon class="st1" points="12.4,54.4 52.8,54.4 58.1,30 17.7,30 			"/>
			<line class="st0" x1="42.7" y1="54.4" x2="48" y2="30"/>
			<line class="st0" x1="32.6" y1="54.4" x2="37.9" y2="30"/>
			<line class="st0" x1="22.5" y1="54.4" x2="27.8" y2="30"/>
			<line class="st0" x1="16" y1="38.1" x2="56.3" y2="38.1"/>
			<line class="st0" x1="14.2" y1="46.3" x2="54.5" y2="46.3"/>
		</g>
	</g>
	<line class="st0" x1="70" y1="21.8" x2="9.4" y2="21.8"/>
</g>
</svg>
