<?xml version="1.0" encoding="utf-8"?>
<!-- Generator: Adobe Illustrator 27.5.0, SVG Export Plug-In . SVG Version: 6.00 Build 0)  -->
<svg version="1.1" id="Layer_1" xmlns="http://www.w3.org/2000/svg" xmlns:xlink="http://www.w3.org/1999/xlink" x="0px" y="0px"
	 viewBox="0 0 72 51" style="enable-background:new 0 0 72 51;" xml:space="preserve">
<style type="text/css">
	.st0{fill:none;stroke:#3F3F42;stroke-width:2.0576;stroke-linecap:round;stroke-linejoin:round;stroke-miterlimit:10;}
</style>
<g>
	<path class="st0" d="M19.4,23.4h-1.1c-4.9,0-8.9-4-8.9-8.9v-3.7c0-4.9,4-8.9,8.9-8.9h1.1c4.9,0,8.9,4,8.9,8.9v3.7
		C28.4,19.4,24.4,23.4,19.4,23.4z"/>
	<polyline class="st0" points="34.8,30.3 38.3,20.5 71.2,20.5 63.4,43.8 54.2,43.8 	"/>
	<g>
		<line class="st0" x1="70.8" y1="50" x2="17.5" y2="50"/>
	</g>
	<path class="st0" d="M1,49.4L2.6,35c1.3-6.3,4.1-10.9,10.6-10.9H17c2.6,0,5.2,1.2,6.9,3.2l11.6,13.5l11.3-0.1v2.4
		c0,3.7-3,6.8-6.8,6.8H29.1L17.5,36.1"/>
</g>
</svg>
