<?xml version="1.0" encoding="utf-8"?>
<!-- Generator: Adobe Illustrator 28.2.0, SVG Export Plug-In . SVG Version: 6.00 Build 0)  -->
<svg version="1.1" id="a" xmlns="http://www.w3.org/2000/svg" xmlns:xlink="http://www.w3.org/1999/xlink" x="0px" y="0px"
	 viewBox="0 0 336.6 378" style="enable-background:new 0 0 336.6 378;" xml:space="preserve">
<style type="text/css">
	.st0{fill:#C8847F;}
	.st1{opacity:0.5;}
	.st2{fill:#EAF1EF;}
</style>
<path class="st0" d="M161,11C115.5,23.5,116.9-4,59,5.9C12,14-1,52.1,7,125.9S-10,338,8,353.4c18,15.4,93,12.3,156,10.2
	c63-2,91,28.7,127,5.1c36-23.6,46-90.2,34-145.5S397-54,161,11z"/>
<g class="st1">
	<g>
		<path id="e" class="st2" d="M111.1,364.2c-16.1-6.1-30.9-15.2-44-26.9C45,317.1,27.4,291,15.4,260.5c-9.4-24.2-18-60.7-6.3-97.3
			c11.2-34.9,25.5-61.8,43.7-82.5C68.3,63.2,84,53.2,97.5,45.3C127.3,27.8,159,10.8,188.7,5c34.7-6.8,60.4,2.8,78.4,29.4
			c17.6,26.1,70.9,139.8,68.1,184.8c-2.5,39.4-19.6,79-45.7,105.9c-21.7,22.3-48.9,36.8-83.1,44.3c-24.6,5.5-49,6-72.3,1.4
			C126.2,369.2,118.6,367,111.1,364.2 M233.5,9.9c-12.8-4.9-27.7-5.6-44.8-2.2c-29.4,5.8-60.9,22.7-90.5,40.1
			c-29.6,17.3-63.1,42-87,116.1c-11.5,35.6-2.9,71.4,6.2,95.2c11.9,30.2,29.4,56,51.2,75.9c35.9,32,84.7,43.3,137.6,31.7
			c33.8-7.4,60.6-21.7,81.9-43.6c25.6-26.4,42.3-65.1,44.8-103.7c1.2-18.7-8-53.4-25.9-97.5c-15.5-38.4-33.1-72.8-41.8-85.6
			C256.6,23.4,246,14.7,233.5,9.9"/>
	</g>
</g>
</svg>
