<?xml version="1.0" encoding="utf-8"?>
<!-- Generator: Adobe Illustrator 28.2.0, SVG Export Plug-In . SVG Version: 6.00 Build 0)  -->
<svg version="1.1" id="a" xmlns="http://www.w3.org/2000/svg" xmlns:xlink="http://www.w3.org/1999/xlink" x="0px" y="0px"
	 viewBox="0 0 339.7 382.7" style="enable-background:new 0 0 339.7 382.7;" xml:space="preserve">
<style type="text/css">
	.st0{clip-path:url(#SVGID_00000057830023682723201420000005799427365973754272_);}
	.st1{fill:#FFFFFF;}
	.st2{clip-path:url(#SVGID_00000139252222276049153290000004416437277142271377_);}
	.st3{clip-path:url(#SVGID_00000036941411555417119610000017354139218348547975_);}
</style>
<g id="b">
	<g>
		<defs>
			<path id="SVGID_1_" d="M5.2,229.7L-34.3,292c-0.5,0.8-0.8,1.8-0.8,2.8v0.2c0,3,2.5,5.4,5.5,5.4h78.5c3,0,5.5-2.4,5.5-5.4
				c0-1-0.3-2-0.8-2.9l-38.9-62.4c-1.6-2.6-4.9-3.3-7.5-1.8C6.3,228.4,5.7,229,5.2,229.7"/>
		</defs>
		<clipPath id="SVGID_00000077316613530335255520000017717942922815930248_">
			<use xlink:href="#SVGID_1_"  style="overflow:visible;"/>
		</clipPath>
		<g style="clip-path:url(#SVGID_00000077316613530335255520000017717942922815930248_);">
			<g id="d">
				
					<rect id="e" x="-47.8" y="208.5" transform="matrix(0.8436 -0.537 0.537 0.8436 -140.0509 46.737)" class="st1" width="116" height="110.6"/>
			</g>
		</g>
	</g>
</g>
<g id="f">
	<g>
		<defs>
			<path id="SVGID_00000078756545549358820120000016990731281735161526_" d="M32.5,45.9l-47.2,74.4c-1.1,1.8-1.1,4,0,5.8
				l157.7,253.1c1,1.6,2.7,2.6,4.6,2.6h93.6c3,0,5.4-2.4,5.5-5.5c0-1-0.3-2-0.8-2.9L41.7,45.9c-1.6-2.6-4.9-3.3-7.5-1.8
				C33.5,44.6,32.9,45.2,32.5,45.9"/>
		</defs>
		<clipPath id="SVGID_00000142174889859371302950000001908998533762238593_">
			<use xlink:href="#SVGID_00000078756545549358820120000016990731281735161526_"  style="overflow:visible;"/>
		</clipPath>
		<g style="clip-path:url(#SVGID_00000142174889859371302950000001908998533762238593_);">
			<g id="h">
				
					<rect id="i" x="-86.1" y="-1.1" transform="matrix(0.8436 -0.537 0.537 0.8436 -95.9795 95.5943)" class="st1" width="404.4" height="427.2"/>
			</g>
		</g>
	</g>
</g>
<g id="j">
	<g>
		<defs>
			<path id="SVGID_00000070095808626169372520000013880255572450812804_" d="M148.5,5l-47.2,74.4c-1.1,1.8-1.1,4,0,5.8L235,300
				c1,1.6,2.8,2.6,4.6,2.6h93.6c3,0,5.5-2.4,5.5-5.4c0-1-0.3-2-0.8-2.9L157.7,5.1c-1.6-2.6-4.9-3.3-7.5-1.8
				C149.5,3.8,148.9,4.3,148.5,5"/>
		</defs>
		<clipPath id="SVGID_00000078728245524267739810000015195688038299324344_">
			<use xlink:href="#SVGID_00000070095808626169372520000013880255572450812804_"  style="overflow:visible;"/>
		</clipPath>
		<g style="clip-path:url(#SVGID_00000078728245524267739810000015195688038299324344_);">
			<g id="l">
				
					<rect id="m" x="38.3" y="-38.5" transform="matrix(0.8437 -0.5369 0.5369 0.8437 -47.5175 142.086)" class="st1" width="363.8" height="382.2"/>
			</g>
		</g>
	</g>
</g>
</svg>
