<?xml version="1.0" encoding="utf-8"?>
<!-- Generator: Adobe Illustrator 28.3.0, SVG Export Plug-In . SVG Version: 6.00 Build 0)  -->
<svg version="1.1" id="a" xmlns="http://www.w3.org/2000/svg" xmlns:xlink="http://www.w3.org/1999/xlink" x="0px" y="0px"
	 viewBox="0 0 245.9 57" style="enable-background:new 0 0 245.9 57;" xml:space="preserve">
<style type="text/css">
	.st0{clip-path:url(#SVGID_00000121970907203566013170000017172087932123865251_);}
	.st1{fill:#FAA73D;}
</style>
<g>
	<defs>
		<rect id="SVGID_1_" x="3.4" y="2" width="239.4" height="53.2"/>
	</defs>
	<clipPath id="SVGID_00000154424288030548951940000001348470620516170405_">
		<use xlink:href="#SVGID_1_"  style="overflow:visible;"/>
	</clipPath>
	<g id="Group_1952" style="clip-path:url(#SVGID_00000154424288030548951940000001348470620516170405_);">
		<path id="Path_228" class="st1" d="M231,20.4l-7.4-0.7c-1.8-0.1-3.5,0.1-5.2,0.7c-1.6,0.4-3.2,0.6-4.8,0.4
			c-2.6-0.4-5.3-0.1-7.8,0.9c-0.8,0.3-1.7,0.4-2.6,0.3c-4.4-0.4-8.8-0.2-13.1,0.7c-1.1,0.2-2.2,0.1-3.4,0c-2-0.3-4.1,0-6,0.8
			c-1.1,0.4-2.2,0.5-3.4,0.4c-2-0.1-4-0.3-5.9-0.4c-1.1-0.2-2.3-0.1-3.4,0.3c-2.1,0.9-4.4,1.2-6.7,0.8c-2.4-0.5-4.9-0.2-7.1,0.9
			c-0.2,0.1-0.5,0.2-0.7,0.2c-3.8-0.1-7.6,0.4-11.2,1.4c-1.8,0.1-3.5,0.5-5.2,1.1c-0.5,0.2-1,0.4-1.5,0.4c-3.8,0.5-7.6,1.4-11.2,2.7
			c-0.9,0.2-1.7,0.3-2.6,0.4c-1.5,0.3-3,0.6-4.5,0.9c-0.5,0.1-1,0.6-1.5,0.5c-3.7-0.7-7.5,1.2-11.2,1.6c-2.2,0.4-4.3,0.9-6.4,1.5
			c-3.4,0.9-11.1,3-11.6,3c-5.5,0.9-10.9,2.3-16.1,4.2c-0.9,0.3-1.7,0.4-2.6,0.7c-1.5,0.4-16.4,3.7-17.6,4c-0.6,0.3-1.2,0.5-1.9,0.6
			c-4.1,0.5-8.1,1.5-12,3c-0.6,0.2-1.2,0.3-1.9,0.3c-2.2-0.2-4.4,0.2-6.4,1.1c-0.7,0.3-1.5,0.4-2.2,0.3c-2-0.1-4.1,0.2-6,1
			c-1.5,0.4-3,0.4-4.5,0.2c-1.9-0.3-3.8-0.2-5.6,0.3c-2.1,0.9-3.9-0.9-5.7-2.8C4,51.8,3.8,51.4,3.6,51c-0.4-1.6-0.4-3.2,0.2-4.7
			c0.3-0.5,0.7-1.1,1.1-1.3c3-1.9,6.3-3.3,9.7-4.3c4.2-1,8.3-2.3,12.3-3.8c3.2-1.2,6.4-2.1,9.7-2.7c2.3-0.5,4.6-1.3,6.7-2.2
			c1.2-0.4,2.5-0.6,3.7-0.9c1.1-0.3,9.1-2.2,10.5-2.5c0.7-0.3,1.5-0.5,2.2-0.6c2-0.1,4.1-0.5,6-1.1c3.2-1,6.5-1.3,9.7-2
			c2.9-0.6,5.7-1.5,8.6-2.2c0.6-0.2,1.3-0.8,1.9-0.7c3.5,0.4,7-1.3,10.5-1.7c0.5,0,1,0,1.5-0.2c2.1-0.7,4.2-1.2,6.4-1.5
			c2.4-0.7,4.9-1.2,7.5-1.5c0.1,0,0.2-0.5,0.3-0.7c-0.1-0.2-0.2-0.7-0.3-0.7c-2.7-0.7-5.5-0.6-8.2,0.1c-4,1-8.2,1.7-12.3,1.9
			c-2-0.2-4.1,0.2-6,0.9c-0.3,0.2-0.7,0.3-1.1,0.3c-3.4-0.1-6.8,0.4-10.1,1.5c-1.5,0.4-3,0.7-4.5,1c-0.7,0.2-5.2,1.2-6.7,1.5
			c-0.5,0.2-1,0.3-1.5,0.4c-4.4,0-8.7,2.2-13.1,2.9c-5,0.7-10,3.2-15,3.9c-2.3,0.6-4.6,1.5-6.7,2.6c-1,0.4-2,0.9-2.9,0
			c-0.1-0.2-0.2-0.5-0.2-0.7c0-0.3,0-0.7,0.2-1c1.2-1.8,3.1-3,5.1-3.6c3.9-1.5,18.1-6.2,21.3-7.3c4.4-1.4,8.7-2.4,13.1-3.5
			c5.6-0.9,11.1-2.3,16.5-3.9c1.6-0.4,3.2-0.5,4.8-0.3c2.1-0.1,4.3-0.3,6.3-0.8c3.8-0.8,7.7-1.4,11.6-1.8c1.9,0,3.8-0.3,5.6-0.9
			c1.4-0.4,3-0.6,4.5-0.4c2.4,0.2,4.8,0,7.1-0.8c1.6-0.4,3.2-0.5,4.8-0.2c3,0.5,6.1,0.2,9-0.8c1.1-0.4,2.2-0.4,3.4-0.2
			c2.5,0.2,4.9,0.5,7.4,0.6c1.4,0.1,2.8-0.1,4.1-0.6c1.5-0.6,3.2-0.8,4.8-0.6c4.1,0.4,8.2,0.8,12.3,1.1c1.4,0.2,2.8,0.1,4.1-0.4
			c2-0.8,4.2-1,6.3-0.7c2.2,0.2,4.5,0.4,6.7,0.6c1.8,0.2,3.6-0.1,5.2-0.7c1.4-0.4,3-0.6,4.5-0.5c2.1,0.2,4.3-0.1,6.3-0.8
			c1.6-0.5,3.2-0.6,4.9-0.3c2.5,0.3,5.1,0,7.5-0.8c1.6-0.4,3.2-0.5,4.9-0.2c3,0.2,6,0,8.9-0.7c3.5-1.4,7.4-0.4,9.9,2.5
			c0.3,0.4,0.9,0.5,1.4,0.2c0,0,0.1,0,0.1-0.1c1-0.9,2.4-0.8,3.3,0.2c2.8,2.3,3.2,3.6,3.4,12.6c0,1.2-0.5,3-1,3
			c-0.7,0.2-1.5,0.2-2.2,0.2C236.7,21,233.8,20.7,231,20.4 M181.3,13.1v0.2c-1.5-0.1-3-0.4-4.5-0.4c-4.5,0-9,1.8-13.4,1.3
			c-2.3,1.2-4.9,1.5-7.5,1c-0.8-0.1-1.5,0-2.2,0.3c-1.9,0.8-3.9,1.3-6,1.4c-0.1,0-0.2,0.5-0.3,0.7c0.1,0.2,0.2,0.7,0.3,0.7
			c2.1,0.8,4.5,0.8,6.7,0c1.7-0.7,3.4-0.9,5.2-0.8c1.4,0.2,2.8,0.1,4.1-0.3c2.2-0.8,4.4-1,6.7-0.8c1.9,0.2,3.8,0.1,5.6-0.4
			c1.9-0.6,4-0.8,6-0.7c2,0.1,4,0.1,6,0.2c0.1,0,0.2-0.4,0.3-0.7c-0.1-0.2-0.2-0.7-0.3-0.7C185.8,13.8,183.6,13.5,181.3,13.1
			 M233.1,10.7c0.2-0.4,0.2-0.6-0.1-0.7c-0.1-0.1-0.2-0.3-0.3-0.4c-4.3-0.4-8.6-0.9-12.9-1.2c-0.9,0-1.8,0.2-2.6,0.6
			c-1.5,0.6-3.2,0.9-4.8,0.6c-1.7-0.1-3.5-0.1-5.2-0.2c-0.1,0-0.2,0.3-0.3,0.5c0.1,0.4,0.2,1.1,0.4,1.1c5.7,0.6,11.3,1.1,17,1.6
			c0.3,0,0.5,0,0.7-0.1c2.5-1,5.1-1.5,7.8-1.4C232.9,11.2,233,10.9,233.1,10.7 M140.4,20.3c0.7-0.1,1.2-0.1,1.7-0.2
			c0.2-0.1,0.3-0.3,0.3-0.5c0.1-0.6,0-1.1-0.3-1.2c-1.1-0.1-2.2-0.2-3.3-0.2c-0.1,0-0.2,0.3-0.3,0.4c-0.3,0.3-0.3,0.6,0,0.8
			C139.2,19.8,140,20.1,140.4,20.3 M119.3,15.9c0.6-0.1,1.1-0.1,1.5-0.2c0.1,0,0.2-0.3,0.3-0.5c-0.1-0.4-0.3-1-0.4-1
			c-0.7-0.1-1.4,0-2.2,0.1c-0.1,0.2-0.1,0.5-0.2,0.7L119.3,15.9z M131,21.4c0.2,0,0.5,0.1,0.7-0.1c0.2-0.3,0.4-0.6,0.5-1
			c-0.1-0.2-0.2-0.5-0.3-0.5c-0.4-0.2-0.9-0.2-1.4-0.2c-0.1,0-0.3,0.6-0.5,1c0.1,0.2,0.2,0.5,0.3,0.5
			C130.6,21.2,130.8,21.3,131,21.4 M49.1,42.1c0.5,0,0.7,0.2,0.9,0.1c0.2-0.1,0.4-0.5,0.6-0.7c-0.1-0.4-0.3-0.7-0.5-1
			c-0.1-0.1-0.2-0.1-0.3-0.1c-0.1,0-0.2-0.1-0.3,0c-0.3,0.2-0.7,0.5-1,0.8L49.1,42.1z M20.5,48.2c0.3-0.1,0.7,0.3,0.8-1
			c0-1-1.1-1.2-1.5-0.2c0,0.3,0,0.5,0,0.8C20.1,47.9,20.3,48,20.5,48.2 M56.7,38.8c-0.2,0.2-0.5,0.3-0.7,0.6c-0.2,0.4-0.1,0.8,0.3,1
			c0.1,0.1,0.3,0.1,0.5,0.1c0.3-0.1,0.6-0.3,0.7-0.6c0.2-0.4,0-0.9-0.4-1.1C57,38.9,56.9,38.8,56.7,38.8 M43.6,42.1
			c-0.2,0-0.5-0.2-0.7,0c-0.2,0.1-0.4,0.6-0.6,0.8c0.1,0.3,0.3,0.6,0.6,0.8c0.2,0.1,0.5,0.1,0.7,0c0.2-0.1,0.3-0.2,0.3-0.4
			C44,42.6,43.9,42.2,43.6,42.1 M27.8,44.9c-0.2,0-0.5-0.2-0.7,0c-0.2,0.3-0.4,0.5-0.6,0.8c0.1,0.3,0.3,0.6,0.6,0.8
			c0.2,0.1,0.5,0.1,0.7,0c0.2-0.1,0.3-0.2,0.3-0.4C28.2,45.5,28.1,45.1,27.8,44.9 M33.4,45.1c0.1,0,0.2,0,0.3-0.1
			c0.3-0.1,0.5-0.5,0.4-1.2c0-0.2-0.1-0.4-0.3-0.5c-0.1-0.1-0.2-0.2-0.3-0.1c-0.3,0.2-0.7,0.5-1,0.7C32.8,45.1,33.1,45,33.4,45.1
			 M14.9,48.5c-0.1-0.1-0.2-0.3-0.3-0.3c-0.4,0.3-0.4,0.8-0.1,1.2c0,0,0,0,0,0c0.1,0.1,0.2,0.1,0.3-0.1
			C14.8,49.1,14.9,48.8,14.9,48.5"/>
	</g>
</g>
</svg>
