<?xml version="1.0" encoding="utf-8"?>
<!-- Generator: Adobe Illustrator 28.2.0, SVG Export Plug-In . SVG Version: 6.00 Build 0)  -->
<svg version="1.1" id="a" xmlns="http://www.w3.org/2000/svg" xmlns:xlink="http://www.w3.org/1999/xlink" x="0px" y="0px"
	 viewBox="0 0 327.7 319.5" style="enable-background:new 0 0 327.7 319.5;" xml:space="preserve">
<style type="text/css">
	.st0{fill:#FFFFFF;}
</style>
<g>
	<g id="Group_1954">
		<path id="Path_229" class="st0" d="M0,307.6c0.7-0.5,1.4-0.8,2.3-0.8c5.1-0.8,10.3-1.5,15.5-2c6.2-0.5,12.5-0.6,18.7-0.3
			c4.6,0.2,9.2,0.6,13.8,1.2c7.1,0.9,14.1,1.9,21.1,2.9c6.2,0.9,12.5,2,18.7,2.9c4.9,0.7,9.7,1.4,14.6,2c4.8,0.6,9.6,1.2,14.4,1.6
			c9.6,1,19.2,1.3,28.8,0.9c12.2-0.5,24.4-2.4,36.2-5.7c5.3-1.5,10.5-3.4,15.4-5.9c11.2-5.4,20.5-14.2,26.8-25
			c6.1-10.5,10.4-21.9,12.7-33.9c1.4-7.4,2.3-14.9,2.7-22.4c0.4-6.5,0.4-13,0.3-19.4c-0.1-3.1-0.3-6.1-0.5-9.2
			c0-0.7-0.2-1.3-0.3-1.9c-0.6-0.3-0.9,0-1.3,0.2c-9.8,5-20.3,8.7-31.1,10.9c-8.4,1.8-16.9,3.2-25.4,4.2c-7,0.8-14,1.6-20.9,2.6
			c-13.6,1.8-26.9,5.2-39.7,10.3c-2.6,1.1-5.2,2.3-7.8,3.6c-1,0.5-2,1.2-2.9,2c-6.4,5.4-12.6,10.9-19,16.3
			c-9,7.6-18.9,14.1-29.4,19.5c-6.9,3.5-14.1,6.2-21.6,8.1c-6.5,1.6-13.2,2.3-19.9,2c-7-0.4-14-1.7-20.6-4.1
			c-0.5-0.2-1.1-0.5-1.5-0.8l0-3.1c1.7,0.5,3.3,1,5,1.6c11,3.5,22.6,4.1,33.8,1.7c6.8-1.5,13.4-3.7,19.8-6.6
			c11.3-5.1,21.5-12.1,31.2-19.8c0.3-0.3,0.6-0.6,0.8-1c0.4,0,0.8-0.3,0.9-0.7c-0.4-0.1-0.9,0.2-0.9,0.7c-0.9,0-1.4,0.7-2.1,1.1
			c-6.7,4.4-13.5,8.6-20.5,12.6c-4.8,2.8-9.9,5.2-15.1,7.1c-7.9,3.1-16.4,4.6-24.9,4.5c-5.7-0.1-11.4-0.7-17-1.8
			c-3.7-0.7-7.4-1.7-11-3l0-3.1c0.9-0.1,1.8,0.1,2.6,0.5c6.9,2.1,14,3.4,21.2,3.9c10,0.8,20-0.8,29.3-4.6c4.8-1.9,9.4-4.1,13.9-6.7
			c8-4.7,15.9-9.6,23.6-14.8c6.6-4.5,13.3-9,20.3-12.9c0.7-0.4,1.3-0.9,1.9-1.4c3.2-2.7,6.2-5.4,9.5-8
			c14.1-11.5,30.6-19.7,48.2-23.9c7.8-1.9,15.7-3.1,23.7-3.7c8.4-0.6,16.9-0.6,25.3-0.7c4.1-0.1,8.2-0.1,12.3-0.2
			c2.5-0.1,5-0.2,7.5-0.4c0.4-0.1,0.8-0.1,1.1-0.2c0-0.7,0-1.2-0.1-1.8c-2.6-17.8-7-35.2-13.4-52c-5.2-13.9-11.6-27.2-19-40
			c-7.5-13.1-15.8-25.8-24.8-38c-7.7-10.2-15.8-20-24.2-29.5c-2.1-2.3-4.2-4.6-6.2-6.9c-3.3-3.8-6.9-7.3-10.8-10.5
			c-0.5-0.4-1-0.9-1.5-1.4c-0.5-0.6-0.5-1.4-0.1-2.1c0.5-0.6,1.3-0.8,2-0.4c0.3,0.2,0.6,0.4,0.9,0.6c3.2,2.6,6.2,5.4,9.1,8.5
			c10.2,11.1,20,22.4,29.3,34.3c10,12.7,18.7,26.3,27.1,40.2c5.2,8.6,9.9,17.6,14.1,26.8c8.3,17.9,14.4,36.7,18.3,56.1
			c0.9,4.7,1.6,9.4,2.4,14.1c0.1,0.6,0.2,1.2,0.4,1.9c2.4-0.2,4.7-0.2,6.9-1.8c6.3-4.8,12-10.3,17-16.5c4.6-5.7,8.7-11.8,12.3-18.2
			c7.8-13.9,13.6-29,17.1-44.6c1.5-6.1,2.6-12.2,3.4-18.4c0.8-7,1.2-14.1,1.1-21.2c0-8.3-0.6-16.5-1.4-24.8
			c-0.8-8.6-2-17.2-3.6-25.6c-1-4.8-2-9.6-3.1-14.4l3.5,0c0.1,0.6,0.1,1.2,0.2,1.8c0.9,4.5,2,9,2.8,13.5c1.4,7.5,2.5,15.1,3.2,22.8
			c0.7,7.1,1.2,14.3,1.5,21.4c0.3,6.2,0.1,12.4-0.3,18.5c-0.3,3.5-0.6,7-1,10.4c-0.9,6.5-2.2,12.9-3.8,19.3
			c-2.4,9.8-5.6,19.4-9.7,28.7c-3.2,7.1-6.9,14-11,20.6c-5.7,9.2-12.6,17.5-20.6,24.6c-0.4,0.4-1.1,0.6-1,1.3l-0.3,0
			c0,0.1,0.1,0.2,0.1,0.2l0.2-0.3c0.6-0.1,1.3-0.2,1.9-0.3c11.1-3.3,20.9-9.8,28.3-18.8c5.4-6.5,9.9-13.7,13.3-21.5
			c7.1-16.2,12.2-33.3,15-50.8c1.1-6.5,2-13.1,2.8-19.7c0.7-6.4,1.3-12.7,1.5-19.2c0.3-7.7,0.2-15.4-0.3-23
			c-0.6-8.5-1.6-16.9-3.1-25.3c-0.3-1.5-0.4-2.9-0.6-4.4l3.1,0c0.7,4.4,1.6,8.8,2.2,13.2c0.7,5.1,1.2,10.2,1.6,15.3
			c0.6,7.3,0.7,14.6,0.4,21.9c-0.2,3.6-0.3,7.3-0.6,10.9c-0.5,5.3-0.9,10.5-1.6,15.8c-0.8,6.1-1.7,12.2-2.8,18.3
			c-2.9,16.5-7.8,32.6-14.5,47.9c-3.3,7.5-7.5,14.5-12.6,20.9c-9.3,12.1-22.7,20.3-37.5,23.1c-2.7,0.4-5.2,1.4-7.4,3.1
			c-0.6,0.5-1.2,0.8-1.8,1.2c-0.1,0-0.1,0.1-0.2,0.4c0.1,1.4,0.2,2.9,0.3,4.5c0.6,7.5,0.7,15,0.5,22.6c-0.3,9.1-1.2,18.1-2.8,27.1
			c-2.3,12.9-6.8,25.2-13.4,36.4c-7.7,13.1-19.5,23.2-33.5,28.7c-7.5,3-15.3,5.2-23.2,6.7c-6.4,1.3-12.9,2.1-19.4,2.6
			c-6.3,0.5-12.6,0.6-18.9,0.3c-5.6-0.4-11.3-0.6-16.9-1.2c-5.7-0.5-11.4-1.3-17-2c-5.4-0.7-10.7-1.5-16.1-2.3
			c-5.3-0.8-10.6-1.6-15.9-2.4c-6.5-0.9-13.1-1.9-19.6-2.7c-7.3-0.9-14.6-1.3-21.9-1.2c-5.9,0.2-11.9,0.7-17.7,1.5
			c-2.5,0.4-4.9,0.8-7.4,1.1c-0.5,0-1,0-1.5-0.1L0,307.6z M123.9,216.4l0.2,0.3c1.2-0.4,2.3-0.8,3.5-1.2c12.9-4.4,26.1-7.4,39.6-8.9
			c6-0.7,12.1-1.5,18.1-2.2c8.2-0.9,16.2-2.3,24.3-4.1c8.5-1.9,16.8-4.7,24.8-8.3c2-0.9,3.9-2,5.9-3c0.4-0.1,0.6-0.5,0.5-0.9
			c0,0,0-0.1-0.1-0.1c-0.4,0-0.9,0-1.4,0c-1.7,0.1-3.4,0.2-5,0.3c-9.2,0.2-18.3,0.3-27.5,0.5c-5.9,0.1-11.7,0.4-17.6,1
			c-8.2,0.9-16.2,2.5-24.1,4.8c-14.3,4.3-27.7,11.3-39.5,20.6C125,215.5,124.4,216,123.9,216.4"/>
		<path id="Path_230" class="st0" d="M0,197.6c0.5-0.5,1-0.9,1.5-1.3c6.4-4.5,12.3-9.7,17.4-15.7c5.8-6.6,11.3-13.5,16.4-20.7
			c3-4.2,6.1-8.4,9.3-12.4c1.9-2.4,4-4.6,6.1-6.8c4.8-5,10.5-8.9,16.8-11.5c6-2.5,12.2-4.4,18.5-5.5c4.3-0.7,8.5-1.5,12.7-2.7
			c10.4-2.9,19.5-9.4,25.7-18.4c4-5.5,7-11.8,8.7-18.4c0.8-3.2,1.2-6.4,1.4-9.7c0.4-5.9,0.2-11.9-0.5-17.8
			c-1.6-12.9-5.9-24.8-11.4-36.4c-3.4-7.2-7.5-14-12.2-20.4c-0.3-0.4-0.5-0.9-0.7-1.3l4.4,0c0,0.2-0.1,0.5,0,0.6
			c0.2,0.4,0.5,0.8,0.7,1.1c8.8,12.7,15.5,26.8,19.7,41.7c2,7,3.1,14.1,3.5,21.3c0.4,6.3,0,12.7-1,18.9c-0.3,1.8-0.7,3.6-1.3,5.4
			c-3.9,11.8-10.3,21.7-20.2,29c-5.1,3.8-10.9,6.5-17.1,7.9c-4.3,1-8.7,1.9-13.1,2.7c-6.8,1.3-13.4,3.5-19.6,6.5
			c-3.8,1.9-7.4,4.3-10.5,7.3c-3.7,3.4-7,7.2-10.1,11.2c-2.6,3.5-5.2,7-7.7,10.6c-5.1,7.2-10.6,14.1-16.5,20.6
			c-5.2,6-11.2,11.2-17.7,15.7c-0.7,0.5-1.3,0.9-2.1,1.3c-0.3,0.1-0.7,0.2-1,0.2L0,197.6z"/>
	</g>
</g>
</svg>
