<?xml version="1.0" encoding="utf-8"?>
<!-- Generator: Adobe Illustrator 27.7.0, SVG Export Plug-In . SVG Version: 6.00 Build 0)  -->
<svg version="1.1" id="Layer_1" xmlns="http://www.w3.org/2000/svg" xmlns:xlink="http://www.w3.org/1999/xlink" x="0px" y="0px"
	 viewBox="0 0 35.3 39.8" style="enable-background:new 0 0 35.3 39.8;" xml:space="preserve">
<style type="text/css">
	.st0{fill:#51176F;}
</style>
<g>
	<g id="Group_786">
		<path id="Path_623" class="st0" d="M17.8,37.7c-9.2,0-16.6-7.4-16.6-16.6c0-8.9,7-16.2,15.9-16.6V2.4c0-0.4,0.3-0.7,0.7-0.7
			c0.1,0,0.3,0,0.4,0.1l7.1,4.8c0.3,0.2,0.4,0.7,0.2,1c-0.1,0.1-0.1,0.1-0.2,0.2l-7.1,4.8c-0.3,0.2-0.8,0.1-1-0.2
			c-0.1-0.1-0.1-0.3-0.1-0.4V9.5C10.7,9.9,5.8,15.4,6.2,21.8c0.4,6.4,5.9,11.3,12.3,10.9c6.1-0.4,10.9-5.4,10.9-11.6
			c0-0.4,0.3-0.7,0.7-0.7l0,0h3.6c0.4,0,0.7,0.3,0.7,0.7l0,0C34.4,30.2,26.9,37.7,17.8,37.7 M18.5,3.7v1.5c0,0.4-0.3,0.7-0.7,0.7
			c0,0,0,0,0,0c-8.4,0-15.2,6.8-15.2,15.2s6.8,15.2,15.2,15.2c8.1,0,14.8-6.4,15.2-14.5h-2.2c-0.4,7.2-6.5,12.7-13.7,12.3
			C9.9,33.7,4.4,27.6,4.8,20.4c0.4-6.9,6.1-12.3,13-12.3c0.4,0,0.7,0.3,0.7,0.7c0,0,0,0,0,0v1.8l5.2-3.4L18.5,3.7z"/>
		<rect id="Rectangle_1116" x="22.2" y="17.8" class="st0" width="1.4" height="7.6"/>
		<rect id="Rectangle_1117" x="18.8" y="18.1" class="st0" width="1.4" height="7.3"/>
		<rect id="Rectangle_1118" x="12" y="19.4" class="st0" width="1.4" height="6"/>
		<rect id="Rectangle_1119" x="15.4" y="17.1" class="st0" width="1.4" height="8.3"/>
		<rect id="Rectangle_1120" x="22.2" y="14.3" class="st0" width="1.4" height="11.1"/>
		<rect id="Rectangle_1121" x="10" y="24.7" class="st0" width="15.5" height="1.4"/>
	</g>
</g>
</svg>
