<?xml version="1.0" encoding="utf-8"?>
<!-- Generator: Adobe Illustrator 27.0.1, SVG Export Plug-In . SVG Version: 6.00 Build 0)  -->
<svg version="1.1" id="Layer_1" xmlns="http://www.w3.org/2000/svg" xmlns:xlink="http://www.w3.org/1999/xlink" x="0px" y="0px"
	 viewBox="0 0 551.4 251" style="enable-background:new 0 0 551.4 251;" xml:space="preserve">
<style type="text/css">
	.st0{fill:#69747A;}
	.st1{fill:none;stroke:#C7D3D4;stroke-width:2;stroke-miterlimit:10;}
	.st2{fill:none;stroke:#C7D3D4;stroke-width:6;stroke-miterlimit:10;}
	.st3{fill:#7D7D7D;}
	.st4{fill:#C7D3D4;stroke:#C7D3D4;stroke-width:2;stroke-miterlimit:10;}
	.st5{fill:#FEC010;}
	.st6{fill:#C7D3D4;}
</style>
<g>
	<g>
		<path class="st0" d="M5.4,18.3c0-5.3,3.9-8.9,8.7-8.9c4.8,0,8.7,3.7,8.7,8.9c0,5.2-3.8,8.9-8.7,8.9C9.3,27.2,5.4,23.6,5.4,18.3z
			 M14.1,23.5c2.7,0,4.6-2.2,4.6-5.2c0-2.9-1.8-5.3-4.6-5.3c-2.7,0-4.6,2.2-4.6,5.3C9.5,21.4,11.5,23.5,14.1,23.5z"/>
		<path class="st0" d="M25.2,9.7H32c0.5,0,6.1,0,6.1,5.7c0,3.3-1.9,4.7-3.6,5.2v0l4.1,6.2h-4.4l-3.9-5.9h-1.2c0,2,0,3.9,0,5.9h-3.9
			V9.7z M31.2,17.5c0.8,0,2.7-0.2,2.7-2.1c0-1.9-1.9-2.2-2.6-2.2h-2.3c0,1.7,0,2.5,0,4.3H31.2z"/>
		<path class="st0" d="M9.2,36h11.3v3.6H13c0,1,0,2,0,3h7v3.8h-7c0,1.1,0,2.1,0,3.2h7.7v3.6H9.2V36z"/>
		<path class="st0" d="M22.2,48.4l3.6-1.2c0.7,2.3,2,2.8,3.2,2.8c1.4,0,2.4-0.6,2.4-1.6c0-1.1-1.2-1.6-2.6-2l-1.5-0.5
			c-1.7-0.5-4.5-1.6-4.5-4.9c0-3.1,2.5-5.2,6-5.2c3.5,0,5.6,2.1,6.1,3.9L31.3,41c-0.5-1.2-1.2-1.9-2.5-1.9c-1.2,0-1.9,0.6-1.9,1.4
			c0,1.1,1.3,1.6,2.7,2l1.9,0.6c1.4,0.4,4.1,1.4,4.1,4.6c0,3.1-2.3,5.6-6.4,5.6C25.5,53.5,23,51.5,22.2,48.4z"/>
		<path class="st0" d="M19.9,62.3h4.6l6.3,17.1h-4.1l-1.4-3.9c-2.1,0-4.1,0-6.2,0c-0.5,1.3-0.9,2.6-1.4,3.9h-4L19.9,62.3z
			 M23.8,71.7c-0.3-0.9-0.8-2.2-1.7-4.7h0l-1.7,4.7H23.8z"/>
		<path class="st0" d="M16.4,88.6h11.3v3.6h-7.5c0,1,0,2,0,3h7V99h-7c0,1.1,0,2.1,0,3.2H28v3.6H16.4V88.6z"/>
		<path class="st0" d="M16.3,114.9h6.8c0.7,0,6.1,0,6.1,5.6c0,5.6-5.4,5.8-6.1,5.8h-2.9c0,2.5,0,3.2,0,5.7h-3.9V114.9z M22.4,122.5
			c0.8,0,2.7,0,2.7-2c0-2-1.9-2-2.6-2h-2.3c0,2.5,0,3.3,0,4H22.4z"/>
		<path class="st0" d="M15.2,153.7l3.6-1.2c0.7,2.3,2,2.8,3.2,2.8c1.4,0,2.4-0.6,2.4-1.6c0-1.1-1.2-1.6-2.6-2l-1.5-0.5
			c-1.7-0.5-4.5-1.6-4.5-4.9c0-3.1,2.5-5.2,6-5.2c3.5,0,5.6,2.1,6.1,3.9l-3.6,1.4c-0.5-1.2-1.2-1.9-2.5-1.9c-1.2,0-1.9,0.6-1.9,1.4
			c0,1.1,1.3,1.6,2.7,2l1.9,0.6c1.4,0.4,4.1,1.4,4.1,4.6c0,3.1-2.3,5.6-6.4,5.6C18.4,158.7,15.9,156.7,15.2,153.7z"/>
		<path class="st0" d="M10.9,167.6h4.6l6.3,17.1h-4.1l-1.4-3.9c-2.1,0-4.1,0-6.2,0c-0.5,1.3-0.9,2.6-1.4,3.9h-4L10.9,167.6z
			 M14.8,177c-0.3-0.9-0.8-2.2-1.7-4.7h0l-1.7,4.7H14.8z"/>
		<path class="st0" d="M23.4,167.6h6.8c5.7,0,8.1,3.8,8.1,8.4c0,5.1-2.9,8.7-7.9,8.7h-7V167.6z M29.8,181.1c2,0,4.4-0.7,4.4-4.9
			c0-5-3.5-5-5-5h-2c0,3.2,0,6.7,0,9.9H29.8z"/>
	</g>
	<g>
		<path class="st0" d="M60.4,238.5c0-5.3,2.6-8.9,6.8-8.9c4.1,0,6.7,3.7,6.7,8.9c0,5.2-2.6,8.9-6.7,8.9
			C63,247.4,60.4,243.8,60.4,238.5z M67.1,243.8c1.6,0,2.6-1.6,2.6-5.3c0-3.7-1.1-5.3-2.6-5.3c-1.6,0-2.7,1.6-2.7,5.3
			C64.5,242.2,65.6,243.8,67.1,243.8z"/>
	</g>
	<line class="st1" x1="67.1" y1="222.7" x2="67.1" y2="202"/>
	<g>
		<path class="st0" d="M112.4,236c-0.8,0.8-2.1,1.6-3.2,1.9v-4.1c1.8-0.7,3.2-2.2,3.2-3.8h3.8V247h-3.9V236z"/>
	</g>
	<line class="st1" x1="113.4" y1="222.7" x2="113.4" y2="202"/>
	<g>
		<path class="st0" d="M159.1,238.1c1.8-1.2,2.8-1.9,2.8-3.1c0-1.1-0.8-1.9-2.2-1.9c-1.9,0-2.8,1.4-2.8,3.5l-3.6-0.6
			c0-3.8,2.8-6.4,6.6-6.4c3.4,0,6.1,2.1,6.1,5.4c0,2.4-1.5,3.9-3,4.9c-1.5,1-3.6,1.8-4.2,3.6h6.8v3.6h-11.7v-0.5
			C153.7,242.6,155.2,240.7,159.1,238.1z"/>
	</g>
	<line class="st1" x1="159.6" y1="222.7" x2="159.6" y2="202"/>
	<g>
		<path class="st0" d="M199,243.5l3.4-1.7c0.1,0.4,0.8,2,3.2,2c1.6,0,2.5-0.7,2.5-1.9c0-1.1-0.9-2-2.3-2H204v-3.1h1.4
			c1.3,0,2.2-0.7,2.2-1.8c0-1.1-0.9-1.9-2.2-1.9c-1.3,0-2.3,0.9-2.5,2.5l-3.5-0.8c0.3-2.7,2.7-5.2,6.4-5.2c3.2,0,5.9,1.8,5.9,4.8
			c0,1.8-1.1,3.3-2.6,3.6v0c1.7,0.4,3.1,1.8,3.1,4c0,2.6-2,5.5-6.5,5.5C202.5,247.4,199.7,245.9,199,243.5z"/>
	</g>
	<line class="st1" x1="205.8" y1="222.7" x2="205.8" y2="202"/>
	<g>
		<path class="st0" d="M252.9,243.6c-2.7,0-5.3,0-8,0v-3.1l8.1-10.6h3.6v10.5c0.7,0,1.4,0,2.2,0v3.2h-2.2c0,1.1,0,2.3,0,3.4h-3.7
			V243.6z M252.9,240.4c0-1.8,0-3.5,0-5.3l-4.1,5.3H252.9z"/>
	</g>
	<line class="st1" x1="252.1" y1="222.7" x2="252.1" y2="202"/>
	<g>
		<path class="st0" d="M291.3,243.3l3.1-2c0.7,2.1,2.4,2.7,3.6,2.7c1.6,0,2.8-1,2.8-2.7c0-1.6-1.2-2.6-2.7-2.6
			c-1.4,0-2.2,0.8-2.6,1.7l-3.2-0.8l2.1-9.7h9.4v3.4h-6.6c-0.2,1.1-0.5,2.1-0.7,3.2h0c0.7-0.6,1.7-0.9,2.7-0.9
			c2.1,0,5.8,1.2,5.8,5.4c0,3.9-3,6.4-6.9,6.4C295.1,247.4,292.3,245.9,291.3,243.3z"/>
	</g>
	<line class="st1" x1="298.3" y1="222.7" x2="298.3" y2="202"/>
	<g>
		<path class="st0" d="M337.9,239.5c0-5.8,3.4-9.9,8.4-9.9c1.7,0,3.6,0.5,4.8,1.8l-2,2.8c-0.9-0.9-2-1.1-3-1.1
			c-2.5,0-3.7,2.3-3.9,4.1h0c0.8-0.9,1.9-1.4,3.4-1.4c3.1,0,5.8,2.2,5.8,5.6c0,3.3-2.5,6-6.6,6C340.7,247.4,337.9,244.7,337.9,239.5
			z M344.8,243.9c1.2,0,2.5-0.8,2.5-2.4c0-1.6-1.3-2.5-2.5-2.5c-1.3,0-2.5,1.1-2.5,2.5C342.3,243.1,343.6,243.9,344.8,243.9z"/>
	</g>
	<line class="st1" x1="344.5" y1="222.7" x2="344.5" y2="202"/>
	<g>
		<path class="st0" d="M392.2,233.2h-7.5v-3.2h12.1v3.2c-4.7,4.1-5.4,9.8-5.4,13.9h-4.1C387.2,242.9,387.9,237.4,392.2,233.2z"/>
	</g>
	<line class="st1" x1="390.7" y1="222.7" x2="390.7" y2="202"/>
	<g>
		<path class="st0" d="M430.4,242.2c0-2.1,1.5-3.7,3-4.1v0c-1.4-0.6-2.2-2-2.2-3.6c0-2.9,2.6-4.9,5.8-4.9c3.2,0,5.9,1.9,5.9,5
			c0,1.5-0.6,2.9-2.2,3.5v0c1.5,0.4,3,2,3,4.1c0,2.8-2.5,5.2-6.6,5.2S430.4,245,430.4,242.2z M436.9,244c1.3,0,2.7-0.8,2.7-2.4
			c0-1.4-1.1-2.3-2.6-2.3c-1.4,0-2.6,0.9-2.6,2.3C434.4,243.2,435.6,244,436.9,244z M437,236.5c1.1,0,1.9-0.7,1.9-1.8
			c0-1-0.8-1.8-1.9-1.8s-1.9,0.8-1.9,1.8S435.9,236.5,437,236.5z"/>
	</g>
	<line class="st1" x1="437" y1="222.7" x2="437" y2="202"/>
	<g>
		<path class="st0" d="M476.7,245.3l2-2.7c0.9,1,2.1,1.4,3.2,1.4c2.5,0,3.9-2.2,3.9-4.4h0c-0.6,0.8-1.9,1.6-3.6,1.6
			c-2.9,0-5.8-2.1-5.8-5.6c0-3.2,2.5-6.1,6.6-6.1c3.9,0,6.9,2.5,6.9,8.3c0,5.4-2.8,9.6-7.8,9.6C479.7,247.4,477.6,246.5,476.7,245.3
			z M483,238c1.3,0,2.5-1,2.5-2.5c0-1.6-1.3-2.5-2.5-2.5c-1.2,0-2.5,0.8-2.5,2.5C480.4,237.1,481.7,238,483,238z"/>
	</g>
	<line class="st1" x1="483.2" y1="222.7" x2="483.2" y2="202"/>
	<g>
		<path class="st0" d="M520.9,236c-0.8,0.8-2.1,1.6-3.2,1.9v-4.1c1.8-0.7,3.2-2.2,3.2-3.8h3.8V247h-3.9V236z"/>
		<path class="st0" d="M527.4,238.5c0-5.3,2.6-8.9,6.8-8.9c4.1,0,6.7,3.7,6.7,8.9c0,5.2-2.6,8.9-6.7,8.9
			C529.9,247.4,527.4,243.8,527.4,238.5z M534.1,243.8c1.6,0,2.6-1.6,2.6-5.3c0-3.7-1.1-5.3-2.6-5.3c-1.6,0-2.7,1.6-2.7,5.3
			C531.5,242.2,532.5,243.8,534.1,243.8z"/>
	</g>
	<line class="st1" x1="529.4" y1="222.7" x2="529.4" y2="202"/>
	<line class="st1" x1="51" y1="200.6" x2="547.2" y2="200.6"/>
	<line class="st2" x1="51" y1="17.1" x2="547.2" y2="17.1"/>
	<line class="st2" x1="51" y1="44.7" x2="547.2" y2="44.7"/>
	<line class="st2" x1="51" y1="178" x2="547.2" y2="178"/>
	<line class="st3" x1="136.7" y1="46.8" x2="136.7" y2="198.4"/>
	<line class="st4" x1="226.4" y1="46.8" x2="226.4" y2="200.3"/>
	<line class="st4" x1="365.1" y1="46.8" x2="365.1" y2="200.3"/>
	<line class="st4" x1="457.2" y1="46.8" x2="457.2" y2="200.3"/>
	<circle class="st5" cx="256.3" cy="16.6" r="14.8"/>
	<circle class="st6" cx="343" cy="152.5" r="14.8"/>
	<circle class="st6" cx="113.5" cy="123.8" r="14.8"/>
	<circle class="st6" cx="346.5" cy="97.6" r="14.8"/>
	<circle class="st6" cx="302" cy="73.2" r="14.8"/>
	<rect x="515.2" y="32.3" class="st5" width="25.4" height="25.4"/>
	<polygon class="st5" points="259.1,180.9 277.1,163 295,180.9 	"/>
	<polyline class="st1" points="302,73.2 346.5,97.6 116.8,122.4 340.4,151.6 	"/>
</g>
</svg>
