<svg xmlns="http://www.w3.org/2000/svg" xmlns:xlink="http://www.w3.org/1999/xlink" width="200" height="170" viewBox="0 0 200 170"><defs><style>.a{fill:none;}.b{clip-path:url(#c);}.c{clip-path:url(#a);}.d{fill:#fdbe2f;}.e{fill:none;}</style><clipPath id="a"><rect class="a" width="200" height="169"/></clipPath><clipPath id="c"><rect width="200" height="170"/></clipPath></defs><g id="b" class="b"><rect class="e" width="200" height="170"/><g class="c" transform="translate(0 1)"><g transform="translate(-600 -1275)"><path class="d" d="M10,0,20,15H0Z" transform="translate(620 1275) rotate(90)"/></g><g transform="translate(-565 -1275)"><path class="d" d="M10,0,20,15H0Z" transform="translate(620 1275) rotate(90)"/></g><g transform="translate(-530 -1275)"><path class="d" d="M10,0,20,15H0Z" transform="translate(620 1275) rotate(90)"/></g><g transform="translate(-495 -1275)"><path class="d" d="M10,0,20,15H0Z" transform="translate(620 1275) rotate(90)"/></g><g transform="translate(-460 -1275)"><path class="d" d="M10,0,20,15H0Z" transform="translate(620 1275) rotate(90)"/></g><g transform="translate(-425 -1275)"><path class="d" d="M10,0,20,15H0Z" transform="translate(620 1275) rotate(90)"/></g><g transform="translate(-600 -1240)"><path class="d" d="M10,0,20,15H0Z" transform="translate(620 1275) rotate(90)"/></g><g transform="translate(-565 -1240)"><path class="d" d="M10,0,20,15H0Z" transform="translate(620 1275) rotate(90)"/></g><g transform="translate(-530 -1240)"><path class="d" d="M10,0,20,15H0Z" transform="translate(620 1275) rotate(90)"/></g><g transform="translate(-495 -1240)"><path class="d" d="M10,0,20,15H0Z" transform="translate(620 1275) rotate(90)"/></g><g transform="translate(-460 -1240)"><path class="d" d="M10,0,20,15H0Z" transform="translate(620 1275) rotate(90)"/></g><g transform="translate(-425 -1240)"><path class="d" d="M10,0,20,15H0Z" transform="translate(620 1275) rotate(90)"/></g><g transform="translate(-600 -1205)"><path class="d" d="M10,0,20,15H0Z" transform="translate(620 1275) rotate(90)"/></g><g transform="translate(-565 -1205)"><path class="d" d="M10,0,20,15H0Z" transform="translate(620 1275) rotate(90)"/></g><g transform="translate(-530 -1205)"><path class="d" d="M10,0,20,15H0Z" transform="translate(620 1275) rotate(90)"/></g><g transform="translate(-495 -1205)"><path class="d" d="M10,0,20,15H0Z" transform="translate(620 1275) rotate(90)"/></g><g transform="translate(-460 -1205)"><path class="d" d="M10,0,20,15H0Z" transform="translate(620 1275) rotate(90)"/></g><g transform="translate(-425 -1205)"><path class="d" d="M10,0,20,15H0Z" transform="translate(620 1275) rotate(90)"/></g><g transform="translate(-600 -1170)"><path class="d" d="M10,0,20,15H0Z" transform="translate(620 1275) rotate(90)"/></g><g transform="translate(-565 -1170)"><path class="d" d="M10,0,20,15H0Z" transform="translate(620 1275) rotate(90)"/></g><g transform="translate(-530 -1170)"><path class="d" d="M10,0,20,15H0Z" transform="translate(620 1275) rotate(90)"/></g><g transform="translate(-495 -1170)"><path class="d" d="M10,0,20,15H0Z" transform="translate(620 1275) rotate(90)"/></g><g transform="translate(-460 -1170)"><path class="d" d="M10,0,20,15H0Z" transform="translate(620 1275) rotate(90)"/></g><g transform="translate(-425 -1170)"><path class="d" d="M10,0,20,15H0Z" transform="translate(620 1275) rotate(90)"/></g><g transform="translate(-600 -1135)"><path class="d" d="M10,0,20,15H0Z" transform="translate(620 1275) rotate(90)"/></g><g transform="translate(-565 -1135)"><path class="d" d="M10,0,20,15H0Z" transform="translate(620 1275) rotate(90)"/></g><g transform="translate(-530 -1135)"><path class="d" d="M10,0,20,15H0Z" transform="translate(620 1275) rotate(90)"/></g><g transform="translate(-495 -1135)"><path class="d" d="M10,0,20,15H0Z" transform="translate(620 1275) rotate(90)"/></g><g transform="translate(-460 -1135)"><path class="d" d="M10,0,20,15H0Z" transform="translate(620 1275) rotate(90)"/></g><g transform="translate(-425 -1135)"><path class="d" d="M10,0,20,15H0Z" transform="translate(620 1275) rotate(90)"/></g></g></g></svg>