<?xml version="1.0" encoding="UTF-8"?>
<svg id="Layer_1" xmlns="http://www.w3.org/2000/svg" width="1in" height="1in" version="1.1" viewBox="0 0 72 72">
  <!-- Generator: Adobe Illustrator 29.1.0, SVG Export Plug-In . SVG Version: 2.1.0 Build 142)  -->
  <defs>
    <style>
      .st0 {
        fill: #002357;
      }

      .st0, .st1 {
        fill-rule: evenodd;
      }

      .st1 {
        fill: #62cef2;
      }
    </style>
  </defs>
  <path class="st0" d="M21.9,64.8h0c4,5.5-3.6,13.2-11.9-1.8-7.2-13-1-24.3,3.5-28.8,4.5-4.4,9.5-6.9,14.1-4.5,2.4,1.2,5,2,7.9,2s5.5-.8,7.9-2c4.6-2.4,9.6.1,14.1,4.5,4.5,4.4,10.7,15.7,3.5,28.8-8.3,15-15.9,7.3-11.9,1.8h0c3.3-4.2,5.1-8.8,5.1-13.5,0-9-11.7-15-17.9-5-.2.3-.5.4-.8.4s-.6-.1-.8-.4c-6.3-10-17.9-4-17.9,5s1.8,9.2,5.1,13.5h0Z"/>
  <path class="st0" d="M35.5,1.2c6.6,0,11.9,5.3,11.9,11.9s-5.3,11.9-11.9,11.9-11.9-5.3-11.9-11.9S29,1.2,35.5,1.2h0Z"/>
  <polygon class="st1" points="32.7 52.6 38.5 52.6 38.5 57.7 43.6 57.7 43.6 63.5 38.5 63.5 38.5 68.6 32.7 68.6 32.7 63.5 27.6 63.5 27.6 57.7 32.7 57.7 32.7 52.6"/>
</svg>