<?xml version="1.0" encoding="UTF-8"?>
<svg id="Layer_1" xmlns="http://www.w3.org/2000/svg" width="1in" height="1in" version="1.1" viewBox="0 0 72 72">
  <!-- Generator: Adobe Illustrator 29.1.0, SVG Export Plug-In . SVG Version: 2.1.0 Build 142)  -->
  <defs>
    <style>
      .st0 {
        fill: #002357;
      }

      .st1 {
        fill: #62cef2;
      }
    </style>
  </defs>
  <path class="st1" d="M36.1,1c-10.1,0-18.4,8.2-18.4,18.4,0,10.1,8.2,18.4,18.4,18.4s18.4-8.2,18.4-18.4c0-10.1-8.2-18.4-18.4-18.4ZM46.2,22.1c0,.5-.4.9-.9.9h-5.7s0,5.7,0,5.7c0,.5-.4.9-.9.9h-5.3c-.5,0-.9-.4-.9-.9v-5.7s-5.7,0-5.7,0c-.5,0-.9-.4-.9-.9v-5.3c0-.5.4-.9.9-.9h5.7s0-5.7,0-5.7c0-.5.4-.9.9-.9h5.3c.5,0,.9.4.9.9v5.7s5.7,0,5.7,0c.5,0,.9.4.9.9v5.3Z"/>
  <g>
    <path class="st0" d="M69.9,40.8l-4-22.7c-.2-1-.9-1.8-1.9-2.1-.8-.2-1.6,0-2.2.4-.6.5-1,1.2-1.1,2l-1,13c.6.3,1.1.6,1.6,1.1,2,2,2.2,5.2.5,7.5l-6.5,8.3c-.7.9-1.9,1-2.8.3-.9-.7-1-1.9-.3-2.8l6.5-8.3c.5-.7.5-1.6-.1-2.2-.3-.3-.7-.5-1.2-.5s-.7.1-1,.3l-9.5,7c-1.8,1.3-2.9,3.3-3.3,5.4l-1.6,12.2h17.4s8-9.6,8-9.6c2.2-2.6,3.1-6,2.5-9.4Z"/>
    <rect class="st0" x="38.9" y="63.7" width="22.5" height="7.5" rx="1.8" ry="1.8"/>
    <path class="st0" d="M30.2,59.7l-1.6-12.2c-.3-2.2-1.5-4.1-3.3-5.4l-9.5-7c-.7-.5-1.6-.4-2.1.2-.6.6-.7,1.5-.1,2.2l6.5,8.3c.7.9.5,2.1-.3,2.8-.9.7-2.1.5-2.8-.3l-6.5-8.3c-1.8-2.2-1.6-5.4.5-7.5.5-.5,1-.8,1.6-1.1l-1-13c0-.8-.5-1.5-1.1-2-.6-.5-1.4-.6-2.2-.4-1,.3-1.7,1.1-1.9,2.1l-4,22.7c-.6,3.3.3,6.8,2.5,9.4l8,9.6h17.4Z"/>
    <rect class="st0" x="10.8" y="63.7" width="22.5" height="7.5" rx="1.8" ry="1.8"/>
  </g>
</svg>