<?xml version="1.0" encoding="UTF-8"?>
<svg id="Layer_1" xmlns="http://www.w3.org/2000/svg" width="1in" height="1in" version="1.1" viewBox="0 0 72 72">
  <!-- Generator: Adobe Illustrator 29.1.0, SVG Export Plug-In . SVG Version: 2.1.0 Build 142)  -->
  <defs>
    <style>
      .st0 {
        fill: #002357;
      }

      .st1 {
        fill: #62cef2;
      }
    </style>
  </defs>
  <g id="_x38_Zje35.tif">
    <g>
      <path class="st0" d="M33.9,57c-.2-.2-.3-.4-.3-.7,3.5-7.4,8.2-14.3,11.8-21.6.4-.7,1.2-1.8.4-2.5s-1.5,0-2,.6c-2,2.6-4.1,7.8-5.9,10.9s-1,2-1.8,2.7l-7.5-14c-1.4-1.1-2.6-.3-1.8,1.5l8.1,14.8-2.7,5.3-12.9-23.2c-1.4-3.3,1-7.1,4.5-7.4,7.8.5,16.6-.7,24.3,0,4.2.4,6.5,4.4,4.6,8.1l-14.2,25.4c-.8,1.2-3.8,1.2-4.7.2Z"/>
      <path class="st1" d="M42,55.4c3,.2,6.2-1.4,6.6,2.7s.3,8.1,0,10.4-.8,2.3-2.5,2.5c-10.5,1-20.6.1-33,0-1.6-.2-2-1-2.2-2.5-.2-2.6-.3-8.5,0-11s1-2,2.5-2.2c5.2-.5,11.2.4,16.5,0,.9.1.9,1.2,1.4,1.8,3.4,4.7,8.8,3.4,10.7-1.8Z"/>
      <path class="st0" d="M34.6,1c9.2-1.5,13.7,10.4,6.1,15.3-6.8,4.4-15.2-2.6-12.4-10,.9-2.4,3.7-4.9,6.3-5.3Z"/>
      <path class="st1" d="M59.2,57.7c9.2-1.6,9.1,12.2.2,10.9-5.8-.8-5.8-9.9-.2-10.9Z"/>
    </g>
  </g>
</svg>