<?xml version="1.0" encoding="UTF-8"?>
<svg id="Layer_1" xmlns="http://www.w3.org/2000/svg" width="1in" height="1in" version="1.1" viewBox="0 0 72 72">
  <!-- Generator: Adobe Illustrator 29.1.0, SVG Export Plug-In . SVG Version: 2.1.0 Build 142)  -->
  <defs>
    <style>
      .st0 {
        fill: #002357;
      }

      .st1 {
        fill: #62cef2;
      }
    </style>
  </defs>
  <path class="st0" d="M13.6,47.9h32.6c.8,0,1.5.7,1.5,1.5s-.7,1.5-1.5,1.5H13.6c-.8,0-1.5-.7-1.5-1.5s.7-1.5,1.5-1.5h0ZM13.6,39.4h24.5c.8,0,1.5.7,1.5,1.5s-.7,1.5-1.5,1.5H13.6c-.8,0-1.5-.7-1.5-1.5s.7-1.5,1.5-1.5h0ZM12,25.7c0-3,2.4-5.4,5.4-5.4h9.9c3,0,5.4,2.4,5.4,5.4v2.3c0,.7-.6,1.2-1.2,1.2H13.3c-.7,0-1.2-.6-1.2-1.2v-2.3h0ZM22.4,8.5c2.7,0,5,2.2,5,5s-2.2,5-5,5-5-2.2-5-5,2.2-5,5-5h0ZM9.1,71.8h44.3c1.9,0,3.5-1.6,3.5-3.5v-25.1l-2.1,2.2c-.7.7-1.5,1.1-2.5,1.1-1.6,0-2.9-1-3.4-2.5l-.8-3-1-3.6,7.5-29.3c.4-1.5,1.2-2.7,2.4-3.6h0c0-2-1.6-3.6-3.5-3.6H9.1c-1.9,0-3.5,1.6-3.5,3.5v63.8c0,1.9,1.6,3.5,3.5,3.5h0Z"/>
  <path class="st1" d="M63.8,11.5l.3-1.1c.2-.9,0-1.8-.4-2.5-.4-.7-1.2-1.3-2.1-1.5-1.8-.5-3.6.6-4.1,2.4l-.6,2.3h0s0,0,0,0l-6.5,25.5-.2.6h0c0,.1,0,.2,0,.2l.6,2,.2.6.8,3c0,.2.2.3.4.3.1,0,.2,0,.3-.1l2.2-2.2.4-.4,1.5-1.5h0c0,0,0-.2,0-.2v-.5c.1,0,.2-.2.2-.2l6-23.8,1.1.3c.4,0,.6.5.5.8l-1.9,7.6c-.2.8.3,1.7,1.1,1.9.8.2,1.7-.3,1.9-1.1l1.9-7.6c.5-2-.7-4-2.7-4.5l-1.1-.3h0Z"/>
</svg>