<?xml version="1.0" encoding="UTF-8"?>
<svg id="Layer_1" xmlns="http://www.w3.org/2000/svg" version="1.1" viewBox="0 0 222 193.97">
  <!-- Generator: Adobe Illustrator 29.0.0, SVG Export Plug-In . SVG Version: 2.1.0 Build 186)  -->
  <defs>
    <style>
      .st0 {
        fill: #fff;
      }
    </style>
  </defs>
  <path class="st0" d="M.88,93.8L220.87,4c.54-.22,1.09.29.91.85l-56.12,171.07c-.13.39-.57.58-.94.41l-54.66-25.77c-.32-.15-.7-.03-.88.27l-25.68,42.81c-.36.6-1.27.34-1.27-.35v-55.86c0-.2.08-.38.23-.51l97.08-86.57c.64-.57-.13-1.56-.84-1.08l-113.87,77.18c-.2.14-.47.16-.69.05L.83,95.05c-.53-.26-.5-1.03.05-1.25Z"/>
</svg>