<?xml version="1.0" encoding="utf-8"?>
<!-- Generator: Adobe Illustrator 27.0.1, SVG Export Plug-In . SVG Version: 6.00 Build 0)  -->
<svg version="1.1" id="Layer_1" xmlns="http://www.w3.org/2000/svg" xmlns:xlink="http://www.w3.org/1999/xlink" x="0px" y="0px"
	 viewBox="0 0 72 72" style="enable-background:new 0 0 72 72;" xml:space="preserve">
<style type="text/css">
	.st0{fill:#FFFFFF;}
	.st1{fill:#D8C6E1;}
</style>
<g>
	<g id="Group_582" transform="translate(0 0)">
		<path id="Path_11638" class="st0" d="M60,42.6c-2.4,0-4.7,1-6.4,2.7l-0.2,0.2l0-26.9c0-2.9-2.3-5.2-5.2-5.3c-1.1,0-2.2,0.4-3.2,1
			l0-4c0-2.9-2.4-5.3-5.3-5.3c-1.1,0-2.2,0.4-3.1,1V6c0-2.9-2.4-5.3-5.3-5.3c-2.9,0-5.3,2.4-5.3,5.3v2c-2.3-1.7-5.6-1.3-7.3,1.1
			c-0.7,0.9-1,2-1,3.2l0,27.9l-6-5.4c-2.4-2.2-6.1-2-8.3,0.4c-1.8,2-2.1,5-0.5,7.2l14.6,21.7c3.3,4.9,8.8,7.8,14.7,7.8h2.6
			c4.6,0,9-1.7,12.4-4.8l4.4,4.4c0.4,0.4,1.1,0.4,1.5,0l13.3-13.3c3.5-3.5,3.5-9.3,0-12.8C64.7,43.6,62.4,42.6,60,42.6 M48,64.8
			L48,64.8L48,64.8l-8.2-8.2c-2.7-2.7-2.7-7.1,0-9.8c2.7-2.7,7.1-2.7,9.8,0l2,2l0,0c0,0,0.1,0.1,0.1,0.1c0.4,0.3,0.9,0.3,1.3,0
			c0,0,0.1,0,0.1-0.1l0,0l2-2c2.7-2.6,7-2.6,9.8,0c2.7,2.7,2.7,7.1,0,9.8L52.3,69.1L48,64.8z M34.8,69.6h-2.6
			c-5.2,0-10-2.6-12.9-6.9L4.8,41.1c-1.1-1.7-0.7-4,1-5.2c1.4-0.9,3.3-0.8,4.6,0.3l7.8,7.1c0.1,0.1,0.2,0.1,0.2,0.1
			c0,0,0.1,0,0.1,0.1c0.1,0,0.2,0.1,0.3,0.1c0,0,0,0,0.1,0h0c0.1,0,0.2,0,0.3-0.1c0,0,0.1,0,0.1,0c0,0,0.1,0,0.1-0.1
			c0.1-0.1,0.2-0.1,0.3-0.2l0,0c0,0,0,0,0,0c0.1-0.1,0.2-0.2,0.2-0.3c0,0,0,0,0-0.1c0-0.1,0.1-0.2,0.1-0.3l0-30.3
			c0-1.7,1.4-3.1,3.1-3.1c1.7,0,3.1,1.4,3.1,3.1l0,21c0,0.6,0.5,1.1,1.1,1c0.6,0,1-0.5,1-1l0-27.2c0-1.7,1.4-3.1,3.1-3.1
			c1.7,0,3.1,1.4,3.1,3.1l0,27.2c0,0.6,0.5,1.1,1.1,1c0.6,0,1-0.5,1-1l0-22.9c0-1.7,1.4-3.1,3.1-3.1c1.7,0,3.1,1.4,3.1,3.1l0,25
			c0,0.6,0.5,1.1,1.1,1c0.6,0,1-0.5,1-1l0-16.8c0-1.7,1.4-3.1,3.1-3.1c1.7,0,3.1,1.4,3.1,3.1c0,0,0,0,0,0l0,26.9l-0.2-0.2
			c-3.6-3.5-9.3-3.5-12.8,0.1c-3.5,3.5-3.5,9.2,0,12.7l7.4,7.4C42.7,68.1,38.8,69.6,34.8,69.6"/>
		<path id="Path_11639" class="st1" d="M44.7,44.8c-3.8,0-6.9,3.1-6.9,6.9c0,1.8,0.7,3.6,2,4.9l8.2,8.2h0v0l4.3,4.3l12.5-12.5
			c2.7-2.7,2.7-7.1,0-9.8c-2.7-2.6-7-2.6-9.8,0l-2,2c-0.4,0.4-1.1,0.4-1.5,0c0,0,0,0-0.1-0.1l-2-2C48.3,45.5,46.5,44.8,44.7,44.8"/>
	</g>
</g>
</svg>
