<?xml version="1.0" encoding="utf-8"?>
<!-- Generator: Adobe Illustrator 27.0.1, SVG Export Plug-In . SVG Version: 6.00 Build 0)  -->
<svg version="1.1" id="Layer_1" xmlns="http://www.w3.org/2000/svg" xmlns:xlink="http://www.w3.org/1999/xlink" x="0px" y="0px"
	 viewBox="0 0 72 72" style="enable-background:new 0 0 72 72;" xml:space="preserve">
<style type="text/css">
	.st0{fill:#FFFFFF;}
	.st1{fill:#D8C6E1;}
</style>
<g>
	<g id="Group_580" transform="translate(0 0)">
		<path id="Path_11628" class="st0" d="M65,46.9c-0.2-0.2-0.5-0.3-0.8-0.2c-0.3,0-0.6,0.2-0.7,0.4l-1.1,1.4l-4.4-5.2
			c-1.8-2.1-4.5-3.4-7.3-3.4V21.3h0.4c0.6,0,1.1-0.5,1.1-1.1c0,0,0,0,0,0v-8.3c0-0.6-0.5-1.1-1.1-1.1c0,0,0,0,0,0H40.2
			c2.3-2.6,2-6.5-0.6-8.8s-6.5-2-8.8,0.6c-0.2,0.2-0.3,0.4-0.5,0.6c-1.9-2.9-5.8-3.6-8.6-1.7s-3.6,5.8-1.7,8.6
			c0.2,0.2,0.3,0.4,0.5,0.7H9.8c-0.6,0-1.1,0.5-1.1,1.1c0,0,0,0,0,0v8.3c0,0.6,0.5,1.1,1.1,1.1h0.4v14.6l-0.5-0.4
			c-2.6-1.9-6.3-1.4-8.3,1.1C-0.4,39,0,42.4,2.3,44.4l16.2,13.8c1.7,1.4,3.8,2.2,6,2.2h23.5c0.3,0,0.5,0.1,0.7,0.3l2.4,2.2L50,64.4
			c-0.4,0.5-0.3,1.1,0.2,1.5l6.1,5.1c0.2,0.2,0.4,0.2,0.7,0.2c0,0,0.1,0,0.1,0c0.3,0,0.6-0.2,0.7-0.4l13.5-17.3
			c0.4-0.5,0.3-1.1-0.2-1.5L65,46.9z M48.4,40l-13.4,1V21.3h13.4V40z M49.9,19.1H35.1V13h14.8L49.9,19.1z M25.7,13v6.2H10.9V13H25.7
			z M12.3,21.3h13.4v21c-0.7,0.4-1.3,0.9-1.9,1.5c-0.3,0.4-0.6,0.9-0.8,1.4l-10.7-7.7V21.3z M27.8,20.3
			C27.8,20.2,27.8,20.2,27.8,20.3C27.8,20.2,27.8,20.2,27.8,20.3V13h5.1v7.2c0,0,0,0,0,0.1s0,0,0,0.1v20.9l-4.7,0.4
			c-0.1,0-0.3,0.1-0.4,0.1V20.3z M35.5,2.6c2.3,0,4.1,1.8,4.1,4.1s-1.8,4.1-4.1,4.1l0,0h-4.1V6.7C31.5,4.5,33.3,2.6,35.5,2.6
			 M21.1,6.7c0-2.3,1.8-4.1,4.1-4.1s4.1,1.8,4.1,4.1v4.1h-4.1C23,10.8,21.1,9,21.1,6.7 M50.2,59c-0.6-0.5-1.3-0.8-2.1-0.8H24.6
			c-1.7,0-3.3-0.6-4.6-1.7L3.7,42.7c-1.4-1.2-1.7-3.3-0.6-4.9c1.3-1.6,3.6-1.8,5.3-0.6l14.2,10.3c0,0.1,0,0.2,0,0.4
			c0.3,2.8,2.7,4.9,5.5,4.9h15.7c0.6,0,1.1-0.4,1.1-1s-0.4-1.1-1-1.1c0,0-0.1,0-0.1,0H28.1c-1.7,0-3.2-1.3-3.4-3
			c-0.1-0.9,0.2-1.8,0.8-2.5c0.7-0.9,1.8-1.4,2.9-1.5L49.9,42c2.4-0.2,4.8,0.8,6.3,2.6l4.7,5.6l-8.5,10.9L50.2,59z M56.8,68.6
			l-4.5-3.7l12.2-15.6l4.5,3.7L56.8,68.6z"/>
		<path id="Path_11629" class="st1" d="M49.9,19.1V13H35.1v6.2H49.9z"/>
		<path id="Path_11630" class="st1" d="M25.2,13H10.9v6.2h14.8V13H25.2z"/>
		<path id="Path_11631" class="st1" d="M25.7,42.3v-21H12.3v16.2L23,45.2c0.2-0.5,0.5-1,0.8-1.4C24.3,43.2,25,42.7,25.7,42.3"/>
		<path id="Path_11632" class="st1" d="M35.1,41l13.4-1V21.3H35.1V41z"/>
		<path id="Path_11633" class="st0" d="M65,46.9c-0.2-0.2-0.5-0.3-0.8-0.2c-0.3,0-0.6,0.2-0.7,0.4l-1.1,1.4l-4.4-5.2
			c-1.8-2.1-4.5-3.4-7.3-3.4V21.3h0.4c0.6,0,1.1-0.5,1.1-1.1c0,0,0,0,0,0v-8.3c0-0.6-0.5-1.1-1.1-1.1c0,0,0,0,0,0H40.2
			c2.3-2.6,2-6.5-0.6-8.8s-6.5-2-8.8,0.6c-0.2,0.2-0.3,0.4-0.5,0.6c-1.9-2.9-5.8-3.6-8.6-1.7s-3.6,5.8-1.7,8.6
			c0.2,0.2,0.3,0.4,0.5,0.7H9.8c-0.6,0-1.1,0.5-1.1,1.1c0,0,0,0,0,0v8.3c0,0.6,0.5,1.1,1.1,1.1h0.4v14.6l-0.5-0.4
			c-2.6-1.9-6.3-1.4-8.3,1.1C-0.4,39,0,42.4,2.3,44.4l16.2,13.8c1.7,1.4,3.8,2.2,6,2.2h23.5c0.3,0,0.5,0.1,0.7,0.3l2.4,2.2L50,64.4
			c-0.4,0.5-0.3,1.1,0.2,1.5l6.1,5.1c0.2,0.2,0.4,0.2,0.7,0.2c0,0,0.1,0,0.1,0c0.3,0,0.6-0.2,0.7-0.4l13.5-17.3
			c0.4-0.5,0.3-1.1-0.2-1.5L65,46.9z M48.4,40l-13.4,1V21.3h13.4V40z M49.9,19.1H35.1V13h14.8L49.9,19.1z M25.7,13v6.2H10.9V13H25.7
			z M12.3,21.3h13.4v21c-0.7,0.4-1.3,0.9-1.9,1.5c-0.3,0.4-0.6,0.9-0.8,1.4l-10.7-7.7V21.3z M27.8,20.3
			C27.8,20.2,27.8,20.2,27.8,20.3C27.8,20.2,27.8,20.2,27.8,20.3V13h5.1v7.2c0,0,0,0,0,0.1s0,0,0,0.1v20.9l-4.7,0.4
			c-0.1,0-0.3,0.1-0.4,0.1V20.3z M35.5,2.6c2.3,0,4.1,1.8,4.1,4.1s-1.8,4.1-4.1,4.1l0,0h-4.1V6.7C31.5,4.5,33.3,2.6,35.5,2.6
			 M21.1,6.7c0-2.3,1.8-4.1,4.1-4.1s4.1,1.8,4.1,4.1v4.1h-4.1C23,10.8,21.1,9,21.1,6.7 M50.2,59c-0.6-0.5-1.3-0.8-2.1-0.8H24.6
			c-1.7,0-3.3-0.6-4.6-1.7L3.7,42.7c-1.4-1.2-1.7-3.3-0.6-4.9c1.3-1.6,3.6-1.8,5.3-0.6l14.2,10.3c0,0.1,0,0.2,0,0.4
			c0.3,2.8,2.7,4.9,5.5,4.9h15.7c0.6,0,1.1-0.4,1.1-1s-0.4-1.1-1-1.1c0,0-0.1,0-0.1,0H28.1c-1.7,0-3.2-1.3-3.4-3
			c-0.1-0.9,0.2-1.8,0.8-2.5c0.7-0.9,1.8-1.4,2.9-1.5L49.9,42c2.4-0.2,4.8,0.8,6.3,2.6l4.7,5.6l-8.5,10.9L50.2,59z M56.8,68.6
			l-4.5-3.7l12.2-15.6l4.5,3.7L56.8,68.6z"/>
		<path id="Path_11634" class="st1" d="M49.9,19.1V13H35.1v6.2H49.9z"/>
		<path id="Path_11635" class="st1" d="M25.2,13H10.9v6.2h14.8V13H25.2z"/>
		<path id="Path_11636" class="st1" d="M25.7,42.3v-21H12.3v16.2L23,45.2c0.2-0.5,0.5-1,0.8-1.4C24.3,43.2,25,42.7,25.7,42.3"/>
		<path id="Path_11637" class="st1" d="M35.1,41l13.4-1V21.3H35.1V41z"/>
	</g>
</g>
</svg>
