<?xml version="1.0" encoding="utf-8"?>
<!-- Generator: Adobe Illustrator 27.7.0, SVG Export Plug-In . SVG Version: 6.00 Build 0)  -->
<svg version="1.1" id="Layer_1" xmlns="http://www.w3.org/2000/svg" xmlns:xlink="http://www.w3.org/1999/xlink" x="0px" y="0px"
	 viewBox="0 0 72 72" style="enable-background:new 0 0 72 72;" xml:space="preserve">
<style type="text/css">
	.st0{fill:#D8C6E1;}
	.st1{fill:#662D91;}
</style>
<g>
	<g>
		<g>
			<rect x="9.3" y="37.1" class="st0" width="8" height="28"/>
		</g>
	</g>
	<g>
		<path class="st0" d="M51.4,40.8c-0.4,0-0.8-0.1-1.2-0.3c-4-2.7-17.1-12.2-17.1-23.6c0-6.1,3.4-12.2,9.8-12.2
			c2.9,0,5.5,2.2,7.3,3.8c0.4,0.3,0.8,0.7,1.1,0.9c0,0,0.1,0,0.1,0.1c0,0,0.1,0,0.1-0.1c0.3-0.3,0.7-0.6,1.1-0.9
			c1.9-1.7,4.3-3.8,7.3-3.8c6.4,0,9.8,6.1,9.8,12.2c0,11.3-13.1,20.9-17.1,23.6C52.2,40.6,51.8,40.8,51.4,40.8z"/>
	</g>
	<g>
		<g>
			<g>
				<g>
					<path class="st1" d="M70.2,52.2c-0.8-2-2.4-3-4.7-3c-0.8,0-1.6,0.1-2.5,0.4c-1.2,0.3-2.4,0.6-3.5,1l0,0
						c-2.7,0.8-5.4,1.5-8.2,1.9c0,0-0.1,0-0.1,0c-0.3,0-0.6-0.2-0.7-0.6l0-0.1c0-0.1,0-0.2,0-0.3c-0.6-2.6-3-5.3-8.2-5.3
						c-0.7,0-1.4,0-2.1,0.1c-0.7,0.1-1.4,0.1-1.9,0.1c-3,0-4-1.2-4.9-2.4c-0.5-0.7-1.2-1.4-2.1-1.9c-1-0.5-2.3-0.7-3.7-0.7
						c-3.1,0-6.2,1.1-7.7,1.8c-0.1,0-0.2,0.1-0.3,0.1c-0.1,0-0.3,0-0.4-0.1c-0.2-0.1-0.3-0.3-0.3-0.6V37c0-0.7-0.6-1.4-1.4-1.4H9.1
						c-0.7,0-1.4,0.6-1.4,1.4v28.2c0,0.7,0.6,1.4,1.4,1.4h8.3c0.7,0,1.4-0.6,1.4-1.4v-3.9c0-0.2,0.1-0.4,0.3-0.5
						c0.1-0.1,0.3-0.1,0.4-0.1c0.1,0,0.1,0,0.2,0c5.5,1.8,18.8,5.9,23.3,5.9c4.8,0,22-6.2,26.9-9.4C70.3,56.9,71.8,56,70.2,52.2z
						 M16,63.2c0,0.4-0.3,0.7-0.7,0.7h-4.3c-0.4,0-0.7-0.3-0.7-0.7V39c0-0.4,0.3-0.7,0.7-0.7h4.3c0.4,0,0.7,0.3,0.7,0.7V63.2z
						 M67.8,55.3c-5.4,3.1-21.2,8.6-24.9,8.6c-4.6,0-21.8-5.6-23.7-6.2c-0.3-0.1-0.5-0.3-0.5-0.6v-10c0-0.2,0.1-0.5,0.3-0.6
						c2.6-1.4,5.9-2.3,8.3-2.3c1,0,1.9,0.2,2.5,0.5c0.4,0.2,0.8,0.6,1.2,1.1l0,0c1.2,1.4,2.8,3.3,7.1,3.3c0.7,0,1.4-0.1,2.2-0.2
						c0.6-0.1,1.2-0.1,1.8-0.1c2.2,0,3.8,0.6,4.8,1.7c0.6,0.7,0.8,1.5,0.8,1.8c0,0.3-0.1,0.6-0.4,0.7c-0.3,0.1-0.5,0.2-0.8,0.3
						c-1.9,0.7-3.7,1.4-4.9,1.4c-0.2,0-0.3,0-0.5-0.1c-1-0.3-4-1-8.9-2.3c0,0,0,0,0,0l-3.1-0.8c0,0,0,0,0,0c0,0-0.1,0-0.1,0l0,0
						c-0.7-0.1-1.3,0.3-1.5,1c-0.2,0.7,0.2,1.3,0.8,1.6l0,0c0.7,0.2,1.9,0.5,3.2,0.8l0,0h0c3.3,0.8,7.7,2,9,2.3
						c0.3,0.1,0.7,0.1,1.1,0.1c1.8,0,4.1-0.9,5.9-1.6l0.1,0c0.5-0.2,1-0.4,1.3-0.5l0,0c0,0,0.1,0,0.1-0.1c0.1,0,0.1,0,0.2,0
						c3.6-0.3,7-1.2,10.9-2.2c1.3-0.4,2.4-0.7,3.5-1c0.7-0.2,1.4-0.3,1.9-0.3c1.6,0,2,0.9,2.2,1.4c0.2,0.5,0.4,1,0.5,1.3
						C68.2,54.8,68.1,55.1,67.8,55.3z"/>
				</g>
			</g>
		</g>
		<g>
			<g>
				<g>
					<path class="st1" d="M51.3,42.4c-0.1,0-0.2,0-0.3,0c-0.1,0-0.1,0-0.1-0.1c-0.1,0-0.2-0.1-0.2-0.1c0,0,0,0-0.1,0
						c-1.3-0.8-18.8-11.6-18.8-25.3c0-6.7,3.8-13.5,11-13.5c3.4,0,6.2,2.4,8,4c0.1,0.1,0.3,0.2,0.4,0.2c0.2,0,0.3-0.1,0.4-0.2
						c1.8-1.6,4.6-4,8-4c7.2,0,11,6.8,11,13.5c0,13.8-17.6,24.6-18.8,25.3c0,0,0,0,0,0c-0.1,0-0.2,0.1-0.2,0.1c0,0-0.1,0-0.1,0
						c0,0,0,0,0,0l0,0c-0.1,0-0.2,0-0.3,0C51.4,42.4,51.4,42.4,51.3,42.4C51.4,42.4,51.4,42.4,51.3,42.4z M42.9,6.1
						c-5.5,0-8.3,5.4-8.3,10.7c0,10.6,12.6,19.8,16.4,22.4c0.1,0.1,0.2,0.1,0.4,0.1c0.1,0,0.3,0,0.4-0.1
						c3.9-2.6,16.4-11.7,16.4-22.4c0-5.3-2.9-10.7-8.3-10.7c-2.4,0-4.6,1.9-6.3,3.4c-0.5,0.4-0.9,0.8-1.3,1.1c0,0-0.1,0-0.1,0.1
						c-0.1,0-0.2,0.1-0.3,0.1l0,0c-0.1,0-0.1,0.1-0.2,0.1c-0.1,0-0.1,0-0.2,0l-0.1,0c-0.1,0-0.2,0-0.2,0c-0.1,0-0.1,0-0.2-0.1
						c-0.1,0-0.2-0.1-0.3-0.1c-0.1,0-0.1-0.1-0.1-0.1c-0.4-0.3-0.8-0.7-1.2-1.1C47.5,8,45.3,6.1,42.9,6.1z"/>
				</g>
			</g>
		</g>
	</g>
</g>
</svg>
