<?xml version="1.0" encoding="utf-8"?>
<!-- Generator: Adobe Illustrator 27.0.1, SVG Export Plug-In . SVG Version: 6.00 Build 0)  -->
<svg version="1.1" id="Layer_1" xmlns="http://www.w3.org/2000/svg" xmlns:xlink="http://www.w3.org/1999/xlink" x="0px" y="0px"
	 viewBox="0 0 72 72" style="enable-background:new 0 0 72 72;" xml:space="preserve">
<style type="text/css">
	.st0{fill:#FFFFFF;}
	.st1{fill:#D8C6E1;}
</style>
<g>
	<g id="Group_584" transform="translate(0 0)">
		<path id="Path_11640" class="st0" d="M46.6,54.1l-2,0c-0.6,0-1,0.5-1,1.1s0.5,1.1,1,1.1l2,0c0.6,0,1-0.5,1-1.1
			C47.6,54.6,47.2,54.1,46.6,54.1"/>
		<path id="Path_11641" class="st0" d="M70.7,69.4l-5.5,0l0-39.2c3-1.2,5-4.2,5-7.6l0-6.5c0.1-0.3,0.1-0.6,0-0.9L62.7,1.4
			c-0.2-0.3-0.5-0.5-0.9-0.5l-51.7,0c-0.4,0-0.7,0.2-0.9,0.5L1.8,15.3c0,0,0,0,0,0.1c-0.1,0.1-0.1,0.3-0.1,0.5l0,6.9
			c0,3.4,2.1,6.5,5.1,7.6l0,39.2l-5.5,0c-0.6,0-1,0.5-1,1.1c0,0.6,0.5,1.1,1,1.1l69.4,0c0.6,0,1-0.5,1-1.1
			C71.7,69.9,71.3,69.4,70.7,69.4 M19.1,3l-3.8,11.7l-10.9,0L10.7,3L19.1,3z M61.3,3l6.3,11.7l-10.9,0L52.9,3L61.3,3z M68.2,22.6
			c0,3.3-2.5,6-5.6,6c-3.1,0-5.6-2.7-5.6-6l0,0l0-5.8l11.3,0L68.2,22.6z M54.9,22.6c0,3.3-2.5,6-5.6,6c-3.1,0-5.6-2.7-5.7-6l0,0
			l0-5.8l11.3,0L54.9,22.6z M41.6,22.6c0,3.3-2.5,6-5.6,6c-3.1,0-5.6-2.7-5.6-6l0,0l0-5.8l11.3,0L41.6,22.6z M28.3,22.6
			c0,3.3-2.5,6-5.6,6s-5.6-2.7-5.6-6l0,0l0-5.8l11.3,0L28.3,22.6z M50.8,3l3.8,11.7l-11,0L42.3,3L50.8,3z M40.3,3l1.2,11.7l-11.1,0
			L31.7,3L40.3,3z M28.4,14.7l-11,0L21.2,3l8.5,0L28.4,14.7z M3.7,16.9l11.3,0l0,5.8c0,3.3-2.5,6-5.6,6c-3.1,0-5.6-2.7-5.6-6l0,0
			L3.7,16.9z M40.5,57.5l-24.3,0l0-16.5l24.3,0L40.5,57.5z M16.3,59.6l24.3,0l0,9.8l-24.3,0L16.3,59.6z M42.5,41l13.2,0l0,28.4
			l-13.2,0L42.5,41z M57.8,69.4l0-29.5c0-0.6-0.5-1.1-1-1.1l0,0l-15.2,0c-0.1,0-0.1,0-0.2,0c-0.1,0-0.1,0-0.2,0l-25.9,0
			c-0.6,0-1,0.5-1,1.1l0,0l0,29.5l-5.4,0l0-38.7c0.2,0,0.3,0.1,0.5,0.1c2.8,0,5.3-1.6,6.7-4.2c2,3.9,6.6,5.3,10.3,3.2
			c1.3-0.7,2.3-1.8,3-3.2c2,3.9,6.6,5.3,10.3,3.2c1.3-0.7,2.3-1.8,3-3.2c2,3.9,6.6,5.3,10.3,3.2c1.3-0.7,2.3-1.8,3-3.2
			c1.3,2.6,3.9,4.2,6.7,4.2c0.2,0,0.4,0,0.6-0.1l0,38.8L57.8,69.4z"/>
		<path id="Path_11642" class="st1" d="M41.5,14.7L40.3,3l-8.5,0l-1.3,11.7L41.5,14.7z"/>
		<path id="Path_11643" class="st1" d="M28.4,14.7L29.7,3l-8.5,0l-3.8,11.7L28.4,14.7z"/>
		<path id="Path_11644" class="st1" d="M67.6,14.7L61.3,3l-8.3,0l3.8,11.7L67.6,14.7z"/>
		<path id="Path_11645" class="st1" d="M10.7,3L4.4,14.7l10.9,0L19.1,3L10.7,3z"/>
		<path id="Path_11646" class="st1" d="M50.8,3l-8.5,0l1.3,11.7l11,0L50.8,3z"/>
		<path id="Path_11647" class="st1" d="M3.7,16.9l0,5.8c0,3.3,2.5,6,5.6,6s5.6-2.7,5.6-6l0-5.8L3.7,16.9z"/>
		<path id="Path_11648" class="st1" d="M30.3,22.6c0,3.3,2.5,6,5.6,6c3.1,0,5.6-2.7,5.6-6l0-5.8l-11.3,0L30.3,22.6z"/>
		<path id="Path_11649" class="st1" d="M17,22.6c0,3.3,2.5,6,5.6,6s5.6-2.7,5.6-6l0-5.8l-11.3,0L17,22.6z"/>
		<path id="Path_11650" class="st1" d="M43.6,22.6c0,3.3,2.5,6,5.7,6c3.1,0,5.6-2.7,5.6-6l0-5.8l-11.3,0L43.6,22.6z"/>
		<path id="Path_11651" class="st1" d="M62.6,28.6c3.1,0,5.6-2.7,5.6-6l0-5.8l-11.3,0l0,5.8C56.9,25.9,59.5,28.6,62.6,28.6"/>
	</g>
</g>
</svg>
