<?xml version="1.0" encoding="utf-8"?>
<!-- Generator: Adobe Illustrator 27.0.1, SVG Export Plug-In . SVG Version: 6.00 Build 0)  -->
<svg version="1.1" id="Layer_1" xmlns="http://www.w3.org/2000/svg" xmlns:xlink="http://www.w3.org/1999/xlink" x="0px" y="0px"
	 viewBox="0 0 72 72" style="enable-background:new 0 0 72 72;" xml:space="preserve">
<style type="text/css">
	.st0{fill:#FFFFFF;}
	.st1{fill:#D8C6E1;}
</style>
<g>
	<g id="Group_578">
		<path id="Path_11623" class="st0" d="M31.5,16.3c3.9,0,7.1-3.2,7.1-7.2V7.3c0.1-4-3.1-7.2-7-7.3s-7.2,3.1-7.2,7.1
			c0,0.1,0,0.1,0,0.2v1.9C24.4,13.1,27.6,16.3,31.5,16.3 M26.5,7.3c0-2.8,2.2-5,5-5c2.7,0,5,2.2,5,5v1.9c0,2.8-2.2,5-5,5s-5-2.2-5-5
			V7.3z"/>
		<path id="Path_11624" class="st0" d="M21.4,29.5l0,3v0.1c-0.8-0.3-1.6-0.5-2.4-0.5c-3.9,0-7.1,3.2-7.1,7.2v1.9
			c-0.1,4,3.1,7.2,7,7.3s7.2-3.1,7.3-7.1c0-0.1,0-0.1,0-0.2v-1.9c0-2.1-0.9-4-2.5-5.4l-0.1-1.4l0-3.6c0-0.4-0.2-0.8-0.6-1
			c-5.5-2.8-10.3-6.8-14-11.6c-0.5-0.7-0.6-1.5-0.3-2.3c0.3-0.8,1-1.5,1.8-1.8c0.9-0.3,1.9-0.1,2.5,0.6c4.9,4.5,10.9,7.7,17.4,9.4
			c0.8,0.2,1.7,0.2,2.5,0c6.5-1.6,12.4-4.9,17.4-9.3c0.7-0.6,1.6-0.8,2.5-0.5c0.8,0.2,1.5,0.9,1.8,1.7c0.3,0.9,0.1,1.8-0.4,2.5
			c-3.9,4.7-8.6,8.6-13.9,11.5c-0.3,0.2-0.6,0.6-0.6,1c0,0,0,2.4,0,3.9c-2.6,1.1-4.2,3.7-4.2,6.5v1.9c0,4,3.2,7.2,7.1,7.2
			s7.1-3.2,7.1-7.2v-1.9c0-4-3.2-7.2-7.1-7.2c-0.3,0-0.5,0-0.7,0.1c0-0.9,0-2,0-2.7c5.4-3,10.1-7,14.1-11.8c1-1.3,1.3-3,0.8-4.5
			c-0.8-2.5-3.5-3.9-6.1-3.1c-0.7,0.2-1.3,0.6-1.8,1C44,15.4,38.3,18.4,32.2,20c-0.4,0.1-0.9,0.1-1.3,0c-6.1-1.6-11.8-4.6-16.4-8.8
			c-1.2-1.2-3-1.6-4.7-1.1c-1.5,0.5-2.7,1.6-3.2,3.1c-0.5,1.5-0.3,3.1,0.6,4.3C11.1,22.5,15.9,26.6,21.4,29.5 M23.9,41.2
			c0,2.8-2.2,5-5,5s-5-2.2-5-5v-1.9c0-2.8,2.2-5,5-5s5,2.2,5,5V41.2z M47.4,39.3v1.9c0,2.8-2.2,5-5,5c-2.7,0-5-2.2-5-5v-1.9
			c0-2.8,2.2-5,5-5C45.1,34.3,47.4,36.5,47.4,39.3C47.4,39.3,47.4,39.3,47.4,39.3"/>
		<path id="Path_11625" class="st0" d="M70.3,69.5H53.7v-7.9l15.8-16.3c1.9-2,1.9-5.2-0.1-7.2c-1.9-1.8-4.9-1.9-6.9-0.2l-8.8,8
			c-3.1,2.8-7.1,4.3-11.2,4.3h0c-4.3,0-8.5,1.7-11.5,4.8c-0.1,0.1-0.1,0.1-0.2,0.2c-1.1-1.3-2.4-2.3-3.9-3.1c-5-2.5-10.8-2.5-15.7,0
			c-4.6,2.5-7.4,7.3-7.3,12.5l0,4.9H1.2c-0.6,0-1.1,0.5-1.1,1.1c0,0.6,0.5,1.1,1.1,1.1h69.1c0.6,0,1.1-0.5,1.1-1.1
			C71.4,70,70.9,69.5,70.3,69.5 M35.2,69.5l0.2-6.4c0-0.6-0.4-1.1-1-1.1c-0.6,0-1.1,0.5-1.1,1L33,69.5h-4.8v-1.7
			c-0.1-3.6,1-7.1,3.1-10c0.1-0.1,0.1-0.1,0.2-0.2c0.3-0.3,0.5-0.7,0.8-1c2.7-2.7,6.3-4.2,10.1-4.2h0c4.6,0,9.1-1.7,12.6-4.8l8.8-8
			c1.2-1.1,3-1,4.1,0.2c1,1.1,1,2.9-0.1,4L51.8,60.5c-0.2,0.2-0.3,0.5-0.3,0.8v8.3L35.2,69.5z M11.8,61.7c-0.6,0-1.1,0.5-1.1,1.1
			l0,0v6.8H6l0-4.9c-0.1-4.4,2.3-8.4,6.1-10.5c4.3-2.2,9.4-2.2,13.7,0c1.3,0.7,2.5,1.7,3.5,2.9c-2.2,3.2-3.3,6.9-3.2,10.8v1.7H12.9
			v-6.8C12.9,62.1,12.4,61.7,11.8,61.7L11.8,61.7"/>
		<path id="Path_11626" class="st1" d="M28.3,67.8v1.7H33l0.2-6.5c0.1-0.6,0.5-1,1.1-1c0.6,0,1.1,0.5,1,1.1l-0.2,6.4h16.3v-8.3
			c0-0.3,0.1-0.6,0.3-0.8l16.1-16.6c1.1-1.1,1.1-3,0-4.1c-1.1-1.1-2.8-1.1-4-0.1l-8.8,8c-3.5,3.1-7.9,4.8-12.6,4.8h0
			c-3.8-0.1-7.4,1.4-10.1,4.2c-0.3,0.3-0.6,0.6-0.8,1c-0.1,0.1-0.1,0.2-0.2,0.2C29.2,60.6,28.1,64.2,28.3,67.8"/>
		<path id="Path_11627" class="st1" d="M37.4,41.2c0,2.8,2.2,5,5,5c2.7,0,5-2.2,5-5v-1.9c0-2.8-2.2-5-5-5c-2.7,0-5,2.2-5,5
			c0,0,0,0,0,0V41.2z"/>
	</g>
</g>
</svg>
