<?xml version="1.0" encoding="utf-8"?>
<!-- Generator: Adobe Illustrator 27.7.0, SVG Export Plug-In . SVG Version: 6.00 Build 0)  -->
<svg version="1.1" id="Layer_1" xmlns="http://www.w3.org/2000/svg" xmlns:xlink="http://www.w3.org/1999/xlink" x="0px" y="0px"
	 viewBox="0 0 72 72" style="enable-background:new 0 0 72 72;" xml:space="preserve">
<style type="text/css">
	.st0{fill:#D8C6E1;}
	.st1{fill:#662D91;}
</style>
<g>
	<path class="st0" d="M22.5,20.2c6.4-0.4,11.7-2.9,16.2-7.1c2.8,4.4,6.4,7,11.3,7.1c0,0,0.5,8.6-0.1,10.6c-1.3,4.1-3.4,6.8-6.1,8.3
		c-1.3,0.7-0.9,2.3-0.4,3.7c0.1,0.1,0.1,0.3,0.2,0.4c0.6,1.8,2.1,3.2,4,3.6l-0.4-0.1c0,14.1-21.5,14.1-21.5,0l-0.5,0.1
		c1.8-0.5,3.3-1.8,4-3.5l0.2-0.5c0.5-1.2,1.2-2.7,0.2-3.5l-0.2-0.1c-1.2-0.7-2.3-1.6-3.3-2.8l-3.9,0.9c-1.7,0.3-2.6-0.8-2.6-2.2
		l0.2-1.8c1.5,0,2.8-1.2,2.8-2.8L22.5,20.2z"/>
	<path class="st0" d="M30.6,1.8c-6,0-10.8,4.7-10.8,10.4l-0.2,5.5c1.5,0,2.8,1.2,2.8,2.8l0.1-0.4c6.4-0.4,11.7-2.9,16.2-7.1
		c2.8,4.4,6.4,7,11.3,7.1l0.2,0.4c0-1.5,1.2-2.8,2.8-2.8l0.4-5.5c0-5.7-4.8-10.4-10.8-10.4H30.6z"/>
	<g>
		<g>
			<path class="st1" d="M68.9,71.4H3.8c-0.6,0-1.1-0.5-1.1-1.1c0-11.9,8.3-21,22.1-24.5c1.5-0.4,2.7-1.4,3.2-2.9l0.2-0.5l2,0.7
				l-0.2,0.6c-0.8,2.1-2.5,3.7-4.7,4.2C13,51,5.4,59,4.9,69.3h62.9C67.3,58.9,59.7,51,47.3,47.9c-2.2-0.6-4-2.2-4.7-4.3l-0.2-0.4
				l2-0.7l0.1,0.2c0.6,1.6,1.8,2.7,3.3,3.1C61.7,49.3,70,58.5,70,70.3C70,70.9,69.5,71.4,68.9,71.4z"/>
			<path class="st1" d="M36.4,58.4c-3.1,0-5.9-1-8.1-2.9c-2.4-2.1-3.7-5.2-3.7-8.8h2.1c0,6.6,5,9.5,9.7,9.5s9.7-3,9.7-9.5h2.1
				C48.2,54.4,42.2,58.4,36.4,58.4z"/>
		</g>
		<path class="st1" d="M42.4,43.1c-0.4-1.1-1.3-3.7,0.9-5c2.6-1.5,4.5-4.1,5.6-7.7c0.4-1.2,0.3-6,0.1-9.3c-4.2-0.4-7.7-2.6-10.4-6.5
			c-4.6,3.9-9.9,6.1-15.9,6.5l-0.1-2.1c6-0.4,11.1-2.6,15.5-6.8c0.2-0.2,0.5-0.3,0.9-0.3c0.3,0,0.6,0.2,0.8,0.5
			c2.7,4.3,6.1,6.5,10.4,6.6c0.6,0,1,0.5,1,1c0.1,0.9,0.5,8.8-0.2,11c-1.3,4.1-3.5,7.1-6.6,8.9c-0.3,0.2-0.6,0.5,0.1,2.4L42.4,43.1z
			"/>
		<path class="st1" d="M30.3,43.1l-2-0.7l0.2-0.4c0.3-0.9,0.6-1.6,0.3-1.9l1.4-1.6c1.5,1.2,0.8,3.1,0.3,4.3L30.3,43.1z"/>
		<path class="st1" d="M53.6,34.3h-0.7c-2.1,0-3.8-1.7-3.8-3.8v-9.9c0-2.1,1.7-3.8,3.8-3.8h0.7c2.1,0,3.8,1.7,3.8,3.8v9.9
			C57.5,32.6,55.8,34.3,53.6,34.3z M52.9,18.8c-0.9,0-1.7,0.8-1.7,1.7v9.9c0,0.9,0.8,1.7,1.7,1.7h0.7c0.9,0,1.7-0.8,1.7-1.7v-9.9
			c0-0.9-0.8-1.7-1.7-1.7H52.9z"/>
		<path class="st1" d="M19.6,34.3h-0.7c-2.1,0-3.8-1.7-3.8-3.8v-9.9c0-2.1,1.7-3.8,3.8-3.8h0.7c2.1,0,3.8,1.7,3.8,3.8v9.9
			C23.5,32.6,21.7,34.3,19.6,34.3z M18.9,18.8c-0.9,0-1.7,0.8-1.7,1.7v9.9c0,0.9,0.8,1.7,1.7,1.7h0.7c0.9,0,1.7-0.8,1.7-1.7v-9.9
			c0-0.9-0.8-1.7-1.7-1.7H18.9z"/>
		<path class="st1" d="M54.4,17.8h-2.1v-5.5c0-5.1-4.4-9.3-9.7-9.3H30.6c-5.4,0-9.7,4.2-9.7,9.3v5.5h-2.1v-5.5
			c0-6.3,5.3-11.5,11.9-11.5h11.9c6.5,0,11.9,5.1,11.9,11.5V17.8z"/>
		<path class="st1" d="M21.6,38.3c-1,0-1.7-0.4-2.1-0.7c-0.7-0.6-1.1-1.5-1.1-2.6v-1.6h2.1V35c0,0.4,0.1,0.8,0.4,1
			c0.3,0.2,0.7,0.2,1,0.2l12-2.7l0.5,2.1l-12.1,2.7C22.1,38.3,21.8,38.3,21.6,38.3z"/>
		<path class="st1" d="M36.5,42.1c-2.5,0-5.1-0.6-7.7-1.9c-1.4-0.8-2.6-1.8-3.6-3.1l1.7-1.4c0.8,1,1.8,1.9,3,2.5
			c4.9,2.4,9.5,2.2,14.1-0.5l1.1,1.8C42.2,41.2,39.4,42.1,36.5,42.1z"/>
		<path class="st1" d="M36.4,37.7c-2,0-3.7-1.6-3.7-3.7s1.6-3.7,3.7-3.7s3.7,1.6,3.7,3.7S38.4,37.7,36.4,37.7z M36.4,32.5
			c-0.8,0-1.5,0.7-1.5,1.5s0.7,1.5,1.5,1.5c0.8,0,1.5-0.7,1.5-1.5S37.2,32.5,36.4,32.5z"/>
	</g>
</g>
</svg>
