<?xml version="1.0" encoding="utf-8"?>
<!-- Generator: Adobe Illustrator 27.7.0, SVG Export Plug-In . SVG Version: 6.00 Build 0)  -->
<svg version="1.1" id="Layer_1" xmlns="http://www.w3.org/2000/svg" xmlns:xlink="http://www.w3.org/1999/xlink" x="0px" y="0px"
	 viewBox="0 0 72 72" style="enable-background:new 0 0 72 72;" xml:space="preserve">
<style type="text/css">
	.st0{fill:#D8C6E1;}
	.st1{fill:#662D91;}
</style>
<g>
	<path class="st0" d="M41,27.2c0.2-0.7,0.6-1.3,1.1-1.9c0.8-0.8,1.8-1.1,2.9-1.1c0.9,0,1.8,0.3,2.4,0.9l9.5-9.5
		c0.1-0.1,0.3-0.3,0.4-0.4l2.9-2.9c0.7-0.7,1.1-1.6,1.1-2.5c0-0.9-0.4-1.9-1.1-2.5c-1.4-1.4-3.6-1.4-5,0L38.1,24.5
		c0.4,0.2,0.8,0.5,1.2,0.9L41,27.2z"/>
	<path class="st0" d="M57.2,28.4c0.2-0.2,0.3-0.3,0.4-0.4l5.9-6c0.7-0.7,1-1.6,1-2.5c0-0.9-0.4-1.9-1-2.5c-1.3-1.3-3.4-1.4-4.8-0.3
		c0,0-0.1,0.1-0.1,0.1c0,0,0,0,0,0c0,0-0.1,0.1-0.1,0.1L49,26.5l4.9,5.2L57.2,28.4z"/>
	<path class="st0" d="M63.6,34.9c0.7-0.7,1.1-1.6,1.1-2.5c0-1-0.4-1.8-1-2.5c-1.3-1.3-3.4-1.4-4.8-0.3c0,0-0.1,0.1-0.1,0.1
		c0,0,0,0,0,0c0,0-0.1,0.1-0.1,0.1l-3.4,3.4l4.9,5.2L63.6,34.9z"/>
	<path class="st0" d="M29.6,62.1c-0.6-1.2-0.7-2.5-0.3-3.8c0.6-1.8,2.3-3,4.2-3l5.5-0.1L25.2,40.5c-1.6-1.6-1.5-4.3,0.2-5.8
		c0.6-0.5,1.2-0.9,1.9-1l-0.7-0.8c-0.8-0.8-1.2-1.8-1.1-2.9c0-1.1,0.5-2.1,1.3-2.9c1.6-1.5,4-1.5,5.6,0c0.2-0.7,0.6-1.4,1.1-1.9
		c0.6-0.6,1.4-0.9,2.2-1.1l13.8-13.9c0.4-0.6,0.7-1.4,0.7-2.2c0-0.9-0.4-1.8-1.1-2.5c-0.7-0.7-1.6-1-2.5-1c0,0,0,0,0,0
		c-0.9,0-1.8,0.4-2.5,1L20.7,28.9c0,0,0,0-0.1,0c0,0-0.1,0-0.1,0.1c0,0-0.1,0-0.1,0.1c0,0-0.1,0-0.1,0c0,0-0.1,0-0.1,0
		c0,0-0.1,0-0.1,0c0,0-0.1,0-0.1,0c0,0,0,0,0,0c0,0,0,0,0,0c0,0,0,0,0,0c0,0,0,0,0,0c-0.3,0-0.6-0.2-0.8-0.4c0,0,0,0,0,0
		c0,0-0.1-0.1-0.1-0.1c0,0,0-0.1,0-0.1c0,0,0-0.1,0-0.1c0,0,0-0.1,0-0.1c0,0,0,0,0,0l-0.5-11.5c-0.1-1.8-1.2-3.3-2.9-3.8
		c-1.2-0.4-2.4-0.2-3.5,0.4c-1,0.6-1.8,1.6-2,2.8L4.7,44.1c-1.1,5.7,0.6,11.4,4.7,15.5l2,2c5.8,5.8,14.8,6.9,21.8,2.9l-0.5-0.1
		C31.3,64.1,30.2,63.2,29.6,62.1z"/>
	<path class="st1" d="M43.4,4.8c1.8-1.8,4.7-1.8,6.5,0c0.9,0.9,1.3,2.1,1.3,3.2c0,0.2,0,0.3,0,0.5l1-1c-0.1-1.3-0.7-2.5-1.6-3.4
		c-1.1-1.1-2.5-1.6-3.9-1.6c0,0,0,0,0,0c-1.5,0-2.9,0.6-3.9,1.6L20.9,25.9l0.1,1.4L43.4,4.8z"/>
	<path class="st1" d="M20.1,29.2c0,0,0.1,0,0.1,0C20.2,29.2,20.2,29.2,20.1,29.2z"/>
	<path class="st1" d="M20.3,29.2c0,0,0.1,0,0.1,0C20.4,29.2,20.4,29.2,20.3,29.2z"/>
	<path class="st1" d="M20.5,29.1C20.5,29.1,20.6,29.1,20.5,29.1C20.6,29.1,20.5,29.1,20.5,29.1z"/>
	<path class="st1" d="M20.7,29C20.7,29,20.7,29,20.7,29L44.1,5.5c0.7-0.7,1.5-1,2.5-1c0,0,0,0,0,0c1,0,1.8,0.4,2.5,1
		c0.7,0.7,1.1,1.6,1.1,2.5c0,0.8-0.3,1.6-0.7,2.2L35.6,24.1c0,0,0,0,0,0L51.2,8.5c0-0.2,0-0.3,0-0.5c0-1.2-0.5-2.3-1.3-3.2
		c-1.8-1.8-4.7-1.8-6.5,0L21,27.3l0,0.9C21,28.5,20.9,28.8,20.7,29z"/>
	<path class="st1" d="M19.2,28.8C19.2,28.8,19.2,28.8,19.2,28.8C19.2,28.8,19.2,28.8,19.2,28.8z"/>
	<path class="st1" d="M20,29.2C20,29.2,20,29.2,20,29.2C20,29.2,20,29.2,20,29.2C20,29.2,20,29.2,20,29.2z"/>
	<path class="st1" d="M19.1,28.5C19.1,28.6,19.1,28.6,19.1,28.5C19.1,28.6,19.1,28.6,19.1,28.5z"/>
	<path class="st1" d="M19,28.3c0,0,0,0.1,0,0.1C19,28.4,19,28.4,19,28.3z"/>
	<path class="st1" d="M52.1,9l2.5-2.5c1.8-1.8,4.7-1.8,6.5,0c0.9,0.9,1.3,2.1,1.3,3.2c0,1.2-0.5,2.4-1.3,3.2L60,14.1
		c0.5-0.1,1-0.1,1.5-0.1l0.3-0.3c1-1,1.6-2.5,1.6-3.9s-0.6-2.9-1.6-3.9c-2.2-2.2-5.7-2.2-7.9,0l-1.7,1.7c0,0.2,0,0.4,0,0.5
		C52.2,8.4,52.2,8.7,52.1,9z"/>
	<path class="st1" d="M38.1,24.5C38.1,24.5,38.1,24.5,38.1,24.5L55.3,7.2c1.4-1.4,3.7-1.4,5,0c0.7,0.7,1.1,1.6,1.1,2.5
		c0,0.9-0.4,1.9-1.1,2.5l-2.9,2.9c0.8-0.6,1.7-1,2.6-1.2l1.1-1.1c0.9-0.9,1.3-2.1,1.3-3.2c0-1.2-0.5-2.4-1.3-3.2
		c-1.8-1.8-4.7-1.8-6.5,0L52.1,9c-0.2,0.9-0.6,1.8-1.2,2.6L38.1,24.5z"/>
	<path class="st1" d="M58.6,16.9C58.6,16.9,58.6,16.9,58.6,16.9C58.6,16.9,58.6,16.9,58.6,16.9z"/>
	<path class="st1" d="M50.2,11L52.1,9c0.1-0.3,0.1-0.6,0.1-0.9c0-0.2,0-0.4,0-0.5l-1,1C51.1,9.4,50.7,10.2,50.2,11z"/>
	<path class="st1" d="M37,24.1L50.2,11c0.6-0.7,0.9-1.6,1-2.4L35.6,24.1C36.1,24,36.6,24,37,24.1z"/>
	<path class="st1" d="M38.1,24.5L51,11.6c0.6-0.8,1-1.6,1.2-2.6L50.2,11L37,24.1C37.4,24.2,37.8,24.3,38.1,24.5z"/>
	<path class="st1" d="M36.3,26.1c-0.1,0-0.1,0-0.2,0C36.1,26.1,36.2,26.1,36.3,26.1z"/>
	<path class="st1" d="M64.2,16.3c0.9,0.9,1.3,2.1,1.3,3.2c0,1.2-0.4,2.3-1.3,3.2l-4.1,4.1c0.5-0.1,1-0.1,1.5-0.1l3.3-3.3
		c1-1,1.6-2.4,1.6-3.9c0-1.5-0.6-2.9-1.6-3.9c-1-1-2.2-1.5-3.4-1.6l-1,1C61.8,14.9,63.2,15.3,64.2,16.3z"/>
	<path class="st1" d="M58.6,16.9c0,0,0.1-0.1,0.1-0.1c1.4-1.1,3.5-1,4.8,0.3c0.7,0.7,1,1.6,1,2.5c0,1-0.4,1.8-1,2.5l-5.9,6
		c0.8-0.6,1.7-1,2.6-1.2l4.1-4.1c0.9-0.9,1.3-2.1,1.3-3.2c0-1.2-0.4-2.4-1.3-3.2c-1-1-2.4-1.5-3.7-1.3l-1.7,1.7
		C58.7,16.8,58.7,16.8,58.6,16.9z"/>
	<path class="st1" d="M58.5,17c0,0,0.1-0.1,0.1-0.1C58.5,17,58.5,17,58.5,17z"/>
	<path class="st1" d="M58.7,29.7C58.7,29.7,58.7,29.7,58.7,29.7C58.7,29.7,58.7,29.7,58.7,29.7z"/>
	<path class="st1" d="M60,14.1l-1.9,2c0.7-0.6,1.5-0.9,2.4-1l1-1C61,13.9,60.5,14,60,14.1z"/>
	<path class="st1" d="M48.3,25.8l0.7,0.7l9.5-9.5c0,0,0.1-0.1,0.1-0.1c0,0,0,0,0,0c0.1-0.1,0.1-0.1,0.2-0.2l1.7-1.7
		c-0.9,0.1-1.7,0.4-2.4,1c-0.1,0.1-0.2,0.2-0.3,0.3L48.3,25.8z"/>
	<path class="st1" d="M57,15.6l-9.5,9.5c0.1,0.1,0.3,0.2,0.4,0.4l0.3,0.3l9.5-9.5c0.1-0.1,0.2-0.2,0.3-0.3l1.9-2
		c-0.9,0.2-1.8,0.5-2.6,1.2C57.3,15.3,57.2,15.5,57,15.6z"/>
	<path class="st1" d="M10.6,62.3l-2-2C4.4,56,2.5,49.9,3.7,44v-0.1L9.1,16c0.6-3.1,3.8-4.9,6.8-4c2.1,0.7,3.5,2.6,3.6,4.7L20,26.9
		l1-1l-0.4-9.2c-0.1-2.6-1.8-4.8-4.2-5.6c-1.7-0.6-3.6-0.4-5.1,0.5c-1.5,0.9-2.6,2.4-3,4.2l-5.4,28C1.5,50,3.4,56.5,7.9,61l2,2
		c3.9,3.9,9,5.9,14.2,5.9c4.1,0,8.2-1.2,11.7-3.7l-1.3-0.3C27.1,69.6,17.1,68.7,10.6,62.3z"/>
	<path class="st1" d="M20.6,29.1C20.6,29,20.7,29,20.6,29.1C20.7,29,20.6,29,20.6,29.1z"/>
	<path class="st1" d="M20.3,29.2C20.3,29.2,20.3,29.2,20.3,29.2C20.3,29.2,20.3,29.2,20.3,29.2z"/>
	<path class="st1" d="M20,29.2c-0.3,0-0.5-0.1-0.7-0.3c0,0-0.1-0.1-0.1-0.2C19.4,29.1,19.7,29.3,20,29.2z"/>
	<path class="st1" d="M20.1,29.2C20.1,29.2,20.1,29.2,20.1,29.2C20.1,29.2,20.1,29.2,20.1,29.2C20.1,29.2,20.1,29.2,20.1,29.2z"/>
	<path class="st1" d="M19,28.5C19.1,28.5,19.1,28.5,19,28.5C19.1,28.5,19.1,28.5,19,28.5z"/>
	<path class="st1" d="M11.3,61.5l-2-2c-4-4-5.8-9.8-4.7-15.5l5.4-27.9c0.2-1.2,1-2.2,2-2.8c1-0.6,2.3-0.7,3.5-0.4
		c1.7,0.6,2.8,2.1,2.9,3.8L19,28.3c0,0,0,0,0,0c0-0.3,0.1-0.6,0.3-0.8l0.6-0.6l-0.5-10.1c-0.1-2.2-1.5-4-3.6-4.7c-3-1-6.2,0.9-6.8,4
		L3.7,43.9V44c-1.2,5.9,0.7,12,4.9,16.3l2,2c6.5,6.5,16.5,7.3,23.9,2.5l-1.4-0.3C26.1,68.4,17.1,67.3,11.3,61.5z"/>
	<path class="st1" d="M20.4,29.1C20.5,29.1,20.5,29.1,20.4,29.1C20.5,29.1,20.5,29.1,20.4,29.1z"/>
	<path class="st1" d="M19.1,28.6c0,0,0,0.1,0.1,0.1C19.2,28.7,19.1,28.7,19.1,28.6z"/>
	<polygon class="st1" points="20,28.2 21,27.3 20.9,25.9 20,26.9 	"/>
	<path class="st1" d="M19,28.3c0,0,0,0.1,0,0.1c0,0,0,0.1,0,0.1c0,0,0,0.1,0,0.1c0,0,0,0.1,0.1,0.1c0,0,0,0,0,0
		c0,0.1,0.1,0.1,0.1,0.2c0.2,0.2,0.4,0.3,0.7,0.3c0,0,0,0,0,0c0,0,0.1,0,0.1,0c0,0,0.1,0,0.1,0c0,0,0.1,0,0.1,0c0,0,0.1,0,0.1,0
		c0,0,0.1,0,0.1,0c0,0,0.1,0,0.1-0.1c0,0,0.1,0,0.1-0.1c0.2-0.2,0.4-0.5,0.3-0.8l0-0.9l-1,1L20,26.9l-0.6,0.6
		C19.1,27.7,19,28,19,28.3z"/>
	<path class="st1" d="M64.3,29.1c0.9,0.9,1.3,2.1,1.3,3.2c0,1.2-0.4,2.3-1.3,3.2l-3.5,3.5l0.7,0.7l3.5-3.5c1.1-1.1,1.6-2.5,1.6-3.9
		c0-1.5-0.6-2.9-1.6-3.9c-1-1-2.2-1.5-3.4-1.6l-1,1C61.9,27.7,63.3,28.1,64.3,29.1z"/>
	<path class="st1" d="M58.6,29.8C58.7,29.7,58.7,29.7,58.6,29.8C58.7,29.7,58.7,29.7,58.6,29.8z"/>
	<path class="st1" d="M58.8,29.7C58.8,29.6,58.8,29.6,58.8,29.7c1.5-1.2,3.6-1.1,4.9,0.2c0.7,0.7,1,1.5,1,2.5c0,1-0.4,1.8-1.1,2.5
		l-3.5,3.5l0.7,0.7l3.5-3.5c0.9-0.9,1.3-2.1,1.3-3.2c0-1.2-0.4-2.3-1.3-3.2c-1-1-2.4-1.5-3.7-1.3l-1.7,1.7
		C58.9,29.6,58.8,29.6,58.8,29.7z"/>
	<path class="st1" d="M59.4,40.5C59.4,40.6,59.4,40.6,59.4,40.5L59.4,40.5L59.4,40.5C59.4,40.5,59.4,40.5,59.4,40.5z"/>
	<path class="st1" d="M59.4,40.5L59.4,40.5l-0.1-0.2C59.3,40.4,59.3,40.5,59.4,40.5z"/>
	<path class="st1" d="M60.1,26.9l-1.9,1.9c0.7-0.6,1.6-0.9,2.4-1l1-1C61.1,26.7,60.6,26.8,60.1,26.9z"/>
	<path class="st1" d="M54.5,32.5l0.7,0.7l3.4-3.4c0,0,0.1-0.1,0.1-0.1c0,0,0,0,0,0c0,0,0.1-0.1,0.2-0.2l1.7-1.7
		c-0.9,0.1-1.7,0.4-2.4,1c-0.1,0.1-0.2,0.2-0.3,0.3L54.5,32.5z"/>
	<path class="st1" d="M57.2,28.4l-3.3,3.3l0.7,0.7l3.3-3.3c0.1-0.1,0.2-0.2,0.3-0.3l1.9-1.9c-0.9,0.2-1.8,0.5-2.6,1.2
		C57.4,28.1,57.3,28.2,57.2,28.4z"/>
	<path class="st1" d="M25.9,39.8c-1.2-1.2-1.1-3.2,0.1-4.4c0.6-0.6,1.3-0.8,2.1-0.8l-0.9-0.9c-0.7,0.2-1.4,0.5-1.9,1
		c-1.6,1.6-1.7,4.2-0.2,5.8l13.9,14.7l1.4,0L25.9,39.8z"/>
	<path class="st1" d="M26,35.4c-1.2,1.2-1.3,3.1-0.1,4.4l14.5,15.4l0.9,0c0.3,0,0.5,0.1,0.7,0.2L26.6,39.1c-0.8-0.8-0.8-2.2,0.1-3
		c0.8-0.8,2.2-0.8,3,0.1l-1.6-1.7C27.4,34.6,26.6,34.9,26,35.4z"/>
	<path class="st1" d="M42.4,56C42.4,56.1,42.4,56.1,42.4,56C42.4,56.1,42.4,56.1,42.4,56z"/>
	<path class="st1" d="M40.6,47.7c-0.1,0-0.1-0.1-0.2-0.1C40.5,47.7,40.5,47.7,40.6,47.7z"/>
	<path class="st1" d="M41.8,57.1C41.7,57.2,41.7,57.2,41.8,57.1C41.7,57.2,41.7,57.2,41.8,57.1z"/>
	<path class="st1" d="M40.9,47.9c0,0-0.1,0-0.1,0C40.9,47.9,40.9,47.9,40.9,47.9z"/>
	<path class="st1" d="M42.4,56.2C42.4,56.2,42.4,56.3,42.4,56.2C42.4,56.3,42.4,56.2,42.4,56.2z"/>
	<path class="st1" d="M41.1,47.9c0,0-0.1,0-0.1,0C41,47.9,41.1,47.9,41.1,47.9z"/>
	<path class="st1" d="M41.6,57.2c0,0-0.1,0-0.1,0C41.5,57.2,41.5,57.2,41.6,57.2z"/>
	<path class="st1" d="M42.1,56.9C42.1,56.9,42.1,56.9,42.1,56.9C42.1,56.9,42,57,42.1,56.9C42,57,42.1,57,42.1,56.9z"/>
	<path class="st1" d="M41.9,57C41.9,57.1,41.9,57.1,41.9,57C41.9,57.1,41.9,57.1,41.9,57z"/>
	<path class="st1" d="M42.2,56.8C42.2,56.8,42.2,56.8,42.2,56.8C42.2,56.8,42.2,56.8,42.2,56.8z"/>
	<path class="st1" d="M42.3,56.6C42.3,56.6,42.3,56.6,42.3,56.6C42.3,56.6,42.3,56.6,42.3,56.6z"/>
	<path class="st1" d="M42.4,56.4C42.4,56.4,42.3,56.5,42.4,56.4C42.3,56.5,42.4,56.4,42.4,56.4z"/>
	<path class="st1" d="M40.8,47.8c0,0-0.1,0-0.1-0.1C40.7,47.8,40.7,47.8,40.8,47.8z"/>
	<path class="st1" d="M41.7,47.8c0,0-0.1,0-0.1,0.1C41.6,47.8,41.6,47.8,41.7,47.8z"/>
	<path class="st1" d="M41.3,47.9c0,0-0.1,0-0.1,0C41.2,47.9,41.3,47.9,41.3,47.9z"/>
	<path class="st1" d="M41.5,47.9c0,0-0.1,0-0.1,0C41.4,47.9,41.5,47.9,41.5,47.9z"/>
	<path class="st1" d="M31.2,34.9C31.2,34.9,31.1,34.9,31.2,34.9l10.7,11.4L31.2,34.9z"/>
	<path class="st1" d="M28.6,33.6l-1.3-1.4c-1.2-1.2-1.1-3.2,0.1-4.4c1.2-1.2,3.2-1.1,4.4,0.1l0.4,0.4c0-0.1,0-0.2,0-0.3
		c0-0.3,0.1-0.7,0.2-1c-1.6-1.4-4-1.5-5.6,0c-0.8,0.8-1.3,1.8-1.3,2.9c0,1.1,0.4,2.1,1.1,2.9l0.7,0.8C27.7,33.6,28.2,33.6,28.6,33.6
		z"/>
	<path class="st1" d="M45.5,43.6c-0.1,0-0.1,0-0.2-0.1C45.4,43.6,45.4,43.6,45.5,43.6z"/>
	<path class="st1" d="M45.3,43.6c-0.1,0-0.1-0.1-0.2-0.1C45.2,43.5,45.2,43.5,45.3,43.6z"/>
	<path class="st1" d="M46.2,43.5c0,0-0.1,0-0.1,0.1C46.1,43.5,46.2,43.5,46.2,43.5z"/>
	<path class="st1" d="M45.7,43.7c-0.1,0-0.1,0-0.2,0C45.6,43.6,45.6,43.7,45.7,43.7z"/>
	<path class="st1" d="M46,43.6c-0.1,0-0.1,0-0.2,0C45.9,43.6,46,43.6,46,43.6z"/>
	<path class="st1" d="M45.9,43.6c-0.1,0-0.1,0-0.2,0C45.8,43.6,45.8,43.6,45.9,43.6z"/>
	<path class="st1" d="M41.8,47.6c0,0-0.1,0.1-0.2,0.1C41.7,47.7,41.8,47.7,41.8,47.6z"/>
	<path class="st1" d="M45.1,43.5c-0.1,0-0.1-0.1-0.2-0.1C45,43.4,45,43.4,45.1,43.5z"/>
	<path class="st1" d="M41,47.9C41,47.9,41,47.9,41,47.9C41,47.9,41,47.9,41,47.9z"/>
	<path class="st1" d="M41.4,47.9C41.4,47.9,41.3,47.9,41.4,47.9C41.3,47.9,41.4,47.9,41.4,47.9z"/>
	<path class="st1" d="M40.8,47.9C40.8,47.8,40.8,47.8,40.8,47.9C40.8,47.8,40.8,47.8,40.8,47.9z"/>
	<path class="st1" d="M40.6,47.8C40.6,47.8,40.6,47.7,40.6,47.8C40.6,47.7,40.6,47.8,40.6,47.8z"/>
	<path class="st1" d="M41.2,47.9C41.2,47.9,41.2,47.9,41.2,47.9C41.2,47.9,41.2,47.9,41.2,47.9C41.1,47.9,41.1,47.9,41.2,47.9z"/>
	<path class="st1" d="M41.6,47.8C41.6,47.8,41.5,47.8,41.6,47.8C41.5,47.8,41.6,47.8,41.6,47.8z"/>
	<path class="st1" d="M46.4,42L34.7,29.6c0,0,0,0,0,0L46.4,42z"/>
	<path class="st1" d="M31.8,27.9c-1.2-1.2-3.1-1.3-4.4-0.1c-1.2,1.2-1.3,3.1-0.1,4.4l1.3,1.4c0.9,0.1,1.8,0.5,2.5,1.2L28,31.5
		c-0.4-0.4-0.6-0.9-0.6-1.5c0-0.6,0.2-1.1,0.7-1.5c0.8-0.8,2.2-0.8,3,0.1l2.2,2.3c-0.7-0.7-1.1-1.7-1.1-2.6L31.8,27.9z"/>
	<polygon class="st1" points="29.7,36.2 40.4,47.6 29.7,36.3 	"/>
	<path class="st1" d="M30.4,35.6l-1.8-2c-0.4,0-0.9,0-1.3,0.1l0.9,0.9C29,34.6,29.8,34.9,30.4,35.6z"/>
	<path class="st1" d="M30.4,35.6C30.4,35.6,30.4,35.6,30.4,35.6l10.7,11.4L30.4,35.6c-0.6-0.7-1.5-1-2.3-1l1.6,1.7c0,0,0,0,0,0
		l10.7,11.4c0,0.1,0.1,0.1,0.2,0.1c0,0,0,0,0,0c0,0,0.1,0.1,0.1,0.1c0,0,0,0,0,0c0,0,0.1,0,0.1,0c0,0,0,0,0.1,0c0,0,0.1,0,0.1,0
		c0,0,0,0,0.1,0c0,0,0.1,0,0.1,0c0,0,0,0,0.1,0c0,0,0.1,0,0.1,0c0,0,0,0,0.1,0c0,0,0.1,0,0.1-0.1c0.1,0,0.1-0.1,0.2-0.1
		c0.4-0.4,0.4-1,0-1.4L31.1,34.8c-0.7-0.7-1.6-1.1-2.5-1.2L30.4,35.6z"/>
	<polygon class="st1" points="30.4,35.6 30.4,35.6 41.2,46.9 	"/>
	<path class="st1" d="M32.3,27.1c0.1,0.1,0.1,0.1,0.2,0.2l0.6,0.7c0.1-0.8,0.4-1.5,1-2c0.3-0.3,0.6-0.5,1-0.6
		c-0.1-0.3,0-0.7,0.3-0.9l0.3-0.3c-0.8,0.1-1.6,0.5-2.2,1.1C32.9,25.7,32.5,26.3,32.3,27.1z"/>
	<path class="st1" d="M38.5,26l2.3,2.5c0-0.1,0-0.2,0-0.3c0-0.3,0.1-0.7,0.2-1l-1.8-1.9c-0.3-0.4-0.7-0.6-1.2-0.9l-0.8,0.8
		C37.8,25.4,38.2,25.7,38.5,26z"/>
	<path class="st1" d="M35.1,25.3c-0.3,0.1-0.7,0.3-1,0.6c-0.6,0.6-0.9,1.3-1,2l1.6,1.6c-0.8-0.8-0.7-2.2,0.1-3
		c0.3-0.3,0.8-0.5,1.2-0.6c-0.2,0-0.5-0.1-0.7-0.3C35.2,25.6,35.1,25.5,35.1,25.3z"/>
	<path class="st1" d="M46.1,43.6C46.1,43.6,46,43.6,46.1,43.6C46,43.6,46.1,43.6,46.1,43.6z"/>
	<path class="st1" d="M45.9,43.6C45.9,43.6,45.9,43.6,45.9,43.6C45.9,43.6,45.9,43.6,45.9,43.6z"/>
	<path class="st1" d="M45.1,43.5C45.1,43.5,45.1,43.5,45.1,43.5C45.1,43.5,45.1,43.5,45.1,43.5z"/>
	<path class="st1" d="M40.9,28.5L38.5,26c-0.3-0.4-0.8-0.6-1.2-0.8l-0.5,0.5c-0.2,0.2-0.3,0.2-0.5,0.3c0.6,0,1.1,0.2,1.5,0.7
		l12.8,13.5L42,31.1C41.3,30.4,40.9,29.5,40.9,28.5z"/>
	<path class="st1" d="M45.7,43.7C45.7,43.7,45.7,43.6,45.7,43.7C45.7,43.6,45.7,43.7,45.7,43.7C45.7,43.7,45.7,43.7,45.7,43.7z"/>
	<path class="st1" d="M45.3,43.6C45.3,43.6,45.3,43.6,45.3,43.6C45.3,43.6,45.3,43.6,45.3,43.6z"/>
	<path class="st1" d="M45.5,43.6C45.5,43.6,45.5,43.6,45.5,43.6C45.5,43.6,45.5,43.6,45.5,43.6z"/>
	<path class="st1" d="M46.4,43.4c0,0-0.1,0.1-0.2,0.1C46.3,43.5,46.3,43.4,46.4,43.4z"/>
	<polygon class="st1" points="33.3,31 44.9,43.3 33.3,31 	"/>
	<polygon class="st1" points="35.6,24.1 35.6,24.1 35.4,24.4 	"/>
	<polygon class="st1" points="37.3,25.2 38.1,24.5 38.1,24.5 37.3,25.2 	"/>
	<polygon class="st1" points="37.3,25.2 37.3,25.2 36.8,25.8 	"/>
	<path class="st1" d="M37.3,25.2l0.8-0.8c-0.3-0.2-0.7-0.3-1.1-0.4l-0.9,0.9C36.5,25,36.9,25.1,37.3,25.2z"/>
	<path class="st1" d="M35.1,25.3c0.3-0.1,0.7-0.2,1-0.2l0.9-0.9c-0.5-0.1-0.9-0.1-1.4,0l-0.3,0.3C35.1,24.6,35,25,35.1,25.3z"/>
	<path class="st1" d="M37.3,25.2c-0.4-0.1-0.8-0.2-1.2-0.2l0,0l0,0c-0.3,0-0.7,0.1-1,0.2c0,0.2,0.1,0.4,0.3,0.5
		c0.2,0.2,0.4,0.3,0.7,0.3c0.1,0,0.1,0,0.2,0c0.2,0,0.4-0.1,0.5-0.3L37.3,25.2z"/>
	<path class="st1" d="M32.2,28.3l13.5,14.3L34,30.3c-0.6-0.7-0.9-1.5-0.8-2.4l-0.6-0.7c-0.1-0.1-0.1-0.1-0.2-0.2
		c-0.1,0.3-0.1,0.6-0.2,1C32.2,28.1,32.2,28.2,32.2,28.3z"/>
	<path class="st1" d="M34,30.3l11.7,12.4L32.2,28.3c0,1,0.4,1.9,1.1,2.6l11.7,12.4c0,0.1,0.1,0.1,0.2,0.1c0,0,0,0,0,0
		c0.1,0,0.1,0.1,0.2,0.1c0,0,0,0,0,0c0.1,0,0.1,0,0.2,0.1c0,0,0,0,0,0c0.1,0,0.1,0,0.2,0c0,0,0,0,0,0c0.1,0,0.1,0,0.2,0c0,0,0,0,0,0
		c0.1,0,0.1,0,0.2,0c0,0,0,0,0,0c0,0,0.1,0,0.1-0.1c0.1,0,0.1-0.1,0.2-0.1c0.4-0.4,0.4-1,0-1.4L34.7,29.6c0,0,0,0,0,0l-1.6-1.6
		C33.1,28.8,33.4,29.6,34,30.3z"/>
	<path class="st1" d="M65.6,44.2l-4.1-4.4l-0.7,0.7c0,0,0,0,0,0l4.1,4.3c4.9,5.2,4.7,13.5-0.5,18.4L63,64.6c-3,2.8-7.2,4-11.2,3
		l-0.1,0l-15.1-3.4c0,0.2-0.2,0.4-0.4,0.6c-0.1,0.1-0.3,0.2-0.4,0.3l15.7,3.5c1,0.2,2,0.3,3,0.3c3.4,0,6.6-1.3,9.1-3.6L65,64
		C70.7,58.7,70.9,49.8,65.6,44.2z"/>
	<path class="st1" d="M54.5,33.9l4.9,5.2l0.7-0.7l-4.9-5.2L54.5,33.9C54.5,33.9,54.5,33.9,54.5,33.9z"/>
	<path class="st1" d="M30.3,58.7c0.5-1.4,1.8-2.3,3.3-2.3l6.5-0.1l-0.9-1l-5.5,0.1c-1.9,0-3.6,1.2-4.2,3c-0.5,1.2-0.3,2.6,0.3,3.8
		c0.6,1.2,1.7,2,3,2.3l0.5,0.1c0.4-0.2,0.8-0.5,1.2-0.8l-1.5-0.3C30.7,62.9,29.5,60.7,30.3,58.7z"/>
	<path class="st1" d="M42.2,25.3c-0.5,0.5-0.9,1.2-1.1,1.9l0.9,0.9c0.1-0.8,0.4-1.5,1-2c1.1-1.1,2.8-1.1,4-0.2c0,0,0,0,0,0l0.7-0.7
		c-0.7-0.6-1.5-0.9-2.4-0.9C44,24.2,43,24.6,42.2,25.3z"/>
	<path class="st1" d="M48.2,27.2l4.9,5.2l0.7-0.7L49,26.5L48.2,27.2C48.3,27.2,48.2,27.2,48.2,27.2z"/>
	<path class="st1" d="M59.5,40.6l4.7,5c4.5,4.8,4.3,12.4-0.5,17l-1.4,1.3c-2.7,2.6-6.6,3.6-10.3,2.8l-15.5-3.5l-0.1,0.1
		c0,0,0.1,0.1,0.1,0.1c0.2,0.2,0.2,0.5,0.2,0.8l15.1,3.4l0.1,0c4,0.9,8.2-0.2,11.2-3l1.4-1.3c5.2-4.9,5.5-13.2,0.5-18.4l-4.1-4.3
		c-0.2,0.2-0.4,0.3-0.7,0.3C59.9,40.8,59.6,40.7,59.5,40.6z"/>
	<path class="st1" d="M42.3,56.7c0,0,0,0.1-0.1,0.1C42.2,56.7,42.3,56.7,42.3,56.7z"/>
	<path class="st1" d="M42.4,56.2c0,0,0-0.1,0-0.1C42.4,56.1,42.4,56.2,42.4,56.2C42.4,56.2,42.4,56.2,42.4,56.2z"/>
	<path class="st1" d="M42.3,56.5c0,0,0,0.1,0,0.1C42.3,56.6,42.3,56.5,42.3,56.5z"/>
	<path class="st1" d="M42.4,56c0-0.2-0.2-0.5-0.3-0.6l0.1,0.1C42.2,55.7,42.3,55.8,42.4,56z"/>
	<path class="st1" d="M42.4,56.3c0,0,0,0.1,0,0.1C42.4,56.4,42.4,56.3,42.4,56.3z"/>
	<path class="st1" d="M41.7,57.2C41.6,57.2,41.6,57.2,41.7,57.2C41.6,57.2,41.6,57.2,41.7,57.2z"/>
	<path class="st1" d="M41.8,57.1C41.8,57.1,41.8,57.1,41.8,57.1C41.8,57.1,41.8,57.1,41.8,57.1z"/>
	<path class="st1" d="M31.4,61.1C31,60.5,31,59.7,31.2,59c0.4-1,1.3-1.7,2.4-1.7l7.8-0.1c0,0,0,0,0.1,0c0,0-0.1,0-0.1,0
		c-0.3,0-0.5-0.1-0.7-0.3L40,56.2l-6.5,0.1c-1.5,0-2.8,1-3.3,2.3c-0.7,2,0.5,4.2,2.6,4.7l1.5,0.3c0.2-0.2,0.5-0.3,0.7-0.5
		c0.4-0.3,1-0.3,1.3,0.1l0.1-0.1l-3.4-0.8C32.3,62.2,31.7,61.8,31.4,61.1z"/>
	<path class="st1" d="M42,57c0,0-0.1,0.1-0.1,0.1C42,57,42,57,42,57z"/>
	<path class="st1" d="M42.2,56.8c0,0-0.1,0.1-0.1,0.1C42.1,56.9,42.1,56.9,42.2,56.8z"/>
	<path class="st1" d="M54.4,34c-0.1,0.1-0.2,0.1-0.4,0.1c-0.1,0-0.1,0-0.2,0c-0.1,0-0.2,0-0.2,0c-0.1,0-0.2-0.1-0.3-0.1
		c-0.1,0-0.1-0.1-0.2-0.1c-0.4-0.4-0.4-1,0-1.4l0,0l-4.9-5.2c-0.2,0.2-0.4,0.3-0.7,0.3c-0.3,0-0.5-0.1-0.7-0.3c-0.4-0.4-0.4-1,0-1.4
		c-1.2-0.9-2.9-0.8-4,0.2c-0.6,0.6-0.9,1.3-1,2L52,38.8l-8.6-9.1c-0.4-0.4-0.6-0.9-0.6-1.5c0-0.6,0.2-1.1,0.7-1.5
		c0.4-0.4,0.9-0.6,1.5-0.6c0.6,0,1.1,0.2,1.5,0.7l12.7,13.5C59,40,59,39.4,59.4,39.1l0,0l-4.9-5.2C54.5,33.9,54.4,34,54.4,34z"/>
	<path class="st1" d="M54.4,34c-0.1,0.1-0.2,0.1-0.4,0.1C54.1,34.1,54.3,34.1,54.4,34z"/>
	<path class="st1" d="M53.6,34.1c-0.1,0-0.2-0.1-0.3-0.1C53.4,34.1,53.5,34.1,53.6,34.1z"/>
	<path class="st1" d="M46.8,25.8c0.1,0.1,0.3,0.2,0.4,0.4l1,1.1c0,0,0,0,0,0l0.7-0.7l-0.7-0.7l-0.7,0.7l0.7-0.7L48,25.5
		c-0.1-0.1-0.3-0.3-0.4-0.4L46.8,25.8C46.8,25.8,46.8,25.8,46.8,25.8z"/>
	<path class="st1" d="M46.8,27.2c0.2,0.2,0.5,0.3,0.7,0.3c0.2,0,0.5-0.1,0.7-0.3l-1-1.1c-0.1-0.1-0.3-0.3-0.4-0.4
		C46.5,26.2,46.5,26.8,46.8,27.2z"/>
	<path class="st1" d="M36.6,64.2l-1-0.2l0,0c-0.4,0.3-0.7,0.5-1.1,0.8l1.3,0.3c0.1-0.1,0.3-0.2,0.4-0.3
		C36.4,64.7,36.5,64.4,36.6,64.2z"/>
	<path class="st1" d="M33.1,64.5l1.4,0.3c0.4-0.2,0.8-0.5,1.1-0.8l0,0l-1.3-0.3C33.9,64,33.5,64.2,33.1,64.5z"/>
	<path class="st1" d="M36.4,63.4C36.4,63.4,36.4,63.3,36.4,63.4L35.6,64l1,0.2C36.6,63.9,36.6,63.6,36.4,63.4z"/>
	<path class="st1" d="M35,63.2c-0.2,0.2-0.5,0.3-0.7,0.5l1.3,0.3l0.7-0.7C36,62.9,35.4,62.9,35,63.2z"/>
	<polygon class="st1" points="60.1,39.8 60.8,40.5 60.8,40.5 61.5,39.8 60.8,39.1 	"/>
	<polygon class="st1" points="59.4,39.1 60.1,39.8 60.8,39.1 60.1,38.4 	"/>
	<path class="st1" d="M60.1,39.8l-0.7,0.7l0.1,0.1c0.2,0.1,0.4,0.2,0.6,0.2c0.3,0,0.5-0.1,0.7-0.3L60.1,39.8L60.1,39.8z"/>
	<path class="st1" d="M53.8,34.2c-0.1,0-0.2,0-0.2,0C53.7,34.1,53.7,34.2,53.8,34.2z"/>
	<path class="st1" d="M59.4,39.1C59,39.4,59,40,59.2,40.4l0.1,0.1l0.7-0.7l0,0L59.4,39.1L59.4,39.1z"/>
	<path class="st1" d="M54.5,33.9C54.5,33.9,54.5,33.9,54.5,33.9l0.7-0.7l-0.7-0.7l-0.7,0.7l0.7-0.7l-0.7-0.7l-0.7,0.7L54.5,33.9z"/>
	<path class="st1" d="M53.1,33.9c0,0,0.1,0.1,0.2,0.1c0.1,0.1,0.2,0.1,0.3,0.1c0.1,0,0.2,0,0.2,0c0.1,0,0.1,0,0.2,0
		c0.1,0,0.2-0.1,0.4-0.1c0,0,0.1-0.1,0.1-0.1l-1.4-1.5l0,0C52.7,32.8,52.7,33.5,53.1,33.9z"/>
	<polygon class="st1" points="40.4,55.2 39.1,55.2 40,56.2 41.4,56.2 	"/>
	<path class="st1" d="M40.4,55.2l0.9,1l-1.4,0l0.6,0.7c0.2,0.2,0.5,0.3,0.7,0.3c0,0,0.1,0,0.1,0c0,0,0.1,0,0.1,0c0,0,0.1,0,0.1,0
		c0,0,0.1,0,0.1,0c0,0,0.1,0,0.1,0c0,0,0.1,0,0.1,0C42,57,42,57,42,57c0,0,0,0,0,0c0,0,0.1-0.1,0.1-0.1c0,0,0,0,0,0
		c0,0,0-0.1,0.1-0.1c0,0,0,0,0,0c0,0,0-0.1,0-0.1c0,0,0,0,0-0.1c0,0,0-0.1,0-0.1c0,0,0-0.1,0-0.1c0,0,0-0.1,0-0.1c0,0,0,0,0-0.1
		c0-0.2-0.1-0.4-0.3-0.5L42,55.4c-0.2-0.1-0.4-0.2-0.7-0.2L40.4,55.2z"/>
	<path class="st1" d="M41.9,28.1L41,27.2c-0.1,0.3-0.1,0.7-0.2,1c0,0.1,0,0.2,0,0.3l1.8,2C42.1,29.8,41.8,28.9,41.9,28.1z"/>
	<polygon class="st1" points="51.3,39.5 42.7,30.5 42.7,30.5 	"/>
	<path class="st1" d="M42.7,30.5l8.6,9.1L42.7,30.5C42.7,30.5,42.7,30.5,42.7,30.5l-1.8-2c0,1,0.4,1.9,1.1,2.6l8.6,9.1
		c0.4,0.4,1,0.4,1.4,0c0.4-0.4,0.4-1,0-1.4L41.9,28.1C41.8,28.9,42.1,29.8,42.7,30.5z"/>
</g>
</svg>
