<?xml version="1.0" encoding="utf-8"?>
<!-- Generator: Adobe Illustrator 27.7.0, SVG Export Plug-In . SVG Version: 6.00 Build 0)  -->
<svg version="1.1" id="Layer_1" xmlns="http://www.w3.org/2000/svg" xmlns:xlink="http://www.w3.org/1999/xlink" x="0px" y="0px"
	 viewBox="0 0 72 72" style="enable-background:new 0 0 72 72;" xml:space="preserve">
<style type="text/css">
	.st0{fill:#662D91;}
	.st1{fill:#D8C6E1;}
</style>
<g>
	<g>
		<g>
			<g>
				<g>
					<path class="st0" d="M36,23.8c-6.3,0-11.5-5.1-11.5-11.5S29.7,0.8,36,0.8c6.3,0,11.5,5.1,11.5,11.5S42.3,23.8,36,23.8z M36,3
						c-5.1,0-9.3,4.2-9.3,9.3c0,5.1,4.2,9.3,9.3,9.3c5.1,0,9.3-4.2,9.3-9.3C45.3,7.2,41.1,3,36,3z"/>
					<path class="st0" d="M51.3,34.6c-0.1,0-0.1,0-0.2,0c-1.9-0.1-4-1.4-4.4-4.1l-0.1-1.2c-0.3-2.8-0.6-5.5-2.1-6.4
						c-0.9-0.6-2.4-0.6-4.5,0.1c-0.6,0.2-1.2-0.1-1.4-0.7c-0.2-0.6,0.1-1.2,0.7-1.4c2.7-0.9,4.8-0.9,6.3,0.1c2.3,1.5,2.7,4.8,3.1,8
						l0.1,1.1c0.2,1.5,1.4,2.1,2.3,2.2c1,0,2.2-0.5,2.5-2c2.4-11.6-0.7-19.2-9.2-22.6c-0.6-0.2-0.8-0.9-0.6-1.4
						c0.2-0.6,0.9-0.8,1.4-0.6c6.6,2.7,13.8,9.2,10.5,25.1C55.4,33.1,53.5,34.6,51.3,34.6z"/>
				</g>
				<path class="st0" d="M22.9,33.9c-0.3,0-0.7-0.2-0.9-0.4c-0.4-0.5-0.2-1.2,0.2-1.5c0.5-0.4,0.8-1,0.9-1.7l0.1-1.1
					c0.4-3.2,0.7-6.5,3.1-8c1.5-1,3.6-1,6.3-0.1c0.6,0.2,0.9,0.8,0.7,1.4c-0.2,0.6-0.8,0.9-1.4,0.7c-2.1-0.7-3.6-0.7-4.5-0.1
					c-1.5,0.9-1.8,3.6-2.1,6.4l-0.1,1.2c-0.2,1.3-0.8,2.4-1.8,3.2C23.4,33.9,23.2,33.9,22.9,33.9z"/>
				<path class="st0" d="M17.1,30.5c-0.5,0-1-0.4-1.1-0.9c-2.6-15,4.4-21.2,10.8-23.8c0.6-0.2,1.2,0,1.4,0.6c0.2,0.6,0,1.2-0.6,1.4
					c-8.2,3.3-11.4,10.5-9.5,21.4c0.1,0.6-0.3,1.2-0.9,1.3C17.2,30.5,17.1,30.5,17.1,30.5z"/>
				<g>
					<path class="st0" d="M11.7,65.9c-1,0-2-0.1-3-0.4c-3-0.8-5.4-2.7-7-5.3c-1.5-2.7-1.9-5.7-1.1-8.7c0.8-3,2.7-5.4,5.3-7
						c5.5-3.2,12.5-1.3,15.7,4.2c3.2,5.5,1.3,12.5-4.2,15.7C15.7,65.3,13.7,65.9,11.7,65.9z M11.7,45.1c-1.6,0-3.2,0.4-4.6,1.2
						c-2.2,1.2-3.7,3.2-4.3,5.6S2.4,56.9,3.7,59c1.2,2.2,3.2,3.7,5.6,4.3c2.4,0.6,4.9,0.3,7.1-0.9c2.2-1.2,3.7-3.2,4.3-5.6
						c0.6-2.4,0.3-4.9-0.9-7.1C18.1,46.7,14.9,45.1,11.7,45.1z"/>
					<path class="st0" d="M2.5,50.5c-0.5,0-1-0.4-1.1-0.9c-1-7.1,1-16.5,16.4-21.7c2.2-0.7,4.5,0.2,5.6,2.2c0.9,1.7,0.8,4.2-1.3,5.8
						l-0.9,0.7c-2.3,1.7-4.4,3.3-4.5,5c-0.1,1.1,0.7,2.4,2.3,3.8c0.4,0.4,0.5,1.1,0.1,1.5c-0.4,0.4-1.1,0.5-1.5,0.1
						c-2.1-1.9-3.1-3.7-3.1-5.5c0.1-2.8,2.8-4.7,5.4-6.7l0.9-0.7c1.2-0.9,1.1-2.2,0.7-3.1c-0.5-0.9-1.5-1.7-3-1.2
						C7.4,33.7,2.3,40.2,3.6,49.3c0.1,0.6-0.3,1.1-0.9,1.2C2.6,50.5,2.6,50.5,2.5,50.5z"/>
				</g>
				<path class="st0" d="M26.4,58.8c-0.8,0-1.5-0.2-2.2-0.5c-1.6-0.8-2.7-2.6-3.3-5.4c-0.1-0.6,0.2-1.2,0.8-1.3
					c0.6-0.1,1.2,0.2,1.3,0.8c0.4,2.1,1.2,3.4,2.1,3.9c1.5,0.8,4-0.3,6.6-1.4l1.1-0.5c1.2-0.5,2.5-0.5,3.6,0
					c0.5,0.2,0.8,0.9,0.6,1.4c-0.2,0.5-0.9,0.8-1.4,0.6c-0.6-0.3-1.3-0.2-1.9,0l-1.1,0.5C30.5,57.8,28.4,58.8,26.4,58.8z"/>
				<path class="st0" d="M21.6,69.6c-4.5,0-8.1-1.8-10.9-4c-0.5-0.4-0.6-1-0.2-1.5c0.4-0.5,1.1-0.6,1.5-0.2
					c6.9,5.4,14.8,4.6,23.2-2.5c0.5-0.4,1.1-0.3,1.5,0.1c0.4,0.5,0.3,1.1-0.1,1.5C30.9,67.9,25.9,69.6,21.6,69.6z"/>
				<g>
					<path class="st0" d="M60.3,65.9c-2,0-3.9-0.5-5.7-1.5c-5.5-3.2-7.4-10.2-4.2-15.7c1.5-2.7,4-4.5,7-5.3c3-0.8,6-0.4,8.7,1.1
						c2.7,1.5,4.6,4,5.3,7c0.8,3,0.4,6-1.1,8.7c-1.5,2.7-4,4.5-7,5.3C62.3,65.7,61.3,65.9,60.3,65.9z M60.3,45.1
						c-0.8,0-1.6,0.1-2.4,0.3c-2.4,0.6-4.4,2.2-5.6,4.3c-1.2,2.2-1.6,4.7-0.9,7.1c0.6,2.4,2.2,4.4,4.3,5.6c2.2,1.2,4.7,1.6,7.1,0.9
						c2.4-0.6,4.4-2.2,5.6-4.3c1.2-2.2,1.6-4.7,0.9-7.1s-2.2-4.4-4.3-5.6C63.5,45.5,61.9,45.1,60.3,45.1z"/>
					<path class="st0" d="M50.5,69.6c-4.6,0-10-1.9-16.1-7.4c-1.7-1.6-2.1-4-0.9-6c1-1.6,3.2-2.8,5.7-1.8l1.1,0.5
						c2.6,1.1,5.1,2.2,6.6,1.4c1-0.5,1.7-1.8,2.1-3.9c0.1-0.6,0.7-1,1.3-0.8c0.6,0.1,1,0.7,0.8,1.3c-0.6,2.8-1.7,4.6-3.3,5.4
						c-2.5,1.3-5.5-0.1-8.5-1.3l-1.1-0.5c-1.4-0.6-2.5,0.1-3,0.9c-0.5,0.8-0.7,2.2,0.5,3.2c8.8,7.8,17,8.9,24.2,3.3
						c0.5-0.4,1.1-0.3,1.5,0.2c0.4,0.5,0.3,1.2-0.2,1.5C58.5,67.8,54.9,69.6,50.5,69.6z"/>
				</g>
				<path class="st0" d="M53.7,47.5c-0.3,0-0.6-0.1-0.8-0.4c-0.4-0.4-0.4-1.1,0.1-1.5c1.6-1.4,2.4-2.7,2.3-3.8
					c-0.1-1.7-2.2-3.3-4.5-5L49.8,36c-1-0.8-1.7-1.8-1.8-3c-0.1-0.6,0.3-1.1,0.9-1.2c0.6-0.1,1.1,0.3,1.2,0.9c0.1,0.6,0.4,1.2,1,1.6
					l0.9,0.7c2.6,1.9,5.3,3.9,5.4,6.7c0.1,1.8-0.9,3.6-3.1,5.5C54.2,47.4,53.9,47.5,53.7,47.5z"/>
				<path class="st0" d="M69.5,50.6c-0.1,0-0.1,0-0.2,0c-0.6-0.1-1-0.6-0.9-1.2c1.2-8.7-3.4-15.1-13.8-18.9
					c-0.6-0.2-0.9-0.8-0.6-1.4c0.2-0.6,0.8-0.8,1.4-0.6c14.3,5.2,16.1,14.4,15.2,21.2C70.5,50.2,70,50.6,69.5,50.6z"/>
			</g>
		</g>
		<g>
			<path class="st1" d="M36,48.9l-7.2-7.2c-1.7-1.7-1.7-4.4,0-6.1c1.7-1.7,4.4-1.7,6.1,0l1.1,1.1l1.1-1.1c1.7-1.7,4.4-1.7,6.1,0
				c1.7,1.7,1.7,4.4,0,6.1L36,48.9z"/>
		</g>
		<g>
			<path class="st0" d="M36,50c-0.3,0-0.6-0.1-0.8-0.3L28,42.4c-1-1-1.6-2.4-1.6-3.8c0-1.4,0.6-2.8,1.6-3.8c2-2,5.6-2.1,7.7,0
				l0.3,0.3l0.3-0.3c2.1-2.1,5.6-2,7.7,0c1,1,1.6,2.4,1.6,3.8c0,1.4-0.6,2.8-1.6,3.8l-7.2,7.2C36.6,49.9,36.3,50,36,50z M31.8,35.4
				c-0.9,0-1.7,0.3-2.3,1c-0.6,0.6-1,1.4-1,2.3c0,0.9,0.3,1.7,1,2.3l6.5,6.5l6.5-6.5c0.6-0.6,1-1.4,1-2.3c0-0.9-0.3-1.7-1-2.3
				c-1.2-1.2-3.4-1.2-4.6,0l-1.1,1.1c-0.2,0.2-0.5,0.3-0.8,0.3l0,0c-0.3,0-0.6-0.1-0.8-0.3l-1.1-1.1C33.5,35.7,32.7,35.4,31.8,35.4z
				"/>
		</g>
	</g>
</g>
</svg>
