<?xml version="1.0" encoding="utf-8"?>
<!-- Generator: Adobe Illustrator 27.7.0, SVG Export Plug-In . SVG Version: 6.00 Build 0)  -->
<svg version="1.1" id="Layer_1" xmlns="http://www.w3.org/2000/svg" xmlns:xlink="http://www.w3.org/1999/xlink" x="0px" y="0px"
	 viewBox="0 0 72 72" style="enable-background:new 0 0 72 72;" xml:space="preserve">
<style type="text/css">
	.st0{fill:#D8C6E1;}
	.st1{fill:#662D91;}
</style>
<g>
	<g>
		<g>
			<ellipse class="st0" cx="24.3" cy="35.4" rx="5.7" ry="9.1"/>
		</g>
	</g>
	<g>
		<g>
			<g>
				<g>
					<path class="st1" d="M24.3,46.2c-4.3,0-7.7-5.3-7.7-12.1c0-8.5,5.4-9.4,7.7-9.4s7.7,0.9,7.7,9.4C31.9,40.9,28.6,46.2,24.3,46.2
						z M24.3,27.4c-1.2,0-4.9,0-4.9,6.6c0,5,2.3,9.3,4.9,9.3s4.9-4.4,4.9-9.3C29.1,27.4,25.5,27.4,24.3,27.4z"/>
				</g>
			</g>
		</g>
		<g>
			<g>
				<g>
					<path class="st1" d="M5.5,69.1c-0.8,0-1.4-0.6-1.4-1.4v-8.3c0,0,0-0.1,0-0.1c0.2-1.7,0.6-3.9,1.3-5c1.3-2,3.1-2.3,4.7-2.6
						c0.9-0.2,1.5-0.5,2.2-0.9c1.2-0.8,2-1.5,2.3-2.3c0.2-0.5,0.7-0.8,1.3-0.8c0.2,0,0.4,0,0.6,0.1c0.7,0.3,1,1.1,0.7,1.8
						c-0.6,1.3-1.7,2.4-3.4,3.5c-0.8,0.5-1.8,1.1-3,1.3c-1.7,0.3-2.5,0.5-3,1.4c-0.4,0.6-0.7,2.5-0.9,3.7c0,0,0,0.1,0,0.1v6.1
						c0,0.4,0.3,0.7,0.7,0.7h4.2c0.4,0,0.7-0.3,0.7-0.7v-4.2c0-0.8,0.6-1.4,1.4-1.4s1.4,0.6,1.4,1.4v4.2c0,0.4,0.3,0.7,0.7,0.7h16.7
						c0.4,0,0.7-0.3,0.7-0.7v-4.2c0-0.8,0.6-1.4,1.4-1.4c0.8,0,1.4,0.6,1.4,1.4v4.2c0,0.4,0.3,0.7,0.7,0.7H41c0.4,0,0.7-0.3,0.7-0.7
						v-6.1c0,0,0-0.1,0-0.1c-0.1-1.2-0.5-3.1-0.9-3.7c-0.6-0.9-1.3-1.1-2.9-1.4c-1.4-0.3-2.4-0.8-3.2-1.3c-1.7-1.1-2.8-2.2-3.4-3.5
						c-0.3-0.7,0-1.5,0.7-1.8c0.2-0.1,0.4-0.1,0.6-0.1c0.6,0,1.1,0.3,1.3,0.8c0.3,0.8,1.1,1.5,2.3,2.3c0.7,0.4,1.3,0.8,2,0.9
						c1.8,0.3,3.6,0.7,4.9,2.7c0.7,1.1,1.1,3.3,1.3,5c0,0.1,0,0.1,0,0.1v8.3c0,0.8-0.6,1.4-1.4,1.4H5.5z"/>
				</g>
			</g>
		</g>
		<g>
			<g>
				<g>
					<path class="st1" d="M44.2,43.5c-0.2,0-0.4,0-0.5-0.1c-0.5-0.2-0.9-0.7-0.9-1.3V31.7c0-0.4-0.3-0.7-0.7-0.7h-6.3
						c-0.8,0-1.4-0.6-1.4-1.4c0-0.8,0.6-1.4,1.4-1.4h8.3c0.8,0,1.4,0.6,1.4,1.4v7.5c0,0.3,0.2,0.5,0.4,0.6c0.1,0,0.2,0.1,0.3,0.1
						c0.2,0,0.4-0.1,0.5-0.2l8.9-8.9c0.3-0.3,0.6-0.4,1-0.4H63c0.4,0,0.7-0.3,0.7-0.7V8.8c0-0.4-0.3-0.7-0.7-0.7H29.7
						c-0.4,0-0.7,0.3-0.7,0.7v12.5c0,0.8-0.6,1.4-1.4,1.4c-0.8,0-1.4-0.6-1.4-1.4V8.8c0-1.9,1.6-3.5,3.5-3.5H63
						c1.9,0,3.5,1.6,3.5,3.5v18.8c0,1.9-1.6,3.5-3.5,3.5h-5.4c-0.2,0-0.4,0.1-0.5,0.2L45.2,43.1C45,43.4,44.6,43.5,44.2,43.5z"/>
				</g>
			</g>
		</g>
	</g>
</g>
</svg>
