<?xml version="1.0" encoding="utf-8"?>
<!-- Generator: Adobe Illustrator 27.7.0, SVG Export Plug-In . SVG Version: 6.00 Build 0)  -->
<svg version="1.1" id="Layer_1" xmlns="http://www.w3.org/2000/svg" xmlns:xlink="http://www.w3.org/1999/xlink" x="0px" y="0px"
	 viewBox="0 0 72 72" style="enable-background:new 0 0 72 72;" xml:space="preserve">
<style type="text/css">
	.st0{fill:#662D91;}
	.st1{fill:#D8C6E1;}
</style>
<g>
	<path class="st0" d="M31.3,17c3.9,0,7.1-3.2,7.1-7.1V8.1c0-3.9-3.2-7.1-7.1-7.1c-3.9,0-7.1,3.2-7.1,7.1V10
		C24.2,13.8,27.4,17,31.3,17z M26.3,8.1c0-2.7,2.2-4.9,4.9-4.9s4.9,2.2,4.9,4.9V10c0,2.7-2.2,4.9-4.9,4.9s-4.9-2.2-4.9-4.9V8.1z"/>
	<path class="st0" d="M21.3,30l0,2.9l0,0.1c-0.8-0.3-1.6-0.5-2.4-0.5c-3.9,0-7.1,3.2-7.1,7.1v1.9c0,3.9,3.2,7.1,7.1,7.1
		s7.1-3.2,7.1-7.1v-1.9c0-2.1-1-4-2.4-5.3l-0.1-1.4l0-3.5c0-0.4-0.2-0.8-0.6-1C17.9,26,12,21.1,9,16.9c-0.5-0.7-0.6-1.5-0.3-2.3
		c0.3-0.8,0.9-1.5,1.8-1.7c0.9-0.3,1.9-0.1,2.5,0.5c4.3,4.1,9.9,7.1,17.2,9.2c0.9,0.2,1.7,0.2,2.5,0c7.3-2.1,12.9-5.1,17.2-9.2
		c0.6-0.6,1.6-0.8,2.5-0.5c0.8,0.3,1.5,0.9,1.7,1.7c0.3,0.8,0.1,1.7-0.4,2.5c-3,3.9-8.6,8.5-13.8,11.3c-0.3,0.2-0.6,0.5-0.6,0.9
		c0,0,0,2.3,0,3.8c-2.5,1.1-4.2,3.6-4.2,6.4v1.9c0,3.9,3.2,7,7,7s7-3.2,7-7v-1.9c0-3.9-3.2-7-7-7c-0.2,0-0.5,0-0.7,0.1
		c0-0.9,0-2,0-2.6c5.3-3,10.8-7.6,13.9-11.6c1-1.3,1.3-2.9,0.8-4.4c-0.5-1.5-1.6-2.6-3.2-3.1c-1.6-0.5-3.4-0.1-4.6,1
		c-4,3.8-9.3,6.7-16.3,8.7c-0.4,0.1-0.8,0.1-1.3,0c-6.9-2-12.3-4.8-16.3-8.7c-1.2-1.1-3-1.5-4.6-1c-1.5,0.4-2.7,1.6-3.2,3.1
		c-0.5,1.5-0.3,3,0.6,4.2C10.4,22.5,16.1,27.3,21.3,30z M23.8,41.5c0,2.7-2.2,4.9-4.9,4.9c-2.7,0-4.9-2.2-4.9-4.9v-1.9
		c0-2.7,2.2-4.9,4.9-4.9c2.7,0,4.9,2.2,4.9,4.9V41.5z M46.9,39.6v1.9c0,2.7-2.2,4.9-4.9,4.9s-4.9-2.2-4.9-4.9v-1.9
		c0-2.7,2.2-4.9,4.9-4.9S46.9,36.9,46.9,39.6z"/>
	<path class="st0" d="M69.6,69.3H53.2v-7.7l15.7-16.1c1.9-1.9,1.9-5,0-6.9c-1.9-2-4.9-2.1-6.9-0.3l-8.7,7.9c-3,2.7-6.9,4.2-11.1,4.2
		c0,0,0,0,0,0c-4.4,0-8.4,1.7-11.4,4.7c-0.1,0.1-0.1,0.1-0.2,0.2c-1.1-1.2-2.4-2.3-3.8-3.1c-4.8-2.4-10.8-2.4-15.5,0
		c-4.4,2.3-7.2,7-7.2,12.3l0,4.8H1.3c-0.6,0-1.1,0.5-1.1,1.1s0.5,1.1,1.1,1.1h3.6c0,0,0,0,0,0h6.9H27h0h6.8c0,0,0,0,0,0h18.3h17.5
		c0.6,0,1.1-0.5,1.1-1.1S70.2,69.3,69.6,69.3z M34.9,69.3l0.2-6.3c0-0.6-0.4-1.1-1-1.1c-0.6,0.1-1.1,0.4-1.1,1l-0.2,6.4h-4.7l0-1.7
		c-0.1-3.7,1-7.1,3.1-9.9c0.1-0.1,0.1-0.1,0.2-0.2c0.3-0.3,0.5-0.6,0.8-0.9c2.6-2.6,6.1-4.1,10-4.1c0,0,0,0,0,0
		c4.6,0,9.1-1.7,12.5-4.7l8.7-7.9c1.2-1,2.9-0.9,4,0.2c1.1,1.1,1.1,2.9,0,4l-16,16.4c-0.2,0.2-0.3,0.5-0.3,0.7v8.2H34.9z M11.8,61.6
		c-0.6,0-1.1,0.5-1.1,1.1v6.7H6l0-4.8c0-4.4,2.4-8.5,6-10.4c4.1-2.1,9.4-2.1,13.6,0c1.3,0.7,2.5,1.7,3.4,2.9
		c-2.1,3-3.3,6.7-3.1,10.6l0,1.7h-13v-6.7C12.9,62.1,12.4,61.6,11.8,61.6z"/>
	<path class="st1" d="M28.1,67.6l0,1.7h4.7l0.2-6.4c0-0.6,0.5-1,1.1-1c0.6,0,1.1,0.5,1,1.1l-0.2,6.3H51v-8.2c0-0.3,0.1-0.5,0.3-0.7
		l16-16.4c1.1-1.1,1.1-2.8,0-4c-1.1-1.1-2.8-1.2-4-0.2l-8.7,7.9c-3.4,3.1-7.8,4.7-12.5,4.7c0,0,0,0,0,0c-3.9,0-7.4,1.5-10,4.1
		c-0.3,0.3-0.6,0.6-0.8,0.9c0,0.1-0.1,0.1-0.2,0.2C29,60.5,28,63.9,28.1,67.6z"/>
	<path class="st1" d="M37.1,41.4c0,2.7,2.2,4.9,4.9,4.9s4.9-2.2,4.9-4.9v-1.9c0-2.7-2.2-4.9-4.9-4.9s-4.9,2.2-4.9,4.9V41.4z"/>
</g>
</svg>
