<?xml version="1.0" encoding="utf-8"?>
<!-- Generator: Adobe Illustrator 27.5.0, SVG Export Plug-In . SVG Version: 6.00 Build 0)  -->
<svg version="1.1" id="Layer_1" xmlns="http://www.w3.org/2000/svg" xmlns:xlink="http://www.w3.org/1999/xlink" x="0px" y="0px"
	 viewBox="0 0 177.4 24.2" style="enable-background:new 0 0 177.4 24.2;" xml:space="preserve">
<style type="text/css">
	.st0{fill:#0D8CC4;}
</style>
<g id="Group_813">
	<path id="Path_807" class="st0" d="M175.3,19.7c-1.2,0-2.2,1-2.2,2.2s1,2.2,2.2,2.2c1.2,0,2.2-1,2.2-2.2l0,0
		C177.4,20.7,176.5,19.7,175.3,19.7L175.3,19.7z"/>
	<path id="Path_808" class="st0" d="M175.3,19.7c-1.2,0-2.2,1-2.2,2.2s1,2.2,2.2,2.2c1.2,0,2.2-1,2.2-2.2l0,0
		C177.4,20.7,176.5,19.7,175.3,19.7L175.3,19.7z"/>
	<path id="Path_809" class="st0" d="M164.5,19.7c-1.2,0-2.2,1-2.2,2.2s1,2.2,2.2,2.2s2.2-1,2.2-2.2l0,0
		C166.6,20.7,165.7,19.7,164.5,19.7"/>
	<path id="Path_810" class="st0" d="M164.5,19.7c-1.2,0-2.2,1-2.2,2.2s1,2.2,2.2,2.2s2.2-1,2.2-2.2l0,0
		C166.6,20.7,165.7,19.7,164.5,19.7L164.5,19.7z"/>
	<path id="Path_811" class="st0" d="M153.7,19.7c-1.2,0-2.2,1-2.2,2.2c0,1.2,1,2.2,2.2,2.2c1.2,0,2.2-1,2.2-2.2l0,0l0,0
		C155.8,20.7,154.8,19.7,153.7,19.7"/>
	<path id="Path_812" class="st0" d="M153.7,19.7c-1.2,0-2.2,1-2.2,2.2c0,1.2,1,2.2,2.2,2.2c1.2,0,2.2-1,2.2-2.2l0,0l0,0
		C155.8,20.7,154.8,19.7,153.7,19.7"/>
	<path id="Path_813" class="st0" d="M142.8,19.7c-1.2,0-2.2,1-2.2,2.2c0,1.2,1,2.2,2.2,2.2c1.2,0,2.2-1,2.2-2.2l0,0l0,0
		C145,20.7,144,19.7,142.8,19.7"/>
	<path id="Path_814" class="st0" d="M142.8,19.7c-1.2,0-2.2,1-2.2,2.2c0,1.2,1,2.2,2.2,2.2c1.2,0,2.2-1,2.2-2.2l0,0l0,0
		C145,20.7,144,19.7,142.8,19.7"/>
	<path id="Path_815" class="st0" d="M132,19.7c-1.2,0-2.2,1-2.2,2.2c0,1.2,1,2.2,2.2,2.2c1.2,0,2.2-1,2.2-2.2l0,0
		C134.2,20.7,133.2,19.7,132,19.7"/>
	<path id="Path_816" class="st0" d="M132,19.7c-1.2,0-2.2,1-2.2,2.2c0,1.2,1,2.2,2.2,2.2c1.2,0,2.2-1,2.2-2.2l0,0
		C134.2,20.7,133.2,19.7,132,19.7"/>
	<path id="Path_817" class="st0" d="M121.2,19.7c-1.2,0-2.2,1-2.2,2.2c0,1.2,1,2.2,2.2,2.2c1.2,0,2.2-1,2.2-2.2
		C123.4,20.7,122.4,19.7,121.2,19.7C121.2,19.7,121.2,19.7,121.2,19.7"/>
	<path id="Path_818" class="st0" d="M121.2,19.7c-1.2,0-2.2,1-2.2,2.2s1,2.2,2.2,2.2c1.2,0,2.2-1,2.2-2.2
		C123.4,20.7,122.4,19.7,121.2,19.7L121.2,19.7"/>
	<path id="Path_819" class="st0" d="M110.4,19.7c-1.2,0-2.2,1-2.2,2.2c0,1.2,1,2.2,2.2,2.2s2.2-1,2.2-2.2l0,0
		C112.6,20.7,111.6,19.7,110.4,19.7"/>
	<path id="Path_820" class="st0" d="M110.4,19.7c-1.2,0-2.2,1-2.2,2.2c0,1.2,1,2.2,2.2,2.2s2.2-1,2.2-2.2l0,0
		C112.6,20.7,111.6,19.7,110.4,19.7"/>
	<path id="Path_821" class="st0" d="M99.6,19.7c-1.2,0-2.2,1-2.2,2.2c0,1.2,1,2.2,2.2,2.2c1.2,0,2.2-1,2.2-2.2l0,0
		C101.8,20.7,100.8,19.7,99.6,19.7L99.6,19.7z"/>
	<path id="Path_822" class="st0" d="M99.6,19.7c-1.2,0-2.2,1-2.2,2.2c0,1.2,1,2.2,2.2,2.2c1.2,0,2.2-1,2.2-2.2l0,0
		C101.8,20.7,100.8,19.7,99.6,19.7L99.6,19.7z"/>
	<path id="Path_823" class="st0" d="M88.8,19.7c-1.2,0-2.2,1-2.2,2.2c0,1.2,1,2.2,2.2,2.2s2.2-1,2.2-2.2l0,0
		C91,20.7,90,19.7,88.8,19.7L88.8,19.7"/>
	<path id="Path_824" class="st0" d="M88.8,19.7c-1.2,0-2.2,1-2.2,2.2c0,1.2,1,2.2,2.2,2.2s2.2-1,2.2-2.2l0,0
		C91,20.7,90,19.7,88.8,19.7L88.8,19.7"/>
	<path id="Path_825" class="st0" d="M78,19.7c-1.2,0-2.2,1-2.2,2.2c0,1.2,1,2.2,2.2,2.2s2.2-1,2.2-2.2l0,0
		C80.1,20.7,79.2,19.7,78,19.7"/>
	<path id="Path_826" class="st0" d="M78,19.7c-1.2,0-2.2,1-2.2,2.2c0,1.2,1,2.2,2.2,2.2s2.2-1,2.2-2.2l0,0
		C80.1,20.7,79.2,19.7,78,19.7"/>
	<path id="Path_827" class="st0" d="M67.2,19.7c-1.2,0-2.2,1-2.2,2.2s1,2.2,2.2,2.2c1.2,0,2.2-1,2.2-2.2v0
		C69.3,20.7,68.4,19.7,67.2,19.7"/>
	<path id="Path_828" class="st0" d="M67.2,19.7c-1.2,0-2.2,1-2.2,2.2s1,2.2,2.2,2.2c1.2,0,2.2-1,2.2-2.2v0
		C69.3,20.7,68.4,19.7,67.2,19.7"/>
	<path id="Path_829" class="st0" d="M56.4,19.7c-1.2,0-2.2,1-2.2,2.2c0,1.2,1,2.2,2.2,2.2s2.2-1,2.2-2.2l0,0
		C58.5,20.7,57.6,19.7,56.4,19.7"/>
	<path id="Path_830" class="st0" d="M56.4,19.7c-1.2,0-2.2,1-2.2,2.2c0,1.2,1,2.2,2.2,2.2s2.2-1,2.2-2.2l0,0
		C58.5,20.7,57.6,19.7,56.4,19.7"/>
	<path id="Path_831" class="st0" d="M45.5,19.7c-1.2,0-2.2,1-2.2,2.2c0,1.2,1,2.2,2.2,2.2c1.2,0,2.2-1,2.2-2.2c0,0,0,0,0,0l0,0
		C47.7,20.7,46.7,19.7,45.5,19.7"/>
	<path id="Path_832" class="st0" d="M45.5,19.7c-1.2,0-2.2,1-2.2,2.2c0,1.2,1,2.2,2.2,2.2c1.2,0,2.2-1,2.2-2.2c0,0,0,0,0,0l0,0
		C47.7,20.7,46.7,19.7,45.5,19.7"/>
	<path id="Path_833" class="st0" d="M34.7,19.7c-1.2,0-2.2,1-2.2,2.2c0,1.2,1,2.2,2.2,2.2c1.2,0,2.2-1,2.2-2.2c0,0,0,0,0,0l0,0
		C36.9,20.7,35.9,19.7,34.7,19.7"/>
	<path id="Path_834" class="st0" d="M34.7,19.7c-1.2,0-2.2,1-2.2,2.2c0,1.2,1,2.2,2.2,2.2c1.2,0,2.2-1,2.2-2.2c0,0,0,0,0,0l0,0
		C36.9,20.7,35.9,19.7,34.7,19.7"/>
	<path id="Path_835" class="st0" d="M23.9,19.7c-1.2,0-2.2,1-2.2,2.2c0,1.2,1,2.2,2.2,2.2c1.2,0,2.2-1,2.2-2.2c0,0,0,0,0,0l0,0
		C26.1,20.7,25.1,19.7,23.9,19.7"/>
	<path id="Path_836" class="st0" d="M23.9,19.7c-1.2,0-2.2,1-2.2,2.2c0,1.2,1,2.2,2.2,2.2c1.2,0,2.2-1,2.2-2.2c0,0,0,0,0,0l0,0
		C26.1,20.7,25.1,19.7,23.9,19.7"/>
	<path id="Path_837" class="st0" d="M13.1,19.7c-1.2,0-2.2,1-2.2,2.2c0,1.2,1,2.2,2.2,2.2c1.2,0,2.2-1,2.2-2.2c0,0,0,0,0,0l0,0
		C15.3,20.7,14.3,19.7,13.1,19.7"/>
	<path id="Path_838" class="st0" d="M13.1,19.7c-1.2,0-2.2,1-2.2,2.2c0,1.2,1,2.2,2.2,2.2c1.2,0,2.2-1,2.2-2.2c0,0,0,0,0,0l0,0
		C15.3,20.7,14.3,19.7,13.1,19.7"/>
	<path id="Path_839" class="st0" d="M2.3,19.7c-1.2,0-2.2,1-2.2,2.2c0,1.2,1,2.2,2.2,2.2c1.2,0,2.2-1,2.2-2.2c0,0,0,0,0,0l0,0
		C4.5,20.7,3.5,19.7,2.3,19.7"/>
	<path id="Path_840" class="st0" d="M2.3,19.7c-1.2,0-2.2,1-2.2,2.2c0,1.2,1,2.2,2.2,2.2c1.2,0,2.2-1,2.2-2.2c0,0,0,0,0,0l0,0
		C4.5,20.7,3.5,19.7,2.3,19.7"/>
	<path id="Path_841" class="st0" d="M175.3,10c-1.2,0-2.2,1-2.2,2.2s1,2.2,2.2,2.2c1.2,0,2.2-1,2.2-2.2l0,0
		C177.4,11,176.5,10,175.3,10"/>
	<path id="Path_842" class="st0" d="M175.3,10c-1.2,0-2.2,1-2.2,2.2s1,2.2,2.2,2.2c1.2,0,2.2-1,2.2-2.2l0,0
		C177.4,11,176.5,10,175.3,10L175.3,10z"/>
	<path id="Path_843" class="st0" d="M164.5,10c-1.2,0-2.2,1-2.2,2.2s1,2.2,2.2,2.2s2.2-1,2.2-2.2l0,0C166.6,11,165.7,10,164.5,10"/>
	<path id="Path_844" class="st0" d="M164.5,10c-1.2,0-2.2,1-2.2,2.2s1,2.2,2.2,2.2s2.2-1,2.2-2.2l0,0C166.6,11,165.7,10,164.5,10
		L164.5,10z"/>
	<path id="Path_845" class="st0" d="M153.7,10c-1.2,0-2.2,1-2.2,2.2s1,2.2,2.2,2.2c1.2,0,2.2-1,2.2-2.2l0,0l0,0
		C155.8,11,154.8,10,153.7,10"/>
	<path id="Path_846" class="st0" d="M153.7,10c-1.2,0-2.2,1-2.2,2.2s1,2.2,2.2,2.2c1.2,0,2.2-1,2.2-2.2l0,0l0,0
		C155.8,11,154.8,10,153.7,10"/>
	<path id="Path_847" class="st0" d="M142.8,10c-1.2,0-2.2,1-2.2,2.2c0,1.2,1,2.2,2.2,2.2c1.2,0,2.2-1,2.2-2.2l0,0l0,0
		C145,11,144,10,142.8,10"/>
	<path id="Path_848" class="st0" d="M142.8,10c-1.2,0-2.2,1-2.2,2.2c0,1.2,1,2.2,2.2,2.2c1.2,0,2.2-1,2.2-2.2l0,0l0,0
		C145,11,144,10,142.8,10"/>
	<path id="Path_849" class="st0" d="M132,10c-1.2,0-2.2,1-2.2,2.2s1,2.2,2.2,2.2c1.2,0,2.2-1,2.2-2.2l0,0C134.2,11,133.2,10,132,10"
		/>
	<path id="Path_850" class="st0" d="M132,10c-1.2,0-2.2,1-2.2,2.2s1,2.2,2.2,2.2c1.2,0,2.2-1,2.2-2.2l0,0C134.2,11,133.2,10,132,10"
		/>
	<path id="Path_851" class="st0" d="M121.2,10c-1.2,0-2.2,1-2.2,2.2s1,2.2,2.2,2.2c1.2,0,2.2-1,2.2-2.2C123.4,11,122.4,10,121.2,10
		C121.2,10,121.2,10,121.2,10"/>
	<path id="Path_852" class="st0" d="M121.2,10c-1.2,0-2.2,1-2.2,2.2s1,2.2,2.2,2.2c1.2,0,2.2-1,2.2-2.2C123.4,11,122.4,10,121.2,10
		L121.2,10"/>
	<path id="Path_853" class="st0" d="M110.4,10c-1.2,0-2.2,1-2.2,2.2s1,2.2,2.2,2.2s2.2-1,2.2-2.2l0,0C112.6,11,111.6,10,110.4,10"/>
	<path id="Path_854" class="st0" d="M110.4,10c-1.2,0-2.2,1-2.2,2.2s1,2.2,2.2,2.2s2.2-1,2.2-2.2l0,0C112.6,11,111.6,10,110.4,10"/>
	<path id="Path_855" class="st0" d="M99.6,10c-1.2,0-2.2,1-2.2,2.2c0,1.2,1,2.2,2.2,2.2c1.2,0,2.2-1,2.2-2.2l0,0
		C101.8,11,100.8,10,99.6,10L99.6,10z"/>
	<path id="Path_856" class="st0" d="M99.6,10c-1.2,0-2.2,1-2.2,2.2c0,1.2,1,2.2,2.2,2.2c1.2,0,2.2-1,2.2-2.2l0,0
		C101.8,11,100.8,10,99.6,10L99.6,10z"/>
	<path id="Path_857" class="st0" d="M88.8,10c-1.2,0-2.2,1-2.2,2.2s1,2.2,2.2,2.2s2.2-1,2.2-2.2l0,0C91,11,90,10,88.8,10"/>
	<path id="Path_858" class="st0" d="M88.8,10c-1.2,0-2.2,1-2.2,2.2s1,2.2,2.2,2.2s2.2-1,2.2-2.2l0,0C91,11,90,10,88.8,10"/>
	<path id="Path_859" class="st0" d="M78,10c-1.2,0-2.2,1-2.2,2.2s1,2.2,2.2,2.2s2.2-1,2.2-2.2l0,0C80.1,11,79.2,10,78,10L78,10"/>
	<path id="Path_860" class="st0" d="M78,10c-1.2,0-2.2,1-2.2,2.2s1,2.2,2.2,2.2s2.2-1,2.2-2.2l0,0C80.1,11,79.2,10,78,10L78,10"/>
	<path id="Path_861" class="st0" d="M67.2,10c-1.2,0-2.2,1-2.2,2.2s1,2.2,2.2,2.2c1.2,0,2.2-1,2.2-2.2v0C69.3,11,68.4,10,67.2,10"/>
	<path id="Path_862" class="st0" d="M67.2,10c-1.2,0-2.2,1-2.2,2.2s1,2.2,2.2,2.2c1.2,0,2.2-1,2.2-2.2v0C69.3,11,68.4,10,67.2,10"/>
	<path id="Path_863" class="st0" d="M56.4,10c-1.2,0-2.2,1-2.2,2.2s1,2.2,2.2,2.2s2.2-1,2.2-2.2l0,0C58.5,11,57.6,10,56.4,10"/>
	<path id="Path_864" class="st0" d="M56.4,10c-1.2,0-2.2,1-2.2,2.2s1,2.2,2.2,2.2s2.2-1,2.2-2.2l0,0C58.5,11,57.6,10,56.4,10"/>
	<path id="Path_865" class="st0" d="M45.5,10c-1.2,0-2.2,1-2.2,2.2c0,1.2,1,2.2,2.2,2.2c1.2,0,2.2-1,2.2-2.2c0,0,0,0,0,0l0,0
		C47.7,11,46.7,10,45.5,10"/>
	<path id="Path_866" class="st0" d="M45.5,10c-1.2,0-2.2,1-2.2,2.2c0,1.2,1,2.2,2.2,2.2c1.2,0,2.2-1,2.2-2.2c0,0,0,0,0,0l0,0
		C47.7,11,46.7,10,45.5,10"/>
	<path id="Path_867" class="st0" d="M34.7,10c-1.2,0-2.2,1-2.2,2.2c0,1.2,1,2.2,2.2,2.2c1.2,0,2.2-1,2.2-2.2c0,0,0,0,0,0l0,0
		C36.9,11,35.9,10,34.7,10"/>
	<path id="Path_868" class="st0" d="M34.7,10c-1.2,0-2.2,1-2.2,2.2c0,1.2,1,2.2,2.2,2.2c1.2,0,2.2-1,2.2-2.2c0,0,0,0,0,0l0,0
		C36.9,11,35.9,10,34.7,10"/>
	<path id="Path_869" class="st0" d="M23.9,10c-1.2,0-2.2,1-2.2,2.2c0,1.2,1,2.2,2.2,2.2c1.2,0,2.2-1,2.2-2.2c0,0,0,0,0,0l0,0
		C26.1,11,25.1,10,23.9,10"/>
	<path id="Path_870" class="st0" d="M23.9,10c-1.2,0-2.2,1-2.2,2.2c0,1.2,1,2.2,2.2,2.2c1.2,0,2.2-1,2.2-2.2c0,0,0,0,0,0l0,0
		C26.1,11,25.1,10,23.9,10"/>
	<path id="Path_871" class="st0" d="M13.1,10c-1.2,0-2.2,1-2.2,2.2c0,1.2,1,2.2,2.2,2.2c1.2,0,2.2-1,2.2-2.2c0,0,0,0,0,0l0,0
		C15.3,11,14.3,10,13.1,10"/>
	<path id="Path_872" class="st0" d="M13.1,10c-1.2,0-2.2,1-2.2,2.2c0,1.2,1,2.2,2.2,2.2c1.2,0,2.2-1,2.2-2.2c0,0,0,0,0,0l0,0
		C15.3,11,14.3,10,13.1,10"/>
	<path id="Path_873" class="st0" d="M2.3,10c-1.2,0-2.2,1-2.2,2.2c0,1.2,1,2.2,2.2,2.2c1.2,0,2.2-1,2.2-2.2c0,0,0,0,0,0l0,0
		C4.5,11,3.5,10,2.3,10"/>
	<path id="Path_874" class="st0" d="M2.3,10c-1.2,0-2.2,1-2.2,2.2c0,1.2,1,2.2,2.2,2.2c1.2,0,2.2-1,2.2-2.2c0,0,0,0,0,0l0,0
		C4.5,11,3.5,10,2.3,10"/>
	<path id="Path_875" class="st0" d="M175.3,0.2c-1.2,0-2.2,1-2.2,2.2s1,2.2,2.2,2.2c1.2,0,2.2-1,2.2-2.2l0,0
		C177.4,1.2,176.5,0.2,175.3,0.2C175.3,0.2,175.3,0.2,175.3,0.2"/>
	<path id="Path_876" class="st0" d="M175.3,0.2c-1.2,0-2.2,1-2.2,2.2s1,2.2,2.2,2.2c1.2,0,2.2-1,2.2-2.2l0,0
		C177.4,1.2,176.5,0.2,175.3,0.2L175.3,0.2z"/>
	<path id="Path_877" class="st0" d="M164.5,0.2c-1.2,0-2.2,1-2.2,2.2s1,2.2,2.2,2.2s2.2-1,2.2-2.2l0,0
		C166.6,1.2,165.7,0.2,164.5,0.2C164.5,0.2,164.5,0.2,164.5,0.2"/>
	<path id="Path_878" class="st0" d="M164.5,0.2c-1.2,0-2.2,1-2.2,2.2s1,2.2,2.2,2.2s2.2-1,2.2-2.2l0,0
		C166.6,1.2,165.7,0.2,164.5,0.2C164.5,0.2,164.5,0.2,164.5,0.2"/>
	<path id="Path_879" class="st0" d="M153.7,0.2c-1.2,0-2.2,1-2.2,2.2s1,2.2,2.2,2.2c1.2,0,2.2-1,2.2-2.2l0,0l0,0
		C155.8,1.2,154.8,0.2,153.7,0.2"/>
	<path id="Path_880" class="st0" d="M153.7,0.2c-1.2,0-2.2,1-2.2,2.2s1,2.2,2.2,2.2c1.2,0,2.2-1,2.2-2.2l0,0l0,0
		C155.8,1.2,154.8,0.2,153.7,0.2"/>
	<path id="Path_881" class="st0" d="M142.8,0.2c-1.2,0-2.2,1-2.2,2.2c0,1.2,1,2.2,2.2,2.2c1.2,0,2.2-1,2.2-2.2l0,0l0,0
		C145,1.2,144,0.2,142.8,0.2"/>
	<path id="Path_882" class="st0" d="M142.8,0.2c-1.2,0-2.2,1-2.2,2.2c0,1.2,1,2.2,2.2,2.2c1.2,0,2.2-1,2.2-2.2l0,0l0,0
		C145,1.2,144,0.2,142.8,0.2"/>
	<path id="Path_883" class="st0" d="M132,0.2c-1.2,0-2.2,1-2.2,2.2s1,2.2,2.2,2.2c1.2,0,2.2-1,2.2-2.2l0,0
		C134.2,1.2,133.2,0.2,132,0.2C132,0.2,132,0.2,132,0.2"/>
	<path id="Path_884" class="st0" d="M132,0.2c-1.2,0-2.2,1-2.2,2.2s1,2.2,2.2,2.2c1.2,0,2.2-1,2.2-2.2l0,0
		C134.2,1.2,133.2,0.2,132,0.2C132,0.2,132,0.2,132,0.2"/>
	<path id="Path_885" class="st0" d="M121.2,0.2c-1.2,0-2.2,1-2.2,2.2s1,2.2,2.2,2.2c1.2,0,2.2-1,2.2-2.2
		C123.4,1.2,122.4,0.2,121.2,0.2C121.2,0.2,121.2,0.2,121.2,0.2"/>
	<path id="Path_886" class="st0" d="M121.2,0.2c-1.2,0-2.2,1-2.2,2.2s1,2.2,2.2,2.2c1.2,0,2.2-1,2.2-2.2
		C123.4,1.2,122.4,0.2,121.2,0.2L121.2,0.2"/>
	<path id="Path_887" class="st0" d="M110.4,0.2c-1.2,0-2.2,1-2.2,2.2s1,2.2,2.2,2.2s2.2-1,2.2-2.2l0,0
		C112.6,1.2,111.6,0.2,110.4,0.2C110.4,0.2,110.4,0.2,110.4,0.2"/>
	<path id="Path_888" class="st0" d="M110.4,0.2c-1.2,0-2.2,1-2.2,2.2s1,2.2,2.2,2.2s2.2-1,2.2-2.2l0,0
		C112.6,1.2,111.6,0.2,110.4,0.2C110.4,0.2,110.4,0.2,110.4,0.2"/>
	<path id="Path_889" class="st0" d="M99.6,0.2c-1.2,0-2.2,1-2.2,2.2c0,1.2,1,2.2,2.2,2.2c1.2,0,2.2-1,2.2-2.2l0,0
		C101.8,1.2,100.8,0.2,99.6,0.2C99.6,0.2,99.6,0.2,99.6,0.2L99.6,0.2z"/>
	<path id="Path_890" class="st0" d="M99.6,0.2c-1.2,0-2.2,1-2.2,2.2c0,1.2,1,2.2,2.2,2.2c1.2,0,2.2-1,2.2-2.2l0,0
		C101.8,1.2,100.8,0.2,99.6,0.2C99.6,0.2,99.6,0.2,99.6,0.2L99.6,0.2z"/>
	<path id="Path_891" class="st0" d="M88.8,0.2c-1.2,0-2.2,1-2.2,2.2s1,2.2,2.2,2.2s2.2-1,2.2-2.2l0,0C91,1.2,90,0.2,88.8,0.2
		C88.8,0.2,88.8,0.2,88.8,0.2"/>
	<path id="Path_892" class="st0" d="M88.8,0.2c-1.2,0-2.2,1-2.2,2.2s1,2.2,2.2,2.2s2.2-1,2.2-2.2l0,0C91,1.2,90,0.2,88.8,0.2
		C88.8,0.2,88.8,0.2,88.8,0.2"/>
	<path id="Path_893" class="st0" d="M78,0.2c-1.2,0-2.2,1-2.2,2.2s1,2.2,2.2,2.2s2.2-1,2.2-2.2l0,0C80.1,1.2,79.2,0.2,78,0.2
		C78,0.2,78,0.2,78,0.2"/>
	<path id="Path_894" class="st0" d="M78,0.2c-1.2,0-2.2,1-2.2,2.2s1,2.2,2.2,2.2s2.2-1,2.2-2.2l0,0C80.1,1.2,79.2,0.2,78,0.2
		C78,0.2,78,0.2,78,0.2"/>
	<path id="Path_895" class="st0" d="M67.2,0.2c-1.2,0-2.2,1-2.2,2.2s1,2.2,2.2,2.2c1.2,0,2.2-1,2.2-2.2v0
		C69.3,1.2,68.4,0.2,67.2,0.2"/>
	<path id="Path_896" class="st0" d="M67.2,0.2c-1.2,0-2.2,1-2.2,2.2s1,2.2,2.2,2.2c1.2,0,2.2-1,2.2-2.2v0
		C69.3,1.2,68.4,0.2,67.2,0.2"/>
	<path id="Path_897" class="st0" d="M56.4,0.2c-1.2,0-2.2,1-2.2,2.2s1,2.2,2.2,2.2s2.2-1,2.2-2.2l0,0C58.5,1.2,57.6,0.2,56.4,0.2
		C56.4,0.2,56.4,0.2,56.4,0.2"/>
	<path id="Path_898" class="st0" d="M56.4,0.2c-1.2,0-2.2,1-2.2,2.2s1,2.2,2.2,2.2s2.2-1,2.2-2.2l0,0C58.5,1.2,57.6,0.2,56.4,0.2
		C56.4,0.2,56.4,0.2,56.4,0.2"/>
	<path id="Path_899" class="st0" d="M45.5,0.2c-1.2,0-2.2,1-2.2,2.2c0,1.2,1,2.2,2.2,2.2c1.2,0,2.2-1,2.2-2.2c0,0,0,0,0,0l0,0
		C47.7,1.2,46.7,0.2,45.5,0.2"/>
	<path id="Path_900" class="st0" d="M45.5,0.2c-1.2,0-2.2,1-2.2,2.2c0,1.2,1,2.2,2.2,2.2c1.2,0,2.2-1,2.2-2.2c0,0,0,0,0,0l0,0
		C47.7,1.2,46.7,0.2,45.5,0.2"/>
	<path id="Path_901" class="st0" d="M34.7,0.2c-1.2,0-2.2,1-2.2,2.2c0,1.2,1,2.2,2.2,2.2c1.2,0,2.2-1,2.2-2.2c0,0,0,0,0,0l0,0
		C36.9,1.2,35.9,0.2,34.7,0.2"/>
	<path id="Path_902" class="st0" d="M34.7,0.2c-1.2,0-2.2,1-2.2,2.2c0,1.2,1,2.2,2.2,2.2c1.2,0,2.2-1,2.2-2.2c0,0,0,0,0,0l0,0
		C36.9,1.2,35.9,0.2,34.7,0.2"/>
	<path id="Path_903" class="st0" d="M23.9,0.2c-1.2,0-2.2,1-2.2,2.2c0,1.2,1,2.2,2.2,2.2c1.2,0,2.2-1,2.2-2.2c0,0,0,0,0,0l0,0
		C26.1,1.2,25.1,0.2,23.9,0.2"/>
	<path id="Path_904" class="st0" d="M23.9,0.2c-1.2,0-2.2,1-2.2,2.2c0,1.2,1,2.2,2.2,2.2c1.2,0,2.2-1,2.2-2.2c0,0,0,0,0,0l0,0
		C26.1,1.2,25.1,0.2,23.9,0.2"/>
	<path id="Path_905" class="st0" d="M13.1,0.2c-1.2,0-2.2,1-2.2,2.2c0,1.2,1,2.2,2.2,2.2c1.2,0,2.2-1,2.2-2.2c0,0,0,0,0,0l0,0
		C15.3,1.2,14.3,0.2,13.1,0.2"/>
	<path id="Path_906" class="st0" d="M13.1,0.2c-1.2,0-2.2,1-2.2,2.2c0,1.2,1,2.2,2.2,2.2c1.2,0,2.2-1,2.2-2.2c0,0,0,0,0,0l0,0
		C15.3,1.2,14.3,0.2,13.1,0.2"/>
	<path id="Path_907" class="st0" d="M2.3,0.2c-1.2,0-2.2,1-2.2,2.2c0,1.2,1,2.2,2.2,2.2c1.2,0,2.2-1,2.2-2.2c0,0,0,0,0,0l0,0
		C4.5,1.2,3.5,0.2,2.3,0.2"/>
	<path id="Path_908" class="st0" d="M2.3,0.2c-1.2,0-2.2,1-2.2,2.2c0,1.2,1,2.2,2.2,2.2c1.2,0,2.2-1,2.2-2.2c0,0,0,0,0,0l0,0
		C4.5,1.2,3.5,0.2,2.3,0.2"/>
</g>
</svg>
