<?xml version="1.0" encoding="utf-8"?>
<!-- Generator: Adobe Illustrator 27.5.0, SVG Export Plug-In . SVG Version: 6.00 Build 0)  -->
<svg version="1.1" id="FOLIENCE_LOGO_1_" xmlns="http://www.w3.org/2000/svg" xmlns:xlink="http://www.w3.org/1999/xlink" x="0px"
	 y="0px" viewBox="0 0 254.2 66.7" style="enable-background:new 0 0 254.2 66.7;" xml:space="preserve">
<style type="text/css">
	.st0{fill:#FFFFFF;}
</style>
<g id="FOLIENCE_LOGO">
	<g id="Invest_in_Different.">
		<path class="st0" d="M102.9,53.7c0-0.3,0.2-0.5,0.5-0.5h0.6c0.3,0,0.5,0.2,0.5,0.5v8.1c0,0.4-0.2,0.5-0.5,0.5h-0.6
			c-0.3,0-0.5-0.2-0.5-0.5V53.7z"/>
		<path class="st0" d="M107.1,56.3c0-0.3,0.2-0.5,0.5-0.5h0.5c0.3,0,0.5,0.2,0.5,0.5v0.4c0,0.1,0,0.3,0,0.3h0c0.3-0.6,1-1.4,2.3-1.4
			c1.5,0,2.3,0.8,2.3,2.5v3.7c0,0.4-0.2,0.5-0.5,0.5h-0.6c-0.3,0-0.5-0.2-0.5-0.5v-3.4c0-0.8-0.2-1.3-1-1.3c-1.2,0-1.9,1-1.9,2.2
			v2.5c0,0.4-0.2,0.5-0.5,0.5h-0.6c-0.3,0-0.5-0.2-0.5-0.5L107.1,56.3L107.1,56.3z"/>
		<path class="st0" d="M114.8,56.3c-0.1-0.4,0-0.6,0.4-0.6h0.6c0.3,0,0.5,0.1,0.6,0.5l1.2,3.6c0.1,0.4,0.2,1,0.2,1h0
			c0,0,0.1-0.6,0.2-1l1.2-3.6c0.1-0.3,0.3-0.5,0.6-0.5h0.6c0.4,0,0.6,0.2,0.4,0.6l-2,5.5c-0.1,0.3-0.3,0.4-0.6,0.4h-1
			c-0.3,0-0.5-0.1-0.6-0.4L114.8,56.3z"/>
		<path class="st0" d="M125.5,55.6c1.9,0,2.9,1.3,2.9,3.2c0,0.3-0.2,0.6-0.6,0.6h-4c0.1,1.2,1,1.8,2,1.8c0.6,0,1.1-0.2,1.4-0.4
			c0.3-0.2,0.6-0.1,0.7,0.2l0.2,0.3c0.2,0.3,0.1,0.6-0.2,0.7c-0.4,0.3-1.2,0.7-2.2,0.7c-2.2,0-3.6-1.6-3.6-3.5
			C122.1,57,123.5,55.6,125.5,55.6z M126.8,58.3c0-0.9-0.6-1.5-1.3-1.5c-0.8,0-1.4,0.6-1.6,1.5H126.8z"/>
		<path class="st0" d="M129.9,61.1l0.2-0.2c0.2-0.3,0.4-0.3,0.7-0.1c0.3,0.2,0.8,0.5,1.5,0.5c0.6,0,0.9-0.3,0.9-0.7
			c0-1.1-3.3-0.7-3.3-2.9c0-1.3,1.1-2,2.5-2c0.9,0,1.5,0.3,1.8,0.5c0.3,0.2,0.3,0.4,0.2,0.7l-0.1,0.2c-0.2,0.3-0.4,0.3-0.7,0.2
			c-0.3-0.1-0.7-0.3-1.3-0.3c-0.6,0-0.9,0.2-0.9,0.7c0,1.1,3.3,0.7,3.3,2.9c0,1.2-1,2-2.5,2c-1.1,0-1.8-0.4-2.2-0.7
			C129.8,61.7,129.8,61.4,129.9,61.1z"/>
		<path class="st0" d="M137,57.1h-0.4c-0.4,0-0.5-0.2-0.5-0.5v-0.2c0-0.3,0.2-0.5,0.5-0.5h0.4v-1.3c0-0.3,0.2-0.5,0.5-0.5h0.5
			c0.4,0,0.5,0.2,0.5,0.5v1.3h1c0.4,0,0.5,0.2,0.5,0.5v0.2c0,0.4-0.2,0.5-0.5,0.5h-1v2.6c0,1,0.6,1.2,1.1,1.2c0.4,0,0.5,0.2,0.5,0.5
			v0.4c0,0.4-0.2,0.5-0.7,0.5c-1.2,0-2.6-0.6-2.6-2.4L137,57.1L137,57.1z"/>
		<path class="st0" d="M145.9,54.1v-0.4c0-0.3,0.2-0.5,0.5-0.5h0.6c0.4,0,0.5,0.2,0.5,0.5v0.4c0,0.3-0.2,0.5-0.5,0.5h-0.6
			C146,54.6,145.9,54.4,145.9,54.1z M145.9,56.3c0-0.3,0.2-0.5,0.5-0.5h0.6c0.4,0,0.5,0.2,0.5,0.5v5.5c0,0.4-0.2,0.5-0.5,0.5h-0.6
			c-0.4,0-0.5-0.2-0.5-0.5V56.3z"/>
		<path class="st0" d="M149.7,56.3c0-0.3,0.2-0.5,0.5-0.5h0.5c0.4,0,0.5,0.2,0.5,0.5v0.4c0,0.1,0,0.3,0,0.3h0c0.3-0.6,1-1.4,2.4-1.4
			c1.5,0,2.3,0.8,2.3,2.5v3.7c0,0.4-0.2,0.5-0.5,0.5h-0.6c-0.4,0-0.5-0.2-0.5-0.5v-3.4c0-0.8-0.2-1.3-1-1.3c-1.2,0-1.9,1-1.9,2.2
			v2.5c0,0.4-0.2,0.5-0.5,0.5h-0.6c-0.4,0-0.5-0.2-0.5-0.5L149.7,56.3L149.7,56.3z"/>
		<path class="st0" d="M162.3,53.7c0-0.3,0.2-0.5,0.5-0.5h2.6c2.8,0,4.7,1.7,4.7,4.6s-1.9,4.6-4.7,4.6h-2.6c-0.4,0-0.5-0.2-0.5-0.5
			V53.7z M165.3,60.9c1.9,0,3.1-1.1,3.1-3.2c0-2-1.2-3.2-3.1-3.2h-1.4v6.3H165.3z"/>
		<path class="st0" d="M172.2,54.1v-0.4c0-0.3,0.2-0.5,0.5-0.5h0.6c0.4,0,0.5,0.2,0.5,0.5v0.4c0,0.3-0.2,0.5-0.5,0.5h-0.6
			C172.4,54.6,172.2,54.4,172.2,54.1z M172.2,56.3c0-0.3,0.2-0.5,0.5-0.5h0.6c0.4,0,0.5,0.2,0.5,0.5v5.5c0,0.4-0.2,0.5-0.5,0.5h-0.6
			c-0.4,0-0.5-0.2-0.5-0.5V56.3z"/>
		<path class="st0" d="M176.5,57h-0.3c-0.4,0-0.5-0.2-0.5-0.5v-0.2c0-0.3,0.2-0.5,0.5-0.5h0.3v-0.2c0-2.1,1.9-2.4,2.5-2.4h0.2
			c0.4,0,0.5,0.2,0.5,0.5V54c0,0.3-0.2,0.5-0.6,0.5c-0.4,0-1.1,0.1-1.1,1.1v0.2h2.7v-0.2c0-2.1,1.9-2.4,2.5-2.4h0.2
			c0.4,0,0.5,0.2,0.5,0.5V54c0,0.3-0.2,0.5-0.6,0.5c-0.4,0-1.1,0.1-1.1,1.1v0.2h0.9c0.4,0,0.5,0.2,0.5,0.5v0.2
			c0,0.4-0.2,0.5-0.5,0.5h-1v4.8c0,0.4-0.2,0.5-0.5,0.5h-0.6c-0.4,0-0.5-0.2-0.5-0.5V57h-2.7v4.8c0,0.4-0.2,0.5-0.5,0.5H177
			c-0.4,0-0.5-0.2-0.5-0.5L176.5,57L176.5,57z"/>
		<path class="st0" d="M188.4,55.6c1.9,0,2.9,1.3,2.9,3.2c0,0.3-0.2,0.6-0.6,0.6h-4c0.1,1.2,1,1.8,2,1.8c0.6,0,1.1-0.2,1.4-0.4
			c0.3-0.2,0.6-0.1,0.7,0.2l0.2,0.3c0.2,0.3,0.1,0.6-0.2,0.7c-0.4,0.3-1.2,0.7-2.2,0.7c-2.2,0-3.6-1.6-3.6-3.5
			C185,57,186.4,55.6,188.4,55.6z M189.7,58.3c0-0.9-0.6-1.5-1.3-1.5c-0.8,0-1.4,0.6-1.6,1.5H189.7z"/>
		<path class="st0" d="M193.2,56.3c0-0.3,0.2-0.5,0.5-0.5h0.5c0.4,0,0.5,0.2,0.5,0.5v0.6c0,0.2,0,0.5,0,0.5h0c0.3-0.8,1-1.7,1.9-1.7
			c0.4,0,0.5,0.2,0.5,0.5v0.5c0,0.3-0.2,0.5-0.6,0.5c-1.2,0-1.8,1.2-1.8,2.4v2.1c0,0.4-0.2,0.5-0.5,0.5h-0.6c-0.4,0-0.5-0.2-0.5-0.5
			V56.3z"/>
		<path class="st0" d="M201.5,55.6c1.9,0,2.9,1.3,2.9,3.2c0,0.3-0.2,0.6-0.6,0.6h-4c0.1,1.2,1,1.8,2,1.8c0.6,0,1.1-0.2,1.4-0.4
			c0.3-0.2,0.6-0.1,0.7,0.2l0.2,0.3c0.2,0.3,0.1,0.6-0.2,0.7c-0.4,0.3-1.2,0.7-2.2,0.7c-2.2,0-3.6-1.6-3.6-3.5
			C198.2,57,199.6,55.6,201.5,55.6z M202.8,58.3c0-0.9-0.6-1.5-1.3-1.5c-0.8,0-1.4,0.6-1.6,1.5H202.8z"/>
		<path class="st0" d="M206.3,56.3c0-0.3,0.2-0.5,0.5-0.5h0.5c0.4,0,0.5,0.2,0.5,0.5v0.4c0,0.1,0,0.3,0,0.3h0c0.3-0.6,1-1.4,2.4-1.4
			c1.5,0,2.3,0.8,2.3,2.5v3.7c0,0.4-0.2,0.5-0.5,0.5h-0.6c-0.4,0-0.5-0.2-0.5-0.5v-3.4c0-0.8-0.2-1.3-1-1.3c-1.2,0-1.9,1-1.9,2.2
			v2.5c0,0.4-0.2,0.5-0.5,0.5h-0.6c-0.4,0-0.5-0.2-0.5-0.5L206.3,56.3L206.3,56.3z"/>
		<path class="st0" d="M214.9,57.1h-0.4c-0.4,0-0.5-0.2-0.5-0.5v-0.2c0-0.3,0.2-0.5,0.5-0.5h0.4v-1.3c0-0.3,0.2-0.5,0.5-0.5h0.5
			c0.4,0,0.5,0.2,0.5,0.5v1.3h1c0.4,0,0.5,0.2,0.5,0.5v0.2c0,0.4-0.2,0.5-0.5,0.5h-1v2.6c0,1,0.6,1.2,1.1,1.2c0.4,0,0.5,0.2,0.5,0.5
			v0.4c0,0.4-0.2,0.5-0.7,0.5c-1.2,0-2.6-0.6-2.6-2.4L214.9,57.1L214.9,57.1z"/>
		<path class="st0" d="M220.1,61.2c0-0.3,0.2-0.5,0.5-0.5h0.6c0.4,0,0.5,0.2,0.5,0.5v0.6c0,0.4-0.2,0.5-0.5,0.5h-0.6
			c-0.4,0-0.5-0.2-0.5-0.5V61.2z"/>
	</g>
	<g id="FOLIENCE">
		<g>
			<path class="st0" d="M251.9,27.2c-0.3,0-0.6,0-0.9-0.2c-0.3-0.1-0.5-0.3-0.7-0.5c-0.2-0.2-0.4-0.4-0.5-0.7
				c-0.1-0.3-0.2-0.6-0.2-0.9s0.1-0.6,0.2-0.9c0.1-0.3,0.3-0.5,0.5-0.7c0.2-0.2,0.4-0.4,0.7-0.5c0.3-0.1,0.6-0.2,0.9-0.2
				s0.6,0,0.9,0.2s0.5,0.3,0.7,0.5c0.2,0.2,0.4,0.4,0.5,0.7c0.1,0.3,0.2,0.6,0.2,0.9s-0.1,0.6-0.2,0.9c-0.1,0.3-0.3,0.5-0.5,0.7
				c-0.2,0.2-0.4,0.4-0.7,0.5S252.2,27.2,251.9,27.2z M251.9,26.8c0.3,0,0.5,0,0.7-0.1c0.2-0.1,0.4-0.2,0.6-0.4
				c0.1-0.1,0.3-0.3,0.4-0.6s0.1-0.5,0.1-0.7s0-0.5-0.1-0.7c-0.1-0.2-0.2-0.4-0.4-0.6s-0.3-0.3-0.6-0.4s-0.4-0.1-0.7-0.1
				c-0.3,0-0.5,0-0.7,0.1c-0.2,0.1-0.4,0.2-0.6,0.4c-0.1,0.1-0.3,0.3-0.4,0.6s-0.1,0.5-0.1,0.7s0,0.5,0.1,0.7
				c0.1,0.2,0.2,0.4,0.4,0.6s0.3,0.3,0.6,0.4S251.6,26.8,251.9,26.8z M251.1,23.8h0.9c0.2,0,0.4,0.1,0.5,0.2
				c0.1,0.1,0.2,0.3,0.2,0.5c0,0.2,0,0.3-0.1,0.4c-0.1,0.1-0.2,0.2-0.3,0.2l0.6,0.9h-0.5l-0.5-0.8h-0.3V26h-0.4L251.1,23.8
				L251.1,23.8z M251.9,24.9c0.1,0,0.2,0,0.3-0.1s0.1-0.1,0.1-0.3c0-0.1,0-0.2-0.1-0.2s-0.1-0.1-0.2-0.1h-0.4v0.7L251.9,24.9
				L251.9,24.9z"/>
		</g>
		<polygon class="st0" points="233.2,40 233.2,34.6 243.1,34.6 243.1,31 233.2,31 233.2,26.3 246.8,26.3 246.8,22.7 229.4,22.7 
			229.4,43.6 247,43.6 247,40 		"/>
		<path class="st0" d="M208.9,28.1c1.4-1.3,3.4-1.9,5.9-1.9c1.5,0,2.8,0.2,3.8,0.7c1,0.5,1.9,1.2,2.7,2.3l0.3,0.4l3.3-2l-0.4-0.5
			c-2.3-3-5.6-4.6-9.8-4.6c-3.6,0-6.4,1-8.6,2.9c-2.2,2-3.3,4.6-3.3,7.9c0,3.2,1.1,5.8,3.2,7.7c2.1,1.9,4.9,2.8,8.4,2.8
			c4,0,7.3-1.5,9.8-4.6l0.4-0.5l-3.3-2l-0.3,0.3c-0.9,1.1-1.9,1.9-2.9,2.4c-1,0.5-2.3,0.7-3.7,0.7c-2.4,0-4.3-0.6-5.7-1.9
			c-1.4-1.3-2-2.9-2-5.1C206.8,31,207.5,29.3,208.9,28.1z"/>
		<path class="st0" d="M194.3,37.2c-1.2-1.4-3.1-3.5-5.7-6.5c-2.8-3.1-5.1-5.8-6.7-7.8l-0.2-0.2h-3.3v20.9h3.9V29.1l12.6,14.5h3.3
			V22.7h-3.9L194.3,37.2L194.3,37.2z"/>
		<polygon class="st0" points="159.9,34.6 169.8,34.6 169.8,31 159.9,31 159.9,26.3 173.5,26.3 173.5,22.7 156,22.7 156,43.6 
			173.6,43.6 173.6,40 159.9,40 		"/>
		<rect x="146.3" y="22.7" class="st0" width="3.9" height="20.9"/>
		<polygon class="st0" points="128.4,22.7 124.6,22.7 124.6,43.6 141,43.6 141,40 128.4,40 		"/>
		<path class="st0" d="M116.7,25.5c-2.1-1.8-4.9-2.7-8.5-2.7c-3.6,0-6.4,0.9-8.4,2.7c-2.2,1.9-3.2,4.4-3.2,7.7
			c0,3.3,1.1,5.9,3.2,7.8c2.1,1.9,5,2.8,8.5,2.8c3.6,0,6.4-1,8.5-2.8c2.1-1.9,3.2-4.5,3.2-7.8C119.9,29.9,118.9,27.4,116.7,25.5z
			 M108.2,40.2c-2.5,0-4.4-0.6-5.8-1.9c-1.4-1.2-2-2.9-2-5.1c0-2.2,0.7-3.8,2-5c1.3-1.2,3.3-1.8,5.8-1.8s4.5,0.6,5.8,1.8
			c1.3,1.2,2,2.8,2,5c0,2.2-0.7,3.9-2,5.2C112.7,39.6,110.8,40.2,108.2,40.2z"/>
		<path class="st0" d="M78,43.6h3.8v-9h8.7V31h-8.7v-4.6h9c2,0,3.6-1.6,3.6-3.6l0,0H78V43.6z"/>
	</g>
	<g id="LEAF">
		<path class="st0" d="M12.2,59.4c0.8,0.8,5.9,2.8,12.5,3.3c8.9,0.7,16.7-2.1,22.5-7.9C62,40,63,8.7,63,8.7L12.2,59.4z M18.9,56.5
			l37.8-37.8C55,28,51.7,43,43.6,51.2C35.4,59.3,24.5,58,18.9,56.5z"/>
		<path class="st0" d="M56.7,11.2l10-10.6c0.3-0.3-0.2-0.8-0.5-0.5L55.5,10C47.7,17.4,40,24.9,32.5,32.5
			C24.9,40,17.4,47.7,10.1,55.5l-10,10.6c-0.3,0.3,0.2,0.8,0.5,0.5l10.6-10c7.8-7.3,15.5-14.8,23.1-22.4
			C41.9,26.7,49.3,19,56.7,11.2z"/>
		<path class="st0" d="M58,3.8c0,0-31.3,1-46.1,15.8C6.1,25.3,3.4,33.1,4,42c0.5,6.6,2.5,11.7,3.3,12.5L58,3.8z M15.6,23.2
			C23.7,15,38.8,11.7,48,10.1L10.2,47.9C8.8,42.2,7.4,31.4,15.6,23.2z"/>
	</g>
</g>
</svg>
