<?xml version="1.0" encoding="utf-8"?>
<!-- Generator: Adobe Illustrator 27.2.0, SVG Export Plug-In . SVG Version: 6.00 Build 0)  -->
<svg version="1.1" id="Layer_1" xmlns="http://www.w3.org/2000/svg" xmlns:xlink="http://www.w3.org/1999/xlink" x="0px" y="0px"
	 viewBox="0 0 194.4 45.94" style="enable-background:new 0 0 194.4 45.94;" xml:space="preserve">
<style type="text/css">
	.st0{fill:#5D5B61;}
	.st1{fill:#DCE8EE;}
	.st2{fill:#D71D24;}
	.st3{fill:#FFFFFF;}
</style>
<g>
	<path class="st0" d="M192.28,10.64c-1.25-0.94-2.94-1.4-5.16-1.4c-1.34,0-2.67,0.19-3.95,0.55c-0.4-0.15-0.82-0.22-1.25-0.22h-8.33
		c-1.22,0-2.35,0.61-3.01,1.64l-0.44,0.68c-0.78-0.8-1.84-1.43-3.14-1.88c-1.47-0.52-3.28-0.77-5.55-0.77
		c-2.54,0-4.91,0.35-7.05,1.05c-0.48,0.16-0.95,0.33-1.4,0.52c-0.68-1.01-1.84-1.61-3.11-1.57c-1.17,0.05-2.34,0.26-3.49,0.61
		c-0.44-0.19-0.93-0.29-1.41-0.29h-8.16c-0.32,0-0.64,0.04-0.96,0.13c-0.58-0.32-1.23-0.48-1.9-0.45c-1.16,0.05-2.33,0.26-3.48,0.61
		c-0.44-0.19-0.93-0.29-1.41-0.29h-8.16c-1.22,0-2.35,0.61-3.01,1.64l-0.27,0.41c-0.28-0.27-0.59-0.52-0.92-0.75
		c-1.63-1.11-4.05-1.63-7.63-1.63c-2.65,0-5.11,0.36-7.29,1.06c-1.52,0.49-2.8,1.04-3.88,1.67c-0.34-0.5-0.77-0.95-1.29-1.33
		c-1.27-0.95-2.95-1.4-5.14-1.4c-1.4,0-2.85,0.23-4.3,0.69c-0.45,0.14-0.91,0.31-1.37,0.51c-1.24-0.8-2.82-1.2-4.71-1.2
		c-1.33,0-2.68,0.19-4.01,0.57c-0.42-0.16-0.86-0.25-1.31-0.25h-5.27c0.1-0.75-0.04-1.51-0.4-2.17c-0.63-1.15-1.83-1.86-3.13-1.86
		h-8.41c-0.37,0-0.74,0.06-1.09,0.17l0.07-0.11c0.75-1.1,0.83-2.51,0.22-3.68C57.16,0.73,55.95,0,54.62,0H44.45
		C43.48-0.02,20.64-0.34,4.69,17.74c-0.73,0.79-7.08,7.98-3.71,16.98C3.81,42.27,11.8,45.94,25.4,45.94h152.92
		c1.1,0,2.12-0.5,2.8-1.36l8.97-11.37c0.84-1.07,1-2.55,0.41-3.77c-0.56-1.15-1.7-1.91-2.96-2l4.41-6.88c1.28-2,1.98-3.37,2.26-4.45
		C194.77,14.01,194.05,11.96,192.28,10.64z M50.31,15.37l-7.73,12.06l-10.93,0c-3.91,0.06-7-1.08-7.2-1.56
		c-0.07-0.27,0-1.32,1.23-2.93c2.53-3.32,8.76-7.2,17.99-7.2h5.05C49.28,15.75,49.83,15.62,50.31,15.37z"/>
	<path class="st1" d="M192.73,15.72c-0.24,0.92-0.88,2.15-2.07,4.01l-5.93,9.24h2.56c0.78,0,1.49,0.45,1.83,1.15
		c0.34,0.7,0.25,1.53-0.23,2.14l-8.97,11.37c-0.39,0.49-0.97,0.77-1.6,0.77H25.4C12.52,44.4,5,41.06,2.42,34.19
		c-3.08-8.22,2.81-14.77,3.41-15.41C21.33,1.19,43.52,1.52,44.45,1.54l10.17,0c0.75,0,1.45,0.42,1.8,1.09
		c0.35,0.67,0.3,1.47-0.12,2.1l-5.91,8.61c-0.38,0.55-1.01,0.88-1.68,0.88h-5.05c-9.79,0-16.47,4.2-19.21,7.8
		c-1.22,1.61-1.78,3.2-1.49,4.27c0.51,1.85,5.39,2.75,8.7,2.69h11.75l10.86-16.93c0.12-0.19,0.28-0.36,0.45-0.5
		c0.05-0.22,0.14-0.43,0.27-0.62l1.87-2.92c0.37-0.58,1.02-0.93,1.71-0.93h8.41c0.74,0,1.43,0.41,1.78,1.06
		c0.36,0.65,0.33,1.45-0.07,2.07l-0.58,0.9h7.67c0.42,0,0.83,0.13,1.16,0.36c0.08-0.03,0.15-0.05,0.23-0.07
		c1.3-0.41,2.63-0.62,3.93-0.62c2.24,0,3.64,0.64,4.51,1.43c0.69-0.33,1.37-0.6,2.04-0.82c1.3-0.41,2.59-0.62,3.83-0.62
		c1.85,0,3.23,0.36,4.22,1.1c0.88,0.65,1.39,1.52,1.51,2.47c0.08-0.07,0.16-0.14,0.23-0.21c1.19-0.93,2.77-1.71,4.83-2.38
		c2.03-0.66,4.33-0.99,6.82-0.99c3.26,0,5.41,0.43,6.77,1.36c0.93,0.64,1.53,1.43,1.8,2.32l1.55-2.42c0.37-0.58,1.02-0.93,1.71-0.93
		h8.16c0.46,0,0.9,0.16,1.25,0.43c1.23-0.45,2.47-0.7,3.72-0.75c0.64-0.03,1.22,0.25,1.62,0.72c0.34-0.24,0.74-0.39,1.17-0.39H145
		c0.46,0,0.9,0.16,1.25,0.43c1.23-0.45,2.47-0.7,3.72-0.75c0.77-0.03,1.47,0.36,1.85,1.02c0.21,0.36,0.28,0.76,0.26,1.15
		c0.86-0.46,1.8-0.86,2.82-1.19c1.98-0.65,4.19-0.98,6.57-0.98c2.09,0,3.73,0.22,5.04,0.68c1.57,0.54,2.63,1.32,3.22,2.4
		c0.17,0.31,0.29,0.63,0.39,0.95l1.78-2.77c0.37-0.58,1.02-0.93,1.71-0.93h8.33c0.41,0,0.79,0.12,1.12,0.34
		c0.06-0.02,0.12-0.04,0.18-0.06c1.26-0.4,2.58-0.6,3.9-0.6c1.87,0,3.26,0.36,4.23,1.09C192.62,12.82,193.12,14.22,192.73,15.72z"/>
	<g id="Cimarron_White_x5C__00000153674632364850714720000016716191254241441211_">
		<polygon class="st2" points="66.99,9.1 58.58,9.1 56.71,12.02 65.12,12.02 		"/>
		<path class="st2" d="M190.14,13.49c-0.6-0.45-1.61-0.68-3.01-0.68c-1.12,0-2.22,0.17-3.29,0.51c-1.07,0.34-2.13,0.84-3.15,1.52
			l1.24-1.7h-8.33L162.14,31h-6.62c0.96-0.29,1.87-0.67,2.72-1.13c1.23-0.67,2.2-1.39,2.94-2.16c0.73-0.77,1.63-1.97,2.69-3.62
			l2.88-4.5c0.83-1.3,1.32-2.27,1.47-2.9c0.14-0.63,0.05-1.25-0.28-1.85c-0.33-0.6-1.03-1.09-2.11-1.46
			c-1.07-0.38-2.53-0.57-4.36-0.57c-2.18,0-4.16,0.29-5.94,0.87c-1.77,0.58-3.24,1.35-4.39,2.31c-1.15,0.96-2.27,2.29-3.37,3.99
			l-3.02,4.7c-1,1.56-1.6,2.72-1.8,3.5c-0.2,0.78-0.14,1.44,0.21,2c0.2,0.32,0.54,0.59,0.99,0.81h-10.59l4.32-6.75
			c1.14-1.78,1.95-2.91,2.43-3.41c0.48-0.49,1.16-0.88,2.04-1.16c0.88-0.28,2.07-0.42,3.56-0.42l4.14-6.46
			c-2.31,0.1-4.62,1.02-6.91,2.74l1.86-2.42h-8.16L125.39,31h-7.74l4.33-6.75c1.13-1.78,1.95-2.91,2.43-3.41
			c0.47-0.49,1.15-0.88,2.03-1.16c0.88-0.28,2.07-0.42,3.56-0.42l4.14-6.46c-2.32,0.1-4.62,1.02-6.91,2.74l1.86-2.42h-8.16
			L109.47,31h-2.82l5.59-8.71c1.95-3.03,3.09-5.04,3.43-6c0.34-0.98,0.03-1.8-0.95-2.46c-0.98-0.67-2.85-1.01-5.62-1.01
			c-2.31,0-4.37,0.3-6.2,0.89c-1.82,0.59-3.22,1.27-4.19,2.04c-0.97,0.77-1.91,1.86-2.82,3.28l-0.79,1.22h7.68l1.22-1.91
			c0.66-1.02,1.13-1.65,1.42-1.89c0.29-0.25,0.71-0.37,1.26-0.37c0.48,0,0.74,0.14,0.76,0.43c0.03,0.3-0.27,0.92-0.88,1.87
			c-0.49,0.76-0.91,1.27-1.25,1.51c-0.35,0.25-2.1,0.74-5.25,1.46c-2.93,0.66-4.88,1.24-5.83,1.74c-0.96,0.5-1.87,1.43-2.76,2.8
			l-0.97,1.51c-1.18,1.85-1.36,3.05-0.52,3.6h-4.58l8.04-12.54c0.96-1.5,1.53-2.58,1.71-3.25c0.17-0.67-0.05-1.24-0.67-1.7
			c-0.61-0.46-1.62-0.69-3.01-0.69c-1.06,0-2.13,0.18-3.21,0.52c-1.09,0.35-2.2,0.87-3.33,1.56c-0.36-1.39-1.64-2.08-3.83-2.08
			c-1.12,0-2.23,0.18-3.33,0.52c-1.11,0.35-2.19,0.87-3.27,1.56l1.28-1.76h-8.09L56.25,31h-3.3l11.46-17.86h-8.42L44.53,31H31.71
			c0,0-9.5,0.18-10.7-4.18c-1.41-5.15,7.47-14.64,22.66-14.64h5.05l5.91-8.61H44.4c0,0-22.02-0.53-37.08,16.58
			c0,0-5.76,5.96-3,13.32c2.62,6.99,11.33,8.89,21.08,8.89c9.74,0,152.92,0,152.92,0L187.29,31h-6.27l7.93-12.36
			c1.03-1.6,1.64-2.75,1.82-3.43C190.95,14.51,190.74,13.94,190.14,13.49z M151.78,26.48l5.31-8.26c0.6-0.94,1.06-1.53,1.38-1.78
			c0.31-0.25,0.71-0.37,1.2-0.37c0.49,0,0.72,0.12,0.71,0.37c-0.01,0.25-0.32,0.84-0.92,1.78l-5.42,8.44
			c-0.5,0.8-0.92,1.31-1.22,1.55c-0.31,0.24-0.7,0.36-1.18,0.36c-0.46,0-0.7-0.13-0.69-0.39C150.94,27.91,151.22,27.34,151.78,26.48
			z M98.89,26.31c0.53-0.82,1.04-1.46,1.53-1.91c0.49-0.44,1.61-0.99,3.33-1.64l-2.42,3.77c-0.59,0.92-1.03,1.49-1.33,1.71
			c-0.29,0.22-0.69,0.32-1.2,0.32c-0.54,0-0.82-0.14-0.82-0.41C97.98,27.87,98.29,27.26,98.89,26.31z M82.13,19.54
			c1.01-1.58,1.71-2.55,2.12-2.92c0.41-0.37,0.9-0.55,1.48-0.55c0.57,0,0.81,0.19,0.73,0.56c-0.09,0.37-0.63,1.34-1.63,2.91
			L77.48,31h-2.7L82.13,19.54z M72.02,18.78c0.57-0.88,0.95-1.46,1.16-1.73c0.2-0.27,0.49-0.5,0.87-0.69
			c0.38-0.19,0.74-0.28,1.11-0.28c0.58,0,0.82,0.18,0.71,0.54c-0.1,0.36-0.73,1.44-1.88,3.23L66.85,31h-2.66L72.02,18.78z M97.4,31
			c0.69-0.3,1.37-0.68,2.02-1.15L98.69,31H97.4z M180.66,18.79L172.83,31h-2.52l7.63-11.9c0.88-1.38,1.51-2.23,1.86-2.55
			c0.35-0.32,0.82-0.48,1.4-0.48c0.56,0,0.8,0.14,0.76,0.42C181.91,16.76,181.48,17.53,180.66,18.79z"/>
		<path class="st0" d="M144.47,21.36l-1.43,2.23c-1.15,1.79-1.8,3.09-2.06,4.08c-0.12,0.47-0.17,0.9-0.17,1.29h-3.53l2.32-3.62
			c1.44-2.25,2.01-2.92,2.17-3.08c0.24-0.25,0.66-0.47,1.19-0.64C143.26,21.53,143.74,21.43,144.47,21.36z"/>
		<path class="st0" d="M129.18,21.32l-4.9,7.64h-2.91l2.33-3.62c1.43-2.24,1.99-2.9,2.18-3.09c0.16-0.17,0.5-0.41,1.17-0.63
			C127.42,21.51,128.09,21.37,129.18,21.32z"/>
	</g>
	<path id="Registered_00000020381500300423814140000004189704748244354231_" d="M187.78,43.63c0,1.13-0.91,2.04-2.03,2.04
		c-1.12,0-2.04-0.9-2.04-2.04c0-1.12,0.91-2.03,2.04-2.03C186.87,41.6,187.78,42.51,187.78,43.63z M184.02,43.64
		c0,0.96,0.77,1.73,1.74,1.73c0.96,0,1.72-0.77,1.72-1.73c0-0.96-0.76-1.73-1.72-1.73C184.79,41.91,184.02,42.68,184.02,43.64z
		 M185.37,44.81h-0.38v-2.34h0.93c0.45,0,0.65,0.29,0.65,0.58c0,0.28-0.21,0.49-0.51,0.54v0.01c0.29,0.03,0.39,0.12,0.41,0.59
		c0.01,0.1,0.04,0.47,0.09,0.61h-0.37c-0.09-0.16-0.07-0.46-0.1-0.78c-0.03-0.25-0.24-0.26-0.35-0.26h-0.38V44.81z M185.37,43.46
		h0.49c0.23,0,0.34-0.17,0.34-0.38c0-0.17-0.09-0.36-0.34-0.36h-0.49V43.46z"/>
	<polygon class="st3" points="51.44,40.37 45.91,40.37 49.63,34.68 44.38,34.68 45.46,33.04 61.56,33.04 60.49,34.68 55.16,34.68 	
		"/>
	<polygon class="st3" points="99.01,40.37 103.8,33.04 109.32,33.04 104.53,40.37 	"/>
	<polygon class="st3" points="121.73,40.37 108.31,40.37 113.1,33.04 118.62,33.04 114.9,38.73 122.8,38.73 	"/>
	<polygon class="st3" points="139.24,37.41 131.86,37.41 130.98,38.76 139.24,38.76 138.19,40.37 124.41,40.37 129.2,33.04 
		142.55,33.04 141.51,34.64 133.67,34.64 132.89,35.82 140.28,35.82 	"/>
	<path class="st3" d="M171.73,35.93c3.38,0.48,4.59,1.19,3.93,2.21c-0.82,1.26-4.3,2.35-10.31,2.35c-2.47,0-4.73-0.24-5.74-0.46
		l2.09-1.62c1.1,0.23,3,0.46,5.04,0.46c1.89,0,2.95-0.23,3.19-0.6c0.24-0.36-0.54-0.57-2.67-0.85c-3.2-0.44-5.04-1.12-4.33-2.21
		c0.84-1.29,4.55-2.3,9.73-2.3c2.47,0,4.11,0.17,5.33,0.39l-2.18,1.56c-0.79-0.14-2.18-0.35-4.26-0.35c-1.68,0-2.73,0.22-2.95,0.54
		C168.37,35.43,169.38,35.58,171.73,35.93z"/>
	<path class="st3" d="M77.36,33.55c-1.29-0.42-3.44-0.57-6.59-0.57c-2.74,0-5.13,0.06-6.75,0.15l-4.72,7.23h5.45l1.8-2.75h0.89
		c1.7,0,2.34,0.18,2.32,1.06c0.02,0.9,0.17,1.47,0.33,1.69h5.64c-0.21-0.28-0.19-1.35-0.34-2.1c-0.11-0.63-0.53-1.1-1.77-1.3
		l0.03-0.04c1.76-0.21,4.1-0.86,4.7-1.78C78.82,34.43,78.43,33.91,77.36,33.55z M72.77,35.3c-0.36,0.55-1.79,0.91-3.86,0.91h-1.43
		l1.13-1.74c0.29-0.03,0.86-0.04,1.89-0.04C72.33,34.44,73.13,34.75,72.77,35.3z"/>
	<path class="st3" d="M159.29,33.55c-1.29-0.42-3.44-0.57-6.58-0.57c-2.74,0-5.14,0.06-6.75,0.15l-4.73,7.23h5.46l1.8-2.75h0.88
		c1.71,0,2.35,0.18,2.32,1.06c0.02,0.9,0.17,1.47,0.33,1.69h5.64c-0.21-0.28-0.19-1.35-0.34-2.1c-0.1-0.63-0.53-1.1-1.77-1.3
		l0.03-0.04c1.76-0.21,4.09-0.86,4.7-1.78C160.76,34.43,160.37,33.91,159.29,33.55z M154.71,35.3c-0.36,0.55-1.78,0.91-3.86,0.91
		h-1.43l1.14-1.74c0.28-0.03,0.85-0.04,1.89-0.04C154.26,34.44,155.07,34.75,154.71,35.3z"/>
	<path class="st3" d="M95.04,33.04h-7.32l-10.77,7.33h5.71l2.26-1.7h5.31l0.2,1.7h5.95L95.04,33.04z M86.61,37.21l1.74-1.3
		c0.58-0.41,1.28-1.02,1.86-1.46h0.06c0.02,0.44,0.03,1.04,0.06,1.45l0.09,1.32H86.61z"/>
</g>
</svg>
