<?xml version="1.0" encoding="utf-8"?>
<!-- Generator: Adobe Illustrator 27.2.0, SVG Export Plug-In . SVG Version: 6.00 Build 0)  -->
<svg version="1.1" id="Layer_1" xmlns="http://www.w3.org/2000/svg" xmlns:xlink="http://www.w3.org/1999/xlink" x="0px" y="0px"
	 viewBox="0 0 194.4 41.35" style="enable-background:new 0 0 194.4 41.35;" xml:space="preserve">
<g>
	<path d="M99.34,11.34c-5.22-1.83-9.64,2.07-11.11,3.59l0.01-6.76c0.02-1.08,0.21-1.95,0.59-2.7l0.42,0.12
		c0.89,0.3,3.1,0.84,7.28,0.84c3.29-0.22,7.41-1.78,9.64-6.24c0,0-0.46-0.22-1.49,0.43c-2.9,1.83-8.92,0.4-10.55-0.4
		c-0.45-0.22-1.4-0.54-2.48,0.38c-0.84,0.72-1.66,1.47-2.53,2.27l0-0.01L88.76,3.2c-0.95,0.87-1.96,1.82-3.13,2.89
		c-0.26,0.27-0.51,0.55-0.75,0.85c-1.88,2.09-2.94,4.23-2.97,8.04l0,0v11.21c0,0.62-0.06,1.16-0.18,1.66
		c-4.15-6.29-2.72-13.62-1.75-16.48c1.54-4.51,5.46-7.95,5.46-7.95s-0.67-0.55-1.64-0.03c-1.93,1.04-7.55,4.27-9.88,10.67
		C69.99,24.88,74.19,33.5,84.25,36.1c6.01,1.55,15.89-0.58,19.96-10.18C107.42,18.36,103.88,12.94,99.34,11.34z M82.73,29.19
		c3.44-3.14,5.36-5.13,5.49-10.1l0-1.49c0.21-0.17,1.26-0.96,2.75-1.51v17.89C88.03,33.66,85,31.94,82.73,29.19z M99.23,29.6
		c-1.61,2.92-4.09,4.29-6.77,4.43V15.68c0.95-0.18,2-0.21,3.09,0.05C99.46,16.69,103.02,22.71,99.23,29.6z"/>
	<path d="M45.62,10.86c-1.66-1.49-3.27-0.16-3.27-0.16l-5.71,4.61l0.02-9.23c0-1.71,1.16-2.92,1.16-2.92s-0.71-0.42-1.61,0.28
		c-0.75,0.59-4.14,3.13-5.26,3.98c-0.39,0.3-0.36,0.73-0.36,0.73l-0.02,23.64c0.01,1.26,0.36,1.8,1.73,2.85
		c1.5,1,2.57,2.22,4.45,0.89c1.75-1.43,2.06-1.67,2.97-2.48c0,0-0.51-0.38-1.4-0.13c-1.77,0.51-1.71-2.28-1.71-2.28l0.03-13.41
		l3.63-2.89c0.51-0.4,1.13-0.11,1.33,0.22c0.21,0.35,0.37,0.82,0.35,1.49l0,14.03c-0.14,4.82-3.05,7.92-5.11,9.64
		c-0.88,0.76-0.58,1.65-0.58,1.65c7.41-3.54,11.86-9.05,11.76-14.23V16.56C48.02,14.47,47.95,12.98,45.62,10.86z"/>
	<path d="M28.01,32.8c-0.74,0.28-1.87,0.55-3.24,0.66V8.1c3.16-0.38,6.89-2.01,8.97-6.17c0,0-0.45-0.22-1.49,0.43
		c-2.9,1.83-6.38,0.51-8.53-0.1c-0.43-0.12-6.36-2.22-10.01-2.22C4.86,0.05,1.05,4.68,0,10.87c0,0,0.5,0.06,1.3-0.87
		C2.85,8.23,4.93,7.39,6.29,7c2.63-0.76,4.71-0.91,6.56-0.76C7.5,9.66,2.48,15.61,2.48,23.2c0,8.73,7.68,13.5,14.39,13.5
		c5.95,0,10.09-1.89,12.75-3.75C29.62,32.95,29.02,32.42,28.01,32.8z M10.02,14.15c1.72-4.49,4.48-6.81,5.43-7.52
		c1.57,0.34,3.07,0.8,4.72,1.13c-3.65,3.32-5.63,3.66-5.67,9.1l0,0v11.38c0,0.93-0.14,1.7-0.41,2.37
		C9.48,27.03,7.64,20.38,10.02,14.15z M16.4,32.03c-0.61-0.29-1.2-0.63-1.74-1l0.51-0.47c3.54-3.22,5.51-3.54,5.64-8.58l0.02-11.91
		c0.02-0.82,0.13-1.51,0.35-2.13c0.67,0.1,1.37,0.18,2.12,0.21v25.38C21.2,33.52,18.77,33.15,16.4,32.03z"/>
	<path d="M173.75,6.07c0-1.71,1.16-2.92,1.16-2.92s-0.71-0.42-1.61,0.28c-0.75,0.59-4.14,3.13-5.26,3.98
		c-0.4,0.3-0.36,0.73-0.36,0.73l0,3.74h-0.44v0h-5.19l0.02-5.82c0-1.71,1.16-2.92,1.16-2.92s-0.71-0.42-1.61,0.28
		c-0.75,0.59-4.14,3.14-5.26,3.98c-0.4,0.3-0.36,0.73-0.36,0.73l0.01,3.74h-3.33c0,0,0.89,2.27,3.3,2.27v17.39
		c0,0.89,0.13,2.03,1.73,3.08c1.8,1.01,2.85,2.22,4.72,0.89c1.75-1.43,2.48-2.05,3.39-2.87c0,0-0.51-0.38-1.4-0.13
		c-1.77,0.51-2.4-1.89-2.4-1.89l0.04-16.48h3.73h1.49h0.39v17.39c0,0.89,0.13,2.03,1.73,3.08c1.8,1.01,2.85,2.22,4.72,0.89
		c1.74-1.43,2.48-2.05,3.39-2.87c0,0-0.51-0.38-1.4-0.13c-1.77,0.51-2.4-1.89-2.4-1.89l0.04-16.48h1.89c2.42,0,3.3-2.27,3.3-2.27
		h-5.19L173.75,6.07z"/>
	<path d="M123.2,32.53c-1.77,0.51-2.4-1.89-2.4-1.89h0V13.57c-0.08-0.66-0.38-0.77-1.6-1.43c-1-0.54-2.37-1.25-3.39-1.77
		c-0.67-0.28-1.59-0.37-2.45,0.21c-2.54,2.05-3.77,2.96-7.09,5.23c0,0,0.53,0.44,1.41,0.13c1.11-0.39,2.61-1.5,3.85-1.37
		c1.06,0.11,2.77,1.56,3.24,1.97v2.62c-0.86,0.47-1.95,1.06-2.65,1.45c-5.69,3.14-6.79,6.61-6.79,9.02c0,4.09,4.03,8.14,7.44,5.76
		l2.41-2.07c0.25,0.44,0.66,0.89,1.32,1.32c1.8,1.01,2.85,2.22,4.72,0.89c1.74-1.43,2.48-2.05,3.4-2.87
		C124.61,32.66,124.09,32.27,123.2,32.53z M113.95,32.07c-2.84,0.03-3.59-2.94-3.6-4.99c-0.01-2.03,1.1-4.04,3.07-5.46
		c0.46-0.33,0.93-0.64,1.35-0.91v10.84c0,0.13,0,0.27,0.01,0.42C114.51,32.03,114.23,32.07,113.95,32.07z"/>
	<path d="M130.2,21.98l1.84-1.4c2.66-2.07,4.66-5.95,0.94-9.14c-1.66-1.43-4.03-1.67-5.18-0.57c-2.54,2.04-1.88,1.62-5.2,3.88
		c0,0,0.52,0.41,1.41,0.13c0.62-0.2,3-1.25,5.12,0.64c1.54,1.37,1.96,3.87-0.55,5.89l-5.97,4.7c0,0,0.54,0.45,1.5,0
		c0.47-0.22,1.12-0.44,1.99-0.44c2.27,0.01,3.65,1.99,3.65,4.04c-0.02,5.02-3.12,8.22-5.23,9.98c-0.88,0.76-0.58,1.65-0.58,1.65
		c7.4-3.54,11.87-9.06,11.77-14.23C135.65,23.58,133.34,21.82,130.2,21.98z"/>
	<path d="M194.12,16.78l-5.57-5.85c0,0-1.2-1.46-3.11-0.35c-1.7,1.13-4,2.48-5.55,3.25c-0.19,0.1-0.53,0.38-0.53,0.84v16.89
		c0,0.89,0.39,1.89,1.6,2.56c1.8,1.01,4.54,2.8,5.85,1.56c2.54-2.05,3.77-2.97,7.09-5.23c0,0-0.53-0.44-1.41-0.13
		c-1.11,0.39-2.61,1.5-3.85,1.37c-1.24-0.13-3.36-2.08-3.36-2.08l0-4.41l8.75-7.02c0,0,0.37-0.29,0.36-0.74
		C194.4,17.05,194.12,16.78,194.12,16.78z M185.28,23.39v-8.26l4.45,4.58L185.28,23.39z"/>
	<path d="M59.75,10.93c0,0-1.2-1.46-3.11-0.35c-1.7,1.13-4,2.48-5.55,3.25c-0.19,0.1-0.53,0.38-0.53,0.84v16.89
		c0,0.89,0.39,1.89,1.6,2.56c1.8,1.01,4.54,2.8,5.85,1.56c2.54-2.05,3.77-2.97,7.09-5.23c0,0-0.53-0.44-1.4-0.13
		c-1.11,0.39-2.61,1.5-3.85,1.37c-1.24-0.13-3.36-2.08-3.36-2.08l0-4.41l8.75-7.02c0,0,0.37-0.29,0.36-0.74
		c0-0.4-0.28-0.66-0.28-0.66L59.75,10.93z M56.47,23.39v-8.26l4.46,4.58L56.47,23.39z"/>
	<path d="M147.55,10.93c0,0-1.2-1.46-3.11-0.35c-1.7,1.13-4,2.48-5.55,3.25c-0.19,0.1-0.53,0.38-0.53,0.84v16.89
		c0,0.89,0.39,1.89,1.6,2.56c1.8,1.01,4.54,2.8,5.85,1.56c2.54-2.05,3.77-2.97,7.09-5.23c0,0-0.53-0.44-1.41-0.13
		c-1.11,0.39-2.61,1.5-3.85,1.37c-1.24-0.13-3.36-2.08-3.36-2.08l0-4.41l8.75-7.02c0,0,0.37-0.29,0.37-0.74
		c0-0.4-0.28-0.66-0.28-0.66L147.55,10.93z M144.28,23.39v-8.26l4.45,4.58L144.28,23.39z"/>
</g>
</svg>
