<?xml version="1.0" encoding="utf-8"?>
<!-- Generator: Adobe Illustrator 27.5.0, SVG Export Plug-In . SVG Version: 6.00 Build 0)  -->
<svg version="1.1" id="FOLIENCE_LOGO_1_" xmlns="http://www.w3.org/2000/svg" xmlns:xlink="http://www.w3.org/1999/xlink" x="0px"
	 y="0px" viewBox="0 0 334.5 89" style="enable-background:new 0 0 334.5 89;" xml:space="preserve">
<style type="text/css">
	.st0{fill:#098DC7;}
</style>
<g id="FOLIENCE_LOGO">
	<g id="Invest_in_Different.">
		<path d="M134.9,70.1c0-0.5,0.2-0.7,0.7-0.7h0.8c0.5,0,0.7,0.3,0.7,0.7v10.6c0,0.5-0.2,0.7-0.7,0.7h-0.8c-0.5,0-0.7-0.2-0.7-0.7
			V70.1z"/>
		<path d="M140.3,73.5c0-0.5,0.2-0.7,0.7-0.7h0.7c0.5,0,0.7,0.2,0.7,0.7V74c0,0.2,0,0.4,0,0.4h0c0.4-0.7,1.3-1.8,3.1-1.8
			c1.9,0,3,1,3,3.3v4.8c0,0.5-0.2,0.7-0.7,0.7H147c-0.5,0-0.7-0.2-0.7-0.7v-4.4c0-1-0.3-1.8-1.4-1.8c-1.5,0-2.5,1.3-2.5,2.8v3.3
			c0,0.5-0.2,0.7-0.7,0.7H141c-0.5,0-0.7-0.2-0.7-0.7L140.3,73.5L140.3,73.5z"/>
		<path d="M150.3,73.6c-0.2-0.5,0-0.8,0.6-0.8h0.8c0.4,0,0.7,0.2,0.8,0.6l1.6,4.8c0.2,0.5,0.3,1.3,0.3,1.3h0c0,0,0.1-0.8,0.3-1.3
			l1.6-4.8c0.1-0.4,0.4-0.6,0.8-0.6h0.8c0.5,0,0.7,0.3,0.6,0.8l-2.6,7.2c-0.1,0.4-0.4,0.6-0.8,0.6h-1.4c-0.4,0-0.7-0.2-0.8-0.6
			L150.3,73.6z"/>
		<path d="M164.3,72.6c2.5,0,3.8,1.7,3.8,4.1c0,0.4-0.3,0.7-0.7,0.7h-5.3c0.1,1.6,1.3,2.4,2.6,2.4c0.8,0,1.5-0.3,1.9-0.6
			c0.4-0.2,0.7-0.2,1,0.2l0.2,0.3c0.2,0.4,0.1,0.7-0.2,1c-0.6,0.4-1.6,0.9-2.9,0.9c-2.9,0-4.6-2.1-4.6-4.5
			C159.9,74.4,161.7,72.6,164.3,72.6z M166,76.1c0-1.2-0.8-1.9-1.7-1.9c-1.1,0-1.9,0.8-2.1,1.9H166z"/>
		<path d="M170.1,79.8l0.2-0.3c0.2-0.4,0.5-0.4,1-0.2c0.4,0.2,1,0.6,1.9,0.6c0.7,0,1.2-0.3,1.2-0.9c0-1.4-4.3-0.9-4.3-3.8
			c0-1.7,1.5-2.6,3.3-2.6c1.1,0,1.9,0.4,2.4,0.6c0.4,0.2,0.4,0.6,0.2,1l-0.2,0.3c-0.2,0.4-0.5,0.5-1,0.3c-0.4-0.2-0.9-0.4-1.6-0.4
			c-0.7,0-1.2,0.3-1.2,0.8c0,1.4,4.3,0.9,4.3,3.8c0,1.5-1.3,2.7-3.3,2.7c-1.4,0-2.4-0.5-2.9-0.9C169.9,80.5,169.9,80.1,170.1,79.8z"
			/>
		<path d="M179.3,74.6h-0.5c-0.5,0-0.7-0.2-0.7-0.7v-0.3c0-0.5,0.2-0.7,0.7-0.7h0.5v-1.8c0-0.5,0.2-0.7,0.7-0.7h0.7
			c0.5,0,0.7,0.3,0.7,0.7v1.8h1.3c0.5,0,0.7,0.2,0.7,0.7v0.3c0,0.5-0.2,0.7-0.7,0.7h-1.3V78c0,1.3,0.8,1.5,1.4,1.6
			c0.5,0.1,0.7,0.2,0.7,0.7v0.5c0,0.5-0.3,0.7-0.9,0.7c-1.5,0-3.4-0.8-3.4-3.2L179.3,74.6L179.3,74.6z"/>
		<path d="M190.9,70.6v-0.5c0-0.5,0.2-0.7,0.7-0.7h0.7c0.5,0,0.7,0.3,0.7,0.7v0.5c0,0.5-0.2,0.7-0.7,0.7h-0.7
			C191.2,71.3,190.9,71.1,190.9,70.6z M190.9,73.5c0-0.5,0.2-0.7,0.7-0.7h0.7c0.5,0,0.7,0.2,0.7,0.7v7.2c0,0.5-0.2,0.7-0.7,0.7h-0.7
			c-0.5,0-0.7-0.2-0.7-0.7V73.5z"/>
		<path d="M196,73.5c0-0.5,0.2-0.7,0.7-0.7h0.7c0.5,0,0.7,0.2,0.7,0.7V74c0,0.2,0,0.4,0,0.4h0c0.4-0.7,1.3-1.8,3.1-1.8
			c1.9,0,3,1,3,3.3v4.8c0,0.5-0.2,0.7-0.7,0.7h-0.7c-0.5,0-0.7-0.2-0.7-0.7v-4.4c0-1-0.3-1.8-1.4-1.8c-1.5,0-2.5,1.3-2.5,2.8v3.3
			c0,0.5-0.2,0.7-0.7,0.7h-0.7c-0.5,0-0.7-0.2-0.7-0.7L196,73.5L196,73.5z"/>
		<path d="M212.4,70.1c0-0.5,0.2-0.7,0.7-0.7h3.4c3.7,0,6.1,2.2,6.1,6s-2.4,6-6.1,6h-3.4c-0.5,0-0.7-0.2-0.7-0.7V70.1z M216.4,79.5
			c2.4,0,4-1.4,4-4.2c0-2.7-1.6-4.1-4-4.1h-1.8v8.3H216.4z"/>
		<path d="M225.3,70.6v-0.5c0-0.5,0.2-0.7,0.7-0.7h0.7c0.5,0,0.7,0.3,0.7,0.7v0.5c0,0.5-0.2,0.7-0.7,0.7H226
			C225.6,71.3,225.3,71.1,225.3,70.6z M225.3,73.5c0-0.5,0.2-0.7,0.7-0.7h0.7c0.5,0,0.7,0.2,0.7,0.7v7.2c0,0.5-0.2,0.7-0.7,0.7H226
			c-0.5,0-0.7-0.2-0.7-0.7V73.5z"/>
		<path d="M230.9,74.5h-0.4c-0.5,0-0.7-0.2-0.7-0.7v-0.3c0-0.5,0.2-0.7,0.7-0.7h0.4v-0.3c0-2.7,2.4-3.2,3.3-3.2h0.2
			c0.5,0,0.7,0.2,0.7,0.7v0.4c0,0.5-0.2,0.7-0.7,0.7c-0.5,0-1.4,0.2-1.4,1.4v0.2h3.6v-0.3c0-2.7,2.4-3.2,3.3-3.2h0.2
			c0.5,0,0.7,0.2,0.7,0.7v0.4c0,0.5-0.2,0.7-0.7,0.7c-0.5,0-1.4,0.2-1.4,1.4v0.2h1.1c0.5,0,0.7,0.2,0.7,0.7v0.3
			c0,0.5-0.2,0.7-0.6,0.7h-1.3v6.2c0,0.5-0.2,0.7-0.7,0.7h-0.7c-0.5,0-0.7-0.2-0.7-0.7v-6.2H233v6.2c0,0.5-0.2,0.7-0.7,0.7h-0.7
			c-0.5,0-0.7-0.2-0.7-0.7L230.9,74.5L230.9,74.5z"/>
		<path d="M246.4,72.6c2.5,0,3.8,1.7,3.8,4.1c0,0.4-0.3,0.7-0.7,0.7h-5.3c0.1,1.6,1.3,2.4,2.6,2.4c0.8,0,1.5-0.3,1.9-0.6
			c0.4-0.2,0.7-0.2,1,0.2l0.2,0.3c0.2,0.4,0.1,0.7-0.2,1c-0.6,0.4-1.6,0.9-2.9,0.9c-2.9,0-4.6-2.1-4.6-4.5
			C242.1,74.4,243.8,72.6,246.4,72.6z M248.1,76.1c0-1.2-0.8-1.9-1.7-1.9c-1.1,0-1.9,0.8-2.1,1.9H248.1z"/>
		<path d="M252.7,73.5c0-0.5,0.2-0.7,0.7-0.7h0.7c0.5,0,0.7,0.2,0.7,0.7v0.8c0,0.3-0.1,0.6-0.1,0.6h0c0.3-1,1.3-2.2,2.5-2.2
			c0.5,0,0.6,0.2,0.6,0.7v0.7c0,0.5-0.3,0.7-0.7,0.7c-1.6,0-2.3,1.6-2.3,3.1v2.8c0,0.5-0.2,0.7-0.7,0.7h-0.7c-0.5,0-0.7-0.2-0.7-0.7
			V73.5z"/>
		<path d="M263.6,72.6c2.5,0,3.8,1.7,3.8,4.1c0,0.4-0.3,0.7-0.7,0.7h-5.3c0.1,1.6,1.3,2.4,2.6,2.4c0.8,0,1.5-0.3,1.9-0.6
			c0.4-0.2,0.7-0.2,1,0.2l0.2,0.3c0.2,0.4,0.1,0.7-0.2,1c-0.6,0.4-1.6,0.9-2.9,0.9c-2.9,0-4.6-2.1-4.6-4.5
			C259.3,74.4,261,72.6,263.6,72.6z M265.3,76.1c0-1.2-0.8-1.9-1.7-1.9c-1.1,0-1.9,0.8-2.1,1.9H265.3z"/>
		<path d="M269.9,73.5c0-0.5,0.2-0.7,0.7-0.7h0.7c0.5,0,0.7,0.2,0.7,0.7V74c0,0.2,0,0.4,0,0.4h0c0.4-0.7,1.3-1.8,3.1-1.8
			c1.9,0,3,1,3,3.3v4.8c0,0.5-0.2,0.7-0.7,0.7h-0.7c-0.5,0-0.7-0.2-0.7-0.7v-4.4c0-1-0.3-1.8-1.4-1.8c-1.5,0-2.5,1.3-2.5,2.8v3.3
			c0,0.5-0.2,0.7-0.7,0.7h-0.7c-0.5,0-0.7-0.2-0.7-0.7L269.9,73.5L269.9,73.5z"/>
		<path d="M281.1,74.6h-0.5c-0.5,0-0.7-0.2-0.7-0.7v-0.3c0-0.5,0.2-0.7,0.7-0.7h0.5v-1.8c0-0.5,0.2-0.7,0.7-0.7h0.7
			c0.5,0,0.7,0.3,0.7,0.7v1.8h1.3c0.5,0,0.7,0.2,0.7,0.7v0.3c0,0.5-0.2,0.7-0.7,0.7h-1.3V78c0,1.3,0.8,1.5,1.4,1.6
			c0.5,0.1,0.7,0.2,0.7,0.7v0.5c0,0.5-0.3,0.7-0.9,0.7c-1.5,0-3.4-0.8-3.4-3.2L281.1,74.6L281.1,74.6z"/>
		<path d="M287.9,79.9c0-0.5,0.2-0.7,0.7-0.7h0.7c0.5,0,0.7,0.2,0.7,0.7v0.8c0,0.5-0.2,0.7-0.7,0.7h-0.7c-0.5,0-0.7-0.2-0.7-0.7
			V79.9z"/>
	</g>
	<g id="FOLIENCE">
		<g>
			<path d="M329.4,35.6c-0.4,0-0.8-0.1-1.2-0.2c-0.4-0.1-0.7-0.3-0.9-0.6c-0.3-0.3-0.5-0.6-0.6-0.9c-0.1-0.4-0.2-0.8-0.2-1.2
				c0-0.4,0.1-0.8,0.2-1.2c0.1-0.4,0.4-0.7,0.6-0.9c0.3-0.3,0.6-0.5,0.9-0.6c0.4-0.1,0.8-0.2,1.2-0.2s0.8,0.1,1.2,0.2
				s0.7,0.3,0.9,0.6c0.3,0.3,0.5,0.6,0.6,0.9c0.1,0.4,0.2,0.8,0.2,1.2c0,0.4-0.1,0.8-0.2,1.2c-0.1,0.4-0.4,0.7-0.6,0.9
				c-0.3,0.3-0.6,0.5-0.9,0.6C330.2,35.5,329.8,35.6,329.4,35.6z M329.4,35c0.3,0,0.7-0.1,0.9-0.2c0.3-0.1,0.5-0.3,0.7-0.5
				s0.4-0.4,0.5-0.7c0.1-0.3,0.2-0.6,0.2-1c0-0.4-0.1-0.7-0.2-1c-0.1-0.3-0.3-0.5-0.5-0.7s-0.4-0.4-0.7-0.5s-0.6-0.2-0.9-0.2
				c-0.3,0-0.7,0.1-0.9,0.2c-0.3,0.1-0.5,0.3-0.7,0.5c-0.2,0.2-0.4,0.4-0.5,0.7c-0.1,0.3-0.2,0.6-0.2,1c0,0.4,0.1,0.7,0.2,1
				c0.1,0.3,0.3,0.5,0.5,0.7c0.2,0.2,0.4,0.4,0.7,0.5C328.7,34.9,329.1,35,329.4,35z M328.4,31.1h1.2c0.3,0,0.5,0.1,0.7,0.2
				c0.2,0.2,0.3,0.4,0.3,0.7c0,0.2-0.1,0.4-0.1,0.5c-0.1,0.1-0.2,0.2-0.4,0.3l0.7,1.1H330l-0.6-1H329v1.1h-0.6L328.4,31.1
				L328.4,31.1z M329.4,32.5c0.2,0,0.3,0,0.4-0.1s0.2-0.2,0.2-0.4c0-0.1-0.1-0.3-0.1-0.3c-0.1-0.1-0.2-0.1-0.3-0.1H329v0.9
				L329.4,32.5L329.4,32.5z"/>
		</g>
		<polygon points="305,52.2 305,45.2 318,45.2 318,40.5 305,40.5 305,34.4 322.8,34.4 322.8,29.7 300,29.7 300,56.9 322.9,56.9 
			322.9,52.2 		"/>
		<path d="M273.3,36.6c1.9-1.7,4.4-2.5,7.7-2.5c2,0,3.7,0.3,5,0.9c1.3,0.6,2.5,1.6,3.5,3l0.4,0.5l4.3-2.6l-0.5-0.6
			c-3-4-7.3-6-12.7-6c-4.6,0-8.4,1.3-11.2,3.8c-2.8,2.5-4.3,6-4.3,10.3c0,4.2,1.4,7.5,4.2,10c2.7,2.5,6.4,3.7,11,3.7
			c5.2,0,9.5-2,12.8-6l0.5-0.6l-4.3-2.6l-0.4,0.5c-1.2,1.4-2.4,2.5-3.8,3.1s-3,0.9-4.9,0.9c-3.2,0-5.7-0.8-7.4-2.5
			c-1.8-1.7-2.6-3.8-2.6-6.7C270.5,40.5,271.4,38.3,273.3,36.6z"/>
		<path d="M254.2,48.5c-1.6-1.8-4.1-4.6-7.5-8.4c-3.7-4.1-6.6-7.5-8.8-10.1l-0.2-0.2h-4.3V57h5V38l16.5,18.9h4.3V29.7h-5L254.2,48.5
			L254.2,48.5z"/>
		<polygon points="209.2,45.2 222.2,45.2 222.2,40.5 209.2,40.5 209.2,34.4 227,34.4 227,29.7 204.2,29.7 204.2,56.9 227.2,56.9 
			227.2,52.2 209.2,52.2 		"/>
		<rect x="191.5" y="29.7" width="5" height="27.3"/>
		<polygon points="168.2,29.7 163.2,29.7 163.2,56.9 184.6,56.9 184.6,52.2 168.2,52.2 		"/>
		<path d="M152.9,33.3c-2.7-2.3-6.4-3.5-11.1-3.5c-4.6,0-8.3,1.2-11,3.5c-2.8,2.4-4.2,5.8-4.2,10.1c0,4.3,1.4,7.7,4.1,10.1
			c2.7,2.5,6.5,3.7,11.1,3.7c4.6,0,8.4-1.3,11.1-3.7c2.8-2.5,4.2-5.9,4.2-10.1C157.1,39.1,155.7,35.7,152.9,33.3z M141.8,52.5
			c-3.2,0-5.8-0.8-7.5-2.5c-1.8-1.6-2.6-3.8-2.6-6.7c0-2.9,0.8-5,2.6-6.5c1.7-1.5,4.3-2.3,7.6-2.3c3.3,0,5.9,0.8,7.6,2.3
			c1.8,1.5,2.6,3.7,2.6,6.6c0,2.9-0.9,5.1-2.6,6.7C147.7,51.7,145.1,52.5,141.8,52.5z"/>
		<path d="M102.4,56.9h5V45.2h11.3v-4.7h-11.3v-6.1h11.7c2.6,0,4.7-2.1,4.7-4.7l0,0h-21.4V56.9z"/>
	</g>
	<g id="LEAF">
		<path class="st0" d="M16.5,77.6c1,1,7.7,3.6,16.3,4.3c11.6,0.8,21.8-2.7,29.4-10.3c19.3-19.3,20.6-60.2,20.6-60.2L16.5,77.6z
			 M25.1,73.7l49.3-49.3c-2.1,12.1-6.4,31.7-17,42.4C46.7,77.5,32.4,75.7,25.1,73.7z"/>
		<path class="st0" d="M74.5,14.6l13-13.9c0.4-0.4-0.3-1-0.7-0.7L73,13.1c-10.2,9.6-20.2,19.3-30.1,29.3
			c-9.9,9.9-19.7,19.9-29.3,30.1l-13,13.9c-0.4,0.4,0.3,1,0.7,0.7l13.9-13c10.2-9.6,20.2-19.3,30.1-29.3
			C55.2,34.9,64.9,24.8,74.5,14.6z"/>
		<path class="st0" d="M76.3,4.9c0,0-40.9,1.3-60.2,20.6C8.4,33.1,4.9,43.2,5.7,54.9C6.4,63.5,9,70.2,10,71.1L76.3,4.9z M20.8,30.3
			c10.6-10.6,30.3-15,42.4-17L13.9,62.5C11.9,55.2,10.1,40.9,20.8,30.3z"/>
	</g>
</g>
</svg>
