<?xml version="1.0" encoding="utf-8"?>
<!-- Generator: Adobe Illustrator 27.2.0, SVG Export Plug-In . SVG Version: 6.00 Build 0)  -->
<svg version="1.1" id="Layer_1" xmlns="http://www.w3.org/2000/svg" xmlns:xlink="http://www.w3.org/1999/xlink" x="0px" y="0px"
	 viewBox="0 0 151.05 61.2" style="enable-background:new 0 0 151.05 61.2;" xml:space="preserve">
<path d="M14.56,33.88c-1.32,0.31-3.02,0.62-5.31,0.62C3.33,34.51,0,30.71,0,24.36v-2.9c0-6.31,3.33-10.19,9.26-10.19
	c2.28,0,4.22,0.35,5.31,0.62c0.5,0.12,0.77,0.31,0.77,0.81v4.38c0,0.47-0.23,0.81-0.81,0.74c-1.32-0.12-2.56-0.27-4.45-0.27
	c-1.67,0-2.63,1.04-2.63,3.91v2.9c0,2.87,0.97,3.87,2.63,3.87c1.9,0,3.14-0.08,4.45-0.23c0.58-0.08,0.81,0.23,0.81,0.74v4.34
	C15.34,33.58,15.07,33.77,14.56,33.88 M25.68,34.5c6.47,0,10.15-3.68,10.15-10.5v-2.25c0-6.82-3.68-10.5-10.15-10.5
	c-6.47,0-10.19,3.68-10.19,10.5v2.25C15.49,30.82,19.21,34.5,25.68,34.5 M28.43,24.01c0,3.1-0.97,4.3-2.75,4.3
	c-1.78,0-2.79-1.24-2.79-4.3v-2.25c0-3.1,1.01-4.26,2.79-4.26c1.78,0,2.75,1.2,2.75,4.26V24.01z M48.99,17.42
	c0.58,0,0.93-0.35,0.93-0.78v-4.61c0-0.5-0.47-0.78-0.93-0.78c-4.03,0-7.55,0.31-10.03,1.12c-1.09,0.35-1.39,0.66-1.39,1.28V33.3
	c0,0.43,0.43,0.85,0.85,0.85h5.81c0.43,0,0.77-0.43,0.77-0.85V17.58C45.7,17.46,48.03,17.42,48.99,17.42 M62.32,17.42
	c0.58,0,0.93-0.35,0.93-0.78v-4.61c0-0.5-0.47-0.78-0.93-0.78c-4.03,0-7.55,0.31-10.03,1.12c-1.08,0.35-1.39,0.66-1.39,1.28V33.3
	c0,0.43,0.43,0.85,0.85,0.85h5.81c0.43,0,0.77-0.43,0.77-0.85V17.58C59.03,17.46,61.35,17.42,62.32,17.42 M71.23,9.48
	c0.43,0,0.85-0.35,0.85-0.77v-3.8c0-0.43-0.43-0.77-0.85-0.77h-6.12c-0.42,0-0.89,0.35-0.89,0.77v3.8c0,0.43,0.47,0.77,0.89,0.77
	H71.23 M71.03,34.16c0.43,0,0.85-0.43,0.85-0.85V12.43c0-0.43-0.43-0.81-0.85-0.81h-5.77c-0.43,0-0.85,0.39-0.85,0.81V33.3
	c0,0.43,0.43,0.85,0.85,0.85H71.03 M92.64,33.54C93.8,33.27,94,32.96,94,32.3V4.99c0-0.42-0.43-0.77-0.85-0.77h-5.77
	c-0.43,0-0.78,0.35-0.78,0.77v6.55c-0.81-0.12-2.01-0.27-2.63-0.27c-6.86,0-10.19,3.95-10.19,10.11v3.02
	c0,6.54,3.84,10.11,10.19,10.11C87.45,34.51,90.63,33.96,92.64,33.54 M86.6,28.19c-0.74,0.12-1.51,0.19-2.63,0.19
	c-2.17,0-2.79-1.67-2.79-3.99v-3.02c0-2.29,0.62-3.95,2.79-3.95c0.93,0,1.86,0.08,2.63,0.15V28.19z M105.93,34.5
	c6.47,0,10.15-3.68,10.15-10.5v-2.25c0-6.82-3.68-10.5-10.15-10.5c-6.47,0-10.19,3.68-10.19,10.5v2.25
	C95.74,30.82,99.46,34.5,105.93,34.5 M108.68,24.01c0,3.1-0.97,4.3-2.75,4.3c-1.78,0-2.79-1.24-2.79-4.3v-2.25
	c0-3.1,1.01-4.26,2.79-4.26c1.78,0,2.75,1.2,2.75,4.26V24.01z M129.24,17.42c0.58,0,0.93-0.35,0.93-0.78v-4.61
	c0-0.5-0.46-0.78-0.93-0.78c-4.03,0-7.55,0.31-10.03,1.12c-1.08,0.35-1.39,0.66-1.39,1.28V33.3c0,0.43,0.43,0.85,0.85,0.85h5.81
	c0.43,0,0.78-0.43,0.78-0.85V17.58C125.95,17.46,128.27,17.42,129.24,17.42 M14.56,59.05c0.5-0.12,0.77-0.31,0.77-0.81v-4.34
	c0-0.5-0.23-0.81-0.81-0.73c-1.32,0.15-2.56,0.23-4.45,0.23c-1.67,0-2.63-1.01-2.63-3.87v-2.9c0-2.87,0.97-3.91,2.63-3.91
	c1.9,0,3.14,0.15,4.45,0.27c0.58,0.08,0.81-0.27,0.81-0.74v-4.38c0-0.5-0.27-0.7-0.77-0.81c-1.08-0.27-3.02-0.62-5.31-0.62
	C3.33,36.43,0,40.3,0,46.61v2.9c0,6.35,3.33,10.15,9.26,10.15C11.54,59.66,13.25,59.35,14.56,59.05 M35.24,58.7
	c1.16-0.27,1.36-0.58,1.36-1.24V38.63c0-0.66-0.19-0.97-1.36-1.24c-2.01-0.43-5.19-0.97-8.68-0.97c-6.35,0-10.19,3.6-10.19,10.11
	v3.02c0,6.55,3.83,10.11,10.19,10.11C30.06,59.66,33.23,59.12,35.24,58.7 M29.2,53.35c-0.74,0.12-1.51,0.19-2.63,0.19
	c-2.17,0-2.79-1.66-2.79-3.99v-3.02c0-2.32,0.62-3.95,2.79-3.95c1.16,0,1.9,0.08,2.63,0.15V53.35z M50.39,42.59
	c0.58,0,0.93-0.35,0.93-0.78V37.2c0-0.5-0.46-0.78-0.93-0.78c-4.03,0-7.55,0.31-10.03,1.12c-1.08,0.35-1.39,0.66-1.39,1.28v19.64
	c0,0.43,0.43,0.85,0.85,0.85h5.81c0.43,0,0.77-0.43,0.77-0.85V42.74C47.1,42.62,49.42,42.59,50.39,42.59 M70.92,50.14
	c0.47,0,0.81-0.35,0.81-0.85v-2.32c0-6.24-3.14-10.54-9.91-10.54c-6.35,0-10.3,3.72-10.3,10.54v2.56c0,7.4,4.84,10.15,10.07,10.15
	c3.25,0,5.92-0.39,8.4-1.2c0.62-0.19,0.78-0.46,0.78-1.08v-3.49c0-0.58-0.23-0.7-0.85-0.66c-1.51,0.12-5.31,0.31-7.36,0.31
	c-2.83,0-3.68-1.28-3.68-3.33v-0.08H70.92 M64.6,46.03h-5.73v-0.12c0-2.32,1.01-3.72,2.87-3.72c1.94,0,2.87,1.39,2.87,3.72V46.03z
	 M92.29,50.14c0.47,0,0.81-0.35,0.81-0.85v-2.32c0-6.24-3.14-10.54-9.91-10.54c-6.35,0-10.3,3.72-10.3,10.54v2.56
	c0,7.4,4.84,10.15,10.07,10.15c3.25,0,5.92-0.39,8.4-1.2c0.62-0.19,0.78-0.46,0.78-1.08v-3.49c0-0.58-0.23-0.7-0.85-0.66
	c-1.51,0.12-5.31,0.31-7.36,0.31c-2.83,0-3.68-1.28-3.68-3.33v-0.08H92.29 M85.98,46.03h-5.73v-0.12c0-2.32,1.01-3.72,2.87-3.72
	c1.94,0,2.87,1.39,2.87,3.72V46.03z M106.28,42.59c0.58,0,0.93-0.35,0.93-0.78V37.2c0-0.5-0.47-0.78-0.93-0.78
	c-4.03,0-7.55,0.31-10.03,1.12c-1.08,0.35-1.39,0.66-1.39,1.28v19.64c0,0.43,0.42,0.85,0.85,0.85h5.81c0.43,0,0.77-0.43,0.77-0.85
	V42.74C102.98,42.62,105.31,42.59,106.28,42.59 M115.57,59.66c6.27,0,8.99-3.02,8.99-6.93c0-2.17-0.89-4.34-4.07-6.04l-4.53-2.44
	c-0.58-0.31-0.85-0.5-0.85-0.97c0-0.54,0.42-0.77,1.43-0.77c1.74,0,5.54,0.42,6.66,0.58c0.66,0.08,0.77-0.27,0.77-0.77v-4.07
	c0-0.47-0.31-0.74-0.77-0.85c-1.86-0.5-4.18-0.97-7.13-0.97c-5.77,0-8.52,2.25-8.52,6.2c0,2.83,1.24,4.8,3.68,6.12l4.72,2.56
	c0.93,0.5,1.16,0.85,1.16,1.32c0,0.7-0.27,1.08-1.82,1.08c-1.28,0-4.3-0.31-6.66-0.62c-0.73-0.12-0.97,0.23-0.97,0.81v3.99
	c0,0.47,0.27,0.74,0.74,0.85C110.19,59.24,112.82,59.66,115.57,59.66 M139.07,0c-0.16,0.05-5.96,1.73-6.08,1.76
	c0.92,4.44,5.5,19.77,0.96,39.72c0.06,0.05,2.1,1.57,2.27,1.69C137.25,38.97,143.14,17.7,139.07,0 M135.4,49.86
	c-0.5,1.16-2.21,4.88-4.82,8.14c0.16,0.07,7.21,3.15,7.32,3.2c1.65-2.61,3.17-5.41,4.52-8.32C142.28,52.82,135.52,49.91,135.4,49.86
	 M131.48,50.74c-0.98,1.95-2.27,3.81-2.4,3.99c0.03,0.07,1.04,2.52,1.13,2.73c2.67-3.39,4.36-7.23,4.7-8.04
	c-0.05-0.06-1.65-2.22-1.8-2.41C132.96,47.43,132.45,48.79,131.48,50.74 M135.54,49.25c0,0,6.02,2.59,6.47,2.79
	c-0.25-0.34-1.37-1.85-1.39-1.87c-0.03-0.01-6.34-3.04-6.82-3.28C134.26,47.51,135.54,49.24,135.54,49.25 M149.71,4.97
	c3.21,7.39,0.36,28.34-5.3,41.45c-0.06-0.02-1.56-0.59-3.22-1.21c0.28-0.49,0.57-1.11,0.86-1.85l-0.8-0.18
	c-0.2,0.61-0.4,1.22-0.61,1.82c-1.9-0.72-3.82-1.44-3.88-1.46c4.22-14.94,6.16-31.43,2.94-43.47c0.56,0.27,2.29,1.14,4.16,2.09
	c0.68,1.85,1.18,3.92,1.52,6.16l2.07,0.5c-0.12-1.99-0.38-3.79-0.8-5.31C148.13,4.21,149.68,4.96,149.71,4.97 M142.59,41.9
	c0.36-1.05,0.73-2.24,1.1-3.55l-0.94-0.21c-0.32,1.21-0.67,2.41-1.04,3.61L142.59,41.9 M144.09,36.85c0.31-1.21,0.62-2.49,0.91-3.84
	l-0.97-0.26c-0.27,1.31-0.57,2.63-0.9,3.93L144.09,36.85 M145.38,31.2c0.28-1.41,0.55-2.87,0.79-4.36l-1.06-0.32
	c-0.21,1.48-0.45,2.97-0.74,4.46L145.38,31.2 M146.49,24.78c0.27-1.85,0.5-3.71,0.68-5.55l-1.33-0.4c-0.08,1.85-0.24,3.75-0.46,5.68
	L146.49,24.78 M147.34,17.11c0.15-2.11,0.22-4.16,0.2-6.08l-1.89-0.57c0.2,2,0.28,4.12,0.25,6.3L147.34,17.11"/>
</svg>
