<?xml version="1.0" encoding="utf-8"?>
<!-- Generator: Adobe Illustrator 27.2.0, SVG Export Plug-In . SVG Version: 6.00 Build 0)  -->
<svg version="1.1" id="FOLIENCE_LOGO_1_" xmlns="http://www.w3.org/2000/svg" xmlns:xlink="http://www.w3.org/1999/xlink" x="0px"
	 y="0px" viewBox="0 0 254.19 66.73" style="enable-background:new 0 0 254.19 66.73;" xml:space="preserve">
<style type="text/css">
	.st0{fill:#FFFFFF;}
	.st1{fill:#098DC7;}
</style>
<g id="FOLIENCE_LOGO">
	<g id="Invest_in_Different.">
		<path class="st0" d="M102.93,53.68c0-0.35,0.18-0.54,0.53-0.54h0.6c0.35,0,0.53,0.2,0.53,0.54v8.12c0,0.36-0.18,0.54-0.53,0.54
			h-0.6c-0.35,0-0.53-0.18-0.53-0.54V53.68z"/>
		<path class="st0" d="M107.09,56.27c0-0.35,0.18-0.54,0.53-0.54h0.51c0.35,0,0.53,0.19,0.53,0.54v0.4c0,0.14-0.03,0.3-0.03,0.3
			h0.03c0.29-0.56,1.01-1.4,2.35-1.4c1.47,0,2.31,0.77,2.31,2.52v3.71c0,0.36-0.18,0.54-0.54,0.54h-0.56
			c-0.35,0-0.54-0.18-0.54-0.54v-3.37c0-0.8-0.21-1.35-1.04-1.35c-1.17,0-1.91,0.97-1.91,2.17v2.55c0,0.36-0.18,0.54-0.53,0.54
			h-0.57c-0.35,0-0.53-0.18-0.53-0.54V56.27z"/>
		<path class="st0" d="M114.75,56.35c-0.13-0.38,0.03-0.62,0.43-0.62h0.61c0.31,0,0.52,0.14,0.61,0.45l1.23,3.64
			c0.13,0.39,0.25,1,0.25,1h0.03c0,0,0.1-0.61,0.23-1l1.23-3.64c0.09-0.31,0.3-0.45,0.61-0.45h0.61c0.4,0,0.57,0.25,0.44,0.62
			l-2,5.55c-0.1,0.31-0.3,0.44-0.61,0.44h-1.04c-0.31,0-0.52-0.13-0.61-0.44L114.75,56.35z"/>
		<path class="st0" d="M125.46,55.57c1.88,0,2.93,1.34,2.93,3.15c0,0.29-0.25,0.56-0.57,0.56h-4.03c0.1,1.19,0.99,1.82,1.98,1.82
			c0.61,0,1.12-0.23,1.43-0.43c0.32-0.16,0.56-0.12,0.73,0.18l0.16,0.26c0.16,0.3,0.1,0.56-0.18,0.73
			c-0.43,0.27-1.21,0.66-2.24,0.66c-2.19,0-3.55-1.58-3.55-3.46C122.1,57,123.48,55.57,125.46,55.57z M126.76,58.28
			c-0.03-0.92-0.58-1.47-1.34-1.47c-0.84,0-1.44,0.58-1.6,1.47H126.76z"/>
		<path class="st0" d="M129.94,61.09l0.16-0.23c0.19-0.27,0.42-0.3,0.74-0.13c0.31,0.17,0.8,0.45,1.48,0.45
			c0.57,0,0.92-0.26,0.92-0.67c0-1.08-3.28-0.67-3.28-2.94c0-1.3,1.14-1.98,2.53-1.98c0.88,0,1.49,0.29,1.84,0.48
			c0.3,0.16,0.34,0.43,0.19,0.73l-0.13,0.23c-0.16,0.31-0.4,0.35-0.73,0.21c-0.29-0.13-0.71-0.32-1.26-0.32
			c-0.57,0-0.9,0.23-0.9,0.65c0,1.09,3.28,0.66,3.28,2.92c0,1.17-0.99,2.04-2.52,2.04c-1.06,0-1.8-0.4-2.2-0.67
			C129.77,61.66,129.75,61.37,129.94,61.09z"/>
		<path class="st0" d="M136.96,57.13h-0.35c-0.35,0-0.53-0.18-0.53-0.54v-0.22c0-0.35,0.18-0.54,0.54-0.54H137v-1.35
			c0-0.35,0.19-0.54,0.54-0.54h0.52c0.35,0,0.54,0.2,0.54,0.54v1.35h0.96c0.35,0,0.54,0.19,0.54,0.54v0.22
			c0,0.36-0.19,0.54-0.53,0.54h-0.97v2.57c0,0.99,0.61,1.18,1.06,1.23c0.4,0.04,0.54,0.17,0.54,0.53v0.4c0,0.39-0.22,0.54-0.67,0.54
			c-1.18,0-2.58-0.63-2.58-2.42V57.13z"/>
		<path class="st0" d="M145.86,54.07v-0.39c0-0.35,0.18-0.54,0.53-0.54h0.57c0.35,0,0.54,0.2,0.54,0.54v0.39
			c0,0.35-0.19,0.53-0.54,0.53h-0.57C146.04,54.6,145.86,54.42,145.86,54.07z M145.86,56.27c0-0.35,0.18-0.54,0.53-0.54h0.57
			c0.35,0,0.53,0.19,0.53,0.54v5.53c0,0.36-0.18,0.54-0.53,0.54h-0.57c-0.35,0-0.53-0.18-0.53-0.54V56.27z"/>
		<path class="st0" d="M149.73,56.27c0-0.35,0.18-0.54,0.53-0.54h0.51c0.35,0,0.53,0.19,0.53,0.54v0.4c0,0.14-0.03,0.3-0.03,0.3
			h0.03c0.29-0.56,1.01-1.4,2.35-1.4c1.47,0,2.31,0.77,2.31,2.52v3.71c0,0.36-0.18,0.54-0.54,0.54h-0.56
			c-0.35,0-0.54-0.18-0.54-0.54v-3.37c0-0.8-0.21-1.35-1.04-1.35c-1.17,0-1.91,0.97-1.91,2.17v2.55c0,0.36-0.18,0.54-0.53,0.54
			h-0.57c-0.35,0-0.53-0.18-0.53-0.54V56.27z"/>
		<path class="st0" d="M162.29,53.68c0-0.35,0.18-0.54,0.53-0.54h2.61c2.84,0,4.7,1.69,4.7,4.59s-1.85,4.62-4.7,4.62h-2.61
			c-0.35,0-0.53-0.18-0.53-0.54V53.68z M165.33,60.9c1.87,0,3.06-1.1,3.06-3.18c0-2.05-1.22-3.15-3.06-3.15h-1.39v6.33H165.33z"/>
		<path class="st0" d="M172.21,54.07v-0.39c0-0.35,0.18-0.54,0.53-0.54h0.57c0.35,0,0.54,0.2,0.54,0.54v0.39
			c0,0.35-0.19,0.53-0.54,0.53h-0.57C172.39,54.6,172.21,54.42,172.21,54.07z M172.21,56.27c0-0.35,0.18-0.54,0.53-0.54h0.57
			c0.35,0,0.53,0.19,0.53,0.54v5.53c0,0.36-0.18,0.54-0.53,0.54h-0.57c-0.35,0-0.53-0.18-0.53-0.54V56.27z"/>
		<path class="st0" d="M176.47,57.04h-0.31c-0.36,0-0.54-0.18-0.54-0.54v-0.22c0-0.35,0.18-0.54,0.54-0.54h0.31v-0.22
			c0-2.1,1.85-2.43,2.54-2.43h0.18c0.35,0,0.54,0.18,0.54,0.54v0.34c0,0.35-0.19,0.51-0.56,0.53c-0.42,0.03-1.06,0.12-1.06,1.08
			v0.16h2.74v-0.22c0-2.1,1.85-2.43,2.54-2.43h0.18c0.35,0,0.54,0.18,0.54,0.54v0.34c0,0.35-0.19,0.51-0.56,0.53
			c-0.4,0.03-1.06,0.12-1.06,1.08v0.16h0.88c0.36,0,0.54,0.19,0.54,0.54v0.22c0,0.36-0.17,0.54-0.47,0.54h-0.96v4.76
			c0,0.36-0.18,0.54-0.53,0.54h-0.57c-0.35,0-0.54-0.18-0.54-0.54v-4.76h-2.74v4.76c0,0.36-0.18,0.54-0.54,0.54h-0.56
			c-0.35,0-0.54-0.18-0.54-0.54V57.04z"/>
		<path class="st0" d="M188.37,55.57c1.88,0,2.93,1.34,2.93,3.15c0,0.29-0.25,0.56-0.57,0.56h-4.03c0.1,1.19,0.99,1.82,1.98,1.82
			c0.61,0,1.12-0.23,1.43-0.43c0.32-0.16,0.56-0.12,0.73,0.18l0.16,0.26c0.16,0.3,0.1,0.56-0.18,0.73
			c-0.43,0.27-1.21,0.66-2.24,0.66c-2.19,0-3.55-1.58-3.55-3.46C185.01,57,186.38,55.57,188.37,55.57z M189.66,58.28
			c-0.03-0.92-0.58-1.47-1.34-1.47c-0.84,0-1.44,0.58-1.6,1.47H189.66z"/>
		<path class="st0" d="M193.17,56.27c0-0.35,0.18-0.54,0.53-0.54h0.51c0.35,0,0.54,0.19,0.54,0.54v0.62c0,0.25-0.04,0.45-0.04,0.45
			h0.03c0.26-0.79,0.99-1.67,1.92-1.67c0.36,0,0.49,0.18,0.49,0.54v0.51c0,0.35-0.21,0.54-0.56,0.54c-1.21,0-1.79,1.19-1.79,2.4
			v2.13c0,0.36-0.18,0.54-0.53,0.54h-0.57c-0.35,0-0.53-0.18-0.53-0.54V56.27z"/>
		<path class="st0" d="M201.54,55.57c1.88,0,2.93,1.34,2.93,3.15c0,0.29-0.25,0.56-0.57,0.56h-4.03c0.1,1.19,0.99,1.82,1.98,1.82
			c0.61,0,1.12-0.23,1.43-0.43c0.32-0.16,0.56-0.12,0.73,0.18l0.16,0.26c0.16,0.3,0.1,0.56-0.18,0.73
			c-0.43,0.27-1.21,0.66-2.24,0.66c-2.19,0-3.55-1.58-3.55-3.46C198.18,57,199.55,55.57,201.54,55.57z M202.83,58.28
			c-0.03-0.92-0.58-1.47-1.34-1.47c-0.84,0-1.44,0.58-1.6,1.47H202.83z"/>
		<path class="st0" d="M206.34,56.27c0-0.35,0.18-0.54,0.53-0.54h0.51c0.35,0,0.53,0.19,0.53,0.54v0.4c0,0.14-0.03,0.3-0.03,0.3
			h0.03c0.29-0.56,1.01-1.4,2.35-1.4c1.47,0,2.31,0.77,2.31,2.52v3.71c0,0.36-0.18,0.54-0.54,0.54h-0.56
			c-0.35,0-0.54-0.18-0.54-0.54v-3.37c0-0.8-0.21-1.35-1.04-1.35c-1.17,0-1.91,0.97-1.91,2.17v2.55c0,0.36-0.18,0.54-0.53,0.54
			h-0.57c-0.35,0-0.53-0.18-0.53-0.54V56.27z"/>
		<path class="st0" d="M214.95,57.13h-0.35c-0.35,0-0.53-0.18-0.53-0.54v-0.22c0-0.35,0.18-0.54,0.54-0.54h0.38v-1.35
			c0-0.35,0.19-0.54,0.54-0.54h0.52c0.35,0,0.54,0.2,0.54,0.54v1.35h0.96c0.35,0,0.54,0.19,0.54,0.54v0.22
			c0,0.36-0.19,0.54-0.53,0.54h-0.97v2.57c0,0.99,0.61,1.18,1.06,1.23c0.4,0.04,0.54,0.17,0.54,0.53v0.4c0,0.39-0.22,0.54-0.67,0.54
			c-1.18,0-2.58-0.63-2.58-2.42V57.13z"/>
		<path class="st0" d="M220.09,61.22c0-0.35,0.18-0.53,0.54-0.53h0.57c0.35,0,0.54,0.18,0.54,0.53v0.58c0,0.36-0.19,0.54-0.54,0.54
			h-0.57c-0.36,0-0.54-0.18-0.54-0.54V61.22z"/>
	</g>
	<g id="FOLIENCE">
		<g>
			<path class="st0" d="M251.91,27.25c-0.33,0-0.64-0.05-0.91-0.16c-0.28-0.11-0.52-0.26-0.72-0.46c-0.21-0.2-0.37-0.43-0.48-0.71
				c-0.11-0.28-0.17-0.58-0.17-0.92c0-0.34,0.06-0.65,0.17-0.92c0.11-0.28,0.27-0.51,0.48-0.71c0.21-0.2,0.45-0.35,0.72-0.46
				c0.28-0.11,0.58-0.16,0.91-0.16c0.33,0,0.63,0.05,0.91,0.16s0.52,0.26,0.72,0.46c0.2,0.2,0.36,0.43,0.47,0.71
				c0.11,0.28,0.17,0.58,0.17,0.92c0,0.34-0.06,0.65-0.17,0.92c-0.11,0.28-0.27,0.51-0.47,0.71c-0.2,0.2-0.44,0.35-0.72,0.46
				S252.23,27.25,251.91,27.25z M251.91,26.77c0.26,0,0.5-0.04,0.71-0.13c0.21-0.09,0.4-0.21,0.55-0.36
				c0.15-0.15,0.27-0.34,0.36-0.56c0.09-0.22,0.13-0.46,0.13-0.73c0-0.27-0.04-0.51-0.13-0.73c-0.09-0.22-0.21-0.41-0.36-0.56
				c-0.15-0.15-0.34-0.27-0.55-0.36c-0.21-0.09-0.45-0.13-0.71-0.13c-0.26,0-0.5,0.04-0.72,0.13c-0.22,0.09-0.4,0.21-0.55,0.36
				c-0.15,0.15-0.27,0.34-0.36,0.56c-0.09,0.22-0.13,0.46-0.13,0.73c0,0.27,0.04,0.51,0.13,0.73c0.09,0.22,0.21,0.41,0.36,0.56
				c0.15,0.15,0.34,0.27,0.55,0.36S251.65,26.77,251.91,26.77z M251.12,23.81h0.91c0.22,0,0.4,0.06,0.53,0.18
				c0.14,0.12,0.2,0.29,0.2,0.5c0,0.17-0.04,0.3-0.11,0.41c-0.08,0.11-0.18,0.19-0.29,0.24l0.55,0.85h-0.54l-0.48-0.8h-0.32V26
				h-0.45V23.81z M251.88,24.86c0.13,0,0.23-0.02,0.31-0.07c0.08-0.05,0.12-0.14,0.12-0.27c0-0.11-0.04-0.2-0.11-0.25
				c-0.07-0.05-0.15-0.08-0.24-0.08h-0.39v0.68H251.88z"/>
		</g>
		<polygon class="st0" points="233.19,40.01 233.19,34.58 243.15,34.58 243.15,30.98 233.19,30.98 233.19,26.34 246.82,26.34 
			246.82,22.74 229.36,22.74 229.36,43.61 246.96,43.61 246.96,40.01 		"/>
		<path class="st0" d="M208.93,28.06c1.42-1.28,3.4-1.93,5.89-1.93c1.53,0,2.82,0.24,3.83,0.7c0.99,0.46,1.9,1.24,2.7,2.33
			l0.29,0.39l3.28-1.99l-0.35-0.47c-2.3-3.03-5.58-4.57-9.75-4.57c-3.55,0-6.44,0.98-8.6,2.91c-2.17,1.95-3.27,4.6-3.27,7.88
			c0,3.18,1.07,5.76,3.19,7.66c2.1,1.88,4.92,2.84,8.39,2.84c4.01,0,7.31-1.54,9.82-4.58l0.39-0.47l-3.32-1.98l-0.29,0.35
			c-0.9,1.1-1.87,1.9-2.9,2.37c-1.03,0.47-2.28,0.71-3.74,0.71c-2.42,0-4.33-0.64-5.68-1.9c-1.35-1.27-2.01-2.94-2.01-5.11
			C206.81,31.02,207.5,29.34,208.93,28.06z"/>
		<path class="st0" d="M194.29,37.15c-1.23-1.39-3.14-3.54-5.74-6.46c-2.8-3.15-5.07-5.76-6.74-7.76l-0.16-0.19h-3.29v20.88h3.86
			V29.12l12.62,14.49h3.31V22.74h-3.86V37.15z"/>
		<polygon class="st0" points="159.85,34.58 169.81,34.58 169.81,30.98 159.85,30.98 159.85,26.34 173.48,26.34 173.48,22.74 
			156.02,22.74 156.02,43.61 173.62,43.61 173.62,40.01 159.85,40.01 		"/>
		<rect x="146.26" y="22.74" class="st0" width="3.86" height="20.88"/>
		<polygon class="st0" points="128.45,22.74 124.59,22.74 124.59,43.61 140.97,43.61 140.97,40.01 128.45,40.01 		"/>
		<path class="st0" d="M116.7,25.49c-2.08-1.77-4.93-2.67-8.47-2.67c-3.55,0-6.39,0.9-8.44,2.67c-2.16,1.85-3.25,4.44-3.25,7.71
			c0,3.26,1.07,5.88,3.17,7.77c2.09,1.88,4.96,2.84,8.52,2.84c3.55,0,6.42-0.96,8.52-2.85c2.12-1.91,3.2-4.52,3.2-7.76
			C119.95,29.94,118.86,27.35,116.7,25.49z M108.23,40.22c-2.48,0-4.43-0.63-5.78-1.88c-1.36-1.25-2.02-2.93-2.02-5.14
			c0-2.2,0.65-3.84,1.98-5.01c1.34-1.17,3.29-1.77,5.82-1.77c2.53,0,4.5,0.59,5.85,1.76c1.35,1.16,2.01,2.81,2.01,5.02
			c0,2.22-0.66,3.91-2.02,5.15C112.72,39.59,110.75,40.22,108.23,40.22z"/>
		<path class="st0" d="M78.02,43.61h3.83v-9.03h8.65v-3.6h-8.65v-4.64h8.97c1.99,0,3.6-1.61,3.6-3.6v0h-16.4V43.61z"/>
	</g>
	<g id="LEAF">
		<path class="st1" d="M12.25,59.43c0.75,0.75,5.88,2.78,12.47,3.27c8.91,0.65,16.69-2.07,22.49-7.87
			C62.01,40.03,62.98,8.7,62.98,8.7L12.25,59.43z M18.85,56.48L56.6,18.73c-1.58,9.23-4.89,24.29-13.04,32.44
			C35.38,59.35,24.48,57.97,18.85,56.48z"/>
		<path class="st1" d="M56.69,11.21L66.65,0.6c0.27-0.29-0.23-0.79-0.52-0.52l-10.61,9.96c-7.82,7.34-15.5,14.81-23.06,22.41
			c-7.6,7.56-15.08,15.25-22.41,23.07L0.08,66.13c-0.27,0.29,0.23,0.79,0.52,0.52l10.61-9.96c7.82-7.34,15.5-14.81,23.06-22.41
			C41.88,26.72,49.35,19.03,56.69,11.21z"/>
		<path class="st1" d="M58.03,3.75c0,0-31.33,0.97-46.13,15.77c-5.8,5.8-8.53,13.58-7.87,22.49c0.48,6.6,2.52,11.72,3.27,12.47
			L58.03,3.75z M15.56,23.17C23.71,15.02,38.77,11.7,48,10.12L10.25,47.88C8.76,42.25,7.37,31.35,15.56,23.17z"/>
	</g>
</g>
</svg>
