<?xml version="1.0" encoding="utf-8"?>
<!-- Generator: Adobe Illustrator 27.2.0, SVG Export Plug-In . SVG Version: 6.00 Build 0)  -->
<svg version="1.1" id="Layer_1" xmlns="http://www.w3.org/2000/svg" xmlns:xlink="http://www.w3.org/1999/xlink" x="0px" y="0px"
	 viewBox="0 0 194.4 52.25" style="enable-background:new 0 0 194.4 52.25;" xml:space="preserve">
<style type="text/css">
	.st0{fill:#D71E36;}
	.st1{fill:#293546;}
</style>
<g>
	<g>
		<path class="st0" d="M22.06,6.29c-5.73,0-11.23,0.24-15.77,0.67v14.47h4.88l7.22-10.65l6.4,19.68l5.15-9.03h8.1V6.96
			C33.5,6.53,28.01,6.29,22.27,6.29H22.06z"/>
		<path class="st0" d="M44.1,1.37C38.91,0.54,31.06,0,22.28,0c-0.07,0-0.14,0-0.21,0C13.27,0,5.43,0.54,0.23,1.37
			C0.1,1.39,0,1.51,0,1.65l0,38.62c0,0.08,0.05,0.16,0.12,0.2l21.96,11.75c0.06,0.03,0.12,0.03,0.18,0l21.96-11.75
			c0.07-0.04,0.12-0.12,0.12-0.2l0-38.62C44.34,1.51,44.24,1.39,44.1,1.37z M40.77,38.27l-18.6,9.96l-18.6-9.96V26.03
			c0.59,0.08,1.99,0.34,2.72,1.03v9.58l15.88,8.5l15.88-8.5v-9.58c0.74-0.68,2.14-0.95,2.72-1.03V38.27z M40.77,24.62l-8.97,0
			l-7.81,13.7l-6.62-20.34l-4.51,6.64H3.57v0H3.57V4.51c5.01-0.6,11.55-0.94,18.5-0.94h0.21c6.94,0,13.48,0.34,18.49,0.94V24.62z"/>
	</g>
	<g>
		<g>
			<path class="st0" d="M56.89,37.01l0.61-4.7h4.75l-0.13,1h-3.45l-0.1,0.78h3.27l-0.13,1h-3.27l-0.12,0.92h3.5l-0.13,1H56.89z"/>
			<path class="st0" d="M70.28,37.01l0.43-3.3l-2.17,3.3h-1.22l-1.31-3.3l-0.43,3.3h-1.27l0.61-4.7h1.72l1.43,3.56l2.36-3.56h1.72
				l-0.61,4.7H70.28z"/>
			<path class="st0" d="M74.41,37.01l0.61-4.7h4.75l-0.13,1H76.2l-0.1,0.78h3.27l-0.13,1h-3.27l-0.12,0.92h3.5l-0.13,1H74.41z"/>
			<path class="st0" d="M83.11,37.01h-1.27l0.61-4.7h3.18c0.34,0,0.63,0.04,0.86,0.11c0.23,0.07,0.41,0.17,0.54,0.3
				c0.13,0.13,0.22,0.29,0.26,0.47c0.04,0.18,0.05,0.39,0.02,0.61c-0.03,0.2-0.08,0.37-0.15,0.52c-0.08,0.15-0.17,0.28-0.28,0.38
				c-0.11,0.11-0.23,0.2-0.36,0.27c-0.13,0.07-0.28,0.13-0.42,0.18l1.3,1.86h-1.48l-1.2-1.73h-1.38L83.11,37.01z M86.03,33.8
				c0.01-0.09,0.01-0.17-0.01-0.23c-0.02-0.06-0.05-0.12-0.1-0.16c-0.05-0.04-0.13-0.07-0.23-0.09c-0.1-0.02-0.22-0.03-0.37-0.03
				h-1.74l-0.13,1h1.74c0.15,0,0.27-0.01,0.37-0.03c0.1-0.02,0.18-0.05,0.25-0.09c0.06-0.04,0.11-0.09,0.14-0.16
				C86,33.96,86.02,33.89,86.03,33.8z"/>
			<path class="st0" d="M93.32,32.19c0.46,0,0.88,0.04,1.27,0.12c0.39,0.08,0.73,0.18,1.05,0.3l-0.15,1.15
				c-0.12-0.07-0.26-0.14-0.41-0.21c-0.15-0.07-0.32-0.13-0.51-0.18c-0.18-0.05-0.38-0.09-0.6-0.13c-0.21-0.03-0.44-0.05-0.68-0.05
				c-0.3,0-0.57,0.02-0.8,0.07c-0.23,0.04-0.43,0.1-0.6,0.17c-0.17,0.07-0.31,0.16-0.43,0.25c-0.12,0.1-0.21,0.2-0.28,0.31
				c-0.07,0.11-0.13,0.22-0.17,0.34s-0.06,0.22-0.08,0.33c-0.01,0.09-0.02,0.2-0.01,0.3c0.01,0.11,0.03,0.22,0.07,0.33
				c0.04,0.11,0.1,0.21,0.18,0.31c0.08,0.1,0.2,0.19,0.34,0.27c0.14,0.08,0.32,0.14,0.53,0.19c0.21,0.05,0.46,0.07,0.76,0.07
				c0.15,0,0.28,0,0.39-0.01c0.11-0.01,0.22-0.02,0.31-0.04c0.09-0.02,0.18-0.04,0.27-0.06c0.08-0.02,0.17-0.05,0.26-0.07l0.07-0.57
				H92.7l0.13-1.03h2.69l-0.31,2.4c-0.18,0.06-0.37,0.11-0.59,0.16c-0.21,0.05-0.44,0.09-0.66,0.12c-0.23,0.03-0.45,0.06-0.68,0.08
				c-0.23,0.02-0.44,0.03-0.64,0.03c-0.31,0-0.6-0.02-0.88-0.06c-0.28-0.04-0.53-0.1-0.77-0.19c-0.23-0.09-0.44-0.19-0.63-0.33
				c-0.18-0.13-0.34-0.29-0.45-0.47c-0.12-0.18-0.2-0.39-0.25-0.63c-0.05-0.24-0.05-0.5-0.01-0.8c0.04-0.29,0.11-0.56,0.23-0.79
				c0.11-0.24,0.26-0.45,0.43-0.63c0.17-0.18,0.37-0.34,0.59-0.47c0.22-0.13,0.46-0.24,0.72-0.33c0.26-0.09,0.53-0.15,0.82-0.19
				C92.73,32.21,93.02,32.19,93.32,32.19z"/>
			<path class="st0" d="M97.95,37.01l0.61-4.7h4.75l-0.13,1h-3.45l-0.1,0.78h3.27l-0.13,1H99.5l-0.12,0.92h3.5l-0.13,1H97.95z"/>
			<path class="st0" d="M109.81,37.01l-2.75-3.23l-0.42,3.23h-1.27l0.61-4.7h1.38l2.75,3.24l0.42-3.24h1.26l-0.61,4.7H109.81z"/>
			<path class="st0" d="M118.75,36.87c-0.17,0.05-0.35,0.1-0.53,0.14c-0.18,0.04-0.37,0.07-0.57,0.09c-0.2,0.02-0.41,0.03-0.64,0.03
				c-0.48,0-0.91-0.05-1.3-0.15c-0.39-0.1-0.71-0.26-0.98-0.46c-0.26-0.21-0.46-0.46-0.58-0.77c-0.12-0.31-0.16-0.67-0.1-1.08
				c0.05-0.41,0.18-0.77,0.38-1.08c0.2-0.31,0.46-0.57,0.78-0.77c0.32-0.21,0.68-0.36,1.1-0.46c0.42-0.1,0.86-0.15,1.34-0.15
				c0.23,0,0.44,0.01,0.63,0.03c0.19,0.02,0.38,0.05,0.55,0.09c0.17,0.04,0.34,0.09,0.5,0.14c0.16,0.05,0.32,0.12,0.47,0.18
				l-0.15,1.14c-0.12-0.07-0.25-0.14-0.38-0.21c-0.13-0.07-0.28-0.13-0.45-0.19c-0.17-0.06-0.35-0.1-0.55-0.14
				c-0.2-0.04-0.43-0.05-0.69-0.05c-0.4,0-0.73,0.04-1.01,0.12c-0.27,0.08-0.5,0.19-0.67,0.33c-0.18,0.14-0.31,0.29-0.39,0.47
				c-0.09,0.18-0.14,0.36-0.17,0.55c-0.02,0.13-0.02,0.25-0.01,0.37c0.01,0.12,0.04,0.24,0.09,0.35c0.05,0.11,0.12,0.21,0.21,0.3
				c0.09,0.09,0.21,0.17,0.35,0.24c0.14,0.07,0.32,0.12,0.51,0.16c0.2,0.04,0.43,0.06,0.7,0.06c0.26,0,0.5-0.02,0.71-0.05
				c0.21-0.03,0.41-0.08,0.59-0.13c0.18-0.05,0.35-0.12,0.5-0.19c0.15-0.07,0.3-0.14,0.44-0.21l-0.15,1.14
				C119.1,36.76,118.92,36.82,118.75,36.87z"/>
			<path class="st0" d="M124.94,35.09l-0.25,1.92h-1.26l0.25-1.92l-1.91-2.78h1.42l1.24,1.89l1.73-1.89h1.42L124.94,35.09z"/>
			<path class="st0" d="M136.42,37.01h-1.48l-1.76-4.7h1.42l1.25,3.54l2.17-3.54h1.41L136.42,37.01z"/>
			<path class="st0" d="M140.98,37.01l0.61-4.7h4.75l-0.13,1h-3.45l-0.1,0.78h3.27l-0.13,1h-3.27l-0.12,0.92h3.5l-0.13,1H140.98z"/>
			<path class="st0" d="M152.9,37.01l0.25-1.96h-3.23l-0.25,1.96h-1.27l0.61-4.7h1.27l-0.22,1.71h3.23l0.22-1.71h1.27l-0.61,4.7
				H152.9z"/>
			<path class="st0" d="M157.04,37.01l0.61-4.7h1.27l-0.61,4.7H157.04z"/>
			<path class="st0" d="M165.87,36.87c-0.17,0.05-0.35,0.1-0.53,0.14c-0.18,0.04-0.37,0.07-0.57,0.09s-0.41,0.03-0.64,0.03
				c-0.48,0-0.91-0.05-1.3-0.15c-0.39-0.1-0.71-0.26-0.98-0.46c-0.26-0.21-0.46-0.46-0.58-0.77c-0.12-0.31-0.16-0.67-0.1-1.08
				c0.05-0.41,0.18-0.77,0.38-1.08c0.2-0.31,0.46-0.57,0.78-0.77c0.32-0.21,0.68-0.36,1.1-0.46c0.42-0.1,0.86-0.15,1.34-0.15
				c0.23,0,0.44,0.01,0.63,0.03s0.38,0.05,0.55,0.09c0.17,0.04,0.34,0.09,0.5,0.14c0.16,0.05,0.32,0.12,0.47,0.18l-0.15,1.14
				c-0.12-0.07-0.25-0.14-0.38-0.21c-0.13-0.07-0.28-0.13-0.45-0.19c-0.17-0.06-0.35-0.1-0.55-0.14c-0.2-0.04-0.43-0.05-0.69-0.05
				c-0.4,0-0.73,0.04-1.01,0.12s-0.5,0.19-0.67,0.33c-0.18,0.14-0.31,0.29-0.39,0.47c-0.09,0.18-0.14,0.36-0.17,0.55
				c-0.02,0.13-0.02,0.25-0.01,0.37c0.01,0.12,0.04,0.24,0.09,0.35c0.05,0.11,0.12,0.21,0.21,0.3c0.09,0.09,0.21,0.17,0.35,0.24
				c0.14,0.07,0.32,0.12,0.51,0.16c0.2,0.04,0.43,0.06,0.7,0.06c0.26,0,0.5-0.02,0.71-0.05c0.21-0.03,0.41-0.08,0.59-0.13
				c0.18-0.05,0.35-0.12,0.5-0.19c0.15-0.07,0.3-0.14,0.44-0.21l-0.15,1.14C166.22,36.76,166.05,36.82,165.87,36.87z"/>
			<path class="st0" d="M168.93,37.01l0.61-4.7h1.27l-0.48,3.67h3.43l-0.13,1.03H168.93z"/>
			<path class="st0" d="M176.05,37.01l0.61-4.7h4.75l-0.13,1h-3.45l-0.1,0.78H181l-0.13,1h-3.27l-0.12,0.92h3.5l-0.13,1H176.05z"/>
			<path class="st0" d="M188.24,33.63c-0.08-0.04-0.19-0.09-0.33-0.15c-0.14-0.05-0.3-0.11-0.48-0.16
				c-0.18-0.05-0.37-0.09-0.59-0.12c-0.21-0.03-0.43-0.05-0.66-0.05c-0.18,0-0.34,0.01-0.47,0.02s-0.24,0.03-0.33,0.04
				c-0.09,0.02-0.16,0.04-0.22,0.06c-0.05,0.02-0.1,0.05-0.13,0.07c-0.03,0.03-0.05,0.05-0.06,0.08c-0.01,0.03-0.02,0.05-0.02,0.07
				c-0.01,0.07,0.02,0.13,0.08,0.18c0.06,0.05,0.15,0.1,0.26,0.14c0.11,0.04,0.25,0.08,0.4,0.11c0.15,0.04,0.31,0.07,0.49,0.11
				c0.17,0.04,0.35,0.08,0.53,0.12c0.18,0.04,0.36,0.1,0.53,0.16c0.17,0.06,0.33,0.13,0.47,0.21c0.15,0.08,0.27,0.17,0.38,0.28
				s0.18,0.23,0.23,0.36c0.05,0.14,0.06,0.29,0.04,0.47c-0.03,0.23-0.09,0.42-0.2,0.58c-0.1,0.16-0.22,0.3-0.37,0.41
				c-0.15,0.11-0.31,0.2-0.5,0.27c-0.18,0.07-0.37,0.12-0.57,0.16c-0.2,0.04-0.39,0.06-0.59,0.07c-0.2,0.01-0.39,0.02-0.56,0.02
				c-0.47,0-0.89-0.04-1.28-0.11c-0.39-0.08-0.72-0.17-1.01-0.29l0.15-1.12c0.29,0.17,0.63,0.31,1.02,0.41
				c0.39,0.1,0.81,0.15,1.26,0.15c0.27,0,0.49-0.01,0.66-0.04c0.17-0.03,0.31-0.07,0.41-0.11c0.1-0.04,0.17-0.09,0.21-0.15
				c0.04-0.05,0.06-0.1,0.07-0.15c0.01-0.07-0.02-0.14-0.08-0.2c-0.06-0.06-0.15-0.1-0.26-0.15c-0.11-0.04-0.25-0.08-0.4-0.12
				c-0.15-0.04-0.32-0.07-0.49-0.11c-0.17-0.04-0.35-0.07-0.53-0.11c-0.18-0.04-0.36-0.09-0.53-0.15c-0.17-0.06-0.33-0.12-0.48-0.2
				c-0.15-0.07-0.27-0.16-0.38-0.26c-0.1-0.1-0.18-0.22-0.23-0.35c-0.05-0.13-0.07-0.29-0.04-0.46c0.03-0.21,0.09-0.39,0.18-0.54
				c0.09-0.15,0.21-0.28,0.35-0.38c0.14-0.11,0.29-0.19,0.46-0.26c0.17-0.07,0.35-0.12,0.53-0.15c0.19-0.04,0.37-0.06,0.56-0.08
				c0.19-0.01,0.36-0.02,0.53-0.02c0.18,0,0.37,0.01,0.56,0.03c0.19,0.02,0.38,0.04,0.56,0.08c0.18,0.03,0.36,0.07,0.53,0.11
				c0.17,0.04,0.32,0.09,0.47,0.14L188.24,33.63z"/>
		</g>
		<g>
			<path class="st1" d="M52.23,27.57l2.51-19.75c0.02-0.15,0.15-0.27,0.3-0.27h5.99c0.15,0,0.25,0.12,0.23,0.27l-1.9,14.97h9.92
				c0.15,0,0.25,0.12,0.23,0.27l-0.57,4.51c-0.02,0.15-0.15,0.27-0.3,0.27H52.46C52.31,27.84,52.21,27.72,52.23,27.57z"/>
			<path class="st1" d="M98.44,12.49H87.8l-0.41,3.21h9.1c0.15,0,0.25,0.12,0.23,0.27l-0.56,4.4c-0.02,0.15-0.15,0.27-0.3,0.27h-9.1
				l-0.88,6.94c-0.02,0.15-0.15,0.27-0.3,0.27h-5.85c-0.22,0-0.38-0.18-0.35-0.4l2.48-19.48c0.03-0.22,0.23-0.4,0.45-0.4h16.76
				c0.15,0,0.25,0.12,0.23,0.27l-0.56,4.4C98.72,12.37,98.59,12.49,98.44,12.49z"/>
			<path class="st1" d="M105.63,23.04h10.86c0.15,0,0.25,0.12,0.23,0.27l-0.54,4.26c-0.02,0.15-0.15,0.27-0.3,0.27h-16.9
				c-0.22,0-0.38-0.18-0.35-0.4l2.48-19.48c0.03-0.22,0.23-0.4,0.45-0.4h16.76c0.15,0,0.25,0.12,0.23,0.27l-0.54,4.26
				c-0.02,0.15-0.15,0.27-0.3,0.27h-10.72l-0.35,2.74h9.27c0.15,0,0.25,0.12,0.23,0.27l-0.54,4.26c-0.02,0.15-0.15,0.27-0.3,0.27
				h-9.27L105.63,23.04z"/>
			<path class="st1" d="M124.25,27.57l2.51-19.75c0.02-0.15,0.15-0.27,0.3-0.27h5.99c0.15,0,0.25,0.12,0.23,0.27l-1.9,14.97h9.92
				c0.15,0,0.25,0.12,0.23,0.27l-0.57,4.51c-0.02,0.15-0.15,0.27-0.3,0.27h-16.18C124.34,27.84,124.23,27.72,124.25,27.57z"/>
			<path class="st1" d="M169.34,7.56h5.47c0.15,0,0.25,0.12,0.23,0.27l-2.49,19.61c-0.03,0.22-0.23,0.4-0.45,0.4h-5.99
				c-0.08,0-0.16-0.04-0.2-0.11l-6.97-11.32l-1.42,11.16c-0.02,0.15-0.15,0.27-0.3,0.27h-5.47c-0.22,0-0.38-0.18-0.35-0.4
				l2.48-19.48c0.03-0.22,0.23-0.4,0.45-0.4h5.99c0.08,0,0.16,0.04,0.2,0.11l6.97,11.32l1.4-11.03
				C168.91,7.74,169.12,7.56,169.34,7.56z"/>
			<path class="st1" d="M181.47,23.04h10.86c0.15,0,0.25,0.12,0.23,0.27l-0.54,4.26c-0.02,0.15-0.15,0.27-0.3,0.27h-16.9
				c-0.22,0-0.38-0.18-0.35-0.4l2.48-19.48c0.03-0.22,0.23-0.4,0.45-0.4h16.76c0.15,0,0.25,0.12,0.23,0.27l-0.54,4.26
				c-0.02,0.15-0.15,0.27-0.3,0.27h-10.72l-0.35,2.74h9.27c0.15,0,0.25,0.12,0.23,0.27l-0.54,4.26c-0.02,0.15-0.15,0.27-0.3,0.27
				h-9.27L181.47,23.04z"/>
			<path class="st1" d="M73.39,7.95l-2.5,19.62c-0.02,0.15,0.09,0.27,0.23,0.27h5.85c0.22,0,0.43-0.18,0.46-0.4l2.48-19.48
				c0.03-0.22-0.13-0.4-0.35-0.4h-5.72C73.61,7.56,73.41,7.73,73.39,7.95z"/>
			<path class="st1" d="M145.42,7.95l-2.5,19.62c-0.02,0.15,0.09,0.27,0.23,0.27h5.85c0.22,0,0.43-0.18,0.46-0.4l2.48-19.48
				c0.03-0.22-0.13-0.4-0.35-0.4h-5.72C145.64,7.56,145.45,7.73,145.42,7.95z"/>
		</g>
	</g>
</g>
</svg>
