<?xml version="1.0" encoding="utf-8"?>
<!-- Generator: Adobe Illustrator 27.5.0, SVG Export Plug-In . SVG Version: 6.00 Build 0)  -->
<svg version="1.1" id="Layer_1" xmlns="http://www.w3.org/2000/svg" xmlns:xlink="http://www.w3.org/1999/xlink" x="0px" y="0px"
	 viewBox="0 0 46.2 254.6" style="enable-background:new 0 0 46.2 254.6;" xml:space="preserve">
<style type="text/css">
	.st0{fill:#009DD1;}
</style>
<polygon class="st0" points="-0.2,169.3 46.4,112.5 46.4,91.1 -0.2,147.9 "/>
<polygon class="st0" points="-0.2,48.9 -0.2,70.3 46.4,13.5 46.4,-0.4 40.3,-0.4 "/>
<polygon class="st0" points="-0.2,-0.4 -0.2,20.9 17.2,-0.4 "/>
<polygon class="st0" points="46.4,255.2 46.4,239.5 33.5,255.2 "/>
<polygon class="st0" points="-0.2,119.8 46.4,63 46.4,41.6 -0.2,98.4 "/>
<polygon class="st0" points="30.8,255.2 46.4,236.1 46.4,214.7 13.2,255.2 "/>
<polygon class="st0" points="-0.2,144.5 46.4,87.7 46.4,66.3 -0.2,123.1 "/>
<polygon class="st0" points="-0.2,95.1 46.4,38.3 46.4,16.9 -0.2,73.7 "/>
<polygon class="st0" points="-0.2,218.7 46.4,161.9 46.4,140.5 -0.2,197.3 "/>
<polygon class="st0" points="-0.2,243.5 46.4,186.7 46.4,165.3 -0.2,222.1 "/>
<polygon class="st0" points="-0.2,194 46.4,137.2 46.4,115.8 -0.2,172.6 "/>
<polygon class="st0" points="-0.2,255.2 10.5,255.2 46.4,211.4 46.4,190 -0.2,246.8 "/>
<polygon class="st0" points="20,-0.4 -0.2,24.2 -0.2,45.6 37.5,-0.4 "/>
</svg>
