<?xml version="1.0" encoding="utf-8"?>
<!-- Generator: Adobe Illustrator 28.2.0, SVG Export Plug-In . SVG Version: 6.00 Build 0)  -->
<svg version="1.1" id="logo-52" xmlns="http://www.w3.org/2000/svg" xmlns:xlink="http://www.w3.org/1999/xlink" x="0px" y="0px"
	 viewBox="0 0 170 37.9" style="enable-background:new 0 0 170 37.9;" xml:space="preserve">
<style type="text/css">
	.st0{fill:#2A6393;}
	.st1{fill:#D85D39;}
</style>
<g id="layer">
	<g id="Group_2372" transform="translate(0 0)">
		<g>
			<g id="Group_1873_00000140733142449934257390000004723933991696886913_" transform="translate(0 0)">
				<path id="Path_13399_00000121979689376034399220000016230600590916564389_" class="st0" d="M159.6,24.3h-3.7v-5.6
					c0-2.8-1.3-4.1-4.1-4.1H146v-3.7h5.7c4.8,0,7.9,3,7.9,7.9V24.3z"/>
				<path id="Path_13400_00000021086953684846737310000003201930884968494725_" class="st1" d="M169.8,14h-5.7c-4.8,0-7.9-3-7.9-7.9
					V0.5h3.7v5.6c0,2.8,1.3,4.1,4.1,4.1h5.7V14z"/>
				<path id="Path_13401_00000049213947421729766280000013859385390428651692_" class="st0" d="M81.9,37.7c-0.1,0-0.3,0-0.4,0
					c-1.3,0-2.6-0.4-3.8-0.9c-1.2-0.6-2.2-1.5-2.8-2.7l-0.1-0.1l0.1-0.1c0.2-0.2,0.5-0.4,0.8-0.5c0.2-0.1,0.5-0.1,0.8-0.1
					c0.4,0,0.8,0.3,1,0.6c1,1.3,2.6,2,4.2,2.1c1.1,0.1,2.3-0.2,3.3-0.7c0.9-0.4,1.4-1.3,1.4-2.2c0-0.6-0.2-1.3-0.7-1.7
					c-0.4-0.3-0.8-0.6-1.2-0.8c-0.2-0.1-0.4-0.1-0.5-0.2c-0.9-0.3-1.8-0.5-2.7-0.7c-1.1-0.2-2.2-0.5-3.2-0.9
					c-0.8-0.3-1.6-0.7-2.2-1.3c-0.6-0.6-0.9-1.5-0.9-2.3c0-0.9,0.4-1.8,1.1-2.5c0.7-0.7,1.5-1.2,2.4-1.5c1-0.3,2.1-0.5,3.1-0.5
					c1.2,0,2.4,0.2,3.5,0.7c1.1,0.5,2,1.3,2.7,2.2l0.1,0.1l-0.1,0.1c-0.2,0.1-0.4,0.3-0.6,0.4l-0.1,0c-0.2,0.1-0.5,0.1-0.7,0.1
					c-0.4,0-0.7-0.2-0.9-0.5c-0.6-0.7-1.7-1.4-4-1.4c-1.1,0-2.2,0.2-3.1,0.7c-0.9,0.5-1.2,1-1.3,1.9c0,0.5,0.2,1,0.6,1.4
					c0.5,0.4,1,0.7,1.6,0.9c0.9,0.3,1.8,0.5,2.7,0.7c1.1,0.2,2.1,0.5,3.2,0.9c0.9,0.3,1.7,0.8,2.4,1.4c0,0,0.3,0.3,0.3,0.4
					c0.5,0.7,0.7,1.6,0.7,2.4c0,1.1-0.5,2.1-1.3,2.8c-0.7,0.7-1.6,1.3-2.6,1.5C83.8,37.5,82.8,37.7,81.9,37.7"/>
				<path id="Path_13402_00000041999822447105109150000009904330552221921454_" class="st0" d="M37.6,37.6c-1.4,0-2.8-0.4-3.9-1.2
					c-1-0.8-1.6-2-1.5-3.3c0-2,1.1-3.6,3.2-4.7s5-1.6,8.9-1.8v-0.5c0-2.5-1.6-4-4.5-4c-1.9,0-3.7,0.8-4.9,2.2
					c-0.4,0.4-1,0.4-1.5,0.1c-0.3-0.2-0.5-0.4-0.6-0.7l0-0.1l0.1-0.1c1.8-2,4.3-3.3,7-3.3c2.2,0,3.8,0.5,4.9,1.6
					c1.1,1,1.7,2.4,1.7,4.2v7.1c0,0.7,0,1.4,0.2,2.1c0.1,0.4,0.4,0.8,0.8,1l0.2,0.1l-0.1,0.2c-0.4,0.5-1,0.9-1.7,0.8
					c-0.5-0.1-0.9-0.4-1.2-0.9c-0.2-0.5-0.4-1-0.4-1.5c-0.8,0.8-1.7,1.4-2.7,1.9C40.3,37.3,39,37.7,37.6,37.6 M44.2,28.4
					c-3.3,0.1-5.8,0.6-7.5,1.4c-1.6,0.7-2.5,1.9-2.5,3.3c0,0.8,0.4,1.6,0.9,2.1c0.7,0.5,1.6,0.8,2.6,0.7c1.2,0,2.4-0.3,3.5-0.9
					c1.1-0.7,2.1-1.6,2.9-2.7V28.4z"/>
				<path id="Path_13403_00000103225186839076922900000000170021922668624264_" class="st0" d="M11.2,37.6c-3.6,0-6.1-0.9-8.1-2.8
					c-2-1.9-3-4.6-3-8.1c0-3.4,1-6,3-8s4.7-2.8,8.2-2.8c1.5,0,3.1,0.2,4.6,0.7c1.3,0.4,2.4,1,3.3,1.9l0.1,0.1l0,0.1
					c-0.1,0.3-0.4,0.5-0.6,0.7c-0.2,0.2-0.5,0.3-0.8,0.3c-0.4,0-0.8-0.1-1.1-0.4c-0.8-0.5-1.7-0.9-2.6-1.2c-0.9-0.3-1.9-0.4-2.9-0.4
					c-2.9,0-5,0.8-6.6,2.3c-1.7,1.6-2.5,3.8-2.5,6.6c0,2.8,0.8,5.1,2.4,6.7c1.6,1.6,3.5,2.3,6.4,2.3c1.3,0,2.6-0.2,3.8-0.5
					c0.9-0.2,1.9-0.7,2.6-1.3v-6h-5c-0.4,0-0.8-0.1-1.1-0.4c-0.3-0.4-0.4-0.9-0.4-1.4v-0.2h8.6v8.8l0,0c-1.1,0.9-2.3,1.5-3.6,1.9
					C14.5,37.4,12.9,37.6,11.2,37.6"/>
				<path id="Path_13404_00000084505132243407268160000015945945163089494931_" class="st0" d="M24.5,37.3h-2.2V20.7h2.2v2.6
					c1.4-1.8,3.4-2.8,5.6-2.8c0.6,0,1.3,0.1,1.9,0.3c0.6,0.2,0.9,0.9,0.7,1.5c-0.1,0.2-0.2,0.4-0.4,0.5l-0.1,0.1l-0.1-0.1
					c-0.6-0.4-1.4-0.6-2.2-0.6c-1,0-1.9,0.3-2.8,0.8c-0.9,0.5-1.5,1.2-2,2c-0.5,0.9-0.7,1.9-0.7,3L24.5,37.3z"/>
				<path id="Path_13405_00000145742384795834390920000003442770802102736553_" class="st0" d="M63,37.5c0,0-0.1,0-0.2,0
					c-0.5,0-0.9-0.4-1-0.9c-0.2-0.8-0.3-1.6-0.2-2.5v-8c0-1.4-0.3-2.4-0.9-3.1s-1.6-0.9-3-0.9c-1.1,0-2.2,0.3-3.3,0.7
					c-1.1,0.5-2.2,1.1-3.1,1.9v12.6H49V25.6c0-1.5,0-2.7-0.1-3.3c0-0.4-0.1-0.7-0.4-1l-0.1-0.1l0.1-0.1c0.4-0.4,0.9-0.6,1.5-0.6
					c0.5,0,1.2,0.5,1.2,1.5v0.6c1.9-1.4,4.2-2.2,6.6-2.2c1.9,0,3.4,0.5,4.4,1.4c0.9,0.9,1.4,2.4,1.4,4.3v7.5c0,0.7,0,1.4,0.1,2.1
					c0,0.4,0.2,0.6,0.5,0.8l0.2,0.1l-0.2,0.2C64,37.3,63.5,37.5,63,37.5"/>
				<path id="Path_13406_00000044176230371578830680000011951933075175274682_" class="st0" d="M70.6,37.7c-1.4,0-2.7-0.4-3.4-1
					c-0.7-0.6-1.3-1.4-1.3-3.9V16.3H68v4.4h5.8v1.7H68V33c0,1,0.2,1.7,0.8,2.2c0.6,0.5,1.4,0.7,2.3,0.6c1,0,1.9-0.5,2.5-1.3l0.2-0.3
					l0.1,0.1c0.2,0.3,0.4,0.6,0.5,1c0.1,0.5-0.1,1.1-0.6,1.4c-0.9,0.6-1.9,0.9-3,0.9C70.7,37.7,70.7,37.7,70.6,37.7"/>
				<path id="Path_13407_00000046301756093996021960000011413528953646680758_" class="st1" d="M96.4,37.3h-2.2v-0.2l0-20.5h7.5
					c3.3,0,5.7,0.5,7.4,1.7c1.7,1.1,2.5,2.8,2.5,5c0,2.2-0.9,3.9-2.5,5.1s-4.2,1.7-7.4,1.7h-5.3L96.4,37.3L96.4,37.3z M96.4,28.2
					h5.3c2.6,0,4.5-0.4,5.8-1.2c1.2-0.8,1.9-2.2,1.9-3.7c0.1-1.4-0.6-2.8-1.9-3.6c-1.2-0.8-3.2-1.2-5.8-1.2h-5.3V28.2z"/>
				<path id="Path_13408_00000005238307613386965010000016482078900179945905_" class="st1" d="M114.6,37.5c0,0-0.1,0-0.2,0
					c-0.5,0-0.9-0.4-1-0.9c-0.1-0.4-0.2-0.9-0.1-1.3V13.5h2.2v21.1c0,0.5,0,0.9,0.1,1.4c0.1,0.3,0.3,0.5,0.5,0.6l0.2,0.1l-0.2,0.2
					C115.6,37.3,115.1,37.5,114.6,37.5"/>
				<path id="Path_13409_00000044886477798246736540000008254508888253013941_" class="st1" d="M124.3,37.6c-2,0-3.6-0.5-4.6-1.5
					c-1-1-1.5-2.4-1.5-4.3V20.7h2.2v11.1c0,1.4,0.4,2.4,1.1,3.1s1.8,1,3.2,1c1.2,0,2.3-0.3,3.4-0.9c1-0.5,2-1.3,2.7-2.3V20.7h2.2
					v13.1c0,1.3,0.2,2.4,0.6,3l0.1,0.1l-0.2,0.1c-0.4,0.3-0.9,0.5-1.4,0.5c-0.5,0-0.9-0.3-1-0.7c-0.2-0.5-0.3-1.1-0.3-1.6
					c-0.7,0.7-1.6,1.3-2.6,1.7C126.9,37.4,125.6,37.7,124.3,37.6"/>
				<path id="Path_13410_00000131335357015889258770000016563781946974200451_" class="st1" d="M141.9,37.7c-0.1,0-0.3,0-0.4,0
					c-1.3,0-2.6-0.4-3.8-0.9c-1.2-0.6-2.2-1.5-2.8-2.7l-0.1-0.1l0.1-0.1c0.2-0.2,0.5-0.4,0.8-0.5c0.2-0.1,0.5-0.1,0.8-0.1
					c0.4,0,0.8,0.3,1,0.6c1,1.3,2.6,2,4.2,2.1c1.1,0.1,2.3-0.2,3.3-0.7c0.9-0.4,1.4-1.3,1.4-2.2c0-0.6-0.2-1.3-0.7-1.7
					c-0.4-0.3-0.8-0.6-1.2-0.8c-0.2-0.1-0.4-0.1-0.5-0.2c-0.9-0.3-1.8-0.5-2.7-0.7c-1.1-0.2-2.2-0.5-3.2-0.9
					c-0.8-0.3-1.6-0.7-2.2-1.3c-0.6-0.6-0.9-1.5-0.9-2.3c0-0.9,0.4-1.8,1.1-2.5c0.7-0.7,1.5-1.2,2.4-1.5c1-0.3,2.1-0.5,3.1-0.5
					c1.2,0,2.4,0.2,3.5,0.7c1.1,0.5,2,1.3,2.7,2.2l0.1,0.1l-0.1,0.1c-0.2,0.1-0.4,0.3-0.6,0.4l-0.1,0c-0.2,0.1-0.5,0.1-0.7,0.1
					c-0.4,0-0.7-0.2-0.9-0.5c-0.6-0.7-1.7-1.4-4-1.4c-1.1,0-2.2,0.2-3.1,0.7c-0.9,0.5-1.2,1-1.3,1.9c0,0.5,0.2,1,0.6,1.4
					c0.5,0.4,1,0.7,1.6,0.9c0.9,0.3,1.8,0.5,2.7,0.7c1.1,0.2,2.1,0.5,3.2,0.9c0.9,0.3,1.7,0.8,2.4,1.4c0,0,0.3,0.3,0.3,0.4
					c0.5,0.7,0.7,1.6,0.7,2.4c0,1.1-0.5,2.1-1.3,2.8c-0.7,0.7-1.6,1.3-2.6,1.5C143.9,37.5,142.9,37.7,141.9,37.7"/>
			</g>
		</g>
	</g>
</g>
</svg>
