<?xml version="1.0" encoding="utf-8"?>
<!-- Generator: Adobe Illustrator 28.2.0, SVG Export Plug-In . SVG Version: 6.00 Build 0)  -->
<svg version="1.1" xmlns="http://www.w3.org/2000/svg" xmlns:xlink="http://www.w3.org/1999/xlink" x="0px" y="0px"
	 viewBox="0 0 282.7 61.8" style="enable-background:new 0 0 282.7 61.8;" xml:space="preserve">
<style type="text/css">
	.st0{opacity:0.1;}
	.st1{fill:#FFFFFF;}
	.st2{clip-path:url(#SVGID_00000089534848010283404400000013008207534823257750_);}
	.st3{fill:#8C8D8D;}
	.st4{clip-path:url(#SVGID_00000031166248664132634340000012907337884575026597_);}
	.st5{fill:#55575A;}
	.st6{fill:#AA8802;}
	.st7{fill:#AFE5FF;}
	.st8{fill:#F7B96D;}
	.st9{fill:#CE3F6A;}
	.st10{fill:#63BDD4;}
	.st11{fill:#CACACA;}
	.st12{clip-path:url(#Path_13399_00000037670192751185465090000000104919838910837641_);}
	.st13{fill:#BEBEBE;}
	.st14{clip-path:url(#Path_13400_00000150803535228331081140000006846636468098630799_);}
	.st15{fill:#D85A35;}
	.st16{clip-path:url(#SVGID_00000022521142270187953980000017862362458366932627_);}
	.st17{fill:#1D94D9;}
	.st18{enable-background:new    ;}
	.st19{fill:#9A9DA4;}
	.st20{clip-path:url(#SVGID_00000183230268218823802520000001499409131415880092_);}
	.st21{fill:#2A6393;}
	.st22{fill:#D85D39;}
	.st23{fill:#747474;}
	.st24{fill:none;stroke:#302C27;stroke-width:1.8532;stroke-linecap:round;stroke-linejoin:round;stroke-miterlimit:10;}
	.st25{fill:#E5E5E5;}
	.st26{fill:#302C27;}
	.st27{fill:#B2B3B4;}
	.st28{fill:none;stroke:#000000;stroke-width:1.3199;stroke-linecap:round;stroke-linejoin:round;stroke-miterlimit:10;}
	.st29{fill:none;stroke:#FFFFFF;stroke-width:4.2452;stroke-linecap:round;stroke-linejoin:round;stroke-miterlimit:10;}
	.st30{fill:none;stroke:#FFFFFF;stroke-width:5.2795;stroke-linecap:round;stroke-linejoin:round;stroke-miterlimit:10;}
	.st31{fill:#FFFFFF;stroke:#FFFFFF;stroke-width:3.9596;stroke-linecap:round;stroke-linejoin:round;stroke-miterlimit:10;}
	.st32{fill:none;stroke:#000000;stroke-width:1.3199;stroke-miterlimit:10;}
	.st33{fill:none;stroke:#000000;stroke-width:1.3199;stroke-linecap:round;stroke-miterlimit:10;}
	.st34{fill:none;stroke:#FFFFFF;stroke-width:1.3199;stroke-linecap:round;stroke-linejoin:round;stroke-miterlimit:10;}
	.st35{fill:none;stroke:#000000;stroke-width:1.3199;stroke-linejoin:round;stroke-miterlimit:10;}
	.st36{fill:#FFFFFF;stroke:#FFFFFF;stroke-width:5.2795;stroke-linecap:round;stroke-linejoin:round;stroke-miterlimit:10;}
	.st37{fill:#FFFFFF;stroke:#000000;stroke-width:1.3199;stroke-linecap:round;stroke-linejoin:round;stroke-miterlimit:10;}
	.st38{fill:none;stroke:#FFFFFF;stroke-width:3.9596;stroke-linecap:square;stroke-miterlimit:10;}
	.st39{fill:#FFFFFF;stroke:#FFFFFF;stroke-width:3.9596;stroke-linecap:square;stroke-miterlimit:10;}
	.st40{fill:#FFFFFF;stroke:#FFFFFF;stroke-width:4.2452;stroke-linecap:round;stroke-linejoin:round;stroke-miterlimit:10;}
	.st41{fill:#FFFFFF;stroke:#000000;stroke-width:1.3199;stroke-linejoin:round;stroke-miterlimit:10;}
	.st42{fill:none;stroke:#FFFFFF;stroke-width:3.9596;stroke-linecap:round;stroke-linejoin:round;stroke-miterlimit:10;}
	.st43{clip-path:url(#SVGID_00000107577568626292613380000018337975450816741282_);}
	.st44{fill:none;}
	.st45{fill:#FFFFFF;stroke:#000000;stroke-width:1.3199;stroke-linecap:round;stroke-miterlimit:10;}
	.st46{fill:#FFFFFF;stroke:#000000;stroke-width:1.3199;stroke-linecap:square;stroke-miterlimit:10;}
	.st47{fill:#FFFFFF;stroke:#FFFFFF;stroke-width:4.2459;stroke-linecap:round;stroke-linejoin:round;stroke-miterlimit:10;}
	.st48{fill:none;stroke:#FFFFFF;stroke-width:3.9596;stroke-linecap:square;stroke-linejoin:round;stroke-miterlimit:10;}
	.st49{fill:none;stroke:#000000;stroke-width:1.3199;stroke-linecap:square;stroke-linejoin:round;stroke-miterlimit:10;}
	.st50{fill:none;stroke:#FFFFFF;stroke-width:4.7515;stroke-linecap:round;stroke-linejoin:round;stroke-miterlimit:10;}
	.st51{fill:#FFFFFF;stroke:#FFFFFF;stroke-width:3.9596;stroke-miterlimit:10;}
	.st52{fill:none;stroke:#302C27;stroke-width:2.4348;stroke-linecap:round;stroke-linejoin:round;stroke-miterlimit:10;}
	.st53{fill:none;stroke:#302C27;stroke-width:2.6782;stroke-linecap:round;stroke-linejoin:round;stroke-miterlimit:10;}
	.st54{fill:none;stroke:#000000;stroke-width:2.1148;stroke-miterlimit:10;}
	.st55{fill:#FFFFFF;stroke:#000000;stroke-width:2.1148;stroke-linecap:round;stroke-linejoin:round;stroke-miterlimit:10;}
	.st56{fill:#FFFFFF;stroke:#FFFFFF;stroke-width:6.3443;stroke-linecap:round;stroke-linejoin:round;stroke-miterlimit:10;}
	.st57{clip-path:url(#SVGID_00000065794363642912649820000001033862592398110617_);}
	.st58{clip-path:url(#SVGID_00000118356915085115483070000001030335219040279195_);}
</style>
<g id="layer">
	<g>
		<defs>
			<rect id="SVGID_00000051364419913789546720000015879811296281584564_" width="282.7" height="61.8"/>
		</defs>
		<clipPath id="SVGID_00000169530612244661967620000009976575902454958521_">
			<use xlink:href="#SVGID_00000051364419913789546720000015879811296281584564_"  style="overflow:visible;"/>
		</clipPath>
		<g id="Group_1873" style="clip-path:url(#SVGID_00000169530612244661967620000009976575902454958521_);">
			<path id="Path_13399_00000032639011049098926530000001053724474832370622_" class="st1" d="M265.6,39.6h-6.3v-9.4
				c0-4.7-2.2-6.8-6.8-6.8H243v-6.3h9.5c8.1,0,13.1,5,13.1,13.1L265.6,39.6z"/>
			<path id="Path_13400_00000118378031922012113620000000033447891528057268_" class="st1" d="M282.7,22.5h-9.5
				c-8.1,0-13.1-5-13.1-13.1V0h6.3v9.4c0,4.7,2.2,6.8,6.8,6.8h9.5L282.7,22.5z"/>
			<path id="Path_13401" class="st1" d="M136.2,61.8c-0.2,0-0.5,0-0.7,0c-2.2,0-4.4-0.6-6.3-1.6c-2-1-3.6-2.6-4.8-4.5l-0.1-0.2
				l0.2-0.2c0.4-0.3,0.8-0.6,1.3-0.8c0.4-0.2,0.8-0.2,1.3-0.2c0.7,0.1,1.3,0.4,1.6,1c1.7,2.1,4.3,3.4,7,3.5c1.9,0.1,3.8-0.3,5.5-1.2
				c1.4-0.7,2.3-2.1,2.4-3.7c0-1.1-0.4-2.1-1.1-2.8c-0.6-0.5-1.3-0.9-2-1.3c-0.3-0.1-0.6-0.3-0.9-0.4c-1.5-0.5-2.9-0.9-4.4-1.2
				c-1.8-0.4-3.6-0.9-5.3-1.4c-1.4-0.4-2.6-1.2-3.6-2.2c-1-1-1.6-2.5-1.5-3.9c0-1.6,0.7-3,1.8-4.1c1.1-1.2,2.5-2,4.1-2.5
				c1.7-0.6,3.4-0.8,5.2-0.9c2-0.1,4,0.3,5.8,1.1c1.8,0.8,3.4,2.1,4.5,3.7l0.2,0.2l-0.2,0.2c-0.3,0.3-0.6,0.5-1,0.6l-0.1,0.1
				c-0.4,0.2-0.7,0.3-1.1,0.3c-0.6,0-1.2-0.3-1.5-0.8c-1.1-1.1-2.8-2.4-6.6-2.4c-1.8-0.1-3.6,0.3-5.2,1.2c-1.3,0.5-2.1,1.8-2.1,3.2
				c0,0.9,0.3,1.7,1,2.2c0.8,0.7,1.7,1.2,2.7,1.5c1.5,0.5,3,0.8,4.5,1.1c1.8,0.4,3.6,0.9,5.3,1.5c1.5,0.5,2.8,1.3,4,2.3
				c0.1,0.1,0.4,0.5,0.5,0.6c0.8,1.2,1.2,2.6,1.1,4c-0.1,1.8-0.9,3.5-2.1,4.7c-1.2,1.2-2.7,2.1-4.4,2.6
				C139.4,61.6,137.8,61.8,136.2,61.8"/>
			<path id="Path_13402" class="st1" d="M62.4,61.8c-2.4,0.1-4.7-0.6-6.6-2.1c-1.7-1.3-2.6-3.4-2.6-5.5c0-3.3,1.9-6,5.3-7.8
				c3.4-1.7,8.4-2.7,14.9-3v-0.9c0-4.2-2.7-6.6-7.5-6.6c-3.1,0-6.1,1.3-8.2,3.7c-0.7,0.6-1.7,0.7-2.5,0.2c-0.4-0.3-0.8-0.7-1-1.1
				l-0.1-0.2l0.1-0.2C57.2,35,61.5,33,66,33c3.6,0,6.4,0.9,8.2,2.6c2,1.8,3,4.4,2.9,7v11.9c0,1.2,0.1,2.3,0.4,3.4
				c0.2,0.7,0.7,1.3,1.4,1.6l0.3,0.1L78.9,60c-0.6,0.9-1.7,1.4-2.8,1.3c-0.8-0.1-1.6-0.7-1.9-1.4c-0.4-0.8-0.6-1.7-0.7-2.6
				c-1.3,1.3-2.8,2.4-4.5,3.1C67,61.3,64.7,61.8,62.4,61.8 M73.4,46.4c-5.5,0.2-9.7,1-12.4,2.2c-2.6,1.2-4.2,3.2-4.2,5.6
				c0,1.3,0.6,2.6,1.6,3.5c1.2,0.9,2.7,1.3,4.3,1.2c2.1,0,4.1-0.5,5.9-1.6c1.9-1.1,3.6-2.6,4.8-4.4V46.4z"/>
			<path id="Path_13403" class="st1" d="M18.4,61.8c-5.9,0-10.1-1.4-13.5-4.7C1.7,54,0,49.5,0,43.6c0-5.7,1.6-10,5-13.2
				s7.9-4.7,13.7-4.7c2.6,0,5.1,0.4,7.6,1.2c2.1,0.6,4,1.7,5.6,3.2l0.2,0.2L32,30.4c-0.2,0.4-0.6,0.8-1,1.1
				c-0.4,0.3-0.8,0.5-1.3,0.5c-0.7,0-1.3-0.2-1.8-0.6c-1.3-0.9-2.8-1.6-4.3-2c-1.6-0.4-3.2-0.7-4.8-0.6c-4.8,0-8.3,1.3-10.9,3.8
				c-2.6,2.7-4,6.4-4,11.1c0,4.7,1.3,8.5,4,11.1c2.6,2.6,5.9,3.8,10.6,3.8c2.2,0,4.3-0.3,6.4-0.8c1.6-0.4,3.1-1.1,4.4-2.1v-9.9h-8.3
				c-0.7,0.1-1.4-0.2-1.8-0.7c-0.4-0.7-0.6-1.5-0.6-2.2v-0.3h14.4v14.7l-0.1,0.1c-1.8,1.5-3.8,2.6-6,3.2
				C24,61.4,21.2,61.8,18.4,61.8"/>
			<path id="Path_13404" class="st1" d="M40.6,61.3h-3.7V33.6h3.7v4.4c2.2-3,5.7-4.7,9.4-4.7c1.1,0,2.2,0.1,3.2,0.5
				c1,0.4,1.6,1.6,1.2,2.6c-0.1,0.4-0.4,0.7-0.7,0.9l-0.2,0.1l-0.2-0.1c-1.1-0.7-2.3-1-3.6-1c-1.6,0-3.3,0.5-4.7,1.3
				c-1.4,0.8-2.6,2-3.4,3.4c-0.8,1.5-1.2,3.2-1.1,5L40.6,61.3z"/>
			<path id="Path_13405" class="st1" d="M104.6,61.6c-0.1,0-0.2,0-0.3,0c-0.8-0.1-1.5-0.7-1.7-1.5c-0.3-1.3-0.4-2.7-0.4-4.1V42.6
				c0-2.3-0.5-4.1-1.5-5.1s-2.7-1.6-4.9-1.6c-1.9,0-3.7,0.4-5.4,1.2c-1.9,0.8-3.6,1.9-5.2,3.2v21.1h-3.7V41.9c0-2.5,0-4.5-0.1-5.5
				c0-0.6-0.2-1.2-0.6-1.7l-0.2-0.2l0.2-0.2c0.6-0.7,1.6-1,2.5-0.9c0.9,0.1,1.9,0.7,1.9,2.5v1c3.2-2.3,7-3.6,11-3.6
				c3.2,0,5.7,0.8,7.3,2.4s2.4,4,2.4,7.2v12.5c0,1.2,0,2.4,0.2,3.5c0.1,0.6,0.4,1.1,0.9,1.4l0.3,0.2l-0.3,0.3
				C106.4,61.2,105.5,61.5,104.6,61.6"/>
			<path id="Path_13406" class="st1" d="M117.5,61.8c-2,0.1-4-0.5-5.7-1.7c-1.2-1.1-2.2-2.3-2.2-6.5V26.2h3.5v7.4h9.7v2.8h-9.7V54
				c-0.1,1.3,0.3,2.7,1.3,3.6c1.1,0.8,2.4,1.2,3.8,1c1.7,0,3.2-0.9,4.2-2.2l0.4-0.4l0.2,0.3c0.4,0.5,0.7,1,0.8,1.7
				c0.2,0.9-0.2,1.9-1,2.4c-1.5,1-3.2,1.6-5,1.6C117.6,61.8,117.5,61.8,117.5,61.8"/>
			<path id="Path_13407" class="st1" d="M160.4,61.3h-3.6V61l-0.1-34.2h12.4c5.4,0,9.6,0.9,12.4,2.8c2.8,1.8,4.4,5,4.2,8.3
				c0.2,3.4-1.4,6.6-4.2,8.4c-2.8,1.9-6.9,2.8-12.3,2.8h-8.8V61.3z M160.4,46.1h8.8c4.3,0,7.6-0.7,9.6-2.1c2.1-1.3,3.3-3.7,3.1-6.1
				c0.1-2.4-1.1-4.7-3.1-6c-2.1-1.3-5.3-2-9.6-2h-8.8V46.1z"/>
			<path id="Path_13408" class="st1" d="M190.6,61.6c-0.1,0-0.2,0-0.3,0c-0.8-0.1-1.5-0.7-1.8-1.5c-0.2-0.7-0.3-1.4-0.2-2.2V21.7
				h3.6v35c-0.1,0.8,0,1.6,0.2,2.3c0.2,0.4,0.5,0.8,0.9,1l0.4,0.2l-0.3,0.3C192.4,61.2,191.5,61.6,190.6,61.6"/>
			<path id="Path_13409" class="st1" d="M206.8,61.8c-3.4,0-5.9-0.8-7.6-2.5s-2.6-4.1-2.6-7.2V33.6h3.7V52c-0.1,1.9,0.5,3.8,1.8,5.2
				c1.4,1.3,3.3,1.9,5.3,1.8c2,0,3.9-0.5,5.7-1.4c1.8-0.9,3.3-2.2,4.5-3.8V33.6h3.7v21.9c-0.1,1.7,0.2,3.4,1,4.9l0.2,0.3l-0.3,0.2
				c-0.7,0.5-1.5,0.7-2.3,0.8c-0.8,0-1.4-0.4-1.7-1.1c-0.3-0.9-0.5-1.8-0.5-2.7c-1.2,1.2-2.7,2.2-4.3,2.8
				C211.2,61.4,209,61.8,206.8,61.8"/>
			<path id="Path_13410" class="st1" d="M236.2,61.8c-0.2,0-0.5,0-0.7,0c-2.2,0-4.4-0.6-6.3-1.6c-2-1-3.6-2.6-4.8-4.5l-0.1-0.2
				l0.2-0.2c0.4-0.3,0.8-0.6,1.3-0.8c0.4-0.2,0.8-0.2,1.3-0.2c0.7,0.1,1.3,0.4,1.6,1c1.7,2.1,4.3,3.4,7,3.5c1.9,0.1,3.8-0.3,5.5-1.2
				c1.4-0.7,2.3-2.1,2.4-3.7c0-1.1-0.4-2.1-1.1-2.8c-0.6-0.5-1.3-0.9-2-1.3c-0.3-0.1-0.6-0.3-0.9-0.4c-1.5-0.5-2.9-0.9-4.4-1.2
				c-1.8-0.4-3.6-0.9-5.3-1.4c-1.4-0.4-2.6-1.2-3.6-2.2c-1-1-1.6-2.5-1.5-3.9c0-1.6,0.7-3,1.8-4.1c1.1-1.2,2.5-2,4.1-2.5
				c1.7-0.6,3.4-0.8,5.2-0.9c2-0.1,4,0.3,5.8,1.1c1.8,0.8,3.4,2.1,4.5,3.7l0.2,0.2l-0.2,0.2c-0.3,0.3-0.6,0.5-1,0.6l-0.1,0.1
				c-0.4,0.2-0.7,0.3-1.1,0.3c-0.6,0-1.2-0.3-1.5-0.8c-1.1-1.1-2.8-2.4-6.6-2.4c-1.8-0.1-3.6,0.3-5.2,1.2c-1.3,0.5-2.1,1.8-2.1,3.2
				c0,0.9,0.3,1.7,1,2.2c0.8,0.7,1.7,1.2,2.7,1.5c1.5,0.5,3,0.8,4.5,1.1c1.8,0.4,3.6,0.9,5.3,1.5c1.5,0.5,2.8,1.3,4,2.3
				c0.1,0.1,0.4,0.5,0.5,0.6c0.8,1.2,1.2,2.6,1.1,4c-0.1,1.8-0.9,3.5-2.1,4.7c-1.2,1.2-2.7,2.1-4.4,2.6
				C239.4,61.6,237.8,61.8,236.2,61.8"/>
		</g>
	</g>
</g>
<g id="Layer_3">
</g>
<g id="Layer_2">
</g>
<g id="Layer_4">
</g>
</svg>
