<?xml version="1.0" encoding="UTF-8"?>
<svg id="Layer_1" xmlns="http://www.w3.org/2000/svg" version="1.1" viewBox="0 0 382.2 48.7">
  <!-- Generator: Adobe Illustrator 29.4.0, SVG Export Plug-In . SVG Version: 2.1.0 Build 152)  -->
  <defs>
    <style>
      .st0 {
        fill: #a2b243;
      }

      .st1 {
        fill: #05314c;
      }
    </style>
  </defs>
  <g>
    <path class="st0" d="M13,27.5H.4c1.7,9.1,12.7,20.2,31,21.1-9.9-4.1-17-11.9-18.4-21.1Z"/>
    <path class="st0" d="M13,20.8H.4C2.1,11.9,13.1,1,31.4,0,21.5,4.2,14.4,11.8,13,20.8Z"/>
    <g>
      <path class="st0" d="M28.8,20.8c1.8-7.7,9.8-13.6,19.3-13.6s17.5,5.8,19.3,13.6h10.6C75.8,9.1,63.3,0,48.1,0s-27.7,9-29.9,20.7h10.6Z"/>
      <path class="st0" d="M67.4,27.5c-1.8,7.8-9.7,13.7-19.3,13.7s-17.5-5.9-19.3-13.7h-10.7c1.9,11.9,14.6,21.2,30,21.2s28.1-9.2,30-21.2c0,0-10.7,0-10.7,0Z"/>
    </g>
  </g>
  <g>
    <path class="st1" d="M92.7,45.5V5.9h7.8v39.6h-7.8Z"/>
    <path class="st1" d="M115,15.8l.6,4.1c2.3-3.3,5.8-4.8,9-4.8s5.9,1.5,7.7,3.9c2.3,3,2.6,6.8,2.6,11.1v15.4h-7.8v-15c0-2.2-.1-4.7-.9-6.4-.7-1.5-2.2-2.1-3.9-2.1s-4.9,1.4-6.3,3.8v19.7h-7.9V15.7h6.9Z"/>
    <path class="st1" d="M157.9,10.3c-1.3-.7-2.5-1-4-1s-2,.3-2.4.9c-.6.8-.8,2.1-.8,3.6v1.9h7.1v6.7h-7.1v23.1h-7.7v-23.1h-3.1v-6.7h3.1v-2.4c0-3.4.6-6.1,2.1-7.9,1.6-2,4.1-3.1,8.1-3.1s4.9.6,7.1,1.7l-2.4,6.3Z"/>
    <path class="st1" d="M189.8,30.7c0,8.8-6.3,15.6-15,15.6s-15-6.8-15-15.6,6.3-15.6,15-15.6,15,6.8,15,15.6ZM174.8,22c-4.3,0-7.1,3.8-7.1,8.7s2.9,8.7,7.1,8.7,7.1-3.8,7.1-8.7-2.8-8.7-7.1-8.7Z"/>
    <path class="st1" d="M202.7,19.7c1.6-2.8,3.9-4.6,6.7-4.6s2.7.3,3.7.7l-1.9,7c-.8-.5-1.7-.7-2.7-.7-2.2,0-4.3,1.3-5.4,3.3v20.1h-7.7V15.7h6.7l.6,4Z"/>
    <path class="st1" d="M252.8,45.5v-15c0-2.2-.1-4.7-.9-6.4-.7-1.5-2.2-2.1-4-2.1s-4.4,1.2-5.8,3.4c.2,1.5.3,3.1.3,4.7v15.4h-8.1v-15c0-2.2,0-4.8-.9-6.4-.7-1.4-2.1-2-3.8-2s-4.3,1.2-5.7,2.9v20.6h-8.1V15.8h7l.6,3.6c2.4-3,5.7-4.3,8.6-4.3s6.9,2,8.4,5c2.8-4,6.7-5,9.9-5s6,1.5,7.8,3.8c2.3,3,2.7,6.8,2.7,11.1v15.4h-8Z"/>
    <path class="st1" d="M284.2,45.5l-.6-2.5c-1.9,2.4-4.8,3.2-8,3.2-5.5,0-10.5-3.3-10.5-9.4s6.7-9.6,12.7-9.6,3.5.2,5.3.6v-.5c0-3.7-1.5-6-5.8-6s-6.3,1.2-8.8,2.6l-2.1-5.8c3.7-1.9,8.2-3.1,12.6-3.1,8.1,0,12.1,4.8,12.1,12.6v17.9h-6.9ZM283.1,32.6c-1.5-.3-2.8-.5-4-.5-2.9,0-6.3,1.1-6.3,4.6s2.1,4,4.5,4,4.2-1,5.8-2.5v-5.6Z"/>
    <path class="st1" d="M305.8,22.4v11.5c0,.9,0,1.7.1,2.5.2,1.8.9,2.8,2.5,2.8s2.1-.3,3.1-.8l2.4,5.9c-1.9,1.1-4.6,1.8-6.8,1.8-4.5,0-7.5-2.5-8.5-6.4-.4-1.5-.5-3.2-.5-5v-12.4h-3.4v-6.7h3.4l1.2-6.6h6.5v6.6h7.3v6.7h-7.3Z"/>
    <path class="st1" d="M318.3,11.6v-6.8h7.7v6.8h-7.7ZM318.3,45.5V15.7h7.7v29.8h-7.7Z"/>
    <path class="st1" d="M356.5,42.5c-2.9,2.6-6.3,3.7-10.5,3.7-8.6,0-14.9-6.3-14.9-15.6s6.2-15.6,15.1-15.6,7.4,1.2,10.3,3.7l-4.1,5.6c-1.6-1.5-3.4-2.4-5.7-2.4-4.5,0-7.6,3.9-7.6,8.7s3.3,8.7,7.5,8.7,4-.6,5.6-2.3l4.3,5.5Z"/>
    <path class="st1" d="M377,23.9c-1.5-1.4-3.6-2.5-5.8-2.5s-2.8.8-2.8,2.3,2.2,2.8,4.6,3.8c3.8,1.6,8.6,3.5,8.6,9.2s-5.6,9.6-11.3,9.6-8.6-1.8-11.8-5.1l4.5-4.8c2.2,2.2,4.1,3.5,6.9,3.5s3.7-.8,3.7-2.6-2.7-3-5.6-4.3c-3.5-1.5-7.4-3.6-7.4-8.8s5.1-9.1,10.5-9.1,7.4,1.3,10.1,3.9l-4.2,4.9Z"/>
  </g>
</svg>