<svg id="eDdsulb6Lwh1" xmlns="http://www.w3.org/2000/svg" xmlns:xlink="http://www.w3.org/1999/xlink" viewBox="0 0 435.8 152.2" shape-rendering="geometricPrecision" text-rendering="geometricPrecision">
<style><![CDATA[
#eDdsulb6Lwh12_to {animation: eDdsulb6Lwh12_to__to 3000ms linear 1 normal forwards}@keyframes eDdsulb6Lwh12_to__to { 0% {transform: translate(24.756473px,49.800003px)} 6.666667% {transform: translate(24.756473px,49.800003px)} 96% {transform: translate(411.05003px,49.800003px)} 100% {transform: translate(411.05003px,49.800003px)}}
]]></style>
<defs><linearGradient id="eDdsulb6Lwh7-fill" x1="74.9976" y1="143.6062" x2="45.7781" y2="36.8576" spreadMethod="pad" gradientUnits="userSpaceOnUse" gradientTransform="translate(0 0)"><stop id="eDdsulb6Lwh7-fill-0" offset="0%" stop-color="#1e2c5e"/><stop id="eDdsulb6Lwh7-fill-1" offset="100%" stop-color="#20568e"/></linearGradient><linearGradient id="eDdsulb6Lwh11-fill" x1="194.8142" y1="143.6068" x2="165.5947" y2="36.8583" spreadMethod="pad" gradientUnits="userSpaceOnUse" gradientTransform="translate(0 0)"><stop id="eDdsulb6Lwh11-fill-0" offset="0%" stop-color="#1e2c5e"/><stop id="eDdsulb6Lwh11-fill-1" offset="100%" stop-color="#20568e"/></linearGradient><linearGradient id="eDdsulb6Lwh13-fill" x1="395.0251" y1="126.7438" x2="421.6655" y2="-41.3448" spreadMethod="pad" gradientUnits="userSpaceOnUse" gradientTransform="translate(0 0)"><stop id="eDdsulb6Lwh13-fill-0" offset="0%" stop-color="#f6ac1b"/><stop id="eDdsulb6Lwh13-fill-1" offset="24%" stop-color="#f6ac1b"/><stop id="eDdsulb6Lwh13-fill-2" offset="31.47%" stop-color="#f5971e"/><stop id="eDdsulb6Lwh13-fill-3" offset="46.62%" stop-color="#f27321"/><stop id="eDdsulb6Lwh13-fill-4" offset="54%" stop-color="#f26222"/><stop id="eDdsulb6Lwh13-fill-5" offset="94%" stop-color="#ed1651"/></linearGradient><linearGradient id="eDdsulb6Lwh15-fill" x1="320.9761" y1="94.7439" x2="360.8288" y2="27.4656" spreadMethod="pad" gradientUnits="userSpaceOnUse" gradientTransform="translate(0 0)"><stop id="eDdsulb6Lwh15-fill-0" offset="0%" stop-color="#1e2c5e"/><stop id="eDdsulb6Lwh15-fill-1" offset="100%" stop-color="#20568e"/></linearGradient></defs><g><g><g><path d="M67.3,29.9c11.1,0,21.5,3,30.4,8.3c0,0,.1.1.1.1.4.2.8.5,1.2.7.3.2.7.4,1,.7c1,.6,1.9,1.3,2.9,2L126,18.6C111.6,6.2,92.5,-1,71.8,0.1c-38,2.1-69,32.7-71.6,70.6C-1.4,93.3,7,114.1,21.4,129C12.5,118.5,7.1,104.9,7.1,90.1c0-33.3,27-60.2,60.2-60.2Z" fill="#1d2256"/><g><path d="M117.8,122.8l-13.4-13.4c-7.6,6.5-17.5,10.4-28.3,10.4-24.1,0-43.7-19.6-43.7-43.7c0-13.5,6.1-26.1,16.9-34.6c6.2-4.9,13.7-7.9,21.5-8.9c9.8-1.2,19.1,1,26.9,5.4-8.9-5.2-19.3-8.3-30.4-8.3-33.2,0-60.2,27-60.2,60.2c0,14.8,5.4,28.4,14.3,38.9c7.7,9.1,18.2,15.9,30.1,19.2c7.7,2.7,16,4.1,24.7,4.1c19.7,0,37.7-7.5,51.2-19.9l-9.6-9.4Z" fill="url(#eDdsulb6Lwh7-fill)"/></g></g><g><path d="M187.1,29.9c11.1,0,21.5,3,30.4,8.3c0,0,.1.1.1.1.4.2.8.5,1.2.7.3.2.7.4,1,.7c1,.6,1.9,1.3,2.9,2l22.9-22.9C231.4,6.2,212.3,-1,191.6,0.1c-38,2.1-69,32.7-71.6,70.6-1.6,22.6,6.8,43.3,21.2,58.2-8.9-10.5-14.3-24.1-14.3-38.9c0-33.2,27-60.1,60.2-60.1Z" fill="#1d2256"/><g><path d="M237.6,122.8l-13.4-13.4c-7.6,6.5-17.5,10.4-28.3,10.4-24.1,0-43.7-19.6-43.7-43.7c0-13.5,6.1-26.1,16.9-34.6c6.2-4.9,13.7-7.9,21.5-8.9c9.8-1.2,19.1,1,26.9,5.4-8.9-5.2-19.3-8.3-30.4-8.3-33.2,0-60.2,27-60.2,60.2c0,14.8,5.4,28.4,14.3,38.9c7.7,9.1,18.2,15.9,30.1,19.2c7.7,2.7,16,4.1,24.7,4.1c19.7,0,37.7-7.5,51.2-19.9l-9.6-9.4Z" fill="url(#eDdsulb6Lwh11-fill)"/></g></g></g><g id="eDdsulb6Lwh12_to" transform="translate(24.756473,49.800003)"><g transform="translate(-410.950012,-49.800003)"><path d="M386.2,2.3v29.3c0,.3.1.5.3.7l16.8,16.8c.4.4.4,1,0,1.4L386.5,67.3c-.2.2-.3.5-.3.7v29.3c0,.9,1.1,1.4,1.7.7l47.5-47.5c.4-.4.4-1,0-1.4L387.9,1.6c-.6-.7-1.7-.2-1.7.7Z" fill="url(#eDdsulb6Lwh13-fill)"/></g></g><path d="M373.5,50.1c0-28.9-19.4-49.2-53.5-49.2h-63.9c0,0-.5,5,1.9,10.5.1.3.3.6.4,1c0,0,0,.1,0,.1c1.9,3.9,5.3,8,11.3,10.7.2.1.4.2.6.3c1.1.5,2.3.9,3.5,1.3c0,0,0,0,.1,0c4.5,1.3,9.8,2,16.1,2c8.1,0,20.7-.5,33.5.6c24.4,2,49.9,9.4,48.4,36c1.1-4.2,1.6-8.7,1.6-13.3Z" fill="#1d2256"/><path d="M348.1,92.2c12.4-5.9,20.6-16.1,23.8-28.9c1.5-26.5-24-34-48.4-36c12.9,3,18,12.8,18,23.4c0,13-7.4,24.5-26.8,24.5h-27.2v-35.2h-9.5c-9.9,0-18,8.1-18,18v93.8h9.4c9.9,0,18-8.1,18-18v-35.8h31.2l16.9,41.4c3,7.2,10,12,17.9,12h19.7l-25-59.2Z" fill="url(#eDdsulb6Lwh15-fill)"/></g></svg>
