<?xml version="1.0" encoding="UTF-8"?>
<svg id="Layer_1" xmlns="http://www.w3.org/2000/svg" version="1.1" viewBox="0 0 427.07 300.58">
  <!-- Generator: Adobe Illustrator 29.1.0, SVG Export Plug-In . SVG Version: 2.1.0 Build 142)  -->
  <defs>
    <style>
      .st0 {
        fill: none;
      }

      .st1 {
        fill: #231f20;
      }
    </style>
  </defs>
  <g>
    <circle class="st0" cx="143.74" cy="150.51" r="139.18"/>
    <path class="st1" d="M143.74,5.91c79.73,0,144.6,64.87,144.6,144.6s-64.87,144.6-144.6,144.6S-.86,230.24-.86,150.51,64.01,5.91,143.74,5.91ZM143.74,284.26c73.75,0,133.75-60,133.75-133.75S217.49,16.76,143.74,16.76,9.99,76.76,9.99,150.51s60,133.75,133.75,133.75Z"/>
  </g>
  <g>
    <path class="st1" d="M103.22,145.24h306.91c2.91,0,5.27,2.36,5.27,5.27s-2.36,5.27-5.27,5.27H103.22c-2.91,0-5.27-2.36-5.27-5.27s2.36-5.27,5.27-5.27Z"/>
    <path class="st1" d="M158.62,82.83c1.24,0,2.49.44,3.5,1.33,2.18,1.93,2.38,5.26.44,7.44l-55.4,62.41c-1.93,2.18-5.26,2.37-7.44.44s-2.38-5.26-.44-7.44l55.4-62.41c1.04-1.17,2.49-1.77,3.94-1.77Z"/>
    <path class="st1" d="M103.22,145.24c1.45,0,2.9.6,3.94,1.77l55.39,62.41c1.93,2.18,1.73,5.51-.44,7.44-2.18,1.93-5.51,1.73-7.44-.44l-55.39-62.41c-1.93-2.18-1.73-5.51.44-7.44,1-.89,2.25-1.33,3.5-1.33Z"/>
  </g>
</svg>