<?xml version="1.0" encoding="UTF-8"?>
<svg id="Layer_1" xmlns="http://www.w3.org/2000/svg" version="1.1" viewBox="0 0 500 336.81">
  <!-- Generator: Adobe Illustrator 29.1.0, SVG Export Plug-In . SVG Version: 2.1.0 Build 142)  -->
  <defs>
    <style>
      .st0 {
        fill: #3c1aff;
      }
    </style>
  </defs>
  <path class="st0" d="M119.81,20.57c26.45,0,51.32,10.3,70.02,29,38.61,38.61,38.61,101.43,0,140.04l-98.34,98.34v-72.96l-9.83-4.11c-12.07-5.04-22.79-12.2-31.86-21.27-38.61-38.61-38.61-101.43,0-140.04,18.7-18.7,43.57-29,70.02-29M119.81,4.57c-29.44,0-58.87,11.23-81.33,33.69-44.92,44.92-44.92,117.75,0,162.67,10.94,10.94,23.57,19.11,37.01,24.72v100.93l125.66-125.65c44.92-44.92,44.92-117.75,0-162.67C178.69,15.8,149.25,4.57,119.81,4.57h0Z"/>
  <path class="st0" d="M379.3,20.57c26.45,0,51.32,10.3,70.02,29,38.61,38.61,38.61,101.43,0,140.04l-98.34,98.34v-72.96l-9.83-4.11c-12.07-5.04-22.79-12.2-31.86-21.27-38.61-38.61-38.61-101.43,0-140.04,18.7-18.7,43.57-29,70.02-29M379.3,4.57c-29.44,0-58.87,11.23-81.33,33.69-44.92,44.92-44.92,117.75,0,162.67,10.94,10.94,23.57,19.11,37.01,24.72v100.93l125.66-125.65c44.92-44.92,44.92-117.75,0-162.67-22.46-22.46-51.9-33.69-81.33-33.69h0Z"/>
</svg>