<?xml version="1.0" encoding="utf-8"?>
<!-- Generator: Adobe Illustrator 27.8.1, SVG Export Plug-In . SVG Version: 6.00 Build 0)  -->
<svg version="1.1" xmlns="http://www.w3.org/2000/svg" xmlns:xlink="http://www.w3.org/1999/xlink" x="0px" y="0px"
	 viewBox="0 0 2939.9 863.9" style="enable-background:new 0 0 2939.9 863.9;" xml:space="preserve">
<style type="text/css">
	.st0{clip-path:url(#SVGID_00000035509374476537656650000014674903861153115525_);}
	
		.st1{clip-path:url(#SVGID_00000052787089998761300070000004313725705390239886_);fill:url(#SVGID_00000090279992455339049350000004524986557767398822_);}
	
		.st2{clip-path:url(#SVGID_00000067215704675835639310000003557401405478410162_);fill:none;stroke:#000000;stroke-width:15;stroke-miterlimit:10;}
	
		.st3{clip-path:url(#SVGID_00000152231065602303392750000016357279557284528006_);fill:url(#SVGID_00000163064620132654587290000003139307574050793379_);}
	
		.st4{clip-path:url(#SVGID_00000140724569046908810230000001625945780100342687_);fill:none;stroke:#000000;stroke-width:15;stroke-miterlimit:10;}
	.st5{clip-path:url(#SVGID_00000140724569046908810230000001625945780100342687_);fill:#776A4A;}
	
		.st6{clip-path:url(#SVGID_00000140724569046908810230000001625945780100342687_);fill:none;stroke:#000000;stroke-width:8;stroke-miterlimit:10;}
	.st7{clip-path:url(#SVGID_00000140724569046908810230000001625945780100342687_);fill:#D89431;}
	
		.st8{clip-path:url(#SVGID_00000140724569046908810230000001625945780100342687_);fill:none;stroke:#000000;stroke-width:16;stroke-miterlimit:10;}
	.st9{clip-path:url(#SVGID_00000140724569046908810230000001625945780100342687_);fill:#F3576C;}
	
		.st10{clip-path:url(#SVGID_00000140724569046908810230000001625945780100342687_);fill:none;stroke:#000000;stroke-width:10;stroke-miterlimit:10;}
	.st11{clip-path:url(#SVGID_00000140724569046908810230000001625945780100342687_);fill:#B8D289;}
	.st12{clip-path:url(#SVGID_00000140724569046908810230000001625945780100342687_);fill:#60A700;}
	.st13{clip-path:url(#SVGID_00000140724569046908810230000001625945780100342687_);fill:#79001A;}
	.st14{clip-path:url(#SVGID_00000140724569046908810230000001625945780100342687_);fill:#D05824;}
	.st15{clip-path:url(#SVGID_00000140724569046908810230000001625945780100342687_);fill:#BF545A;}
	
		.st16{clip-path:url(#SVGID_00000062904651909069495100000010535253290814778791_);fill:none;stroke:#000000;stroke-width:17;stroke-miterlimit:10;}
	.st17{font-family:'PTSerif-Regular';}
	.st18{font-size:218.1883px;}
	.st19{display:none;}
	.st20{stroke:#FFFFFF;stroke-miterlimit:10;}
	.st21{fill:#7A7A7A;}
	.st22{fill:none;stroke:#707070;stroke-width:12;stroke-miterlimit:10;}
</style>
<g id="Layer_1">
	<g>
		<defs>
			<rect id="SVGID_1_" x="-36.6" y="-51.2" width="2512.8" height="969.4"/>
		</defs>
		<clipPath id="SVGID_00000151521296825625059040000013477256964839745673_">
			<use xlink:href="#SVGID_1_"  style="overflow:visible;"/>
		</clipPath>
		<g style="clip-path:url(#SVGID_00000151521296825625059040000013477256964839745673_);">
			<defs>
				<rect id="SVGID_00000138548124307661674590000017580018413464328089_" x="63.7" y="56.2" width="741.8" height="739.7"/>
			</defs>
			<clipPath id="SVGID_00000134227336247875348210000000437122720563389854_">
				<use xlink:href="#SVGID_00000138548124307661674590000017580018413464328089_"  style="overflow:visible;"/>
			</clipPath>
			<g style="clip-path:url(#SVGID_00000134227336247875348210000000437122720563389854_);">
				
					<image style="overflow:visible;" width="1036" height="1033" xlink:href="1CDC07DA97DC7C75.png"  transform="matrix(0.716 0 0 0.716 63.6637 56.1948)">
				</image>
			</g>
		</g>
		<g style="clip-path:url(#SVGID_00000151521296825625059040000013477256964839745673_);">
			<defs>
				<path id="SVGID_00000154409168497139263800000000160717680269732775_" d="M672.7,571.1c-33.4,7-61.7,4.7-79.6,1.9
					c-9.9,55.1-19.8,110.1-29.8,165.2c25.1-8.1,73.2-27.3,117.6-72.2c49.9-50.4,68.1-105.7,74.9-131.4
					C740.2,545.7,711.9,562.9,672.7,571.1"/>
			</defs>
			<clipPath id="SVGID_00000121267452436093392800000012775724197705556902_">
				<use xlink:href="#SVGID_00000154409168497139263800000000160717680269732775_"  style="overflow:visible;"/>
			</clipPath>
			
				<linearGradient id="SVGID_00000155121136212821726250000006186011357237341599_" gradientUnits="userSpaceOnUse" x1="-438.2005" y1="1135.6006" x2="-437.4844" y2="1135.6006" gradientTransform="matrix(455.799 0 0 -455.799 200092.3906 518242)">
				<stop  offset="0" style="stop-color:#009793"/>
				<stop  offset="1" style="stop-color:#519E66"/>
			</linearGradient>
			
				<rect x="563.3" y="534.5" style="clip-path:url(#SVGID_00000121267452436093392800000012775724197705556902_);fill:url(#SVGID_00000155121136212821726250000006186011357237341599_);" width="192.5" height="203.7"/>
		</g>
		<g style="clip-path:url(#SVGID_00000151521296825625059040000013477256964839745673_);">
			<defs>
				<rect id="SVGID_00000010293472559857777990000004196345382609621402_" x="-36.6" y="-51.2" width="2512.8" height="969.4"/>
			</defs>
			<clipPath id="SVGID_00000005973371425577369900000009689647766557720962_">
				<use xlink:href="#SVGID_00000010293472559857777990000004196345382609621402_"  style="overflow:visible;"/>
			</clipPath>
			
				<path style="clip-path:url(#SVGID_00000005973371425577369900000009689647766557720962_);fill:none;stroke:#000000;stroke-width:15;stroke-miterlimit:10;" d="
				M755.8,534.5c-15.6,11.2-43.9,28.4-83.1,36.6c-33.4,7-61.7,4.7-79.6,1.9c-9.9,55.1-19.8,110.1-29.8,165.2
				c25.1-8.1,73.2-27.3,117.6-72.2C730.8,615.6,749.1,560.3,755.8,534.5z"/>
		</g>
		<g style="clip-path:url(#SVGID_00000151521296825625059040000013477256964839745673_);">
			<defs>
				<path id="SVGID_00000152949375161748072680000007053055679256471172_" d="M375.7,571.1c-3.4,16.7-6.2,36.1-7.2,57.7
					c-1.4,29.8,0.8,56,4.1,77.3c-13.8-12.4-31.5-30.9-47.4-56.7c-13.7-22.2-21.9-43.1-26.9-59.3c-16.9,4.4-35.2,9.9-54.6,17.1
					c-26,9.6-48.9,20.3-68.7,30.7c18.8,24.1,71.8,85.1,163.9,113c68.4,20.7,127,13.7,157.2,7.9c11.8-64.3,23.5-128.5,35.3-192.8
					c-8.4-0.8-16.8-1.6-25.2-2.3c1.9,4.2,3.7,8.4,5.6,12.7c-11.2-6.6-29.5-15.3-53.6-18.6c-6.5-0.9-12.8-1.2-18.7-1.2
					C409.5,556.5,386.5,566,375.7,571.1"/>
			</defs>
			<clipPath id="SVGID_00000126318055498877786270000006166599250693602691_">
				<use xlink:href="#SVGID_00000152949375161748072680000007053055679256471172_"  style="overflow:visible;"/>
			</clipPath>
			
				<linearGradient id="SVGID_00000121970188609832992020000016286234185863379639_" gradientUnits="userSpaceOnUse" x1="-438.0965" y1="1135.5721" x2="-437.3805" y2="1135.5721" gradientTransform="matrix(497.7245 0 0 -497.7245 218226.4062 565866.1875)">
				<stop  offset="0" style="stop-color:#009793"/>
				<stop  offset="1" style="stop-color:#519E66"/>
			</linearGradient>
			
				<rect x="175" y="556.5" style="clip-path:url(#SVGID_00000126318055498877786270000006166599250693602691_);fill:url(#SVGID_00000121970188609832992020000016286234185863379639_);" width="356.4" height="215.2"/>
		</g>
		<g style="clip-path:url(#SVGID_00000151521296825625059040000013477256964839745673_);">
			<defs>
				<rect id="SVGID_00000179631727004329301420000006697277892233339043_" x="-36.6" y="-51.2" width="2512.8" height="969.4"/>
			</defs>
			<clipPath id="SVGID_00000080179665753843749730000002328744253386582924_">
				<use xlink:href="#SVGID_00000179631727004329301420000006697277892233339043_"  style="overflow:visible;"/>
			</clipPath>
			
				<path style="clip-path:url(#SVGID_00000080179665753843749730000002328744253386582924_);fill:none;stroke:#000000;stroke-width:15;stroke-miterlimit:10;" d="
				M375.7,571.1c12.9-6.2,43.5-18.6,82.5-13.4c24.1,3.2,42.4,12,53.6,18.6c-1.9-4.2-3.7-8.4-5.6-12.7c8.4,0.8,16.8,1.6,25.2,2.3
				c-11.8,64.3-23.5,128.5-35.3,192.8c-30.2,5.8-88.8,12.9-157.2-7.9C246.8,723,193.9,662,175,638c19.8-10.5,42.7-21.1,68.7-30.7
				c19.3-7.1,37.6-12.7,54.6-17.1c5,16.2,13.2,37.1,26.9,59.3c15.9,25.8,33.6,44.4,47.4,56.7c-3.3-21.3-5.6-47.5-4.1-77.3
				C369.6,607.2,372.3,587.8,375.7,571.1z"/>
			<path style="clip-path:url(#SVGID_00000080179665753843749730000002328744253386582924_);fill:#776A4A;" d="M563.4,402.5
				c17.2,1.5,34.4,2.9,51.6,4.4c-9.2,56.5-18.4,112.9-27.6,169.4c-9.2,56.5-18.4,112.9-27.6,169.4c-19.9,5.6-39.8,11.2-59.8,16.8
				C521.1,642.4,542.2,522.4,563.4,402.5"/>
			
				<path style="clip-path:url(#SVGID_00000080179665753843749730000002328744253386582924_);fill:none;stroke:#000000;stroke-width:8;stroke-miterlimit:10;" d="
				M563.4,402.5c17.2,1.5,34.4,2.9,51.6,4.4c-9.2,56.5-18.4,112.9-27.6,169.4c-9.2,56.5-18.4,112.9-27.6,169.4
				c-19.9,5.6-39.8,11.2-59.8,16.8C521.1,642.4,542.2,522.4,563.4,402.5z"/>
			<path style="clip-path:url(#SVGID_00000080179665753843749730000002328744253386582924_);fill:#776A4A;" d="M486.1,395.8
				L715,415.4c1-12.7,2.1-25.4,3.1-38.2c-72.2-6.5-144.4-13.1-216.5-19.6C496.4,370.4,491.2,383.1,486.1,395.8"/>
			
				<path style="clip-path:url(#SVGID_00000080179665753843749730000002328744253386582924_);fill:none;stroke:#000000;stroke-width:8;stroke-miterlimit:10;" d="
				M486.1,395.8L715,415.4c1-12.7,2.1-25.4,3.1-38.2c-72.2-6.5-144.4-13.1-216.5-19.6C496.4,370.4,491.2,383.1,486.1,395.8z"/>
			<path style="clip-path:url(#SVGID_00000080179665753843749730000002328744253386582924_);fill:#776A4A;" d="M588.1,278.3
				c-5.5,27.9-11,55.8-16.5,83.6c16.2,1.6,32.3,3.3,48.5,4.9c4.5-28.9,8.9-57.7,13.4-86.6C618.4,279.6,603.3,279,588.1,278.3"/>
			
				<path style="clip-path:url(#SVGID_00000080179665753843749730000002328744253386582924_);fill:none;stroke:#000000;stroke-width:8;stroke-miterlimit:10;" d="
				M588.1,278.3c-5.5,27.9-11,55.8-16.5,83.6c16.2,1.6,32.3,3.3,48.5,4.9c4.5-28.9,8.9-57.7,13.4-86.6
				C618.4,279.6,603.3,279,588.1,278.3z"/>
			<path style="clip-path:url(#SVGID_00000080179665753843749730000002328744253386582924_);fill:#D89431;" d="M284,158.7
				c12.4,33.7,26.3,83.2,28.9,144.4c2.2,53-4.7,97.6-12.4,129.9c4,3,9.4,7.1,15.5,12.4c13.1,11.4,22.9,22.5,27.8,28.9
				c20.9,26.5,30.3,60.6,33,71.1c18.4,0.7,40.2,3,64.3,8.2c28.1,6.1,51.9,14.5,70.8,22.8c-10.7-26.2-28.8-57.9-60.8-81.5
				c-54-39.7-123.9-38.7-123.9-39c0-0.2,14.1,1.8,70.7,10.2c3.5-31.3,4.6-77.2-8.8-129.9C365.6,243.2,310.9,184.2,284,158.7"/>
			
				<path style="clip-path:url(#SVGID_00000080179665753843749730000002328744253386582924_);fill:none;stroke:#000000;stroke-width:16;stroke-miterlimit:10;" d="
				M284,158.7c12.4,33.7,26.3,83.2,28.9,144.4c2.2,53-4.7,97.6-12.4,129.9c4,3,9.4,7.1,15.5,12.4c13.1,11.4,22.9,22.5,27.8,28.9
				c20.9,26.5,30.3,60.6,33,71.1c18.4,0.7,40.2,3,64.3,8.2c28.1,6.1,51.9,14.5,70.8,22.8c-10.7-26.2-28.8-57.9-60.8-81.5
				c-54-39.7-123.9-38.7-123.9-39c0-0.2,14.1,1.8,70.7,10.2c3.5-31.3,4.6-77.2-8.8-129.9C365.6,243.2,310.9,184.2,284,158.7z"/>
			<path style="clip-path:url(#SVGID_00000080179665753843749730000002328744253386582924_);fill:#D89431;" d="M72.3,370.1
				c39.2,27.6,91.1,57.3,156,78.3c20.1,6.5,39.4,11.6,57.7,15.5c2.6,6.9,5.9,14.2,10.3,21.7c21.8,37.1,56.1,54.9,75.3,62.9
				c-0.6,18.8-1,38.1-1,57.7c-0.1,34.5,0.6,67.9,2.1,100c-30.1-24.3-44.7-48.5-52.6-67c-9.6-22.6-19.6-61.9-19.6-61.9
				c-1.4-30.6-2.7-61.2-4.1-91.8c1.4,30.6,2.7,61.2,4.1,91.8c-31.7-11.1-84.4-34.2-136.1-81.5C113.8,449.6,86.3,400.4,72.3,370.1"/>
			
				<path style="clip-path:url(#SVGID_00000080179665753843749730000002328744253386582924_);fill:none;stroke:#000000;stroke-width:16;stroke-miterlimit:10;" d="
				M72.3,370.1c39.2,27.6,91.1,57.3,156,78.3c20.1,6.5,39.4,11.6,57.7,15.5c2.6,6.9,5.9,14.2,10.3,21.7
				c21.8,37.1,56.1,54.9,75.3,62.9c-0.6,18.8-1,38.1-1,57.7c-0.1,34.5,0.6,67.9,2.1,100c-30.1-24.3-44.7-48.5-52.6-67
				c-9.6-22.6-19.6-61.9-19.6-61.9c-1.4-30.6-2.7-61.2-4.1-91.8c1.4,30.6,2.7,61.2,4.1,91.8c-31.7-11.1-84.4-34.2-136.1-81.5
				C113.8,449.6,86.3,400.4,72.3,370.1z"/>
			<path style="clip-path:url(#SVGID_00000080179665753843749730000002328744253386582924_);fill:#F3576C;" d="M275.7,425.7
				c1.4,13.3,5.9,39.4,24.3,65.6c26.7,38.1,64.8,50.6,76.8,54c-1.4-12.5-7.7-54.5-43.3-87.6C311.9,437.6,288.8,429.3,275.7,425.7"/>
			
				<path style="clip-path:url(#SVGID_00000080179665753843749730000002328744253386582924_);fill:none;stroke:#000000;stroke-width:16;stroke-miterlimit:10;" d="
				M275.7,425.7c1.4,13.3,5.9,39.4,24.3,65.6c26.7,38.1,64.8,50.6,76.8,54c-1.4-12.5-7.7-54.5-43.3-87.6
				C311.9,437.6,288.8,429.3,275.7,425.7z"/>
			
				<path style="clip-path:url(#SVGID_00000080179665753843749730000002328744253386582924_);fill:none;stroke:#000000;stroke-width:10;stroke-miterlimit:10;" d="
				M245.1,197.2c14.3,29.5,30.6,71,39.8,122.5c7.6,42.9,8.1,80.5,6.4,109.8"/>
			
				<path style="clip-path:url(#SVGID_00000080179665753843749730000002328744253386582924_);fill:none;stroke:#000000;stroke-width:10;stroke-miterlimit:10;" d="
				M114.6,345.2c18.4,19.7,45.6,44.5,82.7,66.8c32.2,19.3,62.3,31,85.9,38.2"/>
			<path style="clip-path:url(#SVGID_00000080179665753843749730000002328744253386582924_);fill:#B8D289;" d="M437.8,16.9
				C209.4,16.9,24.3,202,24.3,430.3s185.1,413.5,413.5,413.5s413.5-185.1,413.5-413.5S666.1,16.9,437.8,16.9 M437.8,768.1
				c-187.7-1.2-341.4-158.7-337.7-347.9c-9.3-16.7-18.5-33.4-27.8-50.1c10.4,4.8,20.8,9.6,31.2,14.4c5.3-32.7,23.9-119.6,98-194.9
				c15.1-15.3,106.9-105.8,236.2-105.2c159,0.7,341.8,138.8,341.8,341.8C779.6,611.6,626.7,769.3,437.8,768.1"/>
			<path style="clip-path:url(#SVGID_00000080179665753843749730000002328744253386582924_);fill:#60A700;" d="M222,729.7
				c-3.7,15.4-7.5,30.8-11.2,46.2c-14.9-11.4-29.9-22.8-44.8-34.2c-3.7-15.1-10.3-39.9-20.2-70.1c-31.6-96.8-55.5-119.8-67.2-189.7
				c-3.9-23.2-8.9-59,0.2-103.4c13.4-65.6,50.1-110.3,71.2-132.2c-11,14.6-24.3,35.2-35.1,61.9c-12.1,29.9-16.7,56.8-18.6,76.3
				c-5.9-2-11.7-4-17.6-5.9c5.3,12.8,10.7,25.6,16,38.4c-0.5,19.2,0.7,40.6,4.6,63.4c17,97.3,75.2,162.9,107.9,194.2
				C212.2,693,217.1,711.3,222,729.7"/>
			<path style="clip-path:url(#SVGID_00000080179665753843749730000002328744253386582924_);fill:#60A700;" d="M700.3,115.4
				c-7.5-7.2-15-14.4-22.4-21.7c-8.9,2.6-22.5,5.7-39.2,6.2c-36.5,1.2-61.7-10.9-82.5-18.6c0,0-64.3-23.7-132-18.6
				c-25.6,1.9-67.5,9.9-116.8,43.3c29.1-12,109.5-40.7,205.7-15.5c53.4,14,92.1,39.5,115.2,57.7c7.8-0.1,18.3-1.1,30.1-5.1
				C680,136,693.7,122.8,700.3,115.4"/>
			<path style="clip-path:url(#SVGID_00000080179665753843749730000002328744253386582924_);fill:#F3576C;" d="M628.3,148.4
				c10.2-0.6,24.7-2.5,41-8.7c17.6-6.6,30.5-15.6,38.8-22.3c21.1,17.7,48.3,44.2,73.4,81.5c26.4,39.2,41.1,76.2,49.5,103.1
				c-8.9-4.3-23.5-10.1-42.4-11.6c-16.4-1.3-29.9,1.1-38.8,3.4c-10.4-24.4-28.4-58.4-59.2-92.2C668.7,177.6,646.5,160.4,628.3,148.4
				"/>
			<path style="clip-path:url(#SVGID_00000080179665753843749730000002328744253386582924_);fill:#F3576C;" d="M393.6,764.9
				c1,10.2,3.3,23.6,8.7,38.5c6,16.4,13.6,29.1,20,37.9c-29.7-0.5-71.5-4.5-118.7-20.3c-39.4-13.1-70.5-30.4-92.8-45.1
				c4.3-8.7,11-24.9,11.2-46.2c0.3-26.8-9.6-46.5-14.7-55.1c18.5,17.5,47.3,41,87.3,60.2C333.5,753.4,368.7,761.3,393.6,764.9"/>
			<path style="clip-path:url(#SVGID_00000080179665753843749730000002328744253386582924_);fill:#F3576C;" d="M788.5,290.4
				c18.9,1.5,33.6,7.3,42.4,11.6c11.1,34.2,25.7,93.4,18.5,166c-13.1,132.6-93.9,260.5-218.1,326.3c-81,43-159.7,48.5-209.1,46.9
				c-6.3-8.9-14-21.5-20-37.9c-5.4-14.9-7.7-28.2-8.7-38.5c19.3,2.9,46.8,5.2,79.1,1.4c125.9-14.9,252.5-114,290.8-252
				c27.3-98.3,0.5-183.4-13.8-220.4C758.7,291.5,772.2,289.1,788.5,290.4"/>
			<path style="clip-path:url(#SVGID_00000080179665753843749730000002328744253386582924_);fill:#79001A;" d="M423.2,843.5
				c-33.3-0.4-82.4-5.3-136.8-27c-30.9-12.3-56.1-27.1-75.6-40.6c4.2-8,10-21.5,11.4-39.1c2-25.1-6-44.5-10.3-53.3
				c7.4,6.3,14.9,12.6,22.3,18.9c3.3,6.7,8.8,20.1,8.6,37.8c-0.2,15.5-4.8,27.5-7.9,34c33.2,19.5,97.7,51.3,183.2,54.6
				c181,7.1,297.2-119.2,310.4-134c11-12.4,105.2-121.6,100.9-279.4c-1.1-41.1-8.6-74.9-15.3-98c-4.8-2.8-14.2-7.3-26.8-8.2
				c-12.7-1-22.7,2.1-27.8,4.1l-9.6-19.5c6.3-2.2,15.2-4.6,26.1-5.2c11.4-0.7,20.9,0.8,27.6,2.3c-7.9-22.6-21.3-53-44.1-84.8
				c-20.6-28.7-42.4-49.6-59.8-63.9c-2.5,4.4-8.5,13.7-20.1,20.5c-9.4,5.5-18.3,6.9-23.2,7.3c-9.3-7.2-18.6-14.4-27.8-21.7
				c9.6-0.3,24.4-2,41-8.7c15.2-6.1,26.3-14.2,33.3-20.2c25.1,19.8,59.9,52.4,88.7,101c18.5,31.2,27.7,57.8,34,76.3
				c10.9,31.7,22.7,77,26,133.5c-1.9,41.9-11.8,131.3-71.3,222.3c-18.1,27.7-76.9,114.9-192,161.6
				C520.1,841.6,459.4,844.6,423.2,843.5"/>
			<path style="clip-path:url(#SVGID_00000080179665753843749730000002328744253386582924_);fill:#D05824;" d="M311.2,205.4
				c25.8,32.5,53.3,78.3,67.7,137.1c8.7,35.4,11.9,72,9.4,108.7c-9.7-3.2-19.6-5-29.7-5.6c-2.2-0.1-4.4-0.2-6.8-0.2
				c-5.7,0-11.3,0.3-15.8,0.9c-3.5-3.1-7.1-6-10.9-8.6c-4.3-3-8.8-5.8-13.5-8.2c8.6-41.3,12.4-83.6,11.3-125.8
				C321.9,270.8,318,237.8,311.2,205.4 M357.2,470.8c7,1.3,14.8,3,23.1,5.3c15.2,4.2,43.6,12,69,31.2c17,12.9,31.3,30.1,42.1,50.4
				c-16.1-6.4-32.7-11.4-49.7-14.9c-17.5-3.6-35.4-5.7-53.3-6.2c-5.8-20.6-14.5-39.9-25.8-57.3C361.2,476.7,359.3,473.9,357.2,470.8
				 M295.8,175.7c9,32.7,17.7,76.4,19.1,128.4c1.4,52.3-5.1,96.7-12.4,129.9c4.6,2.1,11,5.4,18,10.3c4.9,3.4,9.2,7,12.9,10.6
				c4.3-0.9,11.3-1.4,18.3-1.4c2.1,0,4.3,0.1,6.4,0.2c16.1,0.8,28.9,5.2,37.1,8.8c2.9-30,3.3-72.7-8.8-121.7
				C366.1,257.5,320.8,202.2,295.8,175.7 M333.5,454.9c-2.6,0.5-4.2,1.2-4.3,2c-0.1,1.1,3.3,1.9,9,2.8
				C336.8,458.1,335.2,456.5,333.5,454.9 M338.3,459.7c7.8,8.3,13.2,16.7,17.9,23.8c8.1,12.6,19.2,32.9,26.3,60.8
				c16.2,0.1,35.8,1.6,57.7,6.2c27.5,5.7,50.1,14.6,67,22.7C491,532,466.4,510.3,454.1,501c-26.6-20.1-55.9-28.2-71.7-32.5
				C363.9,463.5,347.8,461.3,338.3,459.7"/>
			<path style="clip-path:url(#SVGID_00000080179665753843749730000002328744253386582924_);fill:#D05824;" d="M118.2,416.9
				c34.4,17.4,70.2,32,106.6,43.5c17.4,5.5,35.3,10.3,53.1,14.5c2,4.2,4.2,8.4,6.6,12.5l-0.1,2.9c-0.2,4.3-0.4,8.7-0.5,13
				c-0.6,17.2-0.8,34.7-0.7,52c-13.3-5.7-26.3-12.1-38.9-19.3c-24.1-13.8-46.6-30.2-67-49C154.6,466,134.9,442.6,118.2,416.9
				 M314.9,525.6c12.9,12.2,27.8,22.6,44.3,30.7c-2.1,18.5-3.3,37.3-3.7,55.8c-0.4,21.8,0.3,43.8,2.2,65.6
				c-11.6-12.8-20.8-27.1-27.2-42c-12.2-28.5-13.8-57.7-14-61c-0.2-3.5-0.2-7.6-0.3-12.2C316.1,553.6,315.9,541.7,314.9,525.6
				 M88.1,387.6c13.9,27.5,38.9,68.5,81.5,107.7c47.1,43.5,95.2,65.6,125.3,76.8c-0.4-22.3-0.3-45.1,0.5-68.6
				c0.1-4.3,0.3-8.6,0.5-12.9c1.9,3.4,3.8,6.9,5.7,10.3c0.4,4.3,1,10.7,1.5,18.6c2,28.4,1.5,44.1,2.1,55.7c0.1,3.3,1.8,34.3,14.9,65
				c6.3,14.6,20.5,41.7,52.6,67c-3.8-27.5-6.3-59.4-5.6-94.9c0.5-22.7,2.2-43.7,4.6-62.9c-17.2-7.7-46-23.5-68.5-54.7
				c-7.6-10.5-13.1-20.7-17.1-29.9c-18.4-4.1-37.7-9.2-57.7-15.5C173,432.1,126.2,409.7,88.1,387.6"/>
			<path style="clip-path:url(#SVGID_00000080179665753843749730000002328744253386582924_);fill:#BF545A;" d="M275.7,426.8
				c0.6,8.3,5.1,61.4,49.4,92.6c20.1,14.2,40.5,18.4,52.7,19.8c-6-7.7-15.6-18.9-29.2-30.6c-19.1-16.4-29.5-19.6-42.6-32
				C296.2,467.4,284,452.3,275.7,426.8"/>
			
				<path style="clip-path:url(#SVGID_00000080179665753843749730000002328744253386582924_);fill:none;stroke:#000000;stroke-width:10;stroke-miterlimit:10;" d="
				M245,198.3c14.3,29.5,30.6,71,39.8,122.5c7.6,42.9,8.1,80.5,6.4,109.8"/>
			
				<path style="clip-path:url(#SVGID_00000080179665753843749730000002328744253386582924_);fill:none;stroke:#000000;stroke-width:10;stroke-miterlimit:10;" d="
				M114.5,346.2c18.4,19.7,45.6,44.5,82.7,66.8c32.2,19.3,62.3,31,85.9,38.2"/>
			
				<path style="clip-path:url(#SVGID_00000080179665753843749730000002328744253386582924_);fill:none;stroke:#000000;stroke-width:16;stroke-miterlimit:10;" d="
				M275.7,426.8c1.4,13.3,5.9,39.4,24.3,65.6c26.7,38.1,64.8,50.6,76.8,54c-1.4-12.5-7.7-54.5-43.3-87.6
				C311.9,438.7,288.8,430.4,275.7,426.8z"/>
		</g>
		<g style="clip-path:url(#SVGID_00000151521296825625059040000013477256964839745673_);">
			<defs>
				<rect id="SVGID_00000068649579708322677720000013124060475329878719_" x="-36.6" y="-51.2" width="2512.8" height="969.4"/>
			</defs>
			<clipPath id="SVGID_00000074412558251095275840000000670334547462716806_">
				<use xlink:href="#SVGID_00000068649579708322677720000013124060475329878719_"  style="overflow:visible;"/>
			</clipPath>
			
				<path style="clip-path:url(#SVGID_00000074412558251095275840000000670334547462716806_);fill:none;stroke:#000000;stroke-width:17;stroke-miterlimit:10;" d="
				M433.4,17.1C205,17.1,19.9,202.2,19.9,430.6S205,844,433.4,844c228.3,0,413.5-185.1,413.5-413.5S661.7,17.1,433.4,17.1z
				 M433.4,768.3C245.7,767.1,92,609.6,95.7,420.4c-9.3-16.7-18.5-33.4-27.8-50.1c10.4,4.8,20.8,9.6,31.2,14.4
				c5.3-32.7,23.9-119.6,98-194.9C212.2,174.5,304,84.1,433.4,84.7c159,0.7,341.8,138.8,341.8,341.8
				C775.2,611.9,622.3,769.5,433.4,768.3z"/>
			
				<path style="clip-path:url(#SVGID_00000074412558251095275840000000670334547462716806_);fill:none;stroke:#000000;stroke-width:17;stroke-miterlimit:10;" d="
				M631.6,153.3c9.2-2.5,20.1-6.3,31.9-12.1c15.6-7.8,27.7-16.7,36.5-24.2c21.2,16.7,48.9,42.2,74.5,78.6
				c28.5,40.4,43.6,79,51.9,106.2c-6.6-4.4-21-12.7-41-14.3c-16.8-1.4-30.1,2.5-37.4,5.2c-12.2-25.2-31.5-57.6-61.3-90.1
				C667.6,181.7,648.4,165.6,631.6,153.3z"/>
			
				<path style="clip-path:url(#SVGID_00000074412558251095275840000000670334547462716806_);fill:none;stroke:#000000;stroke-width:17;stroke-miterlimit:10;" d="
				M394.2,764.9c1,10.2,3.3,23.6,8.7,38.5c6,16.4,13.6,29.1,20,37.9c-29.7-0.5-71.5-4.5-118.7-20.3c-39.4-13.1-70.5-30.4-92.8-45.1
				c4.1-7.8,11.4-24.3,11.2-46.2c-0.3-24.7-9.9-42.6-14.6-50.2c18.5,17.1,47.7,40.2,88.4,58.4C335,755.4,369.9,762.1,394.2,764.9z"
				/>
			
				<path style="clip-path:url(#SVGID_00000074412558251095275840000000670334547462716806_);fill:none;stroke:#000000;stroke-width:17;stroke-miterlimit:10;" d="
				M783.6,286.2c21.7,1.2,36.9,11.3,42.8,15.7c11.5,32.6,27,89.6,21.3,160.8c-1.2,14.3-6,64.3-31.4,124.1
				c-13.8,32.4-61.1,139.6-181,206c-85.5,47.4-167.1,51.5-208.3,50.5c-6.6-9.5-14.1-22-20.6-37.6c-6.4-15.4-10.1-29.5-12.2-40.8
				c26.5,3.6,65.7,5.9,110.8-3.9c116.1-25,222.5-118.5,257.6-243.4c28.9-103-1-191.1-14.6-224.9
				C754.7,289.8,767.4,285.3,783.6,286.2z"/>
		</g>
		<g style="clip-path:url(#SVGID_00000151521296825625059040000013477256964839745673_);">
			<text transform="matrix(1 0 0 1 1898.3663 219.036)" class="st17 st18"> </text>
		</g>
	</g>
</g>
<g id="Infomatics_letters" class="st19">
</g>
<g id="REDESIGNED">
	<g>
		<path class="st20" d="M1033,313.8c-21.3-14.1-37.1-32.3-47.2-54.6c-10.1-22.3-15.2-45.8-15.2-70.6c0-23.7,5.3-46.8,15.8-69.2
			c10.5-22.4,26.3-40.9,47.2-55.4c20.9-14.5,46.3-21.8,76.2-21.8c30.7,0,56.7,7.3,78.2,21.8c21.5,14.5,37.5,33,48.2,55.4
			c10.7,22.4,16,45.5,16,69.2c0,23.5-5.3,46.5-15.8,69c-10.5,22.5-26.3,41.1-47.2,55.6c-20.9,14.5-46.3,21.8-76.2,21.8
			C1081,335,1054.3,328,1033,313.8z M1167.2,300.8c14.8-11.9,26-27.1,33.6-45.8c7.6-18.7,11.4-38.3,11.4-58.8
			c0-22.7-4.1-44.6-12.4-65.8c-8.3-21.2-20.3-38.5-36-52c-15.7-13.5-34.1-20.2-55.2-20.2c-20.8,0-38.7,5.9-53.6,17.8
			c-14.9,11.9-26.2,27.3-33.8,46.2c-7.6,18.9-11.4,38.7-11.4,59.2c0,21.1,3.9,42.2,11.6,63.4c7.7,21.2,19.5,38.8,35.2,52.8
			c15.7,14,34.8,21,57.2,21C1134.6,318.6,1152.4,312.7,1167.2,300.8z"/>
		<path class="st20" d="M1308.9,315.4c-10-13.1-15-35.6-15-67.6v-71.2c0-11.2,0.5-19.9,1.5-26l-26.2,1.2v-16.4h11.8
			c9.9,0,17.3-0.9,22.4-2.8c5.1-1.9,9.4-4.5,12.9-8h11v122c0,23.5,3.1,40.7,9.3,51.6c6.2,10.9,16.5,16.4,31,16.4
			c9.4,0,18.6-2.9,27.6-8.8c9-5.9,16.3-13.2,21.8-22V181c0-12.5,0.6-22.7,1.9-30.4l-27.4,1.2v-16.4h11.8c9.9,0,17.3-0.9,22.4-2.8
			c5.1-1.9,9.4-4.5,12.9-8h11l-0.4,151.2c0,15.5-0.5,28-1.5,37.6l27.4-1.6v16.8h-54.3c-1.3-8.3-2.2-16.3-2.7-24
			c-8.4,8.8-18.1,16.1-29.3,21.8c-11.2,5.7-22,8.6-32.7,8.6C1334.7,335,1318.9,328.5,1308.9,315.4z"/>
		<path class="st20" d="M1493.3,316.6c7.1,0,12.2-1.9,15.3-5.8c3.1-3.9,4.9-8.8,5.5-14.8c0.6-6,0.9-15.4,0.9-28.2v-91.2
			c0-11.2,0.5-19.9,1.5-26l-26.1,1.2v-16.4h11.4c9.3,0,16.1-0.9,20.2-2.6c4.2-1.7,8.1-4.5,11.8-8.2h10.7c1,10.4,1.6,23.6,1.8,39.6
			c6.1-10.9,14.9-20.7,26.3-29.2c11.4-8.5,23.2-12.8,35.5-12.8c7.4,0,13.5,2.1,18.4,6.4c4.9,4.3,7.4,10.5,7.4,18.8
			c0,4.3-1.5,8.5-4.6,12.8c-3.1,4.3-7.4,6.4-13.1,6.4c-5.4,0-9.8-2.2-13.2-6.6c-3.4-4.4-4.8-9.7-4-15.8c-9.3-0.3-18.7,3.6-28.2,11.6
			c-9.4,8-17.5,18.7-24.1,32l0.4,98.4c0,12-0.5,21.1-1.5,27.2l23.2-1.2v16.4h-75.4V316.6z"/>
		<path class="st20" d="M1790.5,329.8c-12.3-3.5-23.1-8.5-32.4-15.2l1.9,17.2h-20.2l-2.3-85.2h15.1c1.3,22.9,8.9,40.6,22.9,53
			c14,12.4,31.7,18.6,53.2,18.6c15.8,0,29-4.5,39.8-13.4c10.7-8.9,16.1-21.1,16.1-36.6c0-11.5-3-21.3-9.1-29.4
			c-6.1-8.1-13.6-14.9-22.5-20.4c-8.9-5.5-21-11.8-36.3-19c-17.3-8.5-31.1-16-41.3-22.4c-10.2-6.4-19-14.9-26.2-25.4
			c-7.2-10.5-10.9-23.5-10.9-39c0-10.7,2.4-21.3,7.2-32c4.8-10.7,13.1-19.7,24.8-27.2c11.8-7.5,27.4-11.2,46.8-11.2
			c11.6,0,23.3,1.5,35.1,4.6c11.8,3.1,22.6,8.3,32.4,15.8l-1.6-17.2h19.8v88h-14c-1.3-21.1-7.8-38.9-19.6-53.4
			c-11.8-14.5-28.3-21.8-49.5-21.8c-15.5,0-27.7,4.5-36.5,13.4c-8.8,8.9-13.2,20.1-13.2,33.4c0,10.7,3,19.9,8.9,27.6
			c5.9,7.7,13.2,14.1,21.7,19.2c8.5,5.1,20.6,11.3,36.1,18.8c17.6,8.3,31.7,15.7,42.5,22.4c10.7,6.7,19.8,15.4,27.4,26.2
			c7.5,10.8,11.3,24.1,11.3,39.8c0,14.9-3.6,28.1-10.7,39.6c-7.1,11.5-17.5,20.4-31.2,26.8c-13.7,6.4-30,9.6-48.9,9.6
			C1815.1,335,1802.8,333.3,1790.5,329.8z"/>
		<path class="st20" d="M1953,321.8c-9.2-8.8-13.9-20.3-13.9-34.4c0-15.5,5.6-28.5,16.7-39.2c11.2-10.7,25.2-18.6,42.1-23.8
			c16.9-5.2,33.9-7.7,50.9-7.4v-24.8c0-17.3-2.3-30.9-6.8-40.6c-4.6-9.7-14.3-14.6-29.2-14.6c-7.4,0-14.5,1.7-21.2,5.2
			c-6.7,3.5-11.6,8.7-14.8,15.6c3.1,3.7,4.7,8.8,4.7,15.2c0,4-1.3,7.8-4,11.4c-2.6,3.6-6.5,5.4-11.5,5.4s-9-1.8-11.9-5.4
			c-2.9-3.6-4.3-8.3-4.3-14.2c0-8.8,3.1-16.9,9.2-24.2c6.1-7.3,14.6-13.1,25.6-17.4c10.9-4.3,23.1-6.4,36.5-6.4
			c20.2,0,35,5.9,44.6,17.8c9.6,11.9,14.3,30.6,14,56.2l-0.4,90c0,8.5-0.5,17.6-1.4,27.2l25.6-1.6v16.8h-51.5
			c-0.7-4-1.6-11.6-2.5-22.8c-17.5,19.5-36.4,29.2-56.5,29.2C1975.6,335,1962.3,330.6,1953,321.8z M2026.3,306.4
			c7.4-3.9,15-9.8,22.7-17.8c-0.2-4-0.4-10.8-0.4-20.4l0.4-37.6c-19.7,0.8-37.2,5.3-52.6,13.4c-15.4,8.1-23,20.6-23,37.4
			c0,9.9,2.6,17.5,7.9,22.8c5.3,5.3,12,8,20.2,8C2010.6,312.2,2018.8,310.3,2026.3,306.4z"/>
		<path class="st20" d="M2132.3,199.4c-9.6-24.5-14.6-43.1-15.1-55.6l-15.5,1.2v-16.4h66.2v12c-10.6,0-15.8,4.9-15.8,14.8
			c0,7.2,2.5,17.1,7.6,29.6l27.7,70.4c3.1,8.3,6.7,18.1,10.8,29.6h0.4c0.7-2.7,1.7-5.6,2.9-8.8l5.4-17.2l28.8-87.6
			c2.4-7.7,6-16.9,10.8-27.6l-23,1.2v-16.4h56.9v12c-5,0-9.4,1.9-13,5.8c-3.6,3.9-6.9,9.3-9.9,16.2c-3,6.9-7,17.6-12.1,32
			l-47.2,135.2h-14.4L2132.3,199.4z"/>
		<path class="st20" d="M2300.8,316.6c7,0,11.9-1.9,14.9-5.8c3-3.9,4.8-8.8,5.4-14.8c0.6-6,0.9-15.4,0.9-28.2v-91.2
			c0-7.7,0.5-16.4,1.4-26l-25.6,1.6v-16.8c14.2,0,24.3-0.9,30.4-2.8c6.1-1.9,10.9-4.5,14.2-8h10.4v161.6c0,12-0.5,21.1-1.4,27.2
			l22.7-1.2v16.4h-73.4V316.6z M2323.1,78c-3.8-4.7-5.8-10.2-5.8-16.6c0-6.4,2-12,5.9-16.8s8.5-7.2,13.5-7.2c5.5,0,10.1,2.3,13.9,7
			c3.7,4.7,5.6,10.3,5.6,17c0,6.4-2,11.9-5.9,16.6c-4,4.7-8.6,7-13.9,7C2331.4,85,2327,82.7,2323.1,78z"/>
		<path class="st20" d="M2434.7,322c-13.8-8.7-24.7-20.7-32.8-36.2c-8-15.5-12.1-32.9-12.1-52.4c0-20.8,4-39.7,11.9-56.6
			c7.9-16.9,18.8-30.3,32.6-40c13.8-9.7,29.1-14.6,45.9-14.6c16.6,0,31.8,4.5,45.7,13.4c13.9,8.9,24.9,21.1,32.9,36.6
			c8,15.5,12.1,32.7,12.1,51.6c0,20.3-4,38.9-12.1,56c-8,17.1-19,30.5-32.8,40.4c-13.8,9.9-29.1,14.8-45.9,14.8
			C2463.7,335,2448.5,330.7,2434.7,322z M2521.8,295c8.3-16,12.4-35.9,12.4-59.6c0-26.9-4.5-50-13.5-69.2
			c-9-19.2-22.5-28.8-40.5-28.8c-17.8,0-31.1,8.1-40.1,24.4c-9,16.3-13.5,36.3-13.5,60c0,17.1,2.1,33,6.3,47.8
			c4.2,14.8,10.6,26.7,19.1,35.8c8.5,9.1,18.9,13.6,31.1,13.6C2500.7,319,2513.6,311,2521.8,295z"/>
		<path class="st20" d="M2587.5,316.6c7,0,11.9-1.9,14.9-5.8c3-3.9,4.8-8.8,5.4-14.8c0.6-6,0.9-15.4,0.9-28.2v-91.2
			c0-11.2,0.5-19.9,1.4-26l-25.6,1.2v-16.4h11.2c9.1,0,15.7-0.9,19.8-2.6c4.1-1.7,7.9-4.5,11.5-8.2h10.4c1,10.4,1.6,23.6,1.8,39.6
			c6-10.9,14.6-20.7,25.7-29.2c11.2-8.5,22.7-12.8,34.7-12.8c7.2,0,13.2,2.1,18,6.4c4.8,4.3,7.2,10.5,7.2,18.8
			c0,4.3-1.5,8.5-4.5,12.8c-3,4.3-7.3,6.4-12.8,6.4c-5.3,0-9.6-2.2-13-6.6c-3.4-4.4-4.7-9.7-4-15.8c-9.1-0.3-18.3,3.6-27.5,11.6
			c-9.2,8-17.1,18.7-23.6,32l0.4,98.4c0,12-0.5,21.1-1.4,27.2l22.7-1.2v16.4h-73.8V316.6z"/>
		<path class="st20" d="M2744.1,138.6c3.9-5.6,7.5-13.4,10.9-23.6c3.4-10.1,5.1-20.1,5.1-30c0-3-0.1-5.3-0.3-6.8
			c-3,1.5-5.8,2.3-8.5,2.3c-4.6,0-8.3-1.8-11.3-5.3c-3-3.5-4.4-8-4.4-13.3c0-6.8,1.8-12.2,5.5-16.2c3.6-3.9,8.1-5.9,13.3-5.9
			c7.5,0,13.5,3.2,17.8,9.7c4.3,6.5,6.5,14.8,6.5,24.9c0,10.4-2.5,22.9-7.4,37.6c-4.9,14.7-10.9,26.1-18,34.2L2744.1,138.6z"/>
		<path class="st20" d="M2826.4,330c-9.4-3.3-17.4-7.5-24.1-12.6l1.4,14h-15.1l-2.2-68.8h11.2c0.5,10.9,3.2,20.7,8.1,29.2
			c4.9,8.5,11.4,15.3,19.4,20.2c8,4.9,16.6,7.4,25.7,7.4c10.3,0,19.5-2.7,27.5-8.2c8-5.5,12.1-13.3,12.1-23.4c0-7.5-2-13.7-5.9-18.8
			c-4-5.1-8.9-9.3-14.8-12.6c-5.9-3.3-14.1-7.3-24.7-11.8c-12.7-5.3-22.9-10.3-30.6-15c-7.7-4.7-14.3-11-19.8-19
			c-5.5-8-8.3-18.1-8.3-30.4c0-8.8,1.9-17.6,5.8-26.4c3.8-8.8,10.3-16.3,19.4-22.4c9.1-6.1,21.2-9.2,36.4-9.2c7.4,0,15.1,1.3,22.9,4
			c7.8,2.7,15.1,7.1,21.8,13.2l-0.7-15.2h15.1v70h-11.5c-0.7-15.5-5-28.9-12.8-40.2c-7.8-11.3-18.8-17-32.9-17
			c-10.8,0-19.4,3-25.7,9c-6.4,6-9.5,13.1-9.5,21.4c0,7.7,2.1,14.3,6.3,19.6c4.2,5.3,9.4,9.9,15.7,13.6c6.2,3.7,14.6,7.9,25.2,12.4
			c12.5,5.6,22.6,10.8,30.2,15.6c7.7,4.8,14.2,11.1,19.6,19c5.4,7.9,8.1,17.4,8.1,28.6c0,12.8-2.9,23.6-8.8,32.4
			c-5.9,8.8-13.6,15.4-23,19.8c-9.5,4.4-19.6,6.6-30.4,6.6C2846.1,335,2835.8,333.3,2826.4,330z"/>
		<path class="st21" d="M1088.7,466.6h15.7v108.8h52.1v13.2h-67.9V466.6z"/>
		<path class="st21" d="M1202.4,466.6v72.2c0,27.3,12.1,38.9,28.4,38.9c18.1,0,29.7-11.9,29.7-38.9v-72.2h15.9v71.1
			c0,37.5-19.7,52.9-46.2,52.9c-25,0-43.8-14.3-43.8-52.1v-71.9H1202.4z"/>
		<path class="st21" d="M1345.9,480h-37.1v-13.4h90.3V480h-37.3v108.6h-15.9V480z"/>
		<path class="st21" d="M1447.5,466.6v51h59v-51h15.9v122h-15.9v-57.2h-59v57.2h-15.7v-122H1447.5z"/>
		<path class="st21" d="M1631.9,531.4h-47.4v44h52.9v13.2h-68.6v-122h65.9v13.2h-50.1v38.6h47.4V531.4z"/>
		<path class="st21" d="M1676.8,468.3c8-1.6,19.4-2.5,30.2-2.5c16.8,0,27.7,3.1,35.3,10c6.2,5.4,9.6,13.8,9.6,23.2
			c0,16.1-10.1,26.8-23,31.1v0.5c9.4,3.3,15,11.9,17.9,24.6c4,17,6.9,28.8,9.4,33.5H1740c-2-3.4-4.7-13.9-8.1-29.1
			c-3.6-16.8-10.1-23.2-24.4-23.7h-14.8v52.9h-15.7V468.3z M1692.5,523.8h16.1c16.8,0,27.5-9.2,27.5-23.2
			c0-15.7-11.4-22.6-28.1-22.8c-7.6,0-13,0.7-15.6,1.4V523.8z"/>
		<path class="st21" d="M1813.8,550.2l-12.7,38.4h-16.3l41.4-122h19l41.6,122h-16.8l-13-38.4H1813.8z M1853.8,537.9l-11.9-35.1
			c-2.7-8-4.5-15.2-6.3-22.3h-0.4c-1.8,7.2-3.8,14.7-6.2,22.1l-11.9,35.3H1853.8z"/>
		<path class="st21" d="M1923.9,588.6v-122h17.2l39.1,61.7c9,14.3,16.1,27.1,21.9,39.6l0.4-0.2c-1.4-16.3-1.8-31.1-1.8-50.1v-51
			h14.8v122h-15.9l-38.7-61.9c-8.5-13.6-16.7-27.5-22.8-40.7l-0.5,0.2c0.9,15.4,1.3,30,1.3,50.3v52.1H1923.9z"/>
		<path class="st21" d="M2204.6,584.6c-5.8,2.9-17.4,5.8-32.2,5.8c-34.4,0-60.3-21.7-60.3-61.7c0-38.2,25.9-64.1,63.7-64.1
			c15.2,0,24.8,3.3,29,5.4l-3.8,12.9c-6-2.9-14.5-5.1-24.6-5.1c-28.6,0-47.6,18.3-47.6,50.3c0,29.9,17.2,49.1,46.9,49.1
			c9.6,0,19.4-2,25.7-5.1L2204.6,584.6z"/>
		<path class="st21" d="M2259.1,466.6v51h59v-51h15.9v122h-15.9v-57.2h-59v57.2h-15.7v-122H2259.1z"/>
		<path class="st21" d="M2396.1,466.6v72.2c0,27.3,12.1,38.9,28.4,38.9c18.1,0,29.7-11.9,29.7-38.9v-72.2h15.9v71.1
			c0,37.5-19.7,52.9-46.2,52.9c-25,0-43.8-14.3-43.8-52.1v-71.9H2396.1z"/>
		<path class="st21" d="M2516.4,468.3c8-1.6,19.4-2.5,30.2-2.5c16.8,0,27.7,3.1,35.3,10c6.2,5.4,9.6,13.8,9.6,23.2
			c0,16.1-10.1,26.8-23,31.1v0.5c9.4,3.3,15,11.9,17.9,24.6c4,17,6.9,28.8,9.4,33.5h-16.3c-2-3.4-4.7-13.9-8.1-29.1
			c-3.6-16.8-10.1-23.2-24.4-23.7h-14.8v52.9h-15.7V468.3z M2532.2,523.8h16.1c16.8,0,27.5-9.2,27.5-23.2
			c0-15.7-11.4-22.6-28.1-22.8c-7.6,0-13,0.7-15.6,1.4V523.8z"/>
		<path class="st21" d="M2718.6,584.6c-5.8,2.9-17.4,5.8-32.2,5.8c-34.4,0-60.3-21.7-60.3-61.7c0-38.2,25.9-64.1,63.7-64.1
			c15.2,0,24.8,3.3,29,5.4l-3.8,12.9c-6-2.9-14.5-5.1-24.6-5.1c-28.6,0-47.6,18.3-47.6,50.3c0,29.9,17.2,49.1,46.9,49.1
			c9.6,0,19.4-2,25.7-5.1L2718.6,584.6z"/>
		<path class="st21" d="M2773.1,466.6v51h59v-51h15.9v122h-15.9v-57.2h-59v57.2h-15.7v-122H2773.1z"/>
		<path class="st20" d="M1755.5,833.4c3.7-0.1,6.4-1,8-2.5s2.5-3.5,2.7-5.6c0.2-2.2,0.3-6,0.3-11.4v-68.7c0-4.5,0.2-8.3,0.5-11.4
			l-11.4,0.6v-7h76.5l0.8,27.8h-5.2c0-8.7-1.9-14.6-5.6-17.8c-3.8-3.2-9-4.7-15.8-4.5l-13.7,0.3c-3.8,0.1-6.6,0.8-8.3,2.1
			c-1.7,1.3-2.8,3.2-3.2,5.6c-0.4,2.4-0.6,6.1-0.6,11.2v25.4l29.9,0.2l-1.1-13.7h7v33.4h-5.2c0-3.9-0.5-6.9-1.4-9
			c-1-2.1-2.4-3.4-4.4-4.1c-2-0.7-4.7-1-8.2-1l-4.9,0.2l-11.6,0.5v36.4c0,5.5-0.2,9.6-0.5,12.4l30.4-0.5c7.4-0.1,13.1-2,17-5.6
			c3.9-3.7,5.9-10,5.9-19h5.4l-1,31h-82V833.4z"/>
		<path class="st20" d="M1869.9,833.4c3.7-0.1,6.4-1,8-2.5s2.5-3.5,2.7-5.6c0.2-2.2,0.3-6,0.3-11.4v-68.7c0-4.5,0.2-8.3,0.5-11.4
			l-11.4,0.6v-7h35.8v5.2c-3.7,0.1-6.4,1-7.9,2.5s-2.5,3.5-2.7,5.6c-0.2,2.2-0.3,6-0.3,11.4v68.2c0,5.5-0.2,9.6-0.5,12.4l29.7-0.5
			c6.8-0.1,11.9-2.3,15.3-6.4c3.4-4.2,5.1-10.9,5.1-20.1h5.4l-1,32.9h-78.9V833.4z"/>
		<path class="st20" d="M1998.7,833.7c-8.2-5-14.6-11.8-19.2-20.4s-6.9-18.1-6.9-28.6c0-10.4,2.1-20.1,6.3-29.3
			c4.2-9.1,10.4-16.5,18.8-22.2c8.3-5.7,18.4-8.5,30.1-8.5c11.7,0,22.4,3.2,32.1,9.7l-0.8-8.6h8.6v36.9h-5.7
			c-1.1-9.9-4.5-17.6-10.4-23.1c-5.9-5.6-13.4-8.3-22.7-8.3c-7.5,0-14.4,2.1-20.6,6.3c-6.2,4.2-11.1,10.2-14.7,17.9
			c-3.6,7.7-5.4,16.7-5.4,26.9c0,9.8,1.9,18.5,5.7,26.2c3.8,7.7,9,13.7,15.4,18c6.5,4.3,13.6,6.4,21.5,6.4c7.1,0,13.9-1.6,20.5-4.8
			c6.6-3.2,12-7.7,16.2-13.5l4.1,3.3c-6.1,8.6-13.2,14.6-21.1,18c-7.9,3.4-15.9,5.2-23.8,5.2
			C2016.3,841.2,2006.9,838.7,1998.7,833.7z"/>
		<path class="st20" d="M2089.3,833.4c2.6,0,4.8-0.6,6.4-1.8c1.6-1.2,2.9-2.8,3.9-4.8c1-2,2.2-4.9,3.6-8.8l1.6-4.5l32.8-89.2h3.8
			l35.5,90.5c1.2,2.9,2.2,6,3,9.3c0.8,3.3,1.2,6.1,1.1,8.2l10.8-0.6v7h-36.4v-5.2c6.3-0.1,9.4-2.6,9.4-7.6c0-2-0.5-4.5-1.6-7.5
			l-5.6-14.9l-41.3,1c-1.6,4.3-3.4,10-5.6,17c-1.1,3.5-2.4,7.2-4,11l12.4-0.6v7h-29.7V833.4z M2155.3,797.4l-11.3-30.4l-7.2-19.6
			h-0.3l-6.7,18l-8.6,24.2l-2.7,7.8H2155.3z"/>
	</g>
</g>
<g id="lines">
	<line class="st22" x1="1009" y1="781.3" x2="1606.6" y2="781.3"/>
	<line class="st22" x1="2329.3" y1="781.3" x2="2928.6" y2="781.3"/>
</g>
</svg>
