<svg xmlns="http://www.w3.org/2000/svg" xmlns:xlink="http://www.w3.org/1999/xlink" width="1689.63" height="211.68" viewBox="0 0 1689.63 211.68"><defs><linearGradient id="a" y1="1108.25" x2="844.87" y2="1108.25" gradientTransform="translate(0 -1004)" gradientUnits="userSpaceOnUse"><stop offset="0" stop-color="#00529a"/><stop offset="1" stop-color="#0064af"/></linearGradient><linearGradient id="b" x1="1857.54" y1="724.49" x2="1857.54" y2="724.49" gradientTransform="translate(-30844.77 -12202.99) scale(17.06)" gradientUnits="userSpaceOnUse"><stop offset="0" stop-color="#a4181e"/><stop offset="0.83" stop-color="#cc222b"/><stop offset="1" stop-color="#cc222b"/></linearGradient><linearGradient id="c" x1="840.83" y1="-1177.28" x2="840.83" y2="-1177.28" gradientTransform="matrix(1, 0, 0, -1, 4.04, -1020.54)" gradientUnits="userSpaceOnUse"><stop offset="0" stop-color="#a4181e"/><stop offset="1" stop-color="#a4181e"/></linearGradient><linearGradient id="d" x1="844.87" y1="1108.25" x2="2098.79" y2="1108.25" gradientTransform="translate(0 -1004)" gradientUnits="userSpaceOnUse"><stop offset="0" stop-color="#30438f"/><stop offset="1" stop-color="#1d2764"/></linearGradient><linearGradient id="e" x1="840.83" y1="-1230.04" x2="840.83" y2="-1230.04" xlink:href="#c"/><linearGradient id="f" x1="1857.54" y1="725.54" x2="1857.54" y2="725.54" gradientTransform="translate(-30844.77 -12168.22) scale(17.06)" xlink:href="#b"/></defs><polygon points="844.87 156.74 844.87 156.74 0 0 0 51.76 844.87 208.5 844.87 156.74" fill="url(#a)"/><path d="M844.87,156.74" fill="url(#b)"/><path d="M844.87,156.74" fill="url(#c)"/><polygon points="844.87 156.74 844.87 208.5 844.87 208.5 1689.63 51.76 1689.63 0 844.87 156.74" fill="url(#d)"/><polygon points="844.87 209.5 844.87 209.5 0 52.76 0 211.68 844.87 211.68 844.87 209.5" fill="#fff"/><path d="M844.87,209.5" fill="url(#e)"/><path d="M844.87,209.5" fill="url(#f)"/><path d="M844.87,209.5" fill="url(#e)"/><polygon points="844.87 209.5 844.87 211.68 1689.63 211.68 1689.63 52.76 844.87 209.5" fill="#fff"/></svg>