<svg xmlns="http://www.w3.org/2000/svg" xmlns:xlink="http://www.w3.org/1999/xlink" width="1689.63" height="121.5" viewBox="0 0 1689.63 121.5"><defs><linearGradient id="a" y1="1064.06" x2="844.87" y2="1064.06" gradientTransform="translate(0 -1004)" gradientUnits="userSpaceOnUse"><stop offset="0" stop-color="#00529a"/><stop offset="1" stop-color="#0064af"/></linearGradient><linearGradient id="b" x1="1857.54" y1="683.5" x2="1857.54" y2="683.5" gradientTransform="translate(-30844.77 -11592.71) scale(17.06)" gradientUnits="userSpaceOnUse"><stop offset="0" stop-color="#a4181e"/><stop offset="0.83" stop-color="#cc222b"/><stop offset="1" stop-color="#cc222b"/></linearGradient><linearGradient id="c" x1="840.83" y1="-1164.29" x2="840.83" y2="-1164.29" gradientTransform="matrix(1, 0, 0, -1, 4.04, -1096.54)" gradientUnits="userSpaceOnUse"><stop offset="0" stop-color="#a4181e"/><stop offset="1" stop-color="#a4181e"/></linearGradient><linearGradient id="d" x1="844.87" y1="1064.06" x2="2098.79" y2="1064.06" gradientTransform="translate(0 -1004)" gradientUnits="userSpaceOnUse"><stop offset="0" stop-color="#30438f"/><stop offset="1" stop-color="#1d2764"/></linearGradient><linearGradient id="e" x1="840.83" y1="-1217.1" x2="840.83" y2="-1217.1" xlink:href="#c"/><linearGradient id="f" x1="1857.54" y1="684.55" x2="1857.54" y2="684.55" gradientTransform="translate(-30844.77 -11557.94) scale(17.06)" xlink:href="#b"/></defs><polygon points="844.87 67.75 844.87 67.75 0 0 0 52.37 844.87 120.13 844.87 67.75" fill="url(#a)"/><path d="M844.87,67.75" fill="url(#b)"/><path d="M844.87,67.75" fill="url(#c)"/><polygon points="844.87 67.75 844.87 120.13 844.87 120.13 1689.63 52.37 1689.63 0 844.87 67.75" fill="url(#d)"/><polygon points="844.87 120.56 844.87 120.56 0 52.81 0 121.5 844.87 121.5 844.87 120.56" fill="#fff"/><path d="M844.87,120.56" fill="url(#e)"/><path d="M844.87,120.56" fill="url(#f)"/><path d="M844.87,120.56" fill="url(#e)"/><polygon points="844.87 120.56 844.87 121.5 1689.63 121.5 1689.63 52.81 844.87 120.56" fill="#fff"/></svg>