<?xml version="1.0" encoding="utf-8"?>
<!-- Generator: Adobe Illustrator 28.0.0, SVG Export Plug-In . SVG Version: 6.00 Build 0)  -->
<svg version="1.1" id="Layer_1" xmlns="http://www.w3.org/2000/svg" xmlns:xlink="http://www.w3.org/1999/xlink" x="0px" y="0px"
	 viewBox="0 0 237.3 97.5" style="enable-background:new 0 0 237.3 97.5;" xml:space="preserve">
<style type="text/css">
	.st0{fill:#F58220;}
</style>
<g>
	<path class="st0" d="M119.8,8.1c29.6,0,56.9,13.2,67.7,28.3l2.2,2.7l-5.3-20.8l-2,9.3c-10.9-15-34.8-25.3-62.5-25.3
		S68.2,12.6,57.3,27.6l-2-9.3l-5.3,20.8l2.2-2.7C62.9,21.2,90.2,8.1,119.8,8.1"/>
	<path d="M167.7,32.5C159,21.1,140.4,13.4,119,13.7c-21.4,0.4-39.8,8.7-48,20.4L69.3,27l-3.8,16.2l1.6-2.1
		c8.1-11.9,29.1-22.4,52-22.8c22.9-0.4,44.2,9.4,52.8,21l1.7,2C173.5,41.3,171.1,36.1,167.7,32.5"/>
	<path class="st0" d="M89.4,37c5.6-7.4,17.5-12,31.3-11.8c13.8,0.2,25.6,5.3,30.9,12.8l1.1-4.6l2.5,10.4l-1.1-1.4
		c-5.2-7.6-18.7-13.6-33.4-13.9c-14.7-0.2-28.4,5.3-33.9,12.8l-1.1,1.3C85.7,42.7,87.2,39.3,89.4,37"/>
	<rect x="82.3" y="45.1" class="st0" width="4.4" height="49"/>
	<path class="st0" d="M71.8,49.7h4.4v-4.6h-4.4V49.7z M71.8,94.1h4.4V59h-4.4V94.1z"/>
	<path class="st0" d="M41.3,88.6c0,1.3-1,2.3-2.2,2.3c-1.2,0-2.2-1-2.2-2.3v-24c0-1.3,1-2.3,2.2-2.3c1.2,0,2.2,1,2.2,2.3V88.6z
		 M39.1,58.4c-3.6,0-6.5,2.8-6.5,6.2v24c0,3.4,2.9,6.2,6.5,6.2c3.6,0,6.5-2.8,6.5-6.2v-24C45.6,61.2,42.7,58.4,39.1,58.4"/>
	<path class="st0" d="M97.4,64.6c0-1.3,1-2.3,2.2-2.3c1.2,0,2.2,1,2.2,2.3v8.8h-4.5V64.6z M101.9,82v6.6c0,1.3-1,2.3-2.2,2.3
		c-1.2,0-2.2-1.1-2.2-2.3V77.8h8.7V64.6c0-3.4-2.9-6.2-6.5-6.2c-3.6,0-6.5,2.8-6.5,6.2v24c0,3.4,2.9,6.2,6.5,6.2
		c3.6,0,6.5-2.8,6.5-6.2V82H101.9z"/>
	<path class="st0" d="M59.2,90.4c-1,0-2.2-1.3-2.9-2.2V65.6c0.2-0.5,1-2.7,3-2.7c1.5,0,1.8,1.4,1.8,2.3c0,1,0.2,21.1,0.2,22.8
		C61.2,89.6,60.6,90.4,59.2,90.4 M60.2,58.5c-1.5,0-3.1,0.9-4,2.1V45.1h-4.4v49h4.4v-2c0.8,0.9,2.4,2.4,4.8,2.4c3,0,4.3-3,4.3-5.6
		V66.6C65.4,64.2,65,58.5,60.2,58.5"/>
	<path class="st0" d="M13.8,47.8c0,0,2.1-4.2,6.9-3.5c5.8,0.8,5.5,7.4,5.5,7.4v42.4h-4.7V51.7c0,0,0.1-2.3-1.5-3.1
		c-1.6-0.8-4.1,0.7-4.1,3.1v42.4h-4.3V51.7c0-2.4-2.6-3.9-4.1-3.1c-1.6,0.8-1.5,3.1-1.5,3.1v42.4H1.4V51.7c0,0-0.3-6.6,5.5-7.4
		C11.7,43.6,13.8,47.8,13.8,47.8"/>
	<path d="M139.5,64.8c0-1,0.7-1.8,1.5-1.8c0.8,0,1.5,0.8,1.5,1.8v8h-3V64.8z M142.5,81.4v7.2c0,1-0.7,1.8-1.5,1.8
		c-0.8,0-1.5-0.8-1.5-1.8V78.4h8.4V64.6c0-3.9-3.1-7-7-7c-3.9,0-7,3.1-7,7v24.2c0,3.9,3.1,7,7,7c3.9,0,7-3.1,7-7v-7.4H142.5z"/>
	<path d="M207.1,65.5c0,0,1.1-1.8,2.3-1.8c0.8,0,0.8,0.7,0.8,0.7v30.5h5.7l0-30.7c-0.2-4.1-2.9-6.2-5.2-6.2c-2.2,0-3.8,1.5-3.8,1.5
		l0-1.2h-5.7v36.7h5.7V65.5z"/>
	<path d="M171.5,57.9c-2.2,0-3.8,1.5-3.8,1.5l-1.1,0.9c-1.1-1.6-2.6-2.4-4-2.4c-2.2,0-3.8,1.5-3.8,1.5v-1.2h-5.7v36.7h5.7V65.5
		c0,0,1.1-1.8,2.3-1.8c0.8,0,0.8,0.7,0.8,0.7v30.5h5.7l0-29.3c0.1-0.2,1.1-1.8,2.3-1.8c0.8,0,0.8,0.7,0.8,0.7v30.5h5.7l0-30.7
		C176.5,60.1,173.7,57.9,171.5,57.9"/>
	<path d="M227.9,89.6c-1.1,0-1.5-0.9-1.5-2.5c0-1.6,0-20.1,0-21c0-0.9,0.2-2.5,1.3-2.5c1.5,0,2.1,1.7,2.3,2.2l0,21.7
		C229.5,88.3,228.6,89.6,227.9,89.6 M235.8,95.1l-0.1-50.8h-5.9v14.6c-1-0.7-2.2-1.1-3.3-1.1c-4.9,0-5.8,5.9-5.8,8.4v22.1
		c0,2.7,1.5,7.2,4.8,7.2c1.8,0,3.3-0.7,4.3-1.5v1.1L235.8,95.1"/>
	<path d="M120.4,89.4h-2.8V49.3c0,0,1.8,0,2.5,0c0.7,0,2.6,0,2.6,2.8c0,2.8,0.1,30.2,0.1,33C122.8,87.9,121.5,89.4,120.4,89.4
		 M121.4,44c-1-0.1-2.4-0.2-3.8-0.2h-5.8v51.1l8.7,0c5.9-0.3,8.3-5.7,8.3-9.8V51.7C128.8,46.4,124.6,44.4,121.4,44"/>
	<path d="M189.2,90.4c-1.8,0-1.7-4.5-1.7-7.6c0-4.1,3.3-6.1,3.3-6.1l0,10.4C190.8,87.1,191,90.4,189.2,90.4 M196.6,89.1l-0.1-24
		c0-2.9-1.8-7.5-6.8-7.5c-5.5,0-7,4.5-7,7.5l0,5.6h5.7l0-6.5c0-0.8,0.5-1.4,1.2-1.4c0.7,0,1.2,0.6,1.2,1.4l0,6.4
		c0,0-6.1,2.9-7.9,7.2c-1.8,4.3-1.5,10.4-0.6,13.1c0.9,2.7,2.9,4.4,5.3,4.4c2.4,0,4-1.6,4-1.6l0.3,1.2h6.1
		C198,95,196.6,92.7,196.6,89.1"/>
</g>
<g>
</g>
<g>
</g>
<g>
</g>
<g>
</g>
<g>
</g>
</svg>
