<svg xmlns="http://www.w3.org/2000/svg" xmlns:xlink="http://www.w3.org/1999/xlink" width="184" height="184" viewBox="0 0 184 184">
  <defs>
    <clipPath id="clip-path">
      <rect width="173" height="181" fill="none"/>
    </clipPath>
    <clipPath id="clip-Artboard_3">
      <rect width="184" height="184"/>
    </clipPath>
  </defs>
  <g id="Artboard_3" data-name="Artboard – 3" clip-path="url(#clip-Artboard_3)">
    <g id="Repeat_Grid_3" data-name="Repeat Grid 3" transform="translate(8 8)" clip-path="url(#clip-path)">
      <g transform="translate(-8 -8)">
        <circle id="Ellipse_19" data-name="Ellipse 19" cx="4" cy="4" r="4" transform="translate(8 8)" fill="#d9ceb0"/>
      </g>
      <g transform="translate(15 -8)">
        <circle id="Ellipse_19-2" data-name="Ellipse 19" cx="4" cy="4" r="4" transform="translate(8 8)" fill="#d9ceb0"/>
      </g>
      <g transform="translate(38 -8)">
        <circle id="Ellipse_19-3" data-name="Ellipse 19" cx="4" cy="4" r="4" transform="translate(8 8)" fill="#d9ceb0"/>
      </g>
      <g transform="translate(61 -8)">
        <circle id="Ellipse_19-4" data-name="Ellipse 19" cx="4" cy="4" r="4" transform="translate(8 8)" fill="#d9ceb0"/>
      </g>
      <g transform="translate(84 -8)">
        <circle id="Ellipse_19-5" data-name="Ellipse 19" cx="4" cy="4" r="4" transform="translate(8 8)" fill="#d9ceb0"/>
      </g>
      <g transform="translate(107 -8)">
        <circle id="Ellipse_19-6" data-name="Ellipse 19" cx="4" cy="4" r="4" transform="translate(8 8)" fill="#d9ceb0"/>
      </g>
      <g transform="translate(130 -8)">
        <circle id="Ellipse_19-7" data-name="Ellipse 19" cx="4" cy="4" r="4" transform="translate(8 8)" fill="#d9ceb0"/>
      </g>
      <g transform="translate(153 -8)">
        <circle id="Ellipse_19-8" data-name="Ellipse 19" cx="4" cy="4" r="4" transform="translate(8 8)" fill="#d9ceb0"/>
      </g>
      <g transform="translate(-8 15)">
        <circle id="Ellipse_19-9" data-name="Ellipse 19" cx="4" cy="4" r="4" transform="translate(8 8)" fill="#d9ceb0"/>
      </g>
      <g transform="translate(15 15)">
        <circle id="Ellipse_19-10" data-name="Ellipse 19" cx="4" cy="4" r="4" transform="translate(8 8)" fill="#d9ceb0"/>
      </g>
      <g transform="translate(38 15)">
        <circle id="Ellipse_19-11" data-name="Ellipse 19" cx="4" cy="4" r="4" transform="translate(8 8)" fill="#d9ceb0"/>
      </g>
      <g transform="translate(61 15)">
        <circle id="Ellipse_19-12" data-name="Ellipse 19" cx="4" cy="4" r="4" transform="translate(8 8)" fill="#d9ceb0"/>
      </g>
      <g transform="translate(84 15)">
        <circle id="Ellipse_19-13" data-name="Ellipse 19" cx="4" cy="4" r="4" transform="translate(8 8)" fill="#d9ceb0"/>
      </g>
      <g transform="translate(107 15)">
        <circle id="Ellipse_19-14" data-name="Ellipse 19" cx="4" cy="4" r="4" transform="translate(8 8)" fill="#d9ceb0"/>
      </g>
      <g transform="translate(130 15)">
        <circle id="Ellipse_19-15" data-name="Ellipse 19" cx="4" cy="4" r="4" transform="translate(8 8)" fill="#d9ceb0"/>
      </g>
      <g transform="translate(153 15)">
        <circle id="Ellipse_19-16" data-name="Ellipse 19" cx="4" cy="4" r="4" transform="translate(8 8)" fill="#d9ceb0"/>
      </g>
      <g transform="translate(-8 38)">
        <circle id="Ellipse_19-17" data-name="Ellipse 19" cx="4" cy="4" r="4" transform="translate(8 8)" fill="#d9ceb0"/>
      </g>
      <g transform="translate(15 38)">
        <circle id="Ellipse_19-18" data-name="Ellipse 19" cx="4" cy="4" r="4" transform="translate(8 8)" fill="#d9ceb0"/>
      </g>
      <g transform="translate(38 38)">
        <circle id="Ellipse_19-19" data-name="Ellipse 19" cx="4" cy="4" r="4" transform="translate(8 8)" fill="#d9ceb0"/>
      </g>
      <g transform="translate(61 38)">
        <circle id="Ellipse_19-20" data-name="Ellipse 19" cx="4" cy="4" r="4" transform="translate(8 8)" fill="#d9ceb0"/>
      </g>
      <g transform="translate(84 38)">
        <circle id="Ellipse_19-21" data-name="Ellipse 19" cx="4" cy="4" r="4" transform="translate(8 8)" fill="#d9ceb0"/>
      </g>
      <g transform="translate(107 38)">
        <circle id="Ellipse_19-22" data-name="Ellipse 19" cx="4" cy="4" r="4" transform="translate(8 8)" fill="#d9ceb0"/>
      </g>
      <g transform="translate(130 38)">
        <circle id="Ellipse_19-23" data-name="Ellipse 19" cx="4" cy="4" r="4" transform="translate(8 8)" fill="#d9ceb0"/>
      </g>
      <g transform="translate(153 38)">
        <circle id="Ellipse_19-24" data-name="Ellipse 19" cx="4" cy="4" r="4" transform="translate(8 8)" fill="#d9ceb0"/>
      </g>
      <g transform="translate(-8 61)">
        <circle id="Ellipse_19-25" data-name="Ellipse 19" cx="4" cy="4" r="4" transform="translate(8 8)" fill="#d9ceb0"/>
      </g>
      <g transform="translate(15 61)">
        <circle id="Ellipse_19-26" data-name="Ellipse 19" cx="4" cy="4" r="4" transform="translate(8 8)" fill="#d9ceb0"/>
      </g>
      <g transform="translate(38 61)">
        <circle id="Ellipse_19-27" data-name="Ellipse 19" cx="4" cy="4" r="4" transform="translate(8 8)" fill="#d9ceb0"/>
      </g>
      <g transform="translate(61 61)">
        <circle id="Ellipse_19-28" data-name="Ellipse 19" cx="4" cy="4" r="4" transform="translate(8 8)" fill="#d9ceb0"/>
      </g>
      <g transform="translate(84 61)">
        <circle id="Ellipse_19-29" data-name="Ellipse 19" cx="4" cy="4" r="4" transform="translate(8 8)" fill="#d9ceb0"/>
      </g>
      <g transform="translate(107 61)">
        <circle id="Ellipse_19-30" data-name="Ellipse 19" cx="4" cy="4" r="4" transform="translate(8 8)" fill="#d9ceb0"/>
      </g>
      <g transform="translate(130 61)">
        <circle id="Ellipse_19-31" data-name="Ellipse 19" cx="4" cy="4" r="4" transform="translate(8 8)" fill="#d9ceb0"/>
      </g>
      <g transform="translate(153 61)">
        <circle id="Ellipse_19-32" data-name="Ellipse 19" cx="4" cy="4" r="4" transform="translate(8 8)" fill="#d9ceb0"/>
      </g>
      <g transform="translate(-8 84)">
        <circle id="Ellipse_19-33" data-name="Ellipse 19" cx="4" cy="4" r="4" transform="translate(8 8)" fill="#d9ceb0"/>
      </g>
      <g transform="translate(15 84)">
        <circle id="Ellipse_19-34" data-name="Ellipse 19" cx="4" cy="4" r="4" transform="translate(8 8)" fill="#d9ceb0"/>
      </g>
      <g transform="translate(38 84)">
        <circle id="Ellipse_19-35" data-name="Ellipse 19" cx="4" cy="4" r="4" transform="translate(8 8)" fill="#d9ceb0"/>
      </g>
      <g transform="translate(61 84)">
        <circle id="Ellipse_19-36" data-name="Ellipse 19" cx="4" cy="4" r="4" transform="translate(8 8)" fill="#d9ceb0"/>
      </g>
      <g transform="translate(84 84)">
        <circle id="Ellipse_19-37" data-name="Ellipse 19" cx="4" cy="4" r="4" transform="translate(8 8)" fill="#d9ceb0"/>
      </g>
      <g transform="translate(107 84)">
        <circle id="Ellipse_19-38" data-name="Ellipse 19" cx="4" cy="4" r="4" transform="translate(8 8)" fill="#d9ceb0"/>
      </g>
      <g transform="translate(130 84)">
        <circle id="Ellipse_19-39" data-name="Ellipse 19" cx="4" cy="4" r="4" transform="translate(8 8)" fill="#d9ceb0"/>
      </g>
      <g transform="translate(153 84)">
        <circle id="Ellipse_19-40" data-name="Ellipse 19" cx="4" cy="4" r="4" transform="translate(8 8)" fill="#d9ceb0"/>
      </g>
      <g transform="translate(-8 107)">
        <circle id="Ellipse_19-41" data-name="Ellipse 19" cx="4" cy="4" r="4" transform="translate(8 8)" fill="#d9ceb0"/>
      </g>
      <g transform="translate(15 107)">
        <circle id="Ellipse_19-42" data-name="Ellipse 19" cx="4" cy="4" r="4" transform="translate(8 8)" fill="#d9ceb0"/>
      </g>
      <g transform="translate(38 107)">
        <circle id="Ellipse_19-43" data-name="Ellipse 19" cx="4" cy="4" r="4" transform="translate(8 8)" fill="#d9ceb0"/>
      </g>
      <g transform="translate(61 107)">
        <circle id="Ellipse_19-44" data-name="Ellipse 19" cx="4" cy="4" r="4" transform="translate(8 8)" fill="#d9ceb0"/>
      </g>
      <g transform="translate(84 107)">
        <circle id="Ellipse_19-45" data-name="Ellipse 19" cx="4" cy="4" r="4" transform="translate(8 8)" fill="#d9ceb0"/>
      </g>
      <g transform="translate(107 107)">
        <circle id="Ellipse_19-46" data-name="Ellipse 19" cx="4" cy="4" r="4" transform="translate(8 8)" fill="#d9ceb0"/>
      </g>
      <g transform="translate(130 107)">
        <circle id="Ellipse_19-47" data-name="Ellipse 19" cx="4" cy="4" r="4" transform="translate(8 8)" fill="#d9ceb0"/>
      </g>
      <g transform="translate(153 107)">
        <circle id="Ellipse_19-48" data-name="Ellipse 19" cx="4" cy="4" r="4" transform="translate(8 8)" fill="#d9ceb0"/>
      </g>
      <g transform="translate(-8 130)">
        <circle id="Ellipse_19-49" data-name="Ellipse 19" cx="4" cy="4" r="4" transform="translate(8 8)" fill="#d9ceb0"/>
      </g>
      <g transform="translate(15 130)">
        <circle id="Ellipse_19-50" data-name="Ellipse 19" cx="4" cy="4" r="4" transform="translate(8 8)" fill="#d9ceb0"/>
      </g>
      <g transform="translate(38 130)">
        <circle id="Ellipse_19-51" data-name="Ellipse 19" cx="4" cy="4" r="4" transform="translate(8 8)" fill="#d9ceb0"/>
      </g>
      <g transform="translate(61 130)">
        <circle id="Ellipse_19-52" data-name="Ellipse 19" cx="4" cy="4" r="4" transform="translate(8 8)" fill="#d9ceb0"/>
      </g>
      <g transform="translate(84 130)">
        <circle id="Ellipse_19-53" data-name="Ellipse 19" cx="4" cy="4" r="4" transform="translate(8 8)" fill="#d9ceb0"/>
      </g>
      <g transform="translate(107 130)">
        <circle id="Ellipse_19-54" data-name="Ellipse 19" cx="4" cy="4" r="4" transform="translate(8 8)" fill="#d9ceb0"/>
      </g>
      <g transform="translate(130 130)">
        <circle id="Ellipse_19-55" data-name="Ellipse 19" cx="4" cy="4" r="4" transform="translate(8 8)" fill="#d9ceb0"/>
      </g>
      <g transform="translate(153 130)">
        <circle id="Ellipse_19-56" data-name="Ellipse 19" cx="4" cy="4" r="4" transform="translate(8 8)" fill="#d9ceb0"/>
      </g>
      <g transform="translate(-8 153)">
        <circle id="Ellipse_19-57" data-name="Ellipse 19" cx="4" cy="4" r="4" transform="translate(8 8)" fill="#d9ceb0"/>
      </g>
      <g transform="translate(15 153)">
        <circle id="Ellipse_19-58" data-name="Ellipse 19" cx="4" cy="4" r="4" transform="translate(8 8)" fill="#d9ceb0"/>
      </g>
      <g transform="translate(38 153)">
        <circle id="Ellipse_19-59" data-name="Ellipse 19" cx="4" cy="4" r="4" transform="translate(8 8)" fill="#d9ceb0"/>
      </g>
      <g transform="translate(61 153)">
        <circle id="Ellipse_19-60" data-name="Ellipse 19" cx="4" cy="4" r="4" transform="translate(8 8)" fill="#d9ceb0"/>
      </g>
      <g transform="translate(84 153)">
        <circle id="Ellipse_19-61" data-name="Ellipse 19" cx="4" cy="4" r="4" transform="translate(8 8)" fill="#d9ceb0"/>
      </g>
      <g transform="translate(107 153)">
        <circle id="Ellipse_19-62" data-name="Ellipse 19" cx="4" cy="4" r="4" transform="translate(8 8)" fill="#d9ceb0"/>
      </g>
      <g transform="translate(130 153)">
        <circle id="Ellipse_19-63" data-name="Ellipse 19" cx="4" cy="4" r="4" transform="translate(8 8)" fill="#d9ceb0"/>
      </g>
      <g transform="translate(153 153)">
        <circle id="Ellipse_19-64" data-name="Ellipse 19" cx="4" cy="4" r="4" transform="translate(8 8)" fill="#d9ceb0"/>
      </g>
    </g>
  </g>
</svg>
