<?xml version="1.0" encoding="utf-8"?>
<!-- Generator: Adobe Illustrator 27.0.1, SVG Export Plug-In . SVG Version: 6.00 Build 0)  -->
<svg version="1.1" id="Layer_1" xmlns="http://www.w3.org/2000/svg" xmlns:xlink="http://www.w3.org/1999/xlink" x="0px" y="0px"
	 viewBox="0 0 186.5 51.7" style="enable-background:new 0 0 186.5 51.7;" xml:space="preserve">
<style type="text/css">
	.st0{fill:#E77C24;}
	.st1{enable-background:new    ;}
	.st2{fill:#262626;}
</style>
<path class="st0" d="M64.3,26c-0.6-0.7-1-1.6-1.8-1.3c-1.4,0.6-1.9-2.6-3.2-2.6c-0.6-0.1-1.1-0.4-1.3-1c-0.4-0.5-0.8-0.9-1.3-0.7
	c-0.7,0.2-1.2-1-1.6-1.7c-0.4-0.8-1-1.8-1.9-1.7c-0.8,0.1-1.3-0.5-1.8-1.2c-0.6-0.7-1.2-1.3-2-1.1c-0.8,0.1-1.6-0.3-2-1.1
	c-0.4-0.6-0.9-1.3-1.6-1.2c-0.8,0.1-1.5-0.6-2.1-1.1c-0.6-0.5-1.3-1.2-2.1-1.1c-0.7,0-1.5-0.3-2.1-0.7c-0.7-0.5-1.5-0.7-2.3-0.7
	c-0.8,0.1-1.6-0.9-2.2-1.6c-0.6-0.7-1.5-1.6-2.3-1.2c-0.8,0.4-1.6-0.3-2.3-0.9c-0.5-0.5-1.1-1.5-1.8-1.2c-0.4,0.1-0.8,0-1.1-0.2
	c-0.5-0.2-1-0.5-1.4-0.7c-0.9-0.5-2-1.1-3-0.7C21.4,3,19.9,0,18.3,1c-0.8,0.5-1.6,0.8-2.4,1.1c-0.3,0.1-0.6,0.3-1,0.4
	c-0.2,0.1-0.3,0.2-0.5,0.3C14.2,3.6,14,4.4,14,5.1c-0.1,0.9-0.2,1.7-0.1,2.6C14,8.3,14.2,9,14.5,9.6c0.3,0.7,0.5,1.5,0.5,2.2
	c0,0.5,0,1-0.4,1.1c-0.2,0.1-0.5,0.2-0.7,0.2c-0.4,0.1-0.8,0.1-1.2,0.2c-0.1,0-0.1,0-0.2,0c-0.1,0.4-0.1,0.9-0.2,1.4
	c-0.1,1-0.1,2-0.1,3.1c0,1,0,2,0,3c0,1.1,0,2.2,0.1,3.2c0,1.1,0.1,2.2,0.2,3.2c0,0.4,0.1,0.7,0.1,1.1c0,0.4,0.1,0.7,0.1,1.1l0.9-3.5
	l0.8-3.3c0.2-0.6,0.3-1.1,0.5-1.7c0.2-0.6,0.3-1.1,0.5-1.7c0.2-0.8,0.5-1.5,0.8-2.3c0.3-0.8,0.6-1.6,0.9-2.3
	c0.3-0.8,0.7-1.5,1.1-2.2c0.4-0.7,0.9-1.4,1.4-2c0.3-0.3,0.6-0.6,0.9-0.9c0.3-0.3,0.6-0.5,1-0.8c0.1-0.1,0.2-0.2,0.2-0.2
	c0.1,0,0.2-0.1,0.3-0.1c0.1,0,0.2,0,0.4,0c0.2,0,0.3,0,0.5,0.1c0.2,0,0.3,0.1,0.4,0.1c0.1,0,0.2,0.1,0.2,0.1
	c0.3,0.1,0.5,0.2,0.6,0.3c0.1,0.1,0.2,0.3,0.3,0.6c0.1,0.4,0.1,0.8,0.2,1.2c0.1,0.4,0.1,0.8,0.2,1.2c0.1,0.7,0.1,1.3,0,2
	s-0.2,1.4-0.2,2c-0.1,0.8-0.1,1.5-0.2,2.3s-0.2,1.5-0.2,2.2s-0.1,1.5-0.1,2.2c0,0.8,0,1.5,0.1,2.2c1.3-1.5,2.5-3.1,3.6-4.7
	c1.1-1.6,2.2-3.2,3.3-4.8c0.5-0.7,1-1.5,1.5-2.3c0.5-0.8,1.1-1.5,1.8-2.1c0.2-0.2,0.4-0.3,0.6-0.3c0.2,0,0.4,0.1,0.7,0.2
	c0.2,0.3,0.3,0.6,0.4,0.9c0.1,0.3,0.1,0.6,0,0.9c0,0.3-0.1,0.6-0.2,0.9c-0.1,0.3-0.2,0.6-0.3,0.9c-0.1,0.3-0.2,0.6-0.2,1
	c-0.1,0.3-0.1,0.7-0.2,1L34.7,20c-0.2,0.9-0.3,1.8-0.4,2.6c-0.1,0.8-0.3,1.6-0.4,2.4c-0.1,0.8-0.2,1.6-0.4,2.4
	c-0.1,0.8-0.3,1.7-0.4,2.6c-0.2,1.4-0.4,2.7-0.6,4.1c-0.2,1.4-0.3,2.7-0.4,4.1c0.2,0,0.4,0,0.5,0.2c0.1,0.1,0.2,0.4,0.1,0.6l-0.5,1
	V40h-0.1l0,0.1c-0.2,0.2-0.4,0.3-0.6,0.2c-0.2,0-0.3-0.2-0.4-0.5h-0.1l0.1-0.1c-0.1-1.6-0.1-3.3,0.1-4.9c0.2-1.6,0.4-3.3,0.6-4.9
	c0.3-2.3,0.6-4.6,0.9-6.9s0.6-4.5,1-6.8c0-0.3,0.1-0.6,0.2-0.9c0.1-0.3,0.2-0.6,0.2-0.9l-0.3,0.4c-1,1.4-1.9,2.9-2.9,4.4
	C30,20.5,29,22,28,23.4c-0.4,0.5-0.8,1.1-1.2,1.5s-0.9,1-1.3,1.5c-0.1,0.2-0.3,0.3-0.4,0.4c-0.1,0.1-0.3,0.1-0.5,0.1
	c-0.2,0-0.3,0-0.5,0c-0.2,0-0.4,0-0.6-0.1c-0.3,0-0.5-0.1-0.6-0.2c-0.1-0.1-0.3-0.3-0.4-0.5c-0.1-0.5-0.2-0.9-0.2-1.3
	c-0.1-0.4-0.1-0.9-0.1-1.3c0-1,0.1-2.1,0.2-3.2c0.1-1.1,0.2-2.2,0.3-3.4s0.2-2.2,0.2-3.3c0-1.1,0-2.1-0.2-3.2c0,0,0,0-0.1,0
	c-0.2,0.2-0.5,0.4-0.7,0.6c-0.3,0.2-0.5,0.4-0.7,0.7c-0.8,1-1.5,2.1-2.1,3.3c-0.6,1.2-1.1,2.4-1.5,3.7c-0.4,1.3-0.8,2.6-1.2,3.9
	c-0.3,1.3-0.7,2.6-1,3.8c-0.2,0.9-0.5,1.9-0.7,2.8c-0.3,0.9-0.5,1.8-0.8,2.8c-0.1,0.2-0.1,0.4-0.1,0.7c0,0.3-0.1,0.5-0.3,0.7
	c-0.1,0.1-0.1,0.2-0.2,0.2c-0.1,0.1-0.2,0.1-0.3,0.2c-0.2,0-0.3,0-0.4,0s-0.2-0.1-0.4-0.1c-0.2-0.1-0.3-0.3-0.4-0.6
	c-0.1-0.3-0.2-0.7-0.3-1.1c-0.1-0.4-0.1-0.9-0.2-1.4c-0.1-0.5-0.1-0.9-0.1-1.4c0-0.4,0-0.8-0.1-1.2s0-0.6,0-0.7
	c-0.1-1.4-0.1-2.8-0.1-4.1c0-1.4,0-2.7,0.1-4.1c0-0.9,0-1.8,0.1-2.8c0-0.9,0.1-1.8,0.2-2.7c0-0.2,0.1-0.5,0.1-0.7
	c-0.6-0.5-1.1-1.3-1.4-2.1C9.4,9.5,9.1,8.1,9.2,6.6c0.2-2-1.8-1.2-2.6-1.4C6,5.1,5.3,5.8,4.9,6.3C4.2,7,3.6,8,3.3,9.1
	c-0.3,1.1-0.7,2.1-1.1,3.1c-0.4,0.7-0.6,1.6-0.7,2.4c-0.1,1.6-0.5,3.2-1,4.7c-0.3,1.4-0.5,2.9-0.4,4.4c0,0.9,0.1,1.8,0.2,2.6
	C0.1,27.1,0.1,28,0,28.9c-0.1,1.5,0,3,0.4,4.4c0.5,1.5,0.9,3.1,1,4.7c0.1,0.8,0.4,1.7,0.7,2.4c0.4,1,0.8,2,1.1,3.1
	c0.3,1.1,0.9,2,1.6,2.8c0.4,0.4,1.1,1.2,1.6,1.1c0.8-0.2,2.9,0.6,2.6-1.4c-0.1-1.5,0.2-3,0.8-4.3c0.5-1.3,1.5-2.7,2.7-2.5
	c0.4,0.1,0.9,0.1,1.3,0.2c0.2,0,0.5,0.1,0.7,0.2c0.4,0.2,0.4,0.7,0.4,1.1c0,0.8-0.2,1.6-0.5,2.2c-0.3,0.6-0.5,1.2-0.6,1.9
	c0,0.9,0,1.7,0.1,2.6c0,0.5,0.1,0.9,0.2,1.4c0,0.3,0.1,0.5,0.2,0.8c0.1,0.2,0.3,0.3,0.5,0.4c0.3,0.1,0.6,0.3,0.9,0.4
	c0.8,0.3,1.6,0.7,2.4,1.1c0.8,0.5,1.6-0.1,2.4-0.5c0.8-0.5,1.6-1.1,2.5-0.7c1,0.4,2.1-0.2,3-0.7c0.5-0.2,1-0.5,1.4-0.7
	c0.3-0.2,0.7-0.3,1.1-0.2c0.6,0.3,1.3-0.7,1.8-1.2c0.6-0.7,1.4-1.3,2.3-0.9c0.9,0.4,1.7-0.4,2.3-1.2c0.6-0.7,1.3-1.7,2.2-1.6
	c0.8,0,1.6-0.2,2.3-0.7c0.2-0.1,0.4-0.3,0.6-0.4c0-0.1,0.1-0.3,0.1-0.4c0.4-1.4,0.9-2.8,1.5-4.1c0.6-1.4,1.1-2.7,1.7-4.1
	c0.6-1.4,1.2-2.7,1.7-4.1c0.6-1.4,1.1-2.7,1.5-4.1c-0.8,1.2-1.7,2.4-2.5,3.6c-0.8,1.2-1.7,2.4-2.7,3.4c-0.3,0.3-0.6,0.5-1,0.7
	c-0.4,0.2-0.8,0.3-1.1,0.5c-0.1,0-0.2,0.1-0.3,0.1c-0.1,0-0.2,0-0.3,0c-0.7-0.2-1.2-0.5-1.6-0.9c-0.3-0.4-0.5-1-0.5-1.9
	c0.1-2,0.5-3.9,1-5.8c0.6-1.9,1.4-3.6,2.6-5.3c0.1-0.1,0.2-0.2,0.4-0.2s0.2,0,0.3,0.1s0.1,0.2,0.2,0.3c0,0.1,0,0.2,0,0.4
	c-0.5,0.7-0.9,1.6-1.3,2.5c-0.4,1-0.8,1.9-1,3c-0.3,1-0.4,2-0.5,3c-0.1,1,0,1.9,0.3,2.8c0.1,0,0.2,0.1,0.3,0.1
	c0.2-0.1,0.5-0.3,0.7-0.4c0.2-0.1,0.5-0.3,0.7-0.4c0.1-0.1,0.3-0.3,0.5-0.5c0.2-0.3,0.4-0.6,0.6-0.9c0.3-0.4,0.5-0.8,0.8-1.2
	c0.8-1.2,1.6-2.4,2.4-3.5c0.8-1.2,1.7-2.3,2.7-3.2c0.5-0.4,1-0.4,1.5-0.1c0.1,0.1,0.2,0.2,0.3,0.3c0.1,0.2,0.2,0.3,0.3,0.4
	s0,0.3,0,0.5c-0.4,1.7-0.9,3.4-1.5,5s-1.3,3.3-2,4.9c-0.7,1.6-1.5,3.2-2.2,4.8c-0.7,1.4-1.3,2.9-2,4.3c0.7,0,1.4-0.7,1.9-1.1
	c0.6-0.5,1.4-1.2,2.1-1.1c0.7,0.1,1.2-0.7,1.6-1.2c0.4-0.7,1.2-1.2,2-1.1c0.8,0.2,1.4-0.4,2-1.1c0.5-0.6,1-1.3,1.8-1.2
	c0.8,0.1,1.4-0.9,1.9-1.7c0.3-0.6,0.9-1.8,1.6-1.7c1.1,0.3,1.5-1.7,2.6-1.7c1.3,0,1.8-3.2,3.2-2.6c0.9,0.4,1.3-0.6,1.8-1.3
	C64.4,26.4,64.4,26.1,64.3,26z"/>
<g class="st1">
	<path class="st2" d="M69.4,5.5c1-1.7,2.3-3.1,4-4.1c1.7-1,3.7-1.5,5.8-1.5c2.7,0,4.9,0.7,6.8,2.1c1.9,1.4,3.2,3.3,3.8,5.8h-6
		c-0.4-0.9-1.1-1.7-1.9-2.1C81.2,5.2,80.3,5,79.2,5c-1.7,0-3.1,0.6-4.1,1.8c-1,1.2-1.6,2.7-1.6,4.7s0.5,3.5,1.6,4.7
		c1,1.2,2.4,1.8,4.1,1.8c1,0,2-0.2,2.8-0.7c0.8-0.5,1.5-1.2,1.9-2.1h6c-0.6,2.4-1.9,4.3-3.8,5.7c-1.9,1.4-4.2,2.1-6.8,2.1
		c-2.2,0-4.1-0.5-5.8-1.5c-1.7-1-3.1-2.3-4-4c-1-1.7-1.4-3.7-1.4-5.9S68.5,7.3,69.4,5.5z"/>
	<path class="st2" d="M96.4,21.9c-1.4-0.7-2.5-1.8-3.3-3.2c-0.8-1.4-1.2-3-1.2-4.9c0-1.8,0.4-3.5,1.2-4.8c0.8-1.4,1.9-2.5,3.3-3.2
		c1.4-0.7,3-1.1,4.7-1.1s3.3,0.4,4.7,1.1c1.4,0.7,2.5,1.8,3.3,3.2c0.8,1.4,1.2,3,1.2,4.8s-0.4,3.5-1.2,4.8c-0.8,1.4-1.9,2.5-3.4,3.2
		c-1.4,0.7-3,1.1-4.8,1.1C99.4,23,97.8,22.6,96.4,21.9z M103.8,17.1c0.7-0.8,1.1-1.9,1.1-3.3s-0.4-2.5-1.1-3.3
		c-0.7-0.8-1.6-1.2-2.6-1.2c-1.1,0-2,0.4-2.7,1.1c-0.7,0.8-1.1,1.9-1.1,3.3c0,1.4,0.3,2.5,1,3.3c0.7,0.8,1.6,1.2,2.6,1.2
		S103,17.9,103.8,17.1z"/>
	<path class="st2" d="M130.7,4.9v17.9h-5.5v-2.4c-0.6,0.8-1.3,1.4-2.3,1.9c-0.9,0.5-2,0.7-3.2,0.7c-1.4,0-2.6-0.3-3.6-0.9
		c-1-0.6-1.9-1.5-2.4-2.6c-0.6-1.2-0.9-2.5-0.9-4.1V4.9h5.4v9.7c0,1.2,0.3,2.1,0.9,2.8c0.6,0.7,1.5,1,2.5,1c1.1,0,1.9-0.3,2.5-1
		c0.6-0.7,0.9-1.6,0.9-2.8V4.9H130.7z"/>
	<path class="st2" d="M150.2,6.7c1.2,1.4,1.9,3.2,1.9,5.6v10.4h-5.4V13c0-1.2-0.3-2.1-0.9-2.8c-0.6-0.7-1.5-1-2.5-1
		c-1,0-1.9,0.3-2.5,1c-0.6,0.7-0.9,1.6-0.9,2.8v9.7h-5.5V4.9h5.5v2.4c0.6-0.8,1.3-1.4,2.2-1.9c0.9-0.5,2-0.7,3.2-0.7
		C147.3,4.7,148.9,5.3,150.2,6.7z"/>
	<path class="st2" d="M165.5,18.1v4.6h-2.8c-2,0-3.5-0.5-4.6-1.5s-1.7-2.6-1.7-4.8V9.4h-2.2V4.9h2.2V0.5h5.5v4.4h3.6v4.5h-3.6v7.2
		c0,0.5,0.1,0.9,0.4,1.2c0.3,0.2,0.7,0.4,1.3,0.4H165.5z"/>
	<path class="st2" d="M186.5,4.9l-13.2,29.5h-5.9l6.1-12.3l-7.3-17.2h6.1l4.1,11.2l4.1-11.2H186.5z"/>
</g>
<g class="st1">
	<path class="st2" d="M86.1,39.1c-0.6,1.1-1.5,1.9-2.8,2.6c-1.2,0.7-2.8,1-4.6,1h-3.4v8.1h-5.5V28.3h8.9c1.8,0,3.3,0.3,4.5,0.9
		c1.2,0.6,2.2,1.5,2.8,2.6c0.6,1.1,0.9,2.3,0.9,3.7C87,36.8,86.7,38,86.1,39.1z M80.7,37.6c0.5-0.5,0.8-1.2,0.8-2.1
		c0-0.9-0.3-1.6-0.8-2.1c-0.5-0.5-1.3-0.7-2.3-0.7h-3v5.6h3C79.4,38.3,80.2,38.1,80.7,37.6z"/>
	<path class="st2" d="M89.5,36.9c0.7-1.4,1.6-2.5,2.8-3.2c1.2-0.7,2.5-1.1,4-1.1c1.3,0,2.4,0.3,3.3,0.8c0.9,0.5,1.7,1.2,2.2,2v-2.5
		h5.5v17.9h-5.5v-2.5c-0.5,0.8-1.3,1.5-2.2,2c-0.9,0.5-2.1,0.8-3.3,0.8c-1.5,0-2.8-0.4-4-1.1c-1.2-0.8-2.1-1.8-2.8-3.2
		c-0.7-1.4-1-3-1-4.8S88.8,38.3,89.5,36.9z M100.7,38.6c-0.8-0.8-1.7-1.2-2.8-1.2c-1.1,0-2,0.4-2.8,1.2c-0.8,0.8-1.1,1.9-1.1,3.2
		s0.4,2.4,1.1,3.2c0.8,0.8,1.7,1.2,2.8,1.2c1.1,0,2-0.4,2.8-1.2c0.8-0.8,1.1-1.9,1.1-3.2S101.5,39.3,100.7,38.6z"/>
	<path class="st2" d="M118.8,33.5c1-0.6,2-0.8,3.2-0.8v5.8h-1.5c-1.4,0-2.4,0.3-3.1,0.9s-1,1.6-1,3.1v8.3H111V32.9h5.5v3
		C117.1,34.9,117.9,34.1,118.8,33.5z"/>
	<path class="st2" d="M135.3,50.7l-5.4-7.5v7.5h-5.5V27h5.5v13.1l5.4-7.3h6.8l-7.4,9l7.5,8.9H135.3z"/>
	<path class="st2" d="M146.9,50.2c-1.2-0.5-2.2-1.3-2.9-2.2c-0.7-0.9-1.1-2-1.2-3.1h5.4c0.1,0.6,0.4,1.1,0.9,1.5
		c0.5,0.4,1.1,0.6,1.9,0.6c0.7,0,1.2-0.1,1.6-0.4s0.6-0.6,0.6-1c0-0.5-0.3-0.9-0.8-1.1s-1.4-0.5-2.6-0.8c-1.3-0.3-2.3-0.6-3.2-0.9
		c-0.9-0.3-1.6-0.9-2.2-1.6c-0.6-0.7-0.9-1.7-0.9-2.9c0-1,0.3-2,0.8-2.8c0.6-0.8,1.4-1.5,2.5-2c1.1-0.5,2.4-0.7,3.9-0.7
		c2.2,0,4,0.6,5.3,1.7c1.3,1.1,2,2.6,2.2,4.4h-5.1c-0.1-0.6-0.4-1.1-0.8-1.5c-0.5-0.4-1.1-0.5-1.8-0.5c-0.6,0-1.1,0.1-1.5,0.4
		c-0.3,0.2-0.5,0.6-0.5,1c0,0.5,0.3,0.9,0.8,1.2c0.5,0.3,1.4,0.5,2.5,0.8c1.3,0.3,2.4,0.7,3.2,1c0.8,0.3,1.6,0.9,2.2,1.6
		c0.6,0.7,1,1.7,1,3c0,1-0.3,2-0.9,2.8s-1.4,1.5-2.5,1.9c-1.1,0.5-2.4,0.7-3.8,0.7C149.5,51,148.1,50.7,146.9,50.2z"/>
</g>
</svg>
