<?xml version="1.0" encoding="UTF-8"?>
<svg id="Layer_1" xmlns="http://www.w3.org/2000/svg" width="37.8in" height="41.7in" version="1.1" viewBox="0 0 2718 3000">
  <!-- Generator: Adobe Illustrator 29.1.0, SVG Export Plug-In . SVG Version: 2.1.0 Build 142)  -->
  <defs>
    <style>
      .st0 {
        fill: #fff;
        opacity: .1;
      }
    </style>
  </defs>
  <rect class="st0" x="4830" y="2779" width="195.8" height="195.8" transform="translate(9855.8 5753.8) rotate(180)"/>
  <rect class="st0" x="4595" y="2779" width="195.8" height="195.8" transform="translate(9385.8 5753.8) rotate(180)"/>
  <rect class="st0" x="4830" y="2544" width="195.8" height="195.8" transform="translate(9855.8 5283.8) rotate(180)"/>
  <rect class="st0" x="4595" y="2544" width="195.8" height="195.8" transform="translate(9385.8 5283.8) rotate(180)"/>
  <rect class="st0" x="4595" y="2309.1" width="195.8" height="195.8" transform="translate(9385.8 4813.9) rotate(180)"/>
  <rect class="st0" x="4595" y="2074.1" width="195.8" height="195.8" transform="translate(9385.8 4343.9) rotate(180)"/>
  <rect class="st0" x="4830" y="2309.1" width="195.8" height="195.8" transform="translate(9855.8 4813.9) rotate(180)"/>
  <rect class="st0" x="4830" y="2074.1" width="195.8" height="195.8" transform="translate(9855.8 4343.9) rotate(180)"/>
  <rect class="st0" x="4830" y="1839.1" width="195.8" height="195.8" transform="translate(9855.8 3873.9) rotate(180)"/>
  <rect class="st0" x="4595" y="1839.1" width="195.8" height="195.8" transform="translate(9385.8 3873.9) rotate(180)"/>
  <rect class="st0" x="4830" y="1604.1" width="195.8" height="195.8" transform="translate(9855.8 3404.1) rotate(180)"/>
  <rect class="st0" x="4595" y="1604.1" width="195.8" height="195.8" transform="translate(9385.8 3404.1) rotate(180)"/>
  <rect class="st0" x="4595" y="1369.1" width="195.8" height="195.8" transform="translate(9385.8 2934.1) rotate(180)"/>
  <rect class="st0" x="4595" y="1134.1" width="195.8" height="195.8" transform="translate(9385.8 2464.1) rotate(180)"/>
  <rect class="st0" x="4830" y="1369.1" width="195.8" height="195.8" transform="translate(9855.8 2934.1) rotate(180)"/>
  <rect class="st0" x="4830" y="1134.1" width="195.8" height="195.8" transform="translate(9855.8 2464.1) rotate(180)"/>
  <rect class="st0" x="4830" y="899.2" width="195.8" height="195.8" transform="translate(9855.8 1994.2) rotate(180)"/>
  <rect class="st0" x="4595" y="899.2" width="195.8" height="195.8" transform="translate(9385.8 1994.2) rotate(180)"/>
  <rect class="st0" x="4830" y="664.2" width="195.8" height="195.8" transform="translate(9855.8 1524.2) rotate(180)"/>
  <rect class="st0" x="4595" y="664.2" width="195.8" height="195.8" transform="translate(9385.8 1524.2) rotate(180)"/>
  <rect class="st0" x="4359.4" y="2779" width="195.8" height="195.8" transform="translate(8914.7 5753.8) rotate(180)"/>
  <rect class="st0" x="4124.4" y="2779" width="195.8" height="195.8" transform="translate(8444.7 5753.8) rotate(180)"/>
  <rect class="st0" x="4359.4" y="2544" width="195.8" height="195.8" transform="translate(8914.7 5283.8) rotate(180)"/>
  <rect class="st0" x="4124.4" y="2544" width="195.8" height="195.8" transform="translate(8444.7 5283.8) rotate(180)"/>
  <rect class="st0" x="4124.4" y="2309.1" width="195.8" height="195.8" transform="translate(8444.7 4813.9) rotate(180)"/>
  <rect class="st0" x="4124.4" y="2074.1" width="195.8" height="195.8" transform="translate(8444.7 4343.9) rotate(180)"/>
  <rect class="st0" x="4359.4" y="2309.1" width="195.8" height="195.8" transform="translate(8914.7 4813.9) rotate(180)"/>
  <rect class="st0" x="4359.4" y="2074.1" width="195.8" height="195.8" transform="translate(8914.7 4343.9) rotate(180)"/>
  <rect class="st0" x="4359.4" y="1839.1" width="195.8" height="195.8" transform="translate(8914.7 3873.9) rotate(180)"/>
  <rect class="st0" x="4124.4" y="1839.1" width="195.8" height="195.8" transform="translate(8444.7 3873.9) rotate(180)"/>
  <rect class="st0" x="4359.4" y="1604.1" width="195.8" height="195.8" transform="translate(8914.7 3404.1) rotate(180)"/>
  <rect class="st0" x="4124.4" y="1604.1" width="195.8" height="195.8" transform="translate(8444.7 3404.1) rotate(180)"/>
  <rect class="st0" x="4124.4" y="1369.1" width="195.8" height="195.8" transform="translate(8444.7 2934.1) rotate(180)"/>
  <rect class="st0" x="4124.4" y="1134.1" width="195.8" height="195.8" transform="translate(8444.7 2464.1) rotate(180)"/>
  <rect class="st0" x="4359.4" y="1369.1" width="195.8" height="195.8" transform="translate(8914.7 2934.1) rotate(180)"/>
  <rect class="st0" x="4359.4" y="1134.1" width="195.8" height="195.8" transform="translate(8914.7 2464.1) rotate(180)"/>
  <rect class="st0" x="4359.4" y="899.2" width="195.8" height="195.8" transform="translate(8914.7 1994.2) rotate(180)"/>
  <rect class="st0" x="4124.4" y="899.2" width="195.8" height="195.8" transform="translate(8444.7 1994.2) rotate(180)"/>
  <rect class="st0" x="4359.4" y="664.2" width="195.8" height="195.8" transform="translate(8914.7 1524.2) rotate(180)"/>
  <rect class="st0" x="4124.4" y="664.2" width="195.8" height="195.8" transform="translate(8444.7 1524.2) rotate(180)"/>
  <rect class="st0" x="3888.9" y="2779" width="195.8" height="195.8" transform="translate(7973.6 5753.8) rotate(180)"/>
  <rect class="st0" x="3654" y="2779" width="195.8" height="195.8" transform="translate(7503.7 5753.8) rotate(180)"/>
  <rect class="st0" x="3888.9" y="2544" width="195.8" height="195.8" transform="translate(7973.6 5283.8) rotate(180)"/>
  <rect class="st0" x="3654" y="2544" width="195.8" height="195.8" transform="translate(7503.7 5283.8) rotate(180)"/>
  <rect class="st0" x="3654" y="2309.1" width="195.8" height="195.8" transform="translate(7503.7 4813.9) rotate(180)"/>
  <rect class="st0" x="3654" y="2074.1" width="195.8" height="195.8" transform="translate(7503.7 4343.9) rotate(180)"/>
  <rect class="st0" x="3888.9" y="2309.1" width="195.8" height="195.8" transform="translate(7973.6 4813.9) rotate(180)"/>
  <rect class="st0" x="3888.9" y="2074.1" width="195.8" height="195.8" transform="translate(7973.6 4343.9) rotate(180)"/>
  <rect class="st0" x="3654" y="1839.1" width="195.8" height="195.8" transform="translate(7503.7 3873.9) rotate(180)"/>
  <rect class="st0" x="3888.9" y="1604.1" width="195.8" height="195.8" transform="translate(7973.6 3404.1) rotate(180)"/>
  <rect class="st0" x="3654" y="1604.1" width="195.8" height="195.8" transform="translate(7503.7 3404.1) rotate(180)"/>
  <rect class="st0" x="3654" y="1369.1" width="195.8" height="195.8" transform="translate(7503.7 2934.1) rotate(180)"/>
  <rect class="st0" x="3654" y="1134.1" width="195.8" height="195.8" transform="translate(7503.7 2464.1) rotate(180)"/>
  <rect class="st0" x="3888.9" y="1369.1" width="195.8" height="195.8" transform="translate(7973.6 2934.1) rotate(180)"/>
  <rect class="st0" x="3888.9" y="899.2" width="195.8" height="195.8" transform="translate(7973.6 1994.2) rotate(180)"/>
  <rect class="st0" x="3654" y="899.2" width="195.8" height="195.8" transform="translate(7503.7 1994.2) rotate(180)"/>
  <rect class="st0" x="3654" y="664.2" width="195.8" height="195.8" transform="translate(7503.7 1524.2) rotate(180)"/>
  <rect class="st0" x="3418.4" y="2779" width="195.8" height="195.8" transform="translate(7032.6 5753.8) rotate(180)"/>
  <rect class="st0" x="3183.4" y="2779" width="195.8" height="195.8" transform="translate(6562.6 5753.8) rotate(180)"/>
  <rect class="st0" x="3418.4" y="2544" width="195.8" height="195.8" transform="translate(7032.6 5283.8) rotate(180)"/>
  <rect class="st0" x="3183.4" y="2544" width="195.8" height="195.8" transform="translate(6562.6 5283.8) rotate(180)"/>
  <rect class="st0" x="3183.4" y="2309.1" width="195.8" height="195.8" transform="translate(6562.6 4813.9) rotate(180)"/>
  <rect class="st0" x="3183.4" y="2074.1" width="195.8" height="195.8" transform="translate(6562.6 4343.9) rotate(180)"/>
  <rect class="st0" x="3418.4" y="2309.1" width="195.8" height="195.8" transform="translate(7032.6 4813.9) rotate(180)"/>
  <rect class="st0" x="3183.4" y="1839.1" width="195.8" height="195.8" transform="translate(6562.6 3873.9) rotate(180)"/>
  <rect class="st0" x="3183.4" y="1604.1" width="195.8" height="195.8" transform="translate(6562.6 3404.1) rotate(180)"/>
  <rect class="st0" x="3183.4" y="1369.1" width="195.8" height="195.8" transform="translate(6562.6 2934.1) rotate(180)"/>
  <rect class="st0" x="3418.4" y="1369.1" width="195.8" height="195.8" transform="translate(7032.6 2934.1) rotate(180)"/>
  <rect class="st0" x="3418.4" y="1134.1" width="195.8" height="195.8" transform="translate(7032.6 2464.1) rotate(180)"/>
  <rect class="st0" x="3418.4" y="899.2" width="195.8" height="195.8" transform="translate(7032.6 1994.2) rotate(180)"/>
  <rect class="st0" x="3183.4" y="899.2" width="195.8" height="195.8" transform="translate(6562.6 1994.2) rotate(180)"/>
  <rect class="st0" x="3183.4" y="664.2" width="195.8" height="195.8" transform="translate(6562.6 1524.2) rotate(180)"/>
  <rect class="st0" x="2947.8" y="2779" width="195.8" height="195.8" transform="translate(6091.5 5753.8) rotate(180)"/>
  <rect class="st0" x="2006.7" y="2779" width="195.8" height="195.8" transform="translate(4209.2 5753.8) rotate(180)"/>
  <rect class="st0" x="1065.7" y="2779" width="195.8" height="195.8" transform="translate(2327.1 5753.8) rotate(180)"/>
  <rect class="st0" x="2947.8" y="2309.1" width="195.8" height="195.8" transform="translate(6091.5 4813.9) rotate(180)"/>
  <rect class="st0" x="2947.8" y="1839.1" width="195.8" height="195.8" transform="translate(6091.5 3873.9) rotate(180)"/>
  <rect class="st0" x="2947.8" y="1369.1" width="195.8" height="195.8" transform="translate(6091.5 2934.1) rotate(180)"/>
  <rect class="st0" x="2712.3" y="2779" width="195.8" height="195.8" transform="translate(5620.3 5753.8) rotate(180)"/>
  <rect class="st0" x="2477.3" y="2779" width="195.8" height="195.8" transform="translate(5150.3 5753.8) rotate(180)"/>
  <rect class="st0" x="2477.3" y="2544" width="195.8" height="195.8" transform="translate(5150.3 5283.8) rotate(180)"/>
  <rect class="st0" x="2477.3" y="2074.1" width="195.8" height="195.8" transform="translate(5150.3 4343.9) rotate(180)"/>
  <rect class="st0" x="2712.3" y="2074.1" width="195.8" height="195.8" transform="translate(5620.3 4343.9) rotate(180)"/>
  <rect class="st0" x="2712.3" y="1839.1" width="195.8" height="195.8" transform="translate(5620.3 3873.9) rotate(180)"/>
  <rect class="st0" x="2477.3" y="1604.1" width="195.8" height="195.8" transform="translate(5150.3 3404.1) rotate(180)"/>
  <rect class="st0" x="2712.3" y="1369.1" width="195.8" height="195.8" transform="translate(5620.3 2934.1) rotate(180)"/>
  <rect class="st0" x="2006.7" y="2309.1" width="195.8" height="195.8" transform="translate(4209.2 4813.9) rotate(180)"/>
  <rect class="st0" x="2006.7" y="1839.1" width="195.8" height="195.8" transform="translate(4209.2 3873.9) rotate(180)"/>
  <rect class="st0" x="1575.3" y="1839.1" width="195.8" height="195.8" transform="translate(3346.5 3873.9) rotate(180)"/>
  <rect class="st0" x="2241.7" y="1604.1" width="195.8" height="195.8" transform="translate(4679.2 3404.1) rotate(180)"/>
  <rect class="st0" x="2241.7" y="899.2" width="195.8" height="195.8" transform="translate(4679.2 1994.2) rotate(180)"/>
</svg>