<?xml version="1.0" encoding="UTF-8"?>
<svg id="Layer_1" xmlns="http://www.w3.org/2000/svg" width="37.8in" height="41.7in" version="1.1" viewBox="0 0 2718 3000">
  <!-- Generator: Adobe Illustrator 29.1.0, SVG Export Plug-In . SVG Version: 2.1.0 Build 142)  -->
  <defs>
    <style>
      .st0 {
        fill: #fff;
        opacity: .1;
      }
    </style>
  </defs>
  <rect class="st0" x="-1760.9" y="-12.7" width="195.8" height="195.8"/>
  <rect class="st0" x="-1525.9" y="-12.7" width="195.8" height="195.8"/>
  <rect class="st0" x="-1760.9" y="222.3" width="195.8" height="195.8"/>
  <rect class="st0" x="-1525.9" y="222.3" width="195.8" height="195.8"/>
  <rect class="st0" x="-1525.9" y="457.2" width="195.8" height="195.8"/>
  <rect class="st0" x="-1525.9" y="692.2" width="195.8" height="195.8"/>
  <rect class="st0" x="-1760.9" y="457.2" width="195.8" height="195.8"/>
  <rect class="st0" x="-1760.9" y="692.2" width="195.8" height="195.8"/>
  <rect class="st0" x="-1760.9" y="927.2" width="195.8" height="195.8"/>
  <rect class="st0" x="-1525.9" y="927.2" width="195.8" height="195.8"/>
  <rect class="st0" x="-1760.9" y="1162.2" width="195.8" height="195.8"/>
  <rect class="st0" x="-1525.9" y="1162.2" width="195.8" height="195.8"/>
  <rect class="st0" x="-1525.9" y="1397.2" width="195.8" height="195.8"/>
  <rect class="st0" x="-1525.9" y="1632.2" width="195.8" height="195.8"/>
  <rect class="st0" x="-1760.9" y="1397.2" width="195.8" height="195.8"/>
  <rect class="st0" x="-1760.9" y="1632.2" width="195.8" height="195.8"/>
  <rect class="st0" x="-1760.9" y="1867.1" width="195.8" height="195.8"/>
  <rect class="st0" x="-1525.9" y="1867.1" width="195.8" height="195.8"/>
  <rect class="st0" x="-1760.9" y="2102.1" width="195.8" height="195.8"/>
  <rect class="st0" x="-1525.9" y="2102.1" width="195.8" height="195.8"/>
  <rect class="st0" x="-1290.3" y="-12.7" width="195.8" height="195.8"/>
  <rect class="st0" x="-1055.3" y="-12.7" width="195.8" height="195.8"/>
  <rect class="st0" x="-1290.3" y="222.3" width="195.8" height="195.8"/>
  <rect class="st0" x="-1055.3" y="222.3" width="195.8" height="195.8"/>
  <rect class="st0" x="-1055.3" y="457.2" width="195.8" height="195.8"/>
  <rect class="st0" x="-1055.3" y="692.2" width="195.8" height="195.8"/>
  <rect class="st0" x="-1290.3" y="457.2" width="195.8" height="195.8"/>
  <rect class="st0" x="-1290.3" y="692.2" width="195.8" height="195.8"/>
  <rect class="st0" x="-1290.3" y="927.2" width="195.8" height="195.8"/>
  <rect class="st0" x="-1055.3" y="927.2" width="195.8" height="195.8"/>
  <rect class="st0" x="-1290.3" y="1162.2" width="195.8" height="195.8"/>
  <rect class="st0" x="-1055.3" y="1162.2" width="195.8" height="195.8"/>
  <rect class="st0" x="-1055.3" y="1397.2" width="195.8" height="195.8"/>
  <rect class="st0" x="-1055.3" y="1632.2" width="195.8" height="195.8"/>
  <rect class="st0" x="-1290.3" y="1397.2" width="195.8" height="195.8"/>
  <rect class="st0" x="-1290.3" y="1632.2" width="195.8" height="195.8"/>
  <rect class="st0" x="-1290.3" y="1867.1" width="195.8" height="195.8"/>
  <rect class="st0" x="-1055.3" y="1867.1" width="195.8" height="195.8"/>
  <rect class="st0" x="-1290.3" y="2102.1" width="195.8" height="195.8"/>
  <rect class="st0" x="-1055.3" y="2102.1" width="195.8" height="195.8"/>
  <rect class="st0" x="-819.8" y="-12.7" width="195.8" height="195.8"/>
  <rect class="st0" x="-584.8" y="-12.7" width="195.8" height="195.8"/>
  <rect class="st0" x="-819.8" y="222.3" width="195.8" height="195.8"/>
  <rect class="st0" x="-584.8" y="222.3" width="195.8" height="195.8"/>
  <rect class="st0" x="-584.8" y="457.2" width="195.8" height="195.8"/>
  <rect class="st0" x="-584.8" y="692.2" width="195.8" height="195.8"/>
  <rect class="st0" x="-819.8" y="457.2" width="195.8" height="195.8"/>
  <rect class="st0" x="-819.8" y="692.2" width="195.8" height="195.8"/>
  <rect class="st0" x="-584.8" y="927.2" width="195.8" height="195.8"/>
  <rect class="st0" x="-819.8" y="1162.2" width="195.8" height="195.8"/>
  <rect class="st0" x="-584.8" y="1162.2" width="195.8" height="195.8"/>
  <rect class="st0" x="-584.8" y="1397.2" width="195.8" height="195.8"/>
  <rect class="st0" x="-584.8" y="1632.2" width="195.8" height="195.8"/>
  <rect class="st0" x="-819.8" y="1397.2" width="195.8" height="195.8"/>
  <rect class="st0" x="-819.8" y="1867.1" width="195.8" height="195.8"/>
  <rect class="st0" x="-584.8" y="1867.1" width="195.8" height="195.8"/>
  <rect class="st0" x="-584.8" y="2102.1" width="195.8" height="195.8"/>
  <rect class="st0" x="-349.3" y="-12.7" width="195.8" height="195.8"/>
  <rect class="st0" x="-114.3" y="-12.7" width="195.8" height="195.8"/>
  <rect class="st0" x="-349.3" y="222.3" width="195.8" height="195.8"/>
  <rect class="st0" x="-114.3" y="222.3" width="195.8" height="195.8"/>
  <rect class="st0" x="-114.3" y="457.2" width="195.8" height="195.8"/>
  <rect class="st0" x="-114.3" y="692.2" width="195.8" height="195.8"/>
  <rect class="st0" x="-349.3" y="457.2" width="195.8" height="195.8"/>
  <rect class="st0" x="-114.3" y="927.2" width="195.8" height="195.8"/>
  <rect class="st0" x="-114.3" y="1162.2" width="195.8" height="195.8"/>
  <rect class="st0" x="-114.3" y="1397.2" width="195.8" height="195.8"/>
  <rect class="st0" x="-349.3" y="1397.2" width="195.8" height="195.8"/>
  <rect class="st0" x="-349.3" y="1632.2" width="195.8" height="195.8"/>
  <rect class="st0" x="-349.3" y="1867.1" width="195.8" height="195.8"/>
  <rect class="st0" x="-114.3" y="1867.1" width="195.8" height="195.8"/>
  <rect class="st0" x="-114.3" y="2102.1" width="195.8" height="195.8"/>
  <rect class="st0" x="121.3" y="-12.7" width="195.8" height="195.8"/>
  <rect class="st0" x="1062.4" y="-12.7" width="195.8" height="195.8"/>
  <rect class="st0" x="2003.5" y="-12.7" width="195.8" height="195.8"/>
  <rect class="st0" x="121.3" y="457.2" width="195.8" height="195.8"/>
  <rect class="st0" x="121.3" y="927.2" width="195.8" height="195.8"/>
  <rect class="st0" x="121.3" y="1397.2" width="195.8" height="195.8"/>
  <rect class="st0" x="356.8" y="-12.7" width="195.8" height="195.8"/>
  <rect class="st0" x="591.8" y="-12.7" width="195.8" height="195.8"/>
  <rect class="st0" x="591.8" y="222.3" width="195.8" height="195.8"/>
  <rect class="st0" x="591.8" y="692.2" width="195.8" height="195.8"/>
  <rect class="st0" x="356.8" y="692.2" width="195.8" height="195.8"/>
  <rect class="st0" x="356.8" y="927.2" width="195.8" height="195.8"/>
  <rect class="st0" x="591.8" y="1162.2" width="195.8" height="195.8"/>
  <rect class="st0" x="356.8" y="1397.2" width="195.8" height="195.8"/>
  <rect class="st0" x="1062.4" y="457.2" width="195.8" height="195.8"/>
  <rect class="st0" x="1062.4" y="927.2" width="195.8" height="195.8"/>
  <rect class="st0" x="1493.8" y="927.2" width="195.8" height="195.8"/>
  <rect class="st0" x="827.4" y="1162.2" width="195.8" height="195.8"/>
  <rect class="st0" x="827.4" y="1867.1" width="195.8" height="195.8"/>
</svg>