<?xml version="1.0" encoding="UTF-8"?>
<svg id="Layer_1" xmlns="http://www.w3.org/2000/svg" version="1.1" viewBox="0 0 1400 329.57">
  <!-- Generator: Adobe Illustrator 29.1.0, SVG Export Plug-In . SVG Version: 2.1.0 Build 142)  -->
  <defs>
    <style>
      .st0 {
        opacity: .1;
      }

      .st0, .st1, .st2 {
        isolation: isolate;
      }

      .st2 {
        fill: #009ce0;
        mix-blend-mode: multiply;
      }

      .st3 {
        opacity: .35;
      }
    </style>
  </defs>
  <g class="st0">
    <g id="Layer_11" data-name="Layer_1">
      <g class="st3">
        <polygon class="st2" points="1178.7 66.63 1178.72 66.64 1238.74 31.85 1297.07 66.63 1297.09 66.64 1357.29 31.95 1416.2 67.11 1416.25 67.04 1357.31 31.86 1357.29 31.85 1297.09 66.54 1238.76 31.76 1238.74 31.74 1178.72 66.54 1120.4 31.76 1120.37 31.74 1061.13 66.09 1001.98 30.98 1001.96 30.97 942.08 65.65 883.43 30.87 883.41 30.86 823.71 65.65 765.06 30.87 765.04 30.86 706.08 65.22 646.5 30.02 646.48 30.01 586.91 64.72 527.95 29.92 527.93 29.91 468.55 64.72 409.58 29.92 409.56 29.91 350.95 64.27 291.15 29.14 291.13 29.13 231.89 63.83 172.6 29.03 172.58 29.02 113.52 63.83 54.23 29.03 54.21 29.02 -4.2 63.45 -4.15 63.52 54.21 29.12 113.5 63.92 113.52 63.94 172.58 29.12 231.86 63.92 231.89 63.94 291.13 29.23 350.86 64.32 350.84 64.33 350.88 64.41 350.95 64.37 351.01 64.41 351.06 64.33 351.03 64.32 409.56 30.01 468.52 64.81 468.55 64.82 527.93 30.01 586.89 64.81 586.91 64.82 646.48 30.11 706.01 65.28 706.05 65.34 765.04 30.96 823.69 65.74 823.71 65.76 883.41 30.96 942.05 65.74 942.08 65.76 1001.95 31.07 1061.04 66.14 1061.02 66.15 1061.06 66.23 1061.13 66.19 1061.2 66.23 1061.24 66.15 1061.22 66.14 1120.37 31.85 1178.7 66.63"/>
        <polygon class="st2" points="-4.08 70.87 54.24 36.5 113.54 71.31 172.61 36.5 231.84 71.27 231.91 71.31 291.16 36.6 350.83 71.66 350.89 71.75 350.94 71.72 350.99 71.75 351.05 71.66 409.52 37.38 468.5 72.19 527.89 37.38 586.8 72.15 586.87 72.19 646.44 37.49 705.95 72.64 705.95 72.63 705.99 72.68 764.93 38.33 823.6 73.12 883.3 38.33 941.9 73.08 941.97 73.12 1001.85 38.44 1060.88 73.47 1060.93 73.57 1060.99 73.53 1061.04 73.57 1061.1 73.47 1120.19 39.21 1178.54 74.01 1238.56 39.21 1296.84 73.96 1296.91 74.01 1357.11 39.32 1415.98 74.45 1416.12 74.21 1357.19 39.04 1357.12 39 1296.92 73.69 1238.64 38.94 1238.57 38.9 1178.55 73.69 1120.27 38.94 1120.2 38.9 1060.99 73.22 1001.92 38.16 1001.85 38.12 941.97 72.8 883.37 38.05 883.3 38.01 823.6 72.8 765 38.05 764.93 38.01 706.01 72.35 646.51 37.21 646.44 37.17 586.87 71.87 527.96 37.1 527.89 37.06 468.51 71.87 409.59 37.1 409.52 37.06 350.94 71.4 291.22 36.32 291.16 36.28 231.91 70.99 172.67 36.22 172.61 36.18 113.54 70.99 54.31 36.22 54.24 36.18 -4.22 70.63 -4.08 70.87"/>
        <polygon class="st2" points="-4 78.21 54.26 43.87 113.45 78.61 113.57 78.68 172.63 43.87 231.94 78.68 291.18 43.97 350.85 79.03 350.89 79.1 350.93 79.07 350.97 79.1 351.02 79.02 409.48 44.75 468.34 79.5 468.46 79.56 527.84 44.75 586.83 79.56 646.39 44.86 705.86 79.98 705.88 79.94 705.93 80.02 764.82 45.7 823.38 80.42 823.49 80.49 883.19 45.7 941.86 80.49 1001.74 45.8 1060.76 80.83 1060.8 80.9 1060.84 80.88 1060.89 80.91 1060.93 80.83 1120.02 46.58 1178.25 81.3 1178.37 81.37 1238.39 46.58 1296.73 81.37 1356.93 46.69 1415.76 81.79 1416 81.39 1357.06 46.22 1356.95 46.15 1296.75 80.84 1238.51 46.12 1238.4 46.05 1178.38 80.84 1120.15 46.12 1120.03 46.05 1060.85 80.35 1001.86 45.34 1001.75 45.27 941.87 79.96 883.31 45.23 883.2 45.16 823.5 79.96 764.94 45.23 764.83 45.16 705.93 79.49 646.51 44.39 646.4 44.32 586.83 79.03 527.96 44.29 527.85 44.22 468.46 79.03 409.6 44.29 409.48 44.22 350.93 78.54 291.3 43.51 291.18 43.44 231.94 78.15 172.75 43.4 172.63 43.33 113.57 78.15 54.38 43.4 54.26 43.33 -4.24 77.82 -4 78.21"/>
        <polygon class="st2" points="-3.93 85.55 54.29 51.24 113.6 86.05 172.66 51.24 231.96 86.05 291.21 51.34 350.87 86.39 350.9 86.44 350.92 86.42 350.95 86.44 350.98 86.39 409.43 52.12 468.42 86.93 527.8 52.12 586.79 86.93 646.35 52.23 705.77 87.32 705.81 87.26 705.86 87.36 764.71 53.06 823.38 87.86 883.08 53.06 941.75 87.85 1001.63 53.17 1060.65 88.2 1060.67 88.24 1060.7 88.23 1060.73 88.24 1060.76 88.19 1119.84 53.95 1178.19 88.74 1238.21 53.95 1296.56 88.74 1356.75 54.05 1415.53 89.13 1415.87 88.57 1356.93 53.4 1356.77 53.3 1296.58 87.99 1238.23 53.2 1178.21 87.99 1119.86 53.2 1060.72 87.48 1001.8 52.52 1001.64 52.42 941.76 87.11 883.09 52.31 823.39 87.11 764.72 52.31 705.85 86.62 646.52 51.57 646.36 51.48 586.79 86.19 527.81 51.37 468.42 86.19 409.44 51.37 350.92 85.68 291.37 50.69 291.21 50.59 231.96 85.3 172.66 50.49 113.59 85.3 54.29 50.49 -4.26 85 -3.93 85.55"/>
        <polygon class="st2" points="-3.86 92.9 54.32 58.61 113.62 93.42 172.68 58.61 231.99 93.42 291.23 58.71 350.89 93.76 350.9 93.78 350.91 93.77 350.93 93.78 350.94 93.76 409.39 59.49 468.38 94.31 527.76 59.49 586.74 94.31 646.31 59.6 705.68 94.67 705.73 94.58 705.8 94.7 764.6 60.43 823.27 95.22 882.97 60.43 941.64 95.22 1001.52 60.53 1060.53 95.56 1060.55 95.58 1060.56 95.57 1060.57 95.58 1060.59 95.56 1119.66 61.31 1178.01 96.11 1238.03 61.31 1296.38 96.11 1356.58 61.42 1415.31 96.47 1415.75 95.75 1356.6 60.46 1296.4 95.14 1238.05 60.35 1178.04 95.14 1119.69 60.35 1060.58 94.61 1001.53 59.57 941.66 94.26 882.99 59.47 823.29 94.26 764.62 59.47 705.78 93.76 646.31 58.63 586.75 93.34 527.77 58.53 468.38 93.34 409.4 58.53 350.91 92.81 291.23 57.75 231.99 92.46 172.68 57.64 113.62 92.46 54.31 57.64 -4.28 92.18 -3.86 92.9"/>
        <polygon class="st2" points="-3.79 100.24 54.34 65.98 113.65 100.79 172.71 65.98 231.76 100.64 232.01 100.79 291.26 66.08 350.91 101.13 350.91 101.12 409.35 66.86 468.33 101.68 527.72 66.86 586.45 101.53 586.7 101.68 646.27 66.97 705.59 102.01 705.66 101.9 705.74 102.04 764.49 67.8 823.16 102.59 882.86 67.8 941.28 102.44 941.53 102.59 1001.41 67.9 1060.42 102.92 1119.49 68.68 1177.83 103.47 1237.85 68.68 1295.95 103.32 1296.2 103.47 1356.4 68.78 1415.09 103.81 1415.62 102.93 1356.43 67.61 1296.23 102.29 1237.88 67.5 1177.86 102.29 1119.51 67.5 1060.44 101.75 1001.43 66.72 941.55 101.41 882.88 66.62 823.18 101.41 764.51 66.62 705.7 100.89 646.27 65.79 586.71 100.5 527.72 65.68 468.34 100.5 409.36 65.68 350.91 99.95 291.26 64.91 232.01 99.61 172.71 64.8 113.64 99.61 54.34 64.8 -4.3 99.37 -3.79 100.24"/>
        <polygon class="st2" points="-3.71 107.58 54.37 73.35 113.67 108.16 172.74 73.35 232.04 108.16 291.28 73.46 350.89 108.47 350.9 108.45 350.91 108.47 409.31 74.23 468.29 109.05 527.68 74.23 586.66 109.05 646.22 74.34 705.5 109.35 705.59 109.21 705.68 109.38 764.39 75.16 823.06 109.95 882.75 75.16 941.42 109.95 1001.3 75.27 1060.26 110.26 1060.28 110.24 1060.29 110.26 1119.31 76.05 1177.66 110.84 1237.68 76.05 1296.02 110.84 1356.22 76.15 1414.86 111.15 1415.5 110.11 1356.26 74.76 1296.06 109.45 1237.71 74.65 1177.69 109.45 1119.34 74.65 1060.3 108.88 1001.32 73.88 941.44 108.56 882.77 73.77 823.08 108.56 764.41 73.77 705.62 108.03 646.23 72.95 586.67 107.65 527.68 72.84 468.3 107.65 409.32 72.84 350.9 107.09 291.28 72.06 232.04 106.77 172.73 71.96 113.67 106.77 54.36 71.96 -4.33 106.55 -3.71 107.58"/>
        <polygon class="st2" points="-3.64 114.93 54.39 80.72 113.7 115.53 172.76 80.72 232.07 115.53 291.31 80.83 350.86 115.81 350.89 115.77 350.91 115.81 409.26 81.61 468.25 116.42 527.63 81.61 586.62 116.42 646.18 81.71 705.41 116.7 705.51 116.53 705.62 116.72 764.28 82.53 822.95 117.32 882.64 82.53 941.31 117.32 1001.19 82.63 1060.11 117.6 1060.13 117.56 1060.16 117.6 1119.13 83.41 1177.48 118.21 1237.5 83.41 1295.85 118.2 1356.05 83.52 1414.64 118.48 1415.37 117.29 1356.09 81.91 1295.89 116.6 1237.54 81.8 1177.52 116.6 1119.17 81.8 1060.16 116.01 1001.22 81.03 941.34 115.71 882.67 80.92 822.97 115.71 764.3 80.92 705.55 115.16 646.19 80.1 586.63 114.81 527.64 80 468.26 114.81 409.27 80 350.89 114.22 291.31 79.22 232.06 113.93 172.76 79.11 113.69 113.93 54.39 79.11 -4.35 113.73 -3.64 114.93"/>
        <polygon class="st2" points="-3.57 122.27 54.42 88.09 113.72 122.91 172.79 88.09 232.09 122.9 291.33 88.2 350.84 123.16 350.88 123.09 350.92 123.16 409.22 88.98 468.21 123.79 527.59 88.98 586.57 123.79 646.14 89.08 705.32 124.04 705.44 123.85 705.56 124.05 764.17 89.9 822.84 124.69 882.54 89.9 941.2 124.69 1001.08 90 1059.95 124.94 1059.99 124.87 1060.03 124.94 1118.96 90.78 1177.3 125.57 1237.32 90.78 1295.67 125.57 1355.87 90.88 1414.42 125.82 1415.25 124.47 1355.92 89.06 1295.72 123.75 1237.37 88.96 1177.35 123.75 1119 88.96 1060.02 123.14 1001.11 88.18 941.23 122.87 882.56 88.07 822.86 122.86 764.19 88.07 705.47 122.3 646.15 87.26 586.59 121.97 527.6 87.15 468.22 121.97 409.23 87.15 350.88 121.36 291.33 86.37 232.09 121.08 172.78 86.27 113.72 121.08 54.41 86.27 -4.37 120.92 -3.57 122.27"/>
        <polygon class="st2" points="-3.5 129.61 54.44 95.46 113.75 130.28 172.81 95.46 232.12 130.28 291.36 95.57 350.82 130.5 350.87 130.41 350.92 130.5 409.18 96.35 468.16 131.16 527.55 96.35 586.53 131.16 646.1 96.45 705.23 131.38 705.36 131.17 705.49 131.39 764.06 97.26 822.73 132.05 882.43 97.26 941.1 132.05 1000.97 97.37 1059.8 132.28 1059.85 132.19 1059.9 132.28 1118.78 98.15 1177.13 132.94 1237.15 98.15 1295.49 132.94 1355.69 98.25 1414.19 133.16 1415.12 131.65 1355.74 96.21 1295.55 130.9 1237.2 96.11 1177.18 130.9 1118.83 96.11 1059.89 130.27 1001.01 95.33 941.13 130.02 882.46 95.22 822.76 130.02 764.09 95.22 705.39 129.43 646.11 94.41 586.55 129.12 527.56 94.31 468.18 129.12 409.19 94.31 350.87 128.5 291.36 93.53 232.11 128.24 172.81 93.42 113.74 128.24 54.44 93.42 -4.39 128.1 -3.5 129.61"/>
        <polygon class="st2" points="-3.42 136.96 54.47 102.83 113.78 137.65 172.84 102.83 232.14 137.65 291.39 102.94 350.8 137.84 350.87 137.73 350.93 137.84 409.14 103.72 468.12 138.53 527.51 103.72 586.49 138.53 646.05 103.82 705.14 138.73 705.29 138.48 705.43 138.73 763.95 104.63 822.62 139.42 882.32 104.63 940.99 139.42 1000.86 104.73 1059.64 139.62 1059.71 139.51 1059.77 139.62 1118.6 105.51 1176.95 140.31 1236.97 105.51 1295.32 140.3 1355.51 105.62 1413.97 140.5 1414.99 138.83 1355.57 103.37 1295.37 138.05 1237.02 103.26 1177 138.05 1118.66 103.26 1059.75 137.41 1000.9 102.48 941.02 137.17 882.35 102.38 822.65 137.17 763.98 102.38 705.32 136.57 646.07 101.57 586.5 136.28 527.52 101.46 468.14 136.28 409.15 101.46 350.87 135.63 291.38 100.69 232.14 135.39 172.83 100.58 113.77 135.39 54.46 100.58 -4.41 135.28 -3.42 136.96"/>
        <polygon class="st2" points="-3.35 144.3 54.5 110.2 113.8 145.02 172.86 110.2 232.17 145.02 291.41 110.31 350.78 145.19 350.86 145.05 350.93 145.19 409.1 111.09 468.08 145.9 527.46 111.09 586.45 145.9 646.01 111.19 705.06 146.07 705.22 145.8 705.37 146.07 763.84 111.99 822.51 146.79 882.21 112 940.88 146.79 1000.75 112.1 1059.48 146.96 1059.57 146.82 1059.64 146.95 1118.42 112.88 1176.77 147.67 1236.79 112.88 1295.14 147.67 1355.34 112.98 1413.75 147.84 1414.87 146.01 1355.4 110.52 1295.2 145.2 1236.85 110.41 1176.83 145.2 1118.48 110.41 1059.61 144.54 1000.8 109.63 940.92 144.32 882.25 109.53 822.55 144.32 763.88 109.53 705.24 143.7 646.03 108.73 586.46 143.43 527.48 108.62 468.09 143.43 409.11 108.62 350.86 142.77 291.41 107.84 232.16 142.55 172.86 107.73 113.79 142.55 54.49 107.73 -4.44 142.47 -3.35 144.3"/>
        <polygon class="st2" points="-3.28 151.64 54.52 117.58 113.83 152.39 172.89 117.58 232.19 152.39 291.44 117.68 350.76 152.53 350.85 152.37 350.94 152.53 409.05 118.46 468.04 153.27 527.42 118.46 586.4 153.27 645.97 118.56 704.97 153.41 705.14 153.12 705.31 153.41 763.73 119.36 822.4 154.15 882.1 119.36 940.77 154.15 1000.65 119.47 1059.33 154.3 1059.42 154.14 1059.51 154.29 1118.25 120.25 1176.6 155.04 1236.62 120.25 1294.96 155.04 1355.16 120.35 1413.52 155.18 1414.74 153.19 1355.23 117.67 1295.03 152.36 1236.68 117.56 1176.66 152.35 1118.31 117.56 1059.47 151.67 1000.69 116.78 940.81 151.47 882.14 116.68 822.44 151.47 763.77 116.68 705.16 150.84 645.99 115.88 586.42 150.59 527.44 115.77 468.05 150.59 409.07 115.78 350.85 149.9 291.43 115 232.19 149.71 172.88 114.89 113.82 149.7 54.51 114.89 -4.46 149.65 -3.28 151.64"/>
        <polygon class="st2" points="-3.21 158.99 54.55 124.95 113.85 159.76 172.92 124.95 232.22 159.76 291.46 125.05 350.74 159.87 350.84 159.69 350.94 159.87 409.01 125.83 468 160.64 527.38 125.83 586.36 160.64 645.93 125.94 704.88 160.76 705.07 160.44 705.25 160.75 763.62 126.73 822.29 161.52 881.99 126.73 940.66 161.52 1000.54 126.83 1059.17 161.63 1059.28 161.46 1059.38 161.63 1118.07 127.61 1176.42 162.4 1236.44 127.61 1294.78 162.4 1354.98 127.72 1413.3 162.52 1414.62 160.36 1355.06 124.82 1294.86 159.51 1236.51 124.71 1176.49 159.51 1118.14 124.71 1059.33 158.8 1000.58 123.94 940.71 158.62 882.03 123.83 822.34 158.62 763.67 123.83 705.09 157.97 645.95 123.04 586.38 157.75 527.4 122.93 468.01 157.74 409.03 122.93 350.84 157.04 291.46 122.15 232.21 156.86 172.91 122.05 113.84 156.86 54.54 122.05 -4.48 156.83 -3.21 158.99"/>
        <polygon class="st2" points="-3.13 166.33 54.57 132.32 113.88 167.13 172.94 132.32 232.25 167.13 291.49 132.42 350.71 167.22 350.83 167.02 350.95 167.22 408.97 133.2 467.95 168.02 527.34 133.2 586.32 168.01 645.88 133.31 704.79 168.1 704.99 167.75 705.19 168.09 763.51 134.09 822.18 168.89 881.88 134.09 940.55 168.89 1000.43 134.2 1059.02 168.97 1059.14 168.77 1059.25 168.97 1117.89 134.98 1176.24 169.77 1236.26 134.98 1294.61 169.77 1354.81 135.08 1413.08 169.86 1414.49 167.54 1354.89 131.97 1294.69 166.66 1236.34 131.87 1176.32 166.66 1117.97 131.87 1059.19 165.94 1000.48 131.09 940.6 165.78 881.93 130.98 822.23 165.77 763.56 130.98 705.01 165.1 645.91 130.19 586.34 164.9 527.35 130.09 467.97 164.9 408.99 130.09 350.83 164.18 291.48 129.31 232.24 164.02 172.93 129.2 113.87 164.02 54.56 129.2 -4.5 164.02 -3.13 166.33"/>
        <polygon class="st2" points="-3.06 173.67 54.6 139.69 113.9 174.5 172.97 139.69 232.27 174.5 291.51 139.79 350.69 174.56 350.82 174.34 350.95 174.56 408.93 140.57 467.91 175.39 527.29 140.57 586.28 175.38 645.84 140.68 704.7 175.44 704.92 175.07 705.13 175.43 763.41 141.46 822.08 176.25 881.77 141.46 940.44 176.25 1000.32 141.57 1058.86 176.31 1059 176.09 1059.12 176.31 1117.72 142.35 1176.06 177.14 1236.08 142.35 1294.43 177.14 1354.63 142.45 1412.85 177.2 1414.37 174.72 1354.71 139.12 1294.51 173.81 1236.16 139.02 1176.14 173.81 1117.8 139.02 1059.06 173.07 1000.37 138.24 940.49 172.93 881.82 138.13 822.12 172.93 763.45 138.13 704.93 172.24 645.86 137.35 586.3 172.06 527.31 137.24 467.93 172.06 408.95 137.24 350.83 171.31 291.51 136.47 232.26 171.17 172.96 136.36 113.89 171.17 54.59 136.36 -4.52 171.2 -3.06 173.67"/>
        <polygon class="st2" points="-2.99 181.02 54.62 147.06 113.93 181.87 172.99 147.06 232.3 181.87 291.54 147.16 350.67 181.9 350.82 181.66 350.96 181.9 408.88 147.94 467.87 182.76 527.25 147.94 586.23 182.76 645.8 148.05 704.61 182.79 704.85 182.39 705.06 182.77 763.3 148.83 821.97 183.62 881.66 148.83 940.33 183.62 1000.21 148.93 1058.71 183.65 1058.86 183.41 1058.99 183.65 1117.54 149.71 1175.89 184.5 1235.91 149.71 1294.25 184.5 1354.45 149.82 1412.63 184.53 1414.24 181.9 1354.54 146.28 1294.34 180.96 1235.99 146.17 1175.97 180.96 1117.62 146.17 1058.92 180.2 1000.27 145.39 940.39 180.08 881.72 145.28 822.02 180.08 763.35 145.28 704.86 179.37 645.82 144.51 586.26 179.21 527.27 144.4 467.89 179.21 408.9 144.4 350.82 178.45 291.53 143.62 232.29 178.33 172.98 143.51 113.92 178.33 54.61 143.51 -4.55 178.38 -2.99 181.02"/>
        <polygon class="st2" points="-2.91 188.36 54.65 154.43 113.96 189.24 173.02 154.43 232.32 189.24 291.57 154.53 350.65 189.25 350.81 188.98 350.96 189.25 408.84 155.31 467.83 190.13 527.21 155.31 586.19 190.13 645.76 155.42 704.52 190.13 704.77 189.71 705 190.1 763.19 156.19 821.86 190.99 881.56 156.19 940.22 190.99 1000.1 156.3 1058.55 190.99 1058.71 190.72 1058.86 190.99 1117.36 157.08 1175.71 191.87 1235.73 157.08 1294.08 191.87 1354.27 157.18 1412.41 191.87 1414.12 189.08 1354.37 153.43 1294.17 188.11 1235.82 153.32 1175.8 188.11 1117.45 153.32 1058.78 187.33 1000.16 152.54 940.28 187.23 881.61 152.44 821.91 187.23 763.24 152.44 704.78 186.51 645.78 151.66 586.22 186.37 527.23 151.55 467.85 186.37 408.86 151.55 350.81 185.59 291.56 150.78 232.31 185.48 173.01 150.67 113.94 185.48 54.64 150.67 -4.57 185.57 -2.91 188.36"/>
        <polygon class="st2" points="-2.84 195.7 54.68 161.8 113.98 196.61 173.04 161.8 232.35 196.61 291.59 161.91 350.63 196.59 350.8 196.3 350.97 196.59 408.8 162.69 467.78 197.5 527.17 162.69 586.15 197.5 645.71 162.79 704.43 197.47 704.7 197.02 704.94 197.44 763.08 163.56 821.75 198.35 881.45 163.56 940.11 198.35 999.99 163.67 1058.4 198.33 1058.57 198.04 1058.73 198.33 1117.19 164.44 1175.53 199.24 1235.55 164.44 1293.9 199.24 1354.1 164.55 1412.18 199.21 1413.99 196.26 1354.2 160.58 1294 195.27 1235.65 160.47 1175.63 195.26 1117.28 160.47 1058.64 194.46 1000.06 159.69 940.18 194.38 881.51 159.59 821.81 194.38 763.14 159.59 704.7 193.64 645.74 158.82 586.18 193.52 527.19 158.71 467.81 193.52 408.82 158.71 350.8 192.72 291.58 157.93 232.34 192.64 173.03 157.83 113.97 192.64 54.66 157.83 -4.59 192.75 -2.84 195.7"/>
        <polygon class="st2" points="-2.77 203.05 54.7 169.17 114.01 203.99 173.07 169.17 232.37 203.98 291.62 169.28 350.61 203.93 350.79 203.62 350.97 203.93 408.76 170.06 467.74 204.87 527.12 170.06 586.11 204.87 645.67 170.16 704.34 204.82 704.63 204.34 704.88 204.78 762.97 170.93 821.64 205.72 881.34 170.93 940 205.72 999.88 171.03 1058.24 205.67 1058.43 205.35 1058.61 205.67 1117.01 171.81 1175.36 206.6 1235.38 171.81 1293.72 206.6 1353.92 171.92 1411.96 206.55 1413.87 203.44 1354.03 167.73 1293.83 202.42 1235.48 167.62 1175.46 202.42 1117.11 167.62 1058.5 201.6 999.95 166.85 940.07 201.53 881.4 166.74 821.7 201.53 763.03 166.74 704.62 200.78 645.7 165.97 586.14 200.68 527.15 165.87 467.77 200.68 408.78 165.87 350.79 199.86 291.61 165.09 232.36 199.8 173.06 164.98 113.99 199.79 54.69 164.98 -4.61 199.93 -2.77 203.05"/>
        <polygon class="st2" points="-2.7 210.39 54.73 176.54 114.03 211.36 173.1 176.54 232.4 211.35 291.64 176.65 350.59 211.28 350.78 210.94 350.98 211.27 408.71 177.43 467.7 212.24 527.08 177.43 586.06 212.24 645.63 177.53 704.25 212.16 704.55 211.66 704.82 212.12 762.86 178.29 821.53 213.09 881.23 178.29 939.9 213.09 999.77 178.4 1058.08 213.01 1058.29 212.67 1058.48 213.01 1116.83 179.18 1175.18 213.97 1235.2 179.18 1293.54 213.97 1353.74 179.28 1411.73 213.89 1413.74 210.62 1353.86 174.88 1293.66 209.57 1235.3 174.77 1175.29 209.57 1116.94 174.77 1058.36 208.73 999.84 174 939.97 208.69 881.29 173.89 821.6 208.68 762.93 173.89 704.55 207.91 645.66 173.13 586.1 207.84 527.11 173.02 467.72 207.83 408.74 173.02 350.79 207 291.63 172.24 232.39 206.95 173.08 172.14 114.02 206.95 54.71 172.14 -4.63 207.12 -2.7 210.39"/>
        <polygon class="st2" points="-2.62 217.73 54.75 183.91 114.06 218.73 173.12 183.91 232.42 218.73 291.67 184.02 350.57 218.62 350.77 218.26 350.98 218.62 408.67 184.8 467.66 219.61 527.04 184.8 586.02 219.61 645.59 184.9 704.16 219.5 704.48 218.98 704.76 219.46 762.75 185.66 821.42 220.45 881.12 185.66 939.79 220.45 999.66 185.76 1057.93 220.35 1058.15 219.99 1058.35 220.34 1116.65 186.54 1175 221.34 1235.02 186.54 1293.37 221.34 1353.57 186.65 1411.51 221.23 1413.61 217.8 1353.68 182.03 1293.48 216.72 1235.13 181.93 1175.11 216.72 1116.77 181.93 1058.22 215.86 999.74 181.15 939.86 215.84 881.19 181.04 821.49 215.83 762.82 181.04 704.47 215.05 645.62 180.28 586.05 214.99 527.07 180.18 467.68 214.99 408.7 180.18 350.78 214.13 291.66 179.4 232.41 214.11 173.11 179.29 114.04 214.11 54.74 179.29 -4.66 214.3 -2.62 217.73"/>
        <polygon class="st2" points="-2.55 225.08 54.78 191.28 114.09 226.1 173.15 191.28 232.45 226.1 291.69 191.39 350.54 225.96 350.77 225.58 350.99 225.96 408.63 192.17 467.61 226.98 527 192.17 585.98 226.98 645.54 192.27 704.07 226.85 704.4 226.29 704.69 226.8 762.64 193.03 821.31 227.82 881.01 193.03 939.68 227.82 999.55 193.13 1057.77 227.68 1058 227.3 1058.22 227.68 1116.48 193.91 1174.83 228.7 1234.85 193.91 1293.19 228.7 1353.39 194.02 1411.29 228.57 1413.49 224.98 1353.51 189.19 1293.31 223.87 1234.96 189.08 1174.94 223.87 1116.59 189.08 1058.09 222.99 999.63 188.3 939.76 222.99 881.08 188.19 821.38 222.99 762.71 188.19 704.39 222.18 645.58 187.44 586.01 222.15 527.03 187.33 467.64 222.15 408.66 187.33 350.77 221.27 291.68 186.56 232.44 221.26 173.13 186.45 114.07 221.26 54.76 186.45 -4.68 221.48 -2.55 225.08"/>
        <polygon class="st2" points="-2.48 232.42 54.8 198.66 114.11 233.47 173.17 198.66 232.48 233.47 291.72 198.76 350.52 233.31 350.76 232.9 350.99 233.3 408.59 199.54 467.57 234.35 526.96 199.54 585.94 234.35 645.5 199.64 703.99 234.19 704.33 233.61 704.63 234.14 762.53 200.39 821.2 235.19 880.9 200.39 939.57 235.18 999.45 200.5 1057.62 235.02 1057.86 234.62 1058.09 235.02 1116.3 201.28 1174.65 236.07 1234.67 201.28 1293.01 236.07 1353.21 201.38 1411.06 235.91 1413.36 232.16 1353.34 196.34 1293.14 231.02 1234.79 196.23 1174.77 231.02 1116.42 196.23 1057.95 230.13 999.53 195.45 939.65 230.14 880.98 195.35 821.28 230.14 762.61 195.35 704.32 229.32 645.54 194.6 585.97 229.3 526.98 194.49 467.6 229.3 408.62 194.49 350.76 228.41 291.71 193.71 232.46 228.42 173.16 193.6 114.09 228.42 54.79 193.6 -4.7 228.67 -2.48 232.42"/>
        <polygon class="st2" points="-2.41 239.76 54.83 206.03 114.14 240.84 173.2 206.03 232.5 240.84 291.74 206.13 350.5 240.65 350.75 240.22 351 240.65 408.55 206.91 467.53 241.72 526.91 206.91 585.89 241.72 645.46 207.02 703.9 241.53 704.26 240.93 704.57 241.48 762.42 207.76 821.09 242.55 880.79 207.76 939.46 242.55 999.34 207.86 1057.46 242.36 1057.72 241.94 1057.96 242.36 1116.12 208.64 1174.47 243.44 1234.49 208.64 1292.84 243.43 1353.03 208.75 1410.84 243.25 1413.24 239.34 1353.17 203.49 1292.97 238.18 1234.62 203.38 1174.6 238.17 1116.25 203.38 1057.81 237.26 999.42 202.6 939.54 237.29 880.87 202.5 821.17 237.29 762.5 202.5 704.24 236.45 645.5 201.75 585.93 236.46 526.94 201.64 467.56 236.46 408.58 201.64 350.75 235.54 291.73 200.87 232.49 235.58 173.18 200.76 114.12 235.57 54.81 200.76 -4.72 235.85 -2.41 239.76"/>
        <polygon class="st2" points="-2.33 247.11 54.86 213.4 114.16 248.21 173.22 213.4 232.53 248.21 291.77 213.5 350.48 247.99 350.74 247.54 351 247.99 408.5 214.28 467.49 249.1 526.87 214.28 585.85 249.09 645.42 214.39 703.81 248.88 704.18 248.24 704.51 248.82 762.32 215.13 820.99 249.92 880.68 215.13 939.35 249.92 999.23 215.23 1057.31 249.7 1057.58 249.25 1057.83 249.7 1115.95 216.01 1174.29 250.8 1234.31 216.01 1292.66 250.8 1352.86 216.11 1410.62 250.58 1413.11 246.52 1353 210.64 1292.8 245.33 1234.45 210.53 1174.43 245.33 1116.08 210.53 1057.67 244.39 999.32 209.76 939.44 244.44 880.76 209.65 821.07 244.44 762.4 209.65 704.16 243.59 645.46 208.91 585.89 243.62 526.9 208.8 467.52 243.61 408.53 208.8 350.75 242.68 291.76 208.02 232.51 242.73 173.21 207.92 114.14 242.73 54.84 207.92 -4.74 243.03 -2.33 247.11"/>
        <polygon class="st2" points="-2.26 254.45 54.88 220.77 114.19 255.58 173.25 220.77 232.55 255.58 291.8 220.87 350.46 255.34 350.73 254.87 351.01 255.33 408.46 221.65 467.45 256.47 526.83 221.65 585.81 256.46 645.37 221.76 703.72 256.22 704.11 255.56 704.45 256.15 762.21 222.49 820.88 257.29 880.57 222.49 939.24 257.28 999.12 222.6 1057.15 257.04 1057.44 256.57 1057.7 257.04 1115.77 223.38 1174.12 258.17 1234.14 223.38 1292.48 258.17 1352.68 223.48 1410.39 257.92 1412.99 253.69 1352.83 217.79 1292.63 252.48 1234.27 217.68 1174.25 252.48 1115.91 217.68 1057.53 251.52 999.21 216.91 939.33 251.6 880.66 216.8 820.96 251.59 762.29 216.8 704.09 250.72 645.41 216.06 585.85 250.77 526.86 215.96 467.48 250.77 408.49 215.96 350.74 249.81 291.78 215.18 232.54 249.89 173.23 215.07 114.17 249.89 54.86 215.07 -4.76 250.22 -2.26 254.45"/>
        <polygon class="st2" points="-2.19 261.79 54.91 228.14 114.21 262.95 173.28 228.14 232.58 262.95 291.82 228.24 350.44 262.68 350.73 262.19 351.01 262.68 408.42 229.02 467.4 263.84 526.79 229.02 585.77 263.84 645.33 229.13 703.63 263.56 704.03 262.88 704.39 263.49 762.1 229.86 820.77 264.65 880.47 229.86 939.13 264.65 999.01 229.96 1057 264.38 1057.29 263.89 1057.57 264.38 1115.59 230.74 1173.94 265.54 1233.96 230.74 1292.3 265.53 1352.5 230.85 1410.17 265.26 1412.86 260.87 1352.65 224.94 1292.45 259.63 1234.1 224.84 1174.08 259.63 1115.73 224.84 1057.39 258.65 999.11 224.06 939.23 258.75 880.55 223.95 820.86 258.74 762.19 223.95 704.01 257.86 645.37 223.22 585.81 257.93 526.82 223.11 467.44 257.93 408.45 223.11 350.73 256.95 291.81 222.34 232.57 257.04 173.26 222.23 114.19 257.04 54.89 222.23 -4.79 257.4 -2.19 261.79"/>
        <polygon class="st2" points="-2.12 269.14 54.93 235.51 114.24 270.32 173.3 235.51 232.6 270.32 291.85 235.61 350.42 270.02 350.72 269.51 351.02 270.02 408.38 236.39 467.36 271.21 526.74 236.39 585.72 271.21 645.29 236.5 703.54 270.91 703.96 270.2 704.33 270.83 761.99 237.23 820.66 272.02 880.36 237.23 939.02 272.02 998.9 237.33 1056.84 271.72 1057.15 271.2 1057.44 271.72 1115.41 238.11 1173.76 272.9 1233.78 238.11 1292.13 272.9 1352.33 238.21 1409.95 272.6 1412.74 268.05 1352.48 232.09 1292.28 266.78 1233.93 231.99 1173.91 266.78 1115.56 231.99 1057.26 265.79 999 231.21 939.12 265.9 880.45 231.1 820.75 265.9 762.08 231.1 703.93 264.99 645.33 230.38 585.77 265.08 526.78 230.27 467.4 265.08 408.41 230.27 350.72 264.09 291.83 229.49 232.59 264.2 173.28 229.38 114.22 264.2 54.91 229.38 -4.81 264.59 -2.12 269.14"/>
        <polygon class="st2" points="-2.04 276.48 54.96 242.88 114.27 277.7 173.33 242.88 232.63 277.69 291.87 242.99 350.39 277.37 350.71 276.83 351.02 277.36 408.33 243.77 467.32 278.58 526.7 243.77 585.68 278.58 645.25 243.87 703.45 278.25 703.89 277.51 704.26 278.17 761.88 244.59 820.55 279.39 880.25 244.59 938.91 279.38 998.79 244.7 1056.68 279.06 1057.01 278.52 1057.31 279.06 1115.24 245.48 1173.59 280.27 1233.61 245.48 1291.95 280.27 1352.15 245.58 1409.72 279.94 1412.61 275.23 1352.31 239.25 1292.11 273.93 1233.76 239.14 1173.74 273.93 1115.39 239.14 1057.12 272.92 998.89 238.36 939.02 273.05 880.34 238.25 820.64 273.05 761.97 238.25 703.86 272.13 645.29 237.53 585.73 272.24 526.74 237.42 467.35 272.24 408.37 237.42 350.71 271.22 291.86 236.65 232.62 271.36 173.31 236.54 114.24 271.35 54.94 236.54 -4.83 271.77 -2.04 276.48"/>
        <polygon class="st2" points="-1.97 283.82 54.99 250.25 114.29 285.07 173.35 250.25 232.65 285.06 291.9 250.36 350.37 284.71 350.7 284.15 351.03 284.71 408.29 251.14 467.28 285.95 526.66 251.14 585.64 285.95 645.2 251.24 703.36 285.59 703.81 284.83 704.2 285.51 761.77 251.96 820.44 286.75 880.14 251.96 938.8 286.75 998.68 252.06 1056.53 286.4 1056.87 285.84 1057.18 286.39 1115.06 252.84 1173.41 287.64 1233.43 252.84 1291.77 287.63 1351.97 252.95 1409.5 287.28 1412.49 282.41 1352.14 246.4 1291.94 281.09 1233.59 246.29 1173.57 281.08 1115.22 246.29 1056.98 280.05 998.79 245.51 938.91 280.2 880.24 245.41 820.54 280.2 761.87 245.41 703.78 279.26 645.25 244.69 585.69 279.4 526.7 244.58 467.31 279.39 408.33 244.58 350.71 278.36 291.88 243.8 232.64 278.51 173.33 243.7 114.27 278.51 54.96 243.7 -4.85 278.95 -1.97 283.82"/>
        <polygon class="st2" points="-1.9 291.17 55.01 257.62 114.32 292.44 173.38 257.62 232.68 292.43 291.92 257.73 350.35 292.05 350.69 291.47 351.03 292.05 408.25 258.51 467.23 293.32 526.62 258.51 585.6 293.32 645.16 258.61 703.27 292.94 703.74 292.15 704.14 292.85 761.66 259.33 820.33 294.12 880.03 259.33 938.7 294.12 998.57 259.43 1056.37 293.73 1056.72 293.15 1057.05 293.73 1114.88 260.21 1173.23 295 1233.25 260.21 1291.6 295 1351.79 260.31 1409.28 294.62 1412.36 289.59 1351.97 253.55 1291.77 288.24 1233.41 253.44 1173.39 288.23 1115.05 253.44 1056.84 287.18 998.68 252.67 938.8 287.35 880.13 252.56 820.43 287.35 761.76 252.56 703.7 286.39 645.21 251.84 585.64 286.55 526.66 251.74 467.27 286.55 408.29 251.74 350.7 285.5 291.91 250.96 232.67 285.67 173.36 250.85 114.29 285.66 54.99 250.85 -4.87 286.14 -1.9 291.17"/>
        <polygon class="st2" points="-1.82 298.51 55.04 264.99 114.34 299.81 173.4 264.99 232.71 299.8 291.95 265.1 350.33 299.4 350.68 298.79 351.04 299.39 408.21 265.88 467.19 300.69 526.57 265.88 585.55 300.69 645.12 265.98 703.18 300.28 703.67 299.47 704.08 300.19 761.55 266.69 820.22 301.49 879.92 266.69 938.59 301.48 998.46 266.8 1056.22 301.07 1056.58 300.47 1056.92 301.07 1114.71 267.58 1173.06 302.37 1233.07 267.58 1291.42 302.37 1351.62 267.68 1409.05 301.96 1412.23 296.77 1351.79 260.7 1291.6 295.39 1233.24 260.59 1173.22 295.39 1114.87 260.59 1056.7 294.31 998.58 259.82 938.7 294.5 880.02 259.71 820.33 294.5 761.66 259.71 703.63 293.53 645.17 259 585.6 293.71 526.61 258.89 467.23 293.7 408.25 258.89 350.69 292.63 291.94 258.12 232.69 292.82 173.38 258.01 114.32 292.82 55.01 258.01 -4.9 293.32 -1.82 298.51"/>
        <path class="st2" d="M1414.43,359.76l2.97-4.8-2.6-1.68-.26-.17,2.82-4.9-2.59-1.67-.11-.07,2.66-5-2.54-1.64.05-.07,2.45-5.04-2.39-1.54.16-.24,2.18-4.96-2.24-1.44.27-.41,1.92-4.89-2.09-1.34.39-.59,1.65-4.82-2.55-1.64-2.61-1.65.03-.05-3.13-1.87,3.26-5.31-60.49-36.1-60.2,34.69-58.35-34.8-60.02,34.79-58.35-34.79-58.14,33.7-58.09-34.48-59.88,34.69-58.67-34.8-59.7,34.79-58.67-34.79-58,33.8-58.42-34.51-59.56,34.71-58.99-34.82-59.38,34.81-58.98-34.81-57.52,33.72-58.72-34.5-59.24,34.71-59.31-34.82-59.06,34.81-59.31-34.81-59.96,35.34,3.15,5.32-3.17,1.87.02.03-3.52,2.11-12.39,7.45,1.42,4.87.39.65,16.47-9.91.51-.3.02.04-2.78,1.64-3.79,2.27-12.42,7.47,1.69,4.95.29.49-2.17,1.31,1.95,5.03.19.31-2.33,1.4,2.22,5.11.08.14-2.49,1.5,2.46,5.15-2.65,1.6,2.63,5.05-2.82,1.7,2.79,4.95-2.98,1.79,3.68,6.09,7.55-4.54.39,111.15h351.22v.88h351.43v.69h351.2l-.02.88h365.78l1.52-113.82,2.89,1.86,3.95-6-3.02-1.94-.03.02h0ZM350.69,313.53l-.04-.03.04.02h0ZM350.67,306.91l-.34-.2.35-.59.34.59-.35.2ZM703.42,314.42l-.04-.03.04.02h0ZM703.47,307.81l-.36-.21h0l.48-.81.41.71-.53.31h0ZM1056.32,315.2l-.04-.03.04.02h0ZM1056.43,308.58l-.34-.2.36-.59.33.59-.35.2ZM1408.96,316.05h.01l.17.1-.18-.1Z"/>
      </g>
    </g>
  </g>
  <g class="st1">
    <g id="Layer_12" data-name="Layer_1">
      <g class="st3">
        <polygon class="st2" points="1178.7 66.63 1178.72 66.64 1238.74 31.85 1297.07 66.63 1297.09 66.64 1357.29 31.95 1416.2 67.11 1416.25 67.04 1357.31 31.86 1357.29 31.85 1297.09 66.54 1238.76 31.76 1238.74 31.74 1178.72 66.54 1120.4 31.76 1120.37 31.74 1061.13 66.09 1001.98 30.98 1001.96 30.97 942.08 65.65 883.43 30.87 883.41 30.86 823.71 65.65 765.06 30.87 765.04 30.86 706.08 65.22 646.5 30.02 646.48 30.01 586.91 64.72 527.95 29.92 527.93 29.91 468.55 64.72 409.58 29.92 409.56 29.91 350.95 64.27 291.15 29.14 291.13 29.13 231.89 63.83 172.6 29.03 172.58 29.02 113.52 63.83 54.23 29.03 54.21 29.02 -4.2 63.45 -4.15 63.52 54.21 29.12 113.5 63.92 113.52 63.94 172.58 29.12 231.86 63.92 231.89 63.94 291.13 29.23 350.86 64.32 350.84 64.33 350.88 64.41 350.95 64.37 351.01 64.41 351.06 64.33 351.03 64.32 409.56 30.01 468.52 64.81 468.55 64.82 527.93 30.01 586.89 64.81 586.91 64.82 646.48 30.11 706.01 65.28 706.05 65.34 765.04 30.96 823.69 65.74 823.71 65.76 883.41 30.96 942.05 65.74 942.08 65.76 1001.95 31.07 1061.04 66.14 1061.02 66.15 1061.06 66.23 1061.13 66.19 1061.2 66.23 1061.24 66.15 1061.22 66.14 1120.37 31.85 1178.7 66.63"/>
        <polygon class="st2" points="-4.08 70.87 54.24 36.5 113.54 71.31 172.61 36.5 231.84 71.27 231.91 71.31 291.16 36.6 350.83 71.66 350.89 71.75 350.94 71.72 350.99 71.75 351.05 71.66 409.52 37.38 468.5 72.19 527.89 37.38 586.8 72.15 586.87 72.19 646.44 37.49 705.95 72.64 705.95 72.63 705.99 72.68 764.93 38.33 823.6 73.12 883.3 38.33 941.9 73.08 941.97 73.12 1001.85 38.44 1060.88 73.47 1060.93 73.57 1060.99 73.53 1061.04 73.57 1061.1 73.47 1120.19 39.21 1178.54 74.01 1238.56 39.21 1296.84 73.96 1296.91 74.01 1357.11 39.32 1415.98 74.45 1416.12 74.21 1357.19 39.04 1357.12 39 1296.92 73.69 1238.64 38.94 1238.57 38.9 1178.55 73.69 1120.27 38.94 1120.2 38.9 1060.99 73.22 1001.92 38.16 1001.85 38.12 941.97 72.8 883.37 38.05 883.3 38.01 823.6 72.8 765 38.05 764.93 38.01 706.01 72.35 646.51 37.21 646.44 37.17 586.87 71.87 527.96 37.1 527.89 37.06 468.51 71.87 409.59 37.1 409.52 37.06 350.94 71.4 291.22 36.32 291.16 36.28 231.91 70.99 172.67 36.22 172.61 36.18 113.54 70.99 54.31 36.22 54.24 36.18 -4.22 70.63 -4.08 70.87"/>
        <polygon class="st2" points="-4 78.21 54.26 43.87 113.45 78.61 113.57 78.68 172.63 43.87 231.94 78.68 291.18 43.97 350.85 79.03 350.89 79.1 350.93 79.07 350.97 79.1 351.02 79.02 409.48 44.75 468.34 79.5 468.46 79.56 527.84 44.75 586.83 79.56 646.39 44.86 705.86 79.98 705.88 79.94 705.93 80.02 764.82 45.7 823.38 80.42 823.49 80.49 883.19 45.7 941.86 80.49 1001.74 45.8 1060.76 80.83 1060.8 80.9 1060.84 80.88 1060.89 80.91 1060.93 80.83 1120.02 46.58 1178.25 81.3 1178.37 81.37 1238.39 46.58 1296.73 81.37 1356.93 46.69 1415.76 81.79 1416 81.39 1357.06 46.22 1356.95 46.15 1296.75 80.84 1238.51 46.12 1238.4 46.05 1178.38 80.84 1120.15 46.12 1120.03 46.05 1060.85 80.35 1001.86 45.34 1001.75 45.27 941.87 79.96 883.31 45.23 883.2 45.16 823.5 79.96 764.94 45.23 764.83 45.16 705.93 79.49 646.51 44.39 646.4 44.32 586.83 79.03 527.96 44.29 527.85 44.22 468.46 79.03 409.6 44.29 409.48 44.22 350.93 78.54 291.3 43.51 291.18 43.44 231.94 78.15 172.75 43.4 172.63 43.33 113.57 78.15 54.38 43.4 54.26 43.33 -4.24 77.82 -4 78.21"/>
        <polygon class="st2" points="-3.93 85.55 54.29 51.24 113.6 86.05 172.66 51.24 231.96 86.05 291.21 51.34 350.87 86.39 350.9 86.44 350.92 86.42 350.95 86.44 350.98 86.39 409.43 52.12 468.42 86.93 527.8 52.12 586.79 86.93 646.35 52.23 705.77 87.32 705.81 87.26 705.86 87.36 764.71 53.06 823.38 87.86 883.08 53.06 941.75 87.85 1001.63 53.17 1060.65 88.2 1060.67 88.24 1060.7 88.23 1060.73 88.24 1060.76 88.19 1119.84 53.95 1178.19 88.74 1238.21 53.95 1296.56 88.74 1356.75 54.05 1415.53 89.13 1415.87 88.57 1356.93 53.4 1356.77 53.3 1296.58 87.99 1238.23 53.2 1178.21 87.99 1119.86 53.2 1060.72 87.48 1001.8 52.52 1001.64 52.42 941.76 87.11 883.09 52.31 823.39 87.11 764.72 52.31 705.85 86.62 646.52 51.57 646.36 51.48 586.79 86.19 527.81 51.37 468.42 86.19 409.44 51.37 350.92 85.68 291.37 50.69 291.21 50.59 231.96 85.3 172.66 50.49 113.59 85.3 54.29 50.49 -4.26 85 -3.93 85.55"/>
        <polygon class="st2" points="-3.86 92.9 54.32 58.61 113.62 93.42 172.68 58.61 231.99 93.42 291.23 58.71 350.89 93.76 350.9 93.78 350.91 93.77 350.93 93.78 350.94 93.76 409.39 59.49 468.38 94.31 527.76 59.49 586.74 94.31 646.31 59.6 705.68 94.67 705.73 94.58 705.8 94.7 764.6 60.43 823.27 95.22 882.97 60.43 941.64 95.22 1001.52 60.53 1060.53 95.56 1060.55 95.58 1060.56 95.57 1060.57 95.58 1060.59 95.56 1119.66 61.31 1178.01 96.11 1238.03 61.31 1296.38 96.11 1356.58 61.42 1415.31 96.47 1415.75 95.75 1356.6 60.46 1296.4 95.14 1238.05 60.35 1178.04 95.14 1119.69 60.35 1060.58 94.61 1001.53 59.57 941.66 94.26 882.99 59.47 823.29 94.26 764.62 59.47 705.78 93.76 646.31 58.63 586.75 93.34 527.77 58.53 468.38 93.34 409.4 58.53 350.91 92.81 291.23 57.75 231.99 92.46 172.68 57.64 113.62 92.46 54.31 57.64 -4.28 92.18 -3.86 92.9"/>
        <polygon class="st2" points="-3.79 100.24 54.34 65.98 113.65 100.79 172.71 65.98 231.76 100.64 232.01 100.79 291.26 66.08 350.91 101.13 350.91 101.12 409.35 66.86 468.33 101.68 527.72 66.86 586.45 101.53 586.7 101.68 646.27 66.97 705.59 102.01 705.66 101.9 705.74 102.04 764.49 67.8 823.16 102.59 882.86 67.8 941.28 102.44 941.53 102.59 1001.41 67.9 1060.42 102.92 1119.49 68.68 1177.83 103.47 1237.85 68.68 1295.95 103.32 1296.2 103.47 1356.4 68.78 1415.09 103.81 1415.62 102.93 1356.43 67.61 1296.23 102.29 1237.88 67.5 1177.86 102.29 1119.51 67.5 1060.44 101.75 1001.43 66.72 941.55 101.41 882.88 66.62 823.18 101.41 764.51 66.62 705.7 100.89 646.27 65.79 586.71 100.5 527.72 65.68 468.34 100.5 409.36 65.68 350.91 99.95 291.26 64.91 232.01 99.61 172.71 64.8 113.64 99.61 54.34 64.8 -4.3 99.37 -3.79 100.24"/>
        <polygon class="st2" points="-3.71 107.58 54.37 73.35 113.67 108.16 172.74 73.35 232.04 108.16 291.28 73.46 350.89 108.47 350.9 108.45 350.91 108.47 409.31 74.23 468.29 109.05 527.68 74.23 586.66 109.05 646.22 74.34 705.5 109.35 705.59 109.21 705.68 109.38 764.39 75.16 823.06 109.95 882.75 75.16 941.42 109.95 1001.3 75.27 1060.26 110.26 1060.28 110.24 1060.29 110.26 1119.31 76.05 1177.66 110.84 1237.68 76.05 1296.02 110.84 1356.22 76.15 1414.86 111.15 1415.5 110.11 1356.26 74.76 1296.06 109.45 1237.71 74.65 1177.69 109.45 1119.34 74.65 1060.3 108.88 1001.32 73.88 941.44 108.56 882.77 73.77 823.08 108.56 764.41 73.77 705.62 108.03 646.23 72.95 586.67 107.65 527.68 72.84 468.3 107.65 409.32 72.84 350.9 107.09 291.28 72.06 232.04 106.77 172.73 71.96 113.67 106.77 54.36 71.96 -4.33 106.55 -3.71 107.58"/>
        <polygon class="st2" points="-3.64 114.93 54.39 80.72 113.7 115.53 172.76 80.72 232.07 115.53 291.31 80.83 350.86 115.81 350.89 115.77 350.91 115.81 409.26 81.61 468.25 116.42 527.63 81.61 586.62 116.42 646.18 81.71 705.41 116.7 705.51 116.53 705.62 116.72 764.28 82.53 822.95 117.32 882.64 82.53 941.31 117.32 1001.19 82.63 1060.11 117.6 1060.13 117.56 1060.16 117.6 1119.13 83.41 1177.48 118.21 1237.5 83.41 1295.85 118.2 1356.05 83.52 1414.64 118.48 1415.37 117.29 1356.09 81.91 1295.89 116.6 1237.54 81.8 1177.52 116.6 1119.17 81.8 1060.16 116.01 1001.22 81.03 941.34 115.71 882.67 80.92 822.97 115.71 764.3 80.92 705.55 115.16 646.19 80.1 586.63 114.81 527.64 80 468.26 114.81 409.27 80 350.89 114.22 291.31 79.22 232.06 113.93 172.76 79.11 113.69 113.93 54.39 79.11 -4.35 113.73 -3.64 114.93"/>
        <polygon class="st2" points="-3.57 122.27 54.42 88.09 113.72 122.91 172.79 88.09 232.09 122.9 291.33 88.2 350.84 123.16 350.88 123.09 350.92 123.16 409.22 88.98 468.21 123.79 527.59 88.98 586.57 123.79 646.14 89.08 705.32 124.04 705.44 123.85 705.56 124.05 764.17 89.9 822.84 124.69 882.54 89.9 941.2 124.69 1001.08 90 1059.95 124.94 1059.99 124.87 1060.03 124.94 1118.96 90.78 1177.3 125.57 1237.32 90.78 1295.67 125.57 1355.87 90.88 1414.42 125.82 1415.25 124.47 1355.92 89.06 1295.72 123.75 1237.37 88.96 1177.35 123.75 1119 88.96 1060.02 123.14 1001.11 88.18 941.23 122.87 882.56 88.07 822.86 122.86 764.19 88.07 705.47 122.3 646.15 87.26 586.59 121.97 527.6 87.15 468.22 121.97 409.23 87.15 350.88 121.36 291.33 86.37 232.09 121.08 172.78 86.27 113.72 121.08 54.41 86.27 -4.37 120.92 -3.57 122.27"/>
        <polygon class="st2" points="-3.5 129.61 54.44 95.46 113.75 130.28 172.81 95.46 232.12 130.28 291.36 95.57 350.82 130.5 350.87 130.41 350.92 130.5 409.18 96.35 468.16 131.16 527.55 96.35 586.53 131.16 646.1 96.45 705.23 131.38 705.36 131.17 705.49 131.39 764.06 97.26 822.73 132.05 882.43 97.26 941.1 132.05 1000.97 97.37 1059.8 132.28 1059.85 132.19 1059.9 132.28 1118.78 98.15 1177.13 132.94 1237.15 98.15 1295.49 132.94 1355.69 98.25 1414.19 133.16 1415.12 131.65 1355.74 96.21 1295.55 130.9 1237.2 96.11 1177.18 130.9 1118.83 96.11 1059.89 130.27 1001.01 95.33 941.13 130.02 882.46 95.22 822.76 130.02 764.09 95.22 705.39 129.43 646.11 94.41 586.55 129.12 527.56 94.31 468.18 129.12 409.19 94.31 350.87 128.5 291.36 93.53 232.11 128.24 172.81 93.42 113.74 128.24 54.44 93.42 -4.39 128.1 -3.5 129.61"/>
        <polygon class="st2" points="-3.42 136.96 54.47 102.83 113.78 137.65 172.84 102.83 232.14 137.65 291.39 102.94 350.8 137.84 350.87 137.73 350.93 137.84 409.14 103.72 468.12 138.53 527.51 103.72 586.49 138.53 646.05 103.82 705.14 138.73 705.29 138.48 705.43 138.73 763.95 104.63 822.62 139.42 882.32 104.63 940.99 139.42 1000.86 104.73 1059.64 139.62 1059.71 139.51 1059.77 139.62 1118.6 105.51 1176.95 140.31 1236.97 105.51 1295.32 140.3 1355.51 105.62 1413.97 140.5 1414.99 138.83 1355.57 103.37 1295.37 138.05 1237.02 103.26 1177 138.05 1118.66 103.26 1059.75 137.41 1000.9 102.48 941.02 137.17 882.35 102.38 822.65 137.17 763.98 102.38 705.32 136.57 646.07 101.57 586.5 136.28 527.52 101.46 468.14 136.28 409.15 101.46 350.87 135.63 291.38 100.69 232.14 135.39 172.83 100.58 113.77 135.39 54.46 100.58 -4.41 135.28 -3.42 136.96"/>
        <polygon class="st2" points="-3.35 144.3 54.5 110.2 113.8 145.02 172.86 110.2 232.17 145.02 291.41 110.31 350.78 145.19 350.86 145.05 350.93 145.19 409.1 111.09 468.08 145.9 527.46 111.09 586.45 145.9 646.01 111.19 705.06 146.07 705.22 145.8 705.37 146.07 763.84 111.99 822.51 146.79 882.21 112 940.88 146.79 1000.75 112.1 1059.48 146.96 1059.57 146.82 1059.64 146.95 1118.42 112.88 1176.77 147.67 1236.79 112.88 1295.14 147.67 1355.34 112.98 1413.75 147.84 1414.87 146.01 1355.4 110.52 1295.2 145.2 1236.85 110.41 1176.83 145.2 1118.48 110.41 1059.61 144.54 1000.8 109.63 940.92 144.32 882.25 109.53 822.55 144.32 763.88 109.53 705.24 143.7 646.03 108.73 586.46 143.43 527.48 108.62 468.09 143.43 409.11 108.62 350.86 142.77 291.41 107.84 232.16 142.55 172.86 107.73 113.79 142.55 54.49 107.73 -4.44 142.47 -3.35 144.3"/>
        <polygon class="st2" points="-3.28 151.64 54.52 117.58 113.83 152.39 172.89 117.58 232.19 152.39 291.44 117.68 350.76 152.53 350.85 152.37 350.94 152.53 409.05 118.46 468.04 153.27 527.42 118.46 586.4 153.27 645.97 118.56 704.97 153.41 705.14 153.12 705.31 153.41 763.73 119.36 822.4 154.15 882.1 119.36 940.77 154.15 1000.65 119.47 1059.33 154.3 1059.42 154.14 1059.51 154.29 1118.25 120.25 1176.6 155.04 1236.62 120.25 1294.96 155.04 1355.16 120.35 1413.52 155.18 1414.74 153.19 1355.23 117.67 1295.03 152.36 1236.68 117.56 1176.66 152.35 1118.31 117.56 1059.47 151.67 1000.69 116.78 940.81 151.47 882.14 116.68 822.44 151.47 763.77 116.68 705.16 150.84 645.99 115.88 586.42 150.59 527.44 115.77 468.05 150.59 409.07 115.78 350.85 149.9 291.43 115 232.19 149.71 172.88 114.89 113.82 149.7 54.51 114.89 -4.46 149.65 -3.28 151.64"/>
        <polygon class="st2" points="-3.21 158.99 54.55 124.95 113.85 159.76 172.92 124.95 232.22 159.76 291.46 125.05 350.74 159.87 350.84 159.69 350.94 159.87 409.01 125.83 468 160.64 527.38 125.83 586.36 160.64 645.93 125.94 704.88 160.76 705.07 160.44 705.25 160.75 763.62 126.73 822.29 161.52 881.99 126.73 940.66 161.52 1000.54 126.83 1059.17 161.63 1059.28 161.46 1059.38 161.63 1118.07 127.61 1176.42 162.4 1236.44 127.61 1294.78 162.4 1354.98 127.72 1413.3 162.52 1414.62 160.36 1355.06 124.82 1294.86 159.51 1236.51 124.71 1176.49 159.51 1118.14 124.71 1059.33 158.8 1000.58 123.94 940.71 158.62 882.03 123.83 822.34 158.62 763.67 123.83 705.09 157.97 645.95 123.04 586.38 157.75 527.4 122.93 468.01 157.74 409.03 122.93 350.84 157.04 291.46 122.15 232.21 156.86 172.91 122.05 113.84 156.86 54.54 122.05 -4.48 156.83 -3.21 158.99"/>
        <polygon class="st2" points="-3.13 166.33 54.57 132.32 113.88 167.13 172.94 132.32 232.25 167.13 291.49 132.42 350.71 167.22 350.83 167.02 350.95 167.22 408.97 133.2 467.95 168.02 527.34 133.2 586.32 168.01 645.88 133.31 704.79 168.1 704.99 167.75 705.19 168.09 763.51 134.09 822.18 168.89 881.88 134.09 940.55 168.89 1000.43 134.2 1059.02 168.97 1059.14 168.77 1059.25 168.97 1117.89 134.98 1176.24 169.77 1236.26 134.98 1294.61 169.77 1354.81 135.08 1413.08 169.86 1414.49 167.54 1354.89 131.97 1294.69 166.66 1236.34 131.87 1176.32 166.66 1117.97 131.87 1059.19 165.94 1000.48 131.09 940.6 165.78 881.93 130.98 822.23 165.77 763.56 130.98 705.01 165.1 645.91 130.19 586.34 164.9 527.35 130.09 467.97 164.9 408.99 130.09 350.83 164.18 291.48 129.31 232.24 164.02 172.93 129.2 113.87 164.02 54.56 129.2 -4.5 164.02 -3.13 166.33"/>
        <polygon class="st2" points="-3.06 173.67 54.6 139.69 113.9 174.5 172.97 139.69 232.27 174.5 291.51 139.79 350.69 174.56 350.82 174.34 350.95 174.56 408.93 140.57 467.91 175.39 527.29 140.57 586.28 175.38 645.84 140.68 704.7 175.44 704.92 175.07 705.13 175.43 763.41 141.46 822.08 176.25 881.77 141.46 940.44 176.25 1000.32 141.57 1058.86 176.31 1059 176.09 1059.12 176.31 1117.72 142.35 1176.06 177.14 1236.08 142.35 1294.43 177.14 1354.63 142.45 1412.85 177.2 1414.37 174.72 1354.71 139.12 1294.51 173.81 1236.16 139.02 1176.14 173.81 1117.8 139.02 1059.06 173.07 1000.37 138.24 940.49 172.93 881.82 138.13 822.12 172.93 763.45 138.13 704.93 172.24 645.86 137.35 586.3 172.06 527.31 137.24 467.93 172.06 408.95 137.24 350.83 171.31 291.51 136.47 232.26 171.17 172.96 136.36 113.89 171.17 54.59 136.36 -4.52 171.2 -3.06 173.67"/>
        <polygon class="st2" points="-2.99 181.02 54.62 147.06 113.93 181.87 172.99 147.06 232.3 181.87 291.54 147.16 350.67 181.9 350.82 181.66 350.96 181.9 408.88 147.94 467.87 182.76 527.25 147.94 586.23 182.76 645.8 148.05 704.61 182.79 704.85 182.39 705.06 182.77 763.3 148.83 821.97 183.62 881.66 148.83 940.33 183.62 1000.21 148.93 1058.71 183.65 1058.86 183.41 1058.99 183.65 1117.54 149.71 1175.89 184.5 1235.91 149.71 1294.25 184.5 1354.45 149.82 1412.63 184.53 1414.24 181.9 1354.54 146.28 1294.34 180.96 1235.99 146.17 1175.97 180.96 1117.62 146.17 1058.92 180.2 1000.27 145.39 940.39 180.08 881.72 145.28 822.02 180.08 763.35 145.28 704.86 179.37 645.82 144.51 586.26 179.21 527.27 144.4 467.89 179.21 408.9 144.4 350.82 178.45 291.53 143.62 232.29 178.33 172.98 143.51 113.92 178.33 54.61 143.51 -4.55 178.38 -2.99 181.02"/>
        <polygon class="st2" points="-2.91 188.36 54.65 154.43 113.96 189.24 173.02 154.43 232.32 189.24 291.57 154.53 350.65 189.25 350.81 188.98 350.96 189.25 408.84 155.31 467.83 190.13 527.21 155.31 586.19 190.13 645.76 155.42 704.52 190.13 704.77 189.71 705 190.1 763.19 156.19 821.86 190.99 881.56 156.19 940.22 190.99 1000.1 156.3 1058.55 190.99 1058.71 190.72 1058.86 190.99 1117.36 157.08 1175.71 191.87 1235.73 157.08 1294.08 191.87 1354.27 157.18 1412.41 191.87 1414.12 189.08 1354.37 153.43 1294.17 188.11 1235.82 153.32 1175.8 188.11 1117.45 153.32 1058.78 187.33 1000.16 152.54 940.28 187.23 881.61 152.44 821.91 187.23 763.24 152.44 704.78 186.51 645.78 151.66 586.22 186.37 527.23 151.55 467.85 186.37 408.86 151.55 350.81 185.59 291.56 150.78 232.31 185.48 173.01 150.67 113.94 185.48 54.64 150.67 -4.57 185.57 -2.91 188.36"/>
        <polygon class="st2" points="-2.84 195.7 54.68 161.8 113.98 196.61 173.04 161.8 232.35 196.61 291.59 161.91 350.63 196.59 350.8 196.3 350.97 196.59 408.8 162.69 467.78 197.5 527.17 162.69 586.15 197.5 645.71 162.79 704.43 197.47 704.7 197.02 704.94 197.44 763.08 163.56 821.75 198.35 881.45 163.56 940.11 198.35 999.99 163.67 1058.4 198.33 1058.57 198.04 1058.73 198.33 1117.19 164.44 1175.53 199.24 1235.55 164.44 1293.9 199.24 1354.1 164.55 1412.18 199.21 1413.99 196.26 1354.2 160.58 1294 195.27 1235.65 160.47 1175.63 195.26 1117.28 160.47 1058.64 194.46 1000.06 159.69 940.18 194.38 881.51 159.59 821.81 194.38 763.14 159.59 704.7 193.64 645.74 158.82 586.18 193.52 527.19 158.71 467.81 193.52 408.82 158.71 350.8 192.72 291.58 157.93 232.34 192.64 173.03 157.83 113.97 192.64 54.66 157.83 -4.59 192.75 -2.84 195.7"/>
        <polygon class="st2" points="-2.77 203.05 54.7 169.17 114.01 203.99 173.07 169.17 232.37 203.98 291.62 169.28 350.61 203.93 350.79 203.62 350.97 203.93 408.76 170.06 467.74 204.87 527.12 170.06 586.11 204.87 645.67 170.16 704.34 204.82 704.63 204.34 704.88 204.78 762.97 170.93 821.64 205.72 881.34 170.93 940 205.72 999.88 171.03 1058.24 205.67 1058.43 205.35 1058.61 205.67 1117.01 171.81 1175.36 206.6 1235.38 171.81 1293.72 206.6 1353.92 171.92 1411.96 206.55 1413.87 203.44 1354.03 167.73 1293.83 202.42 1235.48 167.62 1175.46 202.42 1117.11 167.62 1058.5 201.6 999.95 166.85 940.07 201.53 881.4 166.74 821.7 201.53 763.03 166.74 704.62 200.78 645.7 165.97 586.14 200.68 527.15 165.87 467.77 200.68 408.78 165.87 350.79 199.86 291.61 165.09 232.36 199.8 173.06 164.98 113.99 199.79 54.69 164.98 -4.61 199.93 -2.77 203.05"/>
        <polygon class="st2" points="-2.7 210.39 54.73 176.54 114.03 211.36 173.1 176.54 232.4 211.35 291.64 176.65 350.59 211.28 350.78 210.94 350.98 211.27 408.71 177.43 467.7 212.24 527.08 177.43 586.06 212.24 645.63 177.53 704.25 212.16 704.55 211.66 704.82 212.12 762.86 178.29 821.53 213.09 881.23 178.29 939.9 213.09 999.77 178.4 1058.08 213.01 1058.29 212.67 1058.48 213.01 1116.83 179.18 1175.18 213.97 1235.2 179.18 1293.54 213.97 1353.74 179.28 1411.73 213.89 1413.74 210.62 1353.86 174.88 1293.66 209.57 1235.3 174.77 1175.29 209.57 1116.94 174.77 1058.36 208.73 999.84 174 939.97 208.69 881.29 173.89 821.6 208.68 762.93 173.89 704.55 207.91 645.66 173.13 586.1 207.84 527.11 173.02 467.72 207.83 408.74 173.02 350.79 207 291.63 172.24 232.39 206.95 173.08 172.14 114.02 206.95 54.71 172.14 -4.63 207.12 -2.7 210.39"/>
        <polygon class="st2" points="-2.62 217.73 54.75 183.91 114.06 218.73 173.12 183.91 232.42 218.73 291.67 184.02 350.57 218.62 350.77 218.26 350.98 218.62 408.67 184.8 467.66 219.61 527.04 184.8 586.02 219.61 645.59 184.9 704.16 219.5 704.48 218.98 704.76 219.46 762.75 185.66 821.42 220.45 881.12 185.66 939.79 220.45 999.66 185.76 1057.93 220.35 1058.15 219.99 1058.35 220.34 1116.65 186.54 1175 221.34 1235.02 186.54 1293.37 221.34 1353.57 186.65 1411.51 221.23 1413.61 217.8 1353.68 182.03 1293.48 216.72 1235.13 181.93 1175.11 216.72 1116.77 181.93 1058.22 215.86 999.74 181.15 939.86 215.84 881.19 181.04 821.49 215.83 762.82 181.04 704.47 215.05 645.62 180.28 586.05 214.99 527.07 180.18 467.68 214.99 408.7 180.18 350.78 214.13 291.66 179.4 232.41 214.11 173.11 179.29 114.04 214.11 54.74 179.29 -4.66 214.3 -2.62 217.73"/>
        <polygon class="st2" points="-2.55 225.08 54.78 191.28 114.09 226.1 173.15 191.28 232.45 226.1 291.69 191.39 350.54 225.96 350.77 225.58 350.99 225.96 408.63 192.17 467.61 226.98 527 192.17 585.98 226.98 645.54 192.27 704.07 226.85 704.4 226.29 704.69 226.8 762.64 193.03 821.31 227.82 881.01 193.03 939.68 227.82 999.55 193.13 1057.77 227.68 1058 227.3 1058.22 227.68 1116.48 193.91 1174.83 228.7 1234.85 193.91 1293.19 228.7 1353.39 194.02 1411.29 228.57 1413.49 224.98 1353.51 189.19 1293.31 223.87 1234.96 189.08 1174.94 223.87 1116.59 189.08 1058.09 222.99 999.63 188.3 939.76 222.99 881.08 188.19 821.38 222.99 762.71 188.19 704.39 222.18 645.58 187.44 586.01 222.15 527.03 187.33 467.64 222.15 408.66 187.33 350.77 221.27 291.68 186.56 232.44 221.26 173.13 186.45 114.07 221.26 54.76 186.45 -4.68 221.48 -2.55 225.08"/>
        <polygon class="st2" points="-2.48 232.42 54.8 198.66 114.11 233.47 173.17 198.66 232.48 233.47 291.72 198.76 350.52 233.31 350.76 232.9 350.99 233.3 408.59 199.54 467.57 234.35 526.96 199.54 585.94 234.35 645.5 199.64 703.99 234.19 704.33 233.61 704.63 234.14 762.53 200.39 821.2 235.19 880.9 200.39 939.57 235.18 999.45 200.5 1057.62 235.02 1057.86 234.62 1058.09 235.02 1116.3 201.28 1174.65 236.07 1234.67 201.28 1293.01 236.07 1353.21 201.38 1411.06 235.91 1413.36 232.16 1353.34 196.34 1293.14 231.02 1234.79 196.23 1174.77 231.02 1116.42 196.23 1057.95 230.13 999.53 195.45 939.65 230.14 880.98 195.35 821.28 230.14 762.61 195.35 704.32 229.32 645.54 194.6 585.97 229.3 526.98 194.49 467.6 229.3 408.62 194.49 350.76 228.41 291.71 193.71 232.46 228.42 173.16 193.6 114.09 228.42 54.79 193.6 -4.7 228.67 -2.48 232.42"/>
        <polygon class="st2" points="-2.41 239.76 54.83 206.03 114.14 240.84 173.2 206.03 232.5 240.84 291.74 206.13 350.5 240.65 350.75 240.22 351 240.65 408.55 206.91 467.53 241.72 526.91 206.91 585.89 241.72 645.46 207.02 703.9 241.53 704.26 240.93 704.57 241.48 762.42 207.76 821.09 242.55 880.79 207.76 939.46 242.55 999.34 207.86 1057.46 242.36 1057.72 241.94 1057.96 242.36 1116.12 208.64 1174.47 243.44 1234.49 208.64 1292.84 243.43 1353.03 208.75 1410.84 243.25 1413.24 239.34 1353.17 203.49 1292.97 238.18 1234.62 203.38 1174.6 238.17 1116.25 203.38 1057.81 237.26 999.42 202.6 939.54 237.29 880.87 202.5 821.17 237.29 762.5 202.5 704.24 236.45 645.5 201.75 585.93 236.46 526.94 201.64 467.56 236.46 408.58 201.64 350.75 235.54 291.73 200.87 232.49 235.58 173.18 200.76 114.12 235.57 54.81 200.76 -4.72 235.85 -2.41 239.76"/>
        <polygon class="st2" points="-2.33 247.11 54.86 213.4 114.16 248.21 173.22 213.4 232.53 248.21 291.77 213.5 350.48 247.99 350.74 247.54 351 247.99 408.5 214.28 467.49 249.1 526.87 214.28 585.85 249.09 645.42 214.39 703.81 248.88 704.18 248.24 704.51 248.82 762.32 215.13 820.99 249.92 880.68 215.13 939.35 249.92 999.23 215.23 1057.31 249.7 1057.58 249.25 1057.83 249.7 1115.95 216.01 1174.29 250.8 1234.31 216.01 1292.66 250.8 1352.86 216.11 1410.62 250.58 1413.11 246.52 1353 210.64 1292.8 245.33 1234.45 210.53 1174.43 245.33 1116.08 210.53 1057.67 244.39 999.32 209.76 939.44 244.44 880.76 209.65 821.07 244.44 762.4 209.65 704.16 243.59 645.46 208.91 585.89 243.62 526.9 208.8 467.52 243.61 408.53 208.8 350.75 242.68 291.76 208.02 232.51 242.73 173.21 207.92 114.14 242.73 54.84 207.92 -4.74 243.03 -2.33 247.11"/>
        <polygon class="st2" points="-2.26 254.45 54.88 220.77 114.19 255.58 173.25 220.77 232.55 255.58 291.8 220.87 350.46 255.34 350.73 254.87 351.01 255.33 408.46 221.65 467.45 256.47 526.83 221.65 585.81 256.46 645.37 221.76 703.72 256.22 704.11 255.56 704.45 256.15 762.21 222.49 820.88 257.29 880.57 222.49 939.24 257.28 999.12 222.6 1057.15 257.04 1057.44 256.57 1057.7 257.04 1115.77 223.38 1174.12 258.17 1234.14 223.38 1292.48 258.17 1352.68 223.48 1410.39 257.92 1412.99 253.69 1352.83 217.79 1292.63 252.48 1234.27 217.68 1174.25 252.48 1115.91 217.68 1057.53 251.52 999.21 216.91 939.33 251.6 880.66 216.8 820.96 251.59 762.29 216.8 704.09 250.72 645.41 216.06 585.85 250.77 526.86 215.96 467.48 250.77 408.49 215.96 350.74 249.81 291.78 215.18 232.54 249.89 173.23 215.07 114.17 249.89 54.86 215.07 -4.76 250.22 -2.26 254.45"/>
        <polygon class="st2" points="-2.19 261.79 54.91 228.14 114.21 262.95 173.28 228.14 232.58 262.95 291.82 228.24 350.44 262.68 350.73 262.19 351.01 262.68 408.42 229.02 467.4 263.84 526.79 229.02 585.77 263.84 645.33 229.13 703.63 263.56 704.03 262.88 704.39 263.49 762.1 229.86 820.77 264.65 880.47 229.86 939.13 264.65 999.01 229.96 1057 264.38 1057.29 263.89 1057.57 264.38 1115.59 230.74 1173.94 265.54 1233.96 230.74 1292.3 265.53 1352.5 230.85 1410.17 265.26 1412.86 260.87 1352.65 224.94 1292.45 259.63 1234.1 224.84 1174.08 259.63 1115.73 224.84 1057.39 258.65 999.11 224.06 939.23 258.75 880.55 223.95 820.86 258.74 762.19 223.95 704.01 257.86 645.37 223.22 585.81 257.93 526.82 223.11 467.44 257.93 408.45 223.11 350.73 256.95 291.81 222.34 232.57 257.04 173.26 222.23 114.19 257.04 54.89 222.23 -4.79 257.4 -2.19 261.79"/>
        <polygon class="st2" points="-2.12 269.14 54.93 235.51 114.24 270.32 173.3 235.51 232.6 270.32 291.85 235.61 350.42 270.02 350.72 269.51 351.02 270.02 408.38 236.39 467.36 271.21 526.74 236.39 585.72 271.21 645.29 236.5 703.54 270.91 703.96 270.2 704.33 270.83 761.99 237.23 820.66 272.02 880.36 237.23 939.02 272.02 998.9 237.33 1056.84 271.72 1057.15 271.2 1057.44 271.72 1115.41 238.11 1173.76 272.9 1233.78 238.11 1292.13 272.9 1352.33 238.21 1409.95 272.6 1412.74 268.05 1352.48 232.09 1292.28 266.78 1233.93 231.99 1173.91 266.78 1115.56 231.99 1057.26 265.79 999 231.21 939.12 265.9 880.45 231.1 820.75 265.9 762.08 231.1 703.93 264.99 645.33 230.38 585.77 265.08 526.78 230.27 467.4 265.08 408.41 230.27 350.72 264.09 291.83 229.49 232.59 264.2 173.28 229.38 114.22 264.2 54.91 229.38 -4.81 264.59 -2.12 269.14"/>
        <polygon class="st2" points="-2.04 276.48 54.96 242.88 114.27 277.7 173.33 242.88 232.63 277.69 291.87 242.99 350.39 277.37 350.71 276.83 351.02 277.36 408.33 243.77 467.32 278.58 526.7 243.77 585.68 278.58 645.25 243.87 703.45 278.25 703.89 277.51 704.26 278.17 761.88 244.59 820.55 279.39 880.25 244.59 938.91 279.38 998.79 244.7 1056.68 279.06 1057.01 278.52 1057.31 279.06 1115.24 245.48 1173.59 280.27 1233.61 245.48 1291.95 280.27 1352.15 245.58 1409.72 279.94 1412.61 275.23 1352.31 239.25 1292.11 273.93 1233.76 239.14 1173.74 273.93 1115.39 239.14 1057.12 272.92 998.89 238.36 939.02 273.05 880.34 238.25 820.64 273.05 761.97 238.25 703.86 272.13 645.29 237.53 585.73 272.24 526.74 237.42 467.35 272.24 408.37 237.42 350.71 271.22 291.86 236.65 232.62 271.36 173.31 236.54 114.24 271.35 54.94 236.54 -4.83 271.77 -2.04 276.48"/>
        <polygon class="st2" points="-1.97 283.82 54.99 250.25 114.29 285.07 173.35 250.25 232.65 285.06 291.9 250.36 350.37 284.71 350.7 284.15 351.03 284.71 408.29 251.14 467.28 285.95 526.66 251.14 585.64 285.95 645.2 251.24 703.36 285.59 703.81 284.83 704.2 285.51 761.77 251.96 820.44 286.75 880.14 251.96 938.8 286.75 998.68 252.06 1056.53 286.4 1056.87 285.84 1057.18 286.39 1115.06 252.84 1173.41 287.64 1233.43 252.84 1291.77 287.63 1351.97 252.95 1409.5 287.28 1412.49 282.41 1352.14 246.4 1291.94 281.09 1233.59 246.29 1173.57 281.08 1115.22 246.29 1056.98 280.05 998.79 245.51 938.91 280.2 880.24 245.41 820.54 280.2 761.87 245.41 703.78 279.26 645.25 244.69 585.69 279.4 526.7 244.58 467.31 279.39 408.33 244.58 350.71 278.36 291.88 243.8 232.64 278.51 173.33 243.7 114.27 278.51 54.96 243.7 -4.85 278.95 -1.97 283.82"/>
        <polygon class="st2" points="-1.9 291.17 55.01 257.62 114.32 292.44 173.38 257.62 232.68 292.43 291.92 257.73 350.35 292.05 350.69 291.47 351.03 292.05 408.25 258.51 467.23 293.32 526.62 258.51 585.6 293.32 645.16 258.61 703.27 292.94 703.74 292.15 704.14 292.85 761.66 259.33 820.33 294.12 880.03 259.33 938.7 294.12 998.57 259.43 1056.37 293.73 1056.72 293.15 1057.05 293.73 1114.88 260.21 1173.23 295 1233.25 260.21 1291.6 295 1351.79 260.31 1409.28 294.62 1412.36 289.59 1351.97 253.55 1291.77 288.24 1233.41 253.44 1173.39 288.23 1115.05 253.44 1056.84 287.18 998.68 252.67 938.8 287.35 880.13 252.56 820.43 287.35 761.76 252.56 703.7 286.39 645.21 251.84 585.64 286.55 526.66 251.74 467.27 286.55 408.29 251.74 350.7 285.5 291.91 250.96 232.67 285.67 173.36 250.85 114.29 285.66 54.99 250.85 -4.87 286.14 -1.9 291.17"/>
        <polygon class="st2" points="-1.82 298.51 55.04 264.99 114.34 299.81 173.4 264.99 232.71 299.8 291.95 265.1 350.33 299.4 350.68 298.79 351.04 299.39 408.21 265.88 467.19 300.69 526.57 265.88 585.55 300.69 645.12 265.98 703.18 300.28 703.67 299.47 704.08 300.19 761.55 266.69 820.22 301.49 879.92 266.69 938.59 301.48 998.46 266.8 1056.22 301.07 1056.58 300.47 1056.92 301.07 1114.71 267.58 1173.06 302.37 1233.07 267.58 1291.42 302.37 1351.62 267.68 1409.05 301.96 1412.23 296.77 1351.79 260.7 1291.6 295.39 1233.24 260.59 1173.22 295.39 1114.87 260.59 1056.7 294.31 998.58 259.82 938.7 294.5 880.02 259.71 820.33 294.5 761.66 259.71 703.63 293.53 645.17 259 585.6 293.71 526.61 258.89 467.23 293.7 408.25 258.89 350.69 292.63 291.94 258.12 232.69 292.82 173.38 258.01 114.32 292.82 55.01 258.01 -4.9 293.32 -1.82 298.51"/>
        <path class="st2" d="M1414.43,359.76l2.97-4.8-2.6-1.68-.26-.17,2.82-4.9-2.59-1.67-.11-.07,2.66-5-2.54-1.64.05-.07,2.45-5.04-2.39-1.54.16-.24,2.18-4.96-2.24-1.44.27-.41,1.92-4.89-2.09-1.34.39-.59,1.65-4.82-2.55-1.64-2.61-1.65.03-.05-3.13-1.87,3.26-5.31-60.49-36.1-60.2,34.69-58.35-34.8-60.02,34.79-58.35-34.79-58.14,33.7-58.09-34.48-59.88,34.69-58.67-34.8-59.7,34.79-58.67-34.79-58,33.8-58.42-34.51-59.56,34.71-58.99-34.82-59.38,34.81-58.98-34.81-57.52,33.72-58.72-34.5-59.24,34.71-59.31-34.82-59.06,34.81-59.31-34.81-59.96,35.34,3.15,5.32-3.17,1.87.02.03-3.52,2.11-12.39,7.45,1.42,4.87.39.65,16.47-9.91.51-.3.02.04-2.78,1.64-3.79,2.27-12.42,7.47,1.69,4.95.29.49-2.17,1.31,1.95,5.03.19.31-2.33,1.4,2.22,5.11.08.14-2.49,1.5,2.46,5.15-2.65,1.6,2.63,5.05-2.82,1.7,2.79,4.95-2.98,1.79,3.68,6.09,7.55-4.54.39,111.15h351.22v.88h351.43v.69h351.2l-.02.88h365.78l1.52-113.82,2.89,1.86,3.95-6-3.02-1.94-.03.02h0ZM350.69,313.53l-.04-.03.04.02h0ZM350.67,306.91l-.34-.2.35-.59.34.59-.35.2ZM703.42,314.42l-.04-.03.04.02h0ZM703.47,307.81l-.36-.21h0l.48-.81.41.71-.53.31h0ZM1056.32,315.2l-.04-.03.04.02h0ZM1056.43,308.58l-.34-.2.36-.59.33.59-.35.2ZM1408.96,316.05h.01l.17.1-.18-.1Z"/>
      </g>
    </g>
  </g>
</svg>