<?xml version="1.0" encoding="UTF-8"?>
<svg id="Layer_1" xmlns="http://www.w3.org/2000/svg" version="1.1" viewBox="0 0 47.8 45.2">
  <!-- Generator: Adobe Illustrator 29.0.1, SVG Export Plug-In . SVG Version: 2.1.0 Build 192)  -->
  <defs>
    <style>
      .st0 {
        fill: #fff;
      }

      .st1 {
        opacity: .2;
      }
    </style>
  </defs>
  <g class="st1">
    <path class="st0" d="M36.1,50.3c-9.2,0-16.6-7.5-16.6-16.6,0-9.2,7.5-16.6,16.6-16.6,9.2,0,16.6,7.5,16.6,16.6,0,9.2-7.5,16.6-16.6,16.6ZM36.1,19.2c-8,0-14.5,6.5-14.5,14.5,0,8,6.5,14.5,14.5,14.5,8,0,14.5-6.5,14.5-14.5s-6.5-14.5-14.5-14.5Z"/>
    <g>
      <rect class="st0" x="35.7" y="20.6" width="1" height="4.2"/>
      <g>
        <rect class="st0" x="45.6" y="33.3" width="3.9" height="1.1"/>
        <g>
          <rect class="st0" x="35.7" y="20.8" width="1.1" height="3.9"/>
          <rect class="st0" x="45.3" y="27.6" width="2.3" height=".7" transform="translate(-7.8 27.6) rotate(-30.6)"/>
          <rect class="st0" x="41" y="23.3" width="2.3" height=".7" transform="translate(.7 48.5) rotate(-60.2)"/>
        </g>
      </g>
      <g>
        <rect class="st0" x="41.7" y="43" width=".7" height="2.3" transform="translate(-16.7 27.7) rotate(-30.8)"/>
        <rect class="st0" x="46" y="38.7" width=".7" height="2.3" transform="translate(-11.3 60.4) rotate(-60.3)"/>
      </g>
      <g>
        <rect class="st0" x="36" y="33.2" width="1.5" height="2.9" transform="translate(-13.6 38.2) rotate(-47.3)"/>
        <rect class="st0" x="41" y="33.2" width=".5" height="10.8" transform="translate(-15.1 42.7) rotate(-47.3)"/>
      </g>
      <path class="st0" d="M42.2,41l-1.4-1.3c-1.5,1.5-2.9,2.8-4.7,4.1-2.8-2.3-5.4-4.5-7.4-7.4-1.6-2.3-3-6.2-.4-8.1,2.5-1.6,6-.9,7.8,1.4v-2.5c-.6-.6-1.2-1.1-2-1.4-3-1.4-7.2-.6-8.9,2.5-2,3.9.5,8,3,10.9,2.3,2.6,5,4.7,7.9,6.6h0c2.1-1.4,4.2-2.9,6-4.7h0s0,0,0,0Z"/>
    </g>
  </g>
</svg>