<?xml version="1.0" encoding="UTF-8"?>
<svg id="Layer_1" xmlns="http://www.w3.org/2000/svg" width="642.9" height="1466.8" version="1.1" viewBox="0 0 642.9 1466.8">
  <!-- Generator: Adobe Illustrator 29.1.0, SVG Export Plug-In . SVG Version: 2.1.0 Build 142)  -->
  <defs>
    <style>
      .st0 {
        opacity: .7;
      }

      .st0, .st1 {
        fill: #bacad3;
      }

      .st1 {
        opacity: .7;
      }
    </style>
  </defs>
  <rect class="st1" x="1269.3" y="-189.9" width="10.2" height="1192.3" transform="translate(86 1020.1) rotate(-45)"/>
  <rect class="st1" x="1240.9" y="-170.5" width="10.2" height="1199.8" transform="translate(61.3 1006.8) rotate(-45)"/>
  <rect class="st1" x="1215.1" y="-144.7" width="10.2" height="1199.8" transform="translate(35.5 996.1) rotate(-45)"/>
  <rect class="st1" x="1189.3" y="-118.9" width="10.2" height="1199.8" transform="translate(9.8 985.4) rotate(-45)"/>
  <rect class="st1" x="1163.5" y="-93.2" width="10.2" height="1199.8" transform="translate(-16 974.7) rotate(-45)"/>
  <rect class="st1" x="1137.7" y="-67.4" width="10.2" height="1199.8" transform="translate(-41.8 964.1) rotate(-45)"/>
  <rect class="st1" x="1111.9" y="-41.6" width="10.2" height="1199.8" transform="translate(-67.6 953.4) rotate(-45)"/>
  <polygon class="st1" points="1326.6 812.3 1319.4 819.5 1511.8 1011.9 1515.6 1008.1 1519 1004.7 1326.6 812.3"/>
  <polygon class="st1" points="670.7 156.3 663.4 163.5 855.8 355.9 855.9 355.8 863.1 348.7 670.7 156.3"/>
  <polygon class="st1" points="1300.8 838.1 1293.6 845.3 1486 1037.7 1489.4 1034.3 1493.2 1030.5 1300.8 838.1"/>
  <polygon class="st1" points="837.3 374.5 644.9 182.1 637.6 189.3 830 381.7 836.8 375 837.3 374.5"/>
  <polygon class="st1" points="811.5 400.3 619.1 207.9 611.9 215.1 804.2 407.5 807.4 404.4 811.5 400.3"/>
  <rect class="st1" x="1362.5" y="827.6" width="10.2" height="272.1" transform="translate(-280.9 1249.3) rotate(-45)"/>
  <rect class="st1" x="1336.7" y="853.4" width="10.2" height="272.1" transform="translate(-306.6 1238.6) rotate(-45)"/>
  <rect class="st1" x="680.8" y="197.4" width="10.2" height="272.1" transform="translate(-34.9 582.7) rotate(-45)"/>
  <polygon class="st1" points="752.7 459.1 759.9 451.9 567.5 259.5 566.1 260.9 560.3 266.7 752.7 459.1"/>
  <polygon class="st1" points="1223.5 915.4 1218 920.9 1216.2 922.7 1408.6 1115.1 1410.7 1113 1415.9 1107.8 1223.5 915.4"/>
  <polygon class="st1" points="726.9 484.9 734.1 477.7 541.7 285.3 539.6 287.4 539.3 287.7 534.5 292.5 726.9 484.9"/>
  <polygon class="st1" points="1074.6 832.6 1081.3 825.8 1081.8 825.3 850 593.6 848.8 594.7 842.8 600.8 1074.6 832.6"/>
  <polygon class="st1" points="1190.4 948.5 1382.8 1140.9 1384.3 1139.4 1390.1 1133.6 1197.7 941.2 1190.4 948.5"/>
  <polygon class="st1" points="1049.4 857.8 1056 851.1 824.2 619.3 818.5 625 817 626.6 1048.8 858.4 1049.4 857.8"/>
  <polygon class="st1" points="1164.7 974.3 1357.1 1166.7 1360.1 1163.6 1364.3 1159.4 1171.9 967 1164.7 974.3"/>
  <rect class="st1" x="603.4" y="274.8" width="10.2" height="272.1" transform="translate(-112.3 550.6) rotate(-45)"/>
  <polygon class="st1" points="1143.2 995.8 1139.3 999.6 1138.9 1000.1 1331.3 1192.4 1338.5 1185.2 1146.1 992.8 1143.2 995.8"/>
  <rect class="st1" x="577.6" y="300.6" width="10.2" height="272.1" transform="translate(-138.1 539.9) rotate(-45)"/>
  <polygon class="st1" points="1025.3 881.8 1030.2 876.9 798.4 645.1 791.2 652.4 1023 884.2 1025.3 881.8"/>
  <polygon class="st1" points="464.3 362.6 457.8 369.1 457.1 369.9 649.5 562.3 656.7 555 464.3 362.6"/>
  <polygon class="st1" points="772.6 670.9 765.4 678.2 997.2 909.9 1001.1 906 1002.3 904.9 1004.4 902.7 772.6 670.9"/>
  <polygon class="st1" points="1116.4 1022.5 1113.1 1025.8 1305.5 1218.2 1312.4 1211.3 1312.7 1211 1120.3 1018.6 1116.4 1022.5"/>
  <polygon class="st1" points="974.7 932.4 976 931.1 978.6 928.5 746.8 696.7 743.5 700.1 739.6 704 971.4 935.7 974.7 932.4"/>
  <rect class="st1" x="526" y="352.2" width="10.2" height="272.1" transform="translate(-189.7 518.6) rotate(-45)"/>
  <polygon class="st1" points="1093.1 1045.8 1090.1 1048.8 1087.3 1051.6 1279.7 1244 1282.1 1241.6 1286.9 1236.8 1094.5 1044.4 1093.1 1045.8"/>
  <polygon class="st1" points="1066.7 1072.2 1065.3 1073.6 1061.5 1077.4 1253.9 1269.8 1261.1 1262.6 1068.7 1070.2 1066.7 1072.2"/>
  <polygon class="st1" points="948.1 959 949.4 957.7 952.8 954.3 721 722.5 718.5 725.1 713.8 729.7 945.6 961.5 948.1 959"/>
  <polygon class="st1" points="412.8 414.2 411.1 415.9 405.5 421.5 597.9 613.8 600 611.8 605.1 606.6 412.8 414.2"/>
  <polygon class="st1" points="387 440 383.9 443.1 379.7 447.2 572.1 639.6 574.4 637.3 579.4 632.4 387 440"/>
  <polygon class="st1" points="1038.4 1100.6 1035.7 1103.2 1228.1 1295.6 1235.3 1288.4 1042.9 1096 1038.4 1100.6"/>
  <polygon class="st1" points="919.8 987.3 927 980.1 695.3 748.3 695 748.6 688 755.5 919.8 987.3"/>
  <polygon class="st1" points="1017.1 1121.8 1012.8 1126.1 1011.2 1127.8 1009.9 1129 1202.3 1321.4 1208.8 1314.9 1209.5 1314.2 1017.1 1121.8"/>
  <polygon class="st1" points="894 1013.1 897.4 1009.7 900.2 1006.9 901.2 1005.9 669.5 774.1 669 774.6 662.2 781.3 894 1013.1"/>
  <polygon class="st1" points="361.2 465.8 356.7 470.3 353.9 473 546.3 665.4 552.4 659.4 553.6 658.2 361.2 465.8"/>
  <polygon class="st1" points="520.5 691.2 525.9 685.9 527.8 684 335.4 491.6 331.4 495.5 329.4 497.6 328.1 498.8 520.5 691.2"/>
  <polygon class="st1" points="868.2 1038.9 872.9 1034.2 875.2 1031.9 875.3 1031.8 875.5 1031.7 643.7 799.9 643.2 800.3 636.4 807.1 868.2 1038.9"/>
  <polygon class="st1" points="991.4 1147.6 986 1153 984.1 1154.8 1176.5 1347.2 1180.7 1343 1183.7 1340 991.4 1147.6"/>
  <polygon class="st1" points="965.6 1173.4 962.5 1176.5 958.3 1180.6 1150.7 1373 1153.2 1370.6 1158 1365.8 965.6 1173.4"/>
  <rect class="st1" x="397.1" y="481.2" width="10.2" height="272.1" transform="translate(-318.6 465.1) rotate(-45)"/>
  <polygon class="st1" points="935.9 1203 932.5 1206.4 1124.9 1398.8 1132.2 1391.5 939.8 1199.1 935.9 1203"/>
  <rect class="st1" x="371.3" y="506.9" width="10.2" height="272.1" transform="translate(-344.4 454.5) rotate(-45)"/>
  <polygon class="st1" points="914 1224.9 907.4 1231.6 906.7 1232.2 1099.1 1424.6 1102.9 1420.8 1106.4 1417.3 914 1224.9"/>
  <rect class="st1" x="345.5" y="532.7" width="10.2" height="272.1" transform="translate(-370.2 443.8) rotate(-45)"/>
  <polygon class="st1" points="888.2 1250.7 881 1258 1073.3 1450.4 1075.1 1448.6 1080.6 1443.1 888.2 1250.7"/>
  <rect class="st1" x="319.7" y="558.5" width="10.2" height="272.1" transform="translate(-396 433.1) rotate(-45)"/>
  <polygon class="st1" points="206.4 620.6 199.2 627.8 1047.6 1476.1 1052 1471.7 1054.8 1468.9 206.4 620.6"/>
  <rect class="st1" x="596.1" y="474.3" width="10.2" height="1199.8" transform="translate(-583.4 739.7) rotate(-45)"/>
  <polygon class="st1" points="1000.9 1522.8 1003.2 1520.5 154.8 672.1 148.2 678.8 147.6 679.4 996 1527.7 1000.9 1522.8"/>
  <rect class="st1" x="544.5" y="525.8" width="10.2" height="1199.8" transform="translate(-635 718.4) rotate(-45)"/>
  <rect class="st1" x="518.7" y="551.6" width="10.2" height="1199.8" transform="translate(-660.8 707.7) rotate(-45)"/>
  <polygon class="st1" points="918.6 1605.1 925.8 1597.9 77.5 749.5 76.3 750.6 70.2 756.7 918.6 1605.1"/>
  <rect class="st1" x="467.1" y="603.2" width="10.2" height="1199.8" transform="translate(-712.4 686.3) rotate(-45)"/>
  <polygon class="st1" points="874.2 1649.5 25.9 801.1 19.5 807.5 443.7 1231.6 867.9 1655.8 874.2 1649.5"/>
  <path class="st0" d="M206,32.6c2.6-2.6,2.6-6.7,0-9.2-2.5-2.5-6.7-2.6-9.2,0-2.6,2.6-2.6,6.7,0,9.2,2.6,2.6,6.7,2.6,9.2,0Z"/>
  <path class="st0" d="M165.1,75.2c2.6-2.6,2.6-6.7,0-9.2-2.5-2.5-6.7-2.6-9.2,0-2.6,2.6-2.6,6.7,0,9.2,2.6,2.6,6.7,2.6,9.2,0Z"/>
  <path class="st0" d="M246.9,71.7c2.6-2.6,2.6-6.7,0-9.2-2.5-2.6-6.7-2.6-9.2,0-2.6,2.6-2.6,6.7,0,9.2,2.6,2.6,6.7,2.6,9.2,0Z"/>
  <path class="st0" d="M196.7,359.7c2.6,2.6,6.7,2.6,9.2,0,2.6-2.6,2.6-6.7,0-9.2-2.6-2.6-6.7-2.6-9.2,0-2.6,2.6-2.6,6.7,0,9.2Z"/>
  <path class="st0" d="M287.8,110.8c2.6-2.6,2.6-6.7,0-9.2-2.5-2.5-6.7-2.6-9.2,0-2.6,2.6-2.6,6.7,0,9.2,2.6,2.6,6.7,2.6,9.2,0Z"/>
  <path class="st0" d="M206,105.1c-2.5-2.5-6.7-2.6-9.2,0-2.6,2.6-2.6,6.7,0,9.2,2.6,2.6,6.7,2.6,9.2,0,2.6-2.6,2.6-6.7,0-9.2Z"/>
  <path class="st0" d="M124.2,117.9c2.6-2.6,2.6-6.7,0-9.2-2.5-2.6-6.7-2.6-9.2,0-2.6,2.6-2.6,6.7,0,9.2,2.6,2.6,6.7,2.6,9.2,0Z"/>
  <path class="st0" d="M328.7,231.8c2.6-2.6,2.6-6.7,0-9.2-2.6-2.6-6.7-2.6-9.2,0-2.6,2.6-2.6,6.7,0,9.2,2.6,2.6,6.7,2.6,9.2,0Z"/>
  <path class="st0" d="M165.1,238.8c2.6-2.6,2.6-6.7,0-9.2-2.5-2.5-6.7-2.6-9.2,0-2.6,2.6-2.6,6.7,0,9.2,2.6,2.6,6.7,2.6,9.2,0Z"/>
  <path class="st0" d="M246.9,235.3c2.6-2.6,2.6-6.7,0-9.2-2.5-2.6-6.7-2.6-9.2,0-2.6,2.6-2.6,6.7,0,9.2,2.6,2.6,6.7,2.6,9.2,0Z"/>
  <path class="st0" d="M74.1,233.1c-2.6,2.6-2.6,6.7,0,9.2s6.7,2.6,9.2,0c2.6-2.6,2.6-6.7,0-9.2-2.6-2.5-6.7-2.5-9.2,0Z"/>
  <path class="st0" d="M287.8,192.6c2.6-2.6,2.6-6.7,0-9.2-2.5-2.5-6.7-2.6-9.2,0-2.6,2.6-2.6,6.7,0,9.2,2.6,2.6,6.7,2.6,9.2,0Z"/>
  <path class="st0" d="M369.6,189.1c2.6-2.6,2.6-6.7,0-9.2-2.6-2.6-6.7-2.6-9.2,0-2.6,2.6-2.6,6.7,0,9.2,2.6,2.6,6.7,2.6,9.2,0Z"/>
  <path class="st0" d="M206,196.1c2.6-2.6,2.6-6.7,0-9.2-2.6-2.5-6.7-2.5-9.2,0-2.6,2.6-2.6,6.7,0,9.2,2.6,2.6,6.7,2.6,9.2,0Z"/>
  <path class="st0" d="M42.4,203.2c2.6-2.6,2.6-6.7,0-9.2-2.5-2.6-6.7-2.6-9.2,0-2.6,2.6-2.6,6.7,0,9.2s6.7,2.6,9.2,0Z"/>
  <path class="st0" d="M115,190.4c-2.6,2.6-2.6,6.7,0,9.2,2.6,2.6,6.7,2.6,9.2,0,2.6-2.6,2.6-6.7,0-9.2-2.5-2.6-6.7-2.6-9.2,0Z"/>
  <path class="st0" d="M246.9,153.5c2.6-2.6,2.6-6.7,0-9.2-2.6-2.6-6.7-2.6-9.2,0-2.6,2.6-2.6,6.7,0,9.2,2.6,2.6,6.7,2.6,9.2,0Z"/>
  <path class="st0" d="M328.7,150c2.6-2.6,2.6-6.7,0-9.2-2.6-2.5-6.7-2.6-9.2,0-2.6,2.6-2.6,6.7,0,9.2,2.6,2.6,6.7,2.6,9.2,0Z"/>
  <path class="st0" d="M83.3,160.5c2.6-2.6,2.6-6.7,0-9.2-2.6-2.5-6.7-2.6-9.2,0-2.6,2.6-2.6,6.7,0,9.2,2.6,2.6,6.7,2.6,9.2,0Z"/>
  <path class="st0" d="M155.9,147.8c-2.6,2.6-2.6,6.7,0,9.2,2.6,2.6,6.7,2.6,9.2,0,2.6-2.6,2.6-6.7,0-9.2-2.6-2.5-6.7-2.5-9.2,0Z"/>
  <path class="st0" d="M155.8,311.4c-2.6,2.6-2.6,6.7,0,9.2,2.6,2.6,6.7,2.6,9.2,0,2.6-2.6,2.6-6.7,0-9.2-2.5-2.6-6.7-2.6-9.2,0Z"/>
  <path class="st0" d="M246.9,317.1c2.6-2.6,2.6-6.7,0-9.2-2.6-2.6-6.7-2.6-9.2,0-2.6,2.6-2.6,6.7,0,9.2,2.6,2.6,6.7,2.6,9.2,0Z"/>
  <path class="st0" d="M124.2,281.4c2.6-2.6,2.6-6.7,0-9.2-2.6-2.6-6.7-2.6-9.2,0-2.6,2.6-2.6,6.7,0,9.2,2.6,2.6,6.7,2.6,9.2,0Z"/>
  <path class="st0" d="M206,277.9c2.6-2.6,2.6-6.7,0-9.2-2.5-2.5-6.7-2.6-9.2,0-2.6,2.6-2.6,6.7,0,9.2,2.6,2.6,6.7,2.6,9.2,0Z"/>
  <path class="st0" d="M278.6,265.2c-2.6,2.6-2.6,6.7,0,9.2,2.6,2.6,6.7,2.6,9.2,0,2.6-2.6,2.6-6.7,0-9.2-2.6-2.6-6.7-2.6-9.2,0Z"/>
</svg>