<?xml version="1.0" encoding="UTF-8"?>
<svg id="Layer_1" xmlns="http://www.w3.org/2000/svg" version="1.1" viewBox="0 0 500 208.13">
  <!-- Generator: Adobe Illustrator 29.1.0, SVG Export Plug-In . SVG Version: 2.1.0 Build 142)  -->
  <defs>
    <style>
      .st0 {
        fill: #221e72;
      }
    </style>
  </defs>
  <rect class="st0" x="474.61" y="267.24" width="24.63" height="24.63"/>
  <rect class="st0" x="445.05" y="267.24" width="24.63" height="24.63"/>
  <rect class="st0" x="474.61" y="237.68" width="24.63" height="24.63"/>
  <rect class="st0" x="445.05" y="237.68" width="24.63" height="24.63"/>
  <rect class="st0" x="445.05" y="208.13" width="24.63" height="24.63"/>
  <rect class="st0" x="445.05" y="178.57" width="24.63" height="24.63"/>
  <rect class="st0" x="474.61" y="208.13" width="24.63" height="24.63"/>
  <rect class="st0" x="474.61" y="178.57" width="24.63" height="24.63"/>
  <rect class="st0" x="474.61" y="149.02" width="24.63" height="24.63"/>
  <rect class="st0" x="445.05" y="149.02" width="24.63" height="24.63"/>
  <rect class="st0" x="474.61" y="119.46" width="24.63" height="24.63"/>
  <rect class="st0" x="445.05" y="119.46" width="24.63" height="24.63"/>
  <rect class="st0" x="445.05" y="89.9" width="24.63" height="24.63"/>
  <rect class="st0" x="445.05" y="60.34" width="24.63" height="24.63"/>
  <rect class="st0" x="474.61" y="89.9" width="24.63" height="24.63"/>
  <rect class="st0" x="474.61" y="60.34" width="24.63" height="24.63"/>
  <rect class="st0" x="474.61" y="30.79" width="24.63" height="24.63"/>
  <rect class="st0" x="445.05" y="30.79" width="24.63" height="24.63"/>
  <rect class="st0" x="474.61" y="1.23" width="24.63" height="24.63"/>
  <rect class="st0" x="445.05" y="1.23" width="24.63" height="24.63"/>
  <rect class="st0" x="415.42" y="267.24" width="24.63" height="24.63"/>
  <rect class="st0" x="385.87" y="267.24" width="24.63" height="24.63"/>
  <rect class="st0" x="415.42" y="237.68" width="24.63" height="24.63"/>
  <rect class="st0" x="385.87" y="237.68" width="24.63" height="24.63"/>
  <rect class="st0" x="385.87" y="208.13" width="24.63" height="24.63"/>
  <rect class="st0" x="385.87" y="178.57" width="24.63" height="24.63"/>
  <rect class="st0" x="415.42" y="208.13" width="24.63" height="24.63"/>
  <rect class="st0" x="415.42" y="178.57" width="24.63" height="24.63"/>
  <rect class="st0" x="415.42" y="149.02" width="24.63" height="24.63"/>
  <rect class="st0" x="385.87" y="149.02" width="24.63" height="24.63"/>
  <rect class="st0" x="415.42" y="119.46" width="24.63" height="24.63"/>
  <rect class="st0" x="385.87" y="119.46" width="24.63" height="24.63"/>
  <rect class="st0" x="385.87" y="89.9" width="24.63" height="24.63"/>
  <rect class="st0" x="385.87" y="60.34" width="24.63" height="24.63"/>
  <rect class="st0" x="415.42" y="89.9" width="24.63" height="24.63"/>
  <rect class="st0" x="415.42" y="60.34" width="24.63" height="24.63"/>
  <rect class="st0" x="415.42" y="30.79" width="24.63" height="24.63"/>
  <rect class="st0" x="385.87" y="30.79" width="24.63" height="24.63"/>
  <rect class="st0" x="415.42" y="1.23" width="24.63" height="24.63"/>
  <rect class="st0" x="385.87" y="1.23" width="24.63" height="24.63"/>
  <rect class="st0" x="356.24" y="267.24" width="24.63" height="24.63"/>
  <rect class="st0" x="326.68" y="267.24" width="24.63" height="24.63"/>
  <rect class="st0" x="356.24" y="237.68" width="24.63" height="24.63"/>
  <rect class="st0" x="326.68" y="237.68" width="24.63" height="24.63"/>
  <rect class="st0" x="326.68" y="208.13" width="24.63" height="24.63"/>
  <rect class="st0" x="326.68" y="178.57" width="24.63" height="24.63"/>
  <rect class="st0" x="356.24" y="208.13" width="24.63" height="24.63"/>
  <rect class="st0" x="356.24" y="178.57" width="24.63" height="24.63"/>
  <rect class="st0" x="326.68" y="149.02" width="24.63" height="24.63"/>
  <rect class="st0" x="356.24" y="119.46" width="24.63" height="24.63"/>
  <rect class="st0" x="326.68" y="119.46" width="24.63" height="24.63"/>
  <rect class="st0" x="326.68" y="89.9" width="24.63" height="24.63"/>
  <rect class="st0" x="326.68" y="60.34" width="24.63" height="24.63"/>
  <rect class="st0" x="356.24" y="89.9" width="24.63" height="24.63"/>
  <rect class="st0" x="356.24" y="30.79" width="24.63" height="24.63"/>
  <rect class="st0" x="326.68" y="30.79" width="24.63" height="24.63"/>
  <rect class="st0" x="326.68" y="1.23" width="24.63" height="24.63"/>
  <rect class="st0" x="297.05" y="267.24" width="24.63" height="24.63"/>
  <rect class="st0" x="267.49" y="267.24" width="24.63" height="24.63"/>
  <rect class="st0" x="297.05" y="237.68" width="24.63" height="24.63"/>
  <rect class="st0" x="267.49" y="237.68" width="24.63" height="24.63"/>
  <rect class="st0" x="267.49" y="208.13" width="24.63" height="24.63"/>
  <rect class="st0" x="267.49" y="178.57" width="24.63" height="24.63"/>
  <rect class="st0" x="297.05" y="208.13" width="24.63" height="24.63"/>
  <rect class="st0" x="267.49" y="149.02" width="24.63" height="24.63"/>
  <rect class="st0" x="267.49" y="119.46" width="24.63" height="24.63"/>
  <rect class="st0" x="267.49" y="89.9" width="24.63" height="24.63"/>
  <rect class="st0" x="297.05" y="89.9" width="24.63" height="24.63"/>
  <rect class="st0" x="297.05" y="60.34" width="24.63" height="24.63"/>
  <rect class="st0" x="297.05" y="30.79" width="24.63" height="24.63"/>
  <rect class="st0" x="267.49" y="30.79" width="24.63" height="24.63"/>
  <rect class="st0" x="267.49" y="1.23" width="24.63" height="24.63"/>
  <rect class="st0" x="237.86" y="267.24" width="24.63" height="24.63"/>
  <rect class="st0" x="119.49" y="267.24" width="24.63" height="24.63"/>
  <rect class="st0" x="1.11" y="267.24" width="24.63" height="24.63"/>
  <rect class="st0" x="237.86" y="208.13" width="24.63" height="24.63"/>
  <rect class="st0" x="237.86" y="149.02" width="24.63" height="24.63"/>
  <rect class="st0" x="237.86" y="89.9" width="24.63" height="24.63"/>
  <rect class="st0" x="237.86" y="1.23" width="24.63" height="24.63"/>
  <rect class="st0" x="208.23" y="267.24" width="24.63" height="24.63"/>
  <rect class="st0" x="178.67" y="267.24" width="24.63" height="24.63"/>
  <rect class="st0" x="178.67" y="237.68" width="24.63" height="24.63"/>
  <rect class="st0" x="178.67" y="178.57" width="24.63" height="24.63"/>
  <rect class="st0" x="208.23" y="178.57" width="24.63" height="24.63"/>
  <rect class="st0" x="208.23" y="149.02" width="24.63" height="24.63"/>
  <rect class="st0" x="178.67" y="119.46" width="24.63" height="24.63"/>
  <rect class="st0" x="178.67" y="60.34" width="24.63" height="24.63"/>
  <rect class="st0" x="208.23" y="89.9" width="24.63" height="24.63"/>
  <rect class="st0" x="208.23" y="60.34" width="24.63" height="24.63"/>
  <rect class="st0" x="208.23" y="30.79" width="24.63" height="24.63"/>
  <rect class="st0" x="178.67" y="1.23" width="24.63" height="24.63"/>
  <rect class="st0" x="119.49" y="208.13" width="24.63" height="24.63"/>
  <rect class="st0" x="119.49" y="149.01" width="24.63" height="24.63"/>
  <rect class="st0" x="65.22" y="149.01" width="24.63" height="24.63"/>
  <rect class="st0" x="149.04" y="119.46" width="24.63" height="24.63"/>
  <rect class="st0" x="149.04" y="30.79" width="24.63" height="24.63"/>
  <rect class="st0" x="149.04" y="1.23" width="24.63" height="24.63"/>
</svg>