<?xml version="1.0" encoding="UTF-8"?>
<svg id="Layer_1" xmlns="http://www.w3.org/2000/svg" version="1.1" viewBox="0 0 290.4 288">
  <!-- Generator: Adobe Illustrator 29.0.1, SVG Export Plug-In . SVG Version: 2.1.0 Build 192)  -->
  <defs>
    <style>
      .st0 {
        fill: #d0dbe1;
      }
    </style>
  </defs>
  <g>
    <circle class="st0" cx="15.1" cy="10.6" r="5.1"/>
    <circle class="st0" cx="59.1" cy="10.6" r="5.1"/>
    <circle class="st0" cx="103.2" cy="10.6" r="5.1"/>
    <path class="st0" d="M152.4,10.6c0,2.8-2.3,5.1-5.1,5.1s-5.1-2.3-5.1-5.1,2.3-5.1,5.1-5.1,5.1,2.3,5.1,5.1Z"/>
    <circle class="st0" cx="191.3" cy="10.6" r="5.1"/>
    <circle class="st0" cx="235.4" cy="10.6" r="5.1"/>
    <circle class="st0" cx="279.5" cy="10.6" r="5.1"/>
  </g>
  <g>
    <circle class="st0" cx="15.1" cy="54.6" r="5.1" transform="translate(-41.1 47.4) rotate(-67.2)"/>
    <circle class="st0" cx="59.1" cy="54.6" r="5.1" transform="translate(-14.1 88) rotate(-67.2)"/>
    <circle class="st0" cx="103.2" cy="54.6" r="5.1" transform="translate(12.9 128.6) rotate(-67.2)"/>
    <path class="st0" d="M152.4,54.6c0,2.8-2.3,5.1-5.1,5.1s-5.1-2.3-5.1-5.1,2.3-5.1,5.1-5.1,5.1,2.3,5.1,5.1Z"/>
    <circle class="st0" cx="191.3" cy="54.6" r="5.1" transform="translate(66.9 209.9) rotate(-67.2)"/>
    <circle class="st0" cx="235.4" cy="54.6" r="5.1" transform="translate(93.9 250.5) rotate(-67.2)"/>
    <circle class="st0" cx="279.5" cy="54.6" r="5.1" transform="translate(121 291.2) rotate(-67.2)"/>
  </g>
  <g>
    <circle class="st0" cx="15.1" cy="98.4" r="5.1"/>
    <circle class="st0" cx="59.1" cy="98.4" r="5.1"/>
    <circle class="st0" cx="103.2" cy="98.4" r="5.1"/>
    <path class="st0" d="M152.4,98.4c0,2.8-2.3,5.1-5.1,5.1s-5.1-2.3-5.1-5.1,2.3-5.1,5.1-5.1,5.1,2.3,5.1,5.1Z"/>
    <circle class="st0" cx="191.3" cy="98.4" r="5.1"/>
    <circle class="st0" cx="235.4" cy="98.4" r="5.1"/>
    <circle class="st0" cx="279.5" cy="98.4" r="5.1"/>
  </g>
  <g>
    <circle class="st0" cx="15.1" cy="142.5" r="5.1"/>
    <circle class="st0" cx="59.1" cy="142.5" r="5.1"/>
    <circle class="st0" cx="103.2" cy="142.5" r="5.1"/>
    <path class="st0" d="M152.4,142.5c0,2.8-2.3,5.1-5.1,5.1s-5.1-2.3-5.1-5.1,2.3-5.1,5.1-5.1,5.1,2.3,5.1,5.1Z"/>
    <circle class="st0" cx="191.3" cy="142.5" r="5.1"/>
    <circle class="st0" cx="235.4" cy="142.5" r="5.1"/>
    <circle class="st0" cx="279.5" cy="142.5" r="5.1"/>
  </g>
  <g>
    <circle class="st0" cx="15.1" cy="186.5" r="5.1"/>
    <circle class="st0" cx="59.1" cy="186.5" r="5.1"/>
    <circle class="st0" cx="103.2" cy="186.5" r="5.1"/>
    <path class="st0" d="M152.4,186.5c0,2.8-2.3,5.1-5.1,5.1s-5.1-2.3-5.1-5.1,2.3-5.1,5.1-5.1,5.1,2.3,5.1,5.1Z"/>
    <circle class="st0" cx="191.3" cy="186.5" r="5.1"/>
    <circle class="st0" cx="235.4" cy="186.5" r="5.1"/>
    <circle class="st0" cx="279.5" cy="186.5" r="5.1"/>
  </g>
  <g>
    <circle class="st0" cx="15.1" cy="230.3" r="5.1"/>
    <circle class="st0" cx="59.1" cy="230.3" r="5.1"/>
    <circle class="st0" cx="103.2" cy="230.3" r="5.1"/>
    <path class="st0" d="M152.4,230.3c0,2.8-2.3,5.1-5.1,5.1s-5.1-2.3-5.1-5.1,2.3-5.1,5.1-5.1,5.1,2.3,5.1,5.1Z"/>
    <circle class="st0" cx="191.3" cy="230.3" r="5.1"/>
    <circle class="st0" cx="235.4" cy="230.3" r="5.1"/>
    <circle class="st0" cx="279.5" cy="230.3" r="5.1"/>
  </g>
  <g>
    <circle class="st0" cx="15.1" cy="274.6" r="5.1"/>
    <circle class="st0" cx="59.1" cy="274.6" r="5.1"/>
    <circle class="st0" cx="103.2" cy="274.6" r="5.1"/>
    <path class="st0" d="M152.4,274.6c0,2.8-2.3,5.1-5.1,5.1s-5.1-2.3-5.1-5.1,2.3-5.1,5.1-5.1,5.1,2.3,5.1,5.1Z"/>
    <circle class="st0" cx="191.3" cy="274.6" r="5.1"/>
    <circle class="st0" cx="235.4" cy="274.6" r="5.1"/>
    <circle class="st0" cx="279.5" cy="274.6" r="5.1"/>
  </g>
</svg>