<?xml version="1.0" encoding="UTF-8"?>
<svg id="Layer_1" xmlns="http://www.w3.org/2000/svg" width="4in" height="4in" version="1.1" viewBox="0 0 288 288">
  <!-- Generator: Adobe Illustrator 29.1.0, SVG Export Plug-In . SVG Version: 2.1.0 Build 142)  -->
  <defs>
    <style>
      .st0 {
        fill: #a2aab6;
      }
    </style>
  </defs>
  <g>
    <circle class="st0" cx="15" cy="11.7" r="5.1"/>
    <circle class="st0" cx="58.6" cy="11.7" r="5.1"/>
    <circle class="st0" cx="102.3" cy="11.7" r="5.1"/>
    <path class="st0" d="M151.1,11.7c0,2.8-2.3,5.1-5.1,5.1s-5.1-2.3-5.1-5.1,2.3-5.1,5.1-5.1,5.1,2.3,5.1,5.1Z"/>
    <circle class="st0" cx="189.7" cy="11.7" r="5.1"/>
    <circle class="st0" cx="233.5" cy="11.7" r="5.1"/>
    <circle class="st0" cx="277.2" cy="11.7" r="5.1"/>
  </g>
  <g>
    <circle class="st0" cx="15" cy="55.3" r="5.1"/>
    <circle class="st0" cx="58.6" cy="55.4" r="5.1"/>
    <circle class="st0" cx="102.3" cy="55.3" r="5.1"/>
    <path class="st0" d="M151.1,55.3c0,2.8-2.3,5.1-5.1,5.1s-5.1-2.3-5.1-5.1,2.3-5.1,5.1-5.1,5.1,2.3,5.1,5.1Z"/>
    <circle class="st0" cx="189.8" cy="55.4" r="5.1"/>
    <circle class="st0" cx="233.5" cy="55.3" r="5.1"/>
    <circle class="st0" cx="277.3" cy="55.4" r="5.1"/>
  </g>
  <g>
    <circle class="st0" cx="15" cy="98.8" r="5.1"/>
    <circle class="st0" cx="58.6" cy="98.8" r="5.1"/>
    <circle class="st0" cx="102.3" cy="98.8" r="5.1"/>
    <path class="st0" d="M151.1,98.8c0,2.8-2.3,5.1-5.1,5.1s-5.1-2.3-5.1-5.1,2.3-5.1,5.1-5.1,5.1,2.3,5.1,5.1Z"/>
    <circle class="st0" cx="189.7" cy="98.8" r="5.1"/>
    <circle class="st0" cx="233.5" cy="98.8" r="5.1"/>
    <circle class="st0" cx="277.2" cy="98.8" r="5.1"/>
  </g>
  <g>
    <circle class="st0" cx="15" cy="142.5" r="5.1"/>
    <circle class="st0" cx="58.6" cy="142.5" r="5.1"/>
    <circle class="st0" cx="102.3" cy="142.5" r="5.1"/>
    <path class="st0" d="M151.1,142.5c0,2.8-2.3,5.1-5.1,5.1s-5.1-2.3-5.1-5.1,2.3-5.1,5.1-5.1,5.1,2.3,5.1,5.1Z"/>
    <circle class="st0" cx="189.7" cy="142.5" r="5.1"/>
    <circle class="st0" cx="233.5" cy="142.5" r="5.1"/>
    <circle class="st0" cx="277.2" cy="142.5" r="5.1"/>
  </g>
  <g>
    <circle class="st0" cx="15" cy="186.1" r="5.1"/>
    <circle class="st0" cx="58.6" cy="186.1" r="5.1"/>
    <circle class="st0" cx="102.3" cy="186.1" r="5.1"/>
    <path class="st0" d="M151.1,186.1c0,2.8-2.3,5.1-5.1,5.1s-5.1-2.3-5.1-5.1,2.3-5.1,5.1-5.1,5.1,2.3,5.1,5.1Z"/>
    <circle class="st0" cx="189.7" cy="186.1" r="5.1"/>
    <circle class="st0" cx="233.5" cy="186.1" r="5.1"/>
    <circle class="st0" cx="277.2" cy="186.1" r="5.1"/>
  </g>
  <g>
    <circle class="st0" cx="15" cy="229.6" r="5.1"/>
    <circle class="st0" cx="58.6" cy="229.6" r="5.1"/>
    <circle class="st0" cx="102.3" cy="229.6" r="5.1"/>
    <path class="st0" d="M151.1,229.6c0,2.8-2.3,5.1-5.1,5.1s-5.1-2.3-5.1-5.1,2.3-5.1,5.1-5.1,5.1,2.3,5.1,5.1Z"/>
    <circle class="st0" cx="189.7" cy="229.6" r="5.1"/>
    <circle class="st0" cx="233.5" cy="229.6" r="5.1"/>
    <circle class="st0" cx="277.2" cy="229.6" r="5.1"/>
  </g>
  <g>
    <circle class="st0" cx="15" cy="273.5" r="5.1"/>
    <circle class="st0" cx="58.6" cy="273.5" r="5.1"/>
    <circle class="st0" cx="102.3" cy="273.5" r="5.1"/>
    <path class="st0" d="M151.1,273.5c0,2.8-2.3,5.1-5.1,5.1s-5.1-2.3-5.1-5.1,2.3-5.1,5.1-5.1,5.1,2.3,5.1,5.1Z"/>
    <circle class="st0" cx="189.7" cy="273.5" r="5.1"/>
    <circle class="st0" cx="233.5" cy="273.5" r="5.1"/>
    <circle class="st0" cx="277.2" cy="273.5" r="5.1"/>
  </g>
</svg>