<?xml version="1.0" encoding="UTF-8"?>
<svg id="Layer_1" xmlns="http://www.w3.org/2000/svg" version="1.1" viewBox="0 0 975.36 127.17">
  <!-- Generator: Adobe Illustrator 29.0.0, SVG Export Plug-In . SVG Version: 2.1.0 Build 186)  -->
  <defs>
    <style>
      .st0 {
        fill: #d71313;
        fill-rule: evenodd;
      }
    </style>
  </defs>
  <g id="Group_53">
    <g id="Group_52">
      <path id="Path_33" class="st0" d="M204.09,26.06c34.21-18.96,29.03-1.47,14.96,26.86-14.57,29.31-2.89,28.74,51.53-8.93,80.87-55.97,93.34-59.16,80.08-5.98-4.29,17.21,19.22,16.2,33.91,16.38l572.59,2.48c11.8.05,19.77,1.71,17.93,3.74-1.84,2.03-11.61,3.68-23.51,3.76l-550.15,3.03c-35.11.46-42.83,1.16-74.17,19.53-34.41,20.17-42.19,12.35-29.58-13.73,18.41-38.06-2.3-19.38-68.14,23.49-66.08,43.03-68.12,41.37-58.44-10.62,3.3-17.73-8.81-18-25.65-18.63l-141-3.04c-3.89-.15-5.52-1.77-3.73-3.74,2.98-2.41,6.69-3.73,10.52-3.74l114.25-1.97c32.42-1.17,35.52-5.01,78.6-28.89"/>
    </g>
  </g>
</svg>