<?xml version="1.0" encoding="utf-8"?>
<!-- Generator: Adobe Illustrator 28.1.0, SVG Export Plug-In . SVG Version: 6.00 Build 0)  -->
<svg version="1.1" id="Layer_1" xmlns="http://www.w3.org/2000/svg" xmlns:xlink="http://www.w3.org/1999/xlink" x="0px" y="0px"
	 viewBox="0 0 152.6 152.6" style="enable-background:new 0 0 152.6 152.6;" xml:space="preserve">
<style type="text/css">
	.st0{opacity:0.547;}
	.st1{fill:#BFBFBE;}
</style>
<g id="Group_271" transform="translate(0 0.019)" class="st0">
	
		<rect id="Rectangle_157" x="122.9" y="-6.7" transform="matrix(0.7071 -0.7071 0.7071 0.7071 15.751 95.9237)" class="st1" width="1.4" height="71.2"/>
	
		<rect id="Rectangle_158" x="112.4" y="-15.7" transform="matrix(0.7071 -0.7071 0.7071 0.7071 5.238 91.5662)" class="st1" width="1.4" height="110.2"/>
	
		<rect id="Rectangle_159" x="101.9" y="-16.1" transform="matrix(0.7071 -0.7071 0.7071 0.7071 -5.2971 87.2101)" class="st1" width="1.4" height="132.2"/>
	
		<rect id="Rectangle_160" x="91.4" y="-12" transform="matrix(0.7071 -0.7071 0.7071 0.7071 -15.8199 82.8509)" class="st1" width="1.4" height="145"/>
	
		<rect id="Rectangle_161" x="117.7" y="-12.8" transform="matrix(0.7071 -0.7071 0.7071 0.7071 10.4874 93.7483)" class="st1" width="1.4" height="94"/>
	
		<rect id="Rectangle_162" x="107.2" y="-16.6" transform="matrix(0.7071 -0.7071 0.7071 0.7071 -3.565218e-02 89.3896)" class="st1" width="1.4" height="122.6"/>
	
		<rect id="Rectangle_163" x="96.6" y="-14.5" transform="matrix(0.7071 -0.7071 0.7071 0.7071 -10.5587 85.0309)" class="st1" width="1.4" height="139.6"/>
	
		<rect id="Rectangle_164" x="86.1" y="-8.6" transform="matrix(0.7071 -0.7071 0.7071 0.7071 -21.0815 80.6716)" class="st1" width="1.4" height="148.8"/>
	
		<rect id="Rectangle_165" x="80.9" y="-4.4" transform="matrix(0.7071 -0.7071 0.7071 0.7071 -26.3431 78.4926)" class="st1" width="1.4" height="151"/>
	
		<rect id="Rectangle_166" x="75.6" y="0.5" transform="matrix(0.7071 -0.7071 0.7071 0.7071 -31.6044 76.3127)" class="st1" width="1.4" height="151.7"/>
	
		<rect id="Rectangle_167" x="70.3" y="6.1" transform="matrix(0.7071 -0.7071 0.7071 0.7071 -36.8661 74.1338)" class="st1" width="1.4" height="151"/>
	
		<rect id="Rectangle_168" x="65.1" y="12.4" transform="matrix(0.7071 -0.7071 0.7071 0.7071 -42.1275 71.9541)" class="st1" width="1.4" height="148.8"/>
	
		<rect id="Rectangle_169" x="59.8" y="19.6" transform="matrix(0.7071 -0.7071 0.7071 0.7071 -47.3886 69.7753)" class="st1" width="1.4" height="145"/>
	
		<rect id="Rectangle_170" x="54.6" y="27.6" transform="matrix(0.7071 -0.7071 0.7071 0.7071 -52.6507 67.5959)" class="st1" width="1.4" height="139.6"/>
	
		<rect id="Rectangle_171" x="49.3" y="36.5" transform="matrix(0.7071 -0.7071 0.7071 0.7071 -57.9121 65.4163)" class="st1" width="1.4" height="132.2"/>
	
		<rect id="Rectangle_172" x="44" y="46.6" transform="matrix(0.7071 -0.7071 0.7071 0.7071 -63.1737 63.237)" class="st1" width="1.4" height="122.6"/>
	
		<rect id="Rectangle_173" x="38.8" y="58" transform="matrix(0.7071 -0.7071 0.7071 0.7071 -68.435 61.0573)" class="st1" width="1.4" height="110.2"/>
	
		<rect id="Rectangle_174" x="33.5" y="71.4" transform="matrix(0.7071 -0.7071 0.7071 0.7071 -73.6966 58.8781)" class="st1" width="1.4" height="94"/>
	
		<rect id="Rectangle_175" x="28.2" y="88" transform="matrix(0.7071 -0.7071 0.7071 0.7071 -78.9582 56.6989)" class="st1" width="1.4" height="71.2"/>
	
		<rect id="Rectangle_176" x="128.2" y="9" transform="matrix(0.7071 -0.7071 0.7071 0.7071 21.0105 98.1067)" class="st1" width="1.4" height="29.5"/>
	
		<rect id="Rectangle_177" x="23" y="114.2" transform="matrix(0.7071 -0.7071 0.7071 0.7071 -84.2195 54.519)" class="st1" width="1.4" height="29.5"/>
</g>
</svg>
