<?xml version="1.0" encoding="utf-8"?>
<!-- Generator: Adobe Illustrator 28.1.0, SVG Export Plug-In . SVG Version: 6.00 Build 0)  -->
<svg version="1.1" id="industries1" xmlns="http://www.w3.org/2000/svg" xmlns:xlink="http://www.w3.org/1999/xlink" x="0px"
	 y="0px" viewBox="0 0 180.2 175.5" style="enable-background:new 0 0 180.2 175.5;" xml:space="preserve">
<style type="text/css">
	.st0{fill:#4C4C4C;}
	.st1{fill:#FFFFFF;}
	.st2{fill:none;stroke:#4C4C4C;stroke-width:16;}
	.st3{fill:none;stroke:#4C4C4C;stroke-width:16;stroke-linejoin:round;}
	.st4{fill:none;stroke:#4C4C4C;stroke-width:16;stroke-miterlimit:10;}
	.st5{fill:none;stroke:#4C4C4C;stroke-width:12.8;}
	.st6{fill:#FF0000;}
	.st7{fill:none;stroke:#4C4C4C;stroke-width:5;}
	.st8{fill:none;stroke:#4C4C4C;stroke-width:5;stroke-miterlimit:10;}
	.st9{fill:none;stroke:#010A14;stroke-width:6.1868;stroke-linecap:round;stroke-linejoin:round;stroke-miterlimit:10;}
	.st10{fill:none;}
	.st11{fill:#BFBFBE;}
</style>
<g>
	<polyline class="st10" points="180.2,0.1 180.2,175.5 0,175.5 0,0.1 	"/>
	<g id="Group_1720">
		<path id="Path_12515" class="st11" d="M8.4,2.1c0.1,1.1-0.7,2-1.8,2.1c-1.1,0.1-2-0.7-2.1-1.8c0-0.1,0-0.2,0-0.2
			C4.4,1,5.2,0.1,6.3,0s2,0.7,2.1,1.8C8.4,1.9,8.4,2,8.4,2.1"/>
		<path id="Path_12516" class="st11" d="M29.9,2.1c0.1,1.1-0.7,2-1.8,2.1C27,4.2,26,3.4,26,2.3c0-0.1,0-0.2,0-0.2
			c-0.1-1.1,0.7-2,1.8-2.1s2,0.7,2.1,1.8C29.9,1.9,29.9,2,29.9,2.1"/>
		<path id="Path_12517" class="st11" d="M51.3,2.1c0.1,1.1-0.7,2-1.8,2.1c-1.1,0.1-2-0.7-2.1-1.8c0-0.1,0-0.2,0-0.2
			c-0.1-1.1,0.7-2,1.8-2.1s2,0.7,2.1,1.8C51.3,1.9,51.3,2,51.3,2.1"/>
		<path id="Path_12518" class="st11" d="M72.8,2.1c0.1,1.1-0.7,2-1.8,2.1c-1.1,0.1-2-0.7-2.1-1.8c0-0.1,0-0.2,0-0.2
			c-0.1-1.1,0.7-2,1.8-2.1c1.1-0.1,2,0.7,2.1,1.8C72.8,1.9,72.8,2,72.8,2.1"/>
		<path id="Path_12519" class="st11" d="M94.3,2.1c0.1,1.1-0.7,2-1.8,2.1c-1.1,0.1-2-0.7-2.1-1.8c0-0.1,0-0.2,0-0.2
			c-0.1-1.1,0.7-2,1.8-2.1s2,0.7,2.1,1.8C94.3,1.9,94.3,2,94.3,2.1"/>
		<path id="Path_12520" class="st11" d="M115.8,2.1c0.1,1.1-0.7,2-1.8,2.1c-1.1,0.1-2-0.7-2.1-1.8c0-0.1,0-0.2,0-0.2
			c-0.1-1.1,0.7-2,1.8-2.1c1.1-0.1,2,0.7,2.1,1.8C115.8,1.9,115.8,2,115.8,2.1"/>
		<path id="Path_12521" class="st11" d="M137.2,2.1c0.1,1.1-0.7,2-1.8,2.1c-1.1,0.1-2-0.7-2.1-1.8c0-0.1,0-0.2,0-0.2
			c-0.1-1.1,0.7-2,1.8-2.1s2,0.7,2.1,1.8C137.2,1.9,137.2,2,137.2,2.1"/>
		<path id="Path_12522" class="st11" d="M158.7,2.1c0.1,1.1-0.7,2-1.8,2.1c-1.1,0.1-2-0.7-2.1-1.8c0-0.1,0-0.2,0-0.2
			c-0.1-1.1,0.7-2,1.8-2.1c1.1-0.1,2,0.7,2.1,1.8C158.7,1.9,158.7,2,158.7,2.1"/>
		<path id="Path_12523" class="st11" d="M180.2,2.1c0.1,1.1-0.7,2-1.8,2.1c-1.1,0.1-2-0.7-2.1-1.8c0-0.1,0-0.2,0-0.2
			c-0.1-1.1,0.7-2,1.8-2.1s2,0.7,2.1,1.8C180.2,1.9,180.2,2,180.2,2.1"/>
		<path id="Path_12527" class="st11" d="M8.4,21.1c0.1,1.1-0.7,2-1.8,2.1s-2-0.7-2.1-1.8c0-0.1,0-0.2,0-0.2c-0.1-1.1,0.7-2,1.8-2.1
			c1.1-0.1,2,0.7,2.1,1.8C8.4,21,8.4,21,8.4,21.1"/>
		<path id="Path_12528" class="st11" d="M29.9,21.1c0.1,1.1-0.7,2-1.8,2.1s-2-0.7-2.1-1.8c0-0.1,0-0.2,0-0.2c-0.1-1.1,0.7-2,1.8-2.1
			s2,0.7,2.1,1.8C29.9,21,29.9,21,29.9,21.1"/>
		<path id="Path_12529" class="st11" d="M51.3,21.1c0.1,1.1-0.7,2-1.8,2.1c-1.1,0.1-2-0.7-2.1-1.8c0-0.1,0-0.2,0-0.2
			c-0.1-1.1,0.7-2,1.8-2.1s2,0.7,2.1,1.8C51.3,21,51.3,21,51.3,21.1"/>
		<path id="Path_12530" class="st11" d="M72.8,21.1c0.1,1.1-0.7,2-1.8,2.1c-1.1,0.1-2-0.7-2.1-1.8c0-0.1,0-0.2,0-0.2
			c-0.1-1.1,0.7-2,1.8-2.1c1.1-0.1,2,0.7,2.1,1.8C72.8,21,72.8,21,72.8,21.1"/>
		<path id="Path_12531" class="st11" d="M94.3,21.1c0.1,1.1-0.7,2-1.8,2.1c-1.1,0.1-2-0.7-2.1-1.8c0-0.1,0-0.2,0-0.2
			c-0.1-1.1,0.7-2,1.8-2.1s2,0.7,2.1,1.8C94.3,21,94.3,21,94.3,21.1"/>
		<path id="Path_12532" class="st11" d="M115.8,21.1c0.1,1.1-0.7,2-1.8,2.1s-2-0.7-2.1-1.8c0-0.1,0-0.2,0-0.2
			c-0.1-1.1,0.7-2,1.8-2.1c1.1-0.1,2,0.7,2.1,1.8C115.8,21,115.8,21,115.8,21.1"/>
		<path id="Path_12533" class="st11" d="M137.2,21.1c0.1,1.1-0.7,2-1.8,2.1c-1.1,0.1-2-0.7-2.1-1.8c0-0.1,0-0.2,0-0.2
			c-0.1-1.1,0.7-2,1.8-2.1s2,0.7,2.1,1.8C137.2,21,137.2,21,137.2,21.1"/>
		<path id="Path_12534" class="st11" d="M158.7,21.1c0.1,1.1-0.7,2-1.8,2.1s-2-0.7-2.1-1.8c0-0.1,0-0.2,0-0.2
			c-0.1-1.1,0.7-2,1.8-2.1c1.1-0.1,2,0.7,2.1,1.8C158.7,21,158.7,21,158.7,21.1"/>
		<path id="Path_12535" class="st11" d="M180.2,21.1c0.1,1.1-0.7,2-1.8,2.1c-1.1,0.1-2-0.7-2.1-1.8c0-0.1,0-0.2,0-0.2
			c-0.1-1.1,0.7-2,1.8-2.1s2,0.7,2.1,1.8C180.2,21,180.2,21,180.2,21.1"/>
		<path id="Path_12539" class="st11" d="M8.4,40.2c0.1,1.1-0.7,2-1.8,2.1s-2-0.7-2.1-1.8c0-0.1,0-0.2,0-0.2c-0.1-1.1,0.7-2,1.8-2.1
			s2,0.7,2.1,1.8C8.4,40,8.4,40.1,8.4,40.2"/>
		<path id="Path_12540" class="st11" d="M29.9,40.2c0.1,1.1-0.7,2-1.8,2.1c-1.1,0.1-2-0.7-2.1-1.8c0-0.1,0-0.2,0-0.2
			c-0.1-1.1,0.7-2,1.8-2.1c1.1-0.1,2,0.7,2.1,1.8C29.9,40,29.9,40.1,29.9,40.2"/>
		<path id="Path_12541" class="st11" d="M51.3,40.2c0.1,1.1-0.7,2-1.8,2.1c-1.1,0.1-2-0.7-2.1-1.8c0-0.1,0-0.2,0-0.2
			c-0.1-1.1,0.7-2,1.8-2.1c1.1-0.1,2,0.7,2.1,1.8C51.3,40,51.3,40.1,51.3,40.2"/>
		<path id="Path_12542" class="st11" d="M72.8,40.2c0.1,1.1-0.7,2-1.8,2.1c-1.1,0.1-2-0.7-2.1-1.8c0-0.1,0-0.2,0-0.2
			c-0.1-1.1,0.7-2,1.8-2.1c1.1-0.1,2,0.7,2.1,1.8C72.8,40,72.8,40.1,72.8,40.2"/>
		<path id="Path_12543" class="st11" d="M94.3,40.2c0.1,1.1-0.7,2-1.8,2.1c-1.1,0.1-2-0.7-2.1-1.8c0-0.1,0-0.2,0-0.2
			c-0.1-1.1,0.7-2,1.8-2.1c1.1-0.1,2,0.7,2.1,1.8C94.3,40,94.3,40.1,94.3,40.2"/>
		<path id="Path_12544" class="st11" d="M115.8,40.2c0.1,1.1-0.7,2-1.8,2.1c-1.1,0.1-2-0.7-2.1-1.8c0-0.1,0-0.2,0-0.2
			c-0.1-1.1,0.7-2,1.8-2.1c1.1-0.1,2,0.7,2.1,1.8C115.8,40,115.8,40.1,115.8,40.2"/>
		<path id="Path_12545" class="st11" d="M137.2,40.2c0.1,1.1-0.7,2-1.8,2.1c-1.1,0.1-2-0.7-2.1-1.8c0-0.1,0-0.2,0-0.2
			c-0.1-1.1,0.7-2,1.8-2.1c1.1-0.1,2,0.7,2.1,1.8C137.2,40,137.2,40.1,137.2,40.2"/>
		<path id="Path_12546" class="st11" d="M158.7,40.2c0.1,1.1-0.7,2-1.8,2.1c-1.1,0.1-2-0.7-2.1-1.8c0-0.1,0-0.2,0-0.2
			c-0.1-1.1,0.7-2,1.8-2.1c1.1-0.1,2,0.7,2.1,1.8C158.7,40,158.7,40.1,158.7,40.2"/>
		<path id="Path_12547" class="st11" d="M180.2,40.2c0.1,1.1-0.7,2-1.8,2.1c-1.1,0.1-2-0.7-2.1-1.8c0-0.1,0-0.2,0-0.2
			c-0.1-1.1,0.7-2,1.8-2.1c1.1-0.1,2,0.7,2.1,1.8C180.2,40,180.2,40.1,180.2,40.2"/>
		<path id="Path_12551" class="st11" d="M8.4,59.2c0,1.1-0.9,1.9-2,1.9c-1.1,0-1.9-0.9-1.9-2c0-1.1,0.9-1.9,2-1.9
			C7.5,57.2,8.4,58.1,8.4,59.2C8.4,59.2,8.4,59.2,8.4,59.2"/>
		<path id="Path_12552" class="st11" d="M29.9,59.2c0,1.1-0.9,1.9-2,1.9c-1.1,0-1.9-0.9-1.9-2c0-1,0.9-1.9,1.9-1.9
			C29,57.2,29.9,58.1,29.9,59.2C29.9,59.2,29.9,59.2,29.9,59.2"/>
		<path id="Path_12553" class="st11" d="M51.3,59.2c0,1.1-0.9,1.9-2,1.9c-1.1,0-1.9-0.9-1.9-2c0-1,0.9-1.9,1.9-1.9
			C50.5,57.2,51.3,58.1,51.3,59.2C51.3,59.2,51.3,59.2,51.3,59.2"/>
		<path id="Path_12554" class="st11" d="M72.8,59.2c0,1.1-0.9,1.9-2,1.9c-1.1,0-1.9-0.9-1.9-2c0-1.1,0.9-1.9,2-1.9
			C72,57.2,72.8,58.1,72.8,59.2C72.8,59.2,72.8,59.2,72.8,59.2"/>
		<path id="Path_12555" class="st11" d="M94.3,59.2c0,1.1-0.9,1.9-2,1.9c-1.1,0-1.9-0.9-1.9-2c0-1,0.9-1.9,1.9-1.9
			C93.4,57.2,94.3,58.1,94.3,59.2C94.3,59.2,94.3,59.2,94.3,59.2"/>
		<path id="Path_12556" class="st11" d="M115.8,59.2c0,1.1-0.9,1.9-2,1.9s-1.9-0.9-1.9-2c0-1,0.9-1.9,1.9-1.9
			C114.9,57.2,115.8,58.1,115.8,59.2C115.8,59.2,115.8,59.2,115.8,59.2"/>
		<path id="Path_12557" class="st11" d="M137.2,59.2c0,1.1-0.9,1.9-2,1.9s-1.9-0.9-1.9-2c0-1,0.9-1.9,1.9-1.9
			C136.4,57.2,137.2,58.1,137.2,59.2C137.2,59.2,137.2,59.2,137.2,59.2"/>
		<path id="Path_12558" class="st11" d="M158.7,59.2c0,1.1-0.9,1.9-2,1.9c-1.1,0-1.9-0.9-1.9-2c0-1,0.9-1.9,1.9-1.9
			C157.8,57.2,158.7,58.1,158.7,59.2C158.7,59.2,158.7,59.2,158.7,59.2"/>
		<path id="Path_12559" class="st11" d="M180.2,59.2c0,1.1-0.9,1.9-2,1.9c-1.1,0-1.9-0.9-1.9-2c0-1.1,0.9-1.9,2-1.9
			C179.3,57.2,180.2,58.1,180.2,59.2C180.2,59.2,180.2,59.2,180.2,59.2"/>
		<path id="Path_12563" class="st11" d="M8.4,78.3c0,1.1-0.9,1.9-2,1.9c-1.1,0-1.9-0.9-1.9-2c0-1.1,0.9-1.9,2-1.9
			C7.5,76.3,8.4,77.2,8.4,78.3"/>
		<path id="Path_12564" class="st11" d="M29.9,78.3c0,1.1-0.9,1.9-2,1.9s-1.9-0.9-1.9-2c0-1,0.9-1.9,1.9-1.9
			C29,76.3,29.9,77.2,29.9,78.3"/>
		<path id="Path_12565" class="st11" d="M51.3,78.3c0,1.1-0.9,1.9-2,1.9c-1.1,0-1.9-0.9-1.9-2c0-1,0.9-1.9,1.9-1.9
			C50.5,76.3,51.4,77.2,51.3,78.3"/>
		<path id="Path_12566" class="st11" d="M72.8,78.3c0,1.1-0.9,1.9-2,1.9c-1.1,0-1.9-0.9-1.9-2c0-1.1,0.9-1.9,2-1.9
			C72,76.3,72.8,77.2,72.8,78.3"/>
		<path id="Path_12567" class="st11" d="M94.3,78.3c0,1.1-0.9,1.9-2,1.9c-1.1,0-1.9-0.9-1.9-2c0-1,0.9-1.9,1.9-1.9
			C93.4,76.3,94.3,77.2,94.3,78.3"/>
		<path id="Path_12568" class="st11" d="M115.8,78.3c0,1.1-0.9,1.9-2,1.9c-1.1,0-1.9-0.9-1.9-2c0-1,0.9-1.9,1.9-1.9
			C114.9,76.3,115.8,77.2,115.8,78.3"/>
		<path id="Path_12569" class="st11" d="M137.2,78.3c0,1.1-0.9,1.9-2,1.9c-1.1,0-1.9-0.9-1.9-2c0-1,0.9-1.9,1.9-1.9
			C136.4,76.3,137.3,77.2,137.2,78.3"/>
		<path id="Path_12570" class="st11" d="M158.7,78.3c0,1.1-0.9,1.9-2,1.9c-1.1,0-1.9-0.9-1.9-2c0-1,0.9-1.9,1.9-1.9
			C157.8,76.3,158.7,77.2,158.7,78.3"/>
		<path id="Path_12571" class="st11" d="M180.2,78.3c0,1.1-0.9,1.9-2,1.9s-1.9-0.9-1.9-2c0-1.1,0.9-1.9,2-1.9
			C179.3,76.3,180.2,77.2,180.2,78.3"/>
		<path id="Path_12575" class="st11" d="M8.4,97.3c0,1.1-0.9,1.9-2,1.9c-1.1,0-1.9-0.9-1.9-2c0-1.1,0.9-1.9,2-1.9
			C7.5,95.3,8.4,96.2,8.4,97.3"/>
		<path id="Path_12576" class="st11" d="M29.9,97.3c0,1.1-0.9,1.9-2,1.9c-1.1,0-1.9-0.9-1.9-2c0-1,0.9-1.9,1.9-1.9
			C29,95.3,29.9,96.2,29.9,97.3C29.9,97.3,29.9,97.3,29.9,97.3"/>
		<path id="Path_12577" class="st11" d="M51.3,97.3c0,1.1-0.9,1.9-2,1.9c-1.1,0-1.9-0.9-1.9-2c0-1,0.9-1.9,1.9-1.9
			C50.5,95.3,51.4,96.2,51.3,97.3"/>
		<path id="Path_12578" class="st11" d="M72.8,97.3c0,1.1-0.9,1.9-2,1.9c-1.1,0-1.9-0.9-1.9-2c0-1.1,0.9-1.9,2-1.9
			C72,95.3,72.8,96.2,72.8,97.3"/>
		<path id="Path_12579" class="st11" d="M94.3,97.3c0,1.1-0.9,1.9-2,1.9c-1.1,0-1.9-0.9-1.9-2c0-1,0.9-1.9,1.9-1.9
			C93.4,95.3,94.3,96.2,94.3,97.3"/>
		<path id="Path_12580" class="st11" d="M115.8,97.3c0,1.1-0.9,1.9-2,1.9s-1.9-0.9-1.9-2c0-1,0.9-1.9,1.9-1.9
			C114.9,95.3,115.8,96.2,115.8,97.3"/>
		<path id="Path_12581" class="st11" d="M137.2,97.3c0,1.1-0.9,1.9-2,1.9s-1.9-0.9-1.9-2c0-1,0.9-1.9,1.9-1.9
			C136.4,95.3,137.3,96.2,137.2,97.3"/>
		<path id="Path_12582" class="st11" d="M158.7,97.3c0,1.1-0.9,1.9-2,1.9c-1.1,0-1.9-0.9-1.9-2c0-1,0.9-1.9,1.9-1.9
			C157.8,95.3,158.7,96.2,158.7,97.3"/>
		<path id="Path_12583" class="st11" d="M180.2,97.3c0,1.1-0.9,1.9-2,1.9c-1.1,0-1.9-0.9-1.9-2c0-1,0.9-1.9,2-1.9
			C179.3,95.3,180.2,96.2,180.2,97.3"/>
		<path id="Path_12587" class="st11" d="M8.4,116.4c0,1.1-0.9,1.9-2,1.9c-1.1,0-1.9-0.9-1.9-2c0-1.1,0.9-1.9,2-1.9
			C7.5,114.4,8.4,115.3,8.4,116.4"/>
		<path id="Path_12588" class="st11" d="M29.9,116.4c0,1.1-0.9,1.9-2,1.9c-1.1,0-1.9-0.9-1.9-2c0-1,0.9-1.9,1.9-1.9
			C29,114.4,29.9,115.3,29.9,116.4"/>
		<path id="Path_12589" class="st11" d="M51.3,116.4c0,1.1-0.9,1.9-2,1.9c-1.1,0-1.9-0.9-1.9-2c0-1,0.9-1.9,1.9-1.9
			C50.5,114.4,51.4,115.3,51.3,116.4"/>
		<path id="Path_12590" class="st11" d="M72.8,116.4c0,1.1-0.9,1.9-2,1.9c-1.1,0-1.9-0.9-1.9-2c0-1.1,0.9-1.9,2-1.9
			C72,114.4,72.8,115.3,72.8,116.4"/>
		<path id="Path_12591" class="st11" d="M94.3,116.4c0,1.1-0.9,1.9-2,1.9c-1.1,0-1.9-0.9-1.9-2c0-1,0.9-1.9,1.9-1.9
			C93.4,114.4,94.3,115.3,94.3,116.4"/>
		<path id="Path_12592" class="st11" d="M115.8,116.4c0,1.1-0.9,1.9-2,1.9c-1.1,0-1.9-0.9-1.9-2c0-1,0.9-1.9,1.9-1.9
			C114.9,114.4,115.8,115.3,115.8,116.4"/>
		<path id="Path_12593" class="st11" d="M137.2,116.4c0,1.1-0.9,1.9-2,1.9c-1.1,0-1.9-0.9-1.9-2c0-1,0.9-1.9,1.9-1.9
			C136.4,114.4,137.3,115.3,137.2,116.4"/>
		<path id="Path_12594" class="st11" d="M158.7,116.4c0,1.1-0.9,1.9-2,1.9c-1.1,0-1.9-0.9-1.9-2c0-1,0.9-1.9,1.9-1.9
			C157.8,114.4,158.7,115.3,158.7,116.4"/>
		<path id="Path_12595" class="st11" d="M180.2,116.4c0,1.1-0.9,1.9-2,1.9s-1.9-0.9-1.9-2c0-1.1,0.9-1.9,2-1.9
			C179.3,114.4,180.2,115.3,180.2,116.4"/>
		<path id="Path_12599" class="st11" d="M8.4,135.4c0,1.1-0.9,1.9-2,1.9c-1.1,0-1.9-0.9-1.9-2c0-1.1,0.9-1.9,2-1.9
			C7.5,133.4,8.4,134.3,8.4,135.4"/>
		<path id="Path_12600" class="st11" d="M29.9,135.4c0,1.1-0.9,1.9-2,1.9c-1.1,0-1.9-0.9-1.9-2c0-1,0.9-1.9,1.9-1.9
			C29,133.4,29.9,134.3,29.9,135.4"/>
		<path id="Path_12601" class="st11" d="M51.3,135.4c0,1.1-0.9,1.9-2,1.9c-1.1,0-1.9-0.9-1.9-2c0-1.1,0.9-1.9,1.9-1.9
			C50.5,133.4,51.3,134.3,51.3,135.4"/>
		<path id="Path_12602" class="st11" d="M72.8,135.4c0,1.1-0.9,1.9-2,1.9c-1.1,0-1.9-0.9-1.9-2c0-1.1,0.9-1.9,2-1.9
			C72,133.4,72.8,134.3,72.8,135.4"/>
		<path id="Path_12603" class="st11" d="M94.3,135.4c0,1.1-0.9,1.9-2,1.9c-1.1,0-1.9-0.9-1.9-2c0-1.1,0.9-1.9,1.9-1.9
			C93.4,133.4,94.3,134.3,94.3,135.4"/>
		<path id="Path_12604" class="st11" d="M115.8,135.4c0,1.1-0.9,1.9-2,1.9c-1.1,0-1.9-0.9-1.9-2c0-1.1,0.9-1.9,1.9-1.9
			C114.9,133.4,115.8,134.3,115.8,135.4"/>
		<path id="Path_12605" class="st11" d="M137.2,135.4c0,1.1-0.9,1.9-2,1.9c-1.1,0-1.9-0.9-1.9-2c0-1.1,0.9-1.9,1.9-1.9
			C136.4,133.4,137.2,134.3,137.2,135.4"/>
		<path id="Path_12606" class="st11" d="M158.7,135.4c0,1.1-0.9,1.9-2,1.9c-1.1,0-1.9-0.9-1.9-2c0-1.1,0.9-1.9,1.9-1.9
			C157.8,133.4,158.7,134.3,158.7,135.4"/>
		<path id="Path_12607" class="st11" d="M180.2,135.4c0,1.1-0.9,1.9-2,1.9c-1.1,0-1.9-0.9-1.9-2c0-1.1,0.9-1.9,2-1.9
			C179.3,133.4,180.2,134.3,180.2,135.4"/>
		<path id="Path_12611" class="st11" d="M8.4,154.5c0,1.1-0.9,1.9-2,1.9s-1.9-0.9-1.9-2c0-1.1,0.9-1.9,2-1.9
			C7.5,152.5,8.4,153.4,8.4,154.5"/>
		<path id="Path_12612" class="st11" d="M29.9,154.5c0,1.1-0.9,1.9-2,1.9s-1.9-0.9-1.9-2c0-1,0.9-1.9,1.9-1.9
			C29,152.4,29.9,153.4,29.9,154.5"/>
		<path id="Path_12613" class="st11" d="M51.3,154.5c0,1.1-0.9,1.9-2,1.9s-1.9-0.9-1.9-2c0-1,0.9-1.9,1.9-1.9
			C50.5,152.4,51.4,153.4,51.3,154.5"/>
		<path id="Path_12614" class="st11" d="M72.8,154.5c0,1.1-0.9,1.9-2,1.9c-1.1,0-1.9-0.9-1.9-2c0-1.1,0.9-1.9,2-1.9
			C72,152.5,72.8,153.4,72.8,154.5"/>
		<path id="Path_12615" class="st11" d="M94.3,154.5c0,1.1-0.9,1.9-2,1.9c-1.1,0-1.9-0.9-1.9-2c0-1,0.9-1.9,1.9-1.9
			C93.4,152.4,94.3,153.4,94.3,154.5"/>
		<path id="Path_12616" class="st11" d="M115.8,154.5c0,1.1-0.9,1.9-2,1.9s-1.9-0.9-1.9-2c0-1,0.9-1.9,1.9-1.9
			C114.9,152.4,115.8,153.4,115.8,154.5"/>
		<path id="Path_12617" class="st11" d="M137.2,154.5c0,1.1-0.9,1.9-2,1.9s-1.9-0.9-1.9-2c0-1,0.9-1.9,1.9-1.9
			C136.4,152.4,137.3,153.4,137.2,154.5"/>
		<path id="Path_12618" class="st11" d="M158.7,154.5c0,1.1-0.9,1.9-2,1.9c-1.1,0-1.9-0.9-1.9-2c0-1,0.9-1.9,1.9-1.9
			C157.8,152.4,158.7,153.4,158.7,154.5"/>
		<path id="Path_12619" class="st11" d="M180.2,154.5c0,1.1-0.9,1.9-2,1.9c-1.1,0-1.9-0.9-1.9-2c0-1.1,0.9-1.9,2-1.9
			C179.3,152.4,180.2,153.4,180.2,154.5"/>
		<path id="Path_12623" class="st11" d="M8.4,173.5c0,1.1-0.9,1.9-2,1.9c-1.1,0-1.9-0.9-1.9-2c0-1.1,0.9-1.9,2-1.9
			C7.5,171.5,8.4,172.4,8.4,173.5"/>
		<path id="Path_12624" class="st11" d="M29.9,173.5c0,1.1-0.9,1.9-2,1.9s-1.9-0.9-1.9-2c0-1,0.9-1.9,1.9-1.9
			C29,171.5,29.9,172.4,29.9,173.5"/>
		<path id="Path_12625" class="st11" d="M51.3,173.5c0,1.1-0.9,1.9-2,1.9c-1.1,0-1.9-0.9-1.9-2c0-1,0.9-1.9,1.9-1.9
			C50.5,171.5,51.4,172.4,51.3,173.5"/>
		<path id="Path_12626" class="st11" d="M72.8,173.5c0,1.1-0.9,1.9-2,1.9c-1.1,0-1.9-0.9-1.9-2c0-1.1,0.9-1.9,2-1.9
			C72,171.5,72.8,172.4,72.8,173.5"/>
		<path id="Path_12627" class="st11" d="M94.3,173.5c0,1.1-0.9,1.9-2,1.9c-1.1,0-1.9-0.9-1.9-2c0-1,0.9-1.9,1.9-1.9
			C93.4,171.5,94.3,172.4,94.3,173.5"/>
		<path id="Path_12628" class="st11" d="M115.8,173.5c0,1.1-0.9,1.9-2,1.9c-1.1,0-1.9-0.9-1.9-2c0-1,0.9-1.9,1.9-1.9
			C114.9,171.5,115.8,172.4,115.8,173.5"/>
		<path id="Path_12629" class="st11" d="M137.2,173.5c0,1.1-0.9,1.9-2,1.9c-1.1,0-1.9-0.9-1.9-2c0-1,0.9-1.9,1.9-1.9
			C136.4,171.5,137.3,172.4,137.2,173.5"/>
		<path id="Path_12630" class="st11" d="M158.7,173.5c0,1.1-0.9,1.9-2,1.9c-1.1,0-1.9-0.9-1.9-2c0-1,0.9-1.9,1.9-1.9
			C157.8,171.5,158.7,172.4,158.7,173.5"/>
		<path id="Path_12631" class="st11" d="M180.2,173.5c0,1.1-0.9,1.9-2,1.9c-1.1,0-1.9-0.9-1.9-2c0-1.1,0.9-1.9,2-1.9
			C179.3,171.5,180.2,172.4,180.2,173.5"/>
	</g>
</g>
</svg>
