<?xml version="1.0" encoding="utf-8"?>
<!-- Generator: Adobe Illustrator 28.1.0, SVG Export Plug-In . SVG Version: 6.00 Build 0)  -->
<svg version="1.1" id="Layer_1" xmlns="http://www.w3.org/2000/svg" xmlns:xlink="http://www.w3.org/1999/xlink" x="0px" y="0px"
	 viewBox="0 0 35.7 108.6" style="enable-background:new 0 0 35.7 108.6;" xml:space="preserve">
<style type="text/css">
	.st0{fill:#517C90;}
</style>
<g>
	<path id="Path_11607" class="st0" d="M4.2,2.1c0,1.2-0.9,2.1-2.1,2.1C0.9,4.2,0,3.3,0,2.1C0,0.9,0.9,0,2.1,0C3.3,0,4.2,0.9,4.2,2.1
		"/>
	<path id="Path_11608" class="st0" d="M20,2.1c0,1.2-0.9,2.1-2.1,2.1c-1.2,0-2.1-0.9-2.1-2.1S16.7,0,17.9,0c0,0,0,0,0,0
		C19,0,20,0.9,20,2.1"/>
	<path id="Path_11609" class="st0" d="M35.7,2.1c0,1.2-0.9,2.1-2.1,2.1c-1.2,0-2.1-0.9-2.1-2.1c0-1.2,0.9-2.1,2.1-2.1
		C34.8,0,35.7,0.9,35.7,2.1"/>
	<path id="Path_11611" class="st0" d="M4.2,17c0,1.2-0.9,2.1-2.1,2.1C0.9,19.1,0,18.1,0,17s0.9-2.1,2.1-2.1c0,0,0,0,0,0
		C3.3,14.8,4.2,15.8,4.2,17"/>
	<path id="Path_11612" class="st0" d="M20,17c0,1.2-0.9,2.1-2.1,2.1c-1.2,0-2.1-0.9-2.1-2.1s0.9-2.1,2.1-2.1c0,0,0,0,0,0
		C19,14.8,20,15.8,20,17"/>
	<path id="Path_11613" class="st0" d="M35.7,17c0,1.2-0.9,2.1-2.1,2.1c-1.2,0-2.1-0.9-2.1-2.1s0.9-2.1,2.1-2.1c0,0,0,0,0,0
		C34.8,14.8,35.7,15.8,35.7,17"/>
	<path id="Path_11615" class="st0" d="M4.2,31.8c0,1.2-0.9,2.1-2.1,2.1C0.9,33.9,0,33,0,31.8c0-1.2,0.9-2.1,2.1-2.1c0,0,0,0,0,0
		C3.3,29.7,4.2,30.6,4.2,31.8"/>
	<path id="Path_11616" class="st0" d="M20,31.8c0,1.2-0.9,2.1-2.1,2.1c-1.2,0-2.1-0.9-2.1-2.1c0-1.2,0.9-2.1,2.1-2.1l0,0
		C19,29.7,20,30.6,20,31.8"/>
	<path id="Path_11617" class="st0" d="M35.7,31.8c0,1.2-0.9,2.1-2.1,2.1c-1.2,0-2.1-0.9-2.1-2.1c0-1.2,0.9-2.1,2.1-2.1
		C34.8,29.7,35.7,30.6,35.7,31.8"/>
	<path id="Path_11619" class="st0" d="M4.2,46.6c0,1.2-0.9,2.1-2.1,2.1c-1.2,0-2.1-0.9-2.1-2.1s0.9-2.1,2.1-2.1c0,0,0,0,0,0
		C3.3,44.5,4.2,45.4,4.2,46.6"/>
	<path id="Path_11620" class="st0" d="M20,46.6c0,1.2-0.9,2.1-2.1,2.1c-1.2,0-2.1-0.9-2.1-2.1s0.9-2.1,2.1-2.1c0,0,0,0,0,0
		C19,44.5,20,45.4,20,46.6"/>
	<path id="Path_11621" class="st0" d="M35.7,46.6c0,1.2-0.9,2.1-2.1,2.1c-1.2,0-2.1-0.9-2.1-2.1s0.9-2.1,2.1-2.1c0,0,0,0,0,0
		C34.8,44.5,35.7,45.4,35.7,46.6"/>
	<path id="Path_11639" class="st0" d="M4.2,62c0,1.2-0.9,2.1-2.1,2.1C0.9,64.1,0,63.1,0,62s0.9-2.1,2.1-2.1c0,0,0,0,0,0
		C3.3,59.9,4.2,60.8,4.2,62"/>
	<path id="Path_11640" class="st0" d="M20,62c0,1.2-0.9,2.1-2.1,2.1c-1.2,0-2.1-0.9-2.1-2.1s0.9-2.1,2.1-2.1c0,0,0,0,0,0
		C19,59.9,20,60.8,20,62"/>
	<path id="Path_11641" class="st0" d="M35.7,62c0,1.2-0.9,2.1-2.1,2.1c-1.2,0-2.1-0.9-2.1-2.1s0.9-2.1,2.1-2.1c0,0,0,0,0,0
		C34.8,59.9,35.7,60.8,35.7,62"/>
	<path id="Path_11643" class="st0" d="M4.2,76.8c0,1.2-0.9,2.1-2.1,2.1S0,78,0,76.8s0.9-2.1,2.1-2.1c0,0,0,0,0,0
		C3.3,74.7,4.2,75.6,4.2,76.8"/>
	<path id="Path_11644" class="st0" d="M20,76.8c0,1.2-0.9,2.1-2.1,2.1s-2.1-0.9-2.1-2.1s0.9-2.1,2.1-2.1c0,0,0,0,0,0
		C19,74.7,20,75.6,20,76.8"/>
	<path id="Path_11645" class="st0" d="M35.7,76.8c0,1.2-0.9,2.1-2.1,2.1s-2.1-0.9-2.1-2.1s0.9-2.1,2.1-2.1c0,0,0,0,0,0
		C34.8,74.7,35.7,75.6,35.7,76.8"/>
	<path id="Path_11647" class="st0" d="M4.2,91.6c0,1.2-0.9,2.1-2.1,2.1S0,92.8,0,91.6s0.9-2.1,2.1-2.1c0,0,0,0,0,0
		C3.3,89.5,4.2,90.5,4.2,91.6"/>
	<path id="Path_11648" class="st0" d="M20,91.6c0,1.2-0.9,2.1-2.1,2.1s-2.1-0.9-2.1-2.1s0.9-2.1,2.1-2.1c0,0,0,0,0,0
		C19,89.5,20,90.5,20,91.6"/>
	<path id="Path_11649" class="st0" d="M35.7,91.6c0,1.2-0.9,2.1-2.1,2.1s-2.1-0.9-2.1-2.1s0.9-2.1,2.1-2.1c0,0,0,0,0,0
		C34.8,89.5,35.7,90.5,35.7,91.6"/>
	<path id="Path_11651" class="st0" d="M4.2,106.5c0,1.2-0.9,2.1-2.1,2.1S0,107.6,0,106.5s0.9-2.1,2.1-2.1c0,0,0,0,0,0
		C3.3,104.4,4.2,105.3,4.2,106.5"/>
	<path id="Path_11652" class="st0" d="M20,106.5c0,1.2-0.9,2.1-2.1,2.1s-2.1-0.9-2.1-2.1c0-1.2,0.9-2.1,2.1-2.1c0,0,0,0,0,0
		C19,104.4,20,105.3,20,106.5"/>
	<path id="Path_11653" class="st0" d="M35.7,106.5c0,1.2-0.9,2.1-2.1,2.1s-2.1-0.9-2.1-2.1c0-1.2,0.9-2.1,2.1-2.1c0,0,0,0,0,0
		C34.8,104.4,35.7,105.3,35.7,106.5"/>
</g>
</svg>
