<?xml version="1.0" encoding="utf-8"?>
<!-- Generator: Adobe Illustrator 28.1.0, SVG Export Plug-In . SVG Version: 6.00 Build 0)  -->
<svg version="1.1" id="industries1" xmlns="http://www.w3.org/2000/svg" xmlns:xlink="http://www.w3.org/1999/xlink" x="0px"
	 y="0px" viewBox="0 0 200.2 200" style="enable-background:new 0 0 200.2 200;" xml:space="preserve">
<style type="text/css">
	.st0{fill:#55879B;}
</style>
<g>
	<g>
		<path class="st0" d="M174.3,122.8c0-8.5-5.4-15.7-12.9-18.4V83.5c0-5.9-5.1-11.2-11.9-12.3c-3.9-0.7-9.3-1.3-16.1-1.9
			c-1.7-0.1-3.2,1.1-3.3,2.8s1.1,3.2,2.8,3.3c6.5,0.6,11.9,1.2,15.6,1.8c3.7,0.6,6.8,3.4,6.8,6.2v19.8c-0.1,0-0.3,0-0.4,0
			c-4.9,0-8.7,1.5-11.6,3.6c-0.1-0.6-0.1-1.1-0.3-1.7c-1.8-8.4-8.3-25.8-14-33c-5.6-7-15.9-10.8-29-10.8c-12.7,0-22.5,3.5-28.3,10
			c-5.9,6.6-12.1,27-14.1,36.4c-0.1,0.4-0.2,0.9-0.3,1.5c-3-3.2-7.2-5.6-12.6-5.9V83.5c0-2.8,3-5.6,6.8-6.2
			c3.7-0.6,9.1-1.2,15.6-1.8c1.7-0.1,3-1.6,2.8-3.3c-0.1-1.7-1.6-3-3.3-2.8c-6.8,0.6-12.2,1.2-16.1,1.9c-6.8,1.2-11.9,6.5-11.9,12.3
			V104c-8.5,2.1-14.8,9.8-14.8,19c0,5.8,2.5,11.2,6.9,14.9c-2.5,14,0.5,34.9,0.9,37.5v9.3c0,2.5,2.1,4.6,4.6,4.6h17.5
			c2.5,0,4.6-2.1,4.6-4.6v-4.1h45.4l-0.1,7.7c0,6,5.2,10.9,11.8,11.2c0.2,0,0.5,0,0.7,0c6.6,0,11.3-4,12-10.2v-0.1l0.6-8.6h11.5v4.1
			c0,2.5,2.1,4.6,4.6,4.6h17.5c2.5,0,4.6-2.1,4.6-4.6v-9.4c0.4-2.6,3.4-23.5,0.9-37.5C171.7,134,174.3,128.6,174.3,122.8z
			 M72.5,107.1c0.4,0,0.9,0.1,1.5,0.2c0.1,0,0.2,0.1,0.4,0.1c2.1,0.6,4.7,2.5,4.6,8.7c0,0.1,0,0.1,0,0.2l-6.9-2.3
			c-1.4-0.4-3.2-0.7-5.3-0.6c0.1-3.8,0.9-5.2,1.3-5.6C68.6,107.1,68.9,106.8,72.5,107.1z M62.4,140.3c0.6,0.2,1.2,0.5,1.9,0.6
			l11.5,3.1H62.9c-0.3,0-0.5-0.2-0.5-0.3V140.3z M65.9,135c-2.5-0.7-4.5-2.2-5.6-4.2c-0.7-1.2-1.3-3.2-0.6-5.6
			c0.6-2.1,1.8-3.7,3.6-4.6c0.2-0.1,0.4-0.2,0.6-0.3l0,0c2.2-0.9,4.7-0.8,6.2-0.3l10.3,3.4l0,0l0,0l23.3,7.6l-0.1,14.3L65.9,135z
			 M104.4,124.6L85,118.3c0.1-0.7,0.1-1.4,0.2-2c0.1-6.8-2.5-11.7-7.1-14v-4.4h43.6v4.4c-4.4,2.1-6.9,6.6-7.1,12.8
			C109.2,116.2,105.8,120.2,104.4,124.6z M120.7,114.8c0.3-5.2,2.7-6.8,4.6-7.4c0.1,0,0.2-0.1,0.4-0.1c0.6-0.1,1.2-0.2,1.5-0.2
			c3.6-0.3,3.9,0,4.4,0.7c0.5,0.5,1.5,2.5,1.3,8.4c-0.2,4.6-0.6,6.7-2,7.8c-0.7-2-1.8-3.8-3.2-5.3
			C125.7,116.6,123.3,115.3,120.7,114.8z M131.5,133.3l0.2-3c1.5-0.5,2.7-1.2,3.7-2.1v7L131.5,133.3z M131,140l4,1.9
			c2.7,1.6,3.5,3.7,2.7,6.8c-0.3,1.2-1.1,2.2-2.1,2.8c-1.2,0.7-2.7,0.7-4.6,0.1l-0.7-0.2L131,140z M76.1,75.5
			c4.5-5.1,12.9-7.9,23.7-7.9c11.2,0,19.8,3,24.2,8.5c4.4,5.4,9.8,19.1,12.1,27.5c-2.4-2.6-5-2.9-8.3-2.7v-4.7c0-2.5-2-4.5-4.5-4.5
			h-47c-2.5,0-4.5,2-4.5,4.5v4.7c-2.6-0.1-4.7,0-6.7,1.3C68,91.9,72.5,79.5,76.1,75.5z M54.8,174.3c-1.7,0-3.1,1.4-3.1,3.1v5.6H37.5
			v-8c0-0.2,0-0.3,0-0.5s-3.7-24.1-0.6-37.4c0.3-1.2-0.2-2.5-1.3-3.3c-3.7-2.5-5.9-6.6-5.9-11.1c0-7.4,6-13.4,13.4-13.4
			c7.1,0,11.2,4.7,12.9,9.5c-0.9,1.3-1.7,2.7-2.1,4.4c-1.1,3.5-0.6,7.2,1.1,10.4c0.4,0.7,0.8,1.3,1.3,2v8.1c0,3.6,3,6.4,6.7,6.4
			h35.7l4.9,1.3l-0.2,22.7H54.8V174.3z M115.4,193.2c-3.3-0.1-5.9-2.4-5.9-5l0.5-59.1c0-2.3,1.5-8.3,8.2-8.3l0,0c2.4,0,4,1.2,5,2.2
			c1.6,1.7,2.5,4.2,2.4,6.8l-3.9,58.9C121.1,192.8,117.5,193.3,115.4,193.2z M162.2,133.9c-1.1,0.7-1.6,2-1.3,3.3
			c3.1,13.3-0.6,37.1-0.6,37.4c0,0.2,0,0.3,0,0.5v8H146v-5.6c0-1.7-1.4-3.1-3.1-3.1h-14.2l1.1-16.6c1.3,0.3,2.4,0.5,3.5,0.5
			c2.2,0,4-0.6,5.2-1.3c2.5-1.4,4.3-3.8,5.1-6.6c1.2-4.3,0.4-8-2.2-10.9V122c0-2.5,2.4-12.4,13.2-12.4c7.4,0,13.4,6,13.4,13.4
			C168.1,127.2,165.9,131.4,162.2,133.9z"/>
		<path class="st0" d="M99.8,10.6c-13.4,0-24.4,10.9-24.4,24.4c0,13.4,10.9,24.4,24.4,24.4s24.4-10.9,24.4-24.4
			S113.2,10.6,99.8,10.6z M99.8,53.1c-10,0-18.2-8.2-18.2-18.2s8.2-18.2,18.2-18.2S118,24.9,118,35C118,45,109.8,53.1,99.8,53.1z"/>
		<path class="st0" d="M70.3,44c1.7,0,3.1-1.4,3.1-3.1V28.8c0-1.7-1.4-3.1-3.1-3.1s-3.1,1.4-3.1,3.1v12.1C67.2,42.6,68.6,44,70.3,44
			z"/>
		<path class="st0" d="M126.2,28.8v12.1c0,1.7,1.4,3.1,3.1,3.1s3.1-1.4,3.1-3.1V28.8c0-1.7-1.4-3.1-3.1-3.1S126.2,27.1,126.2,28.8z"
			/>
		<path class="st0" d="M71.3,23.5c0.5,0.2,1,0.4,1.4,0.4c1.1,0,2.2-0.6,2.7-1.7c4.8-9.1,14.1-14.7,24.3-14.7s19.6,5.6,24.3,14.7
			c0.8,1.5,2.7,2.1,4.2,1.3c1.5-0.8,2.1-2.7,1.3-4.2c-5.8-11.1-17.3-18-29.8-18s-24,6.9-29.8,18C69.2,20.8,69.8,22.7,71.3,23.5z"/>
	</g>
</g>
</svg>
