<?xml version="1.0" encoding="utf-8"?>
<!-- Generator: Adobe Illustrator 28.1.0, SVG Export Plug-In . SVG Version: 6.00 Build 0)  -->
<svg version="1.1" id="industries1" xmlns="http://www.w3.org/2000/svg" xmlns:xlink="http://www.w3.org/1999/xlink" x="0px"
	 y="0px" viewBox="0 0 200 200" style="enable-background:new 0 0 200 200;" xml:space="preserve">
<style type="text/css">
	.st0{fill:#4C4C4C;}
	.st1{fill:#FFFFFF;}
	.st2{fill:none;stroke:#4C4C4C;stroke-width:16;}
	.st3{fill:none;stroke:#4C4C4C;stroke-width:16;stroke-linejoin:round;}
	.st4{fill:none;stroke:#4C4C4C;stroke-width:16;stroke-miterlimit:10;}
	.st5{fill:none;stroke:#4C4C4C;stroke-width:12.8;}
	.st6{fill:none;stroke:#010A14;stroke-width:6.1868;stroke-linecap:round;stroke-linejoin:round;stroke-miterlimit:10;}
	.st7{fill:#FF0000;}
	.st8{fill:#55879B;}
</style>
<g>
	<path class="st8" d="M173.2,104.3c-11.8,0-21.7,8.3-23.9,19.2c-7.8,0.8-15,4.1-20.6,9.5c-6.5,6.3-10,14.7-10,23.6v9.9
		c0,6.2-2.5,12-7,16.4c-4.5,4.4-10.6,6.9-17,6.9c-13.2,0-24-10.4-24-23.2l0-24.3c14.9-1.1,28.7-7.2,39.3-17.6
		c11.8-11.5,18.4-26.8,18.4-43.1l0-48.3c0-13.1-10.9-23.8-24.3-23.8l-13.8,0l0-4.7c0-2.7-2.2-4.8-4.8-4.8c-2.7,0-4.8,2.2-4.8,4.8
		l0,9.5c0,0,0,0,0,0s0,0,0,0l0,9.5c0,2.7,2.2,4.8,4.8,4.8c2.7,0,4.8-2.2,4.8-4.8l0-4.7l13.8,0c8.1,0,14.7,6.4,14.7,14.2l0,48.3
		c0,13.7-5.5,26.5-15.4,36.2c-10,9.7-23.3,15.1-37.4,15.1c-29.2,0-52.9-23-52.9-51.3l0-48.3c0-3.8,1.5-7.3,4.3-10
		c2.8-2.7,6.5-4.2,10.5-4.2h13.8l0,4.7c0,2.7,2.2,4.8,4.8,4.8c2.7,0,4.8-2.2,4.8-4.8l0-19c0-2.7-2.2-4.8-4.8-4.8
		c-2.7,0-4.8,2.2-4.8,4.8l0,4.7H27.6c-6.5,0-12.6,2.5-17.2,6.9c-4.6,4.5-7.2,10.5-7.2,16.9l0,48.3c0,32,25.5,58.3,57.7,60.7l0,24.3
		c0,18.1,15.1,32.9,33.7,32.9c0,0,0,0,0,0c9,0,17.4-3.4,23.8-9.6c6.4-6.2,9.9-14.5,9.9-23.3v-9.9c0-6.3,2.5-12.2,7.1-16.7
		c3.8-3.7,8.7-6.1,14-6.8c2.4,10.7,12.1,18.8,23.8,18.8c13.4,0,24.3-10.7,24.3-23.8v0C197.5,115,186.6,104.3,173.2,104.3z
		 M173.2,142.3c-8.1,0-14.7-6.4-14.7-14.2c0-7.8,6.6-14.2,14.7-14.2s14.7,6.4,14.7,14.2C187.9,135.9,181.3,142.3,173.2,142.3z"/>
</g>
</svg>
