<?xml version="1.0" encoding="utf-8"?>
<!-- Generator: Adobe Illustrator 28.1.0, SVG Export Plug-In . SVG Version: 6.00 Build 0)  -->
<svg version="1.1" id="industries1" xmlns="http://www.w3.org/2000/svg" xmlns:xlink="http://www.w3.org/1999/xlink" x="0px"
	 y="0px" viewBox="0 0 200 200" style="enable-background:new 0 0 200 200;" xml:space="preserve">
<style type="text/css">
	.st0{fill:#4C4C4C;}
	.st1{fill:#FFFFFF;}
	.st2{fill:none;stroke:#4C4C4C;stroke-width:16;}
	.st3{fill:none;stroke:#4C4C4C;stroke-width:16;stroke-linejoin:round;}
	.st4{fill:none;stroke:#4C4C4C;stroke-width:16;stroke-miterlimit:10;}
	.st5{fill:none;stroke:#4C4C4C;stroke-width:12.8;}
	.st6{fill:none;stroke:#010A14;stroke-width:6.1868;stroke-linecap:round;stroke-linejoin:round;stroke-miterlimit:10;}
	.st7{fill:#FF0000;}
	.st8{fill:#55879B;}
</style>
<g>
	<g>
		<path class="st8" d="M57.9,162.2H44.7L12,146.9c-5.3-2.3-8.8-7.6-8.8-13.4V60c0-2.9,0.9-5.7,2.5-8.1l5.9-8.9
			c2.3-3.5,3.2-7.7,2.3-11.8l-1.6-8.3v-5.5h22c3,0,5.7-1.3,7.6-3.7l6.7-8.5H54l6.7,8.5c1.8,2.3,4.6,3.7,7.6,3.7h22l0,6l-1.6,7.8
			c-0.8,4.1,0,8.3,2.3,11.8l5.9,8.9c1.6,2.4,2.5,5.2,2.5,8.1v48h-5V60c0-1.9-0.6-3.8-1.6-5.4l-5.9-8.9c-3.1-4.6-4.2-10.1-3.1-15.6
			l1.5-7.5v-0.3h-17c-4.5,0-8.7-2-11.5-5.6l-5.2-6.6H51l-5.2,6.6c-2.8,3.5-7,5.6-11.5,5.6h-17v0.3l1.5,7.5c1.1,5.4,0,11-3.1,15.6
			l-5.9,8.9c-1.1,1.6-1.6,3.4-1.6,5.4v73.4c0,3.9,2.3,7.4,5.9,8.9l31.7,14.9h11.1l34.7-14.9l2,4.6L57.9,162.2z"/>
		<path class="st8" d="M142.5,198.7v-5c27.1,0,49.2-22.1,49.2-49.2c0-11.3-3.9-22.4-11.1-31.1l3.9-3.2c7.9,9.6,12.2,21.8,12.2,34.3
			C196.7,174.4,172.4,198.7,142.5,198.7z"/>
		<path class="st8" d="M108.3,186.5c-12.7-10.3-20-25.7-20-42c0-29.9,24.3-54.2,54.2-54.2c10.4,0,20.4,2.9,29.1,8.5l-2.7,4.2
			c-7.9-5-17-7.7-26.4-7.7c-27.1,0-49.2,22.1-49.2,49.2c0,14.8,6.6,28.8,18.1,38.1L108.3,186.5z"/>
		<path class="st8" d="M142.5,186.5c-23.2,0-42-18.9-42-42s18.9-42,42-42c10.6,0,20.7,3.9,28.5,11.1l-3.4,3.7
			c-6.8-6.3-15.8-9.8-25.1-9.8c-20.4,0-37,16.6-37,37c0,20.4,16.6,37,37,37s37-16.6,37-37h5C184.5,167.7,165.7,186.5,142.5,186.5z"
			/>
		<path class="st8" d="M142.5,174.4c-16.5,0-29.9-13.4-29.9-29.9c0-16.5,13.4-29.9,29.9-29.9s29.9,13.4,29.9,29.9
			C172.4,161,159,174.4,142.5,174.4z M142.5,119.7c-13.7,0-24.9,11.2-24.9,24.9s11.2,24.9,24.9,24.9s24.9-11.2,24.9-24.9
			S156.2,119.7,142.5,119.7z"/>
		<g>
			<path class="st8" d="M142.5,186.5H73.8c-10.1,0-18.3-8.2-18.3-18.3v-8.6h5v8.6c0,7.4,6,13.3,13.3,13.3h68.7V186.5z"/>
			<path class="st8" d="M142.5,198.7H73.8c-16.8,0-30.5-13.7-30.5-30.5v-7.9h5v7.9c0,14.1,11.4,25.5,25.5,25.5h68.7V198.7z"/>
		</g>
		<rect x="167.4" y="65.2" class="st8" width="5" height="79.3"/>
		<path class="st8" d="M184.5,58.8h-17.2V5.2h17.2V58.8z M172.4,53.8h7.2V10.2h-7.2V53.8z"/>
		<circle class="st8" cx="51.3" cy="25.9" r="3"/>
		<rect x="179.5" y="65.2" class="st8" width="5" height="79.3"/>
	</g>
</g>
</svg>
