<?xml version="1.0" encoding="utf-8"?>
<!-- Generator: Adobe Illustrator 28.1.0, SVG Export Plug-In . SVG Version: 6.00 Build 0)  -->
<svg version="1.1" id="industries1" xmlns="http://www.w3.org/2000/svg" xmlns:xlink="http://www.w3.org/1999/xlink" x="0px"
	 y="0px" viewBox="0 0 200 200.2" style="enable-background:new 0 0 200 200.2;" xml:space="preserve">
<style type="text/css">
	.st0{fill:#55879B;}
</style>
<g>
	<g>
		<path class="st0" d="M89,178.8c-42.7,0-77.4-34.7-77.4-77.4S46.3,23.9,89,23.9c8.1,0,16.1,1.3,23.8,3.7l-1.5,4.8
			c-7.3-2.3-14.7-3.5-22.3-3.5c-40,0-72.5,32.5-72.5,72.4s32.5,72.4,72.4,72.4s72.4-32.5,72.4-72.4c0-18.1-6.7-35.4-18.9-48.8
			l3.7-3.4c13,14.3,20.2,32.8,20.2,52.2C166.4,144,131.6,178.8,89,178.8z"/>
		<path class="st0" d="M89,166.8c-36.1,0-65.4-29.4-65.4-65.4C23.5,65.3,52.9,35.9,89,35.9v5c-33.3,0-60.4,27.1-60.4,60.4
			s27.1,60.4,60.4,60.4s60.4-27.1,60.4-60.4c0-19.2-8.8-36.8-24.1-48.3l3-4c16.6,12.5,26.1,31.6,26.1,52.3
			C154.4,137.4,125,166.8,89,166.8z"/>
		<path class="st0" d="M89,154.8c-29.5,0-53.4-24-53.4-53.4C35.5,71.9,59.5,47.9,89,47.9s53.4,24,53.4,53.4
			C142.4,130.8,118.4,154.8,89,154.8z M89,52.9c-26.7,0-48.4,21.7-48.4,48.4s21.7,48.4,48.4,48.4s48.4-21.7,48.4-48.4
			S115.7,52.9,89,52.9z"/>
		<rect x="89" y="47.9" class="st0" width="68.9" height="5"/>
		<rect x="89" y="35.9" class="st0" width="68.9" height="5"/>
		<rect x="5.1" y="173.8" class="st0" width="83.7" height="5"/>
		<rect x="5.1" y="161.8" class="st0" width="42.5" height="5"/>
		<path class="st0" d="M196.3,55.9h-33.1l-7.9-4v-15l7.9-4h33.1L196.3,55.9L196.3,55.9z M164.5,50.9h26.9v-13h-26.9l-4.1,2v9
			L164.5,50.9z"/>
		<rect x="176.3" y="35.4" class="st0" width="5" height="18"/>
	</g>
</g>
</svg>
