<?xml version="1.0" encoding="utf-8"?>
<!-- Generator: Adobe Illustrator 28.1.0, SVG Export Plug-In . SVG Version: 6.00 Build 0)  -->
<svg version="1.1" id="industries1" xmlns="http://www.w3.org/2000/svg" xmlns:xlink="http://www.w3.org/1999/xlink" x="0px"
	 y="0px" viewBox="0 0 200 200" style="enable-background:new 0 0 200 200;" xml:space="preserve">
<style type="text/css">
	.st0{fill:#4C4C4C;}
	.st1{fill:#FFFFFF;}
	.st2{fill:none;stroke:#4C4C4C;stroke-width:16;}
	.st3{fill:none;stroke:#4C4C4C;stroke-width:16;stroke-linejoin:round;}
	.st4{fill:none;stroke:#4C4C4C;stroke-width:16;stroke-miterlimit:10;}
	.st5{fill:none;stroke:#4C4C4C;stroke-width:12.8;}
	.st6{fill:none;stroke:#010A14;stroke-width:6.1868;stroke-linecap:round;stroke-linejoin:round;stroke-miterlimit:10;}
	.st7{fill:#FF0000;}
	.st8{fill:#55879B;}
</style>
<g>
	<path class="st8" d="M176,199.9h-47.5c-4.6,0-8.4-3.7-8.4-8.2v-59.4l-42.3,0v59.4c0,4.5-3.8,8.2-8.4,8.2H27.1
		c-4.6,0-8.4-3.7-8.4-8.2v-87.1H9.6c-3.5,0-6.5-2-7.8-5.2c-1.2-3.1-0.5-6.5,2-8.8l91-86.5c3.3-3.1,8.4-3.1,11.7,0l91,86.5
		c2.4,2.3,3.2,5.8,2,8.8c-1.3,3.2-4.3,5.2-7.8,5.2h-7.4v87.1C184.3,196.3,180.6,199.9,176,199.9z M129.1,190.9h46.2v-87.1
		c0-4.5,3.8-8.2,8.4-8.2h6.1l-89.1-84.6L11.6,95.7h7.8c4.6,0,8.4,3.7,8.4,8.2v87.1h41v-59.4c0-4.5,3.8-8.2,8.4-8.2l43.6,0
		c4.6,0,8.4,3.7,8.4,8.2V190.9z M101,10.7C101,10.7,101,10.7,101,10.7L101,10.7z"/>
</g>
</svg>
