<?xml version="1.0" encoding="utf-8"?>
<!-- Generator: Adobe Illustrator 28.1.0, SVG Export Plug-In . SVG Version: 6.00 Build 0)  -->
<svg version="1.1" id="Layer_1" xmlns="http://www.w3.org/2000/svg" xmlns:xlink="http://www.w3.org/1999/xlink" x="0px" y="0px"
	 viewBox="0 0 16.7 22.8" style="enable-background:new 0 0 16.7 22.8;" xml:space="preserve">
<style type="text/css">
	.st0{fill:#FFFFFF;}
</style>
<g>
	<path class="st0" d="M16.7,3.8c0,0,0-0.1,0-0.1c0,0,0-0.1,0-0.1c0-0.3-0.2-0.6-0.4-0.8l0,0c-0.3-0.3-0.6-0.4-1-0.4c0,0-0.1,0-0.1,0
		h-1.8v1.1h1.8c0,0,0.1,0,0.1,0l0,0l0,0c0.2,0.1,0.3,0.2,0.3,0.4c0,0,0,0,0,0c0,0,0,0,0,0v17.4c0,0,0,0,0,0c0,0,0,0,0,0
		c0,0.2-0.1,0.3-0.3,0.4l0,0l0,0c0,0-0.1,0-0.1,0H1.6c0,0-0.1,0-0.1,0l0,0l0,0c-0.2-0.1-0.3-0.2-0.3-0.4v0c0,0,0,0,0,0V3.8
		c0,0,0,0,0,0v0c0-0.2,0.1-0.3,0.3-0.4l0,0l0,0c0,0,0.1,0,0.1,0h1.8V2.3H1.6c0,0-0.1,0-0.1,0C1.2,2.3,1,2.4,0.7,2.5l-0.1,0
		c-0.1,0-0.1,0.1-0.2,0.1C0.2,3,0.1,3.3,0,3.6c0,0,0,0.1,0,0.1c0,0,0,0.1,0,0.1v17.4c0,0,0,0.1,0,0.1c0,0,0,0.1,0,0.1
		c0.1,0.3,0.2,0.6,0.5,0.9c0.1,0.1,0.1,0.1,0.2,0.1l0,0c0.2,0.2,0.5,0.3,0.8,0.3c0,0,0.1,0,0.1,0h13.4c0,0,0.1,0,0.1,0
		c0.4,0,0.7-0.2,1-0.4c0,0,0,0,0,0c0.2-0.2,0.4-0.5,0.4-0.8c0,0,0-0.1,0-0.1s0-0.1,0-0.1L16.7,3.8L16.7,3.8z"/>
	<path class="st0" d="M4.6,4.1h7.5c0.4,0,0.7-0.3,0.7-0.7V2.2l0,0c0-0.4-0.3-0.7-0.7-0.7h-1.9C10,0.8,9.5,0.2,8.7,0
		c-1-0.2-2.1,0.4-2.3,1.5H4.6c-0.4,0-0.7,0.3-0.7,0.7v1.3C3.9,3.8,4.2,4.1,4.6,4.1z M8.3,0.8c0.2,0,0.4,0.2,0.4,0.4
		c0,0.2-0.2,0.4-0.4,0.4c-0.2,0-0.4-0.2-0.4-0.4C7.9,1,8.1,0.8,8.3,0.8z"/>
	<path class="st0" d="M14.4,17.7c0-0.3-0.3-0.5-0.5-0.5H3.2c-0.3,0-0.5,0.1-0.6,0.4c0,0.3,0.1,0.5,0.4,0.6c0.1,0,0.1,0,0.2,0h10.6
		C14.1,18.2,14.4,18,14.4,17.7L14.4,17.7z"/>
	<path class="st0" d="M14.4,20.1L14.4,20.1c0-0.3-0.3-0.5-0.5-0.5H3.2c-0.3,0-0.5,0.1-0.6,0.4c0,0.3,0.1,0.5,0.4,0.6
		c0.1,0,0.1,0,0.2,0h10.6C14.1,20.6,14.4,20.3,14.4,20.1z"/>
	<path class="st0" d="M13.1,8.7h-2.8V6.1c0,0,0,0,0,0c0-0.5-0.4-0.8-0.9-0.8H7.1c0,0,0,0,0,0c-0.5,0-0.8,0.4-0.9,0.8v2.7H3.4
		C3,8.7,2.6,9.1,2.6,9.6v2.2c0,0.5,0.4,0.8,0.9,0.8h2.8v2.7c0,0.5,0.4,0.8,0.9,0.8h2.3c0.5,0,0.8-0.4,0.9-0.8v-2.7h2.8c0,0,0,0,0,0
		c0.5,0,0.8-0.4,0.9-0.8V9.6c0,0,0,0,0,0C14,9.1,13.6,8.7,13.1,8.7z"/>
</g>
</svg>
