<?xml version="1.0" encoding="utf-8"?>
<!-- Generator: Adobe Illustrator 28.1.0, SVG Export Plug-In . SVG Version: 6.00 Build 0)  -->
<svg version="1.1" id="industries1" xmlns="http://www.w3.org/2000/svg" xmlns:xlink="http://www.w3.org/1999/xlink" x="0px"
	 y="0px" viewBox="0 0 200 200" style="enable-background:new 0 0 200 200;" xml:space="preserve">
<style type="text/css">
	.st0{fill:#4C4C4C;}
	.st1{fill:#FFFFFF;}
	.st2{fill:none;stroke:#4C4C4C;stroke-width:16;}
	.st3{fill:none;stroke:#4C4C4C;stroke-width:16;stroke-linejoin:round;}
	.st4{fill:none;stroke:#4C4C4C;stroke-width:16;stroke-miterlimit:10;}
	.st5{fill:none;stroke:#4C4C4C;stroke-width:12.8;}
	.st6{fill:none;stroke:#010A14;stroke-width:6.1868;stroke-linecap:round;stroke-linejoin:round;stroke-miterlimit:10;}
	.st7{fill:#FF0000;}
	.st8{fill:#55879B;}
</style>
<g>
	<g>
		
			<rect x="39.7" y="123.6" transform="matrix(0.7071 -0.7071 0.7071 0.7071 -98.6337 75.8565)" class="st8" width="5" height="66.8"/>
		
			<rect x="26.3" y="93.3" transform="matrix(0.7071 -0.7071 0.7071 0.7071 -46.2352 79.9479)" class="st8" width="94.1" height="5"/>
		
			<rect x="56.4" y="123.3" transform="matrix(0.7071 -0.7071 0.7071 0.7071 -58.6883 110.0132)" class="st8" width="94.1" height="5"/>
		
			<rect x="117.1" y="58.4" transform="matrix(0.7071 -0.7071 0.7071 0.7071 -21.3227 107.8797)" class="st8" width="5" height="42.5"/>
		<polygon class="st8" points="14.1,171.4 10.2,168.3 27.6,146.6 29.7,144.5 33.3,148 31.2,150.1 		"/>
		<polygon class="st8" points="30.9,189 27.8,185.1 49.2,168 51.2,166 54.8,169.5 52.4,171.8 		"/>
		
			<rect x="18.1" y="156.9" transform="matrix(0.7071 -0.7071 0.7071 0.7071 -120.0534 66.8294)" class="st8" width="5" height="42.9"/>
		<polygon class="st8" points="140.7,70.7 137.1,67.2 139.1,65.2 146.4,54.2 145,52.8 134,60.1 132.1,62.1 128.5,58.6 131.1,56.1 
			145.6,46.4 152.8,53.6 142.8,68.6 		"/>
		<rect x="137.9" y="26" transform="matrix(0.7071 -0.7071 0.7071 0.7071 29.8218 129.0632)" class="st8" width="65.7" height="5"/>
		<g>
			
				<rect x="111.4" y="104.4" transform="matrix(0.7071 -0.7071 0.7071 0.7071 -43.656 112.46)" class="st8" width="5" height="9.1"/>
			
				<rect x="102.8" y="113" transform="matrix(0.7071 -0.7071 0.7071 0.7071 -52.2459 108.9081)" class="st8" width="5" height="9.1"/>
			
				<rect x="94.3" y="121.6" transform="matrix(0.7071 -0.7072 0.7072 0.7071 -60.8374 105.3616)" class="st8" width="5" height="9.1"/>
			
				<rect x="85.7" y="130.1" transform="matrix(0.7071 -0.7071 0.7071 0.7071 -69.4262 101.7915)" class="st8" width="5" height="9.1"/>
			
				<rect x="77.3" y="138.5" transform="matrix(0.7071 -0.7071 0.7071 0.7071 -77.7538 98.3355)" class="st8" width="5" height="9.1"/>
			
				<rect x="68.7" y="147.1" transform="matrix(0.7071 -0.7071 0.7071 0.7071 -86.3455 94.7835)" class="st8" width="5" height="9.1"/>
		</g>
		
			<rect x="16.3" y="165.2" transform="matrix(0.7071 -0.7071 0.7071 0.7071 -109.3706 71.4083)" class="st8" width="30.4" height="5"/>
		
			<rect x="108.5" y="67" transform="matrix(0.7071 -0.7071 0.7071 0.7071 -29.9129 104.3206)" class="st8" width="5" height="42.5"/>
		<rect x="43.6" y="113.7" transform="matrix(0.7071 -0.7071 0.7071 0.7071 -57.8306 92.7569)" class="st8" width="79" height="5"/>
		<polygon class="st8" points="128.2,87.5 124.6,83.9 131.1,77.5 121.7,68.2 115.5,74.4 111.9,70.9 121.7,61.1 138.1,77.5 		"/>
		<rect x="48.3" y="115" transform="matrix(0.7071 -0.7071 0.7071 0.7071 -90.0432 79.4141)" class="st8" width="5" height="66.8"/>
		
			<rect x="132.1" y="49.5" transform="matrix(0.7071 -0.7071 0.7071 0.7071 -6.2908 114.1037)" class="st8" width="5" height="30.4"/>
	</g>
</g>
</svg>
