<?xml version="1.0" encoding="utf-8"?>
<!-- Generator: Adobe Illustrator 28.1.0, SVG Export Plug-In . SVG Version: 6.00 Build 0)  -->
<svg version="1.1" id="industries1" xmlns="http://www.w3.org/2000/svg" xmlns:xlink="http://www.w3.org/1999/xlink" x="0px"
	 y="0px" viewBox="0 0 200.2 200" style="enable-background:new 0 0 200.2 200;" xml:space="preserve">
<style type="text/css">
	.st0{fill:#55879B;}
</style>
<g>
	<g id="mAesHA_00000092428513199197096570000002129426613823002009_">
		<g>
			<path class="st0" d="M41.1,43.5c-1.3-4.2-1.7-8.2-0.7-12.2c1.2-4.7,3.7-8.6,7.7-11.3c4.9-3.4,9.7-6.9,14.9-9.6
				c5.1-2.7,10.6-5,16.1-6.6C87,1.5,94.4,2.4,99.9,9.3c0.3-0.1,0.5-0.1,0.6-0.2c5.3-6.3,12.1-7.4,19.7-5.7
				c10,2.2,18.7,7.1,26.8,13.2c0.8,0.6,1.6,1.2,2.5,1.6c9,4.8,12.9,14.1,10.1,23.9c-0.1,0.4-0.2,0.8-0.3,1.4
				c0.8,0.2,1.6,0.5,2.4,0.7c13.4,4,21.4,17.5,18.4,31.2c-0.4,1.7-0.1,2.8,1,4.1c7.4,8.6,8.5,20.9,2.6,30.6c-0.7,1.2-0.7,2.1,0,3.3
				c7.1,12.1,3.8,27.3-7.8,35.3c-1.5,1-2.1,2-2.1,3.9c0.4,13.2-7,24.3-19.3,29.3c-0.8,0.3-1.6,0.9-2.1,1.6
				c-13.1,19-39.2,18.3-51.3-1.4c-0.2-0.4-0.5-0.7-0.7-1c-2,2.5-3.7,5.1-5.9,7.3c-13.1,13.4-35.6,11.3-46.1-4.2
				c-0.6-0.9-1.5-1.8-2.5-2.2c-12.2-4.9-19.7-15.9-19.4-29.1c0-1.9-0.4-3-2.1-4.1c-11.4-7.6-14.8-22.9-8-34.9c0.9-1.5,1-2.6,0-4.2
				c-5.7-9.6-4.4-21.9,2.9-30.5c0.6-0.8,1.2-2.1,1-2.9c-3.1-15.2,4.6-28,19.4-32.5C40.1,43.7,40.5,43.7,41.1,43.5z M21.8,116.7
				c-0.4,0.7-0.7,1.2-0.9,1.6c-4.7,9.7-0.7,21.5,8.8,26.7c3.2,1.7,3.4,2.2,2.9,5.7c-1.6,11,4.8,21.8,15.2,25.5
				c2.3,0.8,3.9,2,5.3,4.2c4.9,8,14.7,12.2,23.7,10.6c10-1.8,17.7-9,19.5-18.6c0.6-3.4,0.6-6.9,0.6-10.4c0-33.5,0-67,0-100.5
				c0-0.9,0-1.7,0-2.6c-0.3-4.3-3.1-7.9-7.2-9.1c-1-0.3-2.1-0.4-3.2-0.5c-1.9-0.3-3-1.3-2.9-3.2c0.1-1.8,1.3-3,3.1-2.7
				c2.7,0.4,5.4,1.3,8,2c0.7,0.2,1.3,0.7,2.1,1.2c0.1-0.8,0.1-1.2,0.1-1.5c0-8.5,0-16.9,0-25.4c0-6.7-5-11.2-11.7-10.6
				c-7.4,0.6-14,3.5-20.2,7.2c-0.1,0.1-0.2,0.4-0.3,0.6c0.6,0.3,1.2,0.5,1.8,0.7c4.6,1.8,8.1,4.8,10.5,9.1c1.2,2.1,0.8,4-0.8,4.9
				c-1.6,0.9-3.2,0.2-4.4-1.8c-0.5-0.8-1-1.6-1.6-2.3c-4.2-5.2-11.7-6.6-17.5-3.2c-6,3.5-8.5,10.7-6,17c0.5,1.3,1.2,2.1,2.8,2.2
				c4.2,0.4,8.1,2,11.6,4.5c7.4,5,11.2,12,11.7,20.9c0.1,2.3-1,3.7-2.9,3.8c-1.9,0.1-3-1-3.3-3.4c0-0.4-0.1-0.8-0.1-1.2
				c-0.8-8.4-5.2-14.4-13.1-17.5S38.1,49,32,54.8s-7.9,13.1-5.4,21.1c0.8,2.5,0.4,4.1-1.5,5.9c-8.8,8.2-8.3,22.4,0.8,30.2
				c3.7,3.1,7.9,4.8,12.8,5c2.4,0.1,3.8,1.4,3.7,3.3s-1.7,3-4.1,2.9c-0.4,0-0.8-0.1-1.2-0.1C31.5,122.7,26.5,120.5,21.8,116.7z
				 M103.2,148.2c0.2,0.1,0.4,0.2,0.7,0.4c0.5-0.6,1-1.3,1.6-1.9c3.6-3.9,8.1-6.5,13.2-8c2.6-0.8,4.7,0.7,4.4,3.1
				c-0.2,1.9-1.6,2.4-3.2,2.9c-10.5,3.5-16.9,12.6-16.6,23.6c0.3,10.5,7.6,19.6,18,22.3c10,2.6,20.7-1.8,26.3-11
				c1-1.7,2.3-2.5,4.1-3.2c11.1-3.9,17.5-14.5,15.8-26c-0.4-2.6,0.3-4.1,2.8-5.4c6.8-3.5,10.4-9.4,11-17c0.3-4-0.6-7.8-2.8-11.3
				c-1,0.8-1.9,1.4-2.7,1.9c-4.3,3-9.2,4.5-14.4,4.6c-2,0.1-3.3-0.9-3.6-2.9c-0.2-1.7,1.2-3,3.2-3.2c0.4,0,0.8,0,1.2-0.1
				c8.7-0.8,14.9-5.3,17.9-13.5c3.1-8.5,0.9-15.9-5.5-22.1c-1.5-1.5-1.9-2.8-1.2-4.8c1.3-3.5,1.6-7.1,0.9-10.8
				c-2.1-10.5-11.2-17.4-21.8-16.6c-10,0.7-18,8.9-18.7,19.3c-0.2,2.9-1.3,4.3-3.3,4.2c-1.9-0.1-3-1.8-2.9-4.3
				c0.7-12.3,9.6-22.5,21.6-24.9c4.1-0.8,4.7-1.4,5.3-5.6c0.2-1.5,0.1-3.1-0.2-4.6c-1.1-5.8-5.5-9.9-11.4-10.9
				c-5.7-0.9-11.1,1.7-14.2,6.9c-1.3,2.2-2.8,2.9-4.5,2c-1.7-0.9-2.3-2.9-0.7-5c1.7-2.3,3.7-4.6,5.9-6.5c1.8-1.5,4.1-2.3,6.4-3.5
				c-5.9-3.6-12-6.2-18.8-7.3c-7.8-1.4-14,3.5-13.7,12.3c0.4,12,0.1,24.1,0.1,36.2c0,0.7,0.1,1.4,0.1,1.6c3.4-0.9,6.5-1.9,9.7-2.5
				c2.1-0.4,3.5,1,3.5,2.8c0,2-1.2,3-3,3.2c-7.3,1.1-10.3,4.5-10.3,11.8c0,22.7,0,45.4,0,68.1C103.2,144.5,103.2,146.3,103.2,148.2z
				"/>
			<path class="st0" d="M59.5,95.6c-5.9-1-11.1-3.4-15.4-7.8c-4.8-4.9-7.4-10.7-7.7-17.5c-0.1-2.6,0.9-4.2,2.9-4.3
				c1.9-0.1,3.1,1.4,3.2,4c0.5,8.1,4.4,14.1,11.6,17.5c7.2,3.5,14.3,2.7,21-1.9c0.8-0.6,1.6-1.2,2.3-1.9c1.5-1.4,3-1.6,4.5-0.2
				c1.4,1.3,1.2,3.1-0.4,4.7c-3.8,3.8-8.4,6.2-13.6,7.1c-1.6,0.3-2.1,0.9-2.5,2.4C63.3,106,56,112,47.5,112.6
				c-2.6,0.2-4.1-0.9-4.3-2.8c-0.1-1.9,1-3,3.6-3.3c6.2-0.6,10.4-3.8,12.5-9.6C59.4,96.5,59.4,96.1,59.5,95.6z"/>
			<path class="st0" d="M54.3,143.6c0.2-6.5,2-12.1,6-17c5.1-6.2,11.6-9.4,19.6-10c2.5-0.2,4.1,1,4.3,3c0.1,1.8-1.3,3.2-3.8,3.2
				c-8.9,0.1-17,6.7-19.1,15.4c-0.1,0.5-0.3,1.1-0.3,1.6c-0.8,5-0.7,4.9,3.5,7.6c8.1,5.1,12.6,12.5,12.9,22.2
				c0.1,2.3-1.1,3.7-2.9,3.8c-1.7,0.1-3-1.4-3.1-3.6c-0.7-11.4-8.5-19.1-20-20c-2.4-0.2-3.5-1.3-3.4-3.2c0.1-1.8,1.2-2.7,2.8-2.8
				C51.7,143.5,52.8,143.6,54.3,143.6z"/>
			<path class="st0" d="M134.1,96.2c0.3,4.7,4.7,9.3,9.9,10.5c1,0.2,2,0.3,3,0.4c2.1,0.2,3.4,1.5,3.2,3.2c-0.3,2-1.5,2.9-3.6,2.9
				c-8.1,0.1-16.2-6-18.5-14.2c-0.6-2.1-1.5-2.9-3.6-3.3c-4.7-0.8-8.8-3.1-12.2-6.3c-2.1-2-2.5-3.5-1.2-5c1.3-1.6,3.1-1.4,5.2,0.4
				c11.5,10,28.5,5.7,33.4-8.6c0.7-2,0.8-4.1,1.1-6.2c0.3-2,1.5-3.4,3.2-3.3s2.9,1.5,2.9,3.5c0.3,11.8-9.2,23.3-21.4,25.7
				C135.1,96,134.6,96.1,134.1,96.2z"/>
			<path class="st0" d="M150.4,147.6c1-0.1,1.9-0.2,2.7-0.2c2.3,0,3.7,1.1,3.8,2.9c0.1,1.9-1.1,3.2-3.4,3.2
				c-4.5,0.1-8.6,1.5-12.1,4.3c-4.9,3.9-7.6,8.9-7.9,15.2c-0.1,2.8-1.4,4.2-3.5,4c-1.9-0.2-3-1.8-2.8-4.4
				c0.9-10.3,5.9-17.8,15.1-22.5c1.3-0.7,1.8-1.4,1.8-2.8c0.1-10.9-8.5-20.1-19.3-20.7c-0.4,0-0.8,0-1.2,0c-1.9-0.2-3.1-1.3-3-3.2
				c0.1-1.8,1.2-2.8,3.1-2.8c5.5-0.1,10.5,1.5,14.9,4.6c6.6,4.7,10.6,11,11.5,19.2C150.2,145.3,150.3,146.3,150.4,147.6z"/>
		</g>
	</g>
</g>
</svg>
