<?xml version="1.0" encoding="utf-8"?>
<!-- Generator: Adobe Illustrator 28.1.0, SVG Export Plug-In . SVG Version: 6.00 Build 0)  -->
<svg version="1.1" id="industries1" xmlns="http://www.w3.org/2000/svg" xmlns:xlink="http://www.w3.org/1999/xlink" x="0px"
	 y="0px" viewBox="0 0 200.2 200" style="enable-background:new 0 0 200.2 200;" xml:space="preserve">
<style type="text/css">
	.st0{fill:#55879B;}
</style>
<g>
	<g>
		<rect x="135" y="123" class="st0" width="5" height="13.8"/>
		<rect x="130.6" y="120.5" class="st0" width="41.5" height="5"/>
		<rect x="162.7" y="123" class="st0" width="5" height="13.8"/>
		<polygon class="st0" points="160.8,123 155.8,123 155.8,111.7 146.9,111.7 146.9,123 141.9,123 141.9,106.7 160.8,106.7 		"/>
		<path class="st0" d="M48.5,169.8c-10.9,0-19.8-8.9-19.8-19.8c0-10.9,8.9-19.8,19.8-19.8s19.8,8.9,19.8,19.8
			C68.3,160.9,59.4,169.8,48.5,169.8z M48.5,135.3c-8.2,0-14.8,6.6-14.8,14.8s6.6,14.8,14.8,14.8s14.8-6.6,14.8-14.8
			C63.3,141.9,56.7,135.3,48.5,135.3z"/>
		<g>
			<path class="st0" d="M48.5,194c-5.2,0-9.4-4.2-9.4-9.4v-17.3h5v17.3c0,2.4,2,4.4,4.4,4.4c2.4,0,4.4-2,4.4-4.4v-17.3h5v17.3
				C57.9,189.8,53.7,194,48.5,194z"/>
			<path class="st0" d="M129.7,200.9c-8.1,0-15.8-3-21.7-8.6c-6.4-6-10.1-14.5-10.1-23.3V41.9c0-10.5-7.4-19.3-17.3-20.6
				c-5.8-0.7-11.4,1-15.8,4.8c-4.3,3.8-6.8,9.3-6.8,15v84.7h-5V41.2c0-7.2,3.1-14,8.5-18.7s12.6-6.9,19.8-6
				C93.5,18,102.9,29,102.9,41.9V169c0,7.4,3.1,14.6,8.5,19.6c5.5,5.1,12.7,7.7,20.2,7.2c14-0.9,25-13.2,25-27.9
				c0-1.6,0.2-3.4,0.3-5.6c0.6-7.2,1.5-18-3.9-18.8c-2.8-0.4-3.8,0.5-4.1,0.8c-3,2.8-2.2,11.6-1.6,18c0.2,2.5,0.4,4.8,0.4,6.7
				c0,5.1-2.2,9.9-5.9,13.4c-3.8,3.4-8.8,5.1-13.9,4.6c-9.1-0.9-16.3-9.1-16.3-18.7V41.2c0-9.5-4-18.6-11.1-25
				c-7.1-6.5-16.4-9.6-26-8.6c-17,1.5-30.4,16.8-30.4,34.6v83.6h-5V42.2c0-20.4,15.4-37.8,35.1-39.7c11-1,21.6,2.5,29.8,9.9
				c8.1,7.3,12.7,17.8,12.7,28.7v127.2c0,7,5.2,13,11.7,13.7c3.7,0.4,7.3-0.8,10.1-3.3c2.7-2.5,4.3-6,4.3-9.7c0-1.7-0.2-3.9-0.4-6.3
				c-0.7-7.8-1.6-17.6,3.2-22.1c2.1-1.9,4.8-2.6,8.3-2.1c10,1.6,8.9,15.2,8.1,24.2c-0.2,2.1-0.3,3.9-0.3,5.2
				c0,17.3-13,31.7-29.7,32.8C131.2,200.9,130.4,200.9,129.7,200.9z"/>
		</g>
	</g>
</g>
</svg>
