<?xml version="1.0" encoding="utf-8"?>
<!-- Generator: Adobe Illustrator 28.1.0, SVG Export Plug-In . SVG Version: 6.00 Build 0)  -->
<svg version="1.1" id="Layer_1" xmlns="http://www.w3.org/2000/svg" xmlns:xlink="http://www.w3.org/1999/xlink" x="0px" y="0px"
	 viewBox="0 0 49.3 29.7" style="enable-background:new 0 0 49.3 29.7;" xml:space="preserve">
<style type="text/css">
	.st0{clip-path:url(#SVGID_00000026135810142087390950000004174048701663485589_);}
	.st1{fill:#55879B;}
</style>
<g>
	<defs>
		<rect id="SVGID_1_" width="49.3" height="29.7"/>
	</defs>
	<clipPath id="SVGID_00000181080377068879789840000005911616880516260512_">
		<use xlink:href="#SVGID_1_"  style="overflow:visible;"/>
	</clipPath>
	<g id="Group_272" style="clip-path:url(#SVGID_00000181080377068879789840000005911616880516260512_);">
		<path id="Path_46" class="st1" d="M8.8,0.3c-6.2,1.5-10,7.8-8.5,14c0.8,3.4,3.2,6.3,6.4,7.8c1.3,0.5,1.9,2,1.4,3.4
			c0,0,0,0.1-0.1,0.1C8,25.7,8,25.8,7.9,25.9c-0.6,1.3-0.1,2.9,1.2,3.5c0.7,0.3,1.5,0.4,2.2,0.1c7.2-3.1,11.8-10.1,11.8-17.9
			C23.1,5.2,17.9,0,11.5,0C10.6,0,9.7,0.1,8.8,0.3"/>
		<path id="Path_47" class="st1" d="M35,0.3c-6.2,1.5-10,7.8-8.5,14c0.8,3.4,3.2,6.3,6.4,7.8c1.3,0.5,1.9,2,1.4,3.4
			c0,0,0,0.1-0.1,0.1c-0.1,0.1-0.1,0.2-0.2,0.4c-0.6,1.3-0.1,2.9,1.2,3.5c0.7,0.3,1.5,0.4,2.2,0.1c7.2-3.1,11.8-10.1,11.8-17.9
			C49.3,5.2,44.1,0,37.7,0C36.8,0,35.9,0.1,35,0.3"/>
	</g>
</g>
</svg>
