<?xml version="1.0" encoding="utf-8"?>
<!-- Generator: Adobe Illustrator 28.1.0, SVG Export Plug-In . SVG Version: 6.00 Build 0)  -->
<svg version="1.1" id="Layer_1" xmlns="http://www.w3.org/2000/svg" xmlns:xlink="http://www.w3.org/1999/xlink" x="0px" y="0px"
	 viewBox="0 0 659.7 62.6" style="enable-background:new 0 0 659.7 62.6;" xml:space="preserve">
<style type="text/css">
	.st0{fill:#C7BD55;}
	.st1{fill:#DDD721;} 
</style>
<g>
	<path class="st0" d="M13.6,55.2C87.9,2.4,180.8-5.8,268.9,6.1C408.1,23.8,527.2,92,658.4,2.8c0,0,0.5,0.6,0.5,0.6
		c-21.3,17.9-45.5,32.9-72,42.9c-39.8,15.3-83.6,18-125.8,14c-55.5-5.2-109.6-19.3-164.6-27.7c-53.6-8.7-108.3-11.1-162.1-2.9
		c-27,3.6-53.5,9.3-80,15.8c-13.4,3.3-26.7,7-40.5,10.4C14,55.9,13.6,55.2,13.6,55.2L13.6,55.2z"/>
</g>
<g>
	<path class="st1" d="M9.5,15.3C82,23.4,154.1,37.2,227,40.2c24.1,0.9,48,0.2,71.8-2.7c26.7-3.1,53.3-10.3,80-16.6
		c9.5-2.3,19.9-4.4,29.5-6.1c29.7-5.1,60-6.2,90-4.8c30.6,1.5,61.2,5.4,91.4,10.4c0,0-0.1,0.8-0.1,0.8
		c-54.3-6.6-109.8-10.6-163.8-0.2c-11.7,2.2-23.9,5.3-35.3,8.6c-23.6,6.9-46.8,15.1-70.9,20.5c-24.4,5.5-49.4,8.2-74.5,8.6
		c-49.6,0.5-99-6.4-147.2-17.3C80,37.5,62,32.7,44.4,27.6C32.6,24,20.9,20.2,9.3,16.1C9.3,16.1,9.5,15.3,9.5,15.3L9.5,15.3z"/>
</g>
</svg>
