<?xml version="1.0" encoding="utf-8"?>
<!-- Generator: Adobe Illustrator 27.5.0, SVG Export Plug-In . SVG Version: 6.00 Build 0)  -->
<svg version="1.1" id="Layer_1" xmlns="http://www.w3.org/2000/svg" xmlns:xlink="http://www.w3.org/1999/xlink" x="0px" y="0px"
	 viewBox="0 0 201 190.2" style="enable-background:new 0 0 201 190.2;" xml:space="preserve">
<style type="text/css">
	.st0{clip-path:url(#SVGID_00000064347020041886443450000002378463962400551086_);}
	.st1{fill:#0C8CC4;}
</style>
<g>
	<defs>
		<rect id="SVGID_1_" x="3.3" y="3" width="195.4" height="187.7"/>
	</defs>
	<clipPath id="SVGID_00000027603750641350925940000001216463615982122413_">
		<use xlink:href="#SVGID_1_"  style="overflow:visible;"/>
	</clipPath>
	
		<g id="Group_790" transform="translate(0 0)" style="clip-path:url(#SVGID_00000027603750641350925940000001216463615982122413_);">
		<path id="Path_632" class="st1" d="M186.2,176.8h-47.3v-8.4h47.3c1.9,0,3.5-1.5,3.5-3.3V37.7c0-0.9-0.4-1.7-1-2.3l-24.8-23.1
			c-0.7-0.6-1.5-0.9-2.5-1H70.8c-1.9,0-3.5,1.5-3.5,3.3v150.5c0,1.8,1.6,3.2,3.5,3.2h47.3v8.4H70.8c-6.9,0-12.5-5.2-12.5-11.7V14.6
			C58.3,8.2,63.9,3,70.8,3h90.5c3.3,0,6.5,1.2,8.9,3.4L195,29.5c2.3,2.2,3.7,5.2,3.7,8.2v127.4C198.7,171.6,193.1,176.8,186.2,176.8
			"/>
		<rect id="Rectangle_1130" x="82.3" y="56.7" class="st1" width="92.4" height="8.4"/>
		<rect id="Rectangle_1131" x="82.3" y="73.3" class="st1" width="92.4" height="8.4"/>
		<rect id="Rectangle_1132" x="82.3" y="89.9" class="st1" width="49.2" height="8.4"/>
		<rect id="Rectangle_1133" x="82.3" y="40.1" class="st1" width="49.2" height="8.4"/>
		<path id="Path_633" class="st1" d="M129.2,152.1c-7.3,0-13.3-5.5-13.3-12.3s5.9-12.3,13.2-12.3c7.3,0,13.3,5.5,13.3,12.3
			c0,5.3-3.7,10.1-9.2,11.7C132,151.9,130.6,152.1,129.2,152.1 M125.2,141c0.6,2.1,2.9,3.4,5.1,2.8s3.6-2.7,3-4.8
			c0-0.2-0.1-0.3-0.2-0.5c-0.6-2.1-2.9-3.4-5.1-2.8c-2.3,0.5-3.6,2.7-3,4.8C125.1,140.7,125.1,140.9,125.2,141"/>
		<path id="Path_634" class="st1" d="M129.2,169.1c-2.7-0.2-5.2-1.3-7.1-3c-0.5-0.4-1.1-0.8-1.7-1.1c-0.7-0.1-1.4-0.1-2.1,0
			c-2.6,0.4-5.3-0.1-7.6-1.5c-2-1.6-3.4-3.8-3.8-6.3c-0.2-0.7-0.4-1.3-0.7-1.9c-0.5-0.4-1-0.8-1.6-1.1c-2.4-1.2-4.3-3.1-5.3-5.4
			c-0.6-2.4-0.3-5,0.9-7.3c0.3-0.6,0.5-1.2,0.6-1.8c-0.2-0.6-0.4-1.3-0.7-1.9c-1.2-2.2-1.5-4.8-0.8-7.2c1-2.3,2.9-4.2,5.2-5.3
			c0.6-0.3,1.2-0.7,1.7-1.1c0.3-0.6,0.5-1.2,0.6-1.8c0.4-2.5,1.8-4.7,3.9-6.3c2.2-1.3,4.9-1.8,7.5-1.4c0.7,0.1,1.5,0.1,2.2,0
			c0.6-0.3,1.3-0.7,1.8-1.2c1.9-1.7,4.4-2.8,7-2.9c2.7,0.2,5.2,1.3,7.1,3c0.5,0.4,1.1,0.8,1.7,1.1c0.7,0.1,1.4,0.1,2.1,0
			c5.1-1.1,10.1,1.9,11.2,6.6c0.1,0.4,0.2,0.8,0.2,1.1c0.2,0.7,0.4,1.3,0.7,1.9c0.5,0.4,1,0.8,1.6,1.1c2.4,1.2,4.3,3.1,5.3,5.4
			c0.6,2.4,0.3,5-0.9,7.3c-0.3,0.6-0.5,1.2-0.6,1.8c0.2,0.6,0.4,1.3,0.7,1.9c1.2,2.2,1.5,4.8,0.8,7.2c-1,2.3-2.9,4.2-5.2,5.3
			c-0.6,0.3-1.2,0.7-1.7,1.2c-0.3,0.6-0.5,1.2-0.6,1.8c-0.4,2.5-1.8,4.7-3.9,6.3c-2.2,1.3-4.9,1.8-7.5,1.4c-0.7-0.1-1.5-0.1-2.2,0
			c-0.6,0.3-1.2,0.7-1.8,1.2C134.3,167.9,131.8,168.9,129.2,169.1 M119.7,156.5c1.2,0,2.4,0.1,3.5,0.5c1.7,0.6,3.2,1.5,4.6,2.6
			c0.4,0.3,1,0.8,1.4,1c0.4-0.2,0.9-0.7,1.3-1c1.4-1.1,3-2,4.7-2.6c1.8-0.4,3.6-0.6,5.5-0.4c0.5,0,1.2,0.1,1.7,0
			c0.2-0.4,0.4-1.1,0.5-1.6c0.4-1.6,1.1-3.2,2-4.6c1.1-1.3,2.5-2.4,4.1-3.3c0.4-0.3,1.1-0.6,1.4-0.9c-0.1-0.4-0.4-1.1-0.6-1.5
			c-0.7-1.5-1.2-3.2-1.2-4.9c0.1-1.7,0.5-3.3,1.2-4.8c0.2-0.5,0.4-1.1,0.6-1.6c-0.5-0.4-1-0.7-1.5-1c-1.5-0.8-2.9-1.9-4-3.2
			c-1-1.4-1.7-3-2.1-4.6c-0.1-0.5-0.3-1.1-0.5-1.5c-0.5,0-1.2,0-1.7,0c-3.6,0.5-7.3-0.6-9.9-3c-0.4-0.3-1-0.8-1.4-1
			c-0.4,0.2-0.9,0.7-1.3,1c-1.4,1.1-3,2-4.7,2.6c-1.8,0.5-3.6,0.6-5.5,0.4c-0.5,0-1.2-0.1-1.7,0c-0.2,0.4-0.4,1.1-0.5,1.6
			c-0.6,3.4-2.9,6.3-6.1,7.8c-0.4,0.3-1.1,0.6-1.4,0.9c0.1,0.4,0.4,1.1,0.6,1.5c0.7,1.5,1.2,3.2,1.2,4.9c-0.1,1.7-0.5,3.3-1.2,4.8
			c-0.2,0.5-0.4,1.1-0.6,1.6c0.5,0.4,1,0.7,1.5,1c1.5,0.8,2.9,1.9,4,3.2c1,1.4,1.7,3,2.1,4.6c0.1,0.5,0.3,1.1,0.5,1.5
			c0.5,0,1.2,0,1.8,0C118.4,156.5,119.1,156.5,119.7,156.5"/>
		<path id="Path_635" class="st1" d="M143.4,190.7c-0.9,0-1.7-0.2-2.5-0.6l-12.4-6.7l-12.3,6.7c-0.7,0.4-1.5,0.6-2.3,0.6h-0.3
			c-2.5,0-4.5-1.9-4.5-4.2v-26.3h9v19.2l8.1-4.4c1.4-0.8,3.1-0.8,4.5,0l8.1,4.4v-19.2h9v26.3C147.9,188.8,145.9,190.7,143.4,190.7"
			/>
		<path id="Path_636" class="st1" d="M24.1,147.9c-2.5,0-4.5-1.9-4.5-4.2l-0.2-115l9,0l0.2,110.8l10.3,0L38.7,28.7l0-1.1
			c0-2.3,2-4.2,4.5-4.2h0c2.5,0,4.5,1.9,4.5,4.2L48,143.7c0,2.3-2,4.2-4.5,4.2L24.1,147.9L24.1,147.9z"/>
		<path id="Path_637" class="st1" d="M3.4,79.5L3.3,33.7c0-2.3,2-4.2,4.5-4.2l35.4-0.1l0,8.4l-30.9,0l0.1,41.6L3.4,79.5z"/>
		<path id="Path_638" class="st1" d="M19.4,28.8V25c0-7.3,6.3-13.2,14.2-13.2c0,0,0,0,0,0h0c7.8,0,14.2,5.9,14.2,13.2v3.8h-9V25
			c0-2.6-2.3-4.8-5.1-4.8l0,0c-2.8,0-5.1,2.2-5.1,4.8v3.8L19.4,28.8z"/>
		<path id="Path_639" class="st1" d="M34,176.8h-0.2c-1.9-0.1-3.6-1.2-4.2-2.8L20,148c-0.1-0.4-0.2-0.8-0.2-1.3l-0.2-7l9-0.2
			l0.2,6.4l5.1,14l5.1-13.9l-0.1-6.3l9-0.2l0.2,7c0,0.5-0.1,1-0.2,1.5l-9.6,26C37.6,175.6,35.9,176.8,34,176.8"/>
	</g>
</g>
</svg>
