<?xml version="1.0" encoding="utf-8"?>
<!-- Generator: Adobe Illustrator 27.5.0, SVG Export Plug-In . SVG Version: 6.00 Build 0)  -->
<svg version="1.1" id="Layer_1" xmlns="http://www.w3.org/2000/svg" xmlns:xlink="http://www.w3.org/1999/xlink" x="0px" y="0px"
	 viewBox="0 0 201 216" style="enable-background:new 0 0 201 216;" xml:space="preserve">
<style type="text/css">
	.st0{fill:#0C8CC4;}
</style>
<g>
	<g id="Group_786">
		<path id="Path_623" class="st0" d="M101,214.3c-54.4,0-98.4-44.1-98.4-98.5c0-52.7,41.6-96,94.2-98.3V4.7c0-2.3,1.9-4.2,4.2-4.2
			c0.8,0,1.7,0.2,2.3,0.7l42.4,28.3c1.9,1.3,2.4,3.9,1.2,5.8c-0.3,0.5-0.7,0.9-1.2,1.2l-42.4,28.3c-1.9,1.3-4.5,0.8-5.8-1.1
			c-0.5-0.7-0.7-1.5-0.7-2.3V47.2C58.8,49.5,29.9,82.1,32.2,120c2.3,37.9,34.9,66.8,72.9,64.5c36.3-2.2,64.7-32.3,64.7-68.7
			c0-2.3,1.9-4.2,4.2-4.2l0,0l21.2,0c2.3,0,4.2,1.9,4.2,4.2l0,0C199.3,170.2,155.3,214.2,101,214.3 M105.1,12.6v9.1
			c0,2.3-1.9,4.2-4.2,4.2c0,0,0,0,0,0c-49.7,0-90.1,40.3-90.1,90.1s40.3,90.1,90.1,90.1c48.1,0,87.7-37.8,90-85.9h-12.9
			c-2.3,42.6-38.7,75.2-81.3,72.9c-42.6-2.3-75.2-38.7-72.9-81.3c2.2-40.9,36.1-73,77.1-73c2.3,0,4.2,1.9,4.2,4.2c0,0,0,0,0,0v10.6
			L135.9,33L105.1,12.6z"/>
		<rect id="Rectangle_1116" x="127.1" y="96.2" class="st0" width="8.4" height="45.1"/>
		<rect id="Rectangle_1117" x="106.9" y="98.1" class="st0" width="8.4" height="43.3"/>
		<rect id="Rectangle_1118" x="66.5" y="105.9" class="st0" width="8.4" height="35.4"/>
		<rect id="Rectangle_1119" x="86.7" y="91.9" class="st0" width="8.4" height="49.5"/>
		<rect id="Rectangle_1120" x="127.1" y="75.4" class="st0" width="8.4" height="66"/>
		<rect id="Rectangle_1121" x="54.8" y="137.2" class="st0" width="92.3" height="8.4"/>
	</g>
</g>
</svg>
