<?xml version="1.0" encoding="utf-8"?>
<!-- Generator: Adobe Illustrator 27.5.0, SVG Export Plug-In . SVG Version: 6.00 Build 0)  -->
<svg version="1.1" id="Layer_1" xmlns="http://www.w3.org/2000/svg" xmlns:xlink="http://www.w3.org/1999/xlink" x="0px" y="0px"
	 viewBox="0 0 201 190.2" style="enable-background:new 0 0 201 190.2;" xml:space="preserve">
<style type="text/css">
	.st0{fill:#0C8CC4;}
</style>
<g>
	<g id="Group_891">
		<path id="Path_2142" class="st0" d="M75,112.3C55.7,112.3,40,96.6,40,77.2S55.7,42.1,75,42.1c19.4,0,35.1,15.7,35.1,35.1v0
			C110.1,96.6,94.4,112.3,75,112.3 M75,49.4c-15.3,0-27.8,12.4-27.8,27.8S59.7,105,75,105c15.3,0,27.8-12.4,27.8-27.8l0,0
			C102.8,61.9,90.4,49.4,75,49.4"/>
		<path id="Path_2143" class="st0" d="M125.3,187.7l-100.6,0c-12.4,0-22.5-10.1-22.5-22.5l0-13.3c0-12.4,7.9-23.4,19.7-27.3
			l20.5-6.8c1.3-0.4,2.7-0.1,3.7,0.9L75,147.5l28.9-28.9c1-1,2.4-1.3,3.7-0.9l20.5,6.8c11.8,3.9,19.7,14.9,19.7,27.3l0,13.3
			C147.8,177.6,137.8,187.7,125.3,187.7 M42.6,125.4l-18.4,6.1c-8.8,2.9-14.7,11.1-14.7,20.4l0,13.3c0,8.4,6.8,15.2,15.2,15.2
			l100.6,0c8.4,0,15.2-6.8,15.2-15.2l0-13.3c0-9.3-5.9-17.5-14.7-20.4l-18.4-6.1l-29.8,29.8c-1.4,1.4-3.7,1.4-5.1,0c0,0,0,0,0,0
			L42.6,125.4z"/>
		<path id="Path_2144" class="st0" d="M31,187.7c-2,0-3.6-1.6-3.6-3.6l0-25.1c0-2,1.6-3.6,3.6-3.6c2,0,3.6,1.6,3.6,3.6l0,25.1
			C34.7,186.1,33.1,187.7,31,187.7"/>
		<path id="Path_2145" class="st0" d="M119,187.7c-2,0-3.6-1.6-3.6-3.6l0-25.1c0-2,1.6-3.6,3.6-3.6c2,0,3.6,1.6,3.6,3.6l0,25.1
			C122.7,186.1,121.1,187.7,119,187.7"/>
		<path id="Path_2146" class="st0" d="M150.4,71.3c0.1-1.7-0.7-3.3-2-4.4c-2-1.4-4.3-2.5-6.7-3c-3.2-0.9-5.9-1.9-8.2-2.8
			c-2.1-0.8-4.1-1.9-5.9-3.2c-1.6-1.1-2.9-2.5-3.8-4.2c-2.7-5.2-1.3-11.6,3.3-15.1c3.7-2.6,8-4.1,12.5-4.3l0-7.3l7,0l0,7.4
			c4.5,0.3,8.7,2,12.1,5c2.9,2.8,4.5,6.7,4.4,10.8l-12.6,0c0.2-2.2-0.6-4.5-2.2-6.1c-1.6-1.4-3.7-2.1-5.8-2c-2-0.1-3.9,0.4-5.5,1.6
			c-1.3,1.1-2,2.7-2,4.4c-0.1,1.6,0.7,3.1,1.9,4.1c2.2,1.5,4.6,2.5,7.1,3.2c3.5,1.1,6.3,2.1,8.6,3.1c2,0.8,3.9,1.9,5.7,3.3
			c1.5,1.1,2.7,2.5,3.5,4.1c0.8,1.7,1.3,3.5,1.2,5.4c0.1,3.7-1.6,7.2-4.6,9.4c-3.7,2.6-8.2,4.1-12.7,4.2l0,6.8l-6.9,0l0-6.7
			c-5-0.1-9.9-1.9-13.8-4.9c-3.3-2.8-5.1-6.9-4.9-11.2l12.6,0c-0.1,2.3,0.8,4.6,2.5,6.2c2,1.6,4.5,2.3,7.1,2.2
			c2.1,0.1,4.2-0.4,6.1-1.6C149.6,74.7,150.4,73,150.4,71.3"/>
		<path id="Path_2147" class="st0" d="M142.1,3.1c-26.2,0-48.9,18.1-54.8,43.6c2.5,1,4.8,2.3,6.9,3.9c4.8-26.4,30.1-44,56.5-39.2
			s44,30.1,39.2,56.5c-4.8,26.4-30.1,44-56.5,39.2c-11.2-2-21.3-7.9-28.6-16.6c-1.1,2.4-2.5,4.7-4.1,6.8c21,22.8,56.6,24.3,79.4,3.3
			s24.3-56.6,3.3-79.4C172.8,9.7,157.8,3.1,142.1,3.1"/>
	</g>
</g>
</svg>
