<?xml version="1.0" encoding="utf-8"?>
<!-- Generator: Adobe Illustrator 27.5.0, SVG Export Plug-In . SVG Version: 6.00 Build 0)  -->
<svg version="1.1" id="Layer_1" xmlns="http://www.w3.org/2000/svg" xmlns:xlink="http://www.w3.org/1999/xlink" x="0px" y="0px"
	 viewBox="0 0 201 216" style="enable-background:new 0 0 201 216;" xml:space="preserve">
<style type="text/css">
	.st0{fill:#0C8CC4;}
</style>
<g id="Group_793" transform="translate(0 0)">
	<g>
		<g id="Group_792">
			<path id="Path_640" class="st0" d="M100.8,152.9c-25.6,0-46.4-19.9-46.4-44.4c0-24.5,20.8-44.4,46.4-44.4s46.4,19.9,46.4,44.4
				c0,0,0,0,0,0C147.2,133,126.4,152.8,100.8,152.9 M100.8,73.6c-20.1,0-36.4,15.6-36.4,34.8c0,19.2,16.3,34.8,36.4,34.8
				c20.1,0,36.4-15.6,36.4-34.8c0,0,0,0,0,0C137.2,89.2,120.9,73.6,100.8,73.6"/>
			<path id="Path_641" class="st0" d="M100.8,215.2c-1,0-2-0.3-2.8-0.8L63.6,192c-2.3-1.5-2.9-4.5-1.3-6.6c0.4-0.5,0.8-0.9,1.3-1.3
				L98,161.7c2.3-1.5,5.4-0.9,6.9,1.3c0.6,0.8,0.9,1.7,0.9,2.7l0,7.3c37.3-2.6,65.3-33.7,62.5-69.4c-1.2-15.5-8.2-30-19.6-41
				l7.1-6.8c30.3,29.1,30.3,76.1-0.1,105.2c-14.6,13.9-34.3,21.7-54.9,21.7c-2.8,0-5-2.1-5-4.8v-3.2l-20.6,13.3l20.6,13.3l0-3.2
				c0-2.6,2.2-4.8,5-4.8c49-0.1,88.7-38.1,88.8-85l10,0c-0.1,50.3-41.3,91.8-93.8,94.5l0,7.6C105.8,213.1,103.6,215.2,100.8,215.2"
				/>
			<path id="Path_642" class="st0" d="M45.9,161.1C15.6,132,15.6,84.9,46,55.9C60.5,42,80.3,34.2,100.8,34.2c2.8,0,5,2.1,5,4.8
				l0,3.2l20.6-13.3l-20.6-13.3v3.2c0,2.6-2.2,4.8-5,4.8c-49,0.1-88.7,38.1-88.8,85l-10,0c0.1-50.3,41.3-91.8,93.8-94.4l0-7.6
				c0-2.6,2.2-4.8,5-4.8c1,0,2,0.3,2.8,0.8l34.4,22.4c2.3,1.5,2.9,4.5,1.3,6.6c-0.4,0.5-0.8,0.9-1.3,1.3l-34.4,22.4
				c-2.3,1.5-5.4,0.9-6.9-1.3c-0.6-0.8-0.9-1.7-0.9-2.7l0-7.3c-37.3,2.7-65.3,33.7-62.5,69.4c1.2,15.5,8.2,30,19.6,41L45.9,161.1z"
				/>
			<path id="Path_643" class="st0" d="M199.6,108.4l-10,0c0.1-22.5-9.3-44.2-26-60.1l7.1-6.8C189.3,59.2,199.7,83.3,199.6,108.4"/>
			<path id="Path_644" class="st0" d="M31,175.4c-18.6-17.7-29-41.8-28.9-66.8l10,0c-0.1,22.5,9.3,44.2,26,60.1L31,175.4z"/>
		</g>
	</g>
</g>
</svg>
