<?xml version="1.0" encoding="utf-8"?>
<!-- Generator: Adobe Illustrator 27.5.0, SVG Export Plug-In . SVG Version: 6.00 Build 0)  -->
<svg version="1.1" id="Layer_1" xmlns="http://www.w3.org/2000/svg" xmlns:xlink="http://www.w3.org/1999/xlink" x="0px" y="0px"
	 viewBox="0 0 201 216" style="enable-background:new 0 0 201 216;" xml:space="preserve">
<style type="text/css">
	.st0{fill:#0C8CC4;}
</style>
<g id="Icon" transform="translate(1.195 1.246)">
	<path class="st0" d="M99.3,213.6c-4.7,0-9.4-1.2-13.6-3.6l-71.4-40.4c-8.4-4.8-13.6-13.8-13.6-23.4V65.4c0-9.6,5.2-18.6,13.6-23.4
		L85.8,1.5c8.3-4.8,18.7-4.8,27.1,0L184.3,42c8.4,4.8,13.6,13.8,13.6,23.4v80.8c0,0,0,0,0,0c0,9.6-5.2,18.6-13.6,23.4L112.8,210
		C108.7,212.4,104,213.6,99.3,213.6z M99.3,11.5c-2.4,0-4.7,0.6-6.8,1.8L21,53.8c-4.2,2.4-6.8,6.8-6.8,11.6v80.8
		c0,4.8,2.6,9.2,6.8,11.6l71.4,40.4c4.2,2.4,9.5,2.4,13.7,0l71.5-40.5c4.2-2.4,6.8-6.8,6.8-11.6V65.3c0-4.8-2.6-9.2-6.8-11.6
		l-71.4-40.4C104,12.1,101.7,11.5,99.3,11.5z M191.1,146.2L191.1,146.2L191.1,146.2z"/>
	<path class="st0" d="M99.3,112.6c-1.2,0-2.3-0.3-3.4-0.9l-89.1-51c-3.2-1.9-4.4-6-2.5-9.3c1.9-3.2,6-4.4,9.3-2.5L99.3,98L185,49
		c3.2-1.9,7.4-0.7,9.3,2.5c1.9,3.2,0.7,7.4-2.5,9.3l-89.1,51C101.6,112.3,100.5,112.6,99.3,112.6z"/>
	<path class="st0" d="M99.3,214.4c-3.7,0-6.8-3-6.8-6.8V105.8c0-3.7,3-6.8,6.8-6.8s6.8,3,6.8,6.8v101.8
		C106.1,211.3,103,214.4,99.3,214.4z"/>
</g>
</svg>
