<?xml version="1.0" encoding="utf-8"?>
<!-- Generator: Adobe Illustrator 27.5.0, SVG Export Plug-In . SVG Version: 6.00 Build 0)  -->
<svg version="1.1" id="Layer_1" xmlns="http://www.w3.org/2000/svg" xmlns:xlink="http://www.w3.org/1999/xlink" x="0px" y="0px"
	 viewBox="0 0 216 216" style="enable-background:new 0 0 216 216;" xml:space="preserve">
<style type="text/css">
	.st0{fill:#0C8CC4;}
</style>
<g>
	<g id="Group_857-2" transform="translate(0 0)">
		<path id="Path_2128" class="st0" d="M93.9,75.7h18.6c7.9,0,14.3,6.4,14.3,14.3h10.9c0-13.9-11.3-25.2-25.2-25.2h-3.8V52.4H97.7
			v12.4h-3.8c-13.9,0-25.2,11.3-25.2,25.2s11.3,25.2,25.2,25.2c0,0,0,0,0,0h18.6c7.9,0,14.3,6.4,14.3,14.3c0,7.9-6.4,14.3-14.3,14.3
			H93.9c-7.9,0-14.3-6.4-14.3-14.3H68.7c0,13.9,11.3,25.2,25.2,25.2h3.8V167h10.9v-12.4h3.8c13.9,0,25.2-11.3,25.2-25.2
			c0-13.9-11.3-25.2-25.2-25.2H93.9c-7.9,0-14.3-6.4-14.3-14.3S86,75.7,93.9,75.7C93.9,75.7,93.9,75.7,93.9,75.7"/>
		<path id="Path_2129" class="st0" d="M104.1,7.6C48.3,7.6,3,52.8,3,108.6s45.2,101,101,101s101-45.2,101-101c0,0,0,0,0,0
			C205,52.8,159.8,7.6,104.1,7.6 M104.1,198.7c-49.8,0-90.1-40.4-90.1-90.1c0-49.8,40.4-90.1,90.1-90.1c49.8,0,90.1,40.3,90.1,90.1
			C194.1,158.4,153.8,198.7,104.1,198.7"/>
	</g>
</g>
</svg>
