<?xml version="1.0" encoding="utf-8"?>
<!-- Generator: Adobe Illustrator 27.5.0, SVG Export Plug-In . SVG Version: 6.00 Build 0)  -->
<svg version="1.1" id="Layer_1" xmlns="http://www.w3.org/2000/svg" xmlns:xlink="http://www.w3.org/1999/xlink" x="0px" y="0px"
	 viewBox="0 0 216 216" style="enable-background:new 0 0 216 216;" xml:space="preserve">
<style type="text/css">
	.st0{fill:#0C8CC4;}
</style>
<g>
	<g id="Group_856">
		<path id="Path_2127" class="st0" d="M209.3,156c0.2-5.3-3.1-10.1-8-12c-0.7-0.2-1.4-0.4-2.1-0.6l-0.6-0.2
			c-0.1-0.7-0.1-1.5-0.2-2.2c-0.1-1.6-0.3-3-0.4-4.5c-3.8-34.3-20-60.3-48-77.2c-4.1-2.1-6.8-6.2-7-10.8c0.1-5.7-4.4-10.5-10.1-10.6
			c-0.3,0-0.6,0-0.9,0c-12.8,0-25.6,0-38.4,0H85c-7.8,0-11.4,3.5-12.1,12c-0.1,3.5-2,6.6-5,8.3c-0.5,0.3-1.1,0.6-1.6,0.9
			c-0.8,0.5-1.7,1-2.5,1.5c-27.9,18.1-43.5,45.2-46.1,80.5c-0.1,1.7-0.4,2.3-1.9,2.6c-4.9,1-8.5,5.2-8.8,10.2
			c-0.4,4.1-0.4,8.3-0.2,12.4c0,2.8,1.6,5.4,4.2,6.6c0.1,0,0.1,0,0.2,0h193.6c0.1,0,0.1,0,0.2,0c2.9-1.4,4.6-4.4,4.4-7.6
			C209.4,161.6,209.4,158.7,209.3,156 M158.5,143.4h-15.7v-32.3c0-0.2-0.2-0.4-0.4-0.4h-5.7c-0.2,0-0.4,0.2-0.4,0.4v14
			c0,2.5,0,2.5,0,5.3l0,10.3c0,1.1,0,1.9-0.4,2.3c-0.4,0.3-1,0.5-1.5,0.4c-12.8-0.1-25.9,0-38.4,0c-5.1,0-10.1,0-15.2,0
			c-0.2,0-0.5,0-0.7-0.1l-0.3-0.1v-20.5c0-0.2-0.2-0.4-0.4-0.4c0,0,0,0,0,0h-5.8c-0.2,0-0.4,0.2-0.4,0.4c0,0,0,0,0,0v20.4H24.1
			c0.3-12.4,3.1-24.6,8.2-36c8-18.8,22.3-34.2,40.5-43.7v27.2c0,0.2,0.2,0.4,0.4,0.4c0,0,0,0,0,0h5.9c0.2,0,0.4-0.2,0.4-0.4v-3.1
			c0-12.3,0-24.6,0-36.9c0-4.5,1.1-5.7,5.2-5.7c15.5,0,31,0,46.4,0c4.1,0,5.1,1.1,5.1,5.7c0,3.1,0,6.1,0,9.4v3.4
			c0,0.2,0.2,0.4,0.4,0.4c0.4,0,0.8,0,1.2,0.1c0.8,0.1,1.6,0.1,2.4-0.2c2.2-1,3.9,0.1,5.7,1.3c0.3,0.2,0.6,0.4,0.9,0.6
			c27.4,16.7,42.4,42.4,44.9,76.4c0,0.2,0,0.5,0,0.9v0.5h-20.8c-0.2,0-0.4,0.2-0.4,0.4v6.1c0,0.2,0.2,0.4,0.4,0.4c0.3,0,0.6,0,1,0.1
			c0.7,0.1,1.4,0.1,2,0.1c3.3,0,6.6,0,9.8,0c4.4,0,8.7,0,13.1,0c4.2,0,5.8,1.8,5.8,6.3c0,0.9,0,1.8,0,2.7c0,1.6,0,3.3,0,4.9
			c0.1,0.6,0,1.3-0.4,1.8c-0.4,0.3-1,0.4-1.5,0.3l0,0c-0.2,0-0.4,0-0.6,0h-0.6c-0.2,0-0.4,0-0.5,0H16.9c-3.6,0-3.6,0-3.6-4
			c0-0.7,0-1.4,0-2.1c0-1.5,0-3.1,0-4.6c-0.3-2.7,1.7-5.1,4.4-5.4c0.2,0,0.4,0,0.6,0c0.7,0,1.3,0,1.9,0h138.3c0.2,0,0.4-0.2,0.4-0.4
			v-6.3C158.9,143.6,158.7,143.4,158.5,143.4"/>
	</g>
</g>
</svg>
