<?xml version="1.0" encoding="utf-8"?>
<!-- Generator: Adobe Illustrator 27.5.0, SVG Export Plug-In . SVG Version: 6.00 Build 0)  -->
<svg version="1.1" id="Layer_1" xmlns="http://www.w3.org/2000/svg" xmlns:xlink="http://www.w3.org/1999/xlink" x="0px" y="0px"
	 viewBox="0 0 216 216" style="enable-background:new 0 0 216 216;" xml:space="preserve">
<style type="text/css">
	.st0{fill:#0C8CC4;}
</style>
<g>
	<g id="Group_863">
		<path id="Path_2132" class="st0" d="M194.8,104c0-10.6-5.7-20.3-15-25.4c2.5-4.4,3.9-9.4,4-14.5c0-17.5-14.2-31.6-31.6-31.6
			c-1.8,0-3.7,0.2-5.5,0.5c-6.4-11.3-20.7-15.4-32-9c-2.7,1.5-5.1,3.5-7,6c-8-10.2-22.8-12-33-3.9c-2.4,1.9-4.5,4.3-6,7
			c-1.9-0.3-3.8-0.5-5.7-0.5c-17.4-0.1-31.5,13.9-31.6,31.3c0,5.2,1.2,10.4,3.7,15c-14,7.9-18.9,25.6-11,39.5
			c3,5.4,7.7,9.6,13.3,12.2c-2.3,4.6-3.6,9.8-3.5,15c0.5,12.1,7.2,23.2,17.7,29.1c2.9,11,13.4,18.3,24.8,17.2
			c3.7,5.5,9.9,8.8,16.6,8.8c5.5,0,10.8-2.3,14.5-6.3c7.2,8.2,19.8,9,28,1.8c1.4-1.2,2.6-2.7,3.7-4.3c0.7,0.1,1.3,0.1,2,0.1
			c10.5,0,19.7-7.2,22.4-17.4c10.6-5.9,17.4-17,17.9-29.2c0-5.2-1.2-10.4-3.6-15C188.3,125.8,194.9,115.4,194.8,104 M92.9,190.1
			c-3.7,0-7-2.2-8.5-5.5c0-0.1,0-0.2-0.1-0.3c-0.9-2.8-3.8-4.3-6.6-3.5l-0.2,0.1c-6.7,2-13.8-1.9-15.8-8.6c-0.3-1.2-0.5-2.4-0.5-3.6
			c0-5.1,3-9.7,7.7-11.7c0.4-0.1,0.8-0.3,1.1-0.4c1.9,3.9,4.8,7.2,8.4,9.5l5.5-9c-1.5-0.9-8.7-6.2-4.1-17l-9.7-4.2
			c-1.4,3.3-2.2,6.8-2.4,10.3c-1,0.2-2.1,0.6-3.1,1c-6.3,2.6-11,7.9-13.1,14.4c-4.5-4.2-7.2-10-7.4-16.2c0-4.7,1.5-9.3,4.3-13.1
			c6.7-0.7,13-3.8,17.6-8.8c2.8,1.7,6,2.9,9.3,3.4l1.6-10.5c-5.8-1-10.5-5.4-11.8-11.2l-5.2,1l-5.2,1c0.7,3.1,2,6.1,3.7,8.8
			c-3.2,3.6-7.8,5.7-12.6,5.8c0,0-0.1,0-0.1,0c-8.8-1.4-15.3-9-15.1-17.9c-0.1-7.3,4.2-13.9,10.8-16.8c4.6,3.8,10.3,5.9,16.3,5.9
			c1.8,0,3.5-0.2,5.3-0.6c2.4,2.2,5.3,3.8,8.5,4.6c5,1.2,10.3,0.5,14.7-2.1l-5.3-9.2c-4.4,2.6-10.1,1.1-12.7-3.4
			c-2.6-4.4-1.1-10.1,3.4-12.7c0.5-0.3,1-0.5,1.5-0.7l-3.7-9.9c-6.2,2.3-10.9,7.5-12.4,14c-0.7,3.1-0.7,6.3,0.1,9.4
			c-3.9-0.1-7.6-1.8-10.2-4.7c-7.5-8.8-6.5-22.1,2.4-29.6c8.1-6.9,20-6.7,27.8,0.5l7.2-7.8c-1.7-1.5-3.6-2.9-5.6-4
			c4.3-5.8,12.5-7,18.3-2.6c3.1,2.3,5,5.9,5.2,9.8l0.1,85.1l-0.1,51.6C102.3,185.9,98.1,190.1,92.9,190.1 M168.9,121.9
			c-4.7-0.1-9.2-2.2-12.3-5.8c1.7-2.7,3-5.7,3.7-8.8l-10.4-2c-1.3,5.8-5.9,10.2-11.8,11.2l1.6,10.5c3.3-0.5,6.5-1.6,9.4-3.4
			c4.6,5,10.9,8.1,17.6,8.8c2.8,3.8,4.3,8.4,4.3,13.1c-0.3,6.2-3,12.1-7.7,16.3c-2.4-7.5-8.4-13.3-15.9-15.4
			c-0.1-3.6-0.9-7.1-2.4-10.4l-9.7,4.2c4.6,10.8-2.6,16.1-4.1,17l2.8,4.5l2.7,4.5c3.6-2.3,6.5-5.6,8.4-9.5
			c6.7,2.1,10.4,9.1,8.4,15.8c-2.1,6.7-9.1,10.4-15.8,8.4l0,0c-2.7-0.8-5.5,0.7-6.5,3.3c-1.7,4.9-7.1,7.5-12,5.8
			c-3.8-1.3-6.3-4.9-6.3-8.8l0.1-52l-0.1-84.4h0.1c0-7.2,5.9-13.1,13.1-13.1c4.1,0,7.9,1.9,10.4,5.1c-2.1,1.1-4,2.5-5.7,4.1l7.2,7.8
			c8.6-7.8,21.9-7.3,29.7,1.3c3.6,3.9,5.5,8.9,5.5,14.2c-0.3,6.5-3.5,12.6-8.8,16.5c-2,1.5-4.3,2.7-6.8,3.4
			c3.4-10.2-1.9-21.1-12-24.8l-3.7,9.9c4.8,1.8,7.3,7.1,5.5,12s-7.1,7.3-12,5.5c-0.5-0.2-1-0.4-1.5-0.7l-5.3,9.2
			c3,1.8,6.5,2.7,10,2.7c1.6,0,3.2-0.2,4.7-0.6c2-0.5,3.9-1.3,5.6-2.4c1.4,0.3,2.9,0.4,4.3,0.4c6.3-0.1,12.5-2.2,17.4-6.1
			c0.8-0.6,1.5-1.3,2.2-1.9c6.8,2.8,11.2,9.5,11.1,16.9C184.5,113,177.9,120.7,168.9,121.9"/>
	</g>
</g>
</svg>
