<?xml version="1.0" encoding="utf-8"?>
<!-- Generator: Adobe Illustrator 27.5.0, SVG Export Plug-In . SVG Version: 6.00 Build 0)  -->
<svg version="1.1" id="Layer_1" xmlns="http://www.w3.org/2000/svg" xmlns:xlink="http://www.w3.org/1999/xlink" x="0px" y="0px"
	 viewBox="0 0 216 216" style="enable-background:new 0 0 216 216;" xml:space="preserve">
<style type="text/css">
	.st0{fill:#0C8CC4;}
</style>
<g>
	<g id="Group_865" transform="translate(0 0)">
		<path id="Path_2133" class="st0" d="M85,67.7c-22.3,10.8-31.6,37.7-20.8,60s37.7,31.6,60,20.8c22.3-10.8,31.6-37.7,20.8-60
			C134.1,66.2,107.3,56.9,85,67.7 M119.2,138c-16.6,8-36.5,1.1-44.5-15.4c0,0,0,0,0,0c-8-16.6-1.1-36.5,15.4-44.5
			s36.5-1.1,44.5,15.4C142.6,110.1,135.7,130,119.2,138C119.2,138,119.2,138,119.2,138"/>
		<path id="Path_2134" class="st0" d="M201.5,117.1l-15.7-6.6c0.2-4.9-0.1-9.7-0.8-14.5l14.7-8.4c2.6-1.5,3.7-4.8,2.3-7.5
			l-15.2-31.3c-1.3-2.7-4.6-4-7.4-2.8l-15.7,6.4c-3.3-3.5-7-6.8-10.9-9.6l4.4-16.4c0.8-2.9-0.8-6-3.7-7L120.9,8
			c-2.9-1-6,0.4-7.2,3.2L107,26.8c-4.9-0.1-9.7,0.2-14.5,0.9L84.1,13c-1.5-2.7-4.8-3.7-7.5-2.4L45.3,25.8c-2.7,1.3-4,4.6-2.8,7.4
			l6.4,15.7c-3.5,3.3-6.8,7-9.6,10.9l-16.4-4.5c-2.9-0.8-6,0.8-7,3.7L4.5,91.8c-1,2.9,0.4,6,3.2,7.2l15.7,6.6
			c-0.2,4.9,0.1,9.7,0.8,14.5l-14.7,8.4c-2.6,1.5-3.7,4.8-2.3,7.5l15.2,31.3c1.3,2.7,4.6,4,7.4,2.8l15.7-6.4c3.3,3.5,7,6.8,10.9,9.6
			l-4.5,16.4c-0.8,2.9,0.8,6,3.7,7l32.9,11.4c2.9,1,6-0.4,7.2-3.2l6.6-15.7c4.9,0.1,9.7-0.2,14.5-0.9l8.4,14.8
			c1.5,2.6,4.8,3.7,7.5,2.3l31.3-15.2c2.7-1.3,4-4.6,2.8-7.4l-6.4-15.7c3.5-3.3,6.8-7,9.6-10.9l16.4,4.5c2.9,0.8,6-0.8,7-3.7
			l11.4-32.8C205.7,121.4,204.3,118.3,201.5,117.1 M184.2,148.3l-15.1-4.1c-2.4-0.6-5,0.3-6.4,2.4c-3.6,5.5-8,10.5-13,14.7
			c-1.9,1.6-2.5,4.3-1.6,6.6l5.9,14.5l-21.5,10.5l-7.7-13.6c-1.2-2.2-3.7-3.3-6.2-2.8c-6.5,1.3-13.1,1.7-19.6,1.1
			c-2.5-0.3-4.9,1.2-5.8,3.5L87,195.5l-22.6-7.8l4.1-15.1c0.7-2.4-0.3-5-2.4-6.4c-5.5-3.6-10.5-8-14.7-13c-1.6-1.9-4.3-2.6-6.6-1.6
			l-14.5,5.9l-10.5-21.5l13.6-7.7c2.2-1.2,3.3-3.7,2.8-6.2c-1.3-6.5-1.7-13.1-1.1-19.6c0.2-2.5-1.2-4.8-3.5-5.8l-14.4-6.1L25,67.9
			L40.1,72c2.4,0.7,5-0.3,6.4-2.4c3.6-5.5,8-10.5,13-14.7c1.9-1.6,2.6-4.3,1.6-6.6l-5.9-14.5l21.5-10.4l7.7,13.6
			c1.2,2.2,3.7,3.3,6.2,2.8c6.5-1.3,13.1-1.7,19.7-1.1c2.5,0.2,4.8-1.2,5.8-3.5l6.1-14.4l22.6,7.8l-4.1,15.1c-0.7,2.4,0.3,5,2.4,6.4
			c5.5,3.6,10.5,8,14.7,13c1.6,1.9,4.3,2.6,6.6,1.6l14.5-5.9l10.5,21.5l-13.6,7.7c-2.2,1.2-3.3,3.7-2.8,6.2
			c1.3,6.5,1.7,13.1,1.1,19.6c-0.2,2.5,1.2,4.8,3.5,5.8l14.4,6.1L184.2,148.3z"/>
	</g>
</g>
</svg>
