<?xml version="1.0" encoding="utf-8"?>
<!-- Generator: Adobe Illustrator 27.5.0, SVG Export Plug-In . SVG Version: 6.00 Build 0)  -->
<svg version="1.1" id="Layer_1" xmlns="http://www.w3.org/2000/svg" xmlns:xlink="http://www.w3.org/1999/xlink" x="0px" y="0px"
	 viewBox="0 0 216 216" style="enable-background:new 0 0 216 216;" xml:space="preserve">
<style type="text/css">
	.st0{fill:#0C8CC4;}
</style>
<g>
	<g id="Group_889" transform="translate(-0.212 -0.212)">
		<path id="Path_2138" class="st0" d="M107.2,108.1c-22.9,0-41.4-18.6-41.4-41.4s18.6-41.4,41.4-41.4s41.4,18.6,41.4,41.4l0,0
			C148.6,89.5,130.1,108.1,107.2,108.1 M107.2,33.8c-18.1,0-32.8,14.7-32.8,32.8s14.7,32.8,32.8,32.8S140,84.8,140,66.7
			C140,48.5,125.3,33.9,107.2,33.8"/>
		<path id="Path_2139" class="st0" d="M166.6,197.2H47.8c-14.7,0-26.6-11.9-26.6-26.6v-15.7c0-14.6,9.4-27.6,23.3-32.3l24.3-8.1
			c1.5-0.5,3.2-0.1,4.4,1l34.1,34.1l34.1-34.1c1.2-1.2,2.9-1.6,4.4-1l24.2,8.1c13.9,4.6,23.3,17.6,23.3,32.3v15.7
			C193.2,185.3,181.3,197.2,166.6,197.2 M68.9,123.6l-21.7,7.2c-10.4,3.5-17.4,13.2-17.4,24.1v15.7c0,9.9,8.1,18,18,18h118.8
			c9.9,0,18-8.1,18-18v-15.7c0-10.9-7-20.7-17.4-24.1l-21.7-7.2l-35.3,35.3c-1.7,1.7-4.4,1.7-6.1,0c0,0,0,0,0,0L68.9,123.6z"/>
		<path id="Path_2140" class="st0" d="M55.2,197.2c-2.4,0-4.3-1.9-4.3-4.3v-29.7c0-2.4,1.9-4.3,4.3-4.3c2.4,0,4.3,1.9,4.3,4.3v29.7
			C59.5,195.3,57.6,197.2,55.2,197.2"/>
		<path id="Path_2141" class="st0" d="M159.2,197.2c-2.4,0-4.3-1.9-4.3-4.3v-29.7c0-2.4,1.9-4.3,4.3-4.3c2.4,0,4.3,1.9,4.3,4.3l0,0
			v29.7C163.5,195.3,161.6,197.2,159.2,197.2"/>
	</g>
</g>
</svg>
