<?xml version="1.0" encoding="utf-8"?>
<!-- Generator: Adobe Illustrator 27.5.0, SVG Export Plug-In . SVG Version: 6.00 Build 0)  -->
<svg version="1.1" id="Layer_1" xmlns="http://www.w3.org/2000/svg" xmlns:xlink="http://www.w3.org/1999/xlink" x="0px" y="0px"
	 viewBox="0 0 216 216" style="enable-background:new 0 0 216 216;" xml:space="preserve">
<style type="text/css">
	.st0{fill:#0C8CC4;}
</style>
<g>
	<g id="Group_859">
		<path id="Path_2130" class="st0" d="M178.5,59c0-10.3-8.3-18.6-18.5-18.6c-10.3,0-18.6,8.3-18.6,18.5c0,8.6,5.8,16.1,14.2,18.1
			v42.5h-27.3v-14.4c9.9-2.8,15.7-13,12.9-22.9c-2.8-9.9-13-15.7-22.9-12.9c-9.9,2.8-15.7,13-12.9,22.9c1.7,6,6.2,10.7,12.1,12.7
			v14.6h-52V45.1c10.1-1.8,16.8-11.5,14.9-21.6C78.5,13.4,68.9,6.8,58.8,8.6S42,20.1,43.9,30.2C45,36.3,49,41.4,54.7,43.9v81.1
			c0,3,2.4,5.4,5.4,5.4c0,0,0,0,0,0h57.4v29.6c-13.3,3-21.6,16.1-18.6,29.4c3,13.3,16.1,21.6,29.4,18.6c13.3-3,21.6-16.1,18.6-29.4
			c-2.1-9.3-9.3-16.6-18.6-18.6v-29.6h32.7c3,0,5.4-2.4,5.4-5.4V76.4C173.6,73.8,178.5,66.8,178.5,59 M62.1,19.1
			c4.3,0,7.8,3.5,7.8,7.8s-3.5,7.8-7.8,7.8c-4.3,0-7.8-3.5-7.8-7.8C54.3,22.6,57.8,19.1,62.1,19.1 M123.3,79.5
			c4.3,0,7.8,3.5,7.8,7.8c0,4.3-3.5,7.8-7.8,7.8c-4.3,0-7.8-3.5-7.8-7.8C115.5,83,119,79.5,123.3,79.5 M136.7,183.8
			c0.1,7.7-6.1,13.9-13.8,13.9c-7.7,0.1-13.9-6.1-13.9-13.8c-0.1-7.7,6.1-13.9,13.8-13.9c0,0,0.1,0,0.1,0
			C130.5,170,136.7,176.2,136.7,183.8 M159.9,66.8c-4.3,0-7.8-3.5-7.8-7.8c0-4.3,3.5-7.8,7.8-7.8c4.3,0,7.8,3.5,7.8,7.8
			C167.7,63.3,164.2,66.8,159.9,66.8"/>
	</g>
</g>
</svg>
