<?xml version="1.0" encoding="utf-8"?>
<!-- Generator: Adobe Illustrator 27.0.1, SVG Export Plug-In . SVG Version: 6.00 Build 0)  -->
<svg version="1.1" id="Layer_1" xmlns="http://www.w3.org/2000/svg" xmlns:xlink="http://www.w3.org/1999/xlink" x="0px" y="0px"
	 viewBox="0 0 91.1 62" style="enable-background:new 0 0 91.1 62;" xml:space="preserve">
<style type="text/css">
	.st0{fill:#C9C0AB;}
	.st1{fill:#DED3C6;}
</style>
<g>
	<g id="Group_111" transform="translate(406.425 386.13)">
		<path id="Path_11545" class="st0" d="M-351.8-350.3c0,0.1,0,0.1,0,0.2c0.1,0.4-0.1,0.9-0.4,1.2l-0.1,0.1c0,0.1-0.1,0.2-0.1,0.3
			c-0.1,0.2-0.3,0.4-0.5,0.5c-0.1,0.2-0.4,0.4-0.6,0.6c-0.2,0.1-0.4,0.1-0.6,0.1h-0.1c-0.1,0-0.1,0.1-0.2,0.1
			c-0.2,0.1-0.5,0.2-0.7,0.2l0,0c0.4,0.4,0.5,1,0.4,1.5c-0.1,0.3-0.3,0.6-0.5,0.9c-0.1,0.1-0.2,0.2-0.2,0.4c0.1,0.3,0,0.6-0.2,0.8
			c-0.1,0.1-0.3,0.3-0.4,0.3v0.1c-0.1,0.3-0.3,0.5-0.5,0.6c0,0,0,0,0,0.1l0,0l0,0v0.1c0,0.1,0.1,0.3,0.1,0.4c0,0.3,0.1,0.6,0.3,0.8
			c0.1,0.2,0.2,0.4,0.3,0.6c0,0,0,0,0,0.1c0.1,0.1,0.1,0.1,0.2,0.2s0.2,0.2,0.3,0.3c0,0.1,0.1,0.1,0.1,0.2c0.2,0.2,0.5,0.3,0.7,0.5
			s0.4,0.3,0.6,0.5c0.6,0.4,0.9,0.9,1,1.6c0.1,0,0.3,0,0.4,0h0.1c0.5,0.1,1,0.2,1.4,0.5l0.1,0.1c0.2,0.1,0.4,0.3,0.4,0.5
			c0.1,0.4,0.1,0.8-0.2,1v0.1c0,0.2-0.1,0.4-0.2,0.6s-0.2,0.4-0.3,0.5c-0.1,0.1-0.2,0.3-0.2,0.5l0.1,0.1c0.2,0.1,0.3,0.3,0.5,0.4
			c0,0,0,0.1,0.1,0.1c0,0,0.1,0.1,0.2,0.1c0.3,0.1,0.5,0.3,0.7,0.5c0.4,0,0.7,0.2,1,0.4c0.1,0,0.1,0.1,0.1,0.2l0,0
			c0.3,0.1,0.5,0.2,0.7,0.5c0.2,0.2,0.4,0.4,0.5,0.7l0,0c0.1,0.2,0.1,0.4,0,0.6c0,0.1,0,0.2,0,0.2l0,0c0,0.1,0,0.1,0,0.2
			s0,0.2,0,0.3c0,0.1,0,0.3-0.1,0.4l0,0h0.1l0,0c0.3-0.3,0.7-0.5,1.2-0.5c0.1,0,0.3,0,0.4,0c0.2,0,0.3,0.1,0.5,0.1v-0.1
			c0-0.1-0.1-0.2-0.1-0.4c0-0.3,0.2-0.6,0.5-0.8c0.2-0.1,0.4-0.2,0.7-0.2c0-0.2,0-0.4,0.1-0.6s0.2-0.4,0.4-0.5c0-0.1,0-0.1,0-0.2
			c-0.1-0.1-0.2-0.3-0.3-0.5c-0.1-0.3-0.1-0.6,0.1-0.8c0-0.1,0.1-0.1,0.1-0.2c0-0.2,0-0.3,0.1-0.5c0.2-0.4,0.5-0.7,0.8-0.9
			c0-0.3,0.1-0.6,0.3-0.8c0.1-0.1,0.2-0.2,0.3-0.2c0-0.1,0.1-0.2,0.2-0.3c0.1-0.1,0.2-0.3,0.3-0.4c-0.1-0.2-0.1-0.4-0.1-0.5
			c-0.1-0.1-0.1-0.1-0.1-0.2c-0.1-0.1-0.1-0.3-0.1-0.4l0,0c0,0.1,0,0.1,0.1,0.1c0,0.1,0.1,0.1,0.1,0.2c0.1,0,0.1,0.1,0.2,0.1
			c0,0,0-0.1,0.1-0.1c0,0,0,0.1-0.1,0.1c0.1,0,0.2,0,0.3,0l0,0c0-0.1-0.1-0.1-0.1-0.2s-0.1-0.2-0.1-0.3l0,0l0,0l0,0l0,0l0,0
			c0.1,0,0.1,0,0.2,0v-0.5l-1,0.2c-0.1-0.2,0-0.5,0-0.7c-0.1-0.3-0.1-0.7,0-0.9l-0.9-10.8c0-0.4,0.2-0.7,0.5-0.9
			c0-0.4-0.1-0.7-0.3-1c-0.1-0.2-0.3-0.3-0.4-0.4c-0.2-0.2-0.3-0.2-0.3-0.5c0-0.1,0-0.1,0-0.2c-2.5,0.2-6.2,0.4-8.6,0.5
			c0.1,0,0.1,0.1,0.2,0.1C-351.9-351.6-351.7-351-351.8-350.3"/>
		<path id="Path_11546" class="st0" d="M-339.7-349.7c-0.3,0-0.6-0.1-0.8-0.4c-0.3,0.1-0.5,0.2-0.7,0.4c-0.1,0.1-0.3,0.1-0.4,0.1
			c-0.3,0-0.5-0.1-0.7-0.2c-0.1-0.1-0.1,0-0.2-0.1l0.9,11.2c-0.4,0.2,0,0.4,0,0.6s-0.2,0.3-0.1,0.5l0,0c0.1,0,0.2,0.1,0.2,0.2
			c0.1,0.1,0,0.2,0.1,0.3c0.1,0.3,0.5,0.4,0.2,0.7c0.6,0.3-0.6,1.5-0.6,1.9h-0.1c-0.3,0-0.2,0.3-0.2,0.5v0.1
			c-0.1,0.4-0.8,0.4-0.9,0.8c-0.1,0.3,0.1,0.5,0.1,0.6c0.1-0.1,0.3-0.1,0.4-0.1h0.1c0.1-0.1,0.3-0.1,0.5-0.2h0.1
			c0.2-0.2,0.5-0.3,0.8-0.3c0.2,0,0.4,0.1,0.6,0.2c0.1,0,0.2,0,0.3,0c0.2,0,0.5,0.1,0.7,0.2c0.1,0,0.1-0.1,0.2-0.1l0.1-0.1
			c0.3-0.3,0.7-0.5,1.1-0.5c0.1,0,0.3,0,0.4,0.1c0.1-0.1,0.1-0.2,0.2-0.3c0,0,0,0,0.1-0.1c0.3-0.4,0.8-0.7,1.3-0.7h0.1
			c0.3,0,0.6,0.1,0.8,0.3c0-0.2,0.1-0.5,0.3-0.7c0.1-0.1,0.3-0.3,0.5-0.3c0-0.1,0.1-0.2,0.1-0.3c0.1-0.2,0.3-0.3,0.5-0.4
			c0-0.1,0-0.2,0-0.3c0-0.2,0.1-0.5,0.2-0.7c0-0.3,0.2-0.7,0.5-0.8c0.2-0.1,0.4-0.2,0.6-0.2s0.5,0.1,0.7,0.2l0.1-0.1
			c0-0.2,0-0.4,0.1-0.6c0-0.1,0-0.2,0.1-0.4l-1.5-11.6L-339.7-349.7C-339.6-349.7-339.6-349.7-339.7-349.7"/>
		<path id="Path_11547" class="st0" d="M-335.2-369.6c-0.1,0.2-0.2,0.3-0.3,0.5c-0.1,0.2-0.1,0.1,0,0.3l0.2,0.2l0,0l0,0
			c0,0,0.1,0,0.2,0c0.2,0,0.3,0,0.5,0.1c0,0.4-0.9,0.3-1.1,0.4c-0.3,0.1-0.3,0.1-0.4,0.4c-0.1,0.2-0.1,0.4-0.1,0.6s0.2,0.4,0.2,0.6
			s0,0.4-0.1,0.6s-0.4,0.7-0.7,0.7c-0.1,0-0.2-0.1-0.2-0.1c-0.1-0.1,0.1-0.3,0.1-0.4c0-0.2,0-0.3,0-0.5c-0.2-0.1,0-0.1,0-0.2
			c0-0.2,0.1-0.1,0-0.2s-0.2-0.1-0.1-0.3c0.1-0.1,0.2-0.1,0.2-0.2l0,0c-0.4,0-0.3,0.4-0.4,0.6s-0.4,0.4-0.5,0.7h-0.1
			c-0.1,0-0.2,0-0.2-0.1c-0.2,0.2,0.1,0.4,0,0.5c0,0,0,0-0.1,0s-0.2-0.3-0.3-0.3c0,0-0.1,0-0.1,0.1c-0.1,0.1,0.1,0.4,0,0.5
			c-0.1,0.2-0.2,0.3-0.4,0.4c-0.1,0.1-0.4,0.2-0.4,0.4c0,0.1,0.2,0.2,0.2,0.3c0,0.1,0,0.2-0.1,0.3c-0.1,0.4,0.1,0.9,0,1.3
			c-0.3,0.2-0.4,0.6-0.6,0.9c-0.1,0.1-0.3,0.3-0.2,0.4c0.1,0.2,0.3,0.2,0.4,0.3c0.1,0.1,0.2,0.3,0.2,0.5s-0.1,0.4-0.3,0.5
			c-0.5,0.4,0,0.6,0.3,1c0.1,0.1,0.1,0.4,0.2,0.5c0.1,0.2,0.2,0.4,0.3,0.5c0.2,0.3,0.4,0.7,0.6,1c0.1,0.2,0.2,0.4,0.2,0.6
			c0,0.1,0,0.2,0,0.3c0,0.1,0.1,0.1,0.2,0.2c0,0.2-0.1,0.4-0.1,0.6s0,0.4,0,0.6s0,0.4,0,0.6s0,0.4-0.1,0.6c-0.1,0.3-0.3,0.7-0.5,1
			c-0.1,0.4-0.3,0.7-0.5,1.1c-0.1,0.2-0.2,0.4-0.4,0.5c0,0,0,0-0.1,0.1l6.6-0.5c0-0.1,0.1-0.2,0.2-0.3c0.2-0.2,0.4-0.3,0.7-0.3
			c1.6-0.1,3.1-0.4,4.6-0.8c0.1,0,0.2,0,0.2,0h0.1l0,0c0.2,0,0.3,0,0.5,0.1c0.1-0.1,0.2-0.2,0.3-0.3c0.1-0.2,0.2-0.3,0.2-0.5
			c0.2-0.3,0.2-0.7,0.4-1s0.5-0.6,0.7-0.9c0.2-0.4,0-1.4,0.7-1.4c0.1,0.2,0.3,0.3,0.6,0.4h0.1c0-0.2,0-0.5,0-0.7s0-0.4-0.1-0.7
			c0-0.2,0.1-0.4,0-0.6s-0.2-0.3-0.4-0.4c0-0.2-0.1-0.4-0.2-0.6s-0.1-0.4-0.1-0.6s-0.2-0.3-0.2-0.5c0-0.3,0-0.4-0.2-0.6
			s-0.1-0.4-0.1-0.6c-0.1-0.2-0.2-0.4-0.4-0.6c-0.2-0.3-0.5-0.7-0.9-0.7c-0.1,0-0.1,0-0.2,0c-0.2,0-0.3,0.1-0.5,0.1
			c-0.1,0.1-0.2,0.1-0.3,0.2h-0.1h-0.1c-0.1,0-0.1,0-0.2,0.1s-0.2,0.3-0.3,0.5c-0.1,0.2-0.2,0.4-0.2,0.6c-0.1,0-0.2,0.1-0.3,0.2
			s-0.3,0.1-0.4,0.2c-0.2,0.2-0.4,0.5-0.7,0.5c-0.1,0-0.1,0-0.2,0c-0.4-0.1-0.5-0.7-0.5-1.1s0.4-0.6,0.7-0.8
			c0.2-0.1,0.4-0.3,0.5-0.5s0.1-0.5,0.1-0.7c0.1-0.3,0.2-0.1,0.4-0.3c0.1-0.1,0.1-0.4,0.1-0.6c0-0.1,0.1-0.2,0.1-0.3
			c0-0.1,0-0.2,0-0.3c0-0.2,0-0.4,0-0.6s-0.1-0.4-0.1-0.6c-0.1-0.2-0.1-0.2-0.4-0.4c-0.2-0.1-0.4-0.2-0.4-0.5c0-0.1,0-0.2,0.1-0.3
			c0.1-0.1,0.2,0,0.3-0.2c0-0.1-0.2-0.4-0.2-0.5s-0.2-0.1-0.2-0.2c-0.1-0.1-0.1-0.2-0.1-0.3c-0.1-0.2-0.4-0.3-0.6-0.3
			c-0.1,0-0.1,0-0.2,0s-0.2,0-0.2,0c-0.4-0.1-0.7-0.4-1.1-0.4c-0.3,0-0.3,0-0.5-0.2c-0.1-0.1-0.2-0.2-0.4-0.3
			c-0.1-0.1,0-0.1-0.2-0.2h-0.1c-0.1,0-0.2,0-0.2,0s-0.1,0-0.2,0s-0.3,0-0.2,0.2h0.1c0.3,0,0.3,0.3,0.1,0.3c-0.1,0-0.2-0.1-0.3-0.2
			c-0.1-0.1,0-0.1-0.1-0.2c-0.1,0-0.2-0.1-0.2-0.1c-0.1,0-0.1,0.1-0.2,0.1c-0.1,0.1-0.3,0.1-0.5,0.1s-0.4,0-0.5-0.1c0,0,0,0-0.1,0
			C-335.1-369.8-335.1-369.7-335.2-369.6"/>
		<path id="Path_11548" class="st1" d="M-375.8-355.9c0,0.1,0,0.1,0,0.2s0,0.2,0,0.3l0,0c0,0.2-0.1,0.3-0.2,0.5v0.1
			c0,0.2-0.1,0.5-0.2,0.7c0.1,0.1,0.2,0.2,0.2,0.4c0.5,0.1,0.9,0.6,0.7,1.2c0,0.1,0,0.1-0.1,0.2c0.1,0.2,0.1,0.4,0.1,0.6v0.1v0.1
			c0.1,0.1,0.2,0.2,0.2,0.3c0,0.1,0.1,0.1,0.1,0.2c0.1,0.1,0.2,0.2,0.2,0.3c0.1,0.2,0.2,0.3,0.2,0.5c0.1,0.1,0.2,0.3,0.2,0.4
			s0,0.3,0,0.4s0.1,0.3,0,0.4c0,0.1,0,0.2-0.1,0.4c0,0.1,0.1,0.1,0.1,0.2v0.1c0,0,0,0,0,0.1c0,0,0.1,0.1,0.2,0.1
			c0.2,0.2,0.3,0.4,0.3,0.6c0,0.1,0.1,0.1,0.1,0.2s0.1,0.2,0.1,0.4l0,0c0.1,0.3,0.2,0.6,0.1,1c0.1,0.1,0.1,0.2,0.1,0.3
			c0,0.2,0,0.3,0,0.5c0,0,0,0,0,0.1c0.1,0.2,0.1,0.5,0,0.7c0.7,0,1.3,0,2,0c2.3,0,4.5,0,6.7-0.1c1.3,0,2.4-0.1,3.3-0.1
			c0.2,0,0.5-0.1,0.8-0.1c0.5-0.1,1-0.1,1.5-0.1c0.3,0,0.6,0,0.9,0.1c0.2,0.1,0.5,0.2,0.7,0.4c0.1,0,0.1,0.1,0.2,0.2
			c0.1,0,0.2,0.1,0.3,0.2h0.1h0.1c0.1,0,0.2,0,0.3-0.1c0,0,0.1,0,0.1-0.1c-0.3-0.6,0.6-1.2,0.7-1.7c0-0.1,0-0.2,0-0.3
			c0-0.2-0.1-0.4-0.3-0.6c0,0,0,0-0.1,0c-0.1-0.1-0.2-0.1-0.2-0.3c0-0.1,0-0.1,0-0.2s0.1-0.2,0.2-0.2c0-0.1,0-0.3,0.1-0.4
			s0.3-0.2,0.6-0.2c0.2,0,0.3-0.1,0.5-0.1c0.1,0,0.1-0.1,0.2-0.2c0,0,0.1-0.1,0.2-0.1c0,0,0,0,0.1,0s0.2,0.1,0.3,0.1h0.1
			c0.2-0.1,0.2-0.3,0.3-0.4c0.1-0.1,0.3-0.1,0.4-0.3v-0.1c0-0.1,0-0.3,0-0.4c0.4,0,0.5-0.2,0.5-0.4c0-0.2,0-0.4,0-0.6
			c0-0.1,0-0.2,0-0.3c0-0.3-0.1-0.6-0.3-0.8c-0.2-0.2-0.4,0-0.6-0.2s-0.1-0.2-0.1-0.4c0-0.1-0.1-0.1-0.1-0.1h-0.8l0,0
			c-0.3,0-0.5-0.1-0.7-0.3c-0.1-0.1-0.2-0.2-0.3-0.4h-0.1c0,0-0.1,0-0.2,0c-0.2,0-0.4-0.1-0.6-0.2c-0.4-0.2-0.7-0.5-0.9-0.9v-0.1
			c-0.1-0.2-0.2-0.5-0.2-0.7c0-0.1,0-0.1,0-0.1v-0.1c-0.1-0.2-0.1-0.4-0.1-0.6c0-0.3,0-0.5,0.2-0.7c0,0,0-0.1-0.1-0.1
			c0-0.1-0.1-0.1-0.1-0.2c-5.5,0.2-14.9,0.3-18.2,0.3l0,0C-375.9-356.5-375.8-356.2-375.8-355.9"/>
		<path id="Path_11549" class="st0" d="M-378.2-369.9c-0.1-0.3-0.1-0.5-0.1-0.8c0-0.1,0-0.2,0-0.2s-0.1-0.1-0.1-0.2
			c-0.1-0.2-0.2-0.3-0.2-0.5c-0.1-0.2-0.1-0.4-0.1-0.6v-0.1c-0.1-0.1-0.1-0.1-0.2-0.2c-0.2-0.3-0.3-0.6-0.2-0.9
			c0-0.2,0.1-0.3,0.2-0.4v-0.1c-0.2-0.2-0.3-0.5-0.3-0.8s0.1-0.6,0.2-0.8c0,0,0-0.1,0-0.2c-0.1-0.3-0.1-0.5,0-0.8
			c0-0.1,0.1-0.3,0.1-0.4c0,0,0,0,0-0.1s-0.1-0.1-0.1-0.2c-0.1-0.1-0.1-0.2-0.2-0.2c-0.1-0.2-0.2-0.4-0.3-0.7c0-0.1,0-0.2-0.1-0.2
			c-0.1-0.2-0.1-0.4-0.2-0.7c0-0.1,0-0.2-0.1-0.3c0,0,0-0.1-0.1-0.1c-0.2-0.3-0.3-0.6-0.2-1c0-0.1,0-0.3,0.1-0.4c0-0.1,0-0.2,0-0.2
			c-0.1-0.2-0.2-0.4-0.1-0.6c0-0.2,0-0.3,0.1-0.4c0-0.1-0.1-0.1-0.1-0.2c-0.2-0.4-0.3-0.8-0.2-1.2c0-0.1,0-0.1,0-0.2l0,0
			c-1,0-1.9,0-2.9-0.1c-4.2-0.1-8.4-0.3-12.6-0.6c-2-0.1-4-0.3-5.9-0.4l0,0l-1.3,13.6C-399.5-370.8-386.9-370.1-378.2-369.9
			L-378.2-369.9"/>
		<path id="Path_11550" class="st0" d="M-404.5-357c1.8,0.1,3.8,0.3,6.2,0.4h0.2c3.8,0.2,7.6,0.5,11.4,0.6c0.1,0,0.3,0,0.5,0
			s0.5,0,0.7,0c0.1,0,0.1,0,0.2,0c0.2-0.1,0.3-0.1,0.5-0.1c0.1,0,0.2,0,0.3,0c0.3,0.1,0.5,0.2,0.6,0.5c0.1,0,0.2,0.1,0.3,0.1
			c0.1,0.1,0.2,0.2,0.3,0.3c0.1,0,0.2,0.1,0.3,0.1c0.1,0,0.1,0.1,0.2,0.1c0.3-0.2,0.6-0.3,0.9-0.3c0.1,0,0.2,0,0.4,0
			c0.2-0.1,0.4-0.1,0.5-0.1c0.2,0,0.4,0,0.5,0.1c0.1,0,0.2,0,0.3,0c0.1,0,0.3,0,0.4,0.1l0,0c0.3,0,0.7,0.1,0.9,0.4
			c0.2,0,0.4,0.1,0.6,0.3c0.3,0,0.6,0.2,0.8,0.5l0.1,0.1c0.1-0.2,0.2-0.5,0.2-0.7c0-0.1,0-0.2,0-0.3c0-0.1,0.2-0.1,0.2-0.1
			c0-0.1,0.1-0.2-0.1-0.3c0.6-0.3-0.3-0.7-0.2-1c0,0,0,0,0.1,0c-0.2-0.1-0.4-0.3-0.5-0.5s-0.1-0.4,0-0.6c0.1-0.6,0.1-4.5,0-8.1
			c-0.3-0.2-0.6-0.5-0.8-0.8l-0.1-0.1c-0.4-0.3-0.6-0.8-0.5-1.3c0.2-0.3,0.5-0.6,0.8-0.7c0,0,0.1,0,0.2-0.1c0,0,0-0.1,0.1-0.1l0,0
			c0-0.1,0-0.2,0-0.3c-8.7-0.2-21.4-1-25.1-1.2l-0.4,4.4l0,0l0,0L-404.5-357z"/>
		<path id="Path_11551" class="st0" d="M-397.8-346.7c0.2,0.2,0.3,0.4,0.3,0.7l-0.3,3.9c3.7,0.2,16.2,0.8,23.3,0.8
			c-0.1-0.2-0.1-0.3-0.1-0.5c-0.4-0.4-0.5-1-0.2-1.5c0-0.1,0.1-0.3,0.1-0.4s0.1-0.1,0.1-0.1l0,0c0-0.4,0.6-0.7,0-0.8
			c0-0.2,0.2-0.4,0.2-0.5s-0.2-0.2-0.3-0.3c0.2-0.2,0.4-0.9-0.1-0.9c0.2-0.2,0.1-0.5-0.2-0.5c0,0,0.1-0.2,0.2-0.2
			c-0.1-0.1-0.3-0.2-0.3-0.3c-0.1,0-0.1,0-0.2-0.1c0.1-0.2,0-0.4-0.2-0.5c0.2-0.2,0-0.2,0-0.4c0-0.2,0.2-0.1,0.2-0.3
			c0-0.2-0.3-0.5,0-0.7c-0.1,0-0.1-0.1-0.2-0.1c0.1-0.2,0-0.4-0.1-0.5c0-0.1-0.2-0.1-0.2-0.2v-0.2c-0.1-0.2-0.2-0.2-0.3-0.4
			c-0.1-0.2,0.1-0.4-0.3-0.4c0-0.2,0.2-0.2,0.3-0.4c-0.7,0,0.1-0.6,0-0.9c-0.1,0-0.1,0.1-0.2,0.1s-0.1,0-0.2-0.1c0,0,0,0,0-0.1
			c-0.1,0-0.1,0-0.2,0h-0.1c-0.1,0-0.3,0-0.4,0c0-0.4-0.3-0.8-0.8-0.8l0,0c0.2-0.2,0-0.3-0.2-0.3h-0.1h-0.2h-0.1c0-0.1,0-0.2,0-0.2
			h-0.1c-0.2,0-0.4-0.1-0.5-0.1c0,0,0-0.1,0-0.2c0,0,0,0-0.1-0.1c0,0-0.1,0-0.2,0s-0.2,0-0.2,0c0-0.1-0.1-0.1-0.2-0.1
			c-0.2,0-0.4,0.1-0.5,0.1h-0.1c0-0.1-0.1-0.2-0.2-0.2c-0.2,0-0.4,0.2-0.5,0.3c-0.1-0.1-0.2-0.2-0.3-0.2h-0.1
			c-0.3,0-0.5,0.5-0.9,0.5c-0.1,0-0.2,0-0.2-0.1c-0.1-0.1-0.2-0.2-0.4-0.3c-0.1-0.1-0.3,0-0.4-0.1c-0.2-0.1-0.1-0.2-0.3-0.3
			c-0.1,0-0.3-0.1-0.5-0.1v-0.1c-0.1-0.1-0.1-0.2-0.2-0.3c-0.2,0.1-0.5,0.2-0.7,0.1c-0.4,0-0.9-0.1-1.2-0.1
			c-3.9-0.1-7.8-0.4-11.7-0.6c-2-0.1-4.2-0.3-6.3-0.4l-0.8,8.7c2.7,0.2,5,0.4,6.9,0.4C-398.2-347-398-346.9-397.8-346.7"/>
		<path id="Path_11552" class="st0" d="M-356.6-356.3c-0.1,0.2-0.1,0.2-0.2,0.4c0,0.1,0,0.2,0,0.3c0,0.2,0.1,0.5,0.2,0.7
			c0,0.1,0,0.2,0,0.3c0,0.1,0,0.1,0,0.2s0,0.1,0.1,0.2c0.1,0.3,0.2,0.4,0.5,0.6h0.1h0.1c0.2,0,0.4,0.1,0.6,0.2s0.3,0.2,0.4,0.3
			c0,0,0,0.1,0.1,0.1v0.1c0,0,0,0,0,0.1c0.5,0,7.1-0.3,10.7-0.6c0-0.1,0-0.1,0-0.2c0-0.4,0-0.8-0.1-1.2c0-0.2,0-0.4-0.1-0.6
			s-0.2-0.4-0.3-0.6c0-0.2,0-0.5,0-0.7s-0.1-0.4-0.1-0.6c0-0.1,0.1-0.3,0.1-0.5s0.2-0.3,0.2-0.6c0-0.2,0-0.4,0-0.6
			c0.1-0.2,0.1-0.4,0.1-0.6c0-0.4-0.4-0.8,0-1.2c0.2-0.2,0.2-0.2,0.3-0.5c0-0.2,0-0.4,0.1-0.6c0-0.2,0.2-0.4,0.1-0.6s0-0.4,0.1-0.5
			c0.1-0.2,0.2-0.5,0.4-0.7c0.1-0.1,0.1-0.2,0.1-0.3c0-0.1-0.1-0.3-0.1-0.4c0-0.2,0.1-0.2,0.3-0.4c0.1-0.1,0.1-0.3,0.2-0.4
			s0.2-0.2,0.3-0.3c0-0.1,0.1-0.3,0.1-0.4c0.1-0.3,0.3-0.4,0.4-0.7c0-0.1,0-0.3,0-0.4c0.1-0.1,0.1-0.3,0.1-0.4
			c-0.2,0-0.4,0.3-0.5,0.5c-0.1,0.1-0.2,0.2-0.2,0.3c0,0.1-0.1,0.2-0.1,0.3c-0.1,0.2-0.4,0.3-0.5,0.5s0,0.5-0.1,0.7c0,0,0,0-0.1,0
			c-0.2,0.2-0.4,0.4-0.6,0.5s-0.3,0-0.4,0.2c-0.1,0.1-0.2,0.2-0.2,0.4c0,0.2,0.1,0.3,0,0.4s-0.2,0.1-0.4,0.2
			c-0.1,0.1-0.2,0.2-0.3,0.4s-0.3,0.2-0.4,0.3c0-0.2,0-0.4,0.1-0.6s0.2-0.4,0.3-0.7c0-0.2,0.1-0.4,0.1-0.6c0.1-0.1,0.2-0.2,0.2-0.4
			l0,0l0,0c-0.1-0.1-0.2-0.1-0.3-0.2c-0.2-0.2-0.4-0.4-0.4-0.7l-0.1-0.1c-0.3-0.1-0.6-0.4-0.7-0.7c0-0.1,0-0.2,0-0.3
			c0-0.1,0-0.1,0-0.2c0,0,0,0,0-0.1c0-0.2,0.1-0.3,0.2-0.5c0-0.1-0.1-0.1-0.1-0.2c-0.1,0-0.1-0.1-0.2-0.1h-0.1
			c-0.4-0.1-0.6-0.4-0.8-0.7c-0.1,0-0.1,0-0.2,0s-0.3,0-0.4-0.1h-0.1c-0.1,0-0.3,0.1-0.4,0.1c-0.3,0-0.6-0.1-0.8-0.3l0,0
			c-0.3,0-0.7-0.2-1-0.4c0,0-0.1-0.1-0.2-0.1c-0.3-0.1-0.7-0.1-1-0.2c-0.6-0.1-1.3-0.2-1.9-0.4h-0.1c-0.5,0-1-0.3-1.3-0.8
			c0,0,0-0.1-0.1-0.1c0,0,0,0-0.1-0.1c-0.2,0-0.4-0.1-0.6-0.2c-0.3-0.2-0.5-0.6-0.4-1v-0.1c-0.2,0.1-0.4,0.3-0.6,0.3
			c-0.2-0.1,0-0.6,0-0.8c0-0.1,0.5-0.7,0.2-0.9l0,0c-0.2,0-0.3,0.1-0.5,0.2c-0.2,0-0.4,0.1-0.6,0.2c-0.4,0.2-0.7,0.5-1.2,0.7
			c-0.2,0.1-0.4,0.1-0.6,0.1c-0.2,0.1-0.4,0.2-0.7,0.2h-0.1c0,0-0.1,0.1-0.2,0.1l-0.1,0.1c-0.1,0.2-0.2,0.3-0.4,0.4l0,0l0.1,1.2
			c0,0.1,0,0.2,0,0.3c0,0.2,0,0.5,0,0.7c0,0.7-0.4,1.2-1,1.4c-0.1,0-0.1,0-0.2,0.1s-0.1,0.1-0.2,0.2l0,0c0,0,0,0-0.1,0.1
			c-0.1,0.2-0.2,0.3-0.3,0.4l0,0c0.2,0.1,0.3,0.3,0.4,0.5c0,0.1,0.1,0.2,0.1,0.3c0,0,0,0.1,0.1,0.1c0.2,0.5,0.1,1.1-0.2,1.5
			c0,0,0,0.1-0.1,0.1v0.1c0,0.2,0,0.3,0,0.5s0,0.3-0.1,0.5c0.1,0.2,0.2,0.5,0.2,0.8h0.2h0.1c0.2,0,0.4,0.1,0.6,0.2
			c0.2,0,0.3,0,0.5,0.1c0.3,0.1,0.5,0.3,0.6,0.5h0.1c0.4,0.1,0.8,0.4,1.1,0.7c0.1,0.1,0.2,0.3,0.2,0.5l0,0c0.1,0.1,0.3,0.1,0.4,0.2
			s0.2,0.2,0.3,0.3c0.1,0,0.1,0.1,0.2,0.1c0.5,0.2,1,0.6,1.3,1c0.1,0.2,0.1,0.3,0.2,0.5c0,0,0,0,0,0.1s0,0,0,0.1
			c0.1,0.1,0.1,0.2,0.2,0.3c0.1,0.3,0.1,0.5,0.1,0.8c0,0.1,0,0.2,0,0.2c0,0.2,0,0.5-0.2,0.7c-0.1,0.1-0.3,0.2-0.4,0.3
			C-356.6-356.7-356.5-356.6-356.6-356.3"/>
		<path id="Path_11553" class="st0" d="M-352.3-373.8c-0.2,0-0.4,0-0.6,0.1c-0.1,0.1-0.2,0.3-0.3,0.4c-0.3,0.3-0.6,0.5-1,0.6
			c-0.3,0.1-0.6,0.2-0.9,0.3c0.2,0.1,0.4,0.1,0.6,0.1l0,0c0,0,0,0,0,0.1c0,0,0.1,0,0.1,0.1s0,0.1,0.1,0.2s0.1,0.1,0.2,0.1
			c0,0.1,0,0.1,0.1,0.2c0.1,0.3,0.6,0.3,0.9,0.3c0.9,0.3,1.9,0.3,2.8,0.5c0.4,0.1,0.6,0.4,1,0.4c0.2,0,0.3,0,0.5,0.1
			c0.1,0.1,0.2,0.2,0.3,0.2h0.1c0.1,0,0.2-0.2,0.3-0.2l0,0c0.1,0,0.1,0.1,0.2,0.1s0.1,0,0.2,0s0.2,0,0.3,0h0.1
			c0.2,0,0.3,0.2,0.5,0.2c0.1,0,0.4,0,0.5,0.2l0,0c-0.1,0.1-0.4,0.3-0.1,0.4h0.1c0.1,0,0.1,0,0.1,0s0,0,0.1,0c0,0,0,0.1,0,0.2l0,0
			c0.2,0,0.4,0,0.5,0.1c0,0.2-0.1,0.2-0.1,0.4l0.3,0.1c0,0.1,0,0.1,0,0.1v0.1c0,0.1-0.1,0.2-0.1,0.3c0,0.1-0.1,0.1-0.2,0.2v0.1l0,0
			c0,0,0,0,0.1,0c0,0,0,0,0,0.1s-0.1,0.1-0.1,0.2c0,0,0,0.1,0.1,0.1s0.1,0,0.2-0.1c0.1,0,0.2,0,0.3-0.1c0.1,0,0.2,0,0.1,0.2l0,0
			c-0.1,0.1-0.3,0.3,0,0.3l0,0c0,0.1,0,0.2,0,0.3c0,0.1,0.1,0.2,0.2,0.2c0.1,0.1,0.2,0.1,0.2,0.2c0-0.1,0-0.1,0-0.2
			c0.1-0.2,0.1-0.4,0.3-0.6c0.1-0.2,0.2-0.4,0.3-0.6c0.1-0.2,0.2-0.3,0.4-0.5c0.3-0.3,0.2-0.7,0.5-1c0.1-0.1,0.3-0.3,0.3-0.4
			c0.1-0.2-0.1-0.4,0.2-0.6c0.2,0.2,0,0.6,0,0.9l0,0c0.3,0,0.4-0.3,0.6-0.4c0,0,0.2-0.2,0.3-0.2c0.1-0.2-0.1-0.2-0.2-0.3
			c0.2-0.1,0.5-0.1,0.7-0.1s0.3,0.1,0.1,0.3c-0.2,0.3-0.6,0.6-0.4,1c0,0,0,0,0.1,0c0.2,0,0.1-0.2,0.2-0.3c0.1-0.1,0.1-0.2,0.2-0.3
			c0.2-0.2,0.5-0.3,0.7-0.5c0.2-0.3,0-0.4,0.4-0.6c0.3-0.2,0.6-0.3,0.8-0.4c0,0.1,0.1,0.1,0.2,0.1s0.2-0.1,0.3-0.1
			c0.2-0.1,0.5-0.1,0.7-0.2c0.4-0.2,0.6-0.5,1.1-0.5l0,0c0.2,0,0.4,0,0.6,0.1s0.5,0.1,0.6,0.2s0,0.2,0.1,0.2
			c0.1,0.1,0.2,0.1,0.3,0.1c0.1,0.1,0.3,0.2,0.5,0.2c0,0,0,0,0.1,0c0.2-0.1,0.1-0.3,0.1-0.4c0.1-0.1,0.2-0.2,0.1-0.4
			c0.1,0,0.1-0.1,0.2-0.1h0.1c0.1,0,0.2,0.2,0.2,0.2l0,0c0.2,0,0.3-0.2,0.5-0.2l0,0l0.2,0.1h0.1c0.1,0,0.2,0,0.3,0
			c0.1,0,0.3,0,0.4,0s0.2,0,0.2,0c0.1,0,0.1,0,0.2,0c0.2,0,0.3,0,0.5,0c0.1,0,0.2,0,0.3-0.1c0,0,0,0,0.1,0s0.1,0.1,0.2,0.1
			s0.1,0,0.2,0s0.3,0,0.4,0l0,0c0.1,0,0.1,0,0.1,0h0.1c0.1,0,0.1-0.1,0.1-0.2c-0.1-0.1-0.2-0.1-0.3-0.1c-0.1-0.1-0.2-0.1-0.3-0.2
			c-0.1,0-0.1,0-0.2,0s-0.2,0-0.2,0.1c-0.1,0,0,0.2,0,0.2c-0.1,0-0.2,0-0.2,0.1c-0.1,0-0.3,0-0.4,0s-0.1,0-0.2,0l0,0
			c-0.1,0,0-0.1-0.1-0.2c-0.3-0.2-0.4-0.1-0.4-0.5h-0.1c-0.2,0-0.4,0-0.5,0c-0.1-0.2,0.1-0.2,0.2-0.3c0.1-0.1,0.2,0,0.1-0.2
			c0-0.1-0.2-0.1-0.2-0.1c-0.1-0.2,0.2-0.2,0.1-0.4c0,0-0.2-0.1-0.2-0.2s0.1-0.1,0.1-0.2c0-0.2,0-0.2,0-0.2c-0.1,0-0.2,0-0.2,0.1
			c-0.1,0.1-0.1,0.1-0.3,0.2l0,0c-0.1,0-0.2,0-0.2,0l0,0c-0.2,0-0.2,0.2-0.4,0.3c-0.1,0.1-0.3,0.1-0.4,0.1h-0.1c0-0.1,0-0.1,0-0.2
			h-0.1c-0.1,0-0.2,0-0.2,0.1l0,0h-0.1c-0.1,0-0.3-0.1-0.4-0.1l0,0c-0.1,0-0.3,0.1-0.5,0.1c-0.1,0-0.1,0-0.2-0.1s0.1-0.2,0.1-0.3
			c0-0.1-0.1-0.1-0.2-0.2c-0.2-0.2-0.2-0.2,0-0.4c0.1-0.3,0.1-0.3-0.1-0.3s-0.5,0.1-0.7,0.2c-0.2,0-0.4,0.1-0.6,0.1
			c-0.2,0.1-0.4,0.1-0.6,0.2c-0.2,0-0.4,0.1-0.6,0.2s-0.4,0-0.6,0.1s-0.4,0-0.7,0.1c-0.3,0-0.3,0.2-0.5,0.4c-0.3,0.2-0.7,0.5-1,0.7
			c-0.1,0.1-0.2,0.3-0.4,0.3c0,0,0,0-0.1,0s-0.1-0.1-0.2-0.1l0,0c-0.1,0-0.2,0.1-0.3,0.1c-0.1,0-0.2,0-0.2,0c-0.2,0-0.5,0-0.7-0.1
			c-0.2,0-0.3,0-0.5-0.1c-0.2,0-0.2-0.2-0.4-0.2c0-0.1,0-0.2-0.1-0.3c-0.2,0-0.4-0.1-0.5-0.3c-0.1,0-0.2-0.2-0.3-0.4
			c-0.1-0.1-0.2-0.2-0.3-0.3c-0.2-0.1-0.3-0.1-0.5-0.2c-0.1,0-0.1-0.1-0.2-0.1s-0.2,0-0.3,0c-0.1,0-0.2-0.1-0.3-0.1
			c-0.1,0-0.1,0-0.2,0c-0.1,0.1-0.3,0.1-0.4,0.2c-0.3,0.1-0.6,0.2-0.8,0.4l-0.1-0.3c-0.2-0.2,0.1-0.3,0.1-0.4
			c0.1-0.2,0.1-0.3,0.1-0.5c0.1-0.4,0.3-0.7,0.6-0.9c0.2-0.1,0.4-0.1,0.6-0.2c0.4-0.2,0-0.1,0-0.2c0-0.3,0.8-0.2,1-0.4
			c-0.2-0.2-0.4-0.3-0.6-0.3c-0.3,0-0.5,0.1-0.7,0.2c-0.4,0.2-1,0.3-1.1,0.8c-0.2,0.5-0.6,0.4-1,0.7c-0.2,0.1-0.4,0.3-0.5,0.6
			c0,0.2-0.1,0.3-0.3,0.4c-0.2,0.1-0.5,0.1-0.7,0.2s-0.2,0.2-0.3,0.4c-0.2,0.2-0.3,0.2-0.6,0.2C-351.9-374-352.1-373.9-352.3-373.8"
			/>
		<path id="Path_11554" class="st0" d="M-374.5-383.5c-1,0-2,0-3,0c-0.6,0-1.2,0-1.9,0c0,0.3,0,0.6,0,0.9v0.1
			c0.2,0.3,0.5,0.3,0.3,0.8c-0.1,0.2-0.2,0.2-0.2,0.4c0,0.1,0.1,0.3,0.1,0.4c0,0.3,0,0.6-0.1,0.9c0,0.4,0.2,0.5,0.3,0.8
			c0.1,0.3,0.1,0.6,0.2,0.9s0.2,0.5,0.3,0.7c0.2,0.2,0.3,0.4,0.4,0.6c0.1,0.3-0.1,0.5-0.1,0.8c-0.1,0.4,0.1,0.8,0,1.1
			c0,0.2-0.2,0.2-0.2,0.5v0.1c0,0.1,0.1,0.2,0.1,0.3l0.1,0.1c0.1,0.1,0.1,0.2,0.1,0.4c0,0.1,0,0.2,0,0.2c0,0.1-0.1,0.1-0.1,0.2
			c-0.1,0-0.1,0.1-0.1,0.2s0,0.2,0,0.2l0.1,0.1c0,0.1,0.2,0.2,0.2,0.3c0.1,0.2,0,0.5,0.1,0.7c0,0.1,0.1,0.1,0.1,0.2
			c0.1,0.1,0.2,0.3,0.2,0.4s0.1,0.1,0.1,0.2c0.1,0.3,0,0.7,0,1c0.1,0.3,0.2,0.4,0.2,0.6v0.1c0,0.3-0.1,0.6,0.2,0.7
			c-0.2,0.2-0.3,0.5-0.5,0.7s-0.8,0.3-0.8,0.5c0,0.1,0.5,0.5,0.5,0.7c0.1,0.1,0.2,0.3,0.3,0.4c0.1,0.1,0.2,0.1,0.3,0.1
			c0.2,0.1,0.3,0.2,0.3,0.4c0,0,0.1,8.5,0,8.6h0.9h1.8c1.2,0,2.8,0,4.4-0.1h1.4c3.9-0.1,8.2-0.2,11.1-0.3l0,0c0-0.3,0-0.5-0.1-0.8
			v-0.1c0-0.1-0.1-0.1-0.1-0.2s-0.1-0.1-0.1-0.2s-0.1-0.3-0.1-0.4c-0.3-0.5-0.9-0.6-1.3-0.9c-0.1-0.1-0.1-0.2-0.2-0.3
			c-0.1-0.1-0.3-0.1-0.4-0.2c-0.3-0.2-0.3-0.5-0.4-0.7c-0.3-0.4-1.4-0.4-1.3-0.9c-0.2-0.1-0.7,0.1-0.8-0.2c-0.5,0-0.9,0-1.1-0.5
			c-0.2-0.3,0.1-0.8-0.3-1c0.1-0.2,0.2-0.5,0.2-0.8c0-0.1,0-0.1,0-0.2s0-0.3-0.1-0.4c0-0.1,0-0.1,0-0.2c0.1-0.3,0.7-1.1,0.1-1.3
			c0.3-0.4-0.4-0.4-0.6-0.4c0.1-0.2,0-0.4,0-0.5c0-0.2,0.1-0.2,0.2-0.4c0.1-0.2,0.5-0.6,0.5-0.8c0,0,0,0,0.1,0s0.2-0.1,0.3-0.1
			c0.1,0,0-0.2,0.1-0.2c0,0,0,0,0.1,0h0.1l0,0c0.5-0.2,0.7-0.1,0.7-0.6c0-0.3,0-0.6-0.1-0.9c0-0.5-0.1-1.1-0.1-1.6
			c-0.1,0,0.3-0.3,0.4-0.4l0.1-0.1l0,0c0-0.2,0.4-0.4,0.6-0.5c0.8-0.5,1.5-1.1,2.1-1.8c0.2-0.3,0.5-0.7,0.8-1s0.7-0.5,1-0.8
			c0.6-0.6,1.3-1,2.1-1.2c0.4-0.1,0.8-0.3,1.2-0.5c0.4-0.2,0.8-0.3,1.1-0.5c-0.1-0.1-0.2-0.1-0.3-0.1c-0.1,0-0.1,0-0.2,0
			c-0.1,0.1-0.3,0.1-0.4,0.1h-0.1c-0.1,0-0.1-0.1-0.2-0.1s-0.2,0-0.2-0.1c-0.1-0.1-0.3,0-0.3-0.3c-0.1,0-0.2-0.1-0.3-0.1l0,0
			c-0.1,0-0.2,0-0.3,0.1c-0.2,0-0.3,0.1-0.5,0.1h-0.1c-0.2,0-0.3-0.1-0.5-0.1c-0.1,0-0.1,0-0.2,0c-0.1,0.1-0.3,0.1-0.4,0.1
			s-0.1,0-0.1-0.1c-0.3,0-0.1-0.3-0.1-0.4c-0.1,0-0.1-0.1-0.1-0.1c-0.3,0-0.4,0-0.6,0.2c-0.1,0.2-0.3,0.3-0.5,0.4s-0.5,0.1-0.7,0.2
			c-0.1,0.1-0.3,0.1-0.4,0.1s-0.1,0-0.2,0c-0.2,0-0.4-0.1-0.5-0.3c-0.1-0.1-0.2-0.3-0.4-0.4c-0.3-0.2-0.9,0-0.8-0.5
			c-0.2-0.1-0.3-0.1-0.5-0.1c-0.3,0-0.6,0.1-0.7,0.2c0.2,0.2,0.1,0.4-0.1,0.4c-0.1,0-0.1,0-0.2,0c-0.2-0.1-0.1-0.2-0.2-0.3
			c0-0.1-0.1-0.1-0.2-0.2c0-0.1,0.1-0.1,0-0.2c0-0.1-0.1-0.2-0.2-0.2s-0.1,0-0.2,0h-0.1c-0.6,0,0.3-0.3,0.2-0.6c-0.1,0-0.1,0-0.2,0
			c-0.4,0-0.7-0.1-1.1-0.3c-0.3-0.1-0.6-0.1-0.9-0.1c-0.1,0-0.2,0-0.2,0c-0.3,0-0.2,0.1-0.3,0.3c-0.1,0.2-0.3,0.3-0.5,0.4
			c-0.3,0.1-0.6,0.1-0.9,0.1c-0.1,0-0.2,0-0.3,0c0-0.2,0.3-0.4,0-0.5c-0.1,0-0.2-0.1-0.3-0.1h-0.1h-0.1h-0.1c-0.2,0-0.3,0-0.5,0l0,0
			c-0.3,0-0.3-0.2-0.4-0.4c-0.2,0.1-0.4,0.1-0.7,0.1c-0.1,0-0.1,0-0.2,0c-0.3-0.1-0.5-0.3-0.6-0.5c0-0.2,0.3-0.2,0.2-0.3
			c0,0,0,0-0.1,0s-0.2,0.1-0.3,0.1l0,0c-0.3,0-0.3-0.3-0.6-0.3c0.1-0.1,0-0.2-0.1-0.2s-0.1,0-0.2,0.1c-0.2,0.1-0.2,0.3-0.4,0.4h-0.1
			c-0.2,0-0.3-0.1-0.4-0.2c-0.1-0.3,0.1-0.4-0.3-0.4C-373.5-383.5-374-383.5-374.5-383.5"/>
		<path id="Path_11555" class="st0" d="M-330.2-339.5L-330.2-339.5c0.2,0,0.3,0,0.5,0.1c0.1,0,0.3-0.1,0.4-0.1
			c0.3,0,0.6,0.1,0.9,0.4c0.1,0,0.2,0.1,0.3,0.1c0.1,0.1,0.2,0.1,0.3,0.2c0.3,0.1,0.5,0.3,0.6,0.5c0.2,0,0.3-0.1,0.5-0.1
			c0.4,0,0.7,0.1,1,0.4c0.3-0.1,0.5-0.2,0.8-0.2s0.6,0.1,0.8,0.2l0,0c0.5-0.3,1-0.5,1.5-0.5c0.1,0,0.1,0,0.2,0c0.4,0,0.8,0.3,1,0.7
			c0,0.1,0,0.2,0.1,0.2c0,0,0.1,0,0.1,0.1c0-0.1,0.1-0.2,0.2-0.2c0.1-0.1,0.1-0.2,0.2-0.2c-0.1-0.1-0.2-0.3-0.1-0.5
			c0-0.3,0.1-0.6,0.4-0.8c0-0.5,0.3-0.9,0.8-1.1c0.1,0,0.2-0.1,0.2-0.1c0.1-0.1,0.2-0.2,0.3-0.3l0,0l0,0l0,0c0-0.4,0.2-0.8,0.6-0.9
			h0.1c0.1-0.2,0.3-0.4,0.5-0.5l0,0c0.1,0,0.2-0.1,0.4-0.1c0.1,0,0.2-0.1,0.3-0.1c0.1,0,0.1,0,0.2,0c0,0,0.1,0,0.1-0.1l0,0v-0.1
			c0.1-0.2,0.2-0.3,0.3-0.5c0.1-0.1,0.2-0.2,0.3-0.3l0.1-0.1c0-0.1,0-0.2,0-0.3l0,0c0-0.1,0.1-0.2,0.1-0.2c0-0.2,0-0.4,0.1-0.6
			c0-0.1,0-0.1,0-0.2s0-0.1,0-0.2c0-0.2,0-0.4,0-0.7c0-0.2,0.1-0.3,0.1-0.5l0,0c0-0.2-0.1-0.3-0.2-0.5l0,0c-0.2-0.5-0.2-1,0.1-1.5
			c0-0.1,0.1-0.1,0.1-0.2l-0.9-5.5c-0.2,0.1-0.4,0.2-0.6,0.3c-0.8,0.4-1.5,1-2.2,1.6c-0.2,0.4-0.6,0.7-1.1,0.8c-0.1,0-0.1,0-0.2,0
			h-0.2c-0.1,0-0.2,0-0.3,0c-0.2,0-0.4,0.1-0.6,0.2c-0.4,0.1-0.8,0.5-1.3,0.5c0,0,0,0-0.1,0c-0.2,0-0.3,0-0.5,0c-0.1,0-0.1,0-0.2,0
			s-0.2,0-0.3,0l0,0c-0.2,0-0.1-0.1-0.2-0.2c-0.2-0.1-0.3-0.1-0.6-0.2c-0.2,0-0.3-0.2-0.6-0.2h-0.1c-0.1,0-0.2,0-0.3,0
			c-0.1,0-0.2,0-0.3-0.1c-0.1-0.1-0.1-0.1-0.3-0.2h-0.1c-0.1,0-0.1,0-0.2,0c0,0,0,0-0.1,0s-0.3-0.1-0.2-0.3v-0.1
			c-1.6,0.4-3.2,0.6-4.8,0.8l1.5,11.4C-330.5-339.5-330.4-339.5-330.2-339.5"/>
		<path id="Path_11556" class="st0" d="M-370.9-336c-0.1-0.1-0.3-0.1-0.4-0.2c-0.2-0.2-0.3-0.4-0.3-0.6c-0.3-0.1-0.5-0.4-0.6-0.7
			c0,0,0,0-0.1-0.1c-0.3-0.3-0.4-0.7-0.2-1l0,0l0,0c0-0.1,0.1-0.2,0.2-0.3c0-0.1,0-0.1,0.1-0.2c-0.1-0.1-0.3-0.2-0.4-0.3
			c-0.1,0-0.3-0.1-0.4-0.1c-0.3-0.1-0.5-0.3-0.6-0.6c-0.1-0.1-0.1-0.2-0.2-0.2h-0.7c-7.2,0-19.8-0.6-23.5-0.8l0,0l-1.1,13.6
			c7.1,0.4,14,0.7,20.5,0.7c2.8,0,5.5,0,8.1-0.1v-8.7C-370.6-335.8-370.8-335.9-370.9-336"/>
		<path id="Path_11557" class="st0" d="M-349.6-325c0.2-0.3,0.6-0.5,1-0.5c0,0,0,0,0.1,0c0,0,0,0,0-0.1c0.2-0.3,0.4-0.6,0.6-1
			c-0.2-0.3-0.3-0.7-0.2-1c-0.1-0.1-0.2-0.1-0.3-0.2c-0.3-0.3,0-0.5,0-0.9c0,0-0.1-0.2-0.1-0.3c0-0.1,0.1-0.1,0.1-0.2
			c0-0.2,0-0.4-0.2-0.4l0,0c0.1,0,0.2-0.1,0.2-0.2c-0.1-0.2-0.2-0.4-0.4-0.4l0,0c0.1-0.3-0.2-0.2-0.3-0.3c-0.1-0.1-0.2,0-0.3-0.1
			c-0.1-0.1,0-0.2-0.1-0.2c-0.1-0.1-0.2-0.2-0.3-0.2c-0.1,0-0.2,0-0.3,0c-0.1,0-0.1,0-0.2,0c-0.1-0.5-0.7-0.6-1-0.8
			c-0.2-0.1-0.3-0.3-0.5-0.5s-0.4-0.2-0.5-0.5c-0.1-0.7,0.3-1,0.5-1.7c0.1-0.2,0.1-0.1,0.1-0.3c0-0.1-0.1-0.2-0.1-0.3
			c0.1-0.2,0.4-0.3,0.3-0.5c-0.3-0.2-0.7-0.4-1.1-0.4l0,0c-0.4,0-0.6,0.5-0.8,0.5c-0.1,0-0.2-0.1-0.3-0.4c-0.2-0.5-0.2-1.4-0.8-1.8
			c-0.5-0.3-0.9-0.7-1.3-1c-0.3-0.2-0.4-0.4-0.6-0.7c-0.1-0.1-0.3-0.2-0.3-0.3c-0.1-0.1,0-0.2-0.1-0.3c-0.3-0.5-0.5-1.1-0.6-1.7
			c0-0.3-0.2-0.6,0-0.9c0-0.1,0.1-0.2,0.2-0.3c-0.2-0.1-0.3-0.2-0.3-0.4c-0.1,0-0.1,0-0.2,0s-0.2,0-0.2,0c0-0.1,0-0.1,0-0.2
			c0,0,0,0,0-0.1c-0.1,0-0.2,0-0.2,0c-0.1,0-0.1,0-0.2,0c0-0.1,0.1-0.1,0.1-0.2c-0.2,0-0.4-0.1-0.7-0.1c-0.6,0-1.4,0.1-2,0.2
			c-0.1,0-0.2,0-0.3,0c-1.1,0.1-2.2,0.1-3.4,0.1c-2.2,0.1-4.5,0.1-6.7,0.1c-0.8,0-1.6,0-2.4,0c0.2,0.2-0.2,0.4-0.2,0.6
			c0,0.1,0,0.2,0.1,0.2c0.1,0.1,0.3,0.1,0.4,0.3c0.1,0.2-0.3,0.3-0.1,0.5c0,0,0.1,0.1,0.2,0.1s0.2,0,0.3,0.1c0.2,0.2,0,0.4,0.3,0.5
			l-0.1,0.1c0,0.1,0,0.2,0.1,0.2c0.1,0.1,0.2,0.2,0.2,0.3c0.2,0,0.5,0.1,0.7,0.2c0.3,0.2,0.1,0.4,0.5,0.4h0.1c0.1,0,0.1,0,0.2,0h0.1
			c0.1,0,0.1,0.1,0.2,0.3c0,0-0.1,0.2-0.1,0.3c0,0,0.3,0.1,0.3,0.2c-0.1,0.2-0.4,0.2-0.6,0.3c-0.2,0.2-0.2,0.4,0,0.6h-0.1
			c-0.1,0-0.2,0-0.3,0l0,0c0,0,0,0.1-0.1,0.1c0.1,0.1,0.3,0.2,0.5,0.3c-0.4,0.2,0.3,0.4,0.4,0.5l0,0c0.1,0.2-0.1,0.5,0.4,0.5l0,0
			c0,0.3,0.7,0.5,0.9,0.5v9.2l0,0c0.3,0,0.5,0.1,0.7,0.3c0.2,0.2,0.3,0.4,0.3,0.7v1.5c2.4,0,4.9-0.1,7.4-0.1c2.1,0,3.8-0.1,5.4-0.2
			c1,0,1.7-0.1,2.5-0.1c0.1,0,0.3,0,0.4,0c0.4-0.1,0.7-0.1,1.1-0.1c0.5,0,0.9,0.1,1.3,0.3c0.2,0.1,0.3,0.3,0.4,0.5
			c0.1,0.1,0.2,0.2,0.3,0.4v-0.1C-349.8-324.4-349.8-324.7-349.6-325"/>
	</g>
</g>
</svg>
