<?xml version="1.0" encoding="utf-8"?>
<!-- Generator: Adobe Illustrator 27.0.1, SVG Export Plug-In . SVG Version: 6.00 Build 0)  -->
<svg version="1.1" id="Layer_1" xmlns="http://www.w3.org/2000/svg" xmlns:xlink="http://www.w3.org/1999/xlink" x="0px" y="0px"
	 viewBox="0 0 86.7 54.7" style="enable-background:new 0 0 86.7 54.7;" xml:space="preserve">
<style type="text/css">
	.st0{fill:#C9C0AB;}
</style>
<g id="Group_263" transform="translate(0 10)">
	<g>
		<g>
			<g id="Group_64" transform="translate(0 -10)">
				<path id="Path_199" d="M15.7,54.5c-4.1,0-7.4-3.3-7.4-7.4s3.3-7.4,7.4-7.4s7.4,3.3,7.4,7.4C23.1,51.1,19.8,54.4,15.7,54.5
					 M15.7,41.5c-3.1,0-5.5,2.5-5.5,5.5c0,3.1,2.5,5.5,5.5,5.5c3.1,0,5.5-2.5,5.5-5.5l0,0C21.2,43.9,18.7,41.5,15.7,41.5"/>
				<path id="Path_200" d="M15.7,48.8c-1,0-1.8-0.8-1.8-1.8s0.8-1.8,1.8-1.8s1.8,0.8,1.8,1.8C17.4,48,16.6,48.8,15.7,48.8
					 M15.7,46.9c-0.1,0-0.1,0.1-0.1,0.1l0,0c0,0.2,0.3,0.2,0.3,0C15.8,46.9,15.8,46.9,15.7,46.9L15.7,46.9"/>
				<path id="Path_201" d="M70.9,54.5c-4.1,0-7.4-3.3-7.4-7.4s3.3-7.4,7.4-7.4s7.4,3.3,7.4,7.4C78.3,51.1,75,54.4,70.9,54.5
					 M70.9,41.5c-3.1,0-5.5,2.5-5.5,5.5c0,3.1,2.5,5.5,5.5,5.5c3.1,0,5.5-2.5,5.5-5.5l0,0C76.4,43.9,74,41.5,70.9,41.5"/>
				<path id="Path_202" d="M70.9,48.8c-1,0-1.8-0.8-1.8-1.8s0.8-1.8,1.8-1.8s1.8,0.8,1.8,1.8C72.7,48,71.9,48.8,70.9,48.8
					 M70.9,46.9C70.8,46.9,70.8,47,70.9,46.9L70.9,46.9c-0.1,0.3,0.2,0.3,0.2,0.1C71,46.9,71,46.9,70.9,46.9L70.9,46.9"/>
				<path id="Path_203" d="M85.5,27.1H62.8c-0.5,0-0.9-0.4-0.9-1V11.3c0-0.5,0.4-0.9,0.9-0.9h11.4c0.3,0,0.6,0.1,0.8,0.4l11.3,14.9
					c0.3,0.4,0.2,1-0.2,1.3C85.9,27,85.7,27.1,85.5,27.1 M63.7,25.2h19.9l-9.9-13h-10L63.7,25.2z"/>
				<path id="Path_204" class="st0" d="M56.3,37.3H1.1V47h8.1c-0.1-3.6,2.7-6.6,6.3-6.7s6.6,2.7,6.7,6.3c0,0.1,0,0.3,0,0.4h34.1
					V37.3z"/>
				<path id="Path_205" d="M56.3,48H22.2c-0.5,0-0.9-0.4-0.9-1c0-3.1-2.6-5.5-5.6-5.5S10.3,44,10.2,47c0,0.5-0.4,0.9-0.9,1H1.1
					c-0.5,0-0.9-0.4-0.9-1v-9.7c0-0.5,0.4-0.9,0.9-0.9h55.2c0.5,0,0.9,0.4,1,0.9V47C57.2,47.5,56.8,48,56.3,48 M23.1,46.1h32.3v-7.8
					H2v7.8h6.3c0.5-4.1,4.3-7,8.3-6.4C20,40.1,22.6,42.7,23.1,46.1"/>
				<path id="Path_206" class="st0" d="M62.8,26.1V11.3h11.4l10.6,14l0,0L70.2,6.1c-0.6-0.8-1.6-1.3-2.6-1.3H56.3V47h8.1
					c0.1-3.6,3.1-6.4,6.7-6.3c3.4,0.1,6.1,2.9,6.3,6.3h4.9c1.8,0,3.2-1.5,3.2-3.2l0,0V27.2c0-0.4-0.1-0.7-0.2-1.1H62.8z"/>
				<path id="Path_207" d="M82.3,48h-4.9c-0.5,0-0.9-0.4-0.9-0.9c0-3.1-2.6-5.5-5.6-5.5s-5.4,2.5-5.5,5.5c0,0.5-0.4,0.9-0.9,0.9
					h-8.1c-0.5,0-0.9-0.4-0.9-0.9V4.8c0-0.5,0.4-0.9,0.9-0.9h11.4c1.3,0,2.5,0.6,3.3,1.7l14.6,19.2c0.1,0.2,0.2,0.4,0.2,0.6
					c0.2,0.1,0.3,0.3,0.4,0.5c0.2,0.5,0.2,0.9,0.2,1.4v16.5C86.5,46.1,84.6,48,82.3,48 M78.3,46.1h4c1.3,0,2.3-1,2.3-2.3l0,0V27.2
					v-0.1H62.8c-0.5,0-0.9-0.4-0.9-1V11.3c0-0.5,0.4-0.9,0.9-0.9h9.5l-2.8-3.7c-0.4-0.6-1.1-0.9-1.8-0.9H57.2v40.3h6.3
					c0.5-4.1,4.3-7,8.3-6.4C75.2,40.1,77.8,42.7,78.3,46.1 M63.7,25.2h19.9l-9.9-13h-10C63.7,12.2,63.7,25.2,63.7,25.2z"/>
				<path id="Path_208" d="M48.2,38.2H5.9c-0.5,0-0.9-0.4-0.9-0.9V1.1c0-0.5,0.4-0.9,0.9-0.9h42.2c0.5,0,0.9,0.4,0.9,0.9l0,0v36.2
					C49.1,37.8,48.7,38.2,48.2,38.2L48.2,38.2 M6.9,36.3h40.3V2H6.9V36.3z"/>
				<path id="Path_209" class="st0" d="M34,16.8l-7-4.2l-7,4.2V1.1h14V16.8z"/>
				<path id="Path_210" d="M34,17.8c-0.2,0-0.3,0-0.5-0.1L27,13.8l-6.5,3.9c-0.5,0.3-1,0.1-1.3-0.3c-0.1-0.1-0.1-0.3-0.1-0.5V1.1
					c0-0.5,0.4-0.9,0.9-0.9h14c0.5,0,0.9,0.4,0.9,0.9l0,0v15.8C35,17.4,34.5,17.8,34,17.8 M27,11.7c0.2,0,0.3,0,0.5,0.1l5.5,3.3V2
					H21v13.2l5.5-3.3C26.7,11.8,26.9,11.7,27,11.7"/>
			</g>
		</g>
	</g>
</g>
</svg>
