<?xml version="1.0" encoding="utf-8"?>
<!-- Generator: Adobe Illustrator 27.0.1, SVG Export Plug-In . SVG Version: 6.00 Build 0)  -->
<svg version="1.1" id="Layer_1" xmlns="http://www.w3.org/2000/svg" xmlns:xlink="http://www.w3.org/1999/xlink" x="0px" y="0px"
	 viewBox="0 0 69.8 64.1" style="enable-background:new 0 0 69.8 64.1;" xml:space="preserve">
<style type="text/css">
	.st0{fill:#C9C0AB;}
</style>
<path class="st0" d="M28.9,23.5c2-0.4,4.2-0.6,6.5-0.6c2.1,0,4.2,0.2,6,0.5c3.4-2.1,5.7-5.9,5.7-10.2c0-6.6-5.4-12-12-12
	c-6.6,0-12,5.4-12,12C23,17.6,25.4,21.4,28.9,23.5z"/>
<g>
	<g id="Group_118" transform="translate(405.338)">
		<path id="Path_11565" d="M-336.6,34.9l-5.5-1.5c-1.3-3.1-3.4-5.9-6.1-7.9c0.4-1.7,1.2-3.3,2.1-4.8c0.5-0.7,0.6-1.7,0.2-2.5
			c-0.3-0.6-0.9-1.1-1.6-1.3c-2.7-0.6-5.5-0.3-7.9,0.9c-0.5,1.4-1.2,2.7-2.2,3.9c0.1,0,0.1-0.1,0.2-0.2c2.4-2.6,6-3.7,9.5-2.9
			c0.1,0,0.2,0.1,0.2,0.2c0.1,0.3,0.1,0.6-0.1,0.9c-1.2,1.8-2,3.8-2.5,5.9c-0.1,0.3,0.1,0.7,0.3,0.9c2.8,2,4.9,4.7,6.1,7.9
			c0.1,0.3,0.4,0.5,0.7,0.6l5.3,1.4v7.7l-7,1.7c-0.2,0.1-0.4,0.2-0.6,0.4c-1.8,2.6-4.1,4.7-6.9,6.3l0,0c-1.6,0.9-3.2,1.7-5,2.4
			c-0.5,0.1-0.7,0.6-0.6,1.1c0,0,0,0,0,0.1c0.2,0.3,0.5,0.6,0.9,0.6c0.1,0,0.2,0,0.4-0.1c1-0.4,2-0.8,2.9-1.2l-2.8,6.9h-4.3l-2.8-5
			c-0.2-0.4-0.6-0.5-1-0.5c-3.6,0.5-7.3,0.5-10.9,0c-1.2-0.2-2.4-0.4-3.5-0.7c-0.5-0.1-1,0.1-1.2,0.6c-0.1,0.5,0.2,1,0.7,1.1
			c0,0,0,0,0,0c0.8,0.2,1.6,0.3,2.4,0.5l-2.2,4h-4.3l-3.8-9.2c-0.1-0.2-0.2-0.3-0.4-0.4c-5.9-3.5-9.3-8.5-9.3-13.7
			c0-2.4,0.7-4.7,1.9-6.8c-0.4,0.1-0.9,0.2-1.4,0.3c-0.3,0-0.7,0.1-1,0.1c-1,2-1.5,4.2-1.5,6.4c0,5.8,3.6,11.3,9.9,15.1l3.9,9.5
			c0.2,0.4,0.5,0.6,0.9,0.6h5.6c0.4,0,0.7-0.2,0.9-0.5l2.8-5c3.4,0.4,6.8,0.4,10.1,0l2.8,5c0.2,0.3,0.5,0.5,0.9,0.5h5.6
			c0.4,0,0.8-0.2,0.9-0.6l3.9-9.5c2.7-1.6,5.1-3.8,7-6.4l7.3-1.8c0.4-0.1,0.7-0.4,0.7-0.9v-9C-335.9,35.3-336.2,35-336.6,34.9"/>
		<path id="Path_11566" d="M-397.8,30.5c0.4,0,0.7,0,1.1-0.1c0.1,0,0.3-0.1,0.4-0.1c0.5-0.1,1.1-0.2,1.6-0.4c0.6-0.3,1.2-0.6,1.8-1
			c0.2-0.2,0.4-0.3,0.6-0.5c0,0,0,0,0,0c2.8-2.7,6.3-4.7,10-6c-0.4-0.5-0.8-1-1.2-1.5c-3.7,1.3-7.1,3.3-9.9,6h0l0,0
			c-0.1,0-0.1,0.1-0.1,0.1c-0.2,0.2-0.4,0.3-0.6,0.5c-0.4,0.3-0.9,0.6-1.4,0.8c-0.5,0.2-1,0.3-1.5,0.4c-0.5,0.1-1,0.1-1.5,0
			c-0.5-0.1-0.9-0.2-1.4-0.3c-0.4-0.2-0.8-0.4-1.2-0.6c-0.3-0.2-0.6-0.5-0.8-0.8c0,0-0.1-0.1-0.1-0.1c-0.3-0.3-0.5-0.6-0.6-1
			c-0.2-0.3-0.3-0.7-0.3-1.1c0-0.4,0-0.7,0-1.1c0.1-0.3,0.2-0.7,0.3-1c0.3-0.6,0.7-1.1,1.3-1.4c0.3-0.2,0.5-0.3,0.8-0.4
			c0.3-0.1,0.6-0.1,0.9-0.2c0.3,0,0.5,0,0.8,0c0.2,0,0.5,0.1,0.7,0.2c0.2,0.1,0.4,0.2,0.6,0.4c0.2,0.1,0.3,0.3,0.4,0.5
			c0.1,0.2,0.2,0.3,0.2,0.5c0,0.2,0.1,0.3,0.1,0.5c0,0.2,0,0.3-0.1,0.4c0,0.1-0.1,0.3-0.2,0.4c-0.1,0.2-0.3,0.3-0.5,0.4
			c-0.1,0-0.2,0.1-0.3,0.1c-0.1,0-0.1,0-0.2,0c0,0-0.1,0-0.1,0c-0.5-0.2-1-0.1-1.3,0.4c-0.2,0.4-0.1,0.9,0.3,1.2c0,0,0.1,0,0.1,0
			c0.2,0.1,0.5,0.2,0.7,0.2c0.5,0.1,1.1,0,1.6-0.2c0.3-0.1,0.5-0.3,0.7-0.4c0.2-0.2,0.4-0.4,0.6-0.7c0.2-0.3,0.3-0.5,0.4-0.8
			c0.1-0.3,0.1-0.6,0.1-0.9c0-0.3-0.1-0.7-0.2-1c-0.1-0.3-0.3-0.7-0.5-1c-0.2-0.3-0.5-0.6-0.8-0.8c-0.3-0.3-0.7-0.5-1-0.7
			c-0.4-0.2-0.8-0.3-1.2-0.4c-0.4-0.1-0.9-0.1-1.3-0.1c-0.9,0.1-1.9,0.4-2.7,0.9c-0.4,0.3-0.8,0.6-1.1,0.9c-0.3,0.4-0.6,0.8-0.8,1.2
			c-0.2,0.5-0.4,0.9-0.4,1.4c-0.1,0.5-0.1,1,0,1.5c0.1,0.5,0.2,1,0.4,1.5c0.2,0.5,0.5,1,0.9,1.4c0.2,0.2,0.3,0.3,0.5,0.5
			c0.3,0.2,0.5,0.5,0.8,0.7c0.5,0.4,1.1,0.6,1.6,0.9c0.6,0.2,1.2,0.4,1.9,0.4C-398.4,30.4-398.1,30.5-397.8,30.5"/>
		<path id="Path_11567" d="M-350,33.8c0.5,0,0.9-0.3,1-0.8s-0.3-0.9-0.8-1c0,0-0.1,0-0.1,0h-3.8c-0.5,0-0.9,0.3-1,0.8
			c0,0.5,0.3,0.9,0.8,1c0,0,0.1,0,0.1,0H-350z"/>
		<path id="Path_11568" d="M-380.1,21.7c0.8,0.8,1.7,1.4,2.6,2c0.5-0.1,1-0.2,1.4-0.3c0.6-0.1,1.2-0.2,1.8-0.3
			c-1.3-0.4-2.6-1.1-3.7-2c-0.6-0.5-1.1-1-1.5-1.5c-1.5-1.8-2.3-4-2.4-6.4c0-5.8,5.2-10.6,11.5-10.6c6.3,0,11.5,4.7,11.5,10.6
			c0,2.3-0.8,4.5-2.3,6.3c-0.5,0.6-1,1.1-1.5,1.5c-1.1,0.9-2.3,1.6-3.6,2c0.6,0.1,1.2,0.1,1.8,0.2c0.5,0.1,1,0.1,1.5,0.2
			c1-0.6,1.8-1.3,2.6-2.1c0.5-0.5,0.9-1,1.3-1.6c1.4-1.9,2.1-4.3,2.1-6.6c0-6.8-6-12.4-13.5-12.4c-7.4,0-13.5,5.5-13.5,12.4
			c0,2.5,0.8,4.9,2.3,6.9C-381,20.7-380.5,21.2-380.1,21.7"/>
		<path id="Path_11569" d="M-370,17.3c-2.5-0.1-2.9-1.6-2.9-1.7c-0.1-0.5-0.6-0.8-1.1-0.7c-0.5,0.1-0.8,0.5-0.8,1c0,0,0,0,0,0
			c0.4,1.2,1.3,2.2,2.5,2.6c0.5,0.2,0.9,0.3,1.4,0.4v1.7c0,0.5,0.5,0.9,1.1,0.9c0.5,0,0.8-0.4,0.9-0.9v-1.6c0.5-0.1,0.9-0.2,1.4-0.4
			c1.1-0.5,1.8-1.5,2-2.6c0.2-1.5-0.9-3.4-4.3-3.9c-1.1-0.2-2.4-0.6-2.4-1.3c0-1.2,1.3-1.5,1.7-1.6c1.2-0.3,2.5,0.3,3.1,1.4
			c0.2,0.5,0.8,0.7,1.3,0.5c0.5-0.1,0.7-0.6,0.6-1.1c0,0,0,0,0-0.1c-0.6-1.4-1.9-2.3-3.3-2.5V5.9c0-0.5-0.5-0.9-1.1-0.9
			c-0.5,0-0.8,0.4-0.9,0.9v1.7c-2,0.3-3.2,1.6-3.3,3.3c0,1.6,1.5,2.7,4,3.1c1.7,0.3,2.7,1,2.6,1.9C-367.9,16.9-368.9,17.5-370,17.3"
			/>
		<path id="Path_11570" d="M-378,25.7c-0.3,0.1-0.5,0.1-0.8,0.2c-0.4,0.1-0.7,0.4-0.7,0.9c0,0.1,0,0.2,0,0.3
			c0.1,0.4,0.5,0.7,0.9,0.6c0.1,0,0.2,0,0.3,0c1.1-0.3,2.1-0.5,3.2-0.7c3.2-0.5,6.5-0.5,9.8-0.1c1.2,0.2,2.4,0.4,3.6,0.7
			c0.5,0.2,1-0.1,1.2-0.6c0-0.1,0-0.2,0-0.3c0-0.4-0.3-0.8-0.7-0.9c-0.4-0.1-0.8-0.2-1.1-0.3c-1.2-0.3-2.4-0.5-3.6-0.6
			c-1.3-0.2-2.7-0.2-4-0.2c-0.2,0-0.3,0-0.5,0c-1.4,0-2.7,0.1-4.1,0.3C-375.7,25.2-376.9,25.4-378,25.7"/>
		<path id="Path_11571" d="M-390.8,38.7c0-0.5-0.5-0.9-1.1-0.9c-0.5,0-0.8,0.4-0.9,0.9c0,3.9,2.5,7.5,6.9,10.3
			c0.2,0.1,0.4,0.2,0.5,0.2c0.3,0,0.6-0.1,0.8-0.4c0.3-0.4,0.2-0.9-0.2-1.2c0,0-0.1,0-0.1-0.1C-388.7,45-390.8,41.9-390.8,38.7"/>
	</g>
</g>
</svg>
