<?xml version="1.0" encoding="utf-8"?>
<!-- Generator: Adobe Illustrator 27.0.1, SVG Export Plug-In . SVG Version: 6.00 Build 0)  -->
<svg version="1.1" id="Layer_1" xmlns="http://www.w3.org/2000/svg" xmlns:xlink="http://www.w3.org/1999/xlink" x="0px" y="0px"
	 viewBox="0 0 61.2 69.1" style="enable-background:new 0 0 61.2 69.1;" xml:space="preserve">
<style type="text/css">
	.st0{fill:#C9C0AB;}
</style>
<g>
	<path class="st0" d="M57.2,47L31.6,18.2L45.4,2.7c0.1-0.2,0.2-0.4,0.2-0.6c0-0.5-0.4-0.9-0.9-0.9H16.1c-0.2,0-0.4,0.1-0.6,0.2
		c-0.4,0.3-0.4,0.9-0.1,1.3l13.8,15.5L3.6,47c-3.5,4-4.2,9.7-2,14.4c1.9,4.4,6.2,7.2,11,7.3h35.6l0,0c4.8,0,9.1-2.9,11-7.3
		C61.5,56.7,60.7,51,57.2,47z M48.3,66.9H12.6c-4.1,0-7.7-2.5-9.3-6.2c-2-4.1-1.3-9,1.7-12.5l25.4-28.7l25.5,28.7
		c3,3.5,3.6,8.4,1.7,12.5C56,64.4,52.3,66.9,48.3,66.9z M30.4,16.8L18.2,3h24.5L30.4,16.8z"/>
	<path class="st0" d="M29.2,37.2c2.3-0.4,5.2,0.5,6.2,3.1c0.2,0.5,0.7,0.7,1.2,0.5c0.5-0.2,0.7-0.7,0.5-1.2c-1-2.7-3.4-4.1-5.9-4.4
		v-3.8c0-0.5-0.4-0.9-0.9-0.9c-0.5,0-0.9,0.4-0.9,0.9v3.8c-0.2,0-0.4,0-0.6,0.1c-3.1,0.5-5,2.7-5.1,5.5c0,2.6,2.3,4.5,6.3,5.1
		c4.1,0.7,5.4,2.7,5.2,4.5c-0.2,1.9-2.1,3.7-5,3.6c-5-0.2-5.8-3.7-5.9-3.8c0,0,0,0,0-0.1c-0.1-0.5-0.6-0.8-1.1-0.7
		c-0.5,0.1-0.8,0.6-0.7,1.1c0.2,1.3,2,4.6,6.8,5.2v3.8c0,0.5,0.4,0.9,0.9,0.9v0c0.5,0,0.9-0.4,0.9-0.9v-3.8c3.5-0.3,5.6-2.7,5.9-5.2
		c0.3-2.4-1.4-5.6-6.8-6.4c-1.1-0.2-4.8-0.9-4.8-3.3C25.7,38,28.4,37.3,29.2,37.2z"/>
</g>
</svg>
