<?xml version="1.0" encoding="utf-8"?>
<!-- Generator: Adobe Illustrator 27.0.1, SVG Export Plug-In . SVG Version: 6.00 Build 0)  -->
<svg version="1.1" id="Layer_1" xmlns="http://www.w3.org/2000/svg" xmlns:xlink="http://www.w3.org/1999/xlink" x="0px" y="0px"
	 viewBox="0 0 91.1 54.1" style="enable-background:new 0 0 91.1 54.1;" xml:space="preserve">
<style type="text/css">
	.st0{fill:#C9C0AB;}
</style>
<g>
	<g id="Group_109" transform="translate(2.176 387.453)">
		<path id="Path_11541" d="M82.4-333.8H4.6c-3.3,0.1-6.1-2.4-6.2-5.7c0-0.5,0.4-0.8,0.9-0.8h88.4c0.5,0,0.9,0.3,0.9,0.8
			C88.5-336.2,85.7-333.7,82.4-333.8 M0.3-338.7c0.5,2,2.3,3.3,4.3,3.3h77.8c2,0.1,3.8-1.3,4.3-3.3H0.3z"/>
		<path id="Path_11542" d="M74.8-342H12.2c-1.5,0.1-2.7-1.1-2.8-2.6v-36.5c0.1-1.5,1.3-2.6,2.8-2.6h62.7c1.5-0.1,2.7,1.1,2.8,2.6
			v36.5C77.6-343.1,76.3-342,74.8-342 M12.2-382c-0.5,0-1,0.4-1,0.9l0,0v36.5c0,0.5,0.5,1,1,0.9l0,0h62.7c0.5,0,1-0.4,1-0.9l0,0
			v-36.5c0-0.5-0.5-1-1-0.9H12.2z"/>
		<path id="Path_11543" d="M78.1-338.8H8.9c-1.5,0.1-2.7-1.1-2.8-2.6v-43c0.1-1.5,1.3-2.6,2.8-2.6h69.2c1.5-0.1,2.7,1.1,2.8,2.6v43
			C80.8-339.9,79.6-338.7,78.1-338.8 M8.9-385.3c-0.5,0-1,0.4-1,0.9l0,0v43c0,0.5,0.5,1,1,0.9l0,0h69.2c0.5,0,1-0.4,1-0.9l0,0v-43
			c0-0.5-0.5-1-1-0.9l0,0H8.9z"/>
		<path id="Path_11544" d="M26-374.5h16.5v24.5H26V-374.5z"/>
		<path id="Path_11563" class="st0" d="M44.1-374.5h16.5v24.5H44.1V-374.5z"/>
	</g>
</g>
</svg>
