<?xml version="1.0" encoding="utf-8"?>
<!-- Generator: Adobe Illustrator 27.0.1, SVG Export Plug-In . SVG Version: 6.00 Build 0)  -->
<svg version="1.1" id="Layer_1" xmlns="http://www.w3.org/2000/svg" xmlns:xlink="http://www.w3.org/1999/xlink" x="0px" y="0px"
	 viewBox="0 0 75.4 66.5" style="enable-background:new 0 0 75.4 66.5;" xml:space="preserve">
<style type="text/css">
	.st0{fill:#C9C0AB;}
</style>
<g>
	<path class="st0" d="M62.3,53.4H62v-9c0-4.6-3.7-8.3-8.3-8.3h-1.6v-6.6v-1.6h4.7l0,0c1.6,0,2.8-1.1,3.2-2.5h1.1v0
		c1.2,0,2.1-0.9,2.1-2.1v-9.9c0-1.2-0.9-2.1-2.1-2.1H60c-0.4-1.4-1.7-2.5-3.2-2.5h-4.7V8.6c0-4.4-3.6-8-8-8H21.1c-4.4,0-8,3.6-8,8
		v0.1H8.4c-1.6,0-2.8,1.1-3.2,2.5H4c-1.2,0-2.1,0.9-2.1,2.1v9.9c0,1.2,0.9,2.1,2.1,2.1h1.1c0.4,1.4,1.7,2.5,3.2,2.5h4.7v1.6V36h-1.6
		c-4.6,0-8.3,3.7-8.3,8.3v9H2.8c-1.2,0-2.1,0.9-2.1,2.1V58c0,1.2,0.9,2.1,2.1,2.1h1.6V63c0,1.9,1.5,3.4,3.4,3.4h5
		c1.9,0,3.4-1.5,3.4-3.4v-2.8h33V63c0,1.9,1.5,3.4,3.4,3.4h5c1.9,0,3.4-1.5,3.4-3.4v-2.8h1.6c1.2,0,2.1-0.9,2.1-2.1v-2.5
		C64.5,54.3,63.5,53.4,62.3,53.4z M20.3,21.2c-0.2,0-0.5,0.1-0.7,0.1c-0.1,0-0.2,0-0.2,0.1c-0.2,0.1-0.4,0.1-0.6,0.2
		c-0.1,0-0.2,0.1-0.3,0.1c-0.2,0.1-0.4,0.2-0.6,0.2c-0.1,0-0.2,0.1-0.3,0.1c-0.2,0.1-0.4,0.2-0.5,0.3c-0.1,0-0.2,0.1-0.2,0.1
		c-0.2,0.1-0.4,0.3-0.6,0.4c-0.1,0-0.1,0.1-0.2,0.1c-0.2,0.2-0.4,0.4-0.7,0.6c0,0-0.1,0.1-0.1,0.1c-0.2,0.2-0.3,0.4-0.5,0.5
		c0,0,0,0-0.1,0.1V10.5h35.5v13.9c0,0,0-0.1-0.1-0.1c-0.1-0.2-0.3-0.3-0.4-0.5c-0.1-0.1-0.1-0.1-0.2-0.2c-0.2-0.2-0.4-0.4-0.6-0.6
		c-0.1-0.1-0.1-0.1-0.2-0.2c-0.2-0.1-0.3-0.3-0.5-0.4c-0.1-0.1-0.2-0.1-0.3-0.2c-0.2-0.1-0.3-0.2-0.5-0.3c-0.1,0-0.2-0.1-0.3-0.1
		c-0.2-0.1-0.4-0.2-0.5-0.2c-0.1,0-0.2-0.1-0.3-0.1c-0.2-0.1-0.4-0.1-0.6-0.2c-0.1,0-0.2,0-0.3-0.1c-0.2-0.1-0.5-0.1-0.7-0.1
		c-0.1,0-0.1,0-0.2,0c-0.3,0-0.6-0.1-0.9-0.1H21.4c-0.3,0-0.6,0-0.9,0.1C20.4,21.2,20.4,21.2,20.3,21.2z M61.5,13.3v9.9
		c0,0.2-0.2,0.4-0.4,0.4h-3.7c-0.2,0-0.4-0.2-0.4-0.4v-9.9c0-0.2,0.2-0.4,0.4-0.4h3.7C61.3,13,61.5,13.1,61.5,13.3z M56.8,10.5
		c0.6,0,1,0.3,1.3,0.7h-0.7c-1.2,0-2.1,0.9-2.1,2.1v9.9c0,1.2,0.9,2.1,2.1,2.1h0.7c-0.3,0.4-0.8,0.7-1.3,0.7h-4.7V10.5H56.8z
		 M21.1,2.3H44c3.5,0,6.3,2.8,6.3,6.3v0.1H14.8l0-0.1C14.8,5.1,17.7,2.3,21.1,2.3z M3.7,23.3v-9.9C3.7,13.1,3.8,13,4,13h3.7
		c0.2,0,0.4,0.2,0.4,0.4v9.9c0,0.2-0.2,0.4-0.4,0.4H5.9c0,0,0,0,0,0c0,0,0,0,0,0H4C3.8,23.6,3.7,23.5,3.7,23.3z M8.4,26.1
		c-0.6,0-1-0.3-1.3-0.7h0.7v0c1.2,0,2.1-0.9,2.1-2.1v-9.9c0-1.2-0.9-2.1-2.1-2.1H7.1c0.3-0.4,0.8-0.7,1.3-0.7h4.7v15.6H8.4z
		 M4.9,44.3c0-3.6,2.9-6.6,6.6-6.6H14c0,0,0,0,0,0c0.5,0,0.9-0.4,0.9-0.9v-7.4c0-3.6,2.9-6.6,6.6-6.6h22.3c3.6,0,6.6,2.9,6.6,6.6
		v7.4c0,0,0,0,0,0c0,0.5,0.4,0.9,0.9,0.9h2.5c1.8,0,3.3,0.7,4.5,1.8l-7.9,3.9c-0.2,0.1-0.3,0.3-0.4,0.5c-0.2,0.4,0,1,0.5,1.1
		l4.5,1.8l-6,2.6c-0.3,0.1-0.5,0.5-0.5,0.8c0,0.5,0.4,0.9,0.9,0.9l0,0c0.1,0,0.2,0,0.3-0.1l8-3.4c0.2-0.1,0.4-0.3,0.5-0.5
		c0.2-0.4,0-1-0.5-1.1l-4.6-1.9l6.2-3.1c0,0,0,0,0,0c0.1,0,0.2-0.1,0.2-0.2c0.6,1,1,2.2,1,3.4v9H4.9V44.3z M14.3,63
		c0,0.9-0.7,1.6-1.6,1.6h-5c-0.9,0-1.6-0.7-1.6-1.6v-2.8h8.2V63z M59,63c0,0.9-0.7,1.6-1.6,1.6h-5c-0.9,0-1.6-0.7-1.6-1.6v-2.8H59
		V63z M62.7,58c0,0.2-0.2,0.4-0.4,0.4h-2.5h-9.9H15.2H5.3H2.8c-0.2,0-0.4-0.2-0.4-0.4v-2.5c0-0.2,0.2-0.4,0.4-0.4H4h57.1l0,0
		c0,0,0,0,0,0h1.2c0.2,0,0.4,0.2,0.4,0.4V58z"/>
	<path class="st0" d="M38.8,27.3H26.4c-1.9,0-3.4,1.5-3.4,3.4v14.9c0,1.9,1.5,3.4,3.4,3.4h12.4v0c1.9,0,3.4-1.5,3.4-3.4V30.7
		C42.1,28.9,40.6,27.3,38.8,27.3z M40.4,45.6c0,0.9-0.7,1.6-1.6,1.6H26.4c-0.9,0-1.6-0.7-1.6-1.6V30.7c0-0.9,0.7-1.6,1.6-1.6h12.4
		c0.9,0,1.6,0.7,1.6,1.6V45.6z"/>
	<path class="st0" d="M16.4,42.2h-6.2c-1.2,0-2.1,0.9-2.1,2.1v2.5c0,1.2,0.9,2.1,2.1,2.1h6.2c1.2,0,2.1-0.9,2.1-2.1v-2.5
		C18.6,43.2,17.6,42.2,16.4,42.2z M16.8,46.8c0,0.2-0.2,0.4-0.4,0.4h-6.2c-0.2,0-0.4-0.2-0.4-0.4v-2.5c0-0.2,0.2-0.4,0.4-0.4h6.2
		c0.2,0,0.4,0.2,0.4,0.4V46.8z"/>
	<path class="st0" d="M36.3,40.4h-7.4c-0.5,0-0.9,0.4-0.9,0.9c0,0.5,0.4,0.9,0.9,0.9h7.4v0c0.5,0,0.9-0.4,0.9-0.9c0,0,0,0,0,0
		C37.2,40.8,36.8,40.4,36.3,40.4z"/>
	<path class="st0" d="M36.3,34.1h-7.4c-0.5,0-0.9,0.4-0.9,0.9c0,0.5,0.4,0.9,0.9,0.9h7.4c0.5,0,0.9-0.4,0.9-0.9c0,0,0,0,0,0
		C37.2,34.5,36.8,34.1,36.3,34.1z"/>
	<path class="st0" d="M71.7,47.1l-5.4-1.2c-0.5-0.1-0.9,0.2-1.1,0.7c-0.1,0.5,0.2,0.9,0.7,1.1l5.4,1.2c0.1,0,0.1,0,0.2,0
		c0.4,0,0.8-0.3,0.9-0.7C72.5,47.7,72.2,47.2,71.7,47.1z"/>
	<path class="st0" d="M67.4,43.8l2.7-0.4c0.5-0.1,0.8-0.5,0.7-1c-0.1-0.5-0.5-0.8-1-0.8l-2.7,0.4c-0.4,0.1-0.7,0.4-0.7,0.8
		c0,0.5,0.4,0.9,0.8,0.9v0C67.3,43.8,67.4,43.8,67.4,43.8z"/>
	<path class="st0" d="M74.7,36.6c-0.1-0.5-0.6-0.7-1.1-0.6l-7.1,2.3c-0.4,0.1-0.6,0.5-0.6,0.8c0,0.5,0.4,0.9,0.9,0.9
		c0.1,0,0.2,0,0.3,0l7.1-2.3C74.6,37.6,74.8,37.1,74.7,36.6z"/>
	<path class="st0" d="M65.3,37.1c0.2,0,0.4-0.1,0.6-0.2L68,35c0.4-0.3,0.4-0.9,0.1-1.2c-0.3-0.4-0.9-0.4-1.2-0.1l-2.1,1.9
		c-0.2,0.2-0.3,0.4-0.3,0.7C64.4,36.7,64.8,37.1,65.3,37.1L65.3,37.1z"/>
	<path class="st0" d="M61.5,34.6c0,0.5,0.4,0.9,0.9,0.9l0,0c0.3,0,0.6-0.1,0.7-0.4l3.3-4.6c0.3-0.4,0.2-0.9-0.2-1.2
		c-0.4-0.3-0.9-0.2-1.2,0.2L61.7,34C61.6,34.2,61.5,34.4,61.5,34.6z"/>
	<path class="st0" d="M59.3,29.2c-0.5,0-0.9,0.4-0.9,0.9l0.1,3.5c0,0.5,0.4,0.9,0.9,0.9v0h0c0.5,0,0.9-0.4,0.9-0.9L60.2,30
		C60.2,29.5,59.8,29.2,59.3,29.2z"/>
</g>
</svg>
