<?xml version="1.0" encoding="utf-8"?>
<!-- Generator: Adobe Illustrator 27.0.1, SVG Export Plug-In . SVG Version: 6.00 Build 0)  -->
<svg version="1.1" id="Layer_1" xmlns="http://www.w3.org/2000/svg" xmlns:xlink="http://www.w3.org/1999/xlink" x="0px" y="0px"
	 viewBox="0 0 83.2 57.5" style="enable-background:new 0 0 83.2 57.5;" xml:space="preserve">
<style type="text/css">
	.st0{fill:#C4B593;}
	.st1{fill:#C9C0AB;}
</style>
<path id="Path_11717" class="st0" d="M15.1,39l15.7,0L15.1,39z"/>
<g>
	<g id="Group_226" transform="translate(773 5.698)">
		<path id="Path_11718" d="M-757.9,34.3c-0.6,0-1-0.4-1-1c0-0.6,0.4-1,1-1l15.7,0c0.6,0,1,0.4,1,1s-0.4,1-1,1L-757.9,34.3z"/>
		<path id="Path_11719" d="M-767.5,34.3l-3.2,0c-1.1,0-1.9-0.9-1.9-1.9v-9.5c0-1,0.7-1.9,1.7-2.1l7.4-1.8v-4.8c0-2,1.6-3.6,3.6-3.6
			h5.4V3.3c0-0.8,0.4-1.6,0.9-2.2l2.7-2.7c0.4-0.4,1-0.3,1.4,0.1c0.3,0.4,0.3,0.9,0,1.3l-2.7,2.7c-0.2,0.2-0.3,0.5-0.4,0.8v8.2
			c0,0.6-0.4,1-1,1l0,0h-6.3c-0.9,0-1.6,0.7-1.6,1.6v5.6c0,0.5-0.3,0.9-0.8,1l-8.1,2c-0.1,0-0.1,0.1-0.2,0.2v9.5l3.1-0.1
			c0.6,0,1,0.4,1,1C-766.5,33.9-767,34.3-767.5,34.3"/>
		<path id="Path_11720" d="M-762.7,39.1c-3.2,0-5.8-2.6-5.8-5.8s2.6-5.8,5.8-5.8s5.8,2.6,5.8,5.8C-756.9,36.5-759.5,39.1-762.7,39.1
			 M-762.7,29.5c-2.1,0-3.8,1.7-3.8,3.8c0,2.1,1.7,3.8,3.8,3.8s3.8-1.7,3.8-3.8l0,0C-758.9,31.2-760.6,29.5-762.7,29.5"/>
		<path id="Path_11721" d="M-738.2,31.6L-738.2,31.6c-0.5,0-1-0.4-1-1V3.1c0-0.2,0-0.4-0.2-0.6c-0.2-0.1-0.4-0.2-0.7-0.2
			c-3.6,0.3-7.3,1.6-9.5,3.4v3.1c0,0.6-0.4,1-1,1l0,0h-3c-0.6,0-1-0.4-1-1c0-0.5,0.4-1,1-1l2,0V5.2c0-0.3,0.1-0.5,0.3-0.7
			c2.4-2.2,6.8-3.9,11-4.2c0.8-0.1,1.6,0.2,2.1,0.7c0.6,0.5,0.9,1.3,0.8,2.1v27.5C-737.2,31.1-737.6,31.5-738.2,31.6"/>
		<path id="Path_11722" d="M-733.9,26.7c-0.6,0-1-0.4-1-1V1.5c0-0.6,0.4-1,1-1l6.6,0c0.6,0,1,0.4,1,1c0,0.6-0.4,1-1,1c0,0,0,0,0,0
			l-5.6,0v23.2C-732.9,26.3-733.3,26.7-733.9,26.7"/>
		<path id="Path_11723" d="M-752.6,20.6h-6.3c-0.6,0-1-0.4-1-1l0,0V15c0-0.5,0.4-1,1-1c0,0,0,0,0,0h6.3c0.5,0,1,0.4,1,1c0,0,0,0,0,0
			v4.6C-751.6,20.2-752,20.6-752.6,20.6L-752.6,20.6 M-757.9,18.6h4.3V16h-4.3V18.6z"/>
		<path id="Path_11724" d="M-769.5,26h-2.2c-0.6,0-1-0.4-1-1c0-0.5,0.4-1,1-1h2.2c0.6,0,1,0.4,1,1C-768.5,25.6-768.9,26-769.5,26"/>
		<path id="Path_11725" d="M-737.5,42.2c-0.3,0-0.7-0.2-0.8-0.5l-4.7-7.4c-0.3-0.5-0.4-1.1-0.3-1.7c0.2-0.5,0.6-1,1.1-1.2l13.4-6
			c1.1-0.5,2.4-0.1,3,1l5.4,8.6c0.3,0.5,0.2,1.1-0.3,1.4c-0.5,0.3-1.1,0.2-1.4-0.3c0,0,0,0,0-0.1l-5.4-8.6c-0.2-0.3-0.2-0.3-0.5-0.2
			l-13.3,5.9l4.7,7.4c0.3,0.5,0.2,1.1-0.3,1.4c0,0,0,0,0,0C-737.1,42.2-737.3,42.2-737.5,42.2"/>
		<path id="Path_11726" d="M-716.6,51.4h-15.2c-3.5,0-5.7-1.9-5.7-5.1c-0.2-2.2,1.2-4.2,3.4-4.8c0.1,0,0.1,0,0.2,0l12.7-1.3l5.1-12
			c2.2-5.4,6.1-8.3,11.1-8.3c6.7,0,11,4.2,12.2,11.8l2.4,17.2c0.1,0.5-0.3,1.1-0.8,1.1c-0.5,0.1-1.1-0.3-1.1-0.8c0,0,0,0,0-0.1
			l-2.4-17.2c-1.1-6.6-4.6-10.1-10.3-10.1c-4.1,0-7.4,2.5-9.3,7.1l-5.3,12.6c-0.1,0.3-0.5,0.6-0.8,0.6l-13.2,1.4
			c-1.3,0.4-1.9,1.3-1.9,2.9c0,2.1,1.2,3.1,3.7,3.1h15.2c1.8,0,3.2-1,4.1-2.9c1.5-3,4-8.2,5.6-11.5c0.2-0.5,0.8-0.7,1.3-0.4
			c0.5,0.2,0.7,0.8,0.5,1.3c-1.6,3.3-4.1,8.5-5.6,11.5C-711.9,50-714,51.4-716.6,51.4"/>
		<path id="Path_11727" d="M-733.2,43.3c-0.1,0-0.2,0-0.3,0c-0.5-0.1-0.8-0.7-0.7-1.2l1.4-5c0.1-0.5,0.7-0.9,1.2-0.7
			c0.5,0.1,0.9,0.7,0.7,1.2c0,0,0,0,0,0.1l-1.4,5C-732.3,43-732.7,43.3-733.2,43.3"/>
		<path id="Path_11728" d="M-713.3,20.1c-5.4,0-10-4-10.7-9.3c-0.1-0.5,0.3-1,0.8-1.1c0.5-0.1,1,0.3,1.1,0.8l0,0
			c0.6,4.4,4.4,7.6,8.8,7.6h0c4.9,0,8.9-4,8.9-8.9c0-1.4-0.3-2.8-1-4.1c-0.3-0.5-0.1-1.1,0.4-1.3s1.1-0.1,1.3,0.4
			c2.7,5.3,0.7,11.9-4.7,14.6C-709.8,19.7-711.5,20.1-713.3,20.1L-713.3,20.1z"/>
		<path id="Path_11729" class="st1" d="M-724.1,10.3c-1.8-6.3,1.3-12.1,6.8-13.8c1-0.3,2-0.5,3-0.5c4.7,0.1,8.9,3.2,10.3,7.7"/>
		<path id="Path_11730" d="M-724.1,11.3c-0.4,0-0.8-0.3-1-0.7c-1.9-6.6,1.3-13.1,7.5-15.1c1.1-0.3,2.2-0.5,3.3-0.5h0
			c5.2,0.1,9.7,3.5,11.3,8.4c0.2,0.5-0.2,1.1-0.7,1.2c-0.5,0.2-1.1-0.2-1.2-0.7l0,0c-1.3-4.1-5.1-6.9-9.4-7h0
			c-0.9,0-1.8,0.2-2.7,0.4c-5.1,1.7-7.8,7.1-6.2,12.6c0.2,0.5-0.1,1.1-0.7,1.2c0,0,0,0,0,0C-723.9,11.3-724,11.3-724.1,11.3"/>
		<path id="Path_11731" d="M-730.8,13.9c-0.6,0-1-0.4-1-1c0-0.4,0.3-0.8,0.7-0.9l27.7-9.2c0.5-0.2,1.1,0.1,1.3,0.6
			c0.2,0.5-0.1,1.1-0.6,1.3l-27.7,9.2C-730.6,13.9-730.7,13.9-730.8,13.9"/>
	</g>
</g>
</svg>
