<?xml version="1.0" encoding="utf-8"?>
<!-- Generator: Adobe Illustrator 27.0.1, SVG Export Plug-In . SVG Version: 6.00 Build 0)  -->
<svg version="1.1" id="Layer_1" xmlns="http://www.w3.org/2000/svg" xmlns:xlink="http://www.w3.org/1999/xlink" x="0px" y="0px"
	 viewBox="0 0 65 66.5" style="enable-background:new 0 0 65 66.5;" xml:space="preserve">
<style type="text/css">
	.st0{fill:#C9C0AB;}
</style>
<g>
	<g id="XMLID_00000065052888954794504650000001191266991539473324_">
		<g>
			<path class="st0" d="M57.3,44.3c0-1.2-0.9-2.1-2.1-2.1H49c-1.2,0-2.1,1-2.1,2.1v2.5c0,1.2,1,2.1,2.1,2.1h6.2c1.2,0,2.1-1,2.1-2.1
				V44.3z M43.7,22.9c3.6,0,6.6,2.9,6.6,6.6c0,0,0,7.4,0,7.5c0,0.5,0.4,0.9,0.9,0.9h2.5c1,0,2.1,0.2,3,0.7c0.4,0.2,0.8,0.5,1.2,0.8
				c0.4,0.3,0.8,0.7,1,1.1c0.1,0.2,0.7,1.1,0.8,1.3c0.2,0.5,0.4,1,0.5,1.6c0.1,0.4,0.1,0.8,0.1,1.2v9H4.9v-9c0-3.6,2.9-6.6,6.6-6.6
				H14c0.5,0,0.9-0.4,0.9-0.9v-7.4c0-3.6,2.9-6.6,6.6-6.6H43.7z M42.1,45.6V30.7c0-1.8-1.5-3.4-3.4-3.4H26.4c-1.8,0-3.3,1.5-3.3,3.4
				v14.9c0,1.9,1.5,3.4,3.3,3.4h12.4c0.9,0,1.8-0.4,2.4-1C41.8,47.4,42.1,46.5,42.1,45.6z M18.6,46.8v-2.5c0-1.2-1-2.1-2.1-2.1h-6.2
				c-1.2,0-2.1,0.9-2.1,2.1v2.5c0,1.2,0.9,2.1,2.1,2.1h6.2C17.6,48.9,18.6,48,18.6,46.8z"/>
			<path class="st0" d="M50.3,8.6v0.1H14.8V8.6c0-3.5,2.8-6.3,6.3-6.3H44C47.5,2.3,50.3,5.1,50.3,8.6z"/>
			<path d="M55.2,44H49c-0.2,0-0.4,0.2-0.4,0.4v2.5c0,0.2,0.2,0.4,0.4,0.4h6.2c0.2,0,0.4-0.2,0.4-0.4v-2.5
				C55.6,44.1,55.4,44,55.2,44z M55.2,48.9H49c-1.2,0-2.1-1-2.1-2.1v-2.5c0-1.2,1-2.1,2.1-2.1h6.2c1.2,0,2.1,1,2.1,2.1v2.5
				C57.3,48,56.4,48.9,55.2,48.9z"/>
			<path d="M36.3,42.2L36.3,42.2l-7.4,0c-0.5,0-0.9-0.4-0.9-0.9c0-0.5,0.4-0.9,0.9-0.9h7.4c0,0,0,0,0,0c0.5,0,0.9,0.4,0.9,0.9
				C37.2,41.8,36.8,42.2,36.3,42.2z"/>
			<path d="M36.3,34.1c0.5,0,0.9,0.4,0.9,0.9v0c0,0.5-0.4,0.9-0.9,0.9h-7.4c-0.5,0-0.9-0.4-0.9-0.9c0-0.5,0.4-0.9,0.9-0.9H36.3z"/>
			<path d="M38.8,27.3c1.9,0,3.4,1.5,3.4,3.4v14.9c0,0.9-0.4,1.8-1,2.4c-0.6,0.6-1.5,1-2.4,1H26.4c-1.8,0-3.3-1.5-3.3-3.4V30.7
				c0-1.8,1.5-3.4,3.3-3.4H38.8z M38.8,47.2c0.9,0,1.6-0.7,1.6-1.6V30.7c0-0.9-0.7-1.6-1.6-1.6H26.4c-0.9,0-1.6,0.7-1.6,1.6v14.9
				c0,0.9,0.7,1.6,1.6,1.6H38.8z"/>
			<path d="M16.4,44h-6.2c-0.2,0-0.4,0.2-0.4,0.4v2.5c0,0.2,0.2,0.4,0.4,0.4h6.2c0.2,0,0.4-0.2,0.4-0.4v-2.5
				C16.8,44.1,16.6,44,16.4,44z M8.1,44.3c0-1.2,0.9-2.1,2.1-2.1h6.2c1.2,0,2.1,0.9,2.1,2.1v2.5c0,1.2-1,2.1-2.1,2.1h-6.2
				c-1.2,0-2.1-1-2.1-2.1V44.3z"/>
			<path d="M61.5,13.3c0-0.2-0.2-0.4-0.4-0.4h-3.7c-0.2,0-0.4,0.2-0.4,0.4v9.9c0,0.2,0.2,0.4,0.4,0.4h3.7c0.2,0,0.4-0.2,0.4-0.4
				V13.3z M52.4,64.6h5c0.9,0,1.6-0.7,1.6-1.6v-2.8h-8.2V63C50.8,63.8,51.5,64.6,52.4,64.6z M55.3,13.3c0-1.2,1-2.1,2.1-2.1h0.7
				c-0.3-0.4-0.8-0.7-1.3-0.7h-4.7v15.6h4.7c0.6,0,1.1-0.3,1.3-0.7h-0.7c-1.2,0-2.1-0.9-2.1-2.1V13.3z M21.1,2.3
				c-3.5,0-6.3,2.8-6.3,6.3v0.1h35.5V8.6c0-3.5-2.8-6.3-6.3-6.3H21.1z M16.2,23c0,0,0.1-0.1,0.1-0.1c0.2-0.1,0.4-0.3,0.6-0.4
				c0.1-0.1,0.2-0.1,0.2-0.1c0.2-0.1,0.3-0.2,0.5-0.3c0.1,0,0.2-0.1,0.2-0.1c0.2-0.1,0.4-0.2,0.6-0.2c0.1,0,0.2-0.1,0.2-0.1
				c0.2-0.1,0.4-0.1,0.6-0.2c0.1,0,0.2-0.1,0.2-0.1c0.2-0.1,0.5-0.1,0.7-0.1c0.1,0,0.1,0,0.2,0c0.3,0,0.6-0.1,0.9-0.1h22.3
				c0.3,0,0.6,0,0.9,0.1c0.1,0,0.1,0,0.2,0c0.2,0,0.5,0.1,0.7,0.1c0.1,0,0.2,0,0.2,0.1c0.2,0,0.4,0.1,0.6,0.2c0.1,0,0.2,0.1,0.3,0.1
				c0.2,0.1,0.4,0.1,0.5,0.2c0.1,0,0.2,0.1,0.3,0.1c0.2,0.1,0.3,0.2,0.5,0.3c0.1,0,0.2,0.1,0.3,0.2c0.2,0.1,0.3,0.2,0.5,0.4
				c0.1,0.1,0.1,0.1,0.2,0.2c0.2,0.2,0.4,0.4,0.6,0.6c0,0.1,0.1,0.1,0.2,0.2c0.1,0.2,0.3,0.3,0.4,0.5c0,0,0.1,0.1,0.1,0.1V10.5H14.8
				v13.9c0,0,0,0,0.1-0.1c0.2-0.2,0.3-0.4,0.5-0.5c0-0.1,0.1-0.1,0.1-0.1C15.7,23.4,15.9,23.2,16.2,23z M11.5,37.8
				c-3.6,0-6.6,2.9-6.6,6.6v9h55.3v-9c0-0.4,0-0.8-0.1-1.2c-0.1-0.5-0.3-1.1-0.5-1.6c-0.1-0.2-0.7-1.1-0.8-1.3
				c-0.3-0.4-0.6-0.8-1-1.1c-0.4-0.3-0.8-0.6-1.2-0.8c-0.9-0.5-1.9-0.7-3-0.7h-2.5c-0.5,0-0.9-0.4-0.9-0.9c0,0,0-7.5,0-7.5
				c0-3.6-2.9-6.6-6.6-6.6H21.4c-3.6,0-6.6,2.9-6.6,6.6v7.4c0,0.5-0.4,0.9-0.9,0.9H11.5z M7.8,64.6h5c0.9,0,1.6-0.7,1.6-1.6v-2.8
				H6.2V63C6.2,63.8,6.9,64.6,7.8,64.6z M7.8,11.2c1.2,0,2.1,0.9,2.1,2.1v9.9c0,1.2-0.9,2.1-2.1,2.1v0H7.1c0.3,0.4,0.8,0.7,1.3,0.7
				h4.7V10.5H8.4c-0.5,0-1,0.3-1.3,0.7H7.8z M4,23.6h1.8c0,0,0,0,0,0h1.9c0.2,0,0.4-0.2,0.4-0.4v-9.9C8.1,13.1,8,13,7.8,13H4
				c-0.2,0-0.4,0.2-0.4,0.4v9.9C3.7,23.5,3.8,23.6,4,23.6z M2.8,58.4h2.5h9.9h34.7h9.9h2.5c0.2,0,0.4-0.2,0.4-0.4v-2.5
				c0-0.2-0.2-0.4-0.4-0.4h-1.2H4H2.8c-0.2,0-0.4,0.2-0.4,0.4V58C2.4,58.2,2.6,58.4,2.8,58.4z M7.8,66.3c-1.9,0-3.4-1.5-3.4-3.4
				v-2.8H2.8c-1.2,0-2.1-1-2.1-2.1v-2.5c0-1.2,0.9-2.1,2.1-2.1h0.4v-9c0-4.6,3.7-8.3,8.3-8.3h1.6v-6.6v-1.6H8.4
				c-1.5,0-2.8-1.1-3.2-2.5H4c-1.2,0-2.1-0.9-2.1-2.1v-9.9c0-1.2,1-2.1,2.1-2.1h1.1c0.4-1.4,1.7-2.5,3.2-2.5h4.7V8.6
				c0-4.4,3.6-8,8-8H44c4.4,0,8,3.6,8,8v0.1h4.7c1.5,0,2.8,1.1,3.2,2.5h1.1c1.2,0,2.1,0.9,2.1,2.1v9.9c0,1.2-0.9,2.1-2.1,2.1v0H60
				c-0.4,1.4-1.7,2.5-3.2,2.5h0h-4.7v1.6V36h1.6c4.6,0,8.3,3.7,8.3,8.3v9h0.4c1.2,0,2.1,1,2.1,2.1V58c0,1.2-0.9,2.1-2.1,2.1h-1.6V63
				c0,1.9-1.5,3.4-3.3,3.4h-5c-1.8,0-3.3-1.5-3.3-3.4v-2.8h-33V63c0,1.9-1.5,3.4-3.4,3.4H7.8z"/>
		</g>
		<g>
		</g>
	</g>
</g>
</svg>
