<?xml version="1.0" encoding="utf-8"?>
<!-- Generator: Adobe Illustrator 27.0.1, SVG Export Plug-In . SVG Version: 6.00 Build 0)  -->
<svg version="1.1" id="Layer_1" xmlns="http://www.w3.org/2000/svg" xmlns:xlink="http://www.w3.org/1999/xlink" x="0px" y="0px"
	 viewBox="0 0 68.6 63.6" style="enable-background:new 0 0 68.6 63.6;" xml:space="preserve">
<style type="text/css">
	.st0{fill:#C9C0AB;}
</style>
<g>
	<path id="Path_11700" class="st0" d="M31.1,53.3h6.7l0.5-15.6l2.6-0.5l1.9-1.9L43.4,25l-1.8-3.6l-3.2-0.9L27.8,21l-1.9,2.9l0.1,8
		l0.3,4l1.3,1.1l2.4,1.1L31.1,53.3z"/>
	<g>
		<g id="Group_223" transform="translate(0 0)">
			<path id="Path_11701" class="st0" d="M38.2,12.7c0,1.9-1.6,3.5-3.5,3.5s-3.5-1.6-3.5-3.5s1.6-3.5,3.5-3.5S38.2,10.7,38.2,12.7"/>
			<path id="Path_11702" d="M3.1,50.4c-0.2-0.2-0.4-0.5-0.4-0.9L2.1,29.9c0-0.1,0-0.2,0.1-0.2c0,0,0.1-0.1,0.2-0.1
				c2.3,0.4,3.5,1.7,3.8,4.3c0.3,2.4,0.8,5.4,1,7.4c0.6-0.2,1.3-0.4,2-0.4c-0.3-2.1-0.7-5-1-7.3c-0.5-3.5-2.4-5.5-5.5-6
				c-0.7-0.1-1.3,0.1-1.8,0.5c-0.5,0.5-0.8,1.1-0.8,1.8l0.6,19.7c0,0.8,0.4,1.6,1,2.2l11.3,11.3h2.9L3.1,50.4z"/>
			<path id="Path_11703" d="M17.3,48.4l-1.9-1.9l-2-2c-1-1-2.3-1.5-3.7-1.5c-0.7,0-1.4,0.2-2,0.5c-0.4,0.2-0.7,0.4-1.1,0.6
				c-0.5,0.4-0.8,1-0.9,1.6c-0.1,0.7,0.2,1.3,0.6,1.8l0.5,0.5l7.4,7.4c0.4,0.4,1,0.4,1.4,0s0.4-1,0-1.4l0,0L9,47.3L7.7,46
				c0,0-0.1-0.1-0.1-0.1c0,0,0-0.1,0.1-0.1c2.1-1.5,3.6-0.4,4.1,0.1l2,2L16,50c0.1,0.1,0.3,0.2,0.5,0.3c3.1,0.6,4.4,1.5,6.5,3.6
				c2.2,2.2,3,4.8,2.8,9.2h2c0.2-4.9-0.9-8.1-3.4-10.6C22.3,50.2,20.7,49.1,17.3,48.4"/>
			<path id="Path_11706" d="M67.8,28.1c-0.5-0.4-1.2-0.6-1.8-0.5c-3.2,0.5-5,2.5-5.5,6c-0.3,2.3-0.7,5.2-1,7.3
				c0.7,0.1,1.4,0.2,2,0.4c0.3-2.1,0.7-5.1,1-7.4c0.4-2.6,1.6-3.9,3.8-4.3c0.1,0,0.1,0,0.2,0.1c0.1,0.1,0.1,0.1,0.1,0.2l-0.6,19.7
				c0,0.3-0.1,0.6-0.4,0.9L52.9,63.1h2.9L67,51.8c0.6-0.6,0.9-1.4,1-2.2l0.6-19.7C68.6,29.2,68.3,28.6,67.8,28.1"/>
			<path id="Path_11707" d="M52.6,50l2.2-2.2l2-2c0.5-0.5,2-1.6,4.1-0.1c0,0,0.1,0.1,0.1,0.1c0,0.1,0,0.1-0.1,0.1l-1.3,1.3L53,53.9
				c-0.4,0.4-0.4,1,0,1.4c0.4,0.4,1,0.4,1.4,0l0,0l7.4-7.4l0.5-0.5c0.5-0.5,0.7-1.1,0.6-1.8c0-0.6-0.4-1.2-0.9-1.6
				c-0.3-0.2-0.7-0.5-1.1-0.6c-0.6-0.3-1.3-0.5-2-0.5c-1.4-0.1-2.7,0.5-3.7,1.5l-2,2l-1.9,1.9c-3.4,0.7-5,1.9-7.3,4.1
				c-2.6,2.6-3.6,5.7-3.4,10.6h2c-0.2-4.3,0.7-7,2.8-9.2c2.1-2.1,3.4-3,6.5-3.6C52.3,50.3,52.5,50.2,52.6,50"/>
			<path id="Path_11710" d="M23.8,9.8c2.7,0,4.8-2.2,4.8-4.8s-2.2-4.8-4.8-4.8c-2.7,0-4.8,2.2-4.8,4.8v0C18.9,7.6,21.1,9.8,23.8,9.8
				 M26.6,4.9c0,1.5-1.3,2.8-2.8,2.8c-1.5,0-2.8-1.3-2.8-2.8s1.3-2.8,2.8-2.8l0,0C25.3,2.1,26.6,3.4,26.6,4.9"/>
			<path id="Path_11711" d="M18.4,30.8l0.9,12.3c0,0.5,0.5,0.9,1,0.9h0.1c0.6,0,1-0.5,0.9-1.1c0,0,0,0,0,0l-1-13.1
				c0-0.5-0.4-0.9-0.9-0.9l-0.1,0c-1.3-0.2-2.6-0.8-2.7-1.6l-0.8-10.5c0-1.5,1.1-2.7,2.6-2.8h9.3c-0.1-0.7-0.1-1.4,0-2h-9.3
				c-2.6,0.1-4.7,2.3-4.7,5l0.8,10.6C14.8,29.3,16.6,30.4,18.4,30.8"/>
			<path id="Path_11712" d="M45.9,9.8c2.7,0,4.8-2.2,4.8-4.8c0-2.7-2.2-4.8-4.8-4.8c-2.7,0-4.8,2.2-4.8,4.8c0,0,0,0,0,0
				C41.1,7.6,43.2,9.8,45.9,9.8 M45.9,2.1c1.5,0,2.8,1.3,2.8,2.8s-1.3,2.8-2.8,2.8s-2.8-1.3-2.8-2.8c0,0,0,0,0,0
				C43.1,3.4,44.4,2.1,45.9,2.1"/>
			<path id="Path_11713" d="M41.4,11.8c0.1,0.7,0.1,1.4,0,2h8.9c1.6,0,2.9,1.3,3,2.8c0,0,0,0.1,0,0.1l-0.8,10.4
				c-0.1,0.9-1.4,1.4-2.7,1.6l-0.1,0c-0.5,0-0.9,0.4-0.9,0.9l-1,13.1c0,0.6,0.4,1.1,0.9,1.1c0,0,0.1,0,0.1,0c0.5,0,1-0.4,1-0.9
				l0.9-12.3c1.8-0.4,3.6-1.5,3.8-3.4l0.8-10.5c0-0.1,0-0.2,0-0.2l0,0c-0.1-2.7-2.3-4.8-5-4.9L41.4,11.8z"/>
			<path id="Path_11714" d="M31.1,16.2c0.6,0.6,1.3,1,2.1,1.3c0.9,0.3,1.9,0.3,2.9,0c1.5-0.4,2.6-1.6,3.1-3c0.2-0.5,0.3-1,0.3-1.6
				c0-0.3,0-0.5-0.1-0.8c-0.4-2.6-2.9-4.4-5.5-4c-2.1,0.3-3.7,2-4,4.1c0,0.2-0.1,0.5-0.1,0.7C29.8,14.1,30.3,15.3,31.1,16.2
				 M31.8,12.8c0-1.5,1.2-2.8,2.7-2.8c1.5,0,2.8,1.2,2.8,2.7c0,0,0,0.1,0,0.1c0,0.2,0,0.3,0,0.5c-0.3,1.5-1.7,2.5-3.2,2.3
				c-1.1-0.2-1.9-1-2.2-2C31.9,13.3,31.8,13.1,31.8,12.8"/>
			<path id="Path_11715" d="M43.5,35.3l0.8-10.5c0-0.1,0-0.2,0-0.2c-0.1-2.7-2.3-4.8-5-4.9h-9.7c-2.6,0.1-4.7,2.3-4.7,5l0.8,10.6
				c0.1,1.9,1.9,3,3.8,3.4l1.1,14.4c0,0.5,0.5,0.9,1,0.9c0,0,0.1,0,0.1,0c0.5,0,0.9-0.5,0.9-1c0,0,0,0,0-0.1l-1.1-15.2
				c0-0.5-0.4-0.9-0.9-0.9l-0.1,0c-1.3-0.2-2.6-0.8-2.7-1.6l-0.3-4.3L27.3,29L27,24.6c0-1.5,1.1-2.7,2.6-2.8h9.6
				c1.6,0.1,2.9,1.3,3,2.9v0.1L41.9,29l-0.1,1.9l-0.3,4.3c-0.1,0.9-1.4,1.4-2.7,1.6l-0.1,0c-0.5,0-0.9,0.4-0.9,0.9l-1.1,14.9
				c0,0.1-0.1,0.2-0.1,0.3c0,0.6,0.5,1,1,1l0,0c0.5,0,1-0.4,1.1-1l1.1-14.3C41.6,38.3,43.4,37.3,43.5,35.3"/>
		</g>
	</g>
</g>
</svg>
