<?xml version="1.0" encoding="utf-8"?>
<!-- Generator: Adobe Illustrator 27.0.1, SVG Export Plug-In . SVG Version: 6.00 Build 0)  -->
<svg version="1.1" id="Layer_1" xmlns="http://www.w3.org/2000/svg" xmlns:xlink="http://www.w3.org/1999/xlink" x="0px" y="0px"
	 viewBox="0 0 69.3 63.1" style="enable-background:new 0 0 69.3 63.1;" xml:space="preserve">
<style type="text/css">
	.st0{fill:#C9C0AB;}
</style>
<path id="Path_155" class="st0" d="M59.4,9.6l-1-5.8L54.7,3l-4.3-1.6h-2.9l-7.8,2.4l-1.2,9.1l7-3l4.8-0.5l9,2.9L59.4,9.6z"/>
<g>
	<path d="M1.9,30.5V1.9h35.9c0.5,0,0.9-0.4,0.9-0.9s-0.4-0.9-0.9-0.9H1C0.5,0.1,0.1,0.5,0.1,1v29.5c0,0.5,0.4,0.9,0.9,0.9
		S1.9,31,1.9,30.5z"/>
	<path d="M30.2,32.1c0-0.5-0.4-0.9-0.9-0.9H15.4c-0.5,0-0.9,0.4-0.9,0.9s0.4,0.9,0.9,0.9h13.9C29.8,33,30.2,32.6,30.2,32.1z"/>
	<path d="M15.4,37c-0.5,0-0.9,0.4-0.9,0.9s0.4,0.9,0.9,0.9h11.9c0.5,0,0.9-0.4,0.9-0.9S27.8,37,27.3,37H15.4z"/>
	<path d="M11.9,13.3c-0.5,0-0.9,0.4-0.9,0.9V21c0,0.5,0.4,0.9,0.9,0.9H34c0.5,0,0.9-0.4,0.9-0.9v-6.8c0-0.5-0.4-0.9-0.9-0.9H11.9z
		 M33,20.1H12.8v-4.9H33V20.1z"/>
	<path d="M7.1,36.5H6.7c-0.5,0-0.9,0.4-0.9,0.9s0.4,0.9,0.9,0.9h0.5c0.5,0,0.9-0.4,0.9-0.9S7.6,36.5,7.1,36.5z"/>
	<path d="M68.7,52.5c-0.3-4.1-0.8-11.1-1-12.7c-0.7-7.2-5.3-11.4-12.5-11.4c-0.2,0-0.4,0.1-0.6,0.2L49,33l-5.8-4.4
		c-0.2-0.1-0.4-0.2-0.5-0.2c-7.2,0-11.8,4.2-12.4,11.6c0,0.5-0.1,1.3-0.2,2.1H12.5V27.9l0,0c0-0.1,0.1-0.3,0.3-0.3h20.3
		c0.5,0,0.9-0.4,0.9-0.9s-0.4-0.9-0.9-0.9H12.8c-1.1,0-2.1,0.9-2.1,2.1v14.2H3.3v-7.8c0-1.1,0.9-1.9,1.9-1.9h2.2
		c0.1,0,0.2,0,0.4-0.1c0.3-0.1,0.6-0.5,0.6-0.8V11C16,8.8,27.2,8.6,36,10.5c0.5,0.1,1-0.2,1.1-0.7s-0.2-1-0.7-1.1
		c-8.9-2-20.2-1.8-28.1,0.4c-0.2-1.6-1-3.5-3.1-3.8c-0.5-0.1-1,0.3-1,0.8C4.1,6.6,4.5,7,5,7.1c1.5,0.2,1.6,3,1.6,3.2l0,0v20.3H5.2
		c-2.1,0-3.7,1.7-3.7,3.7v8.9l0,0v9.5c0,1.2,1,2.2,2.2,2.2h4.8l0,0c1.2,0,2.2-1,2.2-2.2v-2.8h18.6c-0.1,1.1-0.1,2-0.2,2.6
		c0,0.5,0,0.9,0.1,1.4c0.5,2.8,3.2,4.7,6.1,4.1h0.1l0.4-0.1v3.9c0,0.5,0.4,0.9,0.9,0.9h24c0.5,0,0.9-0.4,0.9-0.9V58
		c0.5,0.1,1,0.2,1.6,0.2l0,0c1.2,0,2.4-0.3,3.5-1C68.2,56.1,68.9,54.3,68.7,52.5z M8.8,52.7c0,0.2-0.2,0.4-0.4,0.4H3.7
		c-0.2,0-0.4-0.2-0.4-0.4v-2.8h5.6L8.8,52.7L8.8,52.7z M29.5,47.9H3.6v-3.8h26.2C29.7,45.3,29.6,46.7,29.5,47.9z M59.6,60.9H37.7
		v-3.5l12.6-3.6c4.3,1.7,7.9,3.1,9.3,3.6C59.6,57.4,59.6,60.9,59.6,60.9z M65.6,55.6c-1.2,0.7-2.7,0.9-4,0.4
		c-0.3-0.1-0.5-0.2-0.8-0.3c0,0-0.1,0-0.1-0.1c-0.2-0.1-0.5-0.2-0.9-0.3c-1.6-0.6-4.8-1.8-8.6-3.3c-0.2-0.1-0.3-0.1-0.5-0.2l0,0
		h-0.1c-1.4-0.5-2.8-1.1-4.2-1.7c-1.1-0.5-2.3-0.8-3.5-0.8l0,0c-0.7,0-1.4,0.1-2.1,0.3c-0.5,0.1-1,0.2-1.5,0.2s-0.9-0.2-1.2-0.6
		c-0.5-0.6-0.6-1.4-0.4-2.1c0.4-1.6,1.9-2.8,3.5-2.8c0.1,0,0.2,0,0.3,0c0.2,0,0.4,0,0.5,0l5.1,0.8h0.1L58.6,47l1,0.2l0,0
		c0,0,0,0,0.1,0h0.1l0,0c0.1,0,0.2,0,0.2,0l0,0c0.3-0.1,0.5-0.4,0.6-0.7c0-0.1,0-0.3,0-0.4c0-0.8,0-1.7-0.3-2.6
		c-0.1-0.3-0.2-0.6-0.4-0.9c-0.2-0.3-0.4-0.6-0.7-0.9c-1.8-1.7-3.9-1-7.1,0.1l-2.3,0.8l-2.4,0.8l-4.9-0.8c-0.3,0-0.6-0.1-0.9-0.1
		h-0.2c-1,0-2,0.4-2.8,0.9c-0.7,0.4-1.3,1.1-1.7,1.8c-0.3,0.5-0.6,1-0.7,1.6c-0.3,1.2,0,2.5,0.7,3.5c0,0,0,0.1,0.1,0.1
		c0.2,0.3,0.5,0.5,0.8,0.7c0.5,0.3,1.1,0.5,1.8,0.5l0,0c0.6,0,1.2-0.1,1.8-0.3c0.6-0.1,1.1-0.2,1.7-0.3c1,0,1.9,0.2,2.8,0.6
		c0.6,0.2,1.2,0.5,1.8,0.7l-10,2.9l-0.9,0.3l-1,0.5L35,56.2c-1.1,0.2-2.1-0.1-2.9-0.8c-0.8-0.7-1.2-1.7-1.1-2.8
		c0-0.7,0.1-1.6,0.2-2.7c0-0.2,0-0.4,0.1-0.7c0-0.2,0-0.4,0-0.6c0.2-2,0.4-4.2,0.6-6c0-0.1,0-0.1,0-0.2c0.1-0.9,0.2-1.8,0.2-2.3
		c0.8-8.4,6.7-9.9,10.3-10l6.1,4.7c0.3,0.2,0.8,0.2,1.1,0l6-4.6c4.3,0.1,9.5,1.9,10.3,9.8c0.2,1.6,0.7,8.5,1,12.6
		C67.1,53.8,66.6,54.9,65.6,55.6z M49.2,44.6L49.2,44.6l0.8-0.3l1.1-0.4l1.6-0.5l0,0c1.2-0.4,2.2-0.7,2.9-0.9s1.3-0.2,1.7,0
		c0.2,0.1,0.4,0.2,0.6,0.4c0.2,0.2,0.3,0.3,0.4,0.5c0.2,0.3,0.3,0.6,0.4,0.9c0.1,0.3,0.1,0.6,0.1,0.9c0,0.3,0,0.6,0,0.9l0,0
		L49.2,44.6z"/>
	<path d="M59.7,47.2L59.7,47.2L59.7,47.2z"/>
	<path d="M59.4,17.3L59.4,17.3L59.4,17.3z"/>
	<path d="M37.8,12.5c-0.2,0.5-0.3,1.1-0.5,1.8c-0.1,0.4-0.2,0.7-0.3,1.1c-0.2,0.5-0.1,1,0.2,1.5c0.4,0.4,0.8,0.6,1.3,0.5
		c0,0.1,0,0.2,0,0.4c0,5.7,4.6,10.3,10.3,10.3c0.6,0,1.3-0.1,1.9-0.2c5.1-1,8.6-5.5,8.4-10.5c0.1,0,0.1,0,0.2,0
		c0.4,0,0.8-0.2,1.1-0.5c0.3-0.4,0.4-1,0.2-1.5c-0.1-0.5-0.3-1-0.4-1.6c-0.1-0.4-0.2-0.8-0.3-1.2v-0.1v-0.1l-0.7-6.8
		c-0.1-1.5-1.3-2.7-2.8-2.9c-1.1-0.2-3.2-0.8-4.9-1.2c-0.1-0.1-0.2-0.2-0.3-0.3c-1.5-1.3-3.7-1.1-4.9,0.3c-2.3,0.6-4,1.1-5,1.2
		c-1.5,0.2-2.7,1.4-2.8,2.9L37.8,12.5z M48.9,26.2c-4.7,0-8.5-3.8-8.5-8.5c0-0.4,0-0.7,0.1-1.1c3.3-1.5,5.8-2.2,8.5-2.2
		c2.6,0,5.2,0.7,8.4,2.1c0,0.4,0.1,0.7,0.1,1.1C57.4,22.3,53.6,26.2,48.9,26.2z M40.4,5.7L40.4,5.7c0-0.9,1-1.2,1.3-1.2
		c1.3-0.3,3.7-0.9,5.5-1.4c0.3-0.1,0.5-0.3,0.6-0.6c0.7-0.6,1.7-0.6,2.3,0c0.1,0.3,0.3,0.5,0.6,0.6c1.8,0.5,4.2,1.1,5.4,1.4
		c0.3,0.1,1.3,0.3,1.3,1.1v0.1l0.6,5.5c-2.9-1.3-6-2.1-9.2-2.2c-3.2,0.1-6.2,0.9-9.1,2.2L40.4,5.7z M39.1,14.7
		c0.1-0.4,0.2-0.9,0.3-1.2c2.9-1.6,6.1-2.5,9.5-2.6c3.3,0.2,6.6,1.1,9.5,2.6c0.1,0.3,0.2,0.6,0.2,0.9c0.1,0.3,0.2,0.7,0.3,1
		c-0.1,0-0.1,0-0.2-0.1c-0.1-0.1-0.3-0.2-0.5-0.2c-3.6-1.7-6.4-2.4-9.3-2.4l0,0c-3.1,0-6.1,0.8-10,2.7C39,15.1,39,14.9,39.1,14.7z"
		/>
</g>
</svg>
