<?xml version="1.0" encoding="utf-8"?>
<!-- Generator: Adobe Illustrator 27.0.1, SVG Export Plug-In . SVG Version: 6.00 Build 0)  -->
<svg version="1.1" id="Layer_1" xmlns="http://www.w3.org/2000/svg" xmlns:xlink="http://www.w3.org/1999/xlink" x="0px" y="0px"
	 viewBox="0 0 69.5 68.4" style="enable-background:new 0 0 69.5 68.4;" xml:space="preserve">
<style type="text/css">
	.st0{clip-path:url(#SVGID_00000160161776537372683980000008524238503874059400_);}
	.st1{fill:#C9C0AB;}
</style>
<g id="Group_116" transform="translate(0 1.932)">
	<g>
		<defs>
			<rect id="SVGID_1_" x="0.5" y="-1.7" width="68.7" height="67.7"/>
		</defs>
		<clipPath id="SVGID_00000168833212502421256310000004120224967216422587_">
			<use xlink:href="#SVGID_1_"  style="overflow:visible;"/>
		</clipPath>
		<g id="Group_115" style="clip-path:url(#SVGID_00000168833212502421256310000004120224967216422587_);">
			<path id="Path_11559" class="st1" d="M0.5,15.4v17.7c0,0.6,0.5,1,1.1,1c0.6,0,1.1-0.4,1.1-1V16.3L1,15.6
				C0.8,15.5,0.7,15.5,0.5,15.4"/>
			<path id="Path_11560" class="st1" d="M67.7,9.6l-31.3-11c-1-0.4-2.2-0.4-3.2,0L2,9.6l0,0c-1.1,0.4-1.7,1.7-1.3,2.8
				c0.2,0.6,0.7,1.1,1.3,1.3l0.8,0.3l11.5,4.6v-2.2L2.8,11.9c-0.1,0-0.1-0.1-0.1-0.2c0-0.1,0-0.2,0.1-0.2L34,0.5
				c0.5-0.2,1.1-0.2,1.6,0l0,0l31.2,11c0.1,0.1,0.1,0.2,0.1,0.3c0,0-0.1,0.1-0.1,0.1l-11.4,4.6v2.2l12.3-4.9
				c1.1-0.4,1.7-1.7,1.3-2.8C68.8,10.3,68.3,9.8,67.7,9.6"/>
			<path id="Path_11561" class="st1" d="M47.7,32.3c1.3-0.4,2.6-1,3.8-1.9c1-0.7,1.7-1.8,1.8-3c0,0,0-0.1,0-0.1V16.2
				c0-0.3-0.1-0.6-0.2-1c-1.3-3.7-10-5.7-18.2-5.7s-17,2-18.2,5.7c-0.1,0.3-0.2,0.6-0.2,1v11.3c0,0,0,0.1,0,0.1
				c0.1,1.2,0.8,2.2,1.8,2.8c1.1,0.8,2.4,1.4,3.8,1.9c-0.6,0.5-1.2,1-1.8,1.5c-3.7,3.4-5.8,8.2-5.9,13.2c0,10.4,9.2,18.9,20.6,18.9
				S55.4,57.5,55.4,47c0-5-2.2-9.8-5.9-13.2C49,33.3,48.4,32.8,47.7,32.3 M16.4,47c0-4.8,2.2-9.4,6-12.4l0,0
				c0.7-0.6,1.4-1.1,2.1-1.6c0.4-0.3,0.9-0.5,1.3-0.8c0.5-0.3,1.1-0.5,1.6-0.7c4.7-1.9,10-1.9,14.7,0c0.5,0.2,1.1,0.5,1.6,0.7
				c0.5,0.2,0.9,0.5,1.3,0.8c0.7,0.5,1.5,1,2.1,1.6c3.7,3.1,5.9,7.6,6,12.4C53.2,56.4,45,64,34.8,64S16.4,56.4,16.4,47 M42.4,29.4
				L42.4,29.4c-1.7-0.6-3.4-1-5.2-1.2c-1.5-0.2-3.1-0.2-4.6,0c-1.8,0.2-3.5,0.6-5.2,1.2l0,0c-1.1,0.4-2.1,0.9-3.1,1.4
				c-1.4-0.3-2.8-0.9-4-1.6c-1-0.6-1.5-1.2-1.5-1.8v0c0-0.7,0.8-1.4,2.2-2.2l0,0c0.7-0.3,1.4-0.6,2.2-0.9c1.1-0.4,2.3-0.6,3.4-0.9
				c0.6-0.1,1.3-0.2,2-0.3c0.7-0.1,1.4-0.2,2.2-0.2c1.3-0.1,2.8-0.2,4.3-0.2c1.5,0,2.9,0.1,4.3,0.2c0.8,0.1,1.5,0.1,2.2,0.2
				c0.7,0.1,1.4,0.2,2,0.3c1.2,0.2,2.3,0.5,3.4,0.9c0.7,0.2,1.5,0.5,2.2,0.9c1.4,0.7,2.2,1.5,2.2,2.1v0c0,0,0,0,0,0
				c0,0.6-0.6,1.2-1.5,1.8c-1.3,0.7-2.6,1.3-4,1.6C44.5,30.3,43.4,29.8,42.4,29.4 M51,16c0,0,0,0.1,0,0.1v8c-0.5-0.3-1-0.6-1.6-0.9
				c-0.2-0.1-0.4-0.2-0.6-0.3c-0.8-0.3-1.5-0.6-2.3-0.8c-0.5-0.2-1.1-0.3-1.7-0.4c-0.6-0.1-1.2-0.3-1.9-0.4
				c-1.4-0.2-2.8-0.4-4.3-0.5c-1.3-0.1-2.6-0.2-3.9-0.2c-1.3,0-2.6,0.1-3.9,0.2c-1.5,0.1-2.9,0.3-4.3,0.5c-0.6,0.1-1.3,0.2-1.9,0.4
				s-1.1,0.3-1.7,0.4c-0.8,0.2-1.6,0.5-2.3,0.8l0,0c-0.2,0.1-0.4,0.2-0.6,0.3c-0.6,0.3-1.1,0.5-1.6,0.9v-8c0,0,0-0.1,0-0.1
				c0.3-1.9,6.4-4.5,16.2-4.5S50.8,14.1,51,16"/>
			<path id="Path_11562" class="st1" d="M34.2,40.1c2.1-0.3,4.6,0.4,5.5,2.5c0.2,0.5,0.9,0.8,1.4,0.6c0.5-0.2,0.8-0.7,0.7-1.2
				c0,0,0,0,0-0.1c-1-2.2-3.1-3.6-5.4-3.8v-3.1c0-0.5-0.3-0.9-0.8-1c-0.1,0-0.2-0.1-0.3-0.1c-0.1,0-0.2,0-0.4,0.1
				c-0.4,0.1-0.7,0.5-0.7,0.9v3c-0.1,0-0.2,0-0.3,0c-3,0.5-4.9,2.4-4.9,4.9c0,2.3,2.2,4,6.1,4.6c3.1,0.4,4.8,1.8,4.6,3.5
				c-0.2,1.5-1.9,3-4.4,2.8c-4.4-0.2-5.2-3-5.2-3c-0.1-0.6-0.7-0.9-1.3-0.8c-0.6,0.1-1,0.6-0.9,1.1c0,0,0,0,0,0
				c0.2,1.1,1.8,4,6.3,4.6V59c0.1,0.6,0.6,1.1,1.2,1c0.5,0,1-0.5,1-1v-3c3.1-0.3,5.2-2.4,5.5-4.6c0.2-2.2-1.3-5-6.5-5.8
				c-0.7-0.1-4.2-0.7-4.2-2.6C31.1,40.8,33.5,40.3,34.2,40.1"/>
		</g>
	</g>
</g>
</svg>
