<?xml version="1.0" encoding="utf-8"?>
<!-- Generator: Adobe Illustrator 27.0.1, SVG Export Plug-In . SVG Version: 6.00 Build 0)  -->
<svg version="1.1" id="Layer_1" xmlns="http://www.w3.org/2000/svg" xmlns:xlink="http://www.w3.org/1999/xlink" x="0px" y="0px"
	 viewBox="0 0 68.6 66.1" style="enable-background:new 0 0 68.6 66.1;" xml:space="preserve">
<style type="text/css">
	.st0{fill:#C9C0AB;}
</style>
<g>
	<path id="Path_11698" class="st0" d="M13,2.8l0,4.7l38.3,0V2.8l-0.9-1.4l-36.9,0L13,2.8z"/>
	<path id="Path_11699" class="st0" d="M21,44.1l-3.3,7.1h19.7L37,49.6l1.6-1.7l2.3-0.6l1.8,1.1l2.1,1.5l0.3-3.2l-1.2-2.6l-5.2-0.4
		L21,44.1z"/>
	<g>
		<g id="Group_198" transform="translate(382.109 0.573)">
			<path id="Path_11692" d="M-327.4,65.5c-4.2,0-7.1-2.1-10.7-7.2c-1.7-2.4-3.7-4.5-6-6.3c-1.3-1.1-2.1-1.7-1.9-2.7
				c0.5-1.4,1.7-2.4,3.2-2.8c1.7-0.3,3.5,0.2,4.8,1.4l-3-13.6c-0.4-1.9,0.8-3.7,2.7-4c1.8-0.4,3.5,0.8,4,2.5l1.8,8.1
				c0.5-0.5,1-0.8,1.7-0.9c1.3-0.3,2.6,0.2,3.4,1.3c0.7-0.8,1.6-1.2,2.7-1.2c1.5,0,2.7,0.9,3.2,2.3c0.6-0.5,1.4-0.8,2.2-0.8h0
				c1.6,0,2.9,1.1,3.3,2.6l1.9,8.8c0.8,3.6-0.9,10-9,11.9C-324.5,65.2-326,65.4-327.4,65.5 M-344.4,49.5c0.4,0.4,0.8,0.8,1.3,1.2
				c2.4,1.9,4.5,4.1,6.3,6.6c4.7,6.6,7.6,7.4,13.3,6c7-1.6,8.5-6.9,7.8-10l-1.9-8.8c-0.2-0.8-0.9-1.4-1.7-1.4l0,0
				c-0.8,0-1.5,0.6-1.7,1.4c-0.1,0.4-0.4,0.6-0.8,0.6c-0.4,0-0.7-0.3-0.8-0.6l-0.3-1.5c-0.2-1-1.2-1.6-2.2-1.4
				c-0.8,0.2-1.4,0.9-1.4,1.7c0,0.4-0.4,0.8-0.9,0.7c-0.3,0-0.6-0.3-0.7-0.6c-0.5-2.3-1.8-2.1-2.3-2c-0.9,0.2-1.5,1-1.4,1.9
				c0,0.4-0.3,0.8-0.7,0.8c-0.4,0-0.7-0.2-0.8-0.6l-2.3-10.5c-0.2-1-1.2-1.6-2.2-1.4c-1,0.2-1.6,1.2-1.4,2.2l3.6,16.4
				c0.1,0.4-0.2,0.9-0.6,0.9c-0.3,0.1-0.6-0.1-0.8-0.3c-1.9-2.6-4.2-3.1-5.2-2.8C-343.2,48.3-343.9,48.8-344.4,49.5"/>
			<path id="Path_11693" d="M-370.6,63.7c-0.4,0-0.8-0.4-0.8-0.8c0-0.2,0.1-0.3,0.2-0.5c0,0,3.1-4.1,3.6-4.8c0.4-0.6,1-2.4,2.3-6.2
				l0.2-0.5c0.9-2.6,3.7-9.4,4-10.1c0.2-0.8-0.2-1.9-1.7-2.5c-1.1-0.5-2.3,0-2.9,1l-5.3,8.7c-0.2,0.4-0.7,0.5-1.1,0.3
				c-0.4-0.2-0.5-0.7-0.3-1.1c0,0,0,0,0,0l5.3-8.7c0.9-1.7,3-2.5,4.8-1.7c2.3,0.9,3.1,2.9,2.6,4.4c0,0,0,0.1,0,0.1
				c0,0.1-3.1,7.4-4,10l-0.2,0.5c-1.4,4.1-2,5.8-2.5,6.6c-0.5,0.7-3.5,4.7-3.6,4.8C-370.1,63.6-370.4,63.7-370.6,63.7"/>
			<path id="Path_11694" d="M-380.2,61.1c-0.4,0-0.8-0.3-0.8-0.8l-0.6-13c-0.3-1.5,0.1-3.1,1.1-4.3l10.6-13c0.3-0.4,0.8-0.4,1.1-0.2
				c0.4,0.3,0.4,0.8,0.2,1.1c0,0,0,0.1-0.1,0.1l-10.6,13c-0.7,0.9-0.9,2-0.7,3.1l0,0.2l0.6,12.9C-379.4,60.7-379.8,61.1-380.2,61.1
				L-380.2,61.1"/>
			<rect id="Rectangle_136" x="-369.3" y="6.5" width="39" height="1.6"/>
			<rect id="Rectangle_137" x="-361.3" y="42.5" width="22.7" height="1.6"/>
			<path id="Path_11695" d="M-368.5,43.7h-1.6V2.8c0-1.6,1.3-2.9,2.9-2.9l34.8,0c1.6,0,2.9,1.3,2.9,2.9v37.5h-1.6V2.8
				c0-0.7-0.6-1.3-1.3-1.3l-34.8,0c-0.7,0-1.3,0.6-1.3,1.3V43.7z"/>
			<rect id="Rectangle_138" x="-363.7" y="49.8" width="19.7" height="1.6"/>
			<rect id="Rectangle_139" x="-362.4" y="16.3" width="25.3" height="1.6"/>
			<rect id="Rectangle_140" x="-362.4" y="21.7" width="25.3" height="1.6"/>
			<rect id="Rectangle_141" x="-362.4" y="27.1" width="25.3" height="1.6"/>
			<rect id="Rectangle_142" x="-362.4" y="32.4" width="22.4" height="1.6"/>
		</g>
	</g>
</g>
</svg>
