<?xml version="1.0" encoding="utf-8"?>
<!-- Generator: Adobe Illustrator 27.0.1, SVG Export Plug-In . SVG Version: 6.00 Build 0)  -->
<svg version="1.1" id="Layer_1" xmlns="http://www.w3.org/2000/svg" xmlns:xlink="http://www.w3.org/1999/xlink" x="0px" y="0px"
	 viewBox="0 0 96.6 52.8" style="enable-background:new 0 0 96.6 52.8;" xml:space="preserve">
<style type="text/css">
	.st0{fill:#C9C0AB;}
</style>
<g>
	<path id="Path_11760" class="st0" d="M87.3,18.6h-9.6c-1.6,0-3,1.3-3,3V22h15.5v-0.4C90.3,20,89,18.6,87.3,18.6"/>
	<path id="Path_11768" class="st0" d="M91.3,33.4h-1v-3.1c0-1.7-1.4-3.1-3.1-3.1h-9.3c-1.7,0-3.1,1.4-3.1,3.1v3.1h-1
		c-1.7,0-3.1,1.4-3.1,3.1v4.1h23.8v-4.1C94.4,34.8,93,33.4,91.3,33.4 M76.3,37.6c0,0.3-0.2,0.5-0.5,0.5l0,0h-2.6
		c-0.3,0-0.5-0.2-0.5-0.5v-1c0-0.3,0.2-0.5,0.5-0.5h2.6c0.3,0,0.5,0.2,0.5,0.5V37.6z M86.2,37c0,0.6-0.5,1-1,1H80c-0.6,0-1-0.5-1-1
		v-6.2c0-0.6,0.5-1,1-1h5.2c0.6,0,1,0.5,1,1V37z M92.4,37.6c0,0.3-0.2,0.5-0.5,0.5h-2.6c-0.3,0-0.5-0.2-0.5-0.5v-1
		c0-0.3,0.2-0.5,0.5-0.5h2.6c0.3,0,0.5,0.2,0.5,0.5V37.6z"/>
	<path id="Path_11778" class="st0" d="M18.3,18.6H8.7c-1.6,0-3,1.3-3,3V22h15.5v-0.4C21.3,20,19.9,18.6,18.3,18.6"/>
	<path id="Path_11785" class="st0" d="M22.3,33.4h-1v-3.1c0-1.7-1.4-3.1-3.1-3.1H8.9c-1.7,0-3.1,1.4-3.1,3.1v3.1h-1
		c-1.7,0-3.1,1.4-3.1,3.1v4.1h23.8v-4.1C25.4,34.8,24,33.4,22.3,33.4 M7.3,37.6c0,0.3-0.2,0.5-0.5,0.5H4.2c-0.3,0-0.5-0.2-0.5-0.5
		v-1c0-0.3,0.2-0.5,0.5-0.5h2.6c0.3,0,0.5,0.2,0.5,0.5L7.3,37.6z M17.2,37c0,0.6-0.5,1-1,1l0,0H11c-0.6,0-1-0.5-1-1v-6.2
		c0-0.6,0.5-1,1-1h5.2c0.6,0,1,0.5,1,1V37z M23.4,37.6c0,0.3-0.2,0.5-0.5,0.5h-2.6c-0.3,0-0.5-0.2-0.5-0.5v-1c0-0.3,0.2-0.5,0.5-0.5
		h2.6c0.3,0,0.5,0.2,0.5,0.5V37.6z"/>
	<path id="Path_11792" class="st0" d="M56.9,1H38.8c-3.1,0-5.6,2.5-5.7,5.7v0.8h29.4V6.6C62.6,3.5,60.1,1,56.9,1"/>
	<path id="Path_11800" class="st0" d="M64.6,29h-2v-5.9c0-3.2-2.6-5.9-5.9-5.9H39.1c-3.2,0-5.9,2.6-5.9,5.9V29h-2
		c-3.2,0-5.9,2.6-5.9,5.9v7.8h45.1v-7.8C70.4,31.7,67.8,29,64.6,29 M36.1,36.9c0,0.5-0.4,1-1,1h-4.9c-0.5,0-1-0.4-1-1v-2
		c0-0.5,0.4-1,1-1h4.9c0.5,0,1,0.4,1,1V36.9z M54.7,35.9c0,1.1-0.9,2-2,2H43c-1.1,0-2-0.9-2-2V24.1c0-1.1,0.9-2,2-2h9.8
		c1.1,0,2,0.9,2,2L54.7,35.9L54.7,35.9z M66.5,36.9c0,0.5-0.4,1-1,1h-4.9c-0.5,0-1-0.4-1-1v-2c0-0.5,0.4-1,1-1h4.9c0.5,0,1,0.4,1,1
		V36.9z"/>
	<g>
		<path d="M95,40.1v-3.6c0-2-1.7-3.7-3.7-3.7h-0.4v-2.5l0,0v-0.4h1.7l0,0c0.7,0,1.3-0.4,1.5-1h0.3l0,0c0.6,0,1.1-0.5,1.1-1.1v-4.1
			c0-0.6-0.5-1.1-1.1-1.1h-0.3c-0.2-0.6-0.8-1-1.5-1h-1.7c-0.1-1.9-1.6-3.4-3.6-3.4h-9.6c-1.9,0-3.5,1.5-3.6,3.4h-1.7
			c-0.7,0-1.3,0.4-1.5,1h-0.3c-0.6,0-1.1,0.5-1.1,1.1v4.1c0,0.6,0.5,1.1,1.1,1.1h0.3c0.2,0.6,0.8,1,1.5,1h1.7v0.4l0,0v2.5h-0.4
			c-1,0-1.9,0.4-2.5,1c-0.5-3.2-3.3-5.7-6.6-5.7h-1.1v-5l0,0V22H67c1.3,0,2.3-0.8,2.7-2h0.8c1,0,1.8-0.8,1.8-1.8v-7.8
			c0-1-0.8-1.8-1.8-1.8h-0.8c-0.4-1.1-1.4-2-2.7-2h-3.6c0-3.6-2.9-6.5-6.5-6.5H38.8c-3.6,0-6.5,2.9-6.5,6.5h-3.6
			c-1.3,0-2.3,0.8-2.7,2h-0.8c-1,0-1.8,0.8-1.8,1.8v7.8c0,1,0.8,1.8,1.8,1.8H26c0.4,1.1,1.4,2,2.7,2h3.6v1v0.1v5h-1.1
			c-3.3,0-6,2.4-6.6,5.5c-0.6-0.5-1.4-0.8-2.3-0.8h-0.4v-2.5l0,0v-0.4h1.7l0,0c0.7,0,1.3-0.4,1.5-1h0.3c0.6,0,1.1-0.5,1.1-1.1v-4.1
			c0-0.6-0.5-1.1-1.1-1.1h-0.3c-0.2-0.6-0.8-1-1.5-1h-1.8c-0.1-1.9-1.6-3.4-3.6-3.4H8.7c-1.9,0-3.5,1.5-3.6,3.4H3.4
			c-0.7,0-1.3,0.4-1.5,1H1.6c-0.6,0-1.1,0.5-1.1,1.1v4.1c0,0.6,0.5,1.1,1.1,1.1h0.3c0.2,0.6,0.8,1,1.5,1h1.7v0.4l0,0v2.5H4.7
			c-2,0-3.7,1.7-3.7,3.7v3.6c-0.6,0-1,0.5-1,1.1v1c0,0.6,0.5,1.1,1.1,1.1h0.4v1c0,0.9,0.7,1.6,1.6,1.6h2.1l0,0
			c0.9,0,1.6-0.7,1.6-1.6v-1h13.3v1c0,0.9,0.5,1.6,1.2,1.6h1.2c0.1,0.9,0.9,1.6,1.8,1.6h1.1v2.1c0,1.6,1.3,2.8,2.8,2.8h3.9l0,0
			c1.6,0,2.8-1.3,2.8-2.8v-2.1h25.8v2.1c0,1.6,1.3,2.8,2.8,2.8h3.9l0,0c1.6,0,2.8-1.3,2.8-2.8v-2.1h1.1l0,0c0.9,0,1.7-0.7,1.8-1.6
			c0.1,0,0.1,0,0.2,0h1.3l0,0c0.7,0,1.2-0.7,1.2-1.6v-1h13.3v1c0,0.9,0.7,1.6,1.6,1.6h2.1l0,0c0.9,0,1.6-0.7,1.6-1.6v-1H95l0,0
			c0.6,0,1.1-0.5,1.1-1.1v-1C96.1,40.6,95.6,40.1,95,40.1z M75.9,27.2c-0.1,0.1-0.2,0.1-0.3,0.2c-0.1,0.1-0.1,0.1-0.2,0.2v-5h14.3v5
			c-0.1-0.1-0.3-0.2-0.4-0.3c0,0,0,0-0.1,0c-0.2-0.1-0.4-0.2-0.6-0.3h-0.1c-0.2-0.1-0.4-0.1-0.6-0.2c0,0,0,0-0.1,0
			c-0.2,0-0.5-0.1-0.7-0.1l0,0h-9.3l0,0c-0.2,0-0.5,0-0.7,0.1c-0.1,0-0.2,0-0.2,0.1c-0.1,0-0.3,0.1-0.4,0.1s-0.2,0.1-0.3,0.1
			C76.1,27.1,76,27.1,75.9,27.2z M90.9,22.6h1.5c-0.3,0.2-0.6,0.5-0.6,1v4.1c0,0.4,0.2,0.8,0.6,0.9H91L90.9,22.6L90.9,22.6z
			 M94.4,27.6h-0.7l0,0l0,0H93v-4h1.4V27.6z M77.8,19.2h9.6c1.3,0,2.3,1,2.4,2.2H75.4C75.5,20.2,76.5,19.2,77.8,19.2z M70.7,23.7
			h0.7l0,0l0,0h0.7v4h-0.7l0,0l0,0h-0.7V23.7z M72.7,28.7c0.3-0.2,0.6-0.5,0.6-1v-4.1c0-0.4-0.2-0.8-0.6-1h1.4v6h-1.4V28.7z
			 M73.7,34h1c0.3,0,0.6-0.3,0.6-0.6v-3.1l0,0l0,0c0-0.2,0-0.3,0.1-0.5c0.2-1.1,1.2-2,2.5-2h9.3c1.4,0,2.5,1.1,2.5,2.5v3.1
			c0,0.3,0.3,0.6,0.6,0.6h1c1.4,0,2.5,1.1,2.5,2.5V40H71.3v-4C71.5,34.9,72.5,34,73.7,34z M60,17.3c-0.1-0.1-0.2-0.1-0.3-0.2
			c-0.1,0-0.2-0.1-0.3-0.1c-0.1-0.1-0.3-0.1-0.4-0.2c-0.1,0-0.2-0.1-0.2-0.1c-0.1,0-0.3-0.1-0.5-0.1c-0.1,0-0.1,0-0.2-0.1
			c-0.2,0-0.4-0.1-0.5-0.1h-0.1c-0.2,0-0.5,0-0.7,0H39.1c-0.5,0-1,0.1-1.4,0.2h-0.1c-0.2,0-0.4,0.1-0.6,0.2c0,0-0.1,0-0.1,0.1
			c-0.2,0.1-0.3,0.1-0.5,0.2c-0.1,0-0.1,0.1-0.2,0.1c-0.1,0.1-0.3,0.1-0.4,0.2c-0.1,0-0.1,0.1-0.2,0.1c-0.1,0.1-0.3,0.2-0.4,0.2
			c-0.1,0-0.1,0.1-0.2,0.1c-0.1,0.1-0.2,0.2-0.3,0.3c-0.1,0.1-0.1,0.1-0.2,0.2c-0.1,0.1-0.2,0.2-0.3,0.3l-0.1,0.1V8.3h27.7v10.4
			l-0.1-0.1c-0.1-0.1-0.2-0.2-0.3-0.3c-0.1-0.1-0.1-0.1-0.2-0.2c-0.1-0.1-0.2-0.2-0.3-0.2c-0.1-0.1-0.2-0.1-0.2-0.2
			c-0.1-0.1-0.2-0.1-0.3-0.2C60.2,17.4,60.1,17.3,60,17.3z M70.6,10.4v7.8c0,0.1-0.1,0.1-0.1,0.1h-2.9l0,0c-0.1,0-0.1-0.1-0.1-0.1
			v-7.8l0,0c0-0.1,0.1-0.1,0.1-0.1H69l0,0l0,0l0,0l0,0h1.4C70.5,10.3,70.6,10.3,70.6,10.4z M67.7,8.6h-0.2c-1,0-1.8,0.8-1.8,1.8v7.8
			c0,1,0.8,1.8,1.8,1.8h0.2c-0.2,0.2-0.4,0.3-0.7,0.3h-3.6v-12H67C67.3,8.3,67.5,8.4,67.7,8.6z M38.8,1.8h18.1
			c2.6,0,4.8,2.1,4.8,4.8H34C34.1,4,36.2,1.8,38.8,1.8z M25.3,18.4c-0.1,0-0.1-0.1-0.1-0.1v-7.8l0,0c0-0.1,0.1-0.1,0.1-0.1h1.5l0,0
			l0,0l0,0l0,0h1.5c0.1,0,0.1,0.1,0.1,0.1v7.8c0,0.1-0.1,0.1-0.1,0.1H25.3L25.3,18.4z M28.8,20.3c-0.3,0-0.5-0.1-0.7-0.3h0.2
			c1,0,1.8-0.8,1.8-1.8v-7.8c0-1-0.8-1.8-1.8-1.8h-0.2c0.2-0.1,0.4-0.2,0.7-0.2h3.6v12h-3.6V20.3z M31.2,29.9h2
			c0.5,0,0.9-0.4,0.9-0.9v-5.9l0,0c0-2.8,2.3-5,5-5h17.7c1.4,0,2.6,0.6,3.6,1.5c0.9,0.9,1.5,2.2,1.5,3.6V29c0,0.5,0.4,0.9,0.9,0.9h2
			c2.8,0,5,2.3,5,5v5.3c-0.3,0.2-0.6,0.5-0.6,1v0.7H27v-0.7c0-0.5-0.4-1-0.9-1.1v-5.2C26.2,32.1,28.4,29.9,31.2,29.9z M20.2,27.2
			c-0.1-0.1-0.3-0.2-0.4-0.2s-0.1-0.1-0.2-0.1c-0.2-0.1-0.3-0.1-0.5-0.2c-0.1,0-0.1,0-0.2-0.1c-0.2,0-0.5-0.1-0.7-0.1l0,0H8.9l0,0
			c-0.2,0-0.5,0-0.7,0.1c-0.1,0-0.1,0-0.2,0.1c-0.2,0-0.3,0.1-0.5,0.1c-0.1,0-0.2,0.1-0.2,0.1C7.2,27,7,27,6.9,27.1
			s-0.2,0.1-0.3,0.2c-0.1,0.1-0.2,0.1-0.2,0.2v-5h14.3v5c-0.1-0.1-0.2-0.1-0.3-0.2C20.3,27.3,20.3,27.3,20.2,27.2z M21.9,22.6h1.5
			c-0.3,0.2-0.6,0.5-0.6,1v4.1c0,0.4,0.2,0.8,0.6,0.9H22v-6H21.9z M25.3,27.6h-0.7l0,0l0,0h-0.7v-4h1.4
			C25.3,23.6,25.3,27.6,25.3,27.6z M8.7,19.2h9.6c1.2,0,2.3,1,2.4,2.2H6.4C6.4,20.2,7.5,19.2,8.7,19.2z M1.7,23.7h0.7l0,0l0,0h0.7v4
			H2.4l0,0l0,0H1.7V23.7z M3.7,28.7c0.3-0.2,0.6-0.5,0.6-1v-4.1c0-0.4-0.2-0.8-0.6-0.9h1.4v6H3.7z M4.7,34h1c0.3,0,0.6-0.3,0.6-0.6
			v-3.1l0,0c0-0.4,0.1-0.8,0.3-1.1c0.4-0.8,1.3-1.4,2.2-1.4h9.3c1.2,0,2.2,0.9,2.5,2c0,0.2,0.1,0.3,0.1,0.5l0,0v3.1
			c0,0.3,0.3,0.6,0.6,0.6h1c0.9,0,1.7,0.5,2.2,1.3v4.8H2.2v-3.5C2.2,35.1,3.3,34,4.7,34z M1.2,41.3h23.3V42h-0.1
			c-0.3,0-0.6,0.1-0.9,0.2h-0.3l0,0h-2.4l0,0H6.3l0,0H2.1l0,0H1.2V41.3z M5.7,44.3c0,0.2-0.2,0.4-0.4,0.4H3.2
			c-0.2,0-0.4-0.2-0.4-0.4v-1h2.9V44.3z M21.5,44.7c-0.1-0.1-0.1-0.3-0.1-0.4v-1h1.2c0,0.1-0.1,0.3-0.1,0.4v0.9v0.1H21.5z
			 M33.3,49.6c0,0.6-0.5,1.1-1.1,1.1h-3.9c-0.6,0-1.1-0.5-1.1-1.1v-2.1h4.7h1.5v2.1H33.3z M68.6,49.6c0,0.6-0.5,1.1-1.1,1.1h-3.9
			c-0.6,0-1.1-0.5-1.1-1.1v-2.1h4.7h1.5L68.6,49.6L68.6,49.6z M71.5,45.7C71.5,45.8,71.4,45.8,71.5,45.7l-47.2,0.1
			c-0.1,0-0.1-0.1-0.1-0.1v-2c0-0.1,0.1-0.1,0.1-0.1h1h45.1l0,0h1c0.1,0,0.1,0.1,0.1,0.1S71.5,45.7,71.5,45.7z M74.7,44.3
			c0,0.2,0,0.3-0.1,0.4h-1.1l0,0c-0.1-0.1-0.1-0.3-0.1-0.4v-1h1.3C74.7,43.3,74.7,44.3,74.7,44.3z M93.3,44.3c0,0.2-0.2,0.4-0.4,0.4
			h-2.1c-0.2,0-0.4-0.2-0.4-0.4v-1h2.9V44.3z M94.9,42.1H94l0,0h-4.1l0,0H75.3l0,0h-2.5l0,0h-0.5c-0.3-0.1-0.5-0.2-0.9-0.2h-0.1
			v-0.7h23.1l0,0l0,0h0.4L94.9,42.1L94.9,42.1z"/>
		<path d="M89.3,38.7h2.6l0,0c0.6,0,1.1-0.5,1.1-1.1v-1c0-0.6-0.5-1.1-1.1-1.1h-2.6c-0.3,0-0.6,0.1-0.8,0.3
			c-0.2,0.2-0.3,0.5-0.3,0.8v1C88.1,38.2,88.6,38.7,89.3,38.7z M89.3,36.6h2.4v0.9h-2.4V36.6z"/>
		<path d="M79.9,38.7h5.2l0,0c0.9,0,1.6-0.7,1.6-1.6v-6.2c0-0.9-0.7-1.6-1.6-1.6h-5.2c-0.9,0-1.6,0.7-1.6,1.6V37
			C78.3,37.9,79,38.7,79.9,38.7z M79.5,30.8c0-0.2,0.2-0.4,0.4-0.4h5.2c0.2,0,0.4,0.2,0.4,0.4V37c0,0.2-0.2,0.4-0.4,0.4h-5.2
			c-0.2,0-0.4-0.2-0.4-0.4V30.8z"/>
		<path d="M73.2,38.7h2.6l0,0c0.5,0,0.8-0.3,1-0.7c0.1-0.1,0.1-0.3,0.1-0.5v-1c0-0.6-0.5-1.1-1.1-1.1l0,0h-2.6
			c-0.6,0-1.1,0.5-1.1,1.1v1l0,0C72.1,38.2,72.6,38.7,73.2,38.7z M73.3,36.6h2.4v0.9h-2.4V36.6z"/>
		<path d="M81,35.8h3.1c0.3,0,0.6-0.3,0.6-0.6s-0.3-0.6-0.6-0.6H81c-0.3,0-0.6,0.3-0.6,0.6C80.4,35.6,80.7,35.8,81,35.8z"/>
		<path d="M81,33.2h3.1c0.3,0,0.6-0.3,0.6-0.6S84.4,32,84.1,32H81c-0.3,0-0.6,0.3-0.6,0.6C80.4,33,80.7,33.2,81,33.2z"/>
		<path d="M3.8,38.6c0.1,0.1,0.3,0.1,0.4,0.1h2.6l0,0c0.6,0,1.1-0.5,1.1-1.1v-1c0-0.6-0.5-1.1-1.1-1.1H4.2c-0.1,0-0.2,0-0.2,0
			c-0.5,0.1-0.9,0.5-0.9,1.1v1C3.1,38,3.4,38.4,3.8,38.6z M4.3,37.5v-0.9h2.4v0.9H4.3z"/>
		<path d="M20.2,38.7h2.6c0.6,0,1.1-0.5,1.1-1.1v-1c0-0.2,0-0.3-0.1-0.4c-0.2-0.4-0.6-0.7-1-0.7h-2.6c-0.6,0-1.1,0.5-1.1,1.1v1l0,0
			C19.1,38.2,19.6,38.7,20.2,38.7z M20.3,36.6h2.4v0.9h-2.4V36.6z"/>
		<path d="M10.9,38.7h5.2l0,0c0.9,0,1.6-0.7,1.6-1.6v-6.2c0-0.9-0.7-1.6-1.6-1.6h-5.2c-0.9,0-1.6,0.7-1.6,1.6V37
			C9.3,37.9,10,38.7,10.9,38.7z M10.5,30.8c0-0.2,0.2-0.4,0.4-0.4h5.2c0.2,0,0.4,0.2,0.4,0.4V37c0,0.2-0.2,0.4-0.4,0.4h-5.2
			c-0.2,0-0.4-0.2-0.4-0.4C10.5,37,10.5,30.8,10.5,30.8z"/>
		<path d="M12,35.8h3.1c0.3,0,0.6-0.3,0.6-0.6s-0.3-0.6-0.6-0.6H12c-0.3,0-0.6,0.3-0.6,0.6C11.4,35.6,11.6,35.8,12,35.8z"/>
		<path d="M12,33.2h3.1c0.3,0,0.6-0.3,0.6-0.6S15.4,32,15.1,32H12c-0.3,0-0.6,0.3-0.6,0.6C11.4,33,11.6,33.2,12,33.2z"/>
		<path d="M60.6,38.7h4.9l0,0l0,0c1,0,1.8-0.8,1.8-1.8v-2c0-1-0.8-1.8-1.8-1.8l0,0h-4.9l0,0c-1,0-1.8,0.8-1.8,1.8v2
			C58.8,37.9,59.6,38.7,60.6,38.7z M65.5,34.8C65.6,34.8,65.6,34.9,65.5,34.8l0.1,2.1c0,0.1-0.1,0.1-0.1,0.1h-4.9
			c-0.1,0-0.1-0.1-0.1-0.1v-2c0-0.1,0.1-0.1,0.1-0.1H65.5z"/>
		<path d="M43,38.7h9.8c1.6,0,2.8-1.3,2.8-2.8V24.1c0-1.6-1.3-2.8-2.8-2.8H43c-1.6,0-2.8,1.3-2.8,2.8v11.8
			C40.2,37.4,41.4,38.7,43,38.7z M41.9,24.1c0-0.6,0.5-1.1,1.1-1.1h9.8c0.6,0,1.1,0.5,1.1,1.1v11.8c0,0.6-0.5,1.1-1.1,1.1H43
			c-0.6,0-1.1-0.5-1.1-1.1V24.1z"/>
		<path d="M30.2,38.7h4.9c1,0,1.8-0.8,1.8-1.8v-2c0-1-0.8-1.8-1.8-1.8h-4.9c-1,0-1.8,0.8-1.8,1.8v2C28.4,37.9,29.2,38.7,30.2,38.7z
			 M30.1,34.9c0-0.1,0.1-0.1,0.1-0.1h4.9c0.1,0,0.1,0.1,0.1,0.1v2c0,0.1-0.1,0.1-0.1,0.1h-4.9c-0.1,0-0.1-0.1-0.1-0.1
			S30.1,34.9,30.1,34.9z"/>
		<path d="M44.9,33.3h5.9c0.5,0,0.9-0.4,0.9-0.9s-0.4-0.9-0.9-0.9h-5.9c-0.5,0-0.9,0.4-0.9,0.9C44.1,33,44.5,33.3,44.9,33.3z"/>
		<path d="M44.9,28.4h5.9c0.5,0,0.9-0.4,0.9-0.9s-0.4-0.9-0.9-0.9h-5.9c-0.5,0-0.9,0.4-0.9,0.9C44.1,28,44.5,28.4,44.9,28.4z"/>
	</g>
</g>
</svg>
