<?xml version="1.0" encoding="utf-8"?>
<!-- Generator: Adobe Illustrator 27.0.1, SVG Export Plug-In . SVG Version: 6.00 Build 0)  -->
<svg version="1.1" id="Layer_1" xmlns="http://www.w3.org/2000/svg" xmlns:xlink="http://www.w3.org/1999/xlink" x="0px" y="0px"
	 viewBox="0 0 71.4 69.1" style="enable-background:new 0 0 71.4 69.1;" xml:space="preserve">
<style type="text/css">
	.st0{fill:#C9C0AB;}
</style>
<g>
	<path class="st0" d="M70.5,55.6l-2-9c-0.3-1.6-1.8-2.7-3.4-2.7h0c-0.8,0-1.6,0.3-2.2,0.8c-0.5-1.4-1.8-2.4-3.3-2.4
		c-1.1,0-2.1,0.5-2.8,1.3c-0.5-0.7-1.3-1.2-2.1-1.4V3.8c0-1.7-1.4-3-3-3H15.8c-1.7,0-3,1.4-3,3v28.3L2,45.3c-1,1.2-1.4,2.9-1.1,4.5
		l0.6,13.4c0,0.4,0.4,0.8,0.8,0.8l0,0h0c0.5,0,0.8-0.4,0.8-0.9L2.5,49.8l0-0.2c-0.2-1.1,0-2.3,0.7-3.2l9.5-11.7v11.1l-2.3,3.9
		c0,0,0,0,0,0c-0.2,0.4-0.1,0.9,0.3,1.1s0.9,0.1,1.1-0.3l5.4-9c0.6-1.1,1.8-1.5,2.9-1c1.5,0.6,2,1.7,1.7,2.6
		c-0.3,0.7-3.2,7.7-4.1,10.4l-0.2,0.5c-1.3,3.9-2,5.8-2.4,6.4c-0.5,0.7-3.7,4.9-3.7,4.9c-0.1,0.1-0.2,0.3-0.2,0.5
		c0,0.5,0.4,0.8,0.8,0.8c0.3,0,0.5-0.1,0.7-0.3c0.1-0.2,3.2-4.3,3.7-5c0.6-0.8,1.2-2.5,2.6-6.8l0.2-0.5c0,0,0-0.1,0-0.1h19.4
		c0.2,0.2,0.5,0.4,0.7,0.6c2.4,1.9,4.4,4.1,6.2,6.5c3.7,5.3,6.7,7.4,11,7.4v0c1.5,0,2.9-0.2,4.4-0.6C69.6,65.9,71.4,59.3,70.5,55.6z
		 M15.8,2.4h35.9c0.8,0,1.4,0.6,1.4,1.4v3.9H14.5V3.8C14.5,3,15.1,2.4,15.8,2.4z M20.9,38.9c-1.9-0.8-4,0-5,1.7l-1.4,2.4V9.3h38.6
		v32.9c-0.6,0.2-1.1,0.4-1.5,0.8l-1.9-8.4c-0.4-1.9-2.3-3.1-4.2-2.7c-1.3,0.3-2.2,1.2-2.6,2.3H20.8V36h22.1c0,0.1,0,0.2,0,0.2
		l1.9,8.5H23.1c0.3-0.7,0.4-1.1,0.5-1.1c0,0,0-0.1,0-0.1C24,42,23.3,39.9,20.9,38.9z M22.4,46.3h22.7l0.9,4c-1.4-1.2-3.2-1.7-5-1.4
		c-1.5,0.3-2.7,1.4-3.3,2.8c0,0.2,0,0.3,0,0.5H20.1C20.8,50.4,21.7,48.1,22.4,46.3z M60.9,66.2C55,67.6,52,66.9,47.1,60
		c-1.8-2.6-4-4.8-6.5-6.8c-0.3-0.3-0.6-0.5-0.9-0.8v-0.2h-0.2c-0.1-0.1-0.2-0.2-0.2-0.2l0,0c0.5-0.7,1.2-1.3,2.1-1.5
		c1-0.3,3.4,0.3,5.3,2.9c0.2,0.3,0.5,0.4,0.8,0.3c0.4-0.1,0.7-0.5,0.6-1l-3.7-16.9c-0.1-0.9,0.4-1.8,1.3-2.1c1-0.3,2.1,0.3,2.4,1.3
		l2.4,10.9c0.1,0.4,0.4,0.7,0.8,0.6c0.5,0,0.8-0.4,0.8-0.9c-0.1-0.9,0.6-1.8,1.5-2c0.5-0.1,1.9-0.4,2.4,2c0.1,0.4,0.4,0.6,0.7,0.6
		c0.5,0,0.8-0.3,0.9-0.8c0-0.8,0.6-1.5,1.5-1.7c1-0.2,2,0.4,2.3,1.4l0.3,1.5c0.1,0.4,0.4,0.6,0.8,0.6c0.4,0,0.7-0.3,0.8-0.7
		c0.2-0.8,0.9-1.4,1.8-1.4c0.9,0,1.6,0.6,1.8,1.4l2,9C69.6,59.1,68.1,64.5,60.9,66.2z"/>
	<polygon class="st0" points="12.3,66.6 12.3,66.6 12.3,66.6 	"/>
	<rect x="20.8" y="17.7" class="st0" width="26.1" height="1.6"/>
	<rect x="20.8" y="23.3" class="st0" width="26.1" height="1.6"/>
	<rect x="20.8" y="28.8" class="st0" width="26.1" height="1.6"/>
</g>
</svg>
