<?xml version="1.0" encoding="UTF-8"?><svg id="_ÎÓÈ_2" xmlns="http://www.w3.org/2000/svg" viewBox="0 0 72 72"><path d="M2.54,38.08V8.41h37.25c.52,0,.93-.42.93-.93s-.42-.93-.93-.93H1.6c-.52,0-.93.42-.93.93v30.61c0,.52.42.93.93.93s.93-.42.93-.93Z" fill="#90b854" stroke-width="0"/><path d="M31.9,39.74c0-.52-.42-.93-.93-.93h-14.42c-.52,0-.93.42-.93.93s.42.93.93.93h14.42c.52,0,.93-.42.93-.93Z" fill="#90b854" stroke-width="0"/><path d="M16.55,44.83c-.52,0-.93.42-.93.93s.42.93.93.93h12.35c.52,0,.93-.42.93-.93s-.42-.93-.93-.93h-12.35Z" fill="#90b854" stroke-width="0"/><path d="M12.91,20.23c-.52,0-.93.42-.93.93v7.06c0,.52.42.93.93.93h22.93c.52,0,.93-.42.93-.93v-7.06c0-.52-.42-.93-.93-.93H12.91ZM34.81,27.29H13.85v-5.08h20.96v5.08Z" fill="#90b854" stroke-width="0"/><path d="M7.93,44.31h-.42c-.52,0-.93.42-.93.93s.42.93.93.93h.52c.52,0,.93-.42.93-.93s-.52-.93-1.04-.93Z" fill="#90b854" stroke-width="0"/><path d="M71.85,60.91c-.31-4.25-.83-11.52-1.04-13.18-.73-7.47-5.5-11.83-12.97-11.83-.21,0-.42.1-.62.21l-5.81,4.57-6.02-4.57c-.21-.1-.42-.21-.52-.21-7.47,0-12.24,4.36-12.87,12.04,0,.52-.1,1.35-.21,2.18H13.54v-14.73h0c0-.1.1-.31.31-.31h21.06c.52,0,.93-.42.93-.93s-.42-.93-.93-.93H13.85c-1.14,0-2.18.93-2.18,2.18v14.73H3.99v-8.09c0-1.14.93-1.97,1.97-1.97h2.28c.1,0,.21,0,.42-.1.31-.1.62-.52.62-.83v-21.27c7.89-2.28,19.51-2.49,28.64-.52.52.1,1.04-.21,1.14-.73s-.21-1.04-.73-1.14c-9.24-2.08-20.96-1.87-29.16.42-.21-1.66-1.04-3.63-3.22-3.94-.52-.1-1.04.31-1.04.83-.1.52.31.93.83,1.04,1.56.21,1.66,3.11,1.66,3.32h0v21.06h-1.45c-2.18,0-3.84,1.76-3.84,3.84v9.24h0v9.86c0,1.25,1.04,2.28,2.28,2.28h4.98c1.25,0,2.28-1.04,2.28-2.28v-2.91h19.3c-.1,1.14-.1,2.08-.21,2.7,0,.52,0,.93.1,1.45.52,2.91,3.32,4.88,6.33,4.25h.1l.42-.1v4.05c0,.52.42.93.93.93h24.9c.52,0,.93-.42.93-.93v-3.94c.52.1,1.04.21,1.66.21h0c1.25,0,2.49-.31,3.63-1.04,1.56-1.14,2.28-3.01,2.08-4.88ZM9.7,61.12c0,.21-.21.42-.42.42h-4.88c-.21,0-.42-.21-.42-.42v-2.91h5.81l-.1,2.91h0ZM31.18,56.14H4.3v-3.94h27.19c-.1,1.25-.21,2.7-.31,3.94ZM62.41,69.63h-22.72v-3.63l13.07-3.74c4.46,1.76,8.2,3.22,9.65,3.74,0,0,0,3.63,0,3.63ZM68.64,64.13c-1.25.73-2.8.93-4.15.42-.31-.1-.52-.21-.83-.31,0,0-.1,0-.1-.1-.21-.1-.52-.21-.93-.31-1.66-.62-4.98-1.87-8.92-3.42-.21-.1-.31-.1-.52-.21h-.1c-1.45-.52-2.91-1.14-4.36-1.76-1.14-.52-2.39-.83-3.63-.83h0c-.73,0-1.45.1-2.18.31-.52.1-1.04.21-1.56.21s-.93-.21-1.25-.62c-.52-.62-.62-1.45-.42-2.18.42-1.66,1.97-2.91,3.63-2.91h.83l5.29.83h.1l11.83,1.97,1.04.21h.42c.31-.1.52-.42.62-.73v-.42c0-.83,0-1.76-.31-2.7-.1-.31-.21-.62-.42-.93-.21-.31-.42-.62-.73-.93-1.87-1.76-4.05-1.04-7.37.1l-2.39.83-2.49.83-5.08-.83c-.31,0-.62-.1-.93-.1h-.21c-1.04,0-2.08.42-2.91.93-.73.42-1.35,1.14-1.76,1.87-.31.52-.62,1.04-.73,1.66-.31,1.25,0,2.59.73,3.63,0,0,0,.1.1.1.21.31.52.52.83.73.52.31,1.14.52,1.87.52h0c.62,0,1.25-.1,1.87-.31.62-.1,1.14-.21,1.76-.31,1.04,0,1.97.21,2.91.62.62.21,1.25.52,1.87.73l-10.38,3.01-.93.31-1.04.52-.83.21c-1.14.21-2.18-.1-3.01-.83-.83-.73-1.25-1.76-1.14-2.91,0-.73.1-1.66.21-2.8,0-.21,0-.42.1-.73v-.62c.21-2.08.42-4.36.62-6.23v-.21c.1-.93.21-1.87.21-2.39.83-8.72,6.95-10.27,10.69-10.38l6.33,4.88c.31.21.83.21,1.14,0l6.23-4.77c4.46.1,9.86,1.97,10.69,10.17.21,1.66.73,8.82,1.04,13.07.21,1.25-.31,2.39-1.35,3.11ZM51.62,52.71h0l.83-.31,1.14-.42,1.66-.52h0c1.25-.42,2.28-.73,3.01-.93s1.35-.21,1.76,0c.21.1.42.21.62.42.21.21.31.31.42.52.21.31.31.62.42.93.1.31.1.62.1.93v.93h0l-9.96-1.56Z" fill="#90b854" stroke-width="0"/><path d="M39.79,19.4c-.21.52-.31,1.14-.52,1.87-.1.42-.21.73-.31,1.14-.21.52-.1,1.04.21,1.56.42.42.83.62,1.35.52v.42c0,5.91,4.77,10.69,10.69,10.69.62,0,1.35-.1,1.97-.21,5.29-1.04,8.92-5.71,8.72-10.9h.21c.42,0,.83-.21,1.14-.52.31-.42.42-1.04.21-1.56-.1-.52-.31-1.04-.42-1.66-.1-.42-.21-.83-.31-1.25v-.21l-.73-7.06c-.1-1.56-1.35-2.8-2.91-3.01-1.14-.21-3.32-.83-5.08-1.25-.1-.1-.21-.21-.31-.31-1.56-1.35-3.84-1.14-5.08.31-2.39.62-4.15,1.14-5.19,1.25-1.56.21-2.8,1.45-2.91,3.01l-.73,7.16ZM51.31,33.62c-4.88,0-8.82-3.94-8.82-8.82,0-.42,0-.73.1-1.14,3.42-1.56,6.02-2.28,8.82-2.28s5.4.73,8.72,2.18c0,.42.1.73.1,1.14-.1,4.88-4.05,8.92-8.92,8.92ZM42.49,12.35h0c0-.93,1.04-1.25,1.35-1.25,1.35-.31,3.84-.93,5.71-1.45.31-.1.52-.31.62-.62.73-.62,1.76-.62,2.39,0,.1.31.31.52.62.62,1.87.52,4.36,1.14,5.6,1.45.31.1,1.35.31,1.35,1.14v.1l.62,5.71c-3.01-1.35-6.23-2.18-9.55-2.28-3.32.1-6.43.93-9.44,2.28l.73-5.71ZM41.14,21.69c.1-.42.21-.93.31-1.25,3.01-1.66,6.33-2.59,9.86-2.7,3.42.21,6.85,1.14,9.86,2.7.1.31.21.62.21.93.1.31.21.73.31,1.04q-.1,0-.21-.1c-.1-.1-.31-.21-.52-.21-3.74-1.76-6.64-2.49-9.65-2.49h0c-3.22,0-6.33.83-10.38,2.8.1-.31.1-.52.21-.73Z" fill="#90b854" stroke-width="0"/></svg>