<?xml version="1.0" encoding="UTF-8"?><svg id="_ÎÓÈ_2" xmlns="http://www.w3.org/2000/svg" viewBox="0 0 72 72"><path d="M61.1,71.32H12.17c-4.15,0-7.53-3.38-7.53-7.53s3.38-7.53,7.53-7.53h48.93c.72,0,1.3.58,1.3,1.3v12.47c0,.72-.58,1.3-1.3,1.3ZM12.17,58.86c-2.72,0-4.93,2.21-4.93,4.93s2.21,4.93,4.93,4.93h47.63v-9.87H12.17Z" fill="#90b854" stroke-width="0"/><path d="M11.95,58.86c-.72,0-1.3-.58-1.3-1.3V2.4c0-.72.58-1.3,1.3-1.3s1.3.58,1.3,1.3v55.16c0,.72-.58,1.3-1.3,1.3Z" fill="#90b854" stroke-width="0"/><path d="M5.94,65.09c-.72,0-1.3-.58-1.3-1.3V8.41c0-4.03,3.28-7.31,7.31-7.31h49.15c.72,0,1.3.58,1.3,1.3v55.16c0,.72-.58,1.3-1.3,1.3s-1.3-.58-1.3-1.3V3.7H11.95c-2.6,0-4.71,2.11-4.71,4.71v55.38c0,.72-.58,1.3-1.3,1.3Z" fill="#90b854" stroke-width="0"/><path d="M28.5,31.37c-.51,0-1-.31-1.21-.81l-3.15-7.82-3.35,7.84c-.28.66-1.05.96-1.71.69-.66-.28-.97-1.05-.68-1.71l4.58-10.73c.21-.48.67-.77,1.21-.79.53,0,1,.33,1.19.81l4.32,10.73c.27.67-.05,1.42-.72,1.69-.16.06-.32.09-.48.09Z" fill="#90b854" stroke-width="0"/><path d="M23.23,36.37c-1.7,0-3.17-.17-4.21-1.28-.97-1.04-1.32-2.62-1.11-5.13.06-.67.62-1.19,1.3-1.19h9.68c.69,0,1.26.54,1.3,1.23.09,1.78.09,3.79-1.13,5.12-.69.76-1.66,1.17-2.87,1.21-.02,0-.04,0-.07,0-.62,0-1.21,0-1.77.01-.39,0-.76.02-1.13.02ZM20.46,31.37c.01,1.18.24,1.71.46,1.94.48.51,1.82.48,3.39.45.57-.01,1.18-.02,1.82-.02.71-.03.94-.28,1.01-.37.37-.41.47-1.23.49-2h-7.17Z" fill="#90b854" stroke-width="0"/><path d="M53.25,31.37c-.51,0-1-.31-1.21-.81l-3.15-7.82-3.35,7.84c-.28.66-1.05.96-1.71.69-.66-.28-.97-1.05-.68-1.71l4.58-10.73c.21-.48.71-.77,1.21-.79.53,0,1,.33,1.19.81l4.32,10.73c.27.67-.05,1.42-.72,1.69-.16.06-.32.09-.48.09Z" fill="#90b854" stroke-width="0"/><path d="M47.98,36.37c-1.7,0-3.17-.17-4.21-1.28-.97-1.04-1.32-2.62-1.11-5.13.06-.67.62-1.19,1.3-1.19h9.68c.69,0,1.26.54,1.3,1.23.09,1.78.09,3.79-1.13,5.12-.69.76-1.66,1.17-2.87,1.21-.02,0-.04,0-.07,0-.62,0-1.21,0-1.76.01-.39,0-.76.02-1.13.02ZM45.21,31.37c.01,1.18.24,1.71.46,1.94.48.51,1.83.48,3.39.45.57-.01,1.18-.02,1.82-.02.71-.03.94-.28,1.01-.37.37-.41.47-1.23.49-2h-7.17Z" fill="#90b854" stroke-width="0"/><path d="M48.93,20.65h-7.04c-.72,0-1.3-.58-1.3-1.3s.58-1.3,1.3-1.3h7.04c.72,0,1.3.58,1.3,1.3s-.58,1.3-1.3,1.3Z" fill="#90b854" stroke-width="0"/><path d="M31.45,20.65h-7.27c-.72,0-1.3-.58-1.3-1.3s.58-1.3,1.3-1.3h7.27c.72,0,1.3.58,1.3,1.3s-.58,1.3-1.3,1.3Z" fill="#90b854" stroke-width="0"/><path d="M39.03,42.49c-.72,0-1.3-.58-1.3-1.3v-24.2c0-.58-.47-1.05-1.05-1.05s-1.05.47-1.05,1.05v24.2c0,.72-.58,1.3-1.3,1.3s-1.3-.58-1.3-1.3v-24.2c0-2.01,1.64-3.65,3.65-3.65s3.65,1.64,3.65,3.65v24.2c0,.72-.58,1.3-1.3,1.3Z" fill="#90b854" stroke-width="0"/><path d="M43.21,47.33h-13.21c-.7,0-1.28-.56-1.3-1.26v-.19c-.06-1.35-.12-3.19,1-4.37.41-.43,1.15-.94,2.37-.96h9.05c1.24.02,1.98.53,2.39.96,1.13,1.19,1.06,3.05,1.01,4.41v.16c-.03.7-.61,1.25-1.3,1.25ZM31.28,44.73h10.66c-.01-.6-.09-1.19-.32-1.44-.03-.04-.14-.15-.52-.15h-9c-.37,0-.47.12-.5.15-.23.24-.3.83-.31,1.43Z" fill="#90b854" stroke-width="0"/><path d="M61.1,65.09H14.12c-.72,0-1.3-.58-1.3-1.3s.58-1.3,1.3-1.3h46.98c.72,0,1.3.58,1.3,1.3s-.58,1.3-1.3,1.3Z" fill="#90b854" stroke-width="0"/></svg>