<?xml version="1.0" encoding="UTF-8"?><svg id="_ÎÓÈ_2" xmlns="http://www.w3.org/2000/svg" viewBox="0 0 72 72"><path d="M69.21,59.85l-11.53-11.53c-.24-.24-.28-.61-.11-.9,2.96-4.79,4.52-10.29,4.52-15.91,0-8.12-3.16-15.75-8.9-21.5C47.46,4.29,39.83,1.13,31.7,1.13s-15.76,3.16-21.5,8.89C4.46,15.76,1.3,23.4,1.3,31.52s3.16,15.75,8.9,21.5c5.73,5.73,13.37,8.89,21.5,8.89,5.6,0,11.1-1.56,15.9-4.51.12-.07.25-.11.38-.11.19,0,.38.07.52.21l11.54,11.53c1.15,1.15,2.69,1.78,4.34,1.78h.02s.09,0,.14,0c1.69-.04,3.29-.73,4.5-1.95,1.23-1.23,1.92-2.84,1.95-4.55.03-1.7-.6-3.28-1.78-4.46ZM54.13,47.24c-.49.69-.96,1.32-1.47,1.93-.41.48-.84.96-1.29,1.43-.03.04-.07.07-.1.11-.06.07-.12.13-.18.19-.03.03-.06.06-.12.11-.48.47-1.02.96-1.65,1.49-.61.51-1.23.97-1.88,1.43l-.82.57c-4.44,2.88-9.59,4.4-14.92,4.4-7.33,0-14.21-2.84-19.37-8.01-5.18-5.18-8.03-12.06-8.03-19.38s2.85-14.21,8.03-19.38c5.17-5.17,12.05-8.01,19.38-8.01s14.22,2.85,19.38,8.01c5.18,5.18,8.03,12.06,8.03,19.38,0,5.31-1.53,10.47-4.43,14.92l-.56.8ZM66.93,66.75c-.67.67-1.55,1.05-2.47,1.08h-.06c-.86,0-1.68-.33-2.25-.91l-4.67-4.67c-.29-.28-.29-.75,0-1.03l3.92-3.92c.14-.14.32-.21.52-.21s.38.08.52.21l4.67,4.67c1.27,1.27,1.19,3.42-.17,4.78Z" fill="#90b854" stroke-width="0"/><path d="M31.81,30.37c3.72,0,6.63-4.25,6.63-9.68,0-4.85-2.42-7.63-6.63-7.63s-6.63,2.78-6.63,7.63c0,5.43,2.91,9.68,6.63,9.68ZM31.81,16.06c1,0,3.64,0,3.64,4.64,0,3.94-1.92,6.69-3.64,6.69s-3.64-2.75-3.64-6.69c0-4.64,2.65-4.64,3.64-4.64Z" fill="#90b854" stroke-width="0"/><path d="M38.82,30.71c-.12-.03-.25-.05-.38-.05-.66,0-1.24.45-1.43,1.1-.22.78.25,1.61,1.04,1.84.22.07,5.42,1.71,5.5,9.67,0,.19-.07.38-.21.52-.14.14-.32.22-.52.22h-22.17c-.19,0-.38-.08-.52-.22-.14-.14-.21-.33-.21-.52.07-7.96,5.27-9.6,5.51-9.67.78-.22,1.25-1.03,1.05-1.82-.17-.66-.77-1.11-1.45-1.11-.13,0-.25.02-.38.05-3.03.8-8.53,4.95-7.62,14.92.07.77.71,1.36,1.49,1.36h26.42c.78,0,1.42-.58,1.49-1.36.92-9.97-4.58-14.12-7.61-14.92Z" fill="#90b854" stroke-width="0"/></svg>