<?xml version="1.0" encoding="UTF-8"?><svg id="_ÎÓÈ_2" xmlns="http://www.w3.org/2000/svg" viewBox="0 0 72 72"><path d="M55.62,71.49H15.84c-.57,0-1.03-.46-1.03-1.03,0-5.3,3.54-9.77,7.72-9.77h7.84c.57,0,1.03.46,1.03,1.03s-.46,1.03-1.03,1.03h-7.84c-2.76,0-5.22,3.02-5.61,6.69h37.61c-.39-3.67-2.85-6.69-5.61-6.69h-7.84c-.57,0-1.03-.46-1.03-1.03s.46-1.03,1.03-1.03h7.84c4.19,0,7.72,4.47,7.72,9.77,0,.57-.46,1.03-1.03,1.03Z" fill="#90b854" stroke-width="0"/><path d="M35.73,53.22c-.57,0-1.03-.46-1.03-1.03V12.77c0-.57.46-1.03,1.03-1.03s1.03.46,1.03,1.03v39.42c0,.57-.46,1.03-1.03,1.03Z" fill="#90b854" stroke-width="0"/><path d="M35.73,65.63c-4.06,0-7.36-3.24-7.36-7.23s3.3-7.23,7.36-7.23,7.36,3.24,7.36,7.23-3.3,7.23-7.36,7.23ZM35.73,53.22c-2.93,0-5.31,2.32-5.31,5.18s2.38,5.18,5.31,5.18,5.31-2.32,5.31-5.18-2.38-5.18-5.31-5.18Z" fill="#90b854" stroke-width="0"/><path d="M15.92,21.5c-4.53,0-8.69-2.41-10.85-6.37-.27-.5-.09-1.12.41-1.4.5-.27,1.12-.09,1.39.41,1.97,3.61,5.93,5.67,10.09,5.25l17.66-2.24c.56-.07,1.08.33,1.15.89.07.56-.33,1.08-.89,1.15l-17.69,2.25c-.43.04-.85.06-1.28.06Z" fill="#90b854" stroke-width="0"/><path d="M55.56,21.51c-.42,0-.84-.02-1.26-.06l-18.06-2.31c-.56-.07-.96-.59-.89-1.15.07-.56.58-.96,1.15-.89l18.03,2.31c4.14.41,8.09-1.65,10.06-5.26.27-.5.9-.68,1.39-.41.5.27.68.9.41,1.4-2.17,3.96-6.33,6.38-10.84,6.38Z" fill="#90b854" stroke-width="0"/><path d="M35.73,13.49c-3.64,0-6.6-2.91-6.6-6.49s2.96-6.49,6.6-6.49,6.6,2.91,6.6,6.49-2.96,6.49-6.6,6.49ZM35.73,2.57c-2.51,0-4.55,1.99-4.55,4.43s2.04,4.43,4.55,4.43,4.55-1.99,4.55-4.43-2.04-4.43-4.55-4.43Z" fill="#90b854" stroke-width="0"/><path d="M2.63,41.26c-.15,0-.31-.04-.46-.11-.51-.25-.71-.87-.46-1.38l10.09-20.21c.25-.51.87-.71,1.38-.46.51.25.71.87.46,1.38L3.55,40.69c-.18.36-.54.57-.92.57Z" fill="#90b854" stroke-width="0"/><path d="M25.9,41.26c-.38,0-.74-.21-.92-.57l-9.87-19.75c-.25-.51-.05-1.12.46-1.38.51-.25,1.12-.05,1.38.46l9.87,19.75c.25.51.05,1.12-.46,1.38-.15.07-.3.11-.46.11Z" fill="#90b854" stroke-width="0"/><path d="M14.27,50.35c-6.49,0-11.76-4.54-11.76-10.12,0-.57.46-1.03,1.03-1.03s1.03.46,1.03,1.03c0,4.45,4.36,8.07,9.71,8.07s9.71-3.62,9.71-8.07c0-.57.46-1.03,1.03-1.03s1.03.46,1.03,1.03c0,5.58-5.28,10.12-11.77,10.12Z" fill="#90b854" stroke-width="0"/><path d="M26.98,41.26H1.55c-.57,0-1.03-.46-1.03-1.03s.46-1.03,1.03-1.03h25.43c.57,0,1.03.46,1.03,1.03s-.46,1.03-1.03,1.03Z" fill="#90b854" stroke-width="0"/><path d="M45.56,41.26c-.15,0-.31-.04-.46-.11-.51-.25-.71-.87-.46-1.38l9.87-19.75c.25-.51.87-.71,1.38-.46.51.25.71.87.46,1.38l-9.87,19.75c-.18.36-.54.57-.92.57Z" fill="#90b854" stroke-width="0"/><path d="M68.83,41.26c-.38,0-.74-.21-.92-.57l-10.09-20.21c-.25-.51-.05-1.12.46-1.38.51-.25,1.12-.05,1.38.46l10.09,20.21c.25.51.05,1.12-.46,1.38-.15.07-.3.11-.46.11Z" fill="#90b854" stroke-width="0"/><path d="M57.19,50.35c-6.49,0-11.76-4.54-11.76-10.12,0-.57.46-1.03,1.03-1.03s1.03.46,1.03,1.03c0,4.45,4.36,8.07,9.71,8.07s9.71-3.62,9.71-8.07c0-.57.46-1.03,1.03-1.03s1.03.46,1.03,1.03c0,5.58-5.28,10.12-11.77,10.12Z" fill="#90b854" stroke-width="0"/><path d="M69.91,41.26h-25.43c-.57,0-1.03-.46-1.03-1.03s.46-1.03,1.03-1.03h25.43c.57,0,1.03.46,1.03,1.03s-.46,1.03-1.03,1.03Z" fill="#90b854" stroke-width="0"/></svg>