<?xml version="1.0" encoding="UTF-8"?><svg id="_ÎÓÈ_2" xmlns="http://www.w3.org/2000/svg" viewBox="0 0 175.15 71.83"><g id="Group_4626"><g id="Group_4625"><g id="Group_4624"><path id="Path_18046" d="M174.11,32.75c0-.17,0-.34-.03-.48-.23-2.12-.85-4.17-1.82-6.07-.96-1.89-2.15-3.66-3.53-5.27-1.38-1.62-2.89-3.12-4.52-4.49-1.64-1.35-3.36-2.61-5.15-3.77l-.64-.4c-.68-.42-1.39-.86-2.1-1.25l-1.06-.6-2.13-1.11-1.81-.86c-.25-.12-.47-.22-.7-.32-.3-.12-.58-.25-.87-.37-.68-.3-1.39-.6-2.09-.87l-1.51-.59-1.52-.53c-.75-.28-1.53-.52-2.28-.76-.26-.08-.52-.17-.77-.25-4.09-1.26-8.26-2.24-12.49-2.94l-2.77-.43-.4-.05c-.36-.04-.73-.09-1.1-.14-.68-.09-1.39-.18-2.08-.25l-.81-.08c-.78-.08-1.6-.15-2.39-.22l-3.26-.23c-.16-.02-.31.08-.36.23.01.05.03.1.07.14.04.05.11.08.18.09h.1l3.15.34c1.07.13,2.12.27,3.14.42.67.09,1.34.2,1.99.31.38.06.76.12,1.13.18l.41.07,2.71.51c.67.13,1.34.28,1.99.42.37.08.73.16,1.1.24h.01c.66.15,1.34.32,1.98.48.36.09.71.18,1.07.26h.02c.34.1.68.2,1.03.29.65.18,1.33.37,1.99.56l1.62.5c.45.14.92.28,1.38.45,3.95,1.31,7.8,2.93,11.5,4.84l1.72.93.99.58c.67.38,1.33.8,1.97,1.21.21.14.43.27.64.41h.02c1.7,1.15,3.32,2.38,4.88,3.7,1.53,1.32,2.95,2.76,4.24,4.3,1.28,1.51,2.37,3.18,3.26,4.95.87,1.73,1.43,3.6,1.63,5.53.02.17.03.34.03.51v.22l.02.54-.08,1.27c0,.09-.02.17-.04.26,0,.04-.01.07-.02.11-.13.96-.33,1.91-.6,2.84-.57,1.88-1.39,3.68-2.42,5.35-1.06,1.69-2.28,3.27-3.64,4.73l-1.05,1.09c-.23.23-.47.44-.69.66-.13.12-.27.25-.4.37l-.55.51c-.14.13-.28.24-.41.35-.06.05-.13.1-.19.16l-1.17.98c-.38.3-.76.58-1.21.91l-.28.21c-.31.23-.63.48-.99.7-.2.13-.4.26-.59.4-.63.43-1.29.87-1.98,1.26-3.55,2.13-7.28,3.94-11.15,5.4-3.91,1.49-7.9,2.74-11.96,3.75-3.94.96-8.1,1.79-12.38,2.46-.68.1-1.36.2-2.02.29-.37.05-.74.1-1.11.15l-1.56.21c-.34.05-.69.09-1.02.12-.19.02-.37.04-.56.06l-3.14.34c-.37.05-.75.08-1.12.11l-.47.04-3.15.26c-.51.04-1.05.09-1.6.12l-4.74.28-4.74.17c-.75.03-1.51.04-2.24.05-.31,0-.62,0-.94.01l-3.17.06c-.71.01-1.43,0-2.12,0h-1.97c-.74-.02-1.51-.03-2.27-.05-8.46-.17-16.89-.88-25.26-2.12-2.17-.33-4.27-.69-6.24-1.07-2.27-.44-4.29-.87-6.18-1.33-2.04-.48-4.09-1.02-6.1-1.6-2.01-.58-4.02-1.23-5.99-1.92-3.94-1.36-7.78-3-11.48-4.91-3.66-1.86-7.1-4.13-10.25-6.78-1.54-1.3-2.94-2.76-4.2-4.33-1.24-1.53-2.22-3.25-2.9-5.1-.33-.91-.54-1.85-.63-2.81-.02-.13-.03-.27-.03-.41v-.31c-.02-.17-.01-.32-.01-.46v-.3c.02-.22.04-.44.06-.66v-.05s.11-.71.11-.71c.16-.97.4-1.92.69-2.86.31-.94.69-1.86,1.12-2.75v-.03c1.84-3.59,4.4-6.76,7.53-9.3,3.18-2.62,6.65-4.86,10.35-6.67,3.75-1.85,7.63-3.41,11.61-4.67,4.01-1.27,8.09-2.33,12.21-3.15,8.3-1.64,16.73-2.51,25.19-2.58,8.48-.06,16.94.55,25.32,1.82,4.45.69,8.51,1.5,12.43,2.48,4.08,1,8.08,2.29,11.98,3.84l.06.02c.2.08.43.01.55-.17.02-.08-.03-.16-.1-.19l-.07-.02c-3.94-1.62-7.99-2.97-12.12-4.03-3.99-1.05-8.2-1.93-12.53-2.63-8.45-1.36-16.99-2.04-25.55-2.05-8.57.01-17.12.82-25.54,2.41-4.2.8-8.36,1.84-12.44,3.12-4.08,1.27-8.07,2.84-11.91,4.71-3.85,1.85-7.46,4.15-10.76,6.85-.87.72-1.64,1.41-2.35,2.12-.78.79-1.51,1.57-2.15,2.34-.67.81-1.3,1.66-1.89,2.54-.58.88-1.1,1.79-1.57,2.73-.45.94-.85,1.91-1.18,2.9-.32.99-.57,1.99-.75,3.01l-.12.78c-.03.27-.06.53-.08.78,0,.09,0,.18,0,.28,0,.18,0,.36,0,.52l.02.46c0,.11,0,.23.02.34.1,1.06.33,2.1.68,3.11.35,1,.79,1.97,1.32,2.89.53.92,1.12,1.8,1.77,2.64,1.32,1.67,2.79,3.21,4.41,4.59,3.26,2.75,6.82,5.13,10.61,7.07,3.8,1.97,7.73,3.68,11.76,5.09,2.01.71,4.06,1.38,6.11,1.98,1.93.56,3.96,1.1,6.2,1.65,1.82.44,3.81.88,6.27,1.36,1.94.38,4.01.75,6.33,1.11,8.47,1.28,17.01,2.02,25.58,2.22,8.56.22,17.13-.01,25.66-.69l1.74-.14c.48-.04.97-.08,1.45-.13l3.21-.35.55-.06c.34-.04.69-.07,1.03-.12l1.6-.22c.38-.05.77-.11,1.16-.16.67-.09,1.35-.18,2.03-.29,4.35-.68,8.6-1.52,12.62-2.5,4.16-1.03,8.26-2.32,12.27-3.84,4.01-1.52,7.88-3.39,11.56-5.59.73-.42,1.44-.9,2.12-1.36l.58-.39c.4-.26.77-.53,1.16-.83l.13-.1.45-.34c.27-.2.56-.41.83-.62l1.35-1.12c.17-.14.33-.27.49-.41l.59-.55c.14-.13.28-.26.42-.39.26-.24.5-.46.74-.7l1.12-1.17c1.44-1.56,2.73-3.25,3.86-5.05,1.1-1.8,1.96-3.74,2.57-5.76.3-1.01.51-2.04.64-3.08,0-.06.02-.12.02-.17s.02-.14.03-.2l.08-1.38-.02-.59c0-.1,0-.2,0-.3" fill="#90b854" stroke-width="0"/></g></g></g></svg>