<?xml version="1.0" encoding="UTF-8"?><svg id="_ÎÓÈ_2" xmlns="http://www.w3.org/2000/svg" viewBox="0 0 72 72"><path d="M.73,71.36c-.57,0-1.03-.46-1.03-1.03v-12.14c0-5.8,4.53-10.65,10.32-11.04l2.36-.16c.84-.06,1.67-.23,2.47-.53.61-.23,1.2-.52,1.75-.89.01-.01.03-.02.04-.03,1.12-.74,1.78-1.99,1.78-3.34v-.95c0-.57.46-1.03,1.03-1.03s1.03.46,1.03,1.03v.95c0,2.02-.99,3.89-2.66,5.02-.02.01-.03.02-.05.03-.69.46-1.43.84-2.21,1.13-.98.37-2.01.59-3.05.66l-2.36.16c-4.71.32-8.4,4.26-8.4,8.99v12.14c0,.57-.46,1.03-1.03,1.03Z" fill="#90b854" stroke-width="0"/><path d="M33.59,47.75c-.17,0-.35-.04-.51-.14-.19-.11-.37-.22-.55-.34-.01,0-.03-.02-.04-.03-1.67-1.13-2.67-3.01-2.67-5.03v-.95c0-.57.46-1.03,1.03-1.03s1.03.46,1.03,1.03v.95c0,1.34.67,2.59,1.79,3.34.01,0,.02.01.03.02.13.09.27.17.41.25.49.28.66.91.38,1.4-.19.33-.54.52-.89.52Z" fill="#90b854" stroke-width="0"/><path d="M18.02,58.62c-.07,0-.15,0-.22-.02-.28-.06-.52-.23-.67-.48l-5.68-9.58c-.29-.49-.13-1.12.36-1.41.49-.29,1.12-.13,1.41.36l5.12,8.63,14.67-10.23c.46-.33,1.11-.21,1.43.25.33.46.21,1.11-.25,1.43l-15.57,10.87c-.17.12-.38.18-.59.18Z" fill="#90b854" stroke-width="0"/><path d="M33.62,58.61c-.21,0-.41-.06-.59-.18l-15.54-10.84c-.47-.32-.58-.97-.25-1.43.32-.46.97-.58,1.43-.25l14.63,10.21.93-1.56c.29-.49.92-.65,1.41-.36.49.29.65.92.36,1.41l-1.49,2.51c-.15.25-.39.42-.67.48-.07.02-.14.02-.22.02Z" fill="#90b854" stroke-width="0"/><path d="M10.45,71.36c-.57,0-1.03-.46-1.03-1.03v-12.75c0-.57.46-1.03,1.03-1.03s1.03.46,1.03,1.03v12.75c0,.57-.46,1.03-1.03,1.03Z" fill="#90b854" stroke-width="0"/><path d="M27.23,60.44h-4.45c-1.27,0-2.3-.93-2.3-2.07v-1.12c0-.57.46-1.03,1.03-1.03s1.03.46,1.03,1.03v1.11s.09.03.25.03h4.45c.16,0,.25-.07.26-.09l-.02-1.05c0-.57.46-1.03,1.03-1.03s1.03.46,1.03,1.03v1.12c0,1.14-1.03,2.07-2.3,2.07Z" fill="#90b854" stroke-width="0"/><path d="M21.11,71.36s-.09,0-.14,0c-.56-.08-.96-.59-.88-1.15l1.46-10.89c.08-.56.59-.97,1.15-.88.56.08.96.59.88,1.15l-1.46,10.89c-.07.52-.51.89-1.02.89Z" fill="#90b854" stroke-width="0"/><path d="M28.94,71.36c-.51,0-.95-.38-1.02-.89l-1.45-10.89c-.08-.56.32-1.08.88-1.15.56-.09,1.08.32,1.15.88l1.45,10.89c.07.56-.32,1.08-.88,1.15-.05,0-.09,0-.14,0Z" fill="#90b854" stroke-width="0"/><path d="M25.28,44.29c-4.45,0-8.5-3.35-10.58-8.74-.2-.53.06-1.12.59-1.33s1.12.06,1.33.59c1.76,4.58,5.08,7.43,8.66,7.43s6.89-2.85,8.65-7.43c.2-.53.8-.79,1.33-.59.53.2.79.8.59,1.33-2.07,5.39-6.13,8.74-10.57,8.74Z" fill="#90b854" stroke-width="0"/><path d="M35.29,36.27c-.23,0-.46-.03-.69-.1-.54-.16-.85-.74-.69-1.28.16-.54.73-.85,1.28-.69.38.1,1.22-.52,1.59-1.74.21-.71.21-1.43-.01-1.93-.23-.52,0-1.13.52-1.36.52-.23,1.13,0,1.36.52.43.95.47,2.17.11,3.36-.58,1.93-2.01,3.22-3.46,3.22Z" fill="#90b854" stroke-width="0"/><path d="M15.55,29.52s-.07,0-.11,0c-.56-.06-.97-.57-.91-1.13l.16-1.52c.31-2.88,1.89-5.43,4.34-6.98.3-.19.67-.21.99-.06,3.83,1.8,8.2,2.22,12.31,1.2.34-.09.72,0,.97.24.25.24.39.58.33.93-.31,1.74.17,3.49,1.34,4.82.37.43.33,1.08-.09,1.45-.43.37-1.08.33-1.45-.09-1.25-1.42-1.93-3.21-1.94-5.07-3.98.71-8.09.23-11.79-1.37-1.66,1.23-2.73,3.09-2.95,5.16l-.16,1.52c-.06.53-.5.92-1.02.92Z" fill="#90b854" stroke-width="0"/><path d="M15.27,36.27c-1.44,0-2.88-1.28-3.46-3.22-.21-.71-.29-1.44-.21-2.12.05-.52.49-.93,1.02-.93.57,0,1.03.46,1.03,1.03h0s0,.08,0,.11c-.04.41,0,.87.14,1.32.37,1.22,1.2,1.85,1.59,1.74.54-.16,1.12.15,1.28.69.16.54-.15,1.12-.69,1.28-.23.07-.46.1-.69.1Z" fill="#90b854" stroke-width="0"/><path d="M12.62,32.06c-.44,0-.85-.29-.99-.74-.9-3.04-1.07-5.89-.51-8.46.09-.39,2.18-9.64,10.15-11.62,4.32-1.07,9.19.3,12.13,3.43.63.67,1.19,1.43,1.65,2.26.04.03.09.06.13.09,2.61,1.82,4.1,5,3.9,8.29-.04.64-.11,1.44-.18,2.22-.09,1.02-.18,2.07-.18,2.59,0,.57-.46,1.03-1.03,1.03s-1.03-.46-1.03-1.03c0-.6.09-1.65.19-2.77.07-.76.14-1.54.17-2.17.16-2.58-1-5.07-3.03-6.49-.07-.05-.13-.09-.16-.11-.18-.1-.37-.27-.47-.45-.4-.76-.89-1.46-1.46-2.06-2.44-2.6-6.52-3.74-10.14-2.84-6.74,1.68-8.57,9.72-8.64,10.06-.48,2.23-.32,4.74.47,7.45.16.54-.15,1.12-.7,1.28-.1.03-.19.04-.29.04Z" fill="#90b854" stroke-width="0"/><path d="M66.18,59.34h-5.22c-.57,0-1.03-.46-1.03-1.03s.46-1.03,1.03-1.03h5.22c1.37,0,2.64-.74,3.32-1.93.33-.58.5-1.23.5-1.9v-4.33c0-.51-.42-.93-.93-.93h-29.28c-.51,0-.93.42-.93.93v4.33c0,.67.17,1.32.5,1.9.68,1.19,1.96,1.93,3.32,1.93h5.22c.57,0,1.03.46,1.03,1.03s-.46,1.03-1.03,1.03h-5.22c-2.1,0-4.06-1.13-5.11-2.96-.51-.88-.78-1.89-.78-2.92v-4.33c0-1.64,1.34-2.98,2.98-2.98h29.28c1.65,0,2.98,1.34,2.98,2.98v4.33c0,1.02-.27,2.03-.77,2.92-1.04,1.83-3,2.96-5.11,2.96Z" fill="#90b854" stroke-width="0"/><path d="M68,71.51h-27.12c-1.89,0-3.42-1.54-3.42-3.42v-7.82c0-.57.46-1.03,1.03-1.03s1.03.46,1.03,1.03v7.82c0,.75.61,1.37,1.37,1.37h27.12c.76,0,1.37-.61,1.37-1.37v-7.82c0-.57.46-1.03,1.03-1.03s1.03.46,1.03,1.03v7.82c0,1.89-1.54,3.42-3.43,3.42Z" fill="#90b854" stroke-width="0"/><path d="M63.51,48.2c-.57,0-1.03-.46-1.03-1.03v-3.02c0-.69-.56-1.25-1.25-1.25h-13.58c-.69,0-1.25.56-1.25,1.25v3.02c0,.57-.46,1.03-1.03,1.03s-1.03-.46-1.03-1.03v-3.02c0-1.82,1.48-3.31,3.31-3.31h13.58c1.82,0,3.31,1.48,3.31,3.31v3.02c0,.57-.46,1.03-1.03,1.03Z" fill="#90b854" stroke-width="0"/><path d="M55.65,62.59h-2.42c-1.09,0-1.95-1.07-1.95-2.43v-3.68c0-1.36.86-2.43,1.95-2.43h2.42c1.09,0,1.95,1.07,1.95,2.43v3.68c0,1.36-.86,2.43-1.95,2.43ZM53.41,60.53h2.06c.03-.07.07-.2.07-.38v-3.68c0-.18-.04-.3-.07-.38h-2.06c-.03.07-.07.2-.07.38v3.68c0,.18.04.3.07.38Z" fill="#90b854" stroke-width="0"/></svg>