<?xml version="1.0" encoding="UTF-8"?><svg id="_ÎÓÈ_2" xmlns="http://www.w3.org/2000/svg" viewBox="0 0 72 72"><path d="M15.46,26.25c-.57,0-1.03.46-1.03,1.03v1.68c0,6.94,5.56,12.58,12.4,12.58s12.4-5.64,12.4-12.58v-1.68c0-.57-.46-1.03-1.03-1.03s-1.03.46-1.03,1.03v1.68c0,5.8-4.64,10.53-10.34,10.53s-10.35-4.72-10.35-10.53v-1.68c0-.57-.46-1.03-1.03-1.03Z" fill="#90b854" stroke-width="0"/><path d="M46.03,46.95c-2.69-.65-6.99-2.64-9.31-3.77-1.15-.56-2.52-.46-3.58.25l-5.25,3.54c-.64.43-1.46.43-2.1,0l-5.25-3.54c-1.06-.72-2.43-.81-3.58-.26-2.32,1.13-6.62,3.12-9.31,3.77-3.58.87-6.08,4.04-6.08,7.65l-1.13,16.21c-.04.57.39,1.06.95,1.1.57.05,1.06-.39,1.1-.95l1.13-16.28c0-2.73,1.85-5.08,4.51-5.73.24-.06.5-.13.75-.21v22.14c0,.57.46,1.03,1.03,1.03s1.03-.46,1.03-1.03v-22.83c1.43-.53,2.95-1.18,4.4-1.84v7.74c0,2.45,1.99,4.44,4.44,4.44h14.12c2.45,0,4.44-1.99,4.44-4.44v-7.74c1.45.66,2.98,1.31,4.41,1.84v22.83c0,.57.46,1.03,1.03,1.03s1.03-.46,1.03-1.03v-22.14c.25.07.51.15.74.21,2.65.64,4.51,3,4.51,5.8l1.13,16.21c.04.54.49.96,1.02.96.02,0,.05,0,.07,0,.57-.04.99-.53.95-1.1l-1.12-16.14c0-3.68-2.5-6.86-6.08-7.72ZM36.28,53.95c0,1.32-1.07,2.39-2.38,2.39h-14.12c-1.31,0-2.38-1.07-2.38-2.39v-8.7c.15-.07.31-.15.46-.22.49-.24,1.08-.2,1.53.11l5.25,3.54c1.34.9,3.06.9,4.4,0l5.25-3.54c.45-.31,1.04-.35,1.53-.11.15.07.31.15.46.22v8.7Z" fill="#90b854" stroke-width="0"/><path d="M23.29,14.16c.06.56.57.96,1.14.91.56-.06.97-.57.91-1.14l-.93-8.27c.03-.08.21-.23.52-.23h3.27c.31,0,.49.16.52.23l-.93,8.27c-.06.56.34,1.07.91,1.14.04,0,.08,0,.12,0,.52,0,.96-.39,1.02-.91l.94-8.36s0-.08,0-.12c0-1.27-1.16-2.31-2.58-2.31h-3.27c-1.42,0-2.58,1.03-2.58,2.31,0,.04,0,.08,0,.12l.94,8.36Z" fill="#90b854" stroke-width="0"/><path d="M14.02,24.81h25.07c1.71,0,3.1-1.39,3.1-3.09,0-1.23-.72-2.28-1.76-2.78-.19-5.15-2.87-9.87-7.11-12.4-.49-.29-1.12-.13-1.41.36s-.13,1.12.36,1.41c3.53,2.11,5.79,6.01,6.07,10.32h-.4c-2.39,0-4.8-.23-7.16-.68l-.45-.09c-2.5-.48-5.03-.48-7.53,0l-.31.06c-2.45.47-4.95.71-7.45.71h-.27c.28-4.31,2.53-8.21,6.07-10.32.49-.29.65-.92.36-1.41s-.92-.65-1.41-.36c-4.24,2.53-6.92,7.25-7.11,12.4-1.03.5-1.75,1.55-1.75,2.77,0,1.71,1.39,3.09,3.1,3.09ZM22.87,19.93l.31-.06c2.24-.43,4.51-.43,6.75,0l.45.09s0,0,0,0c2.48.48,5.02.72,7.55.72h1.16c.57,0,1.04.47,1.04,1.04s-.47,1.04-1.04,1.04H14.02c-.57,0-1.04-.47-1.04-1.04s.47-1.04,1.04-1.04h1.01c2.62,0,5.26-.25,7.83-.74Z" fill="#90b854" stroke-width="0"/><path d="M71.76,30.62l-4.64-.69c-.42-1.57-1.04-3.06-1.85-4.47l2.79-3.76c.3-.41.26-.98-.1-1.34l-4.45-4.45c-.36-.36-.93-.4-1.34-.1l-3.76,2.79c-1.4-.81-2.9-1.43-4.47-1.85l-.69-4.64c-.07-.5-.51-.88-1.02-.88h-6.29c-.51,0-.94.37-1.02.88l-.69,4.64c-.69.18-1.37.41-2.03.67-.53.21-.79.81-.58,1.33.21.53.81.79,1.33.58.78-.31,1.59-.56,2.42-.75.41-.09.73-.43.79-.85l.66-4.44h4.52l.66,4.44c.06.42.38.76.79.85,1.82.42,3.55,1.13,5.13,2.12.36.23.82.21,1.16-.04l3.6-2.67,3.2,3.2-2.67,3.6c-.25.34-.27.8-.04,1.16.99,1.58,1.71,3.31,2.12,5.13.09.41.43.73.85.79l4.44.66v4.52l-4.44.66c-.42.06-.76.38-.85.79-.42,1.82-1.13,3.54-2.12,5.13-.23.36-.21.82.04,1.16l2.67,3.6-3.2,3.2-3.6-2.68c-.34-.25-.8-.27-1.16-.04-.83.52-1.7.97-2.6,1.33-.53.21-.78.81-.57,1.34.21.52.81.78,1.34.57.79-.32,1.57-.7,2.32-1.13l3.76,2.79c.18.14.4.2.61.2.27,0,.53-.1.73-.3l4.45-4.45c.36-.36.4-.93.1-1.34l-2.79-3.76c.81-1.41,1.43-2.9,1.85-4.47l4.64-.69c.5-.07.88-.51.88-1.02v-6.29c0-.51-.37-.94-.88-1.02Z" fill="#90b854" stroke-width="0"/><path d="M52.42,45.09c-.54.17-.84.75-.66,1.29.14.44.54.71.98.71.1,0,.21-.02.32-.05,5.34-1.72,8.93-6.65,8.93-12.27,0-7.11-5.78-12.89-12.89-12.89-1.79,0-3.53.36-5.16,1.08-.52.23-.76.83-.53,1.35.23.52.83.76,1.35.53,1.37-.6,2.83-.9,4.34-.9,5.97,0,10.83,4.86,10.83,10.83,0,4.72-3.02,8.86-7.51,10.31Z" fill="#90b854" stroke-width="0"/></svg>