<?xml version="1.0" encoding="UTF-8"?><svg id="_ÎÓÈ_2" xmlns="http://www.w3.org/2000/svg" viewBox="0 0 72 72"><g id="NewGroup14-1"><path d="M57.84,65.76c0,1.77-1.44,3.21-3.21,3.21H16.88c-1.77,0-3.21-1.44-3.21-3.21V5.88c0-1.77,1.44-3.21,3.21-3.21h37.75c1.77,0,3.21,1.44,3.21,3.21v59.87h0ZM54.63.43H16.88c-3,0-5.45,2.45-5.45,5.45v59.87c0,3,2.44,5.45,5.45,5.45h37.75c3,0,5.45-2.44,5.45-5.45V5.88c0-3.01-2.44-5.45-5.45-5.45h0Z" fill="#90b854" stroke-width="0"/><path d="M25.78,59.68c0,.17-.14.32-.32.32h-3.91c-.17,0-.32-.14-.32-.32v-3.91c0-.17.14-.32.32-.32h3.91c.17,0,.32.14.32.32v3.91h0ZM25.46,53.22h-3.91c-1.41,0-2.55,1.14-2.55,2.55v3.91c0,1.41,1.14,2.55,2.55,2.55h3.91c1.41,0,2.55-1.15,2.55-2.55v-3.91c0-1.41-1.15-2.55-2.55-2.55h0Z" fill="#90b854" stroke-width="0"/><path d="M25.78,48.23c0,.17-.14.32-.32.32h-3.91c-.17,0-.32-.14-.32-.32v-3.91c0-.17.14-.32.32-.32h3.91c.17,0,.32.14.32.32v3.91h0ZM25.46,41.77h-3.91c-1.41,0-2.55,1.14-2.55,2.55v3.91c0,1.41,1.14,2.55,2.55,2.55h3.91c1.41,0,2.55-1.14,2.55-2.55v-3.91c0-1.41-1.15-2.55-2.55-2.55h0Z" fill="#90b854" stroke-width="0"/><path d="M50.27,36.78c0,.17-.14.32-.32.32h-3.91c-.17,0-.32-.14-.32-.32v-3.91c0-.17.14-.32.32-.32h3.91c.17,0,.32.14.32.32v3.91h0ZM49.95,30.32h-3.91c-1.41,0-2.55,1.14-2.55,2.55v3.91c0,1.41,1.15,2.55,2.55,2.55h3.91c1.41,0,2.55-1.14,2.55-2.55v-3.91c0-1.41-1.14-2.55-2.55-2.55h0Z" fill="#90b854" stroke-width="0"/><path d="M38.02,36.78c0,.17-.14.32-.32.32h-3.91c-.17,0-.32-.14-.32-.32v-3.91c0-.17.14-.32.32-.32h3.91c.17,0,.32.14.32.32v3.91h0ZM37.71,30.32h-3.91c-1.41,0-2.55,1.14-2.55,2.55v3.91c0,1.41,1.14,2.55,2.55,2.55h3.91c1.41,0,2.55-1.14,2.55-2.55v-3.91c0-1.41-1.14-2.55-2.55-2.55h0Z" fill="#90b854" stroke-width="0"/><path d="M38.02,48.23c0,.17-.14.32-.32.32h-3.91c-.17,0-.32-.14-.32-.32v-3.91c0-.17.14-.32.32-.32h3.91c.17,0,.32.14.32.32v3.91h0ZM37.71,41.77h-3.91c-1.41,0-2.55,1.14-2.55,2.55v3.91c0,1.41,1.14,2.55,2.55,2.55h3.91c1.41,0,2.55-1.14,2.55-2.55v-3.91c0-1.41-1.14-2.55-2.55-2.55h0Z" fill="#90b854" stroke-width="0"/><path d="M25.78,36.78c0,.17-.14.32-.32.32h-3.91c-.17,0-.32-.14-.32-.32v-3.91c0-.17.14-.32.32-.32h3.91c.17,0,.32.14.32.32v3.91h0ZM25.46,30.32h-3.91c-1.41,0-2.55,1.14-2.55,2.55v3.91c0,1.41,1.14,2.55,2.55,2.55h3.91c1.41,0,2.55-1.14,2.55-2.55v-3.91c0-1.41-1.15-2.55-2.55-2.55h0Z" fill="#90b854" stroke-width="0"/><path d="M38.02,59.68c0,.17-.14.32-.32.32h-3.91c-.17,0-.32-.14-.32-.32v-3.91c0-.17.14-.32.32-.32h3.91c.17,0,.32.14.32.32v3.91h0ZM37.71,53.22h-3.91c-1.41,0-2.55,1.14-2.55,2.55v3.91c0,1.41,1.14,2.55,2.55,2.55h3.91c1.41,0,2.55-1.15,2.55-2.55v-3.91c0-1.41-1.14-2.55-2.55-2.55h0Z" fill="#90b854" stroke-width="0"/><path d="M50.27,59.68c0,.17-.14.32-.32.32h-3.91c-.17,0-.32-.14-.32-.32v-15.36c0-.17.14-.32.32-.32h3.91c.17,0,.32.14.32.32v15.36h0ZM49.95,41.77h-3.91c-1.41,0-2.55,1.14-2.55,2.55v15.36c0,1.41,1.15,2.55,2.55,2.55h3.91c1.41,0,2.55-1.15,2.55-2.55v-15.36c0-1.41-1.14-2.55-2.55-2.55h0Z" fill="#90b854" stroke-width="0"/><path d="M50.27,23.07c0,.67-.54,1.21-1.21,1.21h-26.62c-.67,0-1.21-.54-1.21-1.21v-10.99c0-.67.54-1.21,1.21-1.21h26.62c.66,0,1.21.54,1.21,1.21v10.99h0ZM49.06,8.64h-26.62c-1.9,0-3.44,1.54-3.44,3.44v10.99c0,1.9,1.54,3.44,3.44,3.44h26.62c1.9,0,3.44-1.54,3.44-3.44v-10.99c0-1.9-1.54-3.44-3.44-3.44h0Z" fill="#90b854" stroke-width="0"/></g></svg>