<?xml version="1.0" encoding="UTF-8"?><svg id="_ÎÓÈ_2" xmlns="http://www.w3.org/2000/svg" viewBox="0 0 72 72"><path d="M48.35,23.6c-.57,0-1.03-.46-1.03-1.03,0-6.28-4.95-11.39-11.04-11.39s-11.04,5.11-11.04,11.39c0,.57-.46,1.03-1.03,1.03s-1.03-.46-1.03-1.03c0-7.42,5.88-13.45,13.1-13.45s13.1,6.03,13.1,13.45c0,.57-.46,1.03-1.03,1.03Z" fill="#90b854" stroke-width="0"/><path d="M60.75,45.21H11.9c-.57,0-1.03-.46-1.03-1.03v-4.97c0-.45.29-.84.72-.98l13.29-4.24v-4.46c0-.57.46-1.03,1.03-1.03s1.03.46,1.03,1.03v5.22c0,.45-.29.84-.72.98l-13.29,4.24v3.19h46.8v-3.19l-13.13-4.24c-.42-.14-.71-.53-.71-.98v-5.22c0-.57.46-1.03,1.03-1.03s1.03.46,1.03,1.03v4.47l13.13,4.24c.42.14.71.53.71.98v4.97c0,.57-.46,1.03-1.03,1.03Z" fill="#90b854" stroke-width="0"/><path d="M51,30.31h-29.45c-.57,0-1.03-.46-1.03-1.03v-6.46c0-.57.46-1.03,1.03-1.03h29.45c.57,0,1.03.46,1.03,1.03v6.46c0,.57-.46,1.03-1.03,1.03ZM22.58,28.25h27.4v-4.4h-27.4v4.4Z" fill="#90b854" stroke-width="0"/><path d="M15.28,55.89H2.48c-.57,0-1.03-.46-1.03-1.03v-5.22c0-.57.46-1.03,1.03-1.03h6.4c.57,0,1.03.46,1.03,1.03s-.46,1.03-1.03,1.03H3.51v3.16h11.77c.57,0,1.03.46,1.03,1.03s-.46,1.03-1.03,1.03Z" fill="#90b854" stroke-width="0"/><path d="M15.25,67.32c-.57,0-1.03-.46-1.03-1.03v-22.1c0-.57.46-1.03,1.03-1.03s1.03.46,1.03,1.03v22.1c0,.57-.46,1.03-1.03,1.03Z" fill="#90b854" stroke-width="0"/><path d="M6.14,67.32c-.57,0-1.03-.46-1.03-1.03v-11.43c0-.57.46-1.03,1.03-1.03s1.03.46,1.03,1.03v11.43c0,.57-.46,1.03-1.03,1.03Z" fill="#90b854" stroke-width="0"/><path d="M1.51,72.04c-.57,0-1.03-.46-1.03-1.03v-4.72c0-.57.46-1.03,1.03-1.03h34.76c.57,0,1.03.46,1.03,1.03s-.46,1.03-1.03,1.03H2.54v3.69c0,.57-.46,1.03-1.03,1.03Z" fill="#90b854" stroke-width="0"/><path d="M31.93,67.32c-.57,0-1.03-.46-1.03-1.03v-12.67c0-.57.46-1.03,1.03-1.03s1.03.46,1.03,1.03v12.67c0,.57-.46,1.03-1.03,1.03Z" fill="#90b854" stroke-width="0"/><path d="M70.16,55.89h-12.79c-.57,0-1.03-.46-1.03-1.03s.46-1.03,1.03-1.03h11.77v-3.16h-5.37c-.57,0-1.03-.46-1.03-1.03s.46-1.03,1.03-1.03h6.4c.57,0,1.03.46,1.03,1.03v5.22c0,.57-.46,1.03-1.03,1.03Z" fill="#90b854" stroke-width="0"/><path d="M57.39,67.32c-.57,0-1.03-.46-1.03-1.03v-22.1c0-.57.46-1.03,1.03-1.03s1.03.46,1.03,1.03v22.1c0,.57-.46,1.03-1.03,1.03Z" fill="#90b854" stroke-width="0"/><path d="M66.5,67.32c-.57,0-1.03-.46-1.03-1.03v-11.43c0-.57.46-1.03,1.03-1.03s1.03.46,1.03,1.03v11.43c0,.57-.46,1.03-1.03,1.03Z" fill="#90b854" stroke-width="0"/><path d="M71.13,72.04c-.57,0-1.03-.46-1.03-1.03v-3.69h-33.74c-.57,0-1.03-.46-1.03-1.03s.46-1.03,1.03-1.03h34.76c.57,0,1.03.46,1.03,1.03v4.72c0,.57-.46,1.03-1.03,1.03Z" fill="#90b854" stroke-width="0"/><path d="M46.99,54.65h-21.33c-.57,0-1.03-.46-1.03-1.03v-4.97c0-.57.46-1.03,1.03-1.03h21.33c.57,0,1.03.46,1.03,1.03v4.97c0,.57-.46,1.03-1.03,1.03ZM26.68,52.6h19.27v-2.91h-19.27v2.91Z" fill="#90b854" stroke-width="0"/><path d="M46.9,67.32c-.57,0-1.03-.46-1.03-1.03v-12.67c0-.57.46-1.03,1.03-1.03s1.03.46,1.03,1.03v12.67c0,.57-.46,1.03-1.03,1.03Z" fill="#90b854" stroke-width="0"/><path d="M40.71,67.32c-.57,0-1.03-.46-1.03-1.03v-12.67c0-.57.46-1.03,1.03-1.03s1.03.46,1.03,1.03v12.67c0,.57-.46,1.03-1.03,1.03Z" fill="#90b854" stroke-width="0"/><path d="M25.66,67.32c-.57,0-1.03-.46-1.03-1.03v-12.67c0-.57.46-1.03,1.03-1.03s1.03.46,1.03,1.03v12.67c0,.57-.46,1.03-1.03,1.03Z" fill="#90b854" stroke-width="0"/><path d="M36.28,11.18c-.57,0-1.03-.46-1.03-1.03V.47c0-.57.46-1.03,1.03-1.03s1.03.46,1.03,1.03v9.69c0,.57-.46,1.03-1.03,1.03Z" fill="#90b854" stroke-width="0"/><path d="M45.45,7.95h-9.17c-.57,0-1.03-.46-1.03-1.03V1.71c0-.57.46-1.03,1.03-1.03h9.17c.57,0,1.03.46,1.03,1.03v5.22c0,.57-.46,1.03-1.03,1.03ZM37.31,5.9h7.12v-3.16h-7.12v3.16Z" fill="#90b854" stroke-width="0"/><path d="M46.9,35.77h-21c-.57,0-1.03-.46-1.03-1.03s.46-1.03,1.03-1.03h21c.57,0,1.03.46,1.03,1.03s-.46,1.03-1.03,1.03Z" fill="#90b854" stroke-width="0"/></svg>