<?xml version="1.0" encoding="UTF-8"?><svg id="_ÎÓÈ_2" xmlns="http://www.w3.org/2000/svg" viewBox="0 0 72 72"><path d="M3.69,51.13c-.57,0-1.03-.46-1.03-1.03v-5.02c0-4.3,3.5-7.79,7.79-7.79h50.96c4.3,0,7.79,3.49,7.79,7.79v4.88c0,.57-.46,1.03-1.03,1.03s-1.03-.46-1.03-1.03v-4.88c0-3.16-2.57-5.74-5.74-5.74H10.45c-3.16,0-5.74,2.57-5.74,5.74v5.02c0,.57-.46,1.03-1.03,1.03Z" fill="#90b854" stroke-width="0"/><path d="M62.64,38.94c-.43,0-.83-.27-.98-.71l-4.4-13.29c-.59-1.79-2.25-2.99-4.13-2.99H18.73c-1.88,0-3.54,1.2-4.13,2.99l-4.38,13.29c-.18.54-.76.83-1.3.65-.54-.18-.83-.76-.65-1.3l4.38-13.29c.87-2.63,3.31-4.4,6.08-4.4h34.41c2.77,0,5.21,1.77,6.08,4.4l4.4,13.29c.18.54-.11,1.12-.65,1.3-.11.04-.22.05-.32.05Z" fill="#90b854" stroke-width="0"/><path d="M17.8,72.5h-6.52c-1.97,0-3.58-1.6-3.58-3.58v-4.73c0-.57.46-1.03,1.03-1.03s1.03.46,1.03,1.03v4.73c0,.84.68,1.52,1.52,1.52h6.52c.84,0,1.52-.68,1.52-1.52v-4.73c0-.57.46-1.03,1.03-1.03s1.03.46,1.03,1.03v4.73c0,1.97-1.6,3.58-3.58,3.58Z" fill="#90b854" stroke-width="0"/><path d="M60.59,72.5h-6.52c-1.97,0-3.58-1.6-3.58-3.58v-4.73c0-.57.46-1.03,1.03-1.03s1.03.46,1.03,1.03v4.73c0,.84.68,1.52,1.52,1.52h6.52c.84,0,1.52-.68,1.52-1.52v-4.73c0-.57.46-1.03,1.03-1.03s1.03.46,1.03,1.03v4.73c0,1.97-1.6,3.58-3.58,3.58Z" fill="#90b854" stroke-width="0"/><path d="M68.77,39.04h-5.73c-.57,0-1.03-.46-1.03-1.03s.46-1.03,1.03-1.03h5.73c.34,0,.61-.28.61-.62v-2.46c0-.34-.28-.62-.61-.62h-4.87c-.57,0-1.03-.46-1.03-1.03s.46-1.03,1.03-1.03h4.87c1.47,0,2.67,1.2,2.67,2.67v2.46c0,1.47-1.2,2.67-2.67,2.67Z" fill="#90b854" stroke-width="0"/><path d="M8.83,39.04H3.1c-1.47,0-2.67-1.2-2.67-2.67v-2.46c0-1.47,1.2-2.67,2.67-2.67h4.84c.57,0,1.03.46,1.03,1.03s-.46,1.03-1.03,1.03H3.1c-.34,0-.61.28-.61.62v2.46c0,.34.28.62.61.62h5.73c.57,0,1.03.46,1.03,1.03s-.46,1.03-1.03,1.03Z" fill="#90b854" stroke-width="0"/><path d="M67.94,62.5H3.92c-1.45,0-2.63-1.18-2.63-2.63v-5.07c0-1.45,1.18-2.63,2.63-2.63h64.02c1.45,0,2.63,1.18,2.63,2.63v5.07c0,1.45-1.18,2.63-2.63,2.63ZM3.92,54.23c-.31,0-.57.26-.57.57v5.07c0,.31.26.57.57.57h64.02c.31,0,.57-.26.57-.57v-5.07c0-.31-.26-.57-.57-.57H3.92Z" fill="#90b854" stroke-width="0"/><path d="M20.52,49.61h-10.73c-.57,0-1.03-.46-1.03-1.03v-5.25c0-.57.46-1.03,1.03-1.03h10.73c.57,0,1.03.46,1.03,1.03v5.25c0,.57-.46,1.03-1.03,1.03ZM10.81,47.56h8.68v-3.2h-8.68v3.2Z" fill="#90b854" stroke-width="0"/><path d="M62.08,49.61h-10.74c-.57,0-1.03-.46-1.03-1.03v-5.25c0-.57.46-1.03,1.03-1.03h10.74c.57,0,1.03.46,1.03,1.03v5.25c0,.57-.46,1.03-1.03,1.03ZM52.37,47.56h8.68v-3.2h-8.68v3.2Z" fill="#90b854" stroke-width="0"/><path d="M44.58,49.61c-.57,0-1.03-.46-1.03-1.03v-4.7h-15.25v4.7c0,.57-.46,1.03-1.03,1.03s-1.03-.46-1.03-1.03v-5.73c0-.57.46-1.03,1.03-1.03h17.31c.57,0,1.03.46,1.03,1.03v5.73c0,.57-.46,1.03-1.03,1.03Z" fill="#90b854" stroke-width="0"/><path d="M50.6,17.22h-29.33c-1.6,0-2.91-1.3-2.91-2.9v-4.64c0-1.6,1.3-2.91,2.91-2.91h29.33c1.6,0,2.91,1.3,2.91,2.91v4.64c0,1.6-1.3,2.9-2.91,2.9ZM21.26,8.83c-.47,0-.85.38-.85.85v4.64c0,.47.38.85.85.85h29.33c.47,0,.85-.38.85-.85v-4.64c0-.47-.38-.85-.85-.85h-29.33Z" fill="#90b854" stroke-width="0"/><path d="M30.42,17.22c-.57,0-1.03-.46-1.03-1.03V7.8c0-.57.46-1.03,1.03-1.03s1.03.46,1.03,1.03v8.39c0,.57-.46,1.03-1.03,1.03Z" fill="#90b854" stroke-width="0"/><path d="M41.45,17.22c-.57,0-1.03-.46-1.03-1.03V7.8c0-.57.46-1.03,1.03-1.03s1.03.46,1.03,1.03v8.39c0,.57-.46,1.03-1.03,1.03Z" fill="#90b854" stroke-width="0"/><path d="M22.64,21.67c-.57,0-1.03-.46-1.03-1.03v-4.44c0-.57.46-1.03,1.03-1.03s1.03.46,1.03,1.03v4.44c0,.57-.46,1.03-1.03,1.03Z" fill="#90b854" stroke-width="0"/><path d="M49.22,21.67c-.57,0-1.03-.46-1.03-1.03v-4.44c0-.57.46-1.03,1.03-1.03s1.03.46,1.03,1.03v4.44c0,.57-.46,1.03-1.03,1.03Z" fill="#90b854" stroke-width="0"/></svg>