<?xml version="1.0" encoding="UTF-8"?><svg id="_ÎÓÈ_2" xmlns="http://www.w3.org/2000/svg" viewBox="0 0 72 72"><path d="M64.7,1.33H24.84c-.87,0-1.58.71-1.58,1.58s.71,1.58,1.58,1.58h37.64c.35,0,.64.28.64.64v50.93c0,.35-.28.64-.64.64H12.67c-1.03,0-2.06.24-3.05.71-.09.04-.18.06-.27.06-.12,0-.24-.03-.34-.1-.19-.12-.3-.32-.3-.54V5.12c0-.35.28-.64.64-.64h6.64c.87,0,1.58-.71,1.58-1.58s-.71-1.58-1.58-1.58H7.13c-.87,0-1.58.71-1.58,1.58v58.31h0v2.6h0c.01,3.91,3.2,7.09,7.11,7.09h18.82c.87,0,1.58-.71,1.58-1.58s-.71-1.58-1.58-1.58H12.67c-2.18,0-3.96-1.78-3.96-3.96s1.78-3.96,3.96-3.96h23.25c.35,0,.64.28.64.64v8.86c0,.58.32,1.12.83,1.39.23.12.48.19.74.19.31,0,.62-.09.88-.26l5.41-3.61c.11-.07.23-.11.35-.11s.25.04.35.11l5.41,3.61c.26.17.56.26.87.26.26,0,.52-.06.74-.19.51-.28.83-.81.83-1.39v-8.86c0-.35.28-.64.64-.64h8.86c.35,0,.64.28.64.64v6.64c0,.35-.28.64-.64.64h-4.44c-.87,0-1.58.71-1.58,1.58s.71,1.58,1.58,1.58h6.65c.87,0,1.58-.71,1.58-1.58V2.91c0-.87-.71-1.58-1.58-1.58Z" fill="#90b854" stroke-width="0"/><path d="M29.27,48.77c-.87,0-1.58-.71-1.58-1.58s.71-1.58,1.58-1.58h4.43c.35,0,.64-.28.64-.64v-26.57c0-.35-.28-.64-.64-.64h-7.71c-.21,0-.41.11-.53.29-.12.18-.14.4-.05.6,0,0,5.32,12.41,5.32,12.42h0s.03.12.04.2c0,.05.02.11.02.16.01.06.03.13.05.19,0,.03.02.06.02.08v2.2c0,4.53-3.69,8.22-8.22,8.22s-8.22-3.69-8.22-8.22c0,0,0-2.21,0-2.22,0-.01.01-.04.02-.07.02-.06.03-.13.05-.19,0-.05.02-.11.02-.16,0-.07.02-.16.04-.19l6.62-15.44s.05-.08.08-.13c.01-.02.03-.04.05-.07.03-.03.05-.07.07-.1.03-.05.06-.1.09-.15.02-.03.03-.07.06-.09.05-.04.08-.06.11-.08.05-.03.1-.06.15-.09.04-.03.08-.06.12-.09.03-.02.06-.05.09-.06.03-.01.05-.03.07-.04.07-.02.16-.03.26-.05h.11c.07-.02.13-.04.2-.06.01,0,.03,0,.04-.01,0,0,11.05,0,11.05,0,.35,0,.64-.28.64-.64v-2.21c0-.87.71-1.58,1.58-1.58s1.58.71,1.58,1.58v2.21c0,.35.28.64.64.64h11.07c.07.03.13.04.2.05h.08c.12.03.23.04.31.07.02.01.05.03.07.04.02,0,.07.05.12.09.04.03.07.05.11.08.05.04.1.07.15.1.02.01.05.03.07.04.04.04.05.08.07.11.03.05.06.1.09.15.03.04.05.07.08.11.02.03.04.05.06.08.02.05.05.09.07.12,0,0,6.61,15.43,6.62,15.44h0s.03.12.04.19c0,.05.02.11.02.16.01.06.03.13.05.19,0,.03.02.06.02.08v2.2c0,4.53-3.69,8.22-8.22,8.22s-8.22-3.69-8.22-8.22c0,0,0-2.21,0-2.22,0-.01.01-.04.02-.07.02-.06.03-.13.05-.19,0-.05.02-.11.02-.16,0-.07.02-.16.04-.19l5.32-12.42c.08-.2.06-.42-.05-.6-.12-.18-.32-.29-.53-.29h-7.71c-.35,0-.64.28-.64.64v26.57c0,.35.28.64.64.64h4.43c.87,0,1.58.71,1.58,1.58s-.71,1.58-1.58,1.58h-13.29ZM44.77,33.27c-.35,0-.64.28-.64.64,0,2.79,2.27,5.06,5.06,5.06s5.06-2.27,5.06-5.06c0-.35-.28-.64-.64-.64h-8.86ZM18.2,33.27c-.35,0-.64.28-.64.64,0,2.79,2.27,5.06,5.06,5.06s5.06-2.27,5.06-5.06c0-.35-.28-.64-.64-.64h-8.86ZM49.2,21.18c-.25,0-.48.15-.58.39l-3.29,7.66c-.08.2-.06.42.05.6s.32.29.53.29h6.57c.21,0,.41-.11.53-.29.12-.18.14-.4.05-.6l-3.28-7.66c-.1-.23-.33-.39-.58-.39ZM22.63,21.18c-.25,0-.48.15-.58.39l-3.28,7.66c-.08.2-.06.42.05.6s.32.29.53.29h6.57c.21,0,.41-.11.53-.29s.14-.4.05-.6l-3.29-7.66c-.1-.23-.33-.39-.58-.39Z" fill="#90b854" stroke-width="0"/></svg>