<?xml version="1.0" encoding="UTF-8"?><svg id="_ÎÓÈ_2" xmlns="http://www.w3.org/2000/svg" viewBox="0 0 72 72"><path d="M67.56,32.08c.58,0,1.05-.47,1.05-1.05v-7.24c0-.58-.47-1.05-1.05-1.05h-1.96v-5.45c0-.39-.22-.75-.56-.93L36.16,1.18c-.31-.16-.67-.16-.98,0L6.3,16.36c-.35.18-.56.54-.56.93v5.45h-1.96c-.58,0-1.05.47-1.05,1.05v7.24c0,.58.47,1.05,1.05,1.05h7.39v25.65h-3.51c-.58,0-1.05.47-1.05,1.05v4.91h-2.83c-.58,0-1.05.47-1.05,1.05v5.96c0,.58.47,1.05,1.05,1.05h63.79c.58,0,1.05-.47,1.05-1.05v-5.96c0-.58-.47-1.05-1.05-1.05h-2.83v-4.91c0-.58-.47-1.05-1.05-1.05h-3.52v-25.65h7.39ZM7.83,17.93L35.67,3.29l27.84,14.63v4.82H7.83v-4.82ZM4.83,24.84h61.69v5.14H4.83v-5.14ZM38.37,57.73h-7.24v-25.57h7.24v25.57ZM29.04,32.08v25.65h-6.43v-25.65h6.43ZM13.27,32.16h7.24v25.57h-7.24v-25.57ZM66.51,69.65H4.83v-3.86h61.69v3.86ZM62.64,63.69H8.71v-3.86h53.93v3.86ZM50.84,57.73v-25.57h7.24v25.57h-7.24ZM48.74,57.73h-8.26v-25.65h8.26v25.65Z" fill="#90b854" stroke-width="0"/></svg>