<?xml version="1.0" encoding="UTF-8"?>
<svg id="_ÎÓÈ_2" data-name=" ÎÓÈ 2" xmlns="http://www.w3.org/2000/svg" version="1.1" viewBox="0 0 72 72">
  <defs>
    <style>
      .cls-1 {
        fill: #90b854;
        stroke-width: 0px;
      }

      .cls-2 {
        isolation: isolate;
      }
    </style>
  </defs>
  <g id="_" data-name=" ">
    <g class="cls-2">
      <path class="cls-1" d="M40.5.7v17.7c0,2.4,2,4.4,4.4,4.4h17.7v39.7c0,4.9-4,8.8-8.8,8.8H18.4c-4.9,0-8.8-4-8.8-8.8V9.5C9.6,4.6,13.5.7,18.4.7h22.1ZM18.4,31.6c-1.2,0-2.2,1-2.2,2.2v17.7c0,1.2,1,2.2,2.2,2.2s2.2-1,2.2-2.2v-4.4h1.1c4.3,0,7.7-3.5,7.7-7.7s-3.5-7.7-7.7-7.7h-3.3ZM21.7,42.6h-1.1v-6.6h1.1c1.8,0,3.3,1.5,3.3,3.3s-1.5,3.3-3.3,3.3ZM31.7,51.4c0,1.2,1,2.2,2.2,2.2h3.3c3.7,0,6.6-3,6.6-6.6v-8.8c0-3.7-3-6.6-6.6-6.6h-3.3c-1.2,0-2.2,1-2.2,2.2v17.7ZM36.1,36h1.1c1.2,0,2.2,1,2.2,2.2v8.8c0,1.2-1,2.2-2.2,2.2h-1.1v-13.2ZM44.9.7l17.7,17.7h-17.7V.7ZM49.3,31.6c-1.2,0-2.2,1-2.2,2.2v17.7c0,1.2,1,2.2,2.2,2.2s2.2-1,2.2-2.2v-6.6h4.4c1.2,0,2.2-1,2.2-2.2s-1-2.2-2.2-2.2h-4.4v-4.4h4.4c1.2,0,2.2-1,2.2-2.2s-1-2.2-2.2-2.2h-6.6Z"/>
    </g>
  </g>
</svg>