<?xml version="1.0" encoding="UTF-8"?><svg id="_ÎÓÈ_2" xmlns="http://www.w3.org/2000/svg" viewBox="0 0 72 72"><path d="M25.15,70.95c-1.73,0-3.28-1.03-3.95-2.61l-3.48-8.21c-.16-.38-.54-.63-.95-.63h-7.13c-1.76,0-3.46-.73-4.66-2.01-1.17-1.24-1.81-2.93-1.75-4.64l-.06-17.27c0-1.88.72-3.64,2.04-4.97,1.32-1.33,3.08-2.06,4.96-2.07h.02c2.17,0,4.18.98,5.51,2.68l3.84,4.89h6.96c2.02,0,3.67,1.65,3.67,3.67s-1.65,3.67-3.67,3.67h-10.39v7.24h4.05c2.77,0,5.17,1.78,5.98,4.43l3.12,10.27c.4,1.31.16,2.7-.66,3.8s-2.07,1.74-3.45,1.74ZM10.18,30.6h-.01c-1.33,0-2.57.52-3.51,1.46-.93.94-1.45,2.19-1.44,3.51l.06,17.31c-.04,1.2.39,2.35,1.19,3.19.82.87,1.98,1.37,3.17,1.37h7.13c1.24,0,2.36.74,2.84,1.88l3.48,8.21c.35.83,1.16,1.36,2.06,1.36.72,0,1.37-.33,1.8-.91.43-.57.55-1.3.34-1.98h0l-3.12-10.27c-.54-1.78-2.15-2.98-4.01-2.98h-5.08c-.57,0-1.03-.46-1.03-1.03v-9.3c0-.57.46-1.03,1.03-1.03h11.42c.89,0,1.61-.72,1.61-1.62s-.72-1.62-1.61-1.62h-7.46c-.32,0-.61-.14-.81-.39l-4.15-5.29c-.95-1.21-2.37-1.9-3.9-1.9Z" fill="#90b854" stroke-width="0"/><path d="M15.08,43.46c-.27,0-.54-.1-.74-.31l-4.23-4.35c-.4-.41-.39-1.06.02-1.45.41-.39,1.06-.39,1.45.02l4.23,4.35c.4.41.39,1.06-.02,1.45-.2.19-.46.29-.72.29Z" fill="#90b854" stroke-width="0"/><path d="M11.33,28.1c-3.71,0-6.73-3.02-6.73-6.73s3.02-6.73,6.73-6.73,6.73,3.02,6.73,6.73-3.02,6.73-6.73,6.73ZM11.33,16.7c-2.58,0-4.68,2.1-4.68,4.68s2.1,4.68,4.68,4.68,4.67-2.1,4.67-4.68-2.1-4.68-4.67-4.68Z" fill="#90b854" stroke-width="0"/><path d="M47.34,70.95c-1.36,0-2.63-.67-3.41-1.79-.77-1.12-.95-2.54-.47-3.82h0l3.46-9.15c1.24-3.28,4.43-5.49,7.93-5.49h1.43v-7.24h-10.39c-2.02,0-3.67-1.65-3.67-3.67s1.65-3.67,3.67-3.67h6.96l3.84-4.89c1.34-1.7,3.35-2.68,5.51-2.68h.02c1.88,0,3.64.74,4.96,2.07,1.32,1.33,2.05,3.09,2.04,4.97l-.06,17.31c.06,1.67-.58,3.36-1.75,4.6-1.21,1.28-2.91,2.01-4.66,2.01h-7c-.49,0-.94.29-1.13.75l-3.47,8.18c-.65,1.53-2.15,2.52-3.81,2.52ZM45.39,66.07h0c-.25.65-.16,1.35.24,1.92.4.57,1.02.9,1.72.9.84,0,1.59-.5,1.92-1.27l3.47-8.18c.52-1.22,1.7-2,3.02-2h7c1.19,0,2.35-.5,3.17-1.37.8-.84,1.23-1.99,1.19-3.15l.06-17.35c0-1.33-.51-2.57-1.44-3.51-.94-.94-2.18-1.46-3.51-1.46h-.01c-1.53,0-2.95.69-3.9,1.9l-4.15,5.29c-.19.25-.49.39-.81.39h-7.46c-.89,0-1.61.72-1.61,1.62s.72,1.62,1.61,1.62h11.42c.57,0,1.03.46,1.03,1.03v9.3c0,.57-.46,1.03-1.03,1.03h-2.46c-2.66,0-5.07,1.67-6.01,4.16l-3.46,9.15Z" fill="#90b854" stroke-width="0"/><path d="M57.32,43.46c-.26,0-.52-.1-.72-.29-.41-.4-.42-1.05-.02-1.45l4.23-4.35c.4-.41,1.05-.42,1.45-.02.41.4.42,1.05.02,1.45l-4.23,4.35c-.2.21-.47.31-.74.31Z" fill="#90b854" stroke-width="0"/><path d="M61.06,28.1c-3.71,0-6.73-3.02-6.73-6.73s3.02-6.73,6.73-6.73,6.73,3.02,6.73,6.73-3.02,6.73-6.73,6.73ZM61.06,16.7c-2.58,0-4.67,2.1-4.67,4.68s2.1,4.68,4.67,4.68,4.68-2.1,4.68-4.68-2.1-4.68-4.68-4.68Z" fill="#90b854" stroke-width="0"/><path d="M54.66,48.8H17.74c-.57,0-1.03-.46-1.03-1.03s.46-1.03,1.03-1.03h36.92c.57,0,1.03.46,1.03,1.03s-.46,1.03-1.03,1.03Z" fill="#90b854" stroke-width="0"/><path d="M40.29,43.46h-8.36c-.57,0-1.03-.46-1.03-1.03s.46-1.03,1.03-1.03h8.36c.57,0,1.03.46,1.03,1.03s-.46,1.03-1.03,1.03Z" fill="#90b854" stroke-width="0"/><path d="M38.73,71.22h-5.18c-.57,0-1.03-.46-1.03-1.03v-22.15c0-.57.46-1.03,1.03-1.03s1.03.46,1.03,1.03v21.12h3.12v-21.12c0-.57.46-1.03,1.03-1.03s1.03.46,1.03,1.03v22.15c0,.57-.46,1.03-1.03,1.03Z" fill="#90b854" stroke-width="0"/><path d="M50.03,25.47c-.2,0-.39-.06-.56-.17l-10.2-6.71h-4.55c-2.51,0-4.56-2.04-4.56-4.55V5c0-2.51,2.04-4.55,4.56-4.55h14c2.51,0,4.56,2.04,4.56,4.55v9.04c0,2.09-1.42,3.86-3.34,4.39l1.11,5.82c.08.41-.09.82-.44,1.05-.17.12-.37.17-.57.17ZM34.71,2.5c-1.38,0-2.5,1.12-2.5,2.5v9.04c0,1.38,1.12,2.5,2.5,2.5h4.86c.2,0,.4.06.56.17l8.42,5.54-.86-4.49c-.06-.3.02-.61.22-.85.2-.24.49-.37.79-.37,1.38,0,2.5-1.12,2.5-2.5V5c0-1.38-1.12-2.5-2.5-2.5h-14Z" fill="#90b854" stroke-width="0"/><path d="M22.87,29.47c-.2,0-.4-.06-.57-.17-.34-.23-.52-.64-.44-1.05l1.11-5.82c-1.93-.53-3.34-2.3-3.34-4.39v-9.04c0-2.51,2.04-4.55,4.56-4.55h2.01c.57,0,1.03.46,1.03,1.03s-.46,1.03-1.03,1.03h-2.01c-1.38,0-2.5,1.12-2.5,2.5v9.04c0,1.38,1.12,2.5,2.5,2.5.31,0,.6.14.79.37.2.24.27.55.22.85l-.86,4.49,8.42-5.54c.17-.11.36-.17.56-.17h4.06c.57,0,1.03.46,1.03,1.03s-.46,1.03-1.03,1.03h-3.75l-10.2,6.71c-.17.11-.37.17-.56.17Z" fill="#90b854" stroke-width="0"/></svg>