<?xml version="1.0" encoding="UTF-8"?><svg id="_ÎÓÈ_2" xmlns="http://www.w3.org/2000/svg" viewBox="0 0 72 72"><path d="M19.29,66.88c-.54,0-.99-.42-1.02-.97-.09-1.62-1.06-3.07-2.53-3.78l-6.02-2.91c-1.27-.61-2.29-1.66-2.89-2.94L1,43.73c-.23-.45-.39-.98-.44-1.52-.17-1.66.78-3.13,2.37-3.68,1.54-.52,3.15.05,4.01,1.43l.09.16,3.55,6.33c.28.5.1,1.12-.39,1.4-.49.28-1.12.1-1.4-.39l-3.55-6.33c-.57-.93-1.4-.73-1.65-.65-.51.17-1.07.68-.98,1.52.03.29.11.57.24.83l5.85,12.59c.39.85,1.07,1.54,1.92,1.95l6.02,2.91c2.14,1.04,3.55,3.15,3.68,5.51.03.57-.4,1.05-.97,1.09-.02,0-.04,0-.06,0Z" fill="#90b854" stroke-width="0"/><path d="M30.77,65.01c-.48,0-.91-.34-1.01-.83l-1.43-7.26c-.3-1.4-1.27-2.58-2.6-3.14-1.06-.44-2.23-.46-3.3-.05l-.44.17c-.77.3-1.63.24-2.35-.16l-6.65-3.67c-.48-.27-1.09-.09-1.35.39-.13.23-.16.5-.09.76.07.26.24.47.48.6l7.37,4.07c.5.27.68.9.4,1.4-.27.5-.9.68-1.4.4l-7.37-4.07c-.71-.39-1.23-1.04-1.46-1.83-.23-.78-.13-1.61.26-2.32.81-1.47,2.67-2.01,4.15-1.2l6.65,3.67c.19.1.41.12.62.04l.44-.17c1.57-.6,3.29-.58,4.83.08,1.95.82,3.38,2.55,3.82,4.62l1.43,7.27c.11.56-.25,1.1-.81,1.21-.07.01-.13.02-.2.02Z" fill="#90b854" stroke-width="0"/><path d="M18.66,71.43c-.5,0-.94-.37-1.02-.88l-.41-2.85c-.2-1.39.76-2.7,2.15-2.92l11.76-1.9c.69-.11,1.38.05,1.94.47.56.41.93,1.02,1.03,1.71l.41,2.8c.08.56-.31,1.08-.87,1.17-.56.07-1.08-.31-1.16-.87l-.41-2.8c-.03-.19-.14-.3-.21-.35-.07-.05-.21-.13-.4-.1l-11.76,1.9c-.28.05-.48.31-.44.6l.41,2.85c.08.56-.31,1.08-.87,1.17-.05,0-.1.01-.15.01Z" fill="#90b854" stroke-width="0"/><path d="M52.89,66.88s-.04,0-.06,0c-.57-.03-1-.52-.97-1.08.14-2.37,1.55-4.48,3.68-5.51l6.02-2.91c.84-.41,1.52-1.1,1.92-1.95l5.83-12.56c.15-.3.23-.57.26-.86.09-.85-.48-1.35-.98-1.53-.24-.08-1.07-.29-1.6.56l-3.6,6.41c-.28.5-.91.67-1.4.39-.5-.28-.67-.9-.39-1.4l3.65-6.49c.85-1.38,2.47-1.95,4-1.42,1.58.54,2.54,2.02,2.37,3.68-.05.54-.21,1.06-.46,1.55l-5.82,12.52c-.59,1.28-1.62,2.32-2.89,2.93l-6.02,2.91c-1.46.71-2.43,2.16-2.53,3.78-.03.55-.48.97-1.02.97Z" fill="#90b854" stroke-width="0"/><path d="M41.4,65.01c-.07,0-.13,0-.2-.02-.56-.11-.92-.65-.81-1.21l1.43-7.26c.44-2.09,1.87-3.81,3.82-4.64,1.55-.65,3.26-.68,4.83-.08l.44.17c.2.08.43.06.62-.04l6.65-3.67c1.48-.81,3.33-.28,4.15,1.2.39.71.49,1.54.26,2.32-.23.78-.74,1.43-1.46,1.83l-7.37,4.07c-.5.27-1.12.09-1.4-.4-.27-.5-.09-1.12.4-1.4l7.37-4.07c.23-.13.4-.34.48-.6.07-.26.04-.53-.09-.76-.27-.48-.88-.66-1.35-.39l-6.65,3.67c-.73.4-1.58.46-2.35.16l-.44-.17c-1.07-.41-2.24-.39-3.3.05-1.33.56-2.31,1.74-2.6,3.15l-1.42,7.24c-.1.49-.53.83-1.01.83Z" fill="#90b854" stroke-width="0"/><path d="M53.52,71.43s-.1,0-.15-.01c-.56-.08-.95-.6-.87-1.17l.41-2.85c.04-.28-.16-.55-.44-.6l-11.76-1.9c-.19-.03-.33.05-.4.1-.07.05-.18.16-.21.35l-.41,2.8c-.08.56-.61.95-1.16.87-.56-.08-.95-.6-.87-1.17l.41-2.8c.1-.69.46-1.3,1.03-1.71s1.25-.58,1.94-.47l11.76,1.9c1.38.22,2.35,1.54,2.15,2.92l-.41,2.85c-.07.51-.51.88-1.02.88Z" fill="#90b854" stroke-width="0"/><path d="M65.72,37.55c-.57,0-1.03-.46-1.03-1.03v-2.52c0-1.59-1.3-2.89-2.89-2.89-.72,0-1.36.23-1.91.67-1.44,1.16-3.33,1.79-5.33,1.79-1,0-1.98-.16-2.9-.47-.54-.18-.82-.77-.64-1.3.18-.54.77-.82,1.31-.64.71.24,1.46.37,2.24.37,1.53,0,2.96-.48,4.04-1.34.91-.73,2.02-1.12,3.14-1.12,2.78,0,5,2.22,5,4.95v2.52c0,.57-.46,1.03-1.03,1.03Z" fill="#90b854" stroke-width="0"/><path d="M54.56,29.62c-3.7,0-6.71-3.01-6.71-6.71s3.01-6.71,6.71-6.71,6.71,3.01,6.71,6.71-3.01,6.71-6.71,6.71ZM54.56,18.26c-2.57,0-4.65,2.09-4.65,4.65s2.09,4.66,4.65,4.66,4.65-2.09,4.65-4.66-2.09-4.65-4.65-4.65Z" fill="#90b854" stroke-width="0"/><path d="M50,44.78c-.57,0-1.03-.46-1.03-1.03v-12.01c0-2.13-1.73-3.86-3.86-3.86-.94,0-1.82.32-2.54.89-1.76,1.41-4.06,2.18-6.49,2.18s-4.73-.77-6.49-2.18c-.72-.58-1.6-.89-2.47-.89-2.2,0-3.93,1.73-3.93,3.86v12.01c0,.57-.46,1.03-1.03,1.03s-1.03-.46-1.03-1.03v-12.01c0-3.26,2.65-5.92,5.92-5.92,1.41,0,2.74.48,3.82,1.35,1.39,1.12,3.24,1.73,5.2,1.73s3.81-.62,5.2-1.73c1.08-.87,2.42-1.35,3.76-1.35,3.33,0,5.98,2.65,5.98,5.92v12.01c0,.57-.46,1.03-1.03,1.03Z" fill="#90b854" stroke-width="0"/><path d="M28.83,48.48c-.57,0-1.03-.46-1.03-1.03v-8.35c0-.57.46-1.03,1.03-1.03s1.03.46,1.03,1.03v8.35c0,.57-.46,1.03-1.03,1.03Z" fill="#90b854" stroke-width="0"/><path d="M43.97,48.48c-.57,0-1.03-.46-1.03-1.03v-8.35c0-.57.46-1.03,1.03-1.03s1.03.46,1.03,1.03v8.35c0,.57-.46,1.03-1.03,1.03Z" fill="#90b854" stroke-width="0"/><path d="M36.09,26.02c-4.48,0-8.12-3.64-8.12-8.12s3.64-8.12,8.12-8.12,8.12,3.64,8.12,8.12-3.64,8.12-8.12,8.12ZM36.09,11.83c-3.34,0-6.06,2.72-6.06,6.06s2.72,6.06,6.06,6.06,6.06-2.72,6.06-6.06-2.72-6.06-6.06-6.06Z" fill="#90b854" stroke-width="0"/><path d="M6.46,37.55c-.57,0-1.03-.46-1.03-1.03v-2.52c0-2.73,2.22-4.95,4.95-4.95,1.17,0,2.29.4,3.19,1.12,1.08.87,2.51,1.35,4.04,1.35.78,0,1.53-.12,2.24-.37.54-.18,1.12.1,1.31.64.18.54-.1,1.12-.64,1.31-.92.32-1.9.48-2.91.48-2,0-3.89-.64-5.33-1.8-.55-.44-1.19-.67-1.85-.67-1.65,0-2.94,1.3-2.94,2.89v2.52c0,.57-.46,1.03-1.03,1.03Z" fill="#90b854" stroke-width="0"/><path d="M17.61,29.62c-3.7,0-6.71-3.01-6.71-6.71s3.01-6.71,6.71-6.71,6.71,3.01,6.71,6.71-3.01,6.71-6.71,6.71ZM17.61,18.26c-2.57,0-4.65,2.09-4.65,4.65s2.09,4.66,4.65,4.66,4.65-2.09,4.65-4.66-2.09-4.65-4.65-4.65Z" fill="#90b854" stroke-width="0"/></svg>