<?xml version="1.0" encoding="UTF-8"?><svg id="_ÎÓÈ_2" xmlns="http://www.w3.org/2000/svg" viewBox="0 0 89.42 72"><g id="Group_4536"><g id="Group_4535"><path id="Path_17890" d="M45.09,50.56l.18-.32,2.09-3.95c-.99-2.35-1.8-4.76-2.44-7.21-.59,2.41-1.32,4.78-2.19,7.12l2.17,4.04.19.33ZM65.01,18.96v12.52h-6.1l6.1-12.52ZM72.34,31.48h-6.1v-12.52l6.1,12.52ZM25.18,18.96v12.52h6.1l-6.1-12.52ZM17.85,31.48h6.1v-12.52l-6.1,12.52ZM45.09,15.72c1.36-.06,2.41-1.13,2.35-2.4.11-1.21-.85-2.28-2.15-2.39s-2.45.79-2.56,2c-.01.13-.01.26,0,.39-.06,1.27,1,2.34,2.35,2.4M45.09,57.36l3.1-5.46,2.89-5.46c-4.25-9.04-5.43-19.07-3.38-28.75,1.53-.99,2.44-2.63,2.41-4.37,0-.44-.05-.87-.16-1.29,1.02-.81,2.32-1.24,3.66-1.2.77-.04,1.53.06,2.26.27.74.22,1.44.55,2.06.98.74.63,1.37,1.36,1.89,2.16,1.21,1.64,2.45,3.31,4.27,3.77l-6.56,13.49h-.97c.63,4.26,4.46,7.48,9.07,7.63,4.61-.15,8.44-3.37,9.07-7.63h-.97l-6.7-13.74c.97-.38,1.79-1.03,2.34-1.87.61-.92.9-1.98.85-3.06-.04-1.07-.43-2.11-1.12-2.97-.2-.25-.43-.49-.68-.7-.2-1.07-1.17-1.86-2.32-1.89-1.37.06-2.44,1.14-2.38,2.42-.06,1.28,1.01,2.37,2.38,2.43.25,0,.5-.04.73-.12.42.65.41,1.46-.01,2.1-.22.33-.54.58-.93.72-.08.03-.16.05-.25.07v-.02s-.03.03-.03.03c-1.27.22-2.3-1.18-3.32-2.54-.7-1.07-1.58-2.04-2.61-2.86-.89-.63-1.9-1.11-2.97-1.43-1.05-.3-2.16-.43-3.26-.38-1.74.09-3.42.63-4.86,1.55-.1.06-.19.12-.29.19-.4-.34-.86-.63-1.36-.83,1-.68,1.59-1.78,1.57-2.94.17-1.77-1.23-3.33-3.13-3.48-1.9-.16-3.57,1.15-3.73,2.92-.02.19-.02.38,0,.56-.02,1.16.57,2.25,1.57,2.94-.5.2-.96.49-1.36.83-.09-.06-.19-.13-.29-.19-1.44-.92-3.12-1.45-4.86-1.54-1.1-.05-2.2.08-3.26.38-1.07.31-2.07.79-2.97,1.42-1.03.82-1.91,1.78-2.61,2.85-1.01,1.37-2.04,2.76-3.32,2.54v-.02s-.03.02-.03.02c-.08-.02-.17-.04-.25-.07-.39-.14-.71-.39-.93-.72-.43-.64-.43-1.45-.01-2.1.24.08.48.12.73.12,1.38-.06,2.44-1.15,2.38-2.43.06-1.28-1.01-2.37-2.38-2.43-1.16.04-2.13.83-2.32,1.89-.25.21-.48.44-.68.7-.69.86-1.08,1.9-1.12,2.97-.05,1.08.25,2.14.85,3.06.55.84,1.37,1.49,2.34,1.87l-6.69,13.74h-.97c.63,4.26,4.46,7.48,9.07,7.63,4.61-.15,8.44-3.37,9.07-7.63h-.97l-6.56-13.48c1.82-.45,3.05-2.12,4.27-3.77.52-.8,1.16-1.53,1.89-2.16.62-.44,1.32-.77,2.06-.98.73-.21,1.5-.3,2.26-.27,1.34-.04,2.64.39,3.66,1.2-.11.42-.16.86-.16,1.29-.02,1.7.84,3.31,2.32,4.31,1.81,9.6.45,19.2-3.34,28.81l2.94,5.46,3.09,5.46Z" fill="#90b854" fill-rule="evenodd" stroke-width="0"/><path id="Path_17891" d="M7.86,10.34C.83,28.13,4.43,45.03,20.38,55.23c2.14,1.35,4.36,2.58,6.65,3.68,6.16,3.01,12.38,5.23,17.03,7.95,2.32,1.25,4.33,2.94,5.88,4.98l.33-.25c-1.59-2.08-3.65-3.82-6.02-5.09-4.68-2.72-10.91-4.93-17.08-7.92-2.28-1.09-4.5-2.31-6.63-3.65C4.73,44.87,1.09,28.11,8.06,10.4l-.2-.06Z" fill="#90b854" stroke-width="0"/><path id="Path_17892" d="M32.74,54.3c.93.61,1.82,1.28,2.67,1.99,3.45,2.98,3.56,5.02,3.15,6.78-2.38-1.9-5.53-2.66-5.82-8.78" fill="#90b854" stroke-width="0"/><path id="Path_17893" d="M27.06,51.89c2.85,2.2,6.06,4.96,5.41,8.57-.35-.24-1.21-.75-2.1-1.43-.93-.66-1.71-1.49-2.29-2.43-.75-1.47-1.1-3.09-1.02-4.71" fill="#90b854" stroke-width="0"/><path id="Path_17894" d="M21.87,49.1c2.85,2.71,5.18,5.48,4.61,8.63-2.82-1.92-5.37-4.04-4.61-8.63" fill="#90b854" stroke-width="0"/><path id="Path_17895" d="M17.35,45.72c2.61,3.39,4,6.21,3.4,8.82-3.04-2.37-4.7-5.14-3.4-8.82" fill="#90b854" stroke-width="0"/><path id="Path_17896" d="M13.68,41.63c1.31,2.58,2.73,6.26,1.81,9-3.23-3.42-3.34-6.55-1.81-9" fill="#90b854" stroke-width="0"/><path id="Path_17897" d="M11,36.77c.72,2.75,1.33,6.51.03,9.03-1.91-3.04-2.51-6.5-.03-9.03" fill="#90b854" stroke-width="0"/><path id="Path_17898" d="M9.34,31.21c.29,2.66.07,6.62-1.6,8.86-1.66-4.79-.16-7.65,1.6-8.86" fill="#90b854" stroke-width="0"/><path id="Path_17899" d="M8.76,25.31c-.05.8-.15,1.6-.31,2.39-.29,2.19-1.23,4.27-2.7,6-.75-5,1.05-7.49,3.01-8.39" fill="#90b854" stroke-width="0"/><path id="Path_17900" d="M9.23,19.23c-.32,1.86-1.57,5.71-4.17,7.79.11-5.09,2.26-7.26,4.17-7.79" fill="#90b854" stroke-width="0"/><path id="Path_17901" d="M10.63,13.16c-.79,2.84-2.57,5.36-5.07,7.14.64-3.15,1.95-6.71,5.07-7.14" fill="#90b854" stroke-width="0"/><path id="Path_17902" d="M12.83,7.24c-1.04,2.72-3.07,5.02-5.73,6.5.54-1.53,2.1-6.45,5.73-6.5" fill="#90b854" stroke-width="0"/><path id="Path_17903" d="M13.36,0c-.77,2.53-2.8,8.09-5,9.46-.16-2.47,1.12-6.13,5-9.46" fill="#90b854" stroke-width="0"/><path id="Path_17904" d="M27.34,66.13c1.11.32,2.24.56,3.4.71,4.45.52,5.96-.93,6.89-2.37-.56-.1-3.91-1.16-5.99-.65-1.6.46-3.07,1.25-4.3,2.31" fill="#90b854" stroke-width="0"/><path id="Path_17905" d="M20.43,62.35c1.1.44,2.25.79,3.42,1.05,1.47.33,2.99.33,4.46.01,1.11-.31,2.04-1,2.61-1.94-.31-.05-1.27-.36-2.41-.62-1.14-.3-2.34-.41-3.52-.31-1.63.31-3.18.92-4.55,1.8" fill="#90b854" stroke-width="0"/><path id="Path_17906" d="M13.67,57.58c1.04.64,2.14,1.18,3.3,1.61,4.22,1.52,6.12.37,7.31-.97-.62-.16-3.79-1.58-5.77-1.58-1.66.06-3.29.38-4.83.95" fill="#90b854" stroke-width="0"/><path id="Path_17907" d="M7.63,51.39c.88.88,1.86,1.67,2.92,2.36,3.74,2.35,5.94,1.69,7.4.53-2.71-1.22-3.66-3.18-10.33-2.89" fill="#90b854" stroke-width="0"/><path id="Path_17908" d="M3.08,43.74c2.03,3.51,5.55,7.15,9.25,5.52-2.93-2.23-2.77-3.8-9.25-5.52" fill="#90b854" stroke-width="0"/><path id="Path_17909" d="M.59,35.34c.32,1.16.76,2.28,1.32,3.36,2.01,3.84,4.15,4.56,6.05,4.35-2.19-2.79-1.49-4.27-7.37-7.71" fill="#90b854" stroke-width="0"/><path id="Path_17910" d="M0,26.73c.28,3.95,1.48,8.45,5.25,9.18-1.35-3.11-.41-4.4-5.25-9.18" fill="#90b854" stroke-width="0"/><path id="Path_17911" d="M1.11,18.36c-.5,3.85-.28,8.27,3.1,9.98-.57-3.41.45-4.53-3.1-9.98" fill="#90b854" stroke-width="0"/><path id="Path_17912" d="M3.57,10.5c-1.13,3.6-1.67,7.8,1.14,10.23.14-3.21,1.3-4.33-1.14-10.23" fill="#90b854" stroke-width="0"/><path id="Path_17913" d="M7.09,3.22c-1.62,3.31-2.78,7.19-.56,10.13.66-3.18,1.99-3.77.56-10.13" fill="#90b854" stroke-width="0"/><path id="Path_17914" d="M81.88,10.49c7.67,19.26,3.32,37.28-18.92,48.23-2.21,1.08-4.38,2.05-6.44,2.95-7.83,3.43-13.33,5.75-16.51,10.09l.33.25c3.31-4.54,9.89-7.15,16.32-9.99,2.06-.91,4.23-1.88,6.45-2.98,22.06-10.93,26.87-28.97,18.96-48.65l-.19.1Z" fill="#90b854" stroke-width="0"/><path id="Path_17915" d="M62.43,66.27c-1.11.32-2.24.55-3.39.7-1.46.2-2.94.1-4.35-.3-1.09-.37-1.99-1.11-2.53-2.07.31-.05,1.29-.35,2.46-.56,1.15-.26,2.35-.29,3.52-.09,1.6.46,3.06,1.26,4.29,2.32" fill="#90b854" stroke-width="0"/><path id="Path_17916" d="M68.57,62.88c-2.41.89-5.14,1.55-7.67.93-1.13-.29-2.1-.98-2.7-1.92.41-.1,1.37-.39,2.47-.62,1.95-.4,4.33-.76,7.91,1.61" fill="#90b854" stroke-width="0"/><path id="Path_17917" d="M74.62,58.77c-3.3,1.8-7.95,3.12-10.41.25,1.31-.5,2.66-.9,4.03-1.21,2.18-.34,4.42,0,6.38.97" fill="#90b854" stroke-width="0"/><path id="Path_17918" d="M80.23,53.62c-2.84,2.4-7.42,4.43-10.21,2.05,1.95-.95,5.63-3.21,10.21-2.05" fill="#90b854" stroke-width="0"/><path id="Path_17919" d="M84.84,47.27c-2.21,3.02-6.3,5.95-9.47,4.28,1.68-1.25,5.13-4.31,9.47-4.28" fill="#90b854" stroke-width="0"/><path id="Path_17920" d="M87.93,40.04c-1.29,3.35-4.64,7.11-8.02,6.44,1.31-1.55,4.13-5.53,8.02-6.44" fill="#90b854" stroke-width="0"/><path id="Path_17921" d="M89.4,32.49c-.38,2.64-2.5,7.57-6.16,7.98.93-1.92,2.74-6.38,6.16-7.98" fill="#90b854" stroke-width="0"/><path id="Path_17922" d="M89.4,24.9c.16,3.35-1.23,7.68-4.23,8.97.44-1.8,1.28-6.87,4.23-8.97" fill="#90b854" stroke-width="0"/><path id="Path_17923" d="M88.12,17.59c.73,3.05.25,7.36-2.35,9.44.09-1.62-.19-6.91,2.35-9.44" fill="#90b854" stroke-width="0"/><path id="Path_17924" d="M85.8,10.71c1.13,2.61,1.44,6.72-.65,9.49-.29-2.13-1.37-6.8.65-9.49" fill="#90b854" stroke-width="0"/><path id="Path_17925" d="M82.65,4.3c1.77,2.82,2.07,6.23.81,9.28-.6-2.04-2.44-6.41-.81-9.28" fill="#90b854" stroke-width="0"/><path id="Path_17926" d="M76.43.23c3.8,2.56,5.58,7.47,5.19,9.27-3.02-2.57-4.63-7.89-5.19-9.27" fill="#90b854" stroke-width="0"/><path id="Path_17927" d="M57.63,54.17c-3.26,2.27-6.69,4.92-5.8,8.77,2.39-1.92,5.53-2.66,5.8-8.77" fill="#90b854" stroke-width="0"/><path id="Path_17928" d="M63.88,51.35c-3.28,2.67-5.99,5.09-5.32,8.67.25-.19,1.12-.7,2.04-1.41,2-1.53,3.37-3.15,3.28-7.25" fill="#90b854" stroke-width="0"/><path id="Path_17929" d="M69.46,48.04c-2.79,3.03-5.06,5.41-4.32,8.86.23-.2,1.05-.75,1.9-1.51,1.81-1.62,3.04-3.45,2.42-7.35" fill="#90b854" stroke-width="0"/><path id="Path_17930" d="M74.11,43.98c-2.39,3.96-3.7,6.14-2.76,9.15,1.56-1.73,4.73-3.77,2.76-9.15" fill="#90b854" stroke-width="0"/><path id="Path_17931" d="M77.59,39.03c-1.54,4.72-2.03,6.8-.76,9.34.07-.13.26-.38.49-.71s.51-.76.76-1.25c1.2-2.23,1.45-4.39-.49-7.38" fill="#90b854" stroke-width="0"/><path id="Path_17932" d="M79.81,33.17c-.21,2.44-.81,6.06.75,8.54.16.26.34.51.53.75.12-.35,1.47-3.24.96-5.41-.38-1.45-1.15-2.79-2.24-3.88" fill="#90b854" stroke-width="0"/><path id="Path_17933" d="M80.73,26.78c.39,4.18.69,6.84,3.04,8.85.01-.14.06-.44.12-.83.03-.2.06-.42.08-.66.01-.12.02-.24.04-.37s.02-.26.02-.39c.09-1.08-.06-2.17-.44-3.2-.63-1.34-1.62-2.51-2.87-3.4" fill="#90b854" stroke-width="0"/><path id="Path_17934" d="M80.34,20.13c.26.97,1.1,4.69,2.68,6.63.15.19.31.36.49.53.41.38.87.72,1.36,1.01-.25-2.22.3-5.55-4.54-8.16" fill="#90b854" stroke-width="0"/><path id="Path_17935" d="M78.79,13.48c1.46,3.46,2.67,6.2,5.69,7.4-.64-2.19-.61-5.35-5.69-7.4" fill="#90b854" stroke-width="0"/><path id="Path_17936" d="M76.23,7.03c1.94,3.4,3.48,5.8,6.54,6.6-.97-2.23-1.43-5.13-6.54-6.6" fill="#90b854" stroke-width="0"/></g></g></svg>