<svg xmlns="http://www.w3.org/2000/svg" xmlns:xlink="http://www.w3.org/1999/xlink" width="140" height="138.471" viewBox="0 0 140 138.471">
  <defs>
    <clipPath id="clip-path">
      <rect width="140" height="138.471" fill="none"/>
    </clipPath>
  </defs>
  <g id="Repeat_Grid_1" data-name="Repeat Grid 1" clip-path="url(#clip-path)" style="mix-blend-mode: multiply;isolation: isolate">
    <g transform="translate(-60 -660)">
      <circle id="Ellipse_13" data-name="Ellipse 13" cx="3.5" cy="3.5" r="3.5" transform="translate(60 660)" fill="#b1d97b"/>
    </g>
    <g transform="translate(-36 -660)">
      <circle id="Ellipse_13-2" data-name="Ellipse 13" cx="3.5" cy="3.5" r="3.5" transform="translate(60 660)" fill="#b1d97b"/>
    </g>
    <g transform="translate(-12 -660)">
      <circle id="Ellipse_13-3" data-name="Ellipse 13" cx="3.5" cy="3.5" r="3.5" transform="translate(60 660)" fill="#b1d97b"/>
    </g>
    <g transform="translate(12 -660)">
      <circle id="Ellipse_13-4" data-name="Ellipse 13" cx="3.5" cy="3.5" r="3.5" transform="translate(60 660)" fill="#b1d97b"/>
    </g>
    <g transform="translate(36 -660)">
      <circle id="Ellipse_13-5" data-name="Ellipse 13" cx="3.5" cy="3.5" r="3.5" transform="translate(60 660)" fill="#b1d97b"/>
    </g>
    <g transform="translate(60 -660)">
      <circle id="Ellipse_13-6" data-name="Ellipse 13" cx="3.5" cy="3.5" r="3.5" transform="translate(60 660)" fill="#b1d97b"/>
    </g>
    <g transform="translate(-60 -636)">
      <circle id="Ellipse_13-7" data-name="Ellipse 13" cx="3.5" cy="3.5" r="3.5" transform="translate(60 660)" fill="#b1d97b"/>
    </g>
    <g transform="translate(-36 -636)">
      <circle id="Ellipse_13-8" data-name="Ellipse 13" cx="3.5" cy="3.5" r="3.5" transform="translate(60 660)" fill="#b1d97b"/>
    </g>
    <g transform="translate(-12 -636)">
      <circle id="Ellipse_13-9" data-name="Ellipse 13" cx="3.5" cy="3.5" r="3.5" transform="translate(60 660)" fill="#b1d97b"/>
    </g>
    <g transform="translate(12 -636)">
      <circle id="Ellipse_13-10" data-name="Ellipse 13" cx="3.5" cy="3.5" r="3.5" transform="translate(60 660)" fill="#b1d97b"/>
    </g>
    <g transform="translate(36 -636)">
      <circle id="Ellipse_13-11" data-name="Ellipse 13" cx="3.5" cy="3.5" r="3.5" transform="translate(60 660)" fill="#b1d97b"/>
    </g>
    <g transform="translate(60 -636)">
      <circle id="Ellipse_13-12" data-name="Ellipse 13" cx="3.5" cy="3.5" r="3.5" transform="translate(60 660)" fill="#b1d97b"/>
    </g>
    <g transform="translate(-60 -612)">
      <circle id="Ellipse_13-13" data-name="Ellipse 13" cx="3.5" cy="3.5" r="3.5" transform="translate(60 660)" fill="#b1d97b"/>
    </g>
    <g transform="translate(-36 -612)">
      <circle id="Ellipse_13-14" data-name="Ellipse 13" cx="3.5" cy="3.5" r="3.5" transform="translate(60 660)" fill="#b1d97b"/>
    </g>
    <g transform="translate(-12 -612)">
      <circle id="Ellipse_13-15" data-name="Ellipse 13" cx="3.5" cy="3.5" r="3.5" transform="translate(60 660)" fill="#b1d97b"/>
    </g>
    <g transform="translate(12 -612)">
      <circle id="Ellipse_13-16" data-name="Ellipse 13" cx="3.5" cy="3.5" r="3.5" transform="translate(60 660)" fill="#b1d97b"/>
    </g>
    <g transform="translate(36 -612)">
      <circle id="Ellipse_13-17" data-name="Ellipse 13" cx="3.5" cy="3.5" r="3.5" transform="translate(60 660)" fill="#b1d97b"/>
    </g>
    <g transform="translate(60 -612)">
      <circle id="Ellipse_13-18" data-name="Ellipse 13" cx="3.5" cy="3.5" r="3.5" transform="translate(60 660)" fill="#b1d97b"/>
    </g>
    <g transform="translate(-60 -588)">
      <circle id="Ellipse_13-19" data-name="Ellipse 13" cx="3.5" cy="3.5" r="3.5" transform="translate(60 660)" fill="#b1d97b"/>
    </g>
    <g transform="translate(-36 -588)">
      <circle id="Ellipse_13-20" data-name="Ellipse 13" cx="3.5" cy="3.5" r="3.5" transform="translate(60 660)" fill="#b1d97b"/>
    </g>
    <g transform="translate(-12 -588)">
      <circle id="Ellipse_13-21" data-name="Ellipse 13" cx="3.5" cy="3.5" r="3.5" transform="translate(60 660)" fill="#b1d97b"/>
    </g>
    <g transform="translate(12 -588)">
      <circle id="Ellipse_13-22" data-name="Ellipse 13" cx="3.5" cy="3.5" r="3.5" transform="translate(60 660)" fill="#b1d97b"/>
    </g>
    <g transform="translate(36 -588)">
      <circle id="Ellipse_13-23" data-name="Ellipse 13" cx="3.5" cy="3.5" r="3.5" transform="translate(60 660)" fill="#b1d97b"/>
    </g>
    <g transform="translate(60 -588)">
      <circle id="Ellipse_13-24" data-name="Ellipse 13" cx="3.5" cy="3.5" r="3.5" transform="translate(60 660)" fill="#b1d97b"/>
    </g>
    <g transform="translate(-60 -564)">
      <circle id="Ellipse_13-25" data-name="Ellipse 13" cx="3.5" cy="3.5" r="3.5" transform="translate(60 660)" fill="#b1d97b"/>
    </g>
    <g transform="translate(-36 -564)">
      <circle id="Ellipse_13-26" data-name="Ellipse 13" cx="3.5" cy="3.5" r="3.5" transform="translate(60 660)" fill="#b1d97b"/>
    </g>
    <g transform="translate(-12 -564)">
      <circle id="Ellipse_13-27" data-name="Ellipse 13" cx="3.5" cy="3.5" r="3.5" transform="translate(60 660)" fill="#b1d97b"/>
    </g>
    <g transform="translate(12 -564)">
      <circle id="Ellipse_13-28" data-name="Ellipse 13" cx="3.5" cy="3.5" r="3.5" transform="translate(60 660)" fill="#b1d97b"/>
    </g>
    <g transform="translate(36 -564)">
      <circle id="Ellipse_13-29" data-name="Ellipse 13" cx="3.5" cy="3.5" r="3.5" transform="translate(60 660)" fill="#b1d97b"/>
    </g>
    <g transform="translate(60 -564)">
      <circle id="Ellipse_13-30" data-name="Ellipse 13" cx="3.5" cy="3.5" r="3.5" transform="translate(60 660)" fill="#b1d97b"/>
    </g>
    <g transform="translate(-60 -540)">
      <circle id="Ellipse_13-31" data-name="Ellipse 13" cx="3.5" cy="3.5" r="3.5" transform="translate(60 660)" fill="#b1d97b"/>
    </g>
    <g transform="translate(-36 -540)">
      <circle id="Ellipse_13-32" data-name="Ellipse 13" cx="3.5" cy="3.5" r="3.5" transform="translate(60 660)" fill="#b1d97b"/>
    </g>
    <g transform="translate(-12 -540)">
      <circle id="Ellipse_13-33" data-name="Ellipse 13" cx="3.5" cy="3.5" r="3.5" transform="translate(60 660)" fill="#b1d97b"/>
    </g>
    <g transform="translate(12 -540)">
      <circle id="Ellipse_13-34" data-name="Ellipse 13" cx="3.5" cy="3.5" r="3.5" transform="translate(60 660)" fill="#b1d97b"/>
    </g>
    <g transform="translate(36 -540)">
      <circle id="Ellipse_13-35" data-name="Ellipse 13" cx="3.5" cy="3.5" r="3.5" transform="translate(60 660)" fill="#b1d97b"/>
    </g>
    <g transform="translate(60 -540)">
      <circle id="Ellipse_13-36" data-name="Ellipse 13" cx="3.5" cy="3.5" r="3.5" transform="translate(60 660)" fill="#b1d97b"/>
    </g>
  </g>
</svg>
