<?xml version="1.0" encoding="UTF-8"?>
<svg width="8px" height="10px" viewBox="0 0 8 10" version="1.1" xmlns="http://www.w3.org/2000/svg" xmlns:xlink="http://www.w3.org/1999/xlink">
    <title>angle-double-up</title>
    <g id="Symbols" stroke="none" stroke-width="1" fill="none" fill-rule="evenodd">
        <g id="angle-double-up" transform="translate(0.431612, 0.592108)" fill="#013864" fill-rule="nonzero">
            <path d="M3.80380582,4.27646094 C3.60184478,4.07449991 3.27529985,4.07449991 3.07333881,4.27860098 L0.151470777,7.20046902 C-0.050490259,7.40026903 -0.050490259,7.72683495 0.151470777,7.92879598 L0.639169123,8.41433331 C0.838969138,8.61629435 1.16553506,8.61629435 1.36747511,8.41433331 L3.43857231,6.34325709 L5.51180956,8.41219327 C5.71160957,8.61413332 6.03817549,8.61413332 6.24013653,8.41219327 L6.72567385,7.92663496 C6.92763489,7.72683495 6.92763489,7.40026903 6.72567385,7.19832898 L3.80380582,4.27646094 Z M3.07333881,0.151470777 L0.151470777,3.07333881 C-0.050490259,3.27527887 -0.050490259,3.60184478 0.151470777,3.8016448 L0.637008102,4.2872031 C0.838969138,4.48914316 1.16553506,4.48914316 1.36533507,4.2872031 L3.43643227,2.2161059 L5.5075085,4.2872031 C5.70946953,4.48914316 6.03603545,4.48914316 6.23583547,4.2872031 L6.72137279,3.8016448 C6.92333383,3.59970474 6.92333383,3.27313883 6.72137279,3.07333881 L3.79950476,0.151470777 C3.60184478,-0.050490259 3.27529985,-0.050490259 3.07333881,0.151470777 Z" id="Shape"></path>
        </g>
    </g>
</svg>