<?xml version="1.0" encoding="UTF-8"?>
<svg width="624px" height="298px" viewBox="0 0 624 298" version="1.1" xmlns="http://www.w3.org/2000/svg" xmlns:xlink="http://www.w3.org/1999/xlink">
    <title>Group 2</title>
    <g id="Symbols" stroke="none" stroke-width="1" fill="none" fill-rule="evenodd">
        <g id="Desktop-Design-/-Footer" transform="translate(-1123.000000, 0.000000)" fill="#4A81C5">
            <g id="Group-2" transform="translate(1123.000000, 0.000000)">
                <g id="Group-3" transform="translate(120.000000, 261.000000)">
                    <polygon id="Fill-1" points="0 8.25728155 0 8.43717182 0 11.723301 11.9840256 11.723301 11.9840256 8.25728155"></polygon>
                    <polygon id="Fill-2" points="15.1533546 0 15.1533546 21 18.5668492 21 18.5668492 11.7157308 31 11.7157308 31 11.5327121 30.9876982 8.17956641 18.5668492 8.17956641 18.5668492 0"></polygon>
                </g>
                <g id="Group-3" transform="translate(59.000000, 258.000000)">
                    <polygon id="Fill-1" points="0 15.7281553 0 16.0708035 0 22.3300971 23.5814696 22.3300971 23.5814696 15.7281553"></polygon>
                    <polygon id="Fill-2" points="29.8178914 0 29.8178914 40 36.5347678 40 36.5347678 22.3156777 61 22.3156777 61 21.9670706 60.9757933 15.5801265 36.5347678 15.5801265 36.5347678 0"></polygon>
                </g>
                <g id="Group-3" transform="translate(444.000000, 179.000000)">
                    <polygon id="Fill-1" points="0 46.7912621 0 47.8106403 0 66.4320388 69.5846645 66.4320388 69.5846645 46.7912621"></polygon>
                    <polygon id="Fill-2" points="87.9872204 0 87.9872204 119 107.807511 119 107.807511 66.389141 180 66.389141 180 65.3520352 179.92857 46.3508763 107.807511 46.3508763 107.807511 0"></polygon>
                </g>
                <g id="Group-3" transform="translate(351.000000, 96.000000)">
                    <polygon id="Fill-1" points="0 8.25728155 0 8.43717182 0 11.723301 11.9840256 11.723301 11.9840256 8.25728155"></polygon>
                    <polygon id="Fill-2" points="15.1533546 0 15.1533546 21 18.5668492 21 18.5668492 11.7157308 31 11.7157308 31 11.5327121 30.9876982 8.17956641 18.5668492 8.17956641 18.5668492 0"></polygon>
                </g>
                <g id="Group-3" transform="translate(370.000000, 100.000000)">
                    <polygon id="Fill-1" points="0 15.7281553 0 16.0708035 0 22.3300971 23.5814696 22.3300971 23.5814696 15.7281553"></polygon>
                    <polygon id="Fill-2" points="29.8178914 0 29.8178914 40 36.5347678 40 36.5347678 22.3156777 61 22.3156777 61 21.9670706 60.9757933 15.5801265 36.5347678 15.5801265 36.5347678 0"></polygon>
                </g>
                <g id="Group-3">
                    <polygon id="Fill-1" points="0 39.3203883 0 40.1770087 0 55.8252427 56.0543131 55.8252427 56.0543131 39.3203883"></polygon>
                    <polygon id="Fill-2" points="70.8785942 0 70.8785942 100 86.8449398 100 86.8449398 55.7891941 145 55.7891941 145 54.9176766 144.942459 38.9503163 86.8449398 38.9503163 86.8449398 0"></polygon>
                </g>
            </g>
        </g>
    </g>
</svg>