<?xml version="1.0" encoding="utf-8"?>
<!-- Generator: Adobe Illustrator 27.0.1, SVG Export Plug-In . SVG Version: 6.00 Build 0)  -->
<svg version="1.1" id="Layer_1" xmlns="http://www.w3.org/2000/svg" xmlns:xlink="http://www.w3.org/1999/xlink" x="0px" y="0px"
	 viewBox="0 0 16 16" style="enable-background:new 0 0 16 16;" xml:space="preserve">
<style type="text/css">
	.st0{fill-rule:evenodd;clip-rule:evenodd;fill:#00ACE4;}
</style>
<path class="st0" d="M8,2c0.3,0,0.5,0.2,0.5,0.5v5h5C13.8,7.5,14,7.7,14,8c0,0.3-0.2,0.5-0.5,0.5h-5v5C8.5,13.8,8.3,14,8,14
	c-0.3,0-0.5-0.2-0.5-0.5v-5h-5C2.2,8.5,2,8.3,2,8c0-0.3,0.2-0.5,0.5-0.5h5v-5C7.5,2.2,7.7,2,8,2z"/>
</svg>
