<?xml version="1.0" encoding="UTF-8"?>
<svg id="Layer_1" xmlns="http://www.w3.org/2000/svg" width="3500" height="1661.7" version="1.1" viewBox="0 0 3500 1661.7">
  <!-- Generator: Adobe Illustrator 29.1.0, SVG Export Plug-In . SVG Version: 2.1.0 Build 142)  -->
  <defs>
    <style>
      .st0 {
        fill: #656669;
      }
    </style>
  </defs>
  <path class="st0" d="M3249.8,2873.9c-3.3,0-5.9-2.7-5.9-5.9s2.7-5.9,5.9-5.9,5.9,2.7,5.9,5.9-2.7,5.9-5.9,5.9Z"/>
  <path class="st0" d="M3249.8,2928.6c-3.3,0-5.9-2.7-5.9-5.9s2.7-5.9,5.9-5.9,5.9,2.7,5.9,5.9-2.7,5.9-5.9,5.9Z"/>
  <path class="st0" d="M3249.8,2983.3c-3.3,0-5.9-2.7-5.9-5.9s2.7-5.9,5.9-5.9,5.9,2.7,5.9,5.9-2.7,5.9-5.9,5.9Z"/>
  <path class="st0" d="M3249.8,3038c-3.3,0-5.9-2.7-5.9-5.9,0-3.3,2.7-5.9,5.9-5.9s5.9,2.7,5.9,5.9-2.7,5.9-5.9,5.9Z"/>
  <path class="st0" d="M3249.8,2764.6c-3.3,0-5.9-2.7-5.9-5.9s2.7-5.9,5.9-5.9,5.9,2.7,5.9,5.9-2.7,5.9-5.9,5.9Z"/>
  <path class="st0" d="M3249.8,2819.3c-3.3,0-5.9-2.7-5.9-5.9s2.7-5.9,5.9-5.9,5.9,2.7,5.9,5.9-2.7,5.9-5.9,5.9Z"/>
  <path class="st0" d="M762.5,181.2c0-4.2,3.4-7.7,7.7-7.7s7.7,3.4,7.7,7.7-3.4,7.7-7.7,7.7-7.7-3.4-7.7-7.7Z"/>
  <path class="st0" d="M691.7,181.2c0-4.2,3.4-7.7,7.7-7.7s7.7,3.4,7.7,7.7-3.4,7.7-7.7,7.7-7.7-3.4-7.7-7.7Z"/>
  <path class="st0" d="M620.9,181.2c0-4.2,3.4-7.7,7.7-7.7s7.7,3.4,7.7,7.7-3.4,7.7-7.7,7.7-7.7-3.4-7.7-7.7Z"/>
  <path class="st0" d="M550.2,181.2c0-4.2,3.4-7.7,7.7-7.7s7.7,3.4,7.7,7.7-3.4,7.7-7.7,7.7-7.7-3.4-7.7-7.7Z"/>
  <path class="st0" d="M762.5,246.1c0-4.2,3.4-7.7,7.7-7.7s7.7,3.4,7.7,7.7-3.4,7.7-7.7,7.7-7.7-3.4-7.7-7.7Z"/>
  <path class="st0" d="M691.7,246.1c0-4.2,3.4-7.7,7.7-7.7s7.7,3.4,7.7,7.7-3.4,7.7-7.7,7.7-7.7-3.4-7.7-7.7Z"/>
  <path class="st0" d="M620.9,246.1c0-4.2,3.4-7.7,7.7-7.7s7.7,3.4,7.7,7.7-3.4,7.7-7.7,7.7-7.7-3.4-7.7-7.7Z"/>
  <path class="st0" d="M550.2,246.1c0-4.2,3.4-7.7,7.7-7.7s7.7,3.4,7.7,7.7-3.4,7.7-7.7,7.7-7.7-3.4-7.7-7.7Z"/>
  <path class="st0" d="M762.5,311.1c0-4.2,3.4-7.7,7.7-7.7s7.7,3.4,7.7,7.7-3.4,7.7-7.7,7.7-7.7-3.4-7.7-7.7Z"/>
  <path class="st0" d="M691.7,311.1c0-4.2,3.4-7.7,7.7-7.7s7.7,3.4,7.7,7.7-3.4,7.7-7.7,7.7-7.7-3.4-7.7-7.7Z"/>
  <path class="st0" d="M620.9,311.1c0-4.2,3.4-7.7,7.7-7.7s7.7,3.4,7.7,7.7-3.4,7.7-7.7,7.7-7.7-3.4-7.7-7.7Z"/>
  <path class="st0" d="M550.2,311.1c0-4.2,3.4-7.7,7.7-7.7s7.7,3.4,7.7,7.7-3.4,7.7-7.7,7.7-7.7-3.4-7.7-7.7Z"/>
  <path class="st0" d="M762.5,376c0-4.2,3.4-7.7,7.7-7.7s7.7,3.4,7.7,7.7-3.4,7.7-7.7,7.7-7.7-3.4-7.7-7.7Z"/>
  <path class="st0" d="M691.7,376c0-4.2,3.4-7.7,7.7-7.7s7.7,3.4,7.7,7.7-3.4,7.7-7.7,7.7-7.7-3.4-7.7-7.7Z"/>
  <path class="st0" d="M620.9,376c0-4.2,3.4-7.7,7.7-7.7s7.7,3.4,7.7,7.7-3.4,7.7-7.7,7.7-7.7-3.4-7.7-7.7Z"/>
  <path class="st0" d="M550.2,376c0-4.2,3.4-7.7,7.7-7.7s7.7,3.4,7.7,7.7-3.4,7.7-7.7,7.7-7.7-3.4-7.7-7.7Z"/>
  <path class="st0" d="M974.8,181.2c0-4.2,3.4-7.7,7.7-7.7s7.7,3.4,7.7,7.7-3.4,7.7-7.7,7.7-7.7-3.4-7.7-7.7Z"/>
  <path class="st0" d="M904.1,181.2c0-4.2,3.4-7.7,7.7-7.7s7.7,3.4,7.7,7.7-3.4,7.7-7.7,7.7-7.7-3.4-7.7-7.7Z"/>
  <path class="st0" d="M833.3,181.2c0-4.2,3.4-7.7,7.7-7.7s7.7,3.4,7.7,7.7-3.4,7.7-7.7,7.7-7.7-3.4-7.7-7.7Z"/>
  <path class="st0" d="M974.8,246.1c0-4.2,3.4-7.7,7.7-7.7s7.7,3.4,7.7,7.7-3.4,7.7-7.7,7.7-7.7-3.4-7.7-7.7Z"/>
  <path class="st0" d="M904.1,246.1c0-4.2,3.4-7.7,7.7-7.7s7.7,3.4,7.7,7.7c0,4.2-3.4,7.7-7.7,7.7s-7.7-3.4-7.7-7.7Z"/>
  <path class="st0" d="M833.3,246.1c0-4.2,3.4-7.7,7.7-7.7s7.7,3.4,7.7,7.7-3.4,7.7-7.7,7.7-7.7-3.4-7.7-7.7Z"/>
  <path class="st0" d="M974.8,311.1c0-4.2,3.4-7.7,7.7-7.7s7.7,3.4,7.7,7.7-3.4,7.7-7.7,7.7-7.7-3.4-7.7-7.7Z"/>
  <path class="st0" d="M762.5,51.4c0-4.2,3.4-7.7,7.7-7.7s7.7,3.4,7.7,7.7-3.4,7.7-7.7,7.7-7.7-3.4-7.7-7.7Z"/>
  <path class="st0" d="M691.7,51.4c0-4.2,3.4-7.7,7.7-7.7s7.7,3.4,7.7,7.7-3.4,7.7-7.7,7.7-7.7-3.4-7.7-7.7Z"/>
  <path class="st0" d="M620.9,51.4c0-4.2,3.4-7.7,7.7-7.7s7.7,3.4,7.7,7.7-3.4,7.7-7.7,7.7-7.7-3.4-7.7-7.7Z"/>
  <path class="st0" d="M550.2,51.4c0-4.2,3.4-7.7,7.7-7.7s7.7,3.4,7.7,7.7-3.4,7.7-7.7,7.7-7.7-3.4-7.7-7.7Z"/>
  <path class="st0" d="M762.5,116.3c0-4.2,3.4-7.7,7.7-7.7s7.7,3.4,7.7,7.7-3.4,7.7-7.7,7.7-7.7-3.4-7.7-7.7Z"/>
  <path class="st0" d="M691.7,116.3c0-4.2,3.4-7.7,7.7-7.7s7.7,3.4,7.7,7.7-3.4,7.7-7.7,7.7-7.7-3.4-7.7-7.7Z"/>
  <path class="st0" d="M620.9,116.3c0-4.2,3.4-7.7,7.7-7.7s7.7,3.4,7.7,7.7-3.4,7.7-7.7,7.7-7.7-3.4-7.7-7.7Z"/>
  <path class="st0" d="M550.2,116.3c0-4.2,3.4-7.7,7.7-7.7s7.7,3.4,7.7,7.7-3.4,7.7-7.7,7.7-7.7-3.4-7.7-7.7Z"/>
  <path class="st0" d="M974.8,51.4c0-4.2,3.4-7.7,7.7-7.7s7.7,3.4,7.7,7.7-3.4,7.7-7.7,7.7-7.7-3.4-7.7-7.7Z"/>
  <path class="st0" d="M904.1,51.4c0-4.2,3.4-7.7,7.7-7.7s7.7,3.4,7.7,7.7-3.4,7.7-7.7,7.7-7.7-3.4-7.7-7.7Z"/>
  <path class="st0" d="M833.3,51.4c0-4.2,3.4-7.7,7.7-7.7s7.7,3.4,7.7,7.7-3.4,7.7-7.7,7.7-7.7-3.4-7.7-7.7Z"/>
  <path class="st0" d="M974.8,116.3c0-4.2,3.4-7.7,7.7-7.7s7.7,3.4,7.7,7.7-3.4,7.7-7.7,7.7-7.7-3.4-7.7-7.7Z"/>
  <path class="st0" d="M904.1,116.3c0-4.2,3.4-7.7,7.7-7.7s7.7,3.4,7.7,7.7-3.4,7.7-7.7,7.7-7.7-3.4-7.7-7.7Z"/>
  <path class="st0" d="M833.3,116.3c0-4.2,3.4-7.7,7.7-7.7s7.7,3.4,7.7,7.7-3.4,7.7-7.7,7.7-7.7-3.4-7.7-7.7Z"/>
  <path class="st0" d="M904.1,311.1c0-4.2,3.4-7.7,7.7-7.7s7.7,3.4,7.7,7.7-3.4,7.7-7.7,7.7-7.7-3.4-7.7-7.7Z"/>
  <path class="st0" d="M833.3,311.1c0-4.2,3.4-7.7,7.7-7.7s7.7,3.4,7.7,7.7-3.4,7.7-7.7,7.7-7.7-3.4-7.7-7.7Z"/>
  <path class="st0" d="M974.8,376c0-4.2,3.4-7.7,7.7-7.7s7.7,3.4,7.7,7.7-3.4,7.7-7.7,7.7-7.7-3.4-7.7-7.7Z"/>
  <path class="st0" d="M904.1,376c0-4.2,3.4-7.7,7.7-7.7s7.7,3.4,7.7,7.7-3.4,7.7-7.7,7.7-7.7-3.4-7.7-7.7Z"/>
  <path class="st0" d="M833.3,376c0-4.2,3.4-7.7,7.7-7.7s7.7,3.4,7.7,7.7-3.4,7.7-7.7,7.7-7.7-3.4-7.7-7.7Z"/>
  <path class="st0" d="M1187.2,181.2c0-4.2,3.4-7.7,7.7-7.7s7.7,3.4,7.7,7.7-3.4,7.7-7.7,7.7-7.7-3.4-7.7-7.7Z"/>
  <path class="st0" d="M1116.4,181.2c0-4.2,3.4-7.7,7.7-7.7s7.7,3.4,7.7,7.7-3.4,7.7-7.7,7.7-7.7-3.4-7.7-7.7Z"/>
  <path class="st0" d="M1045.6,181.2c0-4.2,3.4-7.7,7.7-7.7s7.7,3.4,7.7,7.7-3.4,7.7-7.7,7.7-7.7-3.4-7.7-7.7Z"/>
  <path class="st0" d="M1187.2,246.1c0-4.2,3.4-7.7,7.7-7.7s7.7,3.4,7.7,7.7-3.4,7.7-7.7,7.7-7.7-3.4-7.7-7.7Z"/>
  <path class="st0" d="M1116.4,246.1c0-4.2,3.4-7.7,7.7-7.7s7.7,3.4,7.7,7.7-3.4,7.7-7.7,7.7-7.7-3.4-7.7-7.7Z"/>
  <path class="st0" d="M1045.6,246.1c0-4.2,3.4-7.7,7.7-7.7s7.7,3.4,7.7,7.7-3.4,7.7-7.7,7.7-7.7-3.4-7.7-7.7Z"/>
  <path class="st0" d="M1187.2,311.1c0-4.2,3.4-7.7,7.7-7.7s7.7,3.4,7.7,7.7-3.4,7.7-7.7,7.7-7.7-3.4-7.7-7.7Z"/>
  <path class="st0" d="M1187.2,51.4c0-4.2,3.4-7.7,7.7-7.7s7.7,3.4,7.7,7.7-3.4,7.7-7.7,7.7-7.7-3.4-7.7-7.7Z"/>
  <path class="st0" d="M1116.4,51.4c0-4.2,3.4-7.7,7.7-7.7s7.7,3.4,7.7,7.7-3.4,7.7-7.7,7.7-7.7-3.4-7.7-7.7Z"/>
  <path class="st0" d="M1045.6,51.4c0-4.2,3.4-7.7,7.7-7.7s7.7,3.4,7.7,7.7-3.4,7.7-7.7,7.7-7.7-3.4-7.7-7.7Z"/>
  <path class="st0" d="M1187.2,116.3c0-4.2,3.4-7.7,7.7-7.7s7.7,3.4,7.7,7.7-3.4,7.7-7.7,7.7-7.7-3.4-7.7-7.7Z"/>
  <path class="st0" d="M1116.4,116.3c0-4.2,3.4-7.7,7.7-7.7s7.7,3.4,7.7,7.7-3.4,7.7-7.7,7.7-7.7-3.4-7.7-7.7Z"/>
  <path class="st0" d="M1045.6,116.3c0-4.2,3.4-7.7,7.7-7.7s7.7,3.4,7.7,7.7-3.4,7.7-7.7,7.7-7.7-3.4-7.7-7.7Z"/>
  <path class="st0" d="M1116.4,311.1c0-4.2,3.4-7.7,7.7-7.7s7.7,3.4,7.7,7.7-3.4,7.7-7.7,7.7-7.7-3.4-7.7-7.7Z"/>
  <path class="st0" d="M1045.6,311.1c0-4.2,3.4-7.7,7.7-7.7s7.7,3.4,7.7,7.7-3.4,7.7-7.7,7.7-7.7-3.4-7.7-7.7Z"/>
  <path class="st0" d="M1187.2,376c0-4.2,3.4-7.7,7.7-7.7s7.7,3.4,7.7,7.7-3.4,7.7-7.7,7.7-7.7-3.4-7.7-7.7Z"/>
  <path class="st0" d="M1116.4,376c0-4.2,3.4-7.7,7.7-7.7s7.7,3.4,7.7,7.7-3.4,7.7-7.7,7.7-7.7-3.4-7.7-7.7Z"/>
  <path class="st0" d="M1045.6,376c0-4.2,3.4-7.7,7.7-7.7s7.7,3.4,7.7,7.7-3.4,7.7-7.7,7.7-7.7-3.4-7.7-7.7Z"/>
  <g>
    <path class="st0" d="M692.8,1766.3c-4.2,0-7.7-3.4-7.7-7.7s3.4-7.7,7.7-7.7,7.7,3.4,7.7,7.7-3.4,7.7-7.7,7.7Z"/>
    <path class="st0" d="M692.8,1837.1c-4.2,0-7.7-3.4-7.7-7.7s3.4-7.7,7.7-7.7,7.7,3.4,7.7,7.7-3.4,7.7-7.7,7.7Z"/>
    <path class="st0" d="M692.8,1907.8c-4.2,0-7.7-3.4-7.7-7.7s3.4-7.7,7.7-7.7,7.7,3.4,7.7,7.7-3.4,7.7-7.7,7.7Z"/>
    <path class="st0" d="M692.8,1978.6c-4.2,0-7.7-3.4-7.7-7.7s3.4-7.7,7.7-7.7,7.7,3.4,7.7,7.7-3.4,7.7-7.7,7.7Z"/>
    <path class="st0" d="M757.8,1766.3c-4.2,0-7.7-3.4-7.7-7.7s3.4-7.7,7.7-7.7,7.7,3.4,7.7,7.7-3.4,7.7-7.7,7.7Z"/>
    <path class="st0" d="M757.8,1837.1c-4.2,0-7.7-3.4-7.7-7.7s3.4-7.7,7.7-7.7,7.7,3.4,7.7,7.7-3.4,7.7-7.7,7.7Z"/>
    <path class="st0" d="M757.8,1907.8c-4.2,0-7.7-3.4-7.7-7.7s3.4-7.7,7.7-7.7,7.7,3.4,7.7,7.7-3.4,7.7-7.7,7.7Z"/>
    <path class="st0" d="M757.8,1978.6c-4.2,0-7.7-3.4-7.7-7.7s3.4-7.7,7.7-7.7,7.7,3.4,7.7,7.7-3.4,7.7-7.7,7.7Z"/>
    <path class="st0" d="M822.7,1766.3c-4.2,0-7.7-3.4-7.7-7.7s3.4-7.7,7.7-7.7,7.7,3.4,7.7,7.7-3.4,7.7-7.7,7.7Z"/>
    <path class="st0" d="M822.7,1837.1c-4.2,0-7.7-3.4-7.7-7.7s3.4-7.7,7.7-7.7,7.7,3.4,7.7,7.7-3.4,7.7-7.7,7.7Z"/>
    <path class="st0" d="M822.7,1907.8c-4.2,0-7.7-3.4-7.7-7.7s3.4-7.7,7.7-7.7,7.7,3.4,7.7,7.7-3.4,7.7-7.7,7.7Z"/>
    <path class="st0" d="M822.7,1978.6c-4.2,0-7.7-3.4-7.7-7.7s3.4-7.7,7.7-7.7,7.7,3.4,7.7,7.7-3.4,7.7-7.7,7.7Z"/>
    <path class="st0" d="M887.7,1766.3c-4.2,0-7.7-3.4-7.7-7.7s3.4-7.7,7.7-7.7,7.7,3.4,7.7,7.7-3.4,7.7-7.7,7.7Z"/>
    <path class="st0" d="M887.7,1837.1c-4.2,0-7.7-3.4-7.7-7.7s3.4-7.7,7.7-7.7,7.7,3.4,7.7,7.7-3.4,7.7-7.7,7.7Z"/>
    <path class="st0" d="M887.7,1907.8c-4.2,0-7.7-3.4-7.7-7.7s3.4-7.7,7.7-7.7,7.7,3.4,7.7,7.7-3.4,7.7-7.7,7.7Z"/>
    <path class="st0" d="M887.7,1978.6c-4.2,0-7.7-3.4-7.7-7.7s3.4-7.7,7.7-7.7,7.7,3.4,7.7,7.7-3.4,7.7-7.7,7.7Z"/>
    <path class="st0" d="M692.8,1553.9c-4.2,0-7.7-3.4-7.7-7.7s3.4-7.7,7.7-7.7c4.2,0,7.7,3.4,7.7,7.7s-3.4,7.7-7.7,7.7Z"/>
    <path class="st0" d="M692.8,1624.7c-4.2,0-7.7-3.4-7.7-7.7s3.4-7.7,7.7-7.7,7.7,3.4,7.7,7.7-3.4,7.7-7.7,7.7Z"/>
    <path class="st0" d="M692.8,1695.5c-4.2,0-7.7-3.4-7.7-7.7s3.4-7.7,7.7-7.7,7.7,3.4,7.7,7.7c0,4.2-3.4,7.7-7.7,7.7Z"/>
    <path class="st0" d="M757.8,1553.9c-4.2,0-7.7-3.4-7.7-7.7s3.4-7.7,7.7-7.7,7.7,3.4,7.7,7.7-3.4,7.7-7.7,7.7Z"/>
    <path class="st0" d="M757.8,1624.7c-4.2,0-7.7-3.4-7.7-7.7s3.4-7.7,7.7-7.7c4.2,0,7.7,3.4,7.7,7.7s-3.4,7.7-7.7,7.7Z"/>
    <path class="st0" d="M757.8,1695.5c-4.2,0-7.7-3.4-7.7-7.7s3.4-7.7,7.7-7.7,7.7,3.4,7.7,7.7-3.4,7.7-7.7,7.7Z"/>
    <path class="st0" d="M822.7,1553.9c-4.2,0-7.7-3.4-7.7-7.7s3.4-7.7,7.7-7.7,7.7,3.4,7.7,7.7-3.4,7.7-7.7,7.7Z"/>
    <path class="st0" d="M563,1766.3c-4.2,0-7.7-3.4-7.7-7.7s3.4-7.7,7.7-7.7,7.7,3.4,7.7,7.7-3.4,7.7-7.7,7.7Z"/>
    <path class="st0" d="M563,1837.1c-4.2,0-7.7-3.4-7.7-7.7s3.4-7.7,7.7-7.7,7.7,3.4,7.7,7.7-3.4,7.7-7.7,7.7Z"/>
    <path class="st0" d="M563,1907.8c-4.2,0-7.7-3.4-7.7-7.7s3.4-7.7,7.7-7.7,7.7,3.4,7.7,7.7-3.4,7.7-7.7,7.7Z"/>
    <path class="st0" d="M563,1978.6c-4.2,0-7.7-3.4-7.7-7.7s3.4-7.7,7.7-7.7,7.7,3.4,7.7,7.7-3.4,7.7-7.7,7.7Z"/>
    <path class="st0" d="M627.9,1766.3c-4.2,0-7.7-3.4-7.7-7.7s3.4-7.7,7.7-7.7,7.7,3.4,7.7,7.7-3.4,7.7-7.7,7.7Z"/>
    <path class="st0" d="M627.9,1837.1c-4.2,0-7.7-3.4-7.7-7.7s3.4-7.7,7.7-7.7,7.7,3.4,7.7,7.7-3.4,7.7-7.7,7.7Z"/>
    <path class="st0" d="M627.9,1907.8c-4.2,0-7.7-3.4-7.7-7.7s3.4-7.7,7.7-7.7,7.7,3.4,7.7,7.7-3.4,7.7-7.7,7.7Z"/>
    <path class="st0" d="M627.9,1978.6c-4.2,0-7.7-3.4-7.7-7.7s3.4-7.7,7.7-7.7,7.7,3.4,7.7,7.7-3.4,7.7-7.7,7.7Z"/>
    <path class="st0" d="M563,1553.9c-4.2,0-7.7-3.4-7.7-7.7s3.4-7.7,7.7-7.7,7.7,3.4,7.7,7.7-3.4,7.7-7.7,7.7Z"/>
    <path class="st0" d="M563,1624.7c-4.2,0-7.7-3.4-7.7-7.7s3.4-7.7,7.7-7.7,7.7,3.4,7.7,7.7-3.4,7.7-7.7,7.7Z"/>
    <path class="st0" d="M563,1695.5c-4.2,0-7.7-3.4-7.7-7.7s3.4-7.7,7.7-7.7,7.7,3.4,7.7,7.7-3.4,7.7-7.7,7.7Z"/>
    <path class="st0" d="M627.9,1553.9c-4.2,0-7.7-3.4-7.7-7.7s3.4-7.7,7.7-7.7,7.7,3.4,7.7,7.7-3.4,7.7-7.7,7.7Z"/>
    <path class="st0" d="M627.9,1624.7c-4.2,0-7.7-3.4-7.7-7.7s3.4-7.7,7.7-7.7,7.7,3.4,7.7,7.7-3.4,7.7-7.7,7.7Z"/>
    <path class="st0" d="M627.9,1695.5c-4.2,0-7.7-3.4-7.7-7.7s3.4-7.7,7.7-7.7,7.7,3.4,7.7,7.7-3.4,7.7-7.7,7.7Z"/>
    <path class="st0" d="M822.7,1624.7c-4.2,0-7.7-3.4-7.7-7.7s3.4-7.7,7.7-7.7,7.7,3.4,7.7,7.7-3.4,7.7-7.7,7.7Z"/>
    <path class="st0" d="M822.7,1695.5c-4.2,0-7.7-3.4-7.7-7.7s3.4-7.7,7.7-7.7,7.7,3.4,7.7,7.7-3.4,7.7-7.7,7.7Z"/>
    <path class="st0" d="M887.7,1553.9c-4.2,0-7.7-3.4-7.7-7.7s3.4-7.7,7.7-7.7,7.7,3.4,7.7,7.7-3.4,7.7-7.7,7.7Z"/>
    <path class="st0" d="M887.7,1624.7c-4.2,0-7.7-3.4-7.7-7.7s3.4-7.7,7.7-7.7,7.7,3.4,7.7,7.7-3.4,7.7-7.7,7.7Z"/>
    <path class="st0" d="M887.7,1695.5c-4.2,0-7.7-3.4-7.7-7.7s3.4-7.7,7.7-7.7,7.7,3.4,7.7,7.7-3.4,7.7-7.7,7.7Z"/>
    <path class="st0" d="M692.8,1341.6c-4.2,0-7.7-3.4-7.7-7.7s3.4-7.7,7.7-7.7,7.7,3.4,7.7,7.7-3.4,7.7-7.7,7.7Z"/>
    <path class="st0" d="M692.8,1412.4c-4.2,0-7.7-3.4-7.7-7.7s3.4-7.7,7.7-7.7,7.7,3.4,7.7,7.7-3.4,7.7-7.7,7.7Z"/>
    <path class="st0" d="M692.8,1483.2c-4.2,0-7.7-3.4-7.7-7.7s3.4-7.7,7.7-7.7,7.7,3.4,7.7,7.7-3.4,7.7-7.7,7.7Z"/>
    <path class="st0" d="M757.8,1341.6c-4.2,0-7.7-3.4-7.7-7.7s3.4-7.7,7.7-7.7,7.7,3.4,7.7,7.7-3.4,7.7-7.7,7.7Z"/>
    <path class="st0" d="M757.8,1412.4c-4.2,0-7.7-3.4-7.7-7.7s3.4-7.7,7.7-7.7,7.7,3.4,7.7,7.7-3.4,7.7-7.7,7.7Z"/>
    <path class="st0" d="M757.8,1483.2c-4.2,0-7.7-3.4-7.7-7.7s3.4-7.7,7.7-7.7,7.7,3.4,7.7,7.7-3.4,7.7-7.7,7.7Z"/>
    <path class="st0" d="M822.7,1341.6c-4.2,0-7.7-3.4-7.7-7.7s3.4-7.7,7.7-7.7,7.7,3.4,7.7,7.7-3.4,7.7-7.7,7.7Z"/>
    <path class="st0" d="M563,1341.6c-4.2,0-7.7-3.4-7.7-7.7s3.4-7.7,7.7-7.7,7.7,3.4,7.7,7.7-3.4,7.7-7.7,7.7Z"/>
    <path class="st0" d="M563,1412.4c-4.2,0-7.7-3.4-7.7-7.7s3.4-7.7,7.7-7.7,7.7,3.4,7.7,7.7-3.4,7.7-7.7,7.7Z"/>
    <path class="st0" d="M563,1483.2c-4.2,0-7.7-3.4-7.7-7.7s3.4-7.7,7.7-7.7,7.7,3.4,7.7,7.7-3.4,7.7-7.7,7.7Z"/>
    <path class="st0" d="M627.9,1341.6c-4.2,0-7.7-3.4-7.7-7.7s3.4-7.7,7.7-7.7,7.7,3.4,7.7,7.7-3.4,7.7-7.7,7.7Z"/>
    <path class="st0" d="M627.9,1412.4c-4.2,0-7.7-3.4-7.7-7.7s3.4-7.7,7.7-7.7,7.7,3.4,7.7,7.7-3.4,7.7-7.7,7.7Z"/>
    <path class="st0" d="M627.9,1483.2c-4.2,0-7.7-3.4-7.7-7.7s3.4-7.7,7.7-7.7,7.7,3.4,7.7,7.7-3.4,7.7-7.7,7.7Z"/>
    <path class="st0" d="M822.7,1412.4c-4.2,0-7.7-3.4-7.7-7.7s3.4-7.7,7.7-7.7,7.7,3.4,7.7,7.7-3.4,7.7-7.7,7.7Z"/>
    <path class="st0" d="M822.7,1483.2c-4.2,0-7.7-3.4-7.7-7.7s3.4-7.7,7.7-7.7,7.7,3.4,7.7,7.7-3.4,7.7-7.7,7.7Z"/>
    <path class="st0" d="M887.7,1341.6c-4.2,0-7.7-3.4-7.7-7.7s3.4-7.7,7.7-7.7,7.7,3.4,7.7,7.7-3.4,7.7-7.7,7.7Z"/>
    <path class="st0" d="M887.7,1412.4c-4.2,0-7.7-3.4-7.7-7.7s3.4-7.7,7.7-7.7,7.7,3.4,7.7,7.7-3.4,7.7-7.7,7.7Z"/>
    <path class="st0" d="M887.7,1483.2c-4.2,0-7.7-3.4-7.7-7.7s3.4-7.7,7.7-7.7,7.7,3.4,7.7,7.7-3.4,7.7-7.7,7.7Z"/>
  </g>
  <path class="st0" d="M1658.1,1718.2c0,3.3-2.7,5.9-5.9,5.9s-5.9-2.7-5.9-5.9,2.7-5.9,5.9-5.9,5.9,2.7,5.9,5.9Z"/>
  <path class="st0" d="M1712.8,1718.2c0,3.3-2.7,5.9-5.9,5.9s-5.9-2.7-5.9-5.9,2.7-5.9,5.9-5.9,5.9,2.7,5.9,5.9Z"/>
  <path class="st0" d="M1767.4,1718.2c0,3.3-2.7,5.9-5.9,5.9s-5.9-2.7-5.9-5.9,2.7-5.9,5.9-5.9,5.9,2.7,5.9,5.9Z"/>
  <path class="st0" d="M1822.1,1718.2c0,3.3-2.7,5.9-5.9,5.9s-5.9-2.7-5.9-5.9,2.7-5.9,5.9-5.9,5.9,2.7,5.9,5.9Z"/>
  <path class="st0" d="M1658.1,1668c0,3.3-2.7,5.9-5.9,5.9s-5.9-2.7-5.9-5.9,2.7-5.9,5.9-5.9,5.9,2.7,5.9,5.9Z"/>
  <path class="st0" d="M1712.8,1668c0,3.3-2.7,5.9-5.9,5.9s-5.9-2.7-5.9-5.9,2.7-5.9,5.9-5.9,5.9,2.7,5.9,5.9Z"/>
  <path class="st0" d="M1767.4,1668c0,3.3-2.7,5.9-5.9,5.9s-5.9-2.7-5.9-5.9,2.7-5.9,5.9-5.9,5.9,2.7,5.9,5.9Z"/>
  <path class="st0" d="M1822.1,1668c0,3.3-2.7,5.9-5.9,5.9s-5.9-2.7-5.9-5.9,2.7-5.9,5.9-5.9,5.9,2.7,5.9,5.9Z"/>
  <path class="st0" d="M1548.7,1718.2c0,3.3-2.7,5.9-5.9,5.9s-5.9-2.7-5.9-5.9,2.7-5.9,5.9-5.9,5.9,2.7,5.9,5.9Z"/>
  <path class="st0" d="M1603.4,1718.2c0,3.3-2.7,5.9-5.9,5.9s-5.9-2.7-5.9-5.9,2.7-5.9,5.9-5.9,5.9,2.7,5.9,5.9Z"/>
  <path class="st0" d="M1548.7,1668c0,3.3-2.7,5.9-5.9,5.9s-5.9-2.7-5.9-5.9,2.7-5.9,5.9-5.9,5.9,2.7,5.9,5.9Z"/>
  <path class="st0" d="M1603.4,1668c0,3.3-2.7,5.9-5.9,5.9s-5.9-2.7-5.9-5.9,2.7-5.9,5.9-5.9,5.9,2.7,5.9,5.9Z"/>
  <path class="st0" d="M151.3,1759.6c0,3.3-2.7,5.9-5.9,5.9s-5.9-2.7-5.9-5.9,2.7-5.9,5.9-5.9,5.9,2.7,5.9,5.9Z"/>
  <path class="st0" d="M206,1759.6c0,3.3-2.7,5.9-5.9,5.9s-5.9-2.7-5.9-5.9,2.7-5.9,5.9-5.9,5.9,2.7,5.9,5.9Z"/>
  <path class="st0" d="M260.7,1759.6c0,3.3-2.7,5.9-5.9,5.9s-5.9-2.7-5.9-5.9,2.7-5.9,5.9-5.9,5.9,2.7,5.9,5.9Z"/>
  <path class="st0" d="M315.4,1759.6c0,3.3-2.7,5.9-5.9,5.9s-5.9-2.7-5.9-5.9,2.7-5.9,5.9-5.9,5.9,2.7,5.9,5.9Z"/>
  <path class="st0" d="M42,1759.6c0,3.3-2.7,5.9-5.9,5.9s-5.9-2.7-5.9-5.9,2.7-5.9,5.9-5.9,5.9,2.7,5.9,5.9Z"/>
  <path class="st0" d="M96.7,1759.6c0,3.3-2.7,5.9-5.9,5.9s-5.9-2.7-5.9-5.9,2.7-5.9,5.9-5.9,5.9,2.7,5.9,5.9Z"/>
  <path class="st0" d="M52,854.5c4.3,0,7.8-3.5,7.8-7.8,0-4.3-3.5-7.8-7.8-7.8s-7.8,3.5-7.8,7.8,3.5,7.8,7.8,7.8ZM124.4,920.9c4.3,0,7.8-3.5,7.8-7.8s-3.5-7.8-7.8-7.8-7.8,3.5-7.8,7.8,3.5,7.8,7.8,7.8ZM52,920.9c4.3,0,7.8-3.5,7.8-7.8,0-4.3-3.5-7.8-7.8-7.8s-7.8,3.5-7.8,7.8c0,4.3,3.5,7.8,7.8,7.8ZM196.7,987.3c4.3,0,7.8-3.5,7.8-7.8s-3.5-7.8-7.8-7.8-7.8,3.5-7.8,7.8c0,4.3,3.5,7.8,7.8,7.8ZM124.4,987.3c4.3,0,7.8-3.5,7.8-7.8s-3.5-7.8-7.8-7.8-7.8,3.5-7.8,7.8,3.5,7.8,7.8,7.8ZM52,987.3c4.3,0,7.8-3.5,7.8-7.8,0-4.3-3.5-7.8-7.8-7.8s-7.8,3.5-7.8,7.8c0,4.3,3.5,7.8,7.8,7.8ZM124.4,1053.7c4.3,0,7.8-3.5,7.8-7.8,0-4.3-3.5-7.8-7.8-7.8s-7.8,3.5-7.8,7.8,3.5,7.8,7.8,7.8ZM52,1053.7c4.3,0,7.8-3.5,7.8-7.8s-3.5-7.8-7.8-7.8-7.8,3.5-7.8,7.8c0,4.3,3.5,7.8,7.8,7.8ZM52,1120.2c4.3,0,7.8-3.5,7.8-7.8,0-4.3-3.5-7.8-7.8-7.8s-7.8,3.5-7.8,7.8c0,4.3,3.5,7.8,7.8,7.8Z"/>
  <path class="st0" d="M2349.9,1622.7c-79.7,0-144.6-64.9-144.6-144.6s64.9-144.6,144.6-144.6,144.6,64.9,144.6,144.6-64.9,144.6-144.6,144.6ZM2349.9,1343.5c-74.2,0-134.6,60.4-134.6,134.6s60.4,134.6,134.6,134.6,134.6-60.4,134.6-134.6-60.4-134.6-134.6-134.6Z"/>
  <rect class="st0" x="1711.2" y="1737.7" width="748.3" height="10" transform="translate(-621.5 1985) rotate(-45)"/>
  <path class="st0" d="M645,958.7c-99.9,0-181.3-81.3-181.3-181.3s81.3-181.3,181.3-181.3,181.3,81.3,181.3,181.3-81.3,181.3-181.3,181.3ZM645,606.2c-94.4,0-171.3,76.8-171.3,171.3s76.8,171.3,171.3,171.3,171.3-76.8,171.3-171.3-76.8-171.3-171.3-171.3Z"/>
  <rect class="st0" x="-354.8" y="1186.6" width="1171.4" height="10" transform="translate(-775 512.3) rotate(-45)"/>
  <path class="st0" d="M331.3,1313.5c-38.5,0-69.8-31.3-69.8-69.8s31.3-69.8,69.8-69.8,69.8,31.3,69.8,69.8-31.3,69.8-69.8,69.8ZM331.3,1184c-33,0-59.8,26.8-59.8,59.8s26.8,59.8,59.8,59.8,59.8-26.8,59.8-59.8-26.8-59.8-59.8-59.8Z"/>
  <rect class="st0" x="-299.3" y="1500" width="738.8" height="10" transform="translate(-1043.7 490.5) rotate(-45)"/>
  <path class="st0" d="M3285.5,1164.6c-32.7,0-59.4-26.6-59.4-59.4s26.6-59.4,59.4-59.4,59.4,26.6,59.4,59.4-26.6,59.4-59.4,59.4ZM3285.5,1055.9c-27.2,0-49.4,22.1-49.4,49.4s22.1,49.4,49.4,49.4,49.4-22.1,49.4-49.4-22.1-49.4-49.4-49.4Z"/>
  <rect class="st0" x="3242.8" y="997.3" width="291.3" height="10" transform="translate(283.7 2689.6) rotate(-45)"/>
  <rect class="st0" x="3053.3" y="1396.6" width="573" height="10" transform="translate(-12.9 2772.2) rotate(-45)"/>
</svg>