<?xml version="1.0" encoding="UTF-8"?>
<svg id="Layer_1" xmlns="http://www.w3.org/2000/svg" width="37.8in" height="41.7in" version="1.1" viewBox="0 0 2721.6 3002.4">
  <!-- Generator: Adobe Illustrator 29.1.0, SVG Export Plug-In . SVG Version: 2.1.0 Build 142)  -->
  <defs>
    <style>
      .st0 {
        fill: #93c2e9;
      }

      .st0, .st1 {
        opacity: .6;
      }

      .st1, .st2 {
        fill: #fff;
      }
    </style>
  </defs>
  <polygon class="st1" points="1390.8 2997.4 1127 2999.2 996.6 3228.5 1130 3456.1 1393.8 3454.4 1524.2 3225 1390.8 2997.4"/>
  <polygon class="st0" points="2315.5 3009.4 2051.7 3011.2 1921.2 3240.5 2054.6 3468.1 2318.4 3466.4 2448.8 3237 2315.5 3009.4"/>
  <polygon class="st0" points="2776.1 1873.7 2573.5 1875.1 2572.2 1672.4 2346.7 1673.9 2348 1876.5 2145.4 1877.8 2146.9 2103.3 2349.5 2102 2350.8 2304.6 2576.3 2303.1 2575 2100.5 2777.6 2099.2 2776.1 1873.7"/>
  <circle class="st2" cx="508.9" cy="2441.3" r="18.2" transform="translate(-1984.6 2403.5) rotate(-77.4)"/>
  <circle class="st2" cx="612.7" cy="2249.4" r="18.2" transform="translate(-1427.4 1121.1) rotate(-45.8)"/>
  <circle class="st2" cx="615.2" cy="2631.8" r="18.2" transform="translate(-1722.9 1275.9) rotate(-46.7)"/>
  <g>
    <path class="st2" d="M2701.2,2404.6l-478.1,3.1c-1.3,0-2.5-.7-3.1-1.8l-241.7-412.5c-.6-1.1-.6-2.5,0-3.6l236.4-415.6c.6-1.1,1.8-1.8,3.1-1.8l478.1-3.1c1.3,0,2.5.7,3.1,1.8l241.7,412.5c.6,1.1.6,2.5,0,3.6l-236.4,415.6c-.6,1.1-1.8,1.8-3.1,1.8ZM2225.2,2400.5l474-3.1,234.3-412-239.7-408.9-474,3.1-234.3,412,239.7,408.9Z"/>
    <circle class="st2" cx="1989" cy="1991.6" r="39.4" transform="translate(-825.7 1989.8) rotate(-45)"/>
    <circle class="st2" cx="2695.7" cy="1572.9" r="39.4" transform="translate(588.7 3875.4) rotate(-77.8)"/>
    <circle class="st2" cx="2213.9" cy="1576.1" r="39.4" transform="translate(205.6 3406.9) rotate(-77.8)"/>
    <circle class="st2" cx="2219.2" cy="2404.2" r="39.4" transform="translate(-603.8 4058.1) rotate(-77.7)"/>
    <circle class="st2" cx="2701.1" cy="2401" r="39.4" transform="translate(-221.9 4526.4) rotate(-77.7)"/>
    <circle class="st2" cx="2934" cy="1985.4" r="39.4" transform="translate(373.4 4433.7) rotate(-77.8)"/>
    <path class="st2" d="M1898.2,2697.5l-352.3,2.3c-.9,0-1.8-.5-2.3-1.3l-178.1-303.9c-.5-.8-.5-1.8,0-2.6l174.2-306.2c.5-.8,1.3-1.3,2.3-1.3l352.3-2.3c.9,0,1.8.5,2.3,1.3l178.1,303.9c.5.8.5,1.8,0,2.6l-174.2,306.2c-.5.8-1.3,1.3-2.3,1.3ZM1547.4,2694.5l349.2-2.3,172.7-303.6-176.6-301.3-349.2,2.3-172.7,303.6,176.6,301.3Z"/>
    <circle class="st2" cx="1373.4" cy="2393.2" r="29.1" transform="translate(-1198.8 3391.8) rotate(-81.4)"/>
    <circle class="st2" cx="1894.2" cy="2084.7" r="29.1"/>
    <circle class="st2" cx="1539.1" cy="2087" r="29.1"/>
    <circle class="st2" cx="1543.1" cy="2697.2" r="29.1"/>
    <circle class="st2" cx="1898.1" cy="2694.9" r="29.1"/>
    <circle class="st2" cx="2069.7" cy="2388.7" r="29.1" transform="translate(-602.5 4076.4) rotate(-81.4)"/>
    <path class="st2" d="M837.8,2632l-220.8,1.4c-.6,0-1.1-.3-1.4-.8l-111.7-190.5c-.3-.5-.3-1.1,0-1.6l109.2-192c.3-.5.8-.8,1.4-.8l220.8-1.4c.6,0,1.1.3,1.4.8l111.7,190.5c.3.5.3,1.1,0,1.6l-109.2,192c-.3.5-.8.8-1.4.8ZM617.9,2630.2l218.9-1.4,108.2-190.3-110.7-188.9-218.9,1.4-108.2,190.3,110.7,188.9Z"/>
    <circle class="st2" cx="835.3" cy="2247.9" r="18.2" transform="translate(-833.9 526) rotate(-23.7)"/>
    <circle class="st2" cx="837.8" cy="2630.4" r="18.2" transform="translate(-981.9 554.4) rotate(-23.6)"/>
    <circle class="st2" cx="945.3" cy="2438.4" r="18.2" transform="translate(-1640.9 2827.1) rotate(-77.4)"/>
    <path class="st2" d="M1276.5,2891.8l-220.8,1.4c-.6,0-1.1-.3-1.4-.8l-111.7-190.5c-.3-.5-.3-1.1,0-1.6l109.2-192c.3-.5.8-.8,1.4-.8l220.8-1.4c.6,0,1.1.3,1.4.8l111.7,190.5c.3.5.3,1.1,0,1.6l-109.2,192c-.3.5-.8.8-1.4.8ZM1056.6,2889.9l218.9-1.4,108.2-190.3-110.7-188.9-218.9,1.4-108.2,190.3,110.7,188.9Z"/>
    <circle class="st2" cx="947.5" cy="2701" r="18.2" transform="translate(-17.5 6.2) rotate(-.4)"/>
    <circle class="st2" cx="1273.9" cy="2507.7" r="18.2" transform="translate(-950.3 786) rotate(-25.3)"/>
    <circle class="st2" cx="1051.3" cy="2509.1" r="18.2" transform="translate(-972.3 691) rotate(-25.3)"/>
    <circle class="st2" cx="1053.8" cy="2891.6" r="18.2"/>
    <circle class="st2" cx="1276.4" cy="2890.2" r="18.2"/>
    <circle class="st2" cx="1384" cy="2698.2" r="18.2" transform="translate(-17.5 9.1) rotate(-.4)"/>
    <path class="st2" d="M2336.4,2912.2l-220.8,1.4c-.6,0-1.1-.3-1.4-.8l-111.7-190.5c-.3-.5-.3-1.1,0-1.6l109.2-192c.3-.5.8-.8,1.4-.8l220.8-1.4c.6,0,1.1.3,1.4.8l111.7,190.5c.3.5.3,1.1,0,1.6l-109.2,192c-.3.5-.8.8-1.4.8ZM2116.5,2910.4l218.9-1.4,108.2-190.3-110.7-188.9-218.9,1.4-108.2,190.3,110.7,188.9Z"/>
    <circle class="st2" cx="2007.4" cy="2721.5" r="18.2" transform="translate(-920.7 1029.7) rotate(-23.6)"/>
    <circle class="st2" cx="2333.8" cy="2528.1" r="18.2" transform="translate(-1106.7 2494.7) rotate(-46.7)"/>
    <circle class="st2" cx="2111.3" cy="2529.6" r="18.2" transform="translate(-1177.7 2333.1) rotate(-46.7)"/>
    <circle class="st2" cx="2113.8" cy="2912" r="18.2" transform="translate(-1455.4 2455.2) rotate(-46.7)"/>
    <circle class="st2" cx="2336.3" cy="2910.6" r="18.2" transform="translate(-1384.4 2616.8) rotate(-46.7)"/>
    <circle class="st2" cx="2443.9" cy="2718.6" r="18.2" transform="translate(-883.2 1204) rotate(-23.6)"/>
    <path class="st2" d="M1827,1995.9l-220.8,1.4c-.6,0-1.1-.3-1.4-.8l-111.7-190.5c-.3-.5-.3-1.1,0-1.6l109.2-192c.3-.5.8-.8,1.4-.8l220.8-1.4c.6,0,1.1.3,1.4.8l111.7,190.5c.3.5.3,1.1,0,1.6l-109.2,192c-.3.5-.8.8-1.4.8ZM1607.1,1994l218.9-1.4,108.2-190.3-110.7-188.9-218.9,1.4-108.2,190.3,110.7,188.9Z"/>
    <circle class="st2" cx="1498" cy="1805.1" r="18.2" transform="translate(-11.7 9.8) rotate(-.4)"/>
    <circle class="st2" cx="1824.4" cy="1611.7" r="18.2"/>
    <circle class="st2" cx="1601.9" cy="1613.2" r="18.2" transform="translate(-10.5 10.5) rotate(-.4)"/>
    <circle class="st2" cx="1604.4" cy="1995.7" r="18.2" transform="translate(-12.9 10.5) rotate(-.4)"/>
    <circle class="st2" cx="1826.9" cy="1994.2" r="18.2"/>
    <circle class="st2" cx="1934.5" cy="1802.3" r="18.2" transform="translate(-11.7 12.6) rotate(-.4)"/>
    <rect class="st2" x="2782.8" y="2635.5" width="610.1" height="528.4" transform="translate(-18.8 20.1) rotate(-.4)"/>
    <path class="st2" d="M3392.9,2897.7l-154.2-263.2-305.1,2-150.8,265.2,154.2,263.2,305.1-2,150.8-265.2ZM2793.9,2901.6l145.4-255.6,294-1.9,148.7,253.7-145.4,255.6-294,1.9-148.7-253.7Z"/>
    <path class="st2" d="M949,1667.3l-61.7-105.2-121.9.8-60.3,106,61.7,105.2,121.9-.8,60.3-106ZM709.5,1668.8l58.1-102.2,117.5-.8,59.4,101.4-58.1,102.2-117.5.8-59.4-101.4Z"/>
    <polygon class="st0" points="1291.2 1857.5 1027.4 1859.2 897 2088.6 1030.4 2316.2 1294.2 2314.4 1424.6 2085.1 1291.2 1857.5"/>
    <polygon class="st0" points="1854.2 2734.9 1590.4 2736.6 1460 2965.9 1593.4 3193.5 1857.2 3191.8 1987.6 2962.5 1854.2 2734.9"/>
    <polygon class="st2" points="2834 3279.9 2481.6 3282.2 2307.4 3588.5 2485.5 3892.6 2838 3890.3 3012.2 3583.9 2834 3279.9"/>
    <rect class="st2" x="927.9" y="2314.4" width="48.4" height="48.4" transform="translate(-15.2 6.2) rotate(-.4)"/>
    <rect class="st2" x="1763" y="1951.2" width="71.6" height="71.6" transform="translate(-12.9 11.7) rotate(-.4)"/>
    <polyline class="st2" points="2778.8 3391.4 2686.6 3392 2687.2 3484.2"/>
    <rect class="st2" x="3208.1" y="1400.3" width="85.6" height="85.6" transform="translate(-9.3 21.2) rotate(-.4)"/>
    <rect class="st2" x="929.7" y="2440.2" width="37.3" height="37.3" transform="translate(-16 6.2) rotate(-.4)"/>
    <path class="st2" d="M824.5,2362c-21.7-22.6-57.9-23.2-80.4-1.5l-16.8,16.2-16.1-16.7c-21.7-22.6-57.9-23.2-80.5-1.5-11.6,11.3-17.4,26.3-17.3,41.4s5.4,28.2,15.9,39.1l16.2,16.7,79,81.9,81.9-79,16.8-16.2c22.5-21.7,23.2-57.9,1.4-80.4ZM650.1,2365.4c-2.6,1.6-5.1,3.5-7.4,5.6-2.6,2.5-4.8,5.2-6.6,8.3-.5.8-1.4,1.4-2.4,1.3-.5,0-.9-.1-1.4-.4-1.3-.7-1.7-2.5-.9-3.8,2-3.4,4.6-6.6,7.5-9.5,2.6-2.4,5.3-4.6,8.4-6.3,1.3-.8,2.9-.3,3.7,1,.8,1.3.3,2.9-1,3.7ZM789.6,2460.7l-46.1-.8c-.6,0-1.2-.4-1.4-1l-2.4-8.7-5,23.8c-.1.7-.7,1.1-1.4,1.1h0c-.8,0-1.3-.7-1.3-1.4l-3-59-5,54.3c0,.7-.7,1.3-1.4,1.3s-1.3-.5-1.4-1.3l-2.1-16.5-1.3,5.7c-.1.7-.7,1.1-1.4,1.1l-41-.8c-.8,0-1.4-.6-1.4-1.4s.7-1.4,1.4-1.4l39.9.7,2.8-12.5c.1-.7.7-1.1,1.4-1.1.7,0,1.3.5,1.4,1.2l1.4,11.7,5.6-61.3c0-.8.7-1.3,1.5-1.3.7,0,1.3.6,1.4,1.4l3.4,67.9,4-18.8c0-.7.7-1.1,1.3-1.1s1.3.4,1.4,1l3.7,13.3,44.9.8c.8,0,1.4.7,1.4,1.4,0,.8-.7,1.4-1.4,1.4Z"/>
  </g>
</svg>