<?xml version="1.0" encoding="UTF-8"?>
<svg id="Layer_1" xmlns="http://www.w3.org/2000/svg" version="1.1" viewBox="0 0 2721.6 3002.4">
  <!-- Generator: Adobe Illustrator 29.0.0, SVG Export Plug-In . SVG Version: 2.1.0 Build 186)  -->
  <defs>
    <style>
      .st0 {
        fill: #fff;
        opacity: .2;
      }

      .st1 {
        fill: #e6ecf7;
        isolation: isolate;
        opacity: .2;
      }
    </style>
  </defs>
  <polygon class="st1" points="2776.1 1873.7 2573.5 1875.1 2572.2 1672.4 2346.7 1673.9 2348 1876.5 2145.4 1877.8 2146.9 2103.3 2349.5 2102 2350.8 2304.6 2576.3 2303.1 2575 2100.5 2777.6 2099.2 2776.1 1873.7"/>
  <circle class="st0" cx="508.8" cy="2437.4" r="18.2" transform="translate(-1939.2 2893.1) rotate(-88.8)"/>
  <circle class="st0" cx="612.5" cy="2250.1" r="18.2" transform="translate(-1427.6 1120.5) rotate(-45.8)"/>
  <circle class="st0" cx="614.4" cy="2633.1" r="18.2" transform="translate(-1723.3 1274.4) rotate(-46.7)"/>
  <path class="st0" d="M2701.2,2404.6l-478.1,3.1c-1.3,0-2.5-.7-3.1-1.8l-241.7-412.5c-.6-1.1-.6-2.5,0-3.6l236.4-415.6c.6-1.1,1.8-1.8,3.1-1.8l478.1-3.1c1.3,0,2.5.7,3.1,1.8l241.7,412.5c.6,1.1.6,2.5,0,3.6l-236.4,415.6c-.6,1.1-1.8,1.8-3.1,1.8h0ZM2225.2,2400.5l474-3.1,234.3-412-239.7-408.9-474,3.1-234.3,412,239.7,408.9h0Z"/>
  <circle class="st0" cx="1989" cy="1991.6" r="39.4"/>
  <circle class="st0" cx="2695.7" cy="1573" r="39.4" transform="translate(588.6 3875.4) rotate(-77.8)"/>
  <circle class="st0" cx="2214" cy="1576.1" r="39.4" transform="translate(205.6 3407) rotate(-77.8)"/>
  <circle class="st0" cx="2218" cy="2402" r="39.4"/>
  <circle class="st0" cx="2699.4" cy="2398.8" r="39.4"/>
  <circle class="st0" cx="2934" cy="1985.5" r="39.4" transform="translate(373.3 4433.7) rotate(-77.8)"/>
  <path class="st0" d="M1898.2,2697.5l-352.3,2.3c-.9,0-1.8-.5-2.3-1.3l-178.1-303.9c-.5-.8-.5-1.8,0-2.6l174.2-306.2c.5-.8,1.3-1.3,2.3-1.3l352.3-2.3c.9,0,1.8.5,2.3,1.3l178.1,303.9c.5.8.5,1.8,0,2.6l-174.2,306.2c-.5.8-1.3,1.3-2.3,1.3ZM1547.4,2694.5l349.2-2.3,172.7-303.6-176.6-301.3-349.2,2.3-172.7,303.6,176.6,301.3Z"/>
  <circle class="st0" cx="1372.9" cy="2391.7" r="29.1" transform="translate(-1197.2 3391.5) rotate(-81.4)"/>
  <circle class="st0" cx="1894.2" cy="2084.7" r="29.1"/>
  <circle class="st0" cx="1539.1" cy="2087" r="29.1"/>
  <circle class="st0" cx="1543.1" cy="2697.2" r="29.1"/>
  <circle class="st0" cx="1898.1" cy="2694.9" r="29.1"/>
  <circle class="st0" cx="2068.8" cy="2387.2" r="29.1" transform="translate(-1013 1693.4) rotate(-36.4)"/>
  <path class="st0" d="M837.8,2632l-220.8,1.4c-.6,0-1.1-.3-1.4-.8l-111.7-190.5c-.3-.5-.3-1.1,0-1.6l109.2-192c.3-.5.8-.8,1.4-.8l220.8-1.4c.6,0,1.1.3,1.4.8l111.7,190.5c.3.5.3,1.1,0,1.6l-109.2,192c-.3.5-.8.8-1.4.8ZM617.9,2630.2l218.9-1.4,108.2-190.3-110.7-188.9-218.9,1.4-108.2,190.3,110.7,188.9Z"/>
  <circle class="st0" cx="834.5" cy="2248.6" r="18.2" transform="translate(-833.5 525.1) rotate(-23.7)"/>
  <circle class="st0" cx="838.9" cy="2629.4" r="18.2" transform="translate(-982.5 555.8) rotate(-23.6)"/>
  <circle class="st0" cx="945" cy="2436.5" r="18.2" transform="translate(-1639 2827.2) rotate(-77.4)"/>
  <path class="st0" d="M1276.5,2891.8l-220.8,1.4c-.6,0-1.1-.3-1.4-.8l-111.7-190.5c-.3-.5-.3-1.1,0-1.6l109.2-192c.3-.5.8-.8,1.4-.8l220.8-1.4c.6,0,1.1.3,1.4.8l111.7,190.5c.3.5.3,1.1,0,1.6l-109.2,192c-.3.5-.8.8-1.4.8ZM1056.6,2889.9l218.9-1.4,108.2-190.3-110.7-188.9-218.9,1.4-108.2,190.3,110.7,188.9Z"/>
  <circle class="st0" cx="948.8" cy="2700.5" r="18.2" transform="translate(-18.8 6.7) rotate(-.4)"/>
  <circle class="st0" cx="1273.1" cy="2508.8" r="18.2"/>
  <circle class="st0" cx="1050.4" cy="2510.2" r="18.2"/>
  <circle class="st0" cx="1053.8" cy="2891.6" r="18.2"/>
  <circle class="st0" cx="1276.4" cy="2890.2" r="18.2"/>
  <circle class="st0" cx="1385.3" cy="2697.6" r="18.2"/>
  <path class="st0" d="M2336.4,2912.2l-220.8,1.4c-.6,0-1.1-.3-1.4-.8l-111.7-190.5c-.3-.5-.3-1.1,0-1.6l109.2-192c.3-.5.8-.8,1.4-.8l220.8-1.4c.6,0,1.1.3,1.4.8l111.7,190.5c.3.5.3,1.1,0,1.6l-109.2,192c-.3.5-.8.8-1.4.8ZM2116.5,2910.4l218.9-1.4,108.2-190.3-110.7-188.9-218.9,1.4-108.2,190.3,110.7,188.9Z"/>
  <circle class="st0" cx="2008.4" cy="2719.9" r="18.2"/>
  <circle class="st0" cx="2333.7" cy="2530" r="18.2"/>
  <circle class="st0" cx="2111.2" cy="2531.4" r="18.2"/>
  <circle class="st0" cx="2113.6" cy="2913.9" r="18.2"/>
  <circle class="st0" cx="2336.1" cy="2912.6" r="18.2"/>
  <circle class="st0" cx="2444.7" cy="2716.8" r="18.2"/>
  <path class="st0" d="M1827,1995.9l-220.8,1.4c-.6,0-1.1-.3-1.4-.8l-111.7-190.5c-.3-.5-.3-1.1,0-1.6l109.2-192c.3-.5.8-.8,1.4-.8l220.8-1.4c.6,0,1.1.3,1.4.8l111.7,190.5c.3.5.3,1.1,0,1.6l-109.2,192c-.3.5-.8.8-1.4.8ZM1607.1,1994l218.9-1.4,108.2-190.3-110.7-188.9-218.9,1.4-108.2,190.3,110.7,188.9Z"/>
  <circle class="st0" cx="1498.9" cy="1804.4" r="18.2"/>
  <circle class="st0" cx="1824.4" cy="1611.7" r="18.2"/>
  <circle class="st0" cx="1602.6" cy="1612.5" r="18.2"/>
  <circle class="st0" cx="1605.4" cy="1995" r="18.2"/>
  <circle class="st0" cx="1826.9" cy="1994.2" r="18.2"/>
  <circle class="st0" cx="1935.3" cy="1801.4" r="18.2"/>
  <path class="st0" d="M3392.9,2897.7l-154.2-263.2-305.1,2-150.8,265.2,154.2,263.2,305.1-2,150.8-265.2ZM2793.9,2901.6l145.4-255.6,294-1.9,148.7,253.7-145.4,255.6-294,1.9-148.7-253.7Z"/>
  <path class="st0" d="M949,1667.3l-61.7-105.2-121.9.8-60.3,106,61.7,105.2,121.9-.8,60.3-106ZM709.5,1668.8l58.1-102.2,117.5-.8,59.4,101.4-58.1,102.2-117.5.8-59.4-101.4Z"/>
  <polygon class="st1" points="1291.2 1857.5 1027.4 1859.2 897 2088.6 1030.4 2316.2 1294.2 2314.4 1424.6 2085.1 1291.2 1857.5"/>
  <polygon class="st1" points="1854.2 2734.9 1590.4 2736.6 1460 2965.9 1593.4 3193.5 1857.2 3191.8 1987.6 2962.5 1854.2 2734.9"/>
  <rect class="st0" x="929" y="2313.9" width="48.4" height="48.4" transform="translate(-16.3 6.7) rotate(-.4)"/>
  <rect class="st0" x="1763.9" y="1950.3" width="71.6" height="71.6" transform="translate(-13.8 12.6) rotate(-.4)"/>
  <rect class="st0" x="3208.8" y="1398.8" width="85.6" height="85.6" transform="translate(-10 22.7) rotate(-.4)"/>
  <rect class="st0" x="930.8" y="2439.7" width="37.3" height="37.3" transform="translate(-17.1 6.7) rotate(-.4)"/>
  <path class="st0" d="M824.5,2362c-21.7-22.6-57.9-23.2-80.4-1.5l-16.8,16.2-16.1-16.7c-21.7-22.6-57.9-23.2-80.5-1.5-11.6,11.3-17.4,26.3-17.3,41.4s5.4,28.2,15.9,39.1l16.2,16.7,79,81.9,81.9-79,16.8-16.2c22.5-21.7,23.2-57.9,1.4-80.4h-.1ZM650.1,2365.4c-2.6,1.6-5.1,3.5-7.4,5.6-2.6,2.5-4.8,5.2-6.6,8.3-.5.8-1.4,1.4-2.4,1.3-.5,0-.9-.1-1.4-.4-1.3-.7-1.7-2.5-.9-3.8,2-3.4,4.6-6.6,7.5-9.5,2.6-2.4,5.3-4.6,8.4-6.3,1.3-.8,2.9-.3,3.7,1s.3,2.9-1,3.7h.1ZM789.6,2460.7l-46.1-.8c-.6,0-1.2-.4-1.4-1l-2.4-8.7-5,23.8c0,.7-.7,1.1-1.4,1.1h0c-.8,0-1.3-.7-1.3-1.4l-3-59-5,54.3c0,.7-.7,1.3-1.4,1.3s-1.3-.5-1.4-1.3l-2.1-16.5-1.3,5.7c0,.7-.7,1.1-1.4,1.1l-41-.8c-.8,0-1.4-.6-1.4-1.4s.7-1.4,1.4-1.4l39.9.7,2.8-12.5c0-.7.7-1.1,1.4-1.1s1.3.5,1.4,1.2l1.4,11.7,5.6-61.3c0-.8.7-1.3,1.5-1.3s1.3.6,1.4,1.4l3.4,67.9,4-18.8c0-.7.7-1.1,1.3-1.1s1.3.4,1.4,1l3.7,13.3,44.9.8c.8,0,1.4.7,1.4,1.4s-.7,1.4-1.4,1.4v.3h0Z"/>
</svg>