<?xml version="1.0" encoding="UTF-8"?>
<svg id="Layer_1" xmlns="http://www.w3.org/2000/svg" width="37.8in" height="41.7in" version="1.1" viewBox="0 0 2721.6 3002.4">
  <!-- Generator: Adobe Illustrator 29.1.0, SVG Export Plug-In . SVG Version: 2.1.0 Build 142)  -->
  <defs>
    <style>
      .st0 {
        fill: #93c2e9;
        opacity: .6;
      }

      .st1 {
        fill: #fff;
      }
    </style>
  </defs>
  <polygon class="st0" points="473.9 1031.3 703.4 1032.8 816.9 1232.3 700.9 1430.3 471.3 1428.9 357.8 1229.3 473.9 1031.3"/>
  <polygon class="st0" points="-330.7 1041.7 -101.1 1043.2 12.4 1242.7 -103.7 1440.8 -333.2 1439.3 -446.7 1239.8 -330.7 1041.7"/>
  <polygon class="st0" points="-731.5 53.5 -555.2 54.7 -554.1 -121.6 -357.9 -120.4 -359 56 -182.7 57.1 -184 253.3 -360.3 252.1 -361.4 428.4 -557.6 427.2 -556.5 250.9 -732.8 249.7 -731.5 53.5"/>
  <circle class="st1" cx="1150.9" cy="380.4" r="15.8" transform="translate(68.1 925.2) rotate(-45)"/>
  <circle class="st1" cx="1148.8" cy="713.2" r="15.8" transform="translate(-167.8 1021.2) rotate(-45)"/>
  <g>
    <path class="st1" d="M-669,513.9l-205.7-361.6c-.5-1-.5-2.2,0-3.1l210.3-358.9c.6-1,1.6-1.5,2.7-1.5l416,2.7c1.1,0,2.1.6,2.7,1.6L-37.3,154.6c.5,1,.5,2.2,0,3.1l-210.3,358.9c-.6,1-1.6,1.5-2.7,1.5l-416-2.7c-1.1,0-2.1-.6-2.7-1.6ZM-43.6,156.1L-247.4-202.4l-412.4-2.7-208.5,355.8,203.9,358.5,412.4,2.7L-43.6,156.1Z"/>
    <circle class="st1" cx="-46.6" cy="156.1" r="34.3" transform="translate(-124 12.7) rotate(-45)"/>
    <circle class="st1" cx="-661.5" cy="-208.2" r="34.3" transform="translate(29.6 -150.2) rotate(-12.7)"/>
    <circle class="st1" cx="-242.3" cy="-205.5" r="34.3" transform="translate(39.2 -58.1) rotate(-12.7)"/>
    <circle class="st1" cx="-247" cy="515.1" r="34.3" transform="translate(-120.5 -42) rotate(-12.8)"/>
    <circle class="st1" cx="-666.2" cy="512.3" r="34.3" transform="translate(-130.4 -135.1) rotate(-12.8)"/>
    <circle class="st1" cx="-868.9" cy="150.7" r="34.3" transform="translate(-54.2 -186.9) rotate(-12.7)"/>
    <path class="st1" d="M30.4,769.1L-121.1,502.7c-.4-.7-.4-1.6,0-2.3L33.9,235.9c.4-.7,1.2-1.1,2-1.1l306.5,2c.8,0,1.6.4,2,1.2l151.5,266.4c.4.7.4,1.6,0,2.3l-155,264.5c-.4.7-1.2,1.1-2,1.1l-306.5-2c-.8,0-1.6-.4-2-1.2ZM491.3,505.5l-150.2-264.2-303.9-2L-116.5,501.6,33.7,765.7l303.9,2,153.6-262.2Z"/>
    <circle class="st1" cx="489" cy="505.5" r="25.3" transform="translate(-71.7 80.9) rotate(-8.8)"/>
    <circle class="st1" cx="35.9" cy="237.1" r="25.3"/>
    <circle class="st1" cx="344.9" cy="239.1" r="25.3"/>
    <circle class="st1" cx="341.4" cy="770" r="25.3"/>
    <circle class="st1" cx="32.5" cy="768" r="25.3"/>
    <circle class="st1" cx="-116.8" cy="501.6" r="25.3" transform="translate(-78.2 -12) rotate(-8.8)"/>
    <path class="st1" d="M953.8,712.6l-95-167c-.2-.4-.2-1,0-1.4l97.2-165.8c.3-.4.7-.7,1.2-.7l192.1,1.2c.5,0,1,.3,1.2.7l95,167c.2.4.2,1,0,1.4l-97.2,165.8c-.3.4-.7.7-1.2.7l-192.1-1.2c-.5,0-1-.3-1.2-.7ZM1242.7,547.4l-94.2-165.6-190.5-1.2-96.3,164.3,94.2,165.6,190.5,1.2,96.3-164.3Z"/>
    <circle class="st1" cx="957.3" cy="379.1" r="15.8" transform="translate(232.7 1110.6) rotate(-66.9)"/>
    <circle class="st1" cx="955.1" cy="711.9" r="15.8" transform="translate(-72.8 1313.9) rotate(-67.1)"/>
    <circle class="st1" cx="861.5" cy="544.9" r="15.8" transform="translate(-99.7 205.6) rotate(-12.9)"/>
    <path class="st1" d="M572.1,938.6l-95-167c-.2-.4-.2-1,0-1.4l97.2-165.8c.3-.4.7-.7,1.2-.7l192.1,1.2c.5,0,1,.3,1.2.7l95,167c.2.4.2,1,0,1.4l-97.2,165.8c-.3.4-.7.7-1.2.7l-192.1-1.2c-.5,0-1-.3-1.2-.7ZM861,773.4l-94.2-165.6-190.5-1.2-96.3,164.3,94.2,165.6,190.5,1.2,96.3-164.3Z"/>
    <circle class="st1" cx="859.6" cy="773.4" r="15.8" transform="translate(80.6 1627.9) rotate(-89.6)"/>
    <circle class="st1" cx="575.6" cy="605.1" r="15.8" transform="translate(-206.9 896.9) rotate(-66.9)"/>
    <circle class="st1" cx="769.3" cy="606.4" r="15.8" transform="translate(-90.5 1075.8) rotate(-66.9)"/>
    <circle class="st1" cx="767.1" cy="939.2" r="15.8"/>
    <circle class="st1" cx="573.4" cy="937.9" r="15.8"/>
    <circle class="st1" cx="479.8" cy="770.9" r="15.8" transform="translate(-294.2 1245.7) rotate(-89.6)"/>
    <path class="st1" d="M-350.1,956.4l-95-167c-.2-.4-.2-1,0-1.4l97.2-165.8c.3-.4.7-.7,1.2-.7l192.1,1.2c.5,0,1,.3,1.2.7l95,167c.2.4.2,1,0,1.4l-97.2,165.8c-.3.4-.7.7-1.2.7l-192.1-1.2c-.5,0-1-.3-1.2-.7ZM-61.2,791.2l-94.2-165.6-190.5-1.2-96.3,164.3,94.2,165.6,190.5,1.2,96.3-164.3Z"/>
    <circle class="st1" cx="-62.6" cy="791.2" r="15.8" transform="translate(-766.8 425) rotate(-67.1)"/>
    <circle class="st1" cx="-346.7" cy="622.9" r="15.8" transform="translate(-542 -62.7) rotate(-45)"/>
    <circle class="st1" cx="-153" cy="624.2" r="15.8" transform="translate(-486.2 74.6) rotate(-45)"/>
    <circle class="st1" cx="-155.2" cy="957" r="15.8" transform="translate(-722.1 170.6) rotate(-45)"/>
    <circle class="st1" cx="-348.8" cy="955.7" r="15.8" transform="translate(-778 33.3) rotate(-45)"/>
    <circle class="st1" cx="-442.4" cy="788.7" r="15.8" transform="translate(-996.2 73.8) rotate(-67.1)"/>
    <path class="st1" d="M93.1,159.1L-1.9-8c-.2-.4-.2-1,0-1.4l97.2-165.8c.3-.4.7-.7,1.2-.7l192.1,1.2c.5,0,1,.3,1.2.7L384.9-6.9c.2.4.2,1,0,1.4l-97.2,165.8c-.3.4-.7.7-1.2.7l-192.1-1.2c-.5,0-1-.3-1.2-.7ZM382-6.2l-94.2-165.6-190.5-1.2L1-8.7l94.2,165.6,190.5,1.2L382-6.2Z"/>
    <circle class="st1" cx="380.6" cy="-6.2" r="15.8" transform="translate(384.3 374.4) rotate(-89.6)"/>
    <circle class="st1" cx="96.6" cy="-174.4" r="15.8"/>
    <circle class="st1" cx="290.2" cy="-173.2" r="15.8" transform="translate(461.4 118.2) rotate(-89.6)"/>
    <circle class="st1" cx="288.1" cy="159.6" r="15.8" transform="translate(126.5 446.6) rotate(-89.6)"/>
    <circle class="st1" cx="94.4" cy="158.4" r="15.8"/>
    <circle class="st1" cx=".8" cy="-8.7" r="15.8" transform="translate(9.5 -7.8) rotate(-89.6)"/>
    <rect class="st1" x="-1232.6" y="680.8" width="459.8" height="530.9" transform="translate(-1942.4 -62.7) rotate(-89.6)"/>
    <path class="st1" d="M-1137,1175.2l265.4,1.7,134.2-229-131.2-230.7-265.4-1.7-134.2,229,131.2,230.7ZM-876.3,1168.6l-255.8-1.7-126.5-222.4,129.4-220.7,255.8,1.7,126.5,222.4-129.4,220.7Z"/>
    <path class="st1" d="M910.7-33.9l106.1.7,53.6-91.5-52.5-92.2-106.1-.7-53.6,91.5,52.5,92.2ZM1014.9-36.5l-102.3-.7-50.6-88.9,51.7-88.2,102.3.7,50.6,88.9-51.7,88.2Z"/>
    <polygon class="st0" points="560.5 39.4 790.1 40.9 903.5 240.5 787.5 438.5 558 437 444.5 237.5 560.5 39.4"/>
    <polygon class="st0" points="70.7 802.9 300.2 804.3 413.7 1003.9 297.6 1201.9 68.1 1200.4 -45.4 1000.9 70.7 802.9"/>
    <polygon class="st1" points="-781.8 1277 -475.2 1279 -323.6 1545.6 -478.7 1810.1 -785.3 1808.1 -936.9 1541.6 -781.8 1277"/>
    <rect class="st1" x="834.5" y="437" width="42.1" height="42.1" transform="translate(392 1310.7) rotate(-89.6)"/>
    <rect class="st1" x="87.7" y="121" width="62.3" height="62.3" transform="translate(-34 270) rotate(-89.6)"/>
    <polyline class="st1" points="-733.8 1374 -653.6 1374.5 -654.1 1454.8"/>
    <rect class="st1" x="-1181.9" y="-358.4" width="74.5" height="74.5" transform="translate(-816.1 -1463.7) rotate(-89.6)"/>
    <rect class="st1" x="842.6" y="546.4" width="32.5" height="32.5" transform="translate(290.7 1417.8) rotate(-89.6)"/>
    <path class="st0" d="M1036.6,477c-19.6-18.9-51.1-18.3-70,1.3-18.9,19.6-18.3,51.1,1.3,70l14.6,14.1,71.2,68.7,68.7-71.3,14.1-14.6c9.1-9.5,13.7-21.7,13.8-34,0-13.1-5-26.2-15.1-36-19.7-18.9-51.1-18.3-70.1,1.3M1117.5,478.1c.7-1.1,2.1-1.5,3.2-.8,2.7,1.5,5.1,3.4,7.3,5.5,2.5,2.5,4.8,5.3,6.5,8.3.6,1.1.3,2.6-.8,3.3-.4.2-.8.3-1.2.3-.9,0-1.6-.4-2.1-1.1-1.6-2.7-3.5-5.1-5.7-7.3-2-1.9-4.1-3.5-6.4-4.9-1.1-.7-1.5-2.1-.8-3.2Z"/>
  </g>
</svg>