<?xml version="1.0" encoding="UTF-8"?>
<svg id="Layer_1" xmlns="http://www.w3.org/2000/svg" version="1.1" viewBox="0 0 2721.6 3002.4">
  <!-- Generator: Adobe Illustrator 29.0.0, SVG Export Plug-In . SVG Version: 2.1.0 Build 186)  -->
  <defs>
    <style>
      .st0 {
        fill: #fff;
        opacity: .2;
      }

      .st1 {
        fill: #e6ecf7;
        isolation: isolate;
        opacity: .2;
      }
    </style>
  </defs>
  <polygon class="st1" points="473.9 1031.3 703.4 1032.8 816.9 1232.3 700.9 1430.3 471.3 1428.9 357.8 1229.3 473.9 1031.3"/>
  <polygon class="st1" points="-330.7 1041.7 -101.1 1043.2 12.4 1242.7 -103.7 1440.8 -333.2 1439.3 -446.7 1239.8 -330.7 1041.7"/>
  <polygon class="st1" points="-731.5 53.5 -555.2 54.7 -554.1 -121.6 -357.9 -120.4 -359 56 -182.7 57.1 -184 253.3 -360.3 252.1 -361.4 428.4 -557.6 427.2 -556.5 250.9 -732.8 249.7 -731.5 53.5"/>
  <circle class="st0" cx="1150.9" cy="380.4" r="15.8" transform="translate(68.1 925.2) rotate(-45)"/>
  <circle class="st0" cx="1148.8" cy="713.2" r="15.8" transform="translate(-167.8 1021.2) rotate(-45)"/>
  <g>
    <path class="st0" d="M-669,513.9l-205.7-361.6c-.5-1-.5-2.2,0-3.1l210.3-358.9c.6-1,1.6-1.5,2.7-1.5l416,2.7c1.1,0,2.1.6,2.7,1.6L-37.3,154.6c.5,1,.5,2.2,0,3.1l-210.3,358.9c-.6,1-1.6,1.5-2.7,1.5l-416-2.7c-1.1,0-2.1-.6-2.7-1.6h0ZM-43.6,156.1L-247.4-202.4l-412.4-2.7-208.5,355.8,203.9,358.5,412.4,2.7L-43.6,156.1Z"/>
    <circle class="st0" cx="-46.6" cy="156" r="34.3"/>
    <circle class="st0" cx="-661.5" cy="-207.9" r="34.3" transform="translate(29.5 -150.5) rotate(-12.7)"/>
    <circle class="st0" cx="-242.4" cy="-205.3" r="34.3"/>
    <circle class="st0" cx="-247.1" cy="515.1" r="34.3" transform="translate(-32.8 -14.5) rotate(-3.6)"/>
    <circle class="st0" cx="-666.5" cy="512.1" r="34.3"/>
    <circle class="st0" cx="-868.7" cy="151.1" r="34.3" transform="translate(-54.5 -187.3) rotate(-12.7)"/>
    <path class="st0" d="M30.4,769.1L-121.1,502.7c-.4-.7-.4-1.6,0-2.3L33.9,235.9c.4-.7,1.2-1.1,2-1.1l306.5,2c.8,0,1.6.4,2,1.2l151.5,266.4c.4.7.4,1.6,0,2.3l-155,264.5c-.4.7-1.2,1.1-2,1.1l-306.5-2c-.8,0-1.6-.4-2-1.2h0ZM491.3,505.5l-150.2-264.2-303.9-2L-116.5,501.6,33.7,765.7l303.9,2,153.6-262.2h0Z"/>
    <circle class="st0" cx="488.9" cy="505.6" r="25.3" transform="translate(-214.3 493.8) rotate(-45)"/>
    <circle class="st0" cx="35.9" cy="237.1" r="25.3"/>
    <circle class="st0" cx="344.9" cy="239.1" r="25.3"/>
    <circle class="st0" cx="341.4" cy="770" r="25.3"/>
    <circle class="st0" cx="32.5" cy="768" r="25.3"/>
    <circle class="st0" cx="-116.9" cy="501.6" r="25.3"/>
    <path class="st0" d="M953.8,712.6l-95-167c-.2-.4-.2-1,0-1.4l97.2-165.8c.3-.4.7-.7,1.2-.7l192.1,1.2c.5,0,1,.3,1.2.7l95,167c.2.4.2,1,0,1.4l-97.2,165.8c-.3.4-.7.7-1.2.7l-192.1-1.2c-.5,0-1-.3-1.2-.7h0ZM1242.7,547.4l-94.2-165.6-190.5-1.2-96.3,164.3,94.2,165.6,190.5,1.2,96.3-164.3h0Z"/>
    <circle class="st0" cx="957" cy="378.8" r="15.8"/>
    <circle class="st0" cx="954.6" cy="711.1" r="15.8"/>
    <circle class="st0" cx="861.7" cy="544.4" r="15.8"/>
    <path class="st0" d="M572.1,938.6l-95-167c-.2-.4-.2-1,0-1.4l97.2-165.8c.3-.4.7-.7,1.2-.7l192.1,1.2c.5,0,1,.3,1.2.7l95,167c.2.4.2,1,0,1.4l-97.2,165.8c-.3.4-.7.7-1.2.7l-192.1-1.2c-.5,0-1-.3-1.2-.7h0ZM861,773.4l-94.2-165.6-190.5-1.2-96.3,164.3,94.2,165.6,190.5,1.2,96.3-164.3Z"/>
    <circle class="st0" cx="860" cy="773.7" r="15.8"/>
    <circle class="st0" cx="575.5" cy="604.9" r="15.8"/>
    <circle class="st0" cx="769.1" cy="606.1" r="15.8"/>
    <circle class="st0" cx="767.1" cy="939.2" r="15.8"/>
    <circle class="st0" cx="573.4" cy="937.9" r="15.8"/>
    <circle class="st0" cx="480" cy="771.3" r="15.8"/>
    <path class="st0" d="M-350.1,956.4l-95-167c-.2-.4-.2-1,0-1.4l97.2-165.8c.3-.4.7-.7,1.2-.7l192.1,1.2c.5,0,1,.3,1.2.7l95,167c.2.4.2,1,0,1.4l-97.2,165.8c-.3.4-.7.7-1.2.7l-192.1-1.2c-.5,0-1-.3-1.2-.7h0ZM-61.2,791.2l-94.2-165.6-190.5-1.2-96.3,164.3,94.2,165.6,190.5,1.2,96.3-164.3h0Z"/>
    <circle class="st0" cx="-62.4" cy="790.5" r="15.8" transform="translate(-779.8 452.8) rotate(-69.3)"/>
    <circle class="st0" cx="-346.7" cy="622.9" r="15.8"/>
    <circle class="st0" cx="-153" cy="624.2" r="15.8" transform="translate(-486.2 74.6) rotate(-45)"/>
    <circle class="st0" cx="-155.2" cy="957" r="15.8" transform="translate(-722.1 170.6) rotate(-45)"/>
    <circle class="st0" cx="-348.9" cy="955.7" r="15.8"/>
    <circle class="st0" cx="-441.8" cy="788.2" r="15.8"/>
    <path class="st0" d="M93.1,159.1L-1.9-8c-.2-.4-.2-1,0-1.4l97.2-165.8c.3-.4.7-.7,1.2-.7l192.1,1.2c.5,0,1,.3,1.2.7L384.9-6.9c.2.4.2,1,0,1.4l-97.2,165.8c-.3.4-.7.7-1.2.7l-192.1-1.2c-.5,0-1-.3-1.2-.7h0ZM382-6.2l-94.2-165.6-190.5-1.2L1-8.7l94.2,165.6,190.5,1.2L382-6.2Z"/>
    <circle class="st0" cx="380.8" cy="-6.2" r="15.8" transform="translate(384.3 374.6) rotate(-89.6)"/>
    <circle class="st0" cx="96.6" cy="-174.4" r="15.8"/>
    <circle class="st0" cx="290.2" cy="-173.2" r="15.8" transform="translate(461.4 118.2) rotate(-89.6)"/>
    <circle class="st0" cx="288.1" cy="159.6" r="15.8" transform="translate(126.5 446.6) rotate(-89.6)"/>
    <circle class="st0" cx="94.4" cy="158.4" r="15.8"/>
    <circle class="st0" cx=".8" cy="-8.7" r="15.8"/>
    <rect class="st0" x="-1233.1" y="681.1" width="459.8" height="530.9" transform="translate(-1942.7 -63.2) rotate(-89.6)"/>
    <path class="st0" d="M-1137,1175.2l265.4,1.7,134.2-229-131.2-230.7-265.4-1.7-134.2,229,131.2,230.7h0ZM-876.3,1168.6l-255.8-1.7-126.5-222.4,129.4-220.7,255.8,1.7,126.5,222.4-129.4,220.7h0Z"/>
    <path class="st0" d="M910.7-33.9l106.1.7,53.6-91.5-52.5-92.2-106.1-.7-53.6,91.5,52.5,92.2h0ZM1014.9-36.5l-102.3-.7-50.6-88.9,51.7-88.2,102.3.7,50.6,88.9-51.7,88.2h0Z"/>
    <polygon class="st1" points="560.5 39.4 790.1 40.9 903.5 240.5 787.5 438.5 558 437 444.5 237.5 560.5 39.4"/>
    <polygon class="st1" points="70.7 802.9 300.2 804.3 413.7 1003.9 297.6 1201.9 68.1 1200.4 -45.4 1000.9 70.7 802.9"/>
    <polygon class="st0" points="-781.8 1277 -475.2 1279 -323.6 1545.6 -478.7 1810.1 -785.3 1808.1 -936.9 1541.6 -781.8 1277"/>
    <rect class="st0" x="835" y="437.3" width="42.1" height="42.1" transform="translate(391.7 1311.2) rotate(-89.6)"/>
    <rect class="st0" x="87.8" y="121.1" width="62.3" height="62.3" transform="translate(-34.1 270.1) rotate(-89.6)"/>
    <polyline class="st0" points="-733.8 1374 -653.6 1374.5 -654.1 1454.8"/>
    <rect class="st0" x="-1182.5" y="-358.6" width="74.5" height="74.5" transform="translate(-815.9 -1464.3) rotate(-89.6)"/>
    <rect class="st0" x="843" y="546.7" width="32.5" height="32.5" transform="translate(290.4 1418.2) rotate(-89.6)"/>
    <path class="st1" d="M1036.6,477c-19.6-18.9-51.1-18.3-70,1.3-18.9,19.6-18.3,51.1,1.3,70l14.6,14.1,71.2,68.7,68.7-71.3,14.1-14.6c9.1-9.5,13.7-21.7,13.8-34,0-13.1-5-26.2-15.1-36-19.7-18.9-51.1-18.3-70.1,1.3M1117.5,478.1c.7-1.1,2.1-1.5,3.2-.8,2.7,1.5,5.1,3.4,7.3,5.5,2.5,2.5,4.8,5.3,6.5,8.3.6,1.1.3,2.6-.8,3.3-.4.2-.8.3-1.2.3-.9,0-1.6-.4-2.1-1.1-1.6-2.7-3.5-5.1-5.7-7.3-2-1.9-4.1-3.5-6.4-4.9-1.1-.7-1.5-2.1-.8-3.2h0Z"/>
  </g>
</svg>