<?xml version="1.0" encoding="UTF-8"?>
<svg id="Layer_1" xmlns="http://www.w3.org/2000/svg" version="1.1" viewBox="0 0 72 72">
  <!-- Generator: Adobe Illustrator 29.0.1, SVG Export Plug-In . SVG Version: 2.1.0 Build 192)  -->
  <defs>
    <style>
      .st0 {
        fill: #ffc510;
      }

      .st1 {
        fill: #ec2037;
      }

      .st2 {
        fill: #85c446;
      }

      .st3 {
        fill: #f37127;
      }

      .st4 {
        fill: #7bd3f7;
      }

      .st5 {
        fill: #2bbdbd;
      }
    </style>
  </defs>
  <g>
    <path class="st4" d="M35.9,16.6c3.8,8.4,10.4,15.3,18.7,19.4,5.3-2.6,11.3-4.1,17.6-4.1s0,0,0,0v-5.9h0c-14.2,0-25.8-11.5-25.8-25.8s0-.5,0-.7h-7.1V.2c0,5.8-1.3,11.4-3.5,16.4h0Z"/>
    <path class="st2" d="M54.6,35.9c-8.3,4.1-14.9,10.9-18.7,19.4,2.3,5,3.5,10.5,3.5,16.4s0,.3,0,.5h7.1v-.5c0-14.2,11.5-25.8,25.8-25.8s0,0,0,0v-5.9h0c-6.3,0-12.3-1.5-17.6-4.1h0Z"/>
    <path class="st5" d="M72.3,31.8c-6.3,0-12.3,1.5-17.6,4.1,5.3,2.6,11.3,4.1,17.6,4.1s0,0,0,0v-8.2h0Z"/>
    <path class="st0" d="M39.4-.6h-14.1V.1c0,14.3-11.5,25.8-25.7,25.8s0,0,0,0v5.9H-.4c6.3,0,12.3,1.5,17.6,4.1,8.3-4.1,14.9-10.9,18.7-19.4,2.3-5,3.5-10.5,3.5-16.4s0-.5,0-.7Z"/>
    <path class="st1" d="M35.9,55.3c-3.8-8.4-10.4-15.3-18.7-19.4-5.3,2.6-11.3,4.1-17.6,4.1s0,0,0,0v5.9H-.4c14.2,0,25.8,11.5,25.8,25.8s0,.3,0,.5h14.1v-.5c0-5.8-1.3-11.4-3.5-16.4h0Z"/>
    <path class="st3" d="M17.2,35.9c-5.3-2.6-11.3-4.1-17.6-4.1s0,0,0,0v8.2H-.4c6.3,0,12.3-1.5,17.6-4.1Z"/>
  </g>
  <circle class="st4" cx="62.7" cy="9" r="5.9"/>
  <circle class="st0" cx="9.2" cy="8.8" r="5.9"/>
</svg>