<?xml version="1.0" encoding="UTF-8"?>
<svg id="Layer_1" xmlns="http://www.w3.org/2000/svg" width="1in" height="1in" version="1.1" viewBox="0 0 72 72">
  <!-- Generator: Adobe Illustrator 29.1.0, SVG Export Plug-In . SVG Version: 2.1.0 Build 142)  -->
  <defs>
    <style>
      .st0 {
        fill: #3a7288;
      }
    </style>
  </defs>
  <g id="Group_874">
    <g id="Group_873">
      <path id="Path_1296" class="st0" d="M71.9,26.2c-14.1,0-25.5-11.4-25.5-25.5h0c0-.3,0-.5,0-.7h-21c0,.2,0,.5,0,.7,0,14.1-11.4,25.5-25.5,25.5,0,0,0,0,0,0H0v19.8h0c14.1,0,25.5,11.4,25.5,25.5v.5h21v-.5c0-14.1,11.4-25.5,25.5-25.5h0v-19.8h0M35.9,55.3c-3.8-8.4-10.3-15.1-18.6-19.2,8.2-4.1,14.8-10.8,18.5-19.2,3.8,8.4,10.3,15.1,18.6,19.2-8.2,4.1-14.8,10.8-18.5,19.2"/>
    </g>
  </g>
</svg>