<?xml version="1.0" encoding="UTF-8"?>
<svg id="Layer_1" data-name="Layer 1" xmlns="http://www.w3.org/2000/svg" version="1.1" viewBox="0 0 168.8 169.7">
  <defs>
    <style>
      .cls-1 {
        fill: #dfe3e5;
        stroke-width: 0px;
      }
    </style>
  </defs>
  <path id="Union_5" data-name="Union 5" class="cls-1" d="M143.7,156c0-6.6,5.3-11.9,11.9-11.9s11.9,5.3,11.9,11.9-5.3,11.9-11.9,11.9h0c-6.6,0-11.9-5.3-11.9-11.9ZM96.2,156c0-6.6,5.3-11.9,11.9-11.9s11.9,5.3,11.9,11.9-5.3,11.9-11.9,11.9h0c-6.6,0-11.9-5.3-11.9-11.9h0ZM48.7,156c0-6.6,5.3-11.9,11.9-11.9s11.9,5.3,11.9,11.9-5.3,11.9-11.9,11.9h0c-6.6,0-11.9-5.3-11.9-11.9ZM1.2,156c0-6.6,5.3-11.9,11.9-11.9s11.9,5.3,11.9,11.9-5.3,11.9-11.9,11.9h0c-6.6,0-11.9-5.3-11.9-11.9ZM143.7,108.5c0-6.6,5.3-11.9,11.9-11.9,6.6,0,11.9,5.3,11.9,11.9,0,6.6-5.3,11.9-11.9,11.9s-11.9-5.3-11.9-11.9h0ZM96.2,108.5c0-6.6,5.3-11.9,11.9-11.9,6.6,0,11.9,5.3,11.9,11.9s-5.3,11.9-11.9,11.9-11.9-5.3-11.9-11.9c0,0,0,0,0,0ZM48.7,108.5c0-6.6,5.3-11.9,11.9-11.9,6.6,0,11.9,5.3,11.9,11.9,0,6.6-5.3,11.9-11.9,11.9s-11.9-5.3-11.9-11.9c0,0,0,0,0,0ZM1.2,108.5c0-6.6,5.3-11.9,11.9-11.9,6.6,0,11.9,5.3,11.9,11.9s-5.3,11.9-11.9,11.9-11.9-5.3-11.9-11.9,0,0,0,0ZM143.7,61c0-6.6,5.3-11.9,11.9-11.9,6.6,0,11.9,5.3,11.9,11.9s-5.3,11.9-11.9,11.9h0c-6.6,0-11.9-5.3-11.9-11.9ZM96.2,61c0-6.6,5.3-11.9,11.9-11.9,6.6,0,11.9,5.3,11.9,11.9s-5.3,11.9-11.9,11.9h0c-6.6,0-11.9-5.3-11.9-11.9h0ZM48.7,61c0-6.6,5.3-11.9,11.9-11.9,6.6,0,11.9,5.3,11.9,11.9s-5.3,11.9-11.9,11.9h0c-6.6,0-11.9-5.3-11.9-11.9h0ZM1.2,61c0-6.6,5.3-11.9,11.9-11.9,6.6,0,11.9,5.3,11.9,11.9,0,6.6-5.3,11.9-11.9,11.9h0c-6.6,0-11.9-5.3-11.9-11.9ZM143.7,13.6c0-6.6,5.3-11.9,11.9-11.9s11.9,5.3,11.9,11.9-5.3,11.9-11.9,11.9h0c-6.6,0-11.9-5.3-11.9-11.9ZM96.2,13.6c0-6.6,5.3-11.9,11.9-11.9s11.9,5.3,11.9,11.9-5.3,11.9-11.9,11.9h0c-6.6,0-11.9-5.3-11.9-11.9s0,0,0,0ZM48.7,13.6c0-6.6,5.3-11.9,11.9-11.9s11.9,5.3,11.9,11.9-5.3,11.9-11.9,11.9h0c-6.6,0-11.9-5.3-11.9-11.9s0,0,0,0ZM1.2,13.6c0-6.6,5.3-11.9,11.9-11.9,6.6,0,11.9,5.3,11.9,11.9,0,6.6-5.3,11.9-11.9,11.9h0c-6.6,0-11.9-5.3-11.9-11.9Z"/>
</svg>