<?xml version="1.0" encoding="UTF-8"?>
<svg id="Layer_1" data-name="Layer 1" xmlns="http://www.w3.org/2000/svg" version="1.1" viewBox="0 0 168.8 169.7">
  <defs>
    <style>
      .cls-1 {
        fill: #dfe3e5;
        stroke-width: 0px;
      }
    </style>
  </defs>
  <g id="Group_5893" data-name="Group 5893">
    <path id="Path_19084" data-name="Path 19084" class="cls-1" d="M143.3-6l28.1,28.1v-6.4s-21.7-21.7-21.7-21.7h-6.4Z"/>
    <path id="Path_19085" data-name="Path 19085" class="cls-1" d="M165.1-6l6.4,6.4v-6.4s-6.4,0-6.4,0Z"/>
    <path id="Path_19086" data-name="Path 19086" class="cls-1" d="M121.6-6l49.9,49.9v-6.4S128-6,128-6h-6.4Z"/>
    <path id="Path_19087" data-name="Path 19087" class="cls-1" d="M78.2-6l93.3,93.3v-6.4S84.6-6,84.6-6h-6.4Z"/>
    <path id="Path_19088" data-name="Path 19088" class="cls-1" d="M99.9-6l71.6,71.6v-6.4S106.3-6,106.3-6h-6.4Z"/>
    <path id="Path_19089" data-name="Path 19089" class="cls-1" d="M56.5-6l115,115v-6.4S62.9-6,62.9-6h-6.4Z"/>
    <path id="Path_19090" data-name="Path 19090" class="cls-1" d="M34.8-6l136.7,136.7v-6.4S41.2-6,41.2-6h-6.4Z"/>
    <path id="Path_19091" data-name="Path 19091" class="cls-1" d="M13-6l158.4,158.4v-6.4S19.4-6,19.4-6h-6.4Z"/>
    <path id="Path_19092" data-name="Path 19092" class="cls-1" d="M-5.5-6v3.2s173.7,173.8,173.7,173.8h3.2s0-3.2,0-3.2L-2.3-6h-3.2Z"/>
    <path id="Path_19093" data-name="Path 19093" class="cls-1" d="M-5.5,18.9l152,152h6.4S-5.5,12.5-5.5,12.5v6.4Z"/>
    <path id="Path_19094" data-name="Path 19094" class="cls-1" d="M-5.5,40.7L124.8,171h6.4S-5.5,34.3-5.5,34.3v6.4Z"/>
    <path id="Path_19095" data-name="Path 19095" class="cls-1" d="M-5.5,62.4l108.6,108.6h6.4S-5.5,56-5.5,56v6.4Z"/>
    <path id="Path_19096" data-name="Path 19096" class="cls-1" d="M-5.5,84.1l86.9,86.9h6.4S-5.5,77.7-5.5,77.7v6.4Z"/>
    <path id="Path_19097" data-name="Path 19097" class="cls-1" d="M-5.5,105.8l65.2,65.2h6.4S-5.5,99.4-5.5,99.4v6.4Z"/>
    <path id="Path_19098" data-name="Path 19098" class="cls-1" d="M-5.5,127.5l43.4,43.4h6.4S-5.5,121.1-5.5,121.1v6.4Z"/>
    <path id="Path_19099" data-name="Path 19099" class="cls-1" d="M-5.5,149.3l21.7,21.7h6.4s-28.1-28.1-28.1-28.1v6.4Z"/>
    <path id="Path_19100" data-name="Path 19100" class="cls-1" d="M-5.5,171H.9s-6.4-6.4-6.4-6.4v6.4Z"/>
  </g>
</svg>