<?xml version="1.0" encoding="UTF-8"?>
<svg id="Layer_1" xmlns="http://www.w3.org/2000/svg" width="6000" height="2500" version="1.1" viewBox="0 0 6000 2500">
  <!-- Generator: Adobe Illustrator 29.1.0, SVG Export Plug-In . SVG Version: 2.1.0 Build 142)  -->
  <defs>
    <style>
      .st0 {
        fill: #fff;
      }

      .st1 {
        opacity: .9;
      }

      .st2 {
        opacity: .8;
      }

      .st3 {
        opacity: .8;
      }

      .st4 {
        opacity: .7;
      }

      .st5 {
        opacity: .9;
      }

      .st6 {
        opacity: .4;
      }

      .st7 {
        opacity: .4;
      }

      .st8 {
        opacity: .7;
      }

      .st9 {
        opacity: .6;
      }

      .st10 {
        opacity: .6;
      }

      .st11 {
        opacity: .5;
      }

      .st12 {
        opacity: .2;
      }

      .st13 {
        opacity: .3;
      }

      .st14 {
        opacity: .3;
      }

      .st15 {
        opacity: 0;
      }

      .st16 {
        opacity: .2;
      }

      .st17 {
        opacity: .2;
      }
    </style>
  </defs>
  <g class="st16">
    <path class="st0" d="M-137.2,2339.3l-7.9-1.4c20.7-162.1,88.8-316.8,196.9-447.5,100.3-121.2,232.8-217.3,373.2-270.4,241.2-91.3,524.5-87.2,866.2,12.6,141.7,41.4,282.9,95.1,419.5,147.1,136.6,52,277.8,105.7,419.3,147,340.1,99.4,622,103.5,861.8,12.6,341-129.3,594.7-448.7,840.1-757.6,89.3-112.4,181.5-228.5,276.7-333.9,270.5-299.4,593.9-526.8,935.1-657.4,362.9-138.9,732.2-160.8,1068-63.3l-1.9,9.1c-658-191.2-1422.7,84.1-1995.7,718.4-95,105.1-187.2,221.2-276.3,333.4-246.1,309.8-500.6,630.1-843.5,760.1-241.2,91.4-524.5,87.4-866.2-12.4-141.8-41.4-283.1-95.2-419.8-147.2-136.4-51.9-277.5-105.6-418.9-146.9-340.2-99.4-622.1-103.6-861.8-12.8-297.8,112.8-524.7,398.2-564.6,710.4Z"/>
    <g class="st5">
      <path class="st0" d="M-122.8,2354.9l-7.9-1.7c49-314.7,275.6-592.5,577.1-707.9,217.2-83.1,464.5-90.6,756-22.9,34.9,8.1,71.1,17.5,107.7,27.8,135.8,38.6,271.4,88.6,402.5,137,142,52.4,288.8,106.6,435.7,146.1,48.2,12.9,95.7,24,141.2,32.8,267.8,51.9,507.8,36.1,713.1-47.2,155.6-62.9,304.8-167,469.7-327.4,121.4-117.9,236.9-252.1,348.6-381.8,100.1-116.3,203.6-236.5,310.2-343.5,155.5-156.5,328-291.1,512.9-399.9,484.3-285.2,1013.5-368.2,1490.1-233.9l-1.9,9.2c-474.8-133.8-1002.1-51-1484.7,233.2-184.3,108.5-356.3,242.6-511.3,398.7-106.4,106.8-209.7,226.9-309.7,343.1-111.8,129.9-227.5,264.2-349.1,382.4-165.7,161.2-315.7,265.7-472.2,329.1-206.6,83.7-447.8,99.7-717,47.5-45.6-8.8-93.3-19.9-141.7-32.9-147.2-39.5-294.2-93.8-436.3-146.3-131-48.4-266.4-98.4-401.9-136.9-36.5-10.4-72.6-19.7-107.4-27.8-290.1-67.3-536.1-59.9-751.9,22.7-298.8,114.3-523.1,389.3-571.7,700.6Z"/>
    </g>
    <g class="st1">
      <path class="st0" d="M-108.3,2370.5l-7.8-2c57.1-308.9,286.3-582.8,584-697.9,215.3-83.2,468.8-93.2,753.6-29.7,34.7,7.7,70.9,16.8,107.6,26.9,130.5,35.9,260.9,82.7,387,127.9,146.9,52.6,298.8,107.1,450.5,144.3,48.1,11.8,95.5,21.5,140.9,28.9,261.2,42.9,498.7,19.2,705.9-70.3,150.1-64.6,298.8-169,467.9-328.3,110.3-103.7,216.8-217.8,319.7-328.1,113.8-121.9,231.4-248,352.4-357.7,157.6-143.4,331.8-265.5,517.9-362.7,478.1-249.8,1005.4-315.3,1485-184.4l-1.8,9.2c-477.8-130.5-1003.5-65.2-1479.9,183.8-185.5,96.9-359.2,218.6-516.2,361.6-120.7,109.4-238.3,235.4-351.9,357.2-103.1,110.5-209.6,224.7-320.1,328.5-169.8,160-319.2,264.8-470.1,329.8-208.4,90.1-447.2,113.9-709.7,70.8-45.5-7.4-93.1-17.2-141.4-29-152.1-37.3-304.2-91.8-451.2-144.5-126-45.2-256.3-91.9-386.5-127.7-36.6-10.1-72.6-19.1-107.2-26.8-283.4-63.2-535.6-53.3-749.6,29.4-295,114.1-522.2,385.3-578.7,691Z"/>
    </g>
    <g class="st2">
      <path class="st0" d="M-93.8,2386l-7.8-2.3c65.1-303.1,297-573.1,591-687.9,216.5-84.6,469.2-96.8,751.3-36.5,34.4,7.4,70.6,16.1,107.4,25.9,125.6,33.5,251.3,77.3,372.9,119.6,151.4,52.6,307.9,107.1,464,141.7,48.1,10.6,95.4,19,140.6,25.1,254.4,34.2,489.5,2.7,698.7-93.5,186.8-85.5,347.2-220.8,466.1-329.2,95.3-86.5,188.5-178.9,278.6-268.2,131.4-130.2,267.3-264.8,407-378.2,159.5-130.4,335.5-239.9,522.9-325.5,470.4-214.8,996-262.7,1479.9-134.8l-1.8,9.2c-482.3-127.4-1006.2-79.7-1475.2,134.4-186.8,85.3-362.2,194.5-521.2,324.4-139.3,113.2-275.1,247.6-406.4,377.6-90.2,89.4-183.5,181.8-278.9,268.4-119.3,108.7-280.3,244.6-468,330.5-210.4,96.7-446.8,128.4-702.5,94-45.3-6.1-92.8-14.5-141.1-25.2-156.5-34.6-313.2-89.2-464.8-141.9-121.5-42.2-247.1-85.9-372.4-119.4-36.7-9.8-72.8-18.5-107.1-25.8-280.7-60.1-532.1-47.9-747.3,36.1-291.4,113.8-521.3,381.2-585.7,681.3Z"/>
    </g>
    <g class="st3">
      <path class="st0" d="M-79.4,2401.6l-7.7-2.6c74.2-301.8,303.3-561.6,597.9-677.9,217.7-85.9,469.6-100.5,748.9-43.2,34.5,7.1,70.6,15.5,107.3,24.9,121.1,31.3,242.5,72.3,359.9,111.9,155.5,52.5,316.3,106.7,476.3,138.3,48,9.4,95.1,16.6,140.3,21.2,247.4,25.8,480-13.5,691.5-116.6,176.1-85.5,333.5-214.8,464.2-330.1,74.5-65.4,148.3-133.2,219.7-198.8,162-148.8,314.9-289.4,479.3-408,161.4-117.4,339-214.4,527.9-288.3,467.7-182.8,977.6-212.2,1474.7-85.3l-1.7,9.2c-495.7-126.6-1004.2-97.2-1470.5,85-188.3,73.6-365.3,170.3-526.2,287.3-164,118.3-316.8,258.7-478.6,407.4-71.4,65.7-145.3,133.5-219.9,199-131.2,115.6-289.1,245.4-466,331.2-212.6,103.7-446.6,143.2-695.2,117.3-45.3-4.7-92.7-11.9-140.9-21.3-160.5-31.7-321.5-86-477.2-138.6-117.3-39.6-238.5-80.5-359.4-111.8-36.5-9.4-72.5-17.8-107-24.9-277.9-56.9-528.6-42.5-745,42.9C221.2,1845.3-5.9,2102.7-79.4,2401.6Z"/>
    </g>
    <g class="st4">
      <path class="st0" d="M-64.9,2417.2l-7.6-2.9c82.2-296,314-551.9,604.8-667.9,218.9-87.3,470.1-104.1,746.6-50,34.4,6.7,70.4,14.8,107.2,24,117,29.3,234.5,67.7,348.1,104.9,159.3,52.1,324,106,487.5,134.4,47.9,8.3,95,14.1,139.9,17.4,240.2,17.7,470.4-29.3,684.3-139.8,171.8-88.2,328.8-217.1,462.4-330.9,43.8-37.1,87.3-74.4,130.4-111.5,196.8-169,382.8-328.7,582.1-455.8,164.9-105.2,344.2-189.6,532.9-251,455.4-148.1,963.6-160.5,1469.6-35.7l-1.6,9.2c-504.7-124.4-1011.6-112.1-1465.8,35.6-188.1,61.2-366.8,145.4-531.2,250.2-198.8,126.8-384.6,286.3-581.2,455.1-43.2,37.1-86.6,74.4-130.5,111.5-134,114.1-291.4,243.3-463.9,331.9-215,111.1-446.5,158.4-688,140.5-45.2-3.3-92.5-9.2-140.6-17.5-164.1-28.5-329-82.5-488.5-134.7-113.5-37.1-230.8-75.5-347.6-104.7-36.6-9.2-72.6-17.2-106.8-23.9-275.2-53.9-525-37.2-742.7,49.6-288.5,115-518.3,368.7-599.8,661.9Z"/>
    </g>
    <g class="st8">
      <path class="st0" d="M-50.5,2432.7l-7.5-3.2c90.3-290.1,324.7-542.2,611.8-657.8,220.2-88.7,470.6-107.8,744.2-56.8,34.1,6.4,70.2,14.1,107,23,113.3,27.4,227.1,63.5,337.1,98.4,162.8,51.6,331.1,105,497.9,130,47.8,7.1,94.8,11.7,139.6,13.6,232.9,10.1,460.7-44.7,677.1-162.9,168.2-91.3,323.6-219.1,460.6-331.8,233.7-191.2,475.4-388.9,726-527.8,166.7-92.4,347.6-164.3,537.8-213.8,439.4-114.2,945.8-109.5,1464.4,13.8l-1.6,9.2c-517.5-123-1022.8-127.8-1461.1-13.8-189.6,49.3-370,121-536.2,213.1-250,138.6-491.4,336-724.8,527-137.3,112.9-292.9,241-461.8,332.7-217.5,118.8-446.6,173.8-680.7,163.8-45-1.9-92.3-6.5-140.4-13.6-167.4-25.1-335.9-78.5-499-130.2-109.9-34.9-223.6-70.9-336.6-98.2-36.7-8.9-72.6-16.6-106.7-22.9-272.3-50.8-521.4-31.9-740.4,56.4-284.8,114.8-517.4,364.6-606.8,652.2Z"/>
    </g>
    <g class="st9">
      <path class="st0" d="M-36,2448.3l-7.4-3.6c99.8-288.6,331.1-530.7,618.7-647.8,221.5-90.2,471.1-111.5,741.9-63.5,34,6,70,13.4,106.9,22,109.8,25.6,220.2,59.5,327,92.3,166,51,337.6,103.7,507.4,125,47.9,5.9,94.8,9.2,139.3,9.7,225.3,2.8,450.8-59.8,669.9-186.1,146.3-83.8,283.2-192.9,415.6-298.4,14.4-11.5,28.8-22.9,43.2-34.4,227.2-179.3,474-362.5,739.5-488.3,168.4-79.8,351-139.2,542.8-176.6,423.7-82.6,914.6-61.3,1459.2,63.3l-1.5,9.3c-543.7-124.4-1033.7-145.7-1456.4-63.3-191.2,37.3-373.3,96.5-541.1,176-264.8,125.4-511.2,308.3-738,487.3-14.4,11.4-28.8,22.9-43.2,34.4-132.6,105.7-269.8,214.9-416.6,299-220.2,126.9-446.8,190-673.5,187-44.8-.5-92-3.8-140.1-9.8-170.4-21.4-342.3-74.2-508.6-125.3-106.7-32.8-217-66.6-326.5-92.2-36.8-8.6-72.6-16-106.5-22-269.4-47.8-517.8-26.6-738,63.1-285.5,116.2-515,356.4-613.9,642.5Z"/>
    </g>
    <g class="st10">
      <path class="st0" d="M-21.6,2463.9l-7.3-3.9c107.9-282.6,341.7-521.1,625.6-637.8,222.9-91.7,471.7-115.3,739.5-70.3,34,5.7,70,12.8,106.7,21.1,106.6,24,213.9,55.9,317.7,86.7,168.9,50.2,343.7,102.2,516.1,119.7,47.8,4.8,94.6,6.8,139,5.9,220.8-4.1,437.6-72.5,662.7-209.2,125.6-75.8,245.3-169.1,361.1-259.4,31.9-24.9,63.8-49.7,95.8-74.2,281.6-214.2,520.9-356.8,753-448.7,169.9-67.2,354.2-114.1,547.8-139.3,403.2-52.5,865.3-16.6,1454.1,112.8l-1.5,9.3c-588-129.3-1049.3-165.1-1451.7-112.7-193.1,25.1-376.8,71.9-546.1,138.9-231.4,91.6-470.1,233.9-751.2,447.7-32,24.5-63.9,49.3-95.8,74.2-116,90.4-235.9,183.8-361.9,259.9-226.2,137.4-444.1,206.2-666.2,210.3-44.7.9-91.7-1.1-139.8-5.9-173.1-17.6-348.1-69.6-517.4-119.9-103.7-30.8-210.9-62.7-317.2-86.6-36.7-8.2-72.5-15.3-106.4-21-266.6-44.8-514.1-21.3-735.7,69.8-281.8,115.9-514,352.5-621,632.8Z"/>
    </g>
    <g class="st11">
      <path class="st0" d="M-7.2,2479.4l-7.2-4.2c115.9-276.7,352.4-511.4,632.5-627.8,224.3-93.2,472.3-119.1,737.2-77,34.3,5.4,69.2,12,106.6,20.1,103.6,22.4,208,52.4,308.9,81.5,171.7,49.4,349.3,100.5,524.2,114,47.7,3.6,94.4,4.3,138.7,2.1,213-10.5,427.4-86.6,655.5-232.4,106.4-67.6,209.4-146.9,309-223.6,47.8-36.8,97.1-74.8,146.1-110.9,266.6-195.4,517.3-329.2,766.5-409.1,171.2-54.9,357.2-89.3,552.8-102.1,478.2-31.3,977.9,63,1448.9,162.3l-1.4,9.3c-470.5-99.2-969.8-193.5-1447-162.2-195,12.8-380.4,47-551.1,101.8-248.4,79.7-498.4,213.2-764.3,408-48.9,36.1-98.2,74-146,110.8-99.8,76.8-202.9,156.2-309.6,224-229.2,146.5-444.8,222.9-659,233.5-44.6,2.3-91.6,1.6-139.6-2.1-175.6-13.6-353.5-64.7-525.5-114.2-100.9-29-205.2-59-308.5-81.4-37.3-8.1-72.1-14.6-106.2-20.1-263.6-41.8-510.3-16.1-733.4,76.6C342.6,1971.9,107.9,2204.8-7.2,2479.4Z"/>
    </g>
    <g class="st6">
      <path class="st0" d="M7.3,2495l-7.1-4.5c125.8-274.9,358.9-500,639.4-617.8,222.6-93.4,476.7-122.4,734.8-83.8,34.2,5.1,69,11.4,106.5,19.1,100.8,21,202.5,49.2,300.9,76.6,174.3,48.5,354.5,98.6,531.6,107.9,47.6,2.5,94.2,1.9,138.4-1.8,207.8-16.8,413.8-98,648.3-255.5,88.5-59.1,175.3-125.8,259.3-190.2,63.2-48.5,128.6-98.7,194-145.1,255.3-180.1,517.7-304.5,780-369.5,172.5-42.8,360.1-64.6,557.8-64.9h3.4c408.4,0,823.5,85.3,1263.1,175.6,58.9,12.1,118,24.2,177.2,36.2l-1.4,9.3c-59.3-12-118.3-24.1-177.3-36.2-439.1-90.2-854-175.5-1261.7-175.5h-3.4c-197.1.3-384.2,22-556.1,64.7-261.4,64.9-523,188.8-777.5,368.4-65.2,46.3-130.6,96.5-193.7,145-84.1,64.5-171,131.3-259.7,190.5-235.5,158.2-442.6,239.8-651.7,256.7-44.5,3.6-91.4,4.3-139.3,1.8-177.8-9.4-358.4-59.6-533.1-108.2-98.3-27.3-199.9-55.6-300.4-76.5-37.3-7.8-72-14-106.1-19.1-256.9-38.4-509.7-9.6-731.1,83.3-278.7,117-510.2,340.5-635.1,613.4Z"/>
    </g>
    <g class="st7">
      <path class="st0" d="M21.7,2510.5l-6.9-4.8c133.9-268.9,369.5-490.4,646.4-607.8,224.1-95,477.4-126.3,732.5-90.6,34.1,4.8,68.8,10.7,106.3,18.2,98.2,19.6,197.4,46.2,293.4,72,176.7,47.4,359.4,96.5,538.5,101.6,47.5,1.3,94-.6,138.1-5.6,202.4-22.8,400.1-108.7,641.1-278.7,71.8-50.4,143.1-105.4,212-158.6,77.8-60.1,158.2-122.2,239.5-177.7,250-169.7,517-280.7,793.5-329.9,173.7-30.9,363-40.2,562.7-27.7,326.2,20.5,652.5,92.3,998.1,168.4,143.7,31.6,292.3,64.3,440.5,92.9l-1.3,9.3c-148.3-28.6-296.9-61.3-440.6-92.9-345.3-76-671.4-147.7-997-168.2-199.2-12.5-388-3.2-561.1,27.6-275.5,49-541.5,159.7-790.6,328.8-81.1,55.4-161.4,117.4-239.1,177.4-69,53.3-140.3,108.3-212.2,158.8-242.1,170.7-440.8,257.1-644.5,280-44.4,5-91.2,6.9-139.1,5.7-179.9-5.1-363-54.3-540.1-101.8-95.8-25.7-194.9-52.4-292.9-71.9-37.4-7.4-72-13.4-105.9-18.1-253.9-35.6-505.9-4.4-728.8,90.1-275.1,116.6-509.2,336.7-642.1,603.7Z"/>
    </g>
    <g class="st13">
      <path class="st0" d="M36.1,2526.1l-6.8-5c142-262.9,380.1-480.8,653.3-597.8,225.6-96.6,478.1-130.3,730.1-97.3,34,4.4,68.7,10.1,106.2,17.2,95.8,18.3,192.6,43.4,286.3,67.6,178.9,46.4,363.9,94.3,544.9,95,47.2,0,93.8-3.1,137.8-9.4,247.2-35.7,459.2-172.6,633.9-301.8,56.3-41.5,112.6-85.6,167.1-128.2,91.4-71.5,185.9-145.5,282.6-209,247.7-161.6,519.2-259.3,807-290.3,173.1-19.5,364.1-16.2,567.7,9.6,266.5,33.8,529.8,99.4,808.5,168.9,203.2,50.6,413.3,103,624.8,141.9l-1.2,9.3c-211.7-38.9-422-91.3-625.3-142-278.5-69.4-541.6-135-807.7-168.7-203.1-25.7-393.6-29-566.1-9.5-286.7,30.9-557.1,128.2-803.8,289.2-96.4,63.2-190.8,137.1-282,208.6-54.5,42.7-110.9,86.8-167.3,128.3-175.5,129.8-388.4,267.3-637.2,303.2-44.3,6.4-90.8,9.5-138.8,9.5-181.8-.7-367.3-48.7-546.6-95.2-93.6-24.2-190.3-49.3-285.9-67.5-37.3-7.1-71.9-12.7-105.8-17.1-250.8-32.8-502,.7-726.5,96.8-271.6,116.3-508.2,332.8-649.2,594Z"/>
    </g>
    <g class="st14">
      <path class="st0" d="M50.5,2541.7l-6.6-5.3c152.2-260.7,386.6-469.4,660.2-587.8,227.2-98.3,478.9-134.3,727.8-104.1,34,4.1,68.7,9.4,106.1,16.2,93.5,17,188.2,40.7,279.7,63.6,181,45.2,368.2,91.9,550.8,88.1,47.3-1,93.6-5.5,137.5-13.3,235.9-41.6,440.6-180.8,626.7-325,41.8-32.3,84-66,124.7-98.6,104-83.2,211.4-169.1,323.1-239.4,245.1-153.6,521.1-238,820.4-250.7,174.6-8.1,367.2,7.7,572.7,46.8,222,42.3,449.3,107.7,669.1,170.9,246.1,70.8,500.7,144.1,759.1,189.2l-1.2,9.3c-258.8-45.2-513.5-118.5-759.9-189.4-229.8-66.1-446.8-128.6-668.4-170.8-204.9-39-397.1-54.7-571.1-46.7-298.1,12.7-573,96.7-817,249.6-111.3,70.1-218.6,155.9-322.4,238.9-40.8,32.6-83,66.4-124.8,98.7-186.9,144.8-392.5,284.6-629.9,326.5-44.2,7.8-90.8,12.3-138.5,13.4-183.5,3.8-371.2-43-552.6-88.3-91.4-22.8-186-46.5-279.3-63.5-37.3-6.8-71.8-12.1-105.6-16.2-247.7-30-498.1,5.8-724.2,103.6-272,117.6-505.1,325.1-656.3,584.3Z"/>
    </g>
    <g class="st12">
      <path class="st0" d="M64.9,2557.2l-6.4-5.6c160.3-254.6,397.2-459.8,667-577.8,228.9-100,479.7-138.3,725.4-110.8,33.8,3.8,68.4,8.8,105.9,15.3,91.4,15.9,184,38.1,273.6,59.7,183,44,372.2,89.5,556.3,81,47.3-2.2,93.4-8,137.2-17.1,236.4-49.3,435.7-199,619.5-348.2,28.3-22.9,56.4-46.1,84.6-69.2,115.6-95.1,235.1-193.5,361.4-269.7,243.4-146.4,524.2-217.4,833.9-211.1,176.2,3.2,370.5,31.4,577.6,84,188,47.7,379,111.3,563.8,172.8,277.9,92.5,565.2,188.1,859.2,236.8l-1.1,9.3c-294.6-48.8-582.2-144.5-860.3-237.1-184.6-61.4-375.5-125-563.3-172.6-206.6-52.4-400.4-80.6-576.1-83.8-308.7-6.4-587.9,64.3-830.1,210-125.8,75.9-245.1,174.1-360.5,269.1-28.2,23.2-56.3,46.4-84.6,69.3-184.6,149.7-384.7,300.1-622.7,349.7-44.1,9.2-90.6,15-138.3,17.3-185.2,8.5-374.8-37.1-558.3-81.2-89.5-21.5-182-43.8-273.2-59.6-37.3-6.5-71.9-11.5-105.5-15.2-244.5-27.4-494.1,10.8-721.9,110.3-268.4,117.3-504,321.3-663.4,574.5Z"/>
    </g>
    <g class="st17">
      <path class="st0" d="M79.4,2572.7l-6.3-5.9c170.7-252.2,403.8-448.5,673.9-567.8,230.6-101.8,480.6-142.5,723.1-117.6,33.6,3.4,68.2,8.1,105.8,14.3,89.4,14.7,180.1,35.7,267.9,56,184.8,42.7,375.8,86.9,561.5,73.8,47.2-3.4,93.3-10.4,136.9-20.9,225.4-54.3,418.2-206.6,612.3-371.3,15.7-13.3,31.3-26.6,47-40,126.2-107.5,256.7-218.7,397.2-299.9,242.4-139.8,527.5-197.5,847.4-171.4,180.4,14.5,371,54.1,582.6,121.2,161.6,51.3,325,113.7,482.9,174.1,301.7,115.4,613.7,234.7,935,284.9l-1.1,9.4c-322-50.4-634.4-169.8-936.4-285.3-157.8-60.4-321.1-122.8-482.5-174-211.1-66.9-401.2-106.5-581.1-120.9-318.4-26-602.2,31.4-843.3,170.5-139.9,80.8-270.1,191.8-396.1,299.1-15.7,13.3-31.3,26.7-47,40-194.8,165.3-388.5,318.3-615.4,372.9-44,10.6-90.4,17.7-138,21.1-186.6,13.2-378.2-31.1-563.5-73.9-87.6-20.3-178.2-41.2-267.4-55.9-37.4-6.2-71.9-10.8-105.4-14.3-241.3-24.7-490.1,15.8-719.5,117-268.8,118.6-500.6,314-670.5,564.8Z"/>
    </g>
    <g class="st15">
      <path class="st0" d="M93.8,2588.3l-6.1-6.1c341.1-469.4,878.1-730.8,1401.5-682.2,122.8,11.4,247.5,39.1,368.1,65.9,232,51.5,471.8,104.8,702.8,41.6,232-63.5,427.6-237,616.8-404.8,135.8-120.5,276.3-245.1,430.8-330.4,378.1-208.8,851.9-200.1,1448.5,26.7,141,53.6,282.8,115.3,420,175,319.7,139.1,650.2,283,992.7,333.4l-1,9.4c-343.4-50.6-674.4-194.6-994.5-333.9-137.1-59.7-278.8-121.3-419.7-174.9-594.6-226-1066.5-234.8-1442.6-27.1-153.7,84.9-293.9,209.2-429.4,329.4-189.8,168.4-386.1,342.5-619.8,406.4-232.7,63.6-473.4,10.2-706.1-41.5-120.4-26.7-244.8-54.4-367.2-65.7-520.8-48.2-1055.3,211.8-1394.8,678.9Z"/>
    </g>
  </g>
</svg>