<?xml version="1.0" encoding="UTF-8"?>
<svg id="a" xmlns="http://www.w3.org/2000/svg" width="3.8in" height="5.4in" version="1.1" viewBox="0 0 273.6 388.8">
  <!-- Generator: Adobe Illustrator 29.1.0, SVG Export Plug-In . SVG Version: 2.1.0 Build 142)  -->
  <defs>
    <style>
      .st0 {
        fill: #fff;
      }

      .st1 {
        opacity: .2;
      }
    </style>
  </defs>
  <g id="b" class="st1">
    <path id="c" class="st0" d="M216.6,348.4c-31.7-23.1-59.8-56.9-84.6-101.5-10-18.1-14.9-39.4-13.4-57,1.4-15.2,8.3-34.7,33.4-41.2,24-6.2,45.5,4.8,64.4,14.5,13.5,7,25.2,13,35.2,11.4,24.5-3.6,30.1-11.4,36-19.6,6.2-8.6,12.6-17.5,39.1-23.3,19.2-4.3,34.8,1.7,49.9,7.6,16.6,6.4,32.2,12.4,52.9,6.3,6.8-2,14-7,22.4-12.9,12.7-8.8,28.6-19.8,49.3-24.6,24.3-5.7,50.8-2.2,80.5,10.9,23.5,10.4,37.1,22.7,41.9,37.6,12,38.2-37.8,87.3-94.6,138.7-17.3,15.6-53.2,44.9-100.3,65.9-47,21-91.9,28-133.6,21-27.9-4.9-54.3-16.1-78.7-33.9M133.9,246.5c43.1,78.2,97.5,123.4,161.9,134.2,41.1,7,85.6,0,132.1-20.8,47-21,82.7-50.1,99.9-65.7,56.4-51,106-100,94.3-137.4-4.6-14.6-18.1-26.6-41-36.6-65.9-29.1-101.5-4.3-127.5,13.7-8.5,6-16,11.1-23,13.1-21.4,6.4-38.3-.1-54.6-6.3-15.4-5.9-29.9-11.6-48.4-7.4-25.9,5.7-32.1,14.3-38.2,22.7-6,8.5-12,16.5-37.1,20.2-10.9,1.5-22.8-4.6-36.7-11.7-18.6-9.5-39.7-20.3-62.6-14.3-24.2,6.3-30.9,25.2-32.2,40.1-1.5,17.3,3.3,38.4,13.2,56.3"/>
    <path id="d" class="st0" d="M365,401.6c-61.3-9.6-125-55.7-189.8-137.5-30.3-38.3-57.2-106.3-18-130.6,21.3-13.1,46.6-3.5,69,4.9,15.8,6.1,29.6,11.3,38.8,7.2,22.7-9.8,25.2-21,27.8-32.8,2.8-12.4,5.7-25.1,29.4-38.4,17.4-9.7,35-5.2,52.1-.9,18.7,4.7,36.4,9.1,54.3-3.2,5.8-4,11-12,17.1-21.4,9.1-14,20.4-31.5,38.9-42.3,21.7-12.7,49.1-13.6,83.3-3.1,26.1,8,43.9,20.3,54.6,37.6,28.5,46.3-1.7,121.2-38.1,200.4-10.6,23.3-34.1,67.7-71.3,104.5-37.1,36.6-77.2,55.9-119.6,57.1-9.6.4-19-.2-28.4-1.7M177.1,263.2c74.4,93.8,147,140.4,215.9,138.3,41.8-1.2,81.6-20.2,118.1-56.5,37-36.7,60.2-81.1,70.9-104.1,36.4-78.9,66.4-153.4,38.3-199.1-10.3-16.9-27.8-28.8-53.3-36.7-75.7-23.2-101.1,16.1-119.6,44.6-6.2,9.6-11.5,17.6-17.5,21.9-18.7,12.9-37.7,8-56.2,3.4-17.3-4.3-33.8-8.5-50.2.8-23.2,12.9-26,25.3-28.7,37.4-2.7,12.2-5.3,23.7-28.7,33.9-10.1,4.4-24.3-1-40.7-7.2-21.9-8.3-46.6-17.7-66.9-5.2-21.4,13.3-20.6,39.2-16.3,58.5,5.2,22.8,18.2,48.9,34.8,69.8"/>
  </g>
</svg>