<?xml version="1.0" encoding="UTF-8"?>
<svg id="a" xmlns="http://www.w3.org/2000/svg" width="3.8in" height="5.4in" version="1.1" viewBox="0 0 272.7 391">
  <!-- Generator: Adobe Illustrator 29.1.0, SVG Export Plug-In . SVG Version: 2.1.0 Build 142)  -->
  <defs>
    <style>
      .st0 {
        fill: #fff;
      }

      .st1 {
        opacity: .2;
      }
    </style>
  </defs>
  <g id="b" class="st1">
    <path id="c" class="st0" d="M85.5,154.1c-1.8,42.6-17.6,91.8-47.3,147.8-12,22.6-31.2,44.5-51.1,58.4-17.2,11.9-42.9,23.7-67.9,11.1-23.9-12-27.6-36.9-30.8-58.9-2.3-15.7-4.3-29.2-13.1-35.1-21.4-14.7-33.8-12-46.7-9.2-13.6,2.9-27.7,5.9-52.9-8.3-18.3-10.3-23.2-26.6-27.8-42.4-5.1-17.4-9.9-33.8-31.4-43.5-7-3.2-17.6-4.1-29.9-5.2-18.5-1.7-41.5-3.8-61.7-14.5-23.6-12.6-38.9-34.7-46.2-67.4-5.9-25.8-2.6-46.2,10-62.4,32-41.3,120.2-47.3,215.7-50.3,29-.9,86.1,0,142.4,16C2.7,6,42.6,32.4,64.9,68.4c14.9,24.3,21.9,53,20.5,85.7M36.4,300.9c52.3-97.9,61.3-175.8,26.5-231.6C40.9,33.6,1.4,7.6-54.1-8.3c-56.1-15.9-112.8-16.9-141.8-15.9-94.9,2.9-182.7,8.9-214.1,49.5-12.2,15.8-15.3,35.7-9.6,60.8,16.5,72.4,68.4,77,106.2,80.3,12.5,1.1,23.3,2,30.5,5.4,22.2,10,27.5,27.8,32.5,44.8,4.7,16.2,9.2,31.5,26.9,41.3,24.6,13.8,38.3,10.9,51.7,8.1,13.4-2.9,26.1-5.5,48.2,9.6,9.4,6.5,11.6,20.4,13.9,36.5,3.2,21.6,6.8,46,29.8,57.4,24.1,12.1,49.1.7,65.9-11,19.5-13.7,38.5-35.3,50.4-57.7"/>
    <path id="d" class="st0" d="M35.3,1.5c33.9,52.4,30.6,137.8-10,254.5-19,54.7-72.1,132.2-126,124.7-29.3-4.1-37.2-30.7-44.3-54-4.9-16.6-9.3-31-20.2-34.2-26.7-8-40.5-.2-54.9,8-15.1,8.6-30.9,17.4-62,11.5-22.8-4.3-30.7-20.8-38.4-36.8-8.5-17.4-16.4-34.1-42.4-36.5-8.5-.8-20.7,2.3-35.1,6-21.5,5.4-48.2,12.2-73,8.1-29.1-4.8-49.8-23.8-63.2-57.5-10.2-25.7-9.9-49.1.8-71.6,28.9-60.1,130.4-102.3,240.8-143.7,32.4-12.2,96.7-33.3,162.5-37.9C-64.5-62.5-15.1-49.9,16.7-20.4c7.3,6.6,13.4,13.9,18.6,21.9M23.2,255.4C69.7,121.5,67.1,29.3,15.4-18.6c-31.3-29.1-80.2-41.6-145.1-37-65.7,4.7-129.6,25.8-161.8,37.8-110.1,41.2-211.1,83.2-239.6,142.5-10.5,21.8-10.7,44.7-.8,69.8,29.7,74.5,89.8,59.3,133.6,48.1,14.6-3.7,27-6.9,35.9-6.1,27.2,2.5,35.7,20.4,44,37.6,7.8,16.3,15.3,31.5,36.9,35.6,30.4,5.8,45.6-2.9,60.5-11.2,14.9-8.4,29.1-16.4,56.8-8.3,11.9,3.6,16.4,18.4,21.6,35.6,6.9,22.9,14.7,48.7,42.6,52.7,29.4,4.1,56.5-18.6,74-38.3,20.5-23.3,38.9-54.9,49.3-84.8"/>
  </g>
</svg>