<?xml version="1.0" encoding="UTF-8"?>
<svg id="Layer_1" xmlns="http://www.w3.org/2000/svg" width="1in" height="1in" version="1.1" viewBox="0 0 72 72">
  <!-- Generator: Adobe Illustrator 29.1.0, SVG Export Plug-In . SVG Version: 2.1.0 Build 142)  -->
  <defs>
    <style>
      .st0 {
        fill: #18114a;
      }

      .st1 {
        fill: #fff;
      }
    </style>
  </defs>
  <path class="st0" d="M36,2.1c-18.6,0-33.6,15.2-33.6,34,0,9.6,3.9,18.3,10.3,24.4l-8,9.5s30.2,0,31.3,0c18.6,0,33.6-15.2,33.6-34,0-18.8-15.1-34-33.6-34Z"/>
  <g>
    <path class="st1" d="M24.4,23.5c-5.5,0-10,4.5-10,10.1s3.7,9.2,8.5,10c0,2.4-.5,4.8-1.5,7,7.5-2,13-8.8,13-17s-4.5-10.1-10-10.1Z"/>
    <path class="st1" d="M47,23.5c-5.5,0-10,4.5-10,10.1s3.7,9.2,8.5,10c0,2.4-.5,4.8-1.5,7,7.5-2,13-8.8,13-17s-4.5-10.1-10-10.1Z"/>
  </g>
</svg>