<?xml version="1.0" encoding="UTF-8"?>
<svg id="Layer_1" xmlns="http://www.w3.org/2000/svg" width="1in" height="1in" version="1.1" viewBox="0 0 72 72">
  <!-- Generator: Adobe Illustrator 29.1.0, SVG Export Plug-In . SVG Version: 2.1.0 Build 142)  -->
  <defs>
    <style>
      .st0 {
        fill: #fff;
      }
    </style>
  </defs>
  <path class="st0" d="M38.6,17c-.9,0-1.8.5-2.4,1.3-1.3,1.6-1.2,3.8.2,5l9.3,9.3h-29.6c-2.1,0-3.7,1.7-3.7,3.7s1.7,3.7,3.7,3.7h1.3v-.2h28.2l-9.3,9.3c-.8.8-1.2,1.8-1.1,2.8,0,.9.5,1.8,1.3,2.4.6.5,1.2.9,2.1.9v-1.3h.2v1.3s0-1.3,0-1.3h0v1.3c1,0,2-.4,2.6-1l15.7-15.7c.7-.7,1-1.5,1-2.5s-.4-1.9-1-2.5l-.7-.7h0l-14.8-14.8c-.8-.8-1.8-1.2-2.8-1.1Z"/>
  <path class="st0" d="M35.9.3C16.2.3.2,16.3.2,36s16,35.7,35.7,35.7,35.7-16,35.7-35.7S55.6.3,35.9.3ZM64.9,36c0,16-13,29-29,29S6.9,52,6.9,36,19.9,7,35.9,7s29,13,29,29Z"/>
</svg>