<?xml version="1.0" encoding="UTF-8"?>
<svg id="Layer_1" xmlns="http://www.w3.org/2000/svg" width="2.3in" height=".2in" version="1.1" viewBox="0 0 162.6 15.6">
  <!-- Generator: Adobe Illustrator 29.1.0, SVG Export Plug-In . SVG Version: 2.1.0 Build 142)  -->
  <defs>
    <style>
      .st0 {
        fill: #fcb430;
      }
    </style>
  </defs>
  <g id="Group_939">
    <g id="Group_936">
      <path id="Path_1886" class="st0" d="M1.2,15.6c-.5,0-.9-.2-1.2-.6-.2-.4.2-.9.8-1,10.3-2.4,25.1-4.7,44.1-6.6,15.2-1.5,33-2.9,53-4,11.2-.6,21.8-1.1,31.1-1.5-26.5-.2-49.7.6-66.3,1.4-24.9,1.2-40.7,2.8-40.9,2.8-.6.1-1.2-.2-1.4-.7-.1-.5.4-.9,1-1,.2,0,16-1.6,41-2.8,14.7-.7,29.7-1.2,44.5-1.3,18.5-.2,36.8,0,54.4.6.7,0,1.2.4,1.2.9s-.5.8-1.2.9c-.3,0-29.2.6-63.2,2.6-20.8,1.2-39.2,2.6-54.7,4.2,3.9-.4,8.1-.7,12.3-1.1,17.7-1.5,33.8-2.5,47.9-2.9,8.5-.3,16.3-.3,23.4-.2s14.3.5,20.1,1.1c.7,0,1.1.5,1.1,1-.2.5-.8.9-1.4.7-5.9-.6-12.5-.9-19.6-1-22.8-.4-50,1.4-71.1,3.1C26.1,12.4,1.7,15.5,1.5,15.6c0,0-.2,0-.3,0"/>
    </g>
  </g>
</svg>