<?xml version="1.0" encoding="utf-8"?>
<!-- Generator: Adobe Illustrator 27.0.1, SVG Export Plug-In . SVG Version: 6.00 Build 0)  -->
<svg version="1.1" id="Layer_1" xmlns="http://www.w3.org/2000/svg" xmlns:xlink="http://www.w3.org/1999/xlink" x="0px" y="0px"
	 viewBox="0 0 238.6 304.7" style="enable-background:new 0 0 238.6 304.7;" xml:space="preserve">
<style type="text/css">
	.st0{fill:#94C83F;}
</style>
<path id="Path_12070" class="st0" d="M204.6,5.3c4.2,0.5,8.5,0.9,12.7,1.5c35.6,4.2,69.3,18.4,97.2,40.9
	c33.4,26.8,54.5,61.4,62.9,103.5c3.5,17.5,3.8,35.1,2.2,52.8c-2.2,26.2-9.4,51.7-21.3,75.2c-16.6,32.6-40.3,58.5-72.8,76
	c-19.7,10.6-41.7,16.5-64.1,17.2c-34.3,1.2-63-12.2-88-34.4c-18-16-30.2-35.8-35.2-59.6c-3.6-17.4-3.5-34.7,3.9-51.3
	c8-17.8,21.5-29.2,41-32.3c16.5-2.7,30.8,2.6,43.5,13c1.1,0.9,2.1,1.8,3.1,2.7c1,0.9,1.9,1.8,2.9,2.7c2.5-2.5,5.1-5.2,7.8-7.6
	c24.9-21.4,60-14.4,77,3.3c9.8,10.2,13.8,22.6,14.3,36.5c0.7,17.9-4.7,34.2-13.1,49.7c-10.5,19.5-24,36.6-41.8,50.1
	c-8.3,6.3-17.3,10.9-27.7,12.7c-0.5,0.2-1,0.2-1.5,0.2c-0.8-0.3-1.6-0.6-2.4-1c0.5-0.7,0.8-1.6,1.4-1.9
	c12.2-6.3,20.9-16.2,28.4-27.4c11.2-16.9,20.7-34.6,26.3-54.2c2.6-9.3,4-18.7,2.4-28.4c-2.1-13.2-9.1-20.6-22.2-23.3
	c-13.3-2.7-23.9,1.5-32.2,12.1c-1.2,1.6-2.3,3.2-3.3,4.9c-3.2,5.3-7.9,7.9-14.1,7.4c-6.1-0.4-10.3-3.7-12.7-9.2
	c-2.3-5.6-6-10.5-10.8-14.3c-15.6-12.2-35.9-8.6-46.9,8.3c-5.1,7.9-7.5,16.6-8.2,25.9c-1.5,21.7,4.7,41.3,17.1,58.9
	c16.6,23.6,39,39.5,66.5,48c12.5,3.9,25.2,3,38,1.1c29.2-4.5,53.6-18.3,74.6-38.6c27.6-26.6,43.5-59.4,50.4-96.8
	c3.2-16.7,4.1-33.8,2.9-50.8c-2.2-30-12.3-57.2-30.5-81.2c-26.9-35.3-62.5-56.5-106.1-63.4c-41.5-6.6-80.9,0.9-116.5,23.7
	c-34.2,22-55.9,53.5-67.3,92.2c-6.1,20.3-8.4,41.5-6.7,62.7c1.8,20.2,7.2,39.8,16.2,57.9c16.5,34.3,40.5,62.1,73.1,82.2
	c7,4.3,14.7,7.6,22,11.5c1.1,0.8,2.1,1.7,3,2.7c-1.4,0.2-2.9,0.9-4.2,0.7c-28.8-5.6-53.6-19.2-75.4-38.4
	c-30.3-26.5-51-59.2-60.7-98.4c-2.4-9.6-3.1-19.5-4.6-29.3c-0.1-0.8-0.3-1.6-0.5-2.4v-18.1c0.2-0.6,0.3-1.3,0.4-1.9
	c0.6-11.5,2.2-22.8,4.8-34C27.4,70.1,86.9,15.9,167.8,6.8c4.7-0.5,9.4-1,14.1-1.5H204.6z"/>
</svg>
