<?xml version="1.0" encoding="UTF-8"?><svg id="a" xmlns="http://www.w3.org/2000/svg" viewBox="0 0 100 100"><g id="b"><path id="c" d="M62.25,1.22c-.05.84.03,2.27,0,3.63.06-1.21.06-2.42,0-3.63" fill="#497b72" stroke-width="0"/><path id="d" d="M87.66,73.34c.02.19.04.39.05.58,0-.19-.02-.39-.05-.58" fill="#497b72" stroke-width="0"/><path id="e" d="M84.74,81.14s-.08.14-.07.36l.07-.36Z" fill="#497b72" stroke-width="0"/><path id="f" d="M85.35,89.07c0,.16,0,.35.04.37,0-.11-.03-.24-.04-.37" fill="#497b72" stroke-width="0"/><path id="g" d="M85.33,88.9l.02.18c0-.1,0-.18-.02-.18" fill="#497b72" stroke-width="0"/><path id="h" d="M.52,67.03l-.02-.09c0,.08,0,.1.02.09" fill="#497b72" stroke-width="0"/><path id="i" d="M83.65,73.6c.04.38.11.75.22,1.11-.1-.36-.14-1.13-.22-1.11" fill="#497b72" stroke-width="0"/><path id="j" d="M36.72,76.17c-.12.12-.26.21-.4.33.15-.08.29-.2.4-.33" fill="#497b72" stroke-width="0"/><path id="k" d="M55.62,35.6l.69.15-.43-.17s-.04.06-.26.02" fill="#497b72" stroke-width="0"/><path id="l" d="M67.31,41.42c-.07-.04-.13-.05-.13-.02.1.04.14.04.13.02" fill="#497b72" stroke-width="0"/><path id="m" d="M82.99,68.26l-.07-.48s-.02,0-.03,0l.1.48Z" fill="#497b72" stroke-width="0"/><path id="n" d="M83.35,71.55c-.03-.19-.06-.43-.09-.6,0,.2.03.4.09.6" fill="#497b72" stroke-width="0"/><path id="o" d="M75.91,50.63l-.03-.04c-.27-.27-.11-.09.03.04" fill="#497b72" stroke-width="0"/><path id="p" d="M82.23,66.28v-.06s-.09-.12-.09-.12l.09.19Z" fill="#497b72" stroke-width="0"/><path id="q" d="M83.65,73.6c-.02-.08-.04-.16-.07-.23,0,.07.02.16.03.27.01-.03.03-.04.04-.04" fill="#497b72" stroke-width="0"/><path id="r" d="M79.23,57.01c.1.1.15.14.18.13-.06-.15-.12-.23-.18-.13" fill="#497b72" stroke-width="0"/><path id="s" d="M87.58,99.78c-.11.02-.2.11-.22.21.12-.03.17-.13.22-.21" fill="#497b72" stroke-width="0"/><path id="t" d="M99.05,79.91c-.43-.83-.77-1.7-.84-1.81.07-.05.15-.09.23-.12-.05-.04-.25.06-.33.16l.06.12c-.19.19-.1-.03-.31.12-.08-.08.11-.24.28-.37-.17.1-.37.14-.37.29-.18.07-.06-.12-.27-.03-.12.12-.19.32-.34.36v-.02c-.37.15-.33.49-.65.62v-.05c-.14.03-.22.24-.43.33.06-.02.15,0,.07.09-.21.11-.28.27-.46.32l-.04.19c-1.03,1.09-2,2.22-2.9,3.41v-.03c-.98,1.19-1.88,2.43-2.71,3.72-.19.08-.32.3-.46.43.1-.06.14.02.09.08-.35.45.04.07-.27.56-.18.32-.72,1.08-1.24,1.78.04-1.02.01-2.17.05-3.22v.03c.11-2.84.04-5.68-.2-8.51l.05.34c-.06-1.02-.21-2.93-.37-4.79,0,.09-.05-.05-.15-.71-.36-2.32-.67-3.89-.91-5.6-.11-.54-.25-1.07-.44-1.59l-1.11-3.97-.36-1.27-.53-1.32-1.16-2.88c-.41-1.06-.9-2.08-1.48-3.06-.57-1.03-1.11-2.11-1.74-3.18-1.37-2.14-2.92-4.18-4.61-6.08-3.27-3.71-7.19-6.79-11.57-9.1-.79-.38-1.55-.74-2.29-1.08.25-1.05.48-2.1.66-3.05l.03.13c.53-2.47,1.31-7.15,1.56-8.95.8-5.3,1.2-10.66,1.18-16.03.05-1.19.13-2.39.13-3.59l-.02-.52c-.27-.7-.67-1.35-1.17-1.92-.36-.3-.73-.25-.99.62l-.03-.38c-.04-.07,0,.2.01.43-.22.94-.33,1.9-.32,2.86l-.06-.11.02,1.42c-.03,1.7.04,2.49-.02,2.38v-2.33c-.01,1.72-.05.51-.09-.14,0,.71-.02,1.38-.03,1.97.02.34.03-.25.04-.51.04.92.04,2.2-.01,3.32-.07,1.75-.08.11-.19,2.14-.05.89-.13,1.77-.2,2.65-.01-.12-.01-.25,0-.37-.38,3.45-1.09,5.25-1.39,8.39-.19.43-.02-.32-.06-.64-.24,1.7-.59,3.39-1.06,5.05l.09.05c-.51,1.76-.93,3.79-1.43,5.82-.76-.25-1.46-.52-2.11-.69l-1.82-.43.33.07c-3.87-.93-7.86-1.2-11.82-.79-.99.1-2,.25-3.01.44-.52.05-1.02.06-1.47.11-.64.05-1.27.19-1.87.43-.1,0-.1-.04.1-.08l-1.02.23.21-.16c-.54.19-1.08.4-1.6.64v-.08c-.54.16-1.24.38-1.96.62l-2.11.89.19-.11c-1.43.69-1.44.53-2.44,1.11.03-.03.06-.06.1-.08l-.93.47.17-.17c-.63.46-2.05.85-1.57.74-.36.26-.7.55-1.01.87-.97.58-.29.06-.93.36-.72.4-.74.62-1.7,1.17l-.02-.07c-.43.3-.66.52-1.25.93l.16-.15c-.87.79-1.3.71-1.84,1.5-.43.26-1.14.86-1.19.72-1.03,1.04-1.9,1.77-2.88,2.82-.33,0-.21.23-.93.74l.13.04c-1.65,1.47-3.2,3.06-4.63,4.75l-.14-.03-.18.43c-1.59,1.93-3.03,3.98-4.29,6.14-.24.59-.63,1.47-1.09,2.37l.03-.1c-.73,1.6-1.43,3.32-2.11,5.13-.01-.13-.11.04-.07-.18-.09.51-.25,1.01-.47,1.48l.24-.43c-.1.54-.27,1.06-.52,1.55l-.06.89c-.03.05-.06.14-.09.14l.03.17-.27.43c-.06.59-.06,1.19,0,1.78-.07.08-.21.9-.16.26-.06.55-.1,1.09-.1,1.64-.04.56-.03,1.11.04,1.67v-.53c.12-.07.31.92.31,1.44-.18-.66-.18-.03-.24.28.12.44.06-.42.16-.21.11.56.56,1.74.57,2.05l-.14-.32c.13.65.33,1.29.58,1.91.38.63.63,1.11.73.87.66.83.12.41.31.7.21.17.48.59.79.92.25.22.47.47.65.74.56.27,2.33,1.69,2.65,1.58.24.17.49.29.73.44.05-.06.27-.14.92.06.58.29.41.35.57.48l.48-.17c1.92.54,3.91.77,5.89.66,2.01-.07,4.01-.25,6-.56,1.87-.47,3.72-1.04,5.53-1.72l-.19.11,1.84-.67-1.36.43c.39-.19.67-.36,1.06-.51,1.14-.41,2.26-.89,3.34-1.43.72-.39,1.44-.82,2.14-1.27,1.13-.68,2.27-1.43,3.37-2.23-.02.03-.04.07-.06.1l.3-.27c1.38-1,2.69-2.09,3.92-3.27l-.22.27c1.37-1.25,2.67-2.58,3.89-3.97,1.94-2.22,3.73-4.57,5.35-7.03,2.66-4.13,4.94-8.49,6.8-13.03l-.23.53c1.37-3.48,1.24-2.98,2.29-5.74.28-1.32.63-2.62,1.07-3.89v.05c.19-.63.44-1.55.71-2.59.4.25.66.57.39.51.87.43-.25-.28.3-.04l1.15.69c-.08-.17-.48-.43.17-.16.52.27.76.43,1.42.82-.13-.01.12.26-.38-.03.32.23.66.43,1.02.58-.62-.58,1.17.74.76.23l.62.58c-.15-.11-.21-.07-.43-.25.09.28.58.37.83.53.3.23.58.48.84.75.31.16.57.41.75.72.31.24.1-.06.21-.03l.99.92c0,.12-.11.38-.28.27.43.28.32-.08.88.44-.45-.17.64.78.03.5.21.29.45.57.71.82.29.34.61.7.86.94.39.21-.43-.61-.29-.68,1.31,1.41,1.71,1.25,2.59,2.36l-.21-.3c.66.61.56.56.96.92-.29-.09.17,1.12,1.03,2.29.15.05-.32-.77-.06-.64l.58.78c.03.07-.06,0-.15-.1.54.69.74,1.44,1.02,1.57l.19.9-.06-.36c.28.34.53.7.75,1.07.38.51.66,1.1.81,1.72-.01-.18-.06-.64.34.04-.14.06.03.43.21.8s.31.75.24.77c.12.29.24.86.37.84l-.19.02c.27-.03.69,1.05,1.06,1.85-.41-.06.39.89.23,1.36.33.06.59,1.45.82,1.55.19.65-.04.64-.07.84l.17.28c-.02.36.31,1.59.43,2.34l.4.63-.02.27c.08.1.27.65.25.29.04.12.06.25.08.37.23-.02.15.51.38,1.25,0,.18-.07.15-.13-.01.06.38-.08.24-.12.46.01-.28.64,1.29.57.24.08-.09.25.5.27.88l-.16.26.29.41c.07.44.1.88.1,1.32-.1-.48-.58-1.01-.36.23-.11-.44-.24-.87-.41-1.29.04.26.04.39-.12,0,.23.95.18.3.37,1.25-.19-.03-.21.25-.13,1.09l.03-.64s.06.07.07.11c-.02-.24,0-.31.06-.37.03.19.43,1.07.34,1.25.18-1.01.37,1.68.48,1.04.09.28.1.57.04.86-.21-.8-.16.64-.31.51.08.3.09-.64.19-.25.03.38,0,.75-.08,1.12l-.05-.2-.03.75c.1.12.1-.74.21-.05-.02.18.08.87,0,.86-.15-.32-.31-.07-.38-.65.05.48.19,2.03.32,1.4l.04.58c.05-.37.11-1.4.23-.23h-.04l.21.81-.07.36s.1.12.12.42c-.06.08-.08.37-.16.35,0,.88.1.8.15.92,0,.49-.03.68-.14.45,0,.77-.04,1.54-.12,2.3.08.9.04-.19.16.34-.21,1.47-.27,2.95-.17,4.43.31-.38,0,.4.23.69-.06-.32-.33,1.38-.3.09l-.03.78c-.19.52-.01-1.3-.28-.51-.01.42,0,.84.06,1.26-.49-.83-.95-1.6-1.16-1.93l.03.02c-.7-1.17-2.14-3.56-3.01-4.69-.07-.24-.18-.47-.32-.68.04.13-.04.12-.09.04-.37-.59-.08,0-.5-.57-.5-.64-2.16-3.24-2.53-3.86-.34-.23-.54-.68-.84-.94h.05c-.26-.3-1.6-2.19-1.93-2.53l.02.06c-.32-.27-.17-.32-.34-.6-.09.13-.39-.09-.49-.18l.03-.02c-.15-.14-.56-.41-.79-.64l.07-.04c-.26-.22-.5-.46-.71-.73-.33-.51-.72-.97-1.17-1.37l-.09-.46-.06-.03s-2.56,1.53-2.49,2.53l-.07.05.11.11c.09.16.21.16.15.21l-.16-.19c.11.15-.01.09-.1.07.05.06.08.12.11.19.05,0,0-.04,0-.08.09.05.24.1.29.21.12.14-.09.1.05.27.75.87,1.38,1.81,2.14,2.69,0,.04-.03.02-.06,0,.26.24.43.5.67.73.02.06.01.13-.01.19.42.43.81.9,1.16,1.39l.14-.07c.21.28-.08.19.14.43.25-.02.3.45.46.47-.01,0,.07.14.01.17.12-.03.12.12.2.18.05.01.01-.04.03-.08l.17.16c.02.09-.02.15-.09.08.33.5,1.87,2.93,2.25,3.44.03-.12-.13-.25-.05-.39.16.1.11.23.22.24-.14.17.16.34.06.56l.13-.02v.11c.5.56.13.11.47.68.21.32.46.39.52.6-.01-.03,0-.14.08-.07-.08.07.21.19.14.28.06.08.21.35.28.19-.03.08.09.34-.05.23.03.08.08.15.14.21l-.03-.12c.19.27.19.47.41.58v-.13c.1.16.18.29.1.43l-.14-.15c.13.23.29.44.47.63l-.04-.08c.3.21,1.3,1.7,1.61,1.89l.02-.18.21.19s-.37.06-.36.02c.31.49,1.83,3.09,2.01,3.61.05.21-.13.11-.15.12.16.21.16.05.25.25.01.06-.08.03-.11,0,.06.08.07.18.12.16-.02-.13.12-.14.18-.23l.12.26-.08.03c.03.06.28.04.37.31.19.43.45.89.64,1.32-.05.02-.12-.06-.19-.14.04.06.07.14.07.21.03-.14.14.15.14.06.12.09.22.2.28.34v.04h.02c.07.21.18.4.33.55.04-.02.25-.07.54-.14.21.1.46.2.73.29.72.33,1.51.48,2.3.43l.09.04.03-.11c.09-.11,0-.2.09-.16l-.07.16c.07-.11.09,0,.12.05.02-.05.06-.09.1-.12-.03-.04-.04,0-.07.02,0-.08-.06-.2.01-.26.06-.12.15.05.21-.09.39-.75.88-1.47,1.29-2.29.05,0,.03.02.04.05.09-.26.23-.47.32-.71.06-.03.12-.04.18-.03.17-.45.4-.87.68-1.27l-.14-.11c.15-.24.21.03.31-.21-.16-.21.25-.35.19-.5.01.01.09-.09.15-.04-.09-.1.04-.13.06-.21-.01-.04-.05,0-.09,0l.06-.18c.08-.04.15,0,.12.06.29-.38,1.71-2.22,1.97-2.68-.12,0-.16.17-.33.13,0-.16.14-.15.1-.25.22.09.23-.21.49-.16l-.09-.11h.11c.25-.57.03-.15.37-.57.17-.26.11-.49.27-.59-.02.02-.12.03-.1-.06.1.06.06-.21.18-.18.04-.07.21-.27.02-.29.09.01.26-.15.23,0,.05-.06.12-.1.12-.17l-.07.03c.14-.21.33-.26.31-.48l-.11.04c.09-.13.16-.24.32-.19l-.06.16c.14-.16.24-.35.31-.56l-.05.06c.05-.31.84-1.52.86-1.83h-.17s.06-.22.06-.22c-.02.02.24.33.2.33.67-.88,1.4-1.71,2.18-2.48.17-.08.16.11.18.12.11-.18-.04-.15.09-.27.05-.02.06.07.06.11.04-.06.12-.09.09-.13-.1.04-.18-.09-.28-.13l.17-.16.06.07s-.1-.28.09-.4c.3-.21.56-.54.84-.76.04.05,0,.12-.03.2.04-.03.08-.09.14-.09-.13-.02.06-.14-.01-.13.04-.34.43-.41.5-.65-.06-.09-.54-.86-.95-1.69M85.61,86.01h0M85.52,80.32v.07s0-.06-.01-.1v.02M85.62,83.75v.8c-.04-.27-.04-.54,0-.8M43.81,33.52c-.11.1-.26.14-.41.12v-.04c-.81.21.68-.08.43.15-.06-.11.99-.17,1.46-.12l-.15-.15c.15-.03.24-.05.34-.07l.39-.02c.09.09-.3.37.73.39.99-.05-.37-.06.24-.13.66.08.91.15,1.87.23.26.1.79.26.81.43.59.02,1.74.31,2.09.27-.95-.39-1.01,0-2.13-.41l.35-.11,1.29.17c.37.07.73.16,1.09.28-.1-.06-.14-.11-.07-.13.88.08,1.76.25,2.61.5.1.19-.52-.07-1-.15.69.27.73.21,1.8.63.01.14-.72-.26-.88-.18l1.2.37v.03c.21-.13.77.21,1.41.43-.06.32-.14.64-.2.93-.07.06-.1-.4-.31.46.09-.17.21-.52.24-.4-.91,2.47-2.57,7.75-4.41,11.64-2.3,5.46-5.26,10.62-8.83,15.35.52-.69.5-.25.05.23-1.4,1.18-1.88,2.45-3.3,3.63-2.13,2.23-4.41,4.31-6.84,6.22l-.12-.06c-.3.19-.58.4-.84.64v-.03c-.93.63-2.08,1.36-2.65,1.66l.03.14c-.57.35-.36.07-.93.45v-.07s-.67.47-.67.47c-.02-.12-.44.08-.93.34-.43.22-.87.4-1.33.53-.39.17-.95.47-1.59.7s-1.35.45-1.98.62c-.25,0-1.83.29-2.84.46s-2.17.37-3.44.48c-.56.03-1.13.06-1.7.08-.4,0-.8-.02-1.2-.05l-.72-.04-.68-.13-1.36-.26c-.83-.25-1.63-.59-2.38-1.02-1.36-.75-2.41-1.94-3-3.38l-.23-.48-.13-.51-.27-.99c-.06-.68-.17-1.3-.19-1.9s.02-1.14.03-1.62c.06-.48.11-.9.16-1.25-.11.51-.18,1.03-.21,1.55,0,.5-.04,1-.1,1.5,0-.73,0-1.26.01-1.7s.1-.77.11-1.1c.26-1.45.66-2.88,1.17-4.26l.05-.43.28-.7c.45-1.27.97-2.51,1.57-3.72.13-.26.18-.45,1.7-3.05.94-1.47,1.59-2.57,2.25-3.47.55-.83,1.15-1.62,1.81-2.37-.19.21-.72.79-.16.07.15-.08,1.5-1.91,1.89-2.17l1.42-1.56c.29-.29.5-.51.57-.6.42-.41.84-.81,1.29-1.18-.05.06-.12.13-.23.24.48-.49,1.01-.9,1.43-1.27.47-.37.92-.77,1.35-1.19.31-.25.61-.49.9-.69.81-.61,1.49-1.17,2.27-1.72-.31.2-.62.38-.93.58,1.05-.79,2.16-1.49,3.33-2.09-.52.3-1.02.64-1.5,1,1.98-1.31,4.04-2.48,6.17-3.53l-.78.38c1.3-.67,2.63-1.26,4-1.76.96-.3,1.99-.7,3.1-.99.29-.06.59-.13.88-.21-.04.02-.06.03-.11.05.09-.03.18-.06.27-.09l.43-.11c.17-.03.28-.03.23.02l.05-.09c.56-.15,1.14-.26,1.71-.32.94-.16,1.88-.28,2.83-.35,0,0,.04,0,.04.02M19.26,44.84l-.25.21.25-.21h0M60.71,37.21s-.07-.05-.1-.07c0-.04.02-.08.03-.12.14.12.18.19.07.19" fill="#497b72" stroke-width="0"/><path id="u" d="M67.89,76.25c0-.14-.07-.27-.18-.36.02.14.08.27.18.36" fill="#497b72" stroke-width="0"/></g></svg>