<?xml version="1.0" encoding="utf-8"?>
<!-- Generator: Adobe Illustrator 28.2.0, SVG Export Plug-In . SVG Version: 6.00 Build 0)  -->
<svg version="1.1" id="a" xmlns="http://www.w3.org/2000/svg" xmlns:xlink="http://www.w3.org/1999/xlink" x="0px" y="0px"
	 viewBox="0 0 297.5 216.1" style="enable-background:new 0 0 297.5 216.1;" xml:space="preserve">
<style type="text/css">
	.st0{fill:#FFFFFF;}
</style>
<g id="b">
	<g id="c">
		<path id="d" class="st0" d="M152.1,214.5c-12.4-3.3-20.7-11.3-28.8-19c-8.5-8.2-16.6-15.9-28.9-17.3c-19.5-2.3-42-6.3-61.5-18.6
			c-20.5-13-33.5-34.1-33-53.9C0.4,90,8.7,77.7,15.6,70.1c8.8-9.8,20-17.1,30.7-23.8C78.6,26.1,117.6,4.8,161.9,0.7
			c21.8-2.1,43.8,0.7,64.5,8.1c21.9,7.9,40.4,20.8,53.6,37.4c9.7,12.2,15.6,25.2,17.1,37.8c1.8,14.6-2.6,28.5-11.8,37.1
			c-2.4,3.2-5,6.9-7.8,10.7c-18.6,25.8-44,61-72,73.7c-21.8,9.9-39.2,12.9-53.3,9.1L152.1,214.5L152.1,214.5z M99.7,177.4
			c10.1,2.7,17.3,9.6,24.9,16.9c16,15.3,32.6,31.2,80.2,9.5c27.6-12.5,52.8-47.6,71.3-73.1c2.8-3.9,5.5-7.6,7.9-10.8l0.1-0.1
			c8.8-8.2,13-21.5,11.3-35.6c-1.5-12.2-7.3-25-16.8-36.9C253.1,15.2,208.5-2,162.1,2.4c-44,4.1-82.8,25.3-114.9,45.4
			c-10.6,6.6-21.6,13.9-30.3,23.5c-6.7,7.4-14.7,19.3-15.1,34.6C1.3,125,13.9,145.5,34,158.1c19.2,12.1,41.5,16.1,60.7,18.3
			C96.4,176.7,98,177,99.7,177.4"/>
	</g>
</g>
</svg>
