<?xml version="1.0" encoding="UTF-8"?><svg id="a" xmlns="http://www.w3.org/2000/svg" viewBox="0 0 89.39 110.61"><g id="b"><g id="c"><g id="d"><path id="e" d="M76.27,8.67c2.37,6.55,3.28,12.93-1,19.23-2.29,3.61-4.39,7.33-6.31,11.15-2.27,4.21-9.03,6.49-7.66,11.7,1.49,5.68,8.48,2.83,12.61,4.94,1.09.55,2.26.92,3.38,1.4,7.86,3.33,13.45,9.59,11.79,14.37-2.19,6.33-7.87,9.07-14.05,10.14-6.64,1.19-13.45,1.02-20.02-.49-5.12-1.19-8.04,1.12-10.04,5.57-1.64,3.94-3.59,7.75-5.82,11.39-1.97,3.08-4.42,5.82-7.26,8.11-6.77,5.29-15.94,5.84-20.21,1.71-4.04-3.91-5.04-11.84-1.4-18.84,3.92-7.55,9.04-14.47,12.92-22.03,4.26-8.3,3.94-9.44-3.56-15.18-6.85-5.23-13.45-10.39-17.05-18.62C-1.8,23.18-.64,15.75,6.29,12.51c10.4-4.87,22.9-1.78,27.23,6.92,1.06,2.13,1.19,4.71,1.9,7.03,1.33,4.34,3.85,4.01,6.52,1.31,3.52-3.55,5.11-8.21,7.01-12.72,1.89-4.54,4.95-8.49,8.87-11.46,8.16-6.21,15.05-4.29,18.46,5.08M52.65,42.59c6.88-5.95,14.31-12.25,18.28-21.44.86-1.98.35-4.83-.26-7.08-.55-1.72-1.73-3.17-3.31-4.05-2.28-1.11-5.02-.43-6.51,1.62-6.73,8.25-9,18.45-12.01,28.3-.23.73.78,1.94,1.41,2.78.18.24,1.04-.02,2.41-.11M27.27,30.4c-.42-1.49-.74-2.64-1.08-3.79-1.68-5.64-6.06-6.91-11.21-6.86-2.47.02-4.86.59-6.06,2.97-2.31,4.59.72,7.94,3.01,11.38.71.96,1.54,1.83,2.47,2.59,3.96,3.55,8.37,9.64,13.39,6.79,3.98-2.27-.11-8.78-.53-13.08M37.79,74.37c-1.76-2.93-4.05-2.78-5.83-.61-3.49,4.22-6.75,8.64-9.76,13.22-5.38,8.28-6.05,13.37-2.26,14.17,6.68,1.41,9.79-3.99,13.11-8.04,4.41-5.17,6.17-12.09,4.75-18.74M71.65,72.83c1.04-.75,2.62-1.29,2.82-2.15.43-1.93-1.18-3.11-2.79-3.72-4.57-1.73-9.62-1.68-14.16.14-.95.36-2.32,1.63-2.22,2.3.38,1.12,1.21,2.04,2.29,2.54,4.56,2.3,9.36,1.72,14.06.9" fill="#93bbad" stroke-width="0"/></g></g></g></svg>