<?xml version="1.0" encoding="utf-8"?>
<!-- Generator: Adobe Illustrator 28.2.0, SVG Export Plug-In . SVG Version: 6.00 Build 0)  -->
<svg version="1.1" id="a" xmlns="http://www.w3.org/2000/svg" xmlns:xlink="http://www.w3.org/1999/xlink" x="0px" y="0px"
	 viewBox="0 0 232.6 362.4" style="enable-background:new 0 0 232.6 362.4;" xml:space="preserve">
<style type="text/css">
	.st0{opacity:0.6;}
	.st1{fill:#93BBAD;}
</style>
<g id="b" class="st0">
	<path id="c" class="st1" d="M-7.2,271.8c-53.1-33.2-94-83.3-133.6-132c-16.9-20.8-36.2-44.4-42.5-75.3c-3.7-17.8-2.9-37.4,2.2-58
		c9.4-37.4,30.2-70.9,59.4-96.1c29-24.9,63.3-38.7,96.8-38.7c24,0,47.8,3.8,70.6,11.3c45.5,15.1,89,44.7,132.9,90.6
		c24,25.1,51.7,59.7,52.5,105.3c0.8,41.2-20.2,83.7-40,120.3c-17.5,32.4-38.8,68.6-70.5,86.9c-40.8,23.6-84,9.9-113-5.9
		C2.4,277.6-2.5,274.8-7.2,271.8 M100.7-87.5c-17.6-11.1-36.4-20.1-56.1-26.7c-22.5-7.4-46-11.2-69.6-11.2
		C-92.5-125.2-159.8-67-178.3,7.2c-5.1,20.5-5.8,39.1-2.2,56.7c6.2,30.2,25.2,53.5,41.9,74c39.4,48.4,80.1,98.4,132.9,131.3
		c4.7,3,9.6,5.8,14.5,8.4c28.4,15.4,70.5,28.9,110.2,5.9c31.1-18,52.1-53.7,69.4-85.8C208,161.6,228.8,119.5,228,79
		c-0.8-44.6-28-78.6-51.7-103.3C151.1-50.7,126.1-71.6,100.7-87.5"/>
	<g id="d">
		<path id="e" class="st1" d="M-132.7,264c-17.3-60.2-14.1-124.8-11-187.4c1.3-26.8,2.8-57.2,18.8-84.4
			c9.2-15.7,22.8-29.7,40.4-41.7c32-21.4,69.9-32.5,108.4-31.7c38.2,0.9,72.9,13.7,97.8,36c17.8,16,33,34.8,44.9,55.6
			c23.8,41.7,36.2,92.8,38.2,156.2c1.1,34.7-1.6,79-31.4,113.4c-27,31.1-71,48.7-110.2,62.6C28.5,355-11.5,367.6-47.4,360
			c-46.2-9.8-69-48.9-80.1-80C-129.5,274.8-131.2,269.4-132.7,264 M187.9,69.2c-5.6-20-13.6-39.2-23.8-57.3
			C152.3-8.6,137.4-27.2,119.7-43C69.5-88.1-19.5-89.9-82.9-47c-17.5,11.8-30.5,25.2-39.6,40.7c-15.6,26.6-17,56.6-18.3,83.1
			c-3.1,62.4-6.3,126.7,10.9,186.5c1.5,5.4,3.2,10.7,5.1,15.9c10.8,30.4,33.1,68.6,77.9,78.1c35.1,7.4,74.7-5,109-17.3
			c38.8-13.9,82.4-31.2,109-61.8c29.2-33.7,31.8-77.2,30.7-111.4C200.7,130.3,196.1,98,187.9,69.2"/>
	</g>
</g>
</svg>
