<?xml version="1.0" encoding="utf-8"?>
<!-- Generator: Adobe Illustrator 28.3.0, SVG Export Plug-In . SVG Version: 6.00 Build 0)  -->
<svg version="1.1" id="a" xmlns="http://www.w3.org/2000/svg" xmlns:xlink="http://www.w3.org/1999/xlink" x="0px" y="0px"
	 viewBox="0 0 232.6 362.4" style="enable-background:new 0 0 232.6 362.4;" xml:space="preserve">
<style type="text/css">
	.st0{opacity:0.6;}
	.st1{fill:#93BBAD;}
</style>
<g id="b" class="st0">
	<path id="c" class="st1" d="M243.6,90.3c54.2,31.4,96.7,80.1,137.9,127.5c17.6,20.2,37.7,43.2,45,73.8c4.3,17.7,4.1,37.3-0.3,58
		c-8.2,37.7-27.8,71.9-56.2,98c-28.2,25.8-62,40.8-95.5,41.9c-24,0.8-47.9-2.2-70.9-8.9c-46-13.6-90.4-41.7-135.8-86.1
		c-24.8-24.3-53.7-58-56-103.5c-2.2-41.2,17.4-84.3,36-121.6c16.4-33,36.5-69.9,67.6-89.2c40-24.9,83.6-12.7,113.1,2.1
		C233.8,84.8,238.8,87.5,243.6,90.3 M147.7,453c18,10.5,37,18.9,57,24.8c22.7,6.6,46.3,9.7,69.9,8.9
		c67.5-2.4,132.8-62.8,148.8-137.6c4.4-20.7,4.5-39.3,0.3-56.7c-7.2-30-27-52.6-44.3-72.6c-41-47.1-83.3-95.7-137.2-126.8
		c-4.8-2.8-9.8-5.5-14.8-7.9c-28.9-14.4-71.4-26.5-110.3-2.2c-30.5,19-50.3,55.4-66.5,88.1c-18.4,36.7-37.8,79.5-35.6,119.9
		c2.3,44.5,30.6,77.6,55.1,101.5C96.1,417.9,121.7,437.9,147.7,453"/>
	<g id="d">
		<path id="e" class="st1" d="M369.3,93.9c19.3,59.6,18.2,124.3,17.2,186.9c-0.4,26.8-0.9,57.3-16,85c-8.7,16-21.8,30.4-39,43
			c-31.3,22.5-68.8,34.8-107.3,35.3c-38.2,0.4-73.3-11.3-98.9-32.7c-18.3-15.4-34.1-33.7-46.7-54.1c-25.2-40.9-39.3-91.5-43.4-154.8
			c-2.3-34.6-1-79,27.6-114.4c26-32,69.3-51,108.1-66.2c34.3-13.5,73.8-27.5,110-21.1c46.5,8.3,70.6,46.6,82.7,77.3
			C365.7,83.2,367.6,88.6,369.3,93.9 M55.3,299.3c6.3,19.8,14.9,38.7,25.7,56.5c12.5,20.1,28,38.2,46.2,53.4
			c51.7,43.4,140.7,42.3,202.6-2.7c17.1-12.4,29.6-26.2,38.2-42c14.7-27.1,15.1-57.1,15.5-83.7c1-62.5,2.1-126.8-17.1-186
			c-1.7-5.3-3.6-10.6-5.6-15.7c-11.8-30-35.4-67.5-80.4-75.5C245.1-2.7,205.9,11,172,24.4C133.7,39.6,90.7,58.4,65.2,89.8
			c-28.1,34.7-29.2,78.2-27,112.4C40.5,238.6,46.2,270.7,55.3,299.3"/>
	</g>
</g>
</svg>
