<?xml version="1.0" encoding="utf-8"?>
<!-- Generator: Adobe Illustrator 28.2.0, SVG Export Plug-In . SVG Version: 6.00 Build 0)  -->
<svg version="1.1" id="a" xmlns="http://www.w3.org/2000/svg" xmlns:xlink="http://www.w3.org/1999/xlink" x="0px" y="0px"
	 viewBox="0 0 272.7 391" style="enable-background:new 0 0 272.7 391;" xml:space="preserve">
<style type="text/css">
	.st0{fill:#9EABAD;}
</style>
<g id="b">
	<path id="c" class="st0" d="M90.2,340.9c-25.9-23.7-48.6-59.8-68.1-108.2c-7.9-19.6-11.5-43.3-9.7-63.2c1.6-17.2,7.8-39.6,29-48.7
		c20.2-8.7,37.9,2.2,53.5,11.8c11.1,6.9,20.7,12.8,29.1,10.4c20.6-5.7,25.5-14.9,30.6-24.6c5.4-10.1,11-20.6,33.3-29
		c16.2-6.1,29.1-0.5,41.5,5c13.7,6,26.6,11.7,44.1,3.3c5.7-2.7,11.9-8.9,19.1-16.1c10.9-10.8,24.4-24.2,41.9-31.2
		c20.5-8.2,42.5-6.1,67,6.6c19.4,10,30.5,22.9,34.1,39.4c9.1,42.1-33.9,100.9-82.7,162.7c-14.8,18.8-45.7,54.3-85.6,81.3
		c-39.8,26.9-77.6,38-112.2,33C131.9,369.9,110.1,359.1,90.2,340.9 M23.6,232.1c34,84.9,78.4,131.9,132,139.6
		c34.2,5,71.6-6.1,111-32.7c39.8-26.9,70.5-62.2,85.2-81c48.5-61.4,91.3-120,82.4-161.3c-3.5-16.1-14.4-28.6-33.3-38.3
		c-54.4-28-84.8,2.3-107,24.4c-7.3,7.3-13.6,13.6-19.6,16.4c-18.1,8.7-32.1,2.6-45.5-3.3c-12.7-5.6-24.7-10.9-40.3-4.9
		c-21.8,8.2-27.2,18.4-32.5,28.3c-5.3,10-10.4,19.4-31.6,25.3c-9.1,2.5-19-3.5-30.4-10.6c-15.3-9.4-32.6-20.1-52-11.7
		c-20.4,8.8-26.5,30.6-28,47.4C12.3,189.3,15.8,212.7,23.6,232.1"/>
	<path id="d" class="st0" d="M213,390.2c-51-6.4-103.1-53.8-155.2-141.3c-24.4-41-45.1-115.6-11.8-145.6
		c18.1-16.3,39.1-7.2,57.6,0.7c13.1,5.7,24.5,10.6,32.3,5.4c19.2-12.6,21.6-25.4,24.1-38.9c2.6-14.1,5.4-28.7,25.6-45.2
		c14.8-12.1,29.4-8.3,43.6-4.7c15.5,3.9,30.2,7.7,45.5-7.4c5-4.9,9.5-14.3,14.8-25.3c8-16.4,17.9-36.9,33.6-50.3
		c18.5-15.8,41.4-18.8,69.8-9.4c21.6,7.2,36.2,19.8,44.7,38.5c22.6,50.1-4.6,136.5-37.1,228.1c-9.5,26.9-30.3,78.6-62.3,122.6
		c-31.9,43.8-66,68.3-101.5,72.7C228.7,391.2,220.8,391.2,213,390.2 M59.3,247.9c59.8,100.3,119.3,147.6,177,140.4
		c35-4.3,68.8-28.5,100.3-71.9c31.9-43.9,52.5-95.4,62-122.1C431,103,458.1,17,435.8-32.4c-8.2-18.2-22.5-30.5-43.6-37.5
		c-62.7-20.8-85,25.2-101.2,58.7C285.6,0,281,9.5,275.8,14.7c-16,15.8-31.8,11.7-47.1,7.8c-14.4-3.7-28-7.1-42,4.4
		C166.9,43,164.3,57.2,161.7,71c-2.6,13.9-5.1,27.1-24.9,40.2c-8.6,5.6-20.3,0.6-33.9-5.3c-18.1-7.8-38.5-16.6-55.8-1.1
		c-18.2,16.4-18.2,45.5-15.1,67C35.8,197.1,46,225.5,59.3,247.9"/>
</g>
</svg>
