<?xml version="1.0" encoding="utf-8"?>
<!-- Generator: Adobe Illustrator 28.2.0, SVG Export Plug-In . SVG Version: 6.00 Build 0)  -->
<svg version="1.1" id="a" xmlns="http://www.w3.org/2000/svg" xmlns:xlink="http://www.w3.org/1999/xlink" x="0px" y="0px"
	 viewBox="0 0 94.3 242.6" style="enable-background:new 0 0 94.3 242.6;" xml:space="preserve">
<style type="text/css">
	.st0{fill:#93BBAD;}
</style>
<g id="b">
	<path id="c" class="st0" d="M186.8,393.3c-53.1-33.2-94-83.3-133.6-132c-17-20.8-36.2-44.4-42.5-75.3c-3.7-17.8-2.9-37.4,2.2-58
		C22.4,90.6,43.1,57.1,72.3,32c29-24.9,63.3-38.7,96.7-38.7c24,0,47.8,3.8,70.6,11.3c45.5,15.1,89,44.7,132.9,90.6
		c24,25.1,51.7,59.7,52.5,105.3c0.8,41.2-20.2,83.7-40,120.3c-17.5,32.4-38.8,68.5-70.5,86.9c-40.8,23.6-84,9.9-113-5.9
		C196.5,399.1,191.6,396.2,186.8,393.3 M294.8,34c-17.6-11.1-36.4-20.1-56.1-26.7c-22.5-7.4-46-11.2-69.6-11.2
		C101.6-3.7,34.2,54.5,15.8,128.7c-5.1,20.5-5.8,39.1-2.2,56.7c6.2,30.2,25.2,53.5,41.9,74c39.4,48.4,80.1,98.4,132.9,131.3
		c4.7,3,9.6,5.8,14.5,8.4c28.4,15.4,70.5,28.9,110.2,5.9c31.1-18,52.1-53.7,69.4-85.8c19.6-36.3,40.4-78.3,39.6-118.8
		c-0.8-44.6-28-78.7-51.7-103.3C345.2,70.8,320.1,49.9,294.8,34"/>
	<g id="d">
		<path id="e" class="st0" d="M61.3,385.5c-17.3-60.2-14.1-124.8-11-187.4c1.3-26.8,2.8-57.2,18.8-84.4C78.3,98,91.9,84,109.6,72
			c32-21.4,69.9-32.5,108.4-31.7c38.2,0.9,72.9,13.6,97.8,36c17.8,16,33,34.8,44.9,55.6c23.8,41.6,36.2,92.8,38.2,156.2
			c1,34.7-1.6,79-31.5,113.4c-27,31.1-71,48.7-110.2,62.6c-34.7,12.4-74.7,25-110.6,17.4c-46.2-9.8-69-48.9-80.1-80
			C64.6,396.3,62.9,390.9,61.3,385.5 M381.9,190.7c-5.6-20-13.6-39.2-23.8-57.3c-11.7-20.6-26.7-39.1-44.3-54.9
			c-50.2-45.1-139.2-46.9-202.6-4.1c-17.5,11.8-30.5,25.2-39.6,40.7c-15.6,26.6-17,56.6-18.3,83.1C50.2,260.6,47,325,64.2,384.7
			c1.5,5.4,3.2,10.7,5.1,15.9c10.8,30.4,33.1,68.6,77.9,78.1c35.1,7.4,74.7-5,109-17.3c38.8-13.9,82.4-31.2,109-61.8
			c29.2-33.7,31.8-77.2,30.7-111.4C394.8,251.8,390.2,219.5,381.9,190.7"/>
	</g>
</g>
</svg>
