<?xml version="1.0" encoding="utf-8"?>
<!-- Generator: Adobe Illustrator 28.2.0, SVG Export Plug-In . SVG Version: 6.00 Build 0)  -->
<svg version="1.1" id="a" xmlns="http://www.w3.org/2000/svg" xmlns:xlink="http://www.w3.org/1999/xlink" x="0px" y="0px"
	 viewBox="0 0 370 361" style="enable-background:new 0 0 370 361;" xml:space="preserve">
<style type="text/css">
	.st0{clip-path:url(#SVGID_00000168095027109228035640000009749919620182510239_);}
	.st1{fill:#FFFFFF;}
</style>
<g>
	<defs>
		<rect id="SVGID_1_" width="370" height="361"/>
	</defs>
	<clipPath id="SVGID_00000009563082030272851380000002677700843434639763_">
		<use xlink:href="#SVGID_1_"  style="overflow:visible;"/>
	</clipPath>
	<g style="clip-path:url(#SVGID_00000009563082030272851380000002677700843434639763_);">
		<g id="c">
			<path id="d" class="st1" d="M370,13.5c-0.8,0.5-1.6,0.9-2.6,0.9c-5.9,0.9-11.8,1.7-17.7,2.3c-7.1,0.6-14.2,0.7-21.4,0.4
				c-5.3-0.2-10.5-0.7-15.8-1.3c-8.1-1-16.1-2.1-24.1-3.3c-7.1-1-14.2-2.2-21.4-3.2c-5.5-0.8-11.1-1.6-16.7-2.2
				c-5.5-0.7-11-1.3-16.5-1.8c-10.9-1.1-21.9-1.5-32.9-1.1c-14,0.6-27.9,2.7-41.4,6.4c-6.1,1.7-12,3.9-17.6,6.6
				c-12.8,6.1-23.5,15.9-30.7,28.1c-7,11.8-11.9,24.7-14.5,38.1c-1.6,8.3-2.6,16.7-3.1,25.2c-0.5,7.3-0.5,14.6-0.3,21.9
				c0.1,3.4,0.3,6.9,0.6,10.3c0.1,0.7,0.2,1.5,0.3,2.1c0.6,0.4,1,0,1.5-0.2c11.2-5.6,23.2-9.7,35.5-12.3c9.6-2.1,19.3-3.6,29-4.7
				c8-0.9,16-1.8,23.9-2.9c15.6-2,30.8-5.9,45.4-11.6c3-1.2,6-2.6,8.9-4.1c1.2-0.6,2.3-1.3,3.3-2.2c7.3-6.1,14.4-12.3,21.8-18.3
				c10.3-8.6,21.6-15.9,33.6-21.9c7.9-3.9,16.1-7,24.7-9.1c7.4-1.8,15-2.5,22.7-2.3c8,0.4,16,1.9,23.6,4.6c0.6,0.3,1.2,0.6,1.8,0.9
				v3.5c-1.9-0.6-3.8-1.2-5.7-1.8c-12.5-3.9-25.8-4.6-38.7-1.9c-7.8,1.7-15.3,4.2-22.6,7.4c-12.9,5.8-24.6,13.6-35.7,22.2
				c-0.4,0.3-0.7,0.7-1,1.1c-0.5-0.1-1,0.3-1,0.8c0.5,0.1,1-0.2,1.1-0.7c1-0.1,1.6-0.8,2.4-1.3c7.7-4.9,15.5-9.7,23.4-14.2
				c5.5-3.1,11.3-5.8,17.3-8c9.1-3.5,18.8-5.2,28.5-5.1c6.5,0.1,13,0.8,19.5,2.1c4.3,0.7,8.5,1.9,12.6,3.3v3.5c-1,0.1-2-0.1-2.9-0.6
				c-7.9-2.4-16-3.8-24.2-4.4c-11.4-0.9-22.9,0.9-33.5,5.2c-5.5,2.1-10.8,4.7-15.9,7.6c-9.2,5.2-18.2,10.8-26.9,16.6
				c-7.6,5.1-15.2,10.1-23.2,14.5c-0.8,0.5-1.5,1-2.2,1.6c-3.6,3-7.1,6.1-10.8,9c-16.1,12.9-34.9,22.1-55.1,26.9
				c-8.9,2.1-17.9,3.5-27,4.1c-9.6,0.7-19.3,0.7-28.9,0.8c-4.7,0.1-9.4,0.1-14.1,0.2c-2.8,0.1-5.7,0.3-8.5,0.4
				c-0.4,0.1-0.9,0.1-1.3,0.3c0,0.7,0,1.4,0.1,2c2.9,20,8,39.6,15.3,58.5c5.9,15.6,13.2,30.6,21.7,45c8.6,14.8,18.1,29,28.4,42.7
				c8.8,11.5,18,22.5,27.7,33.2c2.4,2.6,4.8,5.2,7.1,7.8c3.8,4.3,7.9,8.2,12.3,11.9c0.6,0.5,1.1,1,1.7,1.5c0.6,0.7,0.6,1.6,0.1,2.3
				c-0.6,0.7-1.5,0.8-2.3,0.5c-0.4-0.2-0.7-0.4-1-0.7c-3.7-2.9-7.1-6.1-10.4-9.5c-11.6-12.4-22.8-25.2-33.4-38.5
				c-11.4-14.3-21.4-29.6-31-45.2c-6-9.7-11.3-19.8-16.1-30.1c-9.4-20.1-16.5-41.3-20.9-63c-1.1-5.2-1.8-10.6-2.7-15.8
				c-0.1-0.6-0.2-1.3-0.4-2.1c-2.8,0.2-5.4,0.3-7.8,2.1c-7.2,5.4-13.7,11.6-19.4,18.5c-5.3,6.4-10,13.3-14,20.5
				c-8.9,15.7-15.5,32.6-19.6,50.1c-1.7,6.8-3,13.8-3.9,20.7c-0.9,7.9-1.4,15.9-1.3,23.8c0,9.3,0.7,18.6,1.6,27.9
				c0.9,9.7,2.3,19.3,4.2,28.8c1.1,5.4,2.3,10.8,3.5,16.2h-4c-0.1-0.7-0.1-1.3-0.3-2c-1.1-5.1-2.2-10.1-3.2-15.2
				c-1.6-8.5-2.8-17-3.7-25.6c-0.8-8-1.4-16-1.7-24.1c-0.3-7-0.2-13.9,0.4-20.9c0.3-3.9,0.6-7.9,1.2-11.8c1-7.3,2.5-14.5,4.4-21.6
				c2.7-11.1,6.4-21.9,11.1-32.3c3.7-8,7.8-15.8,12.5-23.2c6.5-10.3,14.4-19.6,23.5-27.7c0.5-0.4,1.2-0.6,1.1-1.5l0.3,0
				c0-0.1-0.1-0.2-0.1-0.3l-0.2,0.3c-0.7,0.1-1.5,0.2-2.2,0.4c-12.6,3.7-23.9,11.1-32.3,21.1c-6.2,7.3-11.3,15.4-15.2,24.2
				C18,219.2,12.3,238.4,9,258.1c-1.3,7.4-2.3,14.7-3.2,22.1c-0.8,7.2-1.5,14.3-1.8,21.5c-0.4,8.6-0.3,17.3,0.3,25.9
				c0.6,9.5,1.8,19,3.5,28.4c0.3,1.6,0.4,3.3,0.6,5H5c-0.8-5-1.8-9.9-2.5-14.9c-0.8-5.7-1.4-11.5-1.8-17.2
				c-0.7-8.2-0.8-16.4-0.4-24.6c0.2-4.1,0.3-8.2,0.7-12.3c0.5-5.9,1.1-11.9,1.9-17.7c0.9-6.9,2-13.8,3.2-20.6
				c3.3-18.6,8.9-36.7,16.6-53.9c3.8-8.4,8.6-16.3,14.4-23.5c10.7-13.6,25.9-22.8,42.9-26c3.1-0.4,6-1.6,8.5-3.4
				c0.7-0.5,1.4-0.9,2.1-1.4c0.1,0,0.1-0.1,0.2-0.4c-0.1-1.6-0.2-3.3-0.3-5.1c-0.7-8.4-0.8-16.9-0.6-25.4
				c0.3-10.2,1.4-20.4,3.2-30.5c2.6-14.5,7.8-28.3,15.3-41c9.1-15.1,21.9-25.8,38.3-32.3c8.6-3.3,17.5-5.8,26.5-7.5
				c7.3-1.4,14.7-2.4,22.1-2.9c7.2-0.6,14.4-0.7,21.6-0.3c6.4,0.4,12.9,0.7,19.3,1.3c6.5,0.6,13,1.4,19.5,2.3
				c6.1,0.8,12.3,1.7,18.4,2.6c6,0.9,12.1,1.8,18.1,2.7c7.5,1.1,14.9,2.1,22.4,3c8.3,1.1,16.7,1.5,25.1,1.3
				c6.8-0.2,13.5-0.8,20.3-1.7c2.8-0.4,5.6-0.9,8.4-1.3c0.6,0,1.1,0,1.7,0.1L370,13.5L370,13.5z M228.4,116l-0.2-0.3
				c-1.3,0.5-2.6,0.9-4,1.4c-14.7,4.9-29.9,8.3-45.2,10c-6.9,0.8-13.8,1.6-20.7,2.4c-9.3,1.1-18.6,2.6-27.7,4.7
				c-9.7,2.1-19.2,5.2-28.3,9.3c-2.3,1-4.5,2.2-6.7,3.4c-0.4,0.1-0.7,0.6-0.5,1c0,0.1,0,0.1,0.1,0.1c0.5,0,1.1,0.1,1.6,0
				c1.9-0.1,3.8-0.3,5.8-0.3c10.5-0.2,20.9-0.4,31.4-0.5c6.7-0.1,13.4-0.4,20.1-1.1c9.3-1,18.5-2.8,27.5-5.5
				c16.4-4.8,31.6-12.7,45.1-23.1C227.2,117,227.8,116.5,228.4,116"/>
			<path id="e" class="st1" d="M370,137.2c-0.5,0.5-1.1,1-1.7,1.5c-7.3,5-14,10.9-19.9,17.6c-6.7,7.4-12.9,15.2-18.8,23.3
				c-3.4,4.8-7,9.4-10.6,14c-2.1,2.7-4.6,5.1-6.9,7.6c-5.4,5.6-12,10-19.2,12.9c-6.8,2.8-13.9,4.9-21.2,6.1c-4.9,0.8-9.7,1.7-14.5,3
				c-11.9,3.2-22.3,10.5-29.4,20.7c-4.6,6.2-8,13.3-9.9,20.7c-0.9,3.6-1.4,7.2-1.6,10.9c-0.4,6.7-0.2,13.4,0.6,20.1
				c1.9,14.5,6.7,27.9,13.1,41c3.9,8.1,8.5,15.8,14,22.9c0.3,0.5,0.6,1,0.8,1.5h-5c0-0.2,0.1-0.5,0-0.7c-0.2-0.4-0.5-0.9-0.8-1.2
				c-10.1-14.2-17.7-30.1-22.5-46.9c-2.2-7.8-3.6-15.9-4-24c-0.4-7.1-0.1-14.2,1.2-21.3c0.4-2.1,0.9-4.1,1.5-6.1
				c4.4-13.2,11.8-24.4,23.1-32.7c5.8-4.3,12.5-7.3,19.5-8.9c5-1.2,10-2.1,15-3c7.7-1.4,15.3-3.9,22.4-7.3c4.4-2.1,8.4-4.8,12-8.2
				c4.2-3.9,8-8.1,11.5-12.6c3-3.9,5.9-7.9,8.8-11.9c5.8-8.1,12.1-15.8,18.9-23.2c6-6.7,12.8-12.6,20.2-17.6c0.8-0.5,1.5-1,2.3-1.5
				c0.4-0.1,0.8-0.2,1.2-0.2L370,137.2L370,137.2z"/>
		</g>
	</g>
</g>
</svg>
