<?xml version="1.0" encoding="UTF-8"?>
<svg width="100px" height="806px" viewBox="0 0 100 806" version="1.1" xmlns="http://www.w3.org/2000/svg" xmlns:xlink="http://www.w3.org/1999/xlink">
    <title>Group 18</title>
    <defs>
        <linearGradient x1="50%" y1="0%" x2="50%" y2="100%" id="linearGradient-1">
            <stop stop-color="#FFFFFF" stop-opacity="0" offset="0%"></stop>
            <stop stop-color="#FFFFFF" offset="100%"></stop>
        </linearGradient>
    </defs>
    <g id="pages-" stroke="none" stroke-width="1" fill="none" fill-rule="evenodd">
        <g id="Desktop-Designs-/-Homepage-v2" transform="translate(-1823.000000, -1193.000000)">
            <g id="Group" transform="translate(1823.000000, 1193.000000)">
                <g id="horizontal-lines-thick" fill="#F6F7FB">
                    <rect id="Rectangle" x="0" y="0" width="97.6878613" height="5"></rect>
                    <rect id="Rectangle" x="0" y="10" width="97.6878613" height="5"></rect>
                    <rect id="Rectangle" x="0" y="20" width="97.6878613" height="5"></rect>
                    <rect id="Rectangle" x="0" y="30" width="97.6878613" height="5"></rect>
                    <rect id="Rectangle" x="0" y="40" width="97.6878613" height="5"></rect>
                    <rect id="Rectangle" x="0" y="50" width="97.6878613" height="5"></rect>
                    <rect id="Rectangle" x="0" y="60" width="97.6878613" height="5"></rect>
                    <rect id="Rectangle" x="0" y="70" width="97.6878613" height="5"></rect>
                    <rect id="Rectangle" x="0" y="80" width="97.6878613" height="5"></rect>
                    <rect id="Rectangle" x="0" y="90" width="97.6878613" height="5"></rect>
                    <rect id="Rectangle" x="0" y="100" width="97.6878613" height="5"></rect>
                    <rect id="Rectangle" x="0" y="110" width="97.6878613" height="5"></rect>
                    <rect id="Rectangle" x="0" y="120" width="97.6878613" height="5"></rect>
                    <rect id="Rectangle" x="0" y="130" width="97.6878613" height="5"></rect>
                    <rect id="Rectangle" x="0" y="140" width="97.6878613" height="5"></rect>
                    <rect id="Rectangle" x="0" y="150" width="97.6878613" height="5"></rect>
                    <rect id="Rectangle" x="0" y="160" width="97.6878613" height="5"></rect>
                    <rect id="Rectangle" x="0" y="170" width="97.6878613" height="5"></rect>
                    <rect id="Rectangle" x="0" y="180" width="97.6878613" height="5"></rect>
                    <rect id="Rectangle" x="0" y="190" width="97.6878613" height="5"></rect>
                </g>
                <g id="horizontal-lines-thick" transform="translate(0.000000, 200.000000)" fill="#9EB0CE" fill-opacity="0.1">
                    <rect id="Rectangle" x="0" y="0" width="97.6878613" height="5"></rect>
                    <rect id="Rectangle" x="0" y="10" width="97.6878613" height="5"></rect>
                    <rect id="Rectangle" x="0" y="20" width="97.6878613" height="5"></rect>
                    <rect id="Rectangle" x="0" y="30" width="97.6878613" height="5"></rect>
                    <rect id="Rectangle" x="0" y="40" width="97.6878613" height="5"></rect>
                    <rect id="Rectangle" x="0" y="50" width="97.6878613" height="5"></rect>
                    <rect id="Rectangle" x="0" y="60" width="97.6878613" height="5"></rect>
                    <rect id="Rectangle" x="0" y="70" width="97.6878613" height="5"></rect>
                    <rect id="Rectangle" x="0" y="80" width="97.6878613" height="5"></rect>
                    <rect id="Rectangle" x="0" y="90" width="97.6878613" height="5"></rect>
                    <rect id="Rectangle" x="0" y="100" width="97.6878613" height="5"></rect>
                    <rect id="Rectangle" x="0" y="110" width="97.6878613" height="5"></rect>
                    <rect id="Rectangle" x="0" y="120" width="97.6878613" height="5"></rect>
                    <rect id="Rectangle" x="0" y="130" width="97.6878613" height="5"></rect>
                    <rect id="Rectangle" x="0" y="140" width="97.6878613" height="5"></rect>
                    <rect id="Rectangle" x="0" y="150" width="97.6878613" height="5"></rect>
                    <rect id="Rectangle" x="0" y="160" width="97.6878613" height="5"></rect>
                    <rect id="Rectangle" x="0" y="170" width="97.6878613" height="5"></rect>
                    <rect id="Rectangle" x="0" y="180" width="97.6878613" height="5"></rect>
                    <rect id="Rectangle" x="0" y="190" width="97.6878613" height="5"></rect>
                </g>
                <g id="horizontal-lines-thick" transform="translate(0.000000, 400.000000)" fill="#9EB0CE" fill-opacity="0.1">
                    <rect id="Rectangle" x="0" y="0" width="97.6878613" height="5"></rect>
                    <rect id="Rectangle" x="0" y="10" width="97.6878613" height="5"></rect>
                    <rect id="Rectangle" x="0" y="20" width="97.6878613" height="5"></rect>
                    <rect id="Rectangle" x="0" y="30" width="97.6878613" height="5"></rect>
                    <rect id="Rectangle" x="0" y="40" width="97.6878613" height="5"></rect>
                    <rect id="Rectangle" x="0" y="50" width="97.6878613" height="5"></rect>
                    <rect id="Rectangle" x="0" y="60" width="97.6878613" height="5"></rect>
                    <rect id="Rectangle" x="0" y="70" width="97.6878613" height="5"></rect>
                    <rect id="Rectangle" x="0" y="80" width="97.6878613" height="5"></rect>
                    <rect id="Rectangle" x="0" y="90" width="97.6878613" height="5"></rect>
                    <rect id="Rectangle" x="0" y="100" width="97.6878613" height="5"></rect>
                    <rect id="Rectangle" x="0" y="110" width="97.6878613" height="5"></rect>
                    <rect id="Rectangle" x="0" y="120" width="97.6878613" height="5"></rect>
                    <rect id="Rectangle" x="0" y="130" width="97.6878613" height="5"></rect>
                    <rect id="Rectangle" x="0" y="140" width="97.6878613" height="5"></rect>
                    <rect id="Rectangle" x="0" y="150" width="97.6878613" height="5"></rect>
                    <rect id="Rectangle" x="0" y="160" width="97.6878613" height="5"></rect>
                    <rect id="Rectangle" x="0" y="170" width="97.6878613" height="5"></rect>
                    <rect id="Rectangle" x="0" y="180" width="97.6878613" height="5"></rect>
                    <rect id="Rectangle" x="0" y="190" width="97.6878613" height="5"></rect>
                </g>
                <g id="horizontal-lines-thick" transform="translate(0.000000, 600.000000)" fill="#9EB0CE" fill-opacity="0.1">
                    <rect id="Rectangle" x="0" y="0" width="97.6878613" height="5"></rect>
                    <rect id="Rectangle" x="0" y="10" width="97.6878613" height="5"></rect>
                    <rect id="Rectangle" x="0" y="20" width="97.6878613" height="5"></rect>
                    <rect id="Rectangle" x="0" y="30" width="97.6878613" height="5"></rect>
                    <rect id="Rectangle" x="0" y="40" width="97.6878613" height="5"></rect>
                    <rect id="Rectangle" x="0" y="50" width="97.6878613" height="5"></rect>
                    <rect id="Rectangle" x="0" y="60" width="97.6878613" height="5"></rect>
                    <rect id="Rectangle" x="0" y="70" width="97.6878613" height="5"></rect>
                    <rect id="Rectangle" x="0" y="80" width="97.6878613" height="5"></rect>
                    <rect id="Rectangle" x="0" y="90" width="97.6878613" height="5"></rect>
                    <rect id="Rectangle" x="0" y="100" width="97.6878613" height="5"></rect>
                    <rect id="Rectangle" x="0" y="110" width="97.6878613" height="5"></rect>
                    <rect id="Rectangle" x="0" y="120" width="97.6878613" height="5"></rect>
                    <rect id="Rectangle" x="0" y="130" width="97.6878613" height="5"></rect>
                    <rect id="Rectangle" x="0" y="140" width="97.6878613" height="5"></rect>
                    <rect id="Rectangle" x="0" y="150" width="97.6878613" height="5"></rect>
                    <rect id="Rectangle" x="0" y="160" width="97.6878613" height="5"></rect>
                    <rect id="Rectangle" x="0" y="170" width="97.6878613" height="5"></rect>
                    <rect id="Rectangle" x="0" y="180" width="97.6878613" height="5"></rect>
                    <rect id="Rectangle" x="0" y="190" width="97.6878613" height="5"></rect>
                </g>
                <rect id="Rectangle" fill="url(#linearGradient-1)" x="1.15606936" y="113" width="98.8439306" height="693"></rect>
            </g>
        </g>
    </g>
</svg>