<?xml version="1.0" encoding="UTF-8"?>
<svg width="80px" height="44px" viewBox="0 0 80 44" version="1.1" xmlns="http://www.w3.org/2000/svg" xmlns:xlink="http://www.w3.org/1999/xlink">
    <title>Group 4</title>
    <g id="Symbols" stroke="none" stroke-width="1" fill="none" fill-rule="evenodd">
        <g id="Tablet-Design-/-Footer" transform="translate(-444.000000, -379.000000)" fill="#4A81C5">
            <g id="Group-4" transform="translate(444.000000, 379.000000)">
                <g id="Group-3">
                    <polygon id="Fill-1" points="0 8.25728155 0 8.43717182 0 11.723301 11.9840256 11.723301 11.9840256 8.25728155"></polygon>
                    <polygon id="Fill-2" points="15.1533546 0 15.1533546 21 18.5668492 21 18.5668492 11.7157308 31 11.7157308 31 11.5327121 30.9876982 8.17956641 18.5668492 8.17956641 18.5668492 0"></polygon>
                </g>
                <g id="Group-3" transform="translate(19.000000, 4.000000)">
                    <polygon id="Fill-1" points="0 15.7281553 0 16.0708035 0 22.3300971 23.5814696 22.3300971 23.5814696 15.7281553"></polygon>
                    <polygon id="Fill-2" points="29.8178914 0 29.8178914 40 36.5347678 40 36.5347678 22.3156777 61 22.3156777 61 21.9670706 60.9757933 15.5801265 36.5347678 15.5801265 36.5347678 0"></polygon>
                </g>
            </g>
        </g>
    </g>
</svg>