<?xml version="1.0" encoding="utf-8"?>
<!-- Generator: Adobe Illustrator 27.0.1, SVG Export Plug-In . SVG Version: 6.00 Build 0)  -->
<svg version="1.1" id="Layer_1" xmlns="http://www.w3.org/2000/svg" xmlns:xlink="http://www.w3.org/1999/xlink" x="0px" y="0px"
	 viewBox="0 0 600 137.9" style="enable-background:new 0 0 600 137.9;" xml:space="preserve">
<style type="text/css">
	.st0{fill-rule:evenodd;clip-rule:evenodd;fill:#FAA31A;stroke:#B97A0F;stroke-width:0.4763;stroke-miterlimit:10;}
	.st1{fill:none;stroke:#B97A0F;stroke-width:0.4763;stroke-miterlimit:10;}
	.st2{fill:#FAA31A;}
	.st3{fill-rule:evenodd;clip-rule:evenodd;fill:#FAA31A;}
	.st4{fill-rule:evenodd;clip-rule:evenodd;}
	.st5{fill-rule:evenodd;clip-rule:evenodd;fill:#87C4EB;stroke:#608DA9;stroke-width:0.4763;stroke-miterlimit:10;}
	.st6{fill-rule:evenodd;clip-rule:evenodd;fill:#87C4EB;}
	.st7{fill:none;stroke:#608DA9;stroke-width:0.4763;stroke-miterlimit:10;}
	.st8{fill:#684D1E;}
</style>
<g>
	<path class="st0" d="M30,93l5.6,13.9c0.1,0.3,0.4,0.5,0.7,0.5l14.9,1c0.8,0,1,1,0.5,1.5l-11.5,9.6c-0.2,0.2-0.3,0.5-0.3,0.9
		l3.7,14.5c0.2,0.7-0.6,1.3-1.2,0.9l-12.7-8c-0.3-0.2-0.6-0.2-0.9,0l-12.6,8c-0.6,0.4-1.4-0.2-1.2-0.9l3.7-14.5
		c0.1-0.3,0-0.6-0.3-0.9l-11.5-9.5c-0.6-0.5-0.3-1.4,0.5-1.5l14.9-1c0.3,0,0.6-0.2,0.7-0.5L28.5,93C28.8,92.3,29.8,92.3,30,93z"/>
	<path class="st0" d="M82.8,93l5.6,13.9c0.1,0.3,0.4,0.5,0.7,0.5l14.9,1c0.8,0,1,1,0.5,1.5L93,119.5c-0.2,0.2-0.3,0.5-0.3,0.9
		l3.7,14.5c0.2,0.7-0.6,1.3-1.2,0.9l-12.7-8c-0.3-0.2-0.6-0.2-0.9,0l-12.6,8c-0.6,0.4-1.4-0.2-1.2-0.9l3.7-14.5
		c0.1-0.3,0-0.6-0.3-0.9l-11.5-9.5c-0.6-0.5-0.3-1.4,0.5-1.5l14.9-1c0.3,0,0.6-0.2,0.7-0.5L81.3,93C81.6,92.3,82.6,92.3,82.8,93z"/>
	<path class="st0" d="M135.7,93l5.6,13.9c0.1,0.3,0.4,0.5,0.7,0.5l14.9,1c0.8,0,1,1,0.5,1.5l-11.5,9.6c-0.2,0.2-0.3,0.5-0.3,0.9
		l3.7,14.5c0.2,0.7-0.6,1.3-1.2,0.9l-12.7-8c-0.3-0.2-0.6-0.2-0.9,0l-12.6,7.9c-0.6,0.4-1.4-0.2-1.2-0.9l3.7-14.5
		c0.1-0.3,0-0.6-0.3-0.9l-11.5-9.6c-0.6-0.5-0.3-1.4,0.5-1.5l14.9-1c0.3,0,0.6-0.2,0.7-0.5l5.6-13.9C134.4,92.3,135.4,92.3,135.7,93
		z"/>
	<path class="st0" d="M188.4,93l5.6,13.9c0.1,0.3,0.4,0.5,0.7,0.5l14.9,1c0.8,0,1,1,0.5,1.5l-11.5,9.6c-0.2,0.2-0.3,0.5-0.3,0.9
		l3.7,14.5c0.2,0.7-0.6,1.3-1.2,0.9l-12.7-8c-0.3-0.2-0.6-0.2-0.9,0l-12.6,7.9c-0.6,0.4-1.4-0.2-1.2-0.9l3.7-14.5
		c0.1-0.3,0-0.6-0.3-0.9l-11.5-9.6c-0.6-0.5-0.3-1.4,0.5-1.5l14.9-1c0.3,0,0.6-0.2,0.7-0.5l5.6-13.9C187.2,92.3,188.1,92.3,188.4,93
		z"/>
	<g>
		<path class="st1" d="M254.8,134.8l-0.8-3v4C254.5,135.8,254.9,135.3,254.8,134.8z"/>
		<path class="st2" d="M251.4,119.5l2.6-2.2v-9.4l-6.5-0.4c-0.3,0-0.6-0.2-0.7-0.5L241.2,93c-0.3-0.7-1.2-0.7-1.5,0l-5.6,13.9
			c-0.1,0.3-0.4,0.5-0.7,0.5l-14.9,1c-0.8,0-1,1-0.5,1.5l11.4,9.6c0.2,0.2,0.3,0.5,0.3,0.9l-3.7,14.5c-0.2,0.7,0.6,1.3,1.2,0.9
			l12.7-8c0.3-0.2,0.6-0.2,0.9,0l12.6,7.9c0.1,0.1,0.3,0.1,0.5,0.1l0.8-0.4l-3.7-15.1C251.1,120,251.2,119.7,251.4,119.5z"/>
		<path class="st1" d="M241.2,93l5.6,13.9c0.1,0.3,0.4,0.5,0.7,0.5l14.9,1c0.8,0,1,1,0.5,1.5l-11.5,9.6c-0.2,0.2-0.3,0.5-0.3,0.9
			l3.7,14.5c0.2,0.7-0.6,1.3-1.2,0.9l-12.7-8c-0.3-0.2-0.6-0.2-0.9,0l-12.6,7.9c-0.6,0.4-1.4-0.2-1.2-0.9l3.7-14.5
			c0.1-0.3,0-0.6-0.3-0.9l-11.5-9.6c-0.6-0.5-0.3-1.4,0.5-1.5l14.9-1c0.3,0,0.6-0.2,0.7-0.5l5.5-13.8C240,92.3,241,92.3,241.2,93z"
			/>
	</g>
</g>
<g>
	<g>
		<path class="st3" d="M166.2,66.5c-15.2,11.2-37.3,17.2-56.3,17.2c-26.6,0-50.6-9.9-68.7-26.2c-1.4-1.3-0.1-3,1.6-2
			c19.6,11.4,43.8,18.2,68.8,18.2c16.9,0,35.4-3.5,52.5-10.7C166.6,61.8,168.8,64.6,166.2,66.5z"/>
		<path class="st3" d="M172.6,59.3c-2-2.5-12.9-1.2-17.8-0.6c-1.5,0.2-1.7-1.1-0.4-2c8.7-6.1,23-4.3,24.6-2.3
			c1.7,2-0.4,16.4-8.6,23.2c-1.2,1-2.4,0.5-1.9-0.9C170.4,72,174.5,61.7,172.6,59.3z"/>
	</g>
	<g>
		<path class="st4" d="M155.1,13.4v-6c0-0.9,0.7-1.5,1.5-1.5h26.6c0.9,0,1.5,0.6,1.5,1.5v5.1c0,0.9-0.7,2-2,3.8L169,36
			c5.1-0.1,10.5,0.7,15.2,3.3c1,0.6,1.3,1.5,1.4,2.3v6.3c0,0.9-1,1.9-2,1.4c-8.2-4.3-19.1-4.8-28.1,0c-0.9,0.5-1.9-0.5-1.9-1.4v-6
			c0-1,0-2.6,1-4.1l16-23h-13.9C155.8,14.9,155.1,14.3,155.1,13.4z"/>
		<path class="st4" d="M57.9,50.5h-8.1c-0.8,0-1.4-0.6-1.4-1.4V7.5c0-0.8,0.7-1.5,1.6-1.5h7.5c0.8,0,1.4,0.6,1.5,1.4v5.4h0.1
			c2-5.2,5.7-7.7,10.7-7.7c5,0,8.2,2.4,10.5,7.7c2-5.2,6.4-7.7,11.2-7.7c3.4,0,7.1,1.4,9.4,4.6c2.6,3.5,2,8.6,2,13V49
			c0,0.8-0.7,1.5-1.6,1.5h-8.1c-0.8,0-1.5-0.7-1.5-1.5V27c0-1.8,0.1-6.1-0.2-7.8c-0.6-2.8-2.4-3.6-4.8-3.6c-2,0-4,1.3-4.9,3.4
			c-0.8,2.1-0.8,5.6-0.8,8V49c0,0.8-0.7,1.5-1.6,1.5h-8.1c-0.8,0-1.5-0.7-1.5-1.5V27c0-4.6,0.8-11.5-5-11.5c-5.8,0-5.6,6.7-5.6,11.5
			V49C59.5,49.8,58.8,50.5,57.9,50.5z"/>
		<path class="st4" d="M207.8,5.2c12,0,18.5,10.3,18.5,23.5c0,12.7-7.2,22.8-18.5,22.8c-11.8,0-18.2-10.3-18.2-23.2
			C189.5,15.3,196.1,5.2,207.8,5.2z M207.8,13.7c-6,0-6.3,8.1-6.3,13.2s-0.1,16,6.3,16c6.3,0,6.6-8.8,6.6-14.1c0-3.5-0.1-7.7-1.2-11
			C212.2,14.8,210.4,13.7,207.8,13.7z"/>
		<path class="st4" d="M241.9,50.5h-8.1c-0.8,0-1.5-0.7-1.5-1.5V7.4c0-0.8,0.8-1.4,1.6-1.4h7.5c0.7,0,1.3,0.5,1.4,1.1v6.4h0.1
			c2.3-5.7,5.4-8.4,11-8.4c3.6,0,7.2,1.3,9.5,4.9c2.1,3.3,2.1,8.9,2.1,13v26.2c-0.1,0.7-0.8,1.3-1.6,1.3h-8.1
			c-0.8,0-1.3-0.6-1.4-1.3V26.6c0-4.6,0.5-11.2-5-11.2c-2,0-3.8,1.3-4.7,3.3c-1.1,2.5-1.3,5.1-1.3,7.9V49
			C243.4,49.8,242.8,50.5,241.9,50.5z"/>
		<path class="st4" d="M133.9,30.6c0,3.1,0.1,5.8-1.5,8.6c-1.3,2.3-3.3,3.7-5.6,3.7c-3.1,0-4.9-2.4-4.9-5.9c0-6.9,6.2-8.1,12-8.1
			V30.6z M142.1,50.4c-0.5,0.5-1.3,0.5-1.9,0.2c-2.7-2.2-3.2-3.3-4.7-5.4c-4.4,4.5-7.6,5.9-13.4,5.9c-6.8,0-12.1-4.2-12.1-12.6
			c0-6.6,3.6-11,8.6-13.2c4.4-2,10.5-2.3,15.2-2.8v-1c0-2,0.1-4.2-1-5.9c-1-1.5-2.9-2.1-4.6-2.1c-3.1,0-5.9,1.6-6.5,4.9
			c-0.1,0.7-0.7,1.5-1.4,1.5l-7.7-0.9c-0.7-0.1-1.4-0.7-1.2-1.7c1.8-9.5,10.4-12.4,18.1-12.4c4,0,9.1,1,12.2,4c4,3.7,3.6,8.6,3.6,14
			v12.6c0,3.8,1.6,5.5,3,7.5c0.5,0.8,0.6,1.6,0,2.1C146.7,46.5,143.7,49,142.1,50.4L142.1,50.4z"/>
		<path class="st4" d="M27.6,30.6c0,3.1,0.1,5.8-1.5,8.6c-1.3,2.3-3.3,3.7-5.6,3.7c-3.1,0-4.9-2.4-4.9-5.9c0-6.9,6.2-8.1,12-8.1
			V30.6z M35.8,50.4c-0.5,0.5-1.3,0.5-1.9,0.2c-2.7-2.2-3.2-3.3-4.7-5.4c-4.4,4.5-7.6,5.9-13.4,5.9C9,51.1,3.7,46.9,3.7,38.5
			c0-6.6,3.6-11,8.6-13.2c4.4-2,10.5-2.3,15.2-2.8v-1c0-2,0.1-4.2-1-5.9c-1-1.5-2.9-2.1-4.6-2.1c-3.1,0-5.9,1.6-6.5,4.9
			c-0.1,0.7-0.7,1.5-1.4,1.5l-7.7-0.9c-0.7-0.1-1.4-0.7-1.2-1.7C6.9,7.6,15.5,4.8,23.2,4.8c4,0,9.1,1,12.2,4c4,3.7,3.6,8.6,3.6,14
			v12.6c0,3.8,1.6,5.5,3,7.5c0.5,0.8,0.6,1.6,0,2.1C40.4,46.5,37.4,49,35.8,50.4L35.8,50.4z"/>
	</g>
</g>
<g>
	<path class="st5" d="M357.3,92.8l5.6,13.9c0.1,0.3,0.4,0.5,0.7,0.5l14.9,1c0.8,0,1,1,0.5,1.5l-11.5,9.6c-0.2,0.2-0.3,0.5-0.3,0.9
		l3.7,14.5c0.2,0.7-0.6,1.3-1.2,0.9l-12.7-8c-0.3-0.2-0.6-0.2-0.9,0l-12.6,8c-0.6,0.4-1.4-0.2-1.2-0.9l3.7-14.5
		c0.1-0.3,0-0.6-0.3-0.9l-11.5-9.5c-0.6-0.5-0.3-1.4,0.5-1.5l14.9-1c0.3,0,0.6-0.2,0.7-0.5l5.6-13.9
		C356.1,92.1,357.1,92.1,357.3,92.8z"/>
	<path class="st5" d="M410.1,92.8l5.6,13.9c0.1,0.3,0.4,0.5,0.7,0.5l14.9,1c0.8,0,1,1,0.5,1.5l-11.5,9.6c-0.2,0.2-0.3,0.5-0.3,0.9
		l3.7,14.5c0.2,0.7-0.6,1.3-1.2,0.9l-12.7-8c-0.3-0.2-0.6-0.2-0.9,0l-12.6,8c-0.6,0.4-1.4-0.2-1.2-0.9l3.7-14.5
		c0.1-0.3,0-0.6-0.3-0.9l-11.5-9.5c-0.6-0.5-0.3-1.4,0.5-1.5l14.9-1c0.3,0,0.6-0.2,0.7-0.5l5.6-13.9
		C408.9,92.1,409.9,92.1,410.1,92.8z"/>
	<path class="st5" d="M462.9,92.8l5.6,13.9c0.1,0.3,0.4,0.5,0.7,0.5l14.9,1c0.8,0,1,1,0.5,1.5l-11.5,9.6c-0.2,0.2-0.3,0.5-0.3,0.9
		l3.7,14.5c0.2,0.7-0.6,1.3-1.2,0.9l-12.7-8c-0.3-0.2-0.6-0.2-0.9,0l-12.6,7.9c-0.6,0.4-1.4-0.2-1.2-0.9l3.7-14.5
		c0.1-0.3,0-0.6-0.3-0.9l-11.5-9.6c-0.6-0.5-0.3-1.4,0.5-1.5l14.9-1c0.3,0,0.6-0.2,0.7-0.5l5.6-13.9
		C461.7,92.1,462.7,92.1,462.9,92.8z"/>
	<path class="st5" d="M515.7,92.8l5.6,13.9c0.1,0.3,0.4,0.5,0.7,0.5l14.9,1c0.8,0,1,1,0.5,1.5l-11.5,9.6c-0.2,0.2-0.3,0.5-0.3,0.9
		l3.7,14.5c0.2,0.7-0.6,1.3-1.2,0.9l-12.7-8c-0.3-0.2-0.6-0.2-0.9,0l-12.6,7.9c-0.6,0.4-1.4-0.2-1.2-0.9l3.7-14.5
		c0.1-0.3,0-0.6-0.3-0.9l-11.5-9.6c-0.6-0.5-0.3-1.4,0.5-1.5l14.9-1c0.3,0,0.6-0.2,0.7-0.5l5.6-13.9
		C514.5,92.1,515.4,92.1,515.7,92.8z"/>
	<path class="st6" d="M576.3,107.2l-1.6-0.1c-0.3,0-0.6-0.2-0.7-0.5l-5.5-13.9c-0.3-0.7-1.2-0.7-1.5,0l-5.6,13.9
		c-0.1,0.3-0.4,0.5-0.7,0.5l-14.9,1c-0.8,0-1,1-0.5,1.5l11.4,9.6c0.2,0.2,0.3,0.5,0.3,0.9l-3.7,14.5c-0.2,0.7,0.6,1.3,1.2,0.9
		l12.7-8c0.3-0.2,0.6-0.2,0.9,0l8.1,5.1V107.2z"/>
	<path class="st7" d="M568.5,92.8l5.6,13.9c0.1,0.3,0.4,0.5,0.7,0.5l14.9,1c0.8,0,1,1,0.5,1.5l-11.5,9.6c-0.2,0.2-0.3,0.5-0.3,0.9
		l3.7,14.5c0.2,0.7-0.6,1.3-1.2,0.9l-12.7-8c-0.3-0.2-0.6-0.2-0.9,0l-12.6,7.9c-0.6,0.4-1.4-0.2-1.2-0.9l3.7-14.5
		c0.1-0.3,0-0.6-0.3-0.9l-11.5-9.6c-0.6-0.5-0.3-1.4,0.5-1.5l14.9-1c0.3,0,0.6-0.2,0.7-0.5l5.5-13.8
		C567.2,92.1,568.2,92.1,568.5,92.8z"/>
	<g>
		<path class="st8" d="M354.7,37.1c-0.3,1.3-0.9,2.6-1.7,3.6c-0.8,1.1-1.8,2-2.9,2.7c-1.1,0.7-2.3,1.3-3.6,1.7
			c-1.3,0.4-2.6,0.6-3.9,0.6c-2.1,0-4-0.4-5.6-1.2c-1.6-0.8-2.9-1.9-4-3.2c-1-1.3-1.9-2.9-2.4-4.7c-0.5-1.8-0.8-3.7-0.8-5.6
			c0-2,0.3-4,0.9-5.8s1.4-3.4,2.5-4.8c1.1-1.4,2.5-2.5,4.1-3.2c1.7-0.8,3.6-1.2,5.7-1.2c1.5,0,2.9,0.2,4.1,0.7
			c1.3,0.5,2.4,1.1,3.4,1.9c1,0.8,1.9,1.7,2.6,2.8c0.7,1.1,1.2,2.2,1.5,3.5h0.1v-8.1h1.2v29.7c0,4.2-1.1,7.3-3.3,9.3
			c-2.2,2-5.4,3-9.4,3c-1.6,0-3-0.2-4.4-0.5c-1.4-0.4-2.6-0.9-3.7-1.7c-1.1-0.8-2-1.8-2.6-3c-0.6-1.2-1-2.7-1-4.4h1.2
			c0,1.5,0.3,2.8,0.9,3.9c0.6,1.1,1.3,2,2.3,2.6c1,0.7,2,1.2,3.3,1.5c1.2,0.3,2.6,0.5,3.9,0.5c3.8,0,6.6-0.9,8.6-2.7
			c2-1.8,3-4.6,3-8.4v-9.2H354.7z M354,25.9c-0.5-1.7-1.2-3.1-2.2-4.4c-1-1.3-2.2-2.3-3.7-3.1s-3.1-1.1-5.1-1.1
			c-2,0-3.7,0.4-5.2,1.1c-1.5,0.7-2.8,1.8-3.8,3c-1,1.2-1.8,2.7-2.2,4.4c-0.5,1.7-0.8,3.4-0.8,5.3c0,1.9,0.2,3.7,0.8,5.3
			c0.5,1.6,1.2,3,2.2,4.3c1,1.2,2.2,2.2,3.6,2.9c1.4,0.7,3.1,1,5,1c2,0,3.8-0.4,5.2-1.1c1.5-0.7,2.8-1.7,3.8-2.9
			c1-1.2,1.8-2.7,2.3-4.3c0.5-1.7,0.8-3.4,0.8-5.2C354.8,29.3,354.6,27.6,354,25.9z"/>
		<path class="st8" d="M361.8,26c0.6-2,1.5-3.6,2.7-5.1c1.2-1.5,2.6-2.7,4.3-3.6s3.7-1.3,6-1.3c2.2,0,4.2,0.4,5.9,1.3
			s3.1,2.1,4.3,3.6s2,3.2,2.7,5.1c0.6,2,0.9,4,0.9,6c0,2.1-0.3,4.1-0.9,6c-0.6,2-1.5,3.6-2.7,5.1s-2.6,2.7-4.3,3.5s-3.7,1.3-6,1.3
			c-2.2,0-4.2-0.4-5.9-1.3c-1.7-0.9-3.1-2-4.3-3.5s-2-3.2-2.7-5.1c-0.6-2-0.9-4-0.9-6C360.9,30,361.2,27.9,361.8,26z M362.9,37.7
			c0.5,1.8,1.3,3.4,2.4,4.8c1.1,1.4,2.4,2.5,4,3.3c1.6,0.8,3.4,1.2,5.5,1.2c2,0,3.8-0.4,5.4-1.2c1.6-0.8,2.9-1.9,4-3.3
			s1.9-3,2.4-4.8c0.5-1.8,0.8-3.7,0.8-5.6c0-1.9-0.3-3.8-0.8-5.6s-1.3-3.4-2.4-4.8c-1.1-1.4-2.4-2.5-4-3.3c-1.6-0.9-3.4-1.2-5.4-1.2
			c-2,0-3.9,0.4-5.5,1.2c-1.6,0.9-2.9,2-4,3.3c-1.1,1.4-1.9,3-2.4,4.8c-0.5,1.8-0.8,3.6-0.8,5.6C362.1,34,362.4,35.9,362.9,37.7z"/>
		<path class="st8" d="M392.7,26c0.6-2,1.5-3.6,2.7-5.1c1.2-1.5,2.6-2.7,4.3-3.6s3.7-1.3,6-1.3c2.2,0,4.2,0.4,5.9,1.3
			c1.7,0.9,3.1,2.1,4.3,3.6c1.2,1.5,2,3.2,2.7,5.1c0.6,2,0.9,4,0.9,6c0,2.1-0.3,4.1-0.9,6c-0.6,2-1.5,3.6-2.7,5.1
			c-1.2,1.5-2.6,2.7-4.3,3.5c-1.7,0.9-3.7,1.3-6,1.3c-2.2,0-4.2-0.4-5.9-1.3c-1.7-0.9-3.1-2-4.3-3.5c-1.2-1.5-2-3.2-2.7-5.1
			c-0.6-2-0.9-4-0.9-6C391.8,30,392.2,27.9,392.7,26z M393.8,37.7c0.5,1.8,1.3,3.4,2.4,4.8c1.1,1.4,2.4,2.5,4,3.3
			c1.6,0.8,3.4,1.2,5.5,1.2c2,0,3.8-0.4,5.4-1.2s2.9-1.9,4-3.3s1.9-3,2.4-4.8c0.5-1.8,0.8-3.7,0.8-5.6c0-1.9-0.3-3.8-0.8-5.6
			c-0.5-1.8-1.3-3.4-2.4-4.8c-1.1-1.4-2.4-2.5-4-3.3c-1.6-0.9-3.4-1.2-5.4-1.2c-2,0-3.9,0.4-5.5,1.2c-1.6,0.9-2.9,2-4,3.3
			c-1.1,1.4-1.9,3-2.4,4.8c-0.5,1.8-0.8,3.6-0.8,5.6C393,34,393.3,35.9,393.8,37.7z"/>
		<path class="st8" d="M449.5,4.8v42.6h-1.2v-8.6h-0.1c-0.8,2.8-2.2,5-4.4,6.7S439,48,435.9,48c-2,0-3.9-0.4-5.5-1.2
			c-1.6-0.8-3-1.9-4.1-3.3c-1.1-1.4-2-3.1-2.6-5c-0.6-2-0.9-4.1-0.9-6.4c0-2.1,0.3-4.2,0.9-6.1s1.4-3.7,2.5-5.1
			c1.1-1.5,2.5-2.7,4.1-3.5c1.6-0.9,3.5-1.3,5.6-1.3c3.3,0,6,0.9,8,2.6c2.1,1.7,3.5,4,4.2,6.8h0.1V4.8
			C448.3,4.8,449.5,4.8,449.5,4.8z M444.9,21c-2.3-2.6-5.3-3.9-9-3.9c-2,0-3.9,0.4-5.4,1.3c-1.5,0.9-2.8,2-3.7,3.5
			c-1,1.4-1.7,3-2.1,4.8c-0.5,1.8-0.7,3.6-0.7,5.3c0,2,0.2,3.8,0.8,5.6c0.5,1.8,1.2,3.4,2.2,4.8c1,1.4,2.2,2.5,3.7,3.2
			c1.5,0.8,3.2,1.2,5.2,1.2c2,0,3.8-0.4,5.3-1.2c1.5-0.8,2.8-1.9,3.9-3.2c1-1.3,1.9-2.9,2.4-4.7c0.6-1.8,0.9-3.7,0.9-5.7
			C448.3,27.3,447.2,23.6,444.9,21z"/>
		<path class="st8" d="M461.3,47.4h-3.6V16.5h3.6v5.8h0.1c1-2.5,2.3-4.2,3.9-5.1c1.6-1,3.7-1.5,6.2-1.5v3.9c-2,0-3.7,0.3-5,1
			c-1.3,0.7-2.4,1.6-3.1,2.8c-0.8,1.1-1.3,2.5-1.6,4.1c-0.3,1.6-0.4,3.2-0.4,4.9V47.4L461.3,47.4z"/>
		<path class="st8" d="M475.4,32.8c0,1.7,0.2,3.2,0.7,4.8c0.4,1.5,1.1,2.8,2,3.9c0.9,1.1,2,2,3.2,2.6c1.3,0.7,2.8,1,4.5,1
			c2.3,0,4.4-0.6,6-1.9c1.7-1.2,2.8-3,3.3-5.2h4c-0.4,1.5-1,2.9-1.7,4.1s-1.6,2.3-2.7,3.3c-1.1,1-2.3,1.7-3.8,2.2
			c-1.5,0.5-3.2,0.8-5.1,0.8c-2.5,0-4.6-0.4-6.4-1.2c-1.8-0.9-3.3-2-4.4-3.4s-2-3.1-2.6-5.1c-0.6-2-0.9-4.1-0.9-6.4s0.3-4.4,1-6.4
			s1.6-3.7,2.8-5.2c1.2-1.5,2.7-2.7,4.4-3.5c1.8-0.9,3.8-1.3,6-1.3c4.2,0,7.6,1.5,10,4.4s3.6,7.2,3.6,12.8L475.4,32.8L475.4,32.8z
			 M495.6,29.8c0-1.5-0.2-3-0.6-4.3c-0.4-1.3-1-2.5-1.9-3.5c-0.8-1-1.9-1.8-3.1-2.3c-1.2-0.6-2.7-0.9-4.2-0.9s-3,0.3-4.2,0.9
			c-1.2,0.6-2.2,1.4-3.1,2.4c-0.9,1-1.5,2.1-2,3.5c-0.5,1.3-0.9,2.7-1,4.2H495.6z"/>
		<path class="st8" d="M518.2,29.3c0.7-0.1,1.5-0.2,2.4-0.4c1-0.1,1.7-0.4,2.3-0.7c0.6-0.3,1-0.8,1.1-1.4c0.1-0.7,0.2-1.3,0.2-1.8
			c0-1.8-0.6-3.3-1.8-4.5c-1.2-1.2-3.1-1.8-6-1.8c-1.2,0-2.4,0.1-3.4,0.3c-1,0.2-2,0.6-2.7,1.1c-0.8,0.5-1.4,1.2-1.9,2.1
			c-0.5,0.9-0.8,2-1,3.4h-3.6c0.1-1.8,0.5-3.4,1.2-4.7s1.6-2.3,2.8-3.1s2.4-1.4,4-1.8c1.5-0.4,3.1-0.6,4.8-0.6c1.6,0,3,0.2,4.4,0.5
			c1.4,0.3,2.6,0.9,3.6,1.6c1,0.7,1.8,1.7,2.4,3c0.6,1.2,0.9,2.8,0.9,4.5V42c0,1.4,0.2,2.3,0.8,2.7c0.5,0.4,1.5,0.3,3-0.3v2.8
			c-0.3,0.1-0.7,0.2-1.2,0.4c-0.5,0.1-1,0.2-1.6,0.2c-0.6,0-1.1,0-1.6-0.2c-0.6-0.1-1.1-0.3-1.4-0.6c-0.4-0.3-0.7-0.7-0.9-1.1
			c-0.2-0.4-0.4-0.9-0.4-1.4c-0.1-0.5-0.1-1-0.1-1.6c-1.5,1.7-3.2,3-5.2,3.8c-2,0.9-4,1.3-6.3,1.3c-1.3,0-2.7-0.2-3.9-0.5
			c-1.2-0.4-2.4-0.9-3.3-1.7s-1.7-1.7-2.3-2.8c-0.6-1.1-0.9-2.4-0.9-3.9c0-5.2,3.6-8.3,10.8-9.3L518.2,29.3z M524.3,31.1
			c-1.5,0.6-3,1-4.6,1.2c-1.6,0.2-3.1,0.4-4.7,0.5c-2.8,0.2-4.9,0.8-6.4,1.9c-1.5,1-2.3,2.6-2.3,4.7c0,1,0.2,1.8,0.6,2.5
			s0.9,1.3,1.5,1.7c0.6,0.5,1.3,0.8,2.1,1c0.8,0.2,1.6,0.3,2.5,0.3c1.4,0,2.8-0.2,4.2-0.5c1.3-0.4,2.6-0.9,3.6-1.6
			c1-0.7,1.9-1.7,2.5-2.8c0.6-1.1,1-2.5,1-4L524.3,31.1L524.3,31.1z"/>
		<path class="st8" d="M559.3,4.4h3.6v43h-3.6V42h-0.1c-0.5,1-1.2,2-2,2.7s-1.7,1.4-2.7,2c-1,0.5-2,0.9-3,1.2c-1,0.3-2,0.4-3,0.4
			c-2.5,0-4.6-0.4-6.4-1.2c-1.8-0.9-3.2-2-4.3-3.4c-1.1-1.4-2-3.2-2.5-5.1c-0.5-2-0.8-4.1-0.8-6.4c0-2.1,0.3-4.2,0.9-6.2
			c0.6-2,1.4-3.7,2.5-5.2c1.1-1.5,2.6-2.7,4.3-3.6c1.7-0.9,3.8-1.3,6.1-1.3c2.2,0,4.3,0.5,6.3,1.5c2,1,3.6,2.4,4.8,4.3V4.4
			L559.3,4.4z M559.3,31.8c0-1.8-0.2-3.4-0.7-5s-1.1-3-2-4.1c-0.9-1.2-2-2.1-3.3-2.8c-1.3-0.7-2.8-1-4.4-1c-1.9,0-3.5,0.4-4.9,1.1
			c-1.3,0.7-2.5,1.8-3.3,3c-0.9,1.3-1.5,2.8-1.9,4.4c-0.4,1.7-0.6,3.5-0.5,5.5c0,2,0.3,3.7,0.8,5.1s1.3,2.8,2.2,3.8s2,1.8,3.3,2.4
			c1.3,0.5,2.7,0.8,4.2,0.8c1.7,0,3.1-0.3,4.5-1c1.3-0.7,2.4-1.6,3.3-2.8c0.9-1.2,1.5-2.6,2-4.2C559.1,35.4,559.3,33.7,559.3,31.8z"
			/>
		<path class="st8" d="M571.6,37.7c0.6,2.7,1.6,4.5,3,5.6c1.4,1.1,3.5,1.6,6.2,1.6c1.3,0,2.4-0.1,3.4-0.5c1-0.3,1.8-0.8,2.4-1.3
			c0.6-0.5,1.1-1.1,1.4-1.8c0.3-0.7,0.5-1.4,0.5-2.1c0-1.5-0.5-2.6-1.5-3.4c-1-0.7-2.2-1.3-3.7-1.7c-1.5-0.4-3-0.8-4.8-1.1
			c-1.7-0.3-3.3-0.8-4.8-1.3c-1.5-0.6-2.7-1.4-3.7-2.6c-1-1.1-1.5-2.7-1.5-4.7c0-2.6,1-4.7,2.9-6.4c1.9-1.7,4.6-2.5,8-2.5
			c3.3,0,6,0.8,8.1,2.2c2.1,1.5,3.3,4,3.8,7.5h-3.6c-0.3-2.4-1.2-4-2.7-5c-1.5-1-3.4-1.5-5.6-1.5s-4,0.5-5.2,1.5
			c-1.2,1-1.8,2.2-1.8,3.9c0,1.4,0.5,2.5,1.5,3.2c1,0.7,2.2,1.3,3.7,1.8c1.5,0.5,3,0.9,4.8,1.2s3.3,0.9,4.8,1.5
			c1.5,0.7,2.7,1.5,3.7,2.7c1,1.1,1.5,2.7,1.5,4.7c0,1.5-0.3,2.8-1,3.9c-0.6,1.1-1.5,2.1-2.6,2.9c-1.1,0.8-2.4,1.3-4,1.7
			c-1.5,0.4-3.2,0.6-5,0.6c-1.8,0-3.4-0.3-4.9-0.8c-1.4-0.5-2.6-1.3-3.6-2.2c-1-1-1.8-2-2.3-3.3c-0.6-1.3-0.9-2.7-1-4.1L571.6,37.7
			L571.6,37.7L571.6,37.7z"/>
	</g>
</g>
</svg>
