<?xml version="1.0" encoding="utf-8"?>
<!-- Generator: Adobe Illustrator 27.0.1, SVG Export Plug-In . SVG Version: 6.00 Build 0)  -->
<svg version="1.1" id="Layer_1" xmlns="http://www.w3.org/2000/svg" xmlns:xlink="http://www.w3.org/1999/xlink" x="0px" y="0px"
	 viewBox="0 0 553.1 168.8" style="enable-background:new 0 0 553.1 168.8;" xml:space="preserve">
<style type="text/css">
	.st0{fill-rule:evenodd;clip-rule:evenodd;fill:#FAA31A;}
	.st1{fill-rule:evenodd;clip-rule:evenodd;}
</style>
<g>
	<g>
		<path class="st0" d="M342.3,131c-31.9,23.6-78.3,36.1-118.2,36.1c-55.9,0-106.2-20.7-144.3-55.1c-3-2.7-0.3-6.4,3.3-4.3
			c41.1,23.9,91.9,38.3,144.4,38.3c35.4,0,74.3-7.3,110.2-22.5C343,121.2,347.6,127.1,342.3,131z"/>
		<path class="st0" d="M355.6,115.8c-4.1-5.2-27-2.5-37.3-1.2c-3.1,0.4-3.6-2.4-0.8-4.3c18.3-12.8,48.3-9.1,51.7-4.8
			c3.5,4.3-0.9,34.4-18.1,48.7c-2.6,2.2-5.1,1-4-1.9C351,142.6,359.7,121,355.6,115.8z"/>
	</g>
	<g>
		<path class="st1" d="M319,19.5V7c0-1.9,1.4-3.2,3.2-3.2l55.9,0c1.8,0,3.2,1.3,3.2,3.1v10.7c0,1.8-1.5,4.1-4.2,7.9l-29,41.4
			c10.8-0.3,22.1,1.4,31.9,6.9c2.2,1.2,2.8,3.1,3,4.9V92c0,1.8-2,4-4.1,2.9c-17.2-9-40.1-10-59.1,0.1c-1.9,1-4-1.1-4-2.9V79.4
			c0-2,0-5.5,2.1-8.6l33.6-48.2l-29.2,0C320.4,22.6,319,21.4,319,19.5z"/>
		<path class="st1" d="M114.9,97.4h-17c-1.6-0.1-2.9-1.3-3-2.9l0-87.3c0-1.7,1.5-3.1,3.3-3.1l15.8,0c1.7,0.1,3,1.3,3.1,2.9v11.4h0.3
			c4.1-11,11.9-16.2,22.4-16.2c10.6,0,17.3,5.1,22.1,16.2c4.1-11,13.5-16.2,23.5-16.2c7.1,0,14.9,2.9,19.7,9.6
			c5.4,7.4,4.3,18,4.3,27.4l0,55.1c0,1.7-1.5,3.1-3.3,3.1h-17c-1.7-0.1-3.1-1.5-3.1-3.1l0-46.3c0-3.7,0.3-12.9-0.5-16.4
			c-1.3-5.9-5.1-7.5-10-7.5c-4.1,0-8.4,2.8-10.2,7.2c-1.7,4.4-1.6,11.8-1.6,16.7v46.3c0,1.7-1.5,3.1-3.3,3.1h-17
			c-1.7-0.1-3.1-1.5-3.1-3.1l0-46.3c0-9.7,1.6-24.1-10.5-24.1c-12.2,0-11.8,14-11.8,24.1l0,46.3C118.2,96,116.8,97.4,114.9,97.4z"/>
		<path class="st1" d="M429.5,2.2c25.3,0,38.9,21.7,38.9,49.3c0,26.6-15.1,47.8-38.9,47.8c-24.8,0-38.3-21.7-38.3-48.7
			C391.2,23.4,404.9,2.2,429.5,2.2z M429.6,20.1c-12.5,0-13.3,17.1-13.3,27.8c0,10.7-0.2,33.5,13.2,33.5c13.2,0,13.8-18.4,13.8-29.6
			c0-7.4-0.3-16.2-2.5-23.2C438.9,22.5,435,20.1,429.6,20.1z"/>
		<path class="st1" d="M501.2,97.4h-17c-1.7-0.1-3.1-1.5-3.1-3.1l0-87.4c0.1-1.6,1.6-2.9,3.3-2.9l15.8,0c1.5,0.1,2.7,1.1,3,2.4v13.4
			h0.3c4.8-12,11.4-17.6,23.2-17.6c7.6,0,15.1,2.8,19.9,10.3c4.4,7,4.4,18.7,4.4,27.2v55c-0.2,1.5-1.6,2.7-3.3,2.7h-17.1
			c-1.6-0.1-2.8-1.3-3-2.7V47.3c0-9.6,1.1-23.5-10.6-23.5c-4.1,0-7.9,2.8-9.9,7c-2.4,5.3-2.7,10.7-2.7,16.5v47
			C504.4,96,503,97.4,501.2,97.4z"/>
		<path class="st1" d="M274.4,55.7c0,6.6,0.2,12.2-3.2,18.1c-2.7,4.8-7,7.7-11.8,7.7c-6.5,0-10.3-5-10.3-12.3
			c0-14.5,13-17.1,25.3-17.1V55.7z M291.6,97.2c-1.1,1-2.7,1.1-4,0.4c-5.7-4.7-6.7-6.9-9.8-11.3c-9.3,9.5-16,12.4-28.1,12.4
			c-14.3,0-25.5-8.8-25.5-26.5c0-13.8,7.5-23.2,18.1-27.8c9.2-4.1,22.1-4.8,32-5.9v-2.2c0-4.1,0.3-8.8-2.1-12.3
			c-2.1-3.1-6-4.4-9.6-4.4c-6.5,0-12.3,3.3-13.7,10.2c-0.3,1.5-1.4,3.1-3,3.1L229.7,31c-1.4-0.3-2.9-1.4-2.5-3.6
			c3.8-20,21.9-26.1,38.1-26.1c8.3,0,19.1,2.2,25.6,8.5c8.3,7.7,7.5,18.1,7.5,29.3v26.5c0,8,3.3,11.5,6.4,15.8
			c1.1,1.6,1.3,3.4-0.1,4.5C301.2,88.9,295,94.2,291.6,97.2L291.6,97.2z"/>
		<path class="st1" d="M51.3,55.7c0,6.6,0.2,12.2-3.2,18.1c-2.7,4.8-7,7.7-11.8,7.7c-6.5,0-10.3-5-10.3-12.3
			c0-14.5,13-17.1,25.3-17.1V55.7z M68.5,97.2c-1.1,1-2.8,1.1-4,0.4c-5.7-4.7-6.7-6.9-9.8-11.3c-9.3,9.5-16,12.4-28.1,12.4
			c-14.3,0-25.5-8.8-25.5-26.5c0-13.8,7.5-23.2,18.1-27.8c9.2-4.1,22.1-4.8,32-5.9v-2.2c0-4.1,0.3-8.8-2.1-12.3
			c-2.1-3.1-6.1-4.4-9.6-4.4c-6.5,0-12.3,3.3-13.7,10.2c-0.3,1.5-1.4,3.1-3,3.1L6.6,31c-1.4-0.3-2.9-1.4-2.5-3.6
			C7.8,7.4,25.9,1.4,42.1,1.4c8.3,0,19.1,2.2,25.6,8.5c8.3,7.7,7.5,18.1,7.5,29.3v26.5c0,8,3.3,11.5,6.4,15.8
			c1.1,1.6,1.3,3.4-0.1,4.5C78.1,88.9,71.9,94.2,68.5,97.2L68.5,97.2z"/>
	</g>
</g>
</svg>
