<?xml version="1.0" encoding="utf-8"?>
<!-- Generator: Adobe Illustrator 27.0.1, SVG Export Plug-In . SVG Version: 6.00 Build 0)  -->
<svg version="1.1" id="Layer_1" xmlns="http://www.w3.org/2000/svg" xmlns:xlink="http://www.w3.org/1999/xlink" x="0px" y="0px"
	 viewBox="0 0 553.1 281.1" style="enable-background:new 0 0 553.1 281.1;" xml:space="preserve">
<style type="text/css">
	.st0{fill-rule:evenodd;clip-rule:evenodd;fill:#FAA31A;stroke:#B97A0F;stroke-miterlimit:10;}
	.st1{fill:none;stroke:#B97A0F;stroke-miterlimit:10;}
	.st2{fill:#FAA31A;}
	.st3{fill-rule:evenodd;clip-rule:evenodd;fill:#FAA31A;}
	.st4{fill-rule:evenodd;clip-rule:evenodd;}
</style>
<g>
	<path class="st0" d="M56.8,188.5l11.7,29.1c0.2,0.6,0.8,1,1.5,1.1l31.3,2.1c1.6,0.1,2.2,2.1,1,3.1L78.2,244
		c-0.5,0.4-0.7,1.1-0.6,1.8l7.7,30.4c0.4,1.5-1.3,2.7-2.6,1.9l-26.6-16.8c-0.6-0.4-1.3-0.4-1.9,0L27.7,278c-1.3,0.8-3-0.4-2.6-1.9
		l7.7-30.4c0.2-0.6-0.1-1.3-0.6-1.8l-24.1-20c-1.2-1-0.6-3,1-3.1l31.3-2.1c0.7,0,1.2-0.5,1.5-1.1l11.7-29.1
		C54.2,187,56.3,187,56.8,188.5z"/>
	<path class="st0" d="M167.7,188.5l11.7,29.1c0.2,0.6,0.8,1,1.5,1.1l31.3,2.1c1.6,0.1,2.2,2.1,1,3.1L189.1,244
		c-0.5,0.4-0.7,1.1-0.6,1.8l7.7,30.4c0.4,1.5-1.3,2.7-2.6,1.9L167,261.3c-0.6-0.4-1.3-0.4-1.9,0L138.6,278c-1.3,0.8-3-0.4-2.6-1.9
		l7.7-30.4c0.2-0.6-0.1-1.3-0.6-1.8l-24.1-20c-1.2-1-0.6-3,1-3.1l31.3-2.1c0.7,0,1.2-0.5,1.5-1.1l11.7-29.1
		C165,187,167.1,187,167.7,188.5z"/>
	<path class="st0" d="M278.6,188.5l11.7,29.1c0.2,0.6,0.8,1,1.5,1.1l31.3,2.1c1.6,0.1,2.2,2.1,1,3.1L299.9,244
		c-0.5,0.4-0.7,1.1-0.6,1.8l7.7,30.4c0.4,1.5-1.3,2.7-2.6,1.9l-26.6-16.7c-0.6-0.4-1.3-0.4-1.9,0L249.5,278c-1.3,0.8-3-0.4-2.6-1.9
		l7.7-30.4c0.2-0.6-0.1-1.3-0.6-1.8l-24.1-20.1c-1.2-1-0.6-3,1-3.1l31.3-2.1c0.7,0,1.2-0.5,1.5-1.1l11.7-29.1
		C275.9,187,278,187,278.6,188.5z"/>
	<path class="st0" d="M389.4,188.5l11.7,29.1c0.2,0.6,0.8,1,1.5,1.1l31.3,2.1c1.6,0.1,2.2,2.1,1,3.1L410.8,244
		c-0.5,0.4-0.7,1.1-0.6,1.8l7.7,30.4c0.4,1.5-1.3,2.7-2.6,1.9l-26.6-16.7c-0.6-0.4-1.3-0.4-1.9,0L360.3,278c-1.3,0.8-3-0.4-2.6-1.9
		l7.7-30.4c0.2-0.6-0.1-1.3-0.6-1.8l-24.1-20.1c-1.2-1-0.6-3,1-3.1l31.3-2.1c0.7,0,1.2-0.5,1.5-1.1l11.7-29.1
		C386.8,187,388.8,187,389.4,188.5z"/>
	<g>
		<path class="st1" d="M528.7,276.1l-1.6-6.3v8.5C528.2,278.2,529,277.3,528.7,276.1z"/>
		<path class="st2" d="M521.7,244l5.5-4.6v-19.8l-13.7-0.9c-0.7,0-1.2-0.5-1.5-1.1l-11.7-29.1c-0.6-1.5-2.6-1.5-3.2,0l-11.7,29.1
			c-0.2,0.6-0.8,1-1.5,1.1l-31.3,2.1c-1.6,0.1-2.2,2.1-1,3.1l24,20.1c0.5,0.4,0.7,1.1,0.6,1.8l-7.7,30.4c-0.4,1.5,1.3,2.7,2.6,1.9
			l26.6-16.7c0.6-0.4,1.3-0.4,1.9,0l26.5,16.6c0.3,0.2,0.7,0.3,1,0.3l1.7-0.9l-7.8-31.7C520.9,245.1,521.1,244.4,521.7,244z"/>
		<path class="st1" d="M500.3,188.5l11.7,29.1c0.2,0.6,0.8,1,1.5,1.1l31.3,2.1c1.6,0.1,2.2,2.1,1,3.1L521.7,244
			c-0.5,0.4-0.7,1.1-0.6,1.8l7.7,30.4c0.4,1.5-1.3,2.7-2.6,1.9l-26.6-16.7c-0.6-0.4-1.3-0.4-1.9,0L471.2,278c-1.3,0.8-3-0.4-2.6-1.9
			l7.7-30.4c0.2-0.6-0.1-1.3-0.6-1.8l-24.1-20.1c-1.2-1-0.6-3,1-3.1l31.3-2.1c0.7,0,1.2-0.5,1.5-1.1l11.6-29
			C497.6,187,499.7,187,500.3,188.5z"/>
	</g>
</g>
<g>
	<g>
		<path class="st3" d="M342.8,132.8c-31.9,23.6-78.3,36.1-118.2,36.1c-55.9,0-106.2-20.7-144.3-55.1c-3-2.7-0.3-6.4,3.3-4.3
			c41.1,23.9,91.9,38.3,144.4,38.3c35.4,0,74.3-7.3,110.2-22.5C343.5,123,348.1,128.9,342.8,132.8z"/>
		<path class="st3" d="M356.1,117.6c-4.1-5.2-27-2.5-37.3-1.2c-3.1,0.4-3.6-2.4-0.8-4.3c18.3-12.8,48.3-9.1,51.7-4.8
			c3.5,4.3-0.9,34.4-18.1,48.7c-2.6,2.2-5.1,1-4-1.9C351.5,144.4,360.2,122.8,356.1,117.6z"/>
	</g>
	<g>
		<path class="st4" d="M319.5,21.3V8.8c0-1.9,1.4-3.2,3.2-3.2h55.9c1.8,0,3.2,1.3,3.2,3.1v10.7c0,1.8-1.5,4.1-4.2,7.9l-29,41.4
			c10.8-0.3,22.1,1.4,31.9,6.9c2.2,1.2,2.8,3.1,3,4.9v13.3c0,1.8-2,4-4.1,2.9c-17.2-9-40.1-10-59.1,0.1c-1.9,1-4-1.1-4-2.9V81.2
			c0-2,0-5.5,2.1-8.6L352,24.4h-29.2C320.9,24.4,319.5,23.2,319.5,21.3z"/>
		<path class="st4" d="M115.3,99.2h-17c-1.6-0.1-2.9-1.3-3-2.9V9c0-1.7,1.5-3.1,3.3-3.1h15.8c1.7,0.1,3,1.3,3.1,2.9v11.4h0.3
			C122,9.2,129.8,4,140.2,4c10.6,0,17.3,5.1,22.1,16.2C166.4,9.2,175.8,4,185.8,4c7.1,0,14.9,2.9,19.7,9.6c5.4,7.4,4.3,18,4.3,27.4
			v55.1c0,1.7-1.5,3.1-3.3,3.1h-17c-1.7-0.1-3.1-1.5-3.1-3.1V49.8c0-3.7,0.3-12.9-0.5-16.4c-1.3-5.9-5.1-7.5-10-7.5
			c-4.1,0-8.4,2.8-10.2,7.2c-1.7,4.4-1.6,11.8-1.6,16.7v46.3c0,1.7-1.5,3.1-3.3,3.1h-17c-1.7-0.1-3.1-1.5-3.1-3.1V49.8
			c0-9.7,1.6-24.1-10.5-24.1c-12.2,0-11.8,14-11.8,24.1v46.3C118.6,97.8,117.2,99.2,115.3,99.2z"/>
		<path class="st4" d="M430,4c25.3,0,38.9,21.7,38.9,49.3c0,26.6-15.1,47.8-38.9,47.8c-24.8,0-38.3-21.7-38.3-48.7
			C391.7,25.2,405.4,4,430,4z M430.1,21.9c-12.5,0-13.3,17.1-13.3,27.8s-0.2,33.5,13.2,33.5c13.2,0,13.8-18.4,13.8-29.6
			c0-7.4-0.3-16.2-2.5-23.2C439.4,24.3,435.5,21.9,430.1,21.9z"/>
		<path class="st4" d="M501.7,99.2h-17c-1.7-0.1-3.1-1.5-3.1-3.1V8.7c0.1-1.6,1.6-2.9,3.3-2.9h15.8c1.5,0.1,2.7,1.1,3,2.4v13.4h0.3
			C508.8,9.6,515.4,4,527.2,4c7.6,0,15.1,2.8,19.9,10.3c4.4,7,4.4,18.7,4.4,27.2v55c-0.2,1.5-1.6,2.7-3.3,2.7h-17.1
			c-1.6-0.1-2.8-1.3-3-2.7V49.1c0-9.6,1.1-23.5-10.6-23.5c-4.1,0-7.9,2.8-9.9,7c-2.4,5.3-2.7,10.7-2.7,16.5v47
			C504.9,97.8,503.5,99.2,501.7,99.2z"/>
		<path class="st4" d="M274.9,57.5c0,6.6,0.2,12.2-3.2,18.1c-2.7,4.8-7,7.7-11.8,7.7c-6.5,0-10.3-5-10.3-12.3
			c0-14.5,13-17.1,25.3-17.1V57.5z M292.1,99c-1.1,1-2.7,1.1-4,0.4c-5.7-4.7-6.7-6.9-9.8-11.3c-9.3,9.5-16,12.4-28.1,12.4
			c-14.3,0-25.5-8.8-25.5-26.5c0-13.8,7.5-23.2,18.1-27.8c9.2-4.1,22.1-4.8,32-5.9v-2.2c0-4.1,0.3-8.8-2.1-12.3
			c-2.1-3.1-6-4.4-9.6-4.4c-6.5,0-12.3,3.3-13.7,10.2c-0.3,1.5-1.4,3.1-3,3.1l-16.2-1.9c-1.4-0.3-2.9-1.4-2.5-3.6
			c3.8-20,21.9-26.1,38.1-26.1c8.3,0,19.1,2.2,25.6,8.5c8.3,7.7,7.5,18.1,7.5,29.3v26.5c0,8,3.3,11.5,6.4,15.8
			c1.1,1.6,1.3,3.4-0.1,4.5C301.7,90.7,295.5,96,292.1,99L292.1,99z"/>
		<path class="st4" d="M51.8,57.5c0,6.6,0.2,12.2-3.2,18.1c-2.7,4.8-7,7.7-11.8,7.7c-6.5,0-10.3-5-10.3-12.3
			c0-14.5,13-17.1,25.3-17.1V57.5z M68.9,99c-1.1,1-2.8,1.1-4,0.4c-5.7-4.7-6.7-6.9-9.8-11.3c-9.3,9.5-16,12.4-28.1,12.4
			c-14.3,0-25.5-8.8-25.5-26.5c0-13.8,7.5-23.2,18.1-27.8c9.2-4.1,22.1-4.8,32-5.9v-2.2c0-4.1,0.3-8.8-2.1-12.3
			c-2.1-3.1-6.1-4.4-9.6-4.4c-6.5,0-12.3,3.3-13.7,10.2c-0.3,1.5-1.4,3.1-3,3.1L7,32.8c-1.4-0.3-2.9-1.4-2.5-3.6
			c3.7-20,21.8-26,38-26c8.3,0,19.1,2.2,25.6,8.5c8.3,7.7,7.5,18.1,7.5,29.3v26.5c0,8,3.3,11.5,6.4,15.8c1.1,1.6,1.3,3.4-0.1,4.5
			C78.5,90.7,72.3,96,68.9,99L68.9,99z"/>
	</g>
</g>
</svg>
