<?xml version="1.0" encoding="utf-8"?>
<!-- Generator: Adobe Illustrator 27.0.1, SVG Export Plug-In . SVG Version: 6.00 Build 0)  -->
<svg version="1.1" id="Layer_1" xmlns="http://www.w3.org/2000/svg" xmlns:xlink="http://www.w3.org/1999/xlink" x="0px" y="0px"
	 viewBox="0 0 53.4 186.7" style="enable-background:new 0 0 53.4 186.7;" xml:space="preserve">
<style type="text/css">
	.st0{clip-path:url(#SVGID_00000105401288684902652150000015865811116354040964_);}
	.st1{fill:#FFC000;stroke:#FFC000;stroke-width:0.5;}
</style>
<g id="Group_584" transform="translate(0 0)">
	<g>
		<g>
			<defs>
				<rect id="SVGID_1_" x="0" y="0" width="53.4" height="186.7"/>
			</defs>
			<clipPath id="SVGID_00000036212868779738820080000011154103631355951795_">
				<use xlink:href="#SVGID_1_"  style="overflow:visible;"/>
			</clipPath>
			<g id="Group_583" style="clip-path:url(#SVGID_00000036212868779738820080000011154103631355951795_);">
				<path id="Path_12164" class="st1" d="M1.1,184.6c0.6,0,1.1,0.5,1.1,1.1s-0.5,1.1-1.1,1.1S0,186.3,0,185.7l0,0
					C0,185.1,0.5,184.6,1.1,184.6L1.1,184.6"/>
				<path id="Path_12165" class="st1" d="M1.1,171.4c0.6,0,1.1,0.5,1.1,1.1c0,0.6-0.5,1.1-1.1,1.1S0,173.1,0,172.5l0,0
					C0,171.9,0.5,171.4,1.1,171.4"/>
				<path id="Path_12166" class="st1" d="M1.1,158.2c0.6,0,1.1,0.5,1.1,1.1c0,0.6-0.5,1.1-1.1,1.1S0,159.9,0,159.3l0,0
					C0,158.7,0.5,158.2,1.1,158.2"/>
				<path id="Path_12167" class="st1" d="M1.1,145c0.6,0,1.1,0.5,1.1,1.1c0,0.6-0.5,1.1-1.1,1.1S0,146.7,0,146.1
					C0,145.5,0.5,145,1.1,145"/>
				<path id="Path_12168" class="st1" d="M1.1,131.9c0.6,0,1.1,0.5,1.1,1.1c0,0.6-0.5,1.1-1.1,1.1S0,133.6,0,133
					C0,132.3,0.5,131.9,1.1,131.9"/>
				<path id="Path_12169" class="st1" d="M1.1,118.7c0.6,0,1.1,0.5,1.1,1.1s-0.5,1.1-1.1,1.1S0,120.4,0,119.8l0,0
					C0,119.2,0.5,118.7,1.1,118.7"/>
				<path id="Path_12170" class="st1" d="M1.1,105.5c0.6,0,1.1,0.5,1.1,1.1c0,0.6-0.5,1.1-1.1,1.1S0,107.2,0,106.6l0,0
					C0,106,0.5,105.5,1.1,105.5"/>
				<path id="Path_12171" class="st1" d="M1.1,92.3c0.6,0,1.1,0.5,1.1,1.1s-0.5,1.1-1.1,1.1S0,94,0,93.4l0,0
					C0,92.8,0.5,92.3,1.1,92.3"/>
				<path id="Path_12172" class="st1" d="M1.1,79.1c0.6,0,1.1,0.5,1.1,1.1c0,0.6-0.5,1.1-1.1,1.1S0,80.8,0,80.2l0,0
					C0,79.6,0.5,79.1,1.1,79.1"/>
				<path id="Path_12173" class="st1" d="M1.1,66c0.6,0,1.1,0.5,1.1,1.1s-0.5,1.1-1.1,1.1S0,67.7,0,67.1l0,0C0,66.4,0.5,66,1.1,66"
					/>
				<path id="Path_12174" class="st1" d="M1.1,52.8c0.6,0,1.1,0.5,1.1,1.1c0,0.6-0.5,1.1-1.1,1.1S0,54.5,0,53.9l0,0
					C0,53.3,0.5,52.8,1.1,52.8"/>
				<path id="Path_12175" class="st1" d="M1.1,39.6c0.6,0,1.1,0.5,1.1,1.1c0,0.6-0.5,1.1-1.1,1.1S0,41.3,0,40.7l0,0
					C0,40.1,0.5,39.6,1.1,39.6"/>
				<path id="Path_12176" class="st1" d="M1.1,26.4c0.6,0,1.1,0.5,1.1,1.1c0,0.6-0.5,1.1-1.1,1.1S0,28.1,0,27.5l0,0
					C0,26.9,0.5,26.4,1.1,26.4"/>
				<path id="Path_12177" class="st1" d="M1.1,13.2c0.6,0,1.1,0.5,1.1,1.1c0,0.6-0.5,1.1-1.1,1.1S0,14.9,0,14.3l0,0
					C0,13.7,0.5,13.2,1.1,13.2"/>
				<path id="Path_12178" class="st1" d="M1.1,0.1c0.6,0,1.1,0.5,1.1,1.1c0,0.6-0.5,1.1-1.1,1.1S0,1.8,0,1.2l0,0
					C0,0.5,0.5,0.1,1.1,0.1"/>
				<path id="Path_12179" class="st1" d="M13.9,184.6c0.6,0,1.1,0.5,1.1,1.1c0,0.6-0.5,1.1-1.1,1.1s-1.1-0.5-1.1-1.1l0,0
					C12.8,185.1,13.3,184.6,13.9,184.6"/>
				<path id="Path_12180" class="st1" d="M13.9,171.4c0.6,0,1.1,0.5,1.1,1.1c0,0.6-0.5,1.1-1.1,1.1s-1.1-0.5-1.1-1.1l0,0
					C12.8,171.9,13.3,171.4,13.9,171.4"/>
				<path id="Path_12181" class="st1" d="M13.9,158.2c0.6,0,1.1,0.5,1.1,1.1s-0.5,1.1-1.1,1.1s-1.1-0.5-1.1-1.1l0,0
					C12.8,158.7,13.3,158.2,13.9,158.2"/>
				<path id="Path_12182" class="st1" d="M13.9,145c0.6,0,1.1,0.5,1.1,1.1c0,0.6-0.5,1.1-1.1,1.1s-1.1-0.5-1.1-1.1
					C12.8,145.5,13.3,145,13.9,145"/>
				<path id="Path_12183" class="st1" d="M13.9,131.9c0.6,0,1.1,0.5,1.1,1.1c0,0.6-0.5,1.1-1.1,1.1c-0.6,0-1.1-0.5-1.1-1.1
					C12.8,132.3,13.3,131.9,13.9,131.9"/>
				<path id="Path_12184" class="st1" d="M13.9,118.7c0.6,0,1.1,0.5,1.1,1.1c-0.1,0.5-0.5,1-1.1,1s-1.1-0.5-1.1-1.1l0,0
					C12.8,119.2,13.3,118.7,13.9,118.7"/>
				<path id="Path_12185" class="st1" d="M13.9,105.5c0.6,0,1.1,0.5,1.1,1.1s-0.5,1.1-1.1,1.1s-1.1-0.5-1.1-1.1l0,0
					C12.8,106,13.3,105.5,13.9,105.5"/>
				<path id="Path_12186" class="st1" d="M13.9,92.3c0.6,0,1.1,0.5,1.1,1.1s-0.5,1.1-1.1,1.1c-0.6,0-1.1-0.5-1.1-1.1l0,0
					C12.8,92.8,13.3,92.3,13.9,92.3"/>
				<path id="Path_12187" class="st1" d="M13.9,79.1c0.6,0,1.1,0.5,1.1,1.1c0,0.6-0.5,1.1-1.1,1.1s-1.1-0.5-1.1-1.1l0,0
					C12.8,79.6,13.3,79.1,13.9,79.1"/>
				<path id="Path_12188" class="st1" d="M13.9,66c0.6,0,1.1,0.5,1.1,1.1s-0.5,1.1-1.1,1.1s-1.1-0.5-1.1-1.1l0,0
					C12.8,66.4,13.3,66,13.9,66"/>
				<path id="Path_12189" class="st1" d="M13.9,52.8c0.6,0,1.1,0.5,1.1,1.1S14.5,55,13.9,55s-1.1-0.5-1.1-1.1l0,0
					C12.8,53.3,13.3,52.8,13.9,52.8"/>
				<path id="Path_12190" class="st1" d="M13.9,39.6c0.6,0,1.1,0.5,1.1,1.1c0,0.6-0.5,1.1-1.1,1.1s-1.1-0.5-1.1-1.1l0,0
					C12.8,40.1,13.3,39.6,13.9,39.6"/>
				<path id="Path_12191" class="st1" d="M13.9,26.4c0.6,0,1.1,0.5,1.1,1.1s-0.5,1.1-1.1,1.1c-0.6,0-1.1-0.5-1.1-1.1l0,0
					C12.8,26.9,13.3,26.4,13.9,26.4"/>
				<path id="Path_12192" class="st1" d="M13.9,13.2c0.6,0,1.1,0.5,1.1,1.1c0,0.6-0.5,1.1-1.1,1.1c-0.6,0-1.1-0.5-1.1-1.1l0,0
					C12.8,13.7,13.3,13.2,13.9,13.2"/>
				<path id="Path_12193" class="st1" d="M13.9,0.1c0.6,0,1.1,0.5,1.1,1.1s-0.5,1.1-1.1,1.1c-0.6,0-1.1-0.5-1.1-1.1l0,0
					C12.8,0.5,13.3,0.1,13.9,0.1"/>
				<path id="Path_12194" class="st1" d="M26.7,184.6c0.6,0,1.1,0.5,1.1,1.1c0,0.6-0.5,1.1-1.1,1.1s-1.1-0.5-1.1-1.1l0,0
					C25.6,185.1,26.1,184.6,26.7,184.6"/>
				<path id="Path_12195" class="st1" d="M26.7,171.4c0.6,0,1.1,0.5,1.1,1.1c0,0.6-0.5,1.1-1.1,1.1s-1.1-0.5-1.1-1.1l0,0
					C25.6,171.9,26.1,171.4,26.7,171.4"/>
				<path id="Path_12196" class="st1" d="M26.7,158.2c0.6,0,1.1,0.5,1.1,1.1c0,0.6-0.5,1.1-1.1,1.1s-1.1-0.5-1.1-1.1l0,0
					C25.6,158.7,26.1,158.2,26.7,158.2"/>
				<path id="Path_12197" class="st1" d="M26.7,145c0.6,0,1.1,0.5,1.1,1.1c0,0.6-0.5,1.1-1.1,1.1s-1.1-0.5-1.1-1.1
					C25.6,145.5,26.1,145,26.7,145L26.7,145"/>
				<path id="Path_12198" class="st1" d="M26.7,131.9c0.6,0,1.1,0.5,1.1,1.1c0,0.6-0.5,1.1-1.1,1.1s-1.1-0.5-1.1-1.1
					C25.6,132.4,26.1,131.9,26.7,131.9L26.7,131.9"/>
				<path id="Path_12199" class="st1" d="M26.7,118.7c0.6,0,1.1,0.5,1.1,1.1s-0.5,1.1-1.1,1.1c-0.6,0-1.1-0.5-1.1-1.1l0,0
					C25.6,119.2,26.1,118.7,26.7,118.7"/>
				<path id="Path_12200" class="st1" d="M26.7,105.5c0.6,0,1.1,0.5,1.1,1.1s-0.5,1.1-1.1,1.1s-1.1-0.5-1.1-1.1l0,0
					C25.6,106,26.1,105.5,26.7,105.5"/>
				<path id="Path_12201" class="st1" d="M26.7,92.3c0.6,0,1.1,0.5,1.1,1.1s-0.5,1.1-1.1,1.1s-1.1-0.5-1.1-1.1l0,0
					C25.6,92.8,26.1,92.3,26.7,92.3"/>
				<path id="Path_12202" class="st1" d="M26.7,79.1c0.6,0,1.1,0.5,1.1,1.1s-0.5,1.1-1.1,1.1s-1.1-0.5-1.1-1.1l0,0
					C25.6,79.6,26.1,79.1,26.7,79.1"/>
				<path id="Path_12203" class="st1" d="M26.7,66c0.6,0,1.1,0.5,1.1,1.1s-0.5,1.1-1.1,1.1s-1.1-0.5-1.1-1.1l0,0
					C25.6,66.4,26.1,66,26.7,66"/>
				<path id="Path_12204" class="st1" d="M26.7,52.8c0.6,0,1.1,0.5,1.1,1.1S27.3,55,26.7,55c-0.6,0-1.1-0.5-1.1-1.1l0,0
					C25.6,53.3,26.1,52.8,26.7,52.8"/>
				<path id="Path_12205" class="st1" d="M26.7,39.6c0.6,0,1.1,0.5,1.1,1.1c0,0.6-0.5,1.1-1.1,1.1s-1.1-0.5-1.1-1.1l0,0
					C25.6,40.1,26.1,39.6,26.7,39.6"/>
				<path id="Path_12206" class="st1" d="M26.7,26.4c0.6,0,1.1,0.5,1.1,1.1s-0.5,1.1-1.1,1.1c-0.6,0-1.1-0.5-1.1-1.1l0,0
					C25.6,26.9,26.1,26.4,26.7,26.4"/>
				<path id="Path_12207" class="st1" d="M26.7,13.2c0.6,0,1.1,0.5,1.1,1.1s-0.5,1.1-1.1,1.1c-0.6,0-1.1-0.5-1.1-1.1l0,0
					C25.6,13.7,26.1,13.2,26.7,13.2"/>
				<path id="Path_12208" class="st1" d="M26.7,0.1c0.6,0,1.1,0.5,1.1,1.1c0,0.6-0.5,1.1-1.1,1.1c-0.6,0-1.1-0.5-1.1-1.1l0,0
					C25.6,0.5,26.1,0.1,26.7,0.1"/>
				<path id="Path_12209" class="st1" d="M39.5,184.6c0.6,0,1.1,0.5,1.1,1.1c0,0.6-0.5,1.1-1.1,1.1s-1.1-0.5-1.1-1.1l0,0
					C38.4,185.1,38.9,184.6,39.5,184.6"/>
				<path id="Path_12210" class="st1" d="M39.5,171.4c0.6,0,1.1,0.5,1.1,1.1c0,0.6-0.5,1.1-1.1,1.1s-1.1-0.5-1.1-1.1
					C38.4,171.9,38.9,171.4,39.5,171.4"/>
				<path id="Path_12211" class="st1" d="M39.5,158.2c0.6,0,1.1,0.5,1.1,1.1c0,0.6-0.5,1.1-1.1,1.1s-1.1-0.5-1.1-1.1
					C38.4,158.7,38.9,158.2,39.5,158.2"/>
				<path id="Path_12212" class="st1" d="M39.5,145c0.6,0,1.1,0.5,1.1,1.1c0,0.6-0.5,1.1-1.1,1.1s-1.1-0.5-1.1-1.1
					C38.4,145.5,38.9,145,39.5,145"/>
				<path id="Path_12213" class="st1" d="M39.5,131.9c0.6,0,1.1,0.5,1.1,1.1c0,0.6-0.5,1.1-1.1,1.1s-1.1-0.5-1.1-1.1
					C38.4,132.4,38.9,131.9,39.5,131.9"/>
				<path id="Path_12214" class="st1" d="M39.5,118.7c0.6,0,1.1,0.5,1.1,1.1s-0.5,1.1-1.1,1.1s-1.1-0.5-1.1-1.1l0,0
					C38.4,119.2,38.9,118.7,39.5,118.7"/>
				<path id="Path_12215" class="st1" d="M39.5,105.5c0.6,0,1.1,0.5,1.1,1.1s-0.5,1.1-1.1,1.1s-1.1-0.5-1.1-1.1l0,0
					C38.4,106,38.9,105.5,39.5,105.5"/>
				<path id="Path_12216" class="st1" d="M39.5,92.3c0.6,0,1.1,0.5,1.1,1.1s-0.5,1.1-1.1,1.1s-1.1-0.5-1.1-1.1l0,0
					C38.4,92.8,38.9,92.3,39.5,92.3"/>
				<path id="Path_12217" class="st1" d="M39.5,79.1c0.6,0,1.1,0.5,1.1,1.1s-0.5,1.1-1.1,1.1s-1.1-0.5-1.1-1.1l0,0
					C38.4,79.6,38.9,79.1,39.5,79.1"/>
				<path id="Path_12218" class="st1" d="M39.5,66c0.6,0,1.1,0.5,1.1,1.1s-0.5,1.1-1.1,1.1s-1.1-0.5-1.1-1.1l0,0
					C38.4,66.4,38.9,66,39.5,66"/>
				<path id="Path_12219" class="st1" d="M39.5,52.8c0.6,0,1.1,0.5,1.1,1.1S40.1,55,39.5,55c-0.6,0-1.1-0.5-1.1-1.1l0,0
					C38.4,53.3,38.9,52.8,39.5,52.8"/>
				<path id="Path_12220" class="st1" d="M39.5,39.6c0.6,0,1.1,0.5,1.1,1.1s-0.5,1.1-1.1,1.1s-1.1-0.5-1.1-1.1l0,0
					C38.4,40.1,38.9,39.6,39.5,39.6"/>
				<path id="Path_12221" class="st1" d="M39.5,26.4c0.6,0,1.1,0.5,1.1,1.1s-0.5,1.1-1.1,1.1c-0.6,0-1.1-0.5-1.1-1.1l0,0
					C38.4,26.9,38.9,26.4,39.5,26.4"/>
				<path id="Path_12222" class="st1" d="M39.5,13.2c0.6,0,1.1,0.5,1.1,1.1c0,0.6-0.5,1.1-1.1,1.1s-1.1-0.5-1.1-1.1l0,0
					C38.4,13.7,38.9,13.2,39.5,13.2"/>
				<path id="Path_12223" class="st1" d="M39.5,0.1c0.6,0,1.1,0.5,1.1,1.1s-0.5,1.1-1.1,1.1s-1.1-0.5-1.1-1.1l0,0
					C38.4,0.5,38.9,0.1,39.5,0.1"/>
				<path id="Path_12224" class="st1" d="M52.3,184.6c0.6,0,1.1,0.5,1.1,1.1s-0.5,1.1-1.1,1.1s-1.1-0.5-1.1-1.1l0,0
					C51.2,185.1,51.7,184.6,52.3,184.6L52.3,184.6"/>
				<path id="Path_12225" class="st1" d="M52.3,171.4c0.6,0,1.1,0.5,1.1,1.1s-0.5,1.1-1.1,1.1s-1.1-0.5-1.1-1.1l0,0
					C51.2,171.9,51.7,171.4,52.3,171.4"/>
				<path id="Path_12226" class="st1" d="M52.3,158.2c0.6,0,1.1,0.5,1.1,1.1c0,0.6-0.5,1.1-1.1,1.1s-1.1-0.5-1.1-1.1l0,0
					C51.2,158.7,51.7,158.2,52.3,158.2"/>
				<path id="Path_12227" class="st1" d="M52.3,145c0.6,0,1.1,0.5,1.1,1.1c0,0.6-0.5,1.1-1.1,1.1c-0.6,0-1.1-0.5-1.1-1.1l0,0
					C51.2,145.5,51.7,145,52.3,145"/>
				<path id="Path_12228" class="st1" d="M52.3,131.9c0.6,0,1.1,0.5,1.1,1.1c0,0.6-0.5,1.1-1.1,1.1s-1.1-0.5-1.1-1.1l0,0
					C51.2,132.3,51.7,131.9,52.3,131.9"/>
				<path id="Path_12229" class="st1" d="M52.3,118.7c0.6,0,1.1,0.5,1.1,1.1s-0.5,1-1.1,1s-1.1-0.5-1.1-1.1l0,0
					C51.2,119.2,51.7,118.7,52.3,118.7"/>
				<path id="Path_12230" class="st1" d="M52.3,105.5c0.6,0,1.1,0.5,1.1,1.1s-0.5,1.1-1.1,1.1c-0.6,0-1.1-0.5-1.1-1.1l0,0
					C51.2,106,51.7,105.5,52.3,105.5"/>
				<path id="Path_12231" class="st1" d="M52.3,92.3c0.6,0,1.1,0.5,1.1,1.1s-0.5,1.1-1.1,1.1s-1.1-0.5-1.1-1.1l0,0
					C51.2,92.8,51.7,92.3,52.3,92.3"/>
				<path id="Path_12232" class="st1" d="M52.3,79.1c0.6,0,1.1,0.5,1.1,1.1s-0.5,1.1-1.1,1.1s-1.1-0.5-1.1-1.1l0,0
					C51.2,79.6,51.7,79.1,52.3,79.1"/>
				<path id="Path_12233" class="st1" d="M52.3,66c0.6,0,1.1,0.5,1.1,1.1s-0.5,1.1-1.1,1.1s-1.1-0.5-1.1-1.1l0,0
					C51.2,66.4,51.7,66,52.3,66"/>
				<path id="Path_12234" class="st1" d="M52.3,52.8c0.6,0,1.1,0.5,1.1,1.1c0,0.6-0.5,1.1-1.1,1.1s-1.1-0.5-1.1-1.1l0,0
					C51.2,53.3,51.7,52.8,52.3,52.8"/>
				<path id="Path_12235" class="st1" d="M52.3,39.6c0.6,0,1.1,0.5,1.1,1.1s-0.5,1.1-1.1,1.1s-1.1-0.5-1.1-1.1l0,0
					C51.2,40.1,51.7,39.6,52.3,39.6"/>
				<path id="Path_12236" class="st1" d="M52.3,26.4c0.6,0,1.1,0.5,1.1,1.1s-0.5,1.1-1.1,1.1s-1.1-0.5-1.1-1.1l0,0
					C51.2,26.9,51.7,26.4,52.3,26.4"/>
				<path id="Path_12237" class="st1" d="M52.3,13.2c0.6,0,1.1,0.5,1.1,1.1c0,0.6-0.5,1.1-1.1,1.1s-1.1-0.5-1.1-1.1l0,0
					C51.2,13.7,51.7,13.2,52.3,13.2"/>
				<path id="Path_12238" class="st1" d="M52.3,0.1c0.6,0,1.1,0.5,1.1,1.1s-0.5,1.1-1.1,1.1c-0.6,0-1.1-0.5-1.1-1.1l0,0
					C51.2,0.5,51.7,0.1,52.3,0.1"/>
			</g>
		</g>
	</g>
</g>
</svg>
