<?xml version="1.0" encoding="utf-8"?>
<!-- Generator: Adobe Illustrator 27.0.1, SVG Export Plug-In . SVG Version: 6.00 Build 0)  -->
<svg version="1.1" id="Layer_1" xmlns="http://www.w3.org/2000/svg" xmlns:xlink="http://www.w3.org/1999/xlink" x="0px" y="0px"
	 viewBox="0 0 189.2 56.6" style="enable-background:new 0 0 189.2 56.6;" xml:space="preserve">
<style type="text/css">
	.st0{clip-path:url(#SVGID_00000046334657508673974430000003117029945718760323_);}
	.st1{fill:#FFC000;stroke:#FFC000;stroke-width:0.5;}
</style>
<g id="Group_584" transform="translate(0 0)">
	<g>
		<defs>
			<rect id="SVGID_1_" x="1.1" y="1.1" width="186.7" height="53.4"/>
		</defs>
		<clipPath id="SVGID_00000018921473999746912200000013651200858895332511_">
			<use xlink:href="#SVGID_1_"  style="overflow:visible;"/>
		</clipPath>
		<g id="Group_583" style="clip-path:url(#SVGID_00000018921473999746912200000013651200858895332511_);">
			<path id="Path_12164" class="st1" d="M3.2,2.2c0,0.6-0.5,1.1-1.1,1.1c-0.6,0-1.1-0.5-1.1-1.1s0.5-1.1,1.1-1.1c0,0,0,0,0,0
				C2.7,1.1,3.2,1.6,3.2,2.2L3.2,2.2"/>
			<path id="Path_12165" class="st1" d="M16.4,2.2c0,0.6-0.5,1.1-1.1,1.1s-1.1-0.5-1.1-1.1s0.5-1.1,1.1-1.1c0,0,0,0,0,0
				C15.9,1.1,16.4,1.6,16.4,2.2"/>
			<path id="Path_12166" class="st1" d="M29.6,2.2c0,0.6-0.5,1.1-1.1,1.1s-1.1-0.5-1.1-1.1s0.5-1.1,1.1-1.1c0,0,0,0,0,0
				C29.1,1.1,29.6,1.6,29.6,2.2"/>
			<path id="Path_12167" class="st1" d="M42.8,2.2c0,0.6-0.5,1.1-1.1,1.1c-0.6,0-1.1-0.5-1.1-1.1c0-0.6,0.5-1.1,1.1-1.1
				C42.3,1.1,42.8,1.6,42.8,2.2"/>
			<path id="Path_12168" class="st1" d="M55.9,2.2c0,0.6-0.5,1.1-1.1,1.1c-0.6,0-1.1-0.5-1.1-1.1c0-0.6,0.5-1.1,1.1-1.1
				C55.5,1.1,55.9,1.6,55.9,2.2"/>
			<path id="Path_12169" class="st1" d="M69.1,2.2c0,0.6-0.5,1.1-1.1,1.1c-0.6,0-1.1-0.5-1.1-1.1s0.5-1.1,1.1-1.1c0,0,0,0,0,0
				C68.6,1.1,69.1,1.6,69.1,2.2"/>
			<path id="Path_12170" class="st1" d="M82.3,2.2c0,0.6-0.5,1.1-1.1,1.1c-0.6,0-1.1-0.5-1.1-1.1s0.5-1.1,1.1-1.1c0,0,0,0,0,0
				C81.8,1.1,82.3,1.6,82.3,2.2"/>
			<path id="Path_12171" class="st1" d="M95.5,2.2c0,0.6-0.5,1.1-1.1,1.1c-0.6,0-1.1-0.5-1.1-1.1s0.5-1.1,1.1-1.1c0,0,0,0,0,0
				C95,1.1,95.5,1.6,95.5,2.2"/>
			<path id="Path_12172" class="st1" d="M108.7,2.2c0,0.6-0.5,1.1-1.1,1.1c-0.6,0-1.1-0.5-1.1-1.1s0.5-1.1,1.1-1.1c0,0,0,0,0,0
				C108.2,1.1,108.7,1.6,108.7,2.2"/>
			<path id="Path_12173" class="st1" d="M121.8,2.2c0,0.6-0.5,1.1-1.1,1.1c-0.6,0-1.1-0.5-1.1-1.1s0.5-1.1,1.1-1.1c0,0,0,0,0,0
				C121.4,1.1,121.8,1.6,121.8,2.2"/>
			<path id="Path_12174" class="st1" d="M135,2.2c0,0.6-0.5,1.1-1.1,1.1c-0.6,0-1.1-0.5-1.1-1.1s0.5-1.1,1.1-1.1c0,0,0,0,0,0
				C134.5,1.1,135,1.6,135,2.2"/>
			<path id="Path_12175" class="st1" d="M148.2,2.2c0,0.6-0.5,1.1-1.1,1.1c-0.6,0-1.1-0.5-1.1-1.1s0.5-1.1,1.1-1.1c0,0,0,0,0,0
				C147.7,1.1,148.2,1.6,148.2,2.2"/>
			<path id="Path_12176" class="st1" d="M161.4,2.2c0,0.6-0.5,1.1-1.1,1.1c-0.6,0-1.1-0.5-1.1-1.1s0.5-1.1,1.1-1.1c0,0,0,0,0,0
				C160.9,1.1,161.4,1.6,161.4,2.2"/>
			<path id="Path_12177" class="st1" d="M174.6,2.2c0,0.6-0.5,1.1-1.1,1.1c-0.6,0-1.1-0.5-1.1-1.1s0.5-1.1,1.1-1.1c0,0,0,0,0,0
				C174.1,1.1,174.6,1.6,174.6,2.2"/>
			<path id="Path_12178" class="st1" d="M187.7,2.2c0,0.6-0.5,1.1-1.1,1.1c-0.6,0-1.1-0.5-1.1-1.1s0.5-1.1,1.1-1.1c0,0,0,0,0,0
				C187.3,1.1,187.7,1.6,187.7,2.2"/>
			<path id="Path_12179" class="st1" d="M3.2,15c0,0.6-0.5,1.1-1.1,1.1c-0.6,0-1.1-0.5-1.1-1.1c0-0.6,0.5-1.1,1.1-1.1c0,0,0,0,0,0
				C2.7,13.9,3.2,14.4,3.2,15"/>
			<path id="Path_12180" class="st1" d="M16.4,15c0,0.6-0.5,1.1-1.1,1.1s-1.1-0.5-1.1-1.1s0.5-1.1,1.1-1.1l0,0
				C15.9,13.9,16.4,14.4,16.4,15"/>
			<path id="Path_12181" class="st1" d="M29.6,15c0,0.6-0.5,1.1-1.1,1.1s-1.1-0.5-1.1-1.1s0.5-1.1,1.1-1.1l0,0
				C29.1,13.9,29.6,14.4,29.6,15"/>
			<path id="Path_12182" class="st1" d="M42.8,15c0,0.6-0.5,1.1-1.1,1.1c-0.6,0-1.1-0.5-1.1-1.1c0-0.6,0.5-1.1,1.1-1.1
				C42.3,13.9,42.8,14.4,42.8,15"/>
			<path id="Path_12183" class="st1" d="M55.9,15c0,0.6-0.5,1.1-1.1,1.1c-0.6,0-1.1-0.5-1.1-1.1c0-0.6,0.5-1.1,1.1-1.1
				C55.5,13.9,55.9,14.4,55.9,15"/>
			<path id="Path_12184" class="st1" d="M69.1,15c0,0.6-0.5,1.1-1.1,1.1C67.5,16,67,15.6,67,15s0.5-1.1,1.1-1.1l0,0
				C68.6,13.9,69.1,14.4,69.1,15"/>
			<path id="Path_12185" class="st1" d="M82.3,15c0,0.6-0.5,1.1-1.1,1.1c-0.6,0-1.1-0.5-1.1-1.1s0.5-1.1,1.1-1.1l0,0
				C81.8,13.9,82.3,14.4,82.3,15"/>
			<path id="Path_12186" class="st1" d="M95.5,15c0,0.6-0.5,1.1-1.1,1.1c-0.6,0-1.1-0.5-1.1-1.1s0.5-1.1,1.1-1.1l0,0
				C95,13.9,95.5,14.4,95.5,15"/>
			<path id="Path_12187" class="st1" d="M108.7,15c0,0.6-0.5,1.1-1.1,1.1c-0.6,0-1.1-0.5-1.1-1.1s0.5-1.1,1.1-1.1l0,0
				C108.2,13.9,108.7,14.4,108.7,15"/>
			<path id="Path_12188" class="st1" d="M121.8,15c0,0.6-0.5,1.1-1.1,1.1c-0.6,0-1.1-0.5-1.1-1.1s0.5-1.1,1.1-1.1l0,0
				C121.4,13.9,121.8,14.4,121.8,15"/>
			<path id="Path_12189" class="st1" d="M135,15c0,0.6-0.5,1.1-1.1,1.1c-0.6,0-1.1-0.5-1.1-1.1c0-0.6,0.5-1.1,1.1-1.1c0,0,0,0,0,0
				C134.5,13.9,135,14.4,135,15"/>
			<path id="Path_12190" class="st1" d="M148.2,15c0,0.6-0.5,1.1-1.1,1.1c-0.6,0-1.1-0.5-1.1-1.1c0-0.6,0.5-1.1,1.1-1.1c0,0,0,0,0,0
				C147.7,13.9,148.2,14.4,148.2,15"/>
			<path id="Path_12191" class="st1" d="M161.4,15c0,0.6-0.5,1.1-1.1,1.1c-0.6,0-1.1-0.5-1.1-1.1c0-0.6,0.5-1.1,1.1-1.1c0,0,0,0,0,0
				C160.9,13.9,161.4,14.4,161.4,15"/>
			<path id="Path_12192" class="st1" d="M174.6,15c0,0.6-0.5,1.1-1.1,1.1c-0.6,0-1.1-0.5-1.1-1.1c0-0.6,0.5-1.1,1.1-1.1c0,0,0,0,0,0
				C174.1,13.9,174.6,14.4,174.6,15"/>
			<path id="Path_12193" class="st1" d="M187.7,15c0,0.6-0.5,1.1-1.1,1.1c-0.6,0-1.1-0.5-1.1-1.1c0-0.6,0.5-1.1,1.1-1.1c0,0,0,0,0,0
				C187.3,13.9,187.7,14.4,187.7,15"/>
			<path id="Path_12194" class="st1" d="M3.2,27.8c0,0.6-0.5,1.1-1.1,1.1c-0.6,0-1.1-0.5-1.1-1.1s0.5-1.1,1.1-1.1c0,0,0,0,0,0
				C2.7,26.7,3.2,27.2,3.2,27.8"/>
			<path id="Path_12195" class="st1" d="M16.4,27.8c0,0.6-0.5,1.1-1.1,1.1s-1.1-0.5-1.1-1.1s0.5-1.1,1.1-1.1l0,0
				C15.9,26.7,16.4,27.2,16.4,27.8"/>
			<path id="Path_12196" class="st1" d="M29.6,27.8c0,0.6-0.5,1.1-1.1,1.1s-1.1-0.5-1.1-1.1s0.5-1.1,1.1-1.1l0,0
				C29.1,26.7,29.6,27.2,29.6,27.8"/>
			<path id="Path_12197" class="st1" d="M42.8,27.8c0,0.6-0.5,1.1-1.1,1.1c-0.6,0-1.1-0.5-1.1-1.1c0-0.6,0.5-1.1,1.1-1.1
				S42.8,27.2,42.8,27.8L42.8,27.8"/>
			<path id="Path_12198" class="st1" d="M55.9,27.8c0,0.6-0.5,1.1-1.1,1.1c-0.6,0-1.1-0.5-1.1-1.1c0-0.6,0.5-1.1,1.1-1.1
				S55.9,27.2,55.9,27.8L55.9,27.8"/>
			<path id="Path_12199" class="st1" d="M69.1,27.8c0,0.6-0.5,1.1-1.1,1.1c-0.6,0-1.1-0.5-1.1-1.1s0.5-1.1,1.1-1.1l0,0
				C68.6,26.7,69.1,27.2,69.1,27.8"/>
			<path id="Path_12200" class="st1" d="M82.3,27.8c0,0.6-0.5,1.1-1.1,1.1c-0.6,0-1.1-0.5-1.1-1.1s0.5-1.1,1.1-1.1l0,0
				C81.8,26.7,82.3,27.2,82.3,27.8"/>
			<path id="Path_12201" class="st1" d="M95.5,27.8c0,0.6-0.5,1.1-1.1,1.1c-0.6,0-1.1-0.5-1.1-1.1s0.5-1.1,1.1-1.1l0,0
				C95,26.7,95.5,27.2,95.5,27.8"/>
			<path id="Path_12202" class="st1" d="M108.7,27.8c0,0.6-0.5,1.1-1.1,1.1c-0.6,0-1.1-0.5-1.1-1.1s0.5-1.1,1.1-1.1l0,0
				C108.2,26.7,108.7,27.2,108.7,27.8"/>
			<path id="Path_12203" class="st1" d="M121.8,27.8c0,0.6-0.5,1.1-1.1,1.1c-0.6,0-1.1-0.5-1.1-1.1s0.5-1.1,1.1-1.1l0,0
				C121.4,26.7,121.8,27.2,121.8,27.8"/>
			<path id="Path_12204" class="st1" d="M135,27.8c0,0.6-0.5,1.1-1.1,1.1c-0.6,0-1.1-0.5-1.1-1.1s0.5-1.1,1.1-1.1c0,0,0,0,0,0
				C134.5,26.7,135,27.2,135,27.8"/>
			<path id="Path_12205" class="st1" d="M148.2,27.8c0,0.6-0.5,1.1-1.1,1.1c-0.6,0-1.1-0.5-1.1-1.1s0.5-1.1,1.1-1.1c0,0,0,0,0,0
				C147.7,26.7,148.2,27.2,148.2,27.8"/>
			<path id="Path_12206" class="st1" d="M161.4,27.8c0,0.6-0.5,1.1-1.1,1.1c-0.6,0-1.1-0.5-1.1-1.1s0.5-1.1,1.1-1.1c0,0,0,0,0,0
				C160.9,26.7,161.4,27.2,161.4,27.8"/>
			<path id="Path_12207" class="st1" d="M174.6,27.8c0,0.6-0.5,1.1-1.1,1.1c-0.6,0-1.1-0.5-1.1-1.1s0.5-1.1,1.1-1.1c0,0,0,0,0,0
				C174.1,26.7,174.6,27.2,174.6,27.8"/>
			<path id="Path_12208" class="st1" d="M187.7,27.8c0,0.6-0.5,1.1-1.1,1.1c-0.6,0-1.1-0.5-1.1-1.1s0.5-1.1,1.1-1.1c0,0,0,0,0,0
				C187.3,26.7,187.7,27.2,187.7,27.8"/>
			<path id="Path_12209" class="st1" d="M3.2,40.6c0,0.6-0.5,1.1-1.1,1.1c-0.6,0-1.1-0.5-1.1-1.1c0-0.6,0.5-1.1,1.1-1.1c0,0,0,0,0,0
				C2.7,39.5,3.2,40,3.2,40.6"/>
			<path id="Path_12210" class="st1" d="M16.4,40.6c0,0.6-0.5,1.1-1.1,1.1s-1.1-0.5-1.1-1.1s0.5-1.1,1.1-1.1S16.4,40,16.4,40.6"/>
			<path id="Path_12211" class="st1" d="M29.6,40.6c0,0.6-0.5,1.1-1.1,1.1s-1.1-0.5-1.1-1.1s0.5-1.1,1.1-1.1S29.6,40,29.6,40.6"/>
			<path id="Path_12212" class="st1" d="M42.8,40.6c0,0.6-0.5,1.1-1.1,1.1s-1.1-0.5-1.1-1.1s0.5-1.1,1.1-1.1S42.8,40,42.8,40.6"/>
			<path id="Path_12213" class="st1" d="M55.9,40.6c0,0.6-0.5,1.1-1.1,1.1s-1.1-0.5-1.1-1.1s0.5-1.1,1.1-1.1S55.9,40,55.9,40.6"/>
			<path id="Path_12214" class="st1" d="M69.1,40.6c0,0.6-0.5,1.1-1.1,1.1c-0.6,0-1.1-0.5-1.1-1.1c0-0.6,0.5-1.1,1.1-1.1l0,0
				C68.6,39.5,69.1,40,69.1,40.6"/>
			<path id="Path_12215" class="st1" d="M82.3,40.6c0,0.6-0.5,1.1-1.1,1.1c-0.6,0-1.1-0.5-1.1-1.1c0-0.6,0.5-1.1,1.1-1.1l0,0
				C81.8,39.5,82.3,40,82.3,40.6"/>
			<path id="Path_12216" class="st1" d="M95.5,40.6c0,0.6-0.5,1.1-1.1,1.1c-0.6,0-1.1-0.5-1.1-1.1c0-0.6,0.5-1.1,1.1-1.1l0,0
				C95,39.5,95.5,40,95.5,40.6"/>
			<path id="Path_12217" class="st1" d="M108.7,40.6c0,0.6-0.5,1.1-1.1,1.1c-0.6,0-1.1-0.5-1.1-1.1c0-0.6,0.5-1.1,1.1-1.1l0,0
				C108.2,39.5,108.7,40,108.7,40.6"/>
			<path id="Path_12218" class="st1" d="M121.8,40.6c0,0.6-0.5,1.1-1.1,1.1c-0.6,0-1.1-0.5-1.1-1.1c0-0.6,0.5-1.1,1.1-1.1l0,0
				C121.4,39.5,121.8,40,121.8,40.6"/>
			<path id="Path_12219" class="st1" d="M135,40.6c0,0.6-0.5,1.1-1.1,1.1c-0.6,0-1.1-0.5-1.1-1.1s0.5-1.1,1.1-1.1c0,0,0,0,0,0
				C134.5,39.5,135,40,135,40.6"/>
			<path id="Path_12220" class="st1" d="M148.2,40.6c0,0.6-0.5,1.1-1.1,1.1c-0.6,0-1.1-0.5-1.1-1.1s0.5-1.1,1.1-1.1c0,0,0,0,0,0
				C147.7,39.5,148.2,40,148.2,40.6"/>
			<path id="Path_12221" class="st1" d="M161.4,40.6c0,0.6-0.5,1.1-1.1,1.1c-0.6,0-1.1-0.5-1.1-1.1s0.5-1.1,1.1-1.1c0,0,0,0,0,0
				C160.9,39.5,161.4,40,161.4,40.6"/>
			<path id="Path_12222" class="st1" d="M174.6,40.6c0,0.6-0.5,1.1-1.1,1.1c-0.6,0-1.1-0.5-1.1-1.1s0.5-1.1,1.1-1.1c0,0,0,0,0,0
				C174.1,39.5,174.6,40,174.6,40.6"/>
			<path id="Path_12223" class="st1" d="M187.7,40.6c0,0.6-0.5,1.1-1.1,1.1c-0.6,0-1.1-0.5-1.1-1.1s0.5-1.1,1.1-1.1c0,0,0,0,0,0
				C187.3,39.5,187.7,40,187.7,40.6"/>
			<path id="Path_12224" class="st1" d="M3.2,53.4c0,0.6-0.5,1.1-1.1,1.1c-0.6,0-1.1-0.5-1.1-1.1c0-0.6,0.5-1.1,1.1-1.1c0,0,0,0,0,0
				C2.7,52.3,3.2,52.8,3.2,53.4L3.2,53.4"/>
			<path id="Path_12225" class="st1" d="M16.4,53.4c0,0.6-0.5,1.1-1.1,1.1s-1.1-0.5-1.1-1.1s0.5-1.1,1.1-1.1c0,0,0,0,0,0
				C15.9,52.3,16.4,52.8,16.4,53.4"/>
			<path id="Path_12226" class="st1" d="M29.6,53.4c0,0.6-0.5,1.1-1.1,1.1s-1.1-0.5-1.1-1.1s0.5-1.1,1.1-1.1h0
				C29.1,52.3,29.6,52.8,29.6,53.4"/>
			<path id="Path_12227" class="st1" d="M42.8,53.4c0,0.6-0.5,1.1-1.1,1.1s-1.1-0.5-1.1-1.1s0.5-1.1,1.1-1.1l0,0
				C42.3,52.3,42.8,52.8,42.8,53.4"/>
			<path id="Path_12228" class="st1" d="M55.9,53.4c0,0.6-0.5,1.1-1.1,1.1s-1.1-0.5-1.1-1.1s0.5-1.1,1.1-1.1l0,0
				C55.5,52.3,55.9,52.8,55.9,53.4"/>
			<path id="Path_12229" class="st1" d="M69.1,53.4c0,0.6-0.5,1.1-1.1,1.1S67,54,67,53.4c0-0.6,0.5-1.1,1.1-1.1c0,0,0,0,0,0
				C68.6,52.3,69.1,52.8,69.1,53.4"/>
			<path id="Path_12230" class="st1" d="M82.3,53.4c0,0.6-0.5,1.1-1.1,1.1s-1.1-0.5-1.1-1.1c0-0.6,0.5-1.1,1.1-1.1c0,0,0,0,0,0
				C81.8,52.3,82.3,52.8,82.3,53.4"/>
			<path id="Path_12231" class="st1" d="M95.5,53.4c0,0.6-0.5,1.1-1.1,1.1s-1.1-0.5-1.1-1.1c0-0.6,0.5-1.1,1.1-1.1c0,0,0,0,0,0
				C95,52.3,95.5,52.8,95.5,53.4"/>
			<path id="Path_12232" class="st1" d="M108.7,53.4c0,0.6-0.5,1.1-1.1,1.1s-1.1-0.5-1.1-1.1c0-0.6,0.5-1.1,1.1-1.1c0,0,0,0,0,0
				C108.2,52.3,108.7,52.8,108.7,53.4"/>
			<path id="Path_12233" class="st1" d="M121.8,53.4c0,0.6-0.5,1.1-1.1,1.1s-1.1-0.5-1.1-1.1c0-0.6,0.5-1.1,1.1-1.1c0,0,0,0,0,0
				C121.4,52.3,121.8,52.8,121.8,53.4"/>
			<path id="Path_12234" class="st1" d="M135,53.4c0,0.6-0.5,1.1-1.1,1.1s-1.1-0.5-1.1-1.1c0-0.6,0.5-1.1,1.1-1.1c0,0,0,0,0,0
				C134.5,52.3,135,52.8,135,53.4"/>
			<path id="Path_12235" class="st1" d="M148.2,53.4c0,0.6-0.5,1.1-1.1,1.1s-1.1-0.5-1.1-1.1c0-0.6,0.5-1.1,1.1-1.1c0,0,0,0,0,0
				C147.7,52.3,148.2,52.8,148.2,53.4"/>
			<path id="Path_12236" class="st1" d="M161.4,53.4c0,0.6-0.5,1.1-1.1,1.1s-1.1-0.5-1.1-1.1c0-0.6,0.5-1.1,1.1-1.1c0,0,0,0,0,0
				C160.9,52.3,161.4,52.8,161.4,53.4"/>
			<path id="Path_12237" class="st1" d="M174.6,53.4c0,0.6-0.5,1.1-1.1,1.1s-1.1-0.5-1.1-1.1c0-0.6,0.5-1.1,1.1-1.1c0,0,0,0,0,0
				C174.1,52.3,174.6,52.8,174.6,53.4"/>
			<path id="Path_12238" class="st1" d="M187.7,53.4c0,0.6-0.5,1.1-1.1,1.1s-1.1-0.5-1.1-1.1c0-0.6,0.5-1.1,1.1-1.1c0,0,0,0,0,0
				C187.3,52.3,187.7,52.8,187.7,53.4"/>
		</g>
	</g>
</g>
</svg>
