<?xml version="1.0" encoding="utf-8"?>
<!-- Generator: Adobe Illustrator 27.0.1, SVG Export Plug-In . SVG Version: 6.00 Build 0)  -->
<svg version="1.1" id="Layer_1" xmlns="http://www.w3.org/2000/svg" xmlns:xlink="http://www.w3.org/1999/xlink" x="0px" y="0px"
	 viewBox="0 0 127.5 235.8" style="enable-background:new 0 0 127.5 235.8;" xml:space="preserve">
<style type="text/css">
	.st0{opacity:0.13;fill:#FFFFFF;}
</style>
<path class="st0" d="M1.9,126.7c8.6,0,15.5-6.9,15.5-15.5S10.5,95.8,1.9,95.8c-0.8,0-1.5,0.1-2.3,0.2v30.6
	C0.4,126.6,1.2,126.7,1.9,126.7z"/>
<path class="st0" d="M70.8,143.7c2.7,1.1,8.7,3.3,10.7,3.7c-5-0.8-9.2-1.5-11-1.8c-1.6,12.4,17.9,16.4,34,6.7
	C94.2,138.5,74.6,130.9,70.8,143.7z"/>
<path class="st0" d="M40.4,130.9c2.1,0.4,6.7,1.1,8.1,1.1c-3.7,0.2-6.7,0.3-8.1,0.3c0.7,9.1,15.1,9.1,25.2-0.2
	C56.3,123.8,41.2,121.3,40.4,130.9z"/>
<path class="st0" d="M69.9,175.8C60.7,157,39,143.5,31.6,158c3,1.9,9.7,5.9,11.9,6.8c-5.8-2.1-10.7-3.8-12.8-4.6
	C26,174.7,48.4,183.8,69.9,175.8z"/>
<path class="st0" d="M20.3,85.9c0.8-1.8,2.6-5.8,3-7c-0.7,3.3-1.4,6.1-1.7,7.4c8.3,1.6,11.9-11.4,6-22.7
	C17.8,69.9,11.8,82.9,20.3,85.9z"/>
<path class="st0" d="M41.5,79.6c3.5-3.6,11.1-11.4,13-14.2c-4.6,7.3-8.6,13.4-10.3,16.1c18.3,11,37.7-16.8,33.5-48.6
	C49.2,39.6,24,65.2,41.5,79.6z"/>
<path class="st0" d="M95.6,69.6c-4.1,3-7.5,5.5-9,6.6c7.7,9.9,24.2-1.1,28.7-19.5c-17-2.4-36.3,6.2-29.8,17.9
	C88.1,73.4,94,70.7,95.6,69.6z"/>
<path class="st0" d="M50.9,100.2c1.8-0.8,5.6-2.6,6.7-3.3c-2.7,2-5,3.6-6,4.4c5.1,6.6,16.1-0.8,19-12.9
	C59.4,86.7,46.6,92.4,50.9,100.2z"/>
<path class="st0" d="M69.4,112.7c4.9-0.7,15.8-2.3,18.9-3.4c-8.1,3-14.9,5.5-18,6.5c7.9,19.8,40.2,9.5,56.1-18.4
	C99.8,85.6,64.2,90.6,69.4,112.7z"/>
<path class="st0" d="M0.7,67.5c0.6-4.9,1.9-15.8,1.8-19.2C3.2,57,3.7,64.2,4,67.4c21.2-2.4,19.8-36.3-2.9-59c-0.5,0.6-1,1.2-1.5,1.9
	v57.1C0,67.4,0.3,67.5,0.7,67.5z"/>
<path class="st0" d="M35.2,36.1c1.2-2.7,3.9-8.5,4.4-10.4c-1.1,4.9-2.1,9-2.5,10.9C49.4,39,54.6,19.8,45.9,3.1
	C31.5,12.4,22.7,31.5,35.2,36.1z"/>
<path class="st0" d="M49.3,108.4C27.5,118.7,11.7,130.6,1.5,143c-0.6-0.7-1.2-1.5-1.9-2.2v73c0.6-0.6,1.3-1.1,1.9-1.7
	c15.1,14.4,41.2,23.3,75.6,21.4C46.5,226.9-22.8,172.8,49.3,108.4z"/>
</svg>
