<?xml version="1.0" encoding="utf-8"?>
<!-- Generator: Adobe Illustrator 27.0.1, SVG Export Plug-In . SVG Version: 6.00 Build 0)  -->
<svg version="1.1" id="Layer_1" xmlns="http://www.w3.org/2000/svg" xmlns:xlink="http://www.w3.org/1999/xlink" x="0px" y="0px"
	 viewBox="0 0 651.5 238.6" style="enable-background:new 0 0 651.5 238.6;" xml:space="preserve">
<style type="text/css">
	.st0{fill:#FFFFFF;}
	.st1{fill:#20B6EA;}
	.st2{fill:#7BBF41;}
	.st3{fill:#E93F48;}
	.st4{fill:#FFCD03;}
</style>
<g>
	<path class="st0" d="M291.9,233.6c-6.9,0-13.9-4.6-13.9-14.4c0-9.2,6.2-14.7,13.5-14.7c5.2,0,9.9,2.9,11.9,8l2.8-1.1
		c-2.2-6.6-8.5-9.8-14.8-9.8c-9.2,0-16.7,6.9-16.7,17.5c0,10.2,7,17.3,16.9,17.3c8.4,0,13.7-5.1,15.8-12l-2.7-1
		C303.1,229,298.9,233.6,291.9,233.6z"/>
	<path class="st0" d="M335.8,201.6c-9.3,0-16.8,7.4-16.8,17.5c0,10.1,7.6,17.4,16.8,17.4c9.4,0,16.8-7.5,16.8-17.4
		C352.6,209.3,345.2,201.6,335.8,201.6z M335.8,233.6c-7.3,0-13.5-6.1-13.6-14.5c0-8.4,6.3-14.6,13.5-14.6c7.2,0,13.4,6.2,13.4,14.6
		C349.3,227.5,343,233.6,335.8,233.6z"/>
	<path class="st0" d="M390.9,202.3l0,28.6h-0.1c-6.7-9.8-13.3-19.2-19.9-28.6h-3.3v33.4h3.1v-28.2h0c6.7,9.7,13.4,18.9,19.9,28.2
		h3.3l0-33.4H390.9z"/>
	<path class="st0" d="M423.2,218l-3.3-1.1c-2.1-0.7-7.1-2.2-7.1-6.6c0-3.6,3.3-5.9,7.3-5.9c4.3,0,7.4,2.5,8.6,6.3l2.7-1.1
		c-1.5-5.2-5.8-8-11.1-8c-5.4,0-10.8,3-10.8,8.9c0,6.2,5.9,8.3,9.2,9.3l3.1,1c3.3,1,7.1,1.9,7.1,6.3c0,4.6-4.3,6.5-8,6.5
		c-4.5,0-8.4-2.7-9.8-8l-2.8,1c1.9,7.3,7.6,9.8,12.5,9.8c6.1,0,11.4-3.8,11.4-9.8C432.4,220.6,426.9,219.2,423.2,218z"/>
	<path class="st0" d="M467.8,223.4c0,7.2-3.4,10.2-9,10.2c-5.5,0-9-3-9-10.2v-21.1h-3v21.3c0,8.2,4.2,12.9,11.9,12.9
		c8.6,0,12.1-5.6,12.1-12.9v-21.3h-3V223.4z"/>
	<path class="st0" d="M490.8,202.3h-3.1v33.4H508v-2.9c-5.7,0-11.4,0-17.1,0V202.3z"/>
	<polygon class="st0" points="512.1,205.1 523.5,205.1 523.5,235.7 526.6,235.7 526.6,205.1 538,205.1 538,202.3 512.1,202.3 	"/>
	<rect x="551.5" y="202.3" class="st0" width="3.1" height="33.4"/>
	<path class="st0" d="M595.1,230.9L595.1,230.9c-6.7-9.8-13.3-19.2-19.9-28.6h-3.3l0,33.4h3.1l0-28.2h0c6.7,9.7,13.4,18.9,19.9,28.2
		h3.3v-33.4h-3.1V230.9z"/>
	<path class="st0" d="M631.1,222.1h11.6c-0.5,6.6-5.3,11.5-12.3,11.5c-6.8,0-13.8-4.6-13.8-14.4c0-9.3,6.3-14.7,13.5-14.7
		c5.2,0,9.9,2.9,11.9,8l2.8-1.1c-2.2-6.6-8.5-9.8-14.8-9.8c-9.3,0-16.7,7-16.7,17.5c0,10.2,6.9,17.3,16.6,17.3
		c6.4,0,10.8-3.1,13.1-8.3h0.2c0,2.5,0.1,5.1,0.1,7.5h2.5v-16.3h-14.7V222.1z"/>
	<path class="st0" d="M385.1,56.3v29.3h4.7c0-4.3,0-6.4,0-10.7h6.5c2.9,0,9.7-1.6,9.7-9.5c0-7.6-6.8-9.1-10-9.1H385.1z M401.1,65.4
		c0,3.8-3.1,4.8-5.8,4.8h-5.5c0-2.4,0-5.3,0-9.7h5.4C398,60.6,401.1,61.7,401.1,65.4z"/>
	<path class="st0" d="M412.8,74c-3.8,0.8-7,2.4-7,6.3c0,4,3.3,5.9,6.9,5.9c3,0,5.5-1.5,6.7-3.9h0.1c0,1.2,0.1,2.2,0.4,3.2h4.5
		c-0.4-1.7-0.7-3.1-0.7-6.5v-7.7c0-4.9-3.5-7.3-8.2-7.3c-3.9,0-7.7,1.6-8.9,5.9l4.2,1.4c0.7-2.4,2.4-3.6,4.5-3.6
		c2.4,0,3.9,1.5,3.9,3.2C419.1,72.9,417.2,73.1,412.8,74z M419.2,75.5v2c0,2.3-2,5.2-5.2,5.2c-1.9,0-3.2-0.9-3.2-2.6
		c0-2,2.3-2.9,4.1-3.3C416.5,76.5,418.1,76.1,419.2,75.5z"/>
	<path class="st0" d="M428.6,58.7c0,2,0,4,0,6h-4.1v4c1.4,0,2.7,0,4.1,0V79c0,2.2,0,7.2,6.5,7.2c1.4,0,2.8-0.3,3.9-0.9v-4
		c-1,0.5-2,0.8-3,0.8c-2.9,0-2.9-2.6-2.9-4.7c0-2.9,0-5.9,0-8.8h5.4v-4c-1.8,0-3.6,0-5.4,0v-6H428.6z"/>
	<path class="st0" d="M442.6,68.7V79c0,2.2,0,7.2,6.5,7.2c1.4,0,2.8-0.3,3.9-0.9v-4c-1,0.5-2,0.8-3,0.8c-2.9,0-2.9-2.6-2.9-4.7
		c0-2.9,0-5.9,0-8.8h5.9v-4c-2,0-3.9,0-5.9,0v-6l-4.5,0c0,2,0,4,0,6h-3.7v4C440.1,68.7,441.4,68.7,442.6,68.7z"/>
	<path class="st0" d="M438.9,68.7v-4c-0.1,0-0.3,0-0.4,0v4H438.9z"/>
	<rect x="454.9" y="64.7" class="st0" width="4.4" height="20.9"/>
	<path class="st0" d="M457.1,55.1c-1.7,0-2.9,1.3-2.9,2.9c0,1.7,1.2,3,2.9,3c1.6,0,2.9-1.3,2.9-3C460,56.4,458.8,55.1,457.1,55.1z"
		/>
</g>
<path class="st0" d="M340.2,115.5l-14.7-4.7c-8.5-2.8-24.4-8-24.4-21.2c0-10.3,9.3-17.4,22.6-17.4c13,0,23,7.4,27.4,20.2l0.5,1.3
	l18.8-7.7l-0.3-1.1c-5.4-19.3-23.2-31.8-45.5-31.8c-30.9,0-45,19.6-45,37.8c0,26.9,26.5,35.2,36.4,38.3l13.3,4.1
	c11.2,3.5,22.8,7,22.8,19.8c0,13.5-12.8,19.6-25.5,19.6c-15.8,0-27.6-9.8-32.2-26.8l-0.4-1.4l-19.2,6.7l0.3,1.2
	c6.5,24.7,25.8,39.5,51.7,39.5c27.5,0,47.4-17.3,47.4-41.2C374.1,126.4,353.7,119.8,340.2,115.5z"/>
<path class="st0" d="M449.6,155.3c-4.8,11.9-14.5,18.8-26.4,18.8c-15.5,0-26.8-10.9-28.4-27.2h72.2V140c0-16.7-4.9-29.6-14.6-38.3
	c-7.8-7-18.6-10.9-30.2-10.9c-27.5,0-47.4,21.4-47.4,50.9c0,29.6,19.9,50.2,48.4,50.2c20.6,0,37.7-11.3,44.6-29.5l0.5-1.2l-18.2-7.2
	L449.6,155.3z M422,108.2c5.4,0,23,1.7,24.9,23.5h-51.1C398.7,117.1,408.7,108.2,422,108.2z"/>
<path class="st0" d="M563,158.8V52.5h-19.7v54c-6.9-10-17.9-15.6-30.7-15.6c-25.5,0-44,21.3-44,50.6c0,29.8,18.1,50.6,44,50.6
	c13.3,0,24.7-5.7,31.8-15.8c0.3,3.6,0.9,7.4,2.1,11.9l0.3,1h19.6l-0.4-1.6C564.3,180.8,563,174.5,563,158.8z M516,173.2
	c-15.6,0-27-13.4-27-31.8c0-18.5,11.3-32,27-32c16,0,27.6,13.4,27.6,31.8C543.6,159.7,532,173.2,516,173.2z"/>
<path class="st0" d="M644.2,158.8v-34.7c0-20.5-14.3-33.3-37.3-33.3c-20,0-34.9,10.1-39.9,26.9l-0.4,1.2l18.6,6.2l0.4-1.3
	c3-10.4,10.5-16.3,20.5-16.3c10.4,0,18.3,6.5,18.3,15.1c0,7.2-5.5,8.6-21.5,11.7c-1.9,0.4-3.9,0.8-6,1.2c-22.2,4.6-33,14.2-33,29.4
	c0,18.6,15.9,26.9,31.6,26.9c12.8,0,23.8-5.9,30.3-15.9c0.2,4.5,0.9,8.2,2.1,12.1l0.3,0.9h19.6l-0.4-1.6
	C645.5,180.8,644.2,174.5,644.2,158.8z M624.3,151.6c0,9.9-8.8,24.3-24.6,24.3c-9.2,0-14.8-4.3-14.8-11.6c0-9.6,11.8-13.1,20.7-14.9
	c8.7-1.7,14.2-3.4,18.7-5.7V151.6z"/>
<circle class="st0" cx="127.7" cy="111.2" r="15.5"/>
<g>
	<path class="st1" d="M47.6,147.4c1.9-0.4,7.9-2.6,10.7-3.7c-3.7-12.8-23.4-5.2-33.6,8.6c16.1,9.7,35.6,5.7,34-6.7
		C56.7,145.9,52.6,146.6,47.6,147.4z"/>
	<path class="st1" d="M196.6,143.7c2.7,1.1,8.7,3.3,10.7,3.7c-5-0.8-9.2-1.5-11-1.8c-1.6,12.4,17.9,16.4,34,6.7
		C220,138.5,200.3,130.9,196.6,143.7z"/>
	<path class="st1" d="M166.1,130.9c2.1,0.4,6.7,1.1,8.1,1.1c-3.7,0.2-6.7,0.3-8.1,0.3c0.7,9.1,15.1,9.1,25.2-0.2
		C182,123.8,166.9,121.3,166.1,130.9z"/>
	<path class="st1" d="M195.6,175.8c-9.1-18.7-30.9-32.3-38.2-17.8c3,1.9,9.7,5.9,11.9,6.8c-5.8-2.1-10.7-3.8-12.8-4.6
		C151.7,174.7,174.2,183.8,195.6,175.8z"/>
	<path class="st1" d="M88.7,132.3c-1.4,0-4.5-0.1-8.1-0.3c1.4,0,6-0.7,8.1-1.1c-0.8-9.7-15.9-7.1-25.2,1.2
		C73.6,141.4,88,141.4,88.7,132.3z"/>
	<path class="st1" d="M98.3,160.2c-2.1,0.8-7,2.6-12.8,4.6c2.2-0.9,8.9-4.9,11.9-6.8c-7.3-14.5-29.1-1-38.2,17.8
		C80.6,183.8,103.1,174.7,98.3,160.2z"/>
</g>
<g>
	<path class="st2" d="M146.1,85.9c0.8-1.8,2.6-5.8,3-7c-0.7,3.3-1.4,6.1-1.7,7.4c8.3,1.6,11.9-11.4,6-22.7
		C143.6,69.9,137.6,82.9,146.1,85.9z"/>
	<path class="st2" d="M203.4,32.9c-28.4,6.7-53.7,32.2-36.2,46.7c3.5-3.6,11.1-11.4,13-14.2c-4.6,7.3-8.6,13.4-10.3,16.1
		C188.2,92.6,207.7,64.7,203.4,32.9z"/>
	<path class="st2" d="M101.5,63.6c-5.9,11.3-2.4,24.3,6,22.7c-0.3-1.3-1-4-1.7-7.4c0.3,1.3,2.1,5.2,3,7
		C117.2,82.9,111.2,69.9,101.5,63.6z"/>
	<path class="st2" d="M85.5,81.3c-1.8-2.7-5.7-8.8-10.3-16.1c1.9,2.8,9.5,10.6,13,14.2c17.5-14.5-7.7-40-36.2-46.7
		C47.7,64.4,67.2,92.3,85.5,81.3z"/>
</g>
<g>
	<path class="st3" d="M42.5,76.2c-1.6-1.1-5-3.6-9-6.6c1.6,1.1,7.5,3.8,10.2,5c6.5-11.7-12.8-20.3-29.8-17.9
		C18.3,75.1,34.8,86.1,42.5,76.2z"/>
	<path class="st3" d="M58.4,88.3c2.9,12.1,13.9,19.5,19,12.9c-1-0.7-3.3-2.4-6-4.4c1.1,0.7,4.9,2.5,6.7,3.3
		C82.5,92.4,69.7,86.7,58.4,88.3z"/>
	<path class="st3" d="M2.6,97.5c15.9,27.9,48.2,38.2,56.1,18.4c-3-1.1-9.9-3.5-18-6.5c3.2,1,14,2.7,18.9,3.4
		C64.8,90.6,29.3,85.6,2.6,97.5z"/>
	<path class="st3" d="M221.3,69.6c-4.1,3-7.5,5.5-9,6.6c7.7,9.9,24.2-1.1,28.7-19.5c-17-2.4-36.3,6.2-29.8,17.9
		C213.9,73.4,219.7,70.7,221.3,69.6z"/>
	<path class="st3" d="M176.6,100.2c1.8-0.8,5.6-2.6,6.7-3.3c-2.7,2-5,3.6-6,4.4c5.1,6.6,16.1-0.8,19-12.9
		C185.1,86.7,172.4,92.4,176.6,100.2z"/>
	<path class="st3" d="M195.1,112.7c4.9-0.7,15.8-2.3,18.9-3.4c-8.1,3-14.9,5.5-18,6.5c7.9,19.8,40.2,9.5,56.1-18.4
		C225.5,85.6,190,90.6,195.1,112.7z"/>
</g>
<g>
	<path class="st4" d="M126.4,67.5c0.6-4.9,1.9-15.8,1.8-19.2c0.8,8.6,1.3,15.8,1.5,19.1c21.2-2.4,19.8-36.3-2.9-59
		C108.3,31,103.7,66.6,126.4,67.5z"/>
	<path class="st4" d="M161,36.1c1.2-2.7,3.9-8.5,4.4-10.4c-1.1,4.9-2.1,9-2.5,10.9c12.3,2.4,17.5-16.8,8.8-33.5
		C157.3,12.4,148.4,31.5,161,36.1z"/>
	<path class="st4" d="M84.1,5.5C75.4,22.2,80.7,41.4,93,39c-0.4-1.9-1.4-6-2.5-10.9c0.5,1.9,3.1,7.7,4.4,10.4
		C107.4,34,98.5,14.9,84.1,5.5z"/>
</g>
<g>
	<path class="st0" d="M202.9,233.4c-30.6-6.5-99.9-60.5-27.8-125C74,156,104.5,238.9,202.9,233.4z"/>
	<path class="st0" d="M51.7,233.4c30.6-6.5,99.9-60.5,27.8-125C180.6,156,150.1,238.9,51.7,233.4z"/>
</g>
</svg>
