<?xml version="1.0" encoding="utf-8"?>
<!-- Generator: Adobe Illustrator 27.0.1, SVG Export Plug-In . SVG Version: 6.00 Build 0)  -->
<svg version="1.1" id="Layer_1" xmlns="http://www.w3.org/2000/svg" xmlns:xlink="http://www.w3.org/1999/xlink" x="0px" y="0px"
	 viewBox="0 0 304.7 279.4" style="enable-background:new 0 0 304.7 279.4;" xml:space="preserve">
<style type="text/css">
	.st0{clip-path:url(#SVGID_00000061438380129309079050000017836541093650806177_);}
	.st1{fill:#00629C;}
	.st2{fill:#00AAE7;}
	.st3{fill:#77B22C;}
	.st4{fill:#E02537;}
	.st5{fill:#FFC000;}
</style>
<g>
	<defs>
		<rect id="SVGID_1_" x="0.2" y="0.8" width="302.5" height="277.9"/>
	</defs>
	<clipPath id="SVGID_00000154423034253321306210000007028339159753339799_">
		<use xlink:href="#SVGID_1_"  style="overflow:visible;"/>
	</clipPath>
	<g id="Group_1017" style="clip-path:url(#SVGID_00000154423034253321306210000007028339159753339799_);">
		<path id="Path_12343" class="st1" d="M170.5,131.2c0.1-10.4-8.3-18.8-18.7-18.9c-10.4-0.1-18.8,8.3-18.9,18.7
			c-0.1,10.4,8.3,18.8,18.7,18.9c0,0,0.1,0,0.1,0C162.1,149.9,170.5,141.5,170.5,131.2"/>
		<path id="Path_12344" class="st2" d="M54.7,174.8c2.3-0.5,9.6-3.2,12.9-4.5c-4.5-15.4-28.3-6.3-40.7,10.3
			c19.6,11.7,43.2,6.9,41.2-8.1C65.8,173,60.7,173.8,54.7,174.8"/>
		<path id="Path_12345" class="st2" d="M235.3,170.3c3.3,1.3,10.6,4,12.9,4.5c-6-0.9-11.1-1.8-13.4-2.2c-2,15,21.7,19.8,41.2,8.1
			C263.6,164,239.8,154.9,235.3,170.3"/>
		<path id="Path_12346" class="st2" d="M198.3,154.9c2.6,0.4,8.1,1.3,9.8,1.3c-4.4,0.2-8.2,0.3-9.8,0.4c0.8,10.9,18.3,10.9,30.5-0.2
			C217.6,146.4,199.3,143.3,198.3,154.9"/>
		<path id="Path_12347" class="st2" d="M234.1,209c-11.1-22.6-37.5-38.9-46.3-21.4c3.7,2.3,11.8,7.1,14.4,8.2
			c-7.1-2.5-13-4.6-15.6-5.6C180.9,207.6,208.1,218.6,234.1,209"/>
		<path id="Path_12348" class="st2" d="M104.5,156.6c-1.7-0.1-5.4-0.2-9.8-0.4c1.7,0,7.3-0.9,9.8-1.3c-1-11.6-19.3-8.6-30.5,1.5
			C86.2,167.6,103.7,167.6,104.5,156.6"/>
		<path id="Path_12349" class="st2" d="M116.2,190.2c-2.6,1-8.5,3.1-15.6,5.6c2.7-1.1,10.8-6,14.4-8.2c-8.9-17.5-35.3-1.2-46.3,21.4
			C94.7,218.6,122,207.6,116.2,190.2"/>
		<path id="Path_12350" class="st3" d="M174.1,100.7c1-2.2,3.2-6.9,3.6-8.5c-0.9,4-1.7,7.4-2.1,8.9c10.1,2,14.4-13.7,7.2-27.4
			C171,81.4,163.7,97,174.1,100.7"/>
		<path id="Path_12351" class="st3" d="M243.5,36.8c-34.5,8-65,38.8-43.8,56.3c4.2-4.3,13.5-13.7,15.8-17.1
			c-5.6,8.8-10.4,16.1-12.5,19.4C225.1,108.7,248.7,75.1,243.5,36.8"/>
		<path id="Path_12352" class="st3" d="M120,73.8c-7.1,13.6-2.8,29.3,7.2,27.4c-0.4-1.5-1.2-4.9-2.1-8.9c0.4,1.6,2.6,6.3,3.6,8.5
			C139.1,97,131.8,81.4,120,73.8"/>
		<path id="Path_12353" class="st3" d="M100.6,95.1c-2.1-3.2-6.9-10.6-12.5-19.4c2.3,3.3,11.5,12.8,15.8,17.1
			c21.2-17.5-9.4-48.2-43.8-56.3C54.9,74.8,78.4,108.3,100.6,95.1"/>
		<path id="Path_12354" class="st4" d="M48.5,89c-1.9-1.3-6-4.3-11-7.9c2,1.3,9.1,4.6,12.3,6C57.7,73,34.4,62.6,13.8,65.5
			C19.2,87.6,39.2,100.9,48.5,89"/>
		<path id="Path_12355" class="st4" d="M67.8,103.6c3.6,14.6,16.9,23.5,23.1,15.6c-1.2-0.9-4-2.9-7.3-5.3c1.3,0.9,6,3,8.1,4
			C97,108.5,81.5,101.6,67.8,103.6"/>
		<path id="Path_12356" class="st4" d="M0.2,114.6c19.2,33.6,58.4,46.1,68,22.1c-3.7-1.3-12-4.2-21.8-7.9c3.9,1.3,17,3.2,22.9,4.1
			C75.6,106.3,32.5,100.3,0.2,114.6"/>
		<path id="Path_12357" class="st4" d="M265.3,81.1c-4.9,3.6-9.1,6.6-11,7.9c9.3,11.9,29.4-1.4,34.8-23.4
			c-20.6-2.9-44,7.4-36.1,21.5C256.2,85.6,263.3,82.4,265.3,81.1"/>
		<path id="Path_12358" class="st4" d="M211.1,117.9c2.2-1,6.8-3.1,8.1-4c-3.3,2.4-6,4.4-7.3,5.3c6.2,7.9,19.5-0.9,23.1-15.6
			C221.4,101.6,205.9,108.5,211.1,117.9"/>
		<path id="Path_12359" class="st4" d="M233.5,133c6-0.9,19.1-2.8,22.9-4.1c-9.8,3.6-18.1,6.6-21.8,7.9c9.6,23.9,48.8,11.4,68-22.1
			C270.4,100.3,227.3,106.3,233.5,133"/>
		<path id="Path_12360" class="st5" d="M150.2,78.5c0.8-6,2.3-19.1,2.1-23.1c0.9,10.4,1.6,19.1,1.9,23c25.7-2.9,24-43.7-3.5-71.1
			C128.3,34.5,122.7,77.4,150.2,78.5"/>
		<path id="Path_12361" class="st5" d="M192.1,40.6c1.5-3.2,4.7-10.2,5.3-12.5c-1.3,5.9-2.5,10.9-3,13.1
			c14.9,2.9,21.2-20.2,10.7-40.4C187.6,12.1,176.9,35.1,192.1,40.6"/>
		<path id="Path_12362" class="st5" d="M99,3.8C88.4,23.9,94.8,47,109.7,44.2c-0.5-2.2-1.7-7.2-3-13.1c0.6,2.3,3.8,9.3,5.3,12.5
			C127.1,38.1,116.4,15,99,3.8"/>
		<path id="Path_12363" class="st1" d="M242.9,278.4c-37.1-7.8-121.1-72.9-33.7-150.6C86.7,185.2,123.6,285,242.9,278.4"/>
		<path id="Path_12364" class="st1" d="M59.7,278.4c37.1-7.8,121.1-72.9,33.7-150.6C215.9,185.2,179,285,59.7,278.4"/>
	</g>
</g>
</svg>
