<?xml version="1.0" encoding="utf-8"?>
<!-- Generator: Adobe Illustrator 28.2.0, SVG Export Plug-In . SVG Version: 6.00 Build 0)  -->
<svg version="1.1" id="Layer_1" xmlns="http://www.w3.org/2000/svg" xmlns:xlink="http://www.w3.org/1999/xlink" x="0px" y="0px"
	 viewBox="0 0 733 427" style="enable-background:new 0 0 733 427;" xml:space="preserve">
<style type="text/css">
	.st0{fill:#DFE1E8;}
</style>
<polygon class="st0" points="550.4,96.1 550.4,96.1 550.9,95.9 550.8,95.8 "/>
<polygon class="st0" points="514.2,117 513.8,117.2 513.8,117.3 514.4,116.9 514.4,116.9 "/>
<polygon class="st0" points="513.9,117 513.9,117 513.3,116.6 513.2,116.7 513.3,116.7 477.6,137.3 477.6,96.1 513.2,116.7 
	513.3,116.6 477.3,95.9 477,96.1 476.9,96.1 476.9,137.3 476.9,137.3 477.3,137.6 477.3,137.6 477.9,137.9 513.6,117.2 514.1,117 
	514,116.9 "/>
<polygon class="st0" points="476.9,137.3 476.9,137.3 441.2,116.6 440.8,116.9 440.8,117.2 440.9,117.3 440.9,117.2 475.3,137.1 
	476.5,137.8 476.5,137.8 476.5,137.8 476.6,137.9 440.9,158.6 440.9,158.4 440.8,158.5 440.8,158.8 441.2,159.1 476.9,138.4 
	476.9,137.8 477.3,137.6 477.3,137.6 "/>
<polygon class="st0" points="440.9,117.3 440.8,117.2 440.8,158.5 440.9,158.4 "/>
<polygon class="st0" points="476.9,137.3 476.9,137.3 476.9,137.3 477.3,137.6 477.3,137.6 477.3,137.6 "/>
<polygon class="st0" points="477.5,137.7 477,137.9 477.3,137.9 477,137.9 477,138.5 477,138.5 478,137.9 477.9,137.9 "/>
<polygon class="st0" points="661.1,32.2 661.3,32 661.3,32 "/>
<polygon class="st0" points="624.7,53.2 624.7,53.2 625.1,52.9 625,52.9 "/>
<polygon class="st0" points="661.3,31.9 661.3,31.8 661.2,31.9 661.1,31.9 661.3,32 661.3,32 661.3,32 662,31.6 661.9,31.6 "/>
<polygon class="st0" points="661.6,31.6 661.6,31.5 661.3,31.7 661.3,31.7 "/>
<polygon class="st0" points="698.1,10.8 698,10.7 697.7,10.9 697.6,11 697.6,11.1 "/>
<polygon class="st0" points="661.2,31.8 661.3,31.7 661.2,31.7 661.1,31.8 661.1,31.8 661.1,31.8 661.1,31.8 661,31.9 660.4,31.6 
	660.4,31.6 660.5,31.6 624.8,52.2 624.8,11 624.5,10.8 624.7,10.7 624.6,10.7 624.5,10.7 624.5,10.7 624.4,10.6 624.4,10.6 
	624.3,10.7 624.1,10.9 624.1,52.1 624.5,52.3 624.5,52.6 624.7,52.7 624.7,53 624.8,53 625.1,52.8 660.8,32.1 661.1,31.9 
	661.1,31.9 "/>
<polygon class="st0" points="660.4,31.6 660.4,31.6 636.7,17.8 "/>
<polygon class="st0" points="661.1,31.9 661.1,31.9 661.2,31.9 661.3,31.8 661.2,31.8 "/>
<polygon class="st0" points="661.3,31.7 661.3,31.7 661.2,31.8 "/>
<polygon class="st0" points="624.7,52.8 624.5,52.7 624.5,53 624.4,53.1 624.4,53.2 624.1,53.3 624.1,53.5 624.7,53.2 624.7,53 "/>
<polygon class="st0" points="551,95.7 550.9,95.8 550.9,95.8 551.5,95.5 551.5,95.5 "/>
<path class="st0" d="M587.7,31.9l-0.5,0.2l0,0v41.3l0.5,0.2l0.4,0.3h0.1l0.2,0.1l0.2-0.1l-0.1-0.1l0.1,0.1L624,53.4l0.1-0.1v-0.1
	l0.4-0.2v-0.5l-0.5-0.2l-8.7-5.1l-27-15.6l-0.4,0.2L587.7,31.9C587.7,31.9,587.7,31.9,587.7,31.9z M588,32.2l35.7,20.6L588,32.2
	l35.7,20.6L588,73.5C588,73.5,588,32.2,588,32.2z"/>
<polygon class="st0" points="624.1,53.3 624.4,53.2 624.4,53.1 "/>
<polygon class="st0" points="588.5,73.9 588.5,73.9 588.4,73.8 "/>
<polygon class="st0" points="587.3,73.5 551.5,52.8 551.2,53 551.2,53.4 587,74.1 551.2,94.9 551.2,95.5 551.1,95.5 551,95.5 
	551,95.7 551.5,95.5 587.2,74.7 587.2,74.6 587.2,74 587.7,73.7 587.7,73.8 587.8,73.7 "/>
<polygon class="st0" points="588.3,74.1 588.1,73.9 587.7,73.8 587.5,74 587.5,74 587.5,74 587.3,74.1 587.3,74.7 587.2,74.7 
	587.2,74.8 588.4,74.1 "/>
<polygon class="st0" points="588.1,73.9 588.3,74.1 588.3,74.1 588.1,74 "/>
<polygon class="st0" points="587.2,74.6 587.2,74.7 587.3,74.7 587.3,74.1 587.5,74 587.2,74 "/>
<polygon class="st0" points="587.2,74 587.5,74 587.7,73.8 587.7,73.7 "/>
<polygon class="st0" points="551.1,95.3 551,95.5 551.1,95.5 "/>
<polygon class="st0" points="551.1,53.4 551.1,53 551,53.2 550.5,53.4 550.5,94.6 551.1,95 551.1,94.8 "/>
<polygon class="st0" points="514.9,74 550.5,94.8 550.5,94.6 "/>
<polygon class="st0" points="513.6,116 478,95.4 477.9,95.5 477.5,95.7 477.4,95.7 513.3,116.6 513.3,116.6 513.3,116.6 513.9,117 
	514,116.9 514,116.9 514,116.9 513.6,116.6 513.6,116.5 513.6,116.5 "/>
<polygon class="st0" points="477.6,95.5 477.5,95.6 477.5,95.7 477.6,95.6 "/>
<polygon class="st0" points="514.9,74 550.4,53.4 550.9,53.2 550.8,53 550.7,53.2 550.2,52.9 541.5,57.9 514.5,73.5 514.5,32.2 
	514.1,32 513.8,32.2 513.8,73.5 514.2,73.7 514.5,73.9 514.6,74 514.8,74.1 514.9,74 514.8,74 "/>
<path class="st0" d="M477.9,52.9l-0.4,0.2v41.6l17.9-10.3l-17.9,10.3v0.7l0.4-0.2l0.1,0.1l35.6-20.6V74l0.4-0.2l-0.4-0.2
	C513.6,73.6,477.9,52.9,477.9,52.9z M495.6,84.5l-17.9,10.3V53.4l0,0l35.7,20.7C513.4,74.1,495.6,84.5,495.6,84.5z"/>
<polygon class="st0" points="477.6,95.5 477.6,95.6 477.5,95.7 477.9,95.5 478,95.4 477.9,95.3 "/>
<path class="st0" d="M514.5,73.9l-0.4-0.2l-0.1,0.1l0.1,0.1l-0.2,0.1h0.1h-0.1l-0.2,0.1V116l0,0v0.5l0.4,0.2l0.2,0.2l0.1-0.1
	l0.4-0.2l35.7-20.7l-35.7,20.7l35.7-20.7l0.4-0.2l0.1-0.1V95l-36.2-20.8l0,0L514.5,73.9z M514.5,116.2V74.7l35.7,20.7L514.5,116.2z"
	/>
<polygon class="st0" points="514.5,73.9 514.7,74.1 514.8,74.1 514.6,74 "/>
<polygon class="st0" points="513.9,74 514.1,73.8 514,73.8 513.6,74 "/>
<polygon class="st0" points="513.6,74.1 513.9,74 513.6,74 "/>
<polygon class="st0" points="514.1,31.8 514,31.9 514.4,32.1 550.1,52.8 550.7,53.2 550.8,53 550.4,52.8 550.4,52.2 514.8,31.6 
	514.2,31.9 "/>
<polygon class="st0" points="514.4,31.6 514.4,31.6 514.1,31.8 "/>
<polygon class="st0" points="550.5,52.2 550.4,52.1 550.4,52.2 550.4,52.8 550.8,53 551,53.2 551.1,53 551.5,52.8 587.2,32.1 
	587.2,32.1 587.7,31.9 587.5,31.9 587.6,31.8 587.5,31.8 587.4,31.9 576.4,25.5 587,31.6 561.6,46.3 551.2,52.2 551.2,11 
	550.9,10.8 550.9,10.8 550.8,10.7 550.5,10.9 550.4,11 550.4,52.1 "/>
<polygon class="st0" points="587.2,32.1 587.2,32.1 587.7,31.9 "/>
<polygon class="st0" points="513.2,31.6 513.3,31.5 482.9,14 "/>
<polygon class="st0" points="477.5,52.4 477.5,52.6 477.5,52.7 477.6,52.8 477.6,53 477.9,52.8 513.6,32.1 514,31.9 514.1,31.8 
	514.1,31.7 514,31.8 513.9,31.9 513.3,31.5 513.2,31.6 513.3,31.6 477.6,52.2 477.6,11 477.3,10.8 477.5,10.7 477.4,10.7 
	477.2,10.7 477,10.9 477,52.2 "/>
<polygon class="st0" points="109,350.8 109,350.9 109.4,350.6 109.3,350.6 "/>
<polygon class="st0" points="73.1,371.6 73.3,371.5 73.3,371.4 "/>
<polygon class="st0" points="72.8,371.8 72.9,371.7 72.9,371.6 "/>
<path class="st0" d="M72.3,372l0.5-0.2L72.3,372z"/>
<polygon class="st0" points="71.8,371.5 71.9,371.5 46.6,386.1 36.2,392.1 36.2,350.8 71.8,371.5 71.9,371.5 35.9,350.6 35.5,350.8 
	35.5,392.1 36,392.3 36,392.3 36,392.3 36.5,392.7 72.2,372 72.7,371.8 72.5,371.6 72.4,371.8 71.9,371.5 "/>
<polygon class="st0" points="36,392.3 35.5,392.1 17.6,381.8 0.4,371.9 0.4,372.4 0.4,372.6 35.2,392.7 0.4,412.8 0.4,413.3 
	0.4,413.5 20.9,401.7 35.5,393.3 35.5,392.7 "/>
<polygon class="st0" points="35.5,392.1 36,392.3 36,392.3 "/>
<polygon class="st0" points="36,392.5 35.5,392.7 35.9,392.7 35.5,392.7 35.5,393.3 36.5,392.7 36.5,392.7 "/>
<polygon class="st0" points="329.8,223.4 329.8,223.5 330.2,223.2 330.2,223.2 "/>
<polygon class="st0" points="293.7,244.2 293.7,244.3 294.1,244.1 294.1,244.1 "/>
<polygon class="st0" points="293.6,244.3 293,244.7 293,244.7 293.7,244.3 293.7,244.2 "/>
<polygon class="st0" points="219.9,286.8 219.7,286.9 219.8,286.9 220.4,286.6 220.4,286.6 "/>
<polygon class="st0" points="293.4,244.3 293.4,244.3 293.3,244.3 293.3,244.3 292.7,244 292.6,244 292.7,244.1 257,264.6 
	257,223.4 292.6,244 292.7,244 272.1,232 256.7,223.2 256.4,223.4 256.4,264.6 256.8,264.9 257.3,265.2 293,244.6 293,244.7 
	293.6,244.3 293.5,244.3 "/>
<polygon class="st0" points="257.3,265.2 293,244.7 293,244.6 "/>
<polygon class="st0" points="220.3,286.5 220.4,286.6 220.4,286.5 256.3,265.8 256.3,265.2 256.3,265.2 256.7,265 256.3,264.6 
	220.4,244.1 220.1,244.2 220.1,244.7 255.9,265.2 220.1,285.9 220.1,286.5 219.9,286.6 219.9,286.8 "/>
<polygon class="st0" points="219.9,286.8 220.4,286.6 220.3,286.5 "/>
<polygon class="st0" points="256.7,265 256.7,265 256.7,265 256.3,265.2 256.6,265.2 256.3,265.2 256.3,265.2 256.3,265.8 
	256.3,265.9 257.3,265.3 257.2,265.2 "/>
<polygon class="st0" points="256.2,265.2 256.7,265 256.7,265 "/>
<polygon class="st0" points="220,244.3 220,244.2 219.9,244.3 "/>
<polygon class="st0" points="219.4,285.8 219.4,285.8 219.9,286 219.9,286 219.9,286.4 219.9,286.6 220,286.5 220,285.9 220,244.7 
	220,244.3 219.4,244.7 "/>
<polygon class="st0" points="219.4,244.6 219.9,244.3 219.9,244.3 219.8,244.3 219.7,244.3 219.7,244.3 219.6,244.3 219,244 
	218.9,244 219,244.1 183.3,264.6 183.3,223.4 218.9,244 219,244 183,223.2 182.7,223.4 182.7,264.6 183.2,264.9 183.7,265.2 "/>
<polygon class="st0" points="219.4,244.6 183.7,265.2 219.4,244.7 "/>
<path class="st0" d="M219.4,244.6l-35.7,20.6L219.4,244.6z"/>
<polygon class="st0" points="219.9,244.3 219.4,244.6 219.4,244.7 220,244.3 "/>
<polygon class="st0" points="182.6,264.8 146.9,244.1 146.6,244.3 146.6,244.7 182.3,265.2 146.6,285.9 146.6,286.4 146.9,286.5 
	182.6,265.8 182.6,265.2 183.1,265 "/>
<path class="st0" d="M219.9,286l-0.5-0.2l0,0l-35.7-20.6l-0.5-0.2l-0.5,0.2h0.4h-0.4v41.9l0.5,0.2v0.2l0.1,0.1v0.2l0.4-0.2
	l35.7-20.7l0.4-0.2l0.1-0.1V286L219.9,286z M219,286.6l-35.7,20.6v-41.3l35.6,20.6l0.1-0.1l-35.7-20.7l35.7,20.7l-0.1,0.1L219,286.6
	L219,286.6z"/>
<polygon class="st0" points="219.9,286 219.9,286 219.4,285.8 219.4,285.8 219.4,285.8 "/>
<polygon class="st0" points="440.8,159 440.8,159.1 440.7,159.2 440.7,159.4 440.2,159.7 440.2,159.7 441.3,159.1 441.2,159.1 "/>
<polygon class="st0" points="440.8,159 441.2,159.1 440.8,158.8 "/>
<polygon class="st0" points="404,180.6 404,180.6 404.4,180.4 404.4,180.4 "/>
<polygon class="st0" points="404,180.5 403.9,180.6 403.9,180.6 403.9,180.7 404,180.6 404,180.6 "/>
<polygon class="st0" points="367.9,201.5 403.3,181 403.3,180.9 "/>
<path class="st0" d="M403.8,180.6l-0.1,0.1L367,159.5l-0.4,0.2V201l0.5,0.2l0.5,0.4l0.2-0.1L403.8,180.6L403.8,180.6z M403,180.5
	l-35.7,20.6v-41.3l35.6,20.6l0.1-0.1l-0.1,0.1L403,180.5L403,180.5z"/>
<polygon class="st0" points="367.9,201.5 367.9,201.5 403.3,180.9 403.3,181 403.9,180.7 403.9,180.6 "/>
<polygon class="st0" points="367.2,201.4 366.7,201.2 330.9,180.4 330.5,180.6 330.5,181.1 366.1,201.6 366.2,201.5 366.1,201.6 
	366.2,201.6 330.5,222.3 330.5,222.8 330.5,222.9 330.4,222.9 330.4,223.1 330.9,222.8 330.9,222.8 330.9,222.8 331,222.8 
	330.9,222.7 366.6,202 333.2,221.5 366.7,202.2 366.7,201.6 "/>
<polygon class="st0" points="330.9,222.7 331,222.8 333.2,221.5 366.6,202 "/>
<polygon class="st0" points="366.7,201.6 367,201.6 366.7,201.6 366.7,202.2 367.6,201.6 367.2,201.4 "/>
<polygon class="st0" points="440.8,116.9 440.7,117 440.2,117.2 440.2,158.5 440.7,158.7 440.7,159.2 440.8,159.1 440.8,158.8 
	440.8,158.5 440.8,117.2 "/>
<polygon class="st0" points="367.7,159.1 367.3,159.4 367.3,159.4 367.2,159.4 367.3,159.4 367.3,159.2 367.3,159.1 367,159.3 
	366.9,159.4 403.6,180.6 403.7,180.5 403.3,180.2 403.3,179.8 "/>
<polygon class="st0" points="367.7,159.1 403.3,179.8 403.3,179.6 "/>
<polygon class="st0" points="439.7,116.6 439.6,116.7 439.8,116.7 404,137.3 404,96.1 439.6,116.7 439.7,116.6 403.7,95.8 
	403.3,96.1 403.3,137.3 403.8,137.6 403.8,137.6 403.8,137.6 404.3,137.8 404.4,137.9 440.1,117.2 440.6,117 440.5,116.9 440.3,117 
	"/>
<polygon class="st0" points="367.6,159.1 367.7,159.1 403.3,138.6 403.3,138.4 "/>
<polygon class="st0" points="367.7,116.7 367.4,117 367.4,117.2 402.9,137.8 403,137.8 402.9,137.8 403.1,137.9 367.4,158.6 
	367.4,159.1 367.3,159.1 403.3,138.4 403.3,137.8 403.7,137.6 403.5,137.4 "/>
<polygon class="st0" points="403.3,138.4 367.3,159.1 367.3,159.2 367.3,159.4 367.7,159.1 367.6,159.1 "/>
<path class="st0" d="M431.5,153.5l-27.1-15.6l-0.6-0.4h-0.1l0.2,0.1l-0.2,0.1l0,0l-0.2,0.1v0.6l-0.1,0.1v41.7l0.4,0.2l0.2,0.1
	l0.1-0.1l0.4-0.2l35.7-20.7l0.5-0.2v-0.6l-0.5-0.2L431.5,153.5l-26.9-15.6l0,0L431.5,153.5L431.5,153.5z M439.8,159.2l-3.5,2
	l-32.2,18.6v-41.3L439.8,159.2l0.1-0.1L439.8,159.2L439.8,159.2z"/>
<polygon class="st0" points="403.8,137.6 403.8,137.6 404.4,137.9 404.4,137.9 404.3,137.8 "/>
<polygon class="st0" points="403.3,138.4 403.3,138.6 403.5,138.5 403.5,137.9 403.7,137.8 403.3,137.8 "/>
<polygon class="st0" points="403.7,137.8 403.9,137.7 403.7,137.6 403.3,137.8 "/>
<polygon class="st0" points="366.7,117.2 366.7,158.5 367.2,158.7 367.2,159.2 367.3,159.1 367.3,158.5 367.3,116.9 367.2,117 "/>
<polygon class="st0" points="367,117 366.9,116.9 366.8,117 366.2,116.6 366.1,116.7 366.2,116.7 330.5,137.3 330.5,96.1 
	366.1,116.7 366.2,116.6 330.2,95.8 329.8,96.1 329.8,137.3 330.3,137.6 330.9,137.9 366.6,117.2 "/>
<polygon class="st0" points="293.7,116.9 293.7,117.2 329.3,137.8 329.4,137.8 329.3,137.8 329.4,137.9 293.7,158.5 293.7,158.8 
	294.1,159.1 329.8,138.4 329.8,137.8 330.3,137.6 329.8,137.3 294.1,116.6 "/>
<path class="st0" d="M367,159.1v-0.4l-0.5-0.2l-17.8-10.3l-17.9-10.3l-0.5-0.2l-0.5,0.2h0.4h-0.4v41.9l0.5,0.2v0.2l0.1,0.1v0.2
	l0.4-0.2l35.7-20.7l0.4-0.2l0.1-0.1L367,159.1L367,159.1L367,159.1z M366.2,159.2l-35.7,20.6v-41.3l35.6,20.6l0.1-0.1l-0.1,0.1
	L366.2,159.2L366.2,159.2z"/>
<polygon class="st0" points="330.5,180.4 330.4,180.2 330.4,180.4 330.4,180.6 330.4,180.7 329.8,181 329.8,222.2 330.3,222.4 
	330.3,222.6 330.3,222.9 330.4,222.9 330.5,222.8 330.5,222.3 330.5,222.3 330.5,181.1 330.5,181.1 330.5,180.6 330.5,180.5 "/>
<polygon class="st0" points="257.4,222.7 257.3,222.8 293,243.5 293,243.4 "/>
<polygon class="st0" points="256.8,223 257,222.9 257,222.8 256.7,222.9 256.6,223 256.8,223.1 256.8,223.1 "/>
<polygon class="st0" points="293.4,244.2 293.1,244.1 293.1,244 293,244 293,243.5 257.3,222.8 256.8,223.1 256.8,223.2 
	256.8,223.2 272.1,232 293.3,244.3 "/>
<polygon class="st0" points="292.7,244 292.7,244 293.3,244.3 293.3,244.3 272.1,232 "/>
<path class="st0" d="M294.1,159.1l-0.4-0.1v0.1l-0.1,0.1v0.2l-0.5,0.2v41.3l0.5,0.2l0.5,0.5l36.3-21v-0.5l-0.5-0.2L294.1,159.1z
	 M329.4,180.5l-35.7,20.6v-41.3l35.6,20.6l0.1-0.1l-0.1,0.1L329.4,180.5L329.4,180.5z"/>
<polygon class="st0" points="294.1,201.6 329.8,181 329.8,180.9 "/>
<polygon class="st0" points="293.7,159 294.1,159.1 293.7,158.8 "/>
<polygon class="st0" points="329.8,180.9 329.8,181 330.4,180.7 330.4,180.6 294.1,201.6 "/>
<polygon class="st0" points="257.4,222.7 293,202.2 293,202 257.3,222.7 "/>
<polygon class="st0" points="293,201.6 293.5,201.4 293,201.2 257.3,180.4 257,180.6 257,181.1 292.6,201.6 292.7,201.5 
	292.6,201.6 292.7,201.6 257,222.3 257,222.8 293,202 "/>
<polygon class="st0" points="256.7,223.2 256.8,223.2 256.8,223.1 "/>
<polygon class="st0" points="257.3,222.7 293,202 257,222.8 257,222.9 256.8,223 256.8,223.1 257.3,222.8 257.3,222.8 257.3,222.8 
	257.4,222.7 "/>
<path class="st0" d="M329.8,222.3l-35.7-20.7l-0.5-0.2l-0.5,0.2h0.4h-0.4v42.5l0.2,0.2h0.1l0.1-0.1l0.1,0.1l0.1-0.1l0.4-0.2
	l35.7-20.7l0.4-0.2l0.1-0.1v-0.4L329.8,222.3L329.8,222.3z M329.4,222.9l-35.7,20.6v-41.3l35.6,20.6l0.1-0.1l-0.1,0.1L329.4,222.9
	L329.4,222.9z"/>
<polygon class="st0" points="293.4,244.3 293.5,244.3 293.6,244.3 293.5,244.2 "/>
<polygon class="st0" points="293.4,244.2 293.4,244.2 293.1,244 293.1,244.1 "/>
<path class="st0" d="M256.6,180.7l0.1-0.1L256.6,180.7z"/>
<polygon class="st0" points="256.8,180.7 256.8,180.5 256.7,180.6 "/>
<polygon class="st0" points="256.8,180.7 256.3,181 256.3,222.2 256.7,222.4 256.7,222.9 256.8,222.8 "/>
<polygon class="st0" points="219.7,244.3 219.7,244.2 219.5,244.1 219.5,244 219.4,244 219.4,243.5 183.7,222.8 183.2,223.1 
	183.2,223.2 183.1,223.2 183.2,223.1 183.2,223 183.3,222.9 183.3,222.9 183.1,223 183,223.2 183,223.2 183.1,223.2 "/>
<polygon class="st0" points="219.4,243.5 219.4,243.4 183.7,222.8 183.7,222.8 "/>
<polygon class="st0" points="219,244 219,244 219.6,244.3 219.7,244.3 183.1,223.2 183,223.2 "/>
<path class="st0" d="M219.9,159.5l-0.4,0.2V201l0.5,0.2l0.5,0.4l36-21L219.9,159.5L219.9,159.5z M220.1,201v-41.3l35.7,20.6
	L220.1,201z"/>
<polygon class="st0" points="220.4,201.6 256.3,181 256.3,180.9 "/>
<polygon class="st0" points="256.7,180.6 256.6,180.7 256.6,180.7 220.4,201.6 256.3,180.9 256.3,181 256.8,180.7 "/>
<polygon class="st0" points="183.7,222.8 219.4,202.2 219.4,202.1 "/>
<polygon class="st0" points="218.9,201.6 183.3,180.9 183.3,181.1 "/>
<polygon class="st0" points="219.4,201.6 219.9,201.4 219.4,201.2 183.7,180.4 183.3,180.6 183.3,180.9 218.9,201.6 219,201.5 
	218.9,201.6 219,201.6 183.3,222.3 183.3,222.9 219.4,202.1 "/>
<polygon class="st0" points="183.2,223.2 183.2,223.1 183.1,223.2 "/>
<polygon class="st0" points="183.2,223 183.2,223.1 183.7,222.8 183.7,222.8 219.4,202.1 183.3,222.9 183.3,222.9 "/>
<path class="st0" d="M219.5,201.6h0.4H219.5v42.5l0.2,0.2h0.1l0.1-0.1l0.1,0.1l0.1-0.1l0.4-0.2l35.7-20.7l0.4-0.2l0.1-0.1v-0.4
	l-0.5-0.2l-35.6-20.7l-0.5-0.2L219.5,201.6L219.5,201.6z M220.1,202.2l35.6,20.6l0.1-0.1l-0.1,0.1l0.1,0.1l-35.7,20.6L220.1,202.2
	L220.1,202.2L220.1,202.2z"/>
<polygon class="st0" points="219.9,244.3 219.9,244.3 219.9,244.2 219.8,244.3 "/>
<polygon class="st0" points="219.7,244.2 219.7,244.2 219.5,244 219.5,244.1 "/>
<polygon class="st0" points="293.7,159 293.7,158.8 293.7,158.5 293.7,117.2 293.7,116.9 293.6,117 293,117.3 293,158.5 
	293.5,158.7 293.5,159.2 293.6,159.2 293.7,159.1 "/>
<polygon class="st0" points="256.3,179.8 220.5,159.1 219.9,159.4 219.9,159.3 219.7,159.4 256.5,180.6 256.6,180.5 256.3,180.2 "/>
<polygon class="st0" points="220.5,159.1 256.3,179.8 256.3,179.6 "/>
<polygon class="st0" points="257.4,137.9 293,117.2 293,117.3 293.6,117 293.5,116.9 293.4,117 293.3,116.9 293.3,117 292.7,116.6 
	292.6,116.7 292.7,116.7 257,137.3 257,96.1 292.6,116.7 292.7,116.6 256.7,95.9 256.4,96.1 256.4,137.3 256.8,137.6 257.1,137.7 
	257.2,137.8 "/>
<polygon class="st0" points="257.4,137.9 257.4,137.9 293,117.3 293,117.2 "/>
<polygon class="st0" points="256.3,138.4 256.3,137.9 256.3,137.8 256.7,137.6 256.3,137.3 220.4,116.6 220.1,116.9 220.1,117.2 
	255.8,137.8 255.9,137.8 255.8,137.8 255.9,137.9 220.1,158.5 220.1,159.1 219.9,159.2 219.9,159.3 "/>
<polygon class="st0" points="220.5,159.1 256.3,138.5 256.3,138.4 220.4,159.1 "/>
<polygon class="st0" points="220.5,159.1 220.4,159.1 256.3,138.4 219.9,159.3 219.9,159.4 "/>
<path class="st0" d="M256.6,137.8h-0.2l-0.2,0.1v42.3l0.4,0.2l0.1,0.1l0.1-0.1l0.4-0.2l35.7-20.7l0.5-0.2v-0.6l-0.5-0.2l-35.5-20.6
	l0,0l-0.2-0.2l-0.4-0.2l-0.3,0.2L256.6,137.8L256.6,137.8L256.6,137.8z M257,138.5l35.6,20.6l0.1-0.1l-0.1,0.1l0.1,0.1L257,179.8
	V138.5L257,138.5z"/>
<polygon class="st0" points="257.4,137.9 257.2,137.8 257.1,137.7 257.3,137.9 "/>
<polygon class="st0" points="256.4,137.8 256.7,137.6 256.3,137.8 "/>
<polygon class="st0" points="256.3,137.8 256.3,137.9 256.4,137.8 "/>
<polygon class="st0" points="219.4,158.5 219.4,158.5 219.9,158.7 219.9,159.1 219.9,159.2 220,159.1 220,158.5 220,117.2 220,117 
	219.4,117.3 "/>
<polygon class="st0" points="220,117 220,116.9 219.9,116.9 "/>
<path class="st0" d="M219.4,117.3l-35.7,20.6L219.4,117.3z"/>
<polygon class="st0" points="219.4,117.3 219.9,117 219.8,116.9 219.7,117 219.7,116.9 219.6,117 219.2,116.8 183.6,137.4 
	183.6,137.2 183.3,137.3 183.6,137.2 183.6,96.2 183,95.8 182.6,96.1 182.6,137.3 183.1,137.6 183.7,137.9 219.4,117.2 "/>
<polygon class="st0" points="183.6,96.1 183.6,96.2 218,116 "/>
<polygon class="st0" points="219.4,117.2 183.7,137.9 219.4,117.3 "/>
<polygon class="st0" points="219.9,117 219.4,117.3 219.4,117.3 220,117 219.9,116.9 "/>
<polygon class="st0" points="146.9,116.6 146.6,116.9 146.6,117.2 182.2,137.8 182.3,137.8 182.2,137.8 182.3,137.9 146.6,158.6 
	146.6,158.8 146.9,159.1 182.6,138.4 182.6,137.8 183.1,137.6 182.6,137.3 "/>
<path class="st0" d="M219.4,159.7l0.4-0.2l0.1-0.1v-0.7l-0.5-0.2l0,0l-35.7-20.6l-0.5-0.2l-0.5,0.2h0.4h-0.4v41.9l0.5,0.2v0.2
	l0.1,0.1v0.2l0.4-0.2L219.4,159.7z M183.3,138.5l35.6,20.6l0.1-0.1l-35.7-20.7L219,159l-0.1,0.1l0.1,0.1l-35.7,20.6V138.5
	L183.3,138.5z"/>
<polygon class="st0" points="219.4,158.5 219.4,158.5 219.9,158.7 "/>
<polygon class="st0" points="183.2,307.7 183.1,307.6 183.1,307.7 183.1,307.9 183.1,308 182.6,308.3 182.6,308.4 183.2,308 
	183.2,307.9 "/>
<polygon class="st0" points="110.2,350.2 110.2,350.1 109.5,350.5 109.4,350.6 109.4,350.6 110,350.3 110,350.2 "/>
<polygon class="st0" points="110.2,350.2 145.8,329.6 110.2,350.1 "/>
<path class="st0" d="M146.4,328.7l0.5,0.2l0,0l35.7-20.7l0,0l0.5-0.2v-0.4l-0.5-0.2l-17.9-10.3l-17.9-10.3l-0.4-0.2v0.2l-0.1,0.1
	v0.2l-0.3,0.1v41.2l0.1,0.1L146.4,328.7L146.4,328.7z M182.3,307.8l-35.7-20.7L182.3,307.8z M146.6,287.1l35.7,20.7l-17.9,10.3
	l-17.9,10.3L146.6,287.1L146.6,287.1L146.6,287.1z"/>
<polygon class="st0" points="182.6,308.3 183.1,308 183.1,307.9 182.6,308.2 "/>
<polygon class="st0" points="110.2,350.1 110.1,350.1 110.2,350.1 145.8,329.6 145.8,329.6 145.8,329 145.8,329 146.3,328.7 
	146.1,328.6 146,328.5 146,328.5 145.8,328.4 137.1,323.4 110,307.8 109.8,307.9 109.8,308.3 145.5,329 109.8,349.7 109.8,350.2 
	109.5,350.4 109.5,350.5 "/>
<polygon class="st0" points="109.8,308.4 145.5,329 109.8,308.3 "/>
<polygon class="st0" points="146.1,328.6 146,328.5 146,328.5 "/>
<polygon class="st0" points="146.3,328.7 146.3,328.7 146.3,328.7 145.8,329 146.2,329 145.8,329 145.8,329 145.8,329.6 
	145.8,329.6 145.8,329.6 146.9,329 146.8,329 "/>
<polygon class="st0" points="145.8,328.9 146.3,328.7 146.3,328.7 "/>
<polygon class="st0" points="109.4,349.8 109.5,349.9 109.5,350.4 109.7,350.2 109.7,349.7 109.7,308.4 109.7,308 109.5,308.2 
	109.1,308.4 109.1,349.6 "/>
<polygon class="st0" points="36.1,350.2 36,350.4 36,350.5 36.2,350.3 36.2,350.2 "/>
<polygon class="st0" points="36.2,350.5 36.1,350.6 36.1,350.5 36,350.5 35.9,350.6 71.9,371.5 71.9,371.4 71.9,371.5 72.4,371.8 
	72.5,371.6 72.2,371.4 72.2,370.8 36.6,350.2 36.2,350.3 "/>
<polygon class="st0" points="108.6,307.7 108.6,307.7 90.9,297.5 "/>
<polygon class="st0" points="108.6,307.7 108.6,307.7 108.7,307.8 83.4,322.5 73,328.4 73,287.2 72.5,286.9 72.2,287.1 72.2,287.2 
	72.3,287.1 72.2,287.2 72.2,328.4 72.7,328.6 72.7,328.6 72.8,328.6 73.3,328.8 73.4,328.9 109,308.3 109.4,308 109.3,307.9 
	109.2,308 "/>
<polygon class="st0" points="73,287.1 73,287.2 90.9,297.5 "/>
<polygon class="st0" points="36.2,308.3 36.2,308.4 71.9,329 "/>
<polygon class="st0" points="54.5,318.2 36.6,307.9 36.2,308.2 36.2,308.3 71.9,329 36.2,349.7 36.2,350.2 72.2,329.4 36.5,350.1 
	36.6,350.2 36.6,350.1 36.6,350.1 36.6,350.1 72.3,329.6 72.3,329.4 72.3,329 72.3,328.8 72.7,328.7 72.3,328.5 "/>
<polygon class="st0" points="72.2,329.4 36.2,350.2 36.2,350.3 36.6,350.2 36.5,350.1 "/>
<polygon class="st0" points="36.1,350.5 36.1,350.6 36.2,350.5 36.2,350.3 36,350.5 "/>
<path class="st0" d="M73.3,371.4l35.7-20.7l0.4-0.2l0.1-0.1v-0.5l-0.4-0.2v-0.1l-0.1-0.1l-35.6-20.6l-0.1,0.1l-0.5-0.3h-0.1l0.1,0.1
	l-0.2,0.1h0.1h-0.1l-0.2,0.1v42.3l0.4,0.2l0.1,0.2l0,0l0.1-0.1L73.3,371.4L73.3,371.4z M73,329.6l35.7,20.7L83.4,365L73,370.8
	C73,370.8,73,329.6,73,329.6z"/>
<polygon class="st0" points="109.4,349.8 109.4,349.8 109.1,349.6 109.1,349.7 "/>
<polygon class="st0" points="72.8,328.6 72.7,328.6 73.3,329 73.4,328.9 73.3,328.8 "/>
<polygon class="st0" points="72.3,329 72.5,328.8 72.3,328.8 "/>
<polygon class="st0" points="72.5,328.8 72.8,328.7 72.7,328.7 72.3,328.8 "/>
<polygon class="st0" points="145.7,285.8 145.7,285.8 113,266.9 "/>
<polygon class="st0" points="145.7,244.7 145.7,285.8 146.2,286 146.2,286.2 146.2,286.5 146.2,286.6 146.3,286.6 146.4,286.5 
	146.4,286.3 146.4,244.2 146.3,244.3 "/>
<polygon class="st0" points="109,307.1 73.4,286.5 109,307.1 109,307.1 73.3,286.4 73,286.6 73,286.6 72.9,286.8 72.8,286.8 
	72.7,286.9 108.7,307.7 108.7,307.7 108.7,307.7 109.2,308 109.3,307.9 109,307.7 "/>
<polygon class="st0" points="72.8,286.8 73,286.6 73,286.6 "/>
<polygon class="st0" points="109.9,264.6 109.9,223.5 109.8,223.4 109.8,264.6 "/>
<polygon class="st0" points="144,243.1 145.1,243.8 144.8,243.6 "/>
<polygon class="st0" points="146,244.3 146,244.3 145.6,244.1 109.9,264.8 109.9,264.6 109.8,264.6 109.8,223.4 109.5,223.3 
	109.2,223.5 109.2,264.8 109.7,265 110,265.2 145.7,244.6 145.7,244.7 146.3,244.3 146.2,244.3 146.1,244.3 146.1,244.3 "/>
<polygon class="st0" points="110,265.2 145.7,244.7 145.7,244.6 "/>
<polygon class="st0" points="109.1,264.8 73.4,244.1 73,244.3 73,244.7 108.7,265.2 73,285.9 73,286.6 73.3,286.4 73.3,286.4 
	109,265.7 73.3,286.4 73.3,286.4 109,265.9 109,265.8 109,265.2 109.4,265 109.5,265 109.5,265 "/>
<polygon class="st0" points="73.3,286.4 73.3,286.4 109,265.7 "/>
<polygon class="st0" points="72.9,286.8 73,286.6 73,286.6 72.8,286.8 "/>
<path class="st0" d="M146.2,286.2L113,267l-3.1-1.8l-0.4-0.2l-0.4,0.2h0.2h-0.2v0.6l-0.1,0.1v41.2l0,0l0.1,0.1l-0.1-0.1v0.5l0.4,0.2
	l0.2,0.1l0.1-0.1l0.4-0.2l35.7-20.7l0.5-0.2v-0.5H146.2z M145.5,286.6l-25.3,14.7l-10.4,5.9v-41.3l35.6,20.6l0.1-0.1l-0.1,0.1
	L145.5,286.6L145.5,286.6z"/>
<polygon class="st0" points="109,265.2 109.1,265.2 109.5,265 109.4,265 "/>
<polygon class="st0" points="109,265.8 109,265.9 109.1,265.8 109.1,265.2 109.1,265.2 109,265.2 "/>
<polygon class="st0" points="72.2,244.7 72.2,285.8 72.7,286 72.7,286 72.8,286.6 72.9,286.5 72.9,244.2 72.8,244.3 "/>
<polygon class="st0" points="36,264.9 36.5,265.1 36.6,265.2 72.2,244.6 72.2,244.7 72.8,244.3 72.8,244.3 72.6,244.2 72.5,244.3 
	72.5,244.3 72.4,244.3 72,244.1 36.4,264.8 36.4,264.5 36.1,264.6 36.4,264.5 36.4,223.5 36.1,223.4 36,223.3 35.7,223.5 
	35.7,264.7 35.8,264.8 35.9,264.9 "/>
<polygon class="st0" points="72.2,244.6 36.6,265.2 36.6,265.2 72.2,244.7 "/>
<polygon class="st0" points="35.5,265.7 35.5,265.2 35.5,265.1 35.9,264.9 35.8,264.8 35.7,264.8 35.7,264.7 35.5,264.6 0.4,244.4 
	0.4,245 0.4,245.3 35.2,265.2 0.4,285.3 0.4,285.9 0.4,286.2 35.5,265.8 "/>
<polygon class="st0" points="35.7,264.8 35.8,264.8 35.7,264.7 "/>
<path class="st0" d="M36.1,307.7v0.2l0.4-0.2l3.2-1.9L72.2,287l0.4-0.2l0.1-0.1v-0.6l-0.5-0.2l0,0l-35.6-20.7l-0.1,0.1l-0.4-0.2
	l-0.2-0.1l0,0l0.1,0.1l-0.2,0.1h0.1h-0.1l-0.2,0.1V307l0.4,0.2v0.2l0.1,0.1L36.1,307.7L36.1,307.7z M36.1,265.8l35.7,20.7
	l-35.7,20.7L36.1,265.8L36.1,265.8z"/>
<polygon class="st0" points="36.5,265.1 36,264.9 35.9,264.9 36.1,265 36.5,265.2 36.6,265.2 "/>
<polygon class="st0" points="36,265 35.9,264.9 35.5,265.1 35.8,265.1 "/>
<polygon class="st0" points="35.5,265.1 35.5,265.2 35.8,265.1 "/>
<polygon class="st0" points="36.1,349.7 36.1,307.9 36.1,307.7 36,307.6 36,307.7 36,307.9 36,308 35.5,308.4 35.5,349.4 36,349.7 
	36,349.9 36,350.3 36.1,350.2 "/>
<polygon class="st0" points="36.1,350.2 36.1,350.2 36,350.3 36,350.4 "/>
<polygon class="st0" points="35.5,308.2 36,307.9 36,307.7 36,307.6 36,307.4 35.5,307.2 0.4,286.9 0.4,287.6 0.4,287.7 35.1,307.7 
	35.2,307.7 35.1,307.7 35.2,307.8 0.4,327.8 0.4,328.5 0.4,328.6 35.5,308.4 "/>
<polygon class="st0" points="36,307.9 35.5,308.2 35.5,308.4 36,308 "/>
<polygon class="st0" points="35.9,350.6 35.9,350.4 36,350.3 36,349.9 35.5,349.7 17.6,339.3 0.4,329.3 0.4,330.2 0.4,330.2 
	35.1,350.2 35.2,350.1 35.1,350.2 35.2,350.2 0.4,370.2 0.4,371.1 35.5,350.8 "/>
<polygon class="st0" points="36,350.4 36,350.3 35.9,350.4 35.9,350.6 36,350.5 "/>
<polygon class="st0" points="183.1,180.6 183.1,180.7 182.6,180.9 182.6,222.1 183.1,222.3 183.1,222.9 183.2,222.8 183.2,180.5 
	183.2,180.4 183.1,180.2 183.1,180.4 "/>
<polygon class="st0" points="145.6,244.1 145.4,244 145.4,244 "/>
<polygon class="st0" points="145.1,243.8 145.4,244 145.4,244 "/>
<polygon class="st0" points="145.7,243.4 145.7,243.4 110.2,222.8 110.2,222.8 "/>
<polygon class="st0" points="145.7,243.4 110.2,222.8 109.5,223.2 109.5,223 109.7,222.9 109.7,222.8 109.5,222.9 109.4,223 
	109.4,223.1 109.7,223.3 143.8,243 144.8,243.6 145.5,244 145.5,244 145.5,244 146,244.3 146.1,244.2 145.8,244.1 145.8,244 
	145.7,244 "/>
<polygon class="st0" points="145.5,244 144.8,243.6 145.1,243.8 145.4,244 "/>
<polygon class="st0" points="145.6,244.1 145.6,244.1 146,244.3 146,244.3 145.5,244 145.4,244 "/>
<path class="st0" d="M146.6,158.8L146.6,158.8v0.2l-0.1,0.1v0.2l-0.5,0.2v41.3l0.5,0.2l0.5,0.5l35.7-20.7v-0.1l0.5-0.2v-0.4
	l-0.5-0.2L147,159.1l-0.4-0.1V158.8z M182.2,180.4l0.1-0.1L182.2,180.4l0.1,0.1l-35.7,20.6v-41.3L182.2,180.4L182.2,180.4z"/>
<polygon class="st0" points="146.6,159 146.9,159.1 146.6,158.8 "/>
<polygon class="st0" points="183.1,180.6 182.6,180.8 182.6,180.9 183.1,180.7 "/>
<polygon class="st0" points="145.3,201.6 145.5,201.5 145.3,201.6 145.4,201.6 141.8,203.6 109.7,222.2 109.7,222.8 145.7,202 
	110,222.7 110.2,222.8 145.8,202.2 145.8,201.6 146.3,201.4 145.8,201.2 110,180.4 109.7,180.6 109.7,180.9 "/>
<polygon class="st0" points="109.7,222.9 109.5,223 109.5,223.2 110.2,222.8 110.1,222.8 110.2,222.8 110.2,222.8 110,222.7 
	145.7,202 109.7,222.8 109.7,222.8 "/>
<path class="st0" d="M145.8,243.5v0.6l0.2,0.2h0.1l0.1-0.1l0.1,0.1l0.1-0.1l0.4-0.2l35.7-20.7l0.4-0.2l0.1-0.1v-0.4l-0.5-0.2
	l-17.9-10.3l-17.9-10.3l-0.5-0.2l-0.5,0.1h0.4h-0.4v0.6L145.8,243.5L145.8,243.5L145.8,243.5z M146.6,202.2l35.6,20.6l0.1-0.1
	l-0.1,0.1l0.1,0.1l-35.7,20.6L146.6,202.2L146.6,202.2L146.6,202.2z"/>
<polygon class="st0" points="146.3,244.3 146.2,244.2 146.1,244.3 146.2,244.3 "/>
<polygon class="st0" points="146.1,244.2 146.1,244.2 145.8,244 145.8,244.1 "/>
<polygon class="st0" points="109.5,180.6 109.5,180.7 109,181 109,222.2 105.2,220.1 109.5,222.6 109.5,222.8 109.7,222.8 
	109.7,222.2 109.7,180.9 109.7,180.6 109.7,180.5 "/>
<polygon class="st0" points="109.7,222.8 109.7,222.8 109.5,222.8 109.5,222.9 "/>
<polygon class="st0" points="36.1,222.9 36.1,222.9 36,223 36,223 "/>
<polygon class="st0" points="36.4,223.5 36.4,223.5 71.7,244 71.8,244 71.7,244 71.8,244.1 72,244.1 72.1,244.1 72.5,244.3 
	72.5,244.2 72.2,244 72.2,243.4 46.4,228.6 72.2,243.4 72.2,243.4 46.3,228.5 36.5,222.9 36.5,222.9 36,223.2 35.9,223.2 
	35.8,223.2 36,223.3 36,223.3 "/>
<polygon class="st0" points="36.4,223.5 36.4,223.5 36,223.3 36,223.3 36.1,223.4 "/>
<polygon class="st0" points="72,244.1 72.4,244.3 72.5,244.3 72.1,244.1 "/>
<polygon class="st0" points="109.3,180.7 108.7,180.4 83.4,195 73,201 73,159.8 98.1,174.2 72.7,159.5 72.3,159.8 72.3,201 
	72.8,201.3 73,201.5 73.3,201.6 109.5,180.6 109.4,180.6 "/>
<polygon class="st0" points="73.3,201.6 73.3,201.6 109,181 109,180.9 "/>
<path class="st0" d="M108.7,180.4l-10.6-6.2L108.7,180.4z"/>
<polygon class="st0" points="73.3,201.6 109,180.9 109,181 109.5,180.7 109.5,180.6 "/>
<path class="st0" d="M36.4,222.8l0.2,0.1l35.6-20.7v-0.6l0.5-0.2l-0.5-0.2l-35.7-20.8l-0.4,0.2v42.3
	C36.1,222.9,36.4,222.8,36.4,222.8z M36.2,180.9l35.7,20.7l-25.3,14.6l-10.4,6C36.2,222.2,36.2,180.9,36.2,180.9z"/>
<polygon class="st0" points="36.1,222.9 36.1,222.9 36,223 36,223.2 36.5,222.9 36.5,222.9 36.4,222.8 "/>
<path class="st0" d="M73.4,201.6L73.4,201.6l-0.3-0.2l-0.1-0.1l-0.5,0.2h0.4h-0.4V244l0.2,0.1l0,0l0.1,0.1l0,0l0.1-0.1l0.4-0.2
	l1.4-0.8l34.4-19.9l0.3-0.2h-0.1l0.1-0.1l0.1-0.1l-0.1-0.3l-24.7-14.3l20.5,11.8l-20.4-11.8L73.4,201.6L73.4,201.6z M108.7,222.9
	L73,243.5v-41.3L108.7,222.9z"/>
<polygon class="st0" points="72.6,244.2 72.8,244.3 72.7,244.2 "/>
<polygon class="st0" points="109.5,222.9 109.5,222.9 109.4,222.9 109.3,223 109.4,223.1 109.4,223 "/>
<polygon class="st0" points="109.4,222.6 109.5,222.9 109.5,222.8 109.5,222.6 105.2,220.1 84.7,208.3 "/>
<path class="st0" d="M73.3,201.6l-0.3-0.1L73.3,201.6z"/>
<polygon class="st0" points="146.3,159.2 146.4,159.2 146.4,159.1 "/>
<polygon class="st0" points="146.3,117 145.8,117.3 145.8,158.5 113.7,139.9 146.4,158.8 146.4,116.9 "/>
<polygon class="st0" points="72.8,159.4 72.8,159.2 72.7,159.3 72.5,159.4 109.2,180.6 109.3,180.5 109,180.2 109,179.7 73.3,159.1 
	"/>
<polygon class="st0" points="73.3,159.1 109,179.7 109,179.6 "/>
<polygon class="st0" points="146.2,116.9 146.1,117 146,116.9 146,117 145.4,116.7 145.4,116.7 145.5,116.7 109.8,137.3 109.8,96.1 
	145.4,116.7 145.4,116.7 109.4,95.8 109.4,95.8 109.4,95.8 109.1,96.1 109.1,137.3 109.5,137.6 109.8,137.7 109.9,137.8 
	110.1,137.9 145.8,117.2 145.8,117.3 146.3,117 "/>
<polygon class="st0" points="110.1,137.9 110.1,137.9 145.8,117.3 145.8,117.2 "/>
<path class="st0" d="M73.3,116.6L73.3,116.6l-0.4,0.2V159l-0.1,0.1v0.1l36.2-20.9v-0.6l0.4-0.2l-0.3-0.1
	C109.1,137.4,73.3,116.6,73.3,116.6z M108.7,137.9L73,158.6v-41.4L108.7,137.9v-0.2V137.9L108.7,137.9z"/>
<polygon class="st0" points="73.3,159.1 73.3,159.1 109,138.6 109,138.4 "/>
<polygon class="st0" points="73.3,159.1 73.3,159.1 109,138.4 72.8,159.2 72.8,159.4 "/>
<path class="st0" d="M109.8,137.7l-0.4-0.2h-0.1l0.2,0.1l-0.2,0.1l0,0l-0.2,0.1v0.6l-0.1,0.1v41.1l0,0l0.1,0.1l-0.1-0.1v0.5l0.4,0.2
	l0.2,0.1l0.1-0.1l0.4-0.2l35.7-20.7l0.5-0.2v-0.6l-32.8-18.9l-3.4-1.9l0,0L109.8,137.7L109.8,137.7z M145.5,159.1l-0.1,0.1l0.1,0.1
	L120.2,174l-10.4,5.9v-41.3l35.6,20.6L145.5,159.1z"/>
<polygon class="st0" points="110.1,137.9 109.9,137.8 109.8,137.7 110,137.9 "/>
<polygon class="st0" points="109.3,137.8 109.5,137.7 109.4,137.6 109,137.8 "/>
<polygon class="st0" points="109,138.4 109,138.6 109.1,138.5 109.1,137.9 109.3,137.8 109,137.8 "/>
<polygon class="st0" points="72.9,159.1 72.9,116.9 72.8,117 72.2,117.3 72.2,158.5 72.7,158.7 72.8,159.2 "/>
<polygon class="st0" points="36.6,137.8 72.2,117.2 72.2,117.3 72.8,117 72.7,116.9 72.5,117 72.5,116.9 72.4,117 71.8,116.6 
	71.7,116.7 71.8,116.7 36.1,137.3 36.1,96.1 71.7,116.7 71.8,116.6 35.9,95.8 35.5,96.1 35.5,137.3 36,137.6 36.5,137.8 "/>
<polygon class="st0" points="72.2,117.2 36.6,137.8 36.6,137.8 72.2,117.3 "/>
<polygon class="st0" points="35.5,138.4 35.5,137.9 35.5,137.8 36,137.6 35.5,137.3 0.4,117 0.4,117.8 35.1,137.8 35.2,137.8 
	35.1,137.8 35.2,137.9 0.4,157.9 0.4,158.6 0.4,158.7 35.5,138.5 "/>
<polygon class="st0" points="36.1,138.5 36.2,138.6 36.2,138.5 "/>
<path class="st0" d="M72.2,159.7l0.4-0.2l0.1-0.1v-0.6l-0.5-0.2L36.6,138l-0.1,0.1l-0.5-0.4l-0.3,0.2h0.2h-0.2l-0.2,0.1v41.7
	l0.5,0.2v0.2l0.1,0.1v0.3l0.4-0.2L72.2,159.7z M36.1,138.5L36.1,138.5l0.1,0.1l35.7,20.5l-35.7,20.7v-41.2
	C36.2,138.6,36.1,138.5,36.1,138.5z"/>
<polygon class="st0" points="36.6,137.8 36.5,137.8 36,137.6 36.5,137.9 "/>
<polygon class="st0" points="36.5,137.9 36.6,137.8 36.6,137.8 "/>
<polygon class="st0" points="36,137.6 35.5,137.8 35.7,137.8 "/>
<polygon class="st0" points="35.5,137.8 35.5,137.9 35.7,137.8 "/>
<polygon class="st0" points="35.5,222.2 36,222.4 36,222.6 36,222.9 36.1,222.8 36.1,180.6 36.1,180.5 36.1,180.4 36,180.2 
	36,180.6 0.4,201.2 35.5,180.9 "/>
<polygon class="st0" points="36,180.2 36,180.1 36,180 35.5,179.8 0.4,159.5 0.4,160.3 35.2,180.4 0.4,200.4 0.4,201.2 36,180.6 "/>
<polygon class="st0" points="35.8,223.2 35.8,223.2 35.9,223 36,223 36,222.9 36,222.6 35.5,222.2 0.4,202 0.4,202.8 35.2,222.8 
	0.4,242.9 0.4,243.4 0.4,243.6 35.5,223.4 "/>
<polygon class="st0" points="36,223.2 36,223 36,223 35.9,223 35.8,223.2 35.8,223.2 35.9,223.2 "/>
<polygon class="st0" points="441.4,73.9 477,94.6 477,94.5 "/>
<polygon class="st0" points="477.5,53 477.5,53.2 477,53.4 477,94.5 477.6,94.9 477.6,53.2 477.6,53 477.6,52.8 477.5,52.7 
	477.5,52.8 "/>
<polygon class="st0" points="477.6,95.3 477.5,95.5 477.6,95.5 "/>
<polygon class="st0" points="440.2,116.6 440.2,116 431.7,111.2 440.2,116 431.7,111.2 404.4,95.5 403.9,95.7 403.7,95.8 
	439.7,116.6 439.8,116.6 439.7,116.6 440.3,117 440.5,116.9 "/>
<path class="st0" d="M441.3,73.8l0.1,0.1L477,53.4v-0.1l0.5-0.2v-0.4l-0.5-0.2l-35.7-20.7l-0.5,0.2l-0.5,0.2v41.3l0.5,0.2l0.4,0.5
	l0.3-0.2L441.3,73.8L441.3,73.8z M476.6,52.8l-35.7-20.7L476.6,52.8z M440.8,73.5V32.2l35.7,20.7l-17.7,10.3L440.8,73.5z"/>
<polygon class="st0" points="477.5,53 477,53.3 477,53.4 477.5,53.2 "/>
<polygon class="st0" points="441.3,73.8 441.4,73.9 441.4,73.9 "/>
<polygon class="st0" points="403.9,95.5 404,95 403.9,94.9 "/>
<path class="st0" d="M440.1,74.1l0.5-0.2l-0.5-0.2l-8.7-5.1L404.3,53l-0.2,0.2v42.2l-0.1,0.1v0.1l-0.1,0.1h0.1l0.5-0.2l35.6-20.8
	L440.1,74.1L440.1,74.1z M404.2,94.9V53.4l35.7,20.7L404.2,94.9z"/>
<path class="st0" d="M441.2,116.6l35.7-20.5l0,0L441.2,116.6l35.7-20.5V96l0.4-0.2h0.2l0.1-0.1h-0.1l0.1-0.1v-0.5l-36.4-20.9
	l-0.5-0.2l-0.5,0.2h0.4h-0.4v42.5l0,0l0.4,0.2l0.1,0.1l0.1-0.1L441.2,116.6L441.2,116.6z M440.9,74.7l35.7,20.7l-35.7,20.7V74.7z"/>
<polygon class="st0" points="476.9,96.1 476.9,96.1 477,96.1 477.3,95.9 477.2,95.8 "/>
<polygon class="st0" points="477.3,95.7 477.4,95.7 477.5,95.7 477.5,95.6 "/>
<polygon class="st0" points="367.8,74 403.5,94.8 403.5,94.6 "/>
<polygon class="st0" points="403.5,94.6 403.9,94.9 403.9,53.2 404,53.1 404,53 403.9,53.2 403.5,53.4 "/>
<polygon class="st0" points="403.9,95.5 404,95.3 404,95 "/>
<polygon class="st0" points="403.9,94.9 404,95 404,53.1 403.9,53.2 "/>
<polygon class="st0" points="348.7,105.7 330.9,95.5 330.4,95.7 330.2,95.8 366.2,116.6 366.2,116.6 366.2,116.6 366.8,117 
	366.9,116.9 366.6,116.6 366.6,116.5 366.6,116 "/>
<polygon class="st0" points="367.7,74.1 367.8,74 367.7,74 367.8,74 403.3,53.4 403.8,53.2 403.7,53 403.6,53.2 403,52.8 
	402.9,52.9 403,52.9 367.3,73.5 367.3,32.2 402.9,52.9 403,52.8 366.9,32 366.6,32.2 366.6,73.5 367,73.7 367.5,74 "/>
<polygon class="st0" points="366.2,74.1 330.5,94.9 330.5,95.3 330.5,95.6 330.4,95.7 330.9,95.5 366.6,74.7 366.6,74.6 366.6,74.1 
	366.6,74 366.9,73.8 366.6,73.6 348.7,63.2 330.9,52.9 330.5,53.2 330.5,53.4 "/>
<path class="st0" d="M366.8,74h0.1H366.8l-0.2,0.1v42.3l0.4,0.2l0.2,0.2l0.1-0.1l0.4-0.2l35.7-20.7l-35.7,20.7l35.7-20.7l0.4-0.2
	l0.1-0.1V95l-36.2-20.8l0,0l-0.6-0.4l-0.1,0.1l0.1,0.1C367.1,73.9,366.8,74,366.8,74z M403.1,95.5l-35.7-20.7L403.1,95.5z
	 M367.3,74.7L403,95.5l-17.9,10.2L367.2,116V74.7L367.3,74.7L367.3,74.7z"/>
<polygon class="st0" points="367.7,74.1 367.5,74 367,73.7 367.6,74.1 "/>
<polygon class="st0" points="366.8,74 367,73.8 366.9,73.8 366.6,74 "/>
<polygon class="st0" points="366.6,74 366.6,74.1 366.8,74 "/>
<polygon class="st0" points="403,52.8 403,52.8 403,52.8 403.6,53.2 403.7,53 403.3,52.8 403.3,52.2 385.5,41.9 367.6,31.6 
	367.2,31.9 367,32 "/>
<polygon class="st0" points="403.3,52.8 403.7,53 403.9,53.2 404,53 404.4,52.8 440.1,32.1 440.6,31.9 440.5,31.8 440.3,31.9 
	439.7,31.5 439.6,31.6 439.8,31.6 404,52.2 404,10.9 439.6,31.6 439.7,31.5 403.7,10.7 403.3,10.9 403.3,52.2 "/>
<polygon class="st0" points="329.8,52.2 330.4,52.6 330.4,52.7 330.5,52.8 330.5,52.9 330.5,53 330.9,52.8 334.3,50.8 366.6,32.1 
	366.9,31.9 367,31.8 367,31.7 366.9,31.8 366.8,31.9 366.3,31.8 366.1,31.6 332,51.4 330.5,52.3 330.5,52.2 330.5,11 330.3,10.8 
	330.3,10.8 330.2,10.7 329.8,10.9 "/>
<polygon class="st0" points="330.3,95 330.3,95 330.4,95.1 330.4,95.5 330.5,95.3 330.5,94.9 330.5,94.9 330.5,53.4 330.5,53.4 
	330.5,53.2 330.5,53 330.5,52.9 330.4,52.8 330.4,53 330.3,53.1 330.3,53.2 329.9,53.3 329.9,94.6 294.4,73.9 294.4,73.9 
	324.4,91.6 "/>
<polygon class="st0" points="330.5,52.8 330.4,52.7 330.4,52.8 330.5,52.9 "/>
<polygon class="st0" points="293.3,116.9 293.4,116.9 293,116.6 293,116.5 293,116 284.5,111.2 257.3,95.5 293,74.7 256.7,95.7 
	256.6,95.8 256.7,95.9 256.7,95.8 "/>
<polygon class="st0" points="292.7,116.6 292.7,116.6 293.3,117 293.3,116.9 256.7,95.8 256.7,95.9 "/>
<path class="st0" d="M293.1,73.4l0.5,0.2L294,74l0.1,0.1l0.2-0.1l-0.1-0.1l0.1,0.1l35.4-20.5l0.1-0.1v-0.1l0.4-0.2v-0.5l-0.5-0.2
	L311.8,42l-17.7-10.4l-0.5,0.2l-0.5,0.3V73.4z M293.7,32.2l35.6,20.6l0.1-0.1l-0.1,0.1l0.1,0.1l-35.7,20.6
	C293.7,73.5,293.7,32.2,293.7,32.2z"/>
<polygon class="st0" points="330.3,53.1 329.9,53.3 329.9,53.3 330.3,53.2 "/>
<polygon class="st0" points="294.2,73.8 294.4,73.9 294.4,73.9 "/>
<path class="st0" d="M293,74.6V74l0.4-0.2l-0.4-0.2l-8.7-5.1l-27.1-15.6l-0.4,0.2v42.3l-0.1,0.1L293,74.6L293,74.6L293,74.6z
	 M257,94.9V53.4l35.7,20.7L257,94.9z"/>
<path class="st0" d="M294.1,116.6l35.7-20.7L294.1,116.6l35.7-20.7l0.4-0.2l0.1-0.1v-0.5l-5.8-3.4l-30.4-17.5l0,0L294,74l-0.5-0.2
	l-0.1,0.1l0.1,0.1l-0.2,0.1h0.1h-0.1l-0.2,0.1v42.3l0.4,0.2l0.1,0.1l0.1,0.1l0.1-0.1L294.1,116.6L294.1,116.6z M293.7,74.7
	l35.7,20.7l-17.9,10.3l-17.9,10.3L293.7,74.7L293.7,74.7L293.7,74.7z"/>
<polygon class="st0" points="324.4,91.6 330.3,95 330.3,95 "/>
<path class="st0" d="M294.1,74.1L294,74L294.1,74.1z"/>
<polygon class="st0" points="293.5,73.8 293.4,73.8 293,74 293.3,74 "/>
<polygon class="st0" points="293,74 293,74.1 293.3,74 "/>
<polygon class="st0" points="256.8,53 256.7,53.2 256.3,53.4 256.3,94.8 256.7,95 256.7,95.5 256.8,95.3 256.8,53.2 "/>
<polygon class="st0" points="218,116 219,116.6 219.2,116.8 219.3,116.7 219.7,116.9 219.7,116.9 219.6,116.9 219.3,116.6 
	219.3,116 219.3,116 218.1,115.3 183.7,95.5 183.2,95.7 183.1,95.8 183.6,96.1 183.6,96.1 "/>
<polygon class="st0" points="183.6,96.1 183.6,96.1 218,116 "/>
<polygon class="st0" points="219.2,116.8 219.6,117 219.7,116.9 219.3,116.7 "/>
<polygon class="st0" points="255.9,52.8 252,50.5 245.3,46.7 "/>
<polygon class="st0" points="256.6,53 256.5,53.2 255.9,52.8 230.6,67.5 220.1,73.5 220.1,32.2 245.3,46.7 219.7,32 219.4,32.2 
	219.4,73.5 219.9,73.7 220.4,74.1 256.3,53.4 256.7,53.2 "/>
<polygon class="st0" points="183.3,53.4 219,74.1 183.3,53.4 183.3,53.5 218.9,74.1 192,89.8 183.3,94.8 183.3,94.9 192.1,89.8 
	183.3,94.9 183.3,95.5 183.2,95.6 183.2,95.6 183.6,95.5 219.3,74.7 219.3,74.1 219.7,73.8 219.3,73.6 183.7,52.8 183.3,53 "/>
<polygon class="st0" points="183.2,95.7 183.2,95.6 183.1,95.7 "/>
<polygon class="st0" points="183.2,53.4 183.2,94.9 183.3,94.8 183.3,53.5 "/>
<path class="st0" d="M219.4,116.6l0.4,0.2h0.1l0.1-0.1l0.1,0.1l0.1-0.1l0.4-0.2l35.4-20.6l0.4-0.2l0.1-0.1V95l-0.5-0.2l-8.9-5.1
	l-27-15.5l-0.5-0.2l-0.5,0.2h0.4h-0.4V116l0.1,0.1v0.5L219.4,116.6L219.4,116.6z M220.1,74.7l35.7,20.7l-35.7,20.6
	C220.1,116.1,220.1,74.7,220.1,74.7z"/>
<polygon class="st0" points="219.9,116.9 219.8,116.9 219.9,117 "/>
<polygon class="st0" points="219.3,116.6 219.6,116.9 219.7,116.9 219.7,116.9 219.4,116.6 219.4,116 219.3,116 219.3,116 "/>
<polygon class="st0" points="255.9,52.8 256.5,53.2 256.6,53 256.3,52.8 256.3,52.2 256.3,52.2 238.4,41.9 220.4,31.6 220,31.9 
	219.9,32 252,50.5 "/>
<path class="st0" d="M255.9,52.8l-3.9-2.3L255.9,52.8z"/>
<polygon class="st0" points="256.3,52.8 256.6,53 256.7,53.2 256.8,53 257.2,52.8 260.6,50.8 292.9,32.1 293.4,31.9 293.3,31.8 
	293.3,31.9 293.2,31.8 293.1,31.9 293,31.8 292.8,31.8 292.6,31.7 258.5,51.4 257,52.3 257,52.2 257,11 256.7,10.8 256.8,10.8 
	256.6,10.7 256.3,10.9 256.3,52.2 256.3,52.2 "/>
<polygon class="st0" points="256.3,52.8 256.6,53 256.3,52.8 256.3,52.2 256.3,52.2 256.3,52.2 "/>
<polygon class="st0" points="182.7,52.2 183.2,52.4 183.2,52.7 183.3,52.8 183.3,53 183.7,52.8 219.4,32.1 219.7,31.9 219.7,31.9 
	219.7,31.9 219.9,31.8 219.8,31.7 219.7,31.8 219.6,31.9 219.1,31.8 218.9,31.6 183.4,52.2 183.4,52.1 183.3,52.2 183.4,52.1 
	183.4,11.1 183.1,10.8 183.2,10.8 183.1,10.7 182.7,10.9 "/>
<polygon class="st0" points="183.2,53 183.2,52.8 183.1,52.7 183.1,52.8 183.1,53 183.1,53.2 182.6,53.4 182.6,94.6 183.1,94.9 
	183.1,95.5 183.2,95.3 183.2,94.9 183.2,53.4 "/>
<polygon class="st0" points="145.7,116.6 145.7,116 127.9,105.7 110,95.5 109.5,95.7 109.4,95.8 145.5,116.6 145.5,116.6 
	145.5,116.6 146,116.9 146.1,116.9 "/>
<polygon class="st0" points="145.4,116.7 146,117 146,116.9 145.5,116.6 "/>
<polygon class="st0" points="109.4,95.8 109.4,95.8 145.4,116.7 145.5,116.6 "/>
<path class="st0" d="M146,32.2v41.2l0.5,0.2l0.5,0.5l35.7-20.7v-0.1l0.5-0.2v-0.4l-0.5-0.2l-17.9-10.4l-17.9-10.3l-0.5,0.2l-0.2,0.1
	l0,0L146,32.2L146,32.2z M182.3,52.8l-35.7-20.7L182.3,52.8z M146.6,32.2l35.7,20.7l-17.9,10.3l-17.9,10.3L146.6,32.2L146.6,32.2
	L146.6,32.2z"/>
<polygon class="st0" points="183.1,53 182.6,53.3 182.6,53.4 183.1,53.2 "/>
<polygon class="st0" points="110,95.5 145.8,74.7 145.8,74.1 146.3,73.7 145.8,73.5 110,52.8 109.8,53 109.8,53.4 143.8,73.1 
	145.5,74.1 120.2,88.8 145.5,74.1 120.2,88.8 109.8,94.9 109.8,95.5 109.5,95.5 109.5,95.7 "/>
<path class="st0" d="M146,74.1h0.4h-0.5v42.5l0.4,0.2l0.1,0.1l0.1-0.1l0.4-0.2L182.6,96l0.4-0.2l0.1-0.1v-0.6l-0.5-0.2l-17.7-10.3
	l-18-10.4l-0.5-0.2C146.4,73.9,146,74.1,146,74.1z M146.6,74.7l35.7,20.7L146.6,74.7l35.7,20.7l-34.5,19.9l-1.2,0.7l1.3-0.7
	l-1.3,0.7C146.6,116.1,146.6,74.7,146.6,74.7z"/>
<polygon class="st0" points="109.4,95 109.5,95.1 109.5,95.5 109.7,95.3 109.7,94.8 109.7,53.4 109.7,53 109.5,53.2 109.1,53.4 
	109.1,94.8 73.3,74.1 "/>
<polygon class="st0" points="72.5,116.9 72.2,116.6 72.2,116 36.5,95.5 36.2,95.6 36.2,95.6 36.1,95.7 36,95.7 35.9,95.8 "/>
<polygon class="st0" points="71.8,116.6 71.8,116.6 72.4,117 72.5,116.9 35.9,95.8 "/>
<polygon class="st0" points="109.5,53.2 109.4,53 109.2,53.2 108.7,52.9 108.6,52.9 90.9,63.2 73,73.5 73,32.2 72.7,32 72.3,32.2 
	72.3,73.5 72.8,73.7 73.3,74.1 109.1,53.4 "/>
<polygon class="st0" points="46.6,88.8 36.2,94.9 36.2,95.6 36.5,95.5 72.2,74.7 72.2,74.1 72.7,73.8 72.2,73.6 54.5,63.2 
	36.6,52.9 36.2,53.2 36.2,53.4 71.9,74.1 "/>
<polygon class="st0" points="36.2,95.6 36.2,95.6 36,95.7 36.1,95.7 "/>
<path class="st0" d="M72.8,117L72.8,117l0.5-0.3L109,95.9l0.4-0.2l0.1-0.1v-0.5L73.3,74.1l-0.5-0.2l-0.5,0.2h0.4h-0.4v42.5l0.4,0.2
	l0,0C72.7,116.9,72.8,117,72.8,117z M73,74.7l35.7,20.7L73,116C73,116,73,74.7,73,74.7z"/>
<polygon class="st0" points="109,95.9 73.3,116.6 73.3,116.6 "/>
<polygon class="st0" points="73.3,116.6 73.3,116.6 72.9,116.9 "/>
<polygon class="st0" points="72.7,116.9 72.7,116.9 72.8,117 "/>
<path class="st0" d="M109.4,95L73.3,74.1L109.4,95z"/>
<polygon class="st0" points="108.6,52.9 108.7,52.8 109.2,53.2 109.3,53 109,52.8 109,52.2 73.3,31.6 72.8,31.9 72.7,32 73,32.2 "/>
<polygon class="st0" points="108.6,52.9 108.7,52.9 109.2,53.2 108.7,52.8 "/>
<polygon class="st0" points="109.1,52.8 109.4,53 109.5,53.2 109.7,53 110,52.8 145.8,32.2 146,32.2 146,32.1 146.3,31.9 
	146.2,31.9 146.1,32 145.7,31.8 145.6,31.8 109.8,52.2 109.8,11.1 109.4,10.8 109.5,10.8 109.4,10.7 109.1,10.9 109.1,52.2 "/>
<polygon class="st0" points="146,32.2 146.3,32 146.3,31.9 146,32.1 "/>
<polygon class="st0" points="36.1,53 36.5,52.8 72.2,32.1 72.5,31.9 72.7,31.8 72.6,31.7 72.5,31.8 72.4,31.9 71.9,31.6 71.8,31.6 
	36.1,52.2 36.1,10.9 35.9,10.7 35.5,10.9 35.5,52.2 36,52.4 36,52.6 36,52.7 36.1,52.8 "/>
<polygon class="st0" points="36.1,53.4 36.1,53 36.1,52.8 36,52.7 36,52.8 36,53 36,53.2 35.5,53.4 35.5,94.6 36,94.9 36,95.1 
	36,95.5 36.1,95.3 "/>
<polygon class="st0" points="35.5,53.3 36,53 36,52.8 36,52.7 36,52.6 35.5,52.2 17.6,41.9 0.4,32 0.4,32.7 0.4,32.8 35.2,52.8 
	17.3,63.2 0.4,72.9 0.4,73.6 0.4,73.7 35.5,53.4 "/>
<polygon class="st0" points="36,53 35.5,53.3 35.5,53.4 36,53.2 "/>
<polygon class="st0" points="35.9,95.8 36,95.7 36,95.5 36,95.1 35.5,94.9 17.6,84.5 0.4,74.4 0.4,75.3 35.2,95.5 0.4,115.4 
	0.4,116.2 0.4,116.3 35.5,96.1 "/>
<polygon class="st0" points="698.2,10.7 698.1,10.8 698.1,10.8 698.9,10.4 698.8,10.4 "/>
<polygon class="st0" points="698.8,10.4 698.9,10.4 701.6,8.8 715.9,0.4 "/>
<polygon class="st0" points="698.2,10.1 698.2,10.7 698.8,10.4 698.8,10.4 698.8,10.4 715.9,0.4 715.3,0.4 714.6,0.4 707.9,4.3 
	698.4,9.8 698.4,0.4 697.7,0.4 697.7,9.8 "/>
<polygon class="st0" points="661.6,31 661.6,31.5 697.6,10.8 661.8,31.5 661.9,31.6 661.9,31.5 661.9,31.5 661.9,31.5 697.6,11 
	697.6,10.9 698,10.7 698,10.7 698.1,10.7 698.2,10.7 698.2,10.1 697.7,9.8 681.4,0.4 680.7,0.4 680.1,0.4 697.4,10.4 "/>
<polygon class="st0" points="697.6,10.8 661.6,31.5 661.6,31.6 661.3,31.7 661.3,31.8 661.3,31.8 661.3,31.9 661.9,31.6 661.8,31.5 
	"/>
<polygon class="st0" points="697.6,10.9 697.6,11 697.7,10.9 698,10.7 698,10.7 "/>
<polygon class="st0" points="661.3,31.7 661.2,31.8 661.3,31.8 661.3,31.8 "/>
<polygon class="st0" points="660.8,31 660.7,31 660.7,31 625.2,10.4 624.7,10.7 624.7,10.7 661.1,31.8 661.1,31.8 661.2,31.6 
	661.2,31.7 661.4,31.5 661.4,0.4 660.7,0.4 660.7,31 "/>
<polygon class="st0" points="624.8,10.9 624.8,11 636.7,17.8 "/>
<polygon class="st0" points="625.1,10.4 625.2,10.4 642.4,0.4 627.7,8.9 "/>
<polygon class="st0" points="661.2,31.6 661.1,31.8 661.2,31.7 "/>
<polygon class="st0" points="624.8,11 624.8,10.9 636.7,17.8 660.4,31.6 660.5,31.5 660.4,31.6 661,31.9 661.1,31.8 661.1,31.8 
	624.7,10.7 624.5,10.8 "/>
<polygon class="st0" points="624.5,10.1 624.5,10.7 624.6,10.7 625.1,10.4 625.1,10.4 627.7,8.9 642.3,0.4 641.5,0.4 641,0.4 
	634.1,4.3 624.8,9.8 634.2,4.3 624.8,9.8 624.8,0.4 624.5,0.4 624.1,0.4 624.1,9.8 "/>
<polygon class="st0" points="627.7,8.9 625.1,10.4 625.1,10.4 "/>
<polygon class="st0" points="624.4,10.6 624.4,10.6 624.4,10.1 624,9.9 607.8,0.5 606.7,0.5 616.4,6.1 606.7,0.5 606.3,0.5 
	616.3,6.2 623.6,10.4 623.7,10.4 623.6,10.4 623.6,10.5 587.9,31.2 587.9,31.5 587.9,31.5 587.9,31.6 587.6,31.8 587.7,31.9 
	588.1,31.6 588.2,31.7 588.3,31.6 624,10.9 624.1,10.9 624.1,10.8 "/>
<polygon class="st0" points="624.4,10.6 624.1,10.8 624.1,10.9 624.3,10.7 "/>
<polygon class="st0" points="587.7,31.9 587.8,31.9 588.2,31.7 588.1,31.6 "/>
<polygon class="st0" points="587.7,31.9 587.6,31.8 587.5,31.9 "/>
<polygon class="st0" points="576.4,25.5 569.1,21.3 551.2,11 551.2,11 "/>
<polygon class="st0" points="587.3,31 587.3,0.4 587.2,0.4 587.2,31 "/>
<polygon class="st0" points="587.2,31 587.2,31 551.5,10.4 551,10.7 550.9,10.8 551.2,11 551.2,10.9 569.1,21.3 587.4,31.9 
	587.5,31.8 587.9,31.5 587.9,31.2 587.9,0.4 587.7,0.4 587.3,0.4 587.3,31 "/>
<polygon class="st0" points="587.4,31.9 569.1,21.3 576.4,25.5 "/>
<polygon class="st0" points="551.2,10.9 551.2,11 569.1,21.3 "/>
<polygon class="st0" points="551.2,11 551.2,11 550.9,10.8 550.9,10.8 "/>
<polygon class="st0" points="551,10.1 551,10.7 551.5,10.4 551.5,10.4 568.7,0.4 567.7,0.4 567.4,0.4 565.1,1.7 551.2,9.8 
	551.2,0.4 550.8,0.4 550.5,0.4 550.5,9.8 "/>
<path class="st0" d="M551.5,10.4l17.2-10L551.5,10.4z"/>
<polygon class="st0" points="550.2,10.4 514.4,31 514.4,31.5 514.4,31.6 550.4,10.8 514.7,31.5 514.8,31.6 514.8,31.5 514.8,31.5 
	514.8,31.5 550.4,11 550.4,10.9 550.8,10.7 550.8,10.7 550.9,10.7 551,10.7 551,10.1 550.5,9.8 534.3,0.4 533.2,0.4 532.9,0.4 
	539.1,4 "/>
<polygon class="st0" points="514.1,31.8 514.2,31.9 514.8,31.6 514.7,31.5 550.4,10.8 514.4,31.6 514.4,31.6 "/>
<polygon class="st0" points="550.8,10.7 550.8,10.7 550.4,10.9 550.4,11 550.5,10.9 "/>
<polygon class="st0" points="513.8,31 513.6,31 513.6,31 478,10.4 477.5,10.7 477.5,10.7 513.9,31.8 514,31.6 514.1,31.7 
	514.4,31.5 514.4,31 514.4,0.4 513.9,0.4 513.6,0.4 513.6,31 "/>
<polygon class="st0" points="477.6,10.9 477.6,11 482.9,14 "/>
<polygon class="st0" points="477.6,11 477.6,10.9 482.9,14 513.3,31.5 513.3,31.5 513.3,31.5 513.9,31.9 514,31.8 514.1,31.7 
	514,31.6 513.9,31.8 477.5,10.7 477.3,10.8 "/>
<polygon class="st0" points="477.5,10.1 477.5,10.7 478,10.4 477.9,10.4 495.2,0.4 493.9,0.4 493.8,0.4 492.8,1 477.6,9.8 
	477.6,0.4 477,0.4 477,9.8 "/>
<polygon class="st0" points="478,10.4 495.2,0.4 477.9,10.4 "/>
<polygon class="st0" points="440.8,31 440.8,31.5 440.8,31.6 440.5,31.8 440.7,31.9 441.2,31.6 477,10.9 477.2,10.6 477.4,10.7 
	477.5,10.7 477.5,10.1 477,9.8 460.8,0.4 459.5,0.4 459.4,0.4 476.6,10.4 "/>
<polygon class="st0" points="477.4,10.7 477.2,10.6 477,10.9 477.2,10.7 "/>
<polygon class="st0" points="407.4,12.1 404.4,10.4 403.9,10.7 403.9,10.6 403.8,10.7 403.7,10.7 439.7,31.5 439.8,31.5 439.7,31.5 
	440.3,31.9 440.5,31.8 440.8,31.5 440.8,31 440.8,0.4 440.2,0.4 440.1,0.4 440.1,31 "/>
<polygon class="st0" points="404.5,10.4 421.7,0.4 421.5,0.4 404.4,10.4 "/>
<polygon class="st0" points="403.9,10.1 403.9,10.6 404.4,10.4 404.3,10.4 421.5,0.4 420.2,0.4 417.9,1.7 404,9.8 404,0.4 
	403.3,0.4 403.3,9.8 "/>
<polygon class="st0" points="404.4,10.4 404.4,10.4 404.4,10.4 404.4,10.4 421.5,0.4 404.3,10.4 "/>
<polygon class="st0" points="404.4,10.4 404.4,10.4 403.9,10.6 403.9,10.7 "/>
<polygon class="st0" points="403,10.4 385.1,20.6 367.3,30.9 367.3,31.5 367.3,31.6 366.9,31.9 367.2,31.9 367.6,31.6 403.3,10.9 
	403.7,10.7 403.8,10.6 403.8,10.1 403.3,9.9 387.1,0.4 386.5,0.4 385.8,0.4 397.5,7.2 385.8,0.4 385.7,0.4 397.4,7.2 "/>
<polygon class="st0" points="348.7,20.6 330.9,10.4 330.4,10.7 330.3,10.8 330.5,10.9 330.5,11 330.6,11.1 366.1,31.6 366.3,31.5 
	366.8,31.8 366.9,31.6 367,31.7 367.3,31.5 367.3,30.9 367.3,0.4 366.6,0.4 366.6,31 366.6,0.4 366.6,0.4 366.6,31 "/>
<polygon class="st0" points="330.5,11 330.5,10.9 330.3,10.8 330.3,10.8 "/>
<polygon class="st0" points="366.8,31.9 366.9,31.8 367,31.7 366.9,31.6 366.8,31.8 366.3,31.5 366.1,31.6 366.3,31.8 "/>
<polygon class="st0" points="330.4,10.1 330.4,10.7 330.9,10.4 330.9,10.4 348.1,0.4 347.3,0.4 346.7,0.4 345.8,1 330.5,9.8 
	330.5,0.4 330.4,0.4 329.8,0.4 329.8,9.8 "/>
<path class="st0" d="M330.9,10.4l17.2-10L330.9,10.4z"/>
<polygon class="st0" points="311.6,20.6 293.7,31 293.7,31.5 293.7,31.6 293.4,31.8 293.6,31.9 294.1,31.6 329.8,10.9 330.2,10.7 
	330.2,10.7 330.4,10.7 330.4,10.1 329.8,9.8 313.6,0.4 312.8,0.4 312.3,0.4 329.4,10.4 "/>
<polygon class="st0" points="257.3,10.4 257.4,10.4 274.6,0.4 259.9,8.9 "/>
<polygon class="st0" points="263,13.7 257.4,10.4 256.8,10.7 256.8,10.8 257,10.9 257,11 257.1,11.1 292.6,31.7 292.7,31.6 
	293,31.8 293.2,31.8 293.3,31.8 293.3,31.8 293.4,31.8 293.7,31.5 293.7,31 293.7,0.4 293.5,0.4 293,0.4 293,31 "/>
<polygon class="st0" points="293,31.8 292.7,31.6 292.6,31.7 292.8,31.8 "/>
<polygon class="st0" points="293.3,31.8 293.3,31.8 293.2,31.8 293.3,31.9 "/>
<polygon class="st0" points="257,11 257,10.9 256.8,10.8 256.7,10.8 "/>
<polygon class="st0" points="256.7,10.1 256.7,10.7 257.3,10.4 257.3,10.4 259.9,8.9 274.5,0.4 273.5,0.4 273.2,0.4 270.8,1.7 
	257,9.8 257,0.4 256.6,0.4 256.3,0.4 256.3,9.8 "/>
<polygon class="st0" points="257.3,10.4 257.3,10.4 259.9,8.9 "/>
<polygon class="st0" points="219.7,31.9 219.7,31.9 219.9,31.9 220.3,31.6 256.1,10.9 256.5,10.7 256.6,10.6 256.6,10.1 256.1,9.9 
	239.9,0.5 239,0.5 250.5,7.2 239,0.5 238.5,0.5 250.2,7.3 255.7,10.4 255.9,10.4 255.7,10.4 255.8,10.5 238,20.6 220.1,30.9 
	220.1,31.5 220.1,31.6 "/>
<polygon class="st0" points="183.7,10.4 183.2,10.7 183.2,10.8 183.4,10.9 183.4,11.1 218.9,31.6 219,31.5 218.9,31.6 218.9,31.6 
	219.1,31.5 219.6,31.8 219.7,31.6 219.8,31.7 220.1,31.5 220.1,30.9 220.1,0.4 219.6,0.4 219.4,0.4 219.4,31 "/>
<polygon class="st0" points="183.7,10.4 183.7,10.4 200.9,0.4 186.2,8.9 "/>
<polygon class="st0" points="183.4,11.1 183.4,10.9 183.2,10.8 183.1,10.8 "/>
<polygon class="st0" points="219.6,31.9 219.7,31.8 219.8,31.7 219.7,31.6 219.6,31.8 219.1,31.5 218.9,31.6 219.1,31.8 "/>
<polygon class="st0" points="183.1,10.1 183.1,10.7 183.7,10.4 183.7,10.4 186.2,8.9 200.8,0.4 199.6,0.4 199.5,0.4 198.6,1 
	183.3,9.8 183.3,0.4 182.7,0.4 182.6,0.4 182.6,9.8 "/>
<polygon class="st0" points="183.7,10.4 183.7,10.4 186.2,8.9 "/>
<polygon class="st0" points="146.6,31 146.6,31.6 146.2,31.8 146.3,31.9 146.9,31.6 182.6,10.9 183,10.7 183.1,10.7 183.1,10.1 
	182.6,9.8 181.6,9.2 166.4,0.4 165.1,0.4 165,0.4 182.3,10.4 "/>
<polygon class="st0" points="110.1,10.4 109.5,10.7 109.5,10.8 109.8,10.9 109.8,11.1 145.5,31.8 145.6,31.8 145.6,31.8 145.7,31.8 
	146,31.9 146.1,31.8 146.4,31.5 146.4,0.4 145.8,0.4 145.8,31 "/>
<polygon class="st0" points="109.8,11.1 109.8,10.9 109.5,10.8 109.4,10.8 "/>
<polygon class="st0" points="109.5,10 109.5,10.1 109.5,10.6 109.5,10.7 110.1,10.4 110,10.4 127.3,0.4 126,0.4 119.7,4 109.8,9.8 
	119.8,4 109.8,9.8 109.8,0.4 109.1,0.4 109.1,9.8 "/>
<polygon class="st0" points="110.1,10.4 127.3,0.4 110,10.4 "/>
<polygon class="st0" points="108.7,10.4 73,31 73,31.6 72.7,31.9 72.8,31.9 73.3,31.6 109.1,10.9 109.4,10.7 109.5,10.6 109.5,10.1 
	109.1,9.8 92.9,0.4 91.5,0.4 101.7,6.3 "/>
<polygon class="st0" points="109.1,9.8 109.5,10.1 109.5,10 "/>
<polygon class="st0" points="62,25.1 36.5,10.4 36,10.7 35.9,10.7 36.2,10.9 71.8,31.6 71.9,31.5 72.4,31.8 72.5,31.6 72.6,31.7 
	72.9,31.5 72.9,0.4 72.4,0.4 72.3,0.4 72.3,31 72.3,0.4 72.2,0.4 72.2,31 "/>
<polygon class="st0" points="72.4,31.9 72.5,31.8 72.6,31.7 72.5,31.6 72.4,31.8 71.9,31.5 71.8,31.6 71.9,31.6 "/>
<polygon class="st0" points="36,10.1 36,10.7 36.5,10.4 36.5,10.4 53.7,0.4 52.4,0.4 52.3,0.4 46.2,4 36.1,9.8 36.1,0.4 35.5,0.4 
	35.5,9.8 "/>
<path class="st0" d="M36.5,10.4l17.2-10L36.5,10.4z"/>
<polygon class="st0" points="35.9,10.7 36,10.7 36,10.1 35.5,9.8 19.3,0.4 17.9,0.4 35.2,10.4 0.4,30.5 0.4,31 0.4,31.2 35.5,10.9 
	"/>
<polygon class="st0" points="-2.3,-0.9 -2.3,-0.9 -0.9,-0.9 -0.9,0.5 -0.9,-0.9 -2.3,-0.9 -2.3,415.1 0.4,413.5 0.4,413.5 
	0.4,413.3 0.4,412.8 0.4,412.4 0.4,372.6 0.4,372.4 0.4,371.9 0.4,371.1 0.4,370.2 0.4,330.2 0.4,330.2 0.4,329.3 0.4,328.6 
	0.4,328.5 0.4,327.8 0.4,327.7 0.4,287.7 0.4,287.6 0.4,286.9 0.4,286.8 0.4,286.2 0.4,285.9 0.4,285.3 0.4,285.1 0.4,245.3 
	0.4,245 0.4,244.4 0.4,244.2 0.4,243.6 0.4,243.4 0.4,242.9 0.4,242.5 0.4,202.8 0.4,202 0.4,201.2 0.4,200.4 0.4,160.3 0.4,159.5 
	0.4,159.4 0.4,158.7 0.4,158.6 0.4,157.9 0.4,117.8 0.4,117 0.4,116.3 0.4,116.2 0.4,115.4 0.4,115.3 0.4,75.3 0.4,74.4 0.4,73.7 
	0.4,73.6 0.4,72.9 0.4,72.8 0.4,32.8 0.4,32.7 0.4,32 0.4,31.9 0.4,31.2 0.4,31 0.4,30.5 0.4,30.2 0.4,0.4 17.9,0.4 19.3,0.4 
	35.5,0.4 36.1,0.4 36.2,0.4 52.3,0.4 52.4,0.4 53.7,0.4 53.9,0.4 72.2,0.4 72.3,0.4 72.4,0.4 72.9,0.4 73,0.4 73.1,0.4 91.5,0.4 
	92.9,0.4 109.1,0.4 109.8,0.4 126,0.4 126,0.4 127.3,0.4 127.4,0.4 145.8,0.4 146.4,0.4 146.6,0.4 165,0.4 165.1,0.4 166.4,0.4 
	166.5,0.4 182.6,0.4 182.7,0.4 183.3,0.4 183.4,0.4 199.5,0.4 199.6,0.4 200.8,0.4 200.9,0.4 201.1,0.4 219.4,0.4 219.6,0.4 
	220.1,0.4 220.3,0.4 238.8,0.4 239,0.4 240.1,0.4 240.4,0.4 256.3,0.4 256.6,0.4 257,0.4 257.3,0.4 273.2,0.4 273.5,0.4 274.5,0.4 
	274.6,0.4 274.9,0.4 293,0.4 293.5,0.4 293.7,0.4 294.2,0.4 312.3,0.4 312.8,0.4 313.6,0.4 314.2,0.4 329.8,0.4 330.4,0.4 
	330.5,0.4 331.1,0.4 346.7,0.4 347.3,0.4 348.1,0.4 348.7,0.4 366.6,0.4 366.6,0.4 367.3,0.4 367.3,0.4 368,0.4 385.7,0.4 
	385.8,0.4 386.5,0.4 387.1,0.4 388,0.4 403.3,0.4 404,0.4 404.2,0.4 404.9,0.4 420.2,0.4 421.5,0.4 421.7,0.4 440.1,0.4 440.2,0.4 
	440.8,0.4 440.9,0.4 459.4,0.4 459.5,0.4 460.8,0.4 460.9,0.4 477,0.4 477.6,0.4 477.7,0.4 493.8,0.4 493.9,0.4 495.2,0.4 
	495.3,0.4 513.6,0.4 513.9,0.4 514.4,0.4 514.6,0.4 532.9,0.4 533.2,0.4 534.3,0.4 534.6,0.4 550.5,0.4 550.8,0.4 551.2,0.4 
	551.5,0.4 567.4,0.4 567.7,0.4 568.7,0.4 569.1,0.4 587.2,0.4 587.3,0.4 587.7,0.4 587.9,0.4 587.9,0.4 588.4,0.4 606.5,0.4 
	606.9,0.4 608.4,0.4 624.1,0.4 624.5,0.4 624.8,0.4 625.3,0.4 641,0.4 641.5,0.4 642.3,0.4 642.4,0.4 642.9,0.4 660.7,0.4 
	661.4,0.4 661.4,0.4 661.6,0.4 662.1,0.4 680,0.4 680.1,0.4 680.7,0.4 681.4,0.4 682.1,0.4 697.7,0.4 698.4,0.4 698.4,0.4 
	699.1,0.4 714.6,0.4 715.3,0.4 715.9,0.4 716.1,0.4 720.9,-2.3 -2.3,-2.3 "/>
</svg>
