<?xml version="1.0" encoding="utf-8"?>
<!-- Generator: Adobe Illustrator 28.2.0, SVG Export Plug-In . SVG Version: 6.00 Build 0)  -->
<svg version="1.1" id="Layer_1" xmlns="http://www.w3.org/2000/svg" xmlns:xlink="http://www.w3.org/1999/xlink" x="0px" y="0px"
	 viewBox="0 0 732.8 426.6" style="enable-background:new 0 0 732.8 426.6;" xml:space="preserve">
<style type="text/css">
	.st0{fill:#FFFFFF;}
	.st1{display:none;}
	.st2{display:inline;fill:#FFFFFF;}
</style>
<polygon class="st0" points="189,335.8 189,335.8 188.5,336 188.6,336.1 "/>
<polygon class="st0" points="225.2,314.9 225.6,314.7 225.6,314.6 225,315 225,315 "/>
<polygon class="st0" points="225.5,314.9 225.5,314.9 226.1,315.3 226.2,315.2 226.1,315.2 261.8,294.6 261.8,335.8 226.2,315.2 
	226.1,315.3 262.1,336 262.4,335.8 262.5,335.8 262.5,294.6 262.5,294.6 262.1,294.3 262.1,294.3 261.5,294 225.8,314.7 
	225.3,314.9 225.4,315 "/>
<polygon class="st0" points="262.5,294.6 262.5,294.6 298.2,315.3 298.6,315 298.6,314.7 298.5,314.6 298.5,314.7 264.1,294.8 
	262.9,294.1 262.9,294.1 262.9,294.1 262.8,294 298.5,273.3 298.5,273.5 298.6,273.4 298.6,273.1 298.2,272.8 262.5,293.5 
	262.5,294.1 262.1,294.3 262.1,294.3 "/>
<polygon class="st0" points="298.5,314.6 298.6,314.7 298.6,273.4 298.5,273.5 "/>
<polygon class="st0" points="262.5,294.6 262.5,294.6 262.5,294.6 262.1,294.3 262.1,294.3 262.1,294.3 "/>
<polygon class="st0" points="261.9,294.2 262.4,294 262.1,294 262.4,294 262.4,293.4 262.4,293.4 261.4,294 261.5,294 "/>
<polygon class="st0" points="78.3,399.6 78.1,399.8 78.1,399.8 "/>
<polygon class="st0" points="114.7,378.6 114.7,378.6 114.3,378.9 114.4,378.9 "/>
<polygon class="st0" points="78.1,399.9 78.1,400 78.2,399.9 78.3,399.9 78.1,399.8 78.1,399.8 78.1,399.8 77.4,400.2 77.5,400.2 
	"/>
<polygon class="st0" points="77.8,400.2 77.8,400.3 78.1,400.1 78.1,400.1 "/>
<polygon class="st0" points="78.1,399.8 78.1,399.8 78.1,399.8 "/>
<polygon class="st0" points="41.4,421 41.5,421.1 41.8,420.9 41.9,420.8 41.9,420.7 41.4,421 "/>
<polygon class="st0" points="78.2,400 78.1,400.1 78.2,400.1 78.3,400 78.3,400 78.3,400 78.3,400 78.4,399.9 79,400.2 79,400.2 
	78.9,400.2 114.6,379.6 114.6,420.8 114.9,421 114.7,421.1 114.8,421.1 114.9,421.1 114.9,421.1 115,421.2 115,421.2 115.1,421.1 
	115.3,420.9 115.3,379.7 114.9,379.5 114.9,379.2 114.7,379.1 114.7,378.8 114.6,378.8 114.3,379 78.6,399.7 78.3,399.9 78.3,399.9 
	"/>
<polygon class="st0" points="79,400.2 79,400.2 102.7,414 "/>
<polygon class="st0" points="78.3,399.9 78.3,399.9 78.2,399.9 78.1,400 78.2,400 "/>
<polygon class="st0" points="78.1,400.1 78.1,400.1 78.2,400 "/>
<rect x="150.8" y="357.8" class="st0" width="0" height="0.1"/>
<polygon class="st0" points="114.7,379 114.9,379.1 114.9,378.8 115,378.7 115,378.6 115.3,378.5 115.3,378.3 114.7,378.6 
	114.7,378.8 "/>
<polygon class="st0" points="188.4,336.2 188.5,336.1 188.5,336.1 187.9,336.4 187.9,336.4 "/>
<path class="st0" d="M151.7,399.9l0.5-0.2l0,0v-41.3l-0.5-0.2l-0.4-0.3h-0.1l-0.2-0.1l-0.2,0.1l0.1,0.1l-0.1-0.1l-35.4,20.5
	l-0.1,0.1v0.1l-0.4,0.2v0.3v0.2l0.5,0.2l8.7,5.1l27,15.6l0.4-0.2h0.2V399.9z M151.4,399.6L115.7,379l35.7,20.7L115.7,379l35.7-20.7
	V399.6z"/>
<polygon class="st0" points="115.3,378.5 115,378.6 115,378.7 "/>
<polygon class="st0" points="150.9,357.9 150.9,357.9 151,358 "/>
<polygon class="st0" points="152.1,358.3 187.9,379 188.2,378.8 188.2,378.4 152.4,357.7 188.2,337 188.2,336.4 188.3,336.4 
	188.4,336.4 188.4,336.2 187.9,336.4 152.2,357.1 152.2,357.2 152.2,357.8 151.7,358.1 151.7,358 151.6,358.1 "/>
<polygon class="st0" points="151.1,357.7 151.3,357.9 151.7,358 151.9,357.8 151.9,357.8 151.9,357.8 152.1,357.7 152.1,357.1 
	152.2,357.1 152.2,357 151,357.7 "/>
<polygon class="st0" points="151.3,357.9 151.1,357.7 151.1,357.7 151.3,357.8 "/>
<polygon class="st0" points="152.2,357.2 152.2,357.1 152.1,357.1 152.1,357.7 151.9,357.8 152.2,357.8 "/>
<polygon class="st0" points="152.2,357.8 151.9,357.8 151.7,358 151.7,358.1 "/>
<polygon class="st0" points="188.3,336.6 188.4,336.4 188.3,336.4 "/>
<polygon class="st0" points="188.3,378.4 188.3,378.8 188.4,378.6 188.9,378.4 188.9,337.3 188.3,336.9 188.3,337.1 "/>
<polygon class="st0" points="224.5,357.8 188.9,337.1 188.9,337.3 "/>
<polygon class="st0" points="225.8,315.9 261.4,336.5 261.5,336.4 261.9,336.2 262,336.2 226.1,315.3 226.1,315.3 226.1,315.3 
	225.5,314.9 225.4,315 225.4,315 225.4,315 225.8,315.3 225.8,315.4 225.8,315.4 "/>
<polygon class="st0" points="261.8,336.4 261.9,336.3 261.9,336.2 261.8,336.3 "/>
<rect x="225.5" y="314.9" class="st0" width="0" height="0.2"/>
<polygon class="st0" points="224.5,357.8 189,378.4 188.5,378.6 188.6,378.8 188.7,378.6 189.2,378.9 197.9,373.9 224.9,358.3 
	224.9,399.6 225.3,399.8 225.6,399.6 225.6,358.3 225.2,358.1 224.9,357.9 224.8,357.8 224.6,357.7 224.5,357.8 224.6,357.8 "/>
<polygon class="st0" points="224.6,357.8 224.5,357.8 224.5,357.8 "/>
<path class="st0" d="M261.5,378.9l0.4-0.2v-41.6L244,347.4l17.9-10.3v-0.5v-0.1v-0.1l-0.4,0.2l-0.1-0.1l-35.6,20.6v0.1v0.5v0.1
	l-0.4,0.2l0.4,0.2L261.5,378.9z M243.8,347.4l17.9-10.3v41.3l0,0l0,0l0,0L226,357.7L243.8,347.4z"/>
<polygon class="st0" points="261.8,336.4 261.8,336.3 261.9,336.2 261.5,336.4 261.4,336.5 261.5,336.6 "/>
<path class="st0" d="M224.9,357.9l0.4,0.2l0.1-0.1l-0.1-0.1l0.2-0.1h-0.1h0.1l0.2-0.1v-0.5v-0.1V316v-0.1l0,0v-0.5l-0.4-0.2
	l-0.2-0.2l-0.1,0.1l-0.4,0.2L188.9,336l35.7-20.7L188.9,336l-0.4,0.2l-0.1,0.1v0.2v0.4l36.2,20.8l0,0L224.9,357.9z M224.9,315.7
	v41.4l-35.7-20.7L224.9,315.7z"/>
<rect x="225.8" y="315.4" class="st0" width="0" height="0.5"/>
<polygon class="st0" points="224.9,357.9 224.7,357.7 224.6,357.7 224.8,357.8 "/>
<polygon class="st0" points="225.5,357.8 225.3,358 225.4,358 225.8,357.8 "/>
<polygon class="st0" points="225.8,357.7 225.5,357.8 225.8,357.8 "/>
<polygon class="st0" points="225.3,400 225.4,399.9 225,399.7 189.3,379 188.7,378.6 188.6,378.8 189,379 189,379.6 224.6,400.2 
	225.2,399.9 "/>
<polygon class="st0" points="225,400.2 225,400.2 225.3,400 "/>
<polygon class="st0" points="188.9,379.6 189,379.7 189,379.6 189,379 188.6,378.8 188.4,378.6 188.3,378.8 187.9,379 152.2,399.7 
	152.2,399.7 151.7,399.9 151.9,399.9 151.8,400 151.9,400 152,399.9 163,406.3 152.4,400.2 177.8,385.5 188.2,379.6 188.2,420.8 
	188.5,421 188.5,421 188.6,421.1 188.9,420.9 189,420.8 189,379.7 "/>
<polygon class="st0" points="152.2,399.7 152.2,399.7 151.7,399.9 "/>
<polygon class="st0" points="226.2,400.2 226.1,400.3 256.5,417.8 "/>
<polygon class="st0" points="261.9,379.4 261.9,379.2 261.9,379.1 261.8,379 261.8,378.8 261.5,379 225.8,399.7 225.4,399.9 
	225.3,400 225.3,400.1 225.4,400 225.5,399.9 226.1,400.3 226.2,400.2 226.1,400.2 261.8,379.6 261.8,420.8 262.1,421 261.9,421.1 
	262,421.1 262.2,421.1 262.4,420.9 262.4,379.6 "/>
<polygon class="st0" points="630.3,81.1 630.3,81 629.9,81.3 630,81.3 "/>
<polygon class="st0" points="666.2,60.3 666,60.4 666,60.5 "/>
<polygon class="st0" points="666.5,60.1 666.4,60.2 666.4,60.3 "/>
<path class="st0" d="M667,59.9l-0.5,0.2L667,59.9z"/>
<polygon class="st0" points="667.5,60.4 667.4,60.4 692.7,45.8 703.1,39.8 703.1,81.1 667.5,60.4 667.4,60.4 703.4,81.3 703.8,81.1 
	703.8,39.8 703.3,39.6 703.3,39.6 703.3,39.6 702.8,39.2 667.1,59.9 666.6,60.1 666.8,60.3 666.9,60.1 667.4,60.4 "/>
<polygon class="st0" points="703.3,39.6 703.8,39.8 721.7,50.1 738.9,60 738.9,59.5 738.9,59.3 704.1,39.2 738.9,19.1 738.9,18.6 
	738.9,18.4 718.4,30.2 703.8,38.6 703.8,39.2 "/>
<polygon class="st0" points="703.8,39.8 703.3,39.6 703.3,39.6 "/>
<polygon class="st0" points="703.3,39.4 703.8,39.2 703.4,39.2 703.8,39.2 703.8,38.6 702.8,39.2 702.8,39.2 "/>
<polygon class="st0" points="409.6,208.5 409.6,208.4 409.2,208.7 409.2,208.7 "/>
<polygon class="st0" points="445.7,187.7 445.7,187.6 445.3,187.8 445.3,187.8 "/>
<polygon class="st0" points="445.8,187.6 446.4,187.2 446.4,187.2 445.7,187.6 445.7,187.7 "/>
<polygon class="st0" points="519.4,145.1 519.6,145 519.5,145 518.9,145.3 518.9,145.3 "/>
<polygon class="st0" points="446,187.6 446,187.6 446.1,187.6 446.1,187.6 446.7,187.9 446.8,187.9 446.7,187.8 482.4,167.3 
	482.4,208.5 446.8,187.9 446.7,187.9 467.3,199.9 482.7,208.7 483,208.5 483,167.3 482.6,167 482.1,166.7 446.4,187.3 446.4,187.2 
	445.8,187.6 445.9,187.6 "/>
<polygon class="st0" points="482.1,166.7 446.4,187.2 446.4,187.3 "/>
<polygon class="st0" points="519,145.4 518.9,145.3 518.9,145.4 483.1,166.1 483.1,166.7 483.1,166.7 482.7,166.9 483.1,167.3 
	518.9,187.8 519.2,187.7 519.2,187.2 483.5,166.7 519.2,146 519.2,145.4 519.4,145.3 519.4,145.1 "/>
<polygon class="st0" points="519.4,145.1 518.9,145.3 519,145.4 "/>
<polygon class="st0" points="482.7,166.9 482.7,166.9 482.7,166.9 483.1,166.7 482.8,166.7 483.1,166.7 483.1,166.7 483.1,166.1 
	483.1,166 482.1,166.6 482.2,166.7 "/>
<polygon class="st0" points="483.2,166.7 482.8,166.9 482.8,166.9 "/>
<path class="st0" d="M483.1,166.7L483.1,166.7L483.1,166.7z"/>
<polygon class="st0" points="519.3,187.6 519.3,187.7 519.4,187.6 "/>
<polygon class="st0" points="519.9,146.1 519.9,146.1 519.4,145.9 519.4,145.9 519.4,145.5 519.4,145.3 519.3,145.4 519.3,146 
	519.3,187.2 519.3,187.6 519.9,187.2 "/>
<polygon class="st0" points="519.9,187.3 519.4,187.6 519.4,187.6 519.5,187.6 519.6,187.6 519.6,187.6 519.7,187.6 520.3,187.9 
	520.4,187.9 520.3,187.8 556,167.3 556,208.5 520.4,187.9 520.3,187.9 556.3,208.7 556.6,208.5 556.6,167.3 556.1,167 555.6,166.7 
	"/>
<polygon class="st0" points="519.9,187.3 555.6,166.7 519.9,187.2 "/>
<path class="st0" d="M519.9,187.3l35.7-20.6L519.9,187.3z"/>
<polygon class="st0" points="519.4,187.6 519.9,187.3 519.9,187.2 519.3,187.6 "/>
<polygon class="st0" points="556.7,167.1 592.4,187.8 592.7,187.6 592.7,187.2 557,166.7 592.7,146 592.7,145.5 592.4,145.4 
	556.7,166.1 556.7,166.7 556.2,166.9 "/>
<path class="st0" d="M519.4,145.9l0.5,0.2l0,0l35.7,20.6l0.5,0.2l0.5-0.2h-0.4h0.4v-0.6v-41.3l-0.5-0.2v-0.2l-0.1-0.1v-0.2l-0.4,0.2
	L519.9,145l-0.4,0.2l-0.1,0.1v0.2V145.9z M520.3,145.3l35.7-20.6V166l-35.6-20.6l-0.1,0.1l35.7,20.7l-35.7-20.7l0.1-0.1L520.3,145.3
	z"/>
<polygon class="st0" points="519.4,145.9 519.4,145.9 519.9,146.1 519.9,146.1 519.9,146.1 "/>
<polygon class="st0" points="298.6,272.9 298.6,272.8 298.7,272.7 298.7,272.5 299.2,272.2 299.2,272.2 298.1,272.8 298.2,272.8 "/>
<polygon class="st0" points="298.6,272.9 298.2,272.8 298.6,273.1 "/>
<polygon class="st0" points="335.4,251.3 335.4,251.3 335,251.5 335,251.5 "/>
<polygon class="st0" points="335.4,251.4 335.5,251.3 335.5,251.3 335.5,251.2 335.4,251.3 335.4,251.3 "/>
<polygon class="st0" points="371.5,230.4 336.1,250.9 336.1,251 "/>
<path class="st0" d="M335.6,251.3l0.1-0.1l36.7,21.2l0.4-0.2v-41.3l-0.5-0.2l-0.5-0.4l-0.2,0.1L335.6,251.3L335.6,251.3z
	 M336.4,251.4l35.7-20.6v41.3l-35.6-20.6l-0.1,0.1l0.1-0.1L336.4,251.4z"/>
<polygon class="st0" points="371.5,230.4 371.5,230.4 336.1,251 336.1,250.9 335.5,251.2 335.5,251.3 "/>
<polygon class="st0" points="372.2,230.5 372.7,230.7 408.5,251.5 408.9,251.3 408.9,250.8 373.3,230.3 373.2,230.4 373.3,230.3 
	373.2,230.3 408.9,209.6 408.9,209.1 408.9,209 409,209 409,208.8 408.5,209.1 408.5,209.1 408.5,209.1 408.4,209.1 408.5,209.2 
	372.8,229.9 406.2,210.4 372.7,229.7 372.7,230.3 "/>
<polygon class="st0" points="408.5,209.2 408.4,209.1 406.2,210.4 372.8,229.9 "/>
<polygon class="st0" points="372.7,230.3 372.4,230.3 372.7,230.3 372.7,229.7 371.8,230.3 372.2,230.5 "/>
<polygon class="st0" points="298.6,315 298.7,314.9 299.2,314.7 299.2,273.4 298.7,273.2 298.7,272.7 298.6,272.8 298.6,273.1 
	298.6,273.4 298.6,314.7 "/>
<polygon class="st0" points="371.7,272.8 372.1,272.5 372.1,272.5 372.2,272.5 372.1,272.5 372.1,272.7 372.1,272.8 372.4,272.6 
	372.5,272.5 335.8,251.3 335.7,251.4 336.1,251.7 336.1,252.1 "/>
<polygon class="st0" points="371.7,272.8 336.1,252.1 336.1,252.3 "/>
<polygon class="st0" points="299.7,315.3 299.8,315.2 299.6,315.2 335.4,294.6 335.4,335.8 299.8,315.2 299.7,315.3 335.7,336.1 
	336.1,335.8 336.1,294.6 335.6,294.3 335.6,294.3 335.6,294.3 335.1,294.1 335,294 299.3,314.7 298.8,314.9 298.9,315 299.1,314.9 
	"/>
<polygon class="st0" points="371.8,272.8 371.7,272.8 336.1,293.3 336.1,293.5 "/>
<polygon class="st0" points="371.7,315.2 372,314.9 372,314.7 336.5,294.1 336.4,294.1 336.5,294.1 336.3,294 372,273.3 372,272.8 
	372.1,272.8 336.1,293.5 336.1,294.1 335.7,294.3 335.9,294.5 "/>
<rect x="372" y="273.3" class="st0" width="0" height="0.2"/>
<polygon class="st0" points="371.8,272.8 371.7,272.8 371.7,272.8 "/>
<polygon class="st0" points="336.1,293.5 372.1,272.8 372.1,272.7 372.1,272.5 371.7,272.8 371.8,272.8 "/>
<polygon class="st0" points="372.1,272.5 372.1,272.5 372.2,272.5 "/>
<path class="st0" d="M307.9,278.4L335,294l0.6,0.4h0.1l-0.2-0.1l0.2-0.1l0,0l0,0l0.2-0.1v-0.6l0.1-0.1v-41.1v-0.1v-0.5l-0.4-0.2
	l-0.2-0.1l-0.1,0.1l-0.4,0.2l-35.7,20.7l-0.5,0.2v0.2v0.4l0.5,0.2L307.9,278.4l26.9,15.6l0,0L307.9,278.4z M299.6,272.7l3.5-2
	l32.2-18.6v41.3L299.6,272.7l-0.1,0.1L299.6,272.7L299.6,272.7z"/>
<polygon class="st0" points="335.6,294.3 335.6,294.3 335,294 335,294 335.1,294.1 "/>
<polygon class="st0" points="336.1,293.5 336.1,293.3 335.9,293.4 335.9,294 335.7,294.1 336.1,294.1 "/>
<polygon class="st0" points="335.7,294.1 335.5,294.2 335.7,294.3 336.1,294.1 "/>
<polygon class="st0" points="372.7,314.7 372.7,273.4 372.2,273.2 372.2,272.7 372.1,272.8 372.1,273.4 372.1,315 372.2,314.9 "/>
<polygon class="st0" points="372.4,314.9 372.5,315 372.6,314.9 373.2,315.3 373.3,315.2 373.2,315.2 408.9,294.6 408.9,335.8 
	373.3,315.2 373.2,315.3 409.2,336.1 409.6,335.8 409.6,294.6 409.1,294.3 408.5,294 372.8,314.7 "/>
<polygon class="st0" points="445.7,315 445.7,314.7 410.1,294.1 410,294.1 410.1,294.1 410,294 445.7,273.4 445.7,273.1 
	445.3,272.8 409.6,293.5 409.6,294.1 409.1,294.3 409.6,294.6 445.3,315.3 "/>
<path class="st0" d="M372.4,272.8v0.4l0.5,0.2l17.8,10.3l17.9,10.3l0.5,0.2l0.5-0.2h-0.4h0.4v-0.6v-41.3l-0.5-0.2v-0.1v-0.1
	l-0.1-0.1v-0.1v-0.1l-0.4,0.2l-35.7,20.7l-0.4,0.2l-0.1,0.1L372.4,272.8L372.4,272.8z M373.2,272.7l35.7-20.6v41.3l-35.6-20.6
	l-0.1,0.1l0.1-0.1L373.2,272.7z"/>
<polygon class="st0" points="408.9,251.5 409,251.7 409,251.5 409,251.3 409,251.2 409.6,250.9 409.6,209.7 409.1,209.5 
	409.1,209.3 409.1,209 409,209 408.9,209.1 408.9,209.6 408.9,209.6 408.9,250.8 408.9,250.8 408.9,251.3 408.9,251.4 "/>
<polygon class="st0" points="408.9,209.6 408.9,209.6 408.9,209.7 408.9,250.8 408.9,250.8 "/>
<polygon class="st0" points="482,209.2 482.1,209.1 446.4,188.4 446.4,188.5 "/>
<polygon class="st0" points="482.6,208.9 482.4,209 482.4,209.1 482.7,209 482.8,208.9 482.6,208.8 482.6,208.8 "/>
<polygon class="st0" points="446,187.7 446.3,187.8 446.3,187.9 446.4,187.9 446.4,188.4 482.1,209.1 482.6,208.8 482.6,208.7 
	482.6,208.7 467.3,199.9 446.1,187.6 "/>
<polygon class="st0" points="446.7,187.9 446.7,187.9 446.1,187.6 446.1,187.6 467.3,199.9 "/>
<path class="st0" d="M445.3,272.8l0.4,0.1v-0.1l0.1-0.1v-0.2l0.5-0.2V231l-0.5-0.2l-0.5-0.5l-36.3,21v0.2v0.2v0.1l0.5,0.2
	L445.3,272.8z M410,251.4l35.7-20.6v41.3l-35.6-20.6l-0.1,0.1l0.1-0.1L410,251.4z"/>
<polygon class="st0" points="445.3,230.3 409.6,250.9 409.6,251 "/>
<polygon class="st0" points="445.7,272.9 445.3,272.8 445.7,273.1 "/>
<polygon class="st0" points="409.6,251 409.6,250.9 409,251.2 409,251.3 445.3,230.3 "/>
<polygon class="st0" points="482,209.2 446.4,229.7 446.4,229.9 482.1,209.2 "/>
<polygon class="st0" points="446.4,230.3 445.9,230.5 446.4,230.7 482.1,251.5 482.4,251.3 482.4,250.8 446.8,230.3 446.7,230.4 
	446.8,230.3 446.7,230.3 482.4,209.6 482.4,209.1 446.4,229.9 "/>
<polygon class="st0" points="482.7,208.7 482.6,208.7 482.6,208.8 "/>
<polygon class="st0" points="482.1,209.2 446.4,229.9 482.4,209.1 482.4,209 482.6,208.9 482.6,208.8 482.1,209.1 482.1,209.1 
	482.1,209.1 482,209.2 "/>
<polygon class="st0" points="482.6,208.8 482.6,208.8 482.6,208.7 482.6,208.7 "/>
<path class="st0" d="M409.6,209.6l35.7,20.7l0.5,0.2l0.5-0.2h-0.4h0.4v-0.6v-41.3v-0.6l-0.2-0.2l0,0H446l-0.1,0.1l-0.1-0.1l-0.1,0.1
	l-0.4,0.2l-35.7,20.7l-0.4,0.2l-0.1,0.1v0.4L409.6,209.6z M410,209l35.7-20.6v41.3l-35.6-20.6l-0.1,0.1l0.1-0.1L410,209z"/>
<polygon class="st0" points="446,187.6 445.9,187.6 445.8,187.6 445.9,187.7 "/>
<polygon class="st0" points="446,187.7 446,187.7 446.3,187.9 446.3,187.8 "/>
<path class="st0" d="M482.8,251.2l-0.1,0.1L482.8,251.2z"/>
<polygon class="st0" points="482.6,251.2 482.6,251.4 482.7,251.3 "/>
<polygon class="st0" points="482.6,251.2 483.1,250.9 483.1,209.7 482.7,209.5 482.7,209 482.6,209.1 "/>
<polygon class="st0" points="519.6,187.6 519.6,187.7 519.8,187.8 519.8,187.9 519.9,187.9 519.9,188.4 555.6,209.1 556.1,208.8 
	556.1,208.7 556.2,208.7 556.1,208.8 556.1,208.9 556,209 556,209 556.2,208.9 556.3,208.7 556.3,208.7 556.2,208.7 "/>
<polygon class="st0" points="519.9,188.4 519.9,188.5 555.6,209.1 555.6,209.1 "/>
<polygon class="st0" points="520.3,187.9 520.3,187.9 519.7,187.6 519.6,187.6 556.2,208.7 556.3,208.7 "/>
<path class="st0" d="M519.4,272.4l0.4-0.2v-41.3l-0.5-0.2l-0.5-0.4l-36,21L519.4,272.4z M519.2,230.9v41.3l-35.7-20.6L519.2,230.9z"
	/>
<polygon class="st0" points="518.9,230.3 483.1,250.9 483.1,251 "/>
<polygon class="st0" points="482.7,251.3 482.8,251.2 482.8,251.2 518.9,230.3 483.1,251 483.1,250.9 482.6,251.2 "/>
<polygon class="st0" points="555.6,209.1 519.9,229.7 519.9,229.8 "/>
<polygon class="st0" points="520.4,230.3 556,251 556,250.8 "/>
<polygon class="st0" points="519.9,230.3 519.4,230.5 519.9,230.7 555.6,251.5 556,251.3 556,251 520.4,230.3 520.3,230.4 
	520.4,230.3 520.3,230.3 556,209.6 556,209 519.9,229.8 "/>
<polygon class="st0" points="520.3,230.3 520.4,230.3 520.4,230.3 "/>
<polygon class="st0" points="556.1,208.7 556.1,208.8 556.2,208.7 "/>
<polygon class="st0" points="556.1,208.9 556.1,208.8 555.6,209.1 555.6,209.1 519.9,229.8 556,209 556,209 "/>
<path class="st0" d="M555.6,209.1L555.6,209.1L555.6,209.1z"/>
<path class="st0" d="M519.8,230.3h-0.4H519.8v-0.6v-41.3v-0.6l-0.2-0.2l0,0h-0.1l-0.1,0.1l-0.1-0.1l-0.1,0.1l-0.4,0.2l-35.7,20.7
	l-0.4,0.2l-0.1,0.1v0.4l0.5,0.2l35.6,20.7l0.5,0.2L519.8,230.3z M519.2,229.7l-35.6-20.6l-0.1,0.1l0.1-0.1l-0.1-0.1l35.7-20.6V229.7
	L519.2,229.7z"/>
<polygon class="st0" points="519.4,187.6 519.4,187.6 519.4,187.7 519.5,187.6 "/>
<polygon class="st0" points="519.6,187.7 519.6,187.7 519.8,187.9 519.8,187.8 "/>
<polygon class="st0" points="445.7,272.9 445.7,273.1 445.7,273.4 445.7,314.7 445.7,315 445.8,314.9 446.4,314.6 446.4,273.4 
	445.9,273.2 445.9,272.7 445.8,272.7 445.7,272.8 "/>
<polygon class="st0" points="483.1,252.1 518.8,272.8 519.4,272.5 519.4,272.6 519.6,272.5 482.9,251.3 482.8,251.4 483.1,251.7 "/>
<polygon class="st0" points="518.8,272.8 483.1,252.1 483.1,252.3 "/>
<polygon class="st0" points="482,294 446.4,314.7 446.4,314.6 445.8,314.9 445.9,315 446,314.9 446.1,315 446.1,314.9 446.7,315.3 
	446.8,315.2 446.7,315.2 482.4,294.6 482.4,335.8 446.8,315.2 446.7,315.3 482.7,336 483,335.8 483,294.6 482.6,294.3 482.3,294.2 
	482.2,294.1 "/>
<polygon class="st0" points="482,294 482,294 446.4,314.6 446.4,314.7 "/>
<polygon class="st0" points="483.1,293.5 483.1,294 483.1,294.1 482.7,294.3 483.1,294.6 518.9,315.3 519.2,315 519.2,314.7 
	483.6,294.1 483.5,294.1 483.6,294.1 483.5,294 519.2,273.4 519.2,272.8 519.4,272.7 519.4,272.6 "/>
<polygon class="st0" points="518.8,272.8 483.1,293.4 483.1,293.5 518.9,272.8 "/>
<polygon class="st0" points="518.9,272.8 518.8,272.8 518.8,272.8 "/>
<polygon class="st0" points="518.8,272.8 518.9,272.8 483.1,293.5 519.4,272.6 519.4,272.5 "/>
<path class="st0" d="M482.8,294.1h0.2l0.2-0.1v-0.5v-0.1v-41.1v-0.1v-0.5l-0.4-0.2l-0.1-0.1l-0.1,0.1l-0.4,0.2l-35.7,20.7l-0.5,0.2
	v0.2v0.4l0.5,0.2L482,294l0,0l0.2,0.2l0.4,0.2l0.3-0.2L482.8,294.1L482.8,294.1z M482.4,293.4l-35.6-20.6l-0.1,0.1l0.1-0.1l-0.1-0.1
	l35.7-20.6V293.4z"/>
<polygon class="st0" points="482,294 482.2,294.1 482.3,294.2 482.1,294 "/>
<polygon class="st0" points="482.1,294 482,294 482,294 "/>
<polygon class="st0" points="483,294.1 482.7,294.3 483.1,294.1 "/>
<polygon class="st0" points="483.1,294.1 483.1,294 483,294.1 "/>
<polygon class="st0" points="519.9,273.4 519.9,273.4 519.4,273.2 519.4,272.8 519.4,272.7 519.3,272.8 519.3,273.4 519.3,314.7 
	519.3,314.9 519.9,314.6 "/>
<polygon class="st0" points="519.3,314.9 519.3,315 519.4,315 "/>
<path class="st0" d="M519.9,314.6l35.7-20.6L519.9,314.6z"/>
<polygon class="st0" points="519.9,314.6 519.4,314.9 519.5,315 519.6,314.9 519.6,315 519.7,314.9 520.1,315.1 555.7,294.5 
	555.7,294.7 556,294.6 555.7,294.7 555.7,335.7 556.3,336.1 556.7,335.8 556.7,294.6 556.2,294.3 555.6,294 519.9,314.7 "/>
<polygon class="st0" points="555.7,335.8 555.7,335.7 521.3,315.9 "/>
<polygon class="st0" points="519.9,314.7 555.6,294 519.9,314.6 "/>
<polygon class="st0" points="519.4,314.9 519.9,314.6 519.9,314.6 519.3,314.9 519.4,315 "/>
<polygon class="st0" points="592.4,315.3 592.7,315 592.7,314.7 557.1,294.1 557,294.1 557.1,294.1 557,294 592.7,273.3 
	592.7,273.1 592.4,272.8 556.7,293.5 556.7,294.1 556.2,294.3 556.7,294.6 "/>
<path class="st0" d="M519.9,272.2l-0.4,0.2l-0.1,0.1v0.2v0.1v0.4l0.5,0.2l0,0l35.7,20.6l0.5,0.2l0.5-0.2h-0.4h0.4v-0.6v-41.3
	l-0.5-0.2v-0.2l-0.1-0.1v-0.2l-0.4,0.2L519.9,272.2z M556,293.4l-35.6-20.6l-0.1,0.1l35.7,20.7l-35.7-20.7l0.1-0.1l-0.1-0.1
	l35.7-20.6V293.4z"/>
<polygon class="st0" points="519.9,273.4 519.9,273.4 519.4,273.2 "/>
<polygon class="st0" points="556.1,124.2 556.2,124.3 556.2,124.2 556.2,124 556.2,123.9 556.7,123.6 556.7,123.5 556.1,123.9 
	556.1,124 "/>
<polygon class="st0" points="629.1,81.7 629.1,81.8 629.8,81.4 629.9,81.3 629.9,81.3 629.3,81.6 629.3,81.7 "/>
<polygon class="st0" points="629.1,81.7 593.5,102.3 629.1,81.8 "/>
<path class="st0" d="M592.9,103.2l-0.5-0.2l0,0l0,0l0,0l-35.7,20.7l0,0l-0.5,0.2v0.2v0.1v0.1l0.5,0.2l17.9,10.3l17.9,10.3l0.4,0.2
	v-0.2l0.1-0.1v-0.2l0.3-0.1v-41.2l-0.1-0.1L592.9,103.2z M557,124.1l35.7,20.7L557,124.1z M592.7,144.8L557,124.1l17.9-10.3
	l17.9-10.3L592.7,144.8L592.7,144.8z"/>
<polygon class="st0" points="556.7,123.6 556.2,123.9 556.2,124 556.7,123.7 "/>
<polygon class="st0" points="629.1,81.8 629.2,81.8 629.1,81.8 593.5,102.3 593.5,102.3 593.5,102.9 593.5,102.9 593,103.2 
	593.2,103.3 593.3,103.4 593.3,103.4 593.5,103.5 602.2,108.5 629.3,124.1 629.5,124 629.5,123.6 593.8,102.9 629.5,82.2 
	629.5,81.7 629.8,81.5 629.8,81.4 "/>
<polygon class="st0" points="629.5,123.5 593.8,102.9 629.5,123.6 "/>
<polygon class="st0" points="593.2,103.3 593.3,103.4 593.3,103.4 "/>
<polygon class="st0" points="593,103.2 593,103.2 593,103.2 593.5,102.9 593.1,102.9 593.5,102.9 593.5,102.9 593.5,102.3 
	593.5,102.3 593.5,102.3 592.4,102.9 592.5,102.9 "/>
<polygon class="st0" points="593.5,103 593.1,103.2 593.1,103.2 "/>
<path class="st0" d="M593.5,102.9L593.5,102.9L593.5,102.9z"/>
<polygon class="st0" points="629.9,82.1 629.8,82 629.8,81.5 629.6,81.7 629.6,82.2 629.6,123.5 629.6,123.9 629.8,123.7 
	630.2,123.5 630.2,82.3 "/>
<polygon class="st0" points="703.2,81.7 703.3,81.5 703.3,81.4 703.1,81.6 703.1,81.7 "/>
<polygon class="st0" points="703.1,81.4 703.2,81.3 703.2,81.4 703.3,81.4 703.4,81.3 667.4,60.4 667.4,60.5 667.4,60.4 666.9,60.1 
	666.8,60.3 667.1,60.5 667.1,61.1 702.7,81.7 703.1,81.6 "/>
<polygon class="st0" points="630.7,124.2 630.7,124.2 648.4,134.4 "/>
<polygon class="st0" points="630.7,124.2 630.7,124.2 630.6,124.1 655.9,109.4 666.3,103.5 666.3,144.7 666.8,145 667.1,144.8 
	667.1,144.7 667,144.8 667.1,144.7 667.1,103.5 666.6,103.3 666.6,103.3 666.5,103.3 666,103.1 665.9,103 630.3,123.6 629.9,123.9 
	630,124 630.1,123.9 "/>
<polygon class="st0" points="666.3,144.8 666.3,144.7 648.4,134.4 "/>
<polygon class="st0" points="703.1,123.6 703.1,123.5 667.4,102.9 "/>
<polygon class="st0" points="684.8,113.7 702.7,124 703.1,123.7 703.1,123.6 667.4,102.9 703.1,82.2 703.1,81.7 667.1,102.5 
	702.8,81.8 702.7,81.7 702.7,81.8 702.7,81.8 702.7,81.8 667,102.3 667,102.5 667,102.9 667,103.1 666.6,103.2 667,103.4 "/>
<polygon class="st0" points="667.1,102.5 703.1,81.7 703.1,81.6 702.7,81.7 702.8,81.8 "/>
<polygon class="st0" points="703.2,81.4 703.2,81.3 703.1,81.4 703.1,81.6 703.3,81.4 "/>
<path class="st0" d="M666,60.5l-35.7,20.7l-0.4,0.2l-0.1,0.1v0.2V82l0.4,0.2v0.1l0.1,0.1l35.6,20.6l0.1-0.1l0.5,0.3h0.1l-0.1-0.1
	l0.2-0.1h-0.1h0.1l0.2-0.1v-0.5v-0.1V61.2v-0.1v-0.5l-0.4-0.2l-0.1-0.2l0,0l-0.1,0.1L666,60.5z M666.3,102.3l-35.7-20.7l25.3-14.7
	l10.4-5.8V102.3z"/>
<polygon class="st0" points="629.9,82.1 629.9,82.1 630.2,82.3 630.2,82.2 "/>
<polygon class="st0" points="666.5,103.3 666.6,103.3 666,102.9 665.9,103 666,103.1 "/>
<polygon class="st0" points="667,102.9 666.8,103.1 667,103.1 "/>
<polygon class="st0" points="666.8,103.1 666.5,103.2 666.6,103.2 667,103.1 "/>
<polygon class="st0" points="593.6,146.1 593.6,146.1 626.3,165 "/>
<polygon class="st0" points="593.6,187.2 593.6,146.1 593.1,145.9 593.1,145.7 593.1,145.4 593.1,145.3 593,145.3 592.9,145.4 
	592.9,145.6 592.9,187.7 593,187.6 "/>
<polygon class="st0" points="630.3,124.8 665.9,145.4 630.3,124.8 630.3,124.8 666,145.5 666.3,145.3 666.3,145.3 666.4,145.1 
	666.5,145.1 666.6,145 630.6,124.2 630.6,124.2 630.6,124.2 630.1,123.9 630,124 630.3,124.2 "/>
<polygon class="st0" points="666.5,145.1 666.3,145.3 666.3,145.3 "/>
<polygon class="st0" points="629.4,167.3 629.4,208.4 629.5,208.5 629.5,167.3 "/>
<polygon class="st0" points="595.3,188.8 594.2,188.1 594.5,188.3 "/>
<polygon class="st0" points="593.3,187.6 593.3,187.6 593.7,187.8 629.4,167.1 629.4,167.3 629.5,167.3 629.5,208.5 629.8,208.6 
	630.1,208.4 630.1,167.1 629.6,166.9 629.3,166.7 593.6,187.3 593.6,187.2 593,187.6 593.1,187.6 593.2,187.6 593.2,187.6 "/>
<polygon class="st0" points="629.3,166.7 593.6,187.2 593.6,187.3 "/>
<polygon class="st0" points="630.2,167.1 665.9,187.8 666.3,187.6 666.3,187.2 630.6,166.7 666.3,146 666.3,145.3 666,145.5 
	666,145.5 630.3,166.2 666,145.5 666,145.5 630.3,166 630.3,166.1 630.3,166.7 629.9,166.9 629.8,166.9 629.8,166.9 "/>
<polygon class="st0" points="666,145.5 666,145.5 630.3,166.2 "/>
<polygon class="st0" points="666.4,145.1 666.3,145.3 666.3,145.3 666.5,145.1 "/>
<polygon class="st0" points="666.3,145.4 665.9,145.4 665.9,145.4 "/>
<path class="st0" d="M593.1,145.7l33.2,19.2l3.1,1.8l0.4,0.2l0.4-0.2H630h0.2l0,0v-0.6l0.1-0.1v-41.2l0,0l-0.1-0.1l0.1,0.1v-0.5
	l-0.4-0.2l-0.2-0.1l-0.1,0.1l-0.4,0.2L593.5,145l-0.5,0.2v0.1v0.1v0.3H593.1z M593.8,145.3l25.3-14.7l10.4-5.9V166l-35.6-20.6
	l-0.1,0.1l0.1-0.1L593.8,145.3z"/>
<polygon class="st0" points="630.3,166.7 630.2,166.7 629.8,166.9 629.9,166.9 "/>
<polygon class="st0" points="630.3,166.1 630.3,166 630.2,166.1 630.2,166.7 630.2,166.7 630.3,166.7 "/>
<polygon class="st0" points="667.1,187.2 667.1,146.1 666.6,145.9 666.6,145.9 666.5,145.3 666.4,145.4 666.4,187.7 666.5,187.6 "/>
<polygon class="st0" points="703.3,167 702.8,166.8 702.7,166.7 667.1,187.3 667.1,187.2 666.5,187.6 666.5,187.6 666.7,187.7 
	666.8,187.6 666.8,187.6 666.9,187.6 667.3,187.8 702.9,167.1 702.9,167.4 703.2,167.3 702.9,167.4 702.9,208.4 703.2,208.5 
	703.3,208.6 703.6,208.4 703.6,167.2 703.5,167.1 703.4,167 "/>
<polygon class="st0" points="667.1,187.3 702.7,166.7 702.7,166.7 667.1,187.2 "/>
<polygon class="st0" points="703.8,166.2 703.8,166.7 703.8,166.8 703.4,167 703.5,167.1 703.6,167.1 703.6,167.2 703.8,167.3 
	738.9,187.5 738.9,186.9 738.9,186.6 704.1,166.7 738.9,146.6 738.9,146 738.9,145.7 703.8,166.1 "/>
<polygon class="st0" points="703.6,167.1 703.5,167.1 703.6,167.2 "/>
<path class="st0" d="M703.2,124.2V124l-0.4,0.2l-3.2,1.9l-32.5,18.8l-0.4,0.2l-0.1,0.1v0.2v0.4l0.5,0.2l0,0l35.6,20.7l0.1-0.1
	l0.4,0.2l0.2,0.1l0,0l-0.1-0.1l0.2-0.1h-0.1h0.1l0.2-0.1v-0.5V166v-0.1v-41l-0.4-0.2v-0.2l-0.1-0.1V124.2z M703.2,166.1l-35.7-20.7
	l35.7-20.7V166.1z"/>
<polygon class="st0" points="667.1,146 666.6,146 666.6,146 "/>
<polygon class="st0" points="702.8,166.8 703.3,167 703.4,167 703.2,166.9 702.8,166.7 702.7,166.7 "/>
<polygon class="st0" points="702.8,166.7 702.7,166.7 702.7,166.7 "/>
<polygon class="st0" points="703.3,166.9 703.4,167 703.8,166.8 703.5,166.8 "/>
<polygon class="st0" points="703.8,166.8 703.8,166.7 703.5,166.8 "/>
<polygon class="st0" points="703.2,82.2 703.2,124 703.2,124.2 703.3,124.3 703.3,124.2 703.3,124 703.3,123.9 703.8,123.5 
	703.8,82.5 703.3,82.2 703.3,82 703.3,81.6 703.2,81.7 "/>
<polygon class="st0" points="703.2,81.7 703.2,81.7 703.3,81.6 703.3,81.5 "/>
<polygon class="st0" points="703.8,123.7 703.3,124 703.3,124.2 703.3,124.3 703.3,124.5 703.8,124.7 738.9,145 738.9,144.3 
	738.9,144.2 704.2,124.2 704.1,124.2 704.2,124.2 704.1,124.1 738.9,104.1 738.9,103.4 738.9,103.3 703.8,123.5 "/>
<polygon class="st0" points="703.3,124 703.8,123.7 703.8,123.5 703.3,123.9 "/>
<polygon class="st0" points="703.4,81.3 703.4,81.5 703.3,81.6 703.3,82 703.8,82.2 721.7,92.6 738.9,102.6 738.9,101.7 
	738.9,101.7 704.2,81.7 704.1,81.8 704.2,81.7 704.1,81.7 738.9,61.7 738.9,60.8 703.8,81.1 "/>
<polygon class="st0" points="703.3,81.5 703.3,81.6 703.4,81.5 703.4,81.3 703.3,81.4 "/>
<polygon class="st0" points="556.2,251.3 556.2,251.2 556.7,251 556.7,209.8 556.2,209.6 556.2,209 556.1,209.1 556.1,251.4 
	556.1,251.5 556.2,251.7 556.2,251.5 "/>
<polygon class="st0" points="593.7,187.8 593.9,187.9 593.9,187.9 "/>
<polygon class="st0" points="594.2,188.1 593.9,187.9 593.9,187.9 "/>
<polygon class="st0" points="593.6,188.5 593.6,188.5 629.1,209.1 629.1,209.1 "/>
<polygon class="st0" points="593.6,188.5 629.1,209.1 629.8,208.7 629.8,208.9 629.6,209 629.6,209.1 629.8,209 629.9,208.9 
	629.9,208.8 629.6,208.6 595.5,188.9 594.5,188.3 593.8,187.9 593.8,187.9 593.8,187.9 593.3,187.6 593.2,187.7 593.5,187.8 
	593.5,187.9 593.6,187.9 "/>
<polygon class="st0" points="593.8,187.9 594.5,188.3 594.2,188.1 593.9,187.9 "/>
<polygon class="st0" points="593.7,187.8 593.7,187.8 593.3,187.6 593.3,187.6 593.8,187.9 593.9,187.9 "/>
<path class="st0" d="M592.7,273.1L592.7,273.1v-0.2l0.1-0.1v-0.2l0.5-0.2v-41.3l-0.5-0.2l-0.5-0.5l-35.7,20.7v0.1l-0.5,0.2v0.2v0.1
	v0.1l0.5,0.2l35.7,20.8l0.4,0.1V273.1z M557.1,251.5l-0.1,0.1L557.1,251.5l-0.1-0.1l35.7-20.6v41.3L557.1,251.5z"/>
<polygon class="st0" points="592.7,272.9 592.4,272.8 592.7,273.1 "/>
<polygon class="st0" points="556.2,251.3 556.7,251.1 556.7,251 556.2,251.2 "/>
<polygon class="st0" points="594,230.3 593.8,230.4 594,230.3 593.9,230.3 597.5,228.3 629.6,209.7 629.6,209.1 593.6,229.9 
	629.3,209.2 629.1,209.1 593.5,229.7 593.5,230.3 593,230.5 593.5,230.7 629.3,251.5 629.6,251.3 629.6,251 "/>
<polygon class="st0" points="629.6,209 629.8,208.9 629.8,208.7 629.1,209.1 629.2,209.1 629.1,209.1 629.1,209.1 629.3,209.2 
	593.6,229.9 629.6,209.1 629.6,209.1 "/>
<path class="st0" d="M593.5,188.4v-0.6l-0.2-0.2l0,0h-0.1l-0.1,0.1l-0.1-0.1l-0.1,0.1l-0.4,0.2l-35.7,20.7l-0.4,0.2l-0.1,0.1v0.4
	l0.5,0.2l17.9,10.3l17.9,10.3l0.5,0.2l0.5-0.1h-0.4h0.4v-0.6L593.5,188.4L593.5,188.4z M592.7,229.7l-35.6-20.6l-0.1,0.1l0.1-0.1
	L557,209l35.7-20.6V229.7L592.7,229.7z"/>
<polygon class="st0" points="593,187.6 593.1,187.7 593.2,187.6 593.1,187.6 "/>
<polygon class="st0" points="593.2,187.7 593.2,187.7 593.5,187.9 593.5,187.8 "/>
<polygon class="st0" points="629.8,251.3 629.8,251.2 630.3,250.9 630.3,209.7 634.1,211.8 629.8,209.3 629.8,209.1 629.6,209.1 
	629.6,209.7 629.6,251 629.6,251.3 629.6,251.4 "/>
<polygon class="st0" points="629.6,209.1 629.6,209.1 629.8,209.1 629.8,209 "/>
<polygon class="st0" points="703.2,209 703.2,209 703.3,208.9 703.3,208.9 "/>
<polygon class="st0" points="702.9,208.4 702.9,208.4 667.6,187.9 667.5,187.9 667.6,187.9 667.5,187.8 667.3,187.8 667.2,187.8 
	666.8,187.6 666.8,187.7 667.1,187.9 667.1,188.5 692.9,203.3 667.1,188.5 667.1,188.5 693,203.4 702.8,209 702.8,209 703.3,208.7 
	703.4,208.7 703.5,208.7 703.3,208.6 703.3,208.6 "/>
<polygon class="st0" points="702.9,208.4 702.9,208.4 703.3,208.6 703.3,208.6 703.2,208.5 "/>
<polygon class="st0" points="667.3,187.8 666.9,187.6 666.8,187.6 667.2,187.8 "/>
<polygon class="st0" points="630,251.2 630.6,251.5 655.9,236.9 666.3,230.9 666.3,272.1 641.2,257.7 666.6,272.4 667,272.1 
	667,230.9 666.5,230.6 666.3,230.4 666,230.3 629.8,251.3 629.9,251.3 "/>
<polygon class="st0" points="666,230.3 666,230.3 630.3,250.9 630.3,251 "/>
<path class="st0" d="M630.6,251.5l10.6,6.2L630.6,251.5z"/>
<polygon class="st0" points="666,230.3 630.3,251 630.3,250.9 629.8,251.2 629.8,251.3 "/>
<path class="st0" d="M702.9,209.1l-0.2-0.1l-35.6,20.7v0.6l-0.5,0.2l0.5,0.2l35.7,20.8l0.4-0.2v-42.2V209L702.9,209.1z M703.1,251
	l-35.7-20.7l25.3-14.6l10.4-6C703.1,209.7,703.1,251,703.1,251z"/>
<polygon class="st0" points="703.2,209 703.2,209 703.3,208.9 703.3,208.7 702.8,209 702.8,209 702.9,209.1 "/>
<path class="st0" d="M665.9,230.3L665.9,230.3L665.9,230.3l0.3,0.2l0.1,0.1l0.5-0.2h-0.4h0.4v-0.6v-41.3v-0.6l-0.2-0.1l0,0l-0.1-0.1
	l0,0l0,0l-0.1,0.1L666,188l-1.4,0.8l-34.4,19.9l-0.3,0.2h0.1l-0.1,0.1l-0.1,0.1l0.1,0.3l24.7,14.3l-20.5-11.8l20.4,11.8L665.9,230.3
	z M630.6,209l35.7-20.6v41.3L630.6,209z"/>
<polygon class="st0" points="666.7,187.7 666.5,187.6 666.6,187.7 "/>
<polygon class="st0" points="629.8,209 629.8,209 629.9,209 630,208.9 629.9,208.8 629.9,208.9 "/>
<polygon class="st0" points="629.9,209.3 629.8,209 629.8,209.1 629.8,209.3 634.1,211.8 654.6,223.6 "/>
<path class="st0" d="M629.8,209L629.8,209L629.8,209z"/>
<path class="st0" d="M666,230.3L666,230.3L666,230.3z"/>
<path class="st0" d="M666,230.3l0.3,0.1L666,230.3z"/>
<path class="st0" d="M666,230.3L666,230.3L666,230.3z"/>
<polygon class="st0" points="593,272.7 592.9,272.7 592.9,272.8 "/>
<polygon class="st0" points="593,314.9 593.5,314.6 593.5,273.4 625.6,292 592.9,273.1 592.9,315 "/>
<polygon class="st0" points="666.5,272.5 666.5,272.7 666.6,272.6 666.8,272.5 630.1,251.3 630,251.4 630.3,251.7 630.3,252.2 
	666,272.8 "/>
<polygon class="st0" points="666,272.8 630.3,252.2 630.3,252.3 "/>
<polygon class="st0" points="593.1,315 593.2,314.9 593.3,315 593.3,314.9 593.9,315.2 593.9,315.2 593.8,315.2 629.5,294.6 
	629.5,335.8 593.9,315.2 593.9,315.2 629.9,336.1 629.9,336.1 629.9,336.1 630.2,335.8 630.2,294.6 629.8,294.3 629.5,294.2 
	629.4,294.1 629.2,294 593.5,314.7 593.5,314.6 593,314.9 "/>
<polygon class="st0" points="629.2,294 629.2,294 593.5,314.6 593.5,314.7 "/>
<path class="st0" d="M666,315.3L666,315.3l0.4-0.2v-42.2l0.1-0.1v-0.1l-36.2,20.9v0.6l-0.4,0.2l0.3,0.1L666,315.3z M630.6,294
	l35.7-20.7v0.1v41.3l-35.6-20.6l-0.1,0.1l0.1-0.1L630.6,294z"/>
<polygon class="st0" points="666,272.8 666,272.8 630.3,293.3 630.3,293.5 "/>
<polygon class="st0" points="666,272.8 666,272.8 630.3,293.5 666.5,272.7 666.5,272.5 "/>
<path class="st0" d="M666,272.8L666,272.8L666,272.8z"/>
<path class="st0" d="M629.5,294.2l0.4,0.2h0.1l-0.2-0.1l0.2-0.1l0,0l0,0l0.2-0.1v-0.6l0.1-0.1v-41.1l0,0l-0.1-0.1l0.1,0.1v-0.5
	l-0.4-0.2l-0.2-0.1l-0.1,0.1l-0.4,0.2l-35.7,20.7l-0.5,0.2v0.2v0.4l32.8,18.9l3.4,1.9l0,0L629.5,294.2z M593.8,272.8l0.1-0.1
	l-0.1-0.1l25.3-14.7l10.4-5.9v41.3l-35.6-20.6L593.8,272.8z"/>
<polygon class="st0" points="629.2,294 629.4,294.1 629.5,294.2 629.3,294 "/>
<polygon class="st0" points="629.3,294 629.2,294 629.2,294 "/>
<polygon class="st0" points="630,294.1 629.8,294.2 629.9,294.3 630.3,294.1 "/>
<polygon class="st0" points="630.3,293.5 630.3,293.3 630.2,293.4 630.2,294 630,294.1 630.3,294.1 "/>
<polygon class="st0" points="666.4,272.8 666.4,315 666.5,314.9 667.1,314.6 667.1,273.4 666.6,273.2 666.5,272.7 "/>
<polygon class="st0" points="702.7,294.1 667.1,314.7 667.1,314.6 666.5,314.9 666.6,315 666.8,314.9 666.8,315 666.9,314.9 
	667.5,315.3 667.6,315.2 667.5,315.2 703.2,294.6 703.2,335.8 667.6,315.2 667.5,315.3 703.4,336.1 703.8,335.8 703.8,294.6 
	703.3,294.3 702.8,294.1 "/>
<polygon class="st0" points="667.1,314.7 702.7,294.1 702.7,294.1 667.1,314.6 "/>
<polygon class="st0" points="703.8,293.5 703.8,294 703.8,294.1 703.3,294.3 703.8,294.6 738.9,314.9 738.9,314.1 704.2,294.1 
	704.1,294.1 704.2,294.1 704.1,294 738.9,274 738.9,273.3 738.9,273.2 703.8,293.4 "/>
<polygon class="st0" points="703.2,293.4 703.1,293.3 703.1,293.4 "/>
<path class="st0" d="M667.1,272.2l-0.4,0.2l-0.1,0.1v0.2v0.4l0.5,0.2l35.6,20.6l0.1-0.1l0.5,0.4l0.3-0.2h-0.2h0.2l0.2-0.1v-0.5v-0.1
	v-41.1l-0.5-0.2v-0.1v-0.1l-0.1-0.1v-0.1v-0.1v-0.1l-0.4,0.2L667.1,272.2z M703.2,293.4L703.2,293.4l-0.1-0.1l-35.7-20.5l35.7-20.7
	v41.2L703.2,293.4z"/>
<polygon class="st0" points="702.7,294.1 702.8,294.1 703.3,294.3 702.8,294 "/>
<polygon class="st0" points="702.8,294 702.7,294.1 702.7,294.1 "/>
<polygon class="st0" points="703.3,294.3 703.8,294.1 703.6,294.1 "/>
<polygon class="st0" points="703.8,294.1 703.8,294 703.6,294.1 "/>
<polygon class="st0" points="703.8,209.7 703.3,209.5 703.3,209.3 703.3,209 703.2,209.1 703.2,251.3 703.2,251.4 703.2,251.5 
	703.3,251.7 703.3,251.3 738.9,230.7 703.8,251 "/>
<polygon class="st0" points="703.3,251.7 703.3,251.8 703.3,251.9 703.8,252.1 738.9,272.4 738.9,271.6 704.1,251.5 738.9,231.5 
	738.9,230.7 703.3,251.3 "/>
<polygon class="st0" points="703.5,208.7 703.5,208.7 703.4,208.9 703.3,208.9 703.3,209 703.3,209.3 703.8,209.7 738.9,229.9 
	738.9,229.1 704.1,209.1 738.9,189 738.9,188.5 738.9,188.3 703.8,208.5 "/>
<polygon class="st0" points="703.3,208.7 703.3,208.9 703.3,208.9 703.4,208.9 703.5,208.7 703.5,208.7 703.4,208.7 "/>
<polygon class="st0" points="298,357.9 262.4,337.3 262.4,337.4 "/>
<polygon class="st0" points="261.9,378.8 261.9,378.6 262.4,378.4 262.4,337.4 261.8,337 261.8,378.6 261.8,378.8 261.8,379 
	261.9,379.1 261.9,379 "/>
<polygon class="st0" points="261.8,336.6 261.9,336.4 261.8,336.4 "/>
<polygon class="st0" points="299.2,315.3 299.2,315.9 307.7,320.7 299.2,315.9 307.7,320.7 335,336.4 335.5,336.2 335.7,336.1 
	299.7,315.3 299.6,315.3 299.7,315.3 299.1,314.9 298.9,315 299.2,315.3 "/>
<path class="st0" d="M298.1,358l-0.1-0.1l-35.6,20.5v0.1l-0.5,0.2v0.2v0.1v0.1l0.5,0.2l35.7,20.7l0.5-0.2l0.5-0.2v-41.3l-0.5-0.2
	l-0.4-0.5l-0.3,0.2L298.1,358z M262.8,379l35.7,20.7L262.8,379z M298.6,358.3v41.3l-35.7-20.7l17.7-10.3L298.6,358.3z"/>
<polygon class="st0" points="261.9,378.8 262.4,378.5 262.4,378.4 261.9,378.6 "/>
<polygon class="st0" points="298.1,358 298,357.9 298,357.9 "/>
<polygon class="st0" points="335.5,336.4 335.4,336.9 335.5,337 "/>
<path class="st0" d="M299.3,357.7l-0.5,0.2l0.5,0.2l8.7,5.1l27.1,15.6l0.2-0.2v-41.8v-0.4l0.1-0.1v-0.1l0.1-0.1h-0.1l-0.5,0.2
	l-35.6,20.8V357.7z M335.2,337v41.4l-35.7-20.7L335.2,337z"/>
<path class="st0" d="M298.2,315.3l-35.7,20.5l0,0L298.2,315.3l-35.7,20.5v0.1l-0.4,0.2H262h-0.1l-0.1,0.1h0.1l-0.1,0.1v0.1v0.4
	l36.4,20.9l0.5,0.2l0.5-0.2h-0.4h0.4v-0.6v-41.3v-0.6l0,0l-0.4-0.2l-0.1-0.1l-0.1,0.1L298.2,315.3z M298.5,357.1l-35.7-20.7
	l35.7-20.7V357.1z"/>
<polygon class="st0" points="262.5,335.8 262.5,335.8 262.4,335.8 262.1,336 262.2,336.1 "/>
<path class="st0" d="M262.5,335.8h-0.1H262.5z"/>
<polygon class="st0" points="262.1,336.2 262,336.2 261.9,336.2 261.9,336.3 "/>
<path class="st0" d="M299.2,315.3L299.2,315.3L299.2,315.3z"/>
<polygon class="st0" points="371.6,357.8 335.9,337.1 335.9,337.3 "/>
<path class="st0" d="M335.5,336.4L335.5,336.4L335.5,336.4z"/>
<polygon class="st0" points="335.9,337.3 335.5,337 335.5,378.6 335.4,378.7 335.4,378.8 335.5,378.6 335.9,378.4 "/>
<polygon class="st0" points="335.5,336.4 335.4,336.6 335.4,336.9 "/>
<polygon class="st0" points="335.5,337 335.4,336.9 335.4,378.7 335.5,378.6 "/>
<polygon class="st0" points="390.7,326.2 408.5,336.4 409,336.2 409.2,336.1 373.2,315.3 373.2,315.3 373.2,315.3 372.6,314.9 
	372.5,315 372.8,315.3 372.8,315.4 372.8,315.9 "/>
<polygon class="st0" points="371.7,357.7 371.6,357.8 371.7,357.8 371.6,357.8 336.1,378.4 335.6,378.6 335.7,378.8 335.8,378.6 
	336.4,379 336.5,378.9 336.4,378.9 372.1,358.3 372.1,399.6 336.5,378.9 336.4,379 372.5,399.8 372.8,399.6 372.8,358.3 
	372.4,358.1 371.9,357.8 "/>
<polygon class="st0" points="371.7,357.8 371.6,357.8 371.6,357.8 "/>
<polygon class="st0" points="373.2,357.7 408.9,337 408.9,336.6 408.9,336.3 409,336.2 408.5,336.4 372.8,357.1 372.8,357.2 
	372.8,357.7 372.8,357.8 372.5,358 372.8,358.2 390.7,368.6 408.5,378.9 408.9,378.6 408.9,378.4 "/>
<path class="st0" d="M372.6,357.8h-0.1H372.6l0.2-0.1v-0.5v-0.1V316v-0.1v-0.5l-0.4-0.2l-0.2-0.2l-0.1,0.1l-0.4,0.2L336,336
	l35.7-20.7L336,336l-0.4,0.2l-0.1,0.1v0.2v0.4l36.2,20.8l0,0l0.6,0.4l0.1-0.1l-0.1-0.1L372.6,357.8z M336.3,336.4l35.7,20.7
	L336.3,336.4z M372.1,357.1l-35.7-20.7l17.9-10.2l17.9-10.3v41.2H372.1z"/>
<polygon class="st0" points="371.7,357.7 371.9,357.8 372.4,358.1 371.8,357.7 "/>
<polygon class="st0" points="372.6,357.8 372.4,358 372.5,358 372.8,357.8 "/>
<polygon class="st0" points="372.8,357.8 372.8,357.7 372.6,357.8 "/>
<polygon class="st0" points="336.4,379 336.4,379 336.4,379 335.8,378.6 335.7,378.8 336.1,379 336.1,379.6 353.9,389.9 
	371.8,400.2 372.2,399.9 372.4,399.8 "/>
<polygon class="st0" points="336.1,379 335.7,378.8 335.5,378.6 335.4,378.8 335,379 299.3,399.7 298.8,399.9 298.9,400 
	299.1,399.9 299.7,400.3 299.8,400.2 299.6,400.2 335.4,379.6 335.4,420.9 299.8,400.2 299.7,400.3 335.7,421.1 336.1,420.9 
	336.1,379.6 "/>
<polygon class="st0" points="409.6,379.6 409,379.2 409,379.1 408.9,379 408.9,378.9 408.9,378.8 408.5,379 405.1,381 372.8,399.7 
	372.5,399.9 372.4,400 372.4,400.1 372.5,400 372.6,399.9 373.1,400 373.3,400.2 407.4,380.4 408.9,379.5 408.9,379.6 408.9,420.8 
	409.1,421 409.1,421 409.2,421.1 409.6,420.9 "/>
<polygon class="st0" points="409.1,336.9 409.1,336.9 409,336.8 409,336.4 408.9,336.6 408.9,337 408.9,337 408.9,378.4 
	408.9,378.4 408.9,378.6 408.9,378.8 408.9,378.9 409,379 409,378.8 409.1,378.7 409.1,378.6 409.5,378.5 409.5,337.3 445,357.9 
	445,357.9 415,340.3 "/>
<rect x="408.9" y="337" class="st0" width="0" height="41.4"/>
<polygon class="st0" points="408.9,379 409,379.1 409,379 408.9,378.9 "/>
<polygon class="st0" points="446.1,315 446,315 446.4,315.3 446.4,315.4 446.4,315.9 454.9,320.7 482.1,336.4 446.4,357.1 
	482.7,336.2 482.8,336.1 482.7,336 482.7,336.1 "/>
<polygon class="st0" points="446.7,315.3 446.7,315.3 446.1,314.9 446.1,315 482.7,336.1 482.7,336 "/>
<path class="st0" d="M446.3,358.4l-0.5-0.2l-0.4-0.4l-0.1-0.1l-0.2,0.1l0.1,0.1l-0.1-0.1l-35.4,20.5l-0.1,0.1v0.1l-0.4,0.2v0.3v0.2
	l0.5,0.2l17.9,10.4l17.7,10.4l0.5-0.2l0.5-0.3V358.4z M445.7,399.6L410.1,379l-0.1,0.1l0.1-0.1l-0.1-0.1l35.7-20.6V399.6z"/>
<polygon class="st0" points="409.1,378.7 409.5,378.5 409.5,378.5 409.1,378.6 "/>
<polygon class="st0" points="445.2,358 445,357.9 445,357.9 "/>
<path class="st0" d="M446.4,357.2v0.5v0.1L446,358l0.4,0.2l8.7,5.1l27.1,15.6l0.4-0.2v-42.1v-0.2l0.1-0.1L446.4,357.2L446.4,357.2
	L446.4,357.2z M482.4,337v41.4l-35.7-20.7L482.4,337z"/>
<path class="st0" d="M445.3,315.3L409.6,336L445.3,315.3L409.6,336l-0.4,0.2l-0.1,0.1v0.2v0.3l5.8,3.4l30.4,17.5l0,0l0.1,0.1
	l0.5,0.2l0.1-0.1l-0.1-0.1l0.2-0.1H446h0.1l0.2-0.1v-0.5V357v-41.1v-0.1v-0.5l-0.4-0.2l-0.1-0.1l-0.1-0.1l-0.1,0.1L445.3,315.3z
	 M445.7,357.1L410,336.4l17.9-10.3l17.9-10.3L445.7,357.1L445.7,357.1z"/>
<polygon class="st0" points="415,340.3 409.1,336.9 409.1,336.9 "/>
<path class="st0" d="M445.3,357.7l0.1,0.1L445.3,357.7z"/>
<polygon class="st0" points="445.9,358 446,358 446.4,357.8 446.1,357.8 "/>
<polygon class="st0" points="446.4,357.8 446.4,357.7 446.1,357.8 "/>
<polygon class="st0" points="482.6,378.8 482.7,378.6 483.1,378.4 483.1,337.1 482.7,336.9 482.7,336.4 482.6,336.6 482.6,378.6 "/>
<polygon class="st0" points="521.3,315.9 520.3,315.3 520.1,315.1 520,315.2 519.6,315 519.6,315 519.7,315 520,315.3 520,315.9 
	520,315.9 521.2,316.6 555.6,336.4 556.1,336.2 556.2,336.1 555.7,335.8 555.7,335.8 "/>
<polygon class="st0" points="555.7,335.8 555.7,335.8 521.3,315.9 "/>
<polygon class="st0" points="520.1,315.1 519.7,314.9 519.6,315 520,315.2 "/>
<polygon class="st0" points="483.5,379 487.4,381.3 494.1,385.1 "/>
<polygon class="st0" points="482.8,378.8 482.9,378.6 483.5,379 508.8,364.3 519.2,358.3 519.2,399.6 494.1,385.1 519.6,399.8 
	519.9,399.6 519.9,358.3 519.4,358.1 518.9,357.7 483.1,378.4 482.7,378.6 "/>
<polygon class="st0" points="556,378.4 520.3,357.7 556,378.4 556,378.3 520.4,357.7 547.3,342.1 556,337.1 556,337 547.2,342.1 
	556,337 556,336.4 556.1,336.3 556.1,336.3 555.7,336.4 520,357.1 520,357.7 519.6,358 520,358.2 555.6,379 556,378.8 "/>
<polygon class="st0" points="556.1,336.2 556.1,336.3 556.2,336.2 "/>
<polygon class="st0" points="556.1,378.4 556.1,337 556,337.1 556,378.3 "/>
<path class="st0" d="M519.9,315.3l-0.4-0.2l0,0h-0.1l-0.1,0.1l-0.1-0.1l-0.1,0.1l-0.4,0.2L483.3,336l-0.4,0.2l-0.1,0.1v0.2v0.4
	l0.5,0.2l8.9,5.1l27,15.5l0.5,0.2l0.5-0.2h-0.4h0.4v-0.6v-41.2l-0.1-0.1v-0.5H519.9z M519.2,357.1l-35.7-20.7l35.7-20.6V357.1z"/>
<polygon class="st0" points="519.4,315 519.5,315 519.4,314.9 "/>
<polygon class="st0" points="520,315.3 519.7,315 519.6,315 519.6,315 519.9,315.3 519.9,315.9 520,315.9 520,315.9 "/>
<polygon class="st0" points="483.5,379 482.9,378.6 482.8,378.8 483.1,379 483.1,379.6 483.1,379.6 501,389.9 518.9,400.2 
	519.3,399.9 519.4,399.8 487.4,381.3 "/>
<path class="st0" d="M483.5,379l3.9,2.3L483.5,379z"/>
<polygon class="st0" points="483.1,379 482.8,378.8 482.7,378.6 482.6,378.8 482.2,379 478.8,381 446.5,399.7 446,399.9 446.1,400 
	446.1,399.9 446.2,400 446.3,399.9 446.4,400 446.6,400 446.8,400.1 480.9,380.4 482.4,379.5 482.4,379.6 482.4,420.8 482.7,421 
	482.6,421 482.8,421.1 483.1,420.9 483.1,379.6 483.1,379.6 "/>
<polygon class="st0" points="483.1,379 482.8,378.8 483.1,379 483.1,379.6 483.1,379.6 483.1,379.6 "/>
<polygon class="st0" points="556.6,379.6 556.1,379.4 556.1,379.1 556,379 556,378.8 555.6,379 519.9,399.7 519.6,399.9 
	519.6,399.9 519.6,399.9 519.4,400 519.5,400.1 519.6,400 519.7,399.9 520.2,400 520.4,400.2 555.9,379.6 555.9,379.7 556,379.6 
	555.9,379.7 555.9,420.7 556.2,421 556.1,421 556.2,421.1 556.6,420.9 "/>
<polygon class="st0" points="556.1,378.8 556.1,379 556.2,379.1 556.2,379 556.2,378.8 556.2,378.6 556.7,378.4 556.7,337.3 
	556.2,337 556.2,336.4 556.1,336.6 556.1,337 556.1,378.4 "/>
<polygon class="st0" points="593.6,315.3 593.6,315.9 611.4,326.2 629.3,336.4 629.8,336.2 629.9,336.1 593.8,315.3 593.8,315.3 
	593.8,315.3 593.3,315 593.2,315 "/>
<polygon class="st0" points="593.9,315.2 593.3,314.9 593.3,315 593.8,315.3 "/>
<polygon class="st0" points="629.9,336.1 629.9,336.1 593.9,315.2 593.8,315.3 "/>
<path class="st0" d="M593.3,399.6v-41.2l-0.5-0.2l-0.5-0.5l-35.7,20.7v0.1l-0.5,0.2v0.2v0.1v0.1l0.5,0.2l17.9,10.4l17.9,10.3
	l0.5-0.2l0.2-0.1l0,0L593.3,399.6z M557,379l35.7,20.7L557,379z M592.7,399.6L557,378.9l17.9-10.3l17.9-10.3L592.7,399.6
	L592.7,399.6z"/>
<polygon class="st0" points="556.2,378.8 556.7,378.5 556.7,378.4 556.2,378.6 "/>
<polygon class="st0" points="629.3,336.4 593.5,357.1 593.5,357.7 593,358.1 593.5,358.3 629.3,379 629.5,378.8 629.5,378.4 
	595.5,358.7 593.8,357.7 619.1,343.1 593.8,357.7 619.1,343.1 629.5,337 629.5,336.4 629.8,336.4 629.8,336.2 "/>
<path class="st0" d="M593.3,357.7h-0.4H593.3h0.1v-0.6v-41.3v-0.6L593,315l-0.1-0.1l-0.1,0.1l-0.4,0.2l-35.7,20.7l-0.4,0.2l-0.1,0.1
	v0.2v0.4l0.5,0.2l17.7,10.3l18,10.4l0.5,0.2L593.3,357.7z M592.7,357.1L557,336.4L592.7,357.1L557,336.4l34.5-19.9l1.2-0.7l-1.3,0.7
	l1.3-0.7V357.1z"/>
<polygon class="st0" points="629.9,336.9 629.8,336.8 629.8,336.4 629.6,336.6 629.6,337.1 629.6,378.4 629.6,378.8 629.8,378.6 
	630.2,378.4 630.2,337.1 666,357.7 "/>
<polygon class="st0" points="666.8,315 667.1,315.3 667.1,315.9 702.8,336.4 703.1,336.3 703.1,336.3 703.2,336.2 703.3,336.2 
	703.4,336.1 "/>
<polygon class="st0" points="667.5,315.3 667.5,315.3 666.9,314.9 666.8,315 703.4,336.1 "/>
<polygon class="st0" points="629.8,378.6 629.9,378.8 630.1,378.6 630.6,378.9 630.7,378.9 648.4,368.6 666.3,358.3 666.3,399.6 
	666.6,399.8 667,399.6 667,358.3 666.5,358.1 666,357.7 630.2,378.4 "/>
<polygon class="st0" points="692.7,343.1 703.1,337 703.1,336.3 702.8,336.4 667.1,357.1 667.1,357.7 666.6,358 667.1,358.2 
	684.8,368.6 702.7,378.9 703.1,378.6 703.1,378.4 667.4,357.7 "/>
<polygon class="st0" points="703.1,336.3 703.1,336.3 703.3,336.2 703.2,336.2 "/>
<path class="st0" d="M666.5,314.9l-0.1,0.1l-0.4,0.2L630.3,336l-0.4,0.2l-0.1,0.1v0.2v0.3l36.2,20.9l0.5,0.2l0.5-0.2h-0.4h0.4v-0.6
	v-41.3v-0.6l-0.4-0.2l0,0l0,0L666.5,314.9z M666.3,357.1l-35.7-20.7l35.7-20.5V357.1z"/>
<polygon class="st0" points="630.3,336 666,315.3 666,315.3 "/>
<polygon class="st0" points="666,315.3 666,315.3 666.4,315 "/>
<polygon class="st0" points="666.6,315 666.6,315 666.5,314.9 "/>
<path class="st0" d="M629.9,336.9l36.1,20.8L629.9,336.9z"/>
<polygon class="st0" points="630.7,378.9 630.6,379 630.1,378.6 630,378.8 630.3,379 630.3,379.6 666,400.2 666.5,399.9 
	666.6,399.8 666.3,399.6 "/>
<polygon class="st0" points="630.7,378.9 630.6,378.9 630.1,378.6 630.6,379 "/>
<polygon class="st0" points="630.2,379 629.9,378.8 629.8,378.6 629.6,378.8 629.3,379 593.5,399.6 593.3,399.6 593.3,399.7 
	593,399.9 593.1,399.9 593.2,399.8 593.6,400 593.7,400 629.5,379.6 629.5,420.7 629.9,421 629.8,421 629.9,421.1 630.2,420.9 
	630.2,379.6 "/>
<polygon class="st0" points="593.3,399.6 593,399.8 593,399.9 593.3,399.7 "/>
<polygon class="st0" points="703.2,378.8 702.8,379 667.1,399.7 666.8,399.9 666.6,400 666.7,400.1 666.8,400 666.9,399.9 
	667.4,400.2 667.5,400.2 703.2,379.6 703.2,420.9 703.4,421.1 703.8,420.9 703.8,379.6 703.3,379.4 703.3,379.2 703.3,379.1 
	703.2,379 "/>
<polygon class="st0" points="703.2,378.4 703.2,378.8 703.2,379 703.3,379.1 703.3,379 703.3,378.8 703.3,378.6 703.8,378.4 
	703.8,337.3 703.3,337 703.3,336.8 703.3,336.4 703.2,336.6 "/>
<polygon class="st0" points="703.8,378.5 703.3,378.8 703.3,379 703.3,379.1 703.3,379.2 703.8,379.6 721.7,389.9 738.9,399.8 
	738.9,399.1 738.9,399 704.1,379 722,368.6 738.9,358.9 738.9,358.2 738.9,358.1 703.8,378.4 "/>
<polygon class="st0" points="703.3,378.8 703.8,378.5 703.8,378.4 703.3,378.6 "/>
<polygon class="st0" points="703.4,336.1 703.3,336.2 703.3,336.4 703.3,336.8 703.8,337 721.7,347.4 738.9,357.4 738.9,356.5 
	704.1,336.4 738.9,316.5 738.9,315.7 738.9,315.6 703.8,335.8 "/>
<polygon class="st0" points="41.3,421.1 41.4,421 41.4,421 40.6,421.4 40.7,421.4 "/>
<polygon class="st0" points="40.7,421.4 40.6,421.4 37.9,423 23.6,431.4 "/>
<polygon class="st0" points="41.4,421 41.4,421 41.4,421 "/>
<polygon class="st0" points="41.3,421.7 41.3,421.1 40.7,421.4 40.7,421.4 40.7,421.4 23.6,431.4 24.2,431.4 24.9,431.4 31.6,427.5 
	41.1,422 41.1,431.4 41.8,431.4 41.8,422 "/>
<polygon class="st0" points="77.8,400.8 77.8,400.3 41.9,421 77.6,400.3 77.5,400.2 77.5,400.3 77.5,400.3 77.5,400.3 41.9,420.8 
	41.9,420.9 41.5,421.1 41.5,421.1 41.4,421.1 41.3,421.1 41.3,421.7 41.8,422 58,431.4 58.7,431.4 59.3,431.4 42.1,421.4 "/>
<polygon class="st0" points="41.9,421 77.8,400.3 77.8,400.2 78.1,400.1 78.1,400 78.1,400 78.1,399.9 77.5,400.2 77.6,400.3 "/>
<polygon class="st0" points="41.9,420.9 41.9,420.8 41.8,420.9 41.5,421.1 41.5,421.1 "/>
<polygon class="st0" points="78.1,400.1 78.2,400 78.1,400 78.1,400 "/>
<rect x="114.3" y="421.4" class="st0" width="0" height="0.1"/>
<polygon class="st0" points="78.6,400.8 78.7,400.8 78.7,400.8 114.2,421.4 114.7,421.1 114.7,421.1 78.3,400 78.3,400 78.2,400.2 
	78.2,400.1 78,400.3 78,431.4 78.7,431.4 78.7,400.8 "/>
<polygon class="st0" points="114.6,420.9 114.6,420.8 102.7,414 "/>
<polygon class="st0" points="114.3,421.4 114.2,421.4 97,431.4 111.7,422.9 "/>
<polygon class="st0" points="78.2,400.2 78.3,400 78.2,400.1 "/>
<polygon class="st0" points="114.6,420.8 114.6,420.9 102.7,414 79,400.2 78.9,400.3 79,400.2 78.4,399.9 78.3,400 78.3,400 
	114.7,421.1 114.9,421 "/>
<polygon class="st0" points="114.9,421.7 114.9,421.1 114.8,421.1 114.3,421.4 114.3,421.4 111.7,422.9 97.1,431.4 97.9,431.4 
	98.4,431.4 105.3,427.5 114.6,422 105.2,427.5 114.6,422 114.6,431.4 114.9,431.4 115.3,431.4 115.3,422 "/>
<polygon class="st0" points="114.8,421.1 114.9,421.1 114.9,421.1 "/>
<path class="st0" d="M114.3,421.4L114.3,421.4L114.3,421.4z"/>
<polygon class="st0" points="111.7,422.9 114.3,421.4 114.3,421.4 "/>
<polygon class="st0" points="115,421.2 115,421.2 115,421.7 115.4,421.9 131.6,431.3 132.7,431.3 123,425.7 132.7,431.3 
	133.1,431.3 123.1,425.6 115.8,421.4 115.7,421.4 115.8,421.4 115.8,421.3 151.5,400.6 151.5,400.3 151.5,400.3 151.5,400.2 
	151.8,400 151.7,399.9 151.3,400.2 151.2,400.1 151.1,400.2 115.4,420.9 115.3,420.9 115.3,421 "/>
<polygon class="st0" points="115,421.2 115.3,421 115.3,420.9 115.1,421.1 "/>
<polygon class="st0" points="151.7,399.9 151.6,399.9 151.2,400.1 151.3,400.2 "/>
<polygon class="st0" points="151.7,399.9 151.8,400 151.9,399.9 "/>
<rect x="151.5" y="400.7" class="st0" width="0" height="30.7"/>
<polygon class="st0" points="163,406.3 170.3,410.5 188.2,420.8 188.2,420.8 "/>
<polygon class="st0" points="152.1,400.8 152.1,431.4 152.2,431.4 152.2,400.8 "/>
<polygon class="st0" points="152.2,400.8 152.2,400.8 187.9,421.4 188.4,421.1 188.5,421 188.2,420.8 188.2,420.9 170.3,410.5 
	152,399.9 151.9,400 151.5,400.3 151.5,400.6 151.5,431.4 151.7,431.4 152.1,431.4 152.1,400.8 "/>
<polygon class="st0" points="152,399.9 170.3,410.5 163,406.3 "/>
<polygon class="st0" points="188.2,420.9 188.2,420.8 170.3,410.5 "/>
<polygon class="st0" points="188.2,420.8 188.2,420.8 188.5,421 188.5,421 "/>
<rect x="151.5" y="400.2" class="st0" width="0" height="0.4"/>
<polygon class="st0" points="188.4,421.7 188.4,421.1 187.9,421.4 187.9,421.4 170.7,431.4 171.7,431.4 172,431.4 174.3,430.1 
	188.2,422 188.2,431.4 188.6,431.4 188.9,431.4 188.9,422 "/>
<path class="st0" d="M187.9,421.4l-17.2,10L187.9,421.4z"/>
<path class="st0" d="M187.9,421.4L187.9,421.4L187.9,421.4z"/>
<polygon class="st0" points="189.2,421.4 225,400.8 225,400.3 225,400.2 189,421 224.7,400.3 224.6,400.2 224.6,400.3 224.6,400.3 
	224.6,400.3 189,420.8 189,420.9 188.6,421.1 188.6,421.1 188.5,421.1 188.4,421.1 188.4,421.7 188.9,422 205.1,431.4 206.2,431.4 
	206.5,431.4 200.3,427.8 "/>
<polygon class="st0" points="225.3,400 225.2,399.9 224.6,400.2 224.7,400.3 189,421 225,400.2 225,400.2 "/>
<polygon class="st0" points="188.6,421.1 188.6,421.1 189,420.9 189,420.8 188.9,420.9 "/>
<polygon class="st0" points="225.6,400.8 225.8,400.8 225.8,400.8 261.4,421.4 261.9,421.1 261.9,421.1 225.5,400 225.4,400.2 
	225.3,400.1 225,400.3 225,400.8 225,431.4 225.5,431.4 225.8,431.4 225.8,400.8 "/>
<polygon class="st0" points="261.8,420.9 261.8,420.8 256.5,417.8 "/>
<polygon class="st0" points="261.8,420.8 261.8,420.9 256.5,417.8 226.1,400.3 226.1,400.3 226.1,400.3 225.5,399.9 225.4,400 
	225.3,400.1 225.4,400.2 225.5,400 261.9,421.1 262.1,421 "/>
<polygon class="st0" points="261.9,421.7 261.9,421.1 261.4,421.4 261.5,421.4 244.2,431.4 245.5,431.4 245.6,431.4 246.6,430.8 
	261.8,422 261.8,431.4 262.4,431.4 262.4,422 "/>
<polygon class="st0" points="261.5,421.4 261.4,421.4 261.4,421.4 "/>
<polygon class="st0" points="261.4,421.4 244.2,431.4 261.5,421.4 "/>
<polygon class="st0" points="298.6,400.8 298.6,400.3 298.6,400.2 298.9,400 298.7,399.9 298.2,400.2 262.4,420.9 262.2,421.2 
	262,421.1 261.9,421.1 261.9,421.7 262.4,422 278.6,431.4 279.9,431.4 280,431.4 262.8,421.4 "/>
<polygon class="st0" points="262,421.1 262.2,421.2 262.4,420.9 262.2,421.1 "/>
<polygon class="st0" points="332,419.7 335,421.4 335.5,421.1 335.5,421.2 335.6,421.1 335.7,421.1 299.7,400.3 299.6,400.3 
	299.7,400.3 299.1,399.9 298.9,400 298.6,400.3 298.6,400.8 298.6,431.4 299.2,431.4 299.3,431.4 299.3,400.8 "/>
<polygon class="st0" points="334.9,421.4 335,421.4 335,421.4 335,421.4 "/>
<polygon class="st0" points="334.9,421.4 317.7,431.4 317.9,431.4 335,421.4 "/>
<polygon class="st0" points="335.5,421.7 335.5,421.2 335,421.4 335.1,421.4 317.9,431.4 319.2,431.4 321.5,430.1 335.4,422 
	335.4,431.4 336.1,431.4 336.1,422 "/>
<polygon class="st0" points="335,421.4 335,421.4 335,421.4 335,421.4 317.9,431.4 335.1,421.4 "/>
<polygon class="st0" points="335,421.4 335,421.4 335.5,421.2 335.5,421.1 "/>
<polygon class="st0" points="336.4,421.4 354.3,411.2 372.1,400.9 372.1,400.3 372.1,400.2 372.5,399.9 372.2,399.9 371.8,400.2 
	336.1,420.9 335.7,421.1 335.6,421.2 335.6,421.7 336.1,421.9 352.3,431.4 352.9,431.4 353.6,431.4 341.9,424.6 353.6,431.4 
	353.7,431.4 342,424.6 "/>
<polygon class="st0" points="390.7,411.2 408.5,421.4 409,421.1 409.1,421 408.9,420.9 408.9,420.8 408.8,420.7 373.3,400.2 
	373.1,400.3 372.6,400 372.5,400.2 372.4,400.1 372.1,400.3 372.1,400.9 372.1,431.4 372.8,431.4 372.8,400.8 372.8,431.4 
	372.8,431.4 372.8,400.8 "/>
<polygon class="st0" points="408.9,420.8 408.9,420.9 409.1,421 409.1,421 "/>
<polygon class="st0" points="372.6,399.9 372.5,400 372.4,400.1 372.5,400.2 372.6,400 373.1,400.3 373.3,400.2 373.1,400 "/>
<polygon class="st0" points="409,421.7 409,421.1 408.5,421.4 408.5,421.4 391.3,431.4 392.1,431.4 392.7,431.4 393.6,430.8 
	408.9,422 408.9,431.4 409,431.4 409.6,431.4 409.6,422 "/>
<path class="st0" d="M408.5,421.4l-17.2,10L408.5,421.4z"/>
<polygon class="st0" points="427.8,411.2 445.7,400.8 445.7,400.3 445.7,400.2 446,400 445.8,399.9 445.3,400.2 409.6,420.9 
	409.2,421.1 409.2,421.1 409,421.1 409,421.7 409.6,422 425.8,431.4 426.6,431.4 427.1,431.4 410,421.4 "/>
<polygon class="st0" points="482.1,421.4 482,421.4 464.8,431.4 479.5,422.9 "/>
<polygon class="st0" points="476.4,418.1 482,421.4 482.6,421.1 482.6,421 482.4,420.9 482.4,420.8 482.3,420.7 446.8,400.1 
	446.7,400.2 446.4,400 446.2,400 446.1,400 446.1,400 446,400 445.7,400.3 445.7,400.8 445.7,431.4 445.9,431.4 446.4,431.4 
	446.4,400.8 "/>
<polygon class="st0" points="446.4,400 446.7,400.2 446.8,400.1 446.6,400 "/>
<polygon class="st0" points="446.1,400 446.1,400 446.2,400 446.1,399.9 "/>
<polygon class="st0" points="482.4,420.8 482.4,420.9 482.6,421 482.7,421 "/>
<polygon class="st0" points="482.7,421.7 482.7,421.1 482.1,421.4 482.1,421.4 479.5,422.9 464.9,431.4 465.9,431.4 466.2,431.4 
	468.6,430.1 482.4,422 482.4,431.4 482.8,431.4 483.1,431.4 483.1,422 "/>
<polygon class="st0" points="482.1,421.4 482.1,421.4 479.5,422.9 "/>
<polygon class="st0" points="519.6,399.9 519.6,399.9 519.4,399.9 519,400.2 483.3,420.9 482.9,421.1 482.8,421.2 482.8,421.7 
	483.3,421.9 499.5,431.3 500.4,431.3 488.9,424.6 500.4,431.3 500.9,431.3 489.2,424.5 483.7,421.4 483.5,421.4 483.7,421.4 
	483.6,421.3 501.4,411.2 519.2,400.9 519.2,400.3 519.2,400.2 "/>
<path class="st0" d="M519.6,399.9L519.6,399.9L519.6,399.9z"/>
<polygon class="st0" points="555.6,421.4 556.1,421.1 556.1,421 555.9,420.9 555.9,420.7 520.4,400.2 520.3,400.3 520.4,400.2 
	520.4,400.2 520.2,400.3 519.7,400 519.6,400.2 519.5,400.1 519.2,400.3 519.2,400.9 519.2,431.4 519.7,431.4 519.9,431.4 
	519.9,400.8 "/>
<polygon class="st0" points="555.6,421.4 555.6,421.4 538.4,431.4 553.1,422.9 "/>
<polygon class="st0" points="555.9,420.7 555.9,420.9 556.1,421 556.2,421 "/>
<polygon class="st0" points="519.7,399.9 519.6,400 519.5,400.1 519.6,400.2 519.7,400 520.2,400.3 520.4,400.2 520.2,400 "/>
<polygon class="st0" points="556.2,421.7 556.2,421.1 555.6,421.4 555.6,421.4 553.1,422.9 538.5,431.4 539.7,431.4 539.8,431.4 
	540.7,430.8 556,422 556,431.4 556.6,431.4 556.7,431.4 556.7,422 "/>
<polygon class="st0" points="555.6,421.4 555.6,421.4 553.1,422.9 "/>
<polygon class="st0" points="592.7,400.8 592.7,400.2 593.1,400 593,399.9 592.4,400.2 556.7,420.9 556.3,421.1 556.2,421.1 
	556.2,421.7 556.7,422 557.7,422.6 572.9,431.4 574.2,431.4 574.3,431.4 557,421.4 "/>
<polygon class="st0" points="629.2,421.4 629.8,421.1 629.8,421 629.5,420.9 629.5,420.7 593.8,400 593.7,400 593.7,400 593.6,400 
	593.3,399.9 593.2,400 592.9,400.3 592.9,431.4 593.5,431.4 593.5,400.8 "/>
<polygon class="st0" points="593.7,400 593.7,400 593.6,400 "/>
<polygon class="st0" points="629.5,420.7 629.5,420.9 629.8,421 629.9,421 "/>
<polygon class="st0" points="629.8,421.8 629.8,421.7 629.8,421.2 629.8,421.1 629.2,421.4 629.3,421.4 612,431.4 613.3,431.4 
	619.6,427.8 629.5,422 619.5,427.8 629.5,422 629.5,431.4 630.2,431.4 630.2,422 "/>
<polygon class="st0" points="629.2,421.4 612,431.4 629.3,421.4 "/>
<polygon class="st0" points="630.6,421.4 666.3,400.8 666.3,400.2 666.6,399.9 666.5,399.9 666,400.2 630.2,420.9 629.9,421.1 
	629.8,421.2 629.8,421.7 630.2,422 646.4,431.4 647.8,431.4 637.6,425.5 "/>
<polygon class="st0" points="630.2,422 629.8,421.7 629.8,421.8 "/>
<polygon class="st0" points="677.3,406.7 702.8,421.4 703.3,421.1 703.4,421.1 703.1,420.9 667.5,400.2 667.4,400.3 666.9,400 
	666.8,400.2 666.7,400.1 666.4,400.3 666.4,431.4 666.9,431.4 667,431.4 667,400.8 667,431.4 667.1,431.4 667.1,400.8 "/>
<polygon class="st0" points="666.9,399.9 666.8,400 666.7,400.1 666.8,400.2 666.9,400 667.4,400.3 667.5,400.2 667.4,400.2 "/>
<polygon class="st0" points="703.3,421.7 703.3,421.1 702.8,421.4 702.8,421.4 685.6,431.4 686.9,431.4 687,431.4 693.1,427.8 
	703.2,422 703.2,431.4 703.8,431.4 703.8,422 "/>
<path class="st0" d="M702.8,421.4l-17.2,10L702.8,421.4z"/>
<polygon class="st0" points="703.4,421.1 703.3,421.1 703.3,421.7 703.8,422 720,431.4 721.4,431.4 704.1,421.4 738.9,401.3 
	738.9,400.8 738.9,400.6 703.8,420.9 "/>
<polygon class="st0" points="741.6,432.7 741.6,432.7 740.2,432.7 740.2,431.3 740.2,432.7 741.6,432.7 741.6,16.8 738.9,18.4 
	738.9,18.4 738.9,18.6 738.9,19.1 738.9,19.5 738.9,59.3 738.9,59.5 738.9,60 738.9,60.8 738.9,61.7 738.9,101.7 738.9,101.7 
	738.9,102.6 738.9,103.3 738.9,103.4 738.9,104.1 738.9,104.2 738.9,144.2 738.9,144.3 738.9,145 738.9,145.1 738.9,145.7 
	738.9,146 738.9,146.6 738.9,146.8 738.9,186.6 738.9,186.9 738.9,187.5 738.9,187.7 738.9,188.3 738.9,188.5 738.9,189 
	738.9,189.4 738.9,229.1 738.9,229.9 738.9,230.7 738.9,231.5 738.9,271.6 738.9,272.4 738.9,272.5 738.9,273.2 738.9,273.3 
	738.9,274 738.9,314.1 738.9,314.9 738.9,315.6 738.9,315.7 738.9,316.5 738.9,316.6 738.9,356.5 738.9,357.4 738.9,358.1 
	738.9,358.2 738.9,358.9 738.9,359 738.9,399 738.9,399.1 738.9,399.8 738.9,399.9 738.9,400.6 738.9,400.8 738.9,401.3 
	738.9,401.6 738.9,431.4 721.4,431.4 720,431.4 703.8,431.4 703.2,431.4 703.1,431.4 687,431.4 686.9,431.4 685.6,431.4 
	685.4,431.4 667.1,431.4 667,431.4 666.9,431.4 666.4,431.4 666.3,431.4 666.2,431.4 647.8,431.4 646.4,431.4 630.2,431.4 
	629.5,431.4 613.3,431.4 613.3,431.4 612,431.4 611.9,431.4 593.5,431.4 592.9,431.4 592.7,431.4 574.3,431.4 574.2,431.4 
	572.9,431.4 572.8,431.4 556.7,431.4 556.6,431.4 556,431.4 555.9,431.4 539.8,431.4 539.7,431.4 538.5,431.4 538.4,431.4 
	538.2,431.4 519.9,431.4 519.7,431.4 519.2,431.4 519,431.4 500.6,431.4 500.4,431.4 499.3,431.4 499,431.4 483.1,431.4 
	482.8,431.4 482.4,431.4 482.1,431.4 466.2,431.4 465.9,431.4 464.9,431.4 464.8,431.4 464.5,431.4 446.4,431.4 445.9,431.4 
	445.7,431.4 445.2,431.4 427.1,431.4 426.6,431.4 425.8,431.4 425.2,431.4 409.6,431.4 409,431.4 408.9,431.4 408.3,431.4 
	392.7,431.4 392.1,431.4 391.3,431.4 390.7,431.4 372.8,431.4 372.8,431.4 372.1,431.4 372.1,431.4 371.4,431.4 353.7,431.4 
	353.6,431.4 352.9,431.4 352.3,431.4 351.4,431.4 336.1,431.4 335.4,431.4 335.2,431.4 334.5,431.4 319.2,431.4 317.9,431.4 
	317.7,431.4 299.3,431.4 299.2,431.4 298.6,431.4 298.5,431.4 280,431.4 279.9,431.4 278.6,431.4 278.5,431.4 262.4,431.4 
	261.8,431.4 261.7,431.4 245.6,431.4 245.5,431.4 244.2,431.4 244.1,431.4 225.8,431.4 225.5,431.4 225,431.4 224.8,431.4 
	206.5,431.4 206.2,431.4 205.1,431.4 204.8,431.4 188.9,431.4 188.6,431.4 188.2,431.4 187.9,431.4 172,431.4 171.7,431.4 
	170.7,431.4 170.3,431.4 152.2,431.4 152.1,431.4 151.7,431.4 151.5,431.4 151.5,431.4 151,431.4 132.9,431.4 132.5,431.4 
	131,431.4 115.3,431.4 114.9,431.4 114.6,431.4 114.1,431.4 98.4,431.4 97.9,431.4 97.1,431.4 97,431.4 96.5,431.4 78.7,431.4 
	78,431.4 78,431.4 77.8,431.4 77.3,431.4 59.4,431.4 59.3,431.4 58.7,431.4 58,431.4 57.3,431.4 41.8,431.4 41.1,431.4 41.1,431.4 
	40.4,431.4 24.9,431.4 24.2,431.4 23.6,431.4 23.4,431.4 18.6,434.1 741.6,434.1 "/>
<g id="IMAGE" class="st1">
</g>
<g id="BORDER" class="st1">
	<path class="st2" d="M-219.5-174.3h-841.9v1190.6h841.9V-174.3 M-1008.3,961.9v-1082h735.7v1082H-1008.3"/>
</g>
</svg>
