<?xml version="1.0" encoding="utf-8"?>
<!-- Generator: Adobe Illustrator 28.2.0, SVG Export Plug-In . SVG Version: 6.00 Build 0)  -->
<svg version="1.1" id="Layer_1" xmlns="http://www.w3.org/2000/svg" xmlns:xlink="http://www.w3.org/1999/xlink" x="0px" y="0px"
	 viewBox="0 0 732.8 426.6" style="enable-background:new 0 0 732.8 426.6;" xml:space="preserve">
<style type="text/css">
	.st0{fill:#E2E3E4;}
	.st1{display:none;}
	.st2{display:inline;fill:#FFFFFF;}
</style>
<polygon class="st0" points="550.3,95.9 550.3,95.9 550.8,95.7 550.7,95.6 "/>
<polygon class="st0" points="514.1,116.8 513.7,117 513.7,117.1 514.3,116.7 514.3,116.7 "/>
<polygon class="st0" points="513.8,116.8 513.8,116.8 513.2,116.4 513.1,116.5 513.2,116.5 477.5,137.1 477.5,95.9 513.1,116.5 
	513.2,116.4 477.2,95.7 476.9,95.9 476.8,95.9 476.8,137.1 476.8,137.1 477.2,137.4 477.2,137.4 477.8,137.7 513.5,117 514,116.8 
	513.9,116.7 "/>
<polygon class="st0" points="476.8,137.1 476.8,137.1 441.1,116.4 440.7,116.7 440.7,117 440.8,117.1 440.8,117 475.2,136.9 
	476.4,137.6 476.4,137.6 476.4,137.6 476.5,137.7 440.8,158.4 440.8,158.2 440.7,158.3 440.7,158.6 441.1,158.9 476.8,138.2 
	476.8,137.6 477.2,137.4 477.2,137.4 "/>
<polygon class="st0" points="440.8,117.1 440.7,117 440.7,158.3 440.8,158.2 "/>
<polygon class="st0" points="476.8,137.1 476.8,137.1 476.8,137.1 477.2,137.4 477.2,137.4 477.2,137.4 "/>
<polygon class="st0" points="477.4,137.5 476.9,137.7 477.2,137.7 476.9,137.7 476.9,138.3 476.9,138.3 477.9,137.7 477.8,137.7 "/>
<polygon class="st0" points="661,32.1 661.2,31.9 661.2,31.9 "/>
<polygon class="st0" points="624.6,53.1 624.6,53.1 625,52.8 624.9,52.8 "/>
<polygon class="st0" points="661.2,31.8 661.2,31.7 661.1,31.8 661,31.8 661.2,31.9 661.2,31.9 661.2,31.9 661.9,31.5 661.8,31.5 
	"/>
<polygon class="st0" points="661.5,31.5 661.5,31.4 661.2,31.6 661.2,31.6 "/>
<path class="st0" d="M661.2,31.9L661.2,31.9L661.2,31.9z"/>
<polygon class="st0" points="697.9,10.7 697.8,10.6 697.5,10.8 697.4,10.9 697.4,11 "/>
<polygon class="st0" points="661.1,31.7 661.2,31.6 661.1,31.6 661,31.7 661,31.7 661,31.7 661,31.7 660.9,31.8 660.3,31.5 
	660.3,31.5 660.4,31.5 624.7,52.1 624.7,10.9 624.4,10.7 624.6,10.6 624.5,10.6 624.4,10.6 624.4,10.6 624.3,10.5 624.3,10.5 
	624.2,10.6 624,10.8 624,52 624.4,52.2 624.4,52.5 624.6,52.6 624.6,52.9 624.7,52.9 625,52.7 660.7,32 661,31.8 661,31.8 "/>
<polygon class="st0" points="660.3,31.5 660.3,31.5 636.6,17.7 "/>
<polygon class="st0" points="661,31.8 661,31.8 661.1,31.8 661.2,31.7 661.1,31.7 "/>
<polygon class="st0" points="661.2,31.6 661.2,31.6 661.1,31.7 "/>
<rect x="588.5" y="73.8" class="st0" width="0" height="0.1"/>
<polygon class="st0" points="624.6,52.7 624.4,52.6 624.4,52.9 624.3,53 624.3,53.1 624,53.2 624,53.4 624.6,53.1 624.6,52.9 "/>
<polygon class="st0" points="550.9,95.5 550.8,95.6 550.8,95.6 551.4,95.3 551.4,95.3 "/>
<path class="st0" d="M587.6,31.8l-0.5,0.2l0,0v41.3l0.5,0.2l0.4,0.3h0.1l0.2,0.1l0.2-0.1l-0.1-0.1l0.1,0.1l35.4-20.5l0.1-0.1v-0.1
	l0.4-0.2v-0.3v-0.2l-0.5-0.2l-8.7-5.1l-27-15.6l-0.4,0.2L587.6,31.8L587.6,31.8z M587.9,32.1l35.7,20.6L587.9,32.1l35.7,20.6
	l-35.7,20.7V32.1z"/>
<polygon class="st0" points="624,53.2 624.3,53.1 624.3,53 "/>
<polygon class="st0" points="588.4,73.8 588.4,73.8 588.3,73.7 "/>
<polygon class="st0" points="587.2,73.4 551.4,52.7 551.1,52.9 551.1,53.3 586.9,74 551.1,94.7 551.1,95.3 551,95.3 550.9,95.3 
	550.9,95.5 551.4,95.3 587.1,74.6 587.1,74.5 587.1,73.9 587.6,73.6 587.6,73.7 587.7,73.6 "/>
<polygon class="st0" points="588.2,74 588,73.8 587.6,73.7 587.4,73.9 587.4,73.9 587.4,73.9 587.2,74 587.2,74.6 587.1,74.6 
	587.1,74.7 588.3,74 "/>
<polygon class="st0" points="588,73.8 588.2,74 588.2,74 588,73.9 "/>
<polygon class="st0" points="587.1,74.5 587.1,74.6 587.2,74.6 587.2,74 587.4,73.9 587.1,73.9 "/>
<polygon class="st0" points="587.1,73.9 587.4,73.9 587.6,73.7 587.6,73.6 "/>
<polygon class="st0" points="551,95.1 550.9,95.3 551,95.3 "/>
<polygon class="st0" points="551,53.3 551,52.9 550.9,53.1 550.4,53.3 550.4,94.4 551,94.8 551,94.6 "/>
<polygon class="st0" points="514.8,73.9 550.4,94.6 550.4,94.4 "/>
<polygon class="st0" points="513.5,115.8 477.9,95.2 477.8,95.3 477.4,95.5 477.3,95.5 513.2,116.4 513.2,116.4 513.2,116.4 
	513.8,116.8 513.9,116.7 513.9,116.7 513.9,116.7 513.5,116.4 513.5,116.3 513.5,116.3 "/>
<polygon class="st0" points="477.5,95.3 477.4,95.4 477.4,95.5 477.5,95.4 "/>
<rect x="513.8" y="116.6" class="st0" width="0" height="0.2"/>
<polygon class="st0" points="514.8,73.9 550.3,53.3 550.8,53.1 550.7,52.9 550.6,53.1 550.1,52.8 541.4,57.8 514.4,73.4 514.4,32.1 
	514,31.9 513.7,32.1 513.7,73.4 514.1,73.6 514.4,73.8 514.5,73.9 514.7,74 514.8,73.9 514.7,73.9 "/>
<polygon class="st0" points="514.7,73.9 514.8,73.9 514.8,73.9 "/>
<path class="st0" d="M477.8,52.8l-0.4,0.2v41.6l17.9-10.3l-17.9,10.3v0.5v0.1v0.1l0.4-0.2l0.1,0.1l35.6-20.6v-0.1V74v-0.1l0.4-0.2
	l-0.4-0.2L477.8,52.8z M495.5,84.3l-17.9,10.3V53.3l0,0l0,0l0,0L513.3,74L495.5,84.3z"/>
<polygon class="st0" points="477.5,95.3 477.5,95.4 477.4,95.5 477.8,95.3 477.9,95.2 477.8,95.1 "/>
<path class="st0" d="M514.4,73.8l-0.4-0.2l-0.1,0.1l0.1,0.1l-0.2,0.1h0.1h-0.1l-0.2,0.1v0.5v0.1v41.1v0.1l0,0v0.5l0.4,0.2l0.2,0.2
	l0.1-0.1l0.4-0.2l35.7-20.7l-35.7,20.7l35.7-20.7l0.4-0.2l0.1-0.1v-0.2v-0.4L514.7,74l0,0L514.4,73.8z M514.4,116V74.6l35.7,20.7
	L514.4,116z"/>
<rect x="513.5" y="115.8" class="st0" width="0" height="0.5"/>
<polygon class="st0" points="514.4,73.8 514.6,74 514.7,74 514.5,73.9 "/>
<polygon class="st0" points="513.8,73.9 514,73.7 513.9,73.7 513.5,73.9 "/>
<polygon class="st0" points="513.5,74 513.8,73.9 513.5,73.9 "/>
<polygon class="st0" points="514,31.7 513.9,31.8 514.3,32 550,52.7 550.6,53.1 550.7,52.9 550.3,52.7 550.3,52.1 514.7,31.5 
	514.1,31.8 "/>
<polygon class="st0" points="514.3,31.5 514.3,31.5 514,31.7 "/>
<polygon class="st0" points="550.4,52.1 550.3,52 550.3,52.1 550.3,52.7 550.7,52.9 550.9,53.1 551,52.9 551.4,52.7 587.1,32 
	587.1,32 587.6,31.8 587.4,31.8 587.5,31.7 587.4,31.7 587.3,31.8 576.3,25.4 586.9,31.5 561.5,46.2 551.1,52.1 551.1,10.9 
	550.8,10.7 550.8,10.7 550.7,10.6 550.4,10.8 550.3,10.9 550.3,52 "/>
<polygon class="st0" points="587.1,32 587.1,32 587.6,31.8 "/>
<polygon class="st0" points="513.1,31.5 513.2,31.4 482.8,13.9 "/>
<polygon class="st0" points="477.4,52.3 477.4,52.5 477.4,52.6 477.5,52.7 477.5,52.9 477.8,52.7 513.5,32 513.9,31.8 514,31.7 
	514,31.6 513.9,31.7 513.8,31.8 513.2,31.4 513.1,31.5 513.2,31.5 477.5,52.1 477.5,10.9 477.2,10.7 477.4,10.6 477.3,10.6 
	477.1,10.6 476.9,10.8 476.9,52.1 "/>
<polygon class="st0" points="109,350.6 109,350.7 109.4,350.4 109.3,350.4 "/>
<polygon class="st0" points="73.1,371.4 73.3,371.3 73.3,371.2 "/>
<polygon class="st0" points="72.8,371.6 72.9,371.5 72.9,371.4 "/>
<path class="st0" d="M72.3,371.8l0.5-0.2L72.3,371.8z"/>
<polygon class="st0" points="71.8,371.3 71.9,371.3 46.6,385.9 36.2,391.9 36.2,350.6 71.8,371.3 71.9,371.3 35.9,350.4 35.5,350.6 
	35.5,391.9 36,392.1 36,392.1 36,392.1 36.5,392.5 72.2,371.8 72.7,371.6 72.5,371.4 72.4,371.6 71.9,371.3 "/>
<polygon class="st0" points="36,392.1 35.5,391.9 17.6,381.6 0.4,371.7 0.4,372.2 0.4,372.4 35.2,392.5 0.4,412.6 0.4,413.1 
	0.4,413.3 20.9,401.5 35.5,393.1 35.5,392.5 "/>
<polygon class="st0" points="35.5,391.9 36,392.1 36,392.1 "/>
<polygon class="st0" points="36,392.3 35.5,392.5 35.9,392.5 35.5,392.5 35.5,393.1 36.5,392.5 36.5,392.5 "/>
<polygon class="st0" points="329.7,223.2 329.7,223.3 330.1,223 330.1,223 "/>
<polygon class="st0" points="293.6,244 293.6,244.1 294,243.9 294,243.9 "/>
<polygon class="st0" points="293.5,244.1 292.9,244.5 292.9,244.5 293.6,244.1 293.6,244 "/>
<polygon class="st0" points="219.9,286.6 219.7,286.7 219.8,286.7 220.4,286.4 220.4,286.4 "/>
<polygon class="st0" points="293.3,244.1 293.3,244.1 293.2,244.1 293.2,244.1 292.6,243.8 292.5,243.8 292.6,243.9 256.9,264.4 
	256.9,223.2 292.5,243.8 292.6,243.8 272,231.8 256.6,223 256.3,223.2 256.3,264.4 256.7,264.7 257.2,265 292.9,244.4 292.9,244.5 
	293.5,244.1 293.4,244.1 "/>
<polygon class="st0" points="257.2,265 292.9,244.5 292.9,244.4 "/>
<polygon class="st0" points="220.3,286.3 220.4,286.4 220.4,286.3 256.2,265.6 256.2,265 256.2,265 256.6,264.8 256.2,264.4 
	220.4,243.9 220.1,244 220.1,244.5 255.8,265 220.1,285.7 220.1,286.3 219.9,286.4 219.9,286.6 "/>
<polygon class="st0" points="219.9,286.6 220.4,286.4 220.3,286.3 "/>
<polygon class="st0" points="256.6,264.8 256.6,264.8 256.6,264.8 256.2,265 256.5,265 256.2,265 256.2,265 256.2,265.6 
	256.2,265.7 257.2,265.1 257.1,265 "/>
<polygon class="st0" points="256.1,265 256.6,264.8 256.6,264.8 "/>
<path class="st0" d="M256.2,265L256.2,265L256.2,265z"/>
<polygon class="st0" points="220,244.1 220,244 219.9,244.1 "/>
<polygon class="st0" points="219.4,285.6 219.4,285.6 219.9,285.8 219.9,285.8 219.9,286.2 219.9,286.4 220,286.3 220,285.7 
	220,244.5 220,244.1 219.4,244.5 "/>
<polygon class="st0" points="219.4,244.4 219.9,244.1 219.9,244.1 219.8,244.1 219.7,244.1 219.7,244.1 219.6,244.1 219,243.8 
	218.9,243.8 219,243.9 183.3,264.4 183.3,223.2 218.9,243.8 219,243.8 183,223 182.7,223.2 182.7,264.4 183.2,264.7 183.7,265 "/>
<polygon class="st0" points="219.4,244.4 183.7,265 219.4,244.5 "/>
<path class="st0" d="M219.4,244.4L183.7,265L219.4,244.4z"/>
<polygon class="st0" points="219.9,244.1 219.4,244.4 219.4,244.5 220,244.1 "/>
<polygon class="st0" points="182.6,264.6 146.9,243.9 146.6,244.1 146.6,244.5 182.3,265 146.6,285.7 146.6,286.2 146.9,286.3 
	182.6,265.6 182.6,265 183.1,264.8 "/>
<path class="st0" d="M219.9,285.8l-0.5-0.2l0,0L183.7,265l-0.5-0.2l-0.5,0.2h0.4h-0.4v0.6v41.3l0.5,0.2v0.2l0.1,0.1v0.2l0.4-0.2
	l35.7-20.7l0.4-0.2l0.1-0.1v-0.2V285.8z M219,286.4L183.3,307v-41.3l35.6,20.6l0.1-0.1l-35.7-20.7l35.7,20.7l-0.1,0.1L219,286.4z"/>
<polygon class="st0" points="219.9,285.8 219.9,285.8 219.4,285.6 219.4,285.6 219.4,285.6 "/>
<polygon class="st0" points="440.7,158.8 440.7,158.9 440.6,159 440.6,159.2 440.1,159.5 440.1,159.5 441.2,158.9 441.1,158.9 "/>
<polygon class="st0" points="440.7,158.8 441.1,158.9 440.7,158.6 "/>
<polygon class="st0" points="403.9,180.4 403.9,180.4 404.3,180.2 404.3,180.2 "/>
<polygon class="st0" points="403.9,180.3 403.8,180.4 403.8,180.4 403.8,180.5 403.9,180.4 403.9,180.4 "/>
<polygon class="st0" points="367.8,201.3 403.2,180.8 403.2,180.7 "/>
<path class="st0" d="M403.7,180.4l-0.1,0.1l-36.7-21.2l-0.4,0.2v41.3l0.5,0.2l0.5,0.4l0.2-0.1L403.7,180.4L403.7,180.4z
	 M402.9,180.3l-35.7,20.6v-41.3l35.6,20.6l0.1-0.1l-0.1,0.1L402.9,180.3z"/>
<polygon class="st0" points="367.8,201.3 367.8,201.3 403.2,180.7 403.2,180.8 403.8,180.5 403.8,180.4 "/>
<polygon class="st0" points="367.1,201.2 366.6,201 330.8,180.2 330.4,180.4 330.4,180.9 366,201.4 366.1,201.3 366,201.4 
	366.1,201.4 330.4,222.1 330.4,222.6 330.4,222.7 330.3,222.7 330.3,222.9 330.8,222.6 330.8,222.6 330.8,222.6 330.9,222.6 
	330.8,222.5 366.5,201.8 333.1,221.3 366.6,202 366.6,201.4 "/>
<polygon class="st0" points="330.8,222.5 330.9,222.6 333.1,221.3 366.5,201.8 "/>
<polygon class="st0" points="366.6,201.4 366.9,201.4 366.6,201.4 366.6,202 367.5,201.4 367.1,201.2 "/>
<polygon class="st0" points="440.7,116.7 440.6,116.8 440.1,117 440.1,158.3 440.6,158.5 440.6,159 440.7,158.9 440.7,158.6 
	440.7,158.3 440.7,117 "/>
<polygon class="st0" points="367.6,158.9 367.2,159.2 367.2,159.2 367.1,159.2 367.2,159.2 367.2,159 367.2,158.9 366.9,159.1 
	366.8,159.2 403.5,180.4 403.6,180.3 403.2,180 403.2,179.6 "/>
<polygon class="st0" points="367.6,158.9 403.2,179.6 403.2,179.4 "/>
<polygon class="st0" points="439.6,116.4 439.5,116.5 439.7,116.5 403.9,137.1 403.9,95.9 439.5,116.5 439.6,116.4 403.6,95.6 
	403.2,95.9 403.2,137.1 403.7,137.4 403.7,137.4 403.7,137.4 404.2,137.6 404.3,137.7 440,117 440.5,116.8 440.4,116.7 440.2,116.8 
	"/>
<polygon class="st0" points="367.5,158.9 367.6,158.9 403.2,138.4 403.2,138.2 "/>
<polygon class="st0" points="367.6,116.5 367.3,116.8 367.3,117 402.8,137.6 402.9,137.6 402.8,137.6 403,137.7 367.3,158.4 
	367.3,158.9 367.2,158.9 403.2,138.2 403.2,137.6 403.6,137.4 403.4,137.2 "/>
<rect x="367.3" y="158.2" class="st0" width="0" height="0.2"/>
<polygon class="st0" points="367.5,158.9 367.6,158.9 367.6,158.9 "/>
<polygon class="st0" points="403.2,138.2 367.2,158.9 367.2,159 367.2,159.2 367.6,158.9 367.5,158.9 "/>
<polygon class="st0" points="367.2,159.2 367.2,159.2 367.1,159.2 "/>
<path class="st0" d="M431.4,153.3l-27.1-15.6l-0.6-0.4h-0.1l0.2,0.1l-0.2,0.1l0,0l0,0l-0.2,0.1v0.6l-0.1,0.1v41.1v0.1v0.5l0.4,0.2
	l0.2,0.1l0.1-0.1l0.4-0.2l35.7-20.7l0.5-0.2v-0.2v-0.4l-0.5-0.2L431.4,153.3l-26.9-15.6l0,0L431.4,153.3z M439.7,159l-3.5,2
	L404,179.6v-41.3L439.7,159l0.1-0.1L439.7,159L439.7,159z"/>
<polygon class="st0" points="403.7,137.4 403.7,137.4 404.3,137.7 404.3,137.7 404.2,137.6 "/>
<polygon class="st0" points="403.2,138.2 403.2,138.4 403.4,138.3 403.4,137.7 403.6,137.6 403.2,137.6 "/>
<polygon class="st0" points="403.6,137.6 403.8,137.5 403.6,137.4 403.2,137.6 "/>
<polygon class="st0" points="366.6,117 366.6,158.3 367.1,158.5 367.1,159 367.2,158.9 367.2,158.3 367.2,116.7 367.1,116.8 "/>
<polygon class="st0" points="366.9,116.8 366.8,116.7 366.7,116.8 366.1,116.4 366,116.5 366.1,116.5 330.4,137.1 330.4,95.9 
	366,116.5 366.1,116.4 330.1,95.6 329.7,95.9 329.7,137.1 330.2,137.4 330.8,137.7 366.5,117 "/>
<polygon class="st0" points="293.6,116.7 293.6,117 329.2,137.6 329.3,137.6 329.2,137.6 329.3,137.7 293.6,158.3 293.6,158.6 
	294,158.9 329.7,138.2 329.7,137.6 330.2,137.4 329.7,137.1 294,116.4 "/>
<path class="st0" d="M366.9,158.9v-0.4l-0.5-0.2L348.6,148l-17.9-10.3l-0.5-0.2l-0.5,0.2h0.4h-0.4v0.6v41.3l0.5,0.2v0.1v0.1l0.1,0.1
	v0.1v0.1l0.4-0.2l35.7-20.7l0.4-0.2l0.1-0.1L366.9,158.9L366.9,158.9z M366.1,159l-35.7,20.6v-41.3l35.6,20.6l0.1-0.1l-0.1,0.1
	L366.1,159z"/>
<polygon class="st0" points="330.4,180.2 330.3,180 330.3,180.2 330.3,180.4 330.3,180.5 329.7,180.8 329.7,222 330.2,222.2 
	330.2,222.4 330.2,222.7 330.3,222.7 330.4,222.6 330.4,222.1 330.4,222.1 330.4,180.9 330.4,180.9 330.4,180.4 330.4,180.3 "/>
<polygon class="st0" points="330.4,222.1 330.4,222.1 330.4,222 330.4,180.9 330.4,180.9 "/>
<polygon class="st0" points="257.3,222.5 257.2,222.6 292.9,243.3 292.9,243.2 "/>
<polygon class="st0" points="256.7,222.8 256.9,222.7 256.9,222.6 256.6,222.7 256.5,222.8 256.7,222.9 256.7,222.9 "/>
<polygon class="st0" points="293.3,244 293,243.9 293,243.8 292.9,243.8 292.9,243.3 257.2,222.6 256.7,222.9 256.7,223 256.7,223 
	272,231.8 293.2,244.1 "/>
<polygon class="st0" points="292.6,243.8 292.6,243.8 293.2,244.1 293.2,244.1 272,231.8 "/>
<path class="st0" d="M294,158.9l-0.4-0.1v0.1l-0.1,0.1v0.2l-0.5,0.2v41.3l0.5,0.2l0.5,0.5l36.3-21v-0.2V180v-0.1l-0.5-0.2L294,158.9
	z M329.3,180.3l-35.7,20.6v-41.3l35.6,20.6l0.1-0.1l-0.1,0.1L329.3,180.3z"/>
<polygon class="st0" points="294,201.4 329.7,180.8 329.7,180.7 "/>
<polygon class="st0" points="293.6,158.8 294,158.9 293.6,158.6 "/>
<polygon class="st0" points="329.7,180.7 329.7,180.8 330.3,180.5 330.3,180.4 294,201.4 "/>
<polygon class="st0" points="257.3,222.5 292.9,202 292.9,201.8 257.2,222.5 "/>
<polygon class="st0" points="292.9,201.4 293.4,201.2 292.9,201 257.2,180.2 256.9,180.4 256.9,180.9 292.5,201.4 292.6,201.3 
	292.5,201.4 292.6,201.4 256.9,222.1 256.9,222.6 292.9,201.8 "/>
<polygon class="st0" points="256.6,223 256.7,223 256.7,222.9 "/>
<polygon class="st0" points="257.2,222.5 292.9,201.8 256.9,222.6 256.9,222.7 256.7,222.8 256.7,222.9 257.2,222.6 257.2,222.6 
	257.2,222.6 257.3,222.5 "/>
<polygon class="st0" points="256.7,222.9 256.7,222.9 256.7,223 256.7,223 "/>
<path class="st0" d="M329.7,222.1L294,201.4l-0.5-0.2l-0.5,0.2h0.4H293v0.6v41.3v0.6l0.2,0.2l0,0h0.1l0.1-0.1l0.1,0.1l0.1-0.1
	l0.4-0.2l35.7-20.7l0.4-0.2l0.1-0.1v-0.4L329.7,222.1z M329.3,222.7l-35.7,20.6V202l35.6,20.6l0.1-0.1l-0.1,0.1L329.3,222.7z"/>
<polygon class="st0" points="293.3,244.1 293.4,244.1 293.5,244.1 293.4,244 "/>
<polygon class="st0" points="293.3,244 293.3,244 293,243.8 293,243.9 "/>
<path class="st0" d="M256.5,180.5l0.1-0.1L256.5,180.5z"/>
<polygon class="st0" points="256.7,180.5 256.7,180.3 256.6,180.4 "/>
<polygon class="st0" points="256.7,180.5 256.2,180.8 256.2,222 256.6,222.2 256.6,222.7 256.7,222.6 "/>
<polygon class="st0" points="219.7,244.1 219.7,244 219.5,243.9 219.5,243.8 219.4,243.8 219.4,243.3 183.7,222.6 183.2,222.9 
	183.2,223 183.1,223 183.2,222.9 183.2,222.8 183.3,222.7 183.3,222.7 183.1,222.8 183,223 183,223 183.1,223 "/>
<polygon class="st0" points="219.4,243.3 219.4,243.2 183.7,222.6 183.7,222.6 "/>
<polygon class="st0" points="219,243.8 219,243.8 219.6,244.1 219.7,244.1 183.1,223 183,223 "/>
<path class="st0" d="M219.9,159.3l-0.4,0.2v41.3l0.5,0.2l0.5,0.4l36-21L219.9,159.3z M220.1,200.8v-41.3l35.7,20.6L220.1,200.8z"/>
<polygon class="st0" points="220.4,201.4 256.2,180.8 256.2,180.7 "/>
<polygon class="st0" points="256.6,180.4 256.5,180.5 256.5,180.5 220.4,201.4 256.2,180.7 256.2,180.8 256.7,180.5 "/>
<polygon class="st0" points="183.7,222.6 219.4,202 219.4,201.9 "/>
<polygon class="st0" points="218.9,201.4 183.3,180.7 183.3,180.9 "/>
<polygon class="st0" points="219.4,201.4 219.9,201.2 219.4,201 183.7,180.2 183.3,180.4 183.3,180.7 218.9,201.4 219,201.3 
	218.9,201.4 219,201.4 183.3,222.1 183.3,222.7 219.4,201.9 "/>
<polygon class="st0" points="219,201.4 218.9,201.4 218.9,201.4 "/>
<polygon class="st0" points="183.2,223 183.2,222.9 183.1,223 "/>
<polygon class="st0" points="183.2,222.8 183.2,222.9 183.7,222.6 183.7,222.6 219.4,201.9 183.3,222.7 183.3,222.7 "/>
<path class="st0" d="M183.7,222.6L183.7,222.6L183.7,222.6z"/>
<path class="st0" d="M219.5,201.4h0.4H219.5v0.6v41.3v0.6l0.2,0.2l0,0h0.1l0.1-0.1l0.1,0.1l0.1-0.1l0.4-0.2l35.7-20.7l0.4-0.2
	l0.1-0.1v-0.4l-0.5-0.2l-35.6-20.7l-0.5-0.2L219.5,201.4z M220.1,202l35.6,20.6l0.1-0.1l-0.1,0.1l0.1,0.1l-35.7,20.6L220.1,202
	L220.1,202z"/>
<polygon class="st0" points="219.9,244.1 219.9,244.1 219.9,244 219.8,244.1 "/>
<polygon class="st0" points="219.7,244 219.7,244 219.5,243.8 219.5,243.9 "/>
<polygon class="st0" points="293.6,158.8 293.6,158.6 293.6,158.3 293.6,117 293.6,116.7 293.5,116.8 292.9,117.1 292.9,158.3 
	293.4,158.5 293.4,159 293.5,159 293.6,158.9 "/>
<polygon class="st0" points="256.2,179.6 220.5,158.9 219.9,159.2 219.9,159.1 219.7,159.2 256.4,180.4 256.5,180.3 256.2,180 "/>
<polygon class="st0" points="220.5,158.9 256.2,179.6 256.2,179.4 "/>
<polygon class="st0" points="257.3,137.7 292.9,117 292.9,117.1 293.5,116.8 293.4,116.7 293.3,116.8 293.2,116.7 293.2,116.8 
	292.6,116.4 292.5,116.5 292.6,116.5 256.9,137.1 256.9,95.9 292.5,116.5 292.6,116.4 256.6,95.7 256.3,95.9 256.3,137.1 
	256.7,137.4 257,137.5 257.1,137.6 "/>
<polygon class="st0" points="257.3,137.7 257.3,137.7 292.9,117.1 292.9,117 "/>
<polygon class="st0" points="256.2,138.2 256.2,137.7 256.2,137.6 256.6,137.4 256.2,137.1 220.4,116.4 220.1,116.7 220.1,117 
	255.7,137.6 255.8,137.6 255.7,137.6 255.8,137.7 220.1,158.3 220.1,158.9 219.9,159 219.9,159.1 "/>
<polygon class="st0" points="220.5,158.9 256.2,138.3 256.2,138.2 220.4,158.9 "/>
<polygon class="st0" points="220.4,158.9 220.5,158.9 220.5,158.9 "/>
<polygon class="st0" points="220.5,158.9 220.4,158.9 256.2,138.2 219.9,159.1 219.9,159.2 "/>
<path class="st0" d="M256.5,137.6h-0.2l-0.2,0.1v0.5v0.1v41.1v0.1v0.5l0.4,0.2l0.1,0.1l0.1-0.1l0.4-0.2l35.7-20.7l0.5-0.2v-0.2v-0.4
	l-0.5-0.2l-35.5-20.6l0,0l-0.2-0.2l-0.4-0.2l-0.3,0.2L256.5,137.6L256.5,137.6z M256.9,138.3l35.6,20.6l0.1-0.1l-0.1,0.1l0.1,0.1
	l-35.7,20.6V138.3z"/>
<polygon class="st0" points="257.3,137.7 257.1,137.6 257,137.5 257.2,137.7 "/>
<polygon class="st0" points="257.2,137.7 257.3,137.7 257.3,137.7 "/>
<polygon class="st0" points="256.3,137.6 256.6,137.4 256.2,137.6 "/>
<polygon class="st0" points="256.2,137.6 256.2,137.7 256.3,137.6 "/>
<polygon class="st0" points="219.4,158.3 219.4,158.3 219.9,158.5 219.9,158.9 219.9,159 220,158.9 220,158.3 220,117 220,116.8 
	219.4,117.1 "/>
<polygon class="st0" points="220,116.8 220,116.7 219.9,116.7 "/>
<path class="st0" d="M219.4,117.1l-35.7,20.6L219.4,117.1z"/>
<polygon class="st0" points="219.4,117.1 219.9,116.8 219.8,116.7 219.7,116.8 219.7,116.7 219.6,116.8 219.2,116.6 183.6,137.2 
	183.6,137 183.3,137.1 183.6,137 183.6,96 183,95.6 182.6,95.9 182.6,137.1 183.1,137.4 183.7,137.7 219.4,117 "/>
<polygon class="st0" points="183.6,95.9 183.6,96 218,115.8 "/>
<polygon class="st0" points="219.4,117 183.7,137.7 219.4,117.1 "/>
<polygon class="st0" points="219.9,116.8 219.4,117.1 219.4,117.1 220,116.8 219.9,116.7 "/>
<polygon class="st0" points="146.9,116.4 146.6,116.7 146.6,117 182.2,137.6 182.3,137.6 182.2,137.6 182.3,137.7 146.6,158.4 
	146.6,158.6 146.9,158.9 182.6,138.2 182.6,137.6 183.1,137.4 182.6,137.1 "/>
<path class="st0" d="M219.4,159.5l0.4-0.2l0.1-0.1V159v-0.1v-0.4l-0.5-0.2l0,0l-35.7-20.6l-0.5-0.2l-0.5,0.2h0.4h-0.4v0.6v41.3
	l0.5,0.2v0.2l0.1,0.1v0.2l0.4-0.2L219.4,159.5z M183.3,138.3l35.6,20.6l0.1-0.1l-35.7-20.7l35.7,20.7l-0.1,0.1l0.1,0.1l-35.7,20.6
	V138.3z"/>
<polygon class="st0" points="219.4,158.3 219.4,158.3 219.9,158.5 "/>
<polygon class="st0" points="183.2,307.5 183.1,307.4 183.1,307.5 183.1,307.7 183.1,307.8 182.6,308.1 182.6,308.2 183.2,307.8 
	183.2,307.7 "/>
<polygon class="st0" points="110.2,350 110.2,349.9 109.5,350.3 109.4,350.4 109.4,350.4 110,350.1 110,350 "/>
<polygon class="st0" points="110.2,350 145.8,329.4 110.2,349.9 "/>
<path class="st0" d="M146.4,328.5l0.5,0.2l0,0l0,0l0,0l35.7-20.7l0,0l0.5-0.2v-0.2v-0.1v-0.1l-0.5-0.2l-17.9-10.3l-17.9-10.3
	l-0.4-0.2v0.2l-0.1,0.1v0.2L146,287v41.2l0.1,0.1L146.4,328.5z M182.3,307.6l-35.7-20.7L182.3,307.6z M146.6,286.9l35.7,20.7
	l-17.9,10.3l-17.9,10.3L146.6,286.9L146.6,286.9z"/>
<polygon class="st0" points="182.6,308.1 183.1,307.8 183.1,307.7 182.6,308 "/>
<polygon class="st0" points="110.2,349.9 110.1,349.9 110.2,349.9 145.8,329.4 145.8,329.4 145.8,328.8 145.8,328.8 146.3,328.5 
	146.1,328.4 146,328.3 146,328.3 145.8,328.2 137.1,323.2 110,307.6 109.8,307.7 109.8,308.1 145.5,328.8 109.8,349.5 109.8,350 
	109.5,350.2 109.5,350.3 "/>
<polygon class="st0" points="109.8,308.2 145.5,328.8 109.8,308.1 "/>
<polygon class="st0" points="146.1,328.4 146,328.3 146,328.3 "/>
<polygon class="st0" points="146.3,328.5 146.3,328.5 146.3,328.5 145.8,328.8 146.2,328.8 145.8,328.8 145.8,328.8 145.8,329.4 
	145.8,329.4 145.8,329.4 146.9,328.8 146.8,328.8 "/>
<polygon class="st0" points="145.8,328.7 146.3,328.5 146.3,328.5 "/>
<path class="st0" d="M145.8,328.8L145.8,328.8L145.8,328.8z"/>
<polygon class="st0" points="109.4,349.6 109.5,349.7 109.5,350.2 109.7,350 109.7,349.5 109.7,308.2 109.7,307.8 109.5,308 
	109.1,308.2 109.1,349.4 "/>
<polygon class="st0" points="36.1,350 36,350.2 36,350.3 36.2,350.1 36.2,350 "/>
<polygon class="st0" points="36.2,350.3 36.1,350.4 36.1,350.3 36,350.3 35.9,350.4 71.9,371.3 71.9,371.2 71.9,371.3 72.4,371.6 
	72.5,371.4 72.2,371.2 72.2,370.6 36.6,350 36.2,350.1 "/>
<polygon class="st0" points="108.6,307.5 108.6,307.5 90.9,297.3 "/>
<polygon class="st0" points="108.6,307.5 108.6,307.5 108.7,307.6 83.4,322.3 73,328.2 73,287 72.5,286.7 72.2,286.9 72.2,287 
	72.3,286.9 72.2,287 72.2,328.2 72.7,328.4 72.7,328.4 72.8,328.4 73.3,328.6 73.4,328.7 109,308.1 109.4,307.8 109.3,307.7 
	109.2,307.8 "/>
<polygon class="st0" points="73,286.9 73,287 90.9,297.3 "/>
<polygon class="st0" points="36.2,308.1 36.2,308.2 71.9,328.8 "/>
<polygon class="st0" points="54.5,318 36.6,307.7 36.2,308 36.2,308.1 71.9,328.8 36.2,349.5 36.2,350 72.2,329.2 36.5,349.9 
	36.6,350 36.6,349.9 36.6,349.9 36.6,349.9 72.3,329.4 72.3,329.2 72.3,328.8 72.3,328.6 72.7,328.5 72.3,328.3 "/>
<polygon class="st0" points="72.2,329.2 36.2,350 36.2,350.1 36.6,350 36.5,349.9 "/>
<polygon class="st0" points="36.1,350.3 36.1,350.4 36.2,350.3 36.2,350.1 36,350.3 "/>
<path class="st0" d="M73.3,371.2l35.7-20.7l0.4-0.2l0.1-0.1V350v-0.3l-0.4-0.2v-0.1l-0.1-0.1l-35.6-20.6l-0.1,0.1l-0.5-0.3h-0.1
	l0.1,0.1l-0.2,0.1h0.1h-0.1l-0.2,0.1v0.5v0.1v41.1v0.1v0.5l0.4,0.2l0.1,0.2l0,0l0.1-0.1L73.3,371.2z M73,329.4l35.7,20.7l-25.3,14.7
	L73,370.6V329.4z"/>
<polygon class="st0" points="109.4,349.6 109.4,349.6 109.1,349.4 109.1,349.5 "/>
<polygon class="st0" points="72.8,328.4 72.7,328.4 73.3,328.8 73.4,328.7 73.3,328.6 "/>
<polygon class="st0" points="72.3,328.8 72.5,328.6 72.3,328.6 "/>
<polygon class="st0" points="72.5,328.6 72.8,328.5 72.7,328.5 72.3,328.6 "/>
<polygon class="st0" points="145.7,285.6 145.7,285.6 113,266.7 "/>
<polygon class="st0" points="145.7,244.5 145.7,285.6 146.2,285.8 146.2,286 146.2,286.3 146.2,286.4 146.3,286.4 146.4,286.3 
	146.4,286.1 146.4,244 146.3,244.1 "/>
<polygon class="st0" points="109,306.9 73.4,286.3 109,306.9 109,306.9 73.3,286.2 73,286.4 73,286.4 72.9,286.6 72.8,286.6 
	72.7,286.7 108.7,307.5 108.7,307.5 108.7,307.5 109.2,307.8 109.3,307.7 109,307.5 "/>
<polygon class="st0" points="72.8,286.6 73,286.4 73,286.4 "/>
<polygon class="st0" points="109.9,264.4 109.9,223.3 109.8,223.2 109.8,264.4 "/>
<polygon class="st0" points="144,242.9 145.1,243.6 144.8,243.4 "/>
<polygon class="st0" points="146,244.1 146,244.1 145.6,243.9 109.9,264.6 109.9,264.4 109.8,264.4 109.8,223.2 109.5,223.1 
	109.2,223.3 109.2,264.6 109.7,264.8 110,265 145.7,244.4 145.7,244.5 146.3,244.1 146.2,244.1 146.1,244.1 146.1,244.1 "/>
<polygon class="st0" points="110,265 145.7,244.5 145.7,244.4 "/>
<polygon class="st0" points="109.1,264.6 73.4,243.9 73,244.1 73,244.5 108.7,265 73,285.7 73,286.4 73.3,286.2 73.3,286.2 
	109,265.5 73.3,286.2 73.3,286.2 109,265.7 109,265.6 109,265 109.4,264.8 109.5,264.8 109.5,264.8 "/>
<polygon class="st0" points="73.3,286.2 73.3,286.2 109,265.5 "/>
<polygon class="st0" points="72.9,286.6 73,286.4 73,286.4 72.8,286.6 "/>
<polygon class="st0" points="73,286.3 73.4,286.3 73.4,286.3 "/>
<path class="st0" d="M146.2,286L113,266.8l-3.1-1.8l-0.4-0.2l-0.4,0.2h0.2h-0.2l0,0v0.6l-0.1,0.1v41.2l0,0l0.1,0.1l-0.1-0.1v0.5
	l0.4,0.2l0.2,0.1l0.1-0.1l0.4-0.2l35.7-20.7l0.5-0.2v-0.1v-0.1V286H146.2z M145.5,286.4l-25.3,14.7l-10.4,5.9v-41.3l35.6,20.6
	l0.1-0.1l-0.1,0.1L145.5,286.4z"/>
<polygon class="st0" points="109,265 109.1,265 109.5,264.8 109.4,264.8 "/>
<polygon class="st0" points="109,265.6 109,265.7 109.1,265.6 109.1,265 109.1,265 109,265 "/>
<polygon class="st0" points="72.2,244.5 72.2,285.6 72.7,285.8 72.7,285.8 72.8,286.4 72.9,286.3 72.9,244 72.8,244.1 "/>
<polygon class="st0" points="36,264.7 36.5,264.9 36.6,265 72.2,244.4 72.2,244.5 72.8,244.1 72.8,244.1 72.6,244 72.5,244.1 
	72.5,244.1 72.4,244.1 72,243.9 36.4,264.6 36.4,264.3 36.1,264.4 36.4,264.3 36.4,223.3 36.1,223.2 36,223.1 35.7,223.3 
	35.7,264.5 35.8,264.6 35.9,264.7 "/>
<polygon class="st0" points="72.2,244.4 36.6,265 36.6,265 72.2,244.5 "/>
<polygon class="st0" points="35.5,265.5 35.5,265 35.5,264.9 35.9,264.7 35.8,264.6 35.7,264.6 35.7,264.5 35.5,264.4 0.4,244.2 
	0.4,244.8 0.4,245.1 35.2,265 0.4,285.1 0.4,285.7 0.4,286 35.5,265.6 "/>
<polygon class="st0" points="35.7,264.6 35.8,264.6 35.7,264.5 "/>
<path class="st0" d="M36.1,307.5v0.2l0.4-0.2l3.2-1.9l32.5-18.8l0.4-0.2l0.1-0.1v-0.2v-0.4l-0.5-0.2l0,0L36.6,265l-0.1,0.1l-0.4-0.2
	l-0.2-0.1l0,0l0.1,0.1l-0.2,0.1h0.1h-0.1l-0.2,0.1v0.5v0.1v0.1v41L36,307v0.2l0.1,0.1V307.5z M36.1,265.6l35.7,20.7L36.1,307V265.6z
	"/>
<polygon class="st0" points="72.2,285.7 72.7,285.7 72.7,285.7 "/>
<polygon class="st0" points="36.5,264.9 36,264.7 35.9,264.7 36.1,264.8 36.5,265 36.6,265 "/>
<polygon class="st0" points="36.5,265 36.6,265 36.6,265 "/>
<polygon class="st0" points="36,264.8 35.9,264.7 35.5,264.9 35.8,264.9 "/>
<polygon class="st0" points="35.5,264.9 35.5,265 35.8,264.9 "/>
<polygon class="st0" points="36.1,349.5 36.1,307.7 36.1,307.5 36,307.4 36,307.5 36,307.7 36,307.8 35.5,308.2 35.5,349.2 
	36,349.5 36,349.7 36,350.1 36.1,350 "/>
<polygon class="st0" points="36.1,350 36.1,350 36,350.1 36,350.2 "/>
<polygon class="st0" points="35.5,308 36,307.7 36,307.5 36,307.4 36,307.2 35.5,307 0.4,286.7 0.4,287.4 0.4,287.5 35.1,307.5 
	35.2,307.5 35.1,307.5 35.2,307.6 0.4,327.6 0.4,328.3 0.4,328.4 35.5,308.2 "/>
<polygon class="st0" points="36,307.7 35.5,308 35.5,308.2 36,307.8 "/>
<polygon class="st0" points="35.9,350.4 35.9,350.2 36,350.1 36,349.7 35.5,349.5 17.6,339.1 0.4,329.1 0.4,330 0.4,330 35.1,350 
	35.2,349.9 35.1,350 35.2,350 0.4,370 0.4,370.9 35.5,350.6 "/>
<polygon class="st0" points="36,350.2 36,350.1 35.9,350.2 35.9,350.4 36,350.3 "/>
<polygon class="st0" points="183.1,180.4 183.1,180.5 182.6,180.7 182.6,221.9 183.1,222.1 183.1,222.7 183.2,222.6 183.2,180.3 
	183.2,180.2 183.1,180 183.1,180.2 "/>
<polygon class="st0" points="145.6,243.9 145.4,243.8 145.4,243.8 "/>
<polygon class="st0" points="145.1,243.6 145.4,243.8 145.4,243.8 "/>
<polygon class="st0" points="145.7,243.2 145.7,243.2 110.2,222.6 110.2,222.6 "/>
<polygon class="st0" points="145.7,243.2 110.2,222.6 109.5,223 109.5,222.8 109.7,222.7 109.7,222.6 109.5,222.7 109.4,222.8 
	109.4,222.9 109.7,223.1 143.8,242.8 144.8,243.4 145.5,243.8 145.5,243.8 145.5,243.8 146,244.1 146.1,244 145.8,243.9 
	145.8,243.8 145.7,243.8 "/>
<polygon class="st0" points="145.5,243.8 144.8,243.4 145.1,243.6 145.4,243.8 "/>
<polygon class="st0" points="145.6,243.9 145.6,243.9 146,244.1 146,244.1 145.5,243.8 145.4,243.8 "/>
<path class="st0" d="M146.6,158.6L146.6,158.6v0.2l-0.1,0.1v0.2l-0.5,0.2v41.3l0.5,0.2l0.5,0.5l35.7-20.7v-0.1l0.5-0.2v-0.2V180
	v-0.1l-0.5-0.2L147,158.9l-0.4-0.1V158.6z M182.2,180.2l0.1-0.1L182.2,180.2l0.1,0.1l-35.7,20.6v-41.3L182.2,180.2z"/>
<polygon class="st0" points="146.6,158.8 146.9,158.9 146.6,158.6 "/>
<polygon class="st0" points="183.1,180.4 182.6,180.6 182.6,180.7 183.1,180.5 "/>
<polygon class="st0" points="145.3,201.4 145.5,201.3 145.3,201.4 145.4,201.4 141.8,203.4 109.7,222 109.7,222.6 145.7,201.8 
	110,222.5 110.2,222.6 145.8,202 145.8,201.4 146.3,201.2 145.8,201 110,180.2 109.7,180.4 109.7,180.7 "/>
<polygon class="st0" points="109.7,222.7 109.5,222.8 109.5,223 110.2,222.6 110.1,222.6 110.2,222.6 110.2,222.6 110,222.5 
	145.7,201.8 109.7,222.6 109.7,222.6 "/>
<path class="st0" d="M145.8,243.3v0.6l0.2,0.2l0,0h0.1l0.1-0.1l0.1,0.1l0.1-0.1l0.4-0.2l35.7-20.7l0.4-0.2l0.1-0.1v-0.4l-0.5-0.2
	l-17.9-10.3l-17.9-10.3l-0.5-0.2l-0.5,0.1h0.4h-0.4v0.6L145.8,243.3L145.8,243.3z M146.6,202l35.6,20.6l0.1-0.1l-0.1,0.1l0.1,0.1
	l-35.7,20.6L146.6,202L146.6,202z"/>
<polygon class="st0" points="146.3,244.1 146.2,244 146.1,244.1 146.2,244.1 "/>
<polygon class="st0" points="146.1,244 146.1,244 145.8,243.8 145.8,243.9 "/>
<polygon class="st0" points="109.5,180.4 109.5,180.5 109,180.8 109,222 105.2,219.9 109.5,222.4 109.5,222.6 109.7,222.6 
	109.7,222 109.7,180.7 109.7,180.4 109.7,180.3 "/>
<polygon class="st0" points="109.7,222.6 109.7,222.6 109.5,222.6 109.5,222.7 "/>
<polygon class="st0" points="36.1,222.7 36.1,222.7 36,222.8 36,222.8 "/>
<polygon class="st0" points="36.4,223.3 36.4,223.3 71.7,243.8 71.8,243.8 71.7,243.8 71.8,243.9 72,243.9 72.1,243.9 72.5,244.1 
	72.5,244 72.2,243.8 72.2,243.2 46.4,228.4 72.2,243.2 72.2,243.2 46.3,228.3 36.5,222.7 36.5,222.7 36,223 35.9,223 35.8,223 
	36,223.1 36,223.1 "/>
<polygon class="st0" points="36.4,223.3 36.4,223.3 36,223.1 36,223.1 36.1,223.2 "/>
<polygon class="st0" points="72,243.9 72.4,244.1 72.5,244.1 72.1,243.9 "/>
<polygon class="st0" points="109.3,180.5 108.7,180.2 83.4,194.8 73,200.8 73,159.6 98.1,174 72.7,159.3 72.3,159.6 72.3,200.8 
	72.8,201.1 73,201.3 73.3,201.4 109.5,180.4 109.4,180.4 "/>
<polygon class="st0" points="73.3,201.4 73.3,201.4 109,180.8 109,180.7 "/>
<path class="st0" d="M108.7,180.2L98.1,174L108.7,180.2z"/>
<polygon class="st0" points="73.3,201.4 109,180.7 109,180.8 109.5,180.5 109.5,180.4 "/>
<path class="st0" d="M36.4,222.6l0.2,0.1L72.2,202v-0.6l0.5-0.2l-0.5-0.2l-35.7-20.8l-0.4,0.2v42.2v0.1L36.4,222.6z M36.2,180.7
	l35.7,20.7L46.6,216l-10.4,6C36.2,222,36.2,180.7,36.2,180.7z"/>
<polygon class="st0" points="36.1,222.7 36.1,222.7 36,222.8 36,223 36.5,222.7 36.5,222.7 36.4,222.6 "/>
<path class="st0" d="M73.4,201.4L73.4,201.4L73.4,201.4l-0.3-0.2l-0.1-0.1l-0.5,0.2h0.4h-0.4v0.6v41.3v0.6l0.2,0.1l0,0l0.1,0.1l0,0
	l0,0l0.1-0.1l0.4-0.2l1.4-0.8l34.4-19.9l0.3-0.2h-0.1l0.1-0.1l0.1-0.1l-0.1-0.3L84.7,208l20.5,11.8L84.8,208L73.4,201.4z
	 M108.7,222.7L73,243.3V202L108.7,222.7z"/>
<polygon class="st0" points="72.6,244 72.8,244.1 72.7,244 "/>
<polygon class="st0" points="109.5,222.7 109.5,222.7 109.4,222.7 109.3,222.8 109.4,222.9 109.4,222.8 "/>
<polygon class="st0" points="109.4,222.4 109.5,222.7 109.5,222.6 109.5,222.4 105.2,219.9 84.7,208.1 "/>
<path class="st0" d="M109.5,222.7L109.5,222.7L109.5,222.7z"/>
<path class="st0" d="M73.3,201.4L73.3,201.4L73.3,201.4z"/>
<path class="st0" d="M73.3,201.4l-0.3-0.1L73.3,201.4z"/>
<path class="st0" d="M73.3,201.4L73.3,201.4L73.3,201.4z"/>
<polygon class="st0" points="146.3,159 146.4,159 146.4,158.9 "/>
<polygon class="st0" points="146.3,116.8 145.8,117.1 145.8,158.3 113.7,139.7 146.4,158.6 146.4,116.7 "/>
<polygon class="st0" points="72.8,159.2 72.8,159 72.7,159.1 72.5,159.2 109.2,180.4 109.3,180.3 109,180 109,179.5 73.3,158.9 "/>
<polygon class="st0" points="73.3,158.9 109,179.5 109,179.4 "/>
<polygon class="st0" points="146.2,116.7 146.1,116.8 146,116.7 146,116.8 145.4,116.5 145.4,116.5 145.5,116.5 109.8,137.1 
	109.8,95.9 145.4,116.5 145.4,116.5 109.4,95.6 109.4,95.6 109.4,95.6 109.1,95.9 109.1,137.1 109.5,137.4 109.8,137.5 109.9,137.6 
	110.1,137.7 145.8,117 145.8,117.1 146.3,116.8 "/>
<polygon class="st0" points="110.1,137.7 110.1,137.7 145.8,117.1 145.8,117 "/>
<path class="st0" d="M73.3,116.4L73.3,116.4l-0.4,0.2v42.2l-0.1,0.1v0.1l36.2-20.9v-0.6l0.4-0.2l-0.3-0.1L73.3,116.4z M108.7,137.7
	L73,158.4v-0.1V117L108.7,137.7v-0.2V137.7L108.7,137.7z"/>
<polygon class="st0" points="73.3,158.9 73.3,158.9 109,138.4 109,138.2 "/>
<polygon class="st0" points="73.3,158.9 73.3,158.9 109,138.2 72.8,159 72.8,159.2 "/>
<path class="st0" d="M73.3,158.9L73.3,158.9L73.3,158.9z"/>
<path class="st0" d="M109.8,137.5l-0.4-0.2h-0.1l0.2,0.1l-0.2,0.1l0,0l0,0l-0.2,0.1v0.6l-0.1,0.1v41.1l0,0l0.1,0.1l-0.1-0.1v0.5
	l0.4,0.2l0.2,0.1l0.1-0.1l0.4-0.2l35.7-20.7l0.5-0.2v-0.2v-0.4l-32.8-18.9l-3.4-1.9l0,0L109.8,137.5z M145.5,158.9l-0.1,0.1l0.1,0.1
	l-25.3,14.7l-10.4,5.9v-41.3l35.6,20.6L145.5,158.9z"/>
<polygon class="st0" points="110.1,137.7 109.9,137.6 109.8,137.5 110,137.7 "/>
<polygon class="st0" points="110,137.7 110.1,137.7 110.1,137.7 "/>
<polygon class="st0" points="109.3,137.6 109.5,137.5 109.4,137.4 109,137.6 "/>
<polygon class="st0" points="109,138.2 109,138.4 109.1,138.3 109.1,137.7 109.3,137.6 109,137.6 "/>
<polygon class="st0" points="72.9,158.9 72.9,116.7 72.8,116.8 72.2,117.1 72.2,158.3 72.7,158.5 72.8,159 "/>
<polygon class="st0" points="36.6,137.6 72.2,117 72.2,117.1 72.8,116.8 72.7,116.7 72.5,116.8 72.5,116.7 72.4,116.8 71.8,116.4 
	71.7,116.5 71.8,116.5 36.1,137.1 36.1,95.9 71.7,116.5 71.8,116.4 35.9,95.6 35.5,95.9 35.5,137.1 36,137.4 36.5,137.6 "/>
<polygon class="st0" points="72.2,117 36.6,137.6 36.6,137.6 72.2,117.1 "/>
<polygon class="st0" points="35.5,138.2 35.5,137.7 35.5,137.6 36,137.4 35.5,137.1 0.4,116.8 0.4,117.6 35.1,137.6 35.2,137.6 
	35.1,137.6 35.2,137.7 0.4,157.7 0.4,158.4 0.4,158.5 35.5,138.3 "/>
<polygon class="st0" points="36.1,138.3 36.2,138.4 36.2,138.3 "/>
<path class="st0" d="M72.2,159.5l0.4-0.2l0.1-0.1V159v-0.4l-0.5-0.2l-35.6-20.6l-0.1,0.1l-0.5-0.4l-0.3,0.2h0.2h-0.2l-0.2,0.1v0.5
	v0.1v41.1l0.5,0.2v0.1v0.1l0.1,0.1v0.1v0.1v0.1l0.4-0.2L72.2,159.5z M36.1,138.3L36.1,138.3l0.1,0.1l35.7,20.5l-35.7,20.7v-41.2
	L36.1,138.3z"/>
<polygon class="st0" points="36.6,137.6 36.5,137.6 36,137.4 36.5,137.7 "/>
<polygon class="st0" points="36.5,137.7 36.6,137.6 36.6,137.6 "/>
<polygon class="st0" points="36,137.4 35.5,137.6 35.7,137.6 "/>
<polygon class="st0" points="35.5,137.6 35.5,137.7 35.7,137.6 "/>
<polygon class="st0" points="35.5,222 36,222.2 36,222.4 36,222.7 36.1,222.6 36.1,180.4 36.1,180.3 36.1,180.2 36,180 36,180.4 
	0.4,201 35.5,180.7 "/>
<polygon class="st0" points="36,180 36,179.9 36,179.8 35.5,179.6 0.4,159.3 0.4,160.1 35.2,180.2 0.4,200.2 0.4,201 36,180.4 "/>
<polygon class="st0" points="35.8,223 35.8,223 35.9,222.8 36,222.8 36,222.7 36,222.4 35.5,222 0.4,201.8 0.4,202.6 35.2,222.6 
	0.4,242.7 0.4,243.2 0.4,243.4 35.5,223.2 "/>
<polygon class="st0" points="36,223 36,222.8 36,222.8 35.9,222.8 35.8,223 35.8,223 35.9,223 "/>
<polygon class="st0" points="441.3,73.8 476.9,94.4 476.9,94.3 "/>
<polygon class="st0" points="477.4,52.9 477.4,53.1 476.9,53.3 476.9,94.3 477.5,94.7 477.5,53.1 477.5,52.9 477.5,52.7 477.4,52.6 
	477.4,52.7 "/>
<polygon class="st0" points="477.5,95.1 477.4,95.3 477.5,95.3 "/>
<polygon class="st0" points="440.1,116.4 440.1,115.8 431.6,111 440.1,115.8 431.6,111 404.3,95.3 403.8,95.5 403.6,95.6 
	439.6,116.4 439.7,116.4 439.6,116.4 440.2,116.8 440.4,116.7 "/>
<path class="st0" d="M441.2,73.7l0.1,0.1l35.6-20.5v-0.1l0.5-0.2v-0.2v-0.1v-0.1l-0.5-0.2l-35.7-20.7l-0.5,0.2l-0.5,0.2v41.3
	l0.5,0.2l0.4,0.5l0.3-0.2L441.2,73.7z M476.5,52.7L440.8,32L476.5,52.7z M440.7,73.4V32.1l35.7,20.7l-17.7,10.3L440.7,73.4z"/>
<polygon class="st0" points="477.4,52.9 476.9,53.2 476.9,53.3 477.4,53.1 "/>
<polygon class="st0" points="441.2,73.7 441.3,73.8 441.3,73.8 "/>
<polygon class="st0" points="403.8,95.3 403.9,94.8 403.8,94.7 "/>
<path class="st0" d="M440,74l0.5-0.2l-0.5-0.2l-8.7-5.1l-27.1-15.6l-0.2,0.2v41.8v0.4l-0.1,0.1v0.1l-0.1,0.1h0.1l0.5-0.2L440,74.6
	V74z M404.1,94.7V53.3L439.8,74L404.1,94.7z"/>
<path class="st0" d="M441.1,116.4l35.7-20.5l0,0L441.1,116.4l35.7-20.5v-0.1l0.4-0.2h0.1h0.1l0.1-0.1h-0.1l0.1-0.1v-0.1v-0.4
	L441.1,74l-0.5-0.2l-0.5,0.2h0.4h-0.4v0.6v41.3v0.6l0,0l0.4,0.2l0.1,0.1l0.1-0.1L441.1,116.4z M440.8,74.6l35.7,20.7L440.8,116V74.6
	z"/>
<polygon class="st0" points="476.8,95.9 476.8,95.9 476.9,95.9 477.2,95.7 477.1,95.6 "/>
<path class="st0" d="M476.8,95.9h0.1H476.8z"/>
<polygon class="st0" points="477.2,95.5 477.3,95.5 477.4,95.5 477.4,95.4 "/>
<path class="st0" d="M440.1,116.4L440.1,116.4L440.1,116.4z"/>
<polygon class="st0" points="367.7,73.9 403.4,94.6 403.4,94.4 "/>
<path class="st0" d="M403.8,95.3L403.8,95.3L403.8,95.3z"/>
<polygon class="st0" points="403.4,94.4 403.8,94.7 403.8,53.1 403.9,53 403.9,52.9 403.8,53.1 403.4,53.3 "/>
<polygon class="st0" points="403.8,95.3 403.9,95.1 403.9,94.8 "/>
<polygon class="st0" points="403.8,94.7 403.9,94.8 403.9,53 403.8,53.1 "/>
<polygon class="st0" points="348.6,105.5 330.8,95.3 330.3,95.5 330.1,95.6 366.1,116.4 366.1,116.4 366.1,116.4 366.7,116.8 
	366.8,116.7 366.5,116.4 366.5,116.3 366.5,115.8 "/>
<polygon class="st0" points="367.6,74 367.7,73.9 367.6,73.9 367.7,73.9 403.2,53.3 403.7,53.1 403.6,52.9 403.5,53.1 402.9,52.7 
	402.8,52.8 402.9,52.8 367.2,73.4 367.2,32.1 402.8,52.8 402.9,52.7 366.8,31.9 366.5,32.1 366.5,73.4 366.9,73.6 367.4,73.9 "/>
<polygon class="st0" points="367.6,73.9 367.7,73.9 367.7,73.9 "/>
<polygon class="st0" points="366.1,74 330.4,94.7 330.4,95.1 330.4,95.4 330.3,95.5 330.8,95.3 366.5,74.6 366.5,74.5 366.5,74 
	366.5,73.9 366.8,73.7 366.5,73.5 348.6,63.1 330.8,52.8 330.4,53.1 330.4,53.3 "/>
<path class="st0" d="M366.7,73.9h0.1H366.7l-0.2,0.1v0.5v0.1v41.1v0.1v0.5l0.4,0.2l0.2,0.2l0.1-0.1l0.4-0.2l35.7-20.7l-35.7,20.7
	l35.7-20.7l0.4-0.2l0.1-0.1v-0.2v-0.4L367.6,74l0,0l-0.6-0.4l-0.1,0.1l0.1,0.1L366.7,73.9z M403,95.3l-35.7-20.7L403,95.3z
	 M367.2,74.6l35.7,20.7L385,105.5l-17.9,10.3V74.6H367.2z"/>
<polygon class="st0" points="367.6,74 367.4,73.9 366.9,73.6 367.5,74 "/>
<polygon class="st0" points="366.7,73.9 366.9,73.7 366.8,73.7 366.5,73.9 "/>
<polygon class="st0" points="366.5,73.9 366.5,74 366.7,73.9 "/>
<polygon class="st0" points="402.9,52.7 402.9,52.7 402.9,52.7 403.5,53.1 403.6,52.9 403.2,52.7 403.2,52.1 385.4,41.8 367.5,31.5 
	367.1,31.8 366.9,31.9 "/>
<polygon class="st0" points="403.2,52.7 403.6,52.9 403.8,53.1 403.9,52.9 404.3,52.7 440,32 440.5,31.8 440.4,31.7 440.2,31.8 
	439.6,31.4 439.5,31.5 439.7,31.5 403.9,52.1 403.9,10.8 439.5,31.5 439.6,31.4 403.6,10.6 403.2,10.8 403.2,52.1 "/>
<polygon class="st0" points="329.7,52.1 330.3,52.5 330.3,52.6 330.4,52.7 330.4,52.8 330.4,52.9 330.8,52.7 334.2,50.7 366.5,32 
	366.8,31.8 366.9,31.7 366.9,31.6 366.8,31.7 366.7,31.8 366.2,31.7 366,31.5 331.9,51.3 330.4,52.2 330.4,52.1 330.4,10.9 
	330.2,10.7 330.2,10.7 330.1,10.6 329.7,10.8 "/>
<polygon class="st0" points="330.2,94.8 330.2,94.8 330.3,94.9 330.3,95.3 330.4,95.1 330.4,94.7 330.4,94.7 330.4,53.3 330.4,53.3 
	330.4,53.1 330.4,52.9 330.4,52.8 330.3,52.7 330.3,52.9 330.2,53 330.2,53.1 329.8,53.2 329.8,94.4 294.3,73.8 294.3,73.8 
	324.3,91.4 "/>
<rect x="330.4" y="53.3" class="st0" width="0" height="41.4"/>
<polygon class="st0" points="330.4,52.7 330.3,52.6 330.3,52.7 330.4,52.8 "/>
<polygon class="st0" points="293.2,116.7 293.3,116.7 292.9,116.4 292.9,116.3 292.9,115.8 284.4,111 257.2,95.3 292.9,74.6 
	256.6,95.5 256.5,95.6 256.6,95.7 256.6,95.6 "/>
<polygon class="st0" points="292.6,116.4 292.6,116.4 293.2,116.8 293.2,116.7 256.6,95.6 256.6,95.7 "/>
<path class="st0" d="M293,73.3l0.5,0.2l0.4,0.4L294,74l0.2-0.1l-0.1-0.1l0.1,0.1l35.4-20.5l0.1-0.1v-0.1l0.4-0.2v-0.3v-0.2l-0.5-0.2
	l-17.9-10.4L294,31.5l-0.5,0.2L293,32V73.3z M293.6,32.1l35.6,20.6l0.1-0.1l-0.1,0.1l0.1,0.1l-35.7,20.6V32.1z"/>
<polygon class="st0" points="330.2,53 329.8,53.2 329.8,53.2 330.2,53.1 "/>
<polygon class="st0" points="294.1,73.7 294.3,73.8 294.3,73.8 "/>
<path class="st0" d="M292.9,74.5V74v-0.1l0.4-0.2l-0.4-0.2l-8.7-5.1l-27.1-15.6l-0.4,0.2v42.1v0.2l-0.1,0.1L292.9,74.5L292.9,74.5
	L292.9,74.5z M256.9,94.7V53.3L292.6,74L256.9,94.7z"/>
<path class="st0" d="M294,116.4l35.7-20.7L294,116.4l35.7-20.7l0.4-0.2l0.1-0.1v-0.2v-0.3l-5.8-3.4L294,74l0,0l-0.1-0.1l-0.5-0.2
	l-0.1,0.1l0.1,0.1l-0.2,0.1h0.1h-0.1l-0.2,0.1v0.5v0.1v41.1v0.1v0.5l0.4,0.2l0.1,0.1l0.1,0.1l0.1-0.1L294,116.4z M293.6,74.6
	l35.7,20.7l-17.9,10.3l-17.9,10.3L293.6,74.6L293.6,74.6z"/>
<polygon class="st0" points="324.3,91.4 330.2,94.8 330.2,94.8 "/>
<path class="st0" d="M294,74l-0.1-0.1L294,74z"/>
<polygon class="st0" points="293.4,73.7 293.3,73.7 292.9,73.9 293.2,73.9 "/>
<polygon class="st0" points="292.9,73.9 292.9,74 293.2,73.9 "/>
<polygon class="st0" points="256.7,52.9 256.6,53.1 256.2,53.3 256.2,94.6 256.6,94.8 256.6,95.3 256.7,95.1 256.7,53.1 "/>
<polygon class="st0" points="218,115.8 219,116.4 219.2,116.6 219.3,116.5 219.7,116.7 219.7,116.7 219.6,116.7 219.3,116.4 
	219.3,115.8 219.3,115.8 218.1,115.1 183.7,95.3 183.2,95.5 183.1,95.6 183.6,95.9 183.6,95.9 "/>
<polygon class="st0" points="183.6,95.9 183.6,95.9 218,115.8 "/>
<polygon class="st0" points="219.2,116.6 219.6,116.8 219.7,116.7 219.3,116.5 "/>
<polygon class="st0" points="255.8,52.7 251.9,50.4 245.2,46.6 "/>
<polygon class="st0" points="256.5,52.9 256.4,53.1 255.8,52.7 230.5,67.4 220.1,73.4 220.1,32.1 245.2,46.6 219.7,31.9 219.4,32.1 
	219.4,73.4 219.9,73.6 220.4,74 256.2,53.3 256.6,53.1 "/>
<polygon class="st0" points="183.3,53.3 219,74 183.3,53.3 183.3,53.4 218.9,74 192,89.6 183.3,94.6 183.3,94.7 192.1,89.6 
	183.3,94.7 183.3,95.3 183.2,95.4 183.2,95.4 183.6,95.3 219.3,74.6 219.3,74 219.7,73.7 219.3,73.5 183.7,52.7 183.3,52.9 "/>
<polygon class="st0" points="183.2,95.5 183.2,95.4 183.1,95.5 "/>
<polygon class="st0" points="183.2,53.3 183.2,94.7 183.3,94.6 183.3,53.4 "/>
<path class="st0" d="M219.4,116.4l0.4,0.2l0,0h0.1l0.1-0.1l0.1,0.1l0.1-0.1l0.4-0.2L256,95.7l0.4-0.2l0.1-0.1v-0.2v-0.4l-0.5-0.2
	l-8.9-5.1l-27-15.5l-0.5-0.2l-0.5,0.2h0.4h-0.4v0.6v41.2l0.1,0.1v0.5H219.4z M220.1,74.6l35.7,20.7l-35.7,20.6V74.6z"/>
<polygon class="st0" points="219.9,116.7 219.8,116.7 219.9,116.8 "/>
<polygon class="st0" points="219.3,116.4 219.6,116.7 219.7,116.7 219.7,116.7 219.4,116.4 219.4,115.8 219.3,115.8 219.3,115.8 "/>
<polygon class="st0" points="255.8,52.7 256.4,53.1 256.5,52.9 256.2,52.7 256.2,52.1 256.2,52.1 238.3,41.8 220.4,31.5 220,31.8 
	219.9,31.9 251.9,50.4 "/>
<path class="st0" d="M255.8,52.7l-3.9-2.3L255.8,52.7z"/>
<polygon class="st0" points="256.2,52.7 256.5,52.9 256.6,53.1 256.7,52.9 257.1,52.7 260.5,50.7 292.8,32 293.3,31.8 293.2,31.7 
	293.2,31.8 293.1,31.7 293,31.8 292.9,31.7 292.7,31.7 292.5,31.6 258.4,51.3 256.9,52.2 256.9,52.1 256.9,10.9 256.6,10.7 
	256.7,10.7 256.5,10.6 256.2,10.8 256.2,52.1 256.2,52.1 "/>
<polygon class="st0" points="256.2,52.7 256.5,52.9 256.2,52.7 256.2,52.1 256.2,52.1 256.2,52.1 "/>
<polygon class="st0" points="182.7,52.1 183.2,52.3 183.2,52.6 183.3,52.7 183.3,52.9 183.7,52.7 219.4,32 219.7,31.8 219.7,31.8 
	219.7,31.8 219.9,31.7 219.8,31.6 219.7,31.7 219.6,31.8 219.1,31.7 218.9,31.5 183.4,52.1 183.4,52 183.3,52.1 183.4,52 183.4,11 
	183.1,10.7 183.2,10.7 183.1,10.6 182.7,10.8 "/>
<polygon class="st0" points="183.2,52.9 183.2,52.7 183.1,52.6 183.1,52.7 183.1,52.9 183.1,53.1 182.6,53.3 182.6,94.4 183.1,94.7 
	183.1,95.3 183.2,95.1 183.2,94.7 183.2,53.3 "/>
<polygon class="st0" points="145.7,116.4 145.7,115.8 127.9,105.5 110,95.3 109.5,95.5 109.4,95.6 145.5,116.4 145.5,116.4 
	145.5,116.4 146,116.7 146.1,116.7 "/>
<polygon class="st0" points="145.4,116.5 146,116.8 146,116.7 145.5,116.4 "/>
<polygon class="st0" points="109.4,95.6 109.4,95.6 145.4,116.5 145.5,116.4 "/>
<path class="st0" d="M146,32.1v41.2l0.5,0.2L147,74l35.7-20.7v-0.1l0.5-0.2v-0.2v-0.1v-0.1l-0.5-0.2L164.8,42l-17.9-10.3l-0.5,0.2
	l-0.2,0.1l0,0L146,32.1z M182.3,52.7L146.6,32L182.3,52.7z M146.6,32.1l35.7,20.7l-17.9,10.3l-17.9,10.3L146.6,32.1L146.6,32.1z"/>
<polygon class="st0" points="183.1,52.9 182.6,53.2 182.6,53.3 183.1,53.1 "/>
<polygon class="st0" points="110,95.3 145.8,74.6 145.8,74 146.3,73.6 145.8,73.4 110,52.7 109.8,52.9 109.8,53.3 143.8,73 
	145.5,74 120.2,88.6 145.5,74 120.2,88.6 109.8,94.7 109.8,95.3 109.5,95.3 109.5,95.5 "/>
<path class="st0" d="M146,74h0.4H146h-0.1v0.6v41.3v0.6l0.4,0.2l0.1,0.1l0.1-0.1l0.4-0.2l35.7-20.7l0.4-0.2l0.1-0.1v-0.2v-0.4
	l-0.5-0.2l-17.7-10.3l-18-10.4l-0.5-0.2L146,74z M146.6,74.6l35.7,20.7L146.6,74.6l35.7,20.7l-34.5,19.9l-1.2,0.7l1.3-0.7l-1.3,0.7
	V74.6z"/>
<polygon class="st0" points="109.4,94.8 109.5,94.9 109.5,95.3 109.7,95.1 109.7,94.6 109.7,53.3 109.7,52.9 109.5,53.1 109.1,53.3 
	109.1,94.6 73.3,74 "/>
<polygon class="st0" points="72.5,116.7 72.2,116.4 72.2,115.8 36.5,95.3 36.2,95.4 36.2,95.4 36.1,95.5 36,95.5 35.9,95.6 "/>
<polygon class="st0" points="71.8,116.4 71.8,116.4 72.4,116.8 72.5,116.7 35.9,95.6 "/>
<polygon class="st0" points="109.5,53.1 109.4,52.9 109.2,53.1 108.7,52.8 108.6,52.8 90.9,63.1 73,73.4 73,32.1 72.7,31.9 
	72.3,32.1 72.3,73.4 72.8,73.6 73.3,74 109.1,53.3 "/>
<polygon class="st0" points="46.6,88.6 36.2,94.7 36.2,95.4 36.5,95.3 72.2,74.6 72.2,74 72.7,73.7 72.2,73.5 54.5,63.1 36.6,52.8 
	36.2,53.1 36.2,53.3 71.9,74 "/>
<polygon class="st0" points="36.2,95.4 36.2,95.4 36,95.5 36.1,95.5 "/>
<path class="st0" d="M72.8,116.8L72.8,116.8l0.5-0.3L109,95.7l0.4-0.2l0.1-0.1v-0.2v-0.3L73.3,74l-0.5-0.2L72.3,74h0.4h-0.4v0.6
	v41.3v0.6l0.4,0.2l0,0l0,0L72.8,116.8z M73,74.6l35.7,20.7L73,115.8V74.6z"/>
<polygon class="st0" points="109,95.7 73.3,116.4 73.3,116.4 "/>
<polygon class="st0" points="73.3,116.4 73.3,116.4 72.9,116.7 "/>
<polygon class="st0" points="72.7,116.7 72.7,116.7 72.8,116.8 "/>
<path class="st0" d="M109.4,94.8L73.3,74L109.4,94.8z"/>
<polygon class="st0" points="108.6,52.8 108.7,52.7 109.2,53.1 109.3,52.9 109,52.7 109,52.1 73.3,31.5 72.8,31.8 72.7,31.9 
	73,32.1 "/>
<polygon class="st0" points="108.6,52.8 108.7,52.8 109.2,53.1 108.7,52.7 "/>
<polygon class="st0" points="109.1,52.7 109.4,52.9 109.5,53.1 109.7,52.9 110,52.7 145.8,32.1 146,32.1 146,32 146.3,31.8 
	146.2,31.8 146.1,31.9 145.7,31.7 145.6,31.7 109.8,52.1 109.8,11 109.4,10.7 109.5,10.7 109.4,10.6 109.1,10.8 109.1,52.1 "/>
<polygon class="st0" points="146,32.1 146.3,31.9 146.3,31.8 146,32 "/>
<polygon class="st0" points="36.1,52.9 36.5,52.7 72.2,32 72.5,31.8 72.7,31.7 72.6,31.6 72.5,31.7 72.4,31.8 71.9,31.5 71.8,31.5 
	36.1,52.1 36.1,10.8 35.9,10.6 35.5,10.8 35.5,52.1 36,52.3 36,52.5 36,52.6 36.1,52.7 "/>
<polygon class="st0" points="36.1,53.3 36.1,52.9 36.1,52.7 36,52.6 36,52.7 36,52.9 36,53.1 35.5,53.3 35.5,94.4 36,94.7 36,94.9 
	36,95.3 36.1,95.1 "/>
<polygon class="st0" points="35.5,53.2 36,52.9 36,52.7 36,52.6 36,52.5 35.5,52.1 17.6,41.8 0.4,31.9 0.4,32.6 0.4,32.7 35.2,52.7 
	17.3,63.1 0.4,72.8 0.4,73.5 0.4,73.6 35.5,53.3 "/>
<polygon class="st0" points="36,52.9 35.5,53.2 35.5,53.3 36,53.1 "/>
<polygon class="st0" points="35.9,95.6 36,95.5 36,95.3 36,94.9 35.5,94.7 17.6,84.3 0.4,74.3 0.4,75.2 35.2,95.3 0.4,115.2 
	0.4,116 0.4,116.1 35.5,95.9 "/>
<polygon class="st0" points="698,10.6 697.9,10.7 697.9,10.7 698.7,10.3 698.6,10.3 "/>
<polygon class="st0" points="698.6,10.3 698.7,10.3 701.4,8.7 715.7,0.3 "/>
<path class="st0" d="M697.9,10.7L697.9,10.7L697.9,10.7z"/>
<polygon class="st0" points="698,10 698,10.6 698.6,10.3 698.6,10.3 698.6,10.3 715.7,0.3 715.1,0.3 714.4,0.3 707.7,4.2 698.2,9.7 
	698.2,0.3 697.5,0.3 697.5,9.7 "/>
<polygon class="st0" points="661.5,30.9 661.5,31.4 697.4,10.7 661.7,31.4 661.8,31.5 661.8,31.4 661.8,31.4 661.8,31.4 697.4,10.9 
	697.4,10.8 697.8,10.6 697.8,10.6 697.9,10.6 698,10.6 698,10 697.5,9.7 681.3,0.3 680.6,0.3 680,0.3 697.2,10.3 "/>
<polygon class="st0" points="697.4,10.7 661.5,31.4 661.5,31.5 661.2,31.6 661.2,31.7 661.2,31.7 661.2,31.8 661.8,31.5 661.7,31.4 
	"/>
<polygon class="st0" points="697.4,10.8 697.4,10.9 697.5,10.8 697.8,10.6 697.8,10.6 "/>
<polygon class="st0" points="661.2,31.6 661.1,31.7 661.2,31.7 661.2,31.7 "/>
<rect x="625.1" y="10.2" class="st0" width="0" height="0.1"/>
<polygon class="st0" points="660.7,30.9 660.6,30.9 660.6,30.9 625.1,10.3 624.6,10.6 624.6,10.6 661,31.7 661,31.7 661.1,31.5 
	661.1,31.6 661.3,31.4 661.3,0.3 660.6,0.3 660.6,30.9 "/>
<polygon class="st0" points="624.7,10.8 624.7,10.9 636.6,17.7 "/>
<polygon class="st0" points="625,10.3 625.1,10.3 642.3,0.3 627.6,8.8 "/>
<polygon class="st0" points="661.1,31.5 661,31.7 661.1,31.6 "/>
<polygon class="st0" points="624.7,10.9 624.7,10.8 636.6,17.7 660.3,31.5 660.4,31.4 660.3,31.5 660.9,31.8 661,31.7 661,31.7 
	624.6,10.6 624.4,10.7 "/>
<polygon class="st0" points="624.4,10 624.4,10.6 624.5,10.6 625,10.3 625,10.3 627.6,8.8 642.2,0.3 641.4,0.3 640.9,0.3 634,4.2 
	624.7,9.7 634.1,4.2 624.7,9.7 624.7,0.3 624.4,0.3 624,0.3 624,9.7 "/>
<polygon class="st0" points="624.5,10.6 624.4,10.6 624.4,10.6 "/>
<path class="st0" d="M625,10.3L625,10.3L625,10.3z"/>
<polygon class="st0" points="627.6,8.8 625,10.3 625,10.3 "/>
<polygon class="st0" points="624.3,10.5 624.3,10.5 624.3,10 623.9,9.8 607.7,0.4 606.6,0.4 616.3,6 606.6,0.4 606.2,0.4 616.2,6.1 
	623.5,10.3 623.6,10.3 623.5,10.3 623.5,10.4 587.8,31.1 587.8,31.4 587.8,31.4 587.8,31.5 587.5,31.7 587.6,31.8 588,31.5 
	588.1,31.6 588.2,31.5 623.9,10.8 624,10.8 624,10.7 "/>
<polygon class="st0" points="624.3,10.5 624,10.7 624,10.8 624.2,10.6 "/>
<polygon class="st0" points="587.6,31.8 587.7,31.8 588.1,31.6 588,31.5 "/>
<polygon class="st0" points="587.6,31.8 587.5,31.7 587.4,31.8 "/>
<rect x="587.8" y="0.3" class="st0" width="0" height="30.7"/>
<polygon class="st0" points="576.3,25.4 569,21.2 551.1,10.9 551.1,10.9 "/>
<polygon class="st0" points="587.2,30.9 587.2,0.3 587.1,0.3 587.1,30.9 "/>
<polygon class="st0" points="587.1,30.9 587.1,30.9 551.4,10.3 550.9,10.6 550.8,10.7 551.1,10.9 551.1,10.8 569,21.2 587.3,31.8 
	587.4,31.7 587.8,31.4 587.8,31.1 587.8,0.3 587.6,0.3 587.2,0.3 587.2,30.9 "/>
<polygon class="st0" points="587.3,31.8 569,21.2 576.3,25.4 "/>
<polygon class="st0" points="551.1,10.8 551.1,10.9 569,21.2 "/>
<polygon class="st0" points="551.1,10.9 551.1,10.9 550.8,10.7 550.8,10.7 "/>
<rect x="587.8" y="31.1" class="st0" width="0" height="0.4"/>
<polygon class="st0" points="550.9,10 550.9,10.6 551.4,10.3 551.4,10.3 568.6,0.3 567.6,0.3 567.3,0.3 565,1.6 551.1,9.7 
	551.1,0.3 550.7,0.3 550.4,0.3 550.4,9.7 "/>
<path class="st0" d="M551.4,10.3l17.2-10L551.4,10.3z"/>
<path class="st0" d="M551.4,10.3L551.4,10.3L551.4,10.3z"/>
<polygon class="st0" points="550.1,10.3 514.3,30.9 514.3,31.4 514.3,31.5 550.3,10.7 514.6,31.4 514.7,31.5 514.7,31.4 514.7,31.4 
	514.7,31.4 550.3,10.9 550.3,10.8 550.7,10.6 550.7,10.6 550.8,10.6 550.9,10.6 550.9,10 550.4,9.7 534.2,0.3 533.1,0.3 532.8,0.3 
	539,3.9 "/>
<polygon class="st0" points="514,31.7 514.1,31.8 514.7,31.5 514.6,31.4 550.3,10.7 514.3,31.5 514.3,31.5 "/>
<polygon class="st0" points="550.7,10.6 550.7,10.6 550.3,10.8 550.3,10.9 550.4,10.8 "/>
<polygon class="st0" points="513.7,30.9 513.5,30.9 513.5,30.9 477.9,10.3 477.4,10.6 477.4,10.6 513.8,31.7 513.9,31.5 514,31.6 
	514.3,31.4 514.3,30.9 514.3,0.3 513.8,0.3 513.5,0.3 513.5,30.9 "/>
<polygon class="st0" points="477.5,10.8 477.5,10.9 482.8,13.9 "/>
<polygon class="st0" points="477.5,10.9 477.5,10.8 482.8,13.9 513.2,31.4 513.2,31.4 513.2,31.4 513.8,31.8 513.9,31.7 514,31.6 
	513.9,31.5 513.8,31.7 477.4,10.6 477.2,10.7 "/>
<polygon class="st0" points="477.4,10 477.4,10.6 477.9,10.3 477.8,10.3 495.1,0.3 493.8,0.3 493.7,0.3 492.7,0.9 477.5,9.7 
	477.5,0.3 476.9,0.3 476.9,9.7 "/>
<polygon class="st0" points="477.8,10.3 477.9,10.3 477.9,10.3 "/>
<polygon class="st0" points="477.9,10.3 495.1,0.3 477.8,10.3 "/>
<polygon class="st0" points="440.7,30.9 440.7,31.4 440.7,31.5 440.4,31.7 440.6,31.8 441.1,31.5 476.9,10.8 477.1,10.5 477.3,10.6 
	477.4,10.6 477.4,10 476.9,9.7 460.7,0.3 459.4,0.3 459.3,0.3 476.5,10.3 "/>
<polygon class="st0" points="477.3,10.6 477.1,10.5 476.9,10.8 477.1,10.6 "/>
<polygon class="st0" points="407.3,12 404.3,10.3 403.8,10.6 403.8,10.5 403.7,10.6 403.6,10.6 439.6,31.4 439.7,31.4 439.6,31.4 
	440.2,31.8 440.4,31.7 440.7,31.4 440.7,30.9 440.7,0.3 440.1,0.3 440,0.3 440,30.9 "/>
<polygon class="st0" points="404.4,10.3 404.3,10.3 404.3,10.3 404.3,10.3 "/>
<polygon class="st0" points="404.4,10.3 421.6,0.3 421.4,0.3 404.3,10.3 "/>
<polygon class="st0" points="403.8,10 403.8,10.5 404.3,10.3 404.2,10.3 421.4,0.3 420.1,0.3 417.8,1.6 403.9,9.7 403.9,0.3 
	403.2,0.3 403.2,9.7 "/>
<polygon class="st0" points="404.3,10.3 404.3,10.3 404.3,10.3 404.3,10.3 421.4,0.3 404.2,10.3 "/>
<polygon class="st0" points="404.3,10.3 404.3,10.3 403.8,10.5 403.8,10.6 "/>
<polygon class="st0" points="402.9,10.3 385,20.5 367.2,30.8 367.2,31.4 367.2,31.5 366.8,31.8 367.1,31.8 367.5,31.5 403.2,10.8 
	403.6,10.6 403.7,10.5 403.7,10 403.2,9.8 387,0.3 386.4,0.3 385.7,0.3 397.4,7.1 385.7,0.3 385.6,0.3 397.3,7.1 "/>
<polygon class="st0" points="348.6,20.5 330.8,10.3 330.3,10.6 330.2,10.7 330.4,10.8 330.4,10.9 330.5,11 366,31.5 366.2,31.4 
	366.7,31.7 366.8,31.5 366.9,31.6 367.2,31.4 367.2,30.8 367.2,0.3 366.5,0.3 366.5,30.9 366.5,0.3 366.5,0.3 366.5,30.9 "/>
<polygon class="st0" points="330.4,10.9 330.4,10.8 330.2,10.7 330.2,10.7 "/>
<polygon class="st0" points="366.7,31.8 366.8,31.7 366.9,31.6 366.8,31.5 366.7,31.7 366.2,31.4 366,31.5 366.2,31.7 "/>
<polygon class="st0" points="330.3,10 330.3,10.6 330.8,10.3 330.8,10.3 348,0.3 347.2,0.3 346.6,0.3 345.7,0.9 330.4,9.7 
	330.4,0.3 330.3,0.3 329.7,0.3 329.7,9.7 "/>
<path class="st0" d="M330.8,10.3l17.2-10L330.8,10.3z"/>
<polygon class="st0" points="311.5,20.5 293.6,30.9 293.6,31.4 293.6,31.5 293.3,31.7 293.5,31.8 294,31.5 329.7,10.8 330.1,10.6 
	330.1,10.6 330.3,10.6 330.3,10 329.7,9.7 313.5,0.3 312.7,0.3 312.2,0.3 329.3,10.3 "/>
<polygon class="st0" points="257.2,10.3 257.3,10.3 274.5,0.3 259.8,8.8 "/>
<polygon class="st0" points="262.9,13.6 257.3,10.3 256.7,10.6 256.7,10.7 256.9,10.8 256.9,10.9 257,11 292.5,31.6 292.6,31.5 
	292.9,31.7 293.1,31.7 293.2,31.7 293.2,31.7 293.3,31.7 293.6,31.4 293.6,30.9 293.6,0.3 293.4,0.3 292.9,0.3 292.9,30.9 "/>
<polygon class="st0" points="292.9,31.7 292.6,31.5 292.5,31.6 292.7,31.7 "/>
<polygon class="st0" points="293.2,31.7 293.2,31.7 293.1,31.7 293.2,31.8 "/>
<polygon class="st0" points="256.9,10.9 256.9,10.8 256.7,10.7 256.6,10.7 "/>
<polygon class="st0" points="256.6,10 256.6,10.6 257.2,10.3 257.2,10.3 259.8,8.8 274.4,0.3 273.4,0.3 273.1,0.3 270.7,1.6 
	256.9,9.7 256.9,0.3 256.5,0.3 256.2,0.3 256.2,9.7 "/>
<polygon class="st0" points="257.2,10.3 257.2,10.3 259.8,8.8 "/>
<polygon class="st0" points="219.7,31.8 219.7,31.8 219.9,31.8 220.3,31.5 256,10.8 256.4,10.6 256.5,10.5 256.5,10 256,9.8 
	239.8,0.4 238.9,0.4 250.4,7.1 238.9,0.4 238.4,0.4 250.1,7.2 255.6,10.3 255.8,10.3 255.6,10.3 255.7,10.4 237.9,20.5 220.1,30.8 
	220.1,31.4 220.1,31.5 "/>
<path class="st0" d="M219.7,31.8L219.7,31.8L219.7,31.8z"/>
<polygon class="st0" points="183.7,10.3 183.2,10.6 183.2,10.7 183.4,10.8 183.4,11 218.9,31.5 219,31.4 218.9,31.5 218.9,31.5 
	219.1,31.4 219.6,31.7 219.7,31.5 219.8,31.6 220.1,31.4 220.1,30.8 220.1,0.3 219.6,0.3 219.4,0.3 219.4,30.9 "/>
<polygon class="st0" points="183.7,10.3 183.7,10.3 200.9,0.3 186.2,8.8 "/>
<polygon class="st0" points="183.4,11 183.4,10.8 183.2,10.7 183.1,10.7 "/>
<polygon class="st0" points="219.6,31.8 219.7,31.7 219.8,31.6 219.7,31.5 219.6,31.7 219.1,31.4 218.9,31.5 219.1,31.7 "/>
<polygon class="st0" points="183.1,10 183.1,10.6 183.7,10.3 183.7,10.3 186.2,8.8 200.8,0.3 199.6,0.3 199.5,0.3 198.6,0.9 
	183.3,9.7 183.3,0.3 182.7,0.3 182.6,0.3 182.6,9.7 "/>
<polygon class="st0" points="183.7,10.3 183.7,10.3 186.2,8.8 "/>
<polygon class="st0" points="146.6,30.9 146.6,31.5 146.2,31.7 146.3,31.8 146.9,31.5 182.6,10.8 183,10.6 183.1,10.6 183.1,10 
	182.6,9.7 181.6,9.1 166.4,0.3 165.1,0.3 165,0.3 182.3,10.3 "/>
<polygon class="st0" points="110.1,10.3 109.5,10.6 109.5,10.7 109.8,10.8 109.8,11 145.5,31.7 145.6,31.7 145.6,31.7 145.7,31.7 
	146,31.8 146.1,31.7 146.4,31.4 146.4,0.3 145.8,0.3 145.8,30.9 "/>
<polygon class="st0" points="145.6,31.7 145.6,31.7 145.7,31.7 "/>
<polygon class="st0" points="109.8,11 109.8,10.8 109.5,10.7 109.4,10.7 "/>
<polygon class="st0" points="109.5,9.9 109.5,10 109.5,10.5 109.5,10.6 110.1,10.3 110,10.3 127.3,0.3 126,0.3 119.7,3.9 109.8,9.7 
	119.8,3.9 109.8,9.7 109.8,0.3 109.1,0.3 109.1,9.7 "/>
<polygon class="st0" points="110.1,10.3 127.3,0.3 110,10.3 "/>
<polygon class="st0" points="108.7,10.3 73,30.9 73,31.5 72.7,31.8 72.8,31.8 73.3,31.5 109.1,10.8 109.4,10.6 109.5,10.5 109.5,10 
	109.1,9.7 92.9,0.3 91.5,0.3 101.7,6.2 "/>
<polygon class="st0" points="109.1,9.7 109.5,10 109.5,9.9 "/>
<polygon class="st0" points="62,25 36.5,10.3 36,10.6 35.9,10.6 36.2,10.8 71.8,31.5 71.9,31.4 72.4,31.7 72.5,31.5 72.6,31.6 
	72.9,31.4 72.9,0.3 72.4,0.3 72.3,0.3 72.3,30.9 72.3,0.3 72.2,0.3 72.2,30.9 "/>
<polygon class="st0" points="72.4,31.8 72.5,31.7 72.6,31.6 72.5,31.5 72.4,31.7 71.9,31.4 71.8,31.5 71.9,31.5 "/>
<polygon class="st0" points="36,10 36,10.6 36.5,10.3 36.5,10.3 53.7,0.3 52.4,0.3 52.3,0.3 46.2,3.9 36.1,9.7 36.1,0.3 35.5,0.3 
	35.5,9.7 "/>
<path class="st0" d="M36.5,10.3l17.2-10L36.5,10.3z"/>
<polygon class="st0" points="35.9,10.6 36,10.6 36,10 35.5,9.7 19.3,0.3 17.9,0.3 35.2,10.3 0.4,30.4 0.4,30.9 0.4,31.1 35.5,10.8 
	"/>
<polygon class="st0" points="-2.3,-1 -2.3,-1 -0.9,-1 -0.9,0.4 -0.9,-1 -2.3,-1 -2.3,414.9 0.4,413.3 0.4,413.3 0.4,413.1 
	0.4,412.6 0.4,412.2 0.4,372.4 0.4,372.2 0.4,371.7 0.4,370.9 0.4,370 0.4,330 0.4,330 0.4,329.1 0.4,328.4 0.4,328.3 0.4,327.6 
	0.4,327.5 0.4,287.5 0.4,287.4 0.4,286.7 0.4,286.6 0.4,286 0.4,285.7 0.4,285.1 0.4,284.9 0.4,245.1 0.4,244.8 0.4,244.2 0.4,244 
	0.4,243.4 0.4,243.2 0.4,242.7 0.4,242.3 0.4,202.6 0.4,201.8 0.4,201 0.4,200.2 0.4,160.1 0.4,159.3 0.4,159.2 0.4,158.5 
	0.4,158.4 0.4,157.7 0.4,117.6 0.4,116.8 0.4,116.1 0.4,116 0.4,115.2 0.4,115.1 0.4,75.2 0.4,74.3 0.4,73.6 0.4,73.5 0.4,72.8 
	0.4,72.7 0.4,32.7 0.4,32.6 0.4,31.9 0.4,31.8 0.4,31.1 0.4,30.9 0.4,30.4 0.4,30.1 0.4,0.3 17.9,0.3 19.3,0.3 35.5,0.3 36.1,0.3 
	36.2,0.3 52.3,0.3 52.4,0.3 53.7,0.3 53.9,0.3 72.2,0.3 72.3,0.3 72.4,0.3 72.9,0.3 73,0.3 73.1,0.3 91.5,0.3 92.9,0.3 109.1,0.3 
	109.8,0.3 126,0.3 126,0.3 127.3,0.3 127.4,0.3 145.8,0.3 146.4,0.3 146.6,0.3 165,0.3 165.1,0.3 166.4,0.3 166.5,0.3 182.6,0.3 
	182.7,0.3 183.3,0.3 183.4,0.3 199.5,0.3 199.6,0.3 200.8,0.3 200.9,0.3 201.1,0.3 219.4,0.3 219.6,0.3 220.1,0.3 220.3,0.3 
	238.7,0.3 238.9,0.3 240,0.3 240.3,0.3 256.2,0.3 256.5,0.3 256.9,0.3 257.2,0.3 273.1,0.3 273.4,0.3 274.4,0.3 274.5,0.3 
	274.8,0.3 292.9,0.3 293.4,0.3 293.6,0.3 294.1,0.3 312.2,0.3 312.7,0.3 313.5,0.3 314.1,0.3 329.7,0.3 330.3,0.3 330.4,0.3 
	331,0.3 346.6,0.3 347.2,0.3 348,0.3 348.6,0.3 366.5,0.3 366.5,0.3 367.2,0.3 367.2,0.3 367.9,0.3 385.6,0.3 385.7,0.3 386.4,0.3 
	387,0.3 387.9,0.3 403.2,0.3 403.9,0.3 404.1,0.3 404.8,0.3 420.1,0.3 421.4,0.3 421.6,0.3 440,0.3 440.1,0.3 440.7,0.3 440.8,0.3 
	459.3,0.3 459.4,0.3 460.7,0.3 460.8,0.3 476.9,0.3 477.5,0.3 477.6,0.3 493.7,0.3 493.8,0.3 495.1,0.3 495.2,0.3 513.5,0.3 
	513.8,0.3 514.3,0.3 514.5,0.3 532.8,0.3 533.1,0.3 534.2,0.3 534.5,0.3 550.4,0.3 550.7,0.3 551.1,0.3 551.4,0.3 567.3,0.3 
	567.6,0.3 568.6,0.3 569,0.3 587.1,0.3 587.2,0.3 587.6,0.3 587.8,0.3 587.8,0.3 588.3,0.3 606.4,0.3 606.8,0.3 608.3,0.3 624,0.3 
	624.4,0.3 624.7,0.3 625.2,0.3 640.9,0.3 641.4,0.3 642.2,0.3 642.3,0.3 642.8,0.3 660.6,0.3 661.3,0.3 661.3,0.3 661.5,0.3 
	662,0.3 679.9,0.3 680,0.3 680.6,0.3 681.3,0.3 682,0.3 697.5,0.3 698.2,0.3 698.2,0.3 698.9,0.3 714.4,0.3 715.1,0.3 715.7,0.3 
	715.9,0.3 720.7,-2.4 -2.3,-2.4 "/>
<g id="IMAGE" class="st1">
</g>
<g id="BORDER" class="st1">
	<path class="st2" d="M-219.5-174.3h-841.9v1190.6h841.9V-174.3 M-1008.3,961.9v-1082h735.7v1082H-1008.3"/>
</g>
</svg>
