<?xml version="1.0" encoding="UTF-8"?><svg id="b" xmlns="http://www.w3.org/2000/svg" viewBox="0 0 62.49 55.8"><path d="M61.43,9.44c-.64-1.16-1.68-1.99-2.93-2.34l-10-2.79c-.38-2.38-2.36-4.2-4.75-4.2H18.44c-2.39,0-4.37,1.82-4.75,4.2L3.69,7.1C1.12,7.82-.42,10.58,.27,13.25L10.1,51.39c.33,1.3,1.13,2.38,2.25,3.05,.74,.45,1.57,.67,2.41,.67,.42,0,.84-.06,1.26-.17l15.08-4.2,15.08,4.2c.42,.12,.84,.17,1.26,.17,.84,0,1.66-.23,2.41-.67,1.12-.67,1.92-1.75,2.25-3.05L61.91,13.25c.33-1.3,.16-2.65-.48-3.81ZM18.44,1.38h25.31c1.9,0,3.44,1.53,3.58,3.47,0,0,0,0,0,.01l.03,39.76c0,2.07-1.62,3.76-3.61,3.76H27.24s-8.8,0-8.8,0c-1.99,0-3.61-1.68-3.61-3.76V5.03s.03-.17,.03-.17c0,0,0,0,0,0,.14-1.93,1.69-3.47,3.58-3.47Zm-2.74,52.34c-1.92,.54-3.91-.66-4.42-2.66L1.45,12.92c-.52-2,.63-4.06,2.55-4.6l9.61-2.68V44.62c0,2.77,2.17,5.02,4.83,5.02h8.72s1.59,.44,1.59,.44l-13.05,3.64ZM60.74,12.92l-9.83,38.14c-.25,.97-.85,1.78-1.68,2.28-.84,.5-1.81,.63-2.74,.38l-14.63-4.08h11.9c2.66,0,4.83-2.25,4.83-5.02V5.65s9.61,2.68,9.61,2.68c.93,.26,1.71,.88,2.19,1.75,.48,.87,.61,1.88,.36,2.85Z" fill="#058585"/><path d="M23.1,22.64c0,4.19,6.26,8.32,7.52,9.11,0,0,0,0,0,0,.14,.09,.31,.14,.47,.14s.33-.05,.47-.14c1.26-.78,7.52-4.91,7.52-9.11,0-2.63-2.06-4.77-4.58-4.77-1.25,0-2.53,.52-3.41,1.34-.87-.82-2.16-1.34-3.41-1.34-2.53,0-4.58,2.14-4.58,4.77Zm4.58-3.5c1.12,0,2.33,.57,2.92,1.39,.12,.16,.29,.25,.48,.25s.37-.09,.48-.25c.6-.82,1.8-1.39,2.92-1.39,1.86,0,3.37,1.57,3.37,3.5,0,3.4-5.59,7.16-6.78,7.92-1.19-.76-6.78-4.52-6.78-7.92,0-1.93,1.51-3.5,3.37-3.5Z" fill="#058585"/><path d="M18.72,11.75c.09,.04,.18,.06,.27,.06,.22,0,.44-.13,.54-.35l.26-.55h3.61s.26,.55,.26,.55c.15,.31,.55,.41,.85,.26,.15-.07,.26-.21,.31-.37s.04-.33-.03-.49l-2.66-5.53c-.21-.43-.88-.43-1.09,0l-2.66,5.53c-.07,.15-.06,.34,0,.5s.19,.3,.33,.38Zm2.88-4.59l1.18,2.44h-2.35s1.18-2.44,1.18-2.44Z" fill="#058585"/><path d="M37.37,44.28c.05,.16,.19,.3,.33,.38,.09,.04,.18,.06,.27,.06,.22,0,.44-.13,.54-.35l.27-.55h3.61s.27,.55,.27,.55c.15,.31,.55,.41,.85,.26,.15-.07,.26-.21,.31-.37s.04-.33-.03-.49l-2.66-5.53c-.21-.43-.88-.43-1.09,0l-2.66,5.53c-.07,.15-.06,.34,0,.5Zm3.21-4.22l1.17,2.44h-2.35s1.17-2.44,1.17-2.44Z" fill="#058585"/></svg>