<?xml version="1.0" encoding="UTF-8"?><svg id="a" xmlns="http://www.w3.org/2000/svg" viewBox="0 0 99.57 63.11"><g id="b"><path id="c" d="M17.97,1.06C5.54,4.06-2.11,16.58,.9,29.01c1.86,7.68,7.51,13.89,14.98,16.46,1.49,.53,2.27,2.18,1.73,3.67-.02,.04-.03,.09-.05,.13-1.45,3.33-3.36,6.44-5.67,9.24-.75,.92-.62,2.27,.3,3.03,.48,.39,1.1,.56,1.7,.46,18.84-3.06,32.68-19.33,32.68-38.41,0-12.8-10.39-23.18-23.2-23.17-1.82,0-3.64,.22-5.41,.64" fill="#007a79"/><path id="d" d="M70.24,1.06c-12.43,3.01-20.07,15.53-17.07,27.96,1.86,7.68,7.5,13.88,14.98,16.46,1.49,.53,2.27,2.18,1.73,3.67-.02,.04-.03,.09-.05,.13-1.45,3.33-3.36,6.44-5.67,9.24-.75,.92-.62,2.27,.3,3.03,.48,.39,1.09,.56,1.7,.46,18.84-3.06,32.68-19.33,32.69-38.42,0-12.81-10.4-23.18-23.2-23.17-1.82,0-3.63,.22-5.4,.64" fill="#007a79"/></g></svg>