<?xml version="1.0" encoding="UTF-8"?><svg id="b" xmlns="http://www.w3.org/2000/svg" viewBox="0 0 58.63 63.11"><g id="c"><path id="d" d="M29.05,62.76c-15.77,0-28.55-12.8-28.55-28.57,0-15.29,12.06-27.87,27.34-28.52V1.95c0-.67,.54-1.21,1.21-1.21,.24,0,.48,.07,.68,.21l12.31,8.21c.56,.37,.71,1.12,.34,1.68-.09,.13-.2,.25-.34,.34l-12.32,8.21c-.55,.37-1.31,.23-1.68-.33-.14-.2-.21-.44-.21-.68v-4.1c-11.01,.67-19.4,10.14-18.73,21.15,.67,11.01,10.14,19.4,21.15,18.73,10.54-.64,18.76-9.38,18.76-19.94,0-.67,.54-1.21,1.21-1.21h6.16c.67,0,1.21,.54,1.21,1.21h0c-.02,15.76-12.79,28.54-28.55,28.56m1.21-58.54v2.64c0,.67-.54,1.21-1.21,1.21h0c-14.43,0-26.13,11.7-26.13,26.13s11.7,26.13,26.13,26.13c13.96,0,25.46-10.97,26.11-24.92h-3.73c-.67,12.35-11.23,21.83-23.58,21.16-12.35-.67-21.83-11.23-21.16-23.58,.64-11.88,10.47-21.19,22.37-21.19,.67,0,1.21,.54,1.21,1.21h0v3.09s8.92-5.94,8.92-5.94l-8.92-5.94Z" fill="#058585"/><rect id="e" x="36.62" y="28.5" width="2.43" height="13.1" fill="#058585"/><rect id="f" x="30.76" y="29.03" width="2.43" height="12.57" fill="#058585"/><rect id="g" x="19.05" y="31.32" width="2.43" height="10.28" fill="#058585"/><rect id="h" x="24.91" y="27.24" width="2.43" height="14.36" fill="#058585"/><rect id="i" x="36.62" y="22.45" width="2.43" height="19.15" fill="#058585"/><rect id="j" x="15.66" y="40.38" width="26.78" height="2.43" fill="#058585"/></g></svg>