<?xml version="1.0" encoding="UTF-8"?><svg id="b" xmlns="http://www.w3.org/2000/svg" viewBox="0 0 62.49 58.61"><g id="c"><path id="d" d="M21.03,51c-.18,0-.34-.07-.47-.19l-12.84-12.84c-.26-.26-.26-.67,0-.93,0,0,0,0,0,0,2.3-2.3,7.09-6.16,13.31-6.16,1.76,.08,3.51,.38,5.19,.91,1.45,.46,2.95,.73,4.47,.81h13.48c1.98,0,3.74,1.28,4.34,3.17l6.2-6.2c1.8-1.71,4.64-1.71,6.44,0,1.77,1.78,1.77,4.66,0,6.44l-11.01,11.01c-1.58,1.59-3.73,2.48-5.97,2.47H24.7c-1.2,0-2.35,.47-3.2,1.33-.12,.12-.29,.19-.47,.19m-11.9-13.5l11.93,11.93c1.03-.83,2.32-1.28,3.64-1.27h19.47c1.89,0,3.71-.75,5.04-2.09l11.01-11.01c1.26-1.26,1.26-3.3,0-4.57-1.28-1.22-3.29-1.22-4.57,0l-6.93,6.93c-.15,2.4-2.14,4.27-4.55,4.27h-10.15c-.37,.01-.67-.27-.69-.63-.01-.37,.27-.67,.63-.69,.02,0,.04,0,.05,0h10.15c1.78,0,3.23-1.45,3.23-3.23s-1.45-3.23-3.23-3.23h-13.48c-1.63-.08-3.25-.37-4.81-.86-1.57-.49-3.21-.78-4.85-.87-5.35,0-9.6,3.14-11.9,5.32" fill="#058585"/><path id="e" d="M48.06,37.8c-.09,0-.17-.02-.25-.05-.25-.1-.41-.34-.41-.61,0-1.78-1.45-3.23-3.23-3.23h-.51c-.36,0-.66-.3-.66-.66,0-.18,.07-.34,.19-.47l5.63-5.63c1.57-1.58,4.12-1.58,5.7-.01,.81,.8,1.24,1.91,1.18,3.05,0,.17-.08,.32-.19,.44l-6.98,6.98c-.12,.12-.29,.19-.47,.19m.66-.66h0Zm-3.57-4.45c1.58,.35,2.86,1.52,3.36,3.06l5.87-5.87c-.02-.68-.3-1.32-.78-1.8-1.06-1.06-2.78-1.06-3.85,0l-4.61,4.61Z" fill="#058585"/><path id="f" d="M43.66,33.91h-7.09c-.37,0-.66-.3-.66-.66,0-.18,.07-.34,.19-.47l6.92-6.92c1.35-1.36,3.54-1.37,4.9-.02,.76,.75,1.13,1.82,1,2.88-.02,.15-.08,.29-.19,.39l-4.61,4.6c-.12,.12-.29,.19-.47,.19m-5.49-1.32h5.22s4.24-4.24,4.24-4.24c.02-.58-.21-1.14-.62-1.55-.84-.84-2.21-.84-3.05,0l-5.79,5.79Zm10.1-3.94h0Z" fill="#058585"/><path id="g" d="M16.07,58.23c-1.07,0-2.1-.42-2.86-1.18L1.48,45.31c-1.58-1.58-1.58-4.14,0-5.72l2.01-2.02c1.58-1.58,4.14-1.58,5.72,0l11.73,11.73c1.58,1.58,1.58,4.14,0,5.72l-2.01,2.01c-.76,.76-1.79,1.18-2.86,1.18M6.35,37.72c-.72,0-1.41,.29-1.92,.8l-2.01,2.01c-1.06,1.06-1.06,2.78,0,3.85l11.73,11.73c1.06,1.06,2.78,1.06,3.85,0l2.01-2.01c1.06-1.06,1.06-2.78,0-3.85l-11.73-11.73c-.51-.51-1.2-.8-1.92-.8" fill="#058585"/><path id="h" d="M27.29,23.83c-4.24,0-7.68-3.45-7.68-7.69s3.45-7.68,7.69-7.68c4.24,0,7.68,3.44,7.68,7.68,0,4.24-3.45,7.68-7.69,7.68m0-14.05c-3.51,0-6.36,2.85-6.36,6.36,0,3.51,2.85,6.36,6.36,6.36,3.51,0,6.36-2.85,6.36-6.36,0-3.51-2.85-6.36-6.36-6.36" fill="#058585"/><path id="i" d="M46.02,13.29c-3.6,0-6.51-2.92-6.51-6.51,0-3.6,2.92-6.51,6.51-6.51,3.6,0,6.51,2.92,6.51,6.51,0,3.6-2.92,6.51-6.51,6.51m0-11.7c-2.87,0-5.19,2.32-5.19,5.19,0,2.87,2.32,5.19,5.19,5.19s5.19-2.32,5.19-5.19h0c0-2.86-2.33-5.19-5.19-5.19" fill="#058585"/></g></svg>