<?xml version="1.0" encoding="UTF-8"?><svg id="b" xmlns="http://www.w3.org/2000/svg" viewBox="0 0 62.49 45.87"><path d="M47.03,14c3.16,0,5.73-2.57,5.73-5.73s-2.57-5.73-5.73-5.73-5.73,2.57-5.73,5.73,2.57,5.73,5.73,5.73Zm0-10.36c2.56,0,4.64,2.08,4.64,4.64s-2.08,4.64-4.64,4.64-4.64-2.08-4.64-4.64,2.08-4.64,4.64-4.64Z" fill="#058585"/><path d="M62.19,29.05l-6.03-11.3c-1.11-2.08-3.27-3.38-5.63-3.38h-7c-2.36,0-4.52,1.29-5.63,3.38l-4.09,7.67-6.15-9.47c-1.18-1.82-3.18-2.91-5.35-2.91h-7.66c-2.17,0-4.17,1.09-5.35,2.91L.87,28.97c-.52,.81-.56,1.8-.1,2.64,.46,.85,1.31,1.35,2.28,1.35,.73,0,1.43-.31,1.92-.85l5.99-6.61v16.19c0,2.23,1.81,4.04,4.04,4.04,1.49,0,2.8-.81,3.5-2.02,.7,1.21,2.01,2.02,3.5,2.02,2.23,0,4.04-1.81,4.04-4.04V25.5s5.99,6.61,5.99,6.61c.49,.54,1.19,.85,1.92,.85,.04,0,.08-.01,.12-.02,.05,0,.15,.02,.18,.02,.89,0,1.71-.44,2.21-1.18l4.84-7.22-2.96,14.7c-.03,.16,0,.33,.11,.45,.1,.13,.26,.2,.42,.2h4.7s0,2.38,0,2.38c0,1.9,1.55,3.45,3.45,3.45h.02c1.9,0,3.45-1.55,3.45-3.45v-2.38s4.7,0,4.7,0c.16,0,.32-.07,.42-.2,.1-.13,.14-.29,.11-.45l-2.96-14.7,4.84,7.22c.49,.74,1.32,1.18,2.23,1.18s1.79-.48,2.28-1.29c.48-.81,.51-1.78,.07-2.62Zm-36.3-5.33c-.15-.17-.39-.22-.6-.14-.21,.08-.35,.28-.35,.51v17.61c0,1.63-1.33,2.96-2.95,2.96s-2.95-1.33-2.95-2.96v-9.55c0-.3-.24-.54-.54-.54s-.54,.24-.54,.54v9.55c0,1.63-1.33,2.96-2.95,2.96s-2.96-1.33-2.96-2.96V24.09c0-.22-.14-.43-.35-.51-.21-.08-.45-.02-.6,.14l-6.94,7.66c-.66,.72-1.96,.57-2.43-.29-.27-.49-.24-1.06,.06-1.53l8.44-13.02c.98-1.51,2.64-2.41,4.44-2.41h7.66c1.8,0,3.46,.9,4.44,2.41l6.65,10.25s0,0,0,0l1.8,2.77s.03,.07,.05,.11c.05,.08,.09,.17,.12,.25,.01,.03,.01,.07,.02,.1,.02,.09,.05,.19,.05,.28,0,.06,0,.13-.01,.19,0,.06,0,.12-.02,.18-.03,.11-.07,.23-.12,.34,0,0,0,.01,0,.02-.24,.48-.7,.79-1.24,.82-.01,0-.02,0-.03,0-.03,0-.05,0-.07,0-.42,0-.83-.18-1.11-.49l-6.94-7.66Zm23.51,18.57c0,1.3-1.06,2.36-2.36,2.36h-.02c-1.3,0-2.36-1.06-2.36-2.36v-2.38s4.74,0,4.74,0v2.38Zm11.78-11.18c-.29,.48-.79,.76-1.36,.76-.52,0-1.01-.26-1.3-.69l-6.37-9.5c-.14-.22-.42-.3-.66-.2-.24,.1-.38,.36-.32,.61l3.37,16.73h-4.58s-5.83,0-5.83,0h-4.58s3.37-16.73,3.37-16.73c.05-.25-.09-.51-.32-.61-.24-.1-.52-.02-.66,.2l-5.45,8.12s-.03-.08-.04-.12c-.02-.05-.03-.11-.05-.16-.07-.19-.15-.38-.26-.55l-1.62-2.5,4.38-8.2c.92-1.73,2.71-2.8,4.67-2.8h7c1.96,0,3.74,1.07,4.67,2.8l6.03,11.3c.26,.49,.25,1.07-.04,1.54Z" fill="#058585"/><path d="M18.49,12.97c3.52,0,6.38-2.86,6.38-6.38S22.01,.21,18.49,.21s-6.38,2.86-6.38,6.38,2.86,6.38,6.38,6.38Zm0-11.66c2.92,0,5.29,2.37,5.29,5.29s-2.37,5.29-5.29,5.29-5.29-2.37-5.29-5.29S15.58,1.3,18.49,1.3Z" fill="#058585"/></svg>