<?xml version="1.0" encoding="UTF-8"?><svg id="b" xmlns="http://www.w3.org/2000/svg" viewBox="0 0 48.23 63.11"><path d="M46.01,17.33c.6,0,1.13-.33,1.39-.87,.26-.54,.2-1.16-.18-1.65L35.36,.75c-.59-.76-1.87-.74-2.42-.02l-11.89,14.1c-.36,.47-.43,1.09-.17,1.63,.26,.53,.79,.87,1.39,.87h3.91v8l-9.91-11.76c-.63-.8-1.97-.78-2.57-.02L.63,29.05c-.39,.5-.46,1.16-.18,1.72,.28,.57,.84,.92,1.47,.92H6.28v14.67c0,.35,.29,.64,.64,.64h15.24v15.12c0,.35,.29,.64,.64,.64h17.57c.35,0,.64-.29,.64-.64v-21.17h4.82c.66,0,1.26-.37,1.55-.97s.22-1.29-.2-1.84l-5.07-6.02v-14.79h3.91ZM7.56,45.72v-14.66c0-.35-.3-.65-.65-.65H1.92c-.14,0-.26-.07-.32-.2-.06-.13-.05-.27,.02-.36L14.69,14.35c.14-.18,.41-.2,.58,.02l10.38,12.32-9.67,11.48c-.41,.52-.48,1.22-.19,1.82,.29,.6,.89,.97,1.55,.97h4.82v4.78H7.56Zm38.67-6.31c-.08,.16-.23,.25-.4,.25h-5.45c-.35,0-.65,.3-.65,.65v21.16H23.44v-21.16c0-.35-.3-.65-.65-.65h-5.45c-.18,0-.33-.09-.4-.25-.08-.16-.06-.33,.03-.45l14.26-16.92c.17-.22,.52-.24,.72,.02l14.23,16.88c.11,.14,.13,.32,.05,.47Zm-14.65-18.82c-.54,0-1.04,.24-1.35,.65l-2.78,3.3v-7.84c0-.35-.29-.65-.65-.65h-4.54c-.11,0-.19-.05-.24-.15-.05-.09-.04-.2,.01-.26L33.93,1.53c.1-.13,.3-.15,.44,.02l11.85,14.06c.06,.08,.07,.19,.03,.28s-.14,.15-.24,.15h-4.54c-.35,0-.65,.29-.65,.65v13.91l-7.87-9.34c-.33-.42-.83-.67-1.36-.67Z" fill="#058585"/></svg>