<?xml version="1.0" encoding="UTF-8"?><svg id="b" xmlns="http://www.w3.org/2000/svg" viewBox="0 0 62.49 57.86"><path d="M31.72,.79c-.21-.15-.5-.15-.71,0L.56,22.71c-.21,.15-.3,.43-.22,.68s.32,.42,.58,.42H3.96v6.7c0,.34,.27,.61,.61,.61h1.83v4.26c0,.34,.27,.61,.61,.61h1.83v15.83H4.57c-.34,0-.61,.27-.61,.61v4.87c0,.34,.27,.61,.61,.61H58.16c.34,0,.61-.27,.61-.61v-4.87c0-.34-.27-.61-.61-.61h-4.26v-15.83h1.83c.34,0,.61-.27,.61-.61v-4.26h1.83c.34,0,.61-.27,.61-.61v-6.7h3.04c.26,0,.5-.17,.58-.42s0-.53-.22-.68L31.72,.79ZM7.61,31.12h10.96v3.65H7.61v-3.65Zm17.05,0v4.26c0,.34,.27,.61,.61,.61h1.83v15.83h-9.74v-15.83h1.83c.34,0,.61-.27,.61-.61v-4.26h4.87Zm18.27,0v4.26c0,.34,.27,.61,.61,.61h1.83v15.83h-9.74v-15.83h1.83c.34,0,.61-.27,.61-.61v-4.26h4.87Zm-14.62,4.87h6.09v15.83h-6.09v-15.83Zm8.53-1.22h-10.96v-3.65h10.96v3.65Zm-26.79,1.22h6.09v15.83h-6.09v-15.83Zm47.5,20.7H5.18v-3.65H57.55v3.65Zm-4.87-4.87h-6.09v-15.83h6.09v15.83Zm2.44-17.05h-10.96v-3.65h10.96v3.65Zm2.44-4.87H5.18v-6.09H57.55v6.09Zm.61-7.31H2.8L31.36,2.03l28.56,20.56h-1.77Z" fill="#058585"/><path d="M27.71,14.68c0,2.01,1.64,3.65,3.65,3.65s3.65-1.64,3.65-3.65-1.64-3.65-3.65-3.65-3.65,1.64-3.65,3.65Zm6.09,0c0,1.34-1.09,2.44-2.44,2.44s-2.44-1.09-2.44-2.44,1.09-2.44,2.44-2.44,2.44,1.09,2.44,2.44Z" fill="#058585"/></svg>