<?xml version="1.0" encoding="UTF-8"?><svg id="b" xmlns="http://www.w3.org/2000/svg" viewBox="0 0 39.31 63.11"><path d="M38.68,42.28c0-2.04-1.66-3.7-3.7-3.7h-7.16c.19-.14,.37-.29,.54-.46,2.62-2.62,3.73-8.05,3.77-8.28,.07-.33-.15-.66-.48-.72-.29-.06-7.04-1.41-9.76,1.31-.74,.74-1.26,1.7-1.63,2.7v-6.89c6.82-.36,12.26-6,12.26-12.91S26.72,.38,19.58,.38,6.64,6.18,6.64,13.32s5.44,12.55,12.26,12.91v6.89c-.37-1-.89-1.96-1.63-2.7-2.72-2.72-9.48-1.36-9.76-1.31-.33,.07-.55,.39-.48,.72,.05,.23,1.16,5.67,3.77,8.28,.17,.17,.35,.32,.54,.46H4.17c-2.04,0-3.7,1.66-3.7,3.7,0,1.87,1.41,3.41,3.22,3.65l3.79,13.28c.68,2.37,2.87,4.02,5.33,4.02h13.51c2.46,0,4.65-1.65,5.33-4.02l3.79-13.28c1.81-.24,3.22-1.77,3.22-3.65Zm-15.92-10.99c1.68-1.68,5.91-1.42,8.02-1.08-.36,1.46-1.42,5.17-3.29,7.04-1.83,1.83-5.6,1.32-6.91,1.08,.04-1.34,.31-5.15,2.19-7.03ZM7.87,13.32C7.87,6.86,13.12,1.61,19.58,1.61s11.71,5.25,11.71,11.71-5.14,11.58-11.49,11.7c-.07-.03-.14-.05-.22-.05s-.15,.02-.22,.05c-6.35-.12-11.49-5.31-11.49-11.7Zm.5,16.89c2.12-.33,6.34-.6,8.02,1.08,1.88,1.88,2.15,5.69,2.19,7.03-1.32,.25-5.08,.76-6.91-1.08-1.87-1.87-2.93-5.58-3.29-7.04Zm24.22,21.27l-2.11,7.39c-.53,1.84-2.23,3.13-4.15,3.13H12.82c-1.92,0-3.62-1.29-4.15-3.13l-3.68-12.89h29.18l-1.57,5.5Zm2.39-6.73H4.17c-1.36,0-2.46-1.11-2.46-2.46s1.11-2.46,2.46-2.46H15.88s.05,0,.07,0c.03,0,.05,0,.08,0h3.3c.08,.04,.17,.06,.25,.06s.17-.02,.25-.06h3.3s.05,0,.08,0c.02,0,.05,0,.07,0h11.7c1.36,0,2.46,1.11,2.46,2.46s-1.11,2.46-2.46,2.46Z" fill="#058585"/><path d="M19.58,20.15c.34,0,.64-.3,.64-.64v-1.11h.48c1.58,0,2.86-1.28,2.86-2.87s-1.28-2.86-2.86-2.86h-2.24c-.87,0-1.58-.71-1.58-1.59s.71-1.58,1.58-1.58h2.24c.66,0,1.2,.54,1.2,1.21,0,.34,.3,.64,.64,.64s.64-.31,.64-.65c0-1.37-1.12-2.49-2.49-2.49h-.48v-1.11c0-.34-.3-.64-.64-.64s-.64,.3-.64,.64v1.11h-.48c-1.58,0-2.86,1.28-2.86,2.87s1.28,2.86,2.86,2.86h2.24c.87,0,1.58,.71,1.58,1.59s-.71,1.58-1.58,1.58h-2.6c-.67,0-1.21-.54-1.21-1.21,0-.34-.3-.64-.64-.64s-.64,.3-.64,.64c0,1.37,1.12,2.49,2.49,2.49h.84v1.11c0,.34,.3,.64,.64,.64Z" fill="#058585"/></svg>