<?xml version="1.0" encoding="UTF-8"?><svg id="b" xmlns="http://www.w3.org/2000/svg" viewBox="0 0 62.49 63.11"><path d="M61.7,61.5h-8.33s0-6.46,0-6.46c2.7-1.27,4.43-3.94,4.43-6.94,0-3.15-1.89-5.95-4.82-7.14-.14-.06-.3-.06-.45,0-2.93,1.18-4.82,3.99-4.82,7.14s1.73,5.67,4.43,6.94v6.46s-20.21,0-20.21,0v-5.64c1.13,.66,2.37,1.01,3.63,1.01s2.46-.32,3.58-.98c2.57-1.51,3.95-4.45,3.51-7.49-.02-.16-.1-.3-.23-.4-2.37-1.9-5.56-2.16-8.13-.65-.97,.57-1.77,1.34-2.37,2.25v-5.48c2.57-1.22,4.22-3.77,4.22-6.65,0-3.02-1.81-5.71-4.62-6.84-.14-.06-.3-.06-.45,0-2.81,1.13-4.62,3.82-4.62,6.84,0,2.87,1.65,5.43,4.22,6.65v5.48c-.6-.91-1.4-1.68-2.37-2.25-2.57-1.51-5.76-1.26-8.13,.65-.12,.1-.2,.24-.23,.4-.44,3.04,.94,5.98,3.51,7.49,1.12,.66,2.35,.98,3.58,.98s2.5-.35,3.63-1.01v5.64s-20.21,0-20.21,0v-6.46c2.7-1.27,4.43-3.94,4.43-6.94,0-3.15-1.89-5.95-4.82-7.14-.14-.06-.3-.06-.45,0-2.93,1.18-4.82,3.99-4.82,7.14s1.73,5.67,4.43,6.94v6.46s-8.33,0-8.33,0c-.34,0-.61,.32-.61,.67s.27,.62,.61,.62H61.7c.34,0,.61-.32,.61-.67s-.27-.62-.61-.62Zm-12.77-13.41c0-2.56,1.49-4.85,3.83-5.89,2.33,1.04,3.83,3.33,3.83,5.89s-1.49,4.85-3.83,5.89c-2.33-1.04-3.83-3.33-3.83-5.89Zm-14.03,.34c2.07-1.22,4.62-1.05,6.57,.4,.26,2.45-.88,4.78-2.95,5.99-2.07,1.21-4.62,1.05-6.57-.4-.03-.25-.03-.5-.03-.74v-.22c.09-2.08,1.18-3.97,2.97-5.02Zm-7.22-10.94c0-2.43,1.42-4.6,3.63-5.59,2.21,.99,3.63,3.16,3.63,5.59s-1.42,4.6-3.63,5.59c-2.21-.99-3.63-3.16-3.63-5.59Zm2.98,16.93c-1.95,1.45-4.5,1.61-6.57,.4-2.07-1.21-3.21-3.55-2.95-5.99,1.95-1.45,4.5-1.61,6.57-.4,1.79,1.05,2.89,2.95,2.97,5.03v.19c0,.25,0,.51-.03,.76Zm-24.63-6.33c0-2.56,1.49-4.85,3.83-5.89,2.33,1.04,3.83,3.33,3.83,5.89s-1.49,4.85-3.83,5.89c-2.33-1.04-3.83-3.33-3.83-5.89Z" fill="#058585"/><path d="M61.7,4.83h-8.72S44.81,.68,44.81,.68c-.59-.3-1.27-.27-1.82,.08-.56,.35-.89,.96-.89,1.62v1.14s-.65,0-.65,0c-4.23,0-8.2,1.68-11.19,4.72-2.99,3.04-4.63,7.08-4.63,11.39v5.15c0,.34,.27,.62,.61,.62h.05c.34,0,.61-.28,.61-.62v-5.15c0-3.96,1.51-7.68,4.27-10.48,2.75-2.8,6.41-4.34,10.3-4.34h.65s0,3.87,0,3.87h-.65c-5.93,0-10.76,4.91-10.76,10.95v5.15c0,.34,.27,.62,.61,.62h.05c.34,0,.61-.28,.61-.62v-5.15c0-5.33,4.26-9.66,9.5-9.66h.65s0,3.87,0,3.87h-.65c-3.14,0-5.7,2.6-5.7,5.8v5.15c0,.34,.27,.62,.61,.62h.05c.34,0,.61-.28,.61-.62v-5.15c0-2.49,1.99-4.51,4.43-4.51h.65s0,1.14,0,1.14c0,.67,.33,1.27,.89,1.62,.3,.19,.64,.29,.99,.29,.28,0,.57-.07,.84-.2l8.17-4.16h8.72c.34,0,.61-.28,.61-.62V5.45c0-.34-.27-.62-.61-.62Zm-17.43,12.02c-.21,.11-.44,.1-.64-.03-.2-.12-.31-.33-.31-.57V2.38c0-.24,.11-.45,.31-.57,.11-.07,.23-.1,.34-.1,.1,0,.2,.02,.3,.07l7.96,4.05v6.97s-7.96,4.05-7.96,4.05Zm16.82-4.29h-7.65s0-6.49,0-6.49h7.65s0,6.49,0,6.49Z" fill="#058585"/></svg>