<?xml version="1.0" encoding="UTF-8"?><svg id="b" xmlns="http://www.w3.org/2000/svg" viewBox="0 0 62.49 45.3"><path d="M13.27,37.64c-.62,0-1.13,.51-1.13,1.15s.5,1.15,1.13,1.15,1.13-.51,1.13-1.15-.5-1.15-1.13-1.15Zm0,1.15h0s.56,0,.56,0h-.56Z" fill="#058585"/><path d="M49.3,37.64c-.62,0-1.13,.51-1.13,1.15s.5,1.15,1.13,1.15,1.13-.51,1.13-1.15-.5-1.15-1.13-1.15Zm0,1.15h0s.56,0,.56,0h-.56Z" fill="#058585"/><path d="M60.01,35.98v-7.65c-.01-2.23-1.4-4.19-3.48-4.9l-3.48-1.18-2.14-3.63-1.81-3.07s0,0,0,0l-2.19-3.72h12.52c.31,0,.56-.26,.56-.57v-2.5c0-2.24-.86-4.35-2.42-5.94-1.56-1.59-3.63-2.46-5.83-2.46H3.13c-.31,0-.56,.26-.56,.57V35.98c-1.29,.27-2.25,1.42-2.25,2.82,0,1.58,1.26,2.86,2.8,2.86H7.76c1.03,2.04,3.11,3.44,5.51,3.44s4.48-1.4,5.51-3.44h25.01c1.03,2.04,3.11,3.44,5.51,3.44s4.48-1.4,5.51-3.44h4.64c1.55,0,2.8-1.28,2.8-2.88,0-1.38-.96-2.53-2.24-2.8Zm-8.32-13.82h-8.58s0-5.74,0-5.74h5.2s3.38,5.74,3.38,5.74Zm-4.05-6.88h-5.09c-.31,0-.56,.26-.56,.57v6.88c0,.32,.25,.57,.56,.57h10.04s3.59,1.22,3.59,1.22c1.61,.55,2.7,2.08,2.7,3.81v7.59s-4.06,0-4.06,0c0,0,0-.01-.01-.02-.13-.25-.27-.49-.42-.72-.01-.02-.03-.04-.04-.06-.14-.2-.29-.38-.44-.56-.04-.04-.07-.08-.11-.12-.18-.19-.36-.37-.56-.54,0,0,0,0,0,0-.19-.16-.4-.31-.61-.45-.05-.03-.1-.06-.15-.09-.19-.12-.39-.22-.6-.32-.03-.01-.05-.03-.08-.04-.24-.1-.48-.19-.73-.27-.05-.01-.1-.02-.14-.04-.2-.06-.41-.1-.62-.13-.07-.01-.13-.02-.2-.03-.26-.03-.52-.06-.78-.06s-.52,.02-.78,.06c-.07,0-.13,.02-.2,.03-.21,.03-.42,.08-.62,.13-.05,.01-.1,.02-.14,.04-.25,.07-.49,.16-.73,.27-.03,.01-.05,.03-.08,.04-.21,.1-.41,.2-.6,.32-.05,.03-.1,.06-.15,.09-.21,.14-.42,.28-.61,.45,0,0,0,0,0,0-.2,.17-.39,.35-.56,.54-.04,.04-.07,.08-.11,.12-.16,.18-.31,.36-.44,.56-.01,.02-.03,.04-.04,.06-.16,.23-.3,.47-.42,.72,0,0,0,.01-.01,.02h-5.19s0-24.07,0-24.07h7.01s2.01,3.42,2.01,3.42Zm-22.54,9.2h1.69c.31,0,.56-.3,.56-.62s-.25-.57-.56-.57h-1.69s0-11.45,0-11.45h12.39s0,24.09,0,24.09h-12.39s0-11.45,0-11.45ZM3.7,1.51H51.75c1.9,0,3.69,.75,5.04,2.13,1.34,1.37,2.08,3.19,2.08,5.13v1.92s-12.84,0-12.84,0c-.04,0-.07-.02-.11-.02h-7.88s-.06,.02-.09,.02h-13.42c-.31,0-.56,.26-.56,.57v24.67s-5.19,0-5.19,0c0,0,0-.01-.01-.02-.13-.25-.27-.49-.42-.72-.01-.02-.03-.04-.04-.06-.14-.2-.29-.38-.44-.56-.04-.04-.07-.08-.11-.12-.18-.19-.36-.37-.56-.54,0,0,0,0,0,0-.19-.16-.4-.31-.61-.45-.05-.03-.1-.06-.15-.09-.19-.12-.39-.22-.6-.32-.03-.01-.05-.03-.08-.04-.24-.1-.48-.19-.73-.27-.05-.01-.1-.02-.14-.04-.2-.06-.41-.1-.62-.13-.07-.01-.13-.02-.2-.03-.26-.03-.52-.06-.78-.06s-.52,.02-.78,.06c-.07,0-.13,.02-.2,.03-.21,.03-.42,.08-.62,.13-.05,.01-.1,.02-.14,.04-.25,.07-.49,.16-.73,.27-.03,.01-.05,.03-.08,.04-.21,.1-.41,.2-.6,.32-.05,.03-.1,.06-.15,.09-.21,.14-.42,.28-.61,.45,0,0,0,0,0,0-.2,.17-.39,.35-.56,.54-.04,.04-.07,.08-.11,.12-.16,.18-.31,.36-.44,.56-.01,.02-.03,.04-.04,.06-.16,.23-.3,.47-.42,.72,0,0,0,.01-.01,.02H3.68s.01-34.42,.01-34.42Zm3.62,39.01H3.12c-.92,0-1.68-.77-1.68-1.73s.75-1.71,1.68-1.71H7.31s0,.04-.01,.06c-.06,.23-.11,.46-.14,.69,0,.06-.02,.12-.03,.18-.03,.26-.05,.53-.05,.8s.02,.53,.05,.8c0,.06,.02,.12,.03,.18,.04,.23,.08,.46,.14,.69,0,.02,0,.04,.01,.06Zm5.96,3.44c-2.08,0-3.86-1.28-4.64-3.1-.28-.66-.43-1.35-.43-2.06s.14-1.4,.43-2.06c.11-.26,.25-.51,.4-.74,.06-.09,.12-.17,.19-.26,.11-.16,.24-.31,.37-.45,.07-.08,.15-.16,.22-.23,.16-.15,.33-.3,.51-.43,.06-.04,.11-.09,.17-.13,.24-.16,.49-.29,.75-.41,.08-.04,.17-.07,.25-.1,.2-.08,.41-.14,.62-.2,.09-.02,.18-.05,.27-.06,.3-.05,.6-.09,.91-.09s.61,.04,.91,.09c.09,.02,.18,.04,.27,.06,.21,.05,.42,.12,.62,.2,.08,.03,.17,.06,.25,.1,.26,.12,.51,.25,.75,.41,.06,.04,.11,.09,.17,.13,.18,.13,.35,.27,.51,.43,.08,.07,.15,.15,.22,.23,.13,.14,.25,.29,.37,.45,.06,.09,.13,.17,.19,.26,.15,.23,.28,.48,.39,.74,.28,.66,.43,1.35,.43,2.06s-.14,1.4-.43,2.06c-.78,1.82-2.57,3.1-4.64,3.1Zm30.08-3.44H19.22s0-.04,.01-.06c.06-.22,.11-.45,.14-.68,0-.06,.02-.13,.03-.19,.03-.26,.05-.52,.05-.79s-.02-.53-.05-.79c0-.06-.02-.13-.03-.19-.04-.23-.08-.46-.14-.68,0-.02,0-.04-.01-.06h5.3s13.51,0,13.51,0h5.3s0,.04-.01,.06c-.06,.23-.11,.46-.14,.69,0,.06-.02,.12-.03,.18-.03,.26-.05,.53-.05,.8s.02,.53,.05,.8c0,.06,.02,.12,.03,.18,.04,.23,.08,.46,.14,.69,0,.02,0,.04,.01,.06Zm5.96,3.44c-2.08,0-3.86-1.28-4.64-3.1-.28-.66-.43-1.35-.43-2.06s.14-1.4,.43-2.06c.11-.26,.25-.51,.4-.74,.06-.09,.12-.17,.19-.26,.11-.16,.24-.31,.37-.45,.07-.08,.15-.16,.22-.23,.16-.15,.33-.3,.51-.43,.06-.04,.11-.09,.17-.13,.24-.16,.49-.29,.75-.41,.08-.04,.17-.07,.25-.1,.2-.08,.41-.14,.62-.2,.09-.02,.18-.05,.27-.06,.3-.05,.6-.09,.91-.09s.61,.04,.91,.09c.09,.02,.18,.04,.27,.06,.21,.05,.42,.12,.62,.2,.08,.03,.17,.06,.25,.1,.26,.12,.51,.25,.75,.41,.06,.04,.11,.09,.17,.13,.18,.13,.35,.27,.51,.43,.08,.07,.15,.15,.22,.23,.13,.14,.25,.29,.37,.45,.06,.09,.13,.17,.19,.26,.15,.23,.28,.48,.39,.74,.28,.66,.43,1.35,.43,2.06s-.14,1.4-.43,2.06c-.78,1.82-2.57,3.1-4.64,3.1Zm10.15-3.44h-4.19s0-.04,.01-.06c.06-.22,.11-.45,.14-.68,0-.06,.02-.13,.03-.19,.03-.26,.05-.52,.05-.79s-.02-.53-.05-.79c0-.06-.02-.13-.03-.19-.04-.23-.08-.46-.14-.68,0-.02,0-.04-.01-.06h4.19c.92,0,1.68,.77,1.68,1.73s-.75,1.71-1.68,1.71Z" fill="#058585"/><path d="M20.59,20.43V11.26c0-.32-.25-.57-.56-.57H7.64c-.31,0-.56,.26-.56,.57v9.18c0,.32,.25,.57,.56,.57h12.39c.31,0,.56-.26,.56-.57Zm-1.13-.57H8.2s0-8.03,0-8.03h11.26s0,8.03,0,8.03Z" fill="#058585"/></svg>