<?xml version="1.0" encoding="UTF-8"?><svg id="b" xmlns="http://www.w3.org/2000/svg" viewBox="0 0 62.49 57.86"><path d="M61.54,26.71L33.29,.98c-1.26-1.09-3.16-1.09-4.43,0L.63,26.7C0,27.26-.22,28.12,.07,28.91c.3,.79,1.03,1.3,1.87,1.3H6.83s0,21.62,0,21.62c0,3.36,2.74,6.1,6.1,6.1H49.23c3.36,0,6.1-2.74,6.1-6.1V30.21s4.88,0,4.88,0c.84,0,1.58-.51,1.88-1.3s.07-1.66-.55-2.2Zm-.64,1.76c-.04,.11-.21,.48-.69,.48h-5.52c-.17,0-.33,.07-.45,.19s-.19,.28-.19,.45v22.25c0,2.66-2.17,4.83-4.83,4.83H12.93c-2.66,0-4.83-2.17-4.83-4.83V29.57c0-.17-.07-.33-.19-.45s-.28-.19-.45-.19H1.94c-.47,0-.64-.36-.68-.47-.04-.11-.15-.5,.21-.81,0,0,0,0,.01,0L29.7,1.94c.78-.68,1.96-.68,2.74,0l28.25,25.72c.36,.31,.25,.7,.21,.81Z" fill="#058585"/><path d="M43.31,45.59c-.8,.8-1.67,1.5-2.58,2.09l-4.12-6.18h3.87c.35,0,.66-.31,.66-.66v-1.51c0-4.22-3.43-7.65-7.65-7.65h-10.2s0-4.46,0-4.46c0-2.71-2.2-4.91-4.91-4.91-.35,0-.66,.31-.66,.66s.31,.66,.66,.66c1.98,0,3.59,1.61,3.59,3.59v11.07c0,1.77,1.44,3.21,3.21,3.21h2.17s-4.12,6.18-4.12,6.18c-.91-.6-1.78-1.29-2.58-2.09-.25-.25-.69-.25-.93,0s-.25,.69,0,.93c3.27,3.27,7.63,5.07,12.27,5.07s9-1.8,12.27-5.07c.25-.25,.25-.69,0-.93s-.69-.25-.93,0Zm-18.13-5.41c-1.04,0-1.89-.85-1.89-1.89v-5.29s10.2,0,10.2,0c3.49,0,6.33,2.84,6.33,6.33v.85s-14.64,0-14.64,0Zm-.81,8.17l4.56-6.85h6.09s4.57,6.85,4.57,6.85c-4.73,2.55-10.49,2.55-15.22,0Z" fill="#058585"/></svg>