<?xml version="1.0" encoding="UTF-8"?><svg id="b" xmlns="http://www.w3.org/2000/svg" viewBox="0 0 62.49 56.87"><path d="M17.45,20.78c-1.79,0-3.24,1.45-3.24,3.24,0,.35,.41,.63,.75,.63s.63-.28,.63-.63c0-1.02,.83-1.85,1.85-1.85s1.85,.83,1.85,1.85c0,.35,.28,.63,.63,.63h.12c.35,0,.63-.28,.63-.63,0-1.79-1.45-3.24-3.24-3.24Z" fill="#058585"/><path d="M47.65,.66c-4.34,0-8.24,1.95-10.87,5.01-1.13-.11-2.24-.17-3.31-.17-3,0-6.09,.46-8,1.18-.51-1.23-1.31-2.33-2.4-3.3-1.99-1.75-4.26-2.44-5.14-2.66-.6-.14-1.21,0-1.69,.37-.48,.37-.75,.94-.75,1.54V11.49c-4.13,3.07-7.33,7.1-9.07,11.41H3.3c-1.66,0-3.01,1.35-3.01,3.01v9.28c0,1.66,1.35,3.01,3.01,3.01h3.13c.73,1.78,1.74,3.33,3.15,4.84,1.29,1.39,2.79,2.6,4.62,3.98v6.92c0,1.66,1.35,3.01,3.01,3.01h6.96c1.66,0,3.01-1.35,3.01-3.01v-1.23c4.09,.77,8.45,.77,12.54,0v1.23c0,1.66,1.35,3.01,3.01,3.01h6.96c1.66,0,3.01-1.35,3.01-3.01v-6.92c5.91-4.52,9.28-10.94,9.28-17.64,0-2.68-.54-5.31-1.59-7.83,1.01-1.96,1.59-4.18,1.59-6.54,0-7.92-6.44-14.36-14.36-14.36Zm0,1.26c7.22,0,13.1,5.88,13.1,13.1s-5.88,13.1-13.1,13.1-13.1-5.88-13.1-13.1S40.43,1.92,47.65,1.92Zm12.98,27.47c0,6.37-3.28,12.47-9.03,16.76-.16,.12-.25,.31-.25,.5v7.29c0,.9-.73,1.63-1.63,1.63h-6.96c-.9,0-1.63-.73-1.63-1.63v-2.16c0-.19-.12-.36-.27-.48s-.38-.16-.57-.12c-4.43,.95-9.12,.97-13.71-.02-.18-.04-.38,0-.53,.13-.15,.12-.23,.3-.23,.49v2.16c0,.9-.73,1.63-1.63,1.63h-6.96c-.9,0-1.63-.73-1.63-1.63v-7.29c0-.2-.12-.4-.28-.52-3.37-2.51-6.28-4.91-7.78-8.91-.09-.24-.33-.4-.58-.4H3.3c-.9,0-1.63-.73-1.63-1.63v-9.28c0-.9,.73-1.63,1.63-1.63h3.64c.26,0,.51-.2,.6-.45,1.63-4.32,4.84-8.39,9.08-11.46,.16-.12,.25-.3,.25-.5V2.62c0-.18,.08-.35,.22-.46,.15-.11,.33-.15,.51-.11,.78,.19,2.79,.8,4.55,2.35,1.74,1.54,2.62,3.48,2.62,5.77,0,.35,.41,.63,.75,.63s.63-.28,.63-.63c0-.77-.09-1.5-.26-2.2,1.76-.68,4.7-1.11,7.57-1.11,.75,0,1.52,.04,2.3,.1-1.56,2.3-2.47,5.07-2.47,8.05,0,7.92,6.44,14.36,14.36,14.36,4.93,0,9.28-2.49,11.86-6.28,.72,2.05,1.11,4.16,1.11,6.3Z" fill="#058585"/><path d="M48.9,19.32h-2.9c-.78,0-1.41-.63-1.41-1.41,0-.35-.31-.66-.66-.66s-.66,.31-.66,.66c0,1.5,1.22,2.72,2.72,2.72h1v1.29c0,.35,.31,.66,.66,.66s.66-.31,.66-.66v-1.29h.59c1.72,0,3.13-1.4,3.13-3.14s-1.4-3.13-3.13-3.13h-2.49c-1,0-1.81-.81-1.81-1.83s.81-1.81,1.81-1.81h2.49c.77,0,1.4,.63,1.4,1.41,0,.35,.31,.66,.66,.66s.66-.32,.66-.66c0-1.5-1.22-2.71-2.71-2.71h-.59v-1.29c0-.35-.31-.66-.66-.66s-.66,.31-.66,.66v1.29h-.59c-1.72,0-3.13,1.4-3.13,3.14s1.4,3.13,3.13,3.13h2.49c1,0,1.81,.81,1.81,1.83s-.81,1.81-1.81,1.81Z" fill="#058585"/></svg>