<?xml version="1.0" encoding="UTF-8"?><svg id="b" xmlns="http://www.w3.org/2000/svg" viewBox="0 0 62.49 63.11"><path d="M62.32,45.53c0-2.45-2-4.45-4.45-4.45h-18.9s0-17.51,0-17.51c2.5,.18,4.84,1.35,6.49,3.3,.03,.04,.09,.05,.13,.08,.05,.03,.08,.08,.14,.11,.01,0,.02,0,.03,0,.06,.02,.11,0,.17,0,.07,0,.14,.01,.21,0,0,0,.02,0,.03,0,.05-.02,.08-.06,.12-.09,.05-.03,.11-.05,.14-.09,1.79-2.12,4.4-3.34,7.14-3.34s5.35,1.22,7.14,3.34c.12,.15,.3,.23,.49,.23,.07,0,.15-.01,.22-.04,.25-.09,.42-.33,.42-.6,0-12.75-10.2-23.13-22.86-23.48V1.04c0-.35-.31-.64-.66-.64s-.64,.28-.64,.64v1.94c-12.66,.35-22.86,10.73-22.86,23.48,0,.27,.17,.51,.42,.6,.07,.03,.15,.04,.22,.04,.18,0,.36-.08,.49-.23,1.79-2.12,4.4-3.34,7.14-3.34s5.35,1.22,7.14,3.34c.03,.04,.09,.05,.13,.08,.05,.03,.08,.08,.14,.11,.01,0,.03,0,.04,0,.02,0,.03,0,.04,0,.04,0,.09,.02,.13,.02,.06,0,.11-.02,.17-.04,.02,0,.03,0,.05,0,0,0,0,0,.02-.01,.09-.04,.18-.09,.25-.17,1.65-1.95,3.99-3.13,6.49-3.3v17.51s-18.63,0-18.63,0L7.77,29.8c-1.68-1.67-4.62-1.67-6.29,0-.84,.84-1.3,1.95-1.3,3.15s.46,2.31,1.3,3.15l12.58,12.58c.35,.35,.77,.64,1.28,.88,.02,.01,.13,.07,.15,.08,.18,.07,.35,.12,.61,.19,.07,.02,.15,.05,.23,.06,.08,.02,.15,.01,.23,.02v5.78s0,6.35,0,6.35c0,.35,.28,.64,.64,.64h6.35c.35,0,.64-.28,.64-.64v-5.72s26.69,0,26.69,0v5.72c0,.35,.28,.64,.64,.64h6.35c.35,0,.64-.28,.64-.64v-6.35s0-5.78,0-5.78c2.15-.31,3.81-2.15,3.81-4.38Zm-1.81-20.67c-1.92-1.67-4.37-2.6-6.93-2.6-2.59,0-5.07,.96-7.01,2.66,0-.2-.01-.4-.02-.6,0-.2-.01-.4-.02-.6-.02-.6-.05-1.2-.09-1.79,0-.12-.01-.24-.02-.36-.05-.7-.11-1.38-.18-2.05-.02-.16-.04-.31-.05-.46-.06-.52-.12-1.03-.19-1.54-.03-.18-.05-.37-.08-.55-.08-.56-.18-1.11-.27-1.64-.01-.07-.02-.14-.04-.21-.11-.6-.24-1.18-.37-1.74-.03-.15-.07-.3-.11-.44-.1-.42-.21-.84-.32-1.24-.04-.15-.08-.3-.13-.45-.15-.51-.31-1.01-.47-1.49,0,0,0,0,0,0-.17-.47-.34-.92-.52-1.35-.05-.12-.11-.24-.16-.36-.14-.32-.28-.62-.43-.91-.05-.11-.11-.22-.16-.32-.2-.37-.4-.72-.61-1.04-.03-.04-.05-.07-.08-.11-.19-.28-.38-.53-.57-.77-.07-.08-.13-.16-.2-.23-.07-.08-.14-.17-.21-.24,10.37,1.37,18.51,9.9,19.26,20.45Zm-37.44-2.6c-2.56,0-5.01,.93-6.93,2.6,.75-10.54,8.89-19.08,19.26-20.45-.07,.07-.14,.16-.21,.24-.07,.08-.13,.15-.2,.23-.19,.24-.39,.49-.57,.77-.03,.04-.05,.07-.08,.11-.21,.32-.41,.67-.61,1.04-.05,.1-.11,.21-.16,.32-.15,.29-.29,.6-.43,.91-.05,.12-.11,.24-.16,.36-.36,.86-.7,1.82-1,2.85-.04,.15-.09,.3-.13,.45-.11,.4-.22,.82-.32,1.24-.04,.15-.07,.29-.11,.44-.13,.57-.26,1.15-.37,1.75-.01,.07-.02,.14-.04,.21-.1,.54-.19,1.09-.28,1.65-.03,.18-.05,.36-.08,.54-.07,.51-.14,1.02-.19,1.54-.02,.15-.04,.3-.05,.45-.07,.67-.13,1.36-.18,2.05,0,.12-.01,.24-.02,.35-.04,.59-.07,1.19-.09,1.79,0,.2-.01,.4-.02,.6,0,.2-.02,.4-.02,.6-1.93-1.71-4.41-2.66-7.01-2.66Zm8.29,2.62c0-.14,0-.29,0-.43,.01-.38,.03-.76,.04-1.14,.02-.4,.04-.79,.06-1.18,.02-.36,.05-.71,.08-1.06,.03-.39,.06-.77,.1-1.14,.03-.33,.07-.66,.11-.99,.04-.37,.09-.74,.14-1.1,.04-.31,.09-.62,.13-.93,.05-.35,.11-.7,.17-1.04,.05-.29,.1-.58,.16-.86,.06-.33,.13-.66,.2-.97,.06-.27,.12-.53,.18-.79,.07-.31,.15-.61,.23-.91,.07-.24,.13-.49,.2-.72,.08-.29,.17-.56,.26-.83,.07-.22,.14-.44,.22-.65,.09-.26,.19-.51,.28-.75,.08-.2,.15-.4,.23-.58,.1-.23,.2-.45,.3-.67,.08-.17,.16-.35,.24-.51,.1-.21,.21-.39,.32-.58,.08-.15,.17-.3,.25-.43,.11-.18,.22-.33,.34-.49,.08-.12,.17-.25,.25-.36,.12-.15,.24-.27,.35-.4,.08-.09,.17-.19,.25-.27,.12-.12,.25-.21,.37-.3,.08-.06,.16-.14,.24-.19,.14-.09,.28-.14,.42-.2,.07-.03,.14-.07,.21-.1,.21-.07,.42-.1,.62-.1s.41,.04,.62,.1c.07,.02,.14,.07,.21,.1,.14,.06,.28,.11,.42,.2,.08,.05,.16,.13,.24,.19,.13,.09,.25,.18,.37,.3,.09,.08,.17,.18,.25,.27,.12,.13,.24,.25,.35,.4,.09,.11,.17,.24,.25,.35,.11,.16,.23,.31,.34,.49,.08,.13,.17,.29,.25,.43,.11,.19,.22,.38,.32,.58,.08,.16,.16,.34,.24,.51,.1,.22,.2,.44,.3,.67,.08,.19,.15,.38,.23,.58,.1,.25,.19,.49,.28,.76,.07,.21,.14,.43,.21,.65,.09,.27,.18,.55,.26,.83,.07,.23,.13,.48,.2,.72,.08,.3,.16,.6,.23,.91,.06,.26,.12,.52,.18,.79,.07,.32,.14,.64,.2,.98,.05,.28,.11,.57,.16,.86,.06,.34,.12,.69,.17,1.04,.05,.3,.09,.61,.13,.92,.05,.36,.09,.73,.14,1.1,.04,.33,.07,.65,.11,.99,.04,.38,.07,.76,.1,1.15,.03,.35,.05,.7,.08,1.06,.02,.39,.04,.78,.06,1.18,.02,.37,.03,.75,.04,1.13,0,.14,0,.29,0,.43-1.93-1.68-4.39-2.62-6.96-2.62,0,0,0,0,0,0,0,0,0,0,0,0,0,0,0,0,0,0-2.57,0-5.03,.94-6.95,2.62Zm25.87,30.17h-5.72s-27.96,0-27.96,0h-5.72s0-5.08,0-5.08H57.24s0,5.08,0,5.08Zm-34.32,6.35h-5.08s0-5.08,0-5.08h5.08s0,5.08,0,5.08Zm34.32,0h-5.08s0-5.08,0-5.08h5.08s0,5.08,0,5.08Zm.64-12.71H17.14c-.19-.01-.38-.03-.64-.09-.01,0-.14-.04-.15-.05-.13-.03-.25-.07-.36-.11,0,0-.13-.07-.13-.07-.36-.17-.65-.37-.9-.61L2.38,35.2c-.6-.6-.93-1.4-.93-2.25s.33-1.65,.93-2.25c.6-.6,1.4-.93,2.25-.93s1.65,.33,2.25,.93l11.46,11.46c.12,.12,.28,.19,.45,.19h19.53s.02,0,.02,0h19.53c1.75,0,3.18,1.43,3.18,3.18s-1.42,3.18-3.18,3.18Z" fill="#058585"/></svg>