<?xml version="1.0" encoding="UTF-8"?><svg id="b" xmlns="http://www.w3.org/2000/svg" viewBox="0 0 47.02 62.28"><path d="M38.75,17.79c-1.04,0-1.89-.85-1.89-1.89v-4.46s4.27,0,4.27,0c.35,0,.64-.28,.64-.64V5.72C41.76,2.57,39.2,0,36.04,0H10.8C7.65,0,5.08,2.57,5.08,5.72v5.08c0,.35,.28,.64,.64,.64h4.45s0,4.46,0,4.46c0,1.04-.85,1.89-1.91,1.89C3.71,17.79,0,21.5,0,26.05v30.5c0,3.15,2.57,5.72,5.72,5.72h10.79s14.01,0,14.01,0h10.79c3.15,0,5.72-2.57,5.72-5.72V26.05c0-4.56-3.71-8.26-8.27-8.26ZM6.35,5.72c0-2.45,2-4.45,4.45-4.45h25.24c2.45,0,4.45,2,4.45,4.45v4.45s-4.27,0-4.27,0h-1.88v-3.2c0-.35-.31-.66-.66-.66s-.66,.31-.66,.66v3.2s-3.76,0-3.76,0v-3.2c0-.35-.31-.66-.66-.66s-.66,.31-.66,.66v3.2s-3.76,0-3.76,0v-3.2c0-.35-.31-.66-.66-.66s-.66,.31-.66,.66v3.2s-3.76,0-3.76,0v-3.2c0-.35-.31-.66-.66-.66s-.66,.31-.66,.66v3.2s-3.76,0-3.76,0v-3.2c0-.35-.31-.66-.66-.66s-.66,.31-.66,.66v3.2h-1.88s-4.45,0-4.45,0V5.72Zm10.16,55.29c-1.4,0-2.53-1.13-2.53-2.55s1.13-2.53,2.53-2.53h14.01c1.4,0,2.53,1.13,2.53,2.55s-1.13,2.53-2.53,2.53h-14.01Zm-2.53-8.91c0-1.39,1.13-2.53,2.53-2.53h14.01c1.4,0,2.53,1.13,2.53,2.55s-1.13,2.53-2.53,2.53h-14.01c-1.4,0-2.53-1.13-2.53-2.55Zm0-6.35c0-1.39,1.13-2.53,2.53-2.53h14.01c1.4,0,2.53,1.13,2.53,2.55s-1.13,2.53-2.53,2.53h-14.01c-1.4,0-2.53-1.13-2.53-2.55Zm31.77,10.82c0,2.45-2,4.45-4.45,4.45h-7.98c.61-.68,.99-1.57,.99-2.55,0-1.32-.68-2.48-1.71-3.16,1.03-.68,1.71-1.85,1.71-3.19s-.68-2.48-1.71-3.16c1.03-.68,1.71-1.85,1.71-3.19,0-2.1-1.71-3.8-3.8-3.8h-2.27c2.86-1.65,4.8-4.73,4.8-8.26,0-5.26-4.28-9.53-9.53-9.53s-9.53,4.28-9.53,9.53c0,3.53,1.94,6.61,4.8,8.26h-2.27c-2.1,0-3.8,1.7-3.8,3.83,0,1.32,.68,2.48,1.71,3.17-1.03,.68-1.71,1.85-1.71,3.19s.68,2.48,1.71,3.17c-1.03,.68-1.71,1.85-1.71,3.19,0,.97,.38,1.86,.99,2.53H5.72c-2.45,0-4.45-2-4.45-4.45V26.05c0-3.85,3.14-6.99,7-6.99,1.75,0,3.16-1.42,3.16-3.16v-4.46s24.15,0,24.15,0v4.46c0,1.75,1.42,3.16,3.18,3.16,3.85,0,6.99,3.14,6.99,6.99v30.5Zm-22.24-14.62c-4.56,0-8.26-3.71-8.26-8.26s3.71-8.26,8.26-8.26,8.26,3.71,8.26,8.26-3.71,8.26-8.26,8.26Z" fill="#058585"/></svg>