<?xml version="1.0" encoding="UTF-8"?><svg id="b" xmlns="http://www.w3.org/2000/svg" viewBox="0 0 62.49 58.95"><path d="M61.75,35.23c.18-.97-.08-1.96-.71-2.71-.6-.72-1.48-1.13-2.4-1.13h-3.15c.87-2.5,1.33-5.14,1.33-7.86,0-10.86-6.99-19.7-15.58-19.7-.63,0-1.32,.07-2.07,.2-4.81-3.58-10.98-3.58-15.79,0-.75-.13-1.43-.2-2.07-.2-8.59,0-15.58,8.84-15.58,19.7,0,2.73,.46,5.36,1.33,7.86H3.93c-.93,0-1.8,.41-2.4,1.13-.63,.75-.88,1.74-.71,2.71,.14,.74,.3,1.48,.49,2.2,.02,.07,.04,.13,.05,.2,1.93,7.37,6.38,13.74,12.59,18.01,.11,.07,.22,.15,.32,.22,.69,.46,1.4,.91,2.13,1.32,1.52,.85,3.29,1.3,5.1,1.3h19.55c1.82,0,3.58-.45,5.1-1.3,.59-.33,1.16-.68,1.72-1.04,.14-.09,.28-.19,.42-.28,.44-.29,.87-.6,1.29-.91,.12-.09,.23-.18,.35-.27,.49-.38,.97-.77,1.44-1.18,.03-.02,.05-.05,.08-.07,4.63-4.04,7.98-9.38,9.64-15.41,.04-.16,.09-.32,.13-.49,.2-.76,.37-1.53,.52-2.3ZM41.25,5.1c7.89,0,14.31,8.27,14.31,18.43,0,2.73-.47,5.37-1.38,7.86h-9.67c.06-.11,.11-.23,.16-.34,.05-.1,.09-.19,.14-.29,.13-.29,.25-.58,.37-.87,.1-.26,.2-.52,.3-.78,.1-.28,.2-.56,.29-.84,.09-.3,.18-.6,.26-.9,0-.01,0-.03,.01-.04l.03-.09c.06-.22,.12-.45,.18-.68,.08-.34,.14-.68,.21-1.03l.04-.21s.02-.09,.02-.14c.03-.14,.05-.27,.07-.41,.06-.4,.1-.81,.15-1.22l.03-.23c.02-.14,.03-.27,.04-.41,.05-.63,.08-1.27,.08-1.91,0-.74-.04-1.51-.12-2.37-.01-.16-.03-.31-.05-.47l-.02-.2c-.07-.58-.16-1.15-.29-1.81-.03-.17-.07-.35-.1-.52-.07-.31-.17-.61-.25-.91-.12-.44-.22-.88-.36-1.3-.24-.72-.51-1.42-.81-2.1l-.1-.21c-.26-.57-.56-1.14-.91-1.75-.01-.02-.02-.04-.03-.06l-.04-.07s0,0,0,0v-.02s-.07-.1-.07-.1c0,0-.01-.02-.02-.03-.27-.44-.55-.86-.84-1.27-.08-.11-.16-.22-.24-.32-.23-.31-.47-.61-.71-.9-.09-.11-.18-.21-.27-.32-.28-.31-.57-.61-.86-.9-.06-.05-.11-.11-.16-.17-.02-.02-.04-.04-.07-.07,.25-.02,.5-.03,.74-.03Zm-2.62,.1c1.53,1.19,2.87,2.72,3.97,4.55,0,0,.11,.18,.11,.18,.32,.55,.62,1.13,.89,1.71,0,0,.09,.19,.09,.19,.57,1.27,1.02,2.64,1.34,4.07,.03,.16,.07,.32,.12,.58,.1,.53,.19,1.07,.26,1.62l.02,.21c.02,.14,.04,.28,.05,.43,.08,.82,.12,1.56,.12,2.25,0,.61-.02,1.22-.07,1.82,0,.06-.01,.13-.02,.19,0,.05-.01,.11-.02,.16l-.03,.25c-.04,.39-.08,.78-.14,1.15-.01,.09-.03,.17-.05,.25-.02,.08-.03,.17-.05,.25l-.04,.22c-.06,.33-.12,.65-.19,.97-.01,.06-.03,.11-.04,.17-.05,.2-.1,.4-.16,.6-.01,.04-.02,.08-.04,.12-.07,.24-.13,.49-.21,.73-.07,.22-.15,.44-.22,.66-.02,.04-.03,.09-.05,.13-.09,.25-.18,.49-.28,.74-.11,.28-.23,.55-.35,.82-.09,.21-.19,.41-.29,.61,0,0,0,.02-.01,.03-.08,.17-.18,.35-.27,.52H19.5c-.1-.18-.19-.36-.29-.55-.1-.2-.2-.4-.29-.61-.12-.27-.24-.54-.35-.82-.1-.24-.19-.49-.28-.73-.09-.26-.19-.53-.27-.8-.09-.28-.17-.57-.27-.94-.06-.23-.12-.45-.18-.68-.07-.32-.14-.65-.2-.97l-.04-.22c-.03-.17-.06-.33-.09-.51-.06-.38-.1-.77-.14-1.15l-.03-.25c-.01-.12-.03-.24-.04-.36-.05-.6-.07-1.2-.07-1.82,0-.68,.04-1.42,.12-2.25,.01-.14,.03-.27,.05-.41l.03-.22c.07-.55,.15-1.09,.28-1.72,.03-.16,.06-.32,.1-.48,.16-.72,.35-1.42,.57-2.09,.22-.68,.48-1.34,.76-1.98l-.58-.26,.68,.06c.28-.6,.57-1.17,.89-1.71l.1-.18c.83-1.37,1.78-2.58,2.86-3.59,.36-.34,.73-.66,1.11-.95,4.46-3.46,10.23-3.46,14.69,0ZM7.02,23.53c0-10.16,6.42-18.43,14.31-18.43,.24,0,.49,0,.74,.03-.02,.02-.04,.04-.06,.06-.06,.06-.12,.12-.18,.18-.29,.28-.57,.58-.85,.88-.09,.11-.19,.21-.28,.32-.25,.29-.48,.59-.71,.9-.08,.11-.16,.21-.24,.32-.3,.42-.58,.84-.85,1.29,0,0,0,0,0,.01h0s-.07,.12-.07,.12l-.05,.08s-.06,.1-.08,.15c-.3,.53-.6,1.09-.9,1.74l-.07,.14c-.15,.34-.27,.7-.4,1.05-.13,.35-.28,.68-.4,1.04-.24,.72-.44,1.46-.61,2.22-.04,.17-.07,.34-.12,.61-.11,.56-.2,1.13-.27,1.71v.12s-.03,.1-.03,.1c-.02,.15-.04,.3-.05,.45-.08,.87-.12,1.65-.12,2.37,0,.65,.03,1.28,.08,1.91,0,.12,.02,.24,.04,.35,0,.02,0,.04,0,.06l.03,.23c.04,.41,.09,.82,.15,1.22,.03,.19,.06,.37,.1,.55v.02s.04,.19,.04,.19c.06,.35,.13,.69,.21,1.03,.06,.25,.12,.49,.21,.81,.01,.04,.03,.09,.04,.13,.07,.26,.14,.52,.22,.77,.07,.24,.16,.47,.24,.7,.02,.05,.03,.1,.05,.14,.1,.26,.19,.52,.29,.78,.12,.29,.24,.58,.37,.87,.1,.21,.2,.43,.3,.63H8.4c-.92-2.49-1.38-5.13-1.38-7.86ZM41.06,57.21H21.51c-1.6,0-3.15-.39-4.48-1.14-.61-.34-1.2-.71-1.78-1.09-.12-.08-.24-.16-.36-.24-.55-.37-1.08-.75-1.61-1.16-.01,0-.03-.02-.04-.03-1.19-.93-2.31-1.96-3.36-3.07h6.46c.35,0,.66-.31,.66-.66s-.31-.66-.66-.66h-7.63c-2.22-2.65-3.95-5.62-5.16-8.85H26.31c.35,0,.66-.31,.66-.66s-.31-.66-.66-.66H3.09c-.21-.65-.4-1.29-.56-1.94,0-.03-.02-.07-.03-.1-.17-.66-.31-1.31-.43-1.95-.11-.6,.05-1.21,.43-1.67,.36-.43,.87-.67,1.43-.67H7.96s11.15,0,11.15,0h0s24.34,0,24.34,0h0s11.15,0,11.15,0h4.03c.56,0,1.06,.24,1.43,.67,.38,.46,.54,1.07,.43,1.67-.13,.72-.29,1.43-.47,2.13-.04,.16-.09,.33-.13,.49-.19,.68-.39,1.35-.62,2.01,0,.01,0,.03-.01,.04-.53,1.51-1.18,2.98-1.95,4.4h-18.56c-.35,0-.66,.31-.66,.66s.31,.66,.66,.66h17.81c-1.67,2.76-3.75,5.21-6.16,7.28-.07,.06-.13,.11-.2,.17-.39,.33-.79,.65-1.2,.96-.11,.08-.22,.17-.33,.25-.39,.28-.78,.56-1.18,.82-.12,.08-.24,.17-.37,.25-.52,.33-1.04,.65-1.58,.95-1.33,.75-2.88,1.14-4.48,1.14Z" fill="#058585"/><path d="M31.29,49.15h-7.47c-.35,0-.66,.31-.66,.66s.31,.66,.66,.66h7.47c.35,0,.66-.31,.66-.66s-.31-.66-.66-.66Z" fill="#058585"/><path d="M32.52,25.32h-2.86c-.76,0-1.38-.64-1.38-1.42,0-.35-.31-.66-.66-.66s-.66,.31-.66,.66c0,1.51,1.21,2.74,2.7,2.74h.97v1.3c0,.35,.31,.66,.66,.66s.66-.31,.66-.66v-1.3h.57c1.71,0,3.1-1.41,3.1-3.17s-1.39-3.15-3.1-3.15h-2.46c-.98,0-1.78-.82-1.78-1.85s.8-1.83,1.78-1.83h2.46c.76,0,1.37,.63,1.37,1.42,0,.35,.31,.66,.66,.66s.66-.32,.66-.67c0-1.51-1.21-2.74-2.7-2.74h-.57v-1.3c0-.35-.31-.66-.66-.66s-.66,.31-.66,.66v1.3h-.57c-1.71,0-3.1,1.41-3.1,3.17s1.39,3.15,3.1,3.15h2.46c.98,0,1.78,.82,1.78,1.85s-.8,1.83-1.78,1.83Z" fill="#058585"/></svg>