<?xml version="1.0" encoding="UTF-8"?><svg id="b" xmlns="http://www.w3.org/2000/svg" viewBox="0 0 62.49 63.11"><ellipse cx="10.23" cy="28.55" rx="1.18" ry="1.2" fill="#058585"/><ellipse cx="18.33" cy="28.55" rx="1.18" ry="1.2" fill="#058585"/><path d="M26.42,27.35c-.65,0-1.18,.54-1.18,1.2s.53,1.2,1.18,1.2,1.18-.54,1.18-1.2-.53-1.2-1.18-1.2Z" fill="#058585"/><path d="M34.52,27.35c-.65,0-1.18,.54-1.18,1.2s.53,1.2,1.18,1.2,1.18-.54,1.18-1.2-.53-1.2-1.18-1.2Z" fill="#058585"/><path d="M42.61,29.75c.65,0,1.18-.54,1.18-1.2s-.53-1.2-1.18-1.2-1.18,.54-1.18,1.2,.53,1.2,1.18,1.2Z" fill="#058585"/><path d="M10.23,34.37c-.65,0-1.18,.54-1.18,1.2s.53,1.2,1.18,1.2,1.18-.54,1.18-1.2-.53-1.2-1.18-1.2Z" fill="#058585"/><path d="M18.33,34.37c-.65,0-1.18,.54-1.18,1.2s.53,1.2,1.18,1.2,1.18-.54,1.18-1.2-.53-1.2-1.18-1.2Z" fill="#058585"/><path d="M26.42,34.37c-.65,0-1.18,.54-1.18,1.2s.53,1.2,1.18,1.2,1.18-.54,1.18-1.2-.53-1.2-1.18-1.2Z" fill="#058585"/><path d="M34.52,34.37c-.65,0-1.18,.54-1.18,1.2s.53,1.2,1.18,1.2,1.18-.54,1.18-1.2-.53-1.2-1.18-1.2Z" fill="#058585"/><path d="M10.23,41.38c-.65,0-1.18,.54-1.18,1.2s.53,1.2,1.18,1.2,1.18-.54,1.18-1.2-.53-1.2-1.18-1.2Z" fill="#058585"/><path d="M18.33,41.38c-.65,0-1.18,.54-1.18,1.2s.53,1.2,1.18,1.2,1.18-.54,1.18-1.2-.53-1.2-1.18-1.2Z" fill="#058585"/><path d="M26.42,41.38c-.65,0-1.18,.54-1.18,1.2s.53,1.2,1.18,1.2,1.18-.54,1.18-1.2-.53-1.2-1.18-1.2Z" fill="#058585"/><path d="M52.47,37.59V18.61s0-5.85,0-5.85c0-4.21-3.38-7.63-7.54-7.63h-.78s0-1.49,0-1.49c0-1.89-1.52-3.42-3.38-3.42s-3.38,1.53-3.38,3.42v1.49s-21.91,0-21.91,0v-1.49c0-1.89-1.52-3.42-3.38-3.42s-3.38,1.53-3.38,3.42v1.49s-.78,0-.78,0c-4.16,0-7.54,3.42-7.54,7.63v5.85s0,26.9,0,26.9c0,4.21,3.38,7.63,7.54,7.63h29.18c1.36,5.62,6.37,9.8,12.34,9.8,7.01,0,12.72-5.77,12.72-12.86,0-6.04-4.14-11.1-9.69-12.48ZM38.59,3.64c0-1.21,.97-2.19,2.17-2.19s2.17,.98,2.17,2.19v2.11s0,2.11,0,2.11c0,1.21-.97,2.19-2.17,2.19s-2.17-.98-2.17-2.19v-2.11s0-2.11,0-2.11Zm-28.68,0c0-1.21,.97-2.19,2.17-2.19s2.17,.98,2.17,2.19v2.11s0,2.11,0,2.11c0,1.21-.97,2.19-2.17,2.19s-2.17-.98-2.17-2.19v-2.11s0-2.11,0-2.11ZM1.59,12.76c0-3.53,2.84-6.4,6.33-6.4h.78s0,1.49,0,1.49c0,1.89,1.52,3.42,3.38,3.42s3.38-1.53,3.38-3.42v-1.49s21.91,0,21.91,0v1.49c0,1.89,1.52,3.42,3.38,3.42s3.38-1.53,3.38-3.42v-1.49s.78,0,.78,0c3.49,0,6.33,2.87,6.33,6.4v5.23s-49.66,0-49.66,0v-5.23ZM36.85,51.91H7.92c-3.49,0-6.33-2.87-6.33-6.4V19.22s49.66,0,49.66,0v18.12c-.06,0-.12,0-.18-.01-.54-.07-1.08-.12-1.63-.12-7.01,0-12.72,5.77-12.72,12.86,0,.56,.05,1.11,.12,1.65,0,.06,0,.12,.01,.19Zm12.59,9.8c-5.61,0-10.29-4.08-11.3-9.46-.06-.33-.12-.67-.15-1-.04-.39-.06-.78-.06-1.17,0-6.42,5.16-11.64,11.51-11.64,.39,0,.78,.02,1.16,.06,.25,.03,.49,.07,.74,.11,5.44,.92,9.61,5.71,9.61,11.47,0,6.42-5.16,11.64-11.51,11.64Z" fill="#058585"/><path d="M50.55,49.44h-2.22c-.86,0-1.57-.71-1.57-1.6s.7-1.58,1.57-1.58h2.22c.66,0,1.2,.54,1.2,1.22,0,.34,.3,.64,.63,.64s.63-.31,.63-.64c0-1.37-1.1-2.49-2.46-2.49h-.48v-1.11c0-.34-.3-.64-.63-.64s-.63,.3-.63,.64v1.11h-.48c-1.56,0-2.82,1.28-2.82,2.87s1.27,2.86,2.82,2.86h2.22c.86,0,1.57,.71,1.57,1.6s-.7,1.58-1.57,1.58h-2.58c-.66,0-1.21-.55-1.21-1.22,0-.34-.29-.64-.63-.64s-.63,.3-.63,.64c0,1.37,1.11,2.49,2.47,2.49h.84s0,1.11,0,1.11c0,.34,.29,.64,.63,.64s.63-.3,.63-.64v-1.11h.48c1.56,0,2.82-1.28,2.82-2.87s-1.27-2.86-2.82-2.86Z" fill="#058585"/></svg>