<?xml version="1.0" encoding="UTF-8"?>
<svg id="Layer_1" xmlns="http://www.w3.org/2000/svg" version="1.1" viewBox="0 0 201.78 202.25">
  <!-- Generator: Adobe Illustrator 29.0.0, SVG Export Plug-In . SVG Version: 2.1.0 Build 186)  -->
  <defs>
    <style>
      .st0 {
        fill: #0d1282;
      }
    </style>
  </defs>
  <path class="st0" d="M91.3,201.33c-4.1,0-7.44-3.36-7.44-7.49v-10.53c0-4.13,3.34-7.49,7.44-7.49h20.37c3.49,0,6.55,2.49,7.27,5.92l.32,1.5,1.52-.11c16.52-1.24,30.91-11.52,37.55-26.82l1.07-2.46h-5.52c-2.44,0-4.42-2-4.42-4.45v-60.18c0-2.45,1.98-4.45,4.42-4.45h7.71v-5.65c0-33.34-26.96-60.46-60.09-60.46s-60.09,27.12-60.09,60.46v5.65h7.7c2.44,0,4.42,2,4.42,4.45v60.18c0,2.45-1.98,4.45-4.42,4.45h-13.03c-18.93,0-34.33-15.49-34.33-34.54,0-14.36,9.02-27.37,22.44-32.36l1.14-.42v-7.41C25.3,36.87,59.48,2.49,101.48,2.49s76.18,34.38,76.18,76.64v7.4l1.14.42c13.42,5,22.44,18.01,22.44,32.37,0,17.19-12.77,31.88-29.7,34.19l-1.1.15-.33,1.07c-6.75,21.99-26.64,37.65-49.51,38.97l-1.38.08-.24,1.37c-.62,3.59-3.7,6.19-7.31,6.19h-20.37Z"/>
</svg>