<?xml version="1.0" encoding="utf-8"?>
<!-- Generator: Adobe Illustrator 28.2.0, SVG Export Plug-In . SVG Version: 6.00 Build 0)  -->
<svg version="1.1" id="logo-52" xmlns="http://www.w3.org/2000/svg" xmlns:xlink="http://www.w3.org/1999/xlink" x="0px" y="0px"
	 viewBox="0 0 162.5 50.8" style="enable-background:new 0 0 162.5 50.8;" xml:space="preserve">
<style type="text/css">
	.st0{fill:#FFFFFF;}
	.st1{fill:#B0C2BA;}
</style>
<g>
	<g>
		<g>
			<g>
				<g>
					<path class="st0" d="M55.7,30.2l0-11.2l5.1,0c0.5,0,1,0.1,1.5,0.3c0.4,0.2,0.8,0.5,1.2,0.9c0.3,0.4,0.6,0.8,0.8,1.2
						c0.2,0.5,0.3,0.9,0.3,1.4c0,0.3,0,0.7-0.1,1c-0.1,0.3-0.2,0.6-0.4,0.9c-0.2,0.3-0.4,0.5-0.6,0.8c-0.2,0.2-0.5,0.4-0.8,0.6
						l2.5,4.2l-2.9,0L60,26.6l-1.7,0l0,3.6L55.7,30.2z M58.3,24.3l2.4,0c0.3,0,0.6-0.1,0.8-0.4c0.2-0.3,0.3-0.7,0.3-1.1
						c0-0.5-0.1-0.8-0.4-1.1c-0.3-0.3-0.5-0.4-0.8-0.4l-2.3,0L58.3,24.3z"/>
					<path class="st0" d="M73.9,28l0,2.3l-7.9,0L66,19l7.7,0l0,2.3l-5.1,0l0,2.2l4.4,0l0,2.1l-4.4,0l0,2.4L73.9,28z"/>
					<path class="st0" d="M81.9,22.3c0,0-0.1-0.1-0.3-0.2c-0.2-0.1-0.4-0.2-0.7-0.4c-0.3-0.1-0.6-0.2-0.9-0.3
						c-0.3-0.1-0.7-0.1-1-0.1c-0.9,0-1.4,0.3-1.4,0.9c0,0.2,0,0.3,0.1,0.5c0.1,0.1,0.2,0.2,0.4,0.3c0.2,0.1,0.4,0.2,0.7,0.3
						c0.3,0.1,0.6,0.2,1,0.3c0.5,0.1,1,0.3,1.5,0.5c0.4,0.2,0.8,0.4,1.1,0.6c0.3,0.3,0.5,0.6,0.7,0.9c0.2,0.4,0.2,0.8,0.2,1.3
						c0,0.6-0.1,1.2-0.4,1.6c-0.2,0.4-0.6,0.8-0.9,1.1c-0.4,0.3-0.8,0.5-1.3,0.6c-0.5,0.1-1,0.2-1.6,0.2c-0.4,0-0.8,0-1.3-0.1
						c-0.4-0.1-0.9-0.2-1.3-0.3c-0.4-0.1-0.8-0.3-1.2-0.4c-0.4-0.2-0.7-0.4-1.1-0.6l1.1-2.3c0,0.1,0.2,0.2,0.4,0.3
						c0.2,0.1,0.5,0.3,0.9,0.4c0.3,0.1,0.7,0.3,1.1,0.4c0.4,0.1,0.8,0.2,1.3,0.2c0.9,0,1.4-0.3,1.4-0.8c0-0.2-0.1-0.4-0.2-0.5
						c-0.1-0.1-0.3-0.3-0.6-0.4c-0.2-0.1-0.5-0.2-0.9-0.3c-0.3-0.1-0.7-0.2-1.1-0.3c-0.5-0.2-1-0.3-1.3-0.5
						c-0.4-0.2-0.7-0.4-0.9-0.6c-0.2-0.2-0.4-0.5-0.6-0.8c-0.1-0.3-0.2-0.7-0.2-1.1c0-0.6,0.1-1.1,0.3-1.6c0.2-0.5,0.5-0.8,0.9-1.1
						c0.4-0.3,0.8-0.5,1.3-0.7c0.5-0.2,1-0.2,1.6-0.2c0.4,0,0.8,0,1.2,0.1c0.4,0.1,0.7,0.2,1.1,0.3c0.3,0.1,0.7,0.2,1,0.4
						c0.3,0.1,0.6,0.3,0.8,0.4L81.9,22.3z"/>
					<path class="st0" d="M93.1,21.3l-3.4,0l0,8.9l-2.6,0l0-8.9l-3.4,0l0-2.3l9.4,0L93.1,21.3z"/>
					<path class="st0" d="M98.9,30.4c-0.8,0-1.6-0.2-2.3-0.5c-0.7-0.3-1.3-0.8-1.7-1.3c-0.5-0.5-0.9-1.1-1.1-1.8
						c-0.3-0.7-0.4-1.4-0.4-2.1c0-0.7,0.1-1.4,0.4-2.1c0.3-0.7,0.7-1.3,1.2-1.8c0.5-0.5,1.1-0.9,1.8-1.2c0.7-0.3,1.4-0.5,2.2-0.5
						c0.8,0,1.6,0.2,2.3,0.5c0.7,0.3,1.3,0.8,1.7,1.3c0.5,0.5,0.9,1.1,1.1,1.8c0.3,0.7,0.4,1.4,0.4,2.1c0,0.7-0.1,1.4-0.4,2.1
						c-0.3,0.7-0.7,1.3-1.2,1.8c-0.5,0.5-1.1,0.9-1.8,1.3C100.5,30.2,99.7,30.4,98.9,30.4z M96,24.7c0,0.4,0.1,0.9,0.2,1.3
						c0.1,0.4,0.3,0.8,0.6,1.1c0.2,0.3,0.6,0.6,0.9,0.8c0.4,0.2,0.8,0.3,1.3,0.3c0.5,0,0.9-0.1,1.3-0.3c0.4-0.2,0.7-0.5,0.9-0.8
						c0.2-0.3,0.4-0.7,0.5-1.1c0.1-0.4,0.2-0.8,0.2-1.2c0-0.4-0.1-0.8-0.2-1.3c-0.1-0.4-0.3-0.8-0.6-1.1c-0.3-0.3-0.6-0.6-0.9-0.7
						c-0.4-0.2-0.8-0.3-1.3-0.3c-0.5,0-0.9,0.1-1.3,0.3c-0.4,0.2-0.7,0.4-0.9,0.8c-0.2,0.3-0.4,0.7-0.6,1.1
						C96.1,23.9,96,24.3,96,24.7z"/>
					<path class="st0" d="M105.7,30.3l0-11.2l5.1,0c0.5,0,1,0.1,1.5,0.3c0.4,0.2,0.8,0.5,1.2,0.9c0.3,0.4,0.6,0.8,0.8,1.2
						c0.2,0.5,0.3,0.9,0.3,1.4c0,0.3,0,0.7-0.1,1c-0.1,0.3-0.2,0.6-0.4,0.9c-0.2,0.3-0.4,0.5-0.6,0.8c-0.2,0.2-0.5,0.4-0.8,0.6
						l2.5,4.2l-2.9,0l-2.1-3.6l-1.7,0l0,3.6L105.7,30.3z M108.3,24.4l2.4,0c0.3,0,0.6-0.1,0.8-0.4c0.2-0.3,0.3-0.7,0.3-1.1
						c0-0.5-0.1-0.8-0.4-1.1c-0.3-0.3-0.5-0.4-0.8-0.4l-2.3,0L108.3,24.4z"/>
					<path class="st0" d="M119,19.1l2.3,0l4.1,11.2l-2.7,0l-0.9-2.5l-3.5,0l-0.9,2.5l-2.7,0L119,19.1z M121.5,26l-1.3-4l-1.3,4
						L121.5,26z"/>
					<path class="st0" d="M134.8,21.4l-3.4,0l0,8.9l-2.6,0l0-8.9l-3.4,0l0-2.3l9.4,0L134.8,21.4z"/>
					<path class="st0" d="M135.7,30.3l0-11.2l2.6,0l0,11.2L135.7,30.3z"/>
					<path class="st0" d="M145,30.5c-0.8,0-1.6-0.2-2.3-0.5c-0.7-0.3-1.3-0.8-1.7-1.3c-0.5-0.5-0.9-1.1-1.1-1.8
						c-0.3-0.7-0.4-1.4-0.4-2.1c0-0.7,0.1-1.4,0.4-2.1c0.3-0.7,0.7-1.3,1.2-1.8c0.5-0.5,1.1-0.9,1.8-1.2c0.7-0.3,1.4-0.5,2.2-0.5
						c0.8,0,1.6,0.2,2.3,0.5c0.7,0.3,1.3,0.8,1.7,1.3c0.5,0.5,0.9,1.1,1.1,1.8c0.3,0.7,0.4,1.4,0.4,2.1c0,0.7-0.1,1.4-0.4,2.1
						c-0.3,0.7-0.7,1.3-1.2,1.8c-0.5,0.5-1.1,0.9-1.8,1.3C146.6,30.3,145.8,30.5,145,30.5z M142.1,24.8c0,0.4,0.1,0.8,0.2,1.3
						c0.1,0.4,0.3,0.8,0.6,1.1c0.2,0.3,0.6,0.6,0.9,0.8c0.4,0.2,0.8,0.3,1.3,0.3c0.5,0,0.9-0.1,1.3-0.3c0.4-0.2,0.7-0.5,0.9-0.8
						c0.2-0.3,0.4-0.7,0.5-1.1c0.1-0.4,0.2-0.8,0.2-1.2c0-0.4-0.1-0.8-0.2-1.3c-0.1-0.4-0.3-0.8-0.6-1.1c-0.3-0.3-0.6-0.6-0.9-0.7
						c-0.4-0.2-0.8-0.3-1.3-0.3c-0.5,0-0.9,0.1-1.3,0.3c-0.4,0.2-0.7,0.4-0.9,0.8c-0.2,0.3-0.4,0.7-0.6,1.1
						C142.2,23.9,142.1,24.3,142.1,24.8z"/>
					<path class="st0" d="M154.4,24l0,6.4l-2.6,0l0-11.2l2,0l5.2,6.6l0-6.6l2.6,0l0,11.2l-2.1,0L154.4,24z"/>
				</g>
			</g>
			<g>
				<g>
					<path class="st0" d="M55.7,44.1V32.9h4.6c0.5,0,0.9,0.1,1.3,0.3s0.8,0.5,1,0.8c0.3,0.3,0.5,0.7,0.7,1.1
						c0.2,0.4,0.2,0.8,0.2,1.3c0,0.5-0.1,0.9-0.2,1.3c-0.2,0.4-0.4,0.8-0.7,1.1c-0.3,0.3-0.6,0.6-1,0.8C61.4,39.9,61,40,60.5,40
						h-3.6v4.1H55.7z M56.8,39h3.6c0.3,0,0.6-0.1,0.9-0.2c0.3-0.1,0.5-0.3,0.7-0.6c0.2-0.2,0.3-0.5,0.4-0.8c0.1-0.3,0.2-0.6,0.2-1
						c0-0.3-0.1-0.7-0.2-1c-0.1-0.3-0.3-0.6-0.5-0.8c-0.2-0.2-0.4-0.4-0.7-0.5c-0.3-0.1-0.6-0.2-0.9-0.2h-3.5V39z"/>
					<path class="st0" d="M65.1,44.1V32.9h4.7c0.5,0,0.9,0.1,1.3,0.3c0.4,0.2,0.8,0.5,1.1,0.8c0.3,0.3,0.5,0.7,0.7,1.1
						c0.2,0.4,0.2,0.8,0.2,1.3c0,0.4-0.1,0.8-0.2,1.2c-0.1,0.4-0.3,0.7-0.5,1c-0.2,0.3-0.5,0.6-0.8,0.8c-0.3,0.2-0.6,0.3-1,0.4
						l2.8,4.3h-1.2L69.5,40h-3.3v4.1H65.1z M66.2,39h3.7c0.3,0,0.6-0.1,0.9-0.2c0.3-0.1,0.5-0.3,0.7-0.6c0.2-0.2,0.3-0.5,0.4-0.8
						c0.1-0.3,0.2-0.6,0.2-1c0-0.3-0.1-0.7-0.2-1c-0.1-0.3-0.3-0.6-0.5-0.8c-0.2-0.2-0.4-0.4-0.7-0.6c-0.3-0.1-0.6-0.2-0.9-0.2h-3.6
						V39z"/>
					<path class="st0" d="M79.3,44.2c-0.8,0-1.5-0.2-2.1-0.5c-0.6-0.3-1.2-0.7-1.7-1.3c-0.5-0.5-0.8-1.1-1.1-1.8
						c-0.3-0.7-0.4-1.4-0.4-2.1c0-0.7,0.1-1.5,0.4-2.1c0.3-0.7,0.6-1.3,1.1-1.8c0.5-0.5,1-0.9,1.7-1.3c0.6-0.3,1.3-0.5,2.1-0.5
						c0.8,0,1.5,0.2,2.1,0.5c0.6,0.3,1.2,0.8,1.7,1.3s0.8,1.1,1.1,1.8c0.3,0.7,0.4,1.4,0.4,2.1c0,0.7-0.1,1.5-0.4,2.1
						c-0.3,0.7-0.6,1.3-1.1,1.8c-0.5,0.5-1,0.9-1.7,1.2C80.7,44.1,80,44.2,79.3,44.2z M75.1,38.5c0,0.6,0.1,1.2,0.3,1.8
						c0.2,0.6,0.5,1.1,0.9,1.5c0.4,0.4,0.8,0.8,1.3,1c0.5,0.3,1.1,0.4,1.7,0.4c0.6,0,1.2-0.1,1.7-0.4c0.5-0.3,1-0.6,1.3-1.1
						c0.4-0.4,0.6-0.9,0.8-1.5c0.2-0.6,0.3-1.1,0.3-1.7c0-0.6-0.1-1.2-0.3-1.8c-0.2-0.6-0.5-1.1-0.9-1.5c-0.4-0.4-0.8-0.8-1.3-1
						s-1.1-0.4-1.7-0.4c-0.6,0-1.2,0.1-1.7,0.4s-1,0.6-1.3,1.1c-0.4,0.4-0.6,0.9-0.8,1.5C75.2,37.4,75.1,37.9,75.1,38.5z"/>
					<path class="st0" d="M85.2,42.7c0.2,0.2,0.5,0.3,0.9,0.4c0.4,0.1,0.8,0.2,1.2,0.2c0.6,0,1-0.1,1.4-0.3c0.3-0.2,0.6-0.5,0.8-0.9
						c0.2-0.4,0.3-0.9,0.3-1.5c0.1-0.6,0.1-1.2,0.1-2v-5.7H91v5.7c0,0.9,0,1.6-0.1,2.3c-0.1,0.7-0.2,1.3-0.5,1.8
						c-0.3,0.5-0.6,0.9-1.1,1.2c-0.5,0.3-1.1,0.4-2,0.4c-0.9,0-1.8-0.2-2.4-0.7L85.2,42.7z"/>
					<path class="st0" d="M100.9,43.2v1h-7.5V32.9h7.4v1h-6.3v4h5.5v0.9h-5.5v4.3H100.9z"/>
					<path class="st0" d="M102.3,38.4c0-0.7,0.1-1.3,0.4-2c0.2-0.7,0.6-1.3,1-1.8c0.5-0.5,1-1,1.7-1.3c0.7-0.3,1.4-0.5,2.3-0.5
						c1,0,1.9,0.2,2.6,0.7c0.7,0.5,1.2,1,1.6,1.8l-0.9,0.5c-0.2-0.4-0.4-0.7-0.6-0.9c-0.3-0.3-0.5-0.5-0.8-0.6
						c-0.3-0.2-0.6-0.3-0.9-0.3c-0.3-0.1-0.6-0.1-0.9-0.1c-0.7,0-1.3,0.1-1.8,0.4c-0.5,0.3-1,0.6-1.3,1.1c-0.4,0.4-0.6,0.9-0.8,1.5
						c-0.2,0.6-0.3,1.1-0.3,1.7c0,0.6,0.1,1.2,0.3,1.8c0.2,0.6,0.5,1.1,0.9,1.5c0.4,0.4,0.8,0.8,1.3,1c0.5,0.3,1.1,0.4,1.7,0.4
						c0.3,0,0.6,0,1-0.1c0.3-0.1,0.7-0.2,1-0.4c0.3-0.2,0.6-0.4,0.9-0.6c0.3-0.3,0.5-0.6,0.7-0.9l0.9,0.5c-0.2,0.4-0.4,0.8-0.8,1.1
						c-0.3,0.3-0.7,0.6-1.1,0.8c-0.4,0.2-0.8,0.4-1.3,0.5c-0.4,0.1-0.9,0.2-1.3,0.2c-0.8,0-1.5-0.2-2.1-0.5
						c-0.6-0.3-1.2-0.8-1.7-1.3c-0.5-0.5-0.8-1.2-1.1-1.8C102.4,39.9,102.3,39.2,102.3,38.4z"/>
					<path class="st0" d="M121.8,33.9h-4v10.2h-1.1V33.9h-4v-1h9.1V33.9z"/>
				</g>
			</g>
		</g>
		<g>
			<g>
				<g>
					<g>
						<path class="st0" d="M60.7,10.8l-2,0v5.1h-0.9v-5.1l-2,0V10l4.8,0V10.8z"/>
						<path class="st0" d="M66.5,10v5.9l-0.9,0v-2.6l-3,0v2.6h-0.9V10h0.9v2.5l3,0V10L66.5,10z"/>
						<path class="st0" d="M71.9,15.1v0.8l-4,0V10l4,0v0.8l-3,0v1.7l2.6,0v0.8l-2.6,0v1.8L71.9,15.1z"/>
					</g>
				</g>
			</g>
		</g>
	</g>
	<g>
		<g>
			<g>
				<path class="st1" d="M11.8,38.8l-5.1-8.2c-0.3-0.4-0.9-0.5-1.2,0l-5.2,8.2c-0.3,0.5,0,1.1,0.6,1.1h10.3
					C11.8,39.9,12.1,39.3,11.8,38.8z"/>
				<path class="st1" d="M9.1,6.5l-6.2,9.8c-0.1,0.2-0.1,0.5,0,0.8l20.7,33.2c0.1,0.2,0.4,0.3,0.6,0.3h12.3c0.6,0,0.9-0.6,0.6-1.1
					l-26.8-43C10,6,9.4,6,9.1,6.5z"/>
				<path class="st1" d="M24.3,1.1l-6.2,9.8c-0.1,0.2-0.1,0.5,0,0.8l17.6,28.2c0.1,0.2,0.4,0.3,0.6,0.3h12.3c0.6,0,0.9-0.6,0.6-1.1
					l-23.7-38C25.2,0.7,24.6,0.7,24.3,1.1z"/>
			</g>
		</g>
	</g>
</g>
</svg>
