<?xml version="1.0" encoding="UTF-8"?>
<svg id="Layer_1" xmlns="http://www.w3.org/2000/svg" xmlns:xlink="http://www.w3.org/1999/xlink" version="1.1" viewBox="0 0 130.3 49">
  <!-- Generator: Adobe Illustrator 29.3.1, SVG Export Plug-In . SVG Version: 2.1.0 Build 151)  -->
  <defs>
    <style>
      .st0 {
        fill: #030d26;
      }

      .st1 {
        fill: #e0383a;
      }
    </style>
  </defs>
  <g>
    <path class="st0" d="M35.1,27.8c-1.4.8-2.8,1.2-4.8,1.2-4.8,0-8-2.9-8-7.7s3.6-7.7,7.7-7.7,2.6.3,3.6.8l.7-.8h.8l.2,4.9h-.8c-1.4-2.5-2.6-3.8-4.8-3.8s-4.6,2.7-4.6,6.4,2.3,6.7,5.8,6.7,1.3-.1,1.8-.3l2.3-3,.6.3-.5,3Z"/>
    <path class="st0" d="M43.6,29c-3.9,0-5.8-2.8-5.8-6s2.2-6.1,5.9-6.1,5.8,2.8,5.8,6.1-2.2,6-5.9,6ZM43.5,17.8c-1.7,0-3.3,1.3-3.3,5.2s1.8,5.2,3.6,5.2,3.3-1.8,3.3-5.2-1.8-5.2-3.6-5.2Z"/>
    <path class="st0" d="M66.9,27.9v.7h-5.8v-.7l1.8-.5v-8.7h-.4l-3.7,9.8h-1.1l-3.7-9.8h-.4v8.5l1.7.6v.7h-4.5v-.7l1.6-.6v-8.9l-1.5-.3v-.7h4.7l.7,1.9,2.4,6.8h0l2.4-6.8.6-1.9h5.1v.7l-1.9.5v9.1l1.9.3Z"/>
    <path class="st0" d="M84.9,27.9v.7h-5.8v-.7l1.8-.5v-8.7h-.4l-3.7,9.8h-1.1l-3.7-9.8h-.4v8.5l1.7.6v.7h-4.5v-.7l1.6-.6v-8.9l-1.5-.3v-.7h4.7l.7,1.9,2.4,6.8h0l2.4-6.8.6-1.9h5.1v.7l-1.9.5v9.1l1.9.3Z"/>
    <path class="st0" d="M92.9,27.9v.7h-6v-.7l2-.5v-9.1l-2-.5v-.7h6v.9l-2,.5v9.1l2,.3Z"/>
    <path class="st0" d="M108.6,18.4l-1.2-1.8c-.9-1.3-1.3-1.6-2.5-1.6h-1.6v12.2l2.7.5v.8h-7.7v-.8l2.7-.5v-12.1h-1.7c-1.2,0-1.6.3-2.5,1.6l-1.2,1.8h-.6c0-.1.8-4.4.8-4.4h12.7l.8,4.3h-.7Z"/>
  </g>
  <g>
    <path class="st0" d="M12.5,40.1l-1-1.5c-.4-.6-1.1-.9-2.2-.9h-2.4v4.3h.8c1,0,1.6-.5,2-1.3l.3-.6h.6v4.7h-.6l-.3-.6c-.4-.9-1-1.3-2-1.3h-.8v3.9l2,.5v.7H2.9v-.7l1.9-.5v-9.1l-1.9-.5v-.7h9.8l.3,3.4-.5.2Z"/>
    <path class="st0" d="M20.5,48.3c-3.9,0-5.8-2.8-5.8-6s2.2-6.1,5.9-6.1,5.8,2.8,5.8,6.1c0,3.2-2.1,6-5.9,6ZM20.4,37.1c-1.7,0-3.3,1.3-3.3,5.2s1.8,5.2,3.6,5.2,3.3-1.8,3.3-5.2-1.7-5.2-3.6-5.2Z"/>
    <path class="st0" d="M35.8,37.3v-.7h4.5v.7l-1.6.6v6.1c0,2.6-1.6,4.3-4.7,4.3s-4.9-1.4-4.9-4.3v-6.3l-1.7-.5v-.7h5.7v.7l-1.8.5v6.2c0,2.3,1.3,3.2,3.1,3.2s3-1.3,3-3.2v-6l-1.6-.6Z"/>
    <path class="st0" d="M43.8,37.9l-1.6-.6v-.8h4l1.2,1.8,4.6,6.3h.2v-6.8l-1.8-.6v-.7h4.6v.7l-1.6.6v10.2h-1.6l-1.5-2.2-5.1-7.2h-.2v7.9l1.8.6v.9h-4.6v-.7l1.6-.6s0-8.8,0-8.8Z"/>
    <path class="st0" d="M56.9,37.3v-.7h5.9c3.9,0,6.3,2.4,6.3,5.7s-2.5,5.7-6.4,5.7h-5.7v-.7l1.9-.5v-9.1l-2-.4ZM62.4,37.6h-1.5v9.3h1.8c2.2,0,3.9-1.1,3.9-4.6s-1.8-4.7-4.2-4.7Z"/>
    <path class="st0" d="M72.1,46.6l1.5.7v.7h-4.4v-.7l1.5-.7,4.1-10.3h1.7l3.9,10.4,1.5.6v.7h-5.5v-.7l1.8-.5-.9-2.5h-4.4l-.8,2.3ZM75.3,38.4h-.2l-1.8,4.9h3.7l-1.7-4.9Z"/>
    <path class="st0" d="M92.4,40.6l-.8-1.6c-.5-1-1-1.4-2.1-1.4h-.8v9.2l2,.5v.7h-6.1v-.7l2-.5v-9.2h-.9c-1.1,0-1.6.5-2.1,1.4l-.7,1.5h-.8c0,0,.5-4,.5-4h10.2l.4,3.9-.8.2Z"/>
    <path class="st0" d="M100.9,47.3v.7h-6v-.7l2-.5v-9.1l-2-.5v-.7h6v.7l-2,.5v9.1l2,.5Z"/>
    <path class="st0" d="M108,48.3c-3.9,0-5.8-2.8-5.8-6s2.2-6.1,5.9-6.1,5.8,2.8,5.8,6.1-2.1,6-5.9,6ZM107.9,37.1c-1.7,0-3.3,1.3-3.3,5.2s1.8,5.2,3.6,5.2,3.3-1.8,3.3-5.2-1.7-5.2-3.6-5.2Z"/>
    <path class="st0" d="M117,37.9l-1.6-.6v-.8h4l1.2,1.8,4.6,6.3h.2v-6.8l-1.8-.6v-.7h4.6v.7l-1.6.6v10.2h-1.6l-1.5-2.2-5.1-7.2h-.2v7.9l1.8.6v.9h-4.6v-.7l1.6-.6s0-8.8,0-8.8Z"/>
  </g>
  <g>
    <path class="st1" d="M66.1,4.7c.9.2,1.9.4,2.7.6,3.7.9,7.5,1.9,13.1,1.9s5.5-.3,7.9-.7c.7,0,1.8-.4,3-.7.2,0,0-.3,0-.3-7.2.6-12.8-.2-18.2-1.3-5-1.1-7.6-.9-10.7,0,0,0,0,0,0,0,.8,0,1.5.3,2.1.5h.2Z"/>
    <path class="st1" d="M68.3,7.1c-.9-.2-1.7-.4-2.6-.6h-.2c-2.9-.8-6.2-1.3-10.4-1.3s-9.5.6-14.4,3.4c0,.1,0,.3,0,.3,2.8-.9,5.8-1.6,10.5-1.6s9.8,1,13.6,1.9c3.9,1,7.5,1.9,13.2,1.9s10.1-1.2,13.1-2.9c0,0,0-.2-.2-.2-2.3.6-5.3,1-9.1,1-5.8,0-9.8-1-13.6-1.9Z"/>
    <path class="st0" d="M59.6,3.4c1-.3,3.1-.8,5.2-1,0,0,.2-.2,0-.2-2.5-.8-5.7-1.5-8.4-1.5-5.4,0-10.4,1.8-14.3,4.9,0,0,0,.3.2.3,3.6-1.6,7.9-2.4,12.7-2.4s2.3,0,3.3,0c.5,0,.9-.1,1.3-.2Z"/>
  </g>
</svg>