<?xml version="1.0" encoding="UTF-8"?>
<svg xmlns="http://www.w3.org/2000/svg" version="1.1" viewBox="0 0 190 40.6">
  <!-- Generator: Adobe Illustrator 29.3.1, SVG Export Plug-In . SVG Version: 2.1.0 Build 151)  -->
  <defs>
    <style>
      .st0 {
        fill: #e03a3a;
      }

      .st1 {
        fill: #fff;
      }

      .st2 {
        display: none;
      }
    </style>
  </defs>
  <g id="Layer_1" class="st2">
    <path class="st0" d="M103.9,17.7c-3.4-.8-6.4-1.5-9.8-2.3h-.8c-10.9-3-23.3-4.9-39.1-4.9S18.6,12.8.2,23.3c-.4.4,0,1.1.4,1.1,10.5-3.4,21.8-6,39.5-6s36.8,3.8,51.1,7.1c14.7,3.8,28.2,7.1,49.6,7.1s38-4.5,49.2-10.9c0,0-.4-.8-.8-.8-8.6,2.3-19.9,3.8-34.2,3.8-21.8,0-36.8-3.8-51.1-7.1Z"/>
  </g>
  <g id="Layer_2">
    <g>
      <path class="st0" d="M92.5,15.9c3.2.7,6.8,1.4,9.7,2.2,13.3,3.2,26.9,6.8,47,6.8s19.7-1.1,28.3-2.5c2.5-.4,6.5-1.4,10.8-2.5.7,0,.4-1.1-.4-1.1-25.8,2.2-45.9-.7-65.3-4.7-17.9-3.9-27.3-3.2-38.4-.4-.4,0-.4.4,0,.4,2.9.4,5.4,1.1,7.5,1.8h.7Z"/>
      <path class="st0" d="M100.4,24.5c-3.2-.7-6.1-1.4-9.3-2.2h-.7c-10.4-2.9-22.2-4.7-37.3-4.7S19,19.8,1.5,29.9c-.4.4,0,1.1.4,1.1,10-3.2,20.8-5.7,37.7-5.7s35.1,3.6,48.8,6.8c14,3.6,26.9,6.8,47.3,6.8s36.2-4.3,47-10.4c0,0-.4-.7-.7-.7-8.2,2.2-19,3.6-32.6,3.6-20.8,0-35.1-3.6-48.8-6.8Z"/>
      <path class="st1" d="M69.2,11.2c3.6-1.1,11.1-2.9,18.6-3.6.4,0,.7-.7,0-.7-9-2.9-20.4-5.4-30.1-5.4C38.4,1.6,20.5,8,6.5,19.1c-.4.4,0,1.1.7,1.1,12.9-5.7,28.3-8.6,45.5-8.6s8.2,0,11.8.4c1.8,0,3.2-.4,4.7-.7Z"/>
    </g>
  </g>
</svg>