<?xml version="1.0" encoding="UTF-8"?>
<svg id="Layer_1" xmlns="http://www.w3.org/2000/svg" version="1.1" viewBox="0 0 190 22.6">
  <!-- Generator: Adobe Illustrator 29.3.1, SVG Export Plug-In . SVG Version: 2.1.0 Build 151)  -->
  <defs>
    <style>
      .st0 {
        fill: #e03a3a;
      }
    </style>
  </defs>
  <path class="st0" d="M103.9,7.1c-3.4-.8-6.4-1.5-9.8-2.3h-.8C82.5,1.9,70.1,0,54.3,0S18.6,2.3.2,12.8c-.4.4,0,1.1.4,1.1,10.5-3.4,21.8-6,39.5-6s36.8,3.8,51.1,7.1c14.7,3.8,28.2,7.1,49.6,7.1s38-4.5,49.2-10.9c0,0-.4-.8-.8-.8-8.6,2.3-19.9,3.8-34.2,3.8-21.8,0-36.8-3.8-51.1-7.1Z"/>
</svg>