<?xml version="1.0" encoding="UTF-8"?><svg xmlns="http://www.w3.org/2000/svg" viewBox="0 0 418.36 72.3"><defs><style>.cls-1{fill:#fff;}.cls-2{fill:#a3b243;}</style></defs><g id="Layer_1"><rect class="cls-1" x="127.87" y="3.53" width="7.84" height="39.82"/><path class="cls-1" d="M150.24,13.43l.61,4.1c2.34-3.36,5.84-4.78,9.07-4.78s5.95,1.54,7.79,3.92c2.28,3.02,2.62,6.88,2.62,11.15v15.53h-7.9v-15.13c0-2.22-.06-4.72-.89-6.43-.72-1.48-2.17-2.1-3.89-2.1-2.34,0-4.9,1.37-6.34,3.81v19.86h-7.9V13.43h6.84Z"/><path class="cls-1" d="M193.46,7.91c-1.26-.68-2.47-.97-4-.97-1.26,0-1.97.34-2.41.91-.6.85-.77,2.16-.77,3.64v1.93h7.18v6.71h-7.18v23.21h-7.79v-23.21h-3.13v-6.71h3.13v-2.39c0-3.41.6-6.09,2.08-7.96,1.59-2.05,4.17-3.07,8.12-3.07,2.47,0,4.94.63,7.19,1.71l-2.41,6.2Z"/><path class="cls-1" d="M225.54,28.39c0,8.82-6.31,15.64-15.08,15.64s-15.14-6.83-15.14-15.64,6.31-15.64,15.14-15.64,15.08,6.83,15.08,15.64M210.46,19.68c-4.28,0-7.18,3.81-7.18,8.7s2.91,8.7,7.18,8.7,7.13-3.81,7.13-8.7-2.85-8.7-7.13-8.7"/><path class="cls-1" d="M238.48,17.41c1.65-2.79,3.89-4.66,6.75-4.66,1.43,0,2.69.28,3.73.68l-1.87,7.05c-.82-.45-1.75-.68-2.74-.68-2.25,0-4.28,1.31-5.43,3.3v20.25h-7.79V13.43h6.75l.6,3.98Z"/><path class="cls-1" d="M288.83,43.35v-15.13c0-2.22-.06-4.72-.91-6.43-.74-1.48-2.17-2.1-3.99-2.1-2.11,0-4.39,1.25-5.87,3.41.17,1.48.28,3.07.28,4.72v15.53h-8.1v-15.13c0-2.22,0-4.78-.91-6.49-.74-1.42-2.11-2.05-3.82-2.05-2,0-4.28,1.25-5.76,2.96v20.71h-8.1V13.43h7.01l.57,3.64c2.4-3.02,5.7-4.32,8.67-4.32,3.42,0,6.96,1.99,8.5,5.01,2.79-3.98,6.73-5.01,9.98-5.01s5.99,1.48,7.87,3.87c2.34,3.01,2.68,6.88,2.68,11.21v15.53h-8.1Z"/><path class="cls-1" d="M320.42,43.35l-.62-2.56c-1.9,2.39-4.87,3.24-8,3.24-5.49,0-10.58-3.36-10.58-9.5,0-7.34,6.72-9.67,12.82-9.67,1.62,0,3.47.23,5.32.63v-.46c0-3.75-1.51-6.03-5.82-6.03-3.36,0-6.33,1.25-8.9,2.62l-2.13-5.8c3.75-1.88,8.29-3.07,12.65-3.07,8.17,0,12.15,4.84,12.15,12.63v17.98h-6.89ZM319.36,30.32c-1.51-.34-2.8-.51-4.03-.51-2.91,0-6.33,1.08-6.33,4.61,0,2.62,2.13,3.98,4.48,3.98s4.2-1.02,5.88-2.56v-5.52Z"/><path class="cls-1" d="M342.19,20.14v11.61c0,.91,0,1.71.11,2.56.22,1.76.88,2.84,2.52,2.84,1.2,0,2.14-.34,3.13-.85l2.41,5.97c-1.86,1.14-4.61,1.76-6.86,1.76-4.5,0-7.51-2.56-8.56-6.43-.44-1.48-.55-3.24-.55-5.01v-12.46h-3.45v-6.71h3.45l1.21-6.6h6.58v6.6h7.35v6.71h-7.35Z"/><path class="cls-1" d="M354.8,2.39h7.79v6.88h-7.79V2.39ZM354.8,13.43h7.79v29.92h-7.79V13.43Z"/><path class="cls-1" d="M393.19,40.34c-2.91,2.62-6.38,3.7-10.58,3.7-8.68,0-14.95-6.37-14.95-15.65,0-8.7,6.21-15.64,15.17-15.64,4.03,0,7.45,1.25,10.36,3.7l-4.09,5.63c-1.62-1.54-3.42-2.39-5.71-2.39-4.48,0-7.61,3.93-7.61,8.7s3.3,8.71,7.5,8.71c2.18,0,3.98-.63,5.66-2.28l4.25,5.52Z"/><path class="cls-1" d="M413.76,21.56c-1.51-1.37-3.59-2.5-5.83-2.5-1.51,0-2.86.85-2.86,2.28,0,1.88,2.19,2.84,4.65,3.87,3.81,1.59,8.64,3.53,8.64,9.21,0,6.6-5.61,9.62-11.33,9.62-4.6,0-8.64-1.82-11.89-5.12l4.54-4.78c2.24,2.22,4.09,3.53,6.95,3.53,1.63,0,3.76-.8,3.76-2.62,0-2.11-2.69-3.02-5.61-4.32-3.53-1.54-7.4-3.58-7.4-8.82,0-6.09,5.16-9.16,10.54-9.16,3.93,0,7.46,1.31,10.21,3.92l-4.37,4.89Z"/><path class="cls-1" d="M127.96,69.19v-15.64h2.94c.23.52,1.03,2.31,2.39,5.4,1.36,3.08,2.41,5.44,3.14,7.06.68-1.55,2.51-5.7,5.5-12.46h2.92v15.64h-2.32v-11.6c-.71,1.51-1.72,3.74-3.02,6.69-1.31,2.95-2.04,4.58-2.19,4.91h-1.82c-.41-.91-1.21-2.7-2.41-5.36-1.2-2.66-2.12-4.72-2.77-6.17v11.53h-2.37Z"/><path class="cls-1" d="M153.3,69.19l6.22-15.64h2.54l6.27,15.64h-2.76l-1.58-4.01h-6.45l-1.55,4.01h-2.7ZM158.33,63h4.79c-.66-1.88-1.45-4.11-2.37-6.69-1.07,2.98-1.88,5.21-2.42,6.69Z"/><path class="cls-1" d="M176.75,69.19v-15.64h5.32c.65,0,1.23.03,1.74.1.51.07,1,.2,1.48.38.48.19.88.43,1.19.74s.56.72.75,1.22c.19.51.28,1.1.28,1.78,0,.92-.25,1.71-.76,2.37-.5.66-1.27,1.12-2.3,1.36.48.21.9.55,1.25,1s.68,1.04.97,1.75l1.99,4.93h-2.67l-1.77-4.65c-.32-.84-.65-1.4-.99-1.69-.35-.29-.9-.43-1.67-.43h-2.33v6.77h-2.47ZM179.19,60.33h2.65c.36,0,.68-.02.97-.06s.57-.12.83-.24c.26-.11.48-.26.67-.43.18-.18.33-.41.43-.69.1-.28.16-.61.16-.97,0-.89-.22-1.49-.65-1.8-.43-.32-1.15-.47-2.15-.47h-2.9v4.67Z"/><path class="cls-1" d="M197.65,69.19v-15.64h2.47v6.92l6.28-6.92h3.08l-6.95,7.55,7.48,8.09h-3.18l-6.7-7.17v7.17h-2.48Z"/><path class="cls-1" d="M218.09,69.19v-15.64h9.68v2.11h-7.21v4.42h6.8v2.12h-6.79v4.9h7.51v2.11h-9.99Z"/><path class="cls-1" d="M240.29,69.19v-13.54h-4.89v-2.11h12.3v2.11h-4.94v13.54h-2.47Z"/><path class="cls-1" d="M256.02,69.19v-15.64h2.47v15.64h-2.47Z"/><path class="cls-1" d="M268.62,69.19v-15.64h2.63c.63.92,1.5,2.19,2.6,3.8,1.11,1.61,2.12,3.09,3.04,4.44.92,1.35,1.78,2.63,2.57,3.83v-12.07h2.34v15.64h-2.64c-.63-.92-1.5-2.18-2.62-3.79-1.12-1.61-2.14-3.08-3.06-4.43s-1.78-2.62-2.58-3.83v12.05h-2.29Z"/><path class="cls-1" d="M299.18,69.44c-2.56,0-4.53-.7-5.91-2.11s-2.06-3.3-2.06-5.7c0-1.16.19-2.25.58-3.27.39-1.02.93-1.91,1.62-2.66s1.56-1.35,2.59-1.78c1.04-.44,2.17-.66,3.41-.66s2.25.15,3.06.43c.81.29,1.52.67,2.13,1.12l-.99,1.74c-1.12-.79-2.51-1.18-4.17-1.18-.88,0-1.68.17-2.41.49-.73.33-1.32.78-1.79,1.34-.47.57-.83,1.22-1.09,1.95-.25.73-.38,1.52-.38,2.35,0,1.78.47,3.19,1.4,4.24.93,1.05,2.3,1.57,4.11,1.57,1.05,0,2.04-.15,2.95-.45v-3.97h-3.76v-2.12h6.25v7.49c-1.72.78-3.57,1.17-5.55,1.17Z"/><path class="cls-1" d="M330.81,68.26v-4.31h-4.09v-2.02h4.1v-4.26h2.25v4.26h4.1v2.02h-4.11v4.31h-2.25Z"/><path class="cls-1" d="M361.9,69.19l-4.38-15.64h2.64c.24.92.58,2.24,1.04,3.98.45,1.74.86,3.31,1.22,4.71.36,1.41.69,2.75.99,4.02.35-1.29.74-2.63,1.16-4.03.42-1.4.9-2.97,1.44-4.72s.95-3.07,1.22-3.96h2.41l2.99,9.6.9,3.15c.29-1.27.61-2.62.96-4.04.35-1.42.74-2.99,1.17-4.71.43-1.72.76-3.05,1-4h2.56l-4.28,15.64h-2.87l-3.7-12.26-3.65,12.26h-2.83Z"/><path class="cls-1" d="M387.63,69.19v-15.64h9.68v2.11h-7.21v4.42h6.8v2.12h-6.79v4.9h7.51v2.11h-9.99Z"/><path class="cls-1" d="M406.91,69.19v-15.64h4.18c.46,0,.87,0,1.23.03.36.02.78.06,1.24.12.47.06.87.15,1.22.25s.71.26,1.06.46c.36.2.65.43.88.69s.42.6.56,1c.15.4.22.85.22,1.35,0,.77-.19,1.44-.56,2.04-.38.59-.96,1.04-1.75,1.35.98.22,1.73.68,2.25,1.36.52.69.78,1.53.78,2.51,0,.6-.12,1.17-.35,1.7s-.58,1-1.04,1.42c-.46.42-1.05.75-1.79.99s-1.57.37-2.5.37h-5.64ZM409.38,60.04h2.4c.42,0,.81-.04,1.16-.11.35-.07.67-.19.98-.35.31-.16.55-.4.72-.7s.26-.68.26-1.11c0-.82-.29-1.38-.87-1.68s-1.47-.44-2.66-.44h-1.98v4.38ZM409.39,67.07h2.72c1.13,0,2-.21,2.59-.63.6-.42.9-1.03.9-1.83,0-.97-.27-1.63-.82-1.99-.55-.36-1.5-.54-2.84-.54h-2.55v5Z"/></g><g id="Olive"><path class="cls-2" d="M18.29,41.73H0c2.48,13.17,18.41,29.09,44.83,30.48-14.36-5.95-24.57-17.22-26.54-30.48"/><path class="cls-2" d="M18.29,32.09H0C2.48,19.17,18.41,3.54,44.83,2.18c-14.36,5.84-24.57,16.9-26.54,29.91"/><path class="cls-2" d="M41.04,32.09c2.65-11.17,14.11-19.57,27.86-19.57s25.21,8.4,27.86,19.57h15.26c-3.12-16.89-21.25-29.85-43.15-29.85S28.84,15.2,25.72,32.09h15.31Z"/><path class="cls-2" d="M96.8,41.75c-2.56,11.26-14.08,19.76-27.9,19.76s-25.34-8.5-27.9-19.76h-15.39c2.74,17.23,21.06,30.55,43.26,30.55s40.52-13.32,43.26-30.55h-15.33Z"/></g></svg>